<svg version="1.1" xmlns="http://www.w3.org/2000/svg" xmlns:xlink="http://www.w3.org/1999/xlink" width="305" height="46" viewBox="0,0,305,46"><g transform="translate(-87.5,-157)"><g data-paper-data="{&quot;isPaintingLayer&quot;:true}" fill-rule="nonzero" stroke-linecap="butt" stroke-linejoin="miter" stroke-miterlimit="10" stroke-dasharray="" stroke-dashoffset="0" style="mix-blend-mode: normal"><path d="M87.5,203v-46h305v46z" fill="#ffffff" stroke="#000000" stroke-width="0"/><path d="M102.68358,157.94561l0.01209,14.14328h7.48443l-0.0121,-14.14968zM110.18011,172.0889h7.07986c2.07932,0 3.76495,1.68562 3.76495,3.76495v22.44199c0,2.07932 -1.68562,3.76495 -3.76495,3.76495h-22.44199c-2.07932,0 -3.76495,-1.68562 -3.76495,-3.76495v-22.44199c0,-2.07932 1.68562,-3.76495 3.76495,-3.76495h7.8777l0.00619,7.24237l-5.61332,0.0048l9.36353,9.34753l9.34753,-9.36353l-5.61332,0.0048z" fill="#66a2ff" stroke="none" stroke-width="0"/><text transform="translate(127.60702,194.99699) scale(0.5,0.5)" font-size="40" xml:space="preserve" fill="#66a2ff" fill-rule="nonzero" stroke="none" stroke-width="1" stroke-linecap="butt" stroke-linejoin="miter" stroke-miterlimit="10" stroke-dasharray="" stroke-dashoffset="0" font-family="Archivo Black" font-weight="normal" text-anchor="start" style="mix-blend-mode: normal"><tspan x="0" dy="0">Télécharger les données</tspan></text></g></g></svg>