<svg xmlns="http://www.w3.org/2000/svg" fill="none" viewBox="0 0 13 18" height="18" width="13">
<rect fill-opacity="0.01" fill="#0D0E12" height="18" width="13"></rect>
<path fill="white" d="M3.288 14V11.816H0.3V10.34L2.832 4.28H5.16V10.328H6.06V11.816H5.16V14H3.288ZM1.824 10.328H3.288V6.284L1.824 10.328ZM9.42497 14.18C8.74497 14.18 8.20897 14.052 7.81697 13.796C7.43297 13.54 7.15697 13.184 6.98897 12.728C6.82897 12.264 6.74897 11.732 6.74897 11.132V10.784H8.75297C8.75297 10.792 8.75297 10.836 8.75297 10.916C8.75297 10.996 8.75297 11.068 8.75297 11.132C8.75297 11.452 8.77297 11.712 8.81297 11.912C8.85297 12.112 8.92497 12.26 9.02897 12.356C9.13297 12.444 9.27697 12.488 9.46097 12.488C9.64497 12.488 9.78097 12.44 9.86897 12.344C9.96497 12.248 10.029 12.104 10.061 11.912C10.093 11.72 10.109 11.48 10.109 11.192C10.109 10.712 10.041 10.348 9.90497 10.1C9.77697 9.844 9.50497 9.712 9.08897 9.704C9.08097 9.704 9.03697 9.704 8.95697 9.704C8.87697 9.704 8.79697 9.704 8.71697 9.704V8.324C8.77297 8.324 8.82897 8.324 8.88497 8.324C8.94097 8.324 8.99297 8.324 9.04097 8.324C9.46497 8.324 9.74897 8.208 9.89297 7.976C10.037 7.744 10.109 7.384 10.109 6.896C10.109 6.52 10.057 6.232 9.95297 6.032C9.85697 5.832 9.67297 5.732 9.40097 5.732C9.13697 5.732 8.96097 5.844 8.87297 6.068C8.79297 6.292 8.75297 6.58 8.75297 6.932C8.75297 7.012 8.75297 7.096 8.75297 7.184C8.75297 7.264 8.75297 7.348 8.75297 7.436H6.74897V6.848C6.74897 6.264 6.85297 5.772 7.06097 5.372C7.27697 4.964 7.58097 4.656 7.97297 4.448C8.37297 4.24 8.84897 4.136 9.40097 4.136C9.96097 4.136 10.441 4.236 10.841 4.436C11.241 4.636 11.549 4.932 11.765 5.324C11.981 5.708 12.089 6.188 12.089 6.764C12.089 7.332 11.973 7.808 11.741 8.192C11.509 8.576 11.229 8.812 10.901 8.9C11.125 8.98 11.325 9.108 11.501 9.284C11.685 9.46 11.829 9.7 11.933 10.004C12.037 10.3 12.089 10.68 12.089 11.144C12.089 11.736 12.001 12.26 11.825 12.716C11.657 13.172 11.377 13.532 10.985 13.796C10.593 14.052 10.073 14.18 9.42497 14.18Z"></path>
</svg>
