<svg xmlns="http://www.w3.org/2000/svg" fill="none" viewBox="0 0 214 84" height="84" width="214">
<mask fill="white" id="path-1-inside-1_1434_61">
<path d="M0 0H214V84H0V0Z"></path>
</mask>
<path fill="#0D0E12" d="M0 0H214V84H0V0Z"></path>
<path mask="url(#path-1-inside-1_1434_61)" fill="white" d="M0 0V-1H-1V0H0ZM0 84H-1V85H0V84ZM0 1H214V-1H0V1ZM214 83H0V85H214V83ZM1 84V0H-1V84H1Z"></path>
<path fill="#FFF500" d="M16.756 38V28.28H18.904V32.216H20.404V28.28H22.564V38H20.404V33.752H18.904V38H16.756ZM24.0802 38V28.28H25.7722V33.848L28.2562 28.28H29.6482V38H27.9202V32.336L25.3882 38H24.0802ZM34.8063 38V34.004C34.4063 34.06 34.0143 34.088 33.6303 34.088C33.1663 34.088 32.7263 34 32.3103 33.824C31.9023 33.64 31.5703 33.376 31.3143 33.032C31.0583 32.68 30.9303 32.252 30.9303 31.748V28.28H33.0783V31.736C33.0783 31.936 33.0983 32.116 33.1383 32.276C33.1863 32.428 33.2903 32.548 33.4503 32.636C33.6183 32.724 33.8783 32.768 34.2303 32.768C34.3183 32.768 34.4103 32.764 34.5063 32.756C34.6023 32.748 34.7023 32.736 34.8063 32.72V28.28H36.9543V38H34.8063ZM38.4708 38V28.28H40.6188V32.384H41.0988C41.7068 32.384 42.2228 32.484 42.6468 32.684C43.0708 32.884 43.3948 33.192 43.6188 33.608C43.8428 34.016 43.9548 34.544 43.9548 35.192C43.9548 35.784 43.8748 36.264 43.7148 36.632C43.5628 37 43.3468 37.284 43.0668 37.484C42.7868 37.684 42.4588 37.82 42.0828 37.892C41.7148 37.964 41.3188 38 40.8948 38H38.4708ZM40.6188 36.596H40.9068C41.1788 36.596 41.3908 36.544 41.5428 36.44C41.7028 36.336 41.8148 36.176 41.8788 35.96C41.9508 35.744 41.9828 35.472 41.9748 35.144C41.9668 34.784 41.8908 34.484 41.7468 34.244C41.6108 33.996 41.3228 33.872 40.8828 33.872H40.6188V36.596ZM44.5028 38L46.3508 33.68C45.9828 33.456 45.6788 33.128 45.4388 32.696C45.2068 32.264 45.0908 31.76 45.0908 31.184C45.0908 30.432 45.2228 29.848 45.4868 29.432C45.7508 29.008 46.1268 28.712 46.6148 28.544C47.1108 28.368 47.7028 28.28 48.3908 28.28H50.8868V38H48.7508V34.16H48.3668C48.3588 34.16 48.3388 34.16 48.3068 34.16C48.2748 34.16 48.2508 34.16 48.2348 34.16L46.8188 38H44.5028ZM48.4388 32.648H48.7508V29.756H48.4148C47.9748 29.756 47.6428 29.88 47.4188 30.128C47.2028 30.368 47.0948 30.724 47.0948 31.196C47.0948 31.612 47.1908 31.96 47.3828 32.24C47.5748 32.512 47.9268 32.648 48.4388 32.648Z"></path>
<path fill="white" d="M16.63 56V47.9H17.76V51.4H19.84V47.9H20.97V56H19.84V52.21H17.76V56H16.63ZM22.1455 56V50.22H23.0455V54.11L24.7855 50.22H25.6255V56H24.7455V52.08L23.0155 56H22.1455ZM28.8858 56V53.71C28.7591 53.7233 28.6324 53.7367 28.5058 53.75C28.3791 53.7633 28.2491 53.77 28.1158 53.77C27.8291 53.77 27.5658 53.73 27.3258 53.65C27.0858 53.57 26.8958 53.4267 26.7558 53.22C26.6158 53.0067 26.5458 52.71 26.5458 52.33V50.22H27.6158V52.34C27.6158 52.5467 27.6624 52.71 27.7558 52.83C27.8558 52.95 28.0591 53.01 28.3658 53.01C28.4458 53.01 28.5291 53.0067 28.6158 53C28.7024 52.9867 28.7924 52.9733 28.8858 52.96V50.22H29.9558V56H28.8858ZM31.042 56V50.22H32.112V52.61C32.1253 52.61 32.142 52.61 32.162 52.61C32.1886 52.61 32.212 52.61 32.232 52.61C32.252 52.61 32.2686 52.61 32.282 52.61C32.6753 52.6167 33.0086 52.6467 33.282 52.7C33.562 52.7467 33.7886 52.8333 33.962 52.96C34.1353 53.08 34.262 53.25 34.342 53.47C34.422 53.6833 34.462 53.96 34.462 54.3C34.462 54.6133 34.422 54.88 34.342 55.1C34.262 55.3133 34.132 55.4867 33.952 55.62C33.772 55.7533 33.5353 55.85 33.242 55.91C32.9486 55.97 32.592 56 32.172 56H31.042ZM32.112 55.37H32.172C32.512 55.37 32.7786 55.34 32.972 55.28C33.1653 55.22 33.302 55.1133 33.382 54.96C33.462 54.8 33.502 54.5767 33.502 54.29C33.502 54.03 33.4653 53.8267 33.392 53.68C33.3253 53.5267 33.1986 53.4167 33.012 53.35C32.832 53.2767 32.5686 53.24 32.222 53.24C32.2153 53.24 32.1986 53.24 32.172 53.24C32.1453 53.24 32.1253 53.24 32.112 53.24V55.37ZM34.7523 56L35.8423 53.55C35.6557 53.4767 35.5023 53.3667 35.3823 53.22C35.269 53.0733 35.1857 52.8933 35.1323 52.68C35.079 52.4667 35.0523 52.2267 35.0523 51.96C35.0523 51.6533 35.0923 51.39 35.1723 51.17C35.2523 50.95 35.379 50.77 35.5523 50.63C35.7257 50.49 35.9557 50.3867 36.2423 50.32C36.529 50.2533 36.8823 50.22 37.3023 50.22H38.4223V56H37.3623V53.72C37.2557 53.72 37.1657 53.72 37.0923 53.72C37.019 53.7133 36.939 53.7067 36.8523 53.7L35.9023 56H34.7523ZM37.2423 53.1C37.2557 53.1 37.2757 53.1 37.3023 53.1C37.3357 53.1 37.3557 53.1 37.3623 53.1V50.83C37.3557 50.83 37.3357 50.83 37.3023 50.83C37.2757 50.83 37.259 50.83 37.2523 50.83C36.939 50.83 36.689 50.87 36.5023 50.95C36.3223 51.0233 36.1957 51.1433 36.1223 51.31C36.049 51.47 36.0123 51.6867 36.0123 51.96C36.0123 52.34 36.0957 52.6233 36.2623 52.81C36.4357 52.9967 36.7623 53.0933 37.2423 53.1ZM39.5388 57.31L39.3688 56.85C39.5488 56.79 39.6888 56.6833 39.7888 56.53C39.8954 56.3833 39.9488 56.2067 39.9488 56H39.3788V54.85H40.4788V55.98C40.4788 56.3333 40.4021 56.6133 40.2488 56.82C40.0954 57.0333 39.8588 57.1967 39.5388 57.31ZM43.6591 56V50.22H45.2791C45.6725 50.22 45.9791 50.2867 46.1991 50.42C46.4258 50.5467 46.5858 50.7167 46.6791 50.93C46.7791 51.1367 46.8325 51.36 46.8391 51.6C46.8458 51.8867 46.7991 52.1433 46.6991 52.37C46.5991 52.5967 46.3925 52.7567 46.0791 52.85C46.3191 52.8967 46.5025 52.9967 46.6291 53.15C46.7625 53.2967 46.8525 53.4733 46.8991 53.68C46.9525 53.8867 46.9791 54.1 46.9791 54.32C46.9791 54.6533 46.9291 54.9467 46.8291 55.2C46.7358 55.4533 46.5691 55.65 46.3291 55.79C46.0958 55.93 45.7625 56 45.3291 56H43.6591ZM44.7091 55.19H45.0891C45.2425 55.19 45.3825 55.17 45.5091 55.13C45.6358 55.0833 45.7358 54.9933 45.8091 54.86C45.8891 54.7267 45.9291 54.5333 45.9291 54.28C45.9291 53.98 45.8925 53.7633 45.8191 53.63C45.7525 53.49 45.6591 53.4033 45.5391 53.37C45.4258 53.3367 45.2925 53.32 45.1391 53.32H44.7091V55.19ZM44.7091 52.55H45.2291C45.4358 52.55 45.5991 52.49 45.7191 52.37C45.8391 52.25 45.8991 52.0367 45.8991 51.73C45.8991 51.4567 45.8291 51.2667 45.6891 51.16C45.5491 51.0533 45.3591 51 45.1191 51H44.7091V52.55ZM49.3995 56.08C48.9729 56.08 48.6362 55.9933 48.3895 55.82C48.1429 55.6467 47.9662 55.4 47.8595 55.08C47.7595 54.76 47.7095 54.3833 47.7095 53.95V52.27C47.7095 51.8367 47.7595 51.46 47.8595 51.14C47.9662 50.82 48.1429 50.5733 48.3895 50.4C48.6362 50.2267 48.9729 50.14 49.3995 50.14C49.8262 50.14 50.1595 50.2267 50.3995 50.4C50.6462 50.5733 50.8195 50.82 50.9195 51.14C51.0262 51.46 51.0795 51.8367 51.0795 52.27V53.95C51.0795 54.3833 51.0262 54.76 50.9195 55.08C50.8195 55.4 50.6462 55.6467 50.3995 55.82C50.1595 55.9933 49.8262 56.08 49.3995 56.08ZM49.3995 55.29C49.6062 55.29 49.7495 55.23 49.8295 55.11C49.9162 54.99 49.9662 54.8333 49.9795 54.64C49.9995 54.44 50.0095 54.2333 50.0095 54.02V52.21C50.0095 51.99 49.9995 51.7833 49.9795 51.59C49.9662 51.3967 49.9162 51.24 49.8295 51.12C49.7495 50.9933 49.6062 50.93 49.3995 50.93C49.1929 50.93 49.0462 50.9933 48.9595 51.12C48.8729 51.24 48.8195 51.3967 48.7995 51.59C48.7862 51.7833 48.7795 51.99 48.7795 52.21V54.02C48.7795 54.2333 48.7862 54.44 48.7995 54.64C48.8195 54.8333 48.8729 54.99 48.9595 55.11C49.0462 55.23 49.1929 55.29 49.3995 55.29ZM53.4176 56.1C53.1509 56.1 52.9209 56.0633 52.7276 55.99C52.5342 55.9167 52.3742 55.8033 52.2476 55.65C52.1209 55.49 52.0276 55.2933 51.9676 55.06C51.9076 54.8267 51.8776 54.55 51.8776 54.23H52.7876C52.7876 54.6233 52.8442 54.9067 52.9576 55.08C53.0709 55.2533 53.2309 55.34 53.4376 55.34C53.6176 55.34 53.7476 55.2933 53.8276 55.2C53.9076 55.1067 53.9576 54.98 53.9776 54.82C53.9976 54.6533 54.0076 54.47 54.0076 54.27C54.0076 54.0167 53.9709 53.83 53.8976 53.71C53.8309 53.5833 53.7109 53.5 53.5376 53.46C53.3709 53.42 53.1376 53.4 52.8376 53.4V52.64C53.3042 52.64 53.6142 52.57 53.7676 52.43C53.9276 52.29 54.0076 52.06 54.0076 51.74C54.0076 51.4533 53.9476 51.2467 53.8276 51.12C53.7076 50.9933 53.5576 50.93 53.3776 50.93C53.1776 50.93 53.0176 50.9933 52.8976 51.12C52.7776 51.2467 52.7176 51.5 52.7176 51.88H51.8076C51.8076 51.4467 51.8709 51.1033 51.9976 50.85C52.1309 50.5967 52.3176 50.4167 52.5576 50.31C52.8042 50.1967 53.0909 50.14 53.4176 50.14C53.7776 50.14 54.0676 50.2133 54.2876 50.36C54.5142 50.5067 54.6776 50.7 54.7776 50.94C54.8842 51.1733 54.9376 51.42 54.9376 51.68C54.9376 52.0133 54.8842 52.2733 54.7776 52.46C54.6776 52.6467 54.5509 52.78 54.3976 52.86C54.2509 52.94 54.1076 52.9867 53.9676 53C54.1142 53.0267 54.2609 53.0767 54.4076 53.15C54.5609 53.2167 54.6876 53.3467 54.7876 53.54C54.8942 53.7267 54.9476 54.02 54.9476 54.42C54.9476 54.9667 54.8209 55.3833 54.5676 55.67C54.3142 55.9567 53.9309 56.1 53.4176 56.1ZM55.7776 56L55.8376 50.22H56.6276L57.9076 53.77L59.1976 50.22H59.9876L60.0476 56H59.1476V52.55L58.0776 55.43H57.7476L56.6776 52.57V56H55.7776ZM62.6905 56.08C62.2639 56.08 61.9272 55.9933 61.6805 55.82C61.4339 55.6467 61.2572 55.4 61.1505 55.08C61.0505 54.76 61.0005 54.3833 61.0005 53.95V52.27C61.0005 51.8367 61.0505 51.46 61.1505 51.14C61.2572 50.82 61.4339 50.5733 61.6805 50.4C61.9272 50.2267 62.2639 50.14 62.6905 50.14C63.1172 50.14 63.4505 50.2267 63.6905 50.4C63.9372 50.5733 64.1105 50.82 64.2105 51.14C64.3172 51.46 64.3705 51.8367 64.3705 52.27V53.95C64.3705 54.3833 64.3172 54.76 64.2105 55.08C64.1105 55.4 63.9372 55.6467 63.6905 55.82C63.4505 55.9933 63.1172 56.08 62.6905 56.08ZM62.6905 55.29C62.8972 55.29 63.0405 55.23 63.1205 55.11C63.2072 54.99 63.2572 54.8333 63.2705 54.64C63.2905 54.44 63.3005 54.2333 63.3005 54.02V52.21C63.3005 51.99 63.2905 51.7833 63.2705 51.59C63.2572 51.3967 63.2072 51.24 63.1205 51.12C63.0405 50.9933 62.8972 50.93 62.6905 50.93C62.4839 50.93 62.3372 50.9933 62.2505 51.12C62.1639 51.24 62.1105 51.3967 62.0905 51.59C62.0772 51.7833 62.0705 51.99 62.0705 52.21V54.02C62.0705 54.2333 62.0772 54.44 62.0905 54.64C62.1105 54.8333 62.1639 54.99 62.2505 55.11C62.3372 55.23 62.4839 55.29 62.6905 55.29ZM64.8095 56L66.2595 53.05L64.8995 50.22H65.9195L67.1495 53H67.2295V50.22H68.1095V53H68.1895L69.4095 50.22H70.4295L69.0695 53.05L70.5195 56H69.5295L68.1895 53.16H68.1095V56H67.2295V53.16H67.1395L65.7995 56H64.8095ZM71.1005 56V50.22H72.1705V52.65H73.5405V50.22H74.6105V56H73.5405V53.43H72.1705V56H71.1005ZM77.2804 56.08C76.8537 56.08 76.5171 55.9933 76.2704 55.82C76.0237 55.6467 75.8471 55.4 75.7404 55.08C75.6404 54.76 75.5904 54.3833 75.5904 53.95V52.27C75.5904 51.8367 75.6404 51.46 75.7404 51.14C75.8471 50.82 76.0237 50.5733 76.2704 50.4C76.5171 50.2267 76.8537 50.14 77.2804 50.14C77.7071 50.14 78.0404 50.2267 78.2804 50.4C78.5271 50.5733 78.7004 50.82 78.8004 51.14C78.9071 51.46 78.9604 51.8367 78.9604 52.27V53.95C78.9604 54.3833 78.9071 54.76 78.8004 55.08C78.7004 55.4 78.5271 55.6467 78.2804 55.82C78.0404 55.9933 77.7071 56.08 77.2804 56.08ZM77.2804 55.29C77.4871 55.29 77.6304 55.23 77.7104 55.11C77.7971 54.99 77.8471 54.8333 77.8604 54.64C77.8804 54.44 77.8904 54.2333 77.8904 54.02V52.21C77.8904 51.99 77.8804 51.7833 77.8604 51.59C77.8471 51.3967 77.7971 51.24 77.7104 51.12C77.6304 50.9933 77.4871 50.93 77.2804 50.93C77.0737 50.93 76.9271 50.9933 76.8404 51.12C76.7537 51.24 76.7004 51.3967 76.6804 51.59C76.6671 51.7833 76.6604 51.99 76.6604 52.21V54.02C76.6604 54.2333 76.6671 54.44 76.6804 54.64C76.7004 54.8333 76.7537 54.99 76.8404 55.11C76.9271 55.23 77.0737 55.29 77.2804 55.29ZM79.9384 56V50.22H82.2684V50.99H81.0084V56H79.9384ZM84.4093 56.08C83.9826 56.08 83.646 55.9933 83.3993 55.82C83.1526 55.6467 82.976 55.4 82.8693 55.08C82.7693 54.76 82.7193 54.3833 82.7193 53.95V52.27C82.7193 51.8367 82.7693 51.46 82.8693 51.14C82.976 50.82 83.1526 50.5733 83.3993 50.4C83.646 50.2267 83.9826 50.14 84.4093 50.14C84.836 50.14 85.1693 50.2267 85.4093 50.4C85.656 50.5733 85.8293 50.82 85.9293 51.14C86.036 51.46 86.0893 51.8367 86.0893 52.27V53.95C86.0893 54.3833 86.036 54.76 85.9293 55.08C85.8293 55.4 85.656 55.6467 85.4093 55.82C85.1693 55.9933 84.836 56.08 84.4093 56.08ZM84.4093 55.29C84.616 55.29 84.7593 55.23 84.8393 55.11C84.926 54.99 84.976 54.8333 84.9893 54.64C85.0093 54.44 85.0193 54.2333 85.0193 54.02V52.21C85.0193 51.99 85.0093 51.7833 84.9893 51.59C84.976 51.3967 84.926 51.24 84.8393 51.12C84.7593 50.9933 84.616 50.93 84.4093 50.93C84.2026 50.93 84.056 50.9933 83.9693 51.12C83.8826 51.24 83.8293 51.3967 83.8093 51.59C83.796 51.7833 83.7893 51.99 83.7893 52.21V54.02C83.7893 54.2333 83.796 54.44 83.8093 54.64C83.8293 54.8333 83.8826 54.99 83.9693 55.11C84.056 55.23 84.2026 55.29 84.4093 55.29ZM88.9025 56L90.2025 52.96L88.9325 50.22H89.9525L90.8025 52.05L91.5525 50.22H92.6025L91.2825 53.09L92.6225 56H91.6025L90.6925 54.04L89.9125 56H88.9025ZM94.8292 56.08C94.4026 56.08 94.0659 55.9933 93.8192 55.82C93.5726 55.6467 93.3959 55.4 93.2892 55.08C93.1892 54.76 93.1392 54.3833 93.1392 53.95V52.27C93.1392 51.8367 93.1892 51.46 93.2892 51.14C93.3959 50.82 93.5726 50.5733 93.8192 50.4C94.0659 50.2267 94.4026 50.14 94.8292 50.14C95.2559 50.14 95.5892 50.2267 95.8292 50.4C96.0759 50.5733 96.2492 50.82 96.3492 51.14C96.4559 51.46 96.5092 51.8367 96.5092 52.27V53.95C96.5092 54.3833 96.4559 54.76 96.3492 55.08C96.2492 55.4 96.0759 55.6467 95.8292 55.82C95.5892 55.9933 95.2559 56.08 94.8292 56.08ZM94.8292 55.29C95.0359 55.29 95.1792 55.23 95.2592 55.11C95.3459 54.99 95.3959 54.8333 95.4092 54.64C95.4292 54.44 95.4392 54.2333 95.4392 54.02V52.21C95.4392 51.99 95.4292 51.7833 95.4092 51.59C95.3959 51.3967 95.3459 51.24 95.2592 51.12C95.1792 50.9933 95.0359 50.93 94.8292 50.93C94.6226 50.93 94.4759 50.9933 94.3892 51.12C94.3026 51.24 94.2492 51.3967 94.2292 51.59C94.2159 51.7833 94.2092 51.99 94.2092 52.21V54.02C94.2092 54.2333 94.2159 54.44 94.2292 54.64C94.2492 54.8333 94.3026 54.99 94.3892 55.11C94.4759 55.23 94.6226 55.29 94.8292 55.29ZM96.9673 57.47V55.29C97.1673 55.1367 97.3506 54.9533 97.5173 54.74C97.6839 54.5267 97.8306 54.2567 97.9573 53.93C98.0839 53.6033 98.1839 53.2 98.2573 52.72C98.3306 52.24 98.3706 51.66 98.3773 50.98L98.3973 50.22H101.007V55.24H101.707V57.47H100.927L100.837 56H97.8373L97.7473 57.47H96.9673ZM98.0073 55.24H99.9773V50.99H99.2273L99.2073 51.2C99.2006 51.9067 99.1639 52.4967 99.0973 52.97C99.0373 53.4367 98.9506 53.82 98.8373 54.12C98.7306 54.4133 98.6039 54.6467 98.4573 54.82C98.3173 54.9933 98.1673 55.1333 98.0073 55.24ZM103.488 56.08C103.262 56.08 103.062 56.0167 102.888 55.89C102.715 55.7567 102.578 55.59 102.478 55.39C102.378 55.1833 102.328 54.9667 102.328 54.74C102.328 54.38 102.388 54.0767 102.508 53.83C102.628 53.5833 102.792 53.3767 102.998 53.21C103.212 53.0367 103.455 52.8867 103.728 52.76C104.008 52.6333 104.302 52.51 104.608 52.39V51.98C104.608 51.7467 104.595 51.5533 104.568 51.4C104.542 51.2467 104.485 51.1333 104.398 51.06C104.318 50.98 104.195 50.94 104.028 50.94C103.882 50.94 103.762 50.9733 103.668 51.04C103.582 51.1067 103.518 51.2033 103.478 51.33C103.438 51.45 103.418 51.5933 103.418 51.76V52.05L102.358 52.01C102.372 51.37 102.518 50.9 102.798 50.6C103.078 50.2933 103.512 50.14 104.098 50.14C104.672 50.14 105.078 50.2967 105.318 50.61C105.558 50.9233 105.678 51.3767 105.678 51.97V54.61C105.678 54.79 105.682 54.9633 105.688 55.13C105.702 55.2967 105.715 55.4533 105.728 55.6C105.748 55.74 105.765 55.8733 105.778 56H104.798C104.778 55.8933 104.752 55.76 104.718 55.6C104.692 55.4333 104.672 55.2833 104.658 55.15C104.592 55.3767 104.462 55.59 104.268 55.79C104.082 55.9833 103.822 56.08 103.488 56.08ZM103.908 55.16C104.015 55.16 104.115 55.13 104.208 55.07C104.302 55.01 104.385 54.9433 104.458 54.87C104.532 54.79 104.582 54.7267 104.608 54.68V53.04C104.442 53.1333 104.285 53.2267 104.138 53.32C103.992 53.4133 103.862 53.5133 103.748 53.62C103.642 53.72 103.555 53.8367 103.488 53.97C103.428 54.0967 103.398 54.2433 103.398 54.41C103.398 54.6433 103.442 54.8267 103.528 54.96C103.615 55.0933 103.742 55.16 103.908 55.16ZM108.991 56V50.22H110.061V52.65H111.431V50.22H112.501V56H111.431V53.43H110.061V56H108.991ZM115.181 56.08C114.728 56.08 114.378 55.9933 114.131 55.82C113.884 55.64 113.711 55.38 113.611 55.04C113.518 54.6933 113.471 54.27 113.471 53.77V52.45C113.471 51.9367 113.521 51.51 113.621 51.17C113.721 50.83 113.894 50.5733 114.141 50.4C114.394 50.2267 114.741 50.14 115.181 50.14C115.668 50.14 116.024 50.24 116.251 50.44C116.484 50.64 116.638 50.93 116.711 51.31C116.784 51.6833 116.821 52.1333 116.821 52.66V53.13H114.541V54.29C114.541 54.5233 114.561 54.7133 114.601 54.86C114.648 55.0067 114.718 55.1167 114.811 55.19C114.911 55.2567 115.038 55.29 115.191 55.29C115.351 55.29 115.471 55.2533 115.551 55.18C115.638 55.1 115.694 54.99 115.721 54.85C115.754 54.7033 115.771 54.5333 115.771 54.34V53.99H116.811V54.21C116.811 54.79 116.688 55.2467 116.441 55.58C116.194 55.9133 115.774 56.08 115.181 56.08ZM114.541 52.55H115.771V52.03C115.771 51.79 115.758 51.59 115.731 51.43C115.704 51.2633 115.648 51.14 115.561 51.06C115.481 50.9733 115.351 50.93 115.171 50.93C114.998 50.93 114.864 50.97 114.771 51.05C114.684 51.13 114.624 51.2667 114.591 51.46C114.558 51.6467 114.541 51.9067 114.541 52.24V52.55ZM118.401 56V51.02H117.321V50.22H120.561V51.02H119.471V56H118.401Z"></path>
</svg>
