<svg xmlns="http://www.w3.org/2000/svg" fill="none" viewBox="0 0 214 84" height="84" width="214">
<mask fill="white" id="path-1-inside-1_1451_37">
<path d="M0 0H214V84H0V0Z"></path>
</mask>
<path fill="#0D0E12" d="M0 0H214V84H0V0Z"></path>
<path mask="url(#path-1-inside-1_1451_37)" fill="white" d="M0 0V-1H-1V0H0ZM0 84H-1V85H0V84ZM0 1H214V-1H0V1ZM214 83H0V85H214V83ZM1 84V0H-1V84H1Z"></path>
<path fill="#05FF00" d="M16.72 38V28.28H22.54V38H20.428V29.816H18.832V38H16.72ZM26.7696 38.144C26.0416 38.144 25.4656 38.016 25.0416 37.76C24.6176 37.504 24.3136 37.136 24.1296 36.656C23.9456 36.176 23.8536 35.604 23.8536 34.94V31.328C23.8536 30.656 23.9456 30.084 24.1296 29.612C24.3136 29.14 24.6176 28.78 25.0416 28.532C25.4656 28.276 26.0416 28.148 26.7696 28.148C27.5056 28.148 28.0856 28.276 28.5096 28.532C28.9416 28.78 29.2496 29.14 29.4336 29.612C29.6176 30.084 29.7096 30.656 29.7096 31.328V34.94C29.7096 35.604 29.6176 36.176 29.4336 36.656C29.2496 37.136 28.9416 37.504 28.5096 37.76C28.0856 38.016 27.5056 38.144 26.7696 38.144ZM26.7696 36.62C26.9936 36.62 27.1576 36.564 27.2616 36.452C27.3656 36.34 27.4336 36.196 27.4656 36.02C27.4976 35.844 27.5136 35.664 27.5136 35.48V30.8C27.5136 30.608 27.4976 30.428 27.4656 30.26C27.4336 30.084 27.3656 29.94 27.2616 29.828C27.1576 29.716 26.9936 29.66 26.7696 29.66C26.5616 29.66 26.4056 29.716 26.3016 29.828C26.1976 29.94 26.1296 30.084 26.0976 30.26C26.0656 30.428 26.0496 30.608 26.0496 30.8V35.48C26.0496 35.664 26.0616 35.844 26.0856 36.02C26.1176 36.196 26.1816 36.34 26.2776 36.452C26.3816 36.564 26.5456 36.62 26.7696 36.62ZM31.0529 38V28.28H35.8769V29.912H33.2009V32.384H33.6569C34.2729 32.384 34.7929 32.484 35.2169 32.684C35.6489 32.884 35.9769 33.192 36.2009 33.608C36.4249 34.016 36.5369 34.544 36.5369 35.192C36.5369 35.784 36.4569 36.264 36.2969 36.632C36.1449 37 35.9289 37.284 35.6489 37.484C35.3689 37.684 35.0409 37.82 34.6649 37.892C34.2969 37.964 33.8969 38 33.4649 38H31.0529ZM33.2009 36.596H33.4769C33.7489 36.596 33.9649 36.544 34.1249 36.44C34.2849 36.336 34.3969 36.176 34.4609 35.96C34.5249 35.744 34.5529 35.472 34.5449 35.144C34.5369 34.784 34.4609 34.484 34.3169 34.244C34.1729 33.996 33.8849 33.872 33.4529 33.872H33.2009V36.596ZM37.6614 38V28.28H42.0294V29.744H39.8094V32.156H41.5014V33.644H39.8094V36.548H42.0534V38H37.6614ZM42.5246 40.1V36.464H42.8006C42.9846 36.408 43.1526 36.312 43.3046 36.176C43.4646 36.032 43.6086 35.84 43.7366 35.6C43.8646 35.36 43.9806 35.06 44.0846 34.7C44.1886 34.34 44.2766 33.912 44.3486 33.416C44.4206 32.912 44.4806 32.332 44.5286 31.676L44.7926 28.28H49.3166V36.464H50.4086V40.1H48.9926L48.8846 38H44.1206L44.0006 40.1H42.5246ZM44.8286 36.464H47.3126V29.804H46.4126L46.3046 31.892C46.2646 32.58 46.2046 33.164 46.1246 33.644C46.0526 34.124 45.9646 34.524 45.8606 34.844C45.7646 35.156 45.6606 35.412 45.5486 35.612C45.4366 35.812 45.3166 35.976 45.1886 36.104C45.0686 36.232 44.9486 36.352 44.8286 36.464ZM50.8809 38L52.7169 28.28H55.1649L56.9769 38H54.9969L54.6729 35.948H53.2449L52.9089 38H50.8809ZM53.4369 34.664H54.4689L53.9529 30.872L53.4369 34.664Z"></path>
<path fill="white" d="M16.53 57.23V56.36C16.8767 56.3933 17.1433 56.3933 17.33 56.36C17.5233 56.3267 17.6567 56.2567 17.73 56.15C17.81 56.05 17.85 55.9133 17.85 55.74C17.85 55.56 17.83 55.3467 17.79 55.1L16.19 47.9H17.26L17.94 51.35L18.35 53.92L18.71 51.37L19.32 47.9H20.4L18.95 55.12C18.8833 55.4467 18.8267 55.7333 18.78 55.98C18.74 56.2267 18.68 56.4367 18.6 56.61C18.5267 56.7833 18.4133 56.92 18.26 57.02C18.1067 57.12 17.89 57.1867 17.61 57.22C17.3367 57.2533 16.9767 57.2567 16.53 57.23ZM24.9266 56.08C24.4533 56.08 24.0933 55.9867 23.8466 55.8C23.6066 55.6067 23.4433 55.3367 23.3566 54.99C23.2766 54.6433 23.2366 54.24 23.2366 53.78V52.45C23.2366 51.9633 23.28 51.55 23.3666 51.21C23.4533 50.8633 23.6166 50.6 23.8566 50.42C24.1033 50.2333 24.46 50.14 24.9266 50.14C25.3466 50.14 25.67 50.21 25.8966 50.35C26.13 50.4833 26.29 50.6867 26.3766 50.96C26.4633 51.2267 26.5066 51.56 26.5066 51.96V52.3H25.5366V51.95C25.5366 51.6967 25.52 51.4967 25.4866 51.35C25.4533 51.2033 25.3933 51.0967 25.3066 51.03C25.22 50.9633 25.0966 50.93 24.9366 50.93C24.7633 50.93 24.63 50.97 24.5366 51.05C24.4433 51.13 24.38 51.2667 24.3466 51.46C24.32 51.6467 24.3066 51.9033 24.3066 52.23V54.05C24.3066 54.5433 24.3533 54.8733 24.4466 55.04C24.54 55.2067 24.7066 55.29 24.9466 55.29C25.1266 55.29 25.2566 55.25 25.3366 55.17C25.4233 55.0833 25.4766 54.9633 25.4966 54.81C25.5233 54.6567 25.5366 54.4833 25.5366 54.29V53.82H26.5066V54.22C26.5066 54.6067 26.46 54.94 26.3666 55.22C26.28 55.5 26.12 55.7133 25.8866 55.86C25.66 56.0067 25.34 56.08 24.9266 56.08ZM29.048 56.08C28.6213 56.08 28.2846 55.9933 28.038 55.82C27.7913 55.6467 27.6146 55.4 27.508 55.08C27.408 54.76 27.358 54.3833 27.358 53.95V52.27C27.358 51.8367 27.408 51.46 27.508 51.14C27.6146 50.82 27.7913 50.5733 28.038 50.4C28.2846 50.2267 28.6213 50.14 29.048 50.14C29.4746 50.14 29.808 50.2267 30.048 50.4C30.2946 50.5733 30.468 50.82 30.568 51.14C30.6746 51.46 30.728 51.8367 30.728 52.27V53.95C30.728 54.3833 30.6746 54.76 30.568 55.08C30.468 55.4 30.2946 55.6467 30.048 55.82C29.808 55.9933 29.4746 56.08 29.048 56.08ZM29.048 55.29C29.2546 55.29 29.398 55.23 29.478 55.11C29.5646 54.99 29.6146 54.8333 29.628 54.64C29.648 54.44 29.658 54.2333 29.658 54.02V52.21C29.658 51.99 29.648 51.7833 29.628 51.59C29.6146 51.3967 29.5646 51.24 29.478 51.12C29.398 50.9933 29.2546 50.93 29.048 50.93C28.8413 50.93 28.6946 50.9933 28.608 51.12C28.5213 51.24 28.468 51.3967 28.448 51.59C28.4346 51.7833 28.428 51.99 28.428 52.21V54.02C28.428 54.2333 28.4346 54.44 28.448 54.64C28.468 54.8333 28.5213 54.99 28.608 55.11C28.6946 55.23 28.8413 55.29 29.048 55.29ZM31.706 56V50.22H35.066V56H33.996V51.03H32.776V56H31.706ZM37.7494 56.08C37.296 56.08 36.946 55.9933 36.6994 55.82C36.4527 55.64 36.2794 55.38 36.1794 55.04C36.086 54.6933 36.0394 54.27 36.0394 53.77V52.45C36.0394 51.9367 36.0894 51.51 36.1894 51.17C36.2894 50.83 36.4627 50.5733 36.7094 50.4C36.9627 50.2267 37.3094 50.14 37.7494 50.14C38.236 50.14 38.5927 50.24 38.8194 50.44C39.0527 50.64 39.206 50.93 39.2794 51.31C39.3527 51.6833 39.3894 52.1333 39.3894 52.66V53.13H37.1094V54.29C37.1094 54.5233 37.1294 54.7133 37.1694 54.86C37.216 55.0067 37.286 55.1167 37.3794 55.19C37.4794 55.2567 37.606 55.29 37.7594 55.29C37.9194 55.29 38.0394 55.2533 38.1194 55.18C38.206 55.1 38.2627 54.99 38.2894 54.85C38.3227 54.7033 38.3394 54.5333 38.3394 54.34V53.99H39.3794V54.21C39.3794 54.79 39.256 55.2467 39.0094 55.58C38.7627 55.9133 38.3427 56.08 37.7494 56.08ZM37.1094 52.55H38.3394V52.03C38.3394 51.79 38.326 51.59 38.2994 51.43C38.2727 51.2633 38.216 51.14 38.1294 51.06C38.0494 50.9733 37.9194 50.93 37.7394 50.93C37.566 50.93 37.4327 50.97 37.3394 51.05C37.2527 51.13 37.1927 51.2667 37.1594 51.46C37.126 51.6467 37.1094 51.9067 37.1094 52.24V52.55ZM40.3584 57.9V50.22H41.4284V50.68C41.555 50.5333 41.7084 50.4067 41.8884 50.3C42.0684 50.1933 42.2817 50.14 42.5284 50.14C42.8284 50.14 43.065 50.22 43.2384 50.38C43.4184 50.5333 43.5517 50.73 43.6384 50.97C43.725 51.2033 43.7817 51.4433 43.8084 51.69C43.835 51.93 43.8484 52.1367 43.8484 52.31V53.71C43.8484 54.1167 43.8084 54.5033 43.7284 54.87C43.6484 55.23 43.5017 55.5233 43.2884 55.75C43.0817 55.97 42.7884 56.08 42.4084 56.08C42.2017 56.08 42.0184 56.03 41.8584 55.93C41.6984 55.8233 41.555 55.7033 41.4284 55.57V57.9H40.3584ZM42.1984 55.24C42.385 55.24 42.5184 55.1733 42.5984 55.04C42.6784 54.9 42.7284 54.7133 42.7484 54.48C42.7684 54.2467 42.7784 53.99 42.7784 53.71V52.31C42.7784 52.07 42.765 51.85 42.7384 51.65C42.7117 51.4433 42.655 51.28 42.5684 51.16C42.4817 51.04 42.345 50.98 42.1584 50.98C42.0184 50.98 41.885 51.01 41.7584 51.07C41.6317 51.13 41.5217 51.2 41.4284 51.28V54.98C41.5284 55.0533 41.6417 55.1167 41.7684 55.17C41.895 55.2167 42.0384 55.24 42.1984 55.24ZM44.8213 56V50.22H45.8913V52.65H47.2613V50.22H48.3313V56H47.2613V53.43H45.8913V56H44.8213ZM49.4111 56V50.22H50.3111V54.11L52.0511 50.22H52.8911V56H52.0111V52.08L50.2811 56H49.4111ZM53.9814 56V50.22H55.0514V52.66H55.3514L56.4414 50.22H57.5414L56.3314 53.02L57.5614 56H56.4414L55.3514 53.3H55.0514V56H53.9814ZM59.1718 56.08C58.9451 56.08 58.7451 56.0167 58.5718 55.89C58.3985 55.7567 58.2618 55.59 58.1618 55.39C58.0618 55.1833 58.0118 54.9667 58.0118 54.74C58.0118 54.38 58.0718 54.0767 58.1918 53.83C58.3118 53.5833 58.4751 53.3767 58.6818 53.21C58.8951 53.0367 59.1385 52.8867 59.4118 52.76C59.6918 52.6333 59.9851 52.51 60.2918 52.39V51.98C60.2918 51.7467 60.2785 51.5533 60.2518 51.4C60.2251 51.2467 60.1685 51.1333 60.0818 51.06C60.0018 50.98 59.8785 50.94 59.7118 50.94C59.5651 50.94 59.4451 50.9733 59.3518 51.04C59.2651 51.1067 59.2018 51.2033 59.1618 51.33C59.1218 51.45 59.1018 51.5933 59.1018 51.76V52.05L58.0418 52.01C58.0551 51.37 58.2018 50.9 58.4818 50.6C58.7618 50.2933 59.1951 50.14 59.7818 50.14C60.3551 50.14 60.7618 50.2967 61.0018 50.61C61.2418 50.9233 61.3618 51.3767 61.3618 51.97V54.61C61.3618 54.79 61.3651 54.9633 61.3718 55.13C61.3851 55.2967 61.3985 55.4533 61.4118 55.6C61.4318 55.74 61.4485 55.8733 61.4618 56H60.4818C60.4618 55.8933 60.4351 55.76 60.4018 55.6C60.3751 55.4333 60.3551 55.2833 60.3418 55.15C60.2751 55.3767 60.1451 55.59 59.9518 55.79C59.7651 55.9833 59.5051 56.08 59.1718 56.08ZM59.5918 55.16C59.6985 55.16 59.7985 55.13 59.8918 55.07C59.9851 55.01 60.0685 54.9433 60.1418 54.87C60.2151 54.79 60.2651 54.7267 60.2918 54.68V53.04C60.1251 53.1333 59.9685 53.2267 59.8218 53.32C59.6751 53.4133 59.5451 53.5133 59.4318 53.62C59.3251 53.72 59.2385 53.8367 59.1718 53.97C59.1118 54.0967 59.0818 54.2433 59.0818 54.41C59.0818 54.6433 59.1251 54.8267 59.2118 54.96C59.2985 55.0933 59.4251 55.16 59.5918 55.16ZM64.6748 56V50.22H65.5748V54.11L67.3148 50.22H68.1548V56H67.2748V52.08L65.5448 56H64.6748ZM70.8251 56.08C70.3517 56.08 69.9917 55.9867 69.7451 55.8C69.5051 55.6067 69.3417 55.3367 69.2551 54.99C69.1751 54.6433 69.1351 54.24 69.1351 53.78V52.45C69.1351 51.9633 69.1784 51.55 69.2651 51.21C69.3517 50.8633 69.5151 50.6 69.7551 50.42C70.0017 50.2333 70.3584 50.14 70.8251 50.14C71.2451 50.14 71.5684 50.21 71.7951 50.35C72.0284 50.4833 72.1884 50.6867 72.2751 50.96C72.3617 51.2267 72.4051 51.56 72.4051 51.96V52.3H71.4351V51.95C71.4351 51.6967 71.4184 51.4967 71.3851 51.35C71.3517 51.2033 71.2917 51.0967 71.2051 51.03C71.1184 50.9633 70.9951 50.93 70.8351 50.93C70.6617 50.93 70.5284 50.97 70.4351 51.05C70.3417 51.13 70.2784 51.2667 70.2451 51.46C70.2184 51.6467 70.2051 51.9033 70.2051 52.23V54.05C70.2051 54.5433 70.2517 54.8733 70.3451 55.04C70.4384 55.2067 70.6051 55.29 70.8451 55.29C71.0251 55.29 71.1551 55.25 71.2351 55.17C71.3217 55.0833 71.3751 54.9633 71.3951 54.81C71.4217 54.6567 71.4351 54.4833 71.4351 54.29V53.82H72.4051V54.22C72.4051 54.6067 72.3584 54.94 72.2651 55.22C72.1784 55.5 72.0184 55.7133 71.7851 55.86C71.5584 56.0067 71.2384 56.08 70.8251 56.08ZM74.0064 56V51.02H72.9264V50.22H76.1664V51.02H75.0764V56H74.0064ZM78.3548 56.08C77.9015 56.08 77.5515 55.9933 77.3048 55.82C77.0582 55.64 76.8848 55.38 76.7848 55.04C76.6915 54.6933 76.6448 54.27 76.6448 53.77V52.45C76.6448 51.9367 76.6948 51.51 76.7948 51.17C76.8948 50.83 77.0682 50.5733 77.3148 50.4C77.5682 50.2267 77.9148 50.14 78.3548 50.14C78.8415 50.14 79.1982 50.24 79.4248 50.44C79.6582 50.64 79.8115 50.93 79.8848 51.31C79.9582 51.6833 79.9948 52.1333 79.9948 52.66V53.13H77.7148V54.29C77.7148 54.5233 77.7348 54.7133 77.7748 54.86C77.8215 55.0067 77.8915 55.1167 77.9848 55.19C78.0848 55.2567 78.2115 55.29 78.3648 55.29C78.5248 55.29 78.6448 55.2533 78.7248 55.18C78.8115 55.1 78.8682 54.99 78.8948 54.85C78.9282 54.7033 78.9448 54.5333 78.9448 54.34V53.99H79.9848V54.21C79.9848 54.79 79.8615 55.2467 79.6148 55.58C79.3682 55.9133 78.9482 56.08 78.3548 56.08ZM77.7148 52.55H78.9448V52.03C78.9448 51.79 78.9315 51.59 78.9048 51.43C78.8782 51.2633 78.8215 51.14 78.7348 51.06C78.6548 50.9733 78.5248 50.93 78.3448 50.93C78.1715 50.93 78.0382 50.97 77.9448 51.05C77.8582 51.13 77.7982 51.2667 77.7648 51.46C77.7315 51.6467 77.7148 51.9067 77.7148 52.24V52.55ZM80.9638 56V50.22H82.0338V52.66H82.3338L83.4238 50.22H84.5238L83.3138 53.02L84.5438 56H83.4238L82.3338 53.3H82.0338V56H80.9638ZM84.7442 56.05V55.24C84.9442 55.24 85.1009 55.2 85.2142 55.12C85.3342 55.04 85.4242 54.9067 85.4842 54.72C85.5509 54.5267 85.6009 54.27 85.6342 53.95C85.6676 53.6233 85.6976 53.2167 85.7242 52.73L85.8542 50.22H88.8842V56H87.8142V51.03H86.7942L86.7042 52.73C86.6709 53.39 86.6209 53.9367 86.5542 54.37C86.4942 54.8033 86.3976 55.1433 86.2642 55.39C86.1309 55.63 85.9509 55.8 85.7242 55.9C85.5042 56 85.2176 56.05 84.8642 56.05H84.7442ZM91.5577 56.08C91.1311 56.08 90.7944 55.9933 90.5477 55.82C90.3011 55.6467 90.1244 55.4 90.0177 55.08C89.9177 54.76 89.8677 54.3833 89.8677 53.95V52.27C89.8677 51.8367 89.9177 51.46 90.0177 51.14C90.1244 50.82 90.3011 50.5733 90.5477 50.4C90.7944 50.2267 91.1311 50.14 91.5577 50.14C91.9844 50.14 92.3177 50.2267 92.5577 50.4C92.8044 50.5733 92.9777 50.82 93.0777 51.14C93.1844 51.46 93.2377 51.8367 93.2377 52.27V53.95C93.2377 54.3833 93.1844 54.76 93.0777 55.08C92.9777 55.4 92.8044 55.6467 92.5577 55.82C92.3177 55.9933 91.9844 56.08 91.5577 56.08ZM91.5577 55.29C91.7644 55.29 91.9077 55.23 91.9877 55.11C92.0744 54.99 92.1244 54.8333 92.1377 54.64C92.1577 54.44 92.1677 54.2333 92.1677 54.02V52.21C92.1677 51.99 92.1577 51.7833 92.1377 51.59C92.1244 51.3967 92.0744 51.24 91.9877 51.12C91.9077 50.9933 91.7644 50.93 91.5577 50.93C91.3511 50.93 91.2044 50.9933 91.1177 51.12C91.0311 51.24 90.9777 51.3967 90.9577 51.59C90.9444 51.7833 90.9377 51.99 90.9377 52.21V54.02C90.9377 54.2333 90.9444 54.44 90.9577 54.64C90.9777 54.8333 91.0311 54.99 91.1177 55.11C91.2044 55.23 91.3511 55.29 91.5577 55.29ZM96.5009 56V50.22H98.1209C98.5143 50.22 98.8209 50.2867 99.0409 50.42C99.2676 50.5467 99.4276 50.7167 99.5209 50.93C99.6209 51.1367 99.6743 51.36 99.6809 51.6C99.6876 51.8867 99.6409 52.1433 99.5409 52.37C99.4409 52.5967 99.2343 52.7567 98.9209 52.85C99.1609 52.8967 99.3443 52.9967 99.4709 53.15C99.6043 53.2967 99.6943 53.4733 99.7409 53.68C99.7943 53.8867 99.8209 54.1 99.8209 54.32C99.8209 54.6533 99.7709 54.9467 99.6709 55.2C99.5776 55.4533 99.4109 55.65 99.1709 55.79C98.9376 55.93 98.6043 56 98.1709 56H96.5009ZM97.5509 55.19H97.9309C98.0843 55.19 98.2243 55.17 98.3509 55.13C98.4776 55.0833 98.5776 54.9933 98.6509 54.86C98.7309 54.7267 98.7709 54.5333 98.7709 54.28C98.7709 53.98 98.7343 53.7633 98.6609 53.63C98.5943 53.49 98.5009 53.4033 98.3809 53.37C98.2676 53.3367 98.1343 53.32 97.9809 53.32H97.5509V55.19ZM97.5509 52.55H98.0709C98.2776 52.55 98.4409 52.49 98.5609 52.37C98.6809 52.25 98.7409 52.0367 98.7409 51.73C98.7409 51.4567 98.6709 51.2667 98.5309 51.16C98.3909 51.0533 98.2009 51 97.9609 51H97.5509V52.55ZM100.651 57.9V50.22H101.721V50.68C101.848 50.5333 102.001 50.4067 102.181 50.3C102.361 50.1933 102.575 50.14 102.821 50.14C103.121 50.14 103.358 50.22 103.531 50.38C103.711 50.5333 103.845 50.73 103.931 50.97C104.018 51.2033 104.075 51.4433 104.101 51.69C104.128 51.93 104.141 52.1367 104.141 52.31V53.71C104.141 54.1167 104.101 54.5033 104.021 54.87C103.941 55.23 103.795 55.5233 103.581 55.75C103.375 55.97 103.081 56.08 102.701 56.08C102.495 56.08 102.311 56.03 102.151 55.93C101.991 55.8233 101.848 55.7033 101.721 55.57V57.9H100.651ZM102.491 55.24C102.678 55.24 102.811 55.1733 102.891 55.04C102.971 54.9 103.021 54.7133 103.041 54.48C103.061 54.2467 103.071 53.99 103.071 53.71V52.31C103.071 52.07 103.058 51.85 103.031 51.65C103.005 51.4433 102.948 51.28 102.861 51.16C102.775 51.04 102.638 50.98 102.451 50.98C102.311 50.98 102.178 51.01 102.051 51.07C101.925 51.13 101.815 51.2 101.721 51.28V54.98C101.821 55.0533 101.935 55.1167 102.061 55.17C102.188 55.2167 102.331 55.24 102.491 55.24ZM106.714 56.08C106.261 56.08 105.911 55.9933 105.664 55.82C105.418 55.64 105.244 55.38 105.144 55.04C105.051 54.6933 105.004 54.27 105.004 53.77V52.45C105.004 51.9367 105.054 51.51 105.154 51.17C105.254 50.83 105.428 50.5733 105.674 50.4C105.928 50.2267 106.274 50.14 106.714 50.14C107.201 50.14 107.558 50.24 107.784 50.44C108.018 50.64 108.171 50.93 108.244 51.31C108.318 51.6833 108.354 52.1333 108.354 52.66V53.13H106.074V54.29C106.074 54.5233 106.094 54.7133 106.134 54.86C106.181 55.0067 106.251 55.1167 106.344 55.19C106.444 55.2567 106.571 55.29 106.724 55.29C106.884 55.29 107.004 55.2533 107.084 55.18C107.171 55.1 107.228 54.99 107.254 54.85C107.288 54.7033 107.304 54.5333 107.304 54.34V53.99H108.344V54.21C108.344 54.79 108.221 55.2467 107.974 55.58C107.728 55.9133 107.308 56.08 106.714 56.08ZM106.074 52.55H107.304V52.03C107.304 51.79 107.291 51.59 107.264 51.43C107.238 51.2633 107.181 51.14 107.094 51.06C107.014 50.9733 106.884 50.93 106.704 50.93C106.531 50.93 106.398 50.97 106.304 51.05C106.218 51.13 106.158 51.2667 106.124 51.46C106.091 51.6467 106.074 51.9067 106.074 52.24V52.55ZM109.293 56L109.353 50.22H110.143L111.423 53.77L112.713 50.22H113.503L113.563 56H112.663V52.55L111.593 55.43H111.263L110.193 52.57V56H109.293ZM114.176 56L115.266 53.55C115.08 53.4767 114.926 53.3667 114.806 53.22C114.693 53.0733 114.61 52.8933 114.556 52.68C114.503 52.4667 114.476 52.2267 114.476 51.96C114.476 51.6533 114.516 51.39 114.596 51.17C114.676 50.95 114.803 50.77 114.976 50.63C115.15 50.49 115.38 50.3867 115.666 50.32C115.953 50.2533 116.306 50.22 116.726 50.22H117.846V56H116.786V53.72C116.68 53.72 116.59 53.72 116.516 53.72C116.443 53.7133 116.363 53.7067 116.276 53.7L115.326 56H114.176ZM116.666 53.1C116.68 53.1 116.7 53.1 116.726 53.1C116.76 53.1 116.78 53.1 116.786 53.1V50.83C116.78 50.83 116.76 50.83 116.726 50.83C116.7 50.83 116.683 50.83 116.676 50.83C116.363 50.83 116.113 50.87 115.926 50.95C115.746 51.0233 115.62 51.1433 115.546 51.31C115.473 51.47 115.436 51.6867 115.436 51.96C115.436 52.34 115.52 52.6233 115.686 52.81C115.86 52.9967 116.186 53.0933 116.666 53.1Z"></path>
</svg>
