<svg xmlns="http://www.w3.org/2000/svg" fill="none" viewBox="0 0 156 56" height="56" width="156">
<rect stroke="white" fill="#0D0E12" height="55" width="155" y="0.5" x="0.5"></rect>
<path fill="white" d="M41.0005 23V17.22H42.6305V23H41.0005ZM40.9905 16.24V15.11H42.6305V16.24H40.9905ZM45.417 23.1C44.9103 23.1 44.487 22.9867 44.147 22.76C43.8136 22.5333 43.5403 22.1633 43.327 21.65L44.437 21.16C44.5436 21.42 44.667 21.6267 44.807 21.78C44.9536 21.9267 45.1136 22 45.287 22C45.4136 22 45.507 21.9733 45.567 21.92C45.6336 21.8667 45.667 21.7933 45.667 21.7C45.667 21.5467 45.607 21.4067 45.487 21.28C45.3736 21.1533 45.167 20.9667 44.867 20.72L44.447 20.37C44.1403 20.11 43.897 19.86 43.717 19.62C43.5436 19.3733 43.457 19.07 43.457 18.71C43.457 18.3967 43.537 18.12 43.697 17.88C43.8636 17.64 44.0836 17.4533 44.357 17.32C44.6303 17.1867 44.9236 17.12 45.237 17.12C45.7103 17.12 46.107 17.25 46.427 17.51C46.747 17.77 46.9703 18.1367 47.097 18.61L46.047 19.09C46.007 18.9633 45.9503 18.8367 45.877 18.71C45.8036 18.5833 45.7136 18.4767 45.607 18.39C45.507 18.3033 45.397 18.26 45.277 18.26C45.1703 18.26 45.0836 18.29 45.017 18.35C44.957 18.41 44.927 18.49 44.927 18.59C44.927 18.7167 44.997 18.8533 45.137 19C45.2836 19.1467 45.4836 19.3233 45.737 19.53L46.147 19.89C46.3136 20.03 46.477 20.18 46.637 20.34C46.797 20.5 46.927 20.6767 47.027 20.87C47.1336 21.0633 47.187 21.2833 47.187 21.53C47.187 21.8633 47.1036 22.15 46.937 22.39C46.7703 22.6233 46.5503 22.8 46.277 22.92C46.0103 23.04 45.7236 23.1 45.417 23.1ZM52.3138 25C51.8805 25 51.5038 24.9567 51.1838 24.87C50.8638 24.7833 50.6138 24.6533 50.4338 24.48C50.2605 24.3067 50.1738 24.0867 50.1738 23.82C50.1738 23.64 50.2105 23.4767 50.2838 23.33C50.3638 23.19 50.4705 23.0667 50.6038 22.96C50.7438 22.8467 50.9005 22.75 51.0738 22.67C50.8205 22.5967 50.6238 22.4867 50.4838 22.34C50.3438 22.1933 50.2738 21.9967 50.2738 21.75C50.2738 21.5167 50.3305 21.3167 50.4438 21.15C50.5572 20.9767 50.7138 20.8033 50.9138 20.63C50.7272 20.4633 50.5838 20.26 50.4838 20.02C50.3905 19.7733 50.3438 19.4767 50.3438 19.13C50.3438 18.6967 50.4238 18.33 50.5838 18.03C50.7438 17.73 50.9772 17.5033 51.2838 17.35C51.5972 17.1967 51.9738 17.12 52.4138 17.12C52.7138 17.12 52.9772 17.1567 53.2038 17.23C53.4305 17.3033 53.6238 17.4167 53.7838 17.57C53.8572 17.4567 53.9538 17.3467 54.0738 17.24C54.1938 17.1333 54.3305 17.0433 54.4838 16.97L54.6938 16.87L55.0738 17.65C55.0138 17.67 54.9305 17.7033 54.8238 17.75C54.7172 17.7967 54.6038 17.8467 54.4838 17.9C54.3705 17.9533 54.2672 18.0067 54.1738 18.06C54.2472 18.2067 54.3038 18.3733 54.3438 18.56C54.3838 18.7467 54.4038 18.94 54.4038 19.14C54.4038 19.5533 54.3272 19.91 54.1738 20.21C54.0272 20.51 53.8072 20.74 53.5138 20.9C53.2205 21.0533 52.8538 21.13 52.4138 21.13C52.2272 21.13 52.0505 21.1167 51.8838 21.09C51.7172 21.0567 51.5638 21.0167 51.4238 20.97C51.3838 21.0233 51.3472 21.08 51.3138 21.14C51.2872 21.1933 51.2738 21.2533 51.2738 21.32C51.2738 21.4 51.3138 21.4633 51.3938 21.51C51.4738 21.5567 51.6172 21.5933 51.8238 21.62L53.3438 21.79C53.8372 21.8433 54.2005 22.0033 54.4338 22.27C54.6672 22.53 54.7838 22.8733 54.7838 23.3C54.7838 23.6667 54.7005 23.9767 54.5338 24.23C54.3738 24.4833 54.1105 24.6733 53.7438 24.8C53.3838 24.9333 52.9072 25 52.3138 25ZM52.5238 23.82C52.8905 23.82 53.1705 23.79 53.3638 23.73C53.5638 23.67 53.6638 23.5467 53.6638 23.36C53.6638 23.2667 53.6372 23.19 53.5838 23.13C53.5305 23.0767 53.4405 23.0333 53.3138 23C53.1938 22.96 53.0205 22.93 52.7938 22.91L51.7238 22.8C51.6572 22.8467 51.5972 22.9 51.5438 22.96C51.4972 23.0133 51.4572 23.07 51.4238 23.13C51.3972 23.1967 51.3838 23.2667 51.3838 23.34C51.3838 23.5 51.4705 23.62 51.6438 23.7C51.8172 23.78 52.1105 23.82 52.5238 23.82ZM52.4138 20.16C52.5072 20.16 52.5838 20.1433 52.6438 20.11C52.7038 20.07 52.7472 20.01 52.7738 19.93C52.8072 19.85 52.8305 19.7433 52.8438 19.61C52.8572 19.4767 52.8638 19.3167 52.8638 19.13C52.8638 18.9367 52.8572 18.7767 52.8438 18.65C52.8305 18.5167 52.8072 18.41 52.7738 18.33C52.7472 18.2433 52.7038 18.1833 52.6438 18.15C52.5838 18.11 52.5072 18.09 52.4138 18.09C52.3205 18.09 52.2438 18.11 52.1838 18.15C52.1238 18.1833 52.0772 18.24 52.0438 18.32C52.0172 18.4 51.9972 18.5067 51.9838 18.64C51.9705 18.7733 51.9638 18.9367 51.9638 19.13C51.9638 19.3167 51.9705 19.4767 51.9838 19.61C51.9972 19.7367 52.0172 19.8433 52.0438 19.93C52.0772 20.01 52.1238 20.07 52.1838 20.11C52.2438 20.1433 52.3205 20.16 52.4138 20.16ZM55.4536 23V17.22H57.0836V23H55.4536ZM55.4436 16.24V15.11H57.0836V16.24H55.4436ZM58.8401 23L57.6801 17.22H59.2401L59.7201 20.91L60.1601 17.22H61.7201L60.5301 23H58.8401ZM64.1891 23.1C63.7691 23.1 63.4091 23.0267 63.1091 22.88C62.8091 22.7267 62.5791 22.5067 62.4191 22.22C62.2591 21.9267 62.1791 21.5767 62.1791 21.17V19.05C62.1791 18.6367 62.2591 18.2867 62.4191 18C62.5791 17.7133 62.8091 17.4967 63.1091 17.35C63.4157 17.1967 63.7757 17.12 64.1891 17.12C64.6157 17.12 64.9691 17.1933 65.2491 17.34C65.5357 17.4867 65.7491 17.7033 65.8891 17.99C66.0357 18.2767 66.1091 18.63 66.1091 19.05V20.21H63.7891V21.32C63.7891 21.4667 63.8057 21.5867 63.8391 21.68C63.8724 21.7733 63.9191 21.84 63.9791 21.88C64.0391 21.92 64.1091 21.94 64.1891 21.94C64.2691 21.94 64.3391 21.9233 64.3991 21.89C64.4657 21.85 64.5157 21.79 64.5491 21.71C64.5891 21.63 64.6091 21.52 64.6091 21.38V20.77H66.1091V21.33C66.1091 21.9167 65.9391 22.36 65.5991 22.66C65.2591 22.9533 64.7891 23.1 64.1891 23.1ZM63.7891 19.45H64.6091V18.87C64.6091 18.7167 64.5891 18.5967 64.5491 18.51C64.5157 18.4233 64.4657 18.3633 64.3991 18.33C64.3391 18.2967 64.2657 18.28 64.1791 18.28C64.0991 18.28 64.0291 18.3 63.9691 18.34C63.9157 18.38 63.8724 18.45 63.8391 18.55C63.8057 18.6433 63.7891 18.78 63.7891 18.96V19.45ZM66.9963 23V17.22H68.6263V17.8C68.8397 17.5867 69.0597 17.42 69.2863 17.3C69.5197 17.18 69.763 17.12 70.0163 17.12C70.2563 17.12 70.453 17.18 70.6063 17.3C70.7663 17.4133 70.8863 17.5733 70.9663 17.78C71.0463 17.98 71.0863 18.21 71.0863 18.47V23H69.4663V18.7C69.4663 18.56 69.443 18.4533 69.3963 18.38C69.3497 18.3067 69.263 18.27 69.1363 18.27C69.0697 18.27 68.9897 18.29 68.8963 18.33C68.8097 18.3633 68.7197 18.4133 68.6263 18.48V23H66.9963ZM76.4133 23.06C75.9799 23.06 75.6433 22.9967 75.4033 22.87C75.1699 22.7433 75.0099 22.56 74.9233 22.32C74.8366 22.0733 74.7933 21.7767 74.7933 21.43V18.29H74.2333V17.22H74.7933V15.46H76.4433V17.22H77.2633V18.29H76.4433V21.27C76.4433 21.4367 76.4899 21.5567 76.5833 21.63C76.6833 21.7033 76.8066 21.74 76.9533 21.74C77.0399 21.74 77.1199 21.7367 77.1933 21.73C77.2666 21.7167 77.3333 21.7067 77.3933 21.7V22.98C77.3066 22.9933 77.1699 23.01 76.9833 23.03C76.7966 23.05 76.6066 23.06 76.4133 23.06ZM80.0584 23.1C79.6451 23.1 79.2851 23.03 78.9784 22.89C78.6784 22.75 78.4451 22.54 78.2784 22.26C78.1184 21.98 78.0384 21.63 78.0384 21.21V19.01C78.0384 18.59 78.1184 18.24 78.2784 17.96C78.4451 17.68 78.6784 17.47 78.9784 17.33C79.2851 17.19 79.6451 17.12 80.0584 17.12C80.4718 17.12 80.8284 17.19 81.1284 17.33C81.4351 17.47 81.6718 17.68 81.8384 17.96C82.0051 18.24 82.0884 18.59 82.0884 19.01V21.21C82.0884 21.63 82.0051 21.98 81.8384 22.26C81.6718 22.54 81.4351 22.75 81.1284 22.89C80.8284 23.03 80.4718 23.1 80.0584 23.1ZM80.0684 22.02C80.1751 22.02 80.2584 21.9933 80.3184 21.94C80.3784 21.88 80.4184 21.8 80.4384 21.7C80.4651 21.5933 80.4784 21.4667 80.4784 21.32V18.9C80.4784 18.7533 80.4651 18.63 80.4384 18.53C80.4184 18.4233 80.3784 18.3433 80.3184 18.29C80.2584 18.23 80.1751 18.2 80.0684 18.2C79.9618 18.2 79.8784 18.23 79.8184 18.29C79.7584 18.3433 79.7151 18.4233 79.6884 18.53C79.6618 18.63 79.6484 18.7533 79.6484 18.9V21.32C79.6484 21.4667 79.6618 21.5933 79.6884 21.7C79.7151 21.8 79.7584 21.88 79.8184 21.94C79.8784 21.9933 79.9618 22.02 80.0684 22.02ZM87.341 23.06C86.9077 23.06 86.571 22.9967 86.331 22.87C86.0977 22.7433 85.9377 22.56 85.851 22.32C85.7643 22.0733 85.721 21.7767 85.721 21.43V18.29H85.161V17.22H85.721V15.46H87.371V17.22H88.191V18.29H87.371V21.27C87.371 21.4367 87.4177 21.5567 87.511 21.63C87.611 21.7033 87.7343 21.74 87.881 21.74C87.9677 21.74 88.0477 21.7367 88.121 21.73C88.1943 21.7167 88.261 21.7067 88.321 21.7V22.98C88.2343 22.9933 88.0977 23.01 87.911 23.03C87.7243 23.05 87.5343 23.06 87.341 23.06ZM89.0962 23V14.9H90.7162V17.73C90.9295 17.5167 91.1528 17.3633 91.3862 17.27C91.6195 17.17 91.8695 17.12 92.1362 17.12C92.3695 17.12 92.5628 17.18 92.7162 17.3C92.8762 17.4133 92.9962 17.5733 93.0762 17.78C93.1562 17.98 93.1962 18.21 93.1962 18.47V23H91.5762V18.7C91.5762 18.56 91.5528 18.4533 91.5062 18.38C91.4595 18.3067 91.3728 18.27 91.2462 18.27C91.1795 18.27 91.0995 18.29 91.0062 18.33C90.9128 18.3633 90.8162 18.4133 90.7162 18.48V23H89.0962ZM96.0641 23.1C95.6441 23.1 95.2841 23.0267 94.9841 22.88C94.6841 22.7267 94.4541 22.5067 94.2941 22.22C94.1341 21.9267 94.0541 21.5767 94.0541 21.17V19.05C94.0541 18.6367 94.1341 18.2867 94.2941 18C94.4541 17.7133 94.6841 17.4967 94.9841 17.35C95.2907 17.1967 95.6507 17.12 96.0641 17.12C96.4907 17.12 96.8441 17.1933 97.1241 17.34C97.4107 17.4867 97.6241 17.7033 97.7641 17.99C97.9107 18.2767 97.9841 18.63 97.9841 19.05V20.21H95.6641V21.32C95.6641 21.4667 95.6807 21.5867 95.7141 21.68C95.7474 21.7733 95.7941 21.84 95.8541 21.88C95.9141 21.92 95.9841 21.94 96.0641 21.94C96.1441 21.94 96.2141 21.9233 96.2741 21.89C96.3407 21.85 96.3907 21.79 96.4241 21.71C96.4641 21.63 96.4841 21.52 96.4841 21.38V20.77H97.9841V21.33C97.9841 21.9167 97.8141 22.36 97.4741 22.66C97.1341 22.9533 96.6641 23.1 96.0641 23.1ZM95.6641 19.45H96.4841V18.87C96.4841 18.7167 96.4641 18.5967 96.4241 18.51C96.3907 18.4233 96.3407 18.3633 96.2741 18.33C96.2141 18.2967 96.1407 18.28 96.0541 18.28C95.9741 18.28 95.9041 18.3 95.8441 18.34C95.7907 18.38 95.7474 18.45 95.7141 18.55C95.6807 18.6433 95.6641 18.78 95.6641 18.96V19.45ZM103.33 23.1C102.917 23.1 102.557 23.03 102.25 22.89C101.95 22.75 101.717 22.54 101.55 22.26C101.39 21.98 101.31 21.63 101.31 21.21V19.01C101.31 18.59 101.39 18.24 101.55 17.96C101.717 17.68 101.95 17.47 102.25 17.33C102.557 17.19 102.917 17.12 103.33 17.12C103.743 17.12 104.1 17.19 104.4 17.33C104.707 17.47 104.943 17.68 105.11 17.96C105.277 18.24 105.36 18.59 105.36 19.01V21.21C105.36 21.63 105.277 21.98 105.11 22.26C104.943 22.54 104.707 22.75 104.4 22.89C104.1 23.03 103.743 23.1 103.33 23.1ZM103.34 22.02C103.447 22.02 103.53 21.9933 103.59 21.94C103.65 21.88 103.69 21.8 103.71 21.7C103.737 21.5933 103.75 21.4667 103.75 21.32V18.9C103.75 18.7533 103.737 18.63 103.71 18.53C103.69 18.4233 103.65 18.3433 103.59 18.29C103.53 18.23 103.447 18.2 103.34 18.2C103.233 18.2 103.15 18.23 103.09 18.29C103.03 18.3433 102.987 18.4233 102.96 18.53C102.933 18.63 102.92 18.7533 102.92 18.9V21.32C102.92 21.4667 102.933 21.5933 102.96 21.7C102.987 21.8 103.03 21.88 103.09 21.94C103.15 21.9933 103.233 22.02 103.34 22.02ZM106.264 23V17.22H107.894V17.8C108.107 17.5867 108.327 17.42 108.554 17.3C108.787 17.18 109.031 17.12 109.284 17.12C109.524 17.12 109.721 17.18 109.874 17.3C110.034 17.4133 110.154 17.5733 110.234 17.78C110.314 17.98 110.354 18.21 110.354 18.47V23H108.734V18.7C108.734 18.56 108.711 18.4533 108.664 18.38C108.617 18.3067 108.531 18.27 108.404 18.27C108.337 18.27 108.257 18.29 108.164 18.33C108.077 18.3633 107.987 18.4133 107.894 18.48V23H106.264ZM113.222 23.1C112.802 23.1 112.442 23.0267 112.142 22.88C111.842 22.7267 111.612 22.5067 111.452 22.22C111.292 21.9267 111.212 21.5767 111.212 21.17V19.05C111.212 18.6367 111.292 18.2867 111.452 18C111.612 17.7133 111.842 17.4967 112.142 17.35C112.449 17.1967 112.809 17.12 113.222 17.12C113.649 17.12 114.002 17.1933 114.282 17.34C114.569 17.4867 114.782 17.7033 114.922 17.99C115.069 18.2767 115.142 18.63 115.142 19.05V20.21H112.822V21.32C112.822 21.4667 112.839 21.5867 112.872 21.68C112.906 21.7733 112.952 21.84 113.012 21.88C113.072 21.92 113.142 21.94 113.222 21.94C113.302 21.94 113.372 21.9233 113.432 21.89C113.499 21.85 113.549 21.79 113.582 21.71C113.622 21.63 113.642 21.52 113.642 21.38V20.77H115.142V21.33C115.142 21.9167 114.972 22.36 114.632 22.66C114.292 22.9533 113.822 23.1 113.222 23.1ZM112.822 19.45H113.642V18.87C113.642 18.7167 113.622 18.5967 113.582 18.51C113.549 18.4233 113.499 18.3633 113.432 18.33C113.372 18.2967 113.299 18.28 113.212 18.28C113.132 18.28 113.062 18.3 113.002 18.34C112.949 18.38 112.906 18.45 112.872 18.55C112.839 18.6433 112.822 18.78 112.822 18.96V19.45ZM25.8471 38L24.9971 32.22H26.3571L26.7771 35.5L27.2271 32.22H28.4071L28.7971 35.58L29.2871 32.22H30.5471L29.6871 38H28.2871L27.7871 34.75L27.2271 38H25.8471ZM31.2739 38V29.9H32.8939V32.73C33.1072 32.5167 33.3306 32.3633 33.5639 32.27C33.7972 32.17 34.0472 32.12 34.3139 32.12C34.5472 32.12 34.7406 32.18 34.8939 32.3C35.0539 32.4133 35.1739 32.5733 35.2539 32.78C35.3339 32.98 35.3739 33.21 35.3739 33.47V38H33.7539V33.7C33.7539 33.56 33.7306 33.4533 33.6839 33.38C33.6372 33.3067 33.5506 33.27 33.4239 33.27C33.3572 33.27 33.2772 33.29 33.1839 33.33C33.0906 33.3633 32.9939 33.4133 32.8939 33.48V38H31.2739ZM38.2518 38.1C37.8385 38.1 37.4785 38.03 37.1718 37.89C36.8718 37.75 36.6385 37.54 36.4718 37.26C36.3118 36.98 36.2318 36.63 36.2318 36.21V34.01C36.2318 33.59 36.3118 33.24 36.4718 32.96C36.6385 32.68 36.8718 32.47 37.1718 32.33C37.4785 32.19 37.8385 32.12 38.2518 32.12C38.6651 32.12 39.0218 32.19 39.3218 32.33C39.6285 32.47 39.8651 32.68 40.0318 32.96C40.1985 33.24 40.2818 33.59 40.2818 34.01V36.21C40.2818 36.63 40.1985 36.98 40.0318 37.26C39.8651 37.54 39.6285 37.75 39.3218 37.89C39.0218 38.03 38.6651 38.1 38.2518 38.1ZM38.2618 37.02C38.3685 37.02 38.4518 36.9933 38.5118 36.94C38.5718 36.88 38.6118 36.8 38.6318 36.7C38.6585 36.5933 38.6718 36.4667 38.6718 36.32V33.9C38.6718 33.7533 38.6585 33.63 38.6318 33.53C38.6118 33.4233 38.5718 33.3433 38.5118 33.29C38.4518 33.23 38.3685 33.2 38.2618 33.2C38.1551 33.2 38.0718 33.23 38.0118 33.29C37.9518 33.3433 37.9085 33.4233 37.8818 33.53C37.8551 33.63 37.8418 33.7533 37.8418 33.9V36.32C37.8418 36.4667 37.8551 36.5933 37.8818 36.7C37.9085 36.8 37.9518 36.88 38.0118 36.94C38.0718 36.9933 38.1551 37.02 38.2618 37.02ZM44.2944 38L43.4444 32.22H44.8044L45.2244 35.5L45.6744 32.22H46.8544L47.2444 35.58L47.7344 32.22H48.9944L48.1344 38H46.7344L46.2344 34.75L45.6744 38H44.2944ZM49.7212 38V32.22H51.3512V38H49.7212ZM49.7112 31.24V30.11H51.3512V31.24H49.7112ZM52.4277 38V29.9H54.0477V38H52.4277ZM55.1718 38V29.9H56.7918V38H55.1718ZM60.4045 39.9V32.22H62.0345V32.64C62.2279 32.4667 62.4345 32.3367 62.6545 32.25C62.8745 32.1633 63.0845 32.12 63.2845 32.12C63.5045 32.12 63.6912 32.1633 63.8445 32.25C64.0045 32.3367 64.1345 32.46 64.2345 32.62C64.3345 32.7733 64.4079 32.9533 64.4545 33.16C64.5012 33.3667 64.5245 33.5867 64.5245 33.82V36.31C64.5245 36.67 64.4745 36.9833 64.3745 37.25C64.2812 37.5167 64.1412 37.7267 63.9545 37.88C63.7679 38.0267 63.5379 38.1 63.2645 38.1C63.0579 38.1 62.8479 38.0533 62.6345 37.96C62.4279 37.86 62.2279 37.7267 62.0345 37.56V39.9H60.4045ZM62.4645 37.05C62.5712 37.05 62.6545 37.02 62.7145 36.96C62.7745 36.9 62.8179 36.8233 62.8445 36.73C62.8779 36.63 62.8945 36.52 62.8945 36.4V33.7C62.8945 33.5867 62.8812 33.4867 62.8545 33.4C62.8279 33.3067 62.7845 33.2333 62.7245 33.18C62.6645 33.1267 62.5879 33.1 62.4945 33.1C62.4079 33.1 62.3245 33.12 62.2445 33.16C62.1712 33.1933 62.1012 33.24 62.0345 33.3V36.9C62.1079 36.9467 62.1779 36.9833 62.2445 37.01C62.3179 37.0367 62.3912 37.05 62.4645 37.05ZM65.5234 38V29.9H67.1434V38H65.5234ZM69.3875 38.1C69.0942 38.1 68.8475 38.03 68.6475 37.89C68.4475 37.75 68.2975 37.5733 68.1975 37.36C68.0975 37.14 68.0475 36.9167 68.0475 36.69C68.0475 36.33 68.1175 36.0267 68.2575 35.78C68.4042 35.5333 68.5942 35.3267 68.8275 35.16C69.0608 34.9933 69.3175 34.8533 69.5975 34.74C69.8775 34.62 70.1542 34.5133 70.4275 34.42V33.84C70.4275 33.74 70.4175 33.6533 70.3975 33.58C70.3775 33.5 70.3442 33.44 70.2975 33.4C70.2508 33.3533 70.1808 33.33 70.0875 33.33C69.9942 33.33 69.9208 33.35 69.8675 33.39C69.8208 33.43 69.7875 33.4867 69.7675 33.56C69.7475 33.6267 69.7342 33.7033 69.7275 33.79L69.6875 34.21L68.1675 34.15C68.2008 33.4567 68.3842 32.9467 68.7175 32.62C69.0575 32.2867 69.5642 32.12 70.2375 32.12C70.8242 32.12 71.2608 32.2833 71.5475 32.61C71.8408 32.93 71.9875 33.3467 71.9875 33.86V36.56C71.9875 36.8 71.9908 37.01 71.9975 37.19C72.0108 37.37 72.0242 37.5267 72.0375 37.66C72.0575 37.7933 72.0742 37.9067 72.0875 38H70.6275C70.6075 37.8467 70.5842 37.68 70.5575 37.5C70.5308 37.32 70.5108 37.2133 70.4975 37.18C70.4308 37.42 70.3042 37.6333 70.1175 37.82C69.9375 38.0067 69.6942 38.1 69.3875 38.1ZM69.9675 37C70.0342 37 70.0942 36.9867 70.1475 36.96C70.2075 36.9333 70.2608 36.8967 70.3075 36.85C70.3542 36.8033 70.3942 36.7567 70.4275 36.71V35.13C70.2942 35.21 70.1708 35.2933 70.0575 35.38C69.9442 35.46 69.8475 35.55 69.7675 35.65C69.6875 35.75 69.6242 35.86 69.5775 35.98C69.5375 36.0933 69.5175 36.2233 69.5175 36.37C69.5175 36.5633 69.5575 36.7167 69.6375 36.83C69.7175 36.9433 69.8275 37 69.9675 37ZM73.1134 39.68V38.55C73.32 38.55 73.49 38.5367 73.6234 38.51C73.7634 38.4833 73.8667 38.4333 73.9334 38.36C74.0067 38.2867 74.0434 38.1867 74.0434 38.06C74.0434 37.9467 74.0234 37.81 73.9834 37.65C73.9434 37.4833 73.8934 37.2967 73.8334 37.09L72.4734 32.22H74.0034L74.7334 35.56L75.2834 32.22H76.8234L75.4934 38.14C75.4067 38.54 75.27 38.85 75.0834 39.07C74.8967 39.2967 74.6667 39.4533 74.3934 39.54C74.1267 39.6333 73.8234 39.68 73.4834 39.68H73.1134ZM80.8144 38V31.55C80.741 31.59 80.6577 31.63 80.5644 31.67C80.471 31.71 80.371 31.7533 80.2644 31.8C80.1644 31.84 80.0644 31.88 79.9644 31.92C79.871 31.96 79.7844 32 79.7044 32.04V30.8C79.7777 30.76 79.881 30.7067 80.0144 30.64C80.1477 30.5667 80.291 30.4867 80.4444 30.4C80.5977 30.3133 80.741 30.2267 80.8744 30.14C81.0077 30.0467 81.1077 29.9667 81.1744 29.9H82.4844V38H80.8144ZM88.6797 38.15C88.193 38.15 87.7864 38.0533 87.4597 37.86C87.133 37.66 86.8864 37.3867 86.7197 37.04C86.553 36.6933 86.4697 36.29 86.4697 35.83V32.16C86.4697 31.6867 86.5464 31.2733 86.6997 30.92C86.8597 30.56 87.103 30.28 87.4297 30.08C87.7564 29.88 88.173 29.78 88.6797 29.78C89.1864 29.78 89.5997 29.88 89.9197 30.08C90.2464 30.28 90.4864 30.56 90.6397 30.92C90.7997 31.2733 90.8797 31.6867 90.8797 32.16V35.83C90.8797 36.2833 90.7964 36.6867 90.6297 37.04C90.463 37.3867 90.2164 37.66 89.8897 37.86C89.563 38.0533 89.1597 38.15 88.6797 38.15ZM88.6797 36.66C88.8397 36.66 88.953 36.61 89.0197 36.51C89.093 36.4033 89.1364 36.2833 89.1497 36.15C89.1697 36.01 89.1797 35.89 89.1797 35.79V32.2C89.1797 32.0867 89.173 31.96 89.1597 31.82C89.1464 31.6733 89.103 31.5467 89.0297 31.44C88.963 31.3267 88.8464 31.27 88.6797 31.27C88.513 31.27 88.393 31.3267 88.3197 31.44C88.253 31.5467 88.213 31.6733 88.1997 31.82C88.1864 31.96 88.1797 32.0867 88.1797 32.2V35.79C88.1797 35.89 88.1897 36.01 88.2097 36.15C88.2297 36.2833 88.273 36.4033 88.3397 36.51C88.413 36.61 88.5264 36.66 88.6797 36.66ZM94.1777 38.15C93.6911 38.15 93.2844 38.0533 92.9577 37.86C92.6311 37.66 92.3844 37.3867 92.2177 37.04C92.0511 36.6933 91.9677 36.29 91.9677 35.83V32.16C91.9677 31.6867 92.0444 31.2733 92.1977 30.92C92.3577 30.56 92.6011 30.28 92.9277 30.08C93.2544 29.88 93.6711 29.78 94.1777 29.78C94.6844 29.78 95.0977 29.88 95.4177 30.08C95.7444 30.28 95.9844 30.56 96.1377 30.92C96.2977 31.2733 96.3777 31.6867 96.3777 32.16V35.83C96.3777 36.2833 96.2944 36.6867 96.1277 37.04C95.9611 37.3867 95.7144 37.66 95.3877 37.86C95.0611 38.0533 94.6577 38.15 94.1777 38.15ZM94.1777 36.66C94.3377 36.66 94.4511 36.61 94.5177 36.51C94.5911 36.4033 94.6344 36.2833 94.6477 36.15C94.6677 36.01 94.6777 35.89 94.6777 35.79V32.2C94.6777 32.0867 94.6711 31.96 94.6577 31.82C94.6444 31.6733 94.6011 31.5467 94.5277 31.44C94.4611 31.3267 94.3444 31.27 94.1777 31.27C94.0111 31.27 93.8911 31.3267 93.8177 31.44C93.7511 31.5467 93.7111 31.6733 93.6977 31.82C93.6844 31.96 93.6777 32.0867 93.6777 32.2V35.79C93.6777 35.89 93.6877 36.01 93.7077 36.15C93.7277 36.2833 93.7711 36.4033 93.8377 36.51C93.9111 36.61 94.0244 36.66 94.1777 36.66ZM99.6758 38.15C99.1891 38.15 98.7824 38.0533 98.4558 37.86C98.1291 37.66 97.8824 37.3867 97.7158 37.04C97.5491 36.6933 97.4658 36.29 97.4658 35.83V32.16C97.4658 31.6867 97.5424 31.2733 97.6958 30.92C97.8558 30.56 98.0991 30.28 98.4258 30.08C98.7524 29.88 99.1691 29.78 99.6758 29.78C100.182 29.78 100.596 29.88 100.916 30.08C101.242 30.28 101.482 30.56 101.636 30.92C101.796 31.2733 101.876 31.6867 101.876 32.16V35.83C101.876 36.2833 101.792 36.6867 101.626 37.04C101.459 37.3867 101.212 37.66 100.886 37.86C100.559 38.0533 100.156 38.15 99.6758 38.15ZM99.6758 36.66C99.8358 36.66 99.9491 36.61 100.016 36.51C100.089 36.4033 100.132 36.2833 100.146 36.15C100.166 36.01 100.176 35.89 100.176 35.79V32.2C100.176 32.0867 100.169 31.96 100.156 31.82C100.142 31.6733 100.099 31.5467 100.026 31.44C99.9591 31.3267 99.8424 31.27 99.6758 31.27C99.5091 31.27 99.3891 31.3267 99.3158 31.44C99.2491 31.5467 99.2091 31.6733 99.1958 31.82C99.1824 31.96 99.1758 32.0867 99.1758 32.2V35.79C99.1758 35.89 99.1858 36.01 99.2058 36.15C99.2258 36.2833 99.2691 36.4033 99.3358 36.51C99.4091 36.61 99.5224 36.66 99.6758 36.66ZM107.372 40C106.939 40 106.562 39.9567 106.242 39.87C105.922 39.7833 105.672 39.6533 105.492 39.48C105.319 39.3067 105.232 39.0867 105.232 38.82C105.232 38.64 105.269 38.4767 105.342 38.33C105.422 38.19 105.529 38.0667 105.662 37.96C105.802 37.8467 105.959 37.75 106.132 37.67C105.879 37.5967 105.682 37.4867 105.542 37.34C105.402 37.1933 105.332 36.9967 105.332 36.75C105.332 36.5167 105.389 36.3167 105.502 36.15C105.616 35.9767 105.772 35.8033 105.972 35.63C105.786 35.4633 105.642 35.26 105.542 35.02C105.449 34.7733 105.402 34.4767 105.402 34.13C105.402 33.6967 105.482 33.33 105.642 33.03C105.802 32.73 106.036 32.5033 106.342 32.35C106.656 32.1967 107.032 32.12 107.472 32.12C107.772 32.12 108.036 32.1567 108.262 32.23C108.489 32.3033 108.682 32.4167 108.842 32.57C108.916 32.4567 109.012 32.3467 109.132 32.24C109.252 32.1333 109.389 32.0433 109.542 31.97L109.752 31.87L110.132 32.65C110.072 32.67 109.989 32.7033 109.882 32.75C109.776 32.7967 109.662 32.8467 109.542 32.9C109.429 32.9533 109.326 33.0067 109.232 33.06C109.306 33.2067 109.362 33.3733 109.402 33.56C109.442 33.7467 109.462 33.94 109.462 34.14C109.462 34.5533 109.386 34.91 109.232 35.21C109.086 35.51 108.866 35.74 108.572 35.9C108.279 36.0533 107.912 36.13 107.472 36.13C107.286 36.13 107.109 36.1167 106.942 36.09C106.776 36.0567 106.622 36.0167 106.482 35.97C106.442 36.0233 106.406 36.08 106.372 36.14C106.346 36.1933 106.332 36.2533 106.332 36.32C106.332 36.4 106.372 36.4633 106.452 36.51C106.532 36.5567 106.676 36.5933 106.882 36.62L108.402 36.79C108.896 36.8433 109.259 37.0033 109.492 37.27C109.726 37.53 109.842 37.8733 109.842 38.3C109.842 38.6667 109.759 38.9767 109.592 39.23C109.432 39.4833 109.169 39.6733 108.802 39.8C108.442 39.9333 107.966 40 107.372 40ZM107.582 38.82C107.949 38.82 108.229 38.79 108.422 38.73C108.622 38.67 108.722 38.5467 108.722 38.36C108.722 38.2667 108.696 38.19 108.642 38.13C108.589 38.0767 108.499 38.0333 108.372 38C108.252 37.96 108.079 37.93 107.852 37.91L106.782 37.8C106.716 37.8467 106.656 37.9 106.602 37.96C106.556 38.0133 106.516 38.07 106.482 38.13C106.456 38.1967 106.442 38.2667 106.442 38.34C106.442 38.5 106.529 38.62 106.702 38.7C106.876 38.78 107.169 38.82 107.582 38.82ZM107.472 35.16C107.566 35.16 107.642 35.1433 107.702 35.11C107.762 35.07 107.806 35.01 107.832 34.93C107.866 34.85 107.889 34.7433 107.902 34.61C107.916 34.4767 107.922 34.3167 107.922 34.13C107.922 33.9367 107.916 33.7767 107.902 33.65C107.889 33.5167 107.866 33.41 107.832 33.33C107.806 33.2433 107.762 33.1833 107.702 33.15C107.642 33.11 107.566 33.09 107.472 33.09C107.379 33.09 107.302 33.11 107.242 33.15C107.182 33.1833 107.136 33.24 107.102 33.32C107.076 33.4 107.056 33.5067 107.042 33.64C107.029 33.7733 107.022 33.9367 107.022 34.13C107.022 34.3167 107.029 34.4767 107.042 34.61C107.056 34.7367 107.076 34.8433 107.102 34.93C107.136 35.01 107.182 35.07 107.242 35.11C107.302 35.1433 107.379 35.16 107.472 35.16ZM111.692 38.1C111.399 38.1 111.152 38.03 110.952 37.89C110.752 37.75 110.602 37.5733 110.502 37.36C110.402 37.14 110.352 36.9167 110.352 36.69C110.352 36.33 110.422 36.0267 110.562 35.78C110.709 35.5333 110.899 35.3267 111.132 35.16C111.366 34.9933 111.622 34.8533 111.902 34.74C112.182 34.62 112.459 34.5133 112.732 34.42V33.84C112.732 33.74 112.722 33.6533 112.702 33.58C112.682 33.5 112.649 33.44 112.602 33.4C112.556 33.3533 112.486 33.33 112.392 33.33C112.299 33.33 112.226 33.35 112.172 33.39C112.126 33.43 112.092 33.4867 112.072 33.56C112.052 33.6267 112.039 33.7033 112.032 33.79L111.992 34.21L110.472 34.15C110.506 33.4567 110.689 32.9467 111.022 32.62C111.362 32.2867 111.869 32.12 112.542 32.12C113.129 32.12 113.566 32.2833 113.852 32.61C114.146 32.93 114.292 33.3467 114.292 33.86V36.56C114.292 36.8 114.296 37.01 114.302 37.19C114.316 37.37 114.329 37.5267 114.342 37.66C114.362 37.7933 114.379 37.9067 114.392 38H112.932C112.912 37.8467 112.889 37.68 112.862 37.5C112.836 37.32 112.816 37.2133 112.802 37.18C112.736 37.42 112.609 37.6333 112.422 37.82C112.242 38.0067 111.999 38.1 111.692 38.1ZM112.272 37C112.339 37 112.399 36.9867 112.452 36.96C112.512 36.9333 112.566 36.8967 112.612 36.85C112.659 36.8033 112.699 36.7567 112.732 36.71V35.13C112.599 35.21 112.476 35.2933 112.362 35.38C112.249 35.46 112.152 35.55 112.072 35.65C111.992 35.75 111.929 35.86 111.882 35.98C111.842 36.0933 111.822 36.2233 111.822 36.37C111.822 36.5633 111.862 36.7167 111.942 36.83C112.022 36.9433 112.132 37 112.272 37ZM115.258 38V32.22H116.858V32.68C117.071 32.4733 117.291 32.3267 117.518 32.24C117.751 32.1533 117.988 32.11 118.228 32.11C118.461 32.11 118.661 32.17 118.828 32.29C119.001 32.4033 119.131 32.5733 119.218 32.8C119.445 32.5467 119.681 32.37 119.928 32.27C120.181 32.1633 120.435 32.11 120.688 32.11C120.915 32.11 121.111 32.1667 121.278 32.28C121.445 32.3867 121.575 32.5467 121.668 32.76C121.761 32.9667 121.808 33.2167 121.808 33.51V38H120.208V33.68C120.208 33.52 120.178 33.4067 120.118 33.34C120.065 33.2667 119.981 33.23 119.868 33.23C119.801 33.23 119.718 33.25 119.618 33.29C119.518 33.3233 119.421 33.3733 119.328 33.44C119.328 33.4533 119.328 33.4667 119.328 33.48C119.328 33.4867 119.328 33.4967 119.328 33.51V38H117.748V33.68C117.748 33.52 117.718 33.4067 117.658 33.34C117.598 33.2667 117.511 33.23 117.398 33.23C117.325 33.23 117.238 33.25 117.138 33.29C117.045 33.3233 116.951 33.3733 116.858 33.44V38H115.258ZM124.677 38.1C124.257 38.1 123.897 38.0267 123.597 37.88C123.297 37.7267 123.067 37.5067 122.907 37.22C122.747 36.9267 122.667 36.5767 122.667 36.17V34.05C122.667 33.6367 122.747 33.2867 122.907 33C123.067 32.7133 123.297 32.4967 123.597 32.35C123.904 32.1967 124.264 32.12 124.677 32.12C125.104 32.12 125.457 32.1933 125.737 32.34C126.024 32.4867 126.237 32.7033 126.377 32.99C126.524 33.2767 126.597 33.63 126.597 34.05V35.21H124.277V36.32C124.277 36.4667 124.294 36.5867 124.327 36.68C124.361 36.7733 124.407 36.84 124.467 36.88C124.527 36.92 124.597 36.94 124.677 36.94C124.757 36.94 124.827 36.9233 124.887 36.89C124.954 36.85 125.004 36.79 125.037 36.71C125.077 36.63 125.097 36.52 125.097 36.38V35.77H126.597V36.33C126.597 36.9167 126.427 37.36 126.087 37.66C125.747 37.9533 125.277 38.1 124.677 38.1ZM124.277 34.45H125.097V33.87C125.097 33.7167 125.077 33.5967 125.037 33.51C125.004 33.4233 124.954 33.3633 124.887 33.33C124.827 33.2967 124.754 33.28 124.667 33.28C124.587 33.28 124.517 33.3 124.457 33.34C124.404 33.38 124.361 33.45 124.327 33.55C124.294 33.6433 124.277 33.78 124.277 33.96V34.45ZM129.265 38.1C128.758 38.1 128.335 37.9867 127.995 37.76C127.661 37.5333 127.388 37.1633 127.175 36.65L128.285 36.16C128.391 36.42 128.515 36.6267 128.655 36.78C128.801 36.9267 128.961 37 129.135 37C129.261 37 129.355 36.9733 129.415 36.92C129.481 36.8667 129.515 36.7933 129.515 36.7C129.515 36.5467 129.455 36.4067 129.335 36.28C129.221 36.1533 129.015 35.9667 128.715 35.72L128.295 35.37C127.988 35.11 127.745 34.86 127.565 34.62C127.391 34.3733 127.305 34.07 127.305 33.71C127.305 33.3967 127.385 33.12 127.545 32.88C127.711 32.64 127.931 32.4533 128.205 32.32C128.478 32.1867 128.771 32.12 129.085 32.12C129.558 32.12 129.955 32.25 130.275 32.51C130.595 32.77 130.818 33.1367 130.945 33.61L129.895 34.09C129.855 33.9633 129.798 33.8367 129.725 33.71C129.651 33.5833 129.561 33.4767 129.455 33.39C129.355 33.3033 129.245 33.26 129.125 33.26C129.018 33.26 128.931 33.29 128.865 33.35C128.805 33.41 128.775 33.49 128.775 33.59C128.775 33.7167 128.845 33.8533 128.985 34C129.131 34.1467 129.331 34.3233 129.585 34.53L129.995 34.89C130.161 35.03 130.325 35.18 130.485 35.34C130.645 35.5 130.775 35.6767 130.875 35.87C130.981 36.0633 131.035 36.2833 131.035 36.53C131.035 36.8633 130.951 37.15 130.785 37.39C130.618 37.6233 130.398 37.8 130.125 37.92C129.858 38.04 129.571 38.1 129.265 38.1Z"></path>
</svg>
