<svg xmlns="http://www.w3.org/2000/svg" fill="none" viewBox="0 0 90 22" height="22" width="90">
<rect stroke="#0D0E12" fill="white" height="21" width="89" y="0.5" x="0.5"></rect>
<path fill="#0D0E12" d="M39.92 15.12C39.3067 15.12 38.82 15.01 38.46 14.79C38.1067 14.5633 37.8567 14.25 37.71 13.85C37.5633 13.4433 37.49 12.9667 37.49 12.42V9.5C37.49 8.94 37.5633 8.46 37.71 8.06C37.8567 7.65333 38.1067 7.34 38.46 7.12C38.82 6.9 39.3067 6.79 39.92 6.79C40.52 6.79 40.9867 6.89 41.32 7.09C41.66 7.28333 41.9 7.55667 42.04 7.91C42.18 8.26333 42.25 8.67 42.25 9.13V9.83H40.5V9.02C40.5 8.86 40.49 8.70667 40.47 8.56C40.4567 8.41333 40.41 8.29333 40.33 8.2C40.25 8.1 40.1133 8.05 39.92 8.05C39.7333 8.05 39.5933 8.1 39.5 8.2C39.4133 8.3 39.3567 8.42667 39.33 8.58C39.31 8.72667 39.3 8.88333 39.3 9.05V12.86C39.3 13.04 39.3133 13.2067 39.34 13.36C39.3733 13.5067 39.4333 13.6267 39.52 13.72C39.6133 13.8067 39.7467 13.85 39.92 13.85C40.1067 13.85 40.24 13.8033 40.32 13.71C40.4 13.61 40.45 13.4833 40.47 13.33C40.49 13.1767 40.5 13.02 40.5 12.86V12.01H42.25V12.71C42.25 13.17 42.18 13.5833 42.04 13.95C41.9067 14.31 41.67 14.5967 41.33 14.81C40.9967 15.0167 40.5267 15.12 39.92 15.12ZM42.8448 15L44.3748 6.9H46.4148L47.9248 15H46.2748L46.0048 13.29H44.8148L44.5348 15H42.8448ZM44.9748 12.22H45.8348L45.4048 9.06L44.9748 12.22ZM48.7426 15V6.9H50.0026L51.6626 10.8V6.9H53.1426V15H51.9326L50.2726 10.8V15H48.7426ZM56.668 15.12C56.0547 15.12 55.568 15.01 55.208 14.79C54.8547 14.5633 54.6047 14.25 54.458 13.85C54.3114 13.4433 54.238 12.9667 54.238 12.42V9.5C54.238 8.94 54.3114 8.46 54.458 8.06C54.6047 7.65333 54.8547 7.34 55.208 7.12C55.568 6.9 56.0547 6.79 56.668 6.79C57.268 6.79 57.7347 6.89 58.068 7.09C58.408 7.28333 58.648 7.55667 58.788 7.91C58.928 8.26333 58.998 8.67 58.998 9.13V9.83H57.248V9.02C57.248 8.86 57.238 8.70667 57.218 8.56C57.2047 8.41333 57.158 8.29333 57.078 8.2C56.998 8.1 56.8614 8.05 56.668 8.05C56.4814 8.05 56.3414 8.1 56.248 8.2C56.1614 8.3 56.1047 8.42667 56.078 8.58C56.058 8.72667 56.048 8.88333 56.048 9.05V12.86C56.048 13.04 56.0614 13.2067 56.088 13.36C56.1214 13.5067 56.1814 13.6267 56.268 13.72C56.3614 13.8067 56.4947 13.85 56.668 13.85C56.8547 13.85 56.988 13.8033 57.068 13.71C57.148 13.61 57.198 13.4833 57.218 13.33C57.238 13.1767 57.248 13.02 57.248 12.86V12.01H58.998V12.71C58.998 13.17 58.928 13.5833 58.788 13.95C58.6547 14.31 58.418 14.5967 58.078 14.81C57.7447 15.0167 57.2747 15.12 56.668 15.12ZM59.9828 15V6.9H63.6228V8.12H61.7728V10.13H63.1828V11.37H61.7728V13.79H63.6428V15H59.9828ZM64.4555 15V6.9H66.2455V13.79H68.1055V15H64.4555Z"></path>
<path fill="#0D0E12" d="M21.7071 6.70708C22.0976 6.31656 22.7307 6.31656 23.1213 6.70708L30.1923 13.7782C30.5829 14.1687 30.5829 14.8018 30.1923 15.1924C29.8018 15.5829 29.1686 15.5829 28.7781 15.1924L21.7071 8.1213C21.3165 7.73077 21.3165 7.09761 21.7071 6.70708Z"></path>
<path fill="#0D0E12" d="M21.7071 15.2428C21.3166 14.8523 21.3166 14.2191 21.7071 13.8286L28.7782 6.75749C29.1687 6.36697 29.8018 6.36697 30.1924 6.75749C30.5829 7.14802 30.5829 7.78118 30.1924 8.17171L23.1213 15.2428C22.7308 15.6333 22.0976 15.6333 21.7071 15.2428Z"></path>
</svg>
