<svg xmlns="http://www.w3.org/2000/svg" fill="none" viewBox="0 0 140 22" height="22" width="140">
<rect fill="#0D0E12" height="22" width="140"></rect>
<path fill="white" d="M48.6 15V6.9H51.32C51.8067 6.9 52.2067 6.99333 52.52 7.18C52.8333 7.36 53.0667 7.62667 53.22 7.98C53.3733 8.32667 53.45 8.75 53.45 9.25C53.45 9.87667 53.3467 10.3567 53.14 10.69C52.9333 11.0167 52.6533 11.2433 52.3 11.37C51.9467 11.4967 51.55 11.56 51.11 11.56H50.39V15H48.6ZM50.39 10.31H50.99C51.21 10.31 51.3767 10.27 51.49 10.19C51.6033 10.11 51.6767 9.99 51.71 9.83C51.75 9.67 51.77 9.46667 51.77 9.22C51.77 9.01333 51.7533 8.83333 51.72 8.68C51.6933 8.52 51.6233 8.39333 51.51 8.3C51.3967 8.20667 51.22 8.16 50.98 8.16H50.39V10.31ZM54.3129 15V6.9H56.1029V13.79H57.9629V15H54.3129ZM58.3565 15L59.8865 6.9H61.9265L63.4365 15H61.7865L61.5165 13.29H60.3265L60.0465 15H58.3565ZM60.4865 12.22H61.3465L60.9165 9.06L60.4865 12.22ZM64.8739 15V11.69L63.3339 6.9H65.0239L65.7939 9.46L66.4839 6.9H68.1039L66.5939 11.69V15H64.8739ZM68.7855 15V6.9H72.4255V8.12H70.5755V10.13H71.9855V11.37H70.5755V13.79H72.4455V15H68.7855ZM73.2582 15V6.9H75.4882C76.0349 6.9 76.5082 6.96 76.9082 7.08C77.3082 7.2 77.6182 7.41667 77.8382 7.73C78.0649 8.03667 78.1782 8.47333 78.1782 9.04C78.1782 9.37333 78.1515 9.67 78.0982 9.93C78.0449 10.19 77.9449 10.4167 77.7982 10.61C77.6582 10.7967 77.4549 10.9533 77.1882 11.08L78.2982 15H76.4482L75.5582 11.37H75.0482V15H73.2582ZM75.0482 10.34H75.5482C75.8015 10.34 75.9982 10.2967 76.1382 10.21C76.2782 10.1167 76.3749 9.98667 76.4282 9.82C76.4882 9.64667 76.5182 9.44 76.5182 9.2C76.5182 8.85333 76.4549 8.58333 76.3282 8.39C76.2015 8.19667 75.9682 8.1 75.6282 8.1H75.0482V10.34ZM81.3652 15.12C80.8586 15.12 80.4352 15.03 80.0952 14.85C79.7552 14.67 79.4986 14.3933 79.3252 14.02C79.1519 13.64 79.0552 13.15 79.0352 12.55L80.5652 12.32C80.5719 12.6667 80.6019 12.9467 80.6552 13.16C80.7152 13.3733 80.7952 13.5267 80.8952 13.62C81.0019 13.7133 81.1286 13.76 81.2752 13.76C81.4619 13.76 81.5819 13.6967 81.6352 13.57C81.6952 13.4433 81.7252 13.31 81.7252 13.17C81.7252 12.8367 81.6452 12.5567 81.4852 12.33C81.3252 12.0967 81.1086 11.8633 80.8352 11.63L80.1352 11.02C79.8286 10.76 79.5686 10.4667 79.3552 10.14C79.1486 9.80667 79.0452 9.39667 79.0452 8.91C79.0452 8.22333 79.2486 7.7 79.6552 7.34C80.0619 6.97333 80.6152 6.79 81.3152 6.79C81.7486 6.79 82.0952 6.86333 82.3552 7.01C82.6219 7.15667 82.8219 7.35 82.9552 7.59C83.0952 7.82333 83.1886 8.07333 83.2352 8.34C83.2886 8.6 83.3186 8.85 83.3252 9.09L81.7852 9.28C81.7786 9.04 81.7619 8.83333 81.7352 8.66C81.7152 8.48 81.6686 8.34333 81.5952 8.25C81.5219 8.15 81.4086 8.1 81.2552 8.1C81.0886 8.1 80.9652 8.17 80.8852 8.31C80.8119 8.45 80.7752 8.59 80.7752 8.73C80.7752 9.03 80.8452 9.27667 80.9852 9.47C81.1319 9.65667 81.3219 9.85333 81.5552 10.06L82.2252 10.65C82.5786 10.95 82.8752 11.29 83.1152 11.67C83.3619 12.05 83.4852 12.52 83.4852 13.08C83.4852 13.46 83.3986 13.8067 83.2252 14.12C83.0519 14.4267 82.8052 14.67 82.4852 14.85C82.1719 15.03 81.7986 15.12 81.3652 15.12ZM87.6405 15V8.23H86.4205V6.9H90.6505V8.23H89.4405V15H87.6405ZM90.6123 15L92.1423 6.9H94.1823L95.6923 15H94.0423L93.7723 13.29H92.5823L92.3023 15H90.6123ZM92.7423 12.22H93.6023L93.1723 9.06L92.7423 12.22ZM96.5102 15V6.9H98.6202C98.9668 6.9 99.2935 6.92667 99.6002 6.98C99.9135 7.03333 100.19 7.13667 100.43 7.29C100.67 7.43667 100.857 7.65 100.99 7.93C101.13 8.20333 101.2 8.56667 101.2 9.02C101.2 9.34667 101.15 9.62333 101.05 9.85C100.957 10.07 100.82 10.2467 100.64 10.38C100.467 10.5133 100.257 10.6033 100.01 10.65C100.323 10.69 100.587 10.7933 100.8 10.96C101.013 11.12 101.173 11.3367 101.28 11.61C101.393 11.8833 101.45 12.2133 101.45 12.6C101.45 13.02 101.393 13.3833 101.28 13.69C101.173 13.99 101.017 14.2367 100.81 14.43C100.603 14.6233 100.347 14.7667 100.04 14.86C99.7402 14.9533 99.3935 15 99.0002 15H96.5102ZM98.3002 13.75H98.6802C99.0735 13.75 99.3435 13.65 99.4902 13.45C99.6435 13.25 99.7202 12.9567 99.7202 12.57C99.7202 12.2633 99.6868 12.02 99.6202 11.84C99.5535 11.66 99.4435 11.53 99.2902 11.45C99.1368 11.3633 98.9302 11.32 98.6702 11.32H98.3002V13.75ZM98.3002 10.14H98.6502C98.9235 10.14 99.1302 10.1 99.2702 10.02C99.4102 9.93333 99.5035 9.81 99.5502 9.65C99.6035 9.49 99.6302 9.29667 99.6302 9.07C99.6302 8.85667 99.5902 8.68 99.5102 8.54C99.4368 8.39333 99.3235 8.28333 99.1702 8.21C99.0235 8.13667 98.8368 8.1 98.6102 8.1H98.3002V10.14ZM102.389 15V6.9H104.179V13.79H106.039V15H102.389ZM106.823 15V6.9H110.463V8.12H108.613V10.13H110.023V11.37H108.613V13.79H110.483V15H106.823Z"></path>
<rect fill="white" height="2" width="2" y="6" x="29"></rect>
<rect fill="white" height="2" width="2" y="10" x="29"></rect>
<rect fill="white" height="2" width="2" y="14" x="29"></rect>
<rect fill="white" transform="rotate(90 42 6)" height="9" width="2" y="6" x="42"></rect>
<rect fill="white" transform="rotate(90 42 10)" height="9" width="2" y="10" x="42"></rect>
<rect fill="white" transform="rotate(90 42 14)" height="9" width="2" y="14" x="42"></rect>
</svg>
