<svg xmlns="http://www.w3.org/2000/svg" fill="none" viewBox="0 0 214 84" height="84" width="214">
<mask fill="white" id="path-1-inside-1_768_11">
<path d="M0 0H214V84H0V0Z"></path>
</mask>
<path fill="#0D0E12" d="M0 0H214V84H0V0Z"></path>
<path mask="url(#path-1-inside-1_768_11)" fill="white" d="M0 0V-1H-1V0H0ZM0 84H-1V85H0V84ZM0 1H214V-1H0V1ZM214 83H0V85H214V83ZM1 84V0H-1V84H1Z"></path>
<path fill="white" d="M19.504 38.144C18.768 38.144 18.184 38.012 17.752 37.748C17.328 37.476 17.028 37.1 16.852 36.62C16.676 36.132 16.588 35.56 16.588 34.904V31.4C16.588 30.728 16.676 30.152 16.852 29.672C17.028 29.184 17.328 28.808 17.752 28.544C18.184 28.28 18.768 28.148 19.504 28.148C20.224 28.148 20.784 28.268 21.184 28.508C21.592 28.74 21.88 29.068 22.048 29.492C22.216 29.916 22.3 30.404 22.3 30.956V31.796H20.2V30.824C20.2 30.632 20.188 30.448 20.164 30.272C20.148 30.096 20.092 29.952 19.996 29.84C19.9 29.72 19.736 29.66 19.504 29.66C19.28 29.66 19.112 29.72 19 29.84C18.896 29.96 18.828 30.112 18.796 30.296C18.772 30.472 18.76 30.66 18.76 30.86V35.432C18.76 35.648 18.776 35.848 18.808 36.032C18.848 36.208 18.92 36.352 19.024 36.464C19.136 36.568 19.296 36.62 19.504 36.62C19.728 36.62 19.888 36.564 19.984 36.452C20.08 36.332 20.14 36.18 20.164 35.996C20.188 35.812 20.2 35.624 20.2 35.432V34.412H22.3V35.252C22.3 35.804 22.216 36.3 22.048 36.74C21.888 37.172 21.604 37.516 21.196 37.772C20.796 38.02 20.232 38.144 19.504 38.144ZM26.2657 38.144C25.5377 38.144 24.9617 38.016 24.5377 37.76C24.1137 37.504 23.8097 37.136 23.6257 36.656C23.4417 36.176 23.3497 35.604 23.3497 34.94V31.328C23.3497 30.656 23.4417 30.084 23.6257 29.612C23.8097 29.14 24.1137 28.78 24.5377 28.532C24.9617 28.276 25.5377 28.148 26.2657 28.148C27.0017 28.148 27.5817 28.276 28.0057 28.532C28.4377 28.78 28.7457 29.14 28.9297 29.612C29.1137 30.084 29.2057 30.656 29.2057 31.328V34.94C29.2057 35.604 29.1137 36.176 28.9297 36.656C28.7457 37.136 28.4377 37.504 28.0057 37.76C27.5817 38.016 27.0017 38.144 26.2657 38.144ZM26.2657 36.62C26.4897 36.62 26.6537 36.564 26.7577 36.452C26.8617 36.34 26.9297 36.196 26.9617 36.02C26.9937 35.844 27.0097 35.664 27.0097 35.48V30.8C27.0097 30.608 26.9937 30.428 26.9617 30.26C26.9297 30.084 26.8617 29.94 26.7577 29.828C26.6537 29.716 26.4897 29.66 26.2657 29.66C26.0577 29.66 25.9017 29.716 25.7977 29.828C25.6937 29.94 25.6257 30.084 25.5937 30.26C25.5617 30.428 25.5457 30.608 25.5457 30.8V35.48C25.5457 35.664 25.5577 35.844 25.5817 36.02C25.6137 36.196 25.6777 36.34 25.7737 36.452C25.8777 36.564 26.0417 36.62 26.2657 36.62ZM33.297 38.144C32.569 38.144 31.993 38.016 31.569 37.76C31.145 37.504 30.841 37.136 30.657 36.656C30.473 36.176 30.381 35.604 30.381 34.94V31.328C30.381 30.656 30.473 30.084 30.657 29.612C30.841 29.14 31.145 28.78 31.569 28.532C31.993 28.276 32.569 28.148 33.297 28.148C34.033 28.148 34.613 28.276 35.037 28.532C35.469 28.78 35.777 29.14 35.961 29.612C36.145 30.084 36.237 30.656 36.237 31.328V34.94C36.237 35.604 36.145 36.176 35.961 36.656C35.777 37.136 35.469 37.504 35.037 37.76C34.613 38.016 34.033 38.144 33.297 38.144ZM33.297 36.62C33.521 36.62 33.685 36.564 33.789 36.452C33.893 36.34 33.961 36.196 33.993 36.02C34.025 35.844 34.041 35.664 34.041 35.48V30.8C34.041 30.608 34.025 30.428 33.993 30.26C33.961 30.084 33.893 29.94 33.789 29.828C33.685 29.716 33.521 29.66 33.297 29.66C33.089 29.66 32.933 29.716 32.829 29.828C32.725 29.94 32.657 30.084 32.625 30.26C32.593 30.428 32.577 30.608 32.577 30.8V35.48C32.577 35.664 32.589 35.844 32.613 36.02C32.645 36.196 32.709 36.34 32.805 36.452C32.909 36.564 33.073 36.62 33.297 36.62ZM37.5802 38V28.28H42.4042V29.912H39.7282V32.384H40.1842C40.8002 32.384 41.3202 32.484 41.7442 32.684C42.1762 32.884 42.5042 33.192 42.7282 33.608C42.9522 34.016 43.0642 34.544 43.0642 35.192C43.0642 35.784 42.9842 36.264 42.8242 36.632C42.6722 37 42.4562 37.284 42.1762 37.484C41.8962 37.684 41.5682 37.82 41.1922 37.892C40.8242 37.964 40.4242 38 39.9922 38H37.5802ZM39.7282 36.596H40.0042C40.2762 36.596 40.4922 36.544 40.6522 36.44C40.8122 36.336 40.9242 36.176 40.9882 35.96C41.0522 35.744 41.0802 35.472 41.0722 35.144C41.0642 34.784 40.9882 34.484 40.8442 34.244C40.7002 33.996 40.4122 33.872 39.9802 33.872H39.7282V36.596ZM52.3728 40.1L52.1208 38H44.2248V28.28H46.2528V36.548H47.4408V28.28H49.4568V36.548H50.5968V28.28H52.6248V36.548H53.9448V40.1H52.3728ZM55.1809 38V28.28H59.5489V29.744H57.3289V32.156H59.0209V33.644H57.3289V36.548H59.5729V38H55.1809ZM60.5841 38V28.28H62.7321V32.216H64.2321V28.28H66.3921V38H64.2321V33.752H62.7321V38H60.5841ZM67.9083 38V28.28H69.6003V33.848L72.0843 28.28H73.4763V38H71.7483V32.336L69.2163 38H67.9083ZM74.9505 38V28.28H79.3185V29.744H77.0985V32.156H78.7905V33.644H77.0985V36.548H79.3425V38H74.9505Z"></path>
<path fill="white" d="M16.63 56V47.9H17.76V51.5H18.18L19.63 47.9H20.76L19.16 51.75L20.96 56H19.83L18.19 52.05H17.76V56H16.63ZM22.6581 56.08C22.4315 56.08 22.2315 56.0167 22.0581 55.89C21.8848 55.7567 21.7481 55.59 21.6481 55.39C21.5481 55.1833 21.4981 54.9667 21.4981 54.74C21.4981 54.38 21.5581 54.0767 21.6781 53.83C21.7981 53.5833 21.9615 53.3767 22.1681 53.21C22.3815 53.0367 22.6248 52.8867 22.8981 52.76C23.1781 52.6333 23.4715 52.51 23.7781 52.39V51.98C23.7781 51.7467 23.7648 51.5533 23.7381 51.4C23.7115 51.2467 23.6548 51.1333 23.5681 51.06C23.4881 50.98 23.3648 50.94 23.1981 50.94C23.0515 50.94 22.9315 50.9733 22.8381 51.04C22.7515 51.1067 22.6881 51.2033 22.6481 51.33C22.6081 51.45 22.5881 51.5933 22.5881 51.76V52.05L21.5281 52.01C21.5415 51.37 21.6881 50.9 21.9681 50.6C22.2481 50.2933 22.6815 50.14 23.2681 50.14C23.8415 50.14 24.2481 50.2967 24.4881 50.61C24.7281 50.9233 24.8481 51.3767 24.8481 51.97V54.61C24.8481 54.79 24.8515 54.9633 24.8581 55.13C24.8715 55.2967 24.8848 55.4533 24.8981 55.6C24.9181 55.74 24.9348 55.8733 24.9481 56H23.9681C23.9481 55.8933 23.9215 55.76 23.8881 55.6C23.8615 55.4333 23.8415 55.2833 23.8281 55.15C23.7615 55.3767 23.6315 55.59 23.4381 55.79C23.2515 55.9833 22.9915 56.08 22.6581 56.08ZM23.0781 55.16C23.1848 55.16 23.2848 55.13 23.3781 55.07C23.4715 55.01 23.5548 54.9433 23.6281 54.87C23.7015 54.79 23.7515 54.7267 23.7781 54.68V53.04C23.6115 53.1333 23.4548 53.2267 23.3081 53.32C23.1615 53.4133 23.0315 53.5133 22.9181 53.62C22.8115 53.72 22.7248 53.8367 22.6581 53.97C22.5981 54.0967 22.5681 54.2433 22.5681 54.41C22.5681 54.6433 22.6115 54.8267 22.6981 54.96C22.7848 55.0933 22.9115 55.16 23.0781 55.16ZM25.8759 57.9V50.22H26.9459V50.68C27.0726 50.5333 27.2259 50.4067 27.4059 50.3C27.5859 50.1933 27.7993 50.14 28.0459 50.14C28.3459 50.14 28.5826 50.22 28.7559 50.38C28.9359 50.5333 29.0693 50.73 29.1559 50.97C29.2426 51.2033 29.2993 51.4433 29.3259 51.69C29.3526 51.93 29.3659 52.1367 29.3659 52.31V53.71C29.3659 54.1167 29.3259 54.5033 29.2459 54.87C29.1659 55.23 29.0193 55.5233 28.8059 55.75C28.5993 55.97 28.3059 56.08 27.9259 56.08C27.7193 56.08 27.5359 56.03 27.3759 55.93C27.2159 55.8233 27.0726 55.7033 26.9459 55.57V57.9H25.8759ZM27.7159 55.24C27.9026 55.24 28.0359 55.1733 28.1159 55.04C28.1959 54.9 28.2459 54.7133 28.2659 54.48C28.2859 54.2467 28.2959 53.99 28.2959 53.71V52.31C28.2959 52.07 28.2826 51.85 28.2559 51.65C28.2293 51.4433 28.1726 51.28 28.0859 51.16C27.9993 51.04 27.8626 50.98 27.6759 50.98C27.5359 50.98 27.4026 51.01 27.2759 51.07C27.1493 51.13 27.0393 51.2 26.9459 51.28V54.98C27.0459 55.0533 27.1593 55.1167 27.2859 55.17C27.4126 55.2167 27.5559 55.24 27.7159 55.24ZM30.9888 56V51.02H29.9088V50.22H33.1488V51.02H32.0588V56H30.9888ZM33.7959 56V50.22H34.6959V54.11L36.4359 50.22H37.2759V56H36.3959V52.08L34.6659 56H33.7959ZM38.3662 56V50.22H39.4362V52.65H40.8062V50.22H41.8762V56H40.8062V53.43H39.4362V56H38.3662ZM42.956 56V50.22H44.026V52.66H44.326L45.416 50.22H46.516L45.306 53.02L46.536 56H45.416L44.326 53.3H44.026V56H42.956ZM48.1464 56.08C47.9197 56.08 47.7197 56.0167 47.5464 55.89C47.3731 55.7567 47.2364 55.59 47.1364 55.39C47.0364 55.1833 46.9864 54.9667 46.9864 54.74C46.9864 54.38 47.0464 54.0767 47.1664 53.83C47.2864 53.5833 47.4497 53.3767 47.6564 53.21C47.8697 53.0367 48.1131 52.8867 48.3864 52.76C48.6664 52.6333 48.9597 52.51 49.2664 52.39V51.98C49.2664 51.7467 49.2531 51.5533 49.2264 51.4C49.1997 51.2467 49.1431 51.1333 49.0564 51.06C48.9764 50.98 48.8531 50.94 48.6864 50.94C48.5397 50.94 48.4197 50.9733 48.3264 51.04C48.2397 51.1067 48.1764 51.2033 48.1364 51.33C48.0964 51.45 48.0764 51.5933 48.0764 51.76V52.05L47.0164 52.01C47.0297 51.37 47.1764 50.9 47.4564 50.6C47.7364 50.2933 48.1697 50.14 48.7564 50.14C49.3297 50.14 49.7364 50.2967 49.9764 50.61C50.2164 50.9233 50.3364 51.3767 50.3364 51.97V54.61C50.3364 54.79 50.3397 54.9633 50.3464 55.13C50.3597 55.2967 50.3731 55.4533 50.3864 55.6C50.4064 55.74 50.4231 55.8733 50.4364 56H49.4564C49.4364 55.8933 49.4097 55.76 49.3764 55.6C49.3497 55.4333 49.3297 55.2833 49.3164 55.15C49.2497 55.3767 49.1197 55.59 48.9264 55.79C48.7397 55.9833 48.4797 56.08 48.1464 56.08ZM48.5664 55.16C48.6731 55.16 48.7731 55.13 48.8664 55.07C48.9597 55.01 49.0431 54.9433 49.1164 54.87C49.1897 54.79 49.2397 54.7267 49.2664 54.68V53.04C49.0997 53.1333 48.9431 53.2267 48.7964 53.32C48.6497 53.4133 48.5197 53.5133 48.4064 53.62C48.2997 53.72 48.2131 53.8367 48.1464 53.97C48.0864 54.0967 48.0564 54.2433 48.0564 54.41C48.0564 54.6433 48.0997 54.8267 48.1864 54.96C48.2731 55.0933 48.3997 55.16 48.5664 55.16ZM55.2594 56.08C54.926 56.08 54.636 56.0067 54.3894 55.86C54.1427 55.7067 53.9527 55.4833 53.8194 55.19C53.6927 54.89 53.6294 54.52 53.6294 54.08V50.68C53.6294 50.1733 53.666 49.76 53.7394 49.44C53.8194 49.12 53.9427 48.8667 54.1094 48.68C54.276 48.4933 54.4927 48.3467 54.7594 48.24C55.0394 48.1267 55.2894 48.0467 55.5094 48C55.7294 47.9533 55.9394 47.9033 56.1394 47.85C56.346 47.79 56.556 47.6967 56.7694 47.57L56.9894 48.46C56.8027 48.58 56.596 48.67 56.3694 48.73C56.1494 48.7833 55.9294 48.8333 55.7094 48.88C55.4894 48.92 55.2827 48.9867 55.0894 49.08C54.896 49.1733 54.746 49.3167 54.6394 49.51C54.5327 49.6967 54.4794 49.9567 54.4794 50.29V51.22C54.566 51.1333 54.6794 51.0533 54.8194 50.98C54.9594 50.9 55.1094 50.8333 55.2694 50.78C55.436 50.7267 55.5927 50.7 55.7394 50.7C55.9794 50.7 56.1994 50.7633 56.3994 50.89C56.5994 51.0167 56.7594 51.2333 56.8794 51.54C56.9994 51.84 57.0594 52.25 57.0594 52.77V53.87C57.0594 54.4767 56.9827 54.94 56.8294 55.26C56.676 55.5733 56.4627 55.79 56.1894 55.91C55.9227 56.0233 55.6127 56.08 55.2594 56.08ZM55.3594 55.29C55.506 55.29 55.6227 55.2567 55.7094 55.19C55.8027 55.1167 55.8694 55 55.9094 54.84C55.956 54.68 55.9794 54.4667 55.9794 54.2V52.45C55.9794 52.2033 55.9627 52.0067 55.9294 51.86C55.896 51.7133 55.8427 51.6067 55.7694 51.54C55.696 51.4667 55.596 51.43 55.4694 51.43C55.4027 51.43 55.326 51.4433 55.2394 51.47C55.1594 51.49 55.0727 51.5233 54.9794 51.57C54.8927 51.61 54.7994 51.6633 54.6994 51.73V54.11C54.6994 54.39 54.7194 54.6167 54.7594 54.79C54.806 54.9633 54.876 55.09 54.9694 55.17C55.0694 55.25 55.1994 55.29 55.3594 55.29ZM58.0341 56V50.22H59.1041V52.61C59.1175 52.61 59.1341 52.61 59.1541 52.61C59.1808 52.61 59.2041 52.61 59.2241 52.61C59.2441 52.61 59.2608 52.61 59.2741 52.61C59.6675 52.6167 60.0008 52.6467 60.2741 52.7C60.5541 52.7467 60.7808 52.8333 60.9541 52.96C61.1275 53.08 61.2541 53.25 61.3341 53.47C61.4141 53.6833 61.4541 53.96 61.4541 54.3C61.4541 54.6133 61.4141 54.88 61.3341 55.1C61.2541 55.3133 61.1241 55.4867 60.9441 55.62C60.7641 55.7533 60.5275 55.85 60.2341 55.91C59.9408 55.97 59.5841 56 59.1641 56H58.0341ZM59.1041 55.37H59.1641C59.5041 55.37 59.7708 55.34 59.9641 55.28C60.1575 55.22 60.2941 55.1133 60.3741 54.96C60.4541 54.8 60.4941 54.5767 60.4941 54.29C60.4941 54.03 60.4575 53.8267 60.3841 53.68C60.3175 53.5267 60.1908 53.4167 60.0041 53.35C59.8241 53.2767 59.5608 53.24 59.2141 53.24C59.2075 53.24 59.1908 53.24 59.1641 53.24C59.1375 53.24 59.1175 53.24 59.1041 53.24V55.37ZM62.1141 56V50.22H63.1841V56H62.1141ZM63.8946 56.05V55.24C64.0946 55.24 64.2513 55.2 64.3646 55.12C64.4846 55.04 64.5746 54.9067 64.6346 54.72C64.7013 54.5267 64.7513 54.27 64.7846 53.95C64.8179 53.6233 64.8479 53.2167 64.8746 52.73L65.0046 50.22H68.0346V56H66.9646V51.03H65.9446L65.8546 52.73C65.8213 53.39 65.7713 53.9367 65.7046 54.37C65.6446 54.8033 65.5479 55.1433 65.4146 55.39C65.2813 55.63 65.1013 55.8 64.8746 55.9C64.6546 56 64.3679 56.05 64.0146 56.05H63.8946ZM70.1581 56.08C69.9315 56.08 69.7315 56.0167 69.5581 55.89C69.3848 55.7567 69.2481 55.59 69.1481 55.39C69.0481 55.1833 68.9981 54.9667 68.9981 54.74C68.9981 54.38 69.0581 54.0767 69.1781 53.83C69.2981 53.5833 69.4615 53.3767 69.6681 53.21C69.8815 53.0367 70.1248 52.8867 70.3981 52.76C70.6781 52.6333 70.9715 52.51 71.2781 52.39V51.98C71.2781 51.7467 71.2648 51.5533 71.2381 51.4C71.2115 51.2467 71.1548 51.1333 71.0681 51.06C70.9881 50.98 70.8648 50.94 70.6981 50.94C70.5515 50.94 70.4315 50.9733 70.3381 51.04C70.2515 51.1067 70.1881 51.2033 70.1481 51.33C70.1081 51.45 70.0881 51.5933 70.0881 51.76V52.05L69.0281 52.01C69.0415 51.37 69.1881 50.9 69.4681 50.6C69.7481 50.2933 70.1815 50.14 70.7681 50.14C71.3415 50.14 71.7481 50.2967 71.9881 50.61C72.2281 50.9233 72.3481 51.3767 72.3481 51.97V54.61C72.3481 54.79 72.3515 54.9633 72.3581 55.13C72.3715 55.2967 72.3848 55.4533 72.3981 55.6C72.4181 55.74 72.4348 55.8733 72.4481 56H71.4681C71.4481 55.8933 71.4215 55.76 71.3881 55.6C71.3615 55.4333 71.3415 55.2833 71.3281 55.15C71.2615 55.3767 71.1315 55.59 70.9381 55.79C70.7515 55.9833 70.4915 56.08 70.1581 56.08ZM70.5781 55.16C70.6848 55.16 70.7848 55.13 70.8781 55.07C70.9715 55.01 71.0548 54.9433 71.1281 54.87C71.2015 54.79 71.2515 54.7267 71.2781 54.68V53.04C71.1115 53.1333 70.9548 53.2267 70.8081 53.32C70.6615 53.4133 70.5315 53.5133 70.4181 53.62C70.3115 53.72 70.2248 53.8367 70.1581 53.97C70.0981 54.0967 70.0681 54.2433 70.0681 54.41C70.0681 54.6433 70.1115 54.8267 70.1981 54.96C70.2848 55.0933 70.4115 55.16 70.5781 55.16ZM77.2411 56.08C76.7678 56.08 76.4078 55.9867 76.1611 55.8C75.9211 55.6067 75.7578 55.3367 75.6711 54.99C75.5911 54.6433 75.5511 54.24 75.5511 53.78V52.45C75.5511 51.9633 75.5944 51.55 75.6811 51.21C75.7678 50.8633 75.9311 50.6 76.1711 50.42C76.4178 50.2333 76.7744 50.14 77.2411 50.14C77.6611 50.14 77.9844 50.21 78.2111 50.35C78.4444 50.4833 78.6044 50.6867 78.6911 50.96C78.7778 51.2267 78.8211 51.56 78.8211 51.96V52.3H77.8511V51.95C77.8511 51.6967 77.8344 51.4967 77.8011 51.35C77.7678 51.2033 77.7078 51.0967 77.6211 51.03C77.5344 50.9633 77.4111 50.93 77.2511 50.93C77.0778 50.93 76.9444 50.97 76.8511 51.05C76.7578 51.13 76.6944 51.2667 76.6611 51.46C76.6344 51.6467 76.6211 51.9033 76.6211 52.23V54.05C76.6211 54.5433 76.6678 54.8733 76.7611 55.04C76.8544 55.2067 77.0211 55.29 77.2611 55.29C77.4411 55.29 77.5711 55.25 77.6511 55.17C77.7378 55.0833 77.7911 54.9633 77.8111 54.81C77.8378 54.6567 77.8511 54.4833 77.8511 54.29V53.82H78.8211V54.22C78.8211 54.6067 78.7744 54.94 78.6811 55.22C78.5944 55.5 78.4344 55.7133 78.2011 55.86C77.9744 56.0067 77.6544 56.08 77.2411 56.08ZM81.3624 56.08C80.9358 56.08 80.5991 55.9933 80.3524 55.82C80.1058 55.6467 79.9291 55.4 79.8224 55.08C79.7224 54.76 79.6724 54.3833 79.6724 53.95V52.27C79.6724 51.8367 79.7224 51.46 79.8224 51.14C79.9291 50.82 80.1058 50.5733 80.3524 50.4C80.5991 50.2267 80.9358 50.14 81.3624 50.14C81.7891 50.14 82.1224 50.2267 82.3624 50.4C82.6091 50.5733 82.7824 50.82 82.8824 51.14C82.9891 51.46 83.0424 51.8367 83.0424 52.27V53.95C83.0424 54.3833 82.9891 54.76 82.8824 55.08C82.7824 55.4 82.6091 55.6467 82.3624 55.82C82.1224 55.9933 81.7891 56.08 81.3624 56.08ZM81.3624 55.29C81.5691 55.29 81.7124 55.23 81.7924 55.11C81.8791 54.99 81.9291 54.8333 81.9424 54.64C81.9624 54.44 81.9724 54.2333 81.9724 54.02V52.21C81.9724 51.99 81.9624 51.7833 81.9424 51.59C81.9291 51.3967 81.8791 51.24 81.7924 51.12C81.7124 50.9933 81.5691 50.93 81.3624 50.93C81.1558 50.93 81.0091 50.9933 80.9224 51.12C80.8358 51.24 80.7824 51.3967 80.7624 51.59C80.7491 51.7833 80.7424 51.99 80.7424 52.21V54.02C80.7424 54.2333 80.7491 54.44 80.7624 54.64C80.7824 54.8333 80.8358 54.99 80.9224 55.11C81.0091 55.23 81.1558 55.29 81.3624 55.29ZM83.5705 56L84.8705 52.96L83.6005 50.22H84.6205L85.4705 52.05L86.2205 50.22H87.2705L85.9505 53.09L87.2905 56H86.2705L85.3605 54.04L84.5805 56H83.5705ZM87.9072 57.9V50.22H88.9772V50.68C89.1039 50.5333 89.2572 50.4067 89.4372 50.3C89.6172 50.1933 89.8305 50.14 90.0772 50.14C90.3772 50.14 90.6139 50.22 90.7872 50.38C90.9672 50.5333 91.1005 50.73 91.1872 50.97C91.2739 51.2033 91.3305 51.4433 91.3572 51.69C91.3839 51.93 91.3972 52.1367 91.3972 52.31V53.71C91.3972 54.1167 91.3572 54.5033 91.2772 54.87C91.1972 55.23 91.0505 55.5233 90.8372 55.75C90.6305 55.97 90.3372 56.08 89.9572 56.08C89.7505 56.08 89.5672 56.03 89.4072 55.93C89.2472 55.8233 89.1039 55.7033 88.9772 55.57V57.9H87.9072ZM89.7472 55.24C89.9339 55.24 90.0672 55.1733 90.1472 55.04C90.2272 54.9 90.2772 54.7133 90.2972 54.48C90.3172 54.2467 90.3272 53.99 90.3272 53.71V52.31C90.3272 52.07 90.3139 51.85 90.2872 51.65C90.2605 51.4433 90.2039 51.28 90.1172 51.16C90.0305 51.04 89.8939 50.98 89.7072 50.98C89.5672 50.98 89.4339 51.01 89.3072 51.07C89.1805 51.13 89.0705 51.2 88.9772 51.28V54.98C89.0772 55.0533 89.1905 55.1167 89.3172 55.17C89.4439 55.2167 89.5872 55.24 89.7472 55.24ZM93.4101 56.08C93.1834 56.08 92.9834 56.0167 92.8101 55.89C92.6367 55.7567 92.5001 55.59 92.4001 55.39C92.3001 55.1833 92.2501 54.9667 92.2501 54.74C92.2501 54.38 92.3101 54.0767 92.4301 53.83C92.5501 53.5833 92.7134 53.3767 92.9201 53.21C93.1334 53.0367 93.3767 52.8867 93.6501 52.76C93.9301 52.6333 94.2234 52.51 94.5301 52.39V51.98C94.5301 51.7467 94.5167 51.5533 94.4901 51.4C94.4634 51.2467 94.4067 51.1333 94.3201 51.06C94.2401 50.98 94.1167 50.94 93.9501 50.94C93.8034 50.94 93.6834 50.9733 93.5901 51.04C93.5034 51.1067 93.4401 51.2033 93.4001 51.33C93.3601 51.45 93.3401 51.5933 93.3401 51.76V52.05L92.2801 52.01C92.2934 51.37 92.4401 50.9 92.7201 50.6C93.0001 50.2933 93.4334 50.14 94.0201 50.14C94.5934 50.14 95.0001 50.2967 95.2401 50.61C95.4801 50.9233 95.6001 51.3767 95.6001 51.97V54.61C95.6001 54.79 95.6034 54.9633 95.6101 55.13C95.6234 55.2967 95.6367 55.4533 95.6501 55.6C95.6701 55.74 95.6867 55.8733 95.7001 56H94.7201C94.7001 55.8933 94.6734 55.76 94.6401 55.6C94.6134 55.4333 94.5934 55.2833 94.5801 55.15C94.5134 55.3767 94.3834 55.59 94.1901 55.79C94.0034 55.9833 93.7434 56.08 93.4101 56.08ZM93.8301 55.16C93.9367 55.16 94.0367 55.13 94.1301 55.07C94.2234 55.01 94.3067 54.9433 94.3801 54.87C94.4534 54.79 94.5034 54.7267 94.5301 54.68V53.04C94.3634 53.1333 94.2067 53.2267 94.0601 53.32C93.9134 53.4133 93.7834 53.5133 93.6701 53.62C93.5634 53.72 93.4767 53.8367 93.4101 53.97C93.3501 54.0967 93.3201 54.2433 93.3201 54.41C93.3201 54.6433 93.3634 54.8267 93.4501 54.96C93.5367 55.0933 93.6634 55.16 93.8301 55.16ZM96.6279 56V50.22H97.6979V52.65H99.0679V50.22H100.138V56H99.0679V53.43H97.6979V56H96.6279ZM102.818 56.08C102.364 56.08 102.014 55.9933 101.768 55.82C101.521 55.64 101.348 55.38 101.248 55.04C101.154 54.6933 101.108 54.27 101.108 53.77V52.45C101.108 51.9367 101.158 51.51 101.258 51.17C101.358 50.83 101.531 50.5733 101.778 50.4C102.031 50.2267 102.378 50.14 102.818 50.14C103.304 50.14 103.661 50.24 103.888 50.44C104.121 50.64 104.274 50.93 104.348 51.31C104.421 51.6833 104.458 52.1333 104.458 52.66V53.13H102.178V54.29C102.178 54.5233 102.198 54.7133 102.238 54.86C102.284 55.0067 102.354 55.1167 102.448 55.19C102.548 55.2567 102.674 55.29 102.828 55.29C102.988 55.29 103.108 55.2533 103.188 55.18C103.274 55.1 103.331 54.99 103.358 54.85C103.391 54.7033 103.408 54.5333 103.408 54.34V53.99H104.448V54.21C104.448 54.79 104.324 55.2467 104.078 55.58C103.831 55.9133 103.411 56.08 102.818 56.08ZM102.178 52.55H103.408V52.03C103.408 51.79 103.394 51.59 103.368 51.43C103.341 51.2633 103.284 51.14 103.198 51.06C103.118 50.9733 102.988 50.93 102.808 50.93C102.634 50.93 102.501 50.97 102.408 51.05C102.321 51.13 102.261 51.2667 102.228 51.46C102.194 51.6467 102.178 51.9067 102.178 52.24V52.55ZM105.427 56V50.22H106.497V52.65H107.867V50.22H108.937V56H107.867V53.43H106.497V56H105.427ZM111.057 56.08C110.83 56.08 110.63 56.0167 110.457 55.89C110.283 55.7567 110.147 55.59 110.047 55.39C109.947 55.1833 109.897 54.9667 109.897 54.74C109.897 54.38 109.957 54.0767 110.077 53.83C110.197 53.5833 110.36 53.3767 110.567 53.21C110.78 53.0367 111.023 52.8867 111.297 52.76C111.577 52.6333 111.87 52.51 112.177 52.39V51.98C112.177 51.7467 112.163 51.5533 112.137 51.4C112.11 51.2467 112.053 51.1333 111.967 51.06C111.887 50.98 111.763 50.94 111.597 50.94C111.45 50.94 111.33 50.9733 111.237 51.04C111.15 51.1067 111.087 51.2033 111.047 51.33C111.007 51.45 110.987 51.5933 110.987 51.76V52.05L109.927 52.01C109.94 51.37 110.087 50.9 110.367 50.6C110.647 50.2933 111.08 50.14 111.667 50.14C112.24 50.14 112.647 50.2967 112.887 50.61C113.127 50.9233 113.247 51.3767 113.247 51.97V54.61C113.247 54.79 113.25 54.9633 113.257 55.13C113.27 55.2967 113.283 55.4533 113.297 55.6C113.317 55.74 113.333 55.8733 113.347 56H112.367C112.347 55.8933 112.32 55.76 112.287 55.6C112.26 55.4333 112.24 55.2833 112.227 55.15C112.16 55.3767 112.03 55.59 111.837 55.79C111.65 55.9833 111.39 56.08 111.057 56.08ZM111.477 55.16C111.583 55.16 111.683 55.13 111.777 55.07C111.87 55.01 111.953 54.9433 112.027 54.87C112.1 54.79 112.15 54.7267 112.177 54.68V53.04C112.01 53.1333 111.853 53.2267 111.707 53.32C111.56 53.4133 111.43 53.5133 111.317 53.62C111.21 53.72 111.123 53.8367 111.057 53.97C110.997 54.0967 110.967 54.2433 110.967 54.41C110.967 54.6433 111.01 54.8267 111.097 54.96C111.183 55.0933 111.31 55.16 111.477 55.16Z"></path>
</svg>
