<svg xmlns="http://www.w3.org/2000/svg" fill="none" viewBox="0 0 480 360" height="360" width="480">
<rect fill-opacity="0.01" fill="white" height="360" width="480"></rect>
<rect fill-opacity="0.8" fill="#0D0E12" height="304" width="304" y="40" x="18"></rect>
<path fill="white" d="M36.804 174V164.28H39.336C39.752 164.28 40.144 164.312 40.512 164.376C40.888 164.44 41.22 164.564 41.508 164.748C41.796 164.924 42.02 165.18 42.18 165.516C42.348 165.844 42.432 166.28 42.432 166.824C42.432 167.216 42.372 167.548 42.252 167.82C42.14 168.084 41.976 168.296 41.76 168.456C41.552 168.616 41.3 168.724 41.004 168.78C41.38 168.828 41.696 168.952 41.952 169.152C42.208 169.344 42.4 169.604 42.528 169.932C42.664 170.26 42.732 170.656 42.732 171.12C42.732 171.624 42.664 172.06 42.528 172.428C42.4 172.788 42.212 173.084 41.964 173.316C41.716 173.548 41.408 173.72 41.04 173.832C40.68 173.944 40.264 174 39.792 174H36.804ZM38.952 172.5H39.408C39.88 172.5 40.204 172.38 40.38 172.14C40.564 171.9 40.656 171.548 40.656 171.084C40.656 170.716 40.616 170.424 40.536 170.208C40.456 169.992 40.324 169.836 40.14 169.74C39.956 169.636 39.708 169.584 39.396 169.584H38.952V172.5ZM38.952 168.168H39.372C39.7 168.168 39.948 168.12 40.116 168.024C40.284 167.92 40.396 167.772 40.452 167.58C40.516 167.388 40.548 167.156 40.548 166.884C40.548 166.628 40.5 166.416 40.404 166.248C40.316 166.072 40.18 165.94 39.996 165.852C39.82 165.764 39.596 165.72 39.324 165.72H38.952V168.168ZM46.965 174V164.28H49.113V168.132H49.329L50.757 164.28H52.893L51.117 168.84L52.953 174H50.745L49.329 169.764H49.113V174H46.965ZM53.3282 174L55.1642 164.28H57.6122L59.4242 174H57.4442L57.1202 171.948H55.6922L55.3562 174H53.3282ZM55.8842 170.664H56.9162L56.4002 166.872L55.8842 170.664ZM60.4415 174V164.28H62.5895V168.132H62.8055L64.2335 164.28H66.3695L64.5935 168.84L66.4295 174H64.2215L62.8055 169.764H62.5895V174H60.4415ZM67.1887 175.908V174.492C67.5327 174.5 67.8327 174.484 68.0887 174.444C68.3447 174.404 68.5527 174.328 68.7127 174.216C68.8727 174.104 68.9767 173.952 69.0247 173.76C69.0807 173.56 69.0727 173.312 69.0007 173.016L66.8167 164.28H68.8087L69.6487 168.276L70.0447 170.88L70.3327 168.264L71.0407 164.28H73.0567L71.0407 173.34C70.9447 173.78 70.8327 174.152 70.7047 174.456C70.5767 174.76 70.4167 175.008 70.2247 175.2C70.0407 175.4 69.8127 175.552 69.5407 175.656C69.2687 175.76 68.9367 175.828 68.5447 175.86C68.1607 175.9 67.7087 175.916 67.1887 175.908ZM79.8213 174.144C79.1333 174.144 78.5933 174.008 78.2013 173.736C77.8093 173.456 77.5333 173.068 77.3733 172.572C77.2133 172.068 77.1333 171.484 77.1333 170.82V169.872H76.0773V174H73.9533V164.28H76.0773V168.288H77.1333V167.448C77.1333 166.776 77.2133 166.196 77.3733 165.708C77.5333 165.212 77.8093 164.828 78.2013 164.556C78.5933 164.284 79.1333 164.148 79.8213 164.148C80.5093 164.148 81.0493 164.284 81.4413 164.556C81.8333 164.828 82.1093 165.212 82.2693 165.708C82.4293 166.204 82.5093 166.784 82.5093 167.448V170.82C82.5093 171.484 82.4293 172.068 82.2693 172.572C82.1093 173.068 81.8333 173.456 81.4413 173.736C81.0493 174.008 80.5093 174.144 79.8213 174.144ZM79.8213 172.62C80.0373 172.62 80.1933 172.564 80.2893 172.452C80.3853 172.34 80.4453 172.196 80.4693 172.02C80.4933 171.844 80.5053 171.664 80.5053 171.48V166.8C80.5053 166.608 80.4933 166.428 80.4693 166.26C80.4453 166.084 80.3853 165.94 80.2893 165.828C80.1933 165.716 80.0373 165.66 79.8213 165.66C79.6133 165.66 79.4573 165.716 79.3533 165.828C79.2573 165.94 79.1973 166.084 79.1733 166.26C79.1493 166.428 79.1373 166.608 79.1373 166.8V171.48C79.1373 171.664 79.1493 171.844 79.1733 172.02C79.1973 172.196 79.2573 172.34 79.3533 172.452C79.4573 172.564 79.6133 172.62 79.8213 172.62ZM89.8539 174.348V172.896C89.7339 172.904 89.6099 172.912 89.4819 172.92C89.3619 172.928 89.2379 172.932 89.1099 172.932C88.6699 172.932 88.2659 172.84 87.8979 172.656C87.5379 172.472 87.2499 172.204 87.0339 171.852C86.8259 171.492 86.7219 171.056 86.7219 170.544V167.616C86.7219 167.152 86.8299 166.74 87.0459 166.38C87.2699 166.02 87.5779 165.74 87.9699 165.54C88.3699 165.332 88.8259 165.228 89.3379 165.228C89.4259 165.228 89.5139 165.232 89.6019 165.24C89.6979 165.24 89.7819 165.244 89.8539 165.252V163.716H91.5819V165.252C91.6539 165.244 91.7299 165.24 91.8099 165.24C91.8899 165.232 91.9739 165.228 92.0619 165.228C92.5979 165.228 93.0619 165.332 93.4539 165.54C93.8539 165.74 94.1619 166.02 94.3779 166.38C94.6019 166.74 94.7139 167.152 94.7139 167.616V170.556C94.7139 171.068 94.6059 171.504 94.3899 171.864C94.1819 172.216 93.9019 172.484 93.5499 172.668C93.2059 172.852 92.8219 172.944 92.3979 172.944C92.2619 172.944 92.1259 172.94 91.9899 172.932C91.8619 172.924 91.7259 172.916 91.5819 172.908V174.348H89.8539ZM89.6139 171.6C89.6539 171.6 89.6979 171.6 89.7459 171.6C89.7939 171.592 89.8299 171.584 89.8539 171.576V166.536C89.8219 166.528 89.7779 166.524 89.7219 166.524C89.6739 166.516 89.6299 166.512 89.5899 166.512C89.3899 166.512 89.2179 166.556 89.0739 166.644C88.9299 166.732 88.8179 166.856 88.7379 167.016C88.6579 167.176 88.6179 167.368 88.6179 167.592V170.58C88.6179 170.772 88.6499 170.944 88.7139 171.096C88.7779 171.248 88.8819 171.372 89.0259 171.468C89.1699 171.556 89.3659 171.6 89.6139 171.6ZM91.8339 171.588C92.0659 171.588 92.2539 171.548 92.3979 171.468C92.5419 171.38 92.6459 171.26 92.7099 171.108C92.7819 170.956 92.8179 170.78 92.8179 170.58V167.592C92.8179 167.352 92.7819 167.152 92.7099 166.992C92.6379 166.832 92.5339 166.712 92.3979 166.632C92.2699 166.552 92.1139 166.512 91.9299 166.512C91.8659 166.512 91.8059 166.516 91.7499 166.524C91.6939 166.524 91.6379 166.528 91.5819 166.536V171.564C91.6219 171.572 91.6619 171.58 91.7019 171.588C91.7499 171.588 91.7939 171.588 91.8339 171.588ZM96.0314 174V164.28H97.7234V169.848L100.207 164.28H101.599V174H99.8714V168.336L97.3394 174H96.0314ZM103.11 174V164.28H107.61V165.876H105.258V174H103.11ZM108.544 175.908V174.492C108.888 174.5 109.188 174.484 109.444 174.444C109.7 174.404 109.908 174.328 110.068 174.216C110.228 174.104 110.332 173.952 110.38 173.76C110.436 173.56 110.428 173.312 110.356 173.016L108.172 164.28H110.164L111.004 168.276L111.4 170.88L111.688 168.264L112.396 164.28H114.412L112.396 173.34C112.3 173.78 112.188 174.152 112.06 174.456C111.932 174.76 111.772 175.008 111.58 175.2C111.396 175.4 111.168 175.552 110.896 175.656C110.624 175.76 110.292 175.828 109.9 175.86C109.516 175.9 109.064 175.916 108.544 175.908ZM115.273 174V164.28H118.537C119.121 164.28 119.601 164.392 119.977 164.616C120.353 164.832 120.633 165.152 120.817 165.576C121.001 165.992 121.093 166.5 121.093 167.1C121.093 167.852 120.969 168.428 120.721 168.828C120.473 169.22 120.137 169.492 119.713 169.644C119.289 169.796 118.813 169.872 118.285 169.872H117.421V174H115.273ZM117.421 168.372H118.141C118.405 168.372 118.605 168.324 118.741 168.228C118.877 168.132 118.965 167.988 119.005 167.796C119.053 167.604 119.077 167.36 119.077 167.064C119.077 166.816 119.057 166.6 119.017 166.416C118.985 166.224 118.901 166.072 118.765 165.96C118.629 165.848 118.417 165.792 118.129 165.792H117.421V168.372ZM122.044 175.908V174.492C122.388 174.5 122.688 174.484 122.944 174.444C123.2 174.404 123.408 174.328 123.568 174.216C123.728 174.104 123.832 173.952 123.88 173.76C123.936 173.56 123.928 173.312 123.856 173.016L121.672 164.28H123.664L124.504 168.276L124.9 170.88L125.188 168.264L125.896 164.28H127.912L125.896 173.34C125.8 173.78 125.688 174.152 125.56 174.456C125.432 174.76 125.272 175.008 125.08 175.2C124.896 175.4 124.668 175.552 124.396 175.656C124.124 175.76 123.792 175.828 123.4 175.86C123.016 175.9 122.564 175.916 122.044 175.908ZM131.339 176.1V172.464H131.615C131.799 172.408 131.967 172.312 132.119 172.176C132.279 172.032 132.423 171.84 132.551 171.6C132.679 171.36 132.795 171.06 132.899 170.7C133.003 170.34 133.091 169.912 133.163 169.416C133.235 168.912 133.295 168.332 133.343 167.676L133.607 164.28H138.131V172.464H139.223V176.1H137.807L137.699 174H132.935L132.815 176.1H131.339ZM133.643 172.464H136.127V165.804H135.227L135.119 167.892C135.079 168.58 135.019 169.164 134.939 169.644C134.867 170.124 134.779 170.524 134.675 170.844C134.579 171.156 134.475 171.412 134.363 171.612C134.251 171.812 134.131 171.976 134.003 172.104C133.883 172.232 133.763 172.352 133.643 172.464ZM142.947 174.144C142.219 174.144 141.643 174.016 141.219 173.76C140.795 173.504 140.491 173.136 140.307 172.656C140.123 172.176 140.031 171.604 140.031 170.94V167.328C140.031 166.656 140.123 166.084 140.307 165.612C140.491 165.14 140.795 164.78 141.219 164.532C141.643 164.276 142.219 164.148 142.947 164.148C143.683 164.148 144.263 164.276 144.687 164.532C145.119 164.78 145.427 165.14 145.611 165.612C145.795 166.084 145.887 166.656 145.887 167.328V170.94C145.887 171.604 145.795 172.176 145.611 172.656C145.427 173.136 145.119 173.504 144.687 173.76C144.263 174.016 143.683 174.144 142.947 174.144ZM142.947 172.62C143.171 172.62 143.335 172.564 143.439 172.452C143.543 172.34 143.611 172.196 143.643 172.02C143.675 171.844 143.691 171.664 143.691 171.48V166.8C143.691 166.608 143.675 166.428 143.643 166.26C143.611 166.084 143.543 165.94 143.439 165.828C143.335 165.716 143.171 165.66 142.947 165.66C142.739 165.66 142.583 165.716 142.479 165.828C142.375 165.94 142.307 166.084 142.275 166.26C142.243 166.428 142.227 166.608 142.227 166.8V171.48C142.227 171.664 142.239 171.844 142.263 172.02C142.295 172.196 142.359 172.34 142.455 172.452C142.559 172.564 142.723 172.62 142.947 172.62ZM146.559 174V172.488C146.831 172.488 147.051 172.472 147.219 172.44C147.387 172.4 147.519 172.312 147.615 172.176C147.711 172.04 147.787 171.832 147.843 171.552C147.899 171.272 147.943 170.896 147.975 170.424C148.015 169.952 148.063 169.352 148.119 168.624L148.431 164.28H153.579V174H151.443V165.924H150.375L150.183 169.032C150.127 169.832 150.071 170.524 150.015 171.108C149.959 171.684 149.867 172.168 149.739 172.56C149.619 172.952 149.435 173.26 149.187 173.484C148.947 173.7 148.615 173.848 148.191 173.928C147.767 174.008 147.223 174.032 146.559 174ZM154.422 174L156.462 169.116L154.47 164.28H156.474L158.166 168.828H158.262V164.28H159.966V168.828H160.074L161.766 164.28H163.77L161.778 169.116L163.818 174H161.898L160.074 169.284H159.966V174H158.262V169.284H158.166L156.342 174H154.422ZM164.645 174V164.28H166.793V168.216H168.293V164.28H170.453V174H168.293V169.752H166.793V174H164.645ZM171.465 174L173.301 164.28H175.749L177.561 174H175.581L175.257 171.948H173.829L173.493 174H171.465ZM174.021 170.664H175.053L174.537 166.872L174.021 170.664ZM181.613 174V164.28H187.433V174H185.321V165.816H183.725V174H181.613ZM188.878 174V164.28H192.142C192.726 164.28 193.206 164.392 193.582 164.616C193.958 164.832 194.238 165.152 194.422 165.576C194.606 165.992 194.698 166.5 194.698 167.1C194.698 167.852 194.574 168.428 194.326 168.828C194.078 169.22 193.742 169.492 193.318 169.644C192.894 169.796 192.418 169.872 191.89 169.872H191.026V174H188.878ZM191.026 168.372H191.746C192.01 168.372 192.21 168.324 192.346 168.228C192.482 168.132 192.57 167.988 192.61 167.796C192.658 167.604 192.682 167.36 192.682 167.064C192.682 166.816 192.662 166.6 192.622 166.416C192.59 166.224 192.506 166.072 192.37 165.96C192.234 165.848 192.022 165.792 191.734 165.792H191.026V168.372ZM195.734 174V164.28H200.102V165.744H197.882V168.156H199.574V169.644H197.882V172.548H200.126V174H195.734ZM201.101 174V164.28H203.633C204.049 164.28 204.441 164.312 204.809 164.376C205.185 164.44 205.517 164.564 205.805 164.748C206.093 164.924 206.317 165.18 206.477 165.516C206.645 165.844 206.729 166.28 206.729 166.824C206.729 167.216 206.669 167.548 206.549 167.82C206.437 168.084 206.273 168.296 206.057 168.456C205.849 168.616 205.597 168.724 205.301 168.78C205.677 168.828 205.993 168.952 206.249 169.152C206.505 169.344 206.697 169.604 206.825 169.932C206.961 170.26 207.029 170.656 207.029 171.12C207.029 171.624 206.961 172.06 206.825 172.428C206.697 172.788 206.509 173.084 206.261 173.316C206.013 173.548 205.705 173.72 205.337 173.832C204.977 173.944 204.561 174 204.089 174H201.101ZM203.249 172.5H203.705C204.177 172.5 204.501 172.38 204.677 172.14C204.861 171.9 204.953 171.548 204.953 171.084C204.953 170.716 204.913 170.424 204.833 170.208C204.753 169.992 204.621 169.836 204.437 169.74C204.253 169.636 204.005 169.584 203.693 169.584H203.249V172.5ZM203.249 168.168H203.669C203.997 168.168 204.245 168.12 204.413 168.024C204.581 167.92 204.693 167.772 204.749 167.58C204.813 167.388 204.845 167.156 204.845 166.884C204.845 166.628 204.797 166.416 204.701 166.248C204.613 166.072 204.477 165.94 204.293 165.852C204.117 165.764 203.893 165.72 203.621 165.72H203.249V168.168ZM208.156 174V164.28H211.42C212.004 164.28 212.484 164.392 212.86 164.616C213.236 164.832 213.516 165.152 213.7 165.576C213.884 165.992 213.976 166.5 213.976 167.1C213.976 167.852 213.852 168.428 213.604 168.828C213.356 169.22 213.02 169.492 212.596 169.644C212.172 169.796 211.696 169.872 211.168 169.872H210.304V174H208.156ZM210.304 168.372H211.024C211.288 168.372 211.488 168.324 211.624 168.228C211.76 168.132 211.848 167.988 211.888 167.796C211.936 167.604 211.96 167.36 211.96 167.064C211.96 166.816 211.94 166.6 211.9 166.416C211.868 166.224 211.784 166.072 211.648 165.96C211.512 165.848 211.3 165.792 211.012 165.792H210.304V168.372ZM214.344 174L216.18 164.28H218.628L220.44 174H218.46L218.136 171.948H216.708L216.372 174H214.344ZM216.9 170.664H217.932L217.416 166.872L216.9 170.664ZM222.145 174V165.876H220.681V164.28H225.757V165.876H224.305V174H222.145ZM226.649 174V164.28H228.341V169.848L230.825 164.28H232.217V174H230.489V168.336L227.957 174H226.649ZM234.567 174V165.876H233.103V164.28H238.179V165.876H236.727V174H234.567ZM239.07 174V164.28H241.218V168.384H241.698C242.306 168.384 242.822 168.484 243.246 168.684C243.67 168.884 243.994 169.192 244.218 169.608C244.442 170.016 244.554 170.544 244.554 171.192C244.554 171.784 244.474 172.264 244.314 172.632C244.162 173 243.946 173.284 243.666 173.484C243.386 173.684 243.058 173.82 242.682 173.892C242.314 173.964 241.918 174 241.494 174H239.07ZM241.218 172.596H241.506C241.778 172.596 241.99 172.544 242.142 172.44C242.302 172.336 242.414 172.176 242.478 171.96C242.55 171.744 242.582 171.472 242.574 171.144C242.566 170.784 242.49 170.484 242.346 170.244C242.21 169.996 241.922 169.872 241.482 169.872H241.218V172.596ZM248.486 174.144C247.75 174.144 247.166 174.012 246.734 173.748C246.31 173.476 246.01 173.1 245.834 172.62C245.658 172.132 245.57 171.56 245.57 170.904V167.4C245.57 166.728 245.658 166.152 245.834 165.672C246.01 165.184 246.31 164.808 246.734 164.544C247.166 164.28 247.75 164.148 248.486 164.148C249.206 164.148 249.766 164.268 250.166 164.508C250.574 164.74 250.862 165.068 251.03 165.492C251.198 165.916 251.282 166.404 251.282 166.956V167.796H249.182V166.824C249.182 166.632 249.17 166.448 249.146 166.272C249.13 166.096 249.074 165.952 248.978 165.84C248.882 165.72 248.718 165.66 248.486 165.66C248.262 165.66 248.094 165.72 247.982 165.84C247.878 165.96 247.81 166.112 247.778 166.296C247.754 166.472 247.742 166.66 247.742 166.86V171.432C247.742 171.648 247.758 171.848 247.79 172.032C247.83 172.208 247.902 172.352 248.006 172.464C248.118 172.568 248.278 172.62 248.486 172.62C248.71 172.62 248.87 172.564 248.966 172.452C249.062 172.332 249.122 172.18 249.146 171.996C249.17 171.812 249.182 171.624 249.182 171.432V170.412H251.282V171.252C251.282 171.804 251.198 172.3 251.03 172.74C250.87 173.172 250.586 173.516 250.178 173.772C249.778 174.02 249.214 174.144 248.486 174.144ZM251.864 174L253.712 169.68C253.344 169.456 253.04 169.128 252.8 168.696C252.568 168.264 252.452 167.76 252.452 167.184C252.452 166.432 252.584 165.848 252.848 165.432C253.112 165.008 253.488 164.712 253.976 164.544C254.472 164.368 255.064 164.28 255.752 164.28H258.248V174H256.112V170.16H255.728C255.72 170.16 255.7 170.16 255.668 170.16C255.636 170.16 255.612 170.16 255.596 170.16L254.18 174H251.864ZM255.8 168.648H256.112V165.756H255.776C255.336 165.756 255.004 165.88 254.78 166.128C254.564 166.368 254.456 166.724 254.456 167.196C254.456 167.612 254.552 167.96 254.744 168.24C254.936 168.512 255.288 168.648 255.8 168.648ZM262.812 174V164.28H268.632V174H266.52V165.816H264.924V174H262.812ZM270.077 174V164.28H274.445V165.744H272.225V168.156H273.917V169.644H272.225V172.548H274.469V174H270.077ZM275.481 174V164.28H277.509V172.464H278.697V164.28H280.713V172.464H281.853V164.28H283.869V174H275.481ZM285.383 174V164.28H287.531V168.132H287.747L289.175 164.28H291.311L289.535 168.84L291.371 174H289.163L287.747 169.764H287.531V174H285.383ZM291.746 174L293.582 164.28H296.03L297.842 174H295.862L295.538 171.948H294.11L293.774 174H291.746ZM294.302 170.664H295.334L294.818 166.872L294.302 170.664ZM299.652 171.444V169.896C300.012 169.616 300.336 169.304 300.624 168.96C300.912 168.616 301.14 168.252 301.308 167.868C301.476 167.476 301.56 167.072 301.56 166.656C301.56 166.36 301.504 166.148 301.392 166.02C301.288 165.884 301.132 165.816 300.924 165.816C300.732 165.816 300.58 165.872 300.468 165.984C300.364 166.096 300.312 166.252 300.312 166.452C300.312 166.58 300.324 166.696 300.348 166.8C300.38 166.896 300.416 167 300.456 167.112L298.692 167.52C298.628 167.328 298.576 167.144 298.536 166.968C298.504 166.784 298.488 166.592 298.488 166.392C298.488 165.688 298.7 165.14 299.124 164.748C299.556 164.348 300.172 164.148 300.972 164.148C301.78 164.148 302.4 164.36 302.832 164.784C303.272 165.208 303.492 165.812 303.492 166.596C303.492 167.076 303.412 167.532 303.252 167.964C303.092 168.396 302.856 168.804 302.544 169.188C302.24 169.572 301.868 169.932 301.428 170.268V171.444H299.652ZM299.592 174V172.14H301.5V174H299.592Z"></path>
<rect fill="white" height="46" width="178" y="182" x="81"></rect>
</svg>
