<svg xmlns="http://www.w3.org/2000/svg" fill="none" viewBox="0 0 214 84" height="84" width="214">
<mask fill="white" id="path-1-inside-1_1435_69">
<path d="M0 0H214V84H0V0Z"></path>
</mask>
<path fill="#0D0E12" d="M0 0H214V84H0V0Z"></path>
<path mask="url(#path-1-inside-1_1435_69)" fill="white" d="M0 0V-1H-1V0H0ZM0 84H-1V85H0V84ZM0 1H214V-1H0V1ZM214 83H0V85H214V83ZM1 84V0H-1V84H1Z"></path>
<path fill="#FFF500" d="M16.72 38V28.28H19.18C20.028 28.28 20.688 28.388 21.16 28.604C21.632 28.812 21.964 29.144 22.156 29.6C22.348 30.048 22.444 30.632 22.444 31.352V34.88C22.444 35.608 22.348 36.204 22.156 36.668C21.964 37.124 21.632 37.46 21.16 37.676C20.696 37.892 20.044 38 19.204 38H16.72ZM18.868 36.512H19.204C19.532 36.512 19.768 36.464 19.912 36.368C20.056 36.272 20.144 36.128 20.176 35.936C20.216 35.744 20.236 35.504 20.236 35.216V30.98C20.236 30.692 20.212 30.46 20.164 30.284C20.124 30.108 20.032 29.98 19.888 29.9C19.744 29.82 19.512 29.78 19.192 29.78H18.868V36.512ZM23.7513 38V28.28H26.4273C27.0833 28.28 27.6513 28.352 28.1313 28.496C28.6113 28.64 28.9833 28.9 29.2473 29.276C29.5193 29.644 29.6553 30.168 29.6553 30.848C29.6553 31.248 29.6233 31.604 29.5593 31.916C29.4953 32.228 29.3753 32.5 29.1992 32.732C29.0313 32.956 28.7873 33.144 28.4673 33.296L29.7993 38H27.5793L26.5113 33.644H25.8993V38H23.7513ZM25.8993 32.408H26.4993C26.8033 32.408 27.0393 32.356 27.2073 32.252C27.3753 32.14 27.4913 31.984 27.5553 31.784C27.6273 31.576 27.6633 31.328 27.6633 31.04C27.6633 30.624 27.5873 30.3 27.4353 30.068C27.2833 29.836 27.0033 29.72 26.5953 29.72H25.8993V32.408ZM30.4786 38L32.3146 28.28H34.7626L36.5746 38H34.5946L34.2706 35.948H32.8426L32.5066 38H30.4786ZM33.0346 34.664H34.0666L33.5506 30.872L33.0346 34.664ZM38.125 38L36.949 28.28H38.773L39.349 33.944L40.081 28.292H41.509L42.277 33.908L42.865 28.28H44.665L43.501 38H41.629L40.801 32.132L40.021 38H38.125Z"></path>
<path fill="white" d="M16.63 56V47.9H18.39C18.99 47.9 19.4633 47.9933 19.81 48.18C20.1633 48.36 20.4133 48.6333 20.56 49C20.7133 49.3667 20.79 49.8233 20.79 50.37V53.35C20.79 53.9233 20.7133 54.4067 20.56 54.8C20.4133 55.1933 20.17 55.4933 19.83 55.7C19.4967 55.9 19.0467 56 18.48 56H16.63ZM17.76 55.19H18.4C18.8133 55.19 19.1067 55.11 19.28 54.95C19.4533 54.79 19.5567 54.5567 19.59 54.25C19.63 53.9433 19.65 53.5733 19.65 53.14V50.51C19.65 50.09 19.6233 49.75 19.57 49.49C19.5167 49.23 19.4 49.04 19.22 48.92C19.04 48.8 18.7567 48.74 18.37 48.74H17.76V55.19ZM21.8434 56V50.22H22.9134V51.04C23.1268 50.6867 23.3401 50.45 23.5534 50.33C23.7668 50.21 23.9801 50.15 24.1934 50.15C24.2201 50.15 24.2434 50.15 24.2634 50.15C24.2901 50.15 24.3234 50.1533 24.3634 50.16V51.34C24.2834 51.3067 24.1901 51.28 24.0834 51.26C23.9834 51.2333 23.8801 51.22 23.7734 51.22C23.6068 51.22 23.4534 51.26 23.3134 51.34C23.1801 51.4133 23.0468 51.56 22.9134 51.78V56H21.8434ZM26.0663 56.08C25.8397 56.08 25.6397 56.0167 25.4663 55.89C25.293 55.7567 25.1563 55.59 25.0563 55.39C24.9563 55.1833 24.9063 54.9667 24.9063 54.74C24.9063 54.38 24.9663 54.0767 25.0863 53.83C25.2063 53.5833 25.3697 53.3767 25.5763 53.21C25.7897 53.0367 26.033 52.8867 26.3063 52.76C26.5863 52.6333 26.8797 52.51 27.1863 52.39V51.98C27.1863 51.7467 27.173 51.5533 27.1463 51.4C27.1197 51.2467 27.063 51.1333 26.9763 51.06C26.8963 50.98 26.773 50.94 26.6063 50.94C26.4597 50.94 26.3397 50.9733 26.2463 51.04C26.1597 51.1067 26.0963 51.2033 26.0563 51.33C26.0163 51.45 25.9963 51.5933 25.9963 51.76V52.05L24.9363 52.01C24.9497 51.37 25.0963 50.9 25.3763 50.6C25.6563 50.2933 26.0897 50.14 26.6763 50.14C27.2497 50.14 27.6563 50.2967 27.8963 50.61C28.1363 50.9233 28.2563 51.3767 28.2563 51.97V54.61C28.2563 54.79 28.2597 54.9633 28.2663 55.13C28.2797 55.2967 28.293 55.4533 28.3063 55.6C28.3263 55.74 28.343 55.8733 28.3563 56H27.3763C27.3563 55.8933 27.3297 55.76 27.2963 55.6C27.2697 55.4333 27.2497 55.2833 27.2363 55.15C27.1697 55.3767 27.0397 55.59 26.8463 55.79C26.6597 55.9833 26.3997 56.08 26.0663 56.08ZM26.4863 55.16C26.593 55.16 26.693 55.13 26.7863 55.07C26.8797 55.01 26.963 54.9433 27.0363 54.87C27.1097 54.79 27.1597 54.7267 27.1863 54.68V53.04C27.0197 53.1333 26.863 53.2267 26.7163 53.32C26.5697 53.4133 26.4397 53.5133 26.3263 53.62C26.2197 53.72 26.133 53.8367 26.0663 53.97C26.0063 54.0967 25.9763 54.2433 25.9763 54.41C25.9763 54.6433 26.0197 54.8267 26.1063 54.96C26.193 55.0933 26.3197 55.16 26.4863 55.16ZM29.9541 56L29.0241 50.22H29.9041L30.5041 54.48L31.2741 50.22H32.0941L32.8641 54.46L33.4641 50.22H34.3441L33.3841 56H32.4841L31.6941 51.92L30.9141 56H29.9541ZM35.1735 57.31L35.0035 56.85C35.1835 56.79 35.3235 56.6833 35.4235 56.53C35.5302 56.3833 35.5835 56.2067 35.5835 56H35.0135V54.85H36.1135V55.98C36.1135 56.3333 36.0368 56.6133 35.8835 56.82C35.7302 57.0333 35.4935 57.1967 35.1735 57.31ZM39.3239 56V50.22H40.3939V51.04C40.6072 50.6867 40.8206 50.45 41.0339 50.33C41.2472 50.21 41.4606 50.15 41.6739 50.15C41.7006 50.15 41.7239 50.15 41.7439 50.15C41.7706 50.15 41.8039 50.1533 41.8439 50.16V51.34C41.7639 51.3067 41.6706 51.28 41.5639 51.26C41.4639 51.2333 41.3606 51.22 41.2539 51.22C41.0872 51.22 40.9339 51.26 40.7939 51.34C40.6606 51.4133 40.5272 51.56 40.3939 51.78V56H39.3239ZM44.1068 56.08C43.6535 56.08 43.3035 55.9933 43.0568 55.82C42.8101 55.64 42.6368 55.38 42.5368 55.04C42.4435 54.6933 42.3968 54.27 42.3968 53.77V52.45C42.3968 51.9367 42.4468 51.51 42.5468 51.17C42.6468 50.83 42.8201 50.5733 43.0668 50.4C43.3201 50.2267 43.6668 50.14 44.1068 50.14C44.5935 50.14 44.9501 50.24 45.1768 50.44C45.4101 50.64 45.5635 50.93 45.6368 51.31C45.7101 51.6833 45.7468 52.1333 45.7468 52.66V53.13H43.4668V54.29C43.4668 54.5233 43.4868 54.7133 43.5268 54.86C43.5735 55.0067 43.6435 55.1167 43.7368 55.19C43.8368 55.2567 43.9635 55.29 44.1168 55.29C44.2768 55.29 44.3968 55.2533 44.4768 55.18C44.5635 55.1 44.6201 54.99 44.6468 54.85C44.6801 54.7033 44.6968 54.5333 44.6968 54.34V53.99H45.7368V54.21C45.7368 54.79 45.6135 55.2467 45.3668 55.58C45.1201 55.9133 44.7001 56.08 44.1068 56.08ZM43.4668 52.55H44.6968V52.03C44.6968 51.79 44.6835 51.59 44.6568 51.43C44.6301 51.2633 44.5735 51.14 44.4868 51.06C44.4068 50.9733 44.2768 50.93 44.0968 50.93C43.9235 50.93 43.7901 50.97 43.6968 51.05C43.6101 51.13 43.5501 51.2667 43.5168 51.46C43.4835 51.6467 43.4668 51.9067 43.4668 52.24V52.55ZM46.7158 57.9V50.22H47.7858V50.68C47.9124 50.5333 48.0658 50.4067 48.2458 50.3C48.4258 50.1933 48.6391 50.14 48.8858 50.14C49.1858 50.14 49.4224 50.22 49.5958 50.38C49.7758 50.5333 49.9091 50.73 49.9958 50.97C50.0824 51.2033 50.1391 51.4433 50.1658 51.69C50.1924 51.93 50.2058 52.1367 50.2058 52.31V53.71C50.2058 54.1167 50.1658 54.5033 50.0858 54.87C50.0058 55.23 49.8591 55.5233 49.6458 55.75C49.4391 55.97 49.1458 56.08 48.7658 56.08C48.5591 56.08 48.3758 56.03 48.2158 55.93C48.0558 55.8233 47.9124 55.7033 47.7858 55.57V57.9H46.7158ZM48.5558 55.24C48.7424 55.24 48.8758 55.1733 48.9558 55.04C49.0358 54.9 49.0858 54.7133 49.1058 54.48C49.1258 54.2467 49.1358 53.99 49.1358 53.71V52.31C49.1358 52.07 49.1224 51.85 49.0958 51.65C49.0691 51.4433 49.0124 51.28 48.9258 51.16C48.8391 51.04 48.7024 50.98 48.5158 50.98C48.3758 50.98 48.2424 51.01 48.1158 51.07C47.9891 51.13 47.8791 51.2 47.7858 51.28V54.98C47.8858 55.0533 47.9991 55.1167 48.1258 55.17C48.2524 55.2167 48.3958 55.24 48.5558 55.24ZM52.7787 56.08C52.3253 56.08 51.9753 55.9933 51.7287 55.82C51.482 55.64 51.3087 55.38 51.2087 55.04C51.1153 54.6933 51.0687 54.27 51.0687 53.77V52.45C51.0687 51.9367 51.1187 51.51 51.2187 51.17C51.3187 50.83 51.492 50.5733 51.7387 50.4C51.992 50.2267 52.3387 50.14 52.7787 50.14C53.2653 50.14 53.622 50.24 53.8487 50.44C54.082 50.64 54.2353 50.93 54.3087 51.31C54.382 51.6833 54.4187 52.1333 54.4187 52.66V53.13H52.1387V54.29C52.1387 54.5233 52.1587 54.7133 52.1987 54.86C52.2453 55.0067 52.3153 55.1167 52.4087 55.19C52.5087 55.2567 52.6353 55.29 52.7887 55.29C52.9487 55.29 53.0687 55.2533 53.1487 55.18C53.2353 55.1 53.292 54.99 53.3187 54.85C53.352 54.7033 53.3687 54.5333 53.3687 54.34V53.99H54.4087V54.21C54.4087 54.79 54.2853 55.2467 54.0387 55.58C53.792 55.9133 53.372 56.08 52.7787 56.08ZM52.1387 52.55H53.3687V52.03C53.3687 51.79 53.3553 51.59 53.3287 51.43C53.302 51.2633 53.2453 51.14 53.1587 51.06C53.0787 50.9733 52.9487 50.93 52.7687 50.93C52.5953 50.93 52.462 50.97 52.3687 51.05C52.282 51.13 52.222 51.2667 52.1887 51.46C52.1553 51.6467 52.1387 51.9067 52.1387 52.24V52.55ZM56.9277 56.08C56.6277 56.08 56.3843 56.0233 56.1977 55.91C56.0177 55.7967 55.8843 55.6367 55.7977 55.43C55.7177 55.2233 55.6777 54.98 55.6777 54.7V50.93H55.0677V50.22H55.6777V48.53H56.7477V50.22H57.6777V50.93H56.7477V54.63C56.7477 54.8567 56.7843 55.02 56.8577 55.12C56.931 55.2133 57.071 55.26 57.2777 55.26C57.331 55.26 57.391 55.2567 57.4577 55.25C57.531 55.2433 57.601 55.2367 57.6677 55.23V56.02C57.5343 56.04 57.411 56.0533 57.2977 56.06C57.1843 56.0733 57.061 56.08 56.9277 56.08ZM58.5338 56V50.22H59.6038V56H58.5338ZM58.5338 49.36V48.24H59.6038V49.36H58.5338ZM62.289 56.08C61.989 56.08 61.7457 56.0233 61.559 55.91C61.379 55.7967 61.2457 55.6367 61.159 55.43C61.079 55.2233 61.039 54.98 61.039 54.7V50.93H60.429V50.22H61.039V48.53H62.109V50.22H63.039V50.93H62.109V54.63C62.109 54.8567 62.1457 55.02 62.219 55.12C62.2923 55.2133 62.4323 55.26 62.639 55.26C62.6923 55.26 62.7523 55.2567 62.819 55.25C62.8923 55.2433 62.9623 55.2367 63.029 55.23V56.02C62.8957 56.04 62.7723 56.0533 62.659 56.06C62.5457 56.0733 62.4223 56.08 62.289 56.08ZM63.8952 56V50.22H64.9652V56H63.8952ZM63.8952 49.36V48.24H64.9652V49.36H63.8952ZM67.7003 56.08C67.2736 56.08 66.937 55.9933 66.6903 55.82C66.4436 55.6467 66.267 55.4 66.1603 55.08C66.0603 54.76 66.0103 54.3833 66.0103 53.95V52.27C66.0103 51.8367 66.0603 51.46 66.1603 51.14C66.267 50.82 66.4436 50.5733 66.6903 50.4C66.937 50.2267 67.2736 50.14 67.7003 50.14C68.127 50.14 68.4603 50.2267 68.7003 50.4C68.947 50.5733 69.1203 50.82 69.2203 51.14C69.327 51.46 69.3803 51.8367 69.3803 52.27V53.95C69.3803 54.3833 69.327 54.76 69.2203 55.08C69.1203 55.4 68.947 55.6467 68.7003 55.82C68.4603 55.9933 68.127 56.08 67.7003 56.08ZM67.7003 55.29C67.907 55.29 68.0503 55.23 68.1303 55.11C68.217 54.99 68.267 54.8333 68.2803 54.64C68.3003 54.44 68.3103 54.2333 68.3103 54.02V52.21C68.3103 51.99 68.3003 51.7833 68.2803 51.59C68.267 51.3967 68.217 51.24 68.1303 51.12C68.0503 50.9933 67.907 50.93 67.7003 50.93C67.4936 50.93 67.347 50.9933 67.2603 51.12C67.1736 51.24 67.1203 51.3967 67.1003 51.59C67.087 51.7833 67.0803 51.99 67.0803 52.21V54.02C67.0803 54.2333 67.087 54.44 67.1003 54.64C67.1203 54.8333 67.1736 54.99 67.2603 55.11C67.347 55.23 67.4936 55.29 67.7003 55.29ZM70.3584 56V50.22H71.4284V50.79C71.6217 50.61 71.835 50.4567 72.0684 50.33C72.3017 50.2033 72.5584 50.14 72.8384 50.14C73.0717 50.14 73.2484 50.2 73.3684 50.32C73.495 50.44 73.5817 50.59 73.6284 50.77C73.6817 50.95 73.7084 51.1333 73.7084 51.32V56H72.6384V51.63C72.6384 51.4233 72.6084 51.2633 72.5484 51.15C72.4884 51.0367 72.365 50.98 72.1784 50.98C72.0584 50.98 71.9317 51.0167 71.7984 51.09C71.6717 51.1567 71.5484 51.24 71.4284 51.34V56H70.3584ZM78.628 56.08C78.2014 56.08 77.8647 55.9933 77.618 55.82C77.3714 55.6467 77.1947 55.4 77.088 55.08C76.988 54.76 76.938 54.3833 76.938 53.95V52.27C76.938 51.8367 76.988 51.46 77.088 51.14C77.1947 50.82 77.3714 50.5733 77.618 50.4C77.8647 50.2267 78.2014 50.14 78.628 50.14C79.0547 50.14 79.388 50.2267 79.628 50.4C79.8747 50.5733 80.048 50.82 80.148 51.14C80.2547 51.46 80.308 51.8367 80.308 52.27V53.95C80.308 54.3833 80.2547 54.76 80.148 55.08C80.048 55.4 79.8747 55.6467 79.628 55.82C79.388 55.9933 79.0547 56.08 78.628 56.08ZM78.628 55.29C78.8347 55.29 78.978 55.23 79.058 55.11C79.1447 54.99 79.1947 54.8333 79.208 54.64C79.228 54.44 79.238 54.2333 79.238 54.02V52.21C79.238 51.99 79.228 51.7833 79.208 51.59C79.1947 51.3967 79.1447 51.24 79.058 51.12C78.978 50.9933 78.8347 50.93 78.628 50.93C78.4214 50.93 78.2747 50.9933 78.188 51.12C78.1014 51.24 78.048 51.3967 78.028 51.59C78.0147 51.7833 78.008 51.99 78.008 52.21V54.02C78.008 54.2333 78.0147 54.44 78.028 54.64C78.048 54.8333 78.1014 54.99 78.188 55.11C78.2747 55.23 78.4214 55.29 78.628 55.29ZM81.6261 56V51.01H80.9361V50.22H81.6261V49.92C81.6261 49.56 81.6528 49.2533 81.7061 49C81.7661 48.74 81.8861 48.54 82.0661 48.4C82.2461 48.26 82.5161 48.19 82.8761 48.19C83.0094 48.19 83.1261 48.1967 83.2261 48.21C83.3328 48.2167 83.4494 48.2333 83.5761 48.26V49.04C83.5161 49.0267 83.4494 49.0167 83.3761 49.01C83.3028 48.9967 83.2361 48.99 83.1761 48.99C82.9694 48.99 82.8361 49.06 82.7761 49.2C82.7228 49.3333 82.6961 49.5133 82.6961 49.74V50.22H83.5761V51.01H82.6961V56H81.6261ZM86.4423 56V50.22H87.4323V50.77C87.6257 50.55 87.839 50.3867 88.0723 50.28C88.3057 50.1733 88.5457 50.12 88.7923 50.12C89.0057 50.12 89.1957 50.1733 89.3623 50.28C89.5357 50.3867 89.659 50.5767 89.7323 50.85C89.939 50.5967 90.1623 50.4133 90.4023 50.3C90.649 50.18 90.9057 50.12 91.1723 50.12C91.359 50.12 91.529 50.1667 91.6823 50.26C91.8357 50.3467 91.959 50.49 92.0523 50.69C92.1457 50.8833 92.1923 51.14 92.1923 51.46V56H91.2123V51.53C91.2123 51.25 91.1657 51.0633 91.0723 50.97C90.9857 50.87 90.8657 50.82 90.7123 50.82C90.5657 50.82 90.4123 50.8633 90.2523 50.95C90.0923 51.03 89.9457 51.1433 89.8123 51.29C89.8123 51.3167 89.8123 51.3433 89.8123 51.37C89.8123 51.3967 89.8123 51.4267 89.8123 51.46V56H88.8323V51.53C88.8323 51.25 88.7857 51.0633 88.6923 50.97C88.6057 50.87 88.4857 50.82 88.3323 50.82C88.1857 50.82 88.0323 50.8633 87.8723 50.95C87.719 51.03 87.5723 51.1433 87.4323 51.29V56H86.4423ZM94.8292 56.08C94.4026 56.08 94.0659 55.9933 93.8192 55.82C93.5726 55.6467 93.3959 55.4 93.2892 55.08C93.1892 54.76 93.1392 54.3833 93.1392 53.95V52.27C93.1392 51.8367 93.1892 51.46 93.2892 51.14C93.3959 50.82 93.5726 50.5733 93.8192 50.4C94.0659 50.2267 94.4026 50.14 94.8292 50.14C95.2559 50.14 95.5892 50.2267 95.8292 50.4C96.0759 50.5733 96.2492 50.82 96.3492 51.14C96.4559 51.46 96.5092 51.8367 96.5092 52.27V53.95C96.5092 54.3833 96.4559 54.76 96.3492 55.08C96.2492 55.4 96.0759 55.6467 95.8292 55.82C95.5892 55.9933 95.2559 56.08 94.8292 56.08ZM94.8292 55.29C95.0359 55.29 95.1792 55.23 95.2592 55.11C95.3459 54.99 95.3959 54.8333 95.4092 54.64C95.4292 54.44 95.4392 54.2333 95.4392 54.02V52.21C95.4392 51.99 95.4292 51.7833 95.4092 51.59C95.3959 51.3967 95.3459 51.24 95.2592 51.12C95.1792 50.9933 95.0359 50.93 94.8292 50.93C94.6226 50.93 94.4759 50.9933 94.3892 51.12C94.3026 51.24 94.2492 51.3967 94.2292 51.59C94.2159 51.7833 94.2092 51.99 94.2092 52.21V54.02C94.2092 54.2333 94.2159 54.44 94.2292 54.64C94.2492 54.8333 94.3026 54.99 94.3892 55.11C94.4759 55.23 94.6226 55.29 94.8292 55.29ZM98.2373 56L97.0973 50.22H98.1773L98.8873 54.87L99.6073 50.22H100.647L99.5473 56H98.2373ZM102.935 56.08C102.482 56.08 102.132 55.9933 101.885 55.82C101.638 55.64 101.465 55.38 101.365 55.04C101.272 54.6933 101.225 54.27 101.225 53.77V52.45C101.225 51.9367 101.275 51.51 101.375 51.17C101.475 50.83 101.648 50.5733 101.895 50.4C102.148 50.2267 102.495 50.14 102.935 50.14C103.422 50.14 103.778 50.24 104.005 50.44C104.238 50.64 104.392 50.93 104.465 51.31C104.538 51.6833 104.575 52.1333 104.575 52.66V53.13H102.295V54.29C102.295 54.5233 102.315 54.7133 102.355 54.86C102.402 55.0067 102.472 55.1167 102.565 55.19C102.665 55.2567 102.792 55.29 102.945 55.29C103.105 55.29 103.225 55.2533 103.305 55.18C103.392 55.1 103.448 54.99 103.475 54.85C103.508 54.7033 103.525 54.5333 103.525 54.34V53.99H104.565V54.21C104.565 54.79 104.442 55.2467 104.195 55.58C103.948 55.9133 103.528 56.08 102.935 56.08ZM102.295 52.55H103.525V52.03C103.525 51.79 103.512 51.59 103.485 51.43C103.458 51.2633 103.402 51.14 103.315 51.06C103.235 50.9733 103.105 50.93 102.925 50.93C102.752 50.93 102.618 50.97 102.525 51.05C102.438 51.13 102.378 51.2667 102.345 51.46C102.312 51.6467 102.295 51.9067 102.295 52.24V52.55ZM106.884 56.08C106.411 56.08 106.031 55.9333 105.744 55.64C105.457 55.34 105.294 54.9467 105.254 54.46L106.144 54.19C106.197 54.5567 106.287 54.8333 106.414 55.02C106.541 55.2 106.727 55.29 106.974 55.29C107.167 55.29 107.314 55.2367 107.414 55.13C107.514 55.0167 107.564 54.8667 107.564 54.68C107.564 54.5133 107.527 54.3633 107.454 54.23C107.381 54.0967 107.261 53.96 107.094 53.82L106.104 52.97C105.904 52.7967 105.734 52.6033 105.594 52.39C105.461 52.1767 105.394 51.9 105.394 51.56C105.394 51.2533 105.454 50.9967 105.574 50.79C105.701 50.5767 105.874 50.4167 106.094 50.31C106.321 50.1967 106.584 50.14 106.884 50.14C107.344 50.14 107.694 50.29 107.934 50.59C108.181 50.8833 108.321 51.24 108.354 51.66L107.634 51.93C107.607 51.73 107.567 51.5567 107.514 51.41C107.461 51.2567 107.387 51.14 107.294 51.06C107.201 50.9733 107.077 50.93 106.924 50.93C106.751 50.93 106.611 50.99 106.504 51.11C106.404 51.2233 106.354 51.36 106.354 51.52C106.354 51.62 106.374 51.72 106.414 51.82C106.461 51.9133 106.537 52.0067 106.644 52.1L107.664 53.04C107.804 53.1667 107.934 53.3033 108.054 53.45C108.181 53.5967 108.284 53.7633 108.364 53.95C108.444 54.1367 108.484 54.3533 108.484 54.6C108.484 54.9267 108.417 55.2 108.284 55.42C108.151 55.64 107.964 55.8067 107.724 55.92C107.484 56.0267 107.204 56.08 106.884 56.08ZM113.109 56.08C112.809 56.08 112.566 56.0233 112.379 55.91C112.199 55.7967 112.066 55.6367 111.979 55.43C111.899 55.2233 111.859 54.98 111.859 54.7V50.93H111.249V50.22H111.859V48.53H112.929V50.22H113.859V50.93H112.929V54.63C112.929 54.8567 112.966 55.02 113.039 55.12C113.113 55.2133 113.253 55.26 113.459 55.26C113.513 55.26 113.573 55.2567 113.639 55.25C113.713 55.2433 113.783 55.2367 113.849 55.23V56.02C113.716 56.04 113.593 56.0533 113.479 56.06C113.366 56.0733 113.243 56.08 113.109 56.08ZM114.675 56V47.9H115.745V50.82C115.939 50.6333 116.155 50.4733 116.395 50.34C116.635 50.2067 116.902 50.14 117.195 50.14C117.422 50.14 117.595 50.2 117.715 50.32C117.842 50.44 117.929 50.59 117.975 50.77C118.029 50.95 118.055 51.1333 118.055 51.32V56H116.985V51.63C116.985 51.4233 116.955 51.2633 116.895 51.15C116.835 51.0367 116.712 50.98 116.525 50.98C116.399 50.98 116.265 51.0167 116.125 51.09C115.992 51.1633 115.865 51.2533 115.745 51.36V56H114.675ZM119.129 56V50.22H120.199V51.04C120.412 50.6867 120.625 50.45 120.839 50.33C121.052 50.21 121.265 50.15 121.479 50.15C121.505 50.15 121.529 50.15 121.549 50.15C121.575 50.15 121.609 50.1533 121.649 50.16V51.34C121.569 51.3067 121.475 51.28 121.369 51.26C121.269 51.2333 121.165 51.22 121.059 51.22C120.892 51.22 120.739 51.26 120.599 51.34C120.465 51.4133 120.332 51.56 120.199 51.78V56H119.129ZM123.911 56.08C123.458 56.08 123.108 55.9933 122.861 55.82C122.615 55.64 122.441 55.38 122.341 55.04C122.248 54.6933 122.201 54.27 122.201 53.77V52.45C122.201 51.9367 122.251 51.51 122.351 51.17C122.451 50.83 122.625 50.5733 122.871 50.4C123.125 50.2267 123.471 50.14 123.911 50.14C124.398 50.14 124.755 50.24 124.981 50.44C125.215 50.64 125.368 50.93 125.441 51.31C125.515 51.6833 125.551 52.1333 125.551 52.66V53.13H123.271V54.29C123.271 54.5233 123.291 54.7133 123.331 54.86C123.378 55.0067 123.448 55.1167 123.541 55.19C123.641 55.2567 123.768 55.29 123.921 55.29C124.081 55.29 124.201 55.2533 124.281 55.18C124.368 55.1 124.425 54.99 124.451 54.85C124.485 54.7033 124.501 54.5333 124.501 54.34V53.99H125.541V54.21C125.541 54.79 125.418 55.2467 125.171 55.58C124.925 55.9133 124.505 56.08 123.911 56.08ZM123.271 52.55H124.501V52.03C124.501 51.79 124.488 51.59 124.461 51.43C124.435 51.2633 124.378 51.14 124.291 51.06C124.211 50.9733 124.081 50.93 123.901 50.93C123.728 50.93 123.595 50.97 123.501 51.05C123.415 51.13 123.355 51.2667 123.321 51.46C123.288 51.6467 123.271 51.9067 123.271 52.24V52.55ZM128.12 56.08C127.667 56.08 127.317 55.9933 127.07 55.82C126.824 55.64 126.65 55.38 126.55 55.04C126.457 54.6933 126.41 54.27 126.41 53.77V52.45C126.41 51.9367 126.46 51.51 126.56 51.17C126.66 50.83 126.834 50.5733 127.08 50.4C127.334 50.2267 127.68 50.14 128.12 50.14C128.607 50.14 128.964 50.24 129.19 50.44C129.424 50.64 129.577 50.93 129.65 51.31C129.724 51.6833 129.76 52.1333 129.76 52.66V53.13H127.48V54.29C127.48 54.5233 127.5 54.7133 127.54 54.86C127.587 55.0067 127.657 55.1167 127.75 55.19C127.85 55.2567 127.977 55.29 128.13 55.29C128.29 55.29 128.41 55.2533 128.49 55.18C128.577 55.1 128.634 54.99 128.66 54.85C128.694 54.7033 128.71 54.5333 128.71 54.34V53.99H129.75V54.21C129.75 54.79 129.627 55.2467 129.38 55.58C129.134 55.9133 128.714 56.08 128.12 56.08ZM127.48 52.55H128.71V52.03C128.71 51.79 128.697 51.59 128.67 51.43C128.644 51.2633 128.587 51.14 128.5 51.06C128.42 50.9733 128.29 50.93 128.11 50.93C127.937 50.93 127.804 50.97 127.71 51.05C127.624 51.13 127.564 51.2667 127.53 51.46C127.497 51.6467 127.48 51.9067 127.48 52.24V52.55ZM134.555 56.08C134.255 56.08 134.011 56.0233 133.825 55.91C133.645 55.7967 133.511 55.6367 133.425 55.43C133.345 55.2233 133.305 54.98 133.305 54.7V50.93H132.695V50.22H133.305V48.53H134.375V50.22H135.305V50.93H134.375V54.63C134.375 54.8567 134.411 55.02 134.485 55.12C134.558 55.2133 134.698 55.26 134.905 55.26C134.958 55.26 135.018 55.2567 135.085 55.25C135.158 55.2433 135.228 55.2367 135.295 55.23V56.02C135.161 56.04 135.038 56.0533 134.925 56.06C134.811 56.0733 134.688 56.08 134.555 56.08ZM136.161 56V50.22H137.231V56H136.161ZM136.161 49.36V48.24H137.231V49.36H136.161ZM138.376 56V50.22H139.366V50.77C139.559 50.55 139.773 50.3867 140.006 50.28C140.239 50.1733 140.479 50.12 140.726 50.12C140.939 50.12 141.129 50.1733 141.296 50.28C141.469 50.3867 141.593 50.5767 141.666 50.85C141.873 50.5967 142.096 50.4133 142.336 50.3C142.583 50.18 142.839 50.12 143.106 50.12C143.293 50.12 143.463 50.1667 143.616 50.26C143.769 50.3467 143.893 50.49 143.986 50.69C144.079 50.8833 144.126 51.14 144.126 51.46V56H143.146V51.53C143.146 51.25 143.099 51.0633 143.006 50.97C142.919 50.87 142.799 50.82 142.646 50.82C142.499 50.82 142.346 50.8633 142.186 50.95C142.026 51.03 141.879 51.1433 141.746 51.29C141.746 51.3167 141.746 51.3433 141.746 51.37C141.746 51.3967 141.746 51.4267 141.746 51.46V56H140.766V51.53C140.766 51.25 140.719 51.0633 140.626 50.97C140.539 50.87 140.419 50.82 140.266 50.82C140.119 50.82 139.966 50.8633 139.806 50.95C139.653 51.03 139.506 51.1433 139.366 51.29V56H138.376ZM146.773 56.08C146.319 56.08 145.969 55.9933 145.723 55.82C145.476 55.64 145.303 55.38 145.203 55.04C145.109 54.6933 145.063 54.27 145.063 53.77V52.45C145.063 51.9367 145.113 51.51 145.213 51.17C145.313 50.83 145.486 50.5733 145.733 50.4C145.986 50.2267 146.333 50.14 146.773 50.14C147.259 50.14 147.616 50.24 147.843 50.44C148.076 50.64 148.229 50.93 148.303 51.31C148.376 51.6833 148.413 52.1333 148.413 52.66V53.13H146.133V54.29C146.133 54.5233 146.153 54.7133 146.193 54.86C146.239 55.0067 146.309 55.1167 146.403 55.19C146.503 55.2567 146.629 55.29 146.783 55.29C146.943 55.29 147.063 55.2533 147.143 55.18C147.229 55.1 147.286 54.99 147.313 54.85C147.346 54.7033 147.363 54.5333 147.363 54.34V53.99H148.403V54.21C148.403 54.79 148.279 55.2467 148.033 55.58C147.786 55.9133 147.366 56.08 146.773 56.08ZM146.133 52.55H147.363V52.03C147.363 51.79 147.349 51.59 147.323 51.43C147.296 51.2633 147.239 51.14 147.153 51.06C147.073 50.9733 146.943 50.93 146.763 50.93C146.589 50.93 146.456 50.97 146.363 51.05C146.276 51.13 146.216 51.2667 146.183 51.46C146.149 51.6467 146.133 51.9067 146.133 52.24V52.55ZM150.722 56.08C150.248 56.08 149.868 55.9333 149.582 55.64C149.295 55.34 149.132 54.9467 149.092 54.46L149.982 54.19C150.035 54.5567 150.125 54.8333 150.252 55.02C150.378 55.2 150.565 55.29 150.812 55.29C151.005 55.29 151.152 55.2367 151.252 55.13C151.352 55.0167 151.402 54.8667 151.402 54.68C151.402 54.5133 151.365 54.3633 151.292 54.23C151.218 54.0967 151.098 53.96 150.932 53.82L149.942 52.97C149.742 52.7967 149.572 52.6033 149.432 52.39C149.298 52.1767 149.232 51.9 149.232 51.56C149.232 51.2533 149.292 50.9967 149.412 50.79C149.538 50.5767 149.712 50.4167 149.932 50.31C150.158 50.1967 150.422 50.14 150.722 50.14C151.182 50.14 151.532 50.29 151.772 50.59C152.018 50.8833 152.158 51.24 152.192 51.66L151.472 51.93C151.445 51.73 151.405 51.5567 151.352 51.41C151.298 51.2567 151.225 51.14 151.132 51.06C151.038 50.9733 150.915 50.93 150.762 50.93C150.588 50.93 150.448 50.99 150.342 51.11C150.242 51.2233 150.192 51.36 150.192 51.52C150.192 51.62 150.212 51.72 150.252 51.82C150.298 51.9133 150.375 52.0067 150.482 52.1L151.502 53.04C151.642 53.1667 151.772 53.3033 151.892 53.45C152.018 53.5967 152.122 53.7633 152.202 53.95C152.282 54.1367 152.322 54.3533 152.322 54.6C152.322 54.9267 152.255 55.2 152.122 55.42C151.988 55.64 151.802 55.8067 151.562 55.92C151.322 56.0267 151.042 56.08 150.722 56.08Z"></path>
</svg>
