<svg xmlns="http://www.w3.org/2000/svg" fill="none" viewBox="0 0 480 330" height="330" width="480">
<rect fill="#0D0E12" height="330" width="480"></rect>
<path fill="white" d="M187.208 194V184.28H193.028V194H190.916V185.816H189.32V194H187.208ZM197.258 194.144C196.53 194.144 195.954 194.016 195.53 193.76C195.106 193.504 194.802 193.136 194.618 192.656C194.434 192.176 194.342 191.604 194.342 190.94V187.328C194.342 186.656 194.434 186.084 194.618 185.612C194.802 185.14 195.106 184.78 195.53 184.532C195.954 184.276 196.53 184.148 197.258 184.148C197.994 184.148 198.574 184.276 198.998 184.532C199.43 184.78 199.738 185.14 199.922 185.612C200.106 186.084 200.198 186.656 200.198 187.328V190.94C200.198 191.604 200.106 192.176 199.922 192.656C199.738 193.136 199.43 193.504 198.998 193.76C198.574 194.016 197.994 194.144 197.258 194.144ZM197.258 192.62C197.482 192.62 197.646 192.564 197.75 192.452C197.854 192.34 197.922 192.196 197.954 192.02C197.986 191.844 198.002 191.664 198.002 191.48V186.8C198.002 186.608 197.986 186.428 197.954 186.26C197.922 186.084 197.854 185.94 197.75 185.828C197.646 185.716 197.482 185.66 197.258 185.66C197.05 185.66 196.894 185.716 196.79 185.828C196.686 185.94 196.618 186.084 196.586 186.26C196.554 186.428 196.538 186.608 196.538 186.8V191.48C196.538 191.664 196.55 191.844 196.574 192.02C196.606 192.196 196.67 192.34 196.766 192.452C196.87 192.564 197.034 192.62 197.258 192.62ZM201.541 194V184.28H203.233V189.848L205.717 184.28H207.109V194H205.381V188.336L202.849 194H201.541ZM211.367 194.144C210.631 194.144 210.047 194.012 209.615 193.748C209.191 193.476 208.891 193.1 208.715 192.62C208.539 192.132 208.451 191.56 208.451 190.904V187.4C208.451 186.728 208.539 186.152 208.715 185.672C208.891 185.184 209.191 184.808 209.615 184.544C210.047 184.28 210.631 184.148 211.367 184.148C212.087 184.148 212.647 184.268 213.047 184.508C213.455 184.74 213.743 185.068 213.911 185.492C214.079 185.916 214.163 186.404 214.163 186.956V187.796H212.063V186.824C212.063 186.632 212.051 186.448 212.027 186.272C212.011 186.096 211.955 185.952 211.859 185.84C211.763 185.72 211.599 185.66 211.367 185.66C211.143 185.66 210.975 185.72 210.863 185.84C210.759 185.96 210.691 186.112 210.659 186.296C210.635 186.472 210.623 186.66 210.623 186.86V191.432C210.623 191.648 210.639 191.848 210.671 192.032C210.711 192.208 210.783 192.352 210.887 192.464C210.999 192.568 211.159 192.62 211.367 192.62C211.591 192.62 211.751 192.564 211.847 192.452C211.943 192.332 212.003 192.18 212.027 191.996C212.051 191.812 212.063 191.624 212.063 191.432V190.412H214.163V191.252C214.163 191.804 214.079 192.3 213.911 192.74C213.751 193.172 213.467 193.516 213.059 193.772C212.659 194.02 212.095 194.144 211.367 194.144ZM215.381 194V184.28H217.529V188.132H217.745L219.173 184.28H221.309L219.533 188.84L221.369 194H219.161L217.745 189.764H217.529V194H215.381ZM228.067 194.144C227.331 194.144 226.747 194.012 226.315 193.748C225.891 193.476 225.591 193.1 225.415 192.62C225.239 192.132 225.151 191.56 225.151 190.904V187.4C225.151 186.728 225.239 186.152 225.415 185.672C225.591 185.184 225.891 184.808 226.315 184.544C226.747 184.28 227.331 184.148 228.067 184.148C228.787 184.148 229.347 184.268 229.747 184.508C230.155 184.74 230.443 185.068 230.611 185.492C230.779 185.916 230.863 186.404 230.863 186.956V187.796H228.763V186.824C228.763 186.632 228.751 186.448 228.727 186.272C228.711 186.096 228.655 185.952 228.559 185.84C228.463 185.72 228.299 185.66 228.067 185.66C227.843 185.66 227.674 185.72 227.562 185.84C227.459 185.96 227.391 186.112 227.359 186.296C227.335 186.472 227.323 186.66 227.323 186.86V191.432C227.323 191.648 227.339 191.848 227.371 192.032C227.411 192.208 227.483 192.352 227.587 192.464C227.699 192.568 227.859 192.62 228.067 192.62C228.291 192.62 228.451 192.564 228.547 192.452C228.643 192.332 228.703 192.18 228.727 191.996C228.751 191.812 228.763 191.624 228.763 191.432V190.412H230.863V191.252C230.863 191.804 230.779 192.3 230.611 192.74C230.451 193.172 230.167 193.516 229.759 193.772C229.359 194.02 228.795 194.144 228.067 194.144ZM234.828 194.144C234.1 194.144 233.524 194.016 233.1 193.76C232.676 193.504 232.372 193.136 232.188 192.656C232.004 192.176 231.912 191.604 231.912 190.94V187.328C231.912 186.656 232.004 186.084 232.188 185.612C232.372 185.14 232.676 184.78 233.1 184.532C233.524 184.276 234.1 184.148 234.828 184.148C235.564 184.148 236.144 184.276 236.568 184.532C237 184.78 237.308 185.14 237.492 185.612C237.676 186.084 237.768 186.656 237.768 187.328V190.94C237.768 191.604 237.676 192.176 237.492 192.656C237.308 193.136 237 193.504 236.568 193.76C236.144 194.016 235.564 194.144 234.828 194.144ZM234.828 192.62C235.052 192.62 235.216 192.564 235.32 192.452C235.424 192.34 235.492 192.196 235.524 192.02C235.556 191.844 235.572 191.664 235.572 191.48V186.8C235.572 186.608 235.556 186.428 235.524 186.26C235.492 186.084 235.424 185.94 235.32 185.828C235.216 185.716 235.052 185.66 234.828 185.66C234.62 185.66 234.464 185.716 234.36 185.828C234.256 185.94 234.188 186.084 234.156 186.26C234.124 186.428 234.108 186.608 234.108 186.8V191.48C234.108 191.664 234.12 191.844 234.144 192.02C234.176 192.196 234.24 192.34 234.336 192.452C234.44 192.564 234.604 192.62 234.828 192.62ZM239.075 194V184.28H244.895V194H242.783V185.816H241.187V194H239.075ZM246.341 194V184.28H250.709V185.744H248.489V188.156H250.181V189.644H248.489V192.548H250.733V194H246.341ZM251.708 194V184.28H254.972C255.556 184.28 256.036 184.392 256.412 184.616C256.788 184.832 257.068 185.152 257.252 185.576C257.436 185.992 257.528 186.5 257.528 187.1C257.528 187.852 257.404 188.428 257.156 188.828C256.908 189.22 256.572 189.492 256.148 189.644C255.724 189.796 255.248 189.872 254.72 189.872H253.856V194H251.708ZM253.856 188.372H254.576C254.84 188.372 255.04 188.324 255.176 188.228C255.312 188.132 255.4 187.988 255.44 187.796C255.488 187.604 255.512 187.36 255.512 187.064C255.512 186.816 255.492 186.6 255.452 186.416C255.42 186.224 255.336 186.072 255.2 185.96C255.064 185.848 254.852 185.792 254.564 185.792H253.856V188.372ZM258.6 194V184.28H260.748V188.216H262.248V184.28H264.408V194H262.248V189.752H260.748V194H258.6ZM265.924 194V184.28H267.616V189.848L270.1 184.28H271.492V194H269.764V188.336L267.232 194H265.924ZM273.002 194V184.28H275.15V188.132H275.366L276.794 184.28H278.93L277.154 188.84L278.99 194H276.782L275.366 189.764H275.15V194H273.002ZM279.365 194L281.201 184.28H283.649L285.461 194H283.481L283.157 191.948H281.729L281.393 194H279.365ZM281.921 190.664H282.953L282.437 186.872L281.921 190.664ZM286.275 194V192.152H288.123V194H286.275ZM289.204 194V192.152H291.052V194H289.204ZM292.134 194V192.152H293.982V194H292.134Z"></path>
<path fill="white" d="M191.194 35V25.28H192.886V30.848L195.37 25.28H196.762V35H195.034V29.336L192.502 35H191.194ZM198.272 35V25.28H202.772V26.876H200.42V35H198.272ZM203.79 35V25.28H207.054C207.638 25.28 208.118 25.392 208.494 25.616C208.87 25.832 209.15 26.152 209.334 26.576C209.518 26.992 209.61 27.5 209.61 28.1C209.61 28.852 209.486 29.428 209.238 29.828C208.99 30.22 208.654 30.492 208.23 30.644C207.806 30.796 207.33 30.872 206.802 30.872H205.938V35H203.79ZM205.938 29.372H206.658C206.922 29.372 207.122 29.324 207.258 29.228C207.394 29.132 207.482 28.988 207.522 28.796C207.57 28.604 207.594 28.36 207.594 28.064C207.594 27.816 207.574 27.6 207.534 27.416C207.502 27.224 207.418 27.072 207.282 26.96C207.146 26.848 206.934 26.792 206.646 26.792H205.938V29.372ZM213.43 35.144C212.702 35.144 212.126 35.016 211.702 34.76C211.278 34.504 210.974 34.136 210.79 33.656C210.606 33.176 210.514 32.604 210.514 31.94V28.328C210.514 27.656 210.606 27.084 210.79 26.612C210.974 26.14 211.278 25.78 211.702 25.532C212.126 25.276 212.702 25.148 213.43 25.148C214.166 25.148 214.746 25.276 215.17 25.532C215.602 25.78 215.91 26.14 216.094 26.612C216.278 27.084 216.37 27.656 216.37 28.328V31.94C216.37 32.604 216.278 33.176 216.094 33.656C215.91 34.136 215.602 34.504 215.17 34.76C214.746 35.016 214.166 35.144 213.43 35.144ZM213.43 33.62C213.654 33.62 213.818 33.564 213.922 33.452C214.026 33.34 214.094 33.196 214.126 33.02C214.158 32.844 214.174 32.664 214.174 32.48V27.8C214.174 27.608 214.158 27.428 214.126 27.26C214.094 27.084 214.026 26.94 213.922 26.828C213.818 26.716 213.654 26.66 213.43 26.66C213.222 26.66 213.066 26.716 212.962 26.828C212.858 26.94 212.79 27.084 212.758 27.26C212.726 27.428 212.71 27.608 212.71 27.8V32.48C212.71 32.664 212.722 32.844 212.746 33.02C212.778 33.196 212.842 33.34 212.938 33.452C213.042 33.564 213.206 33.62 213.43 33.62ZM217.713 35V25.28H219.861V29.132H220.077L221.505 25.28H223.641L221.865 29.84L223.701 35H221.493L220.077 30.764H219.861V35H217.713ZM227.328 35.144C226.6 35.144 226.024 35.016 225.6 34.76C225.176 34.504 224.872 34.136 224.688 33.656C224.504 33.176 224.412 32.604 224.412 31.94V28.328C224.412 27.656 224.504 27.084 224.688 26.612C224.872 26.14 225.176 25.78 225.6 25.532C226.024 25.276 226.6 25.148 227.328 25.148C228.064 25.148 228.644 25.276 229.068 25.532C229.5 25.78 229.808 26.14 229.992 26.612C230.176 27.084 230.268 27.656 230.268 28.328V31.94C230.268 32.604 230.176 33.176 229.992 33.656C229.808 34.136 229.5 34.504 229.068 34.76C228.644 35.016 228.064 35.144 227.328 35.144ZM227.328 33.62C227.552 33.62 227.716 33.564 227.82 33.452C227.924 33.34 227.992 33.196 228.024 33.02C228.056 32.844 228.072 32.664 228.072 32.48V27.8C228.072 27.608 228.056 27.428 228.024 27.26C227.992 27.084 227.924 26.94 227.82 26.828C227.716 26.716 227.552 26.66 227.328 26.66C227.12 26.66 226.964 26.716 226.86 26.828C226.756 26.94 226.688 27.084 226.656 27.26C226.624 27.428 226.608 27.608 226.608 27.8V32.48C226.608 32.664 226.62 32.844 226.644 33.02C226.676 33.196 226.74 33.34 226.836 33.452C226.94 33.564 227.104 33.62 227.328 33.62ZM231.575 35V25.28H234.107C234.523 25.28 234.915 25.312 235.283 25.376C235.659 25.44 235.991 25.564 236.279 25.748C236.567 25.924 236.791 26.18 236.951 26.516C237.119 26.844 237.203 27.28 237.203 27.824C237.203 28.216 237.143 28.548 237.023 28.82C236.911 29.084 236.747 29.296 236.531 29.456C236.323 29.616 236.071 29.724 235.775 29.78C236.151 29.828 236.467 29.952 236.723 30.152C236.979 30.344 237.171 30.604 237.299 30.932C237.435 31.26 237.503 31.656 237.503 32.12C237.503 32.624 237.435 33.06 237.299 33.428C237.171 33.788 236.983 34.084 236.735 34.316C236.487 34.548 236.179 34.72 235.811 34.832C235.451 34.944 235.035 35 234.563 35H231.575ZM233.723 33.5H234.179C234.651 33.5 234.975 33.38 235.151 33.14C235.335 32.9 235.427 32.548 235.427 32.084C235.427 31.716 235.387 31.424 235.307 31.208C235.227 30.992 235.095 30.836 234.911 30.74C234.727 30.636 234.479 30.584 234.167 30.584H233.723V33.5ZM233.723 29.168H234.143C234.471 29.168 234.719 29.12 234.887 29.024C235.055 28.92 235.167 28.772 235.223 28.58C235.287 28.388 235.319 28.156 235.319 27.884C235.319 27.628 235.271 27.416 235.175 27.248C235.087 27.072 234.951 26.94 234.767 26.852C234.591 26.764 234.367 26.72 234.095 26.72H233.723V29.168ZM244.484 35.144C243.756 35.144 243.18 35.016 242.756 34.76C242.332 34.504 242.028 34.136 241.844 33.656C241.66 33.176 241.568 32.604 241.568 31.94V28.328C241.568 27.656 241.66 27.084 241.844 26.612C242.028 26.14 242.332 25.78 242.756 25.532C243.18 25.276 243.756 25.148 244.484 25.148C245.22 25.148 245.8 25.276 246.224 25.532C246.656 25.78 246.964 26.14 247.148 26.612C247.332 27.084 247.424 27.656 247.424 28.328V31.94C247.424 32.604 247.332 33.176 247.148 33.656C246.964 34.136 246.656 34.504 246.224 34.76C245.8 35.016 245.22 35.144 244.484 35.144ZM244.484 33.62C244.708 33.62 244.872 33.564 244.976 33.452C245.08 33.34 245.148 33.196 245.18 33.02C245.212 32.844 245.228 32.664 245.228 32.48V27.8C245.228 27.608 245.212 27.428 245.18 27.26C245.148 27.084 245.08 26.94 244.976 26.828C244.872 26.716 244.708 26.66 244.484 26.66C244.276 26.66 244.12 26.716 244.016 26.828C243.912 26.94 243.844 27.084 243.812 27.26C243.78 27.428 243.764 27.608 243.764 27.8V32.48C243.764 32.664 243.776 32.844 243.8 33.02C243.832 33.196 243.896 33.34 243.992 33.452C244.096 33.564 244.26 33.62 244.484 33.62ZM248.768 35V25.28H250.916V29.216H252.416V25.28H254.576V35H252.416V30.752H250.916V35H248.768ZM255.42 35V33.488C255.692 33.488 255.912 33.472 256.08 33.44C256.248 33.4 256.38 33.312 256.476 33.176C256.572 33.04 256.648 32.832 256.704 32.552C256.76 32.272 256.804 31.896 256.836 31.424C256.876 30.952 256.924 30.352 256.98 29.624L257.292 25.28H262.44V35H260.304V26.924H259.236L259.044 30.032C258.988 30.832 258.932 31.524 258.876 32.108C258.82 32.684 258.728 33.168 258.6 33.56C258.48 33.952 258.296 34.26 258.048 34.484C257.808 34.7 257.476 34.848 257.052 34.928C256.628 35.008 256.084 35.032 255.42 35ZM263.463 35L265.299 25.28H267.747L269.559 35H267.579L267.255 32.948H265.827L265.491 35H263.463ZM266.019 31.664H267.051L266.535 27.872L266.019 31.664ZM270.576 35V25.28H272.268V30.848L274.752 25.28H276.144V35H274.416V29.336L271.884 35H270.576ZM273.516 24.5C272.948 24.5 272.492 24.34 272.148 24.02C271.804 23.7 271.632 23.236 271.632 22.628H272.736C272.736 22.924 272.792 23.144 272.904 23.288C273.024 23.432 273.228 23.504 273.516 23.504C273.796 23.504 273.996 23.432 274.116 23.288C274.236 23.136 274.296 22.916 274.296 22.628H275.4C275.4 23.236 275.228 23.7 274.884 24.02C274.54 24.34 274.084 24.5 273.516 24.5ZM277.654 35V25.28H279.802V29.216H281.302V25.28H283.462V35H281.302V30.752H279.802V35H277.654ZM285.027 30.056V28.232H286.851V30.056H285.027ZM285.027 34.328V32.504H286.851V34.328H285.027Z"></path>
</svg>
