<svg xmlns="http://www.w3.org/2000/svg" fill="none" viewBox="0 0 38 38" height="38" width="38">
<rect fill-opacity="0.01" fill="white" height="38" width="38"></rect>
<path stroke="#0D0E12" fill="#7F899B" d="M27.34 6.36611V10.9203H11.7V6.36611C13.1549 5.91791 15.0105 5.67907 16.57 5.55411C17.4051 5.48719 18.1444 5.4537 18.6745 5.43697C18.9395 5.4286 19.1519 5.42443 19.2976 5.42235C19.3705 5.42131 19.4266 5.4208 19.4643 5.42054L19.5067 5.42032L19.5171 5.42029L19.5195 5.42029L19.52 5.42029H19.5201L19.5206 5.42029L19.523 5.42029L19.5334 5.42032L19.5758 5.42054C19.6134 5.4208 19.6696 5.42131 19.7424 5.42235C19.8881 5.42443 20.1005 5.4286 20.3655 5.43697C20.8957 5.4537 21.6349 5.48719 22.4701 5.55411C24.0296 5.67907 25.8851 5.91791 27.34 6.36611Z"></path>
<path stroke="#0D0E12" fill="#7F899B" d="M15.86 3.57009C18.0778 3.14821 19.9223 3.1482 22.14 3.57009V8.07665H15.86V3.57009Z"></path>
<path stroke="#0D0E12" fill="#7F899B" d="M6.50071 5.42028C6.50081 5.41877 6.50092 5.41743 6.50102 5.41626C6.60902 5.19878 7.43411 3.85795 11.7783 3.67939C12.0338 3.66889 12.26 3.87934 12.26 4.15991V7.94778C12.26 8.13997 12.1499 8.31514 11.9767 8.39841L7.21665 10.6869C6.88471 10.8465 6.5 10.6046 6.5 10.2362V5.4449C6.5 5.43426 6.5003 5.42626 6.50071 5.42028Z"></path>
<path stroke="#0D0E12" fill="#7F899B" d="M31.5023 5.36744C31.5024 5.36738 31.5022 5.36489 31.5013 5.36014C31.5018 5.36513 31.5022 5.3675 31.5023 5.36744ZM31.5 5.35389C31.4856 5.28993 31.3933 5.00795 30.9056 4.68709C30.2648 4.26555 28.9339 3.77353 26.226 3.67687C25.9665 3.66761 25.74 3.88119 25.74 4.15991V7.94778C25.74 8.13997 25.8502 8.31514 26.0234 8.39841L30.7834 10.6869C31.1153 10.8465 31.5 10.6046 31.5 10.2362V5.35389Z"></path>
<path stroke="#0D0E12" fill="#7F899B" d="M7.03999 31.1864C7.66399 26.0261 11.72 30.2433 11.72 21.5766V17.8934C11.72 16.1877 10.6944 14.6493 9.11999 13.9933L8.54179 13.7524C7.31748 13.2422 6.51999 12.046 6.51999 10.7196C6.51999 10.0306 6.76795 9.35748 7.41596 9.12335C11.4328 7.67207 26.5671 7.67212 30.584 9.12337C31.232 9.35749 31.48 10.0306 31.48 10.7196C31.48 12.046 30.6825 13.2422 29.4582 13.7524L28.88 13.9933C27.3056 14.6493 26.28 16.1877 26.28 17.8934V21.5766C26.28 30.2433 30.336 26.1663 30.96 31.3266V32.4253C30.96 33.1293 30.7646 33.8408 30.1096 34.0991C26.335 35.5876 11.6541 35.4828 7.88665 33.9491C7.23455 33.6836 7.03999 32.9726 7.03999 32.2685V31.1864Z"></path>
<path stroke-linecap="round" stroke="#0D0E12" d="M10.68 30.2433C12.24 31.8683 25.76 31.8683 27.32 30.2433"></path>
<path stroke-linecap="round" stroke="#0D0E12" d="M26.28 13.4515C24.2 12.9099 13.8 12.9099 11.72 13.4515"></path>
</svg>
