<svg xmlns="http://www.w3.org/2000/svg" fill="none" viewBox="0 0 38 38" height="38" width="38">
<rect fill-opacity="0.01" fill="white" height="38" width="38"></rect>
<path stroke="#0D0E12" fill="#FFFEE8" d="M9 29C9.45025 23.597 15.5768 24.2757 16.7915 18.9877C17.0388 17.9112 17.8954 17 19 17C20.1046 17 20.9612 17.9112 21.2085 18.9877C22.4232 24.2757 28.5498 23.597 29 29V30.5371C29 31.1732 28.8635 31.8418 28.2998 32.1365C25.142 33.7878 12.858 33.7878 9.70016 32.1365C9.13647 31.8418 9 31.1732 9 30.5371V29Z"></path>
<circle stroke="#0D0E12" fill="#FFFEE8" r="4.5" cy="9" cx="19"></circle>
<path stroke="#0D0E12" fill="#FFFEE8" d="M10.7623 16.1847C11.2241 15.4408 12.2945 14.8091 13.8196 14.3689C15.3192 13.936 17.1564 13.7179 19.007 13.7199C20.8575 13.7218 22.6946 13.9436 24.1937 14.3734C25.7196 14.8109 26.7877 15.433 27.2449 16.1529C27.4764 16.5176 27.3184 17.0021 26.8656 17.1665C26.1366 17.4313 24.9933 17.6422 23.6069 17.7865C22.2303 17.9299 20.6475 18.0045 19.0582 18.0101C15.8549 18.0212 12.7137 17.7512 11.1822 17.2382C10.6977 17.0759 10.5229 16.5703 10.7623 16.1847Z"></path>
<path stroke-linecap="round" stroke="#0D0E12" d="M11 29C12.5 30.5 25.5 30.5 27 29"></path>
</svg>
