<svg xmlns="http://www.w3.org/2000/svg" fill="none" viewBox="0 0 13 18" height="18" width="13">
<rect fill-opacity="0.01" fill="#0D0E12" height="18" width="13"></rect>
<path fill="white" d="M3.132 14.18C2.452 14.18 1.916 14.052 1.524 13.796C1.14 13.54 0.864 13.184 0.696 12.728C0.536 12.264 0.456 11.732 0.456 11.132V10.784H2.46C2.46 10.792 2.46 10.836 2.46 10.916C2.46 10.996 2.46 11.068 2.46 11.132C2.46 11.452 2.48 11.712 2.52 11.912C2.56 12.112 2.632 12.26 2.736 12.356C2.84 12.444 2.984 12.488 3.168 12.488C3.352 12.488 3.488 12.44 3.576 12.344C3.672 12.248 3.736 12.104 3.768 11.912C3.8 11.72 3.816 11.48 3.816 11.192C3.816 10.712 3.748 10.348 3.612 10.1C3.484 9.844 3.212 9.712 2.796 9.704C2.788 9.704 2.744 9.704 2.664 9.704C2.584 9.704 2.504 9.704 2.424 9.704V8.324C2.48 8.324 2.536 8.324 2.592 8.324C2.648 8.324 2.7 8.324 2.748 8.324C3.172 8.324 3.456 8.208 3.6 7.976C3.744 7.744 3.816 7.384 3.816 6.896C3.816 6.52 3.764 6.232 3.66 6.032C3.564 5.832 3.38 5.732 3.108 5.732C2.844 5.732 2.668 5.844 2.58 6.068C2.5 6.292 2.46 6.58 2.46 6.932C2.46 7.012 2.46 7.096 2.46 7.184C2.46 7.264 2.46 7.348 2.46 7.436H0.456V6.848C0.456 6.264 0.56 5.772 0.768 5.372C0.984 4.964 1.288 4.656 1.68 4.448C2.08 4.24 2.556 4.136 3.108 4.136C3.668 4.136 4.148 4.236 4.548 4.436C4.948 4.636 5.256 4.932 5.472 5.324C5.688 5.708 5.796 6.188 5.796 6.764C5.796 7.332 5.68 7.808 5.448 8.192C5.216 8.576 4.936 8.812 4.608 8.9C4.832 8.98 5.032 9.108 5.208 9.284C5.392 9.46 5.536 9.7 5.64 10.004C5.744 10.3 5.796 10.68 5.796 11.144C5.796 11.736 5.708 12.26 5.532 12.716C5.364 13.172 5.084 13.532 4.692 13.796C4.3 14.052 3.78 14.18 3.132 14.18ZM9.47606 14.144C8.84406 14.144 8.32806 14.008 7.92806 13.736C7.53606 13.456 7.24806 13.076 7.06406 12.596C6.88006 12.116 6.78806 11.568 6.78806 10.952V7.436C6.78806 6.804 6.86006 6.24 7.00406 5.744C7.15606 5.248 7.42406 4.86 7.80806 4.58C8.19206 4.292 8.74406 4.148 9.46406 4.148C10.0881 4.148 10.5801 4.244 10.9401 4.436C11.3001 4.628 11.5561 4.908 11.7081 5.276C11.8601 5.644 11.9361 6.1 11.9361 6.644C11.9361 6.676 11.9361 6.708 11.9361 6.74C11.9441 6.764 11.9481 6.788 11.9481 6.812H10.0641C10.0641 6.42 10.0321 6.132 9.96806 5.948C9.91206 5.756 9.74806 5.66 9.47606 5.66C9.29206 5.66 9.15206 5.716 9.05606 5.828C8.96806 5.94 8.90806 6.136 8.87606 6.416C8.84406 6.696 8.82806 7.088 8.82806 7.592V8.456C8.92406 8.288 9.08006 8.16 9.29606 8.072C9.51206 7.976 9.75606 7.924 10.0281 7.916C10.5401 7.9 10.9481 8.016 11.2521 8.264C11.5641 8.512 11.7881 8.852 11.9241 9.284C12.0601 9.708 12.1281 10.184 12.1281 10.712C12.1281 11.392 12.0481 11.992 11.8881 12.512C11.7281 13.024 11.4561 13.424 11.0721 13.712C10.6881 14 10.1561 14.144 9.47606 14.144ZM9.50006 12.668C9.68406 12.668 9.81606 12.608 9.89606 12.488C9.98406 12.36 10.0401 12.176 10.0641 11.936C10.0961 11.688 10.1121 11.384 10.1121 11.024C10.1121 10.704 10.1001 10.428 10.0761 10.196C10.0601 9.964 10.0081 9.784 9.92006 9.656C9.83206 9.52 9.68406 9.452 9.47606 9.452C9.38006 9.452 9.28806 9.472 9.20006 9.512C9.11206 9.552 9.03606 9.604 8.97206 9.668C8.90806 9.724 8.86006 9.78 8.82806 9.836V11.42C8.82806 11.636 8.84406 11.84 8.87606 12.032C8.91606 12.224 8.98406 12.38 9.08006 12.5C9.18406 12.612 9.32406 12.668 9.50006 12.668Z"></path>
</svg>
