<svg xmlns="http://www.w3.org/2000/svg" fill="none" viewBox="0 0 13 18" height="18" width="13">
<rect fill-opacity="0.01" fill="#0D0E12" height="18" width="13"></rect>
<path fill="white" d="M0.492 14V12.584L2.82 9.008C2.996 8.744 3.16 8.488 3.312 8.24C3.472 7.992 3.6 7.74 3.696 7.484C3.8 7.228 3.852 6.96 3.852 6.68C3.852 6.4 3.796 6.192 3.684 6.056C3.572 5.92 3.42 5.852 3.228 5.852C3.012 5.852 2.844 5.912 2.724 6.032C2.604 6.152 2.52 6.312 2.472 6.512C2.432 6.712 2.412 6.936 2.412 7.184V7.664H0.468V7.148C0.468 6.572 0.56 6.06 0.744 5.612C0.928 5.156 1.22 4.8 1.62 4.544C2.02 4.28 2.544 4.148 3.192 4.148C4.064 4.148 4.72 4.376 5.16 4.832C5.608 5.28 5.832 5.908 5.832 6.716C5.832 7.108 5.768 7.472 5.64 7.808C5.52 8.144 5.356 8.472 5.148 8.792C4.948 9.104 4.732 9.432 4.5 9.776L2.724 12.428H5.568V14H0.492ZM9.29606 14.144C8.67206 14.144 8.18006 14.048 7.82006 13.856C7.46006 13.664 7.20406 13.384 7.05206 13.016C6.90006 12.64 6.82406 12.18 6.82406 11.636C6.82406 11.612 6.82406 11.588 6.82406 11.564C6.82406 11.532 6.82406 11.504 6.82406 11.48H8.69606C8.69606 11.872 8.72806 12.164 8.79206 12.356C8.86406 12.54 9.03606 12.632 9.30806 12.632C9.49206 12.632 9.62806 12.576 9.71606 12.464C9.80406 12.352 9.86006 12.156 9.88406 11.876C9.91606 11.588 9.93206 11.196 9.93206 10.7V9.836C9.82806 10.004 9.66806 10.132 9.45206 10.22C9.24406 10.308 9.00806 10.36 8.74406 10.376C8.23206 10.384 7.82006 10.256 7.50806 9.992C7.19606 9.728 6.97206 9.372 6.83606 8.924C6.70006 8.476 6.63206 7.988 6.63206 7.46C6.63206 6.78 6.71606 6.196 6.88406 5.708C7.06006 5.212 7.34406 4.828 7.73606 4.556C8.12806 4.284 8.64806 4.148 9.29606 4.148C9.93606 4.148 10.4521 4.276 10.8441 4.532C11.2361 4.788 11.5201 5.148 11.6961 5.612C11.8801 6.068 11.9721 6.608 11.9721 7.232V10.856C11.9721 11.488 11.8961 12.052 11.7441 12.548C11.6001 13.044 11.3361 13.436 10.9521 13.724C10.5681 14.004 10.0161 14.144 9.29606 14.144ZM9.32006 8.84C9.48006 8.84 9.60806 8.796 9.70406 8.708C9.80006 8.62 9.87606 8.536 9.93206 8.456V6.872C9.93206 6.648 9.91606 6.444 9.88406 6.26C9.85206 6.068 9.79206 5.916 9.70406 5.804C9.61606 5.684 9.48006 5.624 9.29606 5.624C9.12006 5.624 8.98806 5.688 8.90006 5.816C8.81206 5.936 8.75206 6.12 8.72006 6.368C8.69606 6.608 8.68406 6.908 8.68406 7.268C8.68406 7.58 8.69206 7.856 8.70806 8.096C8.73206 8.328 8.78806 8.512 8.87606 8.648C8.96406 8.776 9.11206 8.84 9.32006 8.84Z"></path>
</svg>
