<svg xmlns="http://www.w3.org/2000/svg" fill="none" viewBox="0 0 104 22" height="22" width="104">
<rect stroke="#0D0E12" fill="white" height="21" width="103" y="0.5" x="0.5"></rect>
<path fill="#0D0E12" d="M40.53 17.59V16.41C40.8167 16.4167 41.0667 16.4033 41.28 16.37C41.4933 16.3367 41.6667 16.2733 41.8 16.18C41.9333 16.0867 42.02 15.96 42.06 15.8C42.1067 15.6333 42.1 15.4267 42.04 15.18L40.22 7.9H41.88L42.58 11.23L42.91 13.4L43.15 11.22L43.74 7.9H45.42L43.74 15.45C43.66 15.8167 43.5667 16.1267 43.46 16.38C43.3533 16.6333 43.22 16.84 43.06 17C42.9067 17.1667 42.7167 17.2933 42.49 17.38C42.2633 17.4667 41.9867 17.5233 41.66 17.55C41.34 17.5833 40.9633 17.5967 40.53 17.59ZM45.1702 17.75V14.72H45.4002C45.5536 14.6733 45.6936 14.5933 45.8202 14.48C45.9536 14.36 46.0736 14.2 46.1802 14C46.2869 13.8 46.3836 13.55 46.4702 13.25C46.5569 12.95 46.6302 12.5933 46.6902 12.18C46.7502 11.76 46.8002 11.2767 46.8402 10.73L47.0602 7.9H50.8302V14.72H51.7402V17.75H50.5602L50.4702 16H46.5002L46.4002 17.75H45.1702ZM47.0902 14.72H49.1602V9.17H48.4102L48.3202 10.91C48.2869 11.4833 48.2369 11.97 48.1702 12.37C48.1102 12.77 48.0369 13.1033 47.9502 13.37C47.8702 13.63 47.7836 13.8433 47.6902 14.01C47.5969 14.1767 47.4969 14.3133 47.3902 14.42C47.2902 14.5267 47.1902 14.6267 47.0902 14.72ZM52.1338 16L53.6638 7.9H55.7038L57.2138 16H55.5638L55.2938 14.29H54.1038L53.8238 16H52.1338ZM54.2638 13.22H55.1238L54.6938 10.06L54.2638 13.22ZM57.5016 16V14.74C57.7283 14.74 57.9116 14.7267 58.0516 14.7C58.1916 14.6667 58.3016 14.5933 58.3816 14.48C58.4616 14.3667 58.525 14.1933 58.5716 13.96C58.6183 13.7267 58.655 13.4133 58.6816 13.02C58.715 12.6267 58.755 12.1267 58.8016 11.52L59.0616 7.9H63.3516V16H61.5716V9.27H60.6816L60.5216 11.86C60.475 12.5267 60.4283 13.1033 60.3816 13.59C60.335 14.07 60.2583 14.4733 60.1516 14.8C60.0516 15.1267 59.8983 15.3833 59.6916 15.57C59.4916 15.75 59.215 15.8733 58.8616 15.94C58.5083 16.0067 58.055 16.0267 57.5016 16ZM64.6241 16V7.9H66.0341V12.54L68.1041 7.9H69.2641V16H67.8241V11.28L65.7141 16H64.6241ZM71.2226 16V9.23H70.0026V7.9H74.2326V9.23H73.0226V16H71.2226ZM74.9757 16V7.9H76.7657V11.32H77.1657C77.6724 11.32 78.1024 11.4033 78.4557 11.57C78.809 11.7367 79.079 11.9933 79.2657 12.34C79.4524 12.68 79.5457 13.12 79.5457 13.66C79.5457 14.1533 79.479 14.5533 79.3457 14.86C79.219 15.1667 79.039 15.4033 78.8057 15.57C78.5724 15.7367 78.299 15.85 77.9857 15.91C77.679 15.97 77.349 16 76.9957 16H74.9757ZM76.7657 14.83H77.0057C77.2324 14.83 77.409 14.7867 77.5357 14.7C77.669 14.6133 77.7624 14.48 77.8157 14.3C77.8757 14.12 77.9024 13.8933 77.8957 13.62C77.889 13.32 77.8257 13.07 77.7057 12.87C77.5924 12.6633 77.3524 12.56 76.9857 12.56H76.7657V14.83Z"></path>
<rect fill="#0D0E12" rx="0.403497" height="0.806993" width="10.4909" y="7.29126" x="24"></rect>
<rect fill="#0D0E12" rx="0.403497" height="0.806993" width="2.74378" y="6" x="27.8735"></rect>
<rect fill="#0D0E12" transform="rotate(90 28.3578 6)" rx="0.403496" height="0.806993" width="1.93678" y="6" x="28.3578"></rect>
<rect fill="#0D0E12" transform="rotate(90 30.9402 6)" rx="0.403496" height="0.806993" width="1.93678" y="6" x="30.9402"></rect>
<rect fill="#0D0E12" rx="0.403497" height="0.806993" width="6.45594" y="16.0066" x="26.0175"></rect>
<rect fill="#0D0E12" transform="rotate(85 25.853 7.28564)" rx="0.403497" height="0.806993" width="9.53976" y="7.28564" x="25.853"></rect>
<rect fill="#0D0E12" transform="rotate(-85 31.7738 16.7891)" rx="0.403497" height="0.806993" width="9.53976" y="16.7891" x="31.7738"></rect>
<path fill="#0D0E12" d="M32.6348 7.69458H25.5333L26.2192 16.6119H32.191L32.6348 7.69458ZM27.1673 8.74754C27.1556 8.525 26.9658 8.35405 26.7432 8.36571C26.5207 8.37737 26.3497 8.56723 26.3614 8.78977L26.7235 15.6982C26.7351 15.9207 26.925 16.0917 27.1475 16.08C27.3701 16.0683 27.541 15.8785 27.5293 15.6559L27.1673 8.74754ZM31.3431 16.0801C31.1205 16.0684 30.9496 15.8786 30.9613 15.656L31.3233 8.74764C31.335 8.5251 31.5248 8.35416 31.7474 8.36582C31.9699 8.37748 32.1409 8.56734 32.1292 8.78988L31.7671 15.6983C31.7555 15.9208 31.5656 16.0918 31.3431 16.0801ZM28.8419 15.6818C28.8419 15.9047 29.0226 16.0853 29.2454 16.0853C29.4683 16.0853 29.6489 15.9047 29.6489 15.6818L29.6489 8.76395C29.6489 8.5411 29.4683 8.36045 29.2454 8.36045C29.0226 8.36045 28.8419 8.5411 28.8419 8.76395L28.8419 15.6818Z" clip-rule="evenodd" fill-rule="evenodd"></path>
</svg>
