<svg xmlns="http://www.w3.org/2000/svg" fill="none" viewBox="0 0 90 22" height="22" width="90">
<rect stroke="#0D0E12" fill="white" height="21" width="89" y="0.5" x="0.5"></rect>
<path fill="#0D0E12" d="M42.6 15V6.9H44.71C45.0567 6.9 45.3833 6.92667 45.69 6.98C46.0033 7.03333 46.28 7.13667 46.52 7.29C46.76 7.43667 46.9467 7.65 47.08 7.93C47.22 8.20333 47.29 8.56667 47.29 9.02C47.29 9.34667 47.24 9.62333 47.14 9.85C47.0467 10.07 46.91 10.2467 46.73 10.38C46.5567 10.5133 46.3467 10.6033 46.1 10.65C46.4133 10.69 46.6767 10.7933 46.89 10.96C47.1033 11.12 47.2633 11.3367 47.37 11.61C47.4833 11.8833 47.54 12.2133 47.54 12.6C47.54 13.02 47.4833 13.3833 47.37 13.69C47.2633 13.99 47.1067 14.2367 46.9 14.43C46.6933 14.6233 46.4367 14.7667 46.13 14.86C45.83 14.9533 45.4833 15 45.09 15H42.6ZM44.39 13.75H44.77C45.1633 13.75 45.4333 13.65 45.58 13.45C45.7333 13.25 45.81 12.9567 45.81 12.57C45.81 12.2633 45.7767 12.02 45.71 11.84C45.6433 11.66 45.5333 11.53 45.38 11.45C45.2267 11.3633 45.02 11.32 44.76 11.32H44.39V13.75ZM44.39 10.14H44.74C45.0133 10.14 45.22 10.1 45.36 10.02C45.5 9.93333 45.5933 9.81 45.64 9.65C45.6933 9.49 45.72 9.29667 45.72 9.07C45.72 8.85667 45.68 8.68 45.6 8.54C45.5267 8.39333 45.4133 8.28333 45.26 8.21C45.1133 8.13667 44.9267 8.1 44.7 8.1H44.39V10.14ZM48.0694 15L49.5994 6.9H51.6394L53.1494 15H51.4994L51.2294 13.29H50.0394L49.7594 15H48.0694ZM50.1994 12.22H51.0594L50.6294 9.06L50.1994 12.22ZM56.1602 15.12C55.5469 15.12 55.0602 15.01 54.7002 14.79C54.3469 14.5633 54.0969 14.25 53.9502 13.85C53.8036 13.4433 53.7302 12.9667 53.7302 12.42V9.5C53.7302 8.94 53.8036 8.46 53.9502 8.06C54.0969 7.65333 54.3469 7.34 54.7002 7.12C55.0602 6.9 55.5469 6.79 56.1602 6.79C56.7602 6.79 57.2269 6.89 57.5602 7.09C57.9002 7.28333 58.1402 7.55667 58.2802 7.91C58.4202 8.26333 58.4902 8.67 58.4902 9.13V9.83H56.7402V9.02C56.7402 8.86 56.7302 8.70667 56.7102 8.56C56.6969 8.41333 56.6502 8.29333 56.5702 8.2C56.4902 8.1 56.3536 8.05 56.1602 8.05C55.9736 8.05 55.8336 8.1 55.7402 8.2C55.6536 8.3 55.5969 8.42667 55.5702 8.58C55.5502 8.72667 55.5402 8.88333 55.5402 9.05V12.86C55.5402 13.04 55.5536 13.2067 55.5802 13.36C55.6136 13.5067 55.6736 13.6267 55.7602 13.72C55.8536 13.8067 55.9869 13.85 56.1602 13.85C56.3469 13.85 56.4802 13.8033 56.5602 13.71C56.6402 13.61 56.6902 13.4833 56.7102 13.33C56.7302 13.1767 56.7402 13.02 56.7402 12.86V12.01H58.4902V12.71C58.4902 13.17 58.4202 13.5833 58.2802 13.95C58.1469 14.31 57.9102 14.5967 57.5702 14.81C57.2369 15.0167 56.7669 15.12 56.1602 15.12ZM59.475 15V6.9H61.265V10.21L62.625 6.9H64.375L62.875 10.56L64.445 15H62.625L61.455 11.42L61.265 11.74V15H59.475Z"></path>
<path fill="#0D0E12" d="M35.6568 11.2427C35.6568 11.795 35.2091 12.2427 34.6568 12.2427L25.6568 12.2427C25.1045 12.2427 24.6568 11.795 24.6568 11.2427V11.2427C24.6568 10.6904 25.1045 10.2427 25.6568 10.2427L34.6568 10.2427C35.2091 10.2427 35.6568 10.6904 35.6568 11.2427V11.2427Z"></path>
<path fill="#0D0E12" d="M28.9498 14.7782C28.5593 15.1687 27.9261 15.1687 27.5356 14.7782L24.7071 11.9498C24.3166 11.5593 24.3166 10.9261 24.7071 10.5356V10.5356C25.0977 10.145 25.7308 10.145 26.1214 10.5356L28.9498 13.364C29.3403 13.7545 29.3403 14.3877 28.9498 14.7782V14.7782Z"></path>
<path fill="#0D0E12" d="M24.7071 11.9498C24.3166 11.5593 24.3166 10.9261 24.7071 10.5356L27.5355 7.70714C27.9261 7.31662 28.5592 7.31662 28.9497 7.70714V7.70714C29.3403 8.09767 29.3403 8.73083 28.9497 9.12136L26.1213 11.9498C25.7308 12.3403 25.0976 12.3403 24.7071 11.9498V11.9498Z"></path>
</svg>
