<svg xmlns="http://www.w3.org/2000/svg" fill="none" viewBox="0 0 44 15" height="15" width="44">
<rect fill="#0D0E12" height="12" width="44" y="3"></rect>
<path fill="white" d="M9.74645 12.1C9.32645 12.1 8.96645 12.0233 8.66645 11.87C8.37311 11.7167 8.14645 11.4967 7.98645 11.21C7.82645 10.9233 7.74645 10.5767 7.74645 10.17V8.05C7.74645 7.63667 7.82645 7.28667 7.98645 7C8.14645 6.71333 8.37311 6.49667 8.66645 6.35C8.96645 6.19667 9.32645 6.12 9.74645 6.12C10.1598 6.12 10.5098 6.18333 10.7964 6.31C11.0898 6.43667 11.3131 6.63 11.4664 6.89C11.6198 7.14333 11.6964 7.46667 11.6964 7.86V8.47H10.1264V7.81C10.1264 7.65667 10.1098 7.54 10.0764 7.46C10.0498 7.37333 10.0064 7.31333 9.94645 7.28C9.89311 7.24667 9.82645 7.23 9.74645 7.23C9.66645 7.23 9.59978 7.25333 9.54645 7.3C9.49311 7.34 9.45311 7.41 9.42645 7.51C9.39978 7.60333 9.38645 7.73667 9.38645 7.91V10.31C9.38645 10.57 9.41645 10.7467 9.47645 10.84C9.54311 10.9333 9.63645 10.98 9.75645 10.98C9.84311 10.98 9.91311 10.9633 9.96645 10.93C10.0198 10.89 10.0598 10.83 10.0864 10.75C10.1131 10.6633 10.1264 10.55 10.1264 10.41V9.64H11.6964V10.34C11.6964 10.7267 11.6164 11.0533 11.4564 11.32C11.3031 11.58 11.0798 11.7767 10.7864 11.91C10.4998 12.0367 10.1531 12.1 9.74645 12.1ZM12.5542 12V3.9H14.1742V6.73C14.3875 6.51667 14.6108 6.36333 14.8442 6.27C15.0775 6.17 15.3275 6.12 15.5942 6.12C15.8275 6.12 16.0208 6.18 16.1742 6.3C16.3342 6.41333 16.4542 6.57333 16.5342 6.78C16.6142 6.98 16.6542 7.21 16.6542 7.47V12H15.0342V7.7C15.0342 7.56 15.0108 7.45333 14.9642 7.38C14.9175 7.30667 14.8308 7.27 14.7042 7.27C14.6375 7.27 14.5575 7.29 14.4642 7.33C14.3708 7.36333 14.2742 7.41333 14.1742 7.48V12H12.5542ZM18.8221 12.1C18.5287 12.1 18.2821 12.03 18.0821 11.89C17.8821 11.75 17.7321 11.5733 17.6321 11.36C17.5321 11.14 17.4821 10.9167 17.4821 10.69C17.4821 10.33 17.5521 10.0267 17.6921 9.78C17.8387 9.53333 18.0287 9.32667 18.2621 9.16C18.4954 8.99333 18.7521 8.85333 19.0321 8.74C19.3121 8.62 19.5887 8.51333 19.8621 8.42V7.84C19.8621 7.74 19.8521 7.65333 19.8321 7.58C19.8121 7.5 19.7787 7.44 19.7321 7.4C19.6854 7.35333 19.6154 7.33 19.5221 7.33C19.4287 7.33 19.3554 7.35 19.3021 7.39C19.2554 7.43 19.2221 7.48667 19.2021 7.56C19.1821 7.62667 19.1687 7.70333 19.1621 7.79L19.1221 8.21L17.6021 8.15C17.6354 7.45667 17.8187 6.94667 18.1521 6.62C18.4921 6.28667 18.9987 6.12 19.6721 6.12C20.2587 6.12 20.6954 6.28333 20.9821 6.61C21.2754 6.93 21.4221 7.34667 21.4221 7.86V10.56C21.4221 10.8 21.4254 11.01 21.4321 11.19C21.4454 11.37 21.4587 11.5267 21.4721 11.66C21.4921 11.7933 21.5087 11.9067 21.5221 12H20.0621C20.0421 11.8467 20.0187 11.68 19.9921 11.5C19.9654 11.32 19.9454 11.2133 19.9321 11.18C19.8654 11.42 19.7387 11.6333 19.5521 11.82C19.3721 12.0067 19.1287 12.1 18.8221 12.1ZM19.4021 11C19.4687 11 19.5287 10.9867 19.5821 10.96C19.6421 10.9333 19.6954 10.8967 19.7421 10.85C19.7887 10.8033 19.8287 10.7567 19.8621 10.71V9.13C19.7287 9.21 19.6054 9.29333 19.4921 9.38C19.3787 9.46 19.2821 9.55 19.2021 9.65C19.1221 9.75 19.0587 9.86 19.0121 9.98C18.9721 10.0933 18.9521 10.2233 18.9521 10.37C18.9521 10.5633 18.9921 10.7167 19.0721 10.83C19.1521 10.9433 19.2621 11 19.4021 11ZM22.3879 12V6.22H24.0179V6.8C24.2313 6.58667 24.4513 6.42 24.6779 6.3C24.9113 6.18 25.1546 6.12 25.4079 6.12C25.6479 6.12 25.8446 6.18 25.9979 6.3C26.1579 6.41333 26.2779 6.57333 26.3579 6.78C26.4379 6.98 26.4779 7.21 26.4779 7.47V12H24.8579V7.7C24.8579 7.56 24.8346 7.45333 24.7879 7.38C24.7413 7.30667 24.6546 7.27 24.5279 7.27C24.4613 7.27 24.3813 7.29 24.2879 7.33C24.2013 7.36333 24.1113 7.41333 24.0179 7.48V12H22.3879ZM29.3363 14C28.903 14 28.5263 13.9567 28.2063 13.87C27.8863 13.7833 27.6363 13.6533 27.4563 13.48C27.283 13.3067 27.1963 13.0867 27.1963 12.82C27.1963 12.64 27.233 12.4767 27.3063 12.33C27.3863 12.19 27.493 12.0667 27.6263 11.96C27.7663 11.8467 27.923 11.75 28.0963 11.67C27.843 11.5967 27.6463 11.4867 27.5063 11.34C27.3663 11.1933 27.2963 10.9967 27.2963 10.75C27.2963 10.5167 27.353 10.3167 27.4663 10.15C27.5796 9.97667 27.7363 9.80333 27.9363 9.63C27.7496 9.46333 27.6063 9.26 27.5063 9.02C27.413 8.77333 27.3663 8.47667 27.3663 8.13C27.3663 7.69667 27.4463 7.33 27.6063 7.03C27.7663 6.73 27.9996 6.50333 28.3063 6.35C28.6196 6.19667 28.9963 6.12 29.4363 6.12C29.7363 6.12 29.9996 6.15667 30.2263 6.23C30.453 6.30333 30.6463 6.41667 30.8063 6.57C30.8796 6.45667 30.9763 6.34667 31.0963 6.24C31.2163 6.13333 31.353 6.04333 31.5063 5.97L31.7163 5.87L32.0963 6.65C32.0363 6.67 31.953 6.70333 31.8463 6.75C31.7396 6.79667 31.6263 6.84667 31.5063 6.9C31.393 6.95333 31.2896 7.00667 31.1963 7.06C31.2696 7.20667 31.3263 7.37333 31.3663 7.56C31.4063 7.74667 31.4263 7.94 31.4263 8.14C31.4263 8.55333 31.3496 8.91 31.1963 9.21C31.0496 9.51 30.8296 9.74 30.5363 9.9C30.243 10.0533 29.8763 10.13 29.4363 10.13C29.2496 10.13 29.073 10.1167 28.9063 10.09C28.7396 10.0567 28.5863 10.0167 28.4463 9.97C28.4063 10.0233 28.3696 10.08 28.3363 10.14C28.3096 10.1933 28.2963 10.2533 28.2963 10.32C28.2963 10.4 28.3363 10.4633 28.4163 10.51C28.4963 10.5567 28.6396 10.5933 28.8463 10.62L30.3663 10.79C30.8596 10.8433 31.223 11.0033 31.4563 11.27C31.6896 11.53 31.8063 11.8733 31.8063 12.3C31.8063 12.6667 31.723 12.9767 31.5563 13.23C31.3963 13.4833 31.133 13.6733 30.7663 13.8C30.4063 13.9333 29.9296 14 29.3363 14ZM29.5463 12.82C29.913 12.82 30.193 12.79 30.3863 12.73C30.5863 12.67 30.6863 12.5467 30.6863 12.36C30.6863 12.2667 30.6596 12.19 30.6063 12.13C30.553 12.0767 30.463 12.0333 30.3363 12C30.2163 11.96 30.043 11.93 29.8163 11.91L28.7463 11.8C28.6796 11.8467 28.6196 11.9 28.5663 11.96C28.5196 12.0133 28.4796 12.07 28.4463 12.13C28.4196 12.1967 28.4063 12.2667 28.4063 12.34C28.4063 12.5 28.493 12.62 28.6663 12.7C28.8396 12.78 29.133 12.82 29.5463 12.82ZM29.4363 9.16C29.5296 9.16 29.6063 9.14333 29.6663 9.11C29.7263 9.07 29.7696 9.01 29.7963 8.93C29.8296 8.85 29.853 8.74333 29.8663 8.61C29.8796 8.47667 29.8863 8.31667 29.8863 8.13C29.8863 7.93667 29.8796 7.77667 29.8663 7.65C29.853 7.51667 29.8296 7.41 29.7963 7.33C29.7696 7.24333 29.7263 7.18333 29.6663 7.15C29.6063 7.11 29.5296 7.09 29.4363 7.09C29.343 7.09 29.2663 7.11 29.2063 7.15C29.1463 7.18333 29.0996 7.24 29.0663 7.32C29.0396 7.4 29.0196 7.50667 29.0063 7.64C28.993 7.77333 28.9863 7.93667 28.9863 8.13C28.9863 8.31667 28.993 8.47667 29.0063 8.61C29.0196 8.73667 29.0396 8.84333 29.0663 8.93C29.0996 9.01 29.1463 9.07 29.2063 9.11C29.2663 9.14333 29.343 9.16 29.4363 9.16ZM34.3463 12.1C33.9263 12.1 33.5663 12.0267 33.2663 11.88C32.9663 11.7267 32.7363 11.5067 32.5763 11.22C32.4163 10.9267 32.3363 10.5767 32.3363 10.17V8.05C32.3363 7.63667 32.4163 7.28667 32.5763 7C32.7363 6.71333 32.9663 6.49667 33.2663 6.35C33.573 6.19667 33.933 6.12 34.3463 6.12C34.773 6.12 35.1263 6.19333 35.4063 6.34C35.693 6.48667 35.9063 6.70333 36.0463 6.99C36.193 7.27667 36.2663 7.63 36.2663 8.05V9.21H33.9463V10.32C33.9463 10.4667 33.963 10.5867 33.9963 10.68C34.0296 10.7733 34.0763 10.84 34.1363 10.88C34.1963 10.92 34.2663 10.94 34.3463 10.94C34.4263 10.94 34.4963 10.9233 34.5563 10.89C34.623 10.85 34.673 10.79 34.7063 10.71C34.7463 10.63 34.7663 10.52 34.7663 10.38V9.77H36.2663V10.33C36.2663 10.9167 36.0963 11.36 35.7563 11.66C35.4163 11.9533 34.9463 12.1 34.3463 12.1ZM33.9463 8.45H34.7663V7.87C34.7663 7.71667 34.7463 7.59667 34.7063 7.51C34.673 7.42333 34.623 7.36333 34.5563 7.33C34.4963 7.29667 34.423 7.28 34.3363 7.28C34.2563 7.28 34.1863 7.3 34.1263 7.34C34.073 7.38 34.0296 7.45 33.9963 7.55C33.963 7.64333 33.9463 7.78 33.9463 7.96V8.45Z"></path>
</svg>
