<svg xmlns="http://www.w3.org/2000/svg" fill="none" viewBox="0 0 8 19" height="19" width="8">
<path fill-opacity="0.01" fill="white" d="M0.5 0H7.5V19H0.5V0Z"></path>
<path fill="#45D2FF" d="M1.21694 14V4.28H2.90894V9.848L5.39294 4.28H6.78494V14H5.05694V8.336L2.52494 14H1.21694ZM4.15694 3.5C3.58894 3.5 3.13294 3.34 2.78894 3.02C2.44494 2.7 2.27294 2.236 2.27294 1.628H3.37694C3.37694 1.924 3.43294 2.144 3.54494 2.288C3.66494 2.432 3.86894 2.504 4.15694 2.504C4.43694 2.504 4.63694 2.432 4.75694 2.288C4.87694 2.136 4.93694 1.916 4.93694 1.628H6.04094C6.04094 2.236 5.86894 2.7 5.52494 3.02C5.18094 3.34 4.72494 3.5 4.15694 3.5Z"></path>
</svg>
