<svg xmlns="http://www.w3.org/2000/svg" fill="none" viewBox="0 0 480 330" height="330" width="480">
<rect fill="#0D0E12" height="330" width="480"></rect>
<path fill="white" d="M146.967 194.144C146.231 194.144 145.647 194.012 145.215 193.748C144.791 193.476 144.491 193.1 144.315 192.62C144.139 192.132 144.051 191.56 144.051 190.904V187.4C144.051 186.728 144.139 186.152 144.315 185.672C144.491 185.184 144.791 184.808 145.215 184.544C145.647 184.28 146.231 184.148 146.967 184.148C147.687 184.148 148.247 184.268 148.647 184.508C149.055 184.74 149.343 185.068 149.511 185.492C149.679 185.916 149.763 186.404 149.763 186.956V187.796H147.663V186.824C147.663 186.632 147.651 186.448 147.627 186.272C147.611 186.096 147.555 185.952 147.459 185.84C147.363 185.72 147.199 185.66 146.967 185.66C146.743 185.66 146.575 185.72 146.463 185.84C146.359 185.96 146.291 186.112 146.259 186.296C146.235 186.472 146.223 186.66 146.223 186.86V191.432C146.223 191.648 146.239 191.848 146.271 192.032C146.311 192.208 146.383 192.352 146.487 192.464C146.599 192.568 146.759 192.62 146.967 192.62C147.191 192.62 147.351 192.564 147.447 192.452C147.543 192.332 147.603 192.18 147.627 191.996C147.651 191.812 147.663 191.624 147.663 191.432V190.412H149.763V191.252C149.763 191.804 149.679 192.3 149.511 192.74C149.351 193.172 149.067 193.516 148.659 193.772C148.259 194.02 147.695 194.144 146.967 194.144ZM153.729 194.144C153.001 194.144 152.425 194.016 152.001 193.76C151.577 193.504 151.273 193.136 151.089 192.656C150.905 192.176 150.813 191.604 150.813 190.94V187.328C150.813 186.656 150.905 186.084 151.089 185.612C151.273 185.14 151.577 184.78 152.001 184.532C152.425 184.276 153.001 184.148 153.729 184.148C154.465 184.148 155.045 184.276 155.469 184.532C155.901 184.78 156.209 185.14 156.393 185.612C156.577 186.084 156.669 186.656 156.669 187.328V190.94C156.669 191.604 156.577 192.176 156.393 192.656C156.209 193.136 155.901 193.504 155.469 193.76C155.045 194.016 154.465 194.144 153.729 194.144ZM153.729 192.62C153.953 192.62 154.117 192.564 154.221 192.452C154.325 192.34 154.393 192.196 154.425 192.02C154.457 191.844 154.473 191.664 154.473 191.48V186.8C154.473 186.608 154.457 186.428 154.425 186.26C154.393 186.084 154.325 185.94 154.221 185.828C154.117 185.716 153.953 185.66 153.729 185.66C153.521 185.66 153.365 185.716 153.261 185.828C153.157 185.94 153.089 186.084 153.057 186.26C153.025 186.428 153.009 186.608 153.009 186.8V191.48C153.009 191.664 153.021 191.844 153.045 192.02C153.077 192.196 153.141 192.34 153.237 192.452C153.341 192.564 153.505 192.62 153.729 192.62ZM157.976 194V184.28H163.796V194H161.684V185.816H160.088V194H157.976ZM165.241 194V184.28H169.609V185.744H167.389V188.156H169.081V189.644H167.389V192.548H169.633V194H165.241ZM170.609 194V184.28H173.873C174.457 184.28 174.937 184.392 175.313 184.616C175.689 184.832 175.969 185.152 176.153 185.576C176.337 185.992 176.429 186.5 176.429 187.1C176.429 187.852 176.305 188.428 176.057 188.828C175.809 189.22 175.473 189.492 175.049 189.644C174.625 189.796 174.149 189.872 173.621 189.872H172.757V194H170.609ZM172.757 188.372H173.477C173.741 188.372 173.941 188.324 174.077 188.228C174.213 188.132 174.301 187.988 174.341 187.796C174.389 187.604 174.413 187.36 174.413 187.064C174.413 186.816 174.393 186.6 174.353 186.416C174.321 186.224 174.237 186.072 174.101 185.96C173.965 185.848 173.753 185.792 173.465 185.792H172.757V188.372ZM177.5 194V184.28H179.648V188.216H181.148V184.28H183.308V194H181.148V189.752H179.648V194H177.5ZM184.824 194V184.28H186.516V189.848L189 184.28H190.392V194H188.664V188.336L186.132 194H184.824ZM191.902 194V184.28H194.05V188.132H194.266L195.694 184.28H197.83L196.054 188.84L197.89 194H195.682L194.266 189.764H194.05V194H191.902ZM201.84 194V184.28H203.988V188.216H205.488V184.28H207.648V194H205.488V189.752H203.988V194H201.84ZM208.66 194L210.496 184.28H212.944L214.756 194H212.776L212.452 191.948H211.024L210.688 194H208.66ZM211.216 190.664H212.248L211.732 186.872L211.216 190.664ZM215.774 194V184.28H217.466V189.848L219.95 184.28H221.342V194H219.614V188.336L217.082 194H215.774ZM218.714 183.5C218.146 183.5 217.69 183.34 217.346 183.02C217.002 182.7 216.83 182.236 216.83 181.628H217.934C217.934 181.924 217.99 182.144 218.102 182.288C218.222 182.432 218.426 182.504 218.714 182.504C218.994 182.504 219.194 182.432 219.314 182.288C219.434 182.136 219.494 181.916 219.494 181.628H220.598C220.598 182.236 220.426 182.7 220.082 183.02C219.738 183.34 219.282 183.5 218.714 183.5ZM222.312 196.1V192.464H222.588C222.772 192.408 222.94 192.312 223.092 192.176C223.252 192.032 223.396 191.84 223.524 191.6C223.652 191.36 223.768 191.06 223.872 190.7C223.976 190.34 224.064 189.912 224.136 189.416C224.208 188.912 224.268 188.332 224.316 187.676L224.58 184.28H229.104V192.464H230.196V196.1H228.78L228.672 194H223.908L223.788 196.1H222.312ZM224.616 192.464H227.1V185.804H226.2L226.092 187.892C226.052 188.58 225.992 189.164 225.912 189.644C225.84 190.124 225.752 190.524 225.648 190.844C225.552 191.156 225.448 191.412 225.336 191.612C225.224 191.812 225.104 191.976 224.976 192.104C224.856 192.232 224.736 192.352 224.616 192.464ZM231.136 194V184.28H235.504V185.744H233.284V188.156H234.976V189.644H233.284V192.548H235.528V194H231.136ZM236.539 194V184.28H238.687V188.216H240.187V184.28H242.347V194H240.187V189.752H238.687V194H236.539ZM243.923 195.68L243.803 195.044C244.011 194.988 244.203 194.884 244.379 194.732C244.563 194.588 244.655 194.344 244.655 194H243.623V192.152H245.483V193.748C245.475 194.34 245.343 194.8 245.087 195.128C244.831 195.456 244.443 195.64 243.923 195.68ZM249.757 194V184.28H255.577V194H253.465V185.816H251.869V194H249.757ZM259.807 194.144C259.079 194.144 258.503 194.016 258.079 193.76C257.655 193.504 257.351 193.136 257.167 192.656C256.983 192.176 256.891 191.604 256.891 190.94V187.328C256.891 186.656 256.983 186.084 257.167 185.612C257.351 185.14 257.655 184.78 258.079 184.532C258.503 184.276 259.079 184.148 259.807 184.148C260.543 184.148 261.123 184.276 261.547 184.532C261.979 184.78 262.287 185.14 262.471 185.612C262.655 186.084 262.747 186.656 262.747 187.328V190.94C262.747 191.604 262.655 192.176 262.471 192.656C262.287 193.136 261.979 193.504 261.547 193.76C261.123 194.016 260.543 194.144 259.807 194.144ZM259.807 192.62C260.031 192.62 260.195 192.564 260.299 192.452C260.403 192.34 260.471 192.196 260.503 192.02C260.535 191.844 260.551 191.664 260.551 191.48V186.8C260.551 186.608 260.535 186.428 260.503 186.26C260.471 186.084 260.403 185.94 260.299 185.828C260.195 185.716 260.031 185.66 259.807 185.66C259.599 185.66 259.443 185.716 259.339 185.828C259.235 185.94 259.167 186.084 259.135 186.26C259.103 186.428 259.087 186.608 259.087 186.8V191.48C259.087 191.664 259.099 191.844 259.123 192.02C259.155 192.196 259.219 192.34 259.315 192.452C259.419 192.564 259.583 192.62 259.807 192.62ZM263.55 196.1V192.464H263.826C264.01 192.408 264.178 192.312 264.33 192.176C264.49 192.032 264.634 191.84 264.762 191.6C264.89 191.36 265.006 191.06 265.11 190.7C265.214 190.34 265.302 189.912 265.374 189.416C265.446 188.912 265.506 188.332 265.554 187.676L265.818 184.28H270.342V192.464H271.434V196.1H270.018L269.91 194H265.146L265.026 196.1H263.55ZM265.854 192.464H268.338V185.804H267.438L267.33 187.892C267.29 188.58 267.23 189.164 267.15 189.644C267.078 190.124 266.99 190.524 266.886 190.844C266.79 191.156 266.686 191.412 266.574 191.612C266.462 191.812 266.342 191.976 266.214 192.104C266.094 192.232 265.974 192.352 265.854 192.464ZM272.41 194V184.28H274.558V188.132H274.774L276.202 184.28H278.338L276.562 188.84L278.398 194H276.19L274.774 189.764H274.558V194H272.41ZM278.605 194V192.488C278.877 192.488 279.097 192.472 279.265 192.44C279.433 192.4 279.565 192.312 279.661 192.176C279.757 192.04 279.833 191.832 279.889 191.552C279.945 191.272 279.989 190.896 280.021 190.424C280.061 189.952 280.109 189.352 280.165 188.624L280.477 184.28H285.625V194H283.489V185.924H282.421L282.229 189.032C282.173 189.832 282.117 190.524 282.061 191.108C282.005 191.684 281.913 192.168 281.785 192.56C281.665 192.952 281.481 193.26 281.233 193.484C280.993 193.7 280.661 193.848 280.237 193.928C279.813 194.008 279.269 194.032 278.605 194ZM293.02 194.144C292.332 194.144 291.792 194.008 291.4 193.736C291.008 193.456 290.732 193.068 290.572 192.572C290.412 192.068 290.332 191.484 290.332 190.82V189.872H289.276V194H287.152V184.28H289.276V188.288H290.332V187.448C290.332 186.776 290.412 186.196 290.572 185.708C290.732 185.212 291.008 184.828 291.4 184.556C291.792 184.284 292.332 184.148 293.02 184.148C293.708 184.148 294.248 184.284 294.64 184.556C295.032 184.828 295.308 185.212 295.468 185.708C295.628 186.204 295.708 186.784 295.708 187.448V190.82C295.708 191.484 295.628 192.068 295.468 192.572C295.308 193.068 295.032 193.456 294.64 193.736C294.248 194.008 293.708 194.144 293.02 194.144ZM293.02 192.62C293.236 192.62 293.392 192.564 293.488 192.452C293.584 192.34 293.644 192.196 293.668 192.02C293.692 191.844 293.704 191.664 293.704 191.48V186.8C293.704 186.608 293.692 186.428 293.668 186.26C293.644 186.084 293.584 185.94 293.488 185.828C293.392 185.716 293.236 185.66 293.02 185.66C292.812 185.66 292.656 185.716 292.552 185.828C292.456 185.94 292.396 186.084 292.372 186.26C292.348 186.428 292.336 186.608 292.336 186.8V191.48C292.336 191.664 292.348 191.844 292.372 192.02C292.396 192.196 292.456 192.34 292.552 192.452C292.656 192.564 292.812 192.62 293.02 192.62ZM300.703 194V190.004C300.303 190.06 299.911 190.088 299.527 190.088C299.063 190.088 298.623 190 298.207 189.824C297.799 189.64 297.467 189.376 297.211 189.032C296.955 188.68 296.827 188.252 296.827 187.748V184.28H298.975V187.736C298.975 187.936 298.995 188.116 299.035 188.276C299.083 188.428 299.187 188.548 299.347 188.636C299.515 188.724 299.775 188.768 300.127 188.768C300.215 188.768 300.307 188.764 300.403 188.756C300.499 188.748 300.599 188.736 300.703 188.72V184.28H302.851V194H300.703ZM304.331 194V184.28H308.699V185.744H306.479V188.156H308.171V189.644H306.479V192.548H308.723V194H304.331ZM309.735 194V184.28H311.883V188.216H313.383V184.28H315.543V194H313.383V189.752H311.883V194H309.735ZM317.059 194V184.28H318.751V189.848L321.235 184.28H322.627V194H320.899V188.336L318.367 194H317.059ZM324.101 194V184.28H328.469V185.744H326.249V188.156H327.941V189.644H326.249V192.548H328.493V194H324.101ZM329.3 194V192.152H331.148V194H329.3ZM332.23 194V192.152H334.078V194H332.23ZM335.159 194V192.152H337.007V194H335.159Z"></path>
<path fill="white" d="M191.194 35V25.28H192.886V30.848L195.37 25.28H196.762V35H195.034V29.336L192.502 35H191.194ZM198.272 35V25.28H202.772V26.876H200.42V35H198.272ZM203.79 35V25.28H207.054C207.638 25.28 208.118 25.392 208.494 25.616C208.87 25.832 209.15 26.152 209.334 26.576C209.518 26.992 209.61 27.5 209.61 28.1C209.61 28.852 209.486 29.428 209.238 29.828C208.99 30.22 208.654 30.492 208.23 30.644C207.806 30.796 207.33 30.872 206.802 30.872H205.938V35H203.79ZM205.938 29.372H206.658C206.922 29.372 207.122 29.324 207.258 29.228C207.394 29.132 207.482 28.988 207.522 28.796C207.57 28.604 207.594 28.36 207.594 28.064C207.594 27.816 207.574 27.6 207.534 27.416C207.502 27.224 207.418 27.072 207.282 26.96C207.146 26.848 206.934 26.792 206.646 26.792H205.938V29.372ZM213.43 35.144C212.702 35.144 212.126 35.016 211.702 34.76C211.278 34.504 210.974 34.136 210.79 33.656C210.606 33.176 210.514 32.604 210.514 31.94V28.328C210.514 27.656 210.606 27.084 210.79 26.612C210.974 26.14 211.278 25.78 211.702 25.532C212.126 25.276 212.702 25.148 213.43 25.148C214.166 25.148 214.746 25.276 215.17 25.532C215.602 25.78 215.91 26.14 216.094 26.612C216.278 27.084 216.37 27.656 216.37 28.328V31.94C216.37 32.604 216.278 33.176 216.094 33.656C215.91 34.136 215.602 34.504 215.17 34.76C214.746 35.016 214.166 35.144 213.43 35.144ZM213.43 33.62C213.654 33.62 213.818 33.564 213.922 33.452C214.026 33.34 214.094 33.196 214.126 33.02C214.158 32.844 214.174 32.664 214.174 32.48V27.8C214.174 27.608 214.158 27.428 214.126 27.26C214.094 27.084 214.026 26.94 213.922 26.828C213.818 26.716 213.654 26.66 213.43 26.66C213.222 26.66 213.066 26.716 212.962 26.828C212.858 26.94 212.79 27.084 212.758 27.26C212.726 27.428 212.71 27.608 212.71 27.8V32.48C212.71 32.664 212.722 32.844 212.746 33.02C212.778 33.196 212.842 33.34 212.938 33.452C213.042 33.564 213.206 33.62 213.43 33.62ZM217.713 35V25.28H219.861V29.132H220.077L221.505 25.28H223.641L221.865 29.84L223.701 35H221.493L220.077 30.764H219.861V35H217.713ZM227.328 35.144C226.6 35.144 226.024 35.016 225.6 34.76C225.176 34.504 224.872 34.136 224.688 33.656C224.504 33.176 224.412 32.604 224.412 31.94V28.328C224.412 27.656 224.504 27.084 224.688 26.612C224.872 26.14 225.176 25.78 225.6 25.532C226.024 25.276 226.6 25.148 227.328 25.148C228.064 25.148 228.644 25.276 229.068 25.532C229.5 25.78 229.808 26.14 229.992 26.612C230.176 27.084 230.268 27.656 230.268 28.328V31.94C230.268 32.604 230.176 33.176 229.992 33.656C229.808 34.136 229.5 34.504 229.068 34.76C228.644 35.016 228.064 35.144 227.328 35.144ZM227.328 33.62C227.552 33.62 227.716 33.564 227.82 33.452C227.924 33.34 227.992 33.196 228.024 33.02C228.056 32.844 228.072 32.664 228.072 32.48V27.8C228.072 27.608 228.056 27.428 228.024 27.26C227.992 27.084 227.924 26.94 227.82 26.828C227.716 26.716 227.552 26.66 227.328 26.66C227.12 26.66 226.964 26.716 226.86 26.828C226.756 26.94 226.688 27.084 226.656 27.26C226.624 27.428 226.608 27.608 226.608 27.8V32.48C226.608 32.664 226.62 32.844 226.644 33.02C226.676 33.196 226.74 33.34 226.836 33.452C226.94 33.564 227.104 33.62 227.328 33.62ZM231.575 35V25.28H234.107C234.523 25.28 234.915 25.312 235.283 25.376C235.659 25.44 235.991 25.564 236.279 25.748C236.567 25.924 236.791 26.18 236.951 26.516C237.119 26.844 237.203 27.28 237.203 27.824C237.203 28.216 237.143 28.548 237.023 28.82C236.911 29.084 236.747 29.296 236.531 29.456C236.323 29.616 236.071 29.724 235.775 29.78C236.151 29.828 236.467 29.952 236.723 30.152C236.979 30.344 237.171 30.604 237.299 30.932C237.435 31.26 237.503 31.656 237.503 32.12C237.503 32.624 237.435 33.06 237.299 33.428C237.171 33.788 236.983 34.084 236.735 34.316C236.487 34.548 236.179 34.72 235.811 34.832C235.451 34.944 235.035 35 234.563 35H231.575ZM233.723 33.5H234.179C234.651 33.5 234.975 33.38 235.151 33.14C235.335 32.9 235.427 32.548 235.427 32.084C235.427 31.716 235.387 31.424 235.307 31.208C235.227 30.992 235.095 30.836 234.911 30.74C234.727 30.636 234.479 30.584 234.167 30.584H233.723V33.5ZM233.723 29.168H234.143C234.471 29.168 234.719 29.12 234.887 29.024C235.055 28.92 235.167 28.772 235.223 28.58C235.287 28.388 235.319 28.156 235.319 27.884C235.319 27.628 235.271 27.416 235.175 27.248C235.087 27.072 234.951 26.94 234.767 26.852C234.591 26.764 234.367 26.72 234.095 26.72H233.723V29.168ZM244.484 35.144C243.756 35.144 243.18 35.016 242.756 34.76C242.332 34.504 242.028 34.136 241.844 33.656C241.66 33.176 241.568 32.604 241.568 31.94V28.328C241.568 27.656 241.66 27.084 241.844 26.612C242.028 26.14 242.332 25.78 242.756 25.532C243.18 25.276 243.756 25.148 244.484 25.148C245.22 25.148 245.8 25.276 246.224 25.532C246.656 25.78 246.964 26.14 247.148 26.612C247.332 27.084 247.424 27.656 247.424 28.328V31.94C247.424 32.604 247.332 33.176 247.148 33.656C246.964 34.136 246.656 34.504 246.224 34.76C245.8 35.016 245.22 35.144 244.484 35.144ZM244.484 33.62C244.708 33.62 244.872 33.564 244.976 33.452C245.08 33.34 245.148 33.196 245.18 33.02C245.212 32.844 245.228 32.664 245.228 32.48V27.8C245.228 27.608 245.212 27.428 245.18 27.26C245.148 27.084 245.08 26.94 244.976 26.828C244.872 26.716 244.708 26.66 244.484 26.66C244.276 26.66 244.12 26.716 244.016 26.828C243.912 26.94 243.844 27.084 243.812 27.26C243.78 27.428 243.764 27.608 243.764 27.8V32.48C243.764 32.664 243.776 32.844 243.8 33.02C243.832 33.196 243.896 33.34 243.992 33.452C244.096 33.564 244.26 33.62 244.484 33.62ZM248.768 35V25.28H250.916V29.216H252.416V25.28H254.576V35H252.416V30.752H250.916V35H248.768ZM255.42 35V33.488C255.692 33.488 255.912 33.472 256.08 33.44C256.248 33.4 256.38 33.312 256.476 33.176C256.572 33.04 256.648 32.832 256.704 32.552C256.76 32.272 256.804 31.896 256.836 31.424C256.876 30.952 256.924 30.352 256.98 29.624L257.292 25.28H262.44V35H260.304V26.924H259.236L259.044 30.032C258.988 30.832 258.932 31.524 258.876 32.108C258.82 32.684 258.728 33.168 258.6 33.56C258.48 33.952 258.296 34.26 258.048 34.484C257.808 34.7 257.476 34.848 257.052 34.928C256.628 35.008 256.084 35.032 255.42 35ZM263.463 35L265.299 25.28H267.747L269.559 35H267.579L267.255 32.948H265.827L265.491 35H263.463ZM266.019 31.664H267.051L266.535 27.872L266.019 31.664ZM270.576 35V25.28H272.268V30.848L274.752 25.28H276.144V35H274.416V29.336L271.884 35H270.576ZM273.516 24.5C272.948 24.5 272.492 24.34 272.148 24.02C271.804 23.7 271.632 23.236 271.632 22.628H272.736C272.736 22.924 272.792 23.144 272.904 23.288C273.024 23.432 273.228 23.504 273.516 23.504C273.796 23.504 273.996 23.432 274.116 23.288C274.236 23.136 274.296 22.916 274.296 22.628H275.4C275.4 23.236 275.228 23.7 274.884 24.02C274.54 24.34 274.084 24.5 273.516 24.5ZM277.654 35V25.28H279.802V29.216H281.302V25.28H283.462V35H281.302V30.752H279.802V35H277.654ZM285.027 30.056V28.232H286.851V30.056H285.027ZM285.027 34.328V32.504H286.851V34.328H285.027Z"></path>
</svg>
