<svg xmlns="http://www.w3.org/2000/svg" fill="none" viewBox="0 0 90 22" height="22" width="90">
<rect fill="#0D0E12" height="22" width="90"></rect>
<path fill="white" d="M28.6 15V6.9H33.45V15H31.69V8.18H30.36V15H28.6ZM34.6547 15V6.9H37.3747C37.8614 6.9 38.2614 6.99333 38.5747 7.18C38.888 7.36 39.1214 7.62667 39.2747 7.98C39.428 8.32667 39.5047 8.75 39.5047 9.25C39.5047 9.87667 39.4014 10.3567 39.1947 10.69C38.988 11.0167 38.708 11.2433 38.3547 11.37C38.0014 11.4967 37.6047 11.56 37.1647 11.56H36.4447V15H34.6547ZM36.4447 10.31H37.0447C37.2647 10.31 37.4314 10.27 37.5447 10.19C37.658 10.11 37.7314 9.99 37.7647 9.83C37.8047 9.67 37.8247 9.46667 37.8247 9.22C37.8247 9.01333 37.808 8.83333 37.7747 8.68C37.748 8.52 37.678 8.39333 37.5647 8.3C37.4514 8.20667 37.2747 8.16 37.0347 8.16H36.4447V10.31ZM40.3976 15V6.9H41.8076V11.54L43.8776 6.9H45.0376V15H43.5976V10.28L41.4876 15H40.3976ZM46.236 15L46.376 6.9H48.296L49.186 11.61L50.146 6.9H51.996L52.136 15H50.866L50.716 9.61L49.776 15H48.646L47.646 9.57L47.526 15H46.236ZM53.307 15V6.9H56.947V8.12H55.097V10.13H56.507V11.37H55.097V13.79H56.967V15H53.307ZM57.8097 15V6.9H59.5997V10.18H60.8497V6.9H62.6497V15H60.8497V11.46H59.5997V15H57.8097ZM63.9132 15V6.9H65.3232V11.54L67.3932 6.9H68.5532V15H67.1132V10.28L65.0032 15H63.9132ZM70.5116 15V8.23H69.2916V6.9H73.5216V8.23H72.3116V15H70.5116ZM74.2648 15V6.9H76.0548V10.32H76.4548C76.9614 10.32 77.3914 10.4033 77.7448 10.57C78.0981 10.7367 78.3681 10.9933 78.5548 11.34C78.7414 11.68 78.8348 12.12 78.8348 12.66C78.8348 13.1533 78.7681 13.5533 78.6348 13.86C78.5081 14.1667 78.3281 14.4033 78.0948 14.57C77.8614 14.7367 77.5881 14.85 77.2748 14.91C76.9681 14.97 76.6381 15 76.2848 15H74.2648ZM76.0548 13.83H76.2948C76.5214 13.83 76.6981 13.7867 76.8248 13.7C76.9581 13.6133 77.0514 13.48 77.1048 13.3C77.1648 13.12 77.1914 12.8933 77.1848 12.62C77.1781 12.32 77.1148 12.07 76.9948 11.87C76.8814 11.6633 76.6414 11.56 76.2748 11.56H76.0548V13.83Z"></path>
<path fill="white" d="M13.9498 14.9496C13.5592 15.3402 12.9261 15.3402 12.5356 14.9496L9.70712 12.1212C9.3166 11.7307 9.3166 11.0975 9.70712 10.707V10.707C10.0976 10.3165 10.7308 10.3165 11.1213 10.707L13.9498 13.5354C14.3403 13.926 14.3403 14.5591 13.9498 14.9496V14.9496Z"></path>
<path fill="white" d="M21.1924 6.70718C21.5829 7.0977 21.5829 7.73086 21.1924 8.12139L14.1214 15.1925C13.7308 15.583 13.0977 15.583 12.7071 15.1925V15.1925C12.3166 14.8019 12.3166 14.1688 12.7071 13.7782L19.7782 6.70717C20.1687 6.31665 20.8019 6.31665 21.1924 6.70718V6.70718Z"></path>
</svg>
