<svg xmlns="http://www.w3.org/2000/svg" fill="none" viewBox="0 0 13 18" height="18" width="13">
<rect fill-opacity="0.01" fill="#0D0E12" height="18" width="13"></rect>
<path fill="white" d="M1.596 14V6.26C1.508 6.308 1.408 6.356 1.296 6.404C1.184 6.452 1.064 6.504 0.936 6.56C0.816 6.608 0.696 6.656 0.576 6.704C0.464 6.752 0.36 6.8 0.264 6.848V5.36C0.352 5.312 0.476 5.248 0.636 5.168C0.796 5.08 0.968 4.984 1.152 4.88C1.336 4.776 1.508 4.672 1.668 4.568C1.828 4.456 1.948 4.36 2.028 4.28H3.6V14H1.596ZM7.96406 14.18C7.38006 14.18 6.89206 14.064 6.50006 13.832C6.10806 13.592 5.81206 13.264 5.61206 12.848C5.41206 12.432 5.31206 11.948 5.31206 11.396V6.992C5.31206 6.424 5.40406 5.928 5.58806 5.504C5.78006 5.072 6.07206 4.736 6.46406 4.496C6.85606 4.256 7.35606 4.136 7.96406 4.136C8.57206 4.136 9.06806 4.256 9.45206 4.496C9.84406 4.736 10.1321 5.072 10.3161 5.504C10.5081 5.928 10.6041 6.424 10.6041 6.992V11.396C10.6041 11.94 10.5041 12.424 10.3041 12.848C10.1041 13.264 9.80806 13.592 9.41606 13.832C9.02406 14.064 8.54006 14.18 7.96406 14.18ZM7.96406 12.392C8.15606 12.392 8.29206 12.332 8.37206 12.212C8.46006 12.084 8.51206 11.94 8.52806 11.78C8.55206 11.612 8.56406 11.468 8.56406 11.348V7.04C8.56406 6.904 8.55606 6.752 8.54006 6.584C8.52406 6.408 8.47206 6.256 8.38406 6.128C8.30406 5.992 8.16406 5.924 7.96406 5.924C7.76406 5.924 7.62006 5.992 7.53206 6.128C7.45206 6.256 7.40406 6.408 7.38806 6.584C7.37206 6.752 7.36406 6.904 7.36406 7.04V11.348C7.36406 11.468 7.37606 11.612 7.40006 11.78C7.42406 11.94 7.47606 12.084 7.55606 12.212C7.64406 12.332 7.78006 12.392 7.96406 12.392Z"></path>
</svg>
