<svg xmlns="http://www.w3.org/2000/svg" fill="none" viewBox="0 0 22 22" height="22" width="22">
<circle stroke="#0D0E12" fill="#FDCD4D" r="10" cy="11" cx="11"></circle>
<path fill="white" d="M17 10C17 11.1046 16.1046 12 15 12C13.8954 12 13 11.1046 13 10C13 8.89543 13.8954 8 15 8C16.1046 8 17 8.89543 17 10Z"></path>
<path fill="#0D0E12" d="M15.9999 10C15.9999 10.5523 15.5522 11 14.9999 11C14.4476 11 13.9999 10.5523 13.9999 10C13.9999 9.44772 14.4476 9 14.9999 9C15.5522 9 15.9999 9.44772 15.9999 10Z"></path>
<path fill="white" d="M15 9C15 9.27614 14.7761 9.5 14.5 9.5C14.2239 9.5 14 9.27614 14 9C14 8.72386 14.2239 8.5 14.5 8.5C14.7761 8.5 15 8.72386 15 9Z"></path>
<path stroke-linecap="round" stroke="#0D0E12" d="M11 9.74999C10.5 8.75 8.5 8.75 8 9.75002"></path>
<path stroke-linecap="round" stroke="#0D0E12" d="M5.99992 14C6 15.5 7.99996 17 12 17"></path>
</svg>
