<svg xmlns="http://www.w3.org/2000/svg" fill="none" viewBox="0 0 480 360" height="360" width="480">
<rect fill-opacity="0.01" fill="white" height="360" width="480"></rect>
<rect fill-opacity="0.8" fill="#0D0E12" height="304" width="304" y="40" x="18"></rect>
<path fill="white" d="M91.8274 174V164.28H94.2874C95.1354 164.28 95.7954 164.388 96.2674 164.604C96.7394 164.812 97.0714 165.144 97.2634 165.6C97.4554 166.048 97.5514 166.632 97.5514 167.352V170.88C97.5514 171.608 97.4554 172.204 97.2634 172.668C97.0714 173.124 96.7394 173.46 96.2674 173.676C95.8034 173.892 95.1514 174 94.3114 174H91.8274ZM93.9754 172.512H94.3114C94.6394 172.512 94.8754 172.464 95.0194 172.368C95.1634 172.272 95.2514 172.128 95.2834 171.936C95.3234 171.744 95.3434 171.504 95.3434 171.216V166.98C95.3434 166.692 95.3194 166.46 95.2714 166.284C95.2314 166.108 95.1394 165.98 94.9954 165.9C94.8514 165.82 94.6194 165.78 94.2994 165.78H93.9754V172.512ZM101.643 174.144C100.915 174.144 100.339 174.016 99.9147 173.76C99.4907 173.504 99.1867 173.136 99.0027 172.656C98.8187 172.176 98.7267 171.604 98.7267 170.94V167.328C98.7267 166.656 98.8187 166.084 99.0027 165.612C99.1867 165.14 99.4907 164.78 99.9147 164.532C100.339 164.276 100.915 164.148 101.643 164.148C102.379 164.148 102.959 164.276 103.383 164.532C103.815 164.78 104.123 165.14 104.307 165.612C104.491 166.084 104.583 166.656 104.583 167.328V170.94C104.583 171.604 104.491 172.176 104.307 172.656C104.123 173.136 103.815 173.504 103.383 173.76C102.959 174.016 102.379 174.144 101.643 174.144ZM101.643 172.62C101.867 172.62 102.031 172.564 102.135 172.452C102.239 172.34 102.307 172.196 102.339 172.02C102.371 171.844 102.387 171.664 102.387 171.48V166.8C102.387 166.608 102.371 166.428 102.339 166.26C102.307 166.084 102.239 165.94 102.135 165.828C102.031 165.716 101.867 165.66 101.643 165.66C101.435 165.66 101.279 165.716 101.175 165.828C101.071 165.94 101.003 166.084 100.971 166.26C100.939 166.428 100.923 166.608 100.923 166.8V171.48C100.923 171.664 100.935 171.844 100.959 172.02C100.991 172.196 101.055 172.34 101.151 172.452C101.255 172.564 101.419 172.62 101.643 172.62ZM110.184 174V170.028L108.336 164.28H110.364L111.288 167.352L112.116 164.28H114.06L112.248 170.028V174H110.184ZM117.475 174.144C116.747 174.144 116.171 174.016 115.747 173.76C115.323 173.504 115.019 173.136 114.835 172.656C114.651 172.176 114.559 171.604 114.559 170.94V167.328C114.559 166.656 114.651 166.084 114.835 165.612C115.019 165.14 115.323 164.78 115.747 164.532C116.171 164.276 116.747 164.148 117.475 164.148C118.211 164.148 118.791 164.276 119.215 164.532C119.647 164.78 119.955 165.14 120.139 165.612C120.323 166.084 120.415 166.656 120.415 167.328V170.94C120.415 171.604 120.323 172.176 120.139 172.656C119.955 173.136 119.647 173.504 119.215 173.76C118.791 174.016 118.211 174.144 117.475 174.144ZM117.475 172.62C117.699 172.62 117.863 172.564 117.967 172.452C118.071 172.34 118.139 172.196 118.171 172.02C118.203 171.844 118.219 171.664 118.219 171.48V166.8C118.219 166.608 118.203 166.428 118.171 166.26C118.139 166.084 118.071 165.94 117.967 165.828C117.863 165.716 117.699 165.66 117.475 165.66C117.267 165.66 117.111 165.716 117.007 165.828C116.903 165.94 116.835 166.084 116.803 166.26C116.771 166.428 116.755 166.608 116.755 166.8V171.48C116.755 171.664 116.767 171.844 116.791 172.02C116.823 172.196 116.887 172.34 116.983 172.452C117.087 172.564 117.251 172.62 117.475 172.62ZM124.53 174.144C123.786 174.144 123.202 174.024 122.778 173.784C122.362 173.536 122.07 173.18 121.902 172.716C121.734 172.244 121.65 171.668 121.65 170.988V164.28H123.774V171.312C123.774 171.512 123.79 171.712 123.822 171.912C123.854 172.112 123.922 172.276 124.026 172.404C124.138 172.532 124.306 172.596 124.53 172.596C124.762 172.596 124.93 172.532 125.034 172.404C125.138 172.276 125.202 172.112 125.226 171.912C125.258 171.712 125.274 171.512 125.274 171.312V164.28H127.41V170.988C127.41 171.668 127.322 172.244 127.146 172.716C126.978 173.18 126.686 173.536 126.27 173.784C125.854 174.024 125.274 174.144 124.53 174.144ZM132.627 174L131.451 164.28H133.275L133.851 169.944L134.583 164.292H136.011L136.779 169.908L137.367 164.28H139.167L138.003 174H136.131L135.303 168.132L134.523 174H132.627ZM139.488 174L141.324 164.28H143.772L145.584 174H143.604L143.28 171.948H141.852L141.516 174H139.488ZM142.044 170.664H143.076L142.56 166.872L142.044 170.664ZM146.566 174V164.28H148.078L150.07 168.96V164.28H151.846V174H150.394L148.402 168.96V174H146.566ZM154.168 174V165.876H152.704V164.28H157.78V165.876H156.328V174H154.168ZM162.582 174V165.876H161.118V164.28H166.194V165.876H164.742V174H162.582ZM169.74 174.144C169.012 174.144 168.436 174.016 168.012 173.76C167.588 173.504 167.284 173.136 167.1 172.656C166.916 172.176 166.824 171.604 166.824 170.94V167.328C166.824 166.656 166.916 166.084 167.1 165.612C167.284 165.14 167.588 164.78 168.012 164.532C168.436 164.276 169.012 164.148 169.74 164.148C170.476 164.148 171.056 164.276 171.48 164.532C171.912 164.78 172.22 165.14 172.404 165.612C172.588 166.084 172.68 166.656 172.68 167.328V170.94C172.68 171.604 172.588 172.176 172.404 172.656C172.22 173.136 171.912 173.504 171.48 173.76C171.056 174.016 170.476 174.144 169.74 174.144ZM169.74 172.62C169.964 172.62 170.128 172.564 170.232 172.452C170.336 172.34 170.404 172.196 170.436 172.02C170.468 171.844 170.484 171.664 170.484 171.48V166.8C170.484 166.608 170.468 166.428 170.436 166.26C170.404 166.084 170.336 165.94 170.232 165.828C170.128 165.716 169.964 165.66 169.74 165.66C169.532 165.66 169.376 165.716 169.272 165.828C169.168 165.94 169.1 166.084 169.068 166.26C169.036 166.428 169.02 166.608 169.02 166.8V171.48C169.02 171.664 169.032 171.844 169.056 172.02C169.088 172.196 169.152 172.34 169.248 172.452C169.352 172.564 169.516 172.62 169.74 172.62ZM179.842 174.144C179.114 174.144 178.538 174.016 178.114 173.76C177.69 173.504 177.386 173.136 177.202 172.656C177.018 172.176 176.926 171.604 176.926 170.94V167.328C176.926 166.656 177.018 166.084 177.202 165.612C177.386 165.14 177.69 164.78 178.114 164.532C178.538 164.276 179.114 164.148 179.842 164.148C180.578 164.148 181.158 164.276 181.582 164.532C182.014 164.78 182.322 165.14 182.506 165.612C182.69 166.084 182.782 166.656 182.782 167.328V170.94C182.782 171.604 182.69 172.176 182.506 172.656C182.322 173.136 182.014 173.504 181.582 173.76C181.158 174.016 180.578 174.144 179.842 174.144ZM179.842 172.62C180.066 172.62 180.23 172.564 180.334 172.452C180.438 172.34 180.506 172.196 180.538 172.02C180.57 171.844 180.586 171.664 180.586 171.48V166.8C180.586 166.608 180.57 166.428 180.538 166.26C180.506 166.084 180.438 165.94 180.334 165.828C180.23 165.716 180.066 165.66 179.842 165.66C179.634 165.66 179.478 165.716 179.374 165.828C179.27 165.94 179.202 166.084 179.17 166.26C179.138 166.428 179.122 166.608 179.122 166.8V171.48C179.122 171.664 179.134 171.844 179.158 172.02C179.19 172.196 179.254 172.34 179.35 172.452C179.454 172.564 179.618 172.62 179.842 172.62ZM184.089 174V164.28H188.289V165.732H186.237V168.18H188.025V169.68H186.237V174H184.089ZM189.292 174V164.28H193.492V165.732H191.44V168.18H193.228V169.68H191.44V174H189.292ZM194.495 174V164.28H198.863V165.744H196.643V168.156H198.335V169.644H196.643V172.548H198.887V174H194.495ZM199.863 174V164.28H202.539C203.195 164.28 203.763 164.352 204.243 164.496C204.723 164.64 205.095 164.9 205.359 165.276C205.631 165.644 205.767 166.168 205.767 166.848C205.767 167.248 205.735 167.604 205.671 167.916C205.607 168.228 205.487 168.5 205.311 168.732C205.143 168.956 204.899 169.144 204.579 169.296L205.911 174H203.691L202.623 169.644H202.011V174H199.863ZM202.011 168.408H202.611C202.915 168.408 203.151 168.356 203.319 168.252C203.487 168.14 203.603 167.984 203.667 167.784C203.739 167.576 203.775 167.328 203.775 167.04C203.775 166.624 203.699 166.3 203.547 166.068C203.395 165.836 203.115 165.72 202.707 165.72H202.011V168.408ZM209.66 174L211.496 164.28H213.944L215.756 174H213.776L213.452 171.948H212.024L211.688 174H209.66ZM212.216 170.664H213.248L212.732 166.872L212.216 170.664ZM219.808 174V164.28H222.268C223.116 164.28 223.776 164.388 224.248 164.604C224.72 164.812 225.052 165.144 225.244 165.6C225.436 166.048 225.532 166.632 225.532 167.352V170.88C225.532 171.608 225.436 172.204 225.244 172.668C225.052 173.124 224.72 173.46 224.248 173.676C223.784 173.892 223.132 174 222.292 174H219.808ZM221.956 172.512H222.292C222.62 172.512 222.856 172.464 223 172.368C223.144 172.272 223.232 172.128 223.264 171.936C223.304 171.744 223.324 171.504 223.324 171.216V166.98C223.324 166.692 223.3 166.46 223.252 166.284C223.212 166.108 223.12 165.98 222.976 165.9C222.832 165.82 222.6 165.78 222.28 165.78H221.956V172.512ZM226.839 174V164.28H229.515C230.171 164.28 230.739 164.352 231.219 164.496C231.699 164.64 232.071 164.9 232.335 165.276C232.607 165.644 232.743 166.168 232.743 166.848C232.743 167.248 232.711 167.604 232.647 167.916C232.583 168.228 232.463 168.5 232.287 168.732C232.119 168.956 231.875 169.144 231.555 169.296L232.887 174H230.667L229.599 169.644H228.987V174H226.839ZM228.987 168.408H229.587C229.891 168.408 230.127 168.356 230.295 168.252C230.463 168.14 230.579 167.984 230.643 167.784C230.715 167.576 230.751 167.328 230.751 167.04C230.751 166.624 230.675 166.3 230.523 166.068C230.371 165.836 230.091 165.72 229.683 165.72H228.987V168.408ZM233.566 174L235.402 164.28H237.85L239.662 174H237.682L237.358 171.948H235.93L235.594 174H233.566ZM236.122 170.664H237.154L236.638 166.872L236.122 170.664ZM241.213 174L240.037 164.28H241.861L242.437 169.944L243.169 164.292H244.597L245.365 169.908L245.953 164.28H247.753L246.589 174H244.717L243.889 168.132L243.109 174H241.213ZM249.628 171.444V169.896C249.988 169.616 250.312 169.304 250.6 168.96C250.888 168.616 251.116 168.252 251.284 167.868C251.452 167.476 251.536 167.072 251.536 166.656C251.536 166.36 251.48 166.148 251.368 166.02C251.264 165.884 251.108 165.816 250.9 165.816C250.708 165.816 250.556 165.872 250.444 165.984C250.34 166.096 250.288 166.252 250.288 166.452C250.288 166.58 250.3 166.696 250.324 166.8C250.356 166.896 250.392 167 250.432 167.112L248.668 167.52C248.604 167.328 248.552 167.144 248.512 166.968C248.48 166.784 248.464 166.592 248.464 166.392C248.464 165.688 248.676 165.14 249.1 164.748C249.532 164.348 250.148 164.148 250.948 164.148C251.756 164.148 252.376 164.36 252.808 164.784C253.248 165.208 253.468 165.812 253.468 166.596C253.468 167.076 253.388 167.532 253.228 167.964C253.068 168.396 252.832 168.804 252.52 169.188C252.216 169.572 251.844 169.932 251.404 170.268V171.444H249.628ZM249.568 174V172.14H251.476V174H249.568Z"></path>
</svg>
