<svg xmlns="http://www.w3.org/2000/svg" fill="none" viewBox="0 0 480 360" height="360" width="480">
<rect fill="white" height="360" width="480"></rect>
<rect fill="#0D0E12" height="30" width="480"></rect>
<mask height="38" width="38" y="40" x="132" maskUnits="userSpaceOnUse" style="mask-type:alpha" id="mask0_135_85">
<rect fill="#ECECEC" height="38" width="38" y="40" x="132"></rect>
</mask>
<g mask="url(#mask0_135_85)">
<rect fill="#D0D0D0" transform="rotate(45 151.184 20)" height="55.7253" width="1" y="20" x="151.184"></rect>
<rect fill="#D0D0D0" transform="rotate(45 168.154 36.9706)" height="55.7253" width="1" y="36.9706" x="168.154"></rect>
<rect fill="#D0D0D0" transform="rotate(45 159.669 28.4852)" height="55.7253" width="1" y="28.4852" x="159.669"></rect>
<rect fill="#D0D0D0" transform="rotate(45 176.64 45.4558)" height="55.7253" width="1" y="45.4558" x="176.64"></rect>
<rect fill="#D0D0D0" transform="rotate(45 155.426 24.2427)" height="55.7253" width="1" y="24.2427" x="155.426"></rect>
<rect fill="#D0D0D0" transform="rotate(45 172.397 41.2133)" height="55.7253" width="1" y="41.2133" x="172.397"></rect>
<rect fill="#D0D0D0" transform="rotate(45 163.912 32.7279)" height="55.7253" width="1" y="32.7279" x="163.912"></rect>
<rect fill="#D0D0D0" transform="rotate(45 180.882 49.6985)" height="55.7253" width="1" y="49.6985" x="180.882"></rect>
<rect fill="#D0D0D0" transform="rotate(45 153.305 22.1213)" height="55.7253" width="1" y="22.1213" x="153.305"></rect>
<rect fill="#D0D0D0" transform="rotate(45 170.276 39.0919)" height="55.7253" width="1" y="39.0919" x="170.276"></rect>
<rect fill="#D0D0D0" transform="rotate(45 161.79 30.6066)" height="55.7253" width="1" y="30.6066" x="161.79"></rect>
<rect fill="#D0D0D0" transform="rotate(45 178.761 47.5771)" height="55.7253" width="1" y="47.5771" x="178.761"></rect>
<rect fill="#D0D0D0" transform="rotate(45 157.548 26.364)" height="55.7253" width="1" y="26.364" x="157.548"></rect>
<rect fill="#D0D0D0" transform="rotate(45 174.518 43.3345)" height="55.7253" width="1" y="43.3345" x="174.518"></rect>
<rect fill="#D0D0D0" transform="rotate(45 166.033 34.8492)" height="55.7253" width="1" y="34.8492" x="166.033"></rect>
<rect fill="#D0D0D0" transform="rotate(45 183.004 51.8198)" height="55.7253" width="1" y="51.8198" x="183.004"></rect>
<rect fill="#D0D0D0" transform="rotate(45 185.125 53.9412)" height="55.7253" width="1" y="53.9412" x="185.125"></rect>
<rect fill="#D0D0D0" transform="rotate(45 187.246 56.0625)" height="55.7253" width="1" y="56.0625" x="187.246"></rect>
<rect fill="#D0D0D0" transform="rotate(45 189.368 58.1837)" height="55.7253" width="1" y="58.1837" x="189.368"></rect>
</g>
<mask height="38" width="38" y="116" x="132" maskUnits="userSpaceOnUse" style="mask-type:alpha" id="mask1_135_85">
<rect fill="#ECECEC" height="38" width="38" y="116" x="132"></rect>
</mask>
<g mask="url(#mask1_135_85)">
<rect fill="#D0D0D0" transform="rotate(45 151.184 96)" height="55.7253" width="1" y="96" x="151.184"></rect>
<rect fill="#D0D0D0" transform="rotate(45 168.154 112.971)" height="55.7253" width="1" y="112.971" x="168.154"></rect>
<rect fill="#D0D0D0" transform="rotate(45 159.669 104.485)" height="55.7253" width="1" y="104.485" x="159.669"></rect>
<rect fill="#D0D0D0" transform="rotate(45 176.64 121.456)" height="55.7253" width="1" y="121.456" x="176.64"></rect>
<rect fill="#D0D0D0" transform="rotate(45 155.426 100.243)" height="55.7253" width="1" y="100.243" x="155.426"></rect>
<rect fill="#D0D0D0" transform="rotate(45 172.397 117.213)" height="55.7253" width="1" y="117.213" x="172.397"></rect>
<rect fill="#D0D0D0" transform="rotate(45 163.912 108.728)" height="55.7253" width="1" y="108.728" x="163.912"></rect>
<rect fill="#D0D0D0" transform="rotate(45 180.882 125.698)" height="55.7253" width="1" y="125.698" x="180.882"></rect>
<rect fill="#D0D0D0" transform="rotate(45 153.305 98.1213)" height="55.7253" width="1" y="98.1213" x="153.305"></rect>
<rect fill="#D0D0D0" transform="rotate(45 170.276 115.092)" height="55.7253" width="1" y="115.092" x="170.276"></rect>
<rect fill="#D0D0D0" transform="rotate(45 161.79 106.607)" height="55.7253" width="1" y="106.607" x="161.79"></rect>
<rect fill="#D0D0D0" transform="rotate(45 178.761 123.577)" height="55.7253" width="1" y="123.577" x="178.761"></rect>
<rect fill="#D0D0D0" transform="rotate(45 157.548 102.364)" height="55.7253" width="1" y="102.364" x="157.548"></rect>
<rect fill="#D0D0D0" transform="rotate(45 174.518 119.334)" height="55.7253" width="1" y="119.334" x="174.518"></rect>
<rect fill="#D0D0D0" transform="rotate(45 166.033 110.849)" height="55.7253" width="1" y="110.849" x="166.033"></rect>
<rect fill="#D0D0D0" transform="rotate(45 183.004 127.82)" height="55.7253" width="1" y="127.82" x="183.004"></rect>
<rect fill="#D0D0D0" transform="rotate(45 185.125 129.941)" height="55.7253" width="1" y="129.941" x="185.125"></rect>
<rect fill="#D0D0D0" transform="rotate(45 187.246 132.062)" height="55.7253" width="1" y="132.062" x="187.246"></rect>
<rect fill="#D0D0D0" transform="rotate(45 189.368 134.184)" height="55.7253" width="1" y="134.184" x="189.368"></rect>
</g>
<mask height="38" width="38" y="192" x="132" maskUnits="userSpaceOnUse" style="mask-type:alpha" id="mask2_135_85">
<rect fill="#ECECEC" height="38" width="38" y="192" x="132"></rect>
</mask>
<g mask="url(#mask2_135_85)">
<rect fill="#D0D0D0" transform="rotate(45 151.184 172)" height="55.7253" width="1" y="172" x="151.184"></rect>
<rect fill="#D0D0D0" transform="rotate(45 168.154 188.971)" height="55.7253" width="1" y="188.971" x="168.154"></rect>
<rect fill="#D0D0D0" transform="rotate(45 159.669 180.485)" height="55.7253" width="1" y="180.485" x="159.669"></rect>
<rect fill="#D0D0D0" transform="rotate(45 176.64 197.456)" height="55.7253" width="1" y="197.456" x="176.64"></rect>
<rect fill="#D0D0D0" transform="rotate(45 155.426 176.243)" height="55.7253" width="1" y="176.243" x="155.426"></rect>
<rect fill="#D0D0D0" transform="rotate(45 172.397 193.213)" height="55.7253" width="1" y="193.213" x="172.397"></rect>
<rect fill="#D0D0D0" transform="rotate(45 163.912 184.728)" height="55.7253" width="1" y="184.728" x="163.912"></rect>
<rect fill="#D0D0D0" transform="rotate(45 180.882 201.698)" height="55.7253" width="1" y="201.698" x="180.882"></rect>
<rect fill="#D0D0D0" transform="rotate(45 153.305 174.121)" height="55.7253" width="1" y="174.121" x="153.305"></rect>
<rect fill="#D0D0D0" transform="rotate(45 170.276 191.092)" height="55.7253" width="1" y="191.092" x="170.276"></rect>
<rect fill="#D0D0D0" transform="rotate(45 161.79 182.607)" height="55.7253" width="1" y="182.607" x="161.79"></rect>
<rect fill="#D0D0D0" transform="rotate(45 178.761 199.577)" height="55.7253" width="1" y="199.577" x="178.761"></rect>
<rect fill="#D0D0D0" transform="rotate(45 157.548 178.364)" height="55.7253" width="1" y="178.364" x="157.548"></rect>
<rect fill="#D0D0D0" transform="rotate(45 174.518 195.334)" height="55.7253" width="1" y="195.334" x="174.518"></rect>
<rect fill="#D0D0D0" transform="rotate(45 166.033 186.849)" height="55.7253" width="1" y="186.849" x="166.033"></rect>
<rect fill="#D0D0D0" transform="rotate(45 183.004 203.82)" height="55.7253" width="1" y="203.82" x="183.004"></rect>
<rect fill="#D0D0D0" transform="rotate(45 185.125 205.941)" height="55.7253" width="1" y="205.941" x="185.125"></rect>
<rect fill="#D0D0D0" transform="rotate(45 187.246 208.062)" height="55.7253" width="1" y="208.062" x="187.246"></rect>
<rect fill="#D0D0D0" transform="rotate(45 189.368 210.184)" height="55.7253" width="1" y="210.184" x="189.368"></rect>
</g>
<mask height="38" width="38" y="268" x="132" maskUnits="userSpaceOnUse" style="mask-type:alpha" id="mask3_135_85">
<rect fill="#ECECEC" height="38" width="38" y="268" x="132"></rect>
</mask>
<g mask="url(#mask3_135_85)">
<rect fill="#D0D0D0" transform="rotate(45 151.184 248)" height="55.7253" width="1" y="248" x="151.184"></rect>
<rect fill="#D0D0D0" transform="rotate(45 168.154 264.971)" height="55.7253" width="1" y="264.971" x="168.154"></rect>
<rect fill="#D0D0D0" transform="rotate(45 159.669 256.485)" height="55.7253" width="1" y="256.485" x="159.669"></rect>
<rect fill="#D0D0D0" transform="rotate(45 176.64 273.456)" height="55.7253" width="1" y="273.456" x="176.64"></rect>
<rect fill="#D0D0D0" transform="rotate(45 155.426 252.243)" height="55.7253" width="1" y="252.243" x="155.426"></rect>
<rect fill="#D0D0D0" transform="rotate(45 172.397 269.213)" height="55.7253" width="1" y="269.213" x="172.397"></rect>
<rect fill="#D0D0D0" transform="rotate(45 163.912 260.728)" height="55.7253" width="1" y="260.728" x="163.912"></rect>
<rect fill="#D0D0D0" transform="rotate(45 180.882 277.698)" height="55.7253" width="1" y="277.698" x="180.882"></rect>
<rect fill="#D0D0D0" transform="rotate(45 153.305 250.121)" height="55.7253" width="1" y="250.121" x="153.305"></rect>
<rect fill="#D0D0D0" transform="rotate(45 170.276 267.092)" height="55.7253" width="1" y="267.092" x="170.276"></rect>
<rect fill="#D0D0D0" transform="rotate(45 161.79 258.607)" height="55.7253" width="1" y="258.607" x="161.79"></rect>
<rect fill="#D0D0D0" transform="rotate(45 178.761 275.577)" height="55.7253" width="1" y="275.577" x="178.761"></rect>
<rect fill="#D0D0D0" transform="rotate(45 157.548 254.364)" height="55.7253" width="1" y="254.364" x="157.548"></rect>
<rect fill="#D0D0D0" transform="rotate(45 174.518 271.334)" height="55.7253" width="1" y="271.334" x="174.518"></rect>
<rect fill="#D0D0D0" transform="rotate(45 166.033 262.849)" height="55.7253" width="1" y="262.849" x="166.033"></rect>
<rect fill="#D0D0D0" transform="rotate(45 183.004 279.82)" height="55.7253" width="1" y="279.82" x="183.004"></rect>
<rect fill="#D0D0D0" transform="rotate(45 185.125 281.941)" height="55.7253" width="1" y="281.941" x="185.125"></rect>
<rect fill="#D0D0D0" transform="rotate(45 187.246 284.062)" height="55.7253" width="1" y="284.062" x="187.246"></rect>
<rect fill="#D0D0D0" transform="rotate(45 189.368 286.184)" height="55.7253" width="1" y="286.184" x="189.368"></rect>
</g>
<mask height="38" width="38" y="40" x="56" maskUnits="userSpaceOnUse" style="mask-type:alpha" id="mask4_135_85">
<rect fill="#ECECEC" height="38" width="38" y="40" x="56"></rect>
</mask>
<g mask="url(#mask4_135_85)">
<rect fill="#D0D0D0" transform="rotate(45 75.1838 20)" height="55.7253" width="1" y="20" x="75.1838"></rect>
<rect fill="#D0D0D0" transform="rotate(45 92.1543 36.9706)" height="55.7253" width="1" y="36.9706" x="92.1543"></rect>
<rect fill="#D0D0D0" transform="rotate(45 83.6691 28.4852)" height="55.7253" width="1" y="28.4852" x="83.6691"></rect>
<rect fill="#D0D0D0" transform="rotate(45 100.64 45.4558)" height="55.7253" width="1" y="45.4558" x="100.64"></rect>
<rect fill="#D0D0D0" transform="rotate(45 79.4264 24.2427)" height="55.7253" width="1" y="24.2427" x="79.4264"></rect>
<rect fill="#D0D0D0" transform="rotate(45 96.397 41.2133)" height="55.7253" width="1" y="41.2133" x="96.397"></rect>
<rect fill="#D0D0D0" transform="rotate(45 87.9117 32.7279)" height="55.7253" width="1" y="32.7279" x="87.9117"></rect>
<rect fill="#D0D0D0" transform="rotate(45 104.882 49.6985)" height="55.7253" width="1" y="49.6985" x="104.882"></rect>
<rect fill="#D0D0D0" transform="rotate(45 77.3051 22.1213)" height="55.7253" width="1" y="22.1213" x="77.3051"></rect>
<rect fill="#D0D0D0" transform="rotate(45 94.2757 39.0919)" height="55.7253" width="1" y="39.0919" x="94.2757"></rect>
<rect fill="#D0D0D0" transform="rotate(45 85.7904 30.6066)" height="55.7253" width="1" y="30.6066" x="85.7904"></rect>
<rect fill="#D0D0D0" transform="rotate(45 102.761 47.5771)" height="55.7253" width="1" y="47.5771" x="102.761"></rect>
<rect fill="#D0D0D0" transform="rotate(45 81.5477 26.364)" height="55.7253" width="1" y="26.364" x="81.5477"></rect>
<rect fill="#D0D0D0" transform="rotate(45 98.5183 43.3345)" height="55.7253" width="1" y="43.3345" x="98.5183"></rect>
<rect fill="#D0D0D0" transform="rotate(45 90.033 34.8492)" height="55.7253" width="1" y="34.8492" x="90.033"></rect>
<rect fill="#D0D0D0" transform="rotate(45 107.004 51.8198)" height="55.7253" width="1" y="51.8198" x="107.004"></rect>
<rect fill="#D0D0D0" transform="rotate(45 109.125 53.9412)" height="55.7253" width="1" y="53.9412" x="109.125"></rect>
<rect fill="#D0D0D0" transform="rotate(45 111.246 56.0625)" height="55.7253" width="1" y="56.0625" x="111.246"></rect>
<rect fill="#D0D0D0" transform="rotate(45 113.368 58.1837)" height="55.7253" width="1" y="58.1837" x="113.368"></rect>
</g>
<mask height="38" width="38" y="116" x="56" maskUnits="userSpaceOnUse" style="mask-type:alpha" id="mask5_135_85">
<rect fill="#ECECEC" height="38" width="38" y="116" x="56"></rect>
</mask>
<g mask="url(#mask5_135_85)">
<rect fill="#D0D0D0" transform="rotate(45 75.1838 96)" height="55.7253" width="1" y="96" x="75.1838"></rect>
<rect fill="#D0D0D0" transform="rotate(45 92.1543 112.971)" height="55.7253" width="1" y="112.971" x="92.1543"></rect>
<rect fill="#D0D0D0" transform="rotate(45 83.6691 104.485)" height="55.7253" width="1" y="104.485" x="83.6691"></rect>
<rect fill="#D0D0D0" transform="rotate(45 100.64 121.456)" height="55.7253" width="1" y="121.456" x="100.64"></rect>
<rect fill="#D0D0D0" transform="rotate(45 79.4264 100.243)" height="55.7253" width="1" y="100.243" x="79.4264"></rect>
<rect fill="#D0D0D0" transform="rotate(45 96.397 117.213)" height="55.7253" width="1" y="117.213" x="96.397"></rect>
<rect fill="#D0D0D0" transform="rotate(45 87.9117 108.728)" height="55.7253" width="1" y="108.728" x="87.9117"></rect>
<rect fill="#D0D0D0" transform="rotate(45 104.882 125.698)" height="55.7253" width="1" y="125.698" x="104.882"></rect>
<rect fill="#D0D0D0" transform="rotate(45 77.3051 98.1213)" height="55.7253" width="1" y="98.1213" x="77.3051"></rect>
<rect fill="#D0D0D0" transform="rotate(45 94.2757 115.092)" height="55.7253" width="1" y="115.092" x="94.2757"></rect>
<rect fill="#D0D0D0" transform="rotate(45 85.7904 106.607)" height="55.7253" width="1" y="106.607" x="85.7904"></rect>
<rect fill="#D0D0D0" transform="rotate(45 102.761 123.577)" height="55.7253" width="1" y="123.577" x="102.761"></rect>
<rect fill="#D0D0D0" transform="rotate(45 81.5477 102.364)" height="55.7253" width="1" y="102.364" x="81.5477"></rect>
<rect fill="#D0D0D0" transform="rotate(45 98.5183 119.334)" height="55.7253" width="1" y="119.334" x="98.5183"></rect>
<rect fill="#D0D0D0" transform="rotate(45 90.033 110.849)" height="55.7253" width="1" y="110.849" x="90.033"></rect>
<rect fill="#D0D0D0" transform="rotate(45 107.004 127.82)" height="55.7253" width="1" y="127.82" x="107.004"></rect>
<rect fill="#D0D0D0" transform="rotate(45 109.125 129.941)" height="55.7253" width="1" y="129.941" x="109.125"></rect>
<rect fill="#D0D0D0" transform="rotate(45 111.246 132.062)" height="55.7253" width="1" y="132.062" x="111.246"></rect>
<rect fill="#D0D0D0" transform="rotate(45 113.368 134.184)" height="55.7253" width="1" y="134.184" x="113.368"></rect>
</g>
<mask height="38" width="38" y="78" x="18" maskUnits="userSpaceOnUse" style="mask-type:alpha" id="mask6_135_85">
<rect fill="#ECECEC" height="38" width="38" y="78" x="18"></rect>
</mask>
<g mask="url(#mask6_135_85)">
<rect fill="#D0D0D0" transform="rotate(45 37.1838 58)" height="55.7253" width="1" y="58" x="37.1838"></rect>
<rect fill="#D0D0D0" transform="rotate(45 54.1543 74.9706)" height="55.7253" width="1" y="74.9706" x="54.1543"></rect>
<rect fill="#D0D0D0" transform="rotate(45 45.6691 66.4852)" height="55.7253" width="1" y="66.4852" x="45.6691"></rect>
<rect fill="#D0D0D0" transform="rotate(45 62.6396 83.4558)" height="55.7253" width="1" y="83.4558" x="62.6396"></rect>
<rect fill="#D0D0D0" transform="rotate(45 41.4264 62.2427)" height="55.7253" width="1" y="62.2427" x="41.4264"></rect>
<rect fill="#D0D0D0" transform="rotate(45 58.397 79.2133)" height="55.7253" width="1" y="79.2133" x="58.397"></rect>
<rect fill="#D0D0D0" transform="rotate(45 49.9117 70.7279)" height="55.7253" width="1" y="70.7279" x="49.9117"></rect>
<rect fill="#D0D0D0" transform="rotate(45 66.8823 87.6985)" height="55.7253" width="1" y="87.6985" x="66.8823"></rect>
<rect fill="#D0D0D0" transform="rotate(45 39.3051 60.1213)" height="55.7253" width="1" y="60.1213" x="39.3051"></rect>
<rect fill="#D0D0D0" transform="rotate(45 56.2757 77.0919)" height="55.7253" width="1" y="77.0919" x="56.2757"></rect>
<rect fill="#D0D0D0" transform="rotate(45 47.7904 68.6066)" height="55.7253" width="1" y="68.6066" x="47.7904"></rect>
<rect fill="#D0D0D0" transform="rotate(45 64.761 85.5771)" height="55.7253" width="1" y="85.5771" x="64.761"></rect>
<rect fill="#D0D0D0" transform="rotate(45 43.5477 64.364)" height="55.7253" width="1" y="64.364" x="43.5477"></rect>
<rect fill="#D0D0D0" transform="rotate(45 60.5183 81.3345)" height="55.7253" width="1" y="81.3345" x="60.5183"></rect>
<rect fill="#D0D0D0" transform="rotate(45 52.033 72.8492)" height="55.7253" width="1" y="72.8492" x="52.033"></rect>
<rect fill="#D0D0D0" transform="rotate(45 69.0036 89.8198)" height="55.7253" width="1" y="89.8198" x="69.0036"></rect>
<rect fill="#D0D0D0" transform="rotate(45 71.1249 91.9412)" height="55.7253" width="1" y="91.9412" x="71.1249"></rect>
<rect fill="#D0D0D0" transform="rotate(45 73.2462 94.0625)" height="55.7253" width="1" y="94.0625" x="73.2462"></rect>
<rect fill="#D0D0D0" transform="rotate(45 75.3676 96.1837)" height="55.7253" width="1" y="96.1837" x="75.3676"></rect>
</g>
<mask height="38" width="38" y="192" x="56" maskUnits="userSpaceOnUse" style="mask-type:alpha" id="mask7_135_85">
<rect fill="#ECECEC" height="38" width="38" y="192" x="56"></rect>
</mask>
<g mask="url(#mask7_135_85)">
<rect fill="#D0D0D0" transform="rotate(45 75.1838 172)" height="55.7253" width="1" y="172" x="75.1838"></rect>
<rect fill="#D0D0D0" transform="rotate(45 92.1543 188.971)" height="55.7253" width="1" y="188.971" x="92.1543"></rect>
<rect fill="#D0D0D0" transform="rotate(45 83.6691 180.485)" height="55.7253" width="1" y="180.485" x="83.6691"></rect>
<rect fill="#D0D0D0" transform="rotate(45 100.64 197.456)" height="55.7253" width="1" y="197.456" x="100.64"></rect>
<rect fill="#D0D0D0" transform="rotate(45 79.4264 176.243)" height="55.7253" width="1" y="176.243" x="79.4264"></rect>
<rect fill="#D0D0D0" transform="rotate(45 96.397 193.213)" height="55.7253" width="1" y="193.213" x="96.397"></rect>
<rect fill="#D0D0D0" transform="rotate(45 87.9117 184.728)" height="55.7253" width="1" y="184.728" x="87.9117"></rect>
<rect fill="#D0D0D0" transform="rotate(45 104.882 201.698)" height="55.7253" width="1" y="201.698" x="104.882"></rect>
<rect fill="#D0D0D0" transform="rotate(45 77.3051 174.121)" height="55.7253" width="1" y="174.121" x="77.3051"></rect>
<rect fill="#D0D0D0" transform="rotate(45 94.2757 191.092)" height="55.7253" width="1" y="191.092" x="94.2757"></rect>
<rect fill="#D0D0D0" transform="rotate(45 85.7904 182.607)" height="55.7253" width="1" y="182.607" x="85.7904"></rect>
<rect fill="#D0D0D0" transform="rotate(45 102.761 199.577)" height="55.7253" width="1" y="199.577" x="102.761"></rect>
<rect fill="#D0D0D0" transform="rotate(45 81.5477 178.364)" height="55.7253" width="1" y="178.364" x="81.5477"></rect>
<rect fill="#D0D0D0" transform="rotate(45 98.5183 195.334)" height="55.7253" width="1" y="195.334" x="98.5183"></rect>
<rect fill="#D0D0D0" transform="rotate(45 90.033 186.849)" height="55.7253" width="1" y="186.849" x="90.033"></rect>
<rect fill="#D0D0D0" transform="rotate(45 107.004 203.82)" height="55.7253" width="1" y="203.82" x="107.004"></rect>
<rect fill="#D0D0D0" transform="rotate(45 109.125 205.941)" height="55.7253" width="1" y="205.941" x="109.125"></rect>
<rect fill="#D0D0D0" transform="rotate(45 111.246 208.062)" height="55.7253" width="1" y="208.062" x="111.246"></rect>
<rect fill="#D0D0D0" transform="rotate(45 113.368 210.184)" height="55.7253" width="1" y="210.184" x="113.368"></rect>
</g>
<mask height="38" width="38" y="268" x="56" maskUnits="userSpaceOnUse" style="mask-type:alpha" id="mask8_135_85">
<rect fill="#ECECEC" height="38" width="38" y="268" x="56"></rect>
</mask>
<g mask="url(#mask8_135_85)">
<rect fill="#D0D0D0" transform="rotate(45 75.1838 248)" height="55.7253" width="1" y="248" x="75.1838"></rect>
<rect fill="#D0D0D0" transform="rotate(45 92.1543 264.971)" height="55.7253" width="1" y="264.971" x="92.1543"></rect>
<rect fill="#D0D0D0" transform="rotate(45 83.6691 256.485)" height="55.7253" width="1" y="256.485" x="83.6691"></rect>
<rect fill="#D0D0D0" transform="rotate(45 100.64 273.456)" height="55.7253" width="1" y="273.456" x="100.64"></rect>
<rect fill="#D0D0D0" transform="rotate(45 79.4264 252.243)" height="55.7253" width="1" y="252.243" x="79.4264"></rect>
<rect fill="#D0D0D0" transform="rotate(45 96.397 269.213)" height="55.7253" width="1" y="269.213" x="96.397"></rect>
<rect fill="#D0D0D0" transform="rotate(45 87.9117 260.728)" height="55.7253" width="1" y="260.728" x="87.9117"></rect>
<rect fill="#D0D0D0" transform="rotate(45 104.882 277.698)" height="55.7253" width="1" y="277.698" x="104.882"></rect>
<rect fill="#D0D0D0" transform="rotate(45 77.3051 250.121)" height="55.7253" width="1" y="250.121" x="77.3051"></rect>
<rect fill="#D0D0D0" transform="rotate(45 94.2757 267.092)" height="55.7253" width="1" y="267.092" x="94.2757"></rect>
<rect fill="#D0D0D0" transform="rotate(45 85.7904 258.607)" height="55.7253" width="1" y="258.607" x="85.7904"></rect>
<rect fill="#D0D0D0" transform="rotate(45 102.761 275.577)" height="55.7253" width="1" y="275.577" x="102.761"></rect>
<rect fill="#D0D0D0" transform="rotate(45 81.5477 254.364)" height="55.7253" width="1" y="254.364" x="81.5477"></rect>
<rect fill="#D0D0D0" transform="rotate(45 98.5183 271.334)" height="55.7253" width="1" y="271.334" x="98.5183"></rect>
<rect fill="#D0D0D0" transform="rotate(45 90.033 262.849)" height="55.7253" width="1" y="262.849" x="90.033"></rect>
<rect fill="#D0D0D0" transform="rotate(45 107.004 279.82)" height="55.7253" width="1" y="279.82" x="107.004"></rect>
<rect fill="#D0D0D0" transform="rotate(45 109.125 281.941)" height="55.7253" width="1" y="281.941" x="109.125"></rect>
<rect fill="#D0D0D0" transform="rotate(45 111.246 284.062)" height="55.7253" width="1" y="284.062" x="111.246"></rect>
<rect fill="#D0D0D0" transform="rotate(45 113.368 286.184)" height="55.7253" width="1" y="286.184" x="113.368"></rect>
</g>
<mask height="38" width="38" y="154" x="18" maskUnits="userSpaceOnUse" style="mask-type:alpha" id="mask9_135_85">
<rect fill="#ECECEC" height="38" width="38" y="154" x="18"></rect>
</mask>
<g mask="url(#mask9_135_85)">
<rect fill="#D0D0D0" transform="rotate(45 37.1838 134)" height="55.7253" width="1" y="134" x="37.1838"></rect>
<rect fill="#D0D0D0" transform="rotate(45 54.1543 150.971)" height="55.7253" width="1" y="150.971" x="54.1543"></rect>
<rect fill="#D0D0D0" transform="rotate(45 45.6691 142.485)" height="55.7253" width="1" y="142.485" x="45.6691"></rect>
<rect fill="#D0D0D0" transform="rotate(45 62.6396 159.456)" height="55.7253" width="1" y="159.456" x="62.6396"></rect>
<rect fill="#D0D0D0" transform="rotate(45 41.4264 138.243)" height="55.7253" width="1" y="138.243" x="41.4264"></rect>
<rect fill="#D0D0D0" transform="rotate(45 58.397 155.213)" height="55.7253" width="1" y="155.213" x="58.397"></rect>
<rect fill="#D0D0D0" transform="rotate(45 49.9117 146.728)" height="55.7253" width="1" y="146.728" x="49.9117"></rect>
<rect fill="#D0D0D0" transform="rotate(45 66.8823 163.698)" height="55.7253" width="1" y="163.698" x="66.8823"></rect>
<rect fill="#D0D0D0" transform="rotate(45 39.3051 136.121)" height="55.7253" width="1" y="136.121" x="39.3051"></rect>
<rect fill="#D0D0D0" transform="rotate(45 56.2757 153.092)" height="55.7253" width="1" y="153.092" x="56.2757"></rect>
<rect fill="#D0D0D0" transform="rotate(45 47.7904 144.607)" height="55.7253" width="1" y="144.607" x="47.7904"></rect>
<rect fill="#D0D0D0" transform="rotate(45 64.761 161.577)" height="55.7253" width="1" y="161.577" x="64.761"></rect>
<rect fill="#D0D0D0" transform="rotate(45 43.5477 140.364)" height="55.7253" width="1" y="140.364" x="43.5477"></rect>
<rect fill="#D0D0D0" transform="rotate(45 60.5183 157.334)" height="55.7253" width="1" y="157.334" x="60.5183"></rect>
<rect fill="#D0D0D0" transform="rotate(45 52.033 148.849)" height="55.7253" width="1" y="148.849" x="52.033"></rect>
<rect fill="#D0D0D0" transform="rotate(45 69.0036 165.82)" height="55.7253" width="1" y="165.82" x="69.0036"></rect>
<rect fill="#D0D0D0" transform="rotate(45 71.1249 167.941)" height="55.7253" width="1" y="167.941" x="71.1249"></rect>
<rect fill="#D0D0D0" transform="rotate(45 73.2462 170.062)" height="55.7253" width="1" y="170.062" x="73.2462"></rect>
<rect fill="#D0D0D0" transform="rotate(45 75.3676 172.184)" height="55.7253" width="1" y="172.184" x="75.3676"></rect>
</g>
<mask height="38" width="38" y="230" x="18" maskUnits="userSpaceOnUse" style="mask-type:alpha" id="mask10_135_85">
<rect fill="#ECECEC" height="38" width="38" y="230" x="18"></rect>
</mask>
<g mask="url(#mask10_135_85)">
<rect fill="#D0D0D0" transform="rotate(45 37.1838 210)" height="55.7253" width="1" y="210" x="37.1838"></rect>
<rect fill="#D0D0D0" transform="rotate(45 54.1543 226.971)" height="55.7253" width="1" y="226.971" x="54.1543"></rect>
<rect fill="#D0D0D0" transform="rotate(45 45.6691 218.485)" height="55.7253" width="1" y="218.485" x="45.6691"></rect>
<rect fill="#D0D0D0" transform="rotate(45 62.6396 235.456)" height="55.7253" width="1" y="235.456" x="62.6396"></rect>
<rect fill="#D0D0D0" transform="rotate(45 41.4264 214.243)" height="55.7253" width="1" y="214.243" x="41.4264"></rect>
<rect fill="#D0D0D0" transform="rotate(45 58.397 231.213)" height="55.7253" width="1" y="231.213" x="58.397"></rect>
<rect fill="#D0D0D0" transform="rotate(45 49.9117 222.728)" height="55.7253" width="1" y="222.728" x="49.9117"></rect>
<rect fill="#D0D0D0" transform="rotate(45 66.8823 239.698)" height="55.7253" width="1" y="239.698" x="66.8823"></rect>
<rect fill="#D0D0D0" transform="rotate(45 39.3051 212.121)" height="55.7253" width="1" y="212.121" x="39.3051"></rect>
<rect fill="#D0D0D0" transform="rotate(45 56.2757 229.092)" height="55.7253" width="1" y="229.092" x="56.2757"></rect>
<rect fill="#D0D0D0" transform="rotate(45 47.7904 220.607)" height="55.7253" width="1" y="220.607" x="47.7904"></rect>
<rect fill="#D0D0D0" transform="rotate(45 64.761 237.577)" height="55.7253" width="1" y="237.577" x="64.761"></rect>
<rect fill="#D0D0D0" transform="rotate(45 43.5477 216.364)" height="55.7253" width="1" y="216.364" x="43.5477"></rect>
<rect fill="#D0D0D0" transform="rotate(45 60.5183 233.334)" height="55.7253" width="1" y="233.334" x="60.5183"></rect>
<rect fill="#D0D0D0" transform="rotate(45 52.033 224.849)" height="55.7253" width="1" y="224.849" x="52.033"></rect>
<rect fill="#D0D0D0" transform="rotate(45 69.0036 241.82)" height="55.7253" width="1" y="241.82" x="69.0036"></rect>
<rect fill="#D0D0D0" transform="rotate(45 71.1249 243.941)" height="55.7253" width="1" y="243.941" x="71.1249"></rect>
<rect fill="#D0D0D0" transform="rotate(45 73.2462 246.062)" height="55.7253" width="1" y="246.062" x="73.2462"></rect>
<rect fill="#D0D0D0" transform="rotate(45 75.3676 248.184)" height="55.7253" width="1" y="248.184" x="75.3676"></rect>
</g>
<mask height="38" width="38" y="306" x="18" maskUnits="userSpaceOnUse" style="mask-type:alpha" id="mask11_135_85">
<rect fill="#ECECEC" height="38" width="38" y="306" x="18"></rect>
</mask>
<g mask="url(#mask11_135_85)">
<rect fill="#D0D0D0" transform="rotate(45 37.1838 286)" height="55.7253" width="1" y="286" x="37.1838"></rect>
<rect fill="#D0D0D0" transform="rotate(45 54.1543 302.971)" height="55.7253" width="1" y="302.971" x="54.1543"></rect>
<rect fill="#D0D0D0" transform="rotate(45 45.6691 294.485)" height="55.7253" width="1" y="294.485" x="45.6691"></rect>
<rect fill="#D0D0D0" transform="rotate(45 62.6396 311.456)" height="55.7253" width="1" y="311.456" x="62.6396"></rect>
<rect fill="#D0D0D0" transform="rotate(45 41.4264 290.243)" height="55.7253" width="1" y="290.243" x="41.4264"></rect>
<rect fill="#D0D0D0" transform="rotate(45 58.397 307.213)" height="55.7253" width="1" y="307.213" x="58.397"></rect>
<rect fill="#D0D0D0" transform="rotate(45 49.9117 298.728)" height="55.7253" width="1" y="298.728" x="49.9117"></rect>
<rect fill="#D0D0D0" transform="rotate(45 66.8823 315.698)" height="55.7253" width="1" y="315.698" x="66.8823"></rect>
<rect fill="#D0D0D0" transform="rotate(45 39.3051 288.121)" height="55.7253" width="1" y="288.121" x="39.3051"></rect>
<rect fill="#D0D0D0" transform="rotate(45 56.2757 305.092)" height="55.7253" width="1" y="305.092" x="56.2757"></rect>
<rect fill="#D0D0D0" transform="rotate(45 47.7904 296.607)" height="55.7253" width="1" y="296.607" x="47.7904"></rect>
<rect fill="#D0D0D0" transform="rotate(45 64.761 313.577)" height="55.7253" width="1" y="313.577" x="64.761"></rect>
<rect fill="#D0D0D0" transform="rotate(45 43.5477 292.364)" height="55.7253" width="1" y="292.364" x="43.5477"></rect>
<rect fill="#D0D0D0" transform="rotate(45 60.5183 309.334)" height="55.7253" width="1" y="309.334" x="60.5183"></rect>
<rect fill="#D0D0D0" transform="rotate(45 52.033 300.849)" height="55.7253" width="1" y="300.849" x="52.033"></rect>
<rect fill="#D0D0D0" transform="rotate(45 69.0036 317.82)" height="55.7253" width="1" y="317.82" x="69.0036"></rect>
<rect fill="#D0D0D0" transform="rotate(45 71.1249 319.941)" height="55.7253" width="1" y="319.941" x="71.1249"></rect>
<rect fill="#D0D0D0" transform="rotate(45 73.2462 322.062)" height="55.7253" width="1" y="322.062" x="73.2462"></rect>
<rect fill="#D0D0D0" transform="rotate(45 75.3676 324.184)" height="55.7253" width="1" y="324.184" x="75.3676"></rect>
</g>
<mask height="38" width="38" y="78" x="170" maskUnits="userSpaceOnUse" style="mask-type:alpha" id="mask12_135_85">
<rect fill="#ECECEC" height="38" width="38" y="78" x="170"></rect>
</mask>
<g mask="url(#mask12_135_85)">
<rect fill="#D0D0D0" transform="rotate(45 189.184 58)" height="55.7253" width="1" y="58" x="189.184"></rect>
<rect fill="#D0D0D0" transform="rotate(45 206.154 74.9706)" height="55.7253" width="1" y="74.9706" x="206.154"></rect>
<rect fill="#D0D0D0" transform="rotate(45 197.669 66.4852)" height="55.7253" width="1" y="66.4852" x="197.669"></rect>
<rect fill="#D0D0D0" transform="rotate(45 214.64 83.4558)" height="55.7253" width="1" y="83.4558" x="214.64"></rect>
<rect fill="#D0D0D0" transform="rotate(45 193.426 62.2427)" height="55.7253" width="1" y="62.2427" x="193.426"></rect>
<rect fill="#D0D0D0" transform="rotate(45 210.397 79.2133)" height="55.7253" width="1" y="79.2133" x="210.397"></rect>
<rect fill="#D0D0D0" transform="rotate(45 201.912 70.7279)" height="55.7253" width="1" y="70.7279" x="201.912"></rect>
<rect fill="#D0D0D0" transform="rotate(45 218.882 87.6985)" height="55.7253" width="1" y="87.6985" x="218.882"></rect>
<rect fill="#D0D0D0" transform="rotate(45 191.305 60.1213)" height="55.7253" width="1" y="60.1213" x="191.305"></rect>
<rect fill="#D0D0D0" transform="rotate(45 208.276 77.0919)" height="55.7253" width="1" y="77.0919" x="208.276"></rect>
<rect fill="#D0D0D0" transform="rotate(45 199.79 68.6066)" height="55.7253" width="1" y="68.6066" x="199.79"></rect>
<rect fill="#D0D0D0" transform="rotate(45 216.761 85.5771)" height="55.7253" width="1" y="85.5771" x="216.761"></rect>
<rect fill="#D0D0D0" transform="rotate(45 195.548 64.364)" height="55.7253" width="1" y="64.364" x="195.548"></rect>
<rect fill="#D0D0D0" transform="rotate(45 212.518 81.3345)" height="55.7253" width="1" y="81.3345" x="212.518"></rect>
<rect fill="#D0D0D0" transform="rotate(45 204.033 72.8492)" height="55.7253" width="1" y="72.8492" x="204.033"></rect>
<rect fill="#D0D0D0" transform="rotate(45 221.004 89.8198)" height="55.7253" width="1" y="89.8198" x="221.004"></rect>
<rect fill="#D0D0D0" transform="rotate(45 223.125 91.9412)" height="55.7253" width="1" y="91.9412" x="223.125"></rect>
<rect fill="#D0D0D0" transform="rotate(45 225.246 94.0625)" height="55.7253" width="1" y="94.0625" x="225.246"></rect>
<rect fill="#D0D0D0" transform="rotate(45 227.368 96.1837)" height="55.7253" width="1" y="96.1837" x="227.368"></rect>
</g>
<mask height="38" width="38" y="154" x="170" maskUnits="userSpaceOnUse" style="mask-type:alpha" id="mask13_135_85">
<rect fill="#ECECEC" height="38" width="38" y="154" x="170"></rect>
</mask>
<g mask="url(#mask13_135_85)">
<rect fill="#D0D0D0" transform="rotate(45 189.184 134)" height="55.7253" width="1" y="134" x="189.184"></rect>
<rect fill="#D0D0D0" transform="rotate(45 206.154 150.971)" height="55.7253" width="1" y="150.971" x="206.154"></rect>
<rect fill="#D0D0D0" transform="rotate(45 197.669 142.485)" height="55.7253" width="1" y="142.485" x="197.669"></rect>
<rect fill="#D0D0D0" transform="rotate(45 214.64 159.456)" height="55.7253" width="1" y="159.456" x="214.64"></rect>
<rect fill="#D0D0D0" transform="rotate(45 193.426 138.243)" height="55.7253" width="1" y="138.243" x="193.426"></rect>
<rect fill="#D0D0D0" transform="rotate(45 210.397 155.213)" height="55.7253" width="1" y="155.213" x="210.397"></rect>
<rect fill="#D0D0D0" transform="rotate(45 201.912 146.728)" height="55.7253" width="1" y="146.728" x="201.912"></rect>
<rect fill="#D0D0D0" transform="rotate(45 218.882 163.698)" height="55.7253" width="1" y="163.698" x="218.882"></rect>
<rect fill="#D0D0D0" transform="rotate(45 191.305 136.121)" height="55.7253" width="1" y="136.121" x="191.305"></rect>
<rect fill="#D0D0D0" transform="rotate(45 208.276 153.092)" height="55.7253" width="1" y="153.092" x="208.276"></rect>
<rect fill="#D0D0D0" transform="rotate(45 199.79 144.607)" height="55.7253" width="1" y="144.607" x="199.79"></rect>
<rect fill="#D0D0D0" transform="rotate(45 216.761 161.577)" height="55.7253" width="1" y="161.577" x="216.761"></rect>
<rect fill="#D0D0D0" transform="rotate(45 195.548 140.364)" height="55.7253" width="1" y="140.364" x="195.548"></rect>
<rect fill="#D0D0D0" transform="rotate(45 212.518 157.334)" height="55.7253" width="1" y="157.334" x="212.518"></rect>
<rect fill="#D0D0D0" transform="rotate(45 204.033 148.849)" height="55.7253" width="1" y="148.849" x="204.033"></rect>
<rect fill="#D0D0D0" transform="rotate(45 221.004 165.82)" height="55.7253" width="1" y="165.82" x="221.004"></rect>
<rect fill="#D0D0D0" transform="rotate(45 223.125 167.941)" height="55.7253" width="1" y="167.941" x="223.125"></rect>
<rect fill="#D0D0D0" transform="rotate(45 225.246 170.062)" height="55.7253" width="1" y="170.062" x="225.246"></rect>
<rect fill="#D0D0D0" transform="rotate(45 227.368 172.184)" height="55.7253" width="1" y="172.184" x="227.368"></rect>
</g>
<mask height="38" width="38" y="230" x="170" maskUnits="userSpaceOnUse" style="mask-type:alpha" id="mask14_135_85">
<rect fill="#ECECEC" height="38" width="38" y="230" x="170"></rect>
</mask>
<g mask="url(#mask14_135_85)">
<rect fill="#D0D0D0" transform="rotate(45 189.184 210)" height="55.7253" width="1" y="210" x="189.184"></rect>
<rect fill="#D0D0D0" transform="rotate(45 206.154 226.971)" height="55.7253" width="1" y="226.971" x="206.154"></rect>
<rect fill="#D0D0D0" transform="rotate(45 197.669 218.485)" height="55.7253" width="1" y="218.485" x="197.669"></rect>
<rect fill="#D0D0D0" transform="rotate(45 214.64 235.456)" height="55.7253" width="1" y="235.456" x="214.64"></rect>
<rect fill="#D0D0D0" transform="rotate(45 193.426 214.243)" height="55.7253" width="1" y="214.243" x="193.426"></rect>
<rect fill="#D0D0D0" transform="rotate(45 210.397 231.213)" height="55.7253" width="1" y="231.213" x="210.397"></rect>
<rect fill="#D0D0D0" transform="rotate(45 201.912 222.728)" height="55.7253" width="1" y="222.728" x="201.912"></rect>
<rect fill="#D0D0D0" transform="rotate(45 218.882 239.698)" height="55.7253" width="1" y="239.698" x="218.882"></rect>
<rect fill="#D0D0D0" transform="rotate(45 191.305 212.121)" height="55.7253" width="1" y="212.121" x="191.305"></rect>
<rect fill="#D0D0D0" transform="rotate(45 208.276 229.092)" height="55.7253" width="1" y="229.092" x="208.276"></rect>
<rect fill="#D0D0D0" transform="rotate(45 199.79 220.607)" height="55.7253" width="1" y="220.607" x="199.79"></rect>
<rect fill="#D0D0D0" transform="rotate(45 216.761 237.577)" height="55.7253" width="1" y="237.577" x="216.761"></rect>
<rect fill="#D0D0D0" transform="rotate(45 195.548 216.364)" height="55.7253" width="1" y="216.364" x="195.548"></rect>
<rect fill="#D0D0D0" transform="rotate(45 212.518 233.334)" height="55.7253" width="1" y="233.334" x="212.518"></rect>
<rect fill="#D0D0D0" transform="rotate(45 204.033 224.849)" height="55.7253" width="1" y="224.849" x="204.033"></rect>
<rect fill="#D0D0D0" transform="rotate(45 221.004 241.82)" height="55.7253" width="1" y="241.82" x="221.004"></rect>
<rect fill="#D0D0D0" transform="rotate(45 223.125 243.941)" height="55.7253" width="1" y="243.941" x="223.125"></rect>
<rect fill="#D0D0D0" transform="rotate(45 225.246 246.062)" height="55.7253" width="1" y="246.062" x="225.246"></rect>
<rect fill="#D0D0D0" transform="rotate(45 227.368 248.184)" height="55.7253" width="1" y="248.184" x="227.368"></rect>
</g>
<mask height="38" width="38" y="306" x="170" maskUnits="userSpaceOnUse" style="mask-type:alpha" id="mask15_135_85">
<rect fill="#ECECEC" height="38" width="38" y="306" x="170"></rect>
</mask>
<g mask="url(#mask15_135_85)">
<rect fill="#D0D0D0" transform="rotate(45 189.184 286)" height="55.7253" width="1" y="286" x="189.184"></rect>
<rect fill="#D0D0D0" transform="rotate(45 206.154 302.971)" height="55.7253" width="1" y="302.971" x="206.154"></rect>
<rect fill="#D0D0D0" transform="rotate(45 197.669 294.485)" height="55.7253" width="1" y="294.485" x="197.669"></rect>
<rect fill="#D0D0D0" transform="rotate(45 214.64 311.456)" height="55.7253" width="1" y="311.456" x="214.64"></rect>
<rect fill="#D0D0D0" transform="rotate(45 193.426 290.243)" height="55.7253" width="1" y="290.243" x="193.426"></rect>
<rect fill="#D0D0D0" transform="rotate(45 210.397 307.213)" height="55.7253" width="1" y="307.213" x="210.397"></rect>
<rect fill="#D0D0D0" transform="rotate(45 201.912 298.728)" height="55.7253" width="1" y="298.728" x="201.912"></rect>
<rect fill="#D0D0D0" transform="rotate(45 218.882 315.698)" height="55.7253" width="1" y="315.698" x="218.882"></rect>
<rect fill="#D0D0D0" transform="rotate(45 191.305 288.121)" height="55.7253" width="1" y="288.121" x="191.305"></rect>
<rect fill="#D0D0D0" transform="rotate(45 208.276 305.092)" height="55.7253" width="1" y="305.092" x="208.276"></rect>
<rect fill="#D0D0D0" transform="rotate(45 199.79 296.607)" height="55.7253" width="1" y="296.607" x="199.79"></rect>
<rect fill="#D0D0D0" transform="rotate(45 216.761 313.577)" height="55.7253" width="1" y="313.577" x="216.761"></rect>
<rect fill="#D0D0D0" transform="rotate(45 195.548 292.364)" height="55.7253" width="1" y="292.364" x="195.548"></rect>
<rect fill="#D0D0D0" transform="rotate(45 212.518 309.334)" height="55.7253" width="1" y="309.334" x="212.518"></rect>
<rect fill="#D0D0D0" transform="rotate(45 204.033 300.849)" height="55.7253" width="1" y="300.849" x="204.033"></rect>
<rect fill="#D0D0D0" transform="rotate(45 221.004 317.82)" height="55.7253" width="1" y="317.82" x="221.004"></rect>
<rect fill="#D0D0D0" transform="rotate(45 223.125 319.941)" height="55.7253" width="1" y="319.941" x="223.125"></rect>
<rect fill="#D0D0D0" transform="rotate(45 225.246 322.062)" height="55.7253" width="1" y="322.062" x="225.246"></rect>
<rect fill="#D0D0D0" transform="rotate(45 227.368 324.184)" height="55.7253" width="1" y="324.184" x="227.368"></rect>
</g>
<mask height="38" width="38" y="78" x="94" maskUnits="userSpaceOnUse" style="mask-type:alpha" id="mask16_135_85">
<rect fill="#ECECEC" height="38" width="38" y="78" x="94"></rect>
</mask>
<g mask="url(#mask16_135_85)">
<rect fill="#D0D0D0" transform="rotate(45 113.184 58)" height="55.7253" width="1" y="58" x="113.184"></rect>
<rect fill="#D0D0D0" transform="rotate(45 130.154 74.9706)" height="55.7253" width="1" y="74.9706" x="130.154"></rect>
<rect fill="#D0D0D0" transform="rotate(45 121.669 66.4852)" height="55.7253" width="1" y="66.4852" x="121.669"></rect>
<rect fill="#D0D0D0" transform="rotate(45 138.64 83.4558)" height="55.7253" width="1" y="83.4558" x="138.64"></rect>
<rect fill="#D0D0D0" transform="rotate(45 117.426 62.2427)" height="55.7253" width="1" y="62.2427" x="117.426"></rect>
<rect fill="#D0D0D0" transform="rotate(45 134.397 79.2133)" height="55.7253" width="1" y="79.2133" x="134.397"></rect>
<rect fill="#D0D0D0" transform="rotate(45 125.912 70.7279)" height="55.7253" width="1" y="70.7279" x="125.912"></rect>
<rect fill="#D0D0D0" transform="rotate(45 142.882 87.6985)" height="55.7253" width="1" y="87.6985" x="142.882"></rect>
<rect fill="#D0D0D0" transform="rotate(45 115.305 60.1213)" height="55.7253" width="1" y="60.1213" x="115.305"></rect>
<rect fill="#D0D0D0" transform="rotate(45 132.276 77.0919)" height="55.7253" width="1" y="77.0919" x="132.276"></rect>
<rect fill="#D0D0D0" transform="rotate(45 123.79 68.6066)" height="55.7253" width="1" y="68.6066" x="123.79"></rect>
<rect fill="#D0D0D0" transform="rotate(45 140.761 85.5771)" height="55.7253" width="1" y="85.5771" x="140.761"></rect>
<rect fill="#D0D0D0" transform="rotate(45 119.548 64.364)" height="55.7253" width="1" y="64.364" x="119.548"></rect>
<rect fill="#D0D0D0" transform="rotate(45 136.518 81.3345)" height="55.7253" width="1" y="81.3345" x="136.518"></rect>
<rect fill="#D0D0D0" transform="rotate(45 128.033 72.8492)" height="55.7253" width="1" y="72.8492" x="128.033"></rect>
<rect fill="#D0D0D0" transform="rotate(45 145.004 89.8198)" height="55.7253" width="1" y="89.8198" x="145.004"></rect>
<rect fill="#D0D0D0" transform="rotate(45 147.125 91.9412)" height="55.7253" width="1" y="91.9412" x="147.125"></rect>
<rect fill="#D0D0D0" transform="rotate(45 149.246 94.0625)" height="55.7253" width="1" y="94.0625" x="149.246"></rect>
<rect fill="#D0D0D0" transform="rotate(45 151.368 96.1837)" height="55.7253" width="1" y="96.1837" x="151.368"></rect>
</g>
<mask height="38" width="38" y="154" x="94" maskUnits="userSpaceOnUse" style="mask-type:alpha" id="mask17_135_85">
<rect fill="#ECECEC" height="38" width="38" y="154" x="94"></rect>
</mask>
<g mask="url(#mask17_135_85)">
<rect fill="#D0D0D0" transform="rotate(45 113.184 134)" height="55.7253" width="1" y="134" x="113.184"></rect>
<rect fill="#D0D0D0" transform="rotate(45 130.154 150.971)" height="55.7253" width="1" y="150.971" x="130.154"></rect>
<rect fill="#D0D0D0" transform="rotate(45 121.669 142.485)" height="55.7253" width="1" y="142.485" x="121.669"></rect>
<rect fill="#D0D0D0" transform="rotate(45 138.64 159.456)" height="55.7253" width="1" y="159.456" x="138.64"></rect>
<rect fill="#D0D0D0" transform="rotate(45 117.426 138.243)" height="55.7253" width="1" y="138.243" x="117.426"></rect>
<rect fill="#D0D0D0" transform="rotate(45 134.397 155.213)" height="55.7253" width="1" y="155.213" x="134.397"></rect>
<rect fill="#D0D0D0" transform="rotate(45 125.912 146.728)" height="55.7253" width="1" y="146.728" x="125.912"></rect>
<rect fill="#D0D0D0" transform="rotate(45 142.882 163.698)" height="55.7253" width="1" y="163.698" x="142.882"></rect>
<rect fill="#D0D0D0" transform="rotate(45 115.305 136.121)" height="55.7253" width="1" y="136.121" x="115.305"></rect>
<rect fill="#D0D0D0" transform="rotate(45 132.276 153.092)" height="55.7253" width="1" y="153.092" x="132.276"></rect>
<rect fill="#D0D0D0" transform="rotate(45 123.79 144.607)" height="55.7253" width="1" y="144.607" x="123.79"></rect>
<rect fill="#D0D0D0" transform="rotate(45 140.761 161.577)" height="55.7253" width="1" y="161.577" x="140.761"></rect>
<rect fill="#D0D0D0" transform="rotate(45 119.548 140.364)" height="55.7253" width="1" y="140.364" x="119.548"></rect>
<rect fill="#D0D0D0" transform="rotate(45 136.518 157.334)" height="55.7253" width="1" y="157.334" x="136.518"></rect>
<rect fill="#D0D0D0" transform="rotate(45 128.033 148.849)" height="55.7253" width="1" y="148.849" x="128.033"></rect>
<rect fill="#D0D0D0" transform="rotate(45 145.004 165.82)" height="55.7253" width="1" y="165.82" x="145.004"></rect>
<rect fill="#D0D0D0" transform="rotate(45 147.125 167.941)" height="55.7253" width="1" y="167.941" x="147.125"></rect>
<rect fill="#D0D0D0" transform="rotate(45 149.246 170.062)" height="55.7253" width="1" y="170.062" x="149.246"></rect>
<rect fill="#D0D0D0" transform="rotate(45 151.368 172.184)" height="55.7253" width="1" y="172.184" x="151.368"></rect>
</g>
<mask height="38" width="38" y="230" x="94" maskUnits="userSpaceOnUse" style="mask-type:alpha" id="mask18_135_85">
<rect fill="#ECECEC" height="38" width="38" y="230" x="94"></rect>
</mask>
<g mask="url(#mask18_135_85)">
<rect fill="#D0D0D0" transform="rotate(45 113.184 210)" height="55.7253" width="1" y="210" x="113.184"></rect>
<rect fill="#D0D0D0" transform="rotate(45 130.154 226.971)" height="55.7253" width="1" y="226.971" x="130.154"></rect>
<rect fill="#D0D0D0" transform="rotate(45 121.669 218.485)" height="55.7253" width="1" y="218.485" x="121.669"></rect>
<rect fill="#D0D0D0" transform="rotate(45 138.64 235.456)" height="55.7253" width="1" y="235.456" x="138.64"></rect>
<rect fill="#D0D0D0" transform="rotate(45 117.426 214.243)" height="55.7253" width="1" y="214.243" x="117.426"></rect>
<rect fill="#D0D0D0" transform="rotate(45 134.397 231.213)" height="55.7253" width="1" y="231.213" x="134.397"></rect>
<rect fill="#D0D0D0" transform="rotate(45 125.912 222.728)" height="55.7253" width="1" y="222.728" x="125.912"></rect>
<rect fill="#D0D0D0" transform="rotate(45 142.882 239.698)" height="55.7253" width="1" y="239.698" x="142.882"></rect>
<rect fill="#D0D0D0" transform="rotate(45 115.305 212.121)" height="55.7253" width="1" y="212.121" x="115.305"></rect>
<rect fill="#D0D0D0" transform="rotate(45 132.276 229.092)" height="55.7253" width="1" y="229.092" x="132.276"></rect>
<rect fill="#D0D0D0" transform="rotate(45 123.79 220.607)" height="55.7253" width="1" y="220.607" x="123.79"></rect>
<rect fill="#D0D0D0" transform="rotate(45 140.761 237.577)" height="55.7253" width="1" y="237.577" x="140.761"></rect>
<rect fill="#D0D0D0" transform="rotate(45 119.548 216.364)" height="55.7253" width="1" y="216.364" x="119.548"></rect>
<rect fill="#D0D0D0" transform="rotate(45 136.518 233.334)" height="55.7253" width="1" y="233.334" x="136.518"></rect>
<rect fill="#D0D0D0" transform="rotate(45 128.033 224.849)" height="55.7253" width="1" y="224.849" x="128.033"></rect>
<rect fill="#D0D0D0" transform="rotate(45 145.004 241.82)" height="55.7253" width="1" y="241.82" x="145.004"></rect>
<rect fill="#D0D0D0" transform="rotate(45 147.125 243.941)" height="55.7253" width="1" y="243.941" x="147.125"></rect>
<rect fill="#D0D0D0" transform="rotate(45 149.246 246.062)" height="55.7253" width="1" y="246.062" x="149.246"></rect>
<rect fill="#D0D0D0" transform="rotate(45 151.368 248.184)" height="55.7253" width="1" y="248.184" x="151.368"></rect>
</g>
<mask height="38" width="38" y="306" x="94" maskUnits="userSpaceOnUse" style="mask-type:alpha" id="mask19_135_85">
<rect fill="#ECECEC" height="38" width="38" y="306" x="94"></rect>
</mask>
<g mask="url(#mask19_135_85)">
<rect fill="#D0D0D0" transform="rotate(45 113.184 286)" height="55.7253" width="1" y="286" x="113.184"></rect>
<rect fill="#D0D0D0" transform="rotate(45 130.154 302.971)" height="55.7253" width="1" y="302.971" x="130.154"></rect>
<rect fill="#D0D0D0" transform="rotate(45 121.669 294.485)" height="55.7253" width="1" y="294.485" x="121.669"></rect>
<rect fill="#D0D0D0" transform="rotate(45 138.64 311.456)" height="55.7253" width="1" y="311.456" x="138.64"></rect>
<rect fill="#D0D0D0" transform="rotate(45 117.426 290.243)" height="55.7253" width="1" y="290.243" x="117.426"></rect>
<rect fill="#D0D0D0" transform="rotate(45 134.397 307.213)" height="55.7253" width="1" y="307.213" x="134.397"></rect>
<rect fill="#D0D0D0" transform="rotate(45 125.912 298.728)" height="55.7253" width="1" y="298.728" x="125.912"></rect>
<rect fill="#D0D0D0" transform="rotate(45 142.882 315.698)" height="55.7253" width="1" y="315.698" x="142.882"></rect>
<rect fill="#D0D0D0" transform="rotate(45 115.305 288.121)" height="55.7253" width="1" y="288.121" x="115.305"></rect>
<rect fill="#D0D0D0" transform="rotate(45 132.276 305.092)" height="55.7253" width="1" y="305.092" x="132.276"></rect>
<rect fill="#D0D0D0" transform="rotate(45 123.79 296.607)" height="55.7253" width="1" y="296.607" x="123.79"></rect>
<rect fill="#D0D0D0" transform="rotate(45 140.761 313.577)" height="55.7253" width="1" y="313.577" x="140.761"></rect>
<rect fill="#D0D0D0" transform="rotate(45 119.548 292.364)" height="55.7253" width="1" y="292.364" x="119.548"></rect>
<rect fill="#D0D0D0" transform="rotate(45 136.518 309.334)" height="55.7253" width="1" y="309.334" x="136.518"></rect>
<rect fill="#D0D0D0" transform="rotate(45 128.033 300.849)" height="55.7253" width="1" y="300.849" x="128.033"></rect>
<rect fill="#D0D0D0" transform="rotate(45 145.004 317.82)" height="55.7253" width="1" y="317.82" x="145.004"></rect>
<rect fill="#D0D0D0" transform="rotate(45 147.125 319.941)" height="55.7253" width="1" y="319.941" x="147.125"></rect>
<rect fill="#D0D0D0" transform="rotate(45 149.246 322.062)" height="55.7253" width="1" y="322.062" x="149.246"></rect>
<rect fill="#D0D0D0" transform="rotate(45 151.368 324.184)" height="55.7253" width="1" y="324.184" x="151.368"></rect>
</g>
<mask height="38" width="38" y="78" x="246" maskUnits="userSpaceOnUse" style="mask-type:alpha" id="mask20_135_85">
<rect fill="#ECECEC" height="38" width="38" y="78" x="246"></rect>
</mask>
<g mask="url(#mask20_135_85)">
<rect fill="#D0D0D0" transform="rotate(45 265.184 58)" height="55.7253" width="1" y="58" x="265.184"></rect>
<rect fill="#D0D0D0" transform="rotate(45 282.154 74.9706)" height="55.7253" width="1" y="74.9706" x="282.154"></rect>
<rect fill="#D0D0D0" transform="rotate(45 273.669 66.4852)" height="55.7253" width="1" y="66.4852" x="273.669"></rect>
<rect fill="#D0D0D0" transform="rotate(45 290.64 83.4558)" height="55.7253" width="1" y="83.4558" x="290.64"></rect>
<rect fill="#D0D0D0" transform="rotate(45 269.426 62.2427)" height="55.7253" width="1" y="62.2427" x="269.426"></rect>
<rect fill="#D0D0D0" transform="rotate(45 286.397 79.2133)" height="55.7253" width="1" y="79.2133" x="286.397"></rect>
<rect fill="#D0D0D0" transform="rotate(45 277.912 70.7279)" height="55.7253" width="1" y="70.7279" x="277.912"></rect>
<rect fill="#D0D0D0" transform="rotate(45 294.882 87.6985)" height="55.7253" width="1" y="87.6985" x="294.882"></rect>
<rect fill="#D0D0D0" transform="rotate(45 267.305 60.1213)" height="55.7253" width="1" y="60.1213" x="267.305"></rect>
<rect fill="#D0D0D0" transform="rotate(45 284.276 77.0919)" height="55.7253" width="1" y="77.0919" x="284.276"></rect>
<rect fill="#D0D0D0" transform="rotate(45 275.79 68.6066)" height="55.7253" width="1" y="68.6066" x="275.79"></rect>
<rect fill="#D0D0D0" transform="rotate(45 292.761 85.5771)" height="55.7253" width="1" y="85.5771" x="292.761"></rect>
<rect fill="#D0D0D0" transform="rotate(45 271.548 64.364)" height="55.7253" width="1" y="64.364" x="271.548"></rect>
<rect fill="#D0D0D0" transform="rotate(45 288.518 81.3345)" height="55.7253" width="1" y="81.3345" x="288.518"></rect>
<rect fill="#D0D0D0" transform="rotate(45 280.033 72.8492)" height="55.7253" width="1" y="72.8492" x="280.033"></rect>
<rect fill="#D0D0D0" transform="rotate(45 297.004 89.8198)" height="55.7253" width="1" y="89.8198" x="297.004"></rect>
<rect fill="#D0D0D0" transform="rotate(45 299.125 91.9412)" height="55.7253" width="1" y="91.9412" x="299.125"></rect>
<rect fill="#D0D0D0" transform="rotate(45 301.246 94.0625)" height="55.7253" width="1" y="94.0625" x="301.246"></rect>
<rect fill="#D0D0D0" transform="rotate(45 303.368 96.1837)" height="55.7253" width="1" y="96.1837" x="303.368"></rect>
</g>
<mask height="38" width="38" y="154" x="246" maskUnits="userSpaceOnUse" style="mask-type:alpha" id="mask21_135_85">
<rect fill="#ECECEC" height="38" width="38" y="154" x="246"></rect>
</mask>
<g mask="url(#mask21_135_85)">
<rect fill="#D0D0D0" transform="rotate(45 265.184 134)" height="55.7253" width="1" y="134" x="265.184"></rect>
<rect fill="#D0D0D0" transform="rotate(45 282.154 150.971)" height="55.7253" width="1" y="150.971" x="282.154"></rect>
<rect fill="#D0D0D0" transform="rotate(45 273.669 142.485)" height="55.7253" width="1" y="142.485" x="273.669"></rect>
<rect fill="#D0D0D0" transform="rotate(45 290.64 159.456)" height="55.7253" width="1" y="159.456" x="290.64"></rect>
<rect fill="#D0D0D0" transform="rotate(45 269.426 138.243)" height="55.7253" width="1" y="138.243" x="269.426"></rect>
<rect fill="#D0D0D0" transform="rotate(45 286.397 155.213)" height="55.7253" width="1" y="155.213" x="286.397"></rect>
<rect fill="#D0D0D0" transform="rotate(45 277.912 146.728)" height="55.7253" width="1" y="146.728" x="277.912"></rect>
<rect fill="#D0D0D0" transform="rotate(45 294.882 163.698)" height="55.7253" width="1" y="163.698" x="294.882"></rect>
<rect fill="#D0D0D0" transform="rotate(45 267.305 136.121)" height="55.7253" width="1" y="136.121" x="267.305"></rect>
<rect fill="#D0D0D0" transform="rotate(45 284.276 153.092)" height="55.7253" width="1" y="153.092" x="284.276"></rect>
<rect fill="#D0D0D0" transform="rotate(45 275.79 144.607)" height="55.7253" width="1" y="144.607" x="275.79"></rect>
<rect fill="#D0D0D0" transform="rotate(45 292.761 161.577)" height="55.7253" width="1" y="161.577" x="292.761"></rect>
<rect fill="#D0D0D0" transform="rotate(45 271.548 140.364)" height="55.7253" width="1" y="140.364" x="271.548"></rect>
<rect fill="#D0D0D0" transform="rotate(45 288.518 157.334)" height="55.7253" width="1" y="157.334" x="288.518"></rect>
<rect fill="#D0D0D0" transform="rotate(45 280.033 148.849)" height="55.7253" width="1" y="148.849" x="280.033"></rect>
<rect fill="#D0D0D0" transform="rotate(45 297.004 165.82)" height="55.7253" width="1" y="165.82" x="297.004"></rect>
<rect fill="#D0D0D0" transform="rotate(45 299.125 167.941)" height="55.7253" width="1" y="167.941" x="299.125"></rect>
<rect fill="#D0D0D0" transform="rotate(45 301.246 170.062)" height="55.7253" width="1" y="170.062" x="301.246"></rect>
<rect fill="#D0D0D0" transform="rotate(45 303.368 172.184)" height="55.7253" width="1" y="172.184" x="303.368"></rect>
</g>
<mask height="38" width="38" y="230" x="246" maskUnits="userSpaceOnUse" style="mask-type:alpha" id="mask22_135_85">
<rect fill="#ECECEC" height="38" width="38" y="230" x="246"></rect>
</mask>
<g mask="url(#mask22_135_85)">
<rect fill="#D0D0D0" transform="rotate(45 265.184 210)" height="55.7253" width="1" y="210" x="265.184"></rect>
<rect fill="#D0D0D0" transform="rotate(45 282.154 226.971)" height="55.7253" width="1" y="226.971" x="282.154"></rect>
<rect fill="#D0D0D0" transform="rotate(45 273.669 218.485)" height="55.7253" width="1" y="218.485" x="273.669"></rect>
<rect fill="#D0D0D0" transform="rotate(45 290.64 235.456)" height="55.7253" width="1" y="235.456" x="290.64"></rect>
<rect fill="#D0D0D0" transform="rotate(45 269.426 214.243)" height="55.7253" width="1" y="214.243" x="269.426"></rect>
<rect fill="#D0D0D0" transform="rotate(45 286.397 231.213)" height="55.7253" width="1" y="231.213" x="286.397"></rect>
<rect fill="#D0D0D0" transform="rotate(45 277.912 222.728)" height="55.7253" width="1" y="222.728" x="277.912"></rect>
<rect fill="#D0D0D0" transform="rotate(45 294.882 239.698)" height="55.7253" width="1" y="239.698" x="294.882"></rect>
<rect fill="#D0D0D0" transform="rotate(45 267.305 212.121)" height="55.7253" width="1" y="212.121" x="267.305"></rect>
<rect fill="#D0D0D0" transform="rotate(45 284.276 229.092)" height="55.7253" width="1" y="229.092" x="284.276"></rect>
<rect fill="#D0D0D0" transform="rotate(45 275.79 220.607)" height="55.7253" width="1" y="220.607" x="275.79"></rect>
<rect fill="#D0D0D0" transform="rotate(45 292.761 237.577)" height="55.7253" width="1" y="237.577" x="292.761"></rect>
<rect fill="#D0D0D0" transform="rotate(45 271.548 216.364)" height="55.7253" width="1" y="216.364" x="271.548"></rect>
<rect fill="#D0D0D0" transform="rotate(45 288.518 233.334)" height="55.7253" width="1" y="233.334" x="288.518"></rect>
<rect fill="#D0D0D0" transform="rotate(45 280.033 224.849)" height="55.7253" width="1" y="224.849" x="280.033"></rect>
<rect fill="#D0D0D0" transform="rotate(45 297.004 241.82)" height="55.7253" width="1" y="241.82" x="297.004"></rect>
<rect fill="#D0D0D0" transform="rotate(45 299.125 243.941)" height="55.7253" width="1" y="243.941" x="299.125"></rect>
<rect fill="#D0D0D0" transform="rotate(45 301.246 246.062)" height="55.7253" width="1" y="246.062" x="301.246"></rect>
<rect fill="#D0D0D0" transform="rotate(45 303.368 248.184)" height="55.7253" width="1" y="248.184" x="303.368"></rect>
</g>
<mask height="38" width="38" y="306" x="246" maskUnits="userSpaceOnUse" style="mask-type:alpha" id="mask23_135_85">
<rect fill="#ECECEC" height="38" width="38" y="306" x="246"></rect>
</mask>
<g mask="url(#mask23_135_85)">
<rect fill="#D0D0D0" transform="rotate(45 265.184 286)" height="55.7253" width="1" y="286" x="265.184"></rect>
<rect fill="#D0D0D0" transform="rotate(45 282.154 302.971)" height="55.7253" width="1" y="302.971" x="282.154"></rect>
<rect fill="#D0D0D0" transform="rotate(45 273.669 294.485)" height="55.7253" width="1" y="294.485" x="273.669"></rect>
<rect fill="#D0D0D0" transform="rotate(45 290.64 311.456)" height="55.7253" width="1" y="311.456" x="290.64"></rect>
<rect fill="#D0D0D0" transform="rotate(45 269.426 290.243)" height="55.7253" width="1" y="290.243" x="269.426"></rect>
<rect fill="#D0D0D0" transform="rotate(45 286.397 307.213)" height="55.7253" width="1" y="307.213" x="286.397"></rect>
<rect fill="#D0D0D0" transform="rotate(45 277.912 298.728)" height="55.7253" width="1" y="298.728" x="277.912"></rect>
<rect fill="#D0D0D0" transform="rotate(45 294.882 315.698)" height="55.7253" width="1" y="315.698" x="294.882"></rect>
<rect fill="#D0D0D0" transform="rotate(45 267.305 288.121)" height="55.7253" width="1" y="288.121" x="267.305"></rect>
<rect fill="#D0D0D0" transform="rotate(45 284.276 305.092)" height="55.7253" width="1" y="305.092" x="284.276"></rect>
<rect fill="#D0D0D0" transform="rotate(45 275.79 296.607)" height="55.7253" width="1" y="296.607" x="275.79"></rect>
<rect fill="#D0D0D0" transform="rotate(45 292.761 313.577)" height="55.7253" width="1" y="313.577" x="292.761"></rect>
<rect fill="#D0D0D0" transform="rotate(45 271.548 292.364)" height="55.7253" width="1" y="292.364" x="271.548"></rect>
<rect fill="#D0D0D0" transform="rotate(45 288.518 309.334)" height="55.7253" width="1" y="309.334" x="288.518"></rect>
<rect fill="#D0D0D0" transform="rotate(45 280.033 300.849)" height="55.7253" width="1" y="300.849" x="280.033"></rect>
<rect fill="#D0D0D0" transform="rotate(45 297.004 317.82)" height="55.7253" width="1" y="317.82" x="297.004"></rect>
<rect fill="#D0D0D0" transform="rotate(45 299.125 319.941)" height="55.7253" width="1" y="319.941" x="299.125"></rect>
<rect fill="#D0D0D0" transform="rotate(45 301.246 322.062)" height="55.7253" width="1" y="322.062" x="301.246"></rect>
<rect fill="#D0D0D0" transform="rotate(45 303.368 324.184)" height="55.7253" width="1" y="324.184" x="303.368"></rect>
</g>
<mask height="38" width="38" y="40" x="208" maskUnits="userSpaceOnUse" style="mask-type:alpha" id="mask24_135_85">
<rect fill="#ECECEC" height="38" width="38" y="40" x="208"></rect>
</mask>
<g mask="url(#mask24_135_85)">
<rect fill="#D0D0D0" transform="rotate(45 227.184 20)" height="55.7253" width="1" y="20" x="227.184"></rect>
<rect fill="#D0D0D0" transform="rotate(45 244.154 36.9706)" height="55.7253" width="1" y="36.9706" x="244.154"></rect>
<rect fill="#D0D0D0" transform="rotate(45 235.669 28.4852)" height="55.7253" width="1" y="28.4852" x="235.669"></rect>
<rect fill="#D0D0D0" transform="rotate(45 252.64 45.4558)" height="55.7253" width="1" y="45.4558" x="252.64"></rect>
<rect fill="#D0D0D0" transform="rotate(45 231.426 24.2427)" height="55.7253" width="1" y="24.2427" x="231.426"></rect>
<rect fill="#D0D0D0" transform="rotate(45 248.397 41.2133)" height="55.7253" width="1" y="41.2133" x="248.397"></rect>
<rect fill="#D0D0D0" transform="rotate(45 239.912 32.7279)" height="55.7253" width="1" y="32.7279" x="239.912"></rect>
<rect fill="#D0D0D0" transform="rotate(45 256.882 49.6985)" height="55.7253" width="1" y="49.6985" x="256.882"></rect>
<rect fill="#D0D0D0" transform="rotate(45 229.305 22.1213)" height="55.7253" width="1" y="22.1213" x="229.305"></rect>
<rect fill="#D0D0D0" transform="rotate(45 246.276 39.0919)" height="55.7253" width="1" y="39.0919" x="246.276"></rect>
<rect fill="#D0D0D0" transform="rotate(45 237.79 30.6066)" height="55.7253" width="1" y="30.6066" x="237.79"></rect>
<rect fill="#D0D0D0" transform="rotate(45 254.761 47.5771)" height="55.7253" width="1" y="47.5771" x="254.761"></rect>
<rect fill="#D0D0D0" transform="rotate(45 233.548 26.364)" height="55.7253" width="1" y="26.364" x="233.548"></rect>
<rect fill="#D0D0D0" transform="rotate(45 250.518 43.3345)" height="55.7253" width="1" y="43.3345" x="250.518"></rect>
<rect fill="#D0D0D0" transform="rotate(45 242.033 34.8492)" height="55.7253" width="1" y="34.8492" x="242.033"></rect>
<rect fill="#D0D0D0" transform="rotate(45 259.004 51.8198)" height="55.7253" width="1" y="51.8198" x="259.004"></rect>
<rect fill="#D0D0D0" transform="rotate(45 261.125 53.9412)" height="55.7253" width="1" y="53.9412" x="261.125"></rect>
<rect fill="#D0D0D0" transform="rotate(45 263.246 56.0625)" height="55.7253" width="1" y="56.0625" x="263.246"></rect>
<rect fill="#D0D0D0" transform="rotate(45 265.368 58.1837)" height="55.7253" width="1" y="58.1837" x="265.368"></rect>
</g>
<mask height="38" width="38" y="116" x="208" maskUnits="userSpaceOnUse" style="mask-type:alpha" id="mask25_135_85">
<rect fill="#ECECEC" height="38" width="38" y="116" x="208"></rect>
</mask>
<g mask="url(#mask25_135_85)">
<rect fill="#D0D0D0" transform="rotate(45 227.184 96)" height="55.7253" width="1" y="96" x="227.184"></rect>
<rect fill="#D0D0D0" transform="rotate(45 244.154 112.971)" height="55.7253" width="1" y="112.971" x="244.154"></rect>
<rect fill="#D0D0D0" transform="rotate(45 235.669 104.485)" height="55.7253" width="1" y="104.485" x="235.669"></rect>
<rect fill="#D0D0D0" transform="rotate(45 252.64 121.456)" height="55.7253" width="1" y="121.456" x="252.64"></rect>
<rect fill="#D0D0D0" transform="rotate(45 231.426 100.243)" height="55.7253" width="1" y="100.243" x="231.426"></rect>
<rect fill="#D0D0D0" transform="rotate(45 248.397 117.213)" height="55.7253" width="1" y="117.213" x="248.397"></rect>
<rect fill="#D0D0D0" transform="rotate(45 239.912 108.728)" height="55.7253" width="1" y="108.728" x="239.912"></rect>
<rect fill="#D0D0D0" transform="rotate(45 256.882 125.698)" height="55.7253" width="1" y="125.698" x="256.882"></rect>
<rect fill="#D0D0D0" transform="rotate(45 229.305 98.1213)" height="55.7253" width="1" y="98.1213" x="229.305"></rect>
<rect fill="#D0D0D0" transform="rotate(45 246.276 115.092)" height="55.7253" width="1" y="115.092" x="246.276"></rect>
<rect fill="#D0D0D0" transform="rotate(45 237.79 106.607)" height="55.7253" width="1" y="106.607" x="237.79"></rect>
<rect fill="#D0D0D0" transform="rotate(45 254.761 123.577)" height="55.7253" width="1" y="123.577" x="254.761"></rect>
<rect fill="#D0D0D0" transform="rotate(45 233.548 102.364)" height="55.7253" width="1" y="102.364" x="233.548"></rect>
<rect fill="#D0D0D0" transform="rotate(45 250.518 119.334)" height="55.7253" width="1" y="119.334" x="250.518"></rect>
<rect fill="#D0D0D0" transform="rotate(45 242.033 110.849)" height="55.7253" width="1" y="110.849" x="242.033"></rect>
<rect fill="#D0D0D0" transform="rotate(45 259.004 127.82)" height="55.7253" width="1" y="127.82" x="259.004"></rect>
<rect fill="#D0D0D0" transform="rotate(45 261.125 129.941)" height="55.7253" width="1" y="129.941" x="261.125"></rect>
<rect fill="#D0D0D0" transform="rotate(45 263.246 132.062)" height="55.7253" width="1" y="132.062" x="263.246"></rect>
<rect fill="#D0D0D0" transform="rotate(45 265.368 134.184)" height="55.7253" width="1" y="134.184" x="265.368"></rect>
</g>
<mask height="38" width="38" y="192" x="208" maskUnits="userSpaceOnUse" style="mask-type:alpha" id="mask26_135_85">
<rect fill="#ECECEC" height="38" width="38" y="192" x="208"></rect>
</mask>
<g mask="url(#mask26_135_85)">
<rect fill="#D0D0D0" transform="rotate(45 227.184 172)" height="55.7253" width="1" y="172" x="227.184"></rect>
<rect fill="#D0D0D0" transform="rotate(45 244.154 188.971)" height="55.7253" width="1" y="188.971" x="244.154"></rect>
<rect fill="#D0D0D0" transform="rotate(45 235.669 180.485)" height="55.7253" width="1" y="180.485" x="235.669"></rect>
<rect fill="#D0D0D0" transform="rotate(45 252.64 197.456)" height="55.7253" width="1" y="197.456" x="252.64"></rect>
<rect fill="#D0D0D0" transform="rotate(45 231.426 176.243)" height="55.7253" width="1" y="176.243" x="231.426"></rect>
<rect fill="#D0D0D0" transform="rotate(45 248.397 193.213)" height="55.7253" width="1" y="193.213" x="248.397"></rect>
<rect fill="#D0D0D0" transform="rotate(45 239.912 184.728)" height="55.7253" width="1" y="184.728" x="239.912"></rect>
<rect fill="#D0D0D0" transform="rotate(45 256.882 201.698)" height="55.7253" width="1" y="201.698" x="256.882"></rect>
<rect fill="#D0D0D0" transform="rotate(45 229.305 174.121)" height="55.7253" width="1" y="174.121" x="229.305"></rect>
<rect fill="#D0D0D0" transform="rotate(45 246.276 191.092)" height="55.7253" width="1" y="191.092" x="246.276"></rect>
<rect fill="#D0D0D0" transform="rotate(45 237.79 182.607)" height="55.7253" width="1" y="182.607" x="237.79"></rect>
<rect fill="#D0D0D0" transform="rotate(45 254.761 199.577)" height="55.7253" width="1" y="199.577" x="254.761"></rect>
<rect fill="#D0D0D0" transform="rotate(45 233.548 178.364)" height="55.7253" width="1" y="178.364" x="233.548"></rect>
<rect fill="#D0D0D0" transform="rotate(45 250.518 195.334)" height="55.7253" width="1" y="195.334" x="250.518"></rect>
<rect fill="#D0D0D0" transform="rotate(45 242.033 186.849)" height="55.7253" width="1" y="186.849" x="242.033"></rect>
<rect fill="#D0D0D0" transform="rotate(45 259.004 203.82)" height="55.7253" width="1" y="203.82" x="259.004"></rect>
<rect fill="#D0D0D0" transform="rotate(45 261.125 205.941)" height="55.7253" width="1" y="205.941" x="261.125"></rect>
<rect fill="#D0D0D0" transform="rotate(45 263.246 208.062)" height="55.7253" width="1" y="208.062" x="263.246"></rect>
<rect fill="#D0D0D0" transform="rotate(45 265.368 210.184)" height="55.7253" width="1" y="210.184" x="265.368"></rect>
</g>
<mask height="38" width="38" y="268" x="208" maskUnits="userSpaceOnUse" style="mask-type:alpha" id="mask27_135_85">
<rect fill="#ECECEC" height="38" width="38" y="268" x="208"></rect>
</mask>
<g mask="url(#mask27_135_85)">
<rect fill="#D0D0D0" transform="rotate(45 227.184 248)" height="55.7253" width="1" y="248" x="227.184"></rect>
<rect fill="#D0D0D0" transform="rotate(45 244.154 264.971)" height="55.7253" width="1" y="264.971" x="244.154"></rect>
<rect fill="#D0D0D0" transform="rotate(45 235.669 256.485)" height="55.7253" width="1" y="256.485" x="235.669"></rect>
<rect fill="#D0D0D0" transform="rotate(45 252.64 273.456)" height="55.7253" width="1" y="273.456" x="252.64"></rect>
<rect fill="#D0D0D0" transform="rotate(45 231.426 252.243)" height="55.7253" width="1" y="252.243" x="231.426"></rect>
<rect fill="#D0D0D0" transform="rotate(45 248.397 269.213)" height="55.7253" width="1" y="269.213" x="248.397"></rect>
<rect fill="#D0D0D0" transform="rotate(45 239.912 260.728)" height="55.7253" width="1" y="260.728" x="239.912"></rect>
<rect fill="#D0D0D0" transform="rotate(45 256.882 277.698)" height="55.7253" width="1" y="277.698" x="256.882"></rect>
<rect fill="#D0D0D0" transform="rotate(45 229.305 250.121)" height="55.7253" width="1" y="250.121" x="229.305"></rect>
<rect fill="#D0D0D0" transform="rotate(45 246.276 267.092)" height="55.7253" width="1" y="267.092" x="246.276"></rect>
<rect fill="#D0D0D0" transform="rotate(45 237.79 258.607)" height="55.7253" width="1" y="258.607" x="237.79"></rect>
<rect fill="#D0D0D0" transform="rotate(45 254.761 275.577)" height="55.7253" width="1" y="275.577" x="254.761"></rect>
<rect fill="#D0D0D0" transform="rotate(45 233.548 254.364)" height="55.7253" width="1" y="254.364" x="233.548"></rect>
<rect fill="#D0D0D0" transform="rotate(45 250.518 271.334)" height="55.7253" width="1" y="271.334" x="250.518"></rect>
<rect fill="#D0D0D0" transform="rotate(45 242.033 262.849)" height="55.7253" width="1" y="262.849" x="242.033"></rect>
<rect fill="#D0D0D0" transform="rotate(45 259.004 279.82)" height="55.7253" width="1" y="279.82" x="259.004"></rect>
<rect fill="#D0D0D0" transform="rotate(45 261.125 281.941)" height="55.7253" width="1" y="281.941" x="261.125"></rect>
<rect fill="#D0D0D0" transform="rotate(45 263.246 284.062)" height="55.7253" width="1" y="284.062" x="263.246"></rect>
<rect fill="#D0D0D0" transform="rotate(45 265.368 286.184)" height="55.7253" width="1" y="286.184" x="265.368"></rect>
</g>
<mask height="38" width="38" y="40" x="284" maskUnits="userSpaceOnUse" style="mask-type:alpha" id="mask28_135_85">
<rect fill="#ECECEC" height="38" width="38" y="40" x="284"></rect>
</mask>
<g mask="url(#mask28_135_85)">
<rect fill="#D0D0D0" transform="rotate(45 303.184 20)" height="55.7253" width="1" y="20" x="303.184"></rect>
<rect fill="#D0D0D0" transform="rotate(45 320.154 36.9706)" height="55.7253" width="1" y="36.9706" x="320.154"></rect>
<rect fill="#D0D0D0" transform="rotate(45 311.669 28.4852)" height="55.7253" width="1" y="28.4852" x="311.669"></rect>
<rect fill="#D0D0D0" transform="rotate(45 328.64 45.4558)" height="55.7253" width="1" y="45.4558" x="328.64"></rect>
<rect fill="#D0D0D0" transform="rotate(45 307.426 24.2427)" height="55.7253" width="1" y="24.2427" x="307.426"></rect>
<rect fill="#D0D0D0" transform="rotate(45 324.397 41.2133)" height="55.7253" width="1" y="41.2133" x="324.397"></rect>
<rect fill="#D0D0D0" transform="rotate(45 315.912 32.7279)" height="55.7253" width="1" y="32.7279" x="315.912"></rect>
<rect fill="#D0D0D0" transform="rotate(45 332.882 49.6985)" height="55.7253" width="1" y="49.6985" x="332.882"></rect>
<rect fill="#D0D0D0" transform="rotate(45 305.305 22.1213)" height="55.7253" width="1" y="22.1213" x="305.305"></rect>
<rect fill="#D0D0D0" transform="rotate(45 322.276 39.0919)" height="55.7253" width="1" y="39.0919" x="322.276"></rect>
<rect fill="#D0D0D0" transform="rotate(45 313.79 30.6066)" height="55.7253" width="1" y="30.6066" x="313.79"></rect>
<rect fill="#D0D0D0" transform="rotate(45 330.761 47.5771)" height="55.7253" width="1" y="47.5771" x="330.761"></rect>
<rect fill="#D0D0D0" transform="rotate(45 309.548 26.364)" height="55.7253" width="1" y="26.364" x="309.548"></rect>
<rect fill="#D0D0D0" transform="rotate(45 326.518 43.3345)" height="55.7253" width="1" y="43.3345" x="326.518"></rect>
<rect fill="#D0D0D0" transform="rotate(45 318.033 34.8492)" height="55.7253" width="1" y="34.8492" x="318.033"></rect>
<rect fill="#D0D0D0" transform="rotate(45 335.004 51.8198)" height="55.7253" width="1" y="51.8198" x="335.004"></rect>
<rect fill="#D0D0D0" transform="rotate(45 337.125 53.9412)" height="55.7253" width="1" y="53.9412" x="337.125"></rect>
<rect fill="#D0D0D0" transform="rotate(45 339.246 56.0625)" height="55.7253" width="1" y="56.0625" x="339.246"></rect>
<rect fill="#D0D0D0" transform="rotate(45 341.368 58.1837)" height="55.7253" width="1" y="58.1837" x="341.368"></rect>
</g>
<mask height="38" width="38" y="116" x="284" maskUnits="userSpaceOnUse" style="mask-type:alpha" id="mask29_135_85">
<rect fill="#ECECEC" height="38" width="38" y="116" x="284"></rect>
</mask>
<g mask="url(#mask29_135_85)">
<rect fill="#D0D0D0" transform="rotate(45 303.184 96)" height="55.7253" width="1" y="96" x="303.184"></rect>
<rect fill="#D0D0D0" transform="rotate(45 320.154 112.971)" height="55.7253" width="1" y="112.971" x="320.154"></rect>
<rect fill="#D0D0D0" transform="rotate(45 311.669 104.485)" height="55.7253" width="1" y="104.485" x="311.669"></rect>
<rect fill="#D0D0D0" transform="rotate(45 328.64 121.456)" height="55.7253" width="1" y="121.456" x="328.64"></rect>
<rect fill="#D0D0D0" transform="rotate(45 307.426 100.243)" height="55.7253" width="1" y="100.243" x="307.426"></rect>
<rect fill="#D0D0D0" transform="rotate(45 324.397 117.213)" height="55.7253" width="1" y="117.213" x="324.397"></rect>
<rect fill="#D0D0D0" transform="rotate(45 315.912 108.728)" height="55.7253" width="1" y="108.728" x="315.912"></rect>
<rect fill="#D0D0D0" transform="rotate(45 332.882 125.698)" height="55.7253" width="1" y="125.698" x="332.882"></rect>
<rect fill="#D0D0D0" transform="rotate(45 305.305 98.1213)" height="55.7253" width="1" y="98.1213" x="305.305"></rect>
<rect fill="#D0D0D0" transform="rotate(45 322.276 115.092)" height="55.7253" width="1" y="115.092" x="322.276"></rect>
<rect fill="#D0D0D0" transform="rotate(45 313.79 106.607)" height="55.7253" width="1" y="106.607" x="313.79"></rect>
<rect fill="#D0D0D0" transform="rotate(45 330.761 123.577)" height="55.7253" width="1" y="123.577" x="330.761"></rect>
<rect fill="#D0D0D0" transform="rotate(45 309.548 102.364)" height="55.7253" width="1" y="102.364" x="309.548"></rect>
<rect fill="#D0D0D0" transform="rotate(45 326.518 119.334)" height="55.7253" width="1" y="119.334" x="326.518"></rect>
<rect fill="#D0D0D0" transform="rotate(45 318.033 110.849)" height="55.7253" width="1" y="110.849" x="318.033"></rect>
<rect fill="#D0D0D0" transform="rotate(45 335.004 127.82)" height="55.7253" width="1" y="127.82" x="335.004"></rect>
<rect fill="#D0D0D0" transform="rotate(45 337.125 129.941)" height="55.7253" width="1" y="129.941" x="337.125"></rect>
<rect fill="#D0D0D0" transform="rotate(45 339.246 132.062)" height="55.7253" width="1" y="132.062" x="339.246"></rect>
<rect fill="#D0D0D0" transform="rotate(45 341.368 134.184)" height="55.7253" width="1" y="134.184" x="341.368"></rect>
</g>
<mask height="38" width="38" y="192" x="284" maskUnits="userSpaceOnUse" style="mask-type:alpha" id="mask30_135_85">
<rect fill="#ECECEC" height="38" width="38" y="192" x="284"></rect>
</mask>
<g mask="url(#mask30_135_85)">
<rect fill="#D0D0D0" transform="rotate(45 303.184 172)" height="55.7253" width="1" y="172" x="303.184"></rect>
<rect fill="#D0D0D0" transform="rotate(45 320.154 188.971)" height="55.7253" width="1" y="188.971" x="320.154"></rect>
<rect fill="#D0D0D0" transform="rotate(45 311.669 180.485)" height="55.7253" width="1" y="180.485" x="311.669"></rect>
<rect fill="#D0D0D0" transform="rotate(45 328.64 197.456)" height="55.7253" width="1" y="197.456" x="328.64"></rect>
<rect fill="#D0D0D0" transform="rotate(45 307.426 176.243)" height="55.7253" width="1" y="176.243" x="307.426"></rect>
<rect fill="#D0D0D0" transform="rotate(45 324.397 193.213)" height="55.7253" width="1" y="193.213" x="324.397"></rect>
<rect fill="#D0D0D0" transform="rotate(45 315.912 184.728)" height="55.7253" width="1" y="184.728" x="315.912"></rect>
<rect fill="#D0D0D0" transform="rotate(45 332.882 201.698)" height="55.7253" width="1" y="201.698" x="332.882"></rect>
<rect fill="#D0D0D0" transform="rotate(45 305.305 174.121)" height="55.7253" width="1" y="174.121" x="305.305"></rect>
<rect fill="#D0D0D0" transform="rotate(45 322.276 191.092)" height="55.7253" width="1" y="191.092" x="322.276"></rect>
<rect fill="#D0D0D0" transform="rotate(45 313.79 182.607)" height="55.7253" width="1" y="182.607" x="313.79"></rect>
<rect fill="#D0D0D0" transform="rotate(45 330.761 199.577)" height="55.7253" width="1" y="199.577" x="330.761"></rect>
<rect fill="#D0D0D0" transform="rotate(45 309.548 178.364)" height="55.7253" width="1" y="178.364" x="309.548"></rect>
<rect fill="#D0D0D0" transform="rotate(45 326.518 195.334)" height="55.7253" width="1" y="195.334" x="326.518"></rect>
<rect fill="#D0D0D0" transform="rotate(45 318.033 186.849)" height="55.7253" width="1" y="186.849" x="318.033"></rect>
<rect fill="#D0D0D0" transform="rotate(45 335.004 203.82)" height="55.7253" width="1" y="203.82" x="335.004"></rect>
<rect fill="#D0D0D0" transform="rotate(45 337.125 205.941)" height="55.7253" width="1" y="205.941" x="337.125"></rect>
<rect fill="#D0D0D0" transform="rotate(45 339.246 208.062)" height="55.7253" width="1" y="208.062" x="339.246"></rect>
<rect fill="#D0D0D0" transform="rotate(45 341.368 210.184)" height="55.7253" width="1" y="210.184" x="341.368"></rect>
</g>
<mask height="38" width="38" y="268" x="284" maskUnits="userSpaceOnUse" style="mask-type:alpha" id="mask31_135_85">
<rect fill="#ECECEC" height="38" width="38" y="268" x="284"></rect>
</mask>
<g mask="url(#mask31_135_85)">
<rect fill="#D0D0D0" transform="rotate(45 303.184 248)" height="55.7253" width="1" y="248" x="303.184"></rect>
<rect fill="#D0D0D0" transform="rotate(45 320.154 264.971)" height="55.7253" width="1" y="264.971" x="320.154"></rect>
<rect fill="#D0D0D0" transform="rotate(45 311.669 256.485)" height="55.7253" width="1" y="256.485" x="311.669"></rect>
<rect fill="#D0D0D0" transform="rotate(45 328.64 273.456)" height="55.7253" width="1" y="273.456" x="328.64"></rect>
<rect fill="#D0D0D0" transform="rotate(45 307.426 252.243)" height="55.7253" width="1" y="252.243" x="307.426"></rect>
<rect fill="#D0D0D0" transform="rotate(45 324.397 269.213)" height="55.7253" width="1" y="269.213" x="324.397"></rect>
<rect fill="#D0D0D0" transform="rotate(45 315.912 260.728)" height="55.7253" width="1" y="260.728" x="315.912"></rect>
<rect fill="#D0D0D0" transform="rotate(45 332.882 277.698)" height="55.7253" width="1" y="277.698" x="332.882"></rect>
<rect fill="#D0D0D0" transform="rotate(45 305.305 250.121)" height="55.7253" width="1" y="250.121" x="305.305"></rect>
<rect fill="#D0D0D0" transform="rotate(45 322.276 267.092)" height="55.7253" width="1" y="267.092" x="322.276"></rect>
<rect fill="#D0D0D0" transform="rotate(45 313.79 258.607)" height="55.7253" width="1" y="258.607" x="313.79"></rect>
<rect fill="#D0D0D0" transform="rotate(45 330.761 275.577)" height="55.7253" width="1" y="275.577" x="330.761"></rect>
<rect fill="#D0D0D0" transform="rotate(45 309.548 254.364)" height="55.7253" width="1" y="254.364" x="309.548"></rect>
<rect fill="#D0D0D0" transform="rotate(45 326.518 271.334)" height="55.7253" width="1" y="271.334" x="326.518"></rect>
<rect fill="#D0D0D0" transform="rotate(45 318.033 262.849)" height="55.7253" width="1" y="262.849" x="318.033"></rect>
<rect fill="#D0D0D0" transform="rotate(45 335.004 279.82)" height="55.7253" width="1" y="279.82" x="335.004"></rect>
<rect fill="#D0D0D0" transform="rotate(45 337.125 281.941)" height="55.7253" width="1" y="281.941" x="337.125"></rect>
<rect fill="#D0D0D0" transform="rotate(45 339.246 284.062)" height="55.7253" width="1" y="284.062" x="339.246"></rect>
<rect fill="#D0D0D0" transform="rotate(45 341.368 286.184)" height="55.7253" width="1" y="286.184" x="341.368"></rect>
</g>
<rect fill="white" height="38" width="38" y="40" x="18"></rect>
<rect fill="white" height="38" width="38" y="116" x="18"></rect>
<rect fill="white" height="38" width="38" y="192" x="18"></rect>
<rect fill="white" height="38" width="38" y="268" x="18"></rect>
<rect fill="white" height="38" width="38" y="40" x="170"></rect>
<rect fill="white" height="38" width="38" y="116" x="170"></rect>
<rect fill="white" height="38" width="38" y="192" x="170"></rect>
<rect fill="white" height="38" width="38" y="268" x="170"></rect>
<rect fill="white" height="38" width="38" y="40" x="94"></rect>
<rect fill="white" height="38" width="38" y="116" x="94"></rect>
<rect fill="white" height="38" width="38" y="192" x="94"></rect>
<rect fill="white" height="38" width="38" y="268" x="94"></rect>
<rect fill="white" height="38" width="38" y="78" x="56"></rect>
<rect fill="white" height="38" width="38" y="154" x="56"></rect>
<rect fill="white" height="38" width="38" y="230" x="56"></rect>
<rect fill="white" height="38" width="38" y="306" x="56"></rect>
<rect fill="white" height="38" width="38" y="78" x="208"></rect>
<rect fill="white" height="38" width="38" y="154" x="208"></rect>
<rect fill="white" height="38" width="38" y="230" x="208"></rect>
<rect fill="white" height="38" width="38" y="78" x="132"></rect>
<rect fill="white" height="38" width="38" y="154" x="132"></rect>
<rect fill="white" height="38" width="38" y="230" x="132"></rect>
<rect fill="white" height="38" width="38" y="306" x="132"></rect>
<rect fill="white" height="38" width="38" y="78" x="284"></rect>
<rect fill="white" height="38" width="38" y="154" x="284"></rect>
<rect fill="white" height="38" width="38" y="230" x="284"></rect>
<rect fill="white" height="38" width="38" y="306" x="284"></rect>
<rect fill="white" height="38" width="38" y="40" x="246"></rect>
<rect fill="white" height="38" width="38" y="116" x="246"></rect>
<rect fill="white" height="38" width="38" y="192" x="246"></rect>
<rect fill="white" height="38" width="38" y="268" x="246"></rect>
<rect fill="white" height="38" width="38" y="306" x="208"></rect>
<rect fill="#0D0E12" height="30" width="132" y="314" x="330"></rect>
<rect fill="#0D0E12" height="30" width="132" y="40" x="330"></rect>
<path fill="#7F899B" d="M34.502 354L36.394 345.09H37.593L39.496 354H38.319L37.912 351.756H36.097L35.668 354H34.502ZM36.262 350.865H37.747L36.999 346.85L36.262 350.865Z"></path>
<path fill="#7F899B" d="M13.5197 330V322.63C13.5123 322.637 13.428 322.659 13.2667 322.696C13.1127 322.733 12.9367 322.769 12.7387 322.806C12.5407 322.843 12.3647 322.876 12.2107 322.905C12.0567 322.934 11.976 322.949 11.9687 322.949V322.058C12.0933 322.029 12.2363 321.988 12.3977 321.937C12.5663 321.886 12.735 321.823 12.9037 321.75C13.0797 321.677 13.2447 321.585 13.3987 321.475C13.56 321.365 13.6957 321.237 13.8057 321.09H14.6967V330H13.5197Z"></path>
<path fill="#7F899B" d="M10.1981 290V289.164L12.4641 285.633C12.6327 285.369 12.7867 285.123 12.9261 284.896C13.0727 284.669 13.1901 284.43 13.2781 284.181C13.3734 283.924 13.4211 283.631 13.4211 283.301C13.4211 282.89 13.3551 282.568 13.2231 282.333C13.0911 282.098 12.8601 281.981 12.5301 281.981C12.2514 281.981 12.0351 282.058 11.8811 282.212C11.7271 282.366 11.6207 282.568 11.5621 282.817C11.5034 283.066 11.4741 283.334 11.4741 283.62V283.917H10.2971V283.609C10.2971 283.074 10.3667 282.615 10.5061 282.234C10.6527 281.845 10.8837 281.545 11.1991 281.332C11.5217 281.119 11.9471 281.013 12.4751 281.013C13.1937 281.013 13.7291 281.218 14.0811 281.629C14.4331 282.032 14.6091 282.593 14.6091 283.312C14.6091 283.693 14.5614 284.027 14.4661 284.313C14.3781 284.599 14.2607 284.867 14.1141 285.116C13.9674 285.365 13.8061 285.622 13.6301 285.886L11.5841 289.01H14.4001V290H10.1981Z"></path>
<path fill="#7F899B" d="M12.3758 254.099C11.8918 254.099 11.4885 254.007 11.1658 253.824C10.8431 253.641 10.6011 253.377 10.4398 253.032C10.2785 252.687 10.1978 252.28 10.1978 251.811V251.514H11.3638C11.3638 251.543 11.3638 251.576 11.3638 251.613C11.3638 251.642 11.3638 251.675 11.3638 251.712C11.3711 251.976 11.4005 252.214 11.4518 252.427C11.5105 252.64 11.6095 252.808 11.7488 252.933C11.8955 253.058 12.1045 253.12 12.3758 253.12C12.6618 253.12 12.8781 253.054 13.0248 252.922C13.1715 252.783 13.2705 252.588 13.3218 252.339C13.3731 252.09 13.3988 251.804 13.3988 251.481C13.3988 251.012 13.3108 250.63 13.1348 250.337C12.9661 250.036 12.6655 249.871 12.2328 249.842C12.2108 249.835 12.1815 249.831 12.1448 249.831C12.1155 249.831 12.0898 249.831 12.0678 249.831V248.654C12.0898 248.654 12.1155 248.654 12.1448 248.654C12.1741 248.654 12.1998 248.654 12.2218 248.654C12.6398 248.639 12.9405 248.529 13.1238 248.324C13.3071 248.119 13.3988 247.778 13.3988 247.301C13.3988 246.898 13.3291 246.575 13.1898 246.333C13.0578 246.091 12.7901 245.97 12.3868 245.97C11.9835 245.97 11.7158 246.106 11.5838 246.377C11.4518 246.641 11.3785 246.982 11.3638 247.4C11.3638 247.429 11.3638 247.462 11.3638 247.499C11.3638 247.528 11.3638 247.558 11.3638 247.587H10.1978V247.29C10.1978 246.813 10.2785 246.406 10.4398 246.069C10.6011 245.732 10.8431 245.471 11.1658 245.288C11.4958 245.105 11.9028 245.013 12.3868 245.013C12.8781 245.013 13.2851 245.105 13.6078 245.288C13.9305 245.471 14.1725 245.735 14.3338 246.08C14.4951 246.417 14.5758 246.824 14.5758 247.301C14.5758 247.836 14.4585 248.265 14.2238 248.588C13.9965 248.911 13.6885 249.131 13.2998 249.248C13.5711 249.329 13.7985 249.468 13.9818 249.666C14.1725 249.864 14.3191 250.117 14.4218 250.425C14.5245 250.726 14.5758 251.078 14.5758 251.481C14.5758 252.009 14.5025 252.471 14.3558 252.867C14.2091 253.256 13.9745 253.56 13.6518 253.78C13.3291 253.993 12.9038 254.099 12.3758 254.099Z"></path>
<path fill="#7F899B" d="M12.7076 216V213.613H10.1226V212.381L12.4436 207.09H13.8296V212.568H14.8306V213.613H13.8296V216H12.7076ZM11.2556 212.568H12.7076V208.52L11.2556 212.568Z"></path>
<path fill="#7F899B" d="M12.4416 178.088C11.9062 178.088 11.4809 177.985 11.1656 177.78C10.8502 177.575 10.6229 177.278 10.4836 176.889C10.3516 176.5 10.2856 176.038 10.2856 175.503H11.4626C11.4626 175.767 11.4846 176.027 11.5286 176.284C11.5726 176.533 11.6642 176.742 11.8036 176.911C11.9502 177.072 12.1702 177.153 12.4636 177.153C12.7862 177.153 13.0172 177.061 13.1566 176.878C13.2959 176.687 13.3839 176.434 13.4206 176.119C13.4572 175.796 13.4756 175.433 13.4756 175.03C13.4756 174.627 13.4536 174.286 13.4096 174.007C13.3656 173.721 13.2739 173.505 13.1346 173.358C12.9952 173.204 12.7752 173.127 12.4746 173.127C12.2326 173.127 12.0272 173.204 11.8586 173.358C11.6899 173.505 11.5652 173.673 11.4846 173.864H10.4836V169.09H14.3226V170.267H11.5506L11.4736 172.731C11.6202 172.577 11.7999 172.456 12.0126 172.368C12.2326 172.28 12.4819 172.236 12.7606 172.236C13.2446 172.236 13.6222 172.35 13.8936 172.577C14.1722 172.804 14.3666 173.116 14.4766 173.512C14.5939 173.908 14.6526 174.363 14.6526 174.876C14.6526 175.331 14.6196 175.756 14.5536 176.152C14.4876 176.541 14.3702 176.882 14.2016 177.175C14.0402 177.461 13.8166 177.685 13.5306 177.846C13.2446 178.007 12.8816 178.088 12.4416 178.088Z"></path>
<path fill="#7F899B" d="M12.2948 140.099C11.7814 140.099 11.3634 139.971 11.0408 139.714C10.7181 139.45 10.4798 139.098 10.3258 138.658C10.1791 138.211 10.1058 137.716 10.1058 137.173V134.17C10.1058 133.591 10.1718 133.063 10.3038 132.586C10.4358 132.109 10.6594 131.728 10.9748 131.442C11.2974 131.156 11.7374 131.013 12.2948 131.013C12.7568 131.013 13.1454 131.097 13.4608 131.266C13.7834 131.435 14.0291 131.68 14.1978 132.003C14.3738 132.326 14.4654 132.718 14.4728 133.18C14.4728 133.195 14.4728 133.217 14.4728 133.246C14.4801 133.268 14.4838 133.29 14.4838 133.312H13.2958C13.2958 132.879 13.2261 132.549 13.0868 132.322C12.9474 132.095 12.6834 131.981 12.2948 131.981C12.0821 131.981 11.8988 132.051 11.7448 132.19C11.5908 132.322 11.4734 132.527 11.3928 132.806C11.3194 133.085 11.2828 133.444 11.2828 133.884V135.237C11.4001 135.054 11.5651 134.907 11.7778 134.797C11.9978 134.68 12.2654 134.621 12.5808 134.621C13.0721 134.621 13.4571 134.727 13.7358 134.94C14.0144 135.153 14.2124 135.453 14.3298 135.842C14.4471 136.223 14.5058 136.674 14.5058 137.195C14.5058 137.73 14.4324 138.218 14.2858 138.658C14.1391 139.098 13.9044 139.45 13.5818 139.714C13.2591 139.971 12.8301 140.099 12.2948 140.099ZM12.2948 139.12C12.5588 139.12 12.7641 139.047 12.9108 138.9C13.0574 138.746 13.1601 138.544 13.2188 138.295C13.2848 138.046 13.3178 137.774 13.3178 137.481C13.3178 137.129 13.2994 136.803 13.2628 136.502C13.2334 136.201 13.1491 135.963 13.0098 135.787C12.8704 135.604 12.6321 135.512 12.2948 135.512C12.1334 135.512 11.9868 135.541 11.8548 135.6C11.7228 135.659 11.6091 135.736 11.5138 135.831C11.4184 135.919 11.3414 136.014 11.2828 136.117V137.448C11.2828 137.749 11.3121 138.027 11.3708 138.284C11.4368 138.541 11.5431 138.746 11.6898 138.9C11.8364 139.047 12.0381 139.12 12.2948 139.12Z"></path>
<path fill="#7F899B" d="M11.7798 102L13.3858 94.014H10.9988V93.09H14.5628V93.662L12.9128 102H11.7798Z"></path>
<path fill="#7F899B" d="M12.2607 65.099C11.7254 65.099 11.2964 64.9927 10.9737 64.78C10.6511 64.5673 10.4164 64.2667 10.2697 63.878C10.1304 63.482 10.0607 63.02 10.0607 62.492C10.0607 62.1913 10.0864 61.9273 10.1377 61.7C10.1891 61.4727 10.2624 61.2747 10.3577 61.106C10.4604 60.93 10.5777 60.7797 10.7097 60.655C10.8491 60.523 10.9994 60.4057 11.1607 60.303C10.8674 60.105 10.6291 59.8483 10.4457 59.533C10.2624 59.2103 10.1707 58.8033 10.1707 58.312C10.1707 57.8427 10.2441 57.4357 10.3907 57.091C10.5374 56.7463 10.7647 56.4823 11.0727 56.299C11.3881 56.1083 11.7841 56.013 12.2607 56.013C12.7374 56.013 13.1261 56.1083 13.4267 56.299C13.7347 56.4823 13.9621 56.7463 14.1087 57.091C14.2554 57.4357 14.3287 57.8427 14.3287 58.312C14.3287 58.8107 14.2371 59.2177 14.0537 59.533C13.8777 59.8483 13.6394 60.105 13.3387 60.303C13.5001 60.4057 13.6467 60.523 13.7787 60.655C13.9181 60.7797 14.0354 60.93 14.1307 61.106C14.2334 61.2747 14.3104 61.4727 14.3617 61.7C14.4204 61.9273 14.4497 62.1913 14.4497 62.492C14.4497 63.02 14.3764 63.482 14.2297 63.878C14.0904 64.2667 13.8594 64.5673 13.5367 64.78C13.2214 64.9927 12.7961 65.099 12.2607 65.099ZM12.2607 64.164C12.5467 64.164 12.7667 64.0907 12.9207 63.944C13.0747 63.7973 13.1774 63.5993 13.2287 63.35C13.2874 63.1007 13.3167 62.822 13.3167 62.514C13.3167 62.2353 13.2837 61.975 13.2177 61.733C13.1591 61.4837 13.0527 61.282 12.8987 61.128C12.7447 60.9667 12.5321 60.886 12.2607 60.886C11.9894 60.886 11.7731 60.963 11.6117 61.117C11.4577 61.271 11.3477 61.4727 11.2817 61.722C11.2157 61.964 11.1827 62.228 11.1827 62.514C11.1827 62.822 11.2121 63.1007 11.2707 63.35C11.3294 63.5993 11.4357 63.7973 11.5897 63.944C11.7511 64.0907 11.9747 64.164 12.2607 64.164ZM12.2607 59.764C12.5101 59.7567 12.6971 59.6797 12.8217 59.533C12.9537 59.3863 13.0454 59.1993 13.0967 58.972C13.1481 58.7373 13.1737 58.4953 13.1737 58.246C13.1737 57.8793 13.1077 57.5677 12.9757 57.311C12.8437 57.0543 12.6054 56.926 12.2607 56.926C11.9161 56.926 11.6741 57.0543 11.5347 57.311C11.3954 57.5677 11.3257 57.8793 11.3257 58.246C11.3257 58.4953 11.3514 58.7373 11.4027 58.972C11.4541 59.1993 11.5457 59.3863 11.6777 59.533C11.8171 59.6797 12.0114 59.7567 12.2607 59.764Z"></path>
<path fill="#7F899B" d="M72.8087 354V345.09H74.8547C75.2581 345.09 75.6064 345.134 75.8997 345.222C76.2004 345.31 76.4497 345.446 76.6477 345.629C76.8457 345.812 76.9924 346.047 77.0877 346.333C77.1831 346.612 77.2307 346.942 77.2307 347.323C77.2307 347.69 77.1831 348.009 77.0877 348.28C76.9997 348.544 76.8604 348.753 76.6697 348.907C76.4864 349.061 76.2481 349.16 75.9547 349.204C76.3141 349.285 76.6037 349.424 76.8237 349.622C77.0437 349.813 77.2051 350.062 77.3077 350.37C77.4177 350.671 77.4727 351.034 77.4727 351.459C77.4727 351.84 77.4287 352.189 77.3407 352.504C77.2527 352.819 77.1134 353.087 76.9227 353.307C76.7394 353.527 76.5011 353.699 76.2077 353.824C75.9217 353.941 75.5807 354 75.1847 354H72.8087ZM74.0517 353.109H74.8877C75.4451 353.109 75.8154 352.981 75.9987 352.724C76.1894 352.46 76.2847 352.038 76.2847 351.459C76.2847 351.085 76.2334 350.773 76.1307 350.524C76.0354 350.267 75.8777 350.077 75.6577 349.952C75.4451 349.82 75.1554 349.754 74.7887 349.754H74.0517V353.109ZM74.0517 348.808H74.7887C75.1407 348.808 75.4157 348.76 75.6137 348.665C75.8117 348.562 75.9511 348.401 76.0317 348.181C76.1124 347.961 76.1527 347.675 76.1527 347.323C76.1527 346.912 76.0904 346.615 75.9657 346.432C75.8411 346.249 75.6467 346.135 75.3827 346.091C75.1187 346.04 74.7741 346.014 74.3487 346.014H74.0517V348.808Z"></path>
<path fill="#7F899B" d="M113.095 354.099C112.465 354.099 111.973 353.967 111.621 353.703C111.277 353.439 111.035 353.083 110.895 352.636C110.763 352.189 110.697 351.69 110.697 351.14V347.994C110.697 347.393 110.763 346.868 110.895 346.421C111.035 345.974 111.277 345.629 111.621 345.387C111.973 345.138 112.465 345.013 113.095 345.013C113.653 345.013 114.093 345.116 114.415 345.321C114.745 345.526 114.98 345.82 115.119 346.201C115.266 346.582 115.339 347.041 115.339 347.576V348.28H114.162V347.653C114.162 347.323 114.144 347.033 114.107 346.784C114.078 346.527 113.99 346.329 113.843 346.19C113.697 346.051 113.451 345.981 113.106 345.981C112.754 345.981 112.498 346.058 112.336 346.212C112.175 346.359 112.069 346.571 112.017 346.85C111.973 347.121 111.951 347.44 111.951 347.807V351.338C111.951 351.785 111.988 352.141 112.061 352.405C112.135 352.662 112.256 352.845 112.424 352.955C112.593 353.065 112.82 353.12 113.106 353.12C113.444 353.12 113.686 353.047 113.832 352.9C113.979 352.746 114.071 352.537 114.107 352.273C114.144 352.009 114.162 351.701 114.162 351.349V350.689H115.339V351.349C115.339 351.892 115.273 352.372 115.141 352.79C115.009 353.201 114.782 353.523 114.459 353.758C114.137 353.985 113.682 354.099 113.095 354.099Z"></path>
<path fill="#7F899B" d="M148.793 354V345.09H150.729C151.389 345.09 151.909 345.193 152.291 345.398C152.679 345.596 152.954 345.897 153.116 346.3C153.284 346.703 153.369 347.206 153.369 347.807V351.085C153.369 351.716 153.284 352.247 153.116 352.68C152.954 353.113 152.687 353.443 152.313 353.67C151.946 353.89 151.451 354 150.828 354H148.793ZM150.036 353.109H150.74C151.194 353.109 151.517 353.021 151.708 352.845C151.898 352.669 152.012 352.412 152.049 352.075C152.093 351.738 152.115 351.331 152.115 350.854V347.961C152.115 347.499 152.085 347.125 152.027 346.839C151.968 346.553 151.84 346.344 151.642 346.212C151.444 346.08 151.132 346.014 150.707 346.014H150.036V353.109Z"></path>
<path fill="#7F899B" d="M187.953 354V345.09H191.407V346.014H189.196V348.962H190.989V349.842H189.196V353.109H191.429V354H187.953Z"></path>
<path fill="#7F899B" d="M226.045 354V345.09H229.488V345.981H227.288V348.951H228.993V349.831H227.288V354H226.045Z"></path>
<path fill="#7F899B" d="M264.873 354.11C264.315 354.11 263.868 353.993 263.531 353.758C263.201 353.516 262.959 353.168 262.805 352.713C262.658 352.258 262.585 351.712 262.585 351.074V348.093C262.585 347.44 262.651 346.887 262.783 346.432C262.922 345.97 263.164 345.618 263.509 345.376C263.861 345.134 264.348 345.013 264.972 345.013C265.529 345.013 265.976 345.108 266.314 345.299C266.658 345.482 266.908 345.768 267.062 346.157C267.216 346.538 267.293 347.022 267.293 347.609V347.939H266.127V347.664C266.127 347.275 266.101 346.96 266.05 346.718C265.998 346.469 265.892 346.285 265.731 346.168C265.577 346.043 265.331 345.981 264.994 345.981C264.627 345.981 264.359 346.065 264.191 346.234C264.029 346.403 263.927 346.634 263.883 346.927C263.846 347.213 263.828 347.539 263.828 347.906V351.206C263.828 351.631 263.857 351.987 263.916 352.273C263.982 352.559 264.103 352.772 264.279 352.911C264.455 353.05 264.704 353.12 265.027 353.12C265.349 353.12 265.599 353.043 265.775 352.889C265.951 352.735 266.072 352.508 266.138 352.207C266.204 351.906 266.237 351.532 266.237 351.085V350.469H265.104V349.589H267.359V354H266.578L266.457 352.977C266.339 353.307 266.156 353.578 265.907 353.791C265.657 354.004 265.313 354.11 264.873 354.11Z"></path>
<path fill="#7F899B" d="M300.11 354V345.09H301.353V348.94H303.641V345.09H304.884V354H303.641V349.831H301.353V354H300.11Z"></path>
<path fill="#F1F1F1" d="M330 109H462V249H330V109Z"></path>
<rect fill="#F1F1F1" height="4" width="100" y="100" x="362"></rect>
<rect fill="#F1F1F1" height="4" width="100" y="305" x="362"></rect>
<rect fill="#393939" height="1" width="480" y="29"></rect>
<path fill="white" d="M329.72 21V11.28H333.92V12.732H331.868V15.18H333.656V16.68H331.868V21H329.72ZM334.923 21V11.28H338.187C338.771 11.28 339.251 11.392 339.627 11.616C340.003 11.832 340.283 12.152 340.467 12.576C340.651 12.992 340.743 13.5 340.743 14.1C340.743 14.852 340.619 15.428 340.371 15.828C340.123 16.22 339.787 16.492 339.363 16.644C338.939 16.796 338.463 16.872 337.935 16.872H337.071V21H334.923ZM337.071 15.372H337.791C338.055 15.372 338.255 15.324 338.391 15.228C338.527 15.132 338.615 14.988 338.655 14.796C338.703 14.604 338.727 14.36 338.727 14.064C338.727 13.816 338.707 13.6 338.667 13.416C338.635 13.224 338.551 13.072 338.415 12.96C338.279 12.848 338.067 12.792 337.779 12.792H337.071V15.372ZM344.265 21.144C343.657 21.144 343.149 21.036 342.741 20.82C342.333 20.604 342.025 20.272 341.817 19.824C341.609 19.368 341.493 18.78 341.469 18.06L343.305 17.784C343.313 18.2 343.349 18.536 343.413 18.792C343.485 19.048 343.581 19.232 343.701 19.344C343.829 19.456 343.981 19.512 344.157 19.512C344.381 19.512 344.525 19.436 344.589 19.284C344.661 19.132 344.697 18.972 344.697 18.804C344.697 18.404 344.601 18.068 344.409 17.796C344.217 17.516 343.957 17.236 343.629 16.956L342.789 16.224C342.421 15.912 342.109 15.56 341.853 15.168C341.605 14.768 341.481 14.276 341.481 13.692C341.481 12.868 341.725 12.24 342.213 11.808C342.701 11.368 343.365 11.148 344.205 11.148C344.725 11.148 345.141 11.236 345.453 11.412C345.773 11.588 346.013 11.82 346.173 12.108C346.341 12.388 346.453 12.688 346.509 13.008C346.573 13.32 346.609 13.62 346.617 13.908L344.769 14.136C344.761 13.848 344.741 13.6 344.709 13.392C344.685 13.176 344.629 13.012 344.541 12.9C344.453 12.78 344.317 12.72 344.133 12.72C343.933 12.72 343.785 12.804 343.689 12.972C343.601 13.14 343.557 13.308 343.557 13.476C343.557 13.836 343.641 14.132 343.809 14.364C343.985 14.588 344.213 14.824 344.493 15.072L345.297 15.78C345.721 16.14 346.077 16.548 346.365 17.004C346.661 17.46 346.809 18.024 346.809 18.696C346.809 19.152 346.705 19.568 346.497 19.944C346.289 20.312 345.993 20.604 345.609 20.82C345.233 21.036 344.785 21.144 344.265 21.144ZM347.933 16.056V14.232H349.757V16.056H347.933ZM347.933 20.328V18.504H349.757V20.328H347.933Z"></path>
</svg>
