<svg xmlns="http://www.w3.org/2000/svg" fill="none" viewBox="0 0 7 19" height="19" width="7">
<path fill-opacity="0.01" fill="white" d="M0 0H7V19H0V0Z"></path>
<path fill="#45D2FF" d="M0.792266 14V4.28H4.05627C4.64027 4.28 5.12027 4.392 5.49627 4.616C5.87227 4.832 6.15227 5.152 6.33627 5.576C6.52027 5.992 6.61227 6.5 6.61227 7.1C6.61227 7.852 6.48827 8.428 6.24027 8.828C5.99227 9.22 5.65627 9.492 5.23227 9.644C4.80827 9.796 4.33227 9.872 3.80427 9.872H2.94027V14H0.792266ZM2.94027 8.372H3.66027C3.92427 8.372 4.12427 8.324 4.26027 8.228C4.39627 8.132 4.48427 7.988 4.52427 7.796C4.57227 7.604 4.59627 7.36 4.59627 7.064C4.59627 6.816 4.57627 6.6 4.53627 6.416C4.50427 6.224 4.42027 6.072 4.28427 5.96C4.14827 5.848 3.93627 5.792 3.64827 5.792H2.94027V8.372Z"></path>
</svg>
