<svg xmlns="http://www.w3.org/2000/svg" fill="none" viewBox="0 0 9 19" height="19" width="9">
<path fill-opacity="0.01" fill="white" d="M0.5 -3.32919e-05L9 0V19L0.5 19V-3.32919e-05Z"></path>
<path fill="#45D2FF" d="M2.81698 13.9999V5.74388H1.06498V4.27988H4.96498V8.38388H5.51698C6.13298 8.38388 6.65298 8.48388 7.07698 8.68388C7.50898 8.88388 7.83298 9.19188 8.04899 9.60788C8.27298 10.0159 8.38498 10.5439 8.38498 11.1919C8.38498 11.7839 8.30498 12.2639 8.14498 12.6319C7.99298 12.9999 7.77698 13.2839 7.49698 13.4839C7.21698 13.6839 6.88898 13.8199 6.51298 13.8919C6.14498 13.9639 5.74898 13.9999 5.32498 13.9999H2.81698ZM4.96498 12.5959H5.33698C5.60898 12.5959 5.82098 12.5439 5.97298 12.4399C6.13298 12.3359 6.24498 12.1759 6.30898 11.9599C6.38098 11.7439 6.41298 11.4719 6.40498 11.1439C6.39698 10.7839 6.32098 10.4839 6.17698 10.2439C6.03298 9.99588 5.74098 9.87188 5.30098 9.87188H4.96498V12.5959Z"></path>
</svg>
