<svg xmlns="http://www.w3.org/2000/svg" fill="none" viewBox="0 0 140 26" height="26" width="140">
<rect stroke="#0D0E12" fill="#0D0E12" height="21" width="139" y="2.5" x="0.5"></rect>
<path fill="white" d="M67.63 17V8.9H69.42V12.18H70.67V8.9H72.47V17H70.67V13.46H69.42V17H67.63ZM73.7035 17V8.9H77.3435V10.12H75.4935V12.13H76.9035V13.37H75.4935V15.79H77.3635V17H73.7035ZM78.1762 17V8.9H79.9662V15.79H81.8262V17H78.1762ZM82.6098 17V8.9H85.3298C85.8164 8.9 86.2164 8.99333 86.5298 9.18C86.8431 9.36 87.0764 9.62667 87.2298 9.98C87.3831 10.3267 87.4598 10.75 87.4598 11.25C87.4598 11.8767 87.3564 12.3567 87.1498 12.69C86.9431 13.0167 86.6631 13.2433 86.3098 13.37C85.9564 13.4967 85.5598 13.56 85.1198 13.56H84.3998V17H82.6098ZM84.3998 12.31H84.9998C85.2198 12.31 85.3864 12.27 85.4998 12.19C85.6131 12.11 85.6864 11.99 85.7198 11.83C85.7598 11.67 85.7798 11.4667 85.7798 11.22C85.7798 11.0133 85.7631 10.8333 85.7298 10.68C85.7031 10.52 85.6331 10.3933 85.5198 10.3C85.4064 10.2067 85.2298 10.16 84.9898 10.16H84.3998V12.31Z"></path>
<mask fill="white" id="path-3-inside-1_550_200">
<path d="M61.7088 9.488C61.7088 10.848 61.4608 11.896 60.9648 12.632C60.4688 13.352 59.6048 13.936 58.3728 14.384V15.8H53.4288V13.328C53.4288 12.736 53.5328 12.32 53.7408 12.08C53.9648 11.824 54.3168 11.6 54.7968 11.408C55.2928 11.2 55.5968 11.032 55.7088 10.904C55.8368 10.76 55.9008 10.568 55.9008 10.328C55.9008 9.88 55.6608 9.656 55.1808 9.656C54.8448 9.656 53.9648 9.744 52.5408 9.92V5.312C53.9488 5.104 55.2128 5 56.3328 5C59.9168 5 61.7088 6.496 61.7088 9.488ZM53.2368 18.584V17.84C53.2368 17.248 53.4048 16.832 53.7408 16.592C54.0928 16.336 54.6688 16.208 55.4688 16.208H56.2128C57.0928 16.208 57.7008 16.336 58.0368 16.592C58.3888 16.832 58.5648 17.248 58.5648 17.84V18.584C58.5648 19.192 58.3888 19.624 58.0368 19.88C57.6848 20.12 57.0608 20.24 56.1648 20.24H55.3968C54.6128 20.24 54.0528 20.12 53.7168 19.88C53.3968 19.64 53.2368 19.208 53.2368 18.584Z"></path>
</mask>
<path fill="white" d="M61.7088 9.488C61.7088 10.848 61.4608 11.896 60.9648 12.632C60.4688 13.352 59.6048 13.936 58.3728 14.384V15.8H53.4288V13.328C53.4288 12.736 53.5328 12.32 53.7408 12.08C53.9648 11.824 54.3168 11.6 54.7968 11.408C55.2928 11.2 55.5968 11.032 55.7088 10.904C55.8368 10.76 55.9008 10.568 55.9008 10.328C55.9008 9.88 55.6608 9.656 55.1808 9.656C54.8448 9.656 53.9648 9.744 52.5408 9.92V5.312C53.9488 5.104 55.2128 5 56.3328 5C59.9168 5 61.7088 6.496 61.7088 9.488ZM53.2368 18.584V17.84C53.2368 17.248 53.4048 16.832 53.7408 16.592C54.0928 16.336 54.6688 16.208 55.4688 16.208H56.2128C57.0928 16.208 57.7008 16.336 58.0368 16.592C58.3888 16.832 58.5648 17.248 58.5648 17.84V18.584C58.5648 19.192 58.3888 19.624 58.0368 19.88C57.6848 20.12 57.0608 20.24 56.1648 20.24H55.3968C54.6128 20.24 54.0528 20.12 53.7168 19.88C53.3968 19.64 53.2368 19.208 53.2368 18.584Z"></path>
<path mask="url(#path-3-inside-1_550_200)" fill="#0D0E12" d="M60.9648 12.632L61.7883 13.1993L61.794 13.1909L60.9648 12.632ZM58.3728 14.384L58.031 13.4442L57.3728 13.6836V14.384H58.3728ZM58.3728 15.8V16.8H59.3728V15.8H58.3728ZM53.4288 15.8H52.4288V16.8H53.4288V15.8ZM53.7408 12.08L52.9882 11.4215L52.9851 11.4251L53.7408 12.08ZM54.7968 11.408L55.1682 12.3365L55.1759 12.3334L55.1835 12.3302L54.7968 11.408ZM55.7088 10.904L54.9613 10.2396L54.9562 10.2455L55.7088 10.904ZM52.5408 9.92H51.5408V11.0512L52.6634 10.9124L52.5408 9.92ZM52.5408 5.312L52.3946 4.32273L51.5408 4.44887V5.312H52.5408ZM53.7408 16.592L54.322 17.4058L54.329 17.4007L53.7408 16.592ZM58.0368 16.592L57.4307 17.3874L57.4517 17.4034L57.4734 17.4182L58.0368 16.592ZM58.0368 19.88L58.6001 20.7062L58.6127 20.6977L58.625 20.6887L58.0368 19.88ZM53.7168 19.88L53.1168 20.68L53.1261 20.687L53.1355 20.6937L53.7168 19.88ZM60.7088 9.488C60.7088 10.7476 60.4755 11.5686 60.1355 12.0731L61.794 13.1909C62.446 12.2234 62.7088 10.9484 62.7088 9.488H60.7088ZM60.1413 12.0647C59.8088 12.5473 59.1599 13.0337 58.031 13.4442L58.7145 15.3238C60.0497 14.8383 61.1288 14.1567 61.7883 13.1993L60.1413 12.0647ZM57.3728 14.384V15.8H59.3728V14.384H57.3728ZM58.3728 14.8H53.4288V16.8H58.3728V14.8ZM54.4288 15.8V13.328H52.4288V15.8H54.4288ZM54.4288 13.328C54.4288 13.0852 54.4507 12.9196 54.4769 12.8145C54.5035 12.7081 54.5249 12.7021 54.4965 12.7349L52.9851 11.4251C52.531 11.9491 52.4288 12.6785 52.4288 13.328H54.4288ZM54.4934 12.7385C54.5733 12.6471 54.7653 12.4976 55.1682 12.3365L54.4254 10.4795C53.8683 10.7024 53.3563 11.0009 52.9882 11.4215L54.4934 12.7385ZM55.1835 12.3302C55.4488 12.2189 55.6849 12.1093 55.8805 12.0012C56.0508 11.9071 56.2847 11.7644 56.4614 11.5625L54.9562 10.2455C54.9982 10.1975 55.0258 10.1808 55.009 10.1927C54.9966 10.2015 54.9669 10.221 54.9131 10.2508C54.8047 10.3107 54.6407 10.3891 54.4101 10.4858L55.1835 12.3302ZM56.4562 11.5684C56.7841 11.1994 56.9008 10.7504 56.9008 10.328H54.9008C54.9008 10.3599 54.8965 10.3587 54.9041 10.3358C54.9127 10.3099 54.9309 10.2739 54.9614 10.2396L56.4562 11.5684ZM56.9008 10.328C56.9008 9.9315 56.7913 9.45528 56.4031 9.09294C56.0279 8.74273 55.5584 8.656 55.1808 8.656V10.656C55.2831 10.656 55.1737 10.6813 55.0385 10.5551C54.8902 10.4167 54.9008 10.2765 54.9008 10.328H56.9008ZM55.1808 8.656C54.7686 8.656 53.8165 8.75472 52.4181 8.92755L52.6634 10.9124C54.1131 10.7333 54.921 10.656 55.1808 10.656V8.656ZM53.5408 9.92V5.312H51.5408V9.92H53.5408ZM52.6869 6.30126C54.0588 6.0986 55.2727 6 56.3328 6V4C55.1529 4 53.8387 4.1094 52.3946 4.32273L52.6869 6.30126ZM56.3328 6C58.0102 6 59.0821 6.35383 59.7239 6.88966C60.3312 7.39662 60.7088 8.19835 60.7088 9.488H62.7088C62.7088 7.78565 62.1904 6.34338 61.0056 5.35434C59.8555 4.39417 58.2394 4 56.3328 4V6ZM54.2368 18.584V17.84H52.2368V18.584H54.2368ZM54.2368 17.84C54.2368 17.6335 54.2668 17.5161 54.29 17.4585C54.301 17.4314 54.3099 17.4186 54.3133 17.4142C54.3163 17.4103 54.3184 17.4083 54.322 17.4057L53.1595 15.7783C52.4592 16.2785 52.2368 17.0742 52.2368 17.84H54.2368ZM54.329 17.4007C54.4176 17.3363 54.7264 17.208 55.4688 17.208V15.208C54.6112 15.208 53.7679 15.3357 53.1526 15.7833L54.329 17.4007ZM55.4688 17.208H56.2128V15.208H55.4688V17.208ZM56.2128 17.208C57.0686 17.208 57.3777 17.347 57.4307 17.3874L58.6428 15.7966C58.0239 15.325 57.117 15.208 56.2128 15.208V17.208ZM57.4734 17.4182C57.4811 17.4234 57.4939 17.4313 57.5118 17.4736C57.5342 17.5265 57.5648 17.6383 57.5648 17.84H59.5648C59.5648 17.0573 59.3236 16.259 58.6001 15.7658L57.4734 17.4182ZM57.5648 17.84V18.584H59.5648V17.84H57.5648ZM57.5648 18.584C57.5648 18.796 57.5335 18.9208 57.5067 18.9867C57.4837 19.0431 57.4631 19.0607 57.4486 19.0713L58.625 20.6887C59.329 20.1767 59.5648 19.3758 59.5648 18.584H57.5648ZM57.4734 19.0538C57.3909 19.1101 57.0389 19.24 56.1648 19.24V21.24C57.0827 21.24 57.9787 21.1299 58.6001 20.7062L57.4734 19.0538ZM56.1648 19.24H55.3968V21.24H56.1648V19.24ZM55.3968 19.24C54.6614 19.24 54.3692 19.1171 54.298 19.0663L53.1355 20.6937C53.7364 21.1229 54.5642 21.24 55.3968 21.24V19.24ZM54.3168 19.08C54.3328 19.092 54.3182 19.0925 54.2945 19.0287C54.2674 18.9555 54.2368 18.8167 54.2368 18.584H52.2368C52.2368 19.343 52.4295 20.1645 53.1168 20.68L54.3168 19.08Z"></path>
</svg>
