<svg xmlns="http://www.w3.org/2000/svg" fill="none" viewBox="0 0 156 56" height="56" width="156">
<rect stroke="white" fill="#0D0E12" height="55" width="155" y="0.5" x="0.5"></rect>
<path fill="white" d="M43.7834 16V10.22H45.8334C46.4134 10.22 46.8501 10.2833 47.1434 10.41C47.4368 10.53 47.6334 10.6967 47.7334 10.91C47.8334 11.1233 47.8834 11.3733 47.8834 11.66C47.8834 12.04 47.8001 12.32 47.6334 12.5C47.4734 12.6733 47.2601 12.7967 46.9934 12.87C47.2734 12.9367 47.4868 13.0367 47.6334 13.17C47.7801 13.3033 47.8801 13.4667 47.9334 13.66C47.9934 13.8533 48.0234 14.0767 48.0234 14.33C48.0234 14.7033 47.9534 15.0167 47.8134 15.27C47.6734 15.5167 47.4368 15.7 47.1034 15.82C46.7701 15.94 46.3168 16 45.7434 16H43.7834ZM45.4034 15.1H45.6734C45.8201 15.1 45.9501 15.0867 46.0634 15.06C46.1768 15.0333 46.2668 14.9633 46.3334 14.85C46.4068 14.73 46.4434 14.54 46.4434 14.28C46.4434 13.9867 46.4101 13.7767 46.3434 13.65C46.2834 13.5233 46.1968 13.4467 46.0834 13.42C45.9701 13.3933 45.8368 13.38 45.6834 13.38H45.4034V15.1ZM45.4034 12.5H45.8134C46.0068 12.5 46.1401 12.44 46.2134 12.32C46.2868 12.1933 46.3234 12.02 46.3234 11.8C46.3234 11.5867 46.2834 11.41 46.2034 11.27C46.1301 11.13 45.9601 11.06 45.6934 11.06H45.4034V12.5ZM48.8323 17.9V10.22H50.4623V10.64C50.6556 10.4667 50.8623 10.3367 51.0823 10.25C51.3023 10.1633 51.5123 10.12 51.7123 10.12C51.9323 10.12 52.1189 10.1633 52.2723 10.25C52.4323 10.3367 52.5623 10.46 52.6623 10.62C52.7623 10.7733 52.8356 10.9533 52.8823 11.16C52.9289 11.3667 52.9523 11.5867 52.9523 11.82V14.31C52.9523 14.67 52.9023 14.9833 52.8023 15.25C52.7089 15.5167 52.5689 15.7267 52.3823 15.88C52.1956 16.0267 51.9656 16.1 51.6923 16.1C51.4856 16.1 51.2756 16.0533 51.0623 15.96C50.8556 15.86 50.6556 15.7267 50.4623 15.56V17.9H48.8323ZM50.8923 15.05C50.9989 15.05 51.0823 15.02 51.1423 14.96C51.2023 14.9 51.2456 14.8233 51.2723 14.73C51.3056 14.63 51.3223 14.52 51.3223 14.4V11.7C51.3223 11.5867 51.3089 11.4867 51.2823 11.4C51.2556 11.3067 51.2123 11.2333 51.1523 11.18C51.0923 11.1267 51.0156 11.1 50.9223 11.1C50.8356 11.1 50.7523 11.12 50.6723 11.16C50.5989 11.1933 50.5289 11.24 50.4623 11.3V14.9C50.5356 14.9467 50.6056 14.9833 50.6723 15.01C50.7456 15.0367 50.8189 15.05 50.8923 15.05ZM54.0411 17.68V16.55C54.2478 16.55 54.4178 16.5367 54.5511 16.51C54.6911 16.4833 54.7944 16.4333 54.8611 16.36C54.9344 16.2867 54.9711 16.1867 54.9711 16.06C54.9711 15.9467 54.9511 15.81 54.9111 15.65C54.8711 15.4833 54.8211 15.2967 54.7611 15.09L53.4011 10.22H54.9311L55.6611 13.56L56.2111 10.22H57.7511L56.4211 16.14C56.3344 16.54 56.1978 16.85 56.0111 17.07C55.8244 17.2967 55.5944 17.4533 55.3211 17.54C55.0544 17.6333 54.7511 17.68 54.4111 17.68H54.0411ZM60.6735 16V13.67C60.5868 13.6767 60.4968 13.6833 60.4035 13.69C60.3168 13.6967 60.2302 13.7 60.1435 13.7C59.6502 13.7 59.2635 13.6433 58.9835 13.53C58.7102 13.41 58.5168 13.2433 58.4035 13.03C58.2968 12.81 58.2435 12.55 58.2435 12.25V10.22H59.8635V12.15C59.8635 12.3567 59.9035 12.51 59.9835 12.61C60.0635 12.71 60.2268 12.7667 60.4735 12.78C60.5068 12.78 60.5368 12.78 60.5635 12.78C60.5968 12.7733 60.6335 12.77 60.6735 12.77V10.22H62.3035V16H60.6735ZM64.5145 16.1C64.2211 16.1 63.9745 16.03 63.7745 15.89C63.5745 15.75 63.4245 15.5733 63.3245 15.36C63.2245 15.14 63.1745 14.9167 63.1745 14.69C63.1745 14.33 63.2445 14.0267 63.3845 13.78C63.5311 13.5333 63.7211 13.3267 63.9545 13.16C64.1878 12.9933 64.4445 12.8533 64.7245 12.74C65.0045 12.62 65.2811 12.5133 65.5545 12.42V11.84C65.5545 11.74 65.5445 11.6533 65.5245 11.58C65.5045 11.5 65.4711 11.44 65.4245 11.4C65.3778 11.3533 65.3078 11.33 65.2145 11.33C65.1211 11.33 65.0478 11.35 64.9945 11.39C64.9478 11.43 64.9145 11.4867 64.8945 11.56C64.8745 11.6267 64.8611 11.7033 64.8545 11.79L64.8145 12.21L63.2945 12.15C63.3278 11.4567 63.5111 10.9467 63.8445 10.62C64.1845 10.2867 64.6911 10.12 65.3645 10.12C65.9511 10.12 66.3878 10.2833 66.6745 10.61C66.9678 10.93 67.1145 11.3467 67.1145 11.86V14.56C67.1145 14.8 67.1178 15.01 67.1245 15.19C67.1378 15.37 67.1511 15.5267 67.1645 15.66C67.1845 15.7933 67.2011 15.9067 67.2145 16H65.7545C65.7345 15.8467 65.7111 15.68 65.6845 15.5C65.6578 15.32 65.6378 15.2133 65.6245 15.18C65.5578 15.42 65.4311 15.6333 65.2445 15.82C65.0645 16.0067 64.8211 16.1 64.5145 16.1ZM65.0945 15C65.1611 15 65.2211 14.9867 65.2745 14.96C65.3345 14.9333 65.3878 14.8967 65.4345 14.85C65.4811 14.8033 65.5211 14.7567 65.5545 14.71V13.13C65.4211 13.21 65.2978 13.2933 65.1845 13.38C65.0711 13.46 64.9745 13.55 64.8945 13.65C64.8145 13.75 64.7511 13.86 64.7045 13.98C64.6645 14.0933 64.6445 14.2233 64.6445 14.37C64.6445 14.5633 64.6845 14.7167 64.7645 14.83C64.8445 14.9433 64.9545 15 65.0945 15ZM69.9703 16.1C69.5503 16.1 69.1903 16.0267 68.8903 15.88C68.5903 15.7267 68.3603 15.5067 68.2003 15.22C68.0403 14.9267 67.9603 14.5767 67.9603 14.17V12.05C67.9603 11.6367 68.0403 11.2867 68.2003 11C68.3603 10.7133 68.5903 10.4967 68.8903 10.35C69.197 10.1967 69.557 10.12 69.9703 10.12C70.397 10.12 70.7503 10.1933 71.0303 10.34C71.317 10.4867 71.5303 10.7033 71.6703 10.99C71.817 11.2767 71.8903 11.63 71.8903 12.05V13.21H69.5703V14.32C69.5703 14.4667 69.587 14.5867 69.6203 14.68C69.6536 14.7733 69.7003 14.84 69.7603 14.88C69.8203 14.92 69.8903 14.94 69.9703 14.94C70.0503 14.94 70.1203 14.9233 70.1803 14.89C70.247 14.85 70.297 14.79 70.3303 14.71C70.3703 14.63 70.3903 14.52 70.3903 14.38V13.77H71.8903V14.33C71.8903 14.9167 71.7203 15.36 71.3803 15.66C71.0403 15.9533 70.5703 16.1 69.9703 16.1ZM69.5703 12.45H70.3903V11.87C70.3903 11.7167 70.3703 11.5967 70.3303 11.51C70.297 11.4233 70.247 11.3633 70.1803 11.33C70.1203 11.2967 70.047 11.28 69.9603 11.28C69.8803 11.28 69.8103 11.3 69.7503 11.34C69.697 11.38 69.6536 11.45 69.6203 11.55C69.587 11.6433 69.5703 11.78 69.5703 11.96V12.45ZM73.4385 16V11.32H72.3885V10.22H76.1085V11.32H75.0585V16H73.4385ZM78.6713 16.1C78.2513 16.1 77.8913 16.0233 77.5913 15.87C77.2979 15.7167 77.0713 15.4967 76.9113 15.21C76.7513 14.9233 76.6713 14.5767 76.6713 14.17V12.05C76.6713 11.6367 76.7513 11.2867 76.9113 11C77.0713 10.7133 77.2979 10.4967 77.5913 10.35C77.8913 10.1967 78.2513 10.12 78.6713 10.12C79.0846 10.12 79.4346 10.1833 79.7213 10.31C80.0146 10.4367 80.2379 10.63 80.3913 10.89C80.5446 11.1433 80.6213 11.4667 80.6213 11.86V12.47H79.0513V11.81C79.0513 11.6567 79.0346 11.54 79.0013 11.46C78.9746 11.3733 78.9313 11.3133 78.8713 11.28C78.8179 11.2467 78.7513 11.23 78.6713 11.23C78.5913 11.23 78.5246 11.2533 78.4713 11.3C78.4179 11.34 78.3779 11.41 78.3513 11.51C78.3246 11.6033 78.3113 11.7367 78.3113 11.91V14.31C78.3113 14.57 78.3413 14.7467 78.4013 14.84C78.4679 14.9333 78.5613 14.98 78.6813 14.98C78.7679 14.98 78.8379 14.9633 78.8913 14.93C78.9446 14.89 78.9846 14.83 79.0113 14.75C79.0379 14.6633 79.0513 14.55 79.0513 14.41V13.64H80.6213V14.34C80.6213 14.7267 80.5413 15.0533 80.3813 15.32C80.2279 15.58 80.0046 15.7767 79.7113 15.91C79.4246 16.0367 79.0779 16.1 78.6713 16.1ZM81.129 16L82.029 13.6C81.8757 13.5133 81.7457 13.3933 81.639 13.24C81.5323 13.0867 81.4523 12.9067 81.399 12.7C81.3457 12.4933 81.319 12.27 81.319 12.03C81.319 11.7633 81.3557 11.52 81.429 11.3C81.509 11.08 81.6323 10.89 81.799 10.73C81.9723 10.57 82.1957 10.4467 82.469 10.36C82.7423 10.2667 83.0723 10.22 83.459 10.22H85.609V16H83.989V13.94C83.9623 13.94 83.889 13.94 83.769 13.94C83.649 13.9333 83.559 13.9267 83.499 13.92L82.849 16H81.129ZM83.919 12.98C83.9323 12.98 83.9457 12.98 83.959 12.98C83.9723 12.98 83.9823 12.98 83.989 12.98V11.14C83.9823 11.14 83.9723 11.14 83.959 11.14C83.9457 11.14 83.9323 11.14 83.919 11.14C83.6723 11.14 83.4657 11.1733 83.299 11.24C83.1323 11.3067 83.0057 11.4067 82.919 11.54C82.839 11.6667 82.799 11.8267 82.799 12.02C82.799 12.3467 82.8957 12.5867 83.089 12.74C83.289 12.8933 83.5657 12.9733 83.919 12.98ZM89.8838 16V11.32H88.8338V10.22H92.5538V11.32H91.5038V16H89.8838ZM95.0584 16.1C94.6451 16.1 94.2851 16.03 93.9784 15.89C93.6784 15.75 93.4451 15.54 93.2784 15.26C93.1184 14.98 93.0384 14.63 93.0384 14.21V12.01C93.0384 11.59 93.1184 11.24 93.2784 10.96C93.4451 10.68 93.6784 10.47 93.9784 10.33C94.2851 10.19 94.6451 10.12 95.0584 10.12C95.4718 10.12 95.8284 10.19 96.1284 10.33C96.4351 10.47 96.6718 10.68 96.8384 10.96C97.0051 11.24 97.0884 11.59 97.0884 12.01V14.21C97.0884 14.63 97.0051 14.98 96.8384 15.26C96.6718 15.54 96.4351 15.75 96.1284 15.89C95.8284 16.03 95.4718 16.1 95.0584 16.1ZM95.0684 15.02C95.1751 15.02 95.2584 14.9933 95.3184 14.94C95.3784 14.88 95.4184 14.8 95.4384 14.7C95.4651 14.5933 95.4784 14.4667 95.4784 14.32V11.9C95.4784 11.7533 95.4651 11.63 95.4384 11.53C95.4184 11.4233 95.3784 11.3433 95.3184 11.29C95.2584 11.23 95.1751 11.2 95.0684 11.2C94.9618 11.2 94.8784 11.23 94.8184 11.29C94.7584 11.3433 94.7151 11.4233 94.6884 11.53C94.6618 11.63 94.6484 11.7533 94.6484 11.9V14.32C94.6484 14.4667 94.6618 14.5933 94.6884 14.7C94.7151 14.8 94.7584 14.88 94.8184 14.94C94.8784 14.9933 94.9618 15.02 95.0684 15.02ZM97.9824 16L98.0024 10.22H99.2024L100.382 12.99L101.572 10.22H102.772L102.792 16H101.522V12.96L100.632 15.1H100.152L99.2524 12.95V16H97.9824ZM103.973 17.68V16.55C104.179 16.55 104.349 16.5367 104.483 16.51C104.623 16.4833 104.726 16.4333 104.793 16.36C104.866 16.2867 104.903 16.1867 104.903 16.06C104.903 15.9467 104.883 15.81 104.843 15.65C104.803 15.4833 104.753 15.2967 104.693 15.09L103.333 10.22H104.863L105.593 13.56L106.143 10.22H107.683L106.353 16.14C106.266 16.54 106.129 16.85 105.943 17.07C105.756 17.2967 105.526 17.4533 105.253 17.54C104.986 17.6333 104.683 17.68 104.343 17.68H103.973ZM108.465 17.4L108.365 16.87C108.538 16.8233 108.698 16.7367 108.845 16.61C108.998 16.49 109.075 16.2867 109.075 16H108.215V14.46H109.765V15.79C109.758 16.2833 109.648 16.6667 109.435 16.94C109.222 17.2133 108.898 17.3667 108.465 17.4ZM22.9338 31V25.22H24.5638V27.5H24.8038L25.6838 25.22H27.4338L26.2938 27.95L27.4638 31H25.7438L24.8038 28.44H24.5638V31H22.9338ZM28.7608 31V26.32H27.7108V25.22H31.4308V26.32H30.3808V31H28.7608ZM33.9354 31.1C33.5221 31.1 33.1621 31.03 32.8554 30.89C32.5554 30.75 32.3221 30.54 32.1554 30.26C31.9954 29.98 31.9154 29.63 31.9154 29.21V27.01C31.9154 26.59 31.9954 26.24 32.1554 25.96C32.3221 25.68 32.5554 25.47 32.8554 25.33C33.1621 25.19 33.5221 25.12 33.9354 25.12C34.3487 25.12 34.7054 25.19 35.0054 25.33C35.3121 25.47 35.5487 25.68 35.7154 25.96C35.8821 26.24 35.9654 26.59 35.9654 27.01V29.21C35.9654 29.63 35.8821 29.98 35.7154 30.26C35.5487 30.54 35.3121 30.75 35.0054 30.89C34.7054 31.03 34.3487 31.1 33.9354 31.1ZM33.9454 30.02C34.0521 30.02 34.1354 29.9933 34.1954 29.94C34.2554 29.88 34.2954 29.8 34.3154 29.7C34.3421 29.5933 34.3554 29.4667 34.3554 29.32V26.9C34.3554 26.7533 34.3421 26.63 34.3154 26.53C34.2954 26.4233 34.2554 26.3433 34.1954 26.29C34.1354 26.23 34.0521 26.2 33.9454 26.2C33.8387 26.2 33.7554 26.23 33.6954 26.29C33.6354 26.3433 33.5921 26.4233 33.5654 26.53C33.5387 26.63 33.5254 26.7533 33.5254 26.9V29.32C33.5254 29.4667 33.5387 29.5933 33.5654 29.7C33.5921 29.8 33.6354 29.88 33.6954 29.94C33.7554 29.9933 33.8387 30.02 33.9454 30.02ZM39.428 31V25.22H43.528V31H41.898V26.33H41.058V31H39.428ZM44.5354 32.9V25.22H46.1654V25.64C46.3587 25.4667 46.5654 25.3367 46.7854 25.25C47.0054 25.1633 47.2154 25.12 47.4154 25.12C47.6354 25.12 47.8221 25.1633 47.9754 25.25C48.1354 25.3367 48.2654 25.46 48.3654 25.62C48.4654 25.7733 48.5387 25.9533 48.5854 26.16C48.6321 26.3667 48.6554 26.5867 48.6554 26.82V29.31C48.6554 29.67 48.6054 29.9833 48.5054 30.25C48.4121 30.5167 48.2721 30.7267 48.0854 30.88C47.8987 31.0267 47.6687 31.1 47.3954 31.1C47.1887 31.1 46.9787 31.0533 46.7654 30.96C46.5587 30.86 46.3587 30.7267 46.1654 30.56V32.9H44.5354ZM46.5954 30.05C46.7021 30.05 46.7854 30.02 46.8454 29.96C46.9054 29.9 46.9487 29.8233 46.9754 29.73C47.0087 29.63 47.0254 29.52 47.0254 29.4V26.7C47.0254 26.5867 47.0121 26.4867 46.9854 26.4C46.9587 26.3067 46.9154 26.2333 46.8554 26.18C46.7954 26.1267 46.7187 26.1 46.6254 26.1C46.5387 26.1 46.4554 26.12 46.3754 26.16C46.3021 26.1933 46.2321 26.24 46.1654 26.3V29.9C46.2387 29.9467 46.3087 29.9833 46.3754 30.01C46.4487 30.0367 46.5221 30.05 46.5954 30.05ZM51.4842 31.1C51.0709 31.1 50.7109 31.03 50.4042 30.89C50.1042 30.75 49.8709 30.54 49.7042 30.26C49.5442 29.98 49.4642 29.63 49.4642 29.21V27.01C49.4642 26.59 49.5442 26.24 49.7042 25.96C49.8709 25.68 50.1042 25.47 50.4042 25.33C50.7109 25.19 51.0709 25.12 51.4842 25.12C51.8976 25.12 52.2542 25.19 52.5542 25.33C52.8609 25.47 53.0976 25.68 53.2642 25.96C53.4309 26.24 53.5142 26.59 53.5142 27.01V29.21C53.5142 29.63 53.4309 29.98 53.2642 30.26C53.0976 30.54 52.8609 30.75 52.5542 30.89C52.2542 31.03 51.8976 31.1 51.4842 31.1ZM51.4942 30.02C51.6009 30.02 51.6842 29.9933 51.7442 29.94C51.8042 29.88 51.8442 29.8 51.8642 29.7C51.8909 29.5933 51.9042 29.4667 51.9042 29.32V26.9C51.9042 26.7533 51.8909 26.63 51.8642 26.53C51.8442 26.4233 51.8042 26.3433 51.7442 26.29C51.6842 26.23 51.6009 26.2 51.4942 26.2C51.3876 26.2 51.3042 26.23 51.2442 26.29C51.1842 26.3433 51.1409 26.4233 51.1142 26.53C51.0876 26.63 51.0742 26.7533 51.0742 26.9V29.32C51.0742 29.4667 51.0876 29.5933 51.1142 29.7C51.1409 29.8 51.1842 29.88 51.2442 29.94C51.3042 29.9933 51.3876 30.02 51.4942 30.02ZM54.4182 31V25.22H56.4682C57.0482 25.22 57.4849 25.2833 57.7782 25.41C58.0715 25.53 58.2682 25.6967 58.3682 25.91C58.4682 26.1233 58.5182 26.3733 58.5182 26.66C58.5182 27.04 58.4349 27.32 58.2682 27.5C58.1082 27.6733 57.8949 27.7967 57.6282 27.87C57.9082 27.9367 58.1215 28.0367 58.2682 28.17C58.4149 28.3033 58.5149 28.4667 58.5682 28.66C58.6282 28.8533 58.6582 29.0767 58.6582 29.33C58.6582 29.7033 58.5882 30.0167 58.4482 30.27C58.3082 30.5167 58.0715 30.7 57.7382 30.82C57.4049 30.94 56.9515 31 56.3782 31H54.4182ZM56.0382 30.1H56.3082C56.4549 30.1 56.5849 30.0867 56.6982 30.06C56.8115 30.0333 56.9015 29.9633 56.9682 29.85C57.0415 29.73 57.0782 29.54 57.0782 29.28C57.0782 28.9867 57.0449 28.7767 56.9782 28.65C56.9182 28.5233 56.8315 28.4467 56.7182 28.42C56.6049 28.3933 56.4715 28.38 56.3182 28.38H56.0382V30.1ZM56.0382 27.5H56.4482C56.6415 27.5 56.7749 27.44 56.8482 27.32C56.9215 27.1933 56.9582 27.02 56.9582 26.8C56.9582 26.5867 56.9182 26.41 56.8382 26.27C56.7649 26.13 56.5949 26.06 56.3282 26.06H56.0382V27.5ZM61.357 31.1C60.937 31.1 60.577 31.0267 60.277 30.88C59.977 30.7267 59.747 30.5067 59.587 30.22C59.427 29.9267 59.347 29.5767 59.347 29.17V27.05C59.347 26.6367 59.427 26.2867 59.587 26C59.747 25.7133 59.977 25.4967 60.277 25.35C60.5837 25.1967 60.9437 25.12 61.357 25.12C61.7837 25.12 62.137 25.1933 62.417 25.34C62.7037 25.4867 62.917 25.7033 63.057 25.99C63.2037 26.2767 63.277 26.63 63.277 27.05V28.21H60.957V29.32C60.957 29.4667 60.9737 29.5867 61.007 29.68C61.0404 29.7733 61.087 29.84 61.147 29.88C61.207 29.92 61.277 29.94 61.357 29.94C61.437 29.94 61.507 29.9233 61.567 29.89C61.6337 29.85 61.6837 29.79 61.717 29.71C61.757 29.63 61.777 29.52 61.777 29.38V28.77H63.277V29.33C63.277 29.9167 63.107 30.36 62.767 30.66C62.427 30.9533 61.957 31.1 61.357 31.1ZM60.957 27.45H61.777V26.87C61.777 26.7167 61.757 26.5967 61.717 26.51C61.6837 26.4233 61.6337 26.3633 61.567 26.33C61.507 26.2967 61.4337 26.28 61.347 26.28C61.267 26.28 61.197 26.3 61.137 26.34C61.0837 26.38 61.0404 26.45 61.007 26.55C60.9737 26.6433 60.957 26.78 60.957 26.96V27.45ZM63.9743 32.57V30.01C64.1943 29.91 64.3843 29.78 64.5443 29.62C64.7043 29.4533 64.841 29.2533 64.9543 29.02C65.0676 28.78 65.1576 28.5033 65.2243 28.19C65.291 27.87 65.3376 27.5067 65.3643 27.1L65.5343 25.22H68.7143V30H69.5543V32.57H68.3843L68.2743 31H65.2543L65.1643 32.57H63.9743ZM65.7343 30H67.2243V26.19H66.7443L66.6243 27.49C66.6043 27.8567 66.5676 28.1767 66.5143 28.45C66.461 28.7167 66.3943 28.95 66.3143 29.15C66.241 29.3433 66.1543 29.51 66.0543 29.65C65.9543 29.7833 65.8476 29.9 65.7343 30ZM72.1285 31.1C71.7085 31.1 71.3485 31.0267 71.0485 30.88C70.7485 30.7267 70.5185 30.5067 70.3585 30.22C70.1985 29.9267 70.1185 29.5767 70.1185 29.17V27.05C70.1185 26.6367 70.1985 26.2867 70.3585 26C70.5185 25.7133 70.7485 25.4967 71.0485 25.35C71.3552 25.1967 71.7152 25.12 72.1285 25.12C72.5552 25.12 72.9085 25.1933 73.1885 25.34C73.4752 25.4867 73.6885 25.7033 73.8285 25.99C73.9752 26.2767 74.0485 26.63 74.0485 27.05V28.21H71.7285V29.32C71.7285 29.4667 71.7452 29.5867 71.7785 29.68C71.8118 29.7733 71.8585 29.84 71.9185 29.88C71.9785 29.92 72.0485 29.94 72.1285 29.94C72.2085 29.94 72.2785 29.9233 72.3385 29.89C72.4052 29.85 72.4552 29.79 72.4885 29.71C72.5285 29.63 72.5485 29.52 72.5485 29.38V28.77H74.0485V29.33C74.0485 29.9167 73.8785 30.36 73.5385 30.66C73.1985 30.9533 72.7285 31.1 72.1285 31.1ZM71.7285 27.45H72.5485V26.87C72.5485 26.7167 72.5285 26.5967 72.4885 26.51C72.4552 26.4233 72.4052 26.3633 72.3385 26.33C72.2785 26.2967 72.2052 26.28 72.1185 26.28C72.0385 26.28 71.9685 26.3 71.9085 26.34C71.8552 26.38 71.8118 26.45 71.7785 26.55C71.7452 26.6433 71.7285 26.78 71.7285 26.96V27.45ZM75.5967 31V26.32H74.5467V25.22H78.2667V26.32H77.2167V31H75.5967ZM81.508 31V25.22H83.138V27.46H84.108V25.22H85.748V31H84.108V28.58H83.138V31H81.508ZM87.952 31.1C87.6586 31.1 87.412 31.03 87.212 30.89C87.012 30.75 86.862 30.5733 86.762 30.36C86.662 30.14 86.612 29.9167 86.612 29.69C86.612 29.33 86.682 29.0267 86.822 28.78C86.9686 28.5333 87.1586 28.3267 87.392 28.16C87.6253 27.9933 87.882 27.8533 88.162 27.74C88.442 27.62 88.7186 27.5133 88.992 27.42V26.84C88.992 26.74 88.982 26.6533 88.962 26.58C88.942 26.5 88.9086 26.44 88.862 26.4C88.8153 26.3533 88.7453 26.33 88.652 26.33C88.5586 26.33 88.4853 26.35 88.432 26.39C88.3853 26.43 88.352 26.4867 88.332 26.56C88.312 26.6267 88.2986 26.7033 88.292 26.79L88.252 27.21L86.732 27.15C86.7653 26.4567 86.9486 25.9467 87.282 25.62C87.622 25.2867 88.1286 25.12 88.802 25.12C89.3886 25.12 89.8253 25.2833 90.112 25.61C90.4053 25.93 90.552 26.3467 90.552 26.86V29.56C90.552 29.8 90.5553 30.01 90.562 30.19C90.5753 30.37 90.5886 30.5267 90.602 30.66C90.622 30.7933 90.6386 30.9067 90.652 31H89.192C89.172 30.8467 89.1486 30.68 89.122 30.5C89.0953 30.32 89.0753 30.2133 89.062 30.18C88.9953 30.42 88.8686 30.6333 88.682 30.82C88.502 31.0067 88.2586 31.1 87.952 31.1ZM88.532 30C88.5986 30 88.6586 29.9867 88.712 29.96C88.772 29.9333 88.8253 29.8967 88.872 29.85C88.9186 29.8033 88.9586 29.7567 88.992 29.71V28.13C88.8586 28.21 88.7353 28.2933 88.622 28.38C88.5086 28.46 88.412 28.55 88.332 28.65C88.252 28.75 88.1886 28.86 88.142 28.98C88.102 29.0933 88.082 29.2233 88.082 29.37C88.082 29.5633 88.122 29.7167 88.202 29.83C88.282 29.9433 88.392 30 88.532 30ZM94.1364 31L94.2764 22.9H96.1964L97.0864 27.61L98.0464 22.9H99.8964L100.036 31H98.7664L98.6164 25.61L97.6764 31H96.5464L95.5464 25.57L95.4264 31H94.1364ZM103.017 31.1C102.604 31.1 102.244 31.03 101.937 30.89C101.637 30.75 101.404 30.54 101.237 30.26C101.077 29.98 100.997 29.63 100.997 29.21V27.01C100.997 26.59 101.077 26.24 101.237 25.96C101.404 25.68 101.637 25.47 101.937 25.33C102.244 25.19 102.604 25.12 103.017 25.12C103.431 25.12 103.787 25.19 104.087 25.33C104.394 25.47 104.631 25.68 104.797 25.96C104.964 26.24 105.047 26.59 105.047 27.01V29.21C105.047 29.63 104.964 29.98 104.797 30.26C104.631 30.54 104.394 30.75 104.087 30.89C103.787 31.03 103.431 31.1 103.017 31.1ZM103.027 30.02C103.134 30.02 103.217 29.9933 103.277 29.94C103.337 29.88 103.377 29.8 103.397 29.7C103.424 29.5933 103.437 29.4667 103.437 29.32V26.9C103.437 26.7533 103.424 26.63 103.397 26.53C103.377 26.4233 103.337 26.3433 103.277 26.29C103.217 26.23 103.134 26.2 103.027 26.2C102.921 26.2 102.837 26.23 102.777 26.29C102.717 26.3433 102.674 26.4233 102.647 26.53C102.621 26.63 102.607 26.7533 102.607 26.9V29.32C102.607 29.4667 102.621 29.5933 102.647 29.7C102.674 29.8 102.717 29.88 102.777 29.94C102.837 29.9933 102.921 30.02 103.027 30.02ZM107.731 31.1C107.225 31.1 106.801 30.9867 106.461 30.76C106.128 30.5333 105.855 30.1633 105.641 29.65L106.751 29.16C106.858 29.42 106.981 29.6267 107.121 29.78C107.268 29.9267 107.428 30 107.601 30C107.728 30 107.821 29.9733 107.881 29.92C107.948 29.8667 107.981 29.7933 107.981 29.7C107.981 29.5467 107.921 29.4067 107.801 29.28C107.688 29.1533 107.481 28.9667 107.181 28.72L106.761 28.37C106.455 28.11 106.211 27.86 106.031 27.62C105.858 27.3733 105.771 27.07 105.771 26.71C105.771 26.3967 105.851 26.12 106.011 25.88C106.178 25.64 106.398 25.4533 106.671 25.32C106.945 25.1867 107.238 25.12 107.551 25.12C108.025 25.12 108.421 25.25 108.741 25.51C109.061 25.77 109.285 26.1367 109.411 26.61L108.361 27.09C108.321 26.9633 108.265 26.8367 108.191 26.71C108.118 26.5833 108.028 26.4767 107.921 26.39C107.821 26.3033 107.711 26.26 107.591 26.26C107.485 26.26 107.398 26.29 107.331 26.35C107.271 26.41 107.241 26.49 107.241 26.59C107.241 26.7167 107.311 26.8533 107.451 27C107.598 27.1467 107.798 27.3233 108.051 27.53L108.461 27.89C108.628 28.03 108.791 28.18 108.951 28.34C109.111 28.5 109.241 28.6767 109.341 28.87C109.448 29.0633 109.501 29.2833 109.501 29.53C109.501 29.8633 109.418 30.15 109.251 30.39C109.085 30.6233 108.865 30.8 108.591 30.92C108.325 31.04 108.038 31.1 107.731 31.1ZM112.6 31.12C111.986 31.12 111.5 31.01 111.14 30.79C110.786 30.5633 110.536 30.25 110.39 29.85C110.243 29.4433 110.17 28.9667 110.17 28.42V25.5C110.17 24.94 110.243 24.46 110.39 24.06C110.536 23.6533 110.786 23.34 111.14 23.12C111.5 22.9 111.986 22.79 112.6 22.79C113.2 22.79 113.666 22.89 114 23.09C114.34 23.2833 114.58 23.5567 114.72 23.91C114.86 24.2633 114.93 24.67 114.93 25.13V25.83H113.18V25.02C113.18 24.86 113.17 24.7067 113.15 24.56C113.136 24.4133 113.09 24.2933 113.01 24.2C112.93 24.1 112.793 24.05 112.6 24.05C112.413 24.05 112.273 24.1 112.18 24.2C112.093 24.3 112.036 24.4267 112.01 24.58C111.99 24.7267 111.98 24.8833 111.98 25.05V28.86C111.98 29.04 111.993 29.2067 112.02 29.36C112.053 29.5067 112.113 29.6267 112.2 29.72C112.293 29.8067 112.426 29.85 112.6 29.85C112.786 29.85 112.92 29.8033 113 29.71C113.08 29.61 113.13 29.4833 113.15 29.33C113.17 29.1767 113.18 29.02 113.18 28.86V28.01H114.93V28.71C114.93 29.17 114.86 29.5833 114.72 29.95C114.586 30.31 114.35 30.5967 114.01 30.81C113.676 31.0167 113.206 31.12 112.6 31.12ZM115.834 31V22.9H117.454V25.73C117.668 25.5167 117.891 25.3633 118.124 25.27C118.358 25.17 118.608 25.12 118.874 25.12C119.108 25.12 119.301 25.18 119.454 25.3C119.614 25.4133 119.734 25.5733 119.814 25.78C119.894 25.98 119.934 26.21 119.934 26.47V31H118.314V26.7C118.314 26.56 118.291 26.4533 118.244 26.38C118.198 26.3067 118.111 26.27 117.984 26.27C117.918 26.27 117.838 26.29 117.744 26.33C117.651 26.3633 117.554 26.4133 117.454 26.48V31H115.834ZM122.802 31.1C122.382 31.1 122.022 31.0267 121.722 30.88C121.422 30.7267 121.192 30.5067 121.032 30.22C120.872 29.9267 120.792 29.5767 120.792 29.17V27.05C120.792 26.6367 120.872 26.2867 121.032 26C121.192 25.7133 121.422 25.4967 121.722 25.35C122.029 25.1967 122.389 25.12 122.802 25.12C123.229 25.12 123.582 25.1933 123.862 25.34C124.149 25.4867 124.362 25.7033 124.502 25.99C124.649 26.2767 124.722 26.63 124.722 27.05V28.21H122.402V29.32C122.402 29.4667 122.419 29.5867 122.452 29.68C122.486 29.7733 122.532 29.84 122.592 29.88C122.652 29.92 122.722 29.94 122.802 29.94C122.882 29.94 122.952 29.9233 123.012 29.89C123.079 29.85 123.129 29.79 123.162 29.71C123.202 29.63 123.222 29.52 123.222 29.38V28.77H124.722V29.33C124.722 29.9167 124.552 30.36 124.212 30.66C123.872 30.9533 123.402 31.1 122.802 31.1ZM122.402 27.45H123.222V26.87C123.222 26.7167 123.202 26.5967 123.162 26.51C123.129 26.4233 123.079 26.3633 123.012 26.33C122.952 26.2967 122.879 26.28 122.792 26.28C122.712 26.28 122.642 26.3 122.582 26.34C122.529 26.38 122.486 26.45 122.452 26.55C122.419 26.6433 122.402 26.78 122.402 26.96V27.45ZM127.39 31.1C126.883 31.1 126.46 30.9867 126.12 30.76C125.786 30.5333 125.513 30.1633 125.3 29.65L126.41 29.16C126.516 29.42 126.64 29.6267 126.78 29.78C126.926 29.9267 127.086 30 127.26 30C127.386 30 127.48 29.9733 127.54 29.92C127.606 29.8667 127.64 29.7933 127.64 29.7C127.64 29.5467 127.58 29.4067 127.46 29.28C127.346 29.1533 127.14 28.9667 126.84 28.72L126.42 28.37C126.113 28.11 125.87 27.86 125.69 27.62C125.516 27.3733 125.43 27.07 125.43 26.71C125.43 26.3967 125.51 26.12 125.67 25.88C125.836 25.64 126.056 25.4533 126.33 25.32C126.603 25.1867 126.896 25.12 127.21 25.12C127.683 25.12 128.08 25.25 128.4 25.51C128.72 25.77 128.943 26.1367 129.07 26.61L128.02 27.09C127.98 26.9633 127.923 26.8367 127.85 26.71C127.776 26.5833 127.686 26.4767 127.58 26.39C127.48 26.3033 127.37 26.26 127.25 26.26C127.143 26.26 127.056 26.29 126.99 26.35C126.93 26.41 126.9 26.49 126.9 26.59C126.9 26.7167 126.97 26.8533 127.11 27C127.256 27.1467 127.456 27.3233 127.71 27.53L128.12 27.89C128.286 28.03 128.45 28.18 128.61 28.34C128.77 28.5 128.9 28.6767 129 28.87C129.106 29.0633 129.16 29.2833 129.16 29.53C129.16 29.8633 129.076 30.15 128.91 30.39C128.743 30.6233 128.523 30.8 128.25 30.92C127.983 31.04 127.696 31.1 127.39 31.1ZM131.628 31.1C131.121 31.1 130.698 30.9867 130.358 30.76C130.025 30.5333 129.751 30.1633 129.538 29.65L130.648 29.16C130.755 29.42 130.878 29.6267 131.018 29.78C131.165 29.9267 131.325 30 131.498 30C131.625 30 131.718 29.9733 131.778 29.92C131.845 29.8667 131.878 29.7933 131.878 29.7C131.878 29.5467 131.818 29.4067 131.698 29.28C131.585 29.1533 131.378 28.9667 131.078 28.72L130.658 28.37C130.351 28.11 130.108 27.86 129.928 27.62C129.755 27.3733 129.668 27.07 129.668 26.71C129.668 26.3967 129.748 26.12 129.908 25.88C130.075 25.64 130.295 25.4533 130.568 25.32C130.841 25.1867 131.135 25.12 131.448 25.12C131.921 25.12 132.318 25.25 132.638 25.51C132.958 25.77 133.181 26.1367 133.308 26.61L132.258 27.09C132.218 26.9633 132.161 26.8367 132.088 26.71C132.015 26.5833 131.925 26.4767 131.818 26.39C131.718 26.3033 131.608 26.26 131.488 26.26C131.381 26.26 131.295 26.29 131.228 26.35C131.168 26.41 131.138 26.49 131.138 26.59C131.138 26.7167 131.208 26.8533 131.348 27C131.495 27.1467 131.695 27.3233 131.948 27.53L132.358 27.89C132.525 28.03 132.688 28.18 132.848 28.34C133.008 28.5 133.138 28.6767 133.238 28.87C133.345 29.0633 133.398 29.2833 133.398 29.53C133.398 29.8633 133.315 30.15 133.148 30.39C132.981 30.6233 132.761 30.8 132.488 30.92C132.221 31.04 131.935 31.1 131.628 31.1ZM50.7028 47.57V45.01C50.9228 44.91 51.1128 44.78 51.2728 44.62C51.4328 44.4533 51.5695 44.2533 51.6828 44.02C51.7961 43.78 51.8861 43.5033 51.9528 43.19C52.0195 42.87 52.0661 42.5067 52.0928 42.1L52.2628 40.22H55.4428V45H56.2828V47.57H55.1128L55.0028 46H51.9828L51.8928 47.57H50.7028ZM52.4628 45H53.9528V41.19H53.4728L53.3528 42.49C53.3328 42.8567 53.2961 43.1767 53.2428 43.45C53.1895 43.7167 53.1228 43.95 53.0428 44.15C52.9695 44.3433 52.8828 44.51 52.7828 44.65C52.6828 44.7833 52.5761 44.9 52.4628 45ZM58.857 46.1C58.437 46.1 58.077 46.0267 57.777 45.88C57.477 45.7267 57.247 45.5067 57.087 45.22C56.927 44.9267 56.847 44.5767 56.847 44.17V42.05C56.847 41.6367 56.927 41.2867 57.087 41C57.247 40.7133 57.477 40.4967 57.777 40.35C58.0837 40.1967 58.4437 40.12 58.857 40.12C59.2837 40.12 59.637 40.1933 59.917 40.34C60.2037 40.4867 60.417 40.7033 60.557 40.99C60.7037 41.2767 60.777 41.63 60.777 42.05V43.21H58.457V44.32C58.457 44.4667 58.4737 44.5867 58.507 44.68C58.5404 44.7733 58.587 44.84 58.647 44.88C58.707 44.92 58.777 44.94 58.857 44.94C58.937 44.94 59.007 44.9233 59.067 44.89C59.1337 44.85 59.1837 44.79 59.217 44.71C59.257 44.63 59.277 44.52 59.277 44.38V43.77H60.777V44.33C60.777 44.9167 60.607 45.36 60.267 45.66C59.927 45.9533 59.457 46.1 58.857 46.1ZM58.457 42.45H59.277V41.87C59.277 41.7167 59.257 41.5967 59.217 41.51C59.1837 41.4233 59.1337 41.3633 59.067 41.33C59.007 41.2967 58.9337 41.28 58.847 41.28C58.767 41.28 58.697 41.3 58.637 41.34C58.5837 41.38 58.5404 41.45 58.507 41.55C58.4737 41.6433 58.457 41.78 58.457 41.96V42.45ZM63.5443 46.1C63.1243 46.1 62.7643 46.0233 62.4643 45.87C62.171 45.7167 61.9443 45.4967 61.7843 45.21C61.6243 44.9233 61.5443 44.5767 61.5443 44.17V42.05C61.5443 41.6367 61.6243 41.2867 61.7843 41C61.9443 40.7133 62.171 40.4967 62.4643 40.35C62.7643 40.1967 63.1243 40.12 63.5443 40.12C63.9576 40.12 64.3076 40.1833 64.5943 40.31C64.8876 40.4367 65.111 40.63 65.2643 40.89C65.4176 41.1433 65.4943 41.4667 65.4943 41.86V42.47H63.9243V41.81C63.9243 41.6567 63.9076 41.54 63.8743 41.46C63.8476 41.3733 63.8043 41.3133 63.7443 41.28C63.691 41.2467 63.6243 41.23 63.5443 41.23C63.4643 41.23 63.3976 41.2533 63.3443 41.3C63.291 41.34 63.251 41.41 63.2243 41.51C63.1976 41.6033 63.1843 41.7367 63.1843 41.91V44.31C63.1843 44.57 63.2143 44.7467 63.2743 44.84C63.341 44.9333 63.4343 44.98 63.5543 44.98C63.641 44.98 63.711 44.9633 63.7643 44.93C63.8176 44.89 63.8576 44.83 63.8843 44.75C63.911 44.6633 63.9243 44.55 63.9243 44.41V43.64H65.4943V44.34C65.4943 44.7267 65.4143 45.0533 65.2543 45.32C65.101 45.58 64.8776 45.7767 64.5843 45.91C64.2976 46.0367 63.951 46.1 63.5443 46.1ZM66.002 46L66.902 43.6C66.7487 43.5133 66.6187 43.3933 66.512 43.24C66.4054 43.0867 66.3254 42.9067 66.272 42.7C66.2187 42.4933 66.192 42.27 66.192 42.03C66.192 41.7633 66.2287 41.52 66.302 41.3C66.382 41.08 66.5054 40.89 66.672 40.73C66.8454 40.57 67.0687 40.4467 67.342 40.36C67.6154 40.2667 67.9454 40.22 68.332 40.22H70.482V46H68.862V43.94C68.8354 43.94 68.762 43.94 68.642 43.94C68.522 43.9333 68.432 43.9267 68.372 43.92L67.722 46H66.002ZM68.792 42.98C68.8054 42.98 68.8187 42.98 68.832 42.98C68.8454 42.98 68.8554 42.98 68.862 42.98V41.14C68.8554 41.14 68.8454 41.14 68.832 41.14C68.8187 41.14 68.8054 41.14 68.792 41.14C68.5454 41.14 68.3387 41.1733 68.172 41.24C68.0054 41.3067 67.8787 41.4067 67.792 41.54C67.712 41.6667 67.672 41.8267 67.672 42.02C67.672 42.3467 67.7687 42.5867 67.962 42.74C68.162 42.8933 68.4387 42.9733 68.792 42.98ZM72.1983 46V41.32H71.1483V40.22H74.8683V41.32H73.8183V46H72.1983ZM75.551 46V40.22H77.181V42.54C77.1877 42.54 77.191 42.54 77.191 42.54C77.1977 42.54 77.2043 42.54 77.211 42.54C77.2177 42.54 77.2243 42.54 77.231 42.54C77.631 42.54 77.9843 42.5667 78.291 42.62C78.5977 42.6733 78.851 42.7667 79.051 42.9C79.2577 43.0267 79.4143 43.2 79.521 43.42C79.6277 43.6333 79.681 43.9067 79.681 44.24C79.681 44.5533 79.6343 44.8233 79.541 45.05C79.4543 45.27 79.311 45.45 79.111 45.59C78.9177 45.73 78.6643 45.8333 78.351 45.9C78.0443 45.9667 77.6743 46 77.241 46H75.551ZM77.181 45.07H77.211C77.4577 45.07 77.651 45.0467 77.791 45C77.9377 44.9467 78.041 44.8633 78.101 44.75C78.1677 44.63 78.201 44.4733 78.201 44.28C78.201 44.0733 78.1677 43.9167 78.101 43.81C78.041 43.6967 77.9377 43.6167 77.791 43.57C77.651 43.5233 77.4643 43.5 77.231 43.5C77.2243 43.5 77.2143 43.5 77.201 43.5C77.1943 43.5 77.1877 43.5 77.181 43.5V45.07ZM84.9115 46.1C84.4915 46.1 84.1315 46.0233 83.8315 45.87C83.5382 45.7167 83.3115 45.4967 83.1515 45.21C82.9915 44.9233 82.9115 44.5767 82.9115 44.17V42.05C82.9115 41.6367 82.9915 41.2867 83.1515 41C83.3115 40.7133 83.5382 40.4967 83.8315 40.35C84.1315 40.1967 84.4915 40.12 84.9115 40.12C85.3248 40.12 85.6748 40.1833 85.9615 40.31C86.2548 40.4367 86.4782 40.63 86.6315 40.89C86.7848 41.1433 86.8615 41.4667 86.8615 41.86V42.47H85.2915V41.81C85.2915 41.6567 85.2748 41.54 85.2415 41.46C85.2148 41.3733 85.1715 41.3133 85.1115 41.28C85.0582 41.2467 84.9915 41.23 84.9115 41.23C84.8315 41.23 84.7648 41.2533 84.7115 41.3C84.6582 41.34 84.6182 41.41 84.5915 41.51C84.5648 41.6033 84.5515 41.7367 84.5515 41.91V44.31C84.5515 44.57 84.5815 44.7467 84.6415 44.84C84.7082 44.9333 84.8015 44.98 84.9215 44.98C85.0082 44.98 85.0782 44.9633 85.1315 44.93C85.1848 44.89 85.2248 44.83 85.2515 44.75C85.2782 44.6633 85.2915 44.55 85.2915 44.41V43.64H86.8615V44.34C86.8615 44.7267 86.7815 45.0533 86.6215 45.32C86.4682 45.58 86.2448 45.7767 85.9515 45.91C85.6648 46.0367 85.3182 46.1 84.9115 46.1ZM87.8692 47.68V46.55C88.0759 46.55 88.2459 46.5367 88.3792 46.51C88.5192 46.4833 88.6226 46.4333 88.6892 46.36C88.7626 46.2867 88.7992 46.1867 88.7992 46.06C88.7992 45.9467 88.7792 45.81 88.7392 45.65C88.6992 45.4833 88.6492 45.2967 88.5892 45.09L87.2292 40.22H88.7592L89.4892 43.56L90.0392 40.22H91.5792L90.2492 46.14C90.1626 46.54 90.0259 46.85 89.8392 47.07C89.6526 47.2967 89.4226 47.4533 89.1492 47.54C88.8826 47.6333 88.5792 47.68 88.2392 47.68H87.8692ZM92.8916 46V41.32H91.8416V40.22H95.5616V41.32H94.5116V46H92.8916ZM98.0663 46.1C97.6529 46.1 97.2929 46.03 96.9863 45.89C96.6863 45.75 96.4529 45.54 96.2863 45.26C96.1263 44.98 96.0463 44.63 96.0463 44.21V42.01C96.0463 41.59 96.1263 41.24 96.2863 40.96C96.4529 40.68 96.6863 40.47 96.9863 40.33C97.2929 40.19 97.6529 40.12 98.0663 40.12C98.4796 40.12 98.8363 40.19 99.1363 40.33C99.4429 40.47 99.6796 40.68 99.8463 40.96C100.013 41.24 100.096 41.59 100.096 42.01V44.21C100.096 44.63 100.013 44.98 99.8463 45.26C99.6796 45.54 99.4429 45.75 99.1363 45.89C98.8363 46.03 98.4796 46.1 98.0663 46.1ZM98.0763 45.02C98.1829 45.02 98.2663 44.9933 98.3263 44.94C98.3863 44.88 98.4263 44.8 98.4463 44.7C98.4729 44.5933 98.4863 44.4667 98.4863 44.32V41.9C98.4863 41.7533 98.4729 41.63 98.4463 41.53C98.4263 41.4233 98.3863 41.3433 98.3263 41.29C98.2663 41.23 98.1829 41.2 98.0763 41.2C97.9696 41.2 97.8863 41.23 97.8263 41.29C97.7663 41.3433 97.7229 41.4233 97.6963 41.53C97.6696 41.63 97.6563 41.7533 97.6563 41.9V44.32C97.6563 44.4667 97.6696 44.5933 97.6963 44.7C97.7229 44.8 97.7663 44.88 97.8263 44.94C97.8863 44.9933 97.9696 45.02 98.0763 45.02ZM101 46V40.22H102.63V42.5H102.87L103.75 40.22H105.5L104.36 42.95L105.53 46H103.81L102.87 43.44H102.63V46H101Z"></path>
</svg>
