<svg xmlns="http://www.w3.org/2000/svg" fill="none" viewBox="0 0 13 18" height="18" width="13">
<rect fill-opacity="0.01" fill="#0D0E12" height="18" width="13"></rect>
<path fill="white" d="M0.78 14L2.892 5.804H0.24V4.28H4.848V5.66L2.736 14H0.78ZM5.76544 14V12.584L8.09344 9.008C8.26944 8.744 8.43344 8.488 8.58544 8.24C8.74544 7.992 8.87344 7.74 8.96944 7.484C9.07344 7.228 9.12544 6.96 9.12544 6.68C9.12544 6.4 9.06944 6.192 8.95744 6.056C8.84544 5.92 8.69344 5.852 8.50144 5.852C8.28544 5.852 8.11744 5.912 7.99744 6.032C7.87744 6.152 7.79344 6.312 7.74544 6.512C7.70544 6.712 7.68544 6.936 7.68544 7.184V7.664H5.74144V7.148C5.74144 6.572 5.83344 6.06 6.01744 5.612C6.20144 5.156 6.49344 4.8 6.89344 4.544C7.29344 4.28 7.81744 4.148 8.46544 4.148C9.33744 4.148 9.99344 4.376 10.4334 4.832C10.8814 5.28 11.1054 5.908 11.1054 6.716C11.1054 7.108 11.0414 7.472 10.9134 7.808C10.7934 8.144 10.6294 8.472 10.4214 8.792C10.2214 9.104 10.0054 9.432 9.77344 9.776L7.99744 12.428H10.8414V14H5.76544Z"></path>
</svg>
