<svg xmlns="http://www.w3.org/2000/svg" fill="none" viewBox="0 0 14 18" height="18" width="14">
<rect fill-opacity="0.01" fill="#0D0E12" height="18" width="13"></rect>
<path fill="white" d="M3.312 14.144C2.68 14.144 2.164 14.008 1.764 13.736C1.372 13.456 1.084 13.076 0.9 12.596C0.716 12.116 0.624 11.568 0.624 10.952V7.436C0.624 6.804 0.696 6.24 0.84 5.744C0.992 5.248 1.26 4.86 1.644 4.58C2.028 4.292 2.58 4.148 3.3 4.148C3.924 4.148 4.416 4.244 4.776 4.436C5.136 4.628 5.392 4.908 5.544 5.276C5.696 5.644 5.772 6.1 5.772 6.644C5.772 6.676 5.772 6.708 5.772 6.74C5.78 6.764 5.784 6.788 5.784 6.812H3.9C3.9 6.42 3.868 6.132 3.804 5.948C3.748 5.756 3.584 5.66 3.312 5.66C3.128 5.66 2.988 5.716 2.892 5.828C2.804 5.94 2.744 6.136 2.712 6.416C2.68 6.696 2.664 7.088 2.664 7.592V8.456C2.76 8.288 2.916 8.16 3.132 8.072C3.348 7.976 3.592 7.924 3.864 7.916C4.376 7.9 4.784 8.016 5.088 8.264C5.4 8.512 5.624 8.852 5.76 9.284C5.896 9.708 5.964 10.184 5.964 10.712C5.964 11.392 5.884 11.992 5.724 12.512C5.564 13.024 5.292 13.424 4.908 13.712C4.524 14 3.992 14.144 3.312 14.144ZM3.336 12.668C3.52 12.668 3.652 12.608 3.732 12.488C3.82 12.36 3.876 12.176 3.9 11.936C3.932 11.688 3.948 11.384 3.948 11.024C3.948 10.704 3.936 10.428 3.912 10.196C3.896 9.964 3.844 9.784 3.756 9.656C3.668 9.52 3.52 9.452 3.312 9.452C3.216 9.452 3.124 9.472 3.036 9.512C2.948 9.552 2.872 9.604 2.808 9.668C2.744 9.724 2.696 9.78 2.664 9.836V11.42C2.664 11.636 2.68 11.84 2.712 12.032C2.752 12.224 2.82 12.38 2.916 12.5C3.02 12.612 3.16 12.668 3.336 12.668ZM9.75703 14.18C9.17303 14.18 8.68503 14.064 8.29303 13.832C7.90103 13.592 7.60503 13.264 7.40503 12.848C7.20503 12.432 7.10503 11.948 7.10503 11.396V6.992C7.10503 6.424 7.19703 5.928 7.38103 5.504C7.57303 5.072 7.86503 4.736 8.25703 4.496C8.64903 4.256 9.14903 4.136 9.75703 4.136C10.365 4.136 10.861 4.256 11.245 4.496C11.637 4.736 11.925 5.072 12.109 5.504C12.301 5.928 12.397 6.424 12.397 6.992V11.396C12.397 11.94 12.297 12.424 12.097 12.848C11.897 13.264 11.601 13.592 11.209 13.832C10.817 14.064 10.333 14.18 9.75703 14.18ZM9.75703 12.392C9.94903 12.392 10.085 12.332 10.165 12.212C10.253 12.084 10.305 11.94 10.321 11.78C10.345 11.612 10.357 11.468 10.357 11.348V7.04C10.357 6.904 10.349 6.752 10.333 6.584C10.317 6.408 10.265 6.256 10.177 6.128C10.097 5.992 9.95703 5.924 9.75703 5.924C9.55703 5.924 9.41303 5.992 9.32503 6.128C9.24503 6.256 9.19703 6.408 9.18103 6.584C9.16503 6.752 9.15703 6.904 9.15703 7.04V11.348C9.15703 11.468 9.16903 11.612 9.19303 11.78C9.21703 11.94 9.26903 12.084 9.34903 12.212C9.43703 12.332 9.57303 12.392 9.75703 12.392Z"></path>
</svg>
