<svg xmlns="http://www.w3.org/2000/svg" fill="none" viewBox="0 0 480 360" height="360" width="480">
<g clip-path="url(#clip0_806_119)">
<rect fill="white" height="360" width="480"></rect>
<path fill="#F1F1F1" d="M460 48H464V342H460V48Z"></path>
<rect fill="#0D0E12" height="30" width="480"></rect>
<rect fill="#393939" height="1" width="480" y="29"></rect>
<rect fill="#0D0E12" height="22" width="397" y="48" x="18"></rect>
<path fill="white" d="M50.528 64.144C49.784 64.144 49.2 64.024 48.776 63.784C48.36 63.536 48.068 63.18 47.9 62.716C47.732 62.244 47.648 61.668 47.648 60.988V54.28H49.772V61.312C49.772 61.512 49.788 61.712 49.82 61.912C49.852 62.112 49.92 62.276 50.024 62.404C50.136 62.532 50.304 62.596 50.528 62.596C50.76 62.596 50.928 62.532 51.032 62.404C51.136 62.276 51.2 62.112 51.224 61.912C51.256 61.712 51.272 61.512 51.272 61.312V54.28H53.408V60.988C53.408 61.668 53.32 62.244 53.144 62.716C52.976 63.18 52.684 63.536 52.268 63.784C51.852 64.024 51.272 64.144 50.528 64.144ZM57.3547 64.144C56.7467 64.144 56.2387 64.036 55.8307 63.82C55.4227 63.604 55.1147 63.272 54.9067 62.824C54.6987 62.368 54.5827 61.78 54.5587 61.06L56.3947 60.784C56.4027 61.2 56.4387 61.536 56.5027 61.792C56.5747 62.048 56.6707 62.232 56.7907 62.344C56.9187 62.456 57.0707 62.512 57.2467 62.512C57.4707 62.512 57.6147 62.436 57.6787 62.284C57.7507 62.132 57.7867 61.972 57.7867 61.804C57.7867 61.404 57.6907 61.068 57.4987 60.796C57.3067 60.516 57.0467 60.236 56.7187 59.956L55.8787 59.224C55.5107 58.912 55.1987 58.56 54.9427 58.168C54.6947 57.768 54.5707 57.276 54.5707 56.692C54.5707 55.868 54.8147 55.24 55.3027 54.808C55.7907 54.368 56.4547 54.148 57.2947 54.148C57.8147 54.148 58.2307 54.236 58.5427 54.412C58.8627 54.588 59.1027 54.82 59.2627 55.108C59.4307 55.388 59.5427 55.688 59.5987 56.008C59.6627 56.32 59.6987 56.62 59.7067 56.908L57.8587 57.136C57.8507 56.848 57.8307 56.6 57.7987 56.392C57.7747 56.176 57.7187 56.012 57.6307 55.9C57.5427 55.78 57.4067 55.72 57.2227 55.72C57.0227 55.72 56.8747 55.804 56.7787 55.972C56.6907 56.14 56.6467 56.308 56.6467 56.476C56.6467 56.836 56.7307 57.132 56.8987 57.364C57.0747 57.588 57.3027 57.824 57.5827 58.072L58.3867 58.78C58.8107 59.14 59.1667 59.548 59.4547 60.004C59.7507 60.46 59.8987 61.024 59.8987 61.696C59.8987 62.152 59.7947 62.568 59.5867 62.944C59.3787 63.312 59.0827 63.604 58.6987 63.82C58.3227 64.036 57.8747 64.144 57.3547 64.144ZM60.9388 64V54.28H65.3068V55.744H63.0868V58.156H64.7788V59.644H63.0868V62.548H65.3308V64H60.9388ZM66.3059 64V54.28H68.9819C69.6379 54.28 70.2059 54.352 70.6859 54.496C71.1659 54.64 71.5379 54.9 71.8019 55.276C72.0739 55.644 72.2099 56.168 72.2099 56.848C72.2099 57.248 72.1779 57.604 72.1139 57.916C72.0499 58.228 71.9299 58.5 71.7539 58.732C71.5859 58.956 71.3419 59.144 71.0219 59.296L72.3539 64H70.1339L69.0659 59.644H68.4539V64H66.3059ZM68.4539 58.408H69.0539C69.3579 58.408 69.5939 58.356 69.7619 58.252C69.9299 58.14 70.0459 57.984 70.1099 57.784C70.1819 57.576 70.2179 57.328 70.2179 57.04C70.2179 56.624 70.1419 56.3 69.9899 56.068C69.8379 55.836 69.5579 55.72 69.1499 55.72H68.4539V58.408ZM73.5013 64V54.28H75.0133L77.0053 58.96V54.28H78.7812V64H77.3293L75.3373 58.96V64H73.5013ZM79.7598 64L81.5958 54.28H84.0438L85.8558 64H83.8758L83.5518 61.948H82.1238L81.7878 64H79.7598ZM82.3158 60.664H83.3478L82.8318 56.872L82.3158 60.664ZM86.8012 64L86.9692 54.28H89.2732L90.3412 59.932L91.4932 54.28H93.7132L93.8812 64H92.3572L92.1772 57.532L91.0492 64H89.6932L88.4932 57.484L88.3492 64H86.8012ZM95.2864 64V54.28H99.6544V55.744H97.4344V58.156H99.1264V59.644H97.4344V62.548H99.6784V64H95.2864Z"></path>
<path fill="white" d="M22.624 64V54.28H24.148L26.14 59.032V54.28H27.904V64H26.428L24.46 58.9V64H22.624ZM31.288 64.132C30.568 64.132 29.984 63.948 29.536 63.58C29.096 63.212 28.876 62.648 28.876 61.888V59.176C28.876 58.416 29.096 57.852 29.536 57.484C29.984 57.116 30.568 56.932 31.288 56.932C32 56.932 32.584 57.116 33.04 57.484C33.496 57.844 33.724 58.408 33.724 59.176V61.888C33.724 62.656 33.496 63.224 33.04 63.592C32.584 63.952 32 64.132 31.288 64.132ZM31.288 62.752C31.424 62.752 31.528 62.724 31.6 62.668C31.68 62.612 31.736 62.524 31.768 62.404C31.8 62.276 31.816 62.112 31.816 61.912V59.152C31.816 58.944 31.8 58.78 31.768 58.66C31.736 58.54 31.68 58.452 31.6 58.396C31.528 58.34 31.424 58.312 31.288 58.312C31.16 58.312 31.056 58.34 30.976 58.396C30.904 58.452 30.848 58.544 30.808 58.672C30.776 58.792 30.76 58.952 30.76 59.152V61.912C30.76 62.112 30.776 62.276 30.808 62.404C30.848 62.524 30.904 62.612 30.976 62.668C31.056 62.724 31.16 62.752 31.288 62.752Z"></path>
<path fill="white" d="M198.72 64V54.28H203.088V55.744H200.868V58.156H202.56V59.644H200.868V62.548H203.112V64H198.72ZM204.087 64V54.28H208.287V55.732H206.235V58.18H208.023V59.68H206.235V64H204.087ZM209.29 64V54.28H213.49V55.732H211.438V58.18H213.226V59.68H211.438V64H209.29ZM214.505 64V54.28H216.653V64H214.505ZM220.887 64.144C220.151 64.144 219.567 64.012 219.135 63.748C218.711 63.476 218.411 63.1 218.235 62.62C218.059 62.132 217.971 61.56 217.971 60.904V57.4C217.971 56.728 218.059 56.152 218.235 55.672C218.411 55.184 218.711 54.808 219.135 54.544C219.567 54.28 220.151 54.148 220.887 54.148C221.607 54.148 222.167 54.268 222.567 54.508C222.975 54.74 223.263 55.068 223.431 55.492C223.599 55.916 223.683 56.404 223.683 56.956V57.796H221.583V56.824C221.583 56.632 221.571 56.448 221.547 56.272C221.531 56.096 221.475 55.952 221.379 55.84C221.283 55.72 221.119 55.66 220.887 55.66C220.663 55.66 220.495 55.72 220.383 55.84C220.279 55.96 220.211 56.112 220.179 56.296C220.155 56.472 220.143 56.66 220.143 56.86V61.432C220.143 61.648 220.159 61.848 220.191 62.032C220.231 62.208 220.303 62.352 220.407 62.464C220.519 62.568 220.679 62.62 220.887 62.62C221.111 62.62 221.271 62.564 221.367 62.452C221.463 62.332 221.523 62.18 221.547 61.996C221.571 61.812 221.583 61.624 221.583 61.432V60.412H223.683V61.252C223.683 61.804 223.599 62.3 223.431 62.74C223.271 63.172 222.987 63.516 222.579 63.772C222.179 64.02 221.615 64.144 220.887 64.144ZM224.877 64V54.28H227.025V64H224.877ZM228.474 64V54.28H232.842V55.744H230.622V58.156H232.314V59.644H230.622V62.548H232.866V64H228.474ZM233.841 64V54.28H235.353L237.345 58.96V54.28H239.121V64H237.669L235.677 58.96V64H233.841ZM243.352 64.144C242.616 64.144 242.032 64.012 241.6 63.748C241.176 63.476 240.876 63.1 240.7 62.62C240.524 62.132 240.436 61.56 240.436 60.904V57.4C240.436 56.728 240.524 56.152 240.7 55.672C240.876 55.184 241.176 54.808 241.6 54.544C242.032 54.28 242.616 54.148 243.352 54.148C244.072 54.148 244.632 54.268 245.032 54.508C245.44 54.74 245.728 55.068 245.896 55.492C246.064 55.916 246.148 56.404 246.148 56.956V57.796H244.048V56.824C244.048 56.632 244.036 56.448 244.012 56.272C243.996 56.096 243.94 55.952 243.844 55.84C243.748 55.72 243.584 55.66 243.352 55.66C243.128 55.66 242.96 55.72 242.848 55.84C242.744 55.96 242.676 56.112 242.644 56.296C242.62 56.472 242.608 56.66 242.608 56.86V61.432C242.608 61.648 242.624 61.848 242.656 62.032C242.696 62.208 242.768 62.352 242.872 62.464C242.984 62.568 243.144 62.62 243.352 62.62C243.576 62.62 243.736 62.564 243.832 62.452C243.928 62.332 243.988 62.18 244.012 61.996C244.036 61.812 244.048 61.624 244.048 61.432V60.412H246.148V61.252C246.148 61.804 246.064 62.3 245.896 62.74C245.736 63.172 245.452 63.516 245.044 63.772C244.644 64.02 244.08 64.144 243.352 64.144ZM248.507 64V60.028L246.659 54.28H248.687L249.611 57.352L250.439 54.28H252.383L250.571 60.028V64H248.507Z"></path>
<path fill="white" d="M272.504 64.144C271.776 64.144 271.2 64.016 270.776 63.76C270.352 63.504 270.048 63.136 269.864 62.656C269.68 62.176 269.588 61.604 269.588 60.94V57.328C269.588 56.656 269.68 56.084 269.864 55.612C270.048 55.14 270.352 54.78 270.776 54.532C271.2 54.276 271.776 54.148 272.504 54.148C273.24 54.148 273.82 54.276 274.244 54.532C274.676 54.78 274.984 55.14 275.168 55.612C275.352 56.084 275.444 56.656 275.444 57.328V60.94C275.444 61.604 275.352 62.176 275.168 62.656C274.984 63.136 274.676 63.504 274.244 63.76C273.82 64.016 273.24 64.144 272.504 64.144ZM272.504 62.62C272.728 62.62 272.892 62.564 272.996 62.452C273.1 62.34 273.168 62.196 273.2 62.02C273.232 61.844 273.248 61.664 273.248 61.48V56.8C273.248 56.608 273.232 56.428 273.2 56.26C273.168 56.084 273.1 55.94 272.996 55.828C272.892 55.716 272.728 55.66 272.504 55.66C272.296 55.66 272.14 55.716 272.036 55.828C271.932 55.94 271.864 56.084 271.832 56.26C271.8 56.428 271.784 56.608 271.784 56.8V61.48C271.784 61.664 271.796 61.844 271.82 62.02C271.852 62.196 271.916 62.34 272.012 62.452C272.116 62.564 272.28 62.62 272.504 62.62ZM276.751 64V54.28H280.015C280.599 54.28 281.079 54.392 281.455 54.616C281.831 54.832 282.111 55.152 282.295 55.576C282.479 55.992 282.571 56.5 282.571 57.1C282.571 57.852 282.447 58.428 282.199 58.828C281.951 59.22 281.615 59.492 281.191 59.644C280.767 59.796 280.291 59.872 279.763 59.872H278.899V64H276.751ZM278.899 58.372H279.619C279.883 58.372 280.083 58.324 280.219 58.228C280.355 58.132 280.443 57.988 280.483 57.796C280.531 57.604 280.555 57.36 280.555 57.064C280.555 56.816 280.535 56.6 280.495 56.416C280.463 56.224 280.379 56.072 280.243 55.96C280.107 55.848 279.895 55.792 279.607 55.792H278.899V58.372ZM283.607 64V54.28H286.871C287.455 54.28 287.935 54.392 288.311 54.616C288.687 54.832 288.967 55.152 289.151 55.576C289.335 55.992 289.427 56.5 289.427 57.1C289.427 57.852 289.303 58.428 289.055 58.828C288.807 59.22 288.471 59.492 288.047 59.644C287.623 59.796 287.147 59.872 286.619 59.872H285.755V64H283.607ZM285.755 58.372H286.475C286.739 58.372 286.939 58.324 287.075 58.228C287.211 58.132 287.299 57.988 287.339 57.796C287.387 57.604 287.411 57.36 287.411 57.064C287.411 56.816 287.391 56.6 287.351 56.416C287.319 56.224 287.235 56.072 287.099 55.96C286.963 55.848 286.751 55.792 286.463 55.792H285.755V58.372ZM293.246 64.144C292.518 64.144 291.942 64.016 291.518 63.76C291.094 63.504 290.79 63.136 290.606 62.656C290.422 62.176 290.33 61.604 290.33 60.94V57.328C290.33 56.656 290.422 56.084 290.606 55.612C290.79 55.14 291.094 54.78 291.518 54.532C291.942 54.276 292.518 54.148 293.246 54.148C293.982 54.148 294.562 54.276 294.986 54.532C295.418 54.78 295.726 55.14 295.91 55.612C296.094 56.084 296.186 56.656 296.186 57.328V60.94C296.186 61.604 296.094 62.176 295.91 62.656C295.726 63.136 295.418 63.504 294.986 63.76C294.562 64.016 293.982 64.144 293.246 64.144ZM293.246 62.62C293.47 62.62 293.634 62.564 293.738 62.452C293.842 62.34 293.91 62.196 293.942 62.02C293.974 61.844 293.99 61.664 293.99 61.48V56.8C293.99 56.608 293.974 56.428 293.942 56.26C293.91 56.084 293.842 55.94 293.738 55.828C293.634 55.716 293.47 55.66 293.246 55.66C293.038 55.66 292.882 55.716 292.778 55.828C292.674 55.94 292.606 56.084 292.574 56.26C292.542 56.428 292.526 56.608 292.526 56.8V61.48C292.526 61.664 292.538 61.844 292.562 62.02C292.594 62.196 292.658 62.34 292.754 62.452C292.858 62.564 293.022 62.62 293.246 62.62ZM297.493 64V54.28H299.005L300.997 58.96V54.28H302.773V64H301.321L299.329 58.96V64H297.493ZM304.22 64V54.28H308.588V55.744H306.368V58.156H308.06V59.644H306.368V62.548H308.612V64H304.22ZM309.587 64V54.28H311.099L313.091 58.96V54.28H314.867V64H313.415L311.423 58.96V64H309.587ZM317.19 64V55.876H315.726V54.28H320.802V55.876H319.35V64H317.19Z"></path>
<rect fill="#0D0E12" height="272" width="1" y="70" x="193"></rect>
<rect fill="#0D0E12" height="272" width="1" y="70" x="42"></rect>
<rect fill="#0D0E12" height="272" width="1" y="70" x="264"></rect>
<rect fill="white" height="18" width="480" y="342"></rect>
<path fill="white" d="M329.72 21V11.28H333.92V12.732H331.868V15.18H333.656V16.68H331.868V21H329.72ZM334.923 21V11.28H338.187C338.771 11.28 339.251 11.392 339.627 11.616C340.003 11.832 340.283 12.152 340.467 12.576C340.651 12.992 340.743 13.5 340.743 14.1C340.743 14.852 340.619 15.428 340.371 15.828C340.123 16.22 339.787 16.492 339.363 16.644C338.939 16.796 338.463 16.872 337.935 16.872H337.071V21H334.923ZM337.071 15.372H337.791C338.055 15.372 338.255 15.324 338.391 15.228C338.527 15.132 338.615 14.988 338.655 14.796C338.703 14.604 338.727 14.36 338.727 14.064C338.727 13.816 338.707 13.6 338.667 13.416C338.635 13.224 338.551 13.072 338.415 12.96C338.279 12.848 338.067 12.792 337.779 12.792H337.071V15.372ZM344.265 21.144C343.657 21.144 343.149 21.036 342.741 20.82C342.333 20.604 342.025 20.272 341.817 19.824C341.609 19.368 341.493 18.78 341.469 18.06L343.305 17.784C343.313 18.2 343.349 18.536 343.413 18.792C343.485 19.048 343.581 19.232 343.701 19.344C343.829 19.456 343.981 19.512 344.157 19.512C344.381 19.512 344.525 19.436 344.589 19.284C344.661 19.132 344.697 18.972 344.697 18.804C344.697 18.404 344.601 18.068 344.409 17.796C344.217 17.516 343.957 17.236 343.629 16.956L342.789 16.224C342.421 15.912 342.109 15.56 341.853 15.168C341.605 14.768 341.481 14.276 341.481 13.692C341.481 12.868 341.725 12.24 342.213 11.808C342.701 11.368 343.365 11.148 344.205 11.148C344.725 11.148 345.141 11.236 345.453 11.412C345.773 11.588 346.013 11.82 346.173 12.108C346.341 12.388 346.453 12.688 346.509 13.008C346.573 13.32 346.609 13.62 346.617 13.908L344.769 14.136C344.761 13.848 344.741 13.6 344.709 13.392C344.685 13.176 344.629 13.012 344.541 12.9C344.453 12.78 344.317 12.72 344.133 12.72C343.933 12.72 343.785 12.804 343.689 12.972C343.601 13.14 343.557 13.308 343.557 13.476C343.557 13.836 343.641 14.132 343.809 14.364C343.985 14.588 344.213 14.824 344.493 15.072L345.297 15.78C345.721 16.14 346.077 16.548 346.365 17.004C346.661 17.46 346.809 18.024 346.809 18.696C346.809 19.152 346.705 19.568 346.497 19.944C346.289 20.312 345.993 20.604 345.609 20.82C345.233 21.036 344.785 21.144 344.265 21.144ZM347.933 16.056V14.232H349.757V16.056H347.933ZM347.933 20.328V18.504H349.757V20.328H347.933Z"></path>
</g>
<defs>
<clipPath id="clip0_806_119">
<rect fill="white" height="360" width="480"></rect>
</clipPath>
</defs>
</svg>
