<svg xmlns="http://www.w3.org/2000/svg" fill="none" viewBox="0 0 214 84" height="84" width="214">
<mask fill="white" id="path-1-inside-1_1209_2">
<path d="M0 0H214V84H0V0Z"></path>
</mask>
<path fill="#0D0E12" d="M0 0H214V84H0V0Z"></path>
<path mask="url(#path-1-inside-1_1209_2)" fill="white" d="M0 0V-1H-1V0H0ZM0 84H-1V85H0V84ZM0 1H214V-1H0V1ZM214 83H0V85H214V83ZM1 84V0H-1V84H1Z"></path>
<path fill="white" d="M16.684 38L16.852 28.28H19.156L20.224 33.932L21.376 28.28H23.596L23.764 38H22.24L22.06 31.532L20.932 38H19.576L18.376 31.484L18.232 38H16.684ZM25.1692 38V28.28H29.5372V29.744H27.3172V32.156H29.0092V33.644H27.3172V36.548H29.5612V38H25.1692ZM33.1164 38.144C32.5084 38.144 32.0004 38.036 31.5924 37.82C31.1844 37.604 30.8764 37.272 30.6684 36.824C30.4604 36.368 30.3444 35.78 30.3204 35.06L32.1564 34.784C32.1644 35.2 32.2004 35.536 32.2644 35.792C32.3364 36.048 32.4324 36.232 32.5524 36.344C32.6804 36.456 32.8324 36.512 33.0084 36.512C33.2324 36.512 33.3764 36.436 33.4404 36.284C33.5124 36.132 33.5484 35.972 33.5484 35.804C33.5484 35.404 33.4524 35.068 33.2604 34.796C33.0684 34.516 32.8084 34.236 32.4804 33.956L31.6404 33.224C31.2724 32.912 30.9604 32.56 30.7044 32.168C30.4564 31.768 30.3324 31.276 30.3324 30.692C30.3324 29.868 30.5764 29.24 31.0644 28.808C31.5524 28.368 32.2164 28.148 33.0564 28.148C33.5764 28.148 33.9924 28.236 34.3044 28.412C34.6244 28.588 34.8644 28.82 35.0244 29.108C35.1924 29.388 35.3044 29.688 35.3604 30.008C35.4244 30.32 35.4604 30.62 35.4684 30.908L33.6204 31.136C33.6124 30.848 33.5924 30.6 33.5604 30.392C33.5364 30.176 33.4804 30.012 33.3924 29.9C33.3044 29.78 33.1684 29.72 32.9844 29.72C32.7844 29.72 32.6364 29.804 32.5404 29.972C32.4524 30.14 32.4084 30.308 32.4084 30.476C32.4084 30.836 32.4924 31.132 32.6604 31.364C32.8364 31.588 33.0644 31.824 33.3444 32.072L34.1484 32.78C34.5724 33.14 34.9284 33.548 35.2164 34.004C35.5124 34.46 35.6604 35.024 35.6604 35.696C35.6604 36.152 35.5564 36.568 35.3484 36.944C35.1404 37.312 34.8444 37.604 34.4604 37.82C34.0844 38.036 33.6364 38.144 33.1164 38.144ZM39.093 38.144C38.485 38.144 37.977 38.036 37.569 37.82C37.161 37.604 36.853 37.272 36.645 36.824C36.437 36.368 36.321 35.78 36.297 35.06L38.133 34.784C38.141 35.2 38.177 35.536 38.241 35.792C38.313 36.048 38.409 36.232 38.529 36.344C38.657 36.456 38.809 36.512 38.985 36.512C39.209 36.512 39.353 36.436 39.417 36.284C39.489 36.132 39.525 35.972 39.525 35.804C39.525 35.404 39.429 35.068 39.237 34.796C39.045 34.516 38.785 34.236 38.457 33.956L37.617 33.224C37.249 32.912 36.937 32.56 36.681 32.168C36.433 31.768 36.309 31.276 36.309 30.692C36.309 29.868 36.553 29.24 37.041 28.808C37.529 28.368 38.193 28.148 39.033 28.148C39.553 28.148 39.969 28.236 40.281 28.412C40.601 28.588 40.841 28.82 41.001 29.108C41.169 29.388 41.281 29.688 41.337 30.008C41.401 30.32 41.437 30.62 41.445 30.908L39.597 31.136C39.589 30.848 39.569 30.6 39.537 30.392C39.513 30.176 39.457 30.012 39.369 29.9C39.281 29.78 39.145 29.72 38.961 29.72C38.761 29.72 38.613 29.804 38.517 29.972C38.429 30.14 38.385 30.308 38.385 30.476C38.385 30.836 38.469 31.132 38.637 31.364C38.813 31.588 39.041 31.824 39.321 32.072L40.125 32.78C40.549 33.14 40.905 33.548 41.193 34.004C41.489 34.46 41.637 35.024 41.637 35.696C41.637 36.152 41.533 36.568 41.325 36.944C41.117 37.312 40.821 37.604 40.437 37.82C40.061 38.036 39.613 38.144 39.093 38.144ZM42.1153 38L43.9513 28.28H46.3993L48.2113 38H46.2313L45.9073 35.948H44.4793L44.1433 38H42.1153ZM44.6713 34.664H45.7033L45.1873 30.872L44.6713 34.664ZM51.5723 38.144C50.9003 38.144 50.3683 38.004 49.9763 37.724C49.5923 37.444 49.3163 37.052 49.1483 36.548C48.9883 36.036 48.9083 35.448 48.9083 34.784V31.52C48.9083 30.832 48.9963 30.236 49.1723 29.732C49.3483 29.228 49.6483 28.84 50.0723 28.568C50.5043 28.288 51.0883 28.148 51.8243 28.148C52.5443 28.148 53.1083 28.268 53.5163 28.508C53.9323 28.748 54.2283 29.08 54.4043 29.504C54.5803 29.928 54.6683 30.424 54.6683 30.992V31.616H52.5683V30.824C52.5683 30.616 52.5523 30.424 52.5203 30.248C52.4963 30.072 52.4323 29.932 52.3283 29.828C52.2323 29.716 52.0723 29.66 51.8483 29.66C51.6163 29.66 51.4483 29.724 51.3443 29.852C51.2403 29.972 51.1723 30.124 51.1403 30.308C51.1163 30.492 51.1043 30.684 51.1043 30.884V35.384C51.1043 35.6 51.1243 35.804 51.1643 35.996C51.2123 36.18 51.2923 36.332 51.4043 36.452C51.5243 36.564 51.6923 36.62 51.9083 36.62C52.1323 36.62 52.3043 36.56 52.4243 36.44C52.5443 36.32 52.6283 36.164 52.6763 35.972C52.7243 35.78 52.7483 35.576 52.7483 35.36V34.22H51.8723V32.96H54.6803V38H53.2643L53.1443 37.196C53.0163 37.468 52.8283 37.696 52.5803 37.88C52.3323 38.056 51.9963 38.144 51.5723 38.144ZM56.0247 38V28.28H60.3927V29.744H58.1727V32.156H59.8647V33.644H58.1727V36.548H60.4167V38H56.0247Z"></path>
<path fill="white" d="M17.52 56V48.74H16.15V47.9H19.98V48.74H18.65V56H17.52ZM20.7009 56V47.9H21.7709V50.82C21.9642 50.6333 22.1809 50.4733 22.4209 50.34C22.6609 50.2067 22.9275 50.14 23.2209 50.14C23.4475 50.14 23.6209 50.2 23.7409 50.32C23.8675 50.44 23.9542 50.59 24.0009 50.77C24.0542 50.95 24.0809 51.1333 24.0809 51.32V56H23.0109V51.63C23.0109 51.4233 22.9809 51.2633 22.9209 51.15C22.8609 51.0367 22.7375 50.98 22.5509 50.98C22.4242 50.98 22.2909 51.0167 22.1509 51.09C22.0175 51.1633 21.8909 51.2533 21.7709 51.36V56H20.7009ZM26.724 56.08C26.2707 56.08 25.9207 55.9933 25.674 55.82C25.4273 55.64 25.254 55.38 25.154 55.04C25.0607 54.6933 25.014 54.27 25.014 53.77V52.45C25.014 51.9367 25.064 51.51 25.164 51.17C25.264 50.83 25.4373 50.5733 25.684 50.4C25.9373 50.2267 26.284 50.14 26.724 50.14C27.2107 50.14 27.5673 50.24 27.794 50.44C28.0273 50.64 28.1807 50.93 28.254 51.31C28.3273 51.6833 28.364 52.1333 28.364 52.66V53.13H26.084V54.29C26.084 54.5233 26.104 54.7133 26.144 54.86C26.1907 55.0067 26.2607 55.1167 26.354 55.19C26.454 55.2567 26.5807 55.29 26.734 55.29C26.894 55.29 27.014 55.2533 27.094 55.18C27.1807 55.1 27.2373 54.99 27.264 54.85C27.2973 54.7033 27.314 54.5333 27.314 54.34V53.99H28.354V54.21C28.354 54.79 28.2307 55.2467 27.984 55.58C27.7373 55.9133 27.3173 56.08 26.724 56.08ZM26.084 52.55H27.314V52.03C27.314 51.79 27.3007 51.59 27.274 51.43C27.2473 51.2633 27.1907 51.14 27.104 51.06C27.024 50.9733 26.894 50.93 26.714 50.93C26.5407 50.93 26.4073 50.97 26.314 51.05C26.2273 51.13 26.1673 51.2667 26.134 51.46C26.1007 51.6467 26.084 51.9067 26.084 52.24V52.55ZM31.6181 57.9V50.22H32.6881V50.68C32.8148 50.5333 32.9681 50.4067 33.1481 50.3C33.3281 50.1933 33.5415 50.14 33.7881 50.14C34.0881 50.14 34.3248 50.22 34.4981 50.38C34.6781 50.5333 34.8115 50.73 34.8981 50.97C34.9848 51.2033 35.0415 51.4433 35.0681 51.69C35.0948 51.93 35.1081 52.1367 35.1081 52.31V53.71C35.1081 54.1167 35.0681 54.5033 34.9881 54.87C34.9081 55.23 34.7615 55.5233 34.5481 55.75C34.3415 55.97 34.0481 56.08 33.6681 56.08C33.4615 56.08 33.2781 56.03 33.1181 55.93C32.9581 55.8233 32.8148 55.7033 32.6881 55.57V57.9H31.6181ZM33.4581 55.24C33.6448 55.24 33.7781 55.1733 33.8581 55.04C33.9381 54.9 33.9881 54.7133 34.0081 54.48C34.0281 54.2467 34.0381 53.99 34.0381 53.71V52.31C34.0381 52.07 34.0248 51.85 33.9981 51.65C33.9715 51.4433 33.9148 51.28 33.8281 51.16C33.7415 51.04 33.6048 50.98 33.4181 50.98C33.2781 50.98 33.1448 51.01 33.0181 51.07C32.8915 51.13 32.7815 51.2 32.6881 51.28V54.98C32.7881 55.0533 32.9015 55.1167 33.0281 55.17C33.1548 55.2167 33.2981 55.24 33.4581 55.24ZM36.151 56V50.22H37.221V56H36.151ZM36.151 49.36V48.24H37.221V49.36H36.151ZM39.9462 56.08C39.4728 56.08 39.1128 55.9867 38.8662 55.8C38.6262 55.6067 38.4628 55.3367 38.3762 54.99C38.2962 54.6433 38.2562 54.24 38.2562 53.78V52.45C38.2562 51.9633 38.2995 51.55 38.3862 51.21C38.4728 50.8633 38.6362 50.6 38.8762 50.42C39.1228 50.2333 39.4795 50.14 39.9462 50.14C40.3662 50.14 40.6895 50.21 40.9162 50.35C41.1495 50.4833 41.3095 50.6867 41.3962 50.96C41.4828 51.2267 41.5262 51.56 41.5262 51.96V52.3H40.5562V51.95C40.5562 51.6967 40.5395 51.4967 40.5062 51.35C40.4728 51.2033 40.4128 51.0967 40.3262 51.03C40.2395 50.9633 40.1162 50.93 39.9562 50.93C39.7828 50.93 39.6495 50.97 39.5562 51.05C39.4628 51.13 39.3995 51.2667 39.3662 51.46C39.3395 51.6467 39.3262 51.9033 39.3262 52.23V54.05C39.3262 54.5433 39.3728 54.8733 39.4662 55.04C39.5595 55.2067 39.7262 55.29 39.9662 55.29C40.1462 55.29 40.2762 55.25 40.3562 55.17C40.4428 55.0833 40.4962 54.9633 40.5162 54.81C40.5428 54.6567 40.5562 54.4833 40.5562 54.29V53.82H41.5262V54.22C41.5262 54.6067 41.4795 54.94 41.3862 55.22C41.2995 55.5 41.1395 55.7133 40.9062 55.86C40.6795 56.0067 40.3595 56.08 39.9462 56.08ZM44.0175 56.08C43.7175 56.08 43.4742 56.0233 43.2875 55.91C43.1075 55.7967 42.9742 55.6367 42.8875 55.43C42.8075 55.2233 42.7675 54.98 42.7675 54.7V50.93H42.1575V50.22H42.7675V48.53H43.8375V50.22H44.7675V50.93H43.8375V54.63C43.8375 54.8567 43.8742 55.02 43.9475 55.12C44.0208 55.2133 44.1608 55.26 44.3675 55.26C44.4208 55.26 44.4808 55.2567 44.5475 55.25C44.6208 55.2433 44.6908 55.2367 44.7575 55.23V56.02C44.6242 56.04 44.5008 56.0533 44.3875 56.06C44.2742 56.0733 44.1508 56.08 44.0175 56.08ZM46.3837 56.08C46.157 56.08 45.9803 56.02 45.8537 55.9C45.727 55.78 45.637 55.63 45.5837 55.45C45.537 55.27 45.5137 55.0867 45.5137 54.9V50.22H46.5837V54.58C46.5837 54.7867 46.6137 54.95 46.6737 55.07C46.7337 55.1833 46.857 55.24 47.0437 55.24C47.1637 55.24 47.287 55.2067 47.4137 55.14C47.547 55.0667 47.6737 54.98 47.7937 54.88V50.22H48.8637V56H47.7937V55.43C47.607 55.61 47.3937 55.7633 47.1537 55.89C46.9203 56.0167 46.6637 56.08 46.3837 56.08ZM49.988 56V50.22H51.058V51.04C51.2713 50.6867 51.4846 50.45 51.698 50.33C51.9113 50.21 52.1246 50.15 52.338 50.15C52.3646 50.15 52.388 50.15 52.408 50.15C52.4346 50.15 52.468 50.1533 52.508 50.16V51.34C52.428 51.3067 52.3346 51.28 52.228 51.26C52.128 51.2333 52.0246 51.22 51.918 51.22C51.7513 51.22 51.598 51.26 51.458 51.34C51.3246 51.4133 51.1913 51.56 51.058 51.78V56H49.988ZM54.7709 56.08C54.3175 56.08 53.9675 55.9933 53.7209 55.82C53.4742 55.64 53.3009 55.38 53.2009 55.04C53.1075 54.6933 53.0609 54.27 53.0609 53.77V52.45C53.0609 51.9367 53.1109 51.51 53.2109 51.17C53.3109 50.83 53.4842 50.5733 53.7309 50.4C53.9842 50.2267 54.3309 50.14 54.7709 50.14C55.2575 50.14 55.6142 50.24 55.8409 50.44C56.0742 50.64 56.2275 50.93 56.3009 51.31C56.3742 51.6833 56.4109 52.1333 56.4109 52.66V53.13H54.1309V54.29C54.1309 54.5233 54.1509 54.7133 54.1909 54.86C54.2375 55.0067 54.3075 55.1167 54.4009 55.19C54.5009 55.2567 54.6275 55.29 54.7809 55.29C54.9409 55.29 55.0609 55.2533 55.1409 55.18C55.2275 55.1 55.2842 54.99 55.3109 54.85C55.3442 54.7033 55.3609 54.5333 55.3609 54.34V53.99H56.4009V54.21C56.4009 54.79 56.2775 55.2467 56.0309 55.58C55.7842 55.9133 55.3642 56.08 54.7709 56.08ZM54.1309 52.55H55.3609V52.03C55.3609 51.79 55.3475 51.59 55.3209 51.43C55.2942 51.2633 55.2375 51.14 55.1509 51.06C55.0709 50.9733 54.9409 50.93 54.7609 50.93C54.5875 50.93 54.4542 50.97 54.3609 51.05C54.2742 51.13 54.2142 51.2667 54.1809 51.46C54.1475 51.6467 54.1309 51.9067 54.1309 52.24V52.55ZM59.695 56V47.9H60.765V50.82C60.9583 50.6333 61.175 50.4733 61.415 50.34C61.655 50.2067 61.9217 50.14 62.215 50.14C62.4417 50.14 62.615 50.2 62.735 50.32C62.8617 50.44 62.9483 50.59 62.995 50.77C63.0483 50.95 63.075 51.1333 63.075 51.32V56H62.005V51.63C62.005 51.4233 61.975 51.2633 61.915 51.15C61.855 51.0367 61.7317 50.98 61.545 50.98C61.4183 50.98 61.285 51.0167 61.145 51.09C61.0117 51.1633 60.885 51.2533 60.765 51.36V56H59.695ZM65.1581 56.08C64.9315 56.08 64.7315 56.0167 64.5581 55.89C64.3848 55.7567 64.2481 55.59 64.1481 55.39C64.0481 55.1833 63.9981 54.9667 63.9981 54.74C63.9981 54.38 64.0581 54.0767 64.1781 53.83C64.2981 53.5833 64.4615 53.3767 64.6681 53.21C64.8815 53.0367 65.1248 52.8867 65.3981 52.76C65.6781 52.6333 65.9715 52.51 66.2781 52.39V51.98C66.2781 51.7467 66.2648 51.5533 66.2381 51.4C66.2115 51.2467 66.1548 51.1333 66.0681 51.06C65.9881 50.98 65.8648 50.94 65.6981 50.94C65.5515 50.94 65.4315 50.9733 65.3381 51.04C65.2515 51.1067 65.1881 51.2033 65.1481 51.33C65.1081 51.45 65.0881 51.5933 65.0881 51.76V52.05L64.0281 52.01C64.0415 51.37 64.1881 50.9 64.4681 50.6C64.7481 50.2933 65.1815 50.14 65.7681 50.14C66.3415 50.14 66.7481 50.2967 66.9881 50.61C67.2281 50.9233 67.3481 51.3767 67.3481 51.97V54.61C67.3481 54.79 67.3515 54.9633 67.3581 55.13C67.3715 55.2967 67.3848 55.4533 67.3981 55.6C67.4181 55.74 67.4348 55.8733 67.4481 56H66.4681C66.4481 55.8933 66.4215 55.76 66.3881 55.6C66.3615 55.4333 66.3415 55.2833 66.3281 55.15C66.2615 55.3767 66.1315 55.59 65.9381 55.79C65.7515 55.9833 65.4915 56.08 65.1581 56.08ZM65.5781 55.16C65.6848 55.16 65.7848 55.13 65.8781 55.07C65.9715 55.01 66.0548 54.9433 66.1281 54.87C66.2015 54.79 66.2515 54.7267 66.2781 54.68V53.04C66.1115 53.1333 65.9548 53.2267 65.8081 53.32C65.6615 53.4133 65.5315 53.5133 65.4181 53.62C65.3115 53.72 65.2248 53.8367 65.1581 53.97C65.0981 54.0967 65.0681 54.2433 65.0681 54.41C65.0681 54.6433 65.1115 54.8267 65.1981 54.96C65.2848 55.0933 65.4115 55.16 65.5781 55.16ZM69.7159 56.08C69.2426 56.08 68.8626 55.9333 68.5759 55.64C68.2893 55.34 68.1259 54.9467 68.0859 54.46L68.9759 54.19C69.0293 54.5567 69.1193 54.8333 69.2459 55.02C69.3726 55.2 69.5593 55.29 69.8059 55.29C69.9993 55.29 70.1459 55.2367 70.2459 55.13C70.3459 55.0167 70.3959 54.8667 70.3959 54.68C70.3959 54.5133 70.3593 54.3633 70.2859 54.23C70.2126 54.0967 70.0926 53.96 69.9259 53.82L68.9359 52.97C68.7359 52.7967 68.5659 52.6033 68.4259 52.39C68.2926 52.1767 68.2259 51.9 68.2259 51.56C68.2259 51.2533 68.2859 50.9967 68.4059 50.79C68.5326 50.5767 68.7059 50.4167 68.9259 50.31C69.1526 50.1967 69.4159 50.14 69.7159 50.14C70.1759 50.14 70.5259 50.29 70.7659 50.59C71.0126 50.8833 71.1526 51.24 71.1859 51.66L70.4659 51.93C70.4393 51.73 70.3993 51.5567 70.3459 51.41C70.2926 51.2567 70.2193 51.14 70.1259 51.06C70.0326 50.9733 69.9093 50.93 69.7559 50.93C69.5826 50.93 69.4426 50.99 69.3359 51.11C69.2359 51.2233 69.1859 51.36 69.1859 51.52C69.1859 51.62 69.2059 51.72 69.2459 51.82C69.2926 51.9133 69.3693 52.0067 69.4759 52.1L70.4959 53.04C70.6359 53.1667 70.7659 53.3033 70.8859 53.45C71.0126 53.5967 71.1159 53.7633 71.1959 53.95C71.2759 54.1367 71.3159 54.3533 71.3159 54.6C71.3159 54.9267 71.2493 55.2 71.1159 55.42C70.9826 55.64 70.7959 55.8067 70.5559 55.92C70.3159 56.0267 70.0359 56.08 69.7159 56.08ZM76.4713 56.08C76.2647 56.08 76.078 56.03 75.9113 55.93C75.7513 55.8233 75.6113 55.7067 75.4913 55.58V56H74.4213V47.9H75.4913V50.68C75.618 50.5333 75.768 50.4067 75.9413 50.3C76.1213 50.1933 76.3347 50.14 76.5813 50.14C76.8813 50.14 77.118 50.22 77.2913 50.38C77.4713 50.5333 77.6047 50.73 77.6913 50.97C77.778 51.2033 77.8347 51.4433 77.8613 51.69C77.888 51.93 77.9013 52.1367 77.9013 52.31V53.71C77.9013 54.1167 77.8613 54.5033 77.7813 54.87C77.7013 55.23 77.558 55.5233 77.3513 55.75C77.1447 55.97 76.8513 56.08 76.4713 56.08ZM76.2513 55.24C76.438 55.24 76.5713 55.1733 76.6513 55.04C76.7313 54.9 76.7813 54.7133 76.8013 54.48C76.8213 54.2467 76.8313 53.99 76.8313 53.71V52.31C76.8313 52.07 76.818 51.85 76.7913 51.65C76.7647 51.4433 76.708 51.28 76.6213 51.16C76.5347 51.04 76.398 50.98 76.2113 50.98C76.0713 50.98 75.938 51.01 75.8113 51.07C75.6913 51.13 75.5847 51.1967 75.4913 51.27V54.98C75.5847 55.0533 75.6947 55.1167 75.8213 55.17C75.9547 55.2167 76.098 55.24 76.2513 55.24ZM80.474 56.08C80.0207 56.08 79.6707 55.9933 79.424 55.82C79.1773 55.64 79.004 55.38 78.904 55.04C78.8107 54.6933 78.764 54.27 78.764 53.77V52.45C78.764 51.9367 78.814 51.51 78.914 51.17C79.014 50.83 79.1873 50.5733 79.434 50.4C79.6873 50.2267 80.034 50.14 80.474 50.14C80.9607 50.14 81.3173 50.24 81.544 50.44C81.7773 50.64 81.9307 50.93 82.004 51.31C82.0773 51.6833 82.114 52.1333 82.114 52.66V53.13H79.834V54.29C79.834 54.5233 79.854 54.7133 79.894 54.86C79.9407 55.0067 80.0107 55.1167 80.104 55.19C80.204 55.2567 80.3307 55.29 80.484 55.29C80.644 55.29 80.764 55.2533 80.844 55.18C80.9307 55.1 80.9873 54.99 81.014 54.85C81.0473 54.7033 81.064 54.5333 81.064 54.34V53.99H82.104V54.21C82.104 54.79 81.9807 55.2467 81.734 55.58C81.4873 55.9133 81.0673 56.08 80.474 56.08ZM79.834 52.55H81.064V52.03C81.064 51.79 81.0507 51.59 81.024 51.43C80.9973 51.2633 80.9407 51.14 80.854 51.06C80.774 50.9733 80.644 50.93 80.464 50.93C80.2907 50.93 80.1573 50.97 80.064 51.05C79.9773 51.13 79.9173 51.2667 79.884 51.46C79.8507 51.6467 79.834 51.9067 79.834 52.24V52.55ZM84.683 56.08C84.2296 56.08 83.8796 55.9933 83.633 55.82C83.3863 55.64 83.213 55.38 83.113 55.04C83.0196 54.6933 82.973 54.27 82.973 53.77V52.45C82.973 51.9367 83.023 51.51 83.123 51.17C83.223 50.83 83.3963 50.5733 83.643 50.4C83.8963 50.2267 84.243 50.14 84.683 50.14C85.1696 50.14 85.5263 50.24 85.753 50.44C85.9863 50.64 86.1396 50.93 86.213 51.31C86.2863 51.6833 86.323 52.1333 86.323 52.66V53.13H84.043V54.29C84.043 54.5233 84.063 54.7133 84.103 54.86C84.1496 55.0067 84.2196 55.1167 84.313 55.19C84.413 55.2567 84.5396 55.29 84.693 55.29C84.853 55.29 84.973 55.2533 85.053 55.18C85.1396 55.1 85.1963 54.99 85.223 54.85C85.2563 54.7033 85.273 54.5333 85.273 54.34V53.99H86.313V54.21C86.313 54.79 86.1896 55.2467 85.943 55.58C85.6963 55.9133 85.2763 56.08 84.683 56.08ZM84.043 52.55H85.273V52.03C85.273 51.79 85.2596 51.59 85.233 51.43C85.2063 51.2633 85.1496 51.14 85.063 51.06C84.983 50.9733 84.853 50.93 84.673 50.93C84.4996 50.93 84.3663 50.97 84.273 51.05C84.1863 51.13 84.1263 51.2667 84.093 51.46C84.0596 51.6467 84.043 51.9067 84.043 52.24V52.55ZM87.292 56V50.22H88.362V50.79C88.5553 50.61 88.7686 50.4567 89.002 50.33C89.2353 50.2033 89.492 50.14 89.772 50.14C90.0053 50.14 90.182 50.2 90.302 50.32C90.4286 50.44 90.5153 50.59 90.562 50.77C90.6153 50.95 90.642 51.1333 90.642 51.32V56H89.572V51.63C89.572 51.4233 89.542 51.2633 89.482 51.15C89.422 51.0367 89.2986 50.98 89.112 50.98C88.992 50.98 88.8653 51.0167 88.732 51.09C88.6053 51.1567 88.482 51.24 88.362 51.34V56H87.292ZM95.3116 56.08C94.8383 56.08 94.4583 55.9333 94.1716 55.64C93.885 55.34 93.7216 54.9467 93.6816 54.46L94.5716 54.19C94.625 54.5567 94.715 54.8333 94.8416 55.02C94.9683 55.2 95.155 55.29 95.4016 55.29C95.595 55.29 95.7416 55.2367 95.8416 55.13C95.9416 55.0167 95.9916 54.8667 95.9916 54.68C95.9916 54.5133 95.955 54.3633 95.8816 54.23C95.8083 54.0967 95.6883 53.96 95.5216 53.82L94.5316 52.97C94.3316 52.7967 94.1616 52.6033 94.0216 52.39C93.8883 52.1767 93.8216 51.9 93.8216 51.56C93.8216 51.2533 93.8816 50.9967 94.0016 50.79C94.1283 50.5767 94.3016 50.4167 94.5216 50.31C94.7483 50.1967 95.0116 50.14 95.3116 50.14C95.7716 50.14 96.1216 50.29 96.3616 50.59C96.6083 50.8833 96.7483 51.24 96.7816 51.66L96.0616 51.93C96.035 51.73 95.995 51.5567 95.9416 51.41C95.8883 51.2567 95.815 51.14 95.7216 51.06C95.6283 50.9733 95.505 50.93 95.3516 50.93C95.1783 50.93 95.0383 50.99 94.9316 51.11C94.8316 51.2233 94.7816 51.36 94.7816 51.52C94.7816 51.62 94.8016 51.72 94.8416 51.82C94.8883 51.9133 94.965 52.0067 95.0716 52.1L96.0916 53.04C96.2316 53.1667 96.3616 53.3033 96.4816 53.45C96.6083 53.5967 96.7116 53.7633 96.7916 53.95C96.8716 54.1367 96.9116 54.3533 96.9116 54.6C96.9116 54.9267 96.845 55.2 96.7116 55.42C96.5783 55.64 96.3916 55.8067 96.1516 55.92C95.9116 56.0267 95.6316 56.08 95.3116 56.08ZM98.7519 56.08C98.5252 56.08 98.3252 56.0167 98.1519 55.89C97.9785 55.7567 97.8419 55.59 97.7419 55.39C97.6419 55.1833 97.5919 54.9667 97.5919 54.74C97.5919 54.38 97.6519 54.0767 97.7719 53.83C97.8919 53.5833 98.0552 53.3767 98.2619 53.21C98.4752 53.0367 98.7185 52.8867 98.9919 52.76C99.2719 52.6333 99.5652 52.51 99.8719 52.39V51.98C99.8719 51.7467 99.8585 51.5533 99.8319 51.4C99.8052 51.2467 99.7485 51.1333 99.6619 51.06C99.5819 50.98 99.4585 50.94 99.2919 50.94C99.1452 50.94 99.0252 50.9733 98.9319 51.04C98.8452 51.1067 98.7819 51.2033 98.7419 51.33C98.7019 51.45 98.6819 51.5933 98.6819 51.76V52.05L97.6219 52.01C97.6352 51.37 97.7819 50.9 98.0619 50.6C98.3419 50.2933 98.7752 50.14 99.3619 50.14C99.9352 50.14 100.342 50.2967 100.582 50.61C100.822 50.9233 100.942 51.3767 100.942 51.97V54.61C100.942 54.79 100.945 54.9633 100.952 55.13C100.965 55.2967 100.979 55.4533 100.992 55.6C101.012 55.74 101.029 55.8733 101.042 56H100.062C100.042 55.8933 100.015 55.76 99.9819 55.6C99.9552 55.4333 99.9352 55.2833 99.9219 55.15C99.8552 55.3767 99.7252 55.59 99.5319 55.79C99.3452 55.9833 99.0852 56.08 98.7519 56.08ZM99.1719 55.16C99.2785 55.16 99.3785 55.13 99.4719 55.07C99.5652 55.01 99.6485 54.9433 99.7219 54.87C99.7952 54.79 99.8452 54.7267 99.8719 54.68V53.04C99.7052 53.1333 99.5485 53.2267 99.4019 53.32C99.2552 53.4133 99.1252 53.5133 99.0119 53.62C98.9052 53.72 98.8185 53.8367 98.7519 53.97C98.6919 54.0967 98.6619 54.2433 98.6619 54.41C98.6619 54.6433 98.7052 54.8267 98.7919 54.96C98.8785 55.0933 99.0052 55.16 99.1719 55.16ZM102.72 56L101.58 50.22H102.66L103.37 54.87L104.09 50.22H105.13L104.03 56H102.72ZM107.417 56.08C106.964 56.08 106.614 55.9933 106.367 55.82C106.121 55.64 105.947 55.38 105.847 55.04C105.754 54.6933 105.707 54.27 105.707 53.77V52.45C105.707 51.9367 105.757 51.51 105.857 51.17C105.957 50.83 106.131 50.5733 106.377 50.4C106.631 50.2267 106.977 50.14 107.417 50.14C107.904 50.14 108.261 50.24 108.487 50.44C108.721 50.64 108.874 50.93 108.947 51.31C109.021 51.6833 109.057 52.1333 109.057 52.66V53.13H106.777V54.29C106.777 54.5233 106.797 54.7133 106.837 54.86C106.884 55.0067 106.954 55.1167 107.047 55.19C107.147 55.2567 107.274 55.29 107.427 55.29C107.587 55.29 107.707 55.2533 107.787 55.18C107.874 55.1 107.931 54.99 107.957 54.85C107.991 54.7033 108.007 54.5333 108.007 54.34V53.99H109.047V54.21C109.047 54.79 108.924 55.2467 108.677 55.58C108.431 55.9133 108.011 56.08 107.417 56.08ZM106.777 52.55H108.007V52.03C108.007 51.79 107.994 51.59 107.967 51.43C107.941 51.2633 107.884 51.14 107.797 51.06C107.717 50.9733 107.587 50.93 107.407 50.93C107.234 50.93 107.101 50.97 107.007 51.05C106.921 51.13 106.861 51.2667 106.827 51.46C106.794 51.6467 106.777 51.9067 106.777 52.24V52.55ZM111.366 56.08C110.88 56.08 110.516 55.9033 110.276 55.55C110.036 55.19 109.916 54.5833 109.916 53.73V52.61C109.916 52.17 109.953 51.7633 110.026 51.39C110.1 51.01 110.236 50.7067 110.436 50.48C110.643 50.2533 110.943 50.14 111.336 50.14C111.53 50.14 111.706 50.1833 111.866 50.27C112.026 50.3567 112.17 50.4633 112.296 50.59V47.9H113.366V56H112.296V55.63C112.17 55.7633 112.03 55.8733 111.876 55.96C111.73 56.04 111.56 56.08 111.366 56.08ZM111.636 55.24C111.736 55.24 111.843 55.2233 111.956 55.19C112.07 55.15 112.183 55.0933 112.296 55.02V51.23C112.203 51.1633 112.1 51.1067 111.986 51.06C111.873 51.0067 111.75 50.98 111.616 50.98C111.37 50.98 111.203 51.1 111.116 51.34C111.03 51.5733 110.986 51.8567 110.986 52.19V53.82C110.986 54.0867 111 54.33 111.026 54.55C111.06 54.7633 111.123 54.9333 111.216 55.06C111.31 55.18 111.45 55.24 111.636 55.24Z"></path>
</svg>
