<svg xmlns="http://www.w3.org/2000/svg" fill="none" viewBox="0 0 22 22" height="22" width="22">
<circle stroke="#0D0E12" fill="#FDCD4D" r="10" cy="11" cx="11"></circle>
<path fill="white" d="M10.5 9.5C10.5 10.6046 9.60457 11.5 8.5 11.5C7.39543 11.5 6.5 10.6046 6.5 9.5C6.5 8.39543 7.39543 7.5 8.5 7.5C9.60457 7.5 10.5 8.39543 10.5 9.5Z"></path>
<path fill="#0D0E12" d="M9.5 9.5C9.5 10.0523 9.05228 10.5 8.5 10.5C7.94772 10.5 7.5 10.0523 7.5 9.5C7.5 8.94772 7.94772 8.5 8.5 8.5C9.05228 8.5 9.5 8.94772 9.5 9.5Z"></path>
<path fill="white" d="M8.5 8.5C8.5 8.77614 8.27614 9 8 9C7.72386 9 7.5 8.77614 7.5 8.5C7.5 8.22386 7.72386 8 8 8C8.27614 8 8.5 8.22386 8.5 8.5Z"></path>
<path fill="white" d="M15.5 9.5C15.5 10.6046 14.6046 11.5 13.5 11.5C12.3954 11.5 11.5 10.6046 11.5 9.5C11.5 8.39543 12.3954 7.5 13.5 7.5C14.6046 7.5 15.5 8.39543 15.5 9.5Z"></path>
<path fill="#0D0E12" d="M14.4999 9.5C14.4999 10.0523 14.0522 10.5 13.4999 10.5C12.9476 10.5 12.4999 10.0523 12.4999 9.5C12.4999 8.94772 12.9476 8.5 13.4999 8.5C14.0522 8.5 14.4999 8.94772 14.4999 9.5Z"></path>
<path fill="white" d="M13.5 8.5C13.5 8.77614 13.2761 9 13 9C12.7239 9 12.5 8.77614 12.5 8.5C12.5 8.22386 12.7239 8 13 8C13.2761 8 13.5 8.22386 13.5 8.5Z"></path>
<path stroke-linecap="round" stroke="#0D0E12" d="M6 17H16"></path>
</svg>
