<svg xmlns="http://www.w3.org/2000/svg" fill="none" viewBox="0 0 13 18" height="18" width="13">
<rect fill-opacity="0.01" fill="#0D0E12" height="18" width="13"></rect>
<path fill="white" d="M3.12 14.156C2.464 14.156 1.94 14.028 1.548 13.772C1.156 13.508 0.876 13.148 0.708 12.692C0.54 12.228 0.456 11.7 0.456 11.108C0.464 10.868 0.488 10.636 0.528 10.412C0.576 10.18 0.644 9.968 0.732 9.776C0.828 9.576 0.944 9.404 1.08 9.26C1.224 9.108 1.392 8.984 1.584 8.888C1.336 8.704 1.116 8.44 0.924 8.096C0.732 7.744 0.628 7.3 0.612 6.764C0.604 6.22 0.692 5.752 0.876 5.36C1.068 4.968 1.352 4.668 1.728 4.46C2.104 4.252 2.568 4.148 3.12 4.148C3.68 4.148 4.144 4.256 4.512 4.472C4.888 4.68 5.168 4.98 5.352 5.372C5.536 5.756 5.62 6.22 5.604 6.764C5.596 7.308 5.5 7.756 5.316 8.108C5.132 8.452 4.912 8.712 4.656 8.888C4.848 8.984 5.012 9.108 5.148 9.26C5.292 9.404 5.408 9.576 5.496 9.776C5.592 9.968 5.664 10.18 5.712 10.412C5.76 10.636 5.784 10.868 5.784 11.108C5.8 11.7 5.72 12.228 5.544 12.692C5.376 13.148 5.096 13.508 4.704 13.772C4.312 14.028 3.784 14.156 3.12 14.156ZM3.12 12.68C3.336 12.68 3.492 12.6 3.588 12.44C3.684 12.28 3.744 12.092 3.768 11.876C3.792 11.652 3.804 11.448 3.804 11.264C3.812 11.016 3.8 10.776 3.768 10.544C3.744 10.312 3.684 10.124 3.588 9.98C3.492 9.828 3.336 9.752 3.12 9.752C2.912 9.752 2.76 9.828 2.664 9.98C2.568 10.124 2.504 10.312 2.472 10.544C2.448 10.768 2.436 11.008 2.436 11.264C2.436 11.448 2.448 11.652 2.472 11.876C2.496 12.1 2.556 12.292 2.652 12.452C2.756 12.604 2.912 12.68 3.12 12.68ZM3.12 8.168C3.256 8.168 3.368 8.116 3.456 8.012C3.544 7.9 3.608 7.736 3.648 7.52C3.696 7.304 3.72 7.036 3.72 6.716C3.72 6.388 3.668 6.128 3.564 5.936C3.468 5.744 3.32 5.648 3.12 5.648C2.92 5.648 2.764 5.744 2.652 5.936C2.548 6.128 2.496 6.384 2.496 6.704C2.496 7.024 2.516 7.296 2.556 7.52C2.604 7.736 2.676 7.9 2.772 8.012C2.868 8.116 2.984 8.168 3.12 8.168ZM6.90891 14L9.02091 5.804H6.36891V4.28H10.9769V5.66L8.86491 14H6.90891Z"></path>
</svg>
