<svg xmlns="http://www.w3.org/2000/svg" fill="none" viewBox="0 0 27 34" height="34" width="27">
<path stroke="#0D0E12" fill="white" d="M14.0111 3.42031C18.3192 3.49696 22.4815 3.88666 25.5 4.86001V9.0001H1.5V4.86068C4.58773 3.87614 9.71803 3.34392 14.0111 3.42031Z"></path>
<path stroke="#0D0E12" fill="white" d="M1.53999 29.1864C2.16399 24.0261 6.21999 28.2433 6.21999 19.5766V15.8934C6.21999 14.1877 5.19443 12.6493 3.61999 11.9933L3.04179 11.7524C1.81748 11.2422 1.01999 10.046 1.01999 8.71962C1.01999 8.0306 1.26795 7.35748 1.91596 7.12335C5.93278 5.67207 21.0671 5.67212 25.084 7.12337C25.732 7.35749 25.98 8.03062 25.98 8.71964C25.98 10.046 25.1825 11.2422 23.9582 11.7524L23.38 11.9933C21.8056 12.6493 20.78 14.1877 20.78 15.8934V19.5766C20.78 28.2433 24.836 24.1663 25.46 29.3266V30.4253C25.46 31.1293 25.2646 31.8408 24.6096 32.0991C20.835 33.5876 6.15406 33.4828 2.38665 31.9491C1.73455 31.6836 1.53999 30.9726 1.53999 30.2685V29.1864Z"></path>
<path stroke-linecap="round" stroke="#0D0E12" d="M5.18002 28.2433C6.74002 29.8683 20.26 29.8683 21.82 28.2433"></path>
<path stroke-linecap="round" stroke="#0D0E12" d="M20.78 11.4517C18.7 10.91 8.30002 10.91 6.22002 11.4517"></path>
<path fill="white" d="M26 3.09209C24.9349 2.36637 23.0784 1.78718 20.5 1.42387V6.29847C23.1241 6.5997 25.0435 7.1741 26 8.21527V3.09209ZM5.5 6.47667C3.38677 6.84734 1.83046 7.48613 1 8.562V3.09211C1.92201 2.46388 3.437 1.94546 5.5 1.58183V6.47667ZM16 6.02575V1.04564C15.2062 1.01554 14.3725 1 13.5 1C12.0593 1 10.7245 1.04236 9.5 1.12272V6.07859C10.7397 6.02062 12.0786 6 13.5 6C14.3651 6 15.1997 6.00764 16 6.02575Z" clip-rule="evenodd" fill-rule="evenodd"></path>
<path fill="black" d="M20.5 1.42387L20.5698 0.928765L20 0.848484V1.42387H20.5ZM26 3.09209H26.5V2.82774L26.2815 2.67889L26 3.09209ZM20.5 6.29847H20V6.74435L20.443 6.7952L20.5 6.29847ZM26 8.21527L25.6318 8.55353L26.5 9.4986V8.21527H26ZM1 8.562H0.5V10.028L1.3958 8.86752L1 8.562ZM5.5 6.47667L5.58638 6.96915L6 6.8966V6.47667H5.5ZM1 3.09211L0.718459 2.6789L0.5 2.82776V3.09211H1ZM5.5 1.58183H6V0.985993L5.41321 1.08942L5.5 1.58183ZM16 1.04564H16.5V0.56424L16.0189 0.545998L16 1.04564ZM16 6.02575L15.9887 6.52562L16.5 6.53719V6.02575H16ZM9.5 1.12272L9.46726 0.62379L9 0.654453V1.12272H9.5ZM9.5 6.07859H9V6.60252L9.52336 6.57805L9.5 6.07859ZM20.4302 1.91898C22.9895 2.27959 24.7513 2.84635 25.7184 3.5053L26.2815 2.67889C25.1184 1.8864 23.1674 1.29477 20.5698 0.928765L20.4302 1.91898ZM21 6.29847V1.42387H20V6.29847H21ZM26.3682 7.877C25.8108 7.27025 25.004 6.83092 24.0345 6.5054C23.0613 6.17862 21.8875 5.95445 20.557 5.80173L20.443 6.7952C21.7367 6.94371 22.8346 7.15736 23.7162 7.45338C24.6015 7.75066 25.2327 8.11911 25.6318 8.55353L26.3682 7.877ZM26.5 8.21527V3.09209H25.5V8.21527H26.5ZM1.3958 8.86752C2.1056 7.94797 3.49786 7.33549 5.58638 6.96915L5.41362 5.98419C3.27569 6.35919 1.55532 7.02429 0.604199 8.25648L1.3958 8.86752ZM0.5 3.09211V8.562H1.5V3.09211H0.5ZM5.41321 1.08942C3.32716 1.45711 1.72851 1.99069 0.718459 2.6789L1.28154 3.50531C2.1155 2.93708 3.54684 2.43381 5.58679 2.07424L5.41321 1.08942ZM6 6.47667V1.58183H5V6.47667H6ZM15.5 1.04564V6.02575H16.5V1.04564H15.5ZM13.5 1.5C14.3666 1.5 15.1939 1.51543 15.9811 1.54528L16.0189 0.545998C15.2184 0.51564 14.3784 0.5 13.5 0.5V1.5ZM9.53274 1.62164C10.7452 1.54208 12.069 1.5 13.5 1.5V0.5C12.0497 0.5 10.7039 0.542639 9.46726 0.62379L9.53274 1.62164ZM10 6.07859V1.12272H9V6.07859H10ZM13.5 5.5C12.0744 5.5 10.727 5.52067 9.47664 5.57914L9.52336 6.57805C10.7524 6.52057 12.0829 6.5 13.5 6.5V5.5ZM16.0113 5.52587C15.2065 5.50766 14.368 5.5 13.5 5.5V6.5C14.3623 6.5 15.193 6.50762 15.9887 6.52562L16.0113 5.52587Z"></path>
</svg>
