<svg xmlns="http://www.w3.org/2000/svg" fill="none" viewBox="0 0 480 360" height="360" width="480">
<rect fill="white" height="360" width="480"></rect>
<rect fill="#F1F1F1" height="64" width="64" y="48" x="18"></rect>
<rect fill="#0D0E12" height="30" width="480"></rect>
<rect fill="#393939" height="1" width="480" y="29"></rect>
<path fill="#0D0E12" d="M19.39 160.1C18.97 160.1 18.61 160.023 18.31 159.87C18.0167 159.717 17.79 159.497 17.63 159.21C17.47 158.923 17.39 158.577 17.39 158.17V156.05C17.39 155.637 17.47 155.287 17.63 155C17.79 154.713 18.0167 154.497 18.31 154.35C18.61 154.197 18.97 154.12 19.39 154.12C19.8033 154.12 20.1533 154.183 20.44 154.31C20.7333 154.437 20.9567 154.63 21.11 154.89C21.2633 155.143 21.34 155.467 21.34 155.86V156.47H19.77V155.81C19.77 155.657 19.7533 155.54 19.72 155.46C19.6933 155.373 19.65 155.313 19.59 155.28C19.5367 155.247 19.47 155.23 19.39 155.23C19.31 155.23 19.2433 155.253 19.19 155.3C19.1367 155.34 19.0967 155.41 19.07 155.51C19.0433 155.603 19.03 155.737 19.03 155.91V158.31C19.03 158.57 19.06 158.747 19.12 158.84C19.1867 158.933 19.28 158.98 19.4 158.98C19.4867 158.98 19.5567 158.963 19.61 158.93C19.6633 158.89 19.7033 158.83 19.73 158.75C19.7567 158.663 19.77 158.55 19.77 158.41V157.64H21.34V158.34C21.34 158.727 21.26 159.053 21.1 159.32C20.9467 159.58 20.7233 159.777 20.43 159.91C20.1433 160.037 19.7967 160.1 19.39 160.1ZM24.0877 160.1C23.6744 160.1 23.3144 160.03 23.0077 159.89C22.7077 159.75 22.4744 159.54 22.3077 159.26C22.1477 158.98 22.0677 158.63 22.0677 158.21V156.01C22.0677 155.59 22.1477 155.24 22.3077 154.96C22.4744 154.68 22.7077 154.47 23.0077 154.33C23.3144 154.19 23.6744 154.12 24.0877 154.12C24.5011 154.12 24.8577 154.19 25.1577 154.33C25.4644 154.47 25.7011 154.68 25.8677 154.96C26.0344 155.24 26.1177 155.59 26.1177 156.01V158.21C26.1177 158.63 26.0344 158.98 25.8677 159.26C25.7011 159.54 25.4644 159.75 25.1577 159.89C24.8577 160.03 24.5011 160.1 24.0877 160.1ZM24.0977 159.02C24.2044 159.02 24.2877 158.993 24.3477 158.94C24.4077 158.88 24.4477 158.8 24.4677 158.7C24.4944 158.593 24.5077 158.467 24.5077 158.32V155.9C24.5077 155.753 24.4944 155.63 24.4677 155.53C24.4477 155.423 24.4077 155.343 24.3477 155.29C24.2877 155.23 24.2044 155.2 24.0977 155.2C23.9911 155.2 23.9077 155.23 23.8477 155.29C23.7877 155.343 23.7444 155.423 23.7177 155.53C23.6911 155.63 23.6777 155.753 23.6777 155.9V158.32C23.6777 158.467 23.6911 158.593 23.7177 158.7C23.7444 158.8 23.7877 158.88 23.8477 158.94C23.9077 158.993 23.9911 159.02 24.0977 159.02ZM28.0417 160.1C27.8084 160.1 27.6084 160.043 27.4417 159.93C27.2817 159.81 27.1617 159.647 27.0817 159.44C27.0017 159.233 26.9617 159.003 26.9617 158.75V154.22H28.5917V158.56C28.5917 158.7 28.6151 158.81 28.6617 158.89C28.7151 158.963 28.8051 159 28.9317 159C29.0051 159 29.0817 158.983 29.1617 158.95C29.2417 158.91 29.3251 158.867 29.4117 158.82V154.22H31.0317V160H29.4117V159.47C29.2051 159.663 28.9851 159.817 28.7517 159.93C28.5251 160.043 28.2884 160.1 28.0417 160.1ZM32.0608 160V154.22H33.6908V154.8C33.9041 154.587 34.1241 154.42 34.3508 154.3C34.5841 154.18 34.8274 154.12 35.0808 154.12C35.3208 154.12 35.5174 154.18 35.6708 154.3C35.8308 154.413 35.9508 154.573 36.0308 154.78C36.1108 154.98 36.1508 155.21 36.1508 155.47V160H34.5308V155.7C34.5308 155.56 34.5074 155.453 34.4608 155.38C34.4141 155.307 34.3274 155.27 34.2008 155.27C34.1341 155.27 34.0541 155.29 33.9608 155.33C33.8741 155.363 33.7841 155.413 33.6908 155.48V160H32.0608ZM38.9191 160.06C38.4858 160.06 38.1491 159.997 37.9091 159.87C37.6758 159.743 37.5158 159.56 37.4291 159.32C37.3425 159.073 37.2991 158.777 37.2991 158.43V155.29H36.7391V154.22H37.2991V152.46H38.9491V154.22H39.7691V155.29H38.9491V158.27C38.9491 158.437 38.9958 158.557 39.0891 158.63C39.1891 158.703 39.3125 158.74 39.4591 158.74C39.5458 158.74 39.6258 158.737 39.6991 158.73C39.7725 158.717 39.8391 158.707 39.8991 158.7V159.98C39.8125 159.993 39.6758 160.01 39.4891 160.03C39.3025 160.05 39.1125 160.06 38.9191 160.06ZM40.6843 160V154.22H42.3143V155.18C42.501 154.847 42.6876 154.593 42.8743 154.42C43.061 154.24 43.2876 154.15 43.5543 154.15C43.6076 154.15 43.6543 154.153 43.6943 154.16C43.7343 154.16 43.771 154.167 43.8043 154.18V155.8C43.731 155.767 43.6476 155.74 43.5543 155.72C43.4676 155.693 43.3743 155.68 43.2743 155.68C43.0876 155.68 42.9143 155.73 42.7543 155.83C42.5943 155.93 42.4476 156.067 42.3143 156.24V160H40.6843ZM44.6524 161.68V160.55C44.8591 160.55 45.0291 160.537 45.1624 160.51C45.3024 160.483 45.4058 160.433 45.4724 160.36C45.5458 160.287 45.5824 160.187 45.5824 160.06C45.5824 159.947 45.5624 159.81 45.5224 159.65C45.4824 159.483 45.4324 159.297 45.3724 159.09L44.0124 154.22H45.5424L46.2724 157.56L46.8224 154.22H48.3624L47.0324 160.14C46.9458 160.54 46.8091 160.85 46.6224 161.07C46.4358 161.297 46.2058 161.453 45.9324 161.54C45.6658 161.633 45.3624 161.68 45.0224 161.68H44.6524ZM49.1348 155.88V154.36H50.6548V155.88H49.1348ZM49.1348 159.44V157.92H50.6548V159.44H49.1348Z"></path>
<path fill="#0D0E12" d="M17.53 172V166.22H19.16V167.18C19.3467 166.847 19.5333 166.593 19.72 166.42C19.9067 166.24 20.1333 166.15 20.4 166.15C20.4533 166.15 20.5 166.153 20.54 166.16C20.58 166.16 20.6167 166.167 20.65 166.18V167.8C20.5767 167.767 20.4933 167.74 20.4 167.72C20.3133 167.693 20.22 167.68 20.12 167.68C19.9333 167.68 19.76 167.73 19.6 167.83C19.44 167.93 19.2933 168.067 19.16 168.24V172H17.53ZM23.2281 172.1C22.8081 172.1 22.4481 172.027 22.1481 171.88C21.8481 171.727 21.6181 171.507 21.4581 171.22C21.2981 170.927 21.2181 170.577 21.2181 170.17V168.05C21.2181 167.637 21.2981 167.287 21.4581 167C21.6181 166.713 21.8481 166.497 22.1481 166.35C22.4548 166.197 22.8148 166.12 23.2281 166.12C23.6548 166.12 24.0081 166.193 24.2881 166.34C24.5748 166.487 24.7881 166.703 24.9281 166.99C25.0748 167.277 25.1481 167.63 25.1481 168.05V169.21H22.8281V170.32C22.8281 170.467 22.8448 170.587 22.8781 170.68C22.9115 170.773 22.9581 170.84 23.0181 170.88C23.0781 170.92 23.1481 170.94 23.2281 170.94C23.3081 170.94 23.3781 170.923 23.4381 170.89C23.5048 170.85 23.5548 170.79 23.5881 170.71C23.6281 170.63 23.6481 170.52 23.6481 170.38V169.77H25.1481V170.33C25.1481 170.917 24.9781 171.36 24.6381 171.66C24.2981 171.953 23.8281 172.1 23.2281 172.1ZM22.8281 168.45H23.6481V167.87C23.6481 167.717 23.6281 167.597 23.5881 167.51C23.5548 167.423 23.5048 167.363 23.4381 167.33C23.3781 167.297 23.3048 167.28 23.2181 167.28C23.1381 167.28 23.0681 167.3 23.0081 167.34C22.9548 167.38 22.9115 167.45 22.8781 167.55C22.8448 167.643 22.8281 167.78 22.8281 167.96V168.45ZM27.9154 174C27.4821 174 27.1054 173.957 26.7854 173.87C26.4654 173.783 26.2154 173.653 26.0354 173.48C25.8621 173.307 25.7754 173.087 25.7754 172.82C25.7754 172.64 25.8121 172.477 25.8854 172.33C25.9654 172.19 26.0721 172.067 26.2054 171.96C26.3454 171.847 26.5021 171.75 26.6754 171.67C26.4221 171.597 26.2254 171.487 26.0854 171.34C25.9454 171.193 25.8754 170.997 25.8754 170.75C25.8754 170.517 25.9321 170.317 26.0454 170.15C26.1587 169.977 26.3154 169.803 26.5154 169.63C26.3287 169.463 26.1854 169.26 26.0854 169.02C25.9921 168.773 25.9454 168.477 25.9454 168.13C25.9454 167.697 26.0254 167.33 26.1854 167.03C26.3454 166.73 26.5787 166.503 26.8854 166.35C27.1987 166.197 27.5754 166.12 28.0154 166.12C28.3154 166.12 28.5787 166.157 28.8054 166.23C29.0321 166.303 29.2254 166.417 29.3854 166.57C29.4587 166.457 29.5554 166.347 29.6754 166.24C29.7954 166.133 29.9321 166.043 30.0854 165.97L30.2954 165.87L30.6754 166.65C30.6154 166.67 30.5321 166.703 30.4254 166.75C30.3187 166.797 30.2054 166.847 30.0854 166.9C29.9721 166.953 29.8687 167.007 29.7754 167.06C29.8487 167.207 29.9054 167.373 29.9454 167.56C29.9854 167.747 30.0054 167.94 30.0054 168.14C30.0054 168.553 29.9287 168.91 29.7754 169.21C29.6287 169.51 29.4087 169.74 29.1154 169.9C28.8221 170.053 28.4554 170.13 28.0154 170.13C27.8287 170.13 27.6521 170.117 27.4854 170.09C27.3187 170.057 27.1654 170.017 27.0254 169.97C26.9854 170.023 26.9487 170.08 26.9154 170.14C26.8887 170.193 26.8754 170.253 26.8754 170.32C26.8754 170.4 26.9154 170.463 26.9954 170.51C27.0754 170.557 27.2187 170.593 27.4254 170.62L28.9454 170.79C29.4387 170.843 29.8021 171.003 30.0354 171.27C30.2687 171.53 30.3854 171.873 30.3854 172.3C30.3854 172.667 30.3021 172.977 30.1354 173.23C29.9754 173.483 29.7121 173.673 29.3454 173.8C28.9854 173.933 28.5087 174 27.9154 174ZM28.1254 172.82C28.4921 172.82 28.7721 172.79 28.9654 172.73C29.1654 172.67 29.2654 172.547 29.2654 172.36C29.2654 172.267 29.2387 172.19 29.1854 172.13C29.1321 172.077 29.0421 172.033 28.9154 172C28.7954 171.96 28.6221 171.93 28.3954 171.91L27.3254 171.8C27.2587 171.847 27.1987 171.9 27.1454 171.96C27.0987 172.013 27.0587 172.07 27.0254 172.13C26.9987 172.197 26.9854 172.267 26.9854 172.34C26.9854 172.5 27.0721 172.62 27.2454 172.7C27.4187 172.78 27.7121 172.82 28.1254 172.82ZM28.0154 169.16C28.1087 169.16 28.1854 169.143 28.2454 169.11C28.3054 169.07 28.3487 169.01 28.3754 168.93C28.4087 168.85 28.4321 168.743 28.4454 168.61C28.4587 168.477 28.4654 168.317 28.4654 168.13C28.4654 167.937 28.4587 167.777 28.4454 167.65C28.4321 167.517 28.4087 167.41 28.3754 167.33C28.3487 167.243 28.3054 167.183 28.2454 167.15C28.1854 167.11 28.1087 167.09 28.0154 167.09C27.9221 167.09 27.8454 167.11 27.7854 167.15C27.7254 167.183 27.6787 167.24 27.6454 167.32C27.6187 167.4 27.5987 167.507 27.5854 167.64C27.5721 167.773 27.5654 167.937 27.5654 168.13C27.5654 168.317 27.5721 168.477 27.5854 168.61C27.5987 168.737 27.6187 168.843 27.6454 168.93C27.6787 169.01 27.7254 169.07 27.7854 169.11C27.8454 169.143 27.9221 169.16 28.0154 169.16ZM31.0552 172V166.22H32.6852V172H31.0552ZM31.0452 165.24V164.11H32.6852V165.24H31.0452ZM35.4716 172.1C34.965 172.1 34.5416 171.987 34.2016 171.76C33.8683 171.533 33.595 171.163 33.3816 170.65L34.4916 170.16C34.5983 170.42 34.7216 170.627 34.8616 170.78C35.0083 170.927 35.1683 171 35.3416 171C35.4683 171 35.5616 170.973 35.6216 170.92C35.6883 170.867 35.7216 170.793 35.7216 170.7C35.7216 170.547 35.6616 170.407 35.5416 170.28C35.4283 170.153 35.2216 169.967 34.9216 169.72L34.5016 169.37C34.195 169.11 33.9516 168.86 33.7716 168.62C33.5983 168.373 33.5116 168.07 33.5116 167.71C33.5116 167.397 33.5916 167.12 33.7516 166.88C33.9183 166.64 34.1383 166.453 34.4116 166.32C34.685 166.187 34.9783 166.12 35.2916 166.12C35.765 166.12 36.1616 166.25 36.4816 166.51C36.8016 166.77 37.025 167.137 37.1516 167.61L36.1016 168.09C36.0616 167.963 36.005 167.837 35.9316 167.71C35.8583 167.583 35.7683 167.477 35.6616 167.39C35.5616 167.303 35.4516 167.26 35.3316 167.26C35.225 167.26 35.1383 167.29 35.0716 167.35C35.0116 167.41 34.9816 167.49 34.9816 167.59C34.9816 167.717 35.0516 167.853 35.1916 168C35.3383 168.147 35.5383 168.323 35.7916 168.53L36.2016 168.89C36.3683 169.03 36.5316 169.18 36.6916 169.34C36.8516 169.5 36.9816 169.677 37.0816 169.87C37.1883 170.063 37.2416 170.283 37.2416 170.53C37.2416 170.863 37.1583 171.15 36.9916 171.39C36.825 171.623 36.605 171.8 36.3316 171.92C36.065 172.04 35.7783 172.1 35.4716 172.1ZM39.7199 172.06C39.2866 172.06 38.9499 171.997 38.7099 171.87C38.4766 171.743 38.3166 171.56 38.2299 171.32C38.1433 171.073 38.0999 170.777 38.0999 170.43V167.29H37.5399V166.22H38.0999V164.46H39.7499V166.22H40.5699V167.29H39.7499V170.27C39.7499 170.437 39.7966 170.557 39.8899 170.63C39.9899 170.703 40.1133 170.74 40.2599 170.74C40.3466 170.74 40.4266 170.737 40.4999 170.73C40.5733 170.717 40.6399 170.707 40.6999 170.7V171.98C40.6133 171.993 40.4766 172.01 40.2899 172.03C40.1033 172.05 39.9133 172.06 39.7199 172.06ZM41.4851 172V166.22H43.1151V167.18C43.3017 166.847 43.4884 166.593 43.6751 166.42C43.8617 166.24 44.0884 166.15 44.3551 166.15C44.4084 166.15 44.4551 166.153 44.4951 166.16C44.5351 166.16 44.5717 166.167 44.6051 166.18V167.8C44.5317 167.767 44.4484 167.74 44.3551 167.72C44.2684 167.693 44.1751 167.68 44.0751 167.68C43.8884 167.68 43.7151 167.73 43.5551 167.83C43.3951 167.93 43.2484 168.067 43.1151 168.24V172H41.4851ZM46.4539 172.1C46.1606 172.1 45.9139 172.03 45.7139 171.89C45.5139 171.75 45.3639 171.573 45.2639 171.36C45.1639 171.14 45.1139 170.917 45.1139 170.69C45.1139 170.33 45.1839 170.027 45.3239 169.78C45.4706 169.533 45.6606 169.327 45.8939 169.16C46.1272 168.993 46.3839 168.853 46.6639 168.74C46.9439 168.62 47.2206 168.513 47.4939 168.42V167.84C47.4939 167.74 47.4839 167.653 47.4639 167.58C47.4439 167.5 47.4106 167.44 47.3639 167.4C47.3172 167.353 47.2472 167.33 47.1539 167.33C47.0606 167.33 46.9872 167.35 46.9339 167.39C46.8872 167.43 46.8539 167.487 46.8339 167.56C46.8139 167.627 46.8006 167.703 46.7939 167.79L46.7539 168.21L45.2339 168.15C45.2672 167.457 45.4506 166.947 45.7839 166.62C46.1239 166.287 46.6306 166.12 47.3039 166.12C47.8906 166.12 48.3272 166.283 48.6139 166.61C48.9072 166.93 49.0539 167.347 49.0539 167.86V170.56C49.0539 170.8 49.0572 171.01 49.0639 171.19C49.0772 171.37 49.0906 171.527 49.1039 171.66C49.1239 171.793 49.1406 171.907 49.1539 172H47.6939C47.6739 171.847 47.6506 171.68 47.6239 171.5C47.5972 171.32 47.5772 171.213 47.5639 171.18C47.4972 171.42 47.3706 171.633 47.1839 171.82C47.0039 172.007 46.7606 172.1 46.4539 172.1ZM47.0339 171C47.1006 171 47.1606 170.987 47.2139 170.96C47.2739 170.933 47.3272 170.897 47.3739 170.85C47.4206 170.803 47.4606 170.757 47.4939 170.71V169.13C47.3606 169.21 47.2372 169.293 47.1239 169.38C47.0106 169.46 46.9139 169.55 46.8339 169.65C46.7539 169.75 46.6906 169.86 46.6439 169.98C46.6039 170.093 46.5839 170.223 46.5839 170.37C46.5839 170.563 46.6239 170.717 46.7039 170.83C46.7839 170.943 46.8939 171 47.0339 171ZM51.7902 172.06C51.3569 172.06 51.0202 171.997 50.7802 171.87C50.5469 171.743 50.3869 171.56 50.3002 171.32C50.2136 171.073 50.1702 170.777 50.1702 170.43V167.29H49.6102V166.22H50.1702V164.46H51.8202V166.22H52.6402V167.29H51.8202V170.27C51.8202 170.437 51.8669 170.557 51.9602 170.63C52.0602 170.703 52.1836 170.74 52.3302 170.74C52.4169 170.74 52.4969 170.737 52.5702 170.73C52.6436 170.717 52.7102 170.707 52.7702 170.7V171.98C52.6836 171.993 52.5469 172.01 52.3602 172.03C52.1736 172.05 51.9836 172.06 51.7902 172.06ZM53.5454 172V166.22H55.1754V172H53.5454ZM53.5354 165.24V164.11H55.1754V165.24H53.5354ZM58.0819 172.1C57.6685 172.1 57.3085 172.03 57.0019 171.89C56.7019 171.75 56.4685 171.54 56.3019 171.26C56.1419 170.98 56.0619 170.63 56.0619 170.21V168.01C56.0619 167.59 56.1419 167.24 56.3019 166.96C56.4685 166.68 56.7019 166.47 57.0019 166.33C57.3085 166.19 57.6685 166.12 58.0819 166.12C58.4952 166.12 58.8519 166.19 59.1519 166.33C59.4585 166.47 59.6952 166.68 59.8619 166.96C60.0285 167.24 60.1119 167.59 60.1119 168.01V170.21C60.1119 170.63 60.0285 170.98 59.8619 171.26C59.6952 171.54 59.4585 171.75 59.1519 171.89C58.8519 172.03 58.4952 172.1 58.0819 172.1ZM58.0919 171.02C58.1985 171.02 58.2819 170.993 58.3419 170.94C58.4019 170.88 58.4419 170.8 58.4619 170.7C58.4885 170.593 58.5019 170.467 58.5019 170.32V167.9C58.5019 167.753 58.4885 167.63 58.4619 167.53C58.4419 167.423 58.4019 167.343 58.3419 167.29C58.2819 167.23 58.1985 167.2 58.0919 167.2C57.9852 167.2 57.9019 167.23 57.8419 167.29C57.7819 167.343 57.7385 167.423 57.7119 167.53C57.6852 167.63 57.6719 167.753 57.6719 167.9V170.32C57.6719 170.467 57.6852 170.593 57.7119 170.7C57.7385 170.8 57.7819 170.88 57.8419 170.94C57.9019 170.993 57.9852 171.02 58.0919 171.02ZM61.0159 172V166.22H62.6459V166.8C62.8592 166.587 63.0792 166.42 63.3059 166.3C63.5392 166.18 63.7825 166.12 64.0359 166.12C64.2759 166.12 64.4725 166.18 64.6259 166.3C64.7859 166.413 64.9059 166.573 64.9859 166.78C65.0659 166.98 65.1059 167.21 65.1059 167.47V172H63.4859V167.7C63.4859 167.56 63.4625 167.453 63.4159 167.38C63.3692 167.307 63.2825 167.27 63.1559 167.27C63.0892 167.27 63.0092 167.29 62.9159 167.33C62.8292 167.363 62.7392 167.413 62.6459 167.48V172H61.0159ZM69.8928 172.1C69.4661 172.1 69.1361 171.95 68.9028 171.65C68.6695 171.35 68.5528 170.907 68.5528 170.32V167.93C68.5528 167.57 68.6028 167.257 68.7028 166.99C68.8028 166.717 68.9528 166.503 69.1528 166.35C69.3528 166.197 69.5995 166.12 69.8928 166.12C70.1061 166.12 70.3095 166.163 70.5028 166.25C70.6961 166.33 70.8728 166.44 71.0328 166.58V163.9H72.6628V172H71.0328V171.55C70.8528 171.723 70.6661 171.86 70.4728 171.96C70.2795 172.053 70.0861 172.1 69.8928 172.1ZM70.6028 171.06C70.6561 171.06 70.7195 171.047 70.7928 171.02C70.8728 170.993 70.9528 170.957 71.0328 170.91V167.26C70.9661 167.227 70.8961 167.197 70.8228 167.17C70.7495 167.143 70.6795 167.13 70.6128 167.13C70.4661 167.13 70.3595 167.193 70.2928 167.32C70.2261 167.44 70.1928 167.587 70.1928 167.76V170.42C70.1928 170.54 70.2061 170.65 70.2328 170.75C70.2595 170.843 70.3028 170.92 70.3628 170.98C70.4228 171.033 70.5028 171.06 70.6028 171.06ZM74.8621 172.1C74.5688 172.1 74.3221 172.03 74.1221 171.89C73.9221 171.75 73.7721 171.573 73.6721 171.36C73.5721 171.14 73.5221 170.917 73.5221 170.69C73.5221 170.33 73.5921 170.027 73.7321 169.78C73.8788 169.533 74.0688 169.327 74.3021 169.16C74.5354 168.993 74.7921 168.853 75.0721 168.74C75.3521 168.62 75.6288 168.513 75.9021 168.42V167.84C75.9021 167.74 75.8921 167.653 75.8721 167.58C75.8521 167.5 75.8188 167.44 75.7721 167.4C75.7254 167.353 75.6554 167.33 75.5621 167.33C75.4688 167.33 75.3954 167.35 75.3421 167.39C75.2954 167.43 75.2621 167.487 75.2421 167.56C75.2221 167.627 75.2088 167.703 75.2021 167.79L75.1621 168.21L73.6421 168.15C73.6754 167.457 73.8588 166.947 74.1921 166.62C74.5321 166.287 75.0388 166.12 75.7121 166.12C76.2988 166.12 76.7354 166.283 77.0221 166.61C77.3154 166.93 77.4621 167.347 77.4621 167.86V170.56C77.4621 170.8 77.4654 171.01 77.4721 171.19C77.4854 171.37 77.4988 171.527 77.5121 171.66C77.5321 171.793 77.5488 171.907 77.5621 172H76.1021C76.0821 171.847 76.0588 171.68 76.0321 171.5C76.0054 171.32 75.9854 171.213 75.9721 171.18C75.9054 171.42 75.7788 171.633 75.5921 171.82C75.4121 172.007 75.1688 172.1 74.8621 172.1ZM75.4421 171C75.5088 171 75.5688 170.987 75.6221 170.96C75.6821 170.933 75.7354 170.897 75.7821 170.85C75.8288 170.803 75.8688 170.757 75.9021 170.71V169.13C75.7688 169.21 75.6454 169.293 75.5321 169.38C75.4188 169.46 75.3221 169.55 75.2421 169.65C75.1621 169.75 75.0988 169.86 75.0521 169.98C75.0121 170.093 74.9921 170.223 74.9921 170.37C74.9921 170.563 75.0321 170.717 75.1121 170.83C75.1921 170.943 75.3021 171 75.4421 171ZM80.1984 172.06C79.7651 172.06 79.4284 171.997 79.1884 171.87C78.9551 171.743 78.7951 171.56 78.7084 171.32C78.6218 171.073 78.5784 170.777 78.5784 170.43V167.29H78.0184V166.22H78.5784V164.46H80.2284V166.22H81.0484V167.29H80.2284V170.27C80.2284 170.437 80.2751 170.557 80.3684 170.63C80.4684 170.703 80.5918 170.74 80.7384 170.74C80.8251 170.74 80.9051 170.737 80.9784 170.73C81.0518 170.717 81.1184 170.707 81.1784 170.7V171.98C81.0918 171.993 80.9551 172.01 80.7684 172.03C80.5818 172.05 80.3918 172.06 80.1984 172.06ZM83.8336 172.1C83.4136 172.1 83.0536 172.027 82.7536 171.88C82.4536 171.727 82.2236 171.507 82.0636 171.22C81.9036 170.927 81.8236 170.577 81.8236 170.17V168.05C81.8236 167.637 81.9036 167.287 82.0636 167C82.2236 166.713 82.4536 166.497 82.7536 166.35C83.0603 166.197 83.4203 166.12 83.8336 166.12C84.2603 166.12 84.6136 166.193 84.8936 166.34C85.1803 166.487 85.3936 166.703 85.5336 166.99C85.6803 167.277 85.7536 167.63 85.7536 168.05V169.21H83.4336V170.32C83.4336 170.467 83.4503 170.587 83.4836 170.68C83.5169 170.773 83.5636 170.84 83.6236 170.88C83.6836 170.92 83.7536 170.94 83.8336 170.94C83.9136 170.94 83.9836 170.923 84.0436 170.89C84.1103 170.85 84.1603 170.79 84.1936 170.71C84.2336 170.63 84.2536 170.52 84.2536 170.38V169.77H85.7536V170.33C85.7536 170.917 85.5836 171.36 85.2436 171.66C84.9036 171.953 84.4336 172.1 83.8336 172.1ZM83.4336 168.45H84.2536V167.87C84.2536 167.717 84.2336 167.597 84.1936 167.51C84.1603 167.423 84.1103 167.363 84.0436 167.33C83.9836 167.297 83.9103 167.28 83.8236 167.28C83.7436 167.28 83.6736 167.3 83.6136 167.34C83.5603 167.38 83.5169 167.45 83.4836 167.55C83.4503 167.643 83.4336 167.78 83.4336 167.96V168.45ZM86.8009 167.88V166.36H88.3209V167.88H86.8009ZM86.8009 171.44V169.92H88.3209V171.44H86.8009Z"></path>
<path fill="#0D0E12" d="M18.7 184.1C18.4067 184.1 18.16 184.03 17.96 183.89C17.76 183.75 17.61 183.573 17.51 183.36C17.41 183.14 17.36 182.917 17.36 182.69C17.36 182.33 17.43 182.027 17.57 181.78C17.7167 181.533 17.9067 181.327 18.14 181.16C18.3733 180.993 18.63 180.853 18.91 180.74C19.19 180.62 19.4667 180.513 19.74 180.42V179.84C19.74 179.74 19.73 179.653 19.71 179.58C19.69 179.5 19.6567 179.44 19.61 179.4C19.5633 179.353 19.4933 179.33 19.4 179.33C19.3067 179.33 19.2333 179.35 19.18 179.39C19.1333 179.43 19.1 179.487 19.08 179.56C19.06 179.627 19.0467 179.703 19.04 179.79L19 180.21L17.48 180.15C17.5133 179.457 17.6967 178.947 18.03 178.62C18.37 178.287 18.8767 178.12 19.55 178.12C20.1367 178.12 20.5733 178.283 20.86 178.61C21.1533 178.93 21.3 179.347 21.3 179.86V182.56C21.3 182.8 21.3033 183.01 21.31 183.19C21.3233 183.37 21.3367 183.527 21.35 183.66C21.37 183.793 21.3867 183.907 21.4 184H19.94C19.92 183.847 19.8967 183.68 19.87 183.5C19.8433 183.32 19.8233 183.213 19.81 183.18C19.7433 183.42 19.6167 183.633 19.43 183.82C19.25 184.007 19.0067 184.1 18.7 184.1ZM19.28 183C19.3467 183 19.4067 182.987 19.46 182.96C19.52 182.933 19.5733 182.897 19.62 182.85C19.6667 182.803 19.7067 182.757 19.74 182.71V181.13C19.6067 181.21 19.4833 181.293 19.37 181.38C19.2567 181.46 19.16 181.55 19.08 181.65C19 181.75 18.9367 181.86 18.89 181.98C18.85 182.093 18.83 182.223 18.83 182.37C18.83 182.563 18.87 182.717 18.95 182.83C19.03 182.943 19.14 183 19.28 183ZM24.1459 186C23.7125 186 23.3359 185.957 23.0159 185.87C22.6959 185.783 22.4459 185.653 22.2659 185.48C22.0925 185.307 22.0059 185.087 22.0059 184.82C22.0059 184.64 22.0425 184.477 22.1159 184.33C22.1959 184.19 22.3025 184.067 22.4359 183.96C22.5759 183.847 22.7325 183.75 22.9059 183.67C22.6525 183.597 22.4559 183.487 22.3159 183.34C22.1759 183.193 22.1059 182.997 22.1059 182.75C22.1059 182.517 22.1625 182.317 22.2759 182.15C22.3892 181.977 22.5459 181.803 22.7459 181.63C22.5592 181.463 22.4159 181.26 22.3159 181.02C22.2225 180.773 22.1759 180.477 22.1759 180.13C22.1759 179.697 22.2559 179.33 22.4159 179.03C22.5759 178.73 22.8092 178.503 23.1159 178.35C23.4292 178.197 23.8059 178.12 24.2459 178.12C24.5459 178.12 24.8092 178.157 25.0359 178.23C25.2625 178.303 25.4559 178.417 25.6159 178.57C25.6892 178.457 25.7859 178.347 25.9059 178.24C26.0259 178.133 26.1625 178.043 26.3159 177.97L26.5259 177.87L26.9059 178.65C26.8459 178.67 26.7625 178.703 26.6559 178.75C26.5492 178.797 26.4359 178.847 26.3159 178.9C26.2025 178.953 26.0992 179.007 26.0059 179.06C26.0792 179.207 26.1359 179.373 26.1759 179.56C26.2159 179.747 26.2359 179.94 26.2359 180.14C26.2359 180.553 26.1592 180.91 26.0059 181.21C25.8592 181.51 25.6392 181.74 25.3459 181.9C25.0525 182.053 24.6859 182.13 24.2459 182.13C24.0592 182.13 23.8825 182.117 23.7159 182.09C23.5492 182.057 23.3959 182.017 23.2559 181.97C23.2159 182.023 23.1792 182.08 23.1459 182.14C23.1192 182.193 23.1059 182.253 23.1059 182.32C23.1059 182.4 23.1459 182.463 23.2259 182.51C23.3059 182.557 23.4492 182.593 23.6559 182.62L25.1759 182.79C25.6692 182.843 26.0325 183.003 26.2659 183.27C26.4992 183.53 26.6159 183.873 26.6159 184.3C26.6159 184.667 26.5325 184.977 26.3659 185.23C26.2059 185.483 25.9425 185.673 25.5759 185.8C25.2159 185.933 24.7392 186 24.1459 186ZM24.3559 184.82C24.7225 184.82 25.0025 184.79 25.1959 184.73C25.3959 184.67 25.4959 184.547 25.4959 184.36C25.4959 184.267 25.4692 184.19 25.4159 184.13C25.3625 184.077 25.2725 184.033 25.1459 184C25.0259 183.96 24.8525 183.93 24.6259 183.91L23.5559 183.8C23.4892 183.847 23.4292 183.9 23.3759 183.96C23.3292 184.013 23.2892 184.07 23.2559 184.13C23.2292 184.197 23.2159 184.267 23.2159 184.34C23.2159 184.5 23.3025 184.62 23.4759 184.7C23.6492 184.78 23.9425 184.82 24.3559 184.82ZM24.2459 181.16C24.3392 181.16 24.4159 181.143 24.4759 181.11C24.5359 181.07 24.5792 181.01 24.6059 180.93C24.6392 180.85 24.6625 180.743 24.6759 180.61C24.6892 180.477 24.6959 180.317 24.6959 180.13C24.6959 179.937 24.6892 179.777 24.6759 179.65C24.6625 179.517 24.6392 179.41 24.6059 179.33C24.5792 179.243 24.5359 179.183 24.4759 179.15C24.4159 179.11 24.3392 179.09 24.2459 179.09C24.1525 179.09 24.0759 179.11 24.0159 179.15C23.9559 179.183 23.9092 179.24 23.8759 179.32C23.8492 179.4 23.8292 179.507 23.8159 179.64C23.8025 179.773 23.7959 179.937 23.7959 180.13C23.7959 180.317 23.8025 180.477 23.8159 180.61C23.8292 180.737 23.8492 180.843 23.8759 180.93C23.9092 181.01 23.9559 181.07 24.0159 181.11C24.0759 181.143 24.1525 181.16 24.2459 181.16ZM29.1559 184.1C28.7359 184.1 28.3759 184.027 28.0759 183.88C27.7759 183.727 27.5459 183.507 27.3859 183.22C27.2259 182.927 27.1459 182.577 27.1459 182.17V180.05C27.1459 179.637 27.2259 179.287 27.3859 179C27.5459 178.713 27.7759 178.497 28.0759 178.35C28.3825 178.197 28.7425 178.12 29.1559 178.12C29.5825 178.12 29.9359 178.193 30.2159 178.34C30.5025 178.487 30.7159 178.703 30.8559 178.99C31.0025 179.277 31.0759 179.63 31.0759 180.05V181.21H28.7559V182.32C28.7559 182.467 28.7725 182.587 28.8059 182.68C28.8392 182.773 28.8859 182.84 28.9459 182.88C29.0059 182.92 29.0759 182.94 29.1559 182.94C29.2359 182.94 29.3059 182.923 29.3659 182.89C29.4325 182.85 29.4825 182.79 29.5159 182.71C29.5559 182.63 29.5759 182.52 29.5759 182.38V181.77H31.0759V182.33C31.0759 182.917 30.9059 183.36 30.5659 183.66C30.2259 183.953 29.7559 184.1 29.1559 184.1ZM28.7559 180.45H29.5759V179.87C29.5759 179.717 29.5559 179.597 29.5159 179.51C29.4825 179.423 29.4325 179.363 29.3659 179.33C29.3059 179.297 29.2325 179.28 29.1459 179.28C29.0659 179.28 28.9959 179.3 28.9359 179.34C28.8825 179.38 28.8392 179.45 28.8059 179.55C28.7725 179.643 28.7559 179.78 28.7559 179.96V180.45ZM32.1231 179.88V178.36H33.6431V179.88H32.1231ZM32.1231 183.44V181.92H33.6431V183.44H32.1231Z"></path>
<path fill="#0D0E12" d="M19.39 196.1C18.97 196.1 18.61 196.023 18.31 195.87C18.0167 195.717 17.79 195.497 17.63 195.21C17.47 194.923 17.39 194.577 17.39 194.17V192.05C17.39 191.637 17.47 191.287 17.63 191C17.79 190.713 18.0167 190.497 18.31 190.35C18.61 190.197 18.97 190.12 19.39 190.12C19.8033 190.12 20.1533 190.183 20.44 190.31C20.7333 190.437 20.9567 190.63 21.11 190.89C21.2633 191.143 21.34 191.467 21.34 191.86V192.47H19.77V191.81C19.77 191.657 19.7533 191.54 19.72 191.46C19.6933 191.373 19.65 191.313 19.59 191.28C19.5367 191.247 19.47 191.23 19.39 191.23C19.31 191.23 19.2433 191.253 19.19 191.3C19.1367 191.34 19.0967 191.41 19.07 191.51C19.0433 191.603 19.03 191.737 19.03 191.91V194.31C19.03 194.57 19.06 194.747 19.12 194.84C19.1867 194.933 19.28 194.98 19.4 194.98C19.4867 194.98 19.5567 194.963 19.61 194.93C19.6633 194.89 19.7033 194.83 19.73 194.75C19.7567 194.663 19.77 194.55 19.77 194.41V193.64H21.34V194.34C21.34 194.727 21.26 195.053 21.1 195.32C20.9467 195.58 20.7233 195.777 20.43 195.91C20.1433 196.037 19.7967 196.1 19.39 196.1ZM23.2077 196.1C22.9744 196.1 22.7744 196.043 22.6077 195.93C22.4477 195.81 22.3277 195.647 22.2477 195.44C22.1677 195.233 22.1277 195.003 22.1277 194.75V190.22H23.7577V194.56C23.7577 194.7 23.7811 194.81 23.8277 194.89C23.8811 194.963 23.9711 195 24.0977 195C24.1711 195 24.2477 194.983 24.3277 194.95C24.4077 194.91 24.4911 194.867 24.5777 194.82V190.22H26.1977V196H24.5777V195.47C24.3711 195.663 24.1511 195.817 23.9177 195.93C23.6911 196.043 23.4544 196.1 23.2077 196.1ZM27.2268 197.9V190.22H28.8568V190.64C29.0501 190.467 29.2568 190.337 29.4768 190.25C29.6968 190.163 29.9068 190.12 30.1068 190.12C30.3268 190.12 30.5135 190.163 30.6668 190.25C30.8268 190.337 30.9568 190.46 31.0568 190.62C31.1568 190.773 31.2301 190.953 31.2768 191.16C31.3235 191.367 31.3468 191.587 31.3468 191.82V194.31C31.3468 194.67 31.2968 194.983 31.1968 195.25C31.1035 195.517 30.9635 195.727 30.7768 195.88C30.5901 196.027 30.3601 196.1 30.0868 196.1C29.8801 196.1 29.6701 196.053 29.4568 195.96C29.2501 195.86 29.0501 195.727 28.8568 195.56V197.9H27.2268ZM29.2868 195.05C29.3935 195.05 29.4768 195.02 29.5368 194.96C29.5968 194.9 29.6401 194.823 29.6668 194.73C29.7001 194.63 29.7168 194.52 29.7168 194.4V191.7C29.7168 191.587 29.7035 191.487 29.6768 191.4C29.6501 191.307 29.6068 191.233 29.5468 191.18C29.4868 191.127 29.4101 191.1 29.3168 191.1C29.2301 191.1 29.1468 191.12 29.0668 191.16C28.9935 191.193 28.9235 191.24 28.8568 191.3V194.9C28.9301 194.947 29.0001 194.983 29.0668 195.01C29.1401 195.037 29.2135 195.05 29.2868 195.05ZM34.0556 196.1C33.549 196.1 33.1256 195.987 32.7856 195.76C32.4523 195.533 32.179 195.163 31.9656 194.65L33.0756 194.16C33.1823 194.42 33.3056 194.627 33.4456 194.78C33.5923 194.927 33.7523 195 33.9256 195C34.0523 195 34.1456 194.973 34.2056 194.92C34.2723 194.867 34.3056 194.793 34.3056 194.7C34.3056 194.547 34.2456 194.407 34.1256 194.28C34.0123 194.153 33.8056 193.967 33.5056 193.72L33.0856 193.37C32.779 193.11 32.5356 192.86 32.3556 192.62C32.1823 192.373 32.0956 192.07 32.0956 191.71C32.0956 191.397 32.1756 191.12 32.3356 190.88C32.5023 190.64 32.7223 190.453 32.9956 190.32C33.269 190.187 33.5623 190.12 33.8756 190.12C34.349 190.12 34.7456 190.25 35.0656 190.51C35.3856 190.77 35.609 191.137 35.7356 191.61L34.6856 192.09C34.6456 191.963 34.589 191.837 34.5156 191.71C34.4423 191.583 34.3523 191.477 34.2456 191.39C34.1456 191.303 34.0356 191.26 33.9156 191.26C33.809 191.26 33.7223 191.29 33.6556 191.35C33.5956 191.41 33.5656 191.49 33.5656 191.59C33.5656 191.717 33.6356 191.853 33.7756 192C33.9223 192.147 34.1223 192.323 34.3756 192.53L34.7856 192.89C34.9523 193.03 35.1156 193.18 35.2756 193.34C35.4356 193.5 35.5656 193.677 35.6656 193.87C35.7723 194.063 35.8256 194.283 35.8256 194.53C35.8256 194.863 35.7423 195.15 35.5756 195.39C35.409 195.623 35.189 195.8 34.9156 195.92C34.649 196.04 34.3623 196.1 34.0556 196.1ZM36.6739 191.88V190.36H38.1939V191.88H36.6739ZM36.6739 195.44V193.92H38.1939V195.44H36.6739Z"></path>
<path fill="#0D0E12" d="M19.39 210C18.9567 210 18.58 209.957 18.26 209.87C17.94 209.783 17.69 209.653 17.51 209.48C17.3367 209.307 17.25 209.087 17.25 208.82C17.25 208.64 17.2867 208.477 17.36 208.33C17.44 208.19 17.5467 208.067 17.68 207.96C17.82 207.847 17.9767 207.75 18.15 207.67C17.8967 207.597 17.7 207.487 17.56 207.34C17.42 207.193 17.35 206.997 17.35 206.75C17.35 206.517 17.4067 206.317 17.52 206.15C17.6333 205.977 17.79 205.803 17.99 205.63C17.8033 205.463 17.66 205.26 17.56 205.02C17.4667 204.773 17.42 204.477 17.42 204.13C17.42 203.697 17.5 203.33 17.66 203.03C17.82 202.73 18.0533 202.503 18.36 202.35C18.6733 202.197 19.05 202.12 19.49 202.12C19.79 202.12 20.0533 202.157 20.28 202.23C20.5067 202.303 20.7 202.417 20.86 202.57C20.9333 202.457 21.03 202.347 21.15 202.24C21.27 202.133 21.4067 202.043 21.56 201.97L21.77 201.87L22.15 202.65C22.09 202.67 22.0067 202.703 21.9 202.75C21.7933 202.797 21.68 202.847 21.56 202.9C21.4467 202.953 21.3433 203.007 21.25 203.06C21.3233 203.207 21.38 203.373 21.42 203.56C21.46 203.747 21.48 203.94 21.48 204.14C21.48 204.553 21.4033 204.91 21.25 205.21C21.1033 205.51 20.8833 205.74 20.59 205.9C20.2967 206.053 19.93 206.13 19.49 206.13C19.3033 206.13 19.1267 206.117 18.96 206.09C18.7933 206.057 18.64 206.017 18.5 205.97C18.46 206.023 18.4233 206.08 18.39 206.14C18.3633 206.193 18.35 206.253 18.35 206.32C18.35 206.4 18.39 206.463 18.47 206.51C18.55 206.557 18.6933 206.593 18.9 206.62L20.42 206.79C20.9133 206.843 21.2767 207.003 21.51 207.27C21.7433 207.53 21.86 207.873 21.86 208.3C21.86 208.667 21.7767 208.977 21.61 209.23C21.45 209.483 21.1867 209.673 20.82 209.8C20.46 209.933 19.9833 210 19.39 210ZM19.6 208.82C19.9667 208.82 20.2467 208.79 20.44 208.73C20.64 208.67 20.74 208.547 20.74 208.36C20.74 208.267 20.7133 208.19 20.66 208.13C20.6067 208.077 20.5167 208.033 20.39 208C20.27 207.96 20.0967 207.93 19.87 207.91L18.8 207.8C18.7333 207.847 18.6733 207.9 18.62 207.96C18.5733 208.013 18.5333 208.07 18.5 208.13C18.4733 208.197 18.46 208.267 18.46 208.34C18.46 208.5 18.5467 208.62 18.72 208.7C18.8933 208.78 19.1867 208.82 19.6 208.82ZM19.49 205.16C19.5833 205.16 19.66 205.143 19.72 205.11C19.78 205.07 19.8233 205.01 19.85 204.93C19.8833 204.85 19.9067 204.743 19.92 204.61C19.9333 204.477 19.94 204.317 19.94 204.13C19.94 203.937 19.9333 203.777 19.92 203.65C19.9067 203.517 19.8833 203.41 19.85 203.33C19.8233 203.243 19.78 203.183 19.72 203.15C19.66 203.11 19.5833 203.09 19.49 203.09C19.3967 203.09 19.32 203.11 19.26 203.15C19.2 203.183 19.1533 203.24 19.12 203.32C19.0933 203.4 19.0733 203.507 19.06 203.64C19.0467 203.773 19.04 203.937 19.04 204.13C19.04 204.317 19.0467 204.477 19.06 204.61C19.0733 204.737 19.0933 204.843 19.12 204.93C19.1533 205.01 19.2 205.07 19.26 205.11C19.32 205.143 19.3967 205.16 19.49 205.16ZM23.7098 208.1C23.4164 208.1 23.1698 208.03 22.9698 207.89C22.7698 207.75 22.6198 207.573 22.5198 207.36C22.4198 207.14 22.3698 206.917 22.3698 206.69C22.3698 206.33 22.4398 206.027 22.5798 205.78C22.7264 205.533 22.9164 205.327 23.1498 205.16C23.3831 204.993 23.6398 204.853 23.9198 204.74C24.1998 204.62 24.4764 204.513 24.7498 204.42V203.84C24.7498 203.74 24.7398 203.653 24.7198 203.58C24.6998 203.5 24.6664 203.44 24.6198 203.4C24.5731 203.353 24.5031 203.33 24.4098 203.33C24.3164 203.33 24.2431 203.35 24.1898 203.39C24.1431 203.43 24.1098 203.487 24.0898 203.56C24.0698 203.627 24.0564 203.703 24.0498 203.79L24.0098 204.21L22.4898 204.15C22.5231 203.457 22.7064 202.947 23.0398 202.62C23.3798 202.287 23.8864 202.12 24.5598 202.12C25.1464 202.12 25.5831 202.283 25.8698 202.61C26.1631 202.93 26.3098 203.347 26.3098 203.86V206.56C26.3098 206.8 26.3131 207.01 26.3198 207.19C26.3331 207.37 26.3464 207.527 26.3598 207.66C26.3798 207.793 26.3964 207.907 26.4098 208H24.9498C24.9298 207.847 24.9064 207.68 24.8798 207.5C24.8531 207.32 24.8331 207.213 24.8198 207.18C24.7531 207.42 24.6264 207.633 24.4398 207.82C24.2598 208.007 24.0164 208.1 23.7098 208.1ZM24.2898 207C24.3564 207 24.4164 206.987 24.4698 206.96C24.5298 206.933 24.5831 206.897 24.6298 206.85C24.6764 206.803 24.7164 206.757 24.7498 206.71V205.13C24.6164 205.21 24.4931 205.293 24.3798 205.38C24.2664 205.46 24.1698 205.55 24.0898 205.65C24.0098 205.75 23.9464 205.86 23.8998 205.98C23.8598 206.093 23.8398 206.223 23.8398 206.37C23.8398 206.563 23.8798 206.717 23.9598 206.83C24.0398 206.943 24.1498 207 24.2898 207ZM27.2756 208V202.22H28.8756V202.68C29.089 202.473 29.309 202.327 29.5356 202.24C29.769 202.153 30.0056 202.11 30.2456 202.11C30.479 202.11 30.679 202.17 30.8456 202.29C31.019 202.403 31.149 202.573 31.2356 202.8C31.4623 202.547 31.699 202.37 31.9456 202.27C32.199 202.163 32.4523 202.11 32.7056 202.11C32.9323 202.11 33.129 202.167 33.2956 202.28C33.4623 202.387 33.5923 202.547 33.6856 202.76C33.779 202.967 33.8256 203.217 33.8256 203.51V208H32.2256V203.68C32.2256 203.52 32.1956 203.407 32.1356 203.34C32.0823 203.267 31.999 203.23 31.8856 203.23C31.819 203.23 31.7356 203.25 31.6356 203.29C31.5356 203.323 31.439 203.373 31.3456 203.44C31.3456 203.453 31.3456 203.467 31.3456 203.48C31.3456 203.487 31.3456 203.497 31.3456 203.51V208H29.7656V203.68C29.7656 203.52 29.7356 203.407 29.6756 203.34C29.6156 203.267 29.529 203.23 29.4156 203.23C29.3423 203.23 29.2556 203.25 29.1556 203.29C29.0623 203.323 28.969 203.373 28.8756 203.44V208H27.2756ZM36.6949 208.1C36.2749 208.1 35.9149 208.027 35.6149 207.88C35.3149 207.727 35.0849 207.507 34.9249 207.22C34.7649 206.927 34.6849 206.577 34.6849 206.17V204.05C34.6849 203.637 34.7649 203.287 34.9249 203C35.0849 202.713 35.3149 202.497 35.6149 202.35C35.9216 202.197 36.2816 202.12 36.6949 202.12C37.1216 202.12 37.4749 202.193 37.7549 202.34C38.0416 202.487 38.2549 202.703 38.3949 202.99C38.5416 203.277 38.6149 203.63 38.6149 204.05V205.21H36.2949V206.32C36.2949 206.467 36.3116 206.587 36.3449 206.68C36.3783 206.773 36.4249 206.84 36.4849 206.88C36.5449 206.92 36.6149 206.94 36.6949 206.94C36.7749 206.94 36.8449 206.923 36.9049 206.89C36.9716 206.85 37.0216 206.79 37.0549 206.71C37.0949 206.63 37.1149 206.52 37.1149 206.38V205.77H38.6149V206.33C38.6149 206.917 38.4449 207.36 38.1049 207.66C37.7649 207.953 37.2949 208.1 36.6949 208.1ZM36.2949 204.45H37.1149V203.87C37.1149 203.717 37.0949 203.597 37.0549 203.51C37.0216 203.423 36.9716 203.363 36.9049 203.33C36.8449 203.297 36.7716 203.28 36.6849 203.28C36.6049 203.28 36.5349 203.3 36.4749 203.34C36.4216 203.38 36.3783 203.45 36.3449 203.55C36.3116 203.643 36.2949 203.78 36.2949 203.96V204.45ZM41.2822 208.1C40.7755 208.1 40.3522 207.987 40.0122 207.76C39.6789 207.533 39.4055 207.163 39.1922 206.65L40.3022 206.16C40.4089 206.42 40.5322 206.627 40.6722 206.78C40.8189 206.927 40.9789 207 41.1522 207C41.2789 207 41.3722 206.973 41.4322 206.92C41.4989 206.867 41.5322 206.793 41.5322 206.7C41.5322 206.547 41.4722 206.407 41.3522 206.28C41.2389 206.153 41.0322 205.967 40.7322 205.72L40.3122 205.37C40.0055 205.11 39.7622 204.86 39.5822 204.62C39.4089 204.373 39.3222 204.07 39.3222 203.71C39.3222 203.397 39.4022 203.12 39.5622 202.88C39.7289 202.64 39.9489 202.453 40.2222 202.32C40.4955 202.187 40.7889 202.12 41.1022 202.12C41.5755 202.12 41.9722 202.25 42.2922 202.51C42.6122 202.77 42.8355 203.137 42.9622 203.61L41.9122 204.09C41.8722 203.963 41.8155 203.837 41.7422 203.71C41.6689 203.583 41.5789 203.477 41.4722 203.39C41.3722 203.303 41.2622 203.26 41.1422 203.26C41.0355 203.26 40.9489 203.29 40.8822 203.35C40.8222 203.41 40.7922 203.49 40.7922 203.59C40.7922 203.717 40.8622 203.853 41.0022 204C41.1489 204.147 41.3489 204.323 41.6022 204.53L42.0122 204.89C42.1789 205.03 42.3422 205.18 42.5022 205.34C42.6622 205.5 42.7922 205.677 42.8922 205.87C42.9989 206.063 43.0522 206.283 43.0522 206.53C43.0522 206.863 42.9689 207.15 42.8022 207.39C42.6355 207.623 42.4155 207.8 42.1422 207.92C41.8755 208.04 41.5889 208.1 41.2822 208.1ZM46.2991 209.9V202.22H47.9291V202.64C48.1224 202.467 48.3291 202.337 48.5491 202.25C48.7691 202.163 48.9791 202.12 49.1791 202.12C49.3991 202.12 49.5857 202.163 49.7391 202.25C49.8991 202.337 50.0291 202.46 50.1291 202.62C50.2291 202.773 50.3024 202.953 50.3491 203.16C50.3957 203.367 50.4191 203.587 50.4191 203.82V206.31C50.4191 206.67 50.3691 206.983 50.2691 207.25C50.1757 207.517 50.0357 207.727 49.8491 207.88C49.6624 208.027 49.4324 208.1 49.1591 208.1C48.9524 208.1 48.7424 208.053 48.5291 207.96C48.3224 207.86 48.1224 207.727 47.9291 207.56V209.9H46.2991ZM48.3591 207.05C48.4657 207.05 48.5491 207.02 48.6091 206.96C48.6691 206.9 48.7124 206.823 48.7391 206.73C48.7724 206.63 48.7891 206.52 48.7891 206.4V203.7C48.7891 203.587 48.7757 203.487 48.7491 203.4C48.7224 203.307 48.6791 203.233 48.6191 203.18C48.5591 203.127 48.4824 203.1 48.3891 203.1C48.3024 203.1 48.2191 203.12 48.1391 203.16C48.0657 203.193 47.9957 203.24 47.9291 203.3V206.9C48.0024 206.947 48.0724 206.983 48.1391 207.01C48.2124 207.037 48.2857 207.05 48.3591 207.05ZM51.4179 208V199.9H53.0379V208H51.4179ZM55.282 208.1C54.9887 208.1 54.742 208.03 54.542 207.89C54.342 207.75 54.192 207.573 54.092 207.36C53.992 207.14 53.942 206.917 53.942 206.69C53.942 206.33 54.012 206.027 54.152 205.78C54.2987 205.533 54.4887 205.327 54.722 205.16C54.9554 204.993 55.212 204.853 55.492 204.74C55.772 204.62 56.0487 204.513 56.322 204.42V203.84C56.322 203.74 56.312 203.653 56.292 203.58C56.272 203.5 56.2387 203.44 56.192 203.4C56.1454 203.353 56.0754 203.33 55.982 203.33C55.8887 203.33 55.8154 203.35 55.762 203.39C55.7154 203.43 55.682 203.487 55.662 203.56C55.642 203.627 55.6287 203.703 55.622 203.79L55.582 204.21L54.062 204.15C54.0954 203.457 54.2787 202.947 54.612 202.62C54.952 202.287 55.4587 202.12 56.132 202.12C56.7187 202.12 57.1554 202.283 57.442 202.61C57.7354 202.93 57.882 203.347 57.882 203.86V206.56C57.882 206.8 57.8854 207.01 57.892 207.19C57.9054 207.37 57.9187 207.527 57.932 207.66C57.952 207.793 57.9687 207.907 57.982 208H56.522C56.502 207.847 56.4787 207.68 56.452 207.5C56.4254 207.32 56.4054 207.213 56.392 207.18C56.3254 207.42 56.1987 207.633 56.012 207.82C55.832 208.007 55.5887 208.1 55.282 208.1ZM55.862 207C55.9287 207 55.9887 206.987 56.042 206.96C56.102 206.933 56.1554 206.897 56.202 206.85C56.2487 206.803 56.2887 206.757 56.322 206.71V205.13C56.1887 205.21 56.0654 205.293 55.952 205.38C55.8387 205.46 55.742 205.55 55.662 205.65C55.582 205.75 55.5187 205.86 55.472 205.98C55.432 206.093 55.412 206.223 55.412 206.37C55.412 206.563 55.452 206.717 55.532 206.83C55.612 206.943 55.722 207 55.862 207ZM59.0079 209.68V208.55C59.2146 208.55 59.3846 208.537 59.5179 208.51C59.6579 208.483 59.7612 208.433 59.8279 208.36C59.9012 208.287 59.9379 208.187 59.9379 208.06C59.9379 207.947 59.9179 207.81 59.8779 207.65C59.8379 207.483 59.7879 207.297 59.7279 207.09L58.3679 202.22H59.8979L60.6279 205.56L61.1779 202.22H62.7179L61.3879 208.14C61.3012 208.54 61.1646 208.85 60.9779 209.07C60.7912 209.297 60.5612 209.453 60.2879 209.54C60.0212 209.633 59.7179 209.68 59.3779 209.68H59.0079ZM65.2203 208.1C64.8003 208.1 64.4403 208.027 64.1403 207.88C63.8403 207.727 63.6103 207.507 63.4503 207.22C63.2903 206.927 63.2103 206.577 63.2103 206.17V204.05C63.2103 203.637 63.2903 203.287 63.4503 203C63.6103 202.713 63.8403 202.497 64.1403 202.35C64.447 202.197 64.807 202.12 65.2203 202.12C65.647 202.12 66.0003 202.193 66.2803 202.34C66.567 202.487 66.7803 202.703 66.9203 202.99C67.067 203.277 67.1403 203.63 67.1403 204.05V205.21H64.8203V206.32C64.8203 206.467 64.837 206.587 64.8703 206.68C64.9036 206.773 64.9503 206.84 65.0103 206.88C65.0703 206.92 65.1403 206.94 65.2203 206.94C65.3003 206.94 65.3703 206.923 65.4303 206.89C65.497 206.85 65.547 206.79 65.5803 206.71C65.6203 206.63 65.6403 206.52 65.6403 206.38V205.77H67.1403V206.33C67.1403 206.917 66.9703 207.36 66.6303 207.66C66.2903 207.953 65.8203 208.1 65.2203 208.1ZM64.8203 204.45H65.6403V203.87C65.6403 203.717 65.6203 203.597 65.5803 203.51C65.547 203.423 65.497 203.363 65.4303 203.33C65.3703 203.297 65.297 203.28 65.2103 203.28C65.1303 203.28 65.0603 203.3 65.0003 203.34C64.947 203.38 64.9036 203.45 64.8703 203.55C64.837 203.643 64.8203 203.78 64.8203 203.96V204.45ZM69.2776 208.1C68.8509 208.1 68.5209 207.95 68.2876 207.65C68.0542 207.35 67.9376 206.907 67.9376 206.32V203.93C67.9376 203.57 67.9876 203.257 68.0876 202.99C68.1876 202.717 68.3376 202.503 68.5376 202.35C68.7376 202.197 68.9842 202.12 69.2776 202.12C69.4909 202.12 69.6942 202.163 69.8876 202.25C70.0809 202.33 70.2576 202.44 70.4176 202.58V199.9H72.0476V208H70.4176V207.55C70.2376 207.723 70.0509 207.86 69.8576 207.96C69.6642 208.053 69.4709 208.1 69.2776 208.1ZM69.9876 207.06C70.0409 207.06 70.1042 207.047 70.1776 207.02C70.2576 206.993 70.3376 206.957 70.4176 206.91V203.26C70.3509 203.227 70.2809 203.197 70.2076 203.17C70.1342 203.143 70.0642 203.13 69.9976 203.13C69.8509 203.13 69.7442 203.193 69.6776 203.32C69.6109 203.44 69.5776 203.587 69.5776 203.76V206.42C69.5776 206.54 69.5909 206.65 69.6176 206.75C69.6442 206.843 69.6876 206.92 69.7476 206.98C69.8076 207.033 69.8876 207.06 69.9876 207.06ZM73.2169 203.88V202.36H74.7369V203.88H73.2169ZM73.2169 207.44V205.92H74.7369V207.44H73.2169Z"></path>
<path fill="#0D0E12" d="M18.06 221L17.21 215.22H18.57L18.99 218.5L19.44 215.22H20.62L21.01 218.58L21.5 215.22H22.76L21.9 221H20.5L20 217.75L19.44 221H18.06ZM23.4868 221V215.22H25.1168V221H23.4868ZM23.4768 214.24V213.11H25.1168V214.24H23.4768ZM26.1233 221V215.22H27.7533V215.8C27.9666 215.587 28.1866 215.42 28.4133 215.3C28.6466 215.18 28.8899 215.12 29.1433 215.12C29.3833 215.12 29.5799 215.18 29.7333 215.3C29.8933 215.413 30.0133 215.573 30.0933 215.78C30.1733 215.98 30.2133 216.21 30.2133 216.47V221H28.5933V216.7C28.5933 216.56 28.5699 216.453 28.5233 216.38C28.4766 216.307 28.3899 216.27 28.2633 216.27C28.1966 216.27 28.1166 216.29 28.0233 216.33C27.9366 216.363 27.8466 216.413 27.7533 216.48V221H26.1233ZM32.9716 221.1C32.465 221.1 32.0416 220.987 31.7016 220.76C31.3683 220.533 31.095 220.163 30.8816 219.65L31.9916 219.16C32.0983 219.42 32.2216 219.627 32.3616 219.78C32.5083 219.927 32.6683 220 32.8416 220C32.9683 220 33.0616 219.973 33.1216 219.92C33.1883 219.867 33.2216 219.793 33.2216 219.7C33.2216 219.547 33.1616 219.407 33.0416 219.28C32.9283 219.153 32.7216 218.967 32.4216 218.72L32.0016 218.37C31.695 218.11 31.4516 217.86 31.2716 217.62C31.0983 217.373 31.0116 217.07 31.0116 216.71C31.0116 216.397 31.0916 216.12 31.2516 215.88C31.4183 215.64 31.6383 215.453 31.9116 215.32C32.185 215.187 32.4783 215.12 32.7916 215.12C33.265 215.12 33.6616 215.25 33.9816 215.51C34.3016 215.77 34.525 216.137 34.6516 216.61L33.6016 217.09C33.5616 216.963 33.505 216.837 33.4316 216.71C33.3583 216.583 33.2683 216.477 33.1616 216.39C33.0616 216.303 32.9516 216.26 32.8316 216.26C32.725 216.26 32.6383 216.29 32.5716 216.35C32.5116 216.41 32.4816 216.49 32.4816 216.59C32.4816 216.717 32.5516 216.853 32.6916 217C32.8383 217.147 33.0383 217.323 33.2916 217.53L33.7016 217.89C33.8683 218.03 34.0316 218.18 34.1916 218.34C34.3516 218.5 34.4816 218.677 34.5816 218.87C34.6883 219.063 34.7416 219.283 34.7416 219.53C34.7416 219.863 34.6583 220.15 34.4916 220.39C34.325 220.623 34.105 220.8 33.8316 220.92C33.565 221.04 33.2783 221.1 32.9716 221.1ZM35.5899 216.88V215.36H37.1099V216.88H35.5899ZM35.5899 220.44V218.92H37.1099V220.44H35.5899Z"></path>
<path fill="#0D0E12" d="M17.58 233V224.9H19.2V233H17.58ZM22.1541 233.1C21.7408 233.1 21.3808 233.03 21.0741 232.89C20.7741 232.75 20.5408 232.54 20.3741 232.26C20.2141 231.98 20.1341 231.63 20.1341 231.21V229.01C20.1341 228.59 20.2141 228.24 20.3741 227.96C20.5408 227.68 20.7741 227.47 21.0741 227.33C21.3808 227.19 21.7408 227.12 22.1541 227.12C22.5675 227.12 22.9241 227.19 23.2241 227.33C23.5308 227.47 23.7675 227.68 23.9341 227.96C24.1008 228.24 24.1841 228.59 24.1841 229.01V231.21C24.1841 231.63 24.1008 231.98 23.9341 232.26C23.7675 232.54 23.5308 232.75 23.2241 232.89C22.9241 233.03 22.5675 233.1 22.1541 233.1ZM22.1641 232.02C22.2708 232.02 22.3541 231.993 22.4141 231.94C22.4741 231.88 22.5141 231.8 22.5341 231.7C22.5608 231.593 22.5741 231.467 22.5741 231.32V228.9C22.5741 228.753 22.5608 228.63 22.5341 228.53C22.5141 228.423 22.4741 228.343 22.4141 228.29C22.3541 228.23 22.2708 228.2 22.1641 228.2C22.0575 228.2 21.9741 228.23 21.9141 228.29C21.8541 228.343 21.8108 228.423 21.7841 228.53C21.7575 228.63 21.7441 228.753 21.7441 228.9V231.32C21.7441 231.467 21.7575 231.593 21.7841 231.7C21.8108 231.8 21.8541 231.88 21.9141 231.94C21.9741 231.993 22.0575 232.02 22.1641 232.02ZM26.8681 233.1C26.3615 233.1 25.9381 232.987 25.5981 232.76C25.2648 232.533 24.9915 232.163 24.7781 231.65L25.8881 231.16C25.9948 231.42 26.1181 231.627 26.2581 231.78C26.4048 231.927 26.5648 232 26.7381 232C26.8648 232 26.9581 231.973 27.0181 231.92C27.0848 231.867 27.1181 231.793 27.1181 231.7C27.1181 231.547 27.0581 231.407 26.9381 231.28C26.8248 231.153 26.6181 230.967 26.3181 230.72L25.8981 230.37C25.5915 230.11 25.3481 229.86 25.1681 229.62C24.9948 229.373 24.9081 229.07 24.9081 228.71C24.9081 228.397 24.9881 228.12 25.1481 227.88C25.3148 227.64 25.5348 227.453 25.8081 227.32C26.0815 227.187 26.3748 227.12 26.6881 227.12C27.1615 227.12 27.5581 227.25 27.8781 227.51C28.1981 227.77 28.4215 228.137 28.5481 228.61L27.4981 229.09C27.4581 228.963 27.4015 228.837 27.3281 228.71C27.2548 228.583 27.1648 228.477 27.0581 228.39C26.9581 228.303 26.8481 228.26 26.7281 228.26C26.6215 228.26 26.5348 228.29 26.4681 228.35C26.4081 228.41 26.3781 228.49 26.3781 228.59C26.3781 228.717 26.4481 228.853 26.5881 229C26.7348 229.147 26.9348 229.323 27.1881 229.53L27.5981 229.89C27.7648 230.03 27.9281 230.18 28.0881 230.34C28.2481 230.5 28.3781 230.677 28.4781 230.87C28.5848 231.063 28.6381 231.283 28.6381 231.53C28.6381 231.863 28.5548 232.15 28.3881 232.39C28.2215 232.623 28.0015 232.8 27.7281 232.92C27.4615 233.04 27.1748 233.1 26.8681 233.1ZM31.1064 233.1C30.5997 233.1 30.1764 232.987 29.8364 232.76C29.5031 232.533 29.2297 232.163 29.0164 231.65L30.1264 231.16C30.2331 231.42 30.3564 231.627 30.4964 231.78C30.6431 231.927 30.8031 232 30.9764 232C31.1031 232 31.1964 231.973 31.2564 231.92C31.3231 231.867 31.3564 231.793 31.3564 231.7C31.3564 231.547 31.2964 231.407 31.1764 231.28C31.0631 231.153 30.8564 230.967 30.5564 230.72L30.1364 230.37C29.8297 230.11 29.5864 229.86 29.4064 229.62C29.2331 229.373 29.1464 229.07 29.1464 228.71C29.1464 228.397 29.2264 228.12 29.3864 227.88C29.5531 227.64 29.7731 227.453 30.0464 227.32C30.3197 227.187 30.6131 227.12 30.9264 227.12C31.3997 227.12 31.7964 227.25 32.1164 227.51C32.4364 227.77 32.6597 228.137 32.7864 228.61L31.7364 229.09C31.6964 228.963 31.6397 228.837 31.5664 228.71C31.4931 228.583 31.4031 228.477 31.2964 228.39C31.1964 228.303 31.0864 228.26 30.9664 228.26C30.8597 228.26 30.7731 228.29 30.7064 228.35C30.6464 228.41 30.6164 228.49 30.6164 228.59C30.6164 228.717 30.6864 228.853 30.8264 229C30.9731 229.147 31.1731 229.323 31.4264 229.53L31.8364 229.89C32.0031 230.03 32.1664 230.18 32.3264 230.34C32.4864 230.5 32.6164 230.677 32.7164 230.87C32.8231 231.063 32.8764 231.283 32.8764 231.53C32.8764 231.863 32.7931 232.15 32.6264 232.39C32.4597 232.623 32.2397 232.8 31.9664 232.92C31.6997 233.04 31.4131 233.1 31.1064 233.1ZM35.4547 233.1C35.0347 233.1 34.6747 233.027 34.3747 232.88C34.0747 232.727 33.8447 232.507 33.6847 232.22C33.5247 231.927 33.4447 231.577 33.4447 231.17V229.05C33.4447 228.637 33.5247 228.287 33.6847 228C33.8447 227.713 34.0747 227.497 34.3747 227.35C34.6814 227.197 35.0414 227.12 35.4547 227.12C35.8814 227.12 36.2347 227.193 36.5147 227.34C36.8014 227.487 37.0147 227.703 37.1547 227.99C37.3014 228.277 37.3747 228.63 37.3747 229.05V230.21H35.0547V231.32C35.0547 231.467 35.0714 231.587 35.1047 231.68C35.138 231.773 35.1847 231.84 35.2447 231.88C35.3047 231.92 35.3747 231.94 35.4547 231.94C35.5347 231.94 35.6047 231.923 35.6647 231.89C35.7314 231.85 35.7814 231.79 35.8147 231.71C35.8547 231.63 35.8747 231.52 35.8747 231.38V230.77H37.3747V231.33C37.3747 231.917 37.2047 232.36 36.8647 232.66C36.5247 232.953 36.0547 233.1 35.4547 233.1ZM35.0547 229.45H35.8747V228.87C35.8747 228.717 35.8547 228.597 35.8147 228.51C35.7814 228.423 35.7314 228.363 35.6647 228.33C35.6047 228.297 35.5314 228.28 35.4447 228.28C35.3647 228.28 35.2947 228.3 35.2347 228.34C35.1814 228.38 35.138 228.45 35.1047 228.55C35.0714 228.643 35.0547 228.78 35.0547 228.96V229.45ZM40.042 233.1C39.5353 233.1 39.112 232.987 38.772 232.76C38.4386 232.533 38.1653 232.163 37.952 231.65L39.062 231.16C39.1686 231.42 39.292 231.627 39.432 231.78C39.5786 231.927 39.7386 232 39.912 232C40.0386 232 40.132 231.973 40.192 231.92C40.2586 231.867 40.292 231.793 40.292 231.7C40.292 231.547 40.232 231.407 40.112 231.28C39.9986 231.153 39.792 230.967 39.492 230.72L39.072 230.37C38.7653 230.11 38.522 229.86 38.342 229.62C38.1686 229.373 38.082 229.07 38.082 228.71C38.082 228.397 38.162 228.12 38.322 227.88C38.4886 227.64 38.7086 227.453 38.982 227.32C39.2553 227.187 39.5486 227.12 39.862 227.12C40.3353 227.12 40.732 227.25 41.052 227.51C41.372 227.77 41.5953 228.137 41.722 228.61L40.672 229.09C40.632 228.963 40.5753 228.837 40.502 228.71C40.4286 228.583 40.3386 228.477 40.232 228.39C40.132 228.303 40.022 228.26 39.902 228.26C39.7953 228.26 39.7086 228.29 39.642 228.35C39.582 228.41 39.552 228.49 39.552 228.59C39.552 228.717 39.622 228.853 39.762 229C39.9086 229.147 40.1086 229.323 40.362 229.53L40.772 229.89C40.9386 230.03 41.102 230.18 41.262 230.34C41.422 230.5 41.552 230.677 41.652 230.87C41.7586 231.063 41.812 231.283 41.812 231.53C41.812 231.863 41.7286 232.15 41.562 232.39C41.3953 232.623 41.1753 232.8 40.902 232.92C40.6353 233.04 40.3486 233.1 40.042 233.1ZM42.6602 228.88V227.36H44.1802V228.88H42.6602ZM42.6602 232.44V230.92H44.1802V232.44H42.6602Z"></path>
<path fill="#0D0E12" d="M18.76 245.1C18.3333 245.1 18.0033 244.95 17.77 244.65C17.5367 244.35 17.42 243.907 17.42 243.32V240.93C17.42 240.57 17.47 240.257 17.57 239.99C17.67 239.717 17.82 239.503 18.02 239.35C18.22 239.197 18.4667 239.12 18.76 239.12C18.9733 239.12 19.1767 239.163 19.37 239.25C19.5633 239.33 19.74 239.44 19.9 239.58V236.9H21.53V245H19.9V244.55C19.72 244.723 19.5333 244.86 19.34 244.96C19.1467 245.053 18.9533 245.1 18.76 245.1ZM19.47 244.06C19.5233 244.06 19.5867 244.047 19.66 244.02C19.74 243.993 19.82 243.957 19.9 243.91V240.26C19.8333 240.227 19.7633 240.197 19.69 240.17C19.6167 240.143 19.5467 240.13 19.48 240.13C19.3333 240.13 19.2267 240.193 19.16 240.32C19.0933 240.44 19.06 240.587 19.06 240.76V243.42C19.06 243.54 19.0733 243.65 19.1 243.75C19.1267 243.843 19.17 243.92 19.23 243.98C19.29 244.033 19.37 244.06 19.47 244.06ZM22.5593 245V239.22H24.1893V240.18C24.376 239.847 24.5626 239.593 24.7493 239.42C24.936 239.24 25.1626 239.15 25.4293 239.15C25.4826 239.15 25.5293 239.153 25.5693 239.16C25.6093 239.16 25.646 239.167 25.6793 239.18V240.8C25.606 240.767 25.5226 240.74 25.4293 240.72C25.3426 240.693 25.2493 240.68 25.1493 240.68C24.9626 240.68 24.7893 240.73 24.6293 240.83C24.4693 240.93 24.3226 241.067 24.1893 241.24V245H22.5593ZM27.5281 245.1C27.2348 245.1 26.9881 245.03 26.7881 244.89C26.5881 244.75 26.4381 244.573 26.3381 244.36C26.2381 244.14 26.1881 243.917 26.1881 243.69C26.1881 243.33 26.2581 243.027 26.3981 242.78C26.5448 242.533 26.7348 242.327 26.9681 242.16C27.2015 241.993 27.4581 241.853 27.7381 241.74C28.0181 241.62 28.2948 241.513 28.5681 241.42V240.84C28.5681 240.74 28.5581 240.653 28.5381 240.58C28.5181 240.5 28.4848 240.44 28.4381 240.4C28.3915 240.353 28.3215 240.33 28.2281 240.33C28.1348 240.33 28.0615 240.35 28.0081 240.39C27.9615 240.43 27.9281 240.487 27.9081 240.56C27.8881 240.627 27.8748 240.703 27.8681 240.79L27.8281 241.21L26.3081 241.15C26.3415 240.457 26.5248 239.947 26.8581 239.62C27.1981 239.287 27.7048 239.12 28.3781 239.12C28.9648 239.12 29.4015 239.283 29.6881 239.61C29.9815 239.93 30.1281 240.347 30.1281 240.86V243.56C30.1281 243.8 30.1315 244.01 30.1381 244.19C30.1515 244.37 30.1648 244.527 30.1781 244.66C30.1981 244.793 30.2148 244.907 30.2281 245H28.7681C28.7481 244.847 28.7248 244.68 28.6981 244.5C28.6715 244.32 28.6515 244.213 28.6381 244.18C28.5715 244.42 28.4448 244.633 28.2581 244.82C28.0781 245.007 27.8348 245.1 27.5281 245.1ZM28.1081 244C28.1748 244 28.2348 243.987 28.2881 243.96C28.3481 243.933 28.4015 243.897 28.4481 243.85C28.4948 243.803 28.5348 243.757 28.5681 243.71V242.13C28.4348 242.21 28.3115 242.293 28.1981 242.38C28.0848 242.46 27.9881 242.55 27.9081 242.65C27.8281 242.75 27.7648 242.86 27.7181 242.98C27.6781 243.093 27.6581 243.223 27.6581 243.37C27.6581 243.563 27.6981 243.717 27.7781 243.83C27.8581 243.943 27.9681 244 28.1081 244ZM31.644 245L30.794 239.22H32.154L32.574 242.5L33.024 239.22H34.204L34.594 242.58L35.084 239.22H36.344L35.484 245H34.084L33.584 241.75L33.024 245H31.644ZM38.8408 245.1C38.3341 245.1 37.9108 244.987 37.5708 244.76C37.2374 244.533 36.9641 244.163 36.7508 243.65L37.8608 243.16C37.9674 243.42 38.0908 243.627 38.2308 243.78C38.3774 243.927 38.5374 244 38.7108 244C38.8374 244 38.9308 243.973 38.9908 243.92C39.0574 243.867 39.0908 243.793 39.0908 243.7C39.0908 243.547 39.0308 243.407 38.9108 243.28C38.7974 243.153 38.5908 242.967 38.2908 242.72L37.8708 242.37C37.5641 242.11 37.3208 241.86 37.1408 241.62C36.9674 241.373 36.8808 241.07 36.8808 240.71C36.8808 240.397 36.9608 240.12 37.1208 239.88C37.2874 239.64 37.5074 239.453 37.7808 239.32C38.0541 239.187 38.3474 239.12 38.6608 239.12C39.1341 239.12 39.5308 239.25 39.8508 239.51C40.1708 239.77 40.3941 240.137 40.5208 240.61L39.4708 241.09C39.4308 240.963 39.3741 240.837 39.3008 240.71C39.2274 240.583 39.1374 240.477 39.0308 240.39C38.9308 240.303 38.8208 240.26 38.7008 240.26C38.5941 240.26 38.5074 240.29 38.4408 240.35C38.3808 240.41 38.3508 240.49 38.3508 240.59C38.3508 240.717 38.4208 240.853 38.5608 241C38.7074 241.147 38.9074 241.323 39.1608 241.53L39.5708 241.89C39.7374 242.03 39.9008 242.18 40.0608 242.34C40.2208 242.5 40.3508 242.677 40.4508 242.87C40.5574 243.063 40.6108 243.283 40.6108 243.53C40.6108 243.863 40.5274 244.15 40.3608 244.39C40.1941 244.623 39.9741 244.8 39.7008 244.92C39.4341 245.04 39.1474 245.1 38.8408 245.1ZM41.4591 240.88V239.36H42.9791V240.88H41.4591ZM41.4591 244.44V242.92H42.9791V244.44H41.4591Z"></path>
<path fill="#0D0E12" d="M255.447 158V151.55C255.374 151.59 255.291 151.63 255.197 151.67C255.104 151.71 255.004 151.753 254.897 151.8C254.797 151.84 254.697 151.88 254.597 151.92C254.504 151.96 254.417 152 254.337 152.04V150.8C254.411 150.76 254.514 150.707 254.647 150.64C254.781 150.567 254.924 150.487 255.077 150.4C255.231 150.313 255.374 150.227 255.507 150.14C255.641 150.047 255.741 149.967 255.807 149.9H257.117V158H255.447ZM260.754 158.15C260.267 158.15 259.861 158.053 259.534 157.86C259.207 157.66 258.961 157.387 258.794 157.04C258.627 156.693 258.544 156.29 258.544 155.83V152.16C258.544 151.687 258.621 151.273 258.774 150.92C258.934 150.56 259.177 150.28 259.504 150.08C259.831 149.88 260.247 149.78 260.754 149.78C261.261 149.78 261.674 149.88 261.994 150.08C262.321 150.28 262.561 150.56 262.714 150.92C262.874 151.273 262.954 151.687 262.954 152.16V155.83C262.954 156.283 262.871 156.687 262.704 157.04C262.537 157.387 262.291 157.66 261.964 157.86C261.637 158.053 261.234 158.15 260.754 158.15ZM260.754 156.66C260.914 156.66 261.027 156.61 261.094 156.51C261.167 156.403 261.211 156.283 261.224 156.15C261.244 156.01 261.254 155.89 261.254 155.79V152.2C261.254 152.087 261.247 151.96 261.234 151.82C261.221 151.673 261.177 151.547 261.104 151.44C261.037 151.327 260.921 151.27 260.754 151.27C260.587 151.27 260.467 151.327 260.394 151.44C260.327 151.547 260.287 151.673 260.274 151.82C260.261 151.96 260.254 152.087 260.254 152.2V155.79C260.254 155.89 260.264 156.01 260.284 156.15C260.304 156.283 260.347 156.403 260.414 156.51C260.487 156.61 260.601 156.66 260.754 156.66ZM266.252 158.15C265.765 158.15 265.359 158.053 265.032 157.86C264.705 157.66 264.459 157.387 264.292 157.04C264.125 156.693 264.042 156.29 264.042 155.83V152.16C264.042 151.687 264.119 151.273 264.272 150.92C264.432 150.56 264.675 150.28 265.002 150.08C265.329 149.88 265.745 149.78 266.252 149.78C266.759 149.78 267.172 149.88 267.492 150.08C267.819 150.28 268.059 150.56 268.212 150.92C268.372 151.273 268.452 151.687 268.452 152.16V155.83C268.452 156.283 268.369 156.687 268.202 157.04C268.035 157.387 267.789 157.66 267.462 157.86C267.135 158.053 266.732 158.15 266.252 158.15ZM266.252 156.66C266.412 156.66 266.525 156.61 266.592 156.51C266.665 156.403 266.709 156.283 266.722 156.15C266.742 156.01 266.752 155.89 266.752 155.79V152.2C266.752 152.087 266.745 151.96 266.732 151.82C266.719 151.673 266.675 151.547 266.602 151.44C266.535 151.327 266.419 151.27 266.252 151.27C266.085 151.27 265.965 151.327 265.892 151.44C265.825 151.547 265.785 151.673 265.772 151.82C265.759 151.96 265.752 152.087 265.752 152.2V155.79C265.752 155.89 265.762 156.01 265.782 156.15C265.802 156.283 265.845 156.403 265.912 156.51C265.985 156.61 266.099 156.66 266.252 156.66Z"></path>
<path fill="#0D0E12" d="M266.252 279.15C265.765 279.15 265.359 279.053 265.032 278.86C264.705 278.66 264.459 278.387 264.292 278.04C264.125 277.693 264.042 277.29 264.042 276.83V273.16C264.042 272.687 264.119 272.273 264.272 271.92C264.432 271.56 264.675 271.28 265.002 271.08C265.329 270.88 265.745 270.78 266.252 270.78C266.759 270.78 267.172 270.88 267.492 271.08C267.819 271.28 268.059 271.56 268.212 271.92C268.372 272.273 268.452 272.687 268.452 273.16V276.83C268.452 277.283 268.369 277.687 268.202 278.04C268.035 278.387 267.789 278.66 267.462 278.86C267.135 279.053 266.732 279.15 266.252 279.15ZM266.252 277.66C266.412 277.66 266.525 277.61 266.592 277.51C266.665 277.403 266.709 277.283 266.722 277.15C266.742 277.01 266.752 276.89 266.752 276.79V273.2C266.752 273.087 266.745 272.96 266.732 272.82C266.719 272.673 266.675 272.547 266.602 272.44C266.535 272.327 266.419 272.27 266.252 272.27C266.085 272.27 265.965 272.327 265.892 272.44C265.825 272.547 265.785 272.673 265.772 272.82C265.759 272.96 265.752 273.087 265.752 273.2V276.79C265.752 276.89 265.762 277.01 265.782 277.15C265.802 277.283 265.845 277.403 265.912 277.51C265.985 277.61 266.099 277.66 266.252 277.66Z"></path>
<rect fill="#F1F1F1" transform="rotate(90 463 268)" height="192" width="1.00001" y="268" x="463"></rect>
<rect fill="#F1F1F1" transform="rotate(90 463 211)" height="192" width="1.00001" y="211" x="463"></rect>
<rect fill="#F1F1F1" transform="rotate(90 463 239)" height="192" width="1.00001" y="239" x="463"></rect>
<rect fill="#F1F1F1" transform="rotate(90 463 182)" height="192" width="1.00001" y="182" x="463"></rect>
<rect fill="#F1F1F1" transform="rotate(90 463 153)" height="192" width="1.00001" y="153" x="463"></rect>
<rect fill="#F1F1F1" height="116" width="1" y="153" x="271"></rect>
<rect fill="#F1F1F1" height="39" width="29" y="48" x="331"></rect>
<rect fill="#F1F1F1" height="39" width="29" y="48" x="399"></rect>
<rect fill="#F1F1F1" height="39" width="29" y="48" x="365"></rect>
<rect fill="#F1F1F1" height="39" width="29" y="48" x="297"></rect>
<rect fill="#F1F1F1" height="39" width="29" y="48" x="433"></rect>
<rect fill="#F1F1F1" height="39" width="29" y="92" x="297"></rect>
<rect fill="#F1F1F1" height="39" width="29" y="92" x="331"></rect>
<rect fill="#F1F1F1" height="39" width="29" y="92" x="365"></rect>
<rect fill="#F1F1F1" height="39" width="29" y="92" x="399"></rect>
<rect fill="#F1F1F1" height="39" width="29" y="92" x="433"></rect>
<path fill="#0D0E12" d="M267.1 231.587C267.1 232.007 267.027 232.367 266.88 232.667C266.727 232.967 266.507 233.197 266.22 233.357C265.927 233.517 265.577 233.597 265.17 233.597L263.05 233.597C262.637 233.597 262.287 233.517 262 233.357C261.713 233.197 261.497 232.967 261.35 232.667C261.197 232.361 261.12 232.001 261.12 231.587C261.12 231.161 261.193 230.807 261.34 230.527C261.487 230.241 261.703 230.027 261.99 229.887C262.277 229.741 262.63 229.667 263.05 229.667L264.21 229.667L264.21 231.987L265.32 231.987C265.467 231.987 265.587 231.971 265.68 231.937C265.773 231.904 265.84 231.857 265.88 231.797C265.92 231.737 265.94 231.667 265.94 231.587C265.94 231.507 265.923 231.437 265.89 231.377C265.85 231.311 265.79 231.261 265.71 231.227C265.63 231.187 265.52 231.167 265.38 231.167L264.77 231.167L264.77 229.667L265.33 229.667C265.917 229.667 266.36 229.837 266.66 230.177C266.953 230.517 267.1 230.987 267.1 231.587ZM263.45 231.987L263.45 231.167L262.87 231.167C262.717 231.167 262.597 231.187 262.51 231.227C262.423 231.261 262.363 231.311 262.33 231.377C262.297 231.437 262.28 231.511 262.28 231.597C262.28 231.677 262.3 231.747 262.34 231.807C262.38 231.861 262.45 231.904 262.55 231.937C262.643 231.971 262.78 231.987 262.96 231.987L263.45 231.987ZM267 228.63L262.3 228.63L262.3 229.19L261.22 229.19L261.22 228.63L260.79 228.63C260.45 228.63 260.153 228.597 259.9 228.53C259.647 228.457 259.45 228.307 259.31 228.08C259.17 227.853 259.1 227.507 259.1 227.04C259.1 226.92 259.103 226.817 259.11 226.73C259.117 226.637 259.13 226.52 259.15 226.38L260.36 226.38C260.347 226.427 260.337 226.477 260.33 226.53C260.323 226.583 260.32 226.633 260.32 226.68C260.32 226.787 260.353 226.87 260.42 226.93C260.487 226.983 260.6 227.01 260.76 227.01L261.22 227.01L261.22 225.98L260.79 225.98C260.45 225.98 260.153 225.947 259.9 225.88C259.647 225.807 259.45 225.657 259.31 225.43C259.17 225.203 259.1 224.857 259.1 224.39C259.1 224.27 259.103 224.163 259.11 224.07C259.117 223.97 259.13 223.847 259.15 223.7L260.36 223.7C260.347 223.747 260.337 223.8 260.33 223.86C260.323 223.913 260.32 223.967 260.32 224.02C260.32 224.127 260.353 224.21 260.42 224.27C260.487 224.323 260.6 224.35 260.76 224.35L261.22 224.35L261.22 221.72L267 221.72L267 223.34L262.3 223.34L262.3 224.35L267 224.35L267 225.98L262.3 225.98L262.3 227.01L267 227.01L267 228.63ZM260.24 223.2L259.11 223.2L259.11 221.72L260.24 221.72L260.24 223.2ZM267.1 218.873C267.1 219.293 267.023 219.653 266.87 219.953C266.717 220.246 266.497 220.473 266.21 220.633C265.923 220.793 265.577 220.873 265.17 220.873L263.05 220.873C262.637 220.873 262.287 220.793 262 220.633C261.713 220.473 261.497 220.246 261.35 219.953C261.197 219.653 261.12 219.293 261.12 218.873C261.12 218.459 261.183 218.109 261.31 217.823C261.437 217.529 261.63 217.306 261.89 217.153C262.143 216.999 262.467 216.923 262.86 216.923L263.47 216.923L263.47 218.493L262.81 218.493C262.657 218.493 262.54 218.509 262.46 218.543C262.373 218.569 262.313 218.613 262.28 218.673C262.247 218.726 262.23 218.793 262.23 218.873C262.23 218.953 262.253 219.019 262.3 219.073C262.34 219.126 262.41 219.166 262.51 219.193C262.603 219.219 262.737 219.233 262.91 219.233L265.31 219.233C265.57 219.233 265.747 219.203 265.84 219.143C265.933 219.076 265.98 218.983 265.98 218.863C265.98 218.776 265.963 218.706 265.93 218.653C265.89 218.599 265.83 218.559 265.75 218.533C265.663 218.506 265.55 218.493 265.41 218.493L264.64 218.493L264.64 216.923L265.34 216.923C265.727 216.923 266.053 217.003 266.32 217.163C266.58 217.316 266.777 217.539 266.91 217.833C267.037 218.119 267.1 218.466 267.1 218.873ZM267 216.065L261.22 216.065L261.22 214.435L267 214.435L267 216.065ZM260.24 216.075L259.11 216.075L259.11 214.435L260.24 214.435L260.24 216.075ZM267.1 211.538C267.1 211.958 267.027 212.318 266.88 212.618C266.727 212.918 266.507 213.148 266.22 213.308C265.927 213.468 265.577 213.548 265.17 213.548L263.05 213.548C262.637 213.548 262.287 213.468 262 213.308C261.713 213.148 261.497 212.918 261.35 212.618C261.197 212.312 261.12 211.952 261.12 211.538C261.12 211.112 261.193 210.758 261.34 210.478C261.487 210.192 261.703 209.978 261.99 209.838C262.277 209.692 262.63 209.618 263.05 209.618L264.21 209.618L264.21 211.938L265.32 211.938C265.467 211.938 265.587 211.922 265.68 211.888C265.773 211.855 265.84 211.808 265.88 211.748C265.92 211.688 265.94 211.618 265.94 211.538C265.94 211.458 265.923 211.388 265.89 211.328C265.85 211.262 265.79 211.212 265.71 211.178C265.63 211.138 265.52 211.118 265.38 211.118L264.77 211.118L264.77 209.618L265.33 209.618C265.917 209.618 266.36 209.788 266.66 210.128C266.953 210.468 267.1 210.938 267.1 211.538ZM263.45 211.938L263.45 211.118L262.87 211.118C262.717 211.118 262.597 211.138 262.51 211.178C262.423 211.212 262.363 211.262 262.33 211.328C262.297 211.388 262.28 211.462 262.28 211.548C262.28 211.628 262.3 211.698 262.34 211.758C262.38 211.812 262.45 211.855 262.55 211.888C262.643 211.922 262.78 211.938 262.96 211.938L263.45 211.938ZM267 208.731L261.22 208.731L261.22 207.101L261.8 207.101C261.587 206.888 261.42 206.668 261.3 206.441C261.18 206.208 261.12 205.965 261.12 205.711C261.12 205.471 261.18 205.275 261.3 205.121C261.413 204.961 261.573 204.841 261.78 204.761C261.98 204.681 262.21 204.641 262.47 204.641L267 204.641L267 206.261L262.7 206.261C262.56 206.261 262.453 206.285 262.38 206.331C262.307 206.378 262.27 206.465 262.27 206.591C262.27 206.658 262.29 206.738 262.33 206.831C262.363 206.918 262.413 207.008 262.48 207.101L267 207.101L267 208.731ZM267.1 201.783C267.1 202.203 267.023 202.563 266.87 202.863C266.717 203.156 266.497 203.383 266.21 203.543C265.923 203.703 265.577 203.783 265.17 203.783L263.05 203.783C262.637 203.783 262.287 203.703 262 203.543C261.713 203.383 261.497 203.156 261.35 202.863C261.197 202.563 261.12 202.203 261.12 201.783C261.12 201.37 261.183 201.02 261.31 200.733C261.437 200.44 261.63 200.216 261.89 200.063C262.143 199.91 262.467 199.833 262.86 199.833L263.47 199.833L263.47 201.403L262.81 201.403C262.657 201.403 262.54 201.42 262.46 201.453C262.373 201.48 262.313 201.523 262.28 201.583C262.247 201.636 262.23 201.703 262.23 201.783C262.23 201.863 262.253 201.93 262.3 201.983C262.34 202.036 262.41 202.076 262.51 202.103C262.603 202.13 262.737 202.143 262.91 202.143L265.31 202.143C265.57 202.143 265.747 202.113 265.84 202.053C265.933 201.986 265.98 201.893 265.98 201.773C265.98 201.686 265.963 201.616 265.93 201.563C265.89 201.51 265.83 201.47 265.75 201.443C265.663 201.416 265.55 201.403 265.41 201.403L264.64 201.403L264.64 199.833L265.34 199.833C265.727 199.833 266.053 199.913 266.32 200.073C266.58 200.226 266.777 200.45 266.91 200.743C267.037 201.03 267.1 201.376 267.1 201.783ZM268.68 198.825L267.55 198.825C267.55 198.618 267.537 198.448 267.51 198.315C267.483 198.175 267.433 198.072 267.36 198.005C267.287 197.932 267.187 197.895 267.06 197.895C266.947 197.895 266.81 197.915 266.65 197.955C266.483 197.995 266.297 198.045 266.09 198.105L261.22 199.465L261.22 197.935L264.56 197.205L261.22 196.655L261.22 195.115L267.14 196.445C267.54 196.532 267.85 196.668 268.07 196.855C268.297 197.042 268.453 197.272 268.54 197.545C268.633 197.812 268.68 198.115 268.68 198.455L268.68 198.825Z"></path>
<path fill="#0D0E12" d="M352.007 279.1C351.58 279.1 351.25 278.95 351.017 278.65C350.784 278.35 350.667 277.907 350.667 277.32V274.93C350.667 274.57 350.717 274.257 350.817 273.99C350.917 273.717 351.067 273.503 351.267 273.35C351.467 273.197 351.714 273.12 352.007 273.12C352.22 273.12 352.424 273.163 352.617 273.25C352.81 273.33 352.987 273.44 353.147 273.58V270.9H354.777V279H353.147V278.55C352.967 278.723 352.78 278.86 352.587 278.96C352.394 279.053 352.2 279.1 352.007 279.1ZM352.717 278.06C352.77 278.06 352.834 278.047 352.907 278.02C352.987 277.993 353.067 277.957 353.147 277.91V274.26C353.08 274.227 353.01 274.197 352.937 274.17C352.864 274.143 352.794 274.13 352.727 274.13C352.58 274.13 352.474 274.193 352.407 274.32C352.34 274.44 352.307 274.587 352.307 274.76V277.42C352.307 277.54 352.32 277.65 352.347 277.75C352.374 277.843 352.417 277.92 352.477 277.98C352.537 278.033 352.617 278.06 352.717 278.06ZM356.976 279.1C356.683 279.1 356.436 279.03 356.236 278.89C356.036 278.75 355.886 278.573 355.786 278.36C355.686 278.14 355.636 277.917 355.636 277.69C355.636 277.33 355.706 277.027 355.846 276.78C355.993 276.533 356.183 276.327 356.416 276.16C356.65 275.993 356.906 275.853 357.186 275.74C357.466 275.62 357.743 275.513 358.016 275.42V274.84C358.016 274.74 358.006 274.653 357.986 274.58C357.966 274.5 357.933 274.44 357.886 274.4C357.84 274.353 357.77 274.33 357.676 274.33C357.583 274.33 357.51 274.35 357.456 274.39C357.41 274.43 357.376 274.487 357.356 274.56C357.336 274.627 357.323 274.703 357.316 274.79L357.276 275.21L355.756 275.15C355.79 274.457 355.973 273.947 356.306 273.62C356.646 273.287 357.153 273.12 357.826 273.12C358.413 273.12 358.85 273.283 359.136 273.61C359.43 273.93 359.576 274.347 359.576 274.86V277.56C359.576 277.8 359.58 278.01 359.586 278.19C359.6 278.37 359.613 278.527 359.626 278.66C359.646 278.793 359.663 278.907 359.676 279H358.216C358.196 278.847 358.173 278.68 358.146 278.5C358.12 278.32 358.1 278.213 358.086 278.18C358.02 278.42 357.893 278.633 357.706 278.82C357.526 279.007 357.283 279.1 356.976 279.1ZM357.556 278C357.623 278 357.683 277.987 357.736 277.96C357.796 277.933 357.85 277.897 357.896 277.85C357.943 277.803 357.983 277.757 358.016 277.71V276.13C357.883 276.21 357.76 276.293 357.646 276.38C357.533 276.46 357.436 276.55 357.356 276.65C357.276 276.75 357.213 276.86 357.166 276.98C357.126 277.093 357.106 277.223 357.106 277.37C357.106 277.563 357.146 277.717 357.226 277.83C357.306 277.943 357.416 278 357.556 278ZM360.702 280.68V279.55C360.909 279.55 361.079 279.537 361.212 279.51C361.352 279.483 361.456 279.433 361.522 279.36C361.596 279.287 361.632 279.187 361.632 279.06C361.632 278.947 361.612 278.81 361.572 278.65C361.532 278.483 361.482 278.297 361.422 278.09L360.062 273.22H361.592L362.322 276.56L362.872 273.22H364.412L363.082 279.14C362.996 279.54 362.859 279.85 362.672 280.07C362.486 280.297 362.256 280.453 361.982 280.54C361.716 280.633 361.412 280.68 361.072 280.68H360.702ZM366.805 279.1C366.298 279.1 365.875 278.987 365.535 278.76C365.201 278.533 364.928 278.163 364.715 277.65L365.825 277.16C365.931 277.42 366.055 277.627 366.195 277.78C366.341 277.927 366.501 278 366.675 278C366.801 278 366.895 277.973 366.955 277.92C367.021 277.867 367.055 277.793 367.055 277.7C367.055 277.547 366.995 277.407 366.875 277.28C366.761 277.153 366.555 276.967 366.255 276.72L365.835 276.37C365.528 276.11 365.285 275.86 365.105 275.62C364.931 275.373 364.845 275.07 364.845 274.71C364.845 274.397 364.925 274.12 365.085 273.88C365.251 273.64 365.471 273.453 365.745 273.32C366.018 273.187 366.311 273.12 366.625 273.12C367.098 273.12 367.495 273.25 367.815 273.51C368.135 273.77 368.358 274.137 368.485 274.61L367.435 275.09C367.395 274.963 367.338 274.837 367.265 274.71C367.191 274.583 367.101 274.477 366.995 274.39C366.895 274.303 366.785 274.26 366.665 274.26C366.558 274.26 366.471 274.29 366.405 274.35C366.345 274.41 366.315 274.49 366.315 274.59C366.315 274.717 366.385 274.853 366.525 275C366.671 275.147 366.871 275.323 367.125 275.53L367.535 275.89C367.701 276.03 367.865 276.18 368.025 276.34C368.185 276.5 368.315 276.677 368.415 276.87C368.521 277.063 368.575 277.283 368.575 277.53C368.575 277.863 368.491 278.15 368.325 278.39C368.158 278.623 367.938 278.8 367.665 278.92C367.398 279.04 367.111 279.1 366.805 279.1Z"></path>
<path fill="white" d="M329.72 21V11.28H333.92V12.732H331.868V15.18H333.656V16.68H331.868V21H329.72ZM334.923 21V11.28H338.187C338.771 11.28 339.251 11.392 339.627 11.616C340.003 11.832 340.283 12.152 340.467 12.576C340.651 12.992 340.743 13.5 340.743 14.1C340.743 14.852 340.619 15.428 340.371 15.828C340.123 16.22 339.787 16.492 339.363 16.644C338.939 16.796 338.463 16.872 337.935 16.872H337.071V21H334.923ZM337.071 15.372H337.791C338.055 15.372 338.255 15.324 338.391 15.228C338.527 15.132 338.615 14.988 338.655 14.796C338.703 14.604 338.727 14.36 338.727 14.064C338.727 13.816 338.707 13.6 338.667 13.416C338.635 13.224 338.551 13.072 338.415 12.96C338.279 12.848 338.067 12.792 337.779 12.792H337.071V15.372ZM344.265 21.144C343.657 21.144 343.149 21.036 342.741 20.82C342.333 20.604 342.025 20.272 341.817 19.824C341.609 19.368 341.493 18.78 341.469 18.06L343.305 17.784C343.313 18.2 343.349 18.536 343.413 18.792C343.485 19.048 343.581 19.232 343.701 19.344C343.829 19.456 343.981 19.512 344.157 19.512C344.381 19.512 344.525 19.436 344.589 19.284C344.661 19.132 344.697 18.972 344.697 18.804C344.697 18.404 344.601 18.068 344.409 17.796C344.217 17.516 343.957 17.236 343.629 16.956L342.789 16.224C342.421 15.912 342.109 15.56 341.853 15.168C341.605 14.768 341.481 14.276 341.481 13.692C341.481 12.868 341.725 12.24 342.213 11.808C342.701 11.368 343.365 11.148 344.205 11.148C344.725 11.148 345.141 11.236 345.453 11.412C345.773 11.588 346.013 11.82 346.173 12.108C346.341 12.388 346.453 12.688 346.509 13.008C346.573 13.32 346.609 13.62 346.617 13.908L344.769 14.136C344.761 13.848 344.741 13.6 344.709 13.392C344.685 13.176 344.629 13.012 344.541 12.9C344.453 12.78 344.317 12.72 344.133 12.72C343.933 12.72 343.785 12.804 343.689 12.972C343.601 13.14 343.557 13.308 343.557 13.476C343.557 13.836 343.641 14.132 343.809 14.364C343.985 14.588 344.213 14.824 344.493 15.072L345.297 15.78C345.721 16.14 346.077 16.548 346.365 17.004C346.661 17.46 346.809 18.024 346.809 18.696C346.809 19.152 346.705 19.568 346.497 19.944C346.289 20.312 345.993 20.604 345.609 20.82C345.233 21.036 344.785 21.144 344.265 21.144ZM347.933 16.056V14.232H349.757V16.056H347.933ZM347.933 20.328V18.504H349.757V20.328H347.933Z"></path>
<path fill="#0D0E12" d="M192.493 56V47.9H194.543C195.249 47.9 195.799 47.99 196.193 48.17C196.586 48.3433 196.863 48.62 197.023 49C197.183 49.3733 197.263 49.86 197.263 50.46V53.4C197.263 54.0067 197.183 54.5033 197.023 54.89C196.863 55.27 196.586 55.55 196.193 55.73C195.806 55.91 195.263 56 194.563 56H192.493ZM194.283 54.76H194.563C194.836 54.76 195.033 54.72 195.153 54.64C195.273 54.56 195.346 54.44 195.373 54.28C195.406 54.12 195.423 53.92 195.423 53.68V50.15C195.423 49.91 195.403 49.7167 195.363 49.57C195.329 49.4233 195.253 49.3167 195.133 49.25C195.013 49.1833 194.819 49.15 194.553 49.15H194.283V54.76ZM199.452 56.1C199.159 56.1 198.912 56.03 198.712 55.89C198.512 55.75 198.362 55.5733 198.262 55.36C198.162 55.14 198.112 54.9167 198.112 54.69C198.112 54.33 198.182 54.0267 198.322 53.78C198.469 53.5333 198.659 53.3267 198.892 53.16C199.125 52.9933 199.382 52.8533 199.662 52.74C199.942 52.62 200.219 52.5133 200.492 52.42V51.84C200.492 51.74 200.482 51.6533 200.462 51.58C200.442 51.5 200.409 51.44 200.362 51.4C200.315 51.3533 200.245 51.33 200.152 51.33C200.059 51.33 199.985 51.35 199.932 51.39C199.885 51.43 199.852 51.4867 199.832 51.56C199.812 51.6267 199.799 51.7033 199.792 51.79L199.752 52.21L198.232 52.15C198.265 51.4567 198.449 50.9467 198.782 50.62C199.122 50.2867 199.629 50.12 200.302 50.12C200.889 50.12 201.325 50.2833 201.612 50.61C201.905 50.93 202.052 51.3467 202.052 51.86V54.56C202.052 54.8 202.055 55.01 202.062 55.19C202.075 55.37 202.089 55.5267 202.102 55.66C202.122 55.7933 202.139 55.9067 202.152 56H200.692C200.672 55.8467 200.649 55.68 200.622 55.5C200.595 55.32 200.575 55.2133 200.562 55.18C200.495 55.42 200.369 55.6333 200.182 55.82C200.002 56.0067 199.759 56.1 199.452 56.1ZM200.032 55C200.099 55 200.159 54.9867 200.212 54.96C200.272 54.9333 200.325 54.8967 200.372 54.85C200.419 54.8033 200.459 54.7567 200.492 54.71V53.13C200.359 53.21 200.235 53.2933 200.122 53.38C200.009 53.46 199.912 53.55 199.832 53.65C199.752 53.75 199.689 53.86 199.642 53.98C199.602 54.0933 199.582 54.2233 199.582 54.37C199.582 54.5633 199.622 54.7167 199.702 54.83C199.782 54.9433 199.892 55 200.032 55ZM203.178 57.68V56.55C203.384 56.55 203.554 56.5367 203.688 56.51C203.828 56.4833 203.931 56.4333 203.998 56.36C204.071 56.2867 204.108 56.1867 204.108 56.06C204.108 55.9467 204.088 55.81 204.048 55.65C204.008 55.4833 203.958 55.2967 203.898 55.09L202.538 50.22H204.068L204.798 53.56L205.348 50.22H206.888L205.558 56.14C205.471 56.54 205.334 56.85 205.148 57.07C204.961 57.2967 204.731 57.4533 204.458 57.54C204.191 57.6333 203.888 57.68 203.548 57.68H203.178ZM209.28 56.1C208.774 56.1 208.35 55.9867 208.01 55.76C207.677 55.5333 207.404 55.1633 207.19 54.65L208.3 54.16C208.407 54.42 208.53 54.6267 208.67 54.78C208.817 54.9267 208.977 55 209.15 55C209.277 55 209.37 54.9733 209.43 54.92C209.497 54.8667 209.53 54.7933 209.53 54.7C209.53 54.5467 209.47 54.4067 209.35 54.28C209.237 54.1533 209.03 53.9667 208.73 53.72L208.31 53.37C208.004 53.11 207.76 52.86 207.58 52.62C207.407 52.3733 207.32 52.07 207.32 51.71C207.32 51.3967 207.4 51.12 207.56 50.88C207.727 50.64 207.947 50.4533 208.22 50.32C208.494 50.1867 208.787 50.12 209.1 50.12C209.574 50.12 209.97 50.25 210.29 50.51C210.61 50.77 210.834 51.1367 210.96 51.61L209.91 52.09C209.87 51.9633 209.814 51.8367 209.74 51.71C209.667 51.5833 209.577 51.4767 209.47 51.39C209.37 51.3033 209.26 51.26 209.14 51.26C209.034 51.26 208.947 51.29 208.88 51.35C208.82 51.41 208.79 51.49 208.79 51.59C208.79 51.7167 208.86 51.8533 209 52C209.147 52.1467 209.347 52.3233 209.6 52.53L210.01 52.89C210.177 53.03 210.34 53.18 210.5 53.34C210.66 53.5 210.79 53.6767 210.89 53.87C210.997 54.0633 211.05 54.2833 211.05 54.53C211.05 54.8633 210.967 55.15 210.8 55.39C210.634 55.6233 210.414 55.8 210.14 55.92C209.874 56.04 209.587 56.1 209.28 56.1ZM216.077 56.1C215.57 56.1 215.147 55.9867 214.807 55.76C214.474 55.5333 214.2 55.1633 213.987 54.65L215.097 54.16C215.204 54.42 215.327 54.6267 215.467 54.78C215.614 54.9267 215.774 55 215.947 55C216.074 55 216.167 54.9733 216.227 54.92C216.294 54.8667 216.327 54.7933 216.327 54.7C216.327 54.5467 216.267 54.4067 216.147 54.28C216.034 54.1533 215.827 53.9667 215.527 53.72L215.107 53.37C214.8 53.11 214.557 52.86 214.377 52.62C214.204 52.3733 214.117 52.07 214.117 51.71C214.117 51.3967 214.197 51.12 214.357 50.88C214.524 50.64 214.744 50.4533 215.017 50.32C215.29 50.1867 215.584 50.12 215.897 50.12C216.37 50.12 216.767 50.25 217.087 50.51C217.407 50.77 217.63 51.1367 217.757 51.61L216.707 52.09C216.667 51.9633 216.61 51.8367 216.537 51.71C216.464 51.5833 216.374 51.4767 216.267 51.39C216.167 51.3033 216.057 51.26 215.937 51.26C215.83 51.26 215.744 51.29 215.677 51.35C215.617 51.41 215.587 51.49 215.587 51.59C215.587 51.7167 215.657 51.8533 215.797 52C215.944 52.1467 216.144 52.3233 216.397 52.53L216.807 52.89C216.974 53.03 217.137 53.18 217.297 53.34C217.457 53.5 217.587 53.6767 217.687 53.87C217.794 54.0633 217.847 54.2833 217.847 54.53C217.847 54.8633 217.764 55.15 217.597 55.39C217.43 55.6233 217.21 55.8 216.937 55.92C216.67 56.04 216.384 56.1 216.077 56.1ZM218.535 57.9V50.22H220.165V50.64C220.359 50.4667 220.565 50.3367 220.785 50.25C221.005 50.1633 221.215 50.12 221.415 50.12C221.635 50.12 221.822 50.1633 221.975 50.25C222.135 50.3367 222.265 50.46 222.365 50.62C222.465 50.7733 222.539 50.9533 222.585 51.16C222.632 51.3667 222.655 51.5867 222.655 51.82V54.31C222.655 54.67 222.605 54.9833 222.505 55.25C222.412 55.5167 222.272 55.7267 222.085 55.88C221.899 56.0267 221.669 56.1 221.395 56.1C221.189 56.1 220.979 56.0533 220.765 55.96C220.559 55.86 220.359 55.7267 220.165 55.56V57.9H218.535ZM220.595 55.05C220.702 55.05 220.785 55.02 220.845 54.96C220.905 54.9 220.949 54.8233 220.975 54.73C221.009 54.63 221.025 54.52 221.025 54.4V51.7C221.025 51.5867 221.012 51.4867 220.985 51.4C220.959 51.3067 220.915 51.2333 220.855 51.18C220.795 51.1267 220.719 51.1 220.625 51.1C220.539 51.1 220.455 51.12 220.375 51.16C220.302 51.1933 220.232 51.24 220.165 51.3V54.9C220.239 54.9467 220.309 54.9833 220.375 55.01C220.449 55.0367 220.522 55.05 220.595 55.05ZM225.474 56.1C225.054 56.1 224.694 56.0267 224.394 55.88C224.094 55.7267 223.864 55.5067 223.704 55.22C223.544 54.9267 223.464 54.5767 223.464 54.17V52.05C223.464 51.6367 223.544 51.2867 223.704 51C223.864 50.7133 224.094 50.4967 224.394 50.35C224.701 50.1967 225.061 50.12 225.474 50.12C225.901 50.12 226.254 50.1933 226.534 50.34C226.821 50.4867 227.034 50.7033 227.174 50.99C227.321 51.2767 227.394 51.63 227.394 52.05V53.21H225.074V54.32C225.074 54.4667 225.091 54.5867 225.124 54.68C225.158 54.7733 225.204 54.84 225.264 54.88C225.324 54.92 225.394 54.94 225.474 54.94C225.554 54.94 225.624 54.9233 225.684 54.89C225.751 54.85 225.801 54.79 225.834 54.71C225.874 54.63 225.894 54.52 225.894 54.38V53.77H227.394V54.33C227.394 54.9167 227.224 55.36 226.884 55.66C226.544 55.9533 226.074 56.1 225.474 56.1ZM225.074 52.45H225.894V51.87C225.894 51.7167 225.874 51.5967 225.834 51.51C225.801 51.4233 225.751 51.3633 225.684 51.33C225.624 51.2967 225.551 51.28 225.464 51.28C225.384 51.28 225.314 51.3 225.254 51.34C225.201 51.38 225.158 51.45 225.124 51.55C225.091 51.6433 225.074 51.78 225.074 51.96V52.45ZM228.281 56V50.22H229.911V50.8C230.125 50.5867 230.345 50.42 230.571 50.3C230.805 50.18 231.048 50.12 231.301 50.12C231.541 50.12 231.738 50.18 231.891 50.3C232.051 50.4133 232.171 50.5733 232.251 50.78C232.331 50.98 232.371 51.21 232.371 51.47V56H230.751V51.7C230.751 51.56 230.728 51.4533 230.681 51.38C230.635 51.3067 230.548 51.27 230.421 51.27C230.355 51.27 230.275 51.29 230.181 51.33C230.095 51.3633 230.005 51.4133 229.911 51.48V56H228.281ZM235.14 56.06C234.707 56.06 234.37 55.9967 234.13 55.87C233.897 55.7433 233.737 55.56 233.65 55.32C233.563 55.0733 233.52 54.7767 233.52 54.43V51.29H232.96V50.22H233.52V48.46H235.17V50.22H235.99V51.29H235.17V54.27C235.17 54.4367 235.217 54.5567 235.31 54.63C235.41 54.7033 235.533 54.74 235.68 54.74C235.767 54.74 235.847 54.7367 235.92 54.73C235.993 54.7167 236.06 54.7067 236.12 54.7V55.98C236.033 55.9933 235.897 56.01 235.71 56.03C235.523 56.05 235.333 56.06 235.14 56.06ZM239.454 56V50.22H241.084V56H239.454ZM239.444 49.24V48.11H241.084V49.24H239.444ZM242.09 56V50.22H243.72V50.8C243.933 50.5867 244.153 50.42 244.38 50.3C244.613 50.18 244.857 50.12 245.11 50.12C245.35 50.12 245.547 50.18 245.7 50.3C245.86 50.4133 245.98 50.5733 246.06 50.78C246.14 50.98 246.18 51.21 246.18 51.47V56H244.56V51.7C244.56 51.56 244.537 51.4533 244.49 51.38C244.443 51.3067 244.357 51.27 244.23 51.27C244.163 51.27 244.083 51.29 243.99 51.33C243.903 51.3633 243.813 51.4133 243.72 51.48V56H242.09ZM249.777 56L249.917 47.9H251.837L252.727 52.61L253.687 47.9H255.537L255.677 56H254.407L254.257 50.61L253.317 56H252.187L251.187 50.57L251.067 56H249.777ZM258.658 56.1C258.245 56.1 257.885 56.03 257.578 55.89C257.278 55.75 257.045 55.54 256.878 55.26C256.718 54.98 256.638 54.63 256.638 54.21V52.01C256.638 51.59 256.718 51.24 256.878 50.96C257.045 50.68 257.278 50.47 257.578 50.33C257.885 50.19 258.245 50.12 258.658 50.12C259.071 50.12 259.428 50.19 259.728 50.33C260.035 50.47 260.271 50.68 260.438 50.96C260.605 51.24 260.688 51.59 260.688 52.01V54.21C260.688 54.63 260.605 54.98 260.438 55.26C260.271 55.54 260.035 55.75 259.728 55.89C259.428 56.03 259.071 56.1 258.658 56.1ZM258.668 55.02C258.775 55.02 258.858 54.9933 258.918 54.94C258.978 54.88 259.018 54.8 259.038 54.7C259.065 54.5933 259.078 54.4667 259.078 54.32V51.9C259.078 51.7533 259.065 51.63 259.038 51.53C259.018 51.4233 258.978 51.3433 258.918 51.29C258.858 51.23 258.775 51.2 258.668 51.2C258.561 51.2 258.478 51.23 258.418 51.29C258.358 51.3433 258.315 51.4233 258.288 51.53C258.261 51.63 258.248 51.7533 258.248 51.9V54.32C258.248 54.4667 258.261 54.5933 258.288 54.7C258.315 54.8 258.358 54.88 258.418 54.94C258.478 54.9933 258.561 55.02 258.668 55.02ZM263.372 56.1C262.865 56.1 262.442 55.9867 262.102 55.76C261.769 55.5333 261.495 55.1633 261.282 54.65L262.392 54.16C262.499 54.42 262.622 54.6267 262.762 54.78C262.909 54.9267 263.069 55 263.242 55C263.369 55 263.462 54.9733 263.522 54.92C263.589 54.8667 263.622 54.7933 263.622 54.7C263.622 54.5467 263.562 54.4067 263.442 54.28C263.329 54.1533 263.122 53.9667 262.822 53.72L262.402 53.37C262.095 53.11 261.852 52.86 261.672 52.62C261.499 52.3733 261.412 52.07 261.412 51.71C261.412 51.3967 261.492 51.12 261.652 50.88C261.819 50.64 262.039 50.4533 262.312 50.32C262.585 50.1867 262.879 50.12 263.192 50.12C263.665 50.12 264.062 50.25 264.382 50.51C264.702 50.77 264.925 51.1367 265.052 51.61L264.002 52.09C263.962 51.9633 263.905 51.8367 263.832 51.71C263.759 51.5833 263.669 51.4767 263.562 51.39C263.462 51.3033 263.352 51.26 263.232 51.26C263.125 51.26 263.039 51.29 262.972 51.35C262.912 51.41 262.882 51.49 262.882 51.59C262.882 51.7167 262.952 51.8533 263.092 52C263.239 52.1467 263.439 52.3233 263.692 52.53L264.102 52.89C264.269 53.03 264.432 53.18 264.592 53.34C264.752 53.5 264.882 53.6767 264.982 53.87C265.089 54.0633 265.142 54.2833 265.142 54.53C265.142 54.8633 265.059 55.15 264.892 55.39C264.725 55.6233 264.505 55.8 264.232 55.92C263.965 56.04 263.679 56.1 263.372 56.1ZM268.24 56.12C267.627 56.12 267.14 56.01 266.78 55.79C266.427 55.5633 266.177 55.25 266.03 54.85C265.884 54.4433 265.81 53.9667 265.81 53.42V50.5C265.81 49.94 265.884 49.46 266.03 49.06C266.177 48.6533 266.427 48.34 266.78 48.12C267.14 47.9 267.627 47.79 268.24 47.79C268.84 47.79 269.307 47.89 269.64 48.09C269.98 48.2833 270.22 48.5567 270.36 48.91C270.5 49.2633 270.57 49.67 270.57 50.13V50.83H268.82V50.02C268.82 49.86 268.81 49.7067 268.79 49.56C268.777 49.4133 268.73 49.2933 268.65 49.2C268.57 49.1 268.434 49.05 268.24 49.05C268.054 49.05 267.914 49.1 267.82 49.2C267.734 49.3 267.677 49.4267 267.65 49.58C267.63 49.7267 267.62 49.8833 267.62 50.05V53.86C267.62 54.04 267.634 54.2067 267.66 54.36C267.694 54.5067 267.754 54.6267 267.84 54.72C267.934 54.8067 268.067 54.85 268.24 54.85C268.427 54.85 268.56 54.8033 268.64 54.71C268.72 54.61 268.77 54.4833 268.79 54.33C268.81 54.1767 268.82 54.02 268.82 53.86V53.01H270.57V53.71C270.57 54.17 270.5 54.5833 270.36 54.95C270.227 55.31 269.99 55.5967 269.65 55.81C269.317 56.0167 268.847 56.12 268.24 56.12ZM271.475 56V47.9H273.095V50.73C273.308 50.5167 273.532 50.3633 273.765 50.27C273.998 50.17 274.248 50.12 274.515 50.12C274.748 50.12 274.942 50.18 275.095 50.3C275.255 50.4133 275.375 50.5733 275.455 50.78C275.535 50.98 275.575 51.21 275.575 51.47V56H273.955V51.7C273.955 51.56 273.932 51.4533 273.885 51.38C273.838 51.3067 273.752 51.27 273.625 51.27C273.558 51.27 273.478 51.29 273.385 51.33C273.292 51.3633 273.195 51.4133 273.095 51.48V56H271.475ZM278.443 56.1C278.023 56.1 277.663 56.0267 277.363 55.88C277.063 55.7267 276.833 55.5067 276.673 55.22C276.513 54.9267 276.433 54.5767 276.433 54.17V52.05C276.433 51.6367 276.513 51.2867 276.673 51C276.833 50.7133 277.063 50.4967 277.363 50.35C277.67 50.1967 278.03 50.12 278.443 50.12C278.87 50.12 279.223 50.1933 279.503 50.34C279.79 50.4867 280.003 50.7033 280.143 50.99C280.29 51.2767 280.363 51.63 280.363 52.05V53.21H278.043V54.32C278.043 54.4667 278.06 54.5867 278.093 54.68C278.126 54.7733 278.173 54.84 278.233 54.88C278.293 54.92 278.363 54.94 278.443 54.94C278.523 54.94 278.593 54.9233 278.653 54.89C278.72 54.85 278.77 54.79 278.803 54.71C278.843 54.63 278.863 54.52 278.863 54.38V53.77H280.363V54.33C280.363 54.9167 280.193 55.36 279.853 55.66C279.513 55.9533 279.043 56.1 278.443 56.1ZM278.043 52.45H278.863V51.87C278.863 51.7167 278.843 51.5967 278.803 51.51C278.77 51.4233 278.72 51.3633 278.653 51.33C278.593 51.2967 278.52 51.28 278.433 51.28C278.353 51.28 278.283 51.3 278.223 51.34C278.17 51.38 278.126 51.45 278.093 51.55C278.06 51.6433 278.043 51.78 278.043 51.96V52.45ZM283.03 56.1C282.524 56.1 282.1 55.9867 281.76 55.76C281.427 55.5333 281.154 55.1633 280.94 54.65L282.05 54.16C282.157 54.42 282.28 54.6267 282.42 54.78C282.567 54.9267 282.727 55 282.9 55C283.027 55 283.12 54.9733 283.18 54.92C283.247 54.8667 283.28 54.7933 283.28 54.7C283.28 54.5467 283.22 54.4067 283.1 54.28C282.987 54.1533 282.78 53.9667 282.48 53.72L282.06 53.37C281.754 53.11 281.51 52.86 281.33 52.62C281.157 52.3733 281.07 52.07 281.07 51.71C281.07 51.3967 281.15 51.12 281.31 50.88C281.477 50.64 281.697 50.4533 281.97 50.32C282.244 50.1867 282.537 50.12 282.85 50.12C283.324 50.12 283.72 50.25 284.04 50.51C284.36 50.77 284.584 51.1367 284.71 51.61L283.66 52.09C283.62 51.9633 283.564 51.8367 283.49 51.71C283.417 51.5833 283.327 51.4767 283.22 51.39C283.12 51.3033 283.01 51.26 282.89 51.26C282.784 51.26 282.697 51.29 282.63 51.35C282.57 51.41 282.54 51.49 282.54 51.59C282.54 51.7167 282.61 51.8533 282.75 52C282.897 52.1467 283.097 52.3233 283.35 52.53L283.76 52.89C283.927 53.03 284.09 53.18 284.25 53.34C284.41 53.5 284.54 53.6767 284.64 53.87C284.747 54.0633 284.8 54.2833 284.8 54.53C284.8 54.8633 284.717 55.15 284.55 55.39C284.384 55.6233 284.164 55.8 283.89 55.92C283.624 56.04 283.337 56.1 283.03 56.1ZM287.269 56.1C286.762 56.1 286.339 55.9867 285.999 55.76C285.665 55.5333 285.392 55.1633 285.179 54.65L286.289 54.16C286.395 54.42 286.519 54.6267 286.659 54.78C286.805 54.9267 286.965 55 287.139 55C287.265 55 287.359 54.9733 287.419 54.92C287.485 54.8667 287.519 54.7933 287.519 54.7C287.519 54.5467 287.459 54.4067 287.339 54.28C287.225 54.1533 287.019 53.9667 286.719 53.72L286.299 53.37C285.992 53.11 285.749 52.86 285.569 52.62C285.395 52.3733 285.309 52.07 285.309 51.71C285.309 51.3967 285.389 51.12 285.549 50.88C285.715 50.64 285.935 50.4533 286.209 50.32C286.482 50.1867 286.775 50.12 287.089 50.12C287.562 50.12 287.959 50.25 288.279 50.51C288.599 50.77 288.822 51.1367 288.949 51.61L287.899 52.09C287.859 51.9633 287.802 51.8367 287.729 51.71C287.655 51.5833 287.565 51.4767 287.459 51.39C287.359 51.3033 287.249 51.26 287.129 51.26C287.022 51.26 286.935 51.29 286.869 51.35C286.809 51.41 286.779 51.49 286.779 51.59C286.779 51.7167 286.849 51.8533 286.989 52C287.135 52.1467 287.335 52.3233 287.589 52.53L287.999 52.89C288.165 53.03 288.329 53.18 288.489 53.34C288.649 53.5 288.779 53.6767 288.879 53.87C288.985 54.0633 289.039 54.2833 289.039 54.53C289.039 54.8633 288.955 55.15 288.789 55.39C288.622 55.6233 288.402 55.8 288.129 55.92C287.862 56.04 287.575 56.1 287.269 56.1ZM289.887 51.88V50.36H291.407V51.88H289.887ZM289.887 55.44V53.92H291.407V55.44H289.887Z"></path>
</svg>
