<svg xmlns="http://www.w3.org/2000/svg" fill="none" viewBox="0 0 32 22" height="22" width="32">
<rect fill="#0D0E12" height="22" width="32"></rect>
<path fill="white" d="M20.0209 10.636C20.4114 11.0266 20.4114 11.6597 20.0209 12.0503L14.364 17.7071C13.9735 18.0976 13.3403 18.0976 12.9498 17.7071V17.7071C12.5593 17.3166 12.5593 16.6834 12.9498 16.2929L18.6066 10.636C18.9972 10.2455 19.6303 10.2455 20.0209 10.636V10.636Z"></path>
<path fill="white" d="M19.7782 11.7782C19.3876 12.1688 18.7545 12.1688 18.3639 11.7782L12.7071 6.12139C12.3166 5.73087 12.3166 5.0977 12.7071 4.70718V4.70718C13.0976 4.31665 13.7308 4.31665 14.1213 4.70718L19.7782 10.364C20.1687 10.7546 20.1687 11.3877 19.7782 11.7782V11.7782Z"></path>
</svg>
