<svg xmlns="http://www.w3.org/2000/svg" fill="none" viewBox="0 0 90 40" height="40" width="90">
<rect fill="#0D0E12" height="40" width="90"></rect>
<path fill="white" d="M9.75927 25.144C9.12727 25.144 8.61127 25.008 8.21127 24.736C7.81927 24.456 7.53127 24.076 7.34727 23.596C7.16327 23.116 7.07127 22.568 7.07127 21.952V18.436C7.07127 17.804 7.14327 17.24 7.28727 16.744C7.43927 16.248 7.70727 15.86 8.09127 15.58C8.47527 15.292 9.02727 15.148 9.74727 15.148C10.3713 15.148 10.8633 15.244 11.2233 15.436C11.5833 15.628 11.8393 15.908 11.9913 16.276C12.1433 16.644 12.2193 17.1 12.2193 17.644C12.2193 17.676 12.2193 17.708 12.2193 17.74C12.2273 17.764 12.2313 17.788 12.2313 17.812H10.3473C10.3473 17.42 10.3153 17.132 10.2513 16.948C10.1953 16.756 10.0313 16.66 9.75927 16.66C9.57527 16.66 9.43527 16.716 9.33927 16.828C9.25127 16.94 9.19127 17.136 9.15927 17.416C9.12727 17.696 9.11127 18.088 9.11127 18.592V19.456C9.20727 19.288 9.36327 19.16 9.57927 19.072C9.79527 18.976 10.0393 18.924 10.3113 18.916C10.8233 18.9 11.2313 19.016 11.5353 19.264C11.8473 19.512 12.0713 19.852 12.2073 20.284C12.3433 20.708 12.4113 21.184 12.4113 21.712C12.4113 22.392 12.3313 22.992 12.1713 23.512C12.0113 24.024 11.7393 24.424 11.3553 24.712C10.9713 25 10.4393 25.144 9.75927 25.144ZM9.78327 23.668C9.96727 23.668 10.0993 23.608 10.1793 23.488C10.2673 23.36 10.3233 23.176 10.3473 22.936C10.3793 22.688 10.3953 22.384 10.3953 22.024C10.3953 21.704 10.3833 21.428 10.3593 21.196C10.3433 20.964 10.2913 20.784 10.2033 20.656C10.1153 20.52 9.96727 20.452 9.75927 20.452C9.66327 20.452 9.57127 20.472 9.48327 20.512C9.39527 20.552 9.31927 20.604 9.25527 20.668C9.19127 20.724 9.14327 20.78 9.11127 20.836V22.42C9.11127 22.636 9.12727 22.84 9.15927 23.032C9.19927 23.224 9.26727 23.38 9.36327 23.5C9.46727 23.612 9.60727 23.668 9.78327 23.668ZM16.2043 25.18C15.6203 25.18 15.1323 25.064 14.7403 24.832C14.3483 24.592 14.0523 24.264 13.8523 23.848C13.6523 23.432 13.5523 22.948 13.5523 22.396V17.992C13.5523 17.424 13.6443 16.928 13.8283 16.504C14.0203 16.072 14.3123 15.736 14.7043 15.496C15.0963 15.256 15.5963 15.136 16.2043 15.136C16.8123 15.136 17.3083 15.256 17.6923 15.496C18.0843 15.736 18.3723 16.072 18.5563 16.504C18.7483 16.928 18.8443 17.424 18.8443 17.992V22.396C18.8443 22.94 18.7443 23.424 18.5443 23.848C18.3443 24.264 18.0483 24.592 17.6563 24.832C17.2643 25.064 16.7803 25.18 16.2043 25.18ZM16.2043 23.392C16.3963 23.392 16.5323 23.332 16.6123 23.212C16.7003 23.084 16.7523 22.94 16.7683 22.78C16.7923 22.612 16.8043 22.468 16.8043 22.348V18.04C16.8043 17.904 16.7963 17.752 16.7803 17.584C16.7643 17.408 16.7123 17.256 16.6243 17.128C16.5443 16.992 16.4043 16.924 16.2043 16.924C16.0043 16.924 15.8603 16.992 15.7723 17.128C15.6923 17.256 15.6443 17.408 15.6283 17.584C15.6123 17.752 15.6043 17.904 15.6043 18.04V22.348C15.6043 22.468 15.6163 22.612 15.6403 22.78C15.6643 22.94 15.7163 23.084 15.7963 23.212C15.8843 23.332 16.0203 23.392 16.2043 23.392ZM23.1723 25L23.1963 18.064H24.6363L26.0523 21.388L27.4803 18.064H28.9203L28.9443 25H27.4203V21.352L26.3523 23.92H25.7763L24.6963 21.34V25H23.1723ZM30.1686 25V18.064H31.7166V21.772L33.5286 18.064H35.0526V25H33.4686V21.328L31.7046 25H30.1686ZM36.2624 25V18.064H38.2184V20.752H39.3824V18.064H41.3504V25H39.3824V22.096H38.2184V25H36.2624ZM42.5071 25V23.152H44.3551V25H42.5071ZM51.2551 25.18C50.6711 25.18 50.1831 25.064 49.7911 24.832C49.3991 24.592 49.1031 24.264 48.9031 23.848C48.7031 23.432 48.6031 22.948 48.6031 22.396V17.992C48.6031 17.424 48.6951 16.928 48.8791 16.504C49.0711 16.072 49.3631 15.736 49.7551 15.496C50.1471 15.256 50.6471 15.136 51.2551 15.136C51.8631 15.136 52.3591 15.256 52.7431 15.496C53.1351 15.736 53.4231 16.072 53.6071 16.504C53.7991 16.928 53.8951 17.424 53.8951 17.992V22.396C53.8951 22.94 53.7951 23.424 53.5951 23.848C53.3951 24.264 53.0991 24.592 52.7071 24.832C52.3151 25.064 51.8311 25.18 51.2551 25.18ZM51.2551 23.392C51.4471 23.392 51.5831 23.332 51.6631 23.212C51.7511 23.084 51.8031 22.94 51.8191 22.78C51.8431 22.612 51.8551 22.468 51.8551 22.348V18.04C51.8551 17.904 51.8471 17.752 51.8311 17.584C51.8151 17.408 51.7631 17.256 51.6751 17.128C51.5951 16.992 51.4551 16.924 51.2551 16.924C51.0551 16.924 50.9111 16.992 50.8231 17.128C50.7431 17.256 50.6951 17.408 50.6791 17.584C50.6631 17.752 50.6551 17.904 50.6551 18.04V22.348C50.6551 22.468 50.6671 22.612 50.6911 22.78C50.7151 22.94 50.7671 23.084 50.8471 23.212C50.9351 23.332 51.0711 23.392 51.2551 23.392ZM57.8527 25.18C57.2687 25.18 56.7807 25.064 56.3887 24.832C55.9967 24.592 55.7007 24.264 55.5007 23.848C55.3007 23.432 55.2007 22.948 55.2007 22.396V17.992C55.2007 17.424 55.2927 16.928 55.4767 16.504C55.6687 16.072 55.9607 15.736 56.3527 15.496C56.7447 15.256 57.2447 15.136 57.8527 15.136C58.4607 15.136 58.9567 15.256 59.3407 15.496C59.7327 15.736 60.0207 16.072 60.2047 16.504C60.3967 16.928 60.4927 17.424 60.4927 17.992V22.396C60.4927 22.94 60.3927 23.424 60.1927 23.848C59.9927 24.264 59.6967 24.592 59.3047 24.832C58.9127 25.064 58.4287 25.18 57.8527 25.18ZM57.8527 23.392C58.0447 23.392 58.1807 23.332 58.2607 23.212C58.3487 23.084 58.4007 22.94 58.4167 22.78C58.4407 22.612 58.4527 22.468 58.4527 22.348V18.04C58.4527 17.904 58.4447 17.752 58.4287 17.584C58.4127 17.408 58.3607 17.256 58.2727 17.128C58.1927 16.992 58.0527 16.924 57.8527 16.924C57.6527 16.924 57.5087 16.992 57.4207 17.128C57.3407 17.256 57.2927 17.408 57.2767 17.584C57.2607 17.752 57.2527 17.904 57.2527 18.04V22.348C57.2527 22.468 57.2647 22.612 57.2887 22.78C57.3127 22.94 57.3647 23.084 57.4447 23.212C57.5327 23.332 57.6687 23.392 57.8527 23.392ZM67.0887 25.12C66.5847 25.12 66.1527 25.028 65.7927 24.844C65.4407 24.66 65.1687 24.396 64.9767 24.052C64.7847 23.708 64.6887 23.292 64.6887 22.804V20.26C64.6887 19.764 64.7847 19.344 64.9767 19C65.1687 18.656 65.4407 18.396 65.7927 18.22C66.1527 18.036 66.5847 17.944 67.0887 17.944C67.5847 17.944 68.0047 18.02 68.3487 18.172C68.7007 18.324 68.9687 18.556 69.1527 18.868C69.3367 19.172 69.4287 19.56 69.4287 20.032V20.764H67.5447V19.972C67.5447 19.788 67.5247 19.648 67.4847 19.552C67.4527 19.448 67.4007 19.376 67.3287 19.336C67.2647 19.296 67.1847 19.276 67.0887 19.276C66.9927 19.276 66.9127 19.304 66.8487 19.36C66.7847 19.408 66.7367 19.492 66.7047 19.612C66.6727 19.724 66.6567 19.884 66.6567 20.092V22.972C66.6567 23.284 66.6927 23.496 66.7647 23.608C66.8447 23.72 66.9567 23.776 67.1007 23.776C67.2047 23.776 67.2887 23.756 67.3527 23.716C67.4167 23.668 67.4647 23.596 67.4967 23.5C67.5287 23.396 67.5447 23.26 67.5447 23.092V22.168H69.4287V23.008C69.4287 23.472 69.3327 23.864 69.1407 24.184C68.9567 24.496 68.6887 24.732 68.3367 24.892C67.9927 25.044 67.5767 25.12 67.0887 25.12ZM72.714 25.12C72.21 25.12 71.778 25.032 71.418 24.856C71.058 24.672 70.782 24.408 70.59 24.064C70.398 23.712 70.302 23.292 70.302 22.804V20.26C70.302 19.764 70.398 19.344 70.59 19C70.782 18.656 71.058 18.396 71.418 18.22C71.786 18.036 72.218 17.944 72.714 17.944C73.226 17.944 73.65 18.032 73.986 18.208C74.33 18.384 74.586 18.644 74.754 18.988C74.93 19.332 75.018 19.756 75.018 20.26V21.652H72.234V22.984C72.234 23.16 72.254 23.304 72.294 23.416C72.334 23.528 72.39 23.608 72.462 23.656C72.534 23.704 72.618 23.728 72.714 23.728C72.81 23.728 72.894 23.708 72.966 23.668C73.046 23.62 73.106 23.548 73.146 23.452C73.194 23.356 73.218 23.224 73.218 23.056V22.324H75.018V22.996C75.018 23.7 74.814 24.232 74.406 24.592C73.998 24.944 73.434 25.12 72.714 25.12ZM72.234 20.74H73.218V20.044C73.218 19.86 73.194 19.716 73.146 19.612C73.106 19.508 73.046 19.436 72.966 19.396C72.894 19.356 72.806 19.336 72.702 19.336C72.606 19.336 72.522 19.36 72.45 19.408C72.386 19.456 72.334 19.54 72.294 19.66C72.254 19.772 72.234 19.936 72.234 20.152V20.74ZM76.0827 25V18.064H78.0387V20.8H78.3267L79.3827 18.064H81.4827L80.1147 21.34L81.5187 25H79.4547L78.3267 21.928H78.0387V25H76.0827ZM82.175 25V23.152H84.023V25H82.175Z"></path>
</svg>
