<svg xmlns="http://www.w3.org/2000/svg" fill="none" viewBox="0 0 13 18" height="18" width="13">
<rect fill-opacity="0.01" fill="#0D0E12" height="18" width="13"></rect>
<path fill="white" d="M3.312 14.144C2.68 14.144 2.164 14.008 1.764 13.736C1.372 13.456 1.084 13.076 0.9 12.596C0.716 12.116 0.624 11.568 0.624 10.952V7.436C0.624 6.804 0.696 6.24 0.84 5.744C0.992 5.248 1.26 4.86 1.644 4.58C2.028 4.292 2.58 4.148 3.3 4.148C3.924 4.148 4.416 4.244 4.776 4.436C5.136 4.628 5.392 4.908 5.544 5.276C5.696 5.644 5.772 6.1 5.772 6.644C5.772 6.676 5.772 6.708 5.772 6.74C5.78 6.764 5.784 6.788 5.784 6.812H3.9C3.9 6.42 3.868 6.132 3.804 5.948C3.748 5.756 3.584 5.66 3.312 5.66C3.128 5.66 2.988 5.716 2.892 5.828C2.804 5.94 2.744 6.136 2.712 6.416C2.68 6.696 2.664 7.088 2.664 7.592V8.456C2.76 8.288 2.916 8.16 3.132 8.072C3.348 7.976 3.592 7.924 3.864 7.916C4.376 7.9 4.784 8.016 5.088 8.264C5.4 8.512 5.624 8.852 5.76 9.284C5.896 9.708 5.964 10.184 5.964 10.712C5.964 11.392 5.884 11.992 5.724 12.512C5.564 13.024 5.292 13.424 4.908 13.712C4.524 14 3.992 14.144 3.312 14.144ZM3.336 12.668C3.52 12.668 3.652 12.608 3.732 12.488C3.82 12.36 3.876 12.176 3.9 11.936C3.932 11.688 3.948 11.384 3.948 11.024C3.948 10.704 3.936 10.428 3.912 10.196C3.896 9.964 3.844 9.784 3.756 9.656C3.668 9.52 3.52 9.452 3.312 9.452C3.216 9.452 3.124 9.472 3.036 9.512C2.948 9.552 2.872 9.604 2.808 9.668C2.744 9.724 2.696 9.78 2.664 9.836V11.42C2.664 11.636 2.68 11.84 2.712 12.032C2.752 12.224 2.82 12.38 2.916 12.5C3.02 12.612 3.16 12.668 3.336 12.668ZM9.57703 14.156C8.92103 14.156 8.39703 14.028 8.00503 13.772C7.61303 13.508 7.33303 13.148 7.16503 12.692C6.99703 12.228 6.91303 11.7 6.91303 11.108C6.92103 10.868 6.94503 10.636 6.98503 10.412C7.03303 10.18 7.10103 9.968 7.18903 9.776C7.28503 9.576 7.40103 9.404 7.53703 9.26C7.68103 9.108 7.84903 8.984 8.04103 8.888C7.79303 8.704 7.57303 8.44 7.38103 8.096C7.18903 7.744 7.08503 7.3 7.06903 6.764C7.06103 6.22 7.14903 5.752 7.33303 5.36C7.52503 4.968 7.80903 4.668 8.18503 4.46C8.56103 4.252 9.02503 4.148 9.57703 4.148C10.137 4.148 10.601 4.256 10.969 4.472C11.345 4.68 11.625 4.98 11.809 5.372C11.993 5.756 12.077 6.22 12.061 6.764C12.053 7.308 11.957 7.756 11.773 8.108C11.589 8.452 11.369 8.712 11.113 8.888C11.305 8.984 11.469 9.108 11.605 9.26C11.749 9.404 11.865 9.576 11.953 9.776C12.049 9.968 12.121 10.18 12.169 10.412C12.217 10.636 12.241 10.868 12.241 11.108C12.257 11.7 12.177 12.228 12.001 12.692C11.833 13.148 11.553 13.508 11.161 13.772C10.769 14.028 10.241 14.156 9.57703 14.156ZM9.57703 12.68C9.79303 12.68 9.94903 12.6 10.045 12.44C10.141 12.28 10.201 12.092 10.225 11.876C10.249 11.652 10.261 11.448 10.261 11.264C10.269 11.016 10.257 10.776 10.225 10.544C10.201 10.312 10.141 10.124 10.045 9.98C9.94903 9.828 9.79303 9.752 9.57703 9.752C9.36903 9.752 9.21703 9.828 9.12103 9.98C9.02503 10.124 8.96103 10.312 8.92903 10.544C8.90503 10.768 8.89303 11.008 8.89303 11.264C8.89303 11.448 8.90503 11.652 8.92903 11.876C8.95303 12.1 9.01303 12.292 9.10903 12.452C9.21303 12.604 9.36903 12.68 9.57703 12.68ZM9.57703 8.168C9.71303 8.168 9.82503 8.116 9.91303 8.012C10.001 7.9 10.065 7.736 10.105 7.52C10.153 7.304 10.177 7.036 10.177 6.716C10.177 6.388 10.125 6.128 10.021 5.936C9.92503 5.744 9.77703 5.648 9.57703 5.648C9.37703 5.648 9.22103 5.744 9.10903 5.936C9.00503 6.128 8.95303 6.384 8.95303 6.704C8.95303 7.024 8.97303 7.296 9.01303 7.52C9.06103 7.736 9.13303 7.9 9.22903 8.012C9.32503 8.116 9.44103 8.168 9.57703 8.168Z"></path>
</svg>
