<svg xmlns="http://www.w3.org/2000/svg" fill="none" viewBox="0 0 104 22" height="22" width="104">
<rect stroke="#0D0E12" fill="#0D0E12" height="21" width="103" y="0.5" x="0.5"></rect>
<path fill="white" d="M41.63 15V6.9H43.04V11.54L45.11 6.9H46.27V15H44.83V10.28L42.72 15H41.63ZM47.4684 15L47.6084 6.9H49.5284L50.4184 11.61L51.3784 6.9H53.2284L53.3684 15H52.0984L51.9484 9.61L51.0084 15H49.8784L48.8784 9.57L48.7584 15H47.4684ZM54.5395 15V6.9H59.3895V15H57.6295V8.18H56.2995V15H54.5395ZM62.9141 15.12C62.3075 15.12 61.8275 15.0133 61.4741 14.8C61.1208 14.5867 60.8675 14.28 60.7141 13.88C60.5608 13.48 60.4841 13.0033 60.4841 12.45V9.44C60.4841 8.88 60.5608 8.40333 60.7141 8.01C60.8675 7.61667 61.1208 7.31667 61.4741 7.11C61.8275 6.89667 62.3075 6.79 62.9141 6.79C63.5275 6.79 64.0108 6.89667 64.3641 7.11C64.7241 7.31667 64.9808 7.61667 65.1341 8.01C65.2875 8.40333 65.3641 8.88 65.3641 9.44V12.45C65.3641 13.0033 65.2875 13.48 65.1341 13.88C64.9808 14.28 64.7241 14.5867 64.3641 14.8C64.0108 15.0133 63.5275 15.12 62.9141 15.12ZM62.9141 13.85C63.1008 13.85 63.2375 13.8033 63.3241 13.71C63.4108 13.6167 63.4675 13.4967 63.4941 13.35C63.5208 13.2033 63.5341 13.0533 63.5341 12.9V9C63.5341 8.84 63.5208 8.69 63.4941 8.55C63.4675 8.40333 63.4108 8.28333 63.3241 8.19C63.2375 8.09667 63.1008 8.05 62.9141 8.05C62.7408 8.05 62.6108 8.09667 62.5241 8.19C62.4375 8.28333 62.3808 8.40333 62.3541 8.55C62.3275 8.69 62.3141 8.84 62.3141 9V12.9C62.3141 13.0533 62.3241 13.2033 62.3441 13.35C62.3708 13.4967 62.4241 13.6167 62.5041 13.71C62.5908 13.8033 62.7275 13.85 62.9141 13.85ZM66.4535 15V6.9H69.1735C69.6602 6.9 70.0602 6.99333 70.3735 7.18C70.6868 7.36 70.9202 7.62667 71.0735 7.98C71.2268 8.32667 71.3035 8.75 71.3035 9.25C71.3035 9.87667 71.2002 10.3567 70.9935 10.69C70.7868 11.0167 70.5068 11.2433 70.1535 11.37C69.8002 11.4967 69.4035 11.56 68.9635 11.56H68.2435V15H66.4535ZM68.2435 10.31H68.8435C69.0635 10.31 69.2302 10.27 69.3435 10.19C69.4568 10.11 69.5302 9.99 69.5635 9.83C69.6035 9.67 69.6235 9.46667 69.6235 9.22C69.6235 9.01333 69.6068 8.83333 69.5735 8.68C69.5468 8.52 69.4768 8.39333 69.3635 8.3C69.2502 8.20667 69.0735 8.16 68.8335 8.16H68.2435V10.31ZM72.8964 15V8.23H71.6764V6.9H75.9064V8.23H74.6964V15H72.8964Z"></path>
<rect fill="white" rx="0.454271" height="0.908543" width="9.08543" y="15.0916" x="27"></rect>
<rect fill="white" transform="rotate(135 35.1507 10.1135)" rx="0.479838" height="0.959676" width="5.1115" y="10.1135" x="35.1507"></rect>
<rect fill="white" transform="rotate(45 28.6184 9.45483)" rx="0.47776" height="0.955519" width="5.0884" y="9.45483" x="28.6184"></rect>
<rect fill="white" transform="rotate(90 32.0049 6)" rx="0.454272" height="0.908543" width="7.26834" y="6" x="32.0049"></rect>
<rect fill="white" transform="rotate(-90 27 16)" rx="0.454271" height="0.908543" width="4.08844" y="16" x="27"></rect>
<rect fill="white" transform="rotate(-90 35.1768 16)" rx="0.454271" height="0.908543" width="4.08844" y="16" x="35.1768"></rect>
</svg>
