<svg xmlns="http://www.w3.org/2000/svg" fill="none" viewBox="0 0 13 18" height="18" width="13">
<rect fill-opacity="0.01" fill="#0D0E12" height="18" width="13"></rect>
<path fill="white" d="M3.06 14.18C2.348 14.18 1.808 14.056 1.44 13.808C1.08 13.552 0.836 13.196 0.708 12.74C0.58 12.284 0.516 11.756 0.516 11.156H2.448C2.448 11.524 2.468 11.824 2.508 12.056C2.548 12.288 2.62 12.456 2.724 12.56C2.836 12.656 2.992 12.7 3.192 12.692C3.4 12.684 3.548 12.6 3.636 12.44C3.724 12.28 3.776 12.052 3.792 11.756C3.816 11.452 3.828 11.088 3.828 10.664C3.828 10.344 3.808 10.06 3.768 9.812C3.736 9.564 3.664 9.368 3.552 9.224C3.448 9.072 3.288 8.996 3.072 8.996C2.872 8.996 2.708 9.068 2.58 9.212C2.452 9.356 2.36 9.58 2.304 9.884H0.576L0.756 4.28H5.292V5.96H2.364L2.256 7.964C2.336 7.852 2.488 7.756 2.712 7.676C2.936 7.588 3.176 7.532 3.432 7.508C3.928 7.452 4.344 7.544 4.68 7.784C5.024 8.016 5.28 8.372 5.448 8.852C5.624 9.332 5.712 9.92 5.712 10.616C5.712 11.136 5.68 11.616 5.616 12.056C5.552 12.488 5.428 12.864 5.244 13.184C5.06 13.496 4.792 13.74 4.44 13.916C4.088 14.092 3.628 14.18 3.06 14.18ZM9.16547 14.18C8.45347 14.18 7.91347 14.056 7.54547 13.808C7.18547 13.552 6.94147 13.196 6.81347 12.74C6.68547 12.284 6.62147 11.756 6.62147 11.156H8.55347C8.55347 11.524 8.57347 11.824 8.61347 12.056C8.65347 12.288 8.72547 12.456 8.82947 12.56C8.94147 12.656 9.09747 12.7 9.29747 12.692C9.50547 12.684 9.65347 12.6 9.74147 12.44C9.82947 12.28 9.88147 12.052 9.89747 11.756C9.92147 11.452 9.93347 11.088 9.93347 10.664C9.93347 10.344 9.91347 10.06 9.87347 9.812C9.84147 9.564 9.76947 9.368 9.65747 9.224C9.55347 9.072 9.39347 8.996 9.17747 8.996C8.97747 8.996 8.81347 9.068 8.68547 9.212C8.55747 9.356 8.46547 9.58 8.40947 9.884H6.68147L6.86147 4.28H11.3975V5.96H8.46947L8.36147 7.964C8.44147 7.852 8.59347 7.756 8.81747 7.676C9.04147 7.588 9.28147 7.532 9.53747 7.508C10.0335 7.452 10.4495 7.544 10.7855 7.784C11.1295 8.016 11.3855 8.372 11.5535 8.852C11.7295 9.332 11.8175 9.92 11.8175 10.616C11.8175 11.136 11.7855 11.616 11.7215 12.056C11.6575 12.488 11.5335 12.864 11.3495 13.184C11.1655 13.496 10.8975 13.74 10.5455 13.916C10.1935 14.092 9.73347 14.18 9.16547 14.18Z"></path>
</svg>
