<svg xmlns="http://www.w3.org/2000/svg" fill="none" viewBox="0 0 214 84" height="84" width="214">
<mask fill="white" id="path-1-inside-1_1270_14">
<path d="M0 0H214V84H0V0Z"></path>
</mask>
<path fill="#0D0E12" d="M0 0H214V84H0V0Z"></path>
<path mask="url(#path-1-inside-1_1270_14)" fill="white" d="M0 0V-1H-1V0H0ZM0 84H-1V85H0V84ZM0 1H214V-1H0V1ZM214 83H0V85H214V83ZM1 84V0H-1V84H1Z"></path>
<path fill="#05FF00" d="M16.72 38V28.28H22.54V38H20.428V29.816H18.832V38H16.72ZM26.7696 38.144C26.0416 38.144 25.4656 38.016 25.0416 37.76C24.6176 37.504 24.3136 37.136 24.1296 36.656C23.9456 36.176 23.8536 35.604 23.8536 34.94V31.328C23.8536 30.656 23.9456 30.084 24.1296 29.612C24.3136 29.14 24.6176 28.78 25.0416 28.532C25.4656 28.276 26.0416 28.148 26.7696 28.148C27.5056 28.148 28.0856 28.276 28.5096 28.532C28.9416 28.78 29.2496 29.14 29.4336 29.612C29.6176 30.084 29.7096 30.656 29.7096 31.328V34.94C29.7096 35.604 29.6176 36.176 29.4336 36.656C29.2496 37.136 28.9416 37.504 28.5096 37.76C28.0856 38.016 27.5056 38.144 26.7696 38.144ZM26.7696 36.62C26.9936 36.62 27.1576 36.564 27.2616 36.452C27.3656 36.34 27.4336 36.196 27.4656 36.02C27.4976 35.844 27.5136 35.664 27.5136 35.48V30.8C27.5136 30.608 27.4976 30.428 27.4656 30.26C27.4336 30.084 27.3656 29.94 27.2616 29.828C27.1576 29.716 26.9936 29.66 26.7696 29.66C26.5616 29.66 26.4056 29.716 26.3016 29.828C26.1976 29.94 26.1296 30.084 26.0976 30.26C26.0656 30.428 26.0496 30.608 26.0496 30.8V35.48C26.0496 35.664 26.0616 35.844 26.0856 36.02C26.1176 36.196 26.1816 36.34 26.2776 36.452C26.3816 36.564 26.5456 36.62 26.7696 36.62ZM31.0529 38V28.28H35.8769V29.912H33.2009V32.384H33.6569C34.2729 32.384 34.7929 32.484 35.2169 32.684C35.6489 32.884 35.9769 33.192 36.2009 33.608C36.4249 34.016 36.5369 34.544 36.5369 35.192C36.5369 35.784 36.4569 36.264 36.2969 36.632C36.1449 37 35.9289 37.284 35.6489 37.484C35.3689 37.684 35.0409 37.82 34.6649 37.892C34.2969 37.964 33.8969 38 33.4649 38H31.0529ZM33.2009 36.596H33.4769C33.7489 36.596 33.9649 36.544 34.1249 36.44C34.2849 36.336 34.3969 36.176 34.4609 35.96C34.5249 35.744 34.5529 35.472 34.5449 35.144C34.5369 34.784 34.4609 34.484 34.3169 34.244C34.1729 33.996 33.8849 33.872 33.4529 33.872H33.2009V36.596ZM37.6614 38V28.28H42.0294V29.744H39.8094V32.156H41.5014V33.644H39.8094V36.548H42.0534V38H37.6614ZM42.5246 40.1V36.464H42.8006C42.9846 36.408 43.1526 36.312 43.3046 36.176C43.4646 36.032 43.6086 35.84 43.7366 35.6C43.8646 35.36 43.9806 35.06 44.0846 34.7C44.1886 34.34 44.2766 33.912 44.3486 33.416C44.4206 32.912 44.4806 32.332 44.5286 31.676L44.7926 28.28H49.3166V36.464H50.4086V40.1H48.9926L48.8846 38H44.1206L44.0006 40.1H42.5246ZM44.8286 36.464H47.3126V29.804H46.4126L46.3046 31.892C46.2646 32.58 46.2046 33.164 46.1246 33.644C46.0526 34.124 45.9646 34.524 45.8606 34.844C45.7646 35.156 45.6606 35.412 45.5486 35.612C45.4366 35.812 45.3166 35.976 45.1886 36.104C45.0686 36.232 44.9486 36.352 44.8286 36.464ZM50.8809 38L52.7169 28.28H55.1649L56.9769 38H54.9969L54.6729 35.948H53.2449L52.9089 38H50.8809ZM53.4369 34.664H54.4689L53.9529 30.872L53.4369 34.664Z"></path>
<path fill="white" d="M16.63 56V47.9H18.49C18.8567 47.9 19.1733 47.94 19.44 48.02C19.7133 48.1 19.94 48.2233 20.12 48.39C20.3 48.5567 20.4333 48.77 20.52 49.03C20.6067 49.2833 20.65 49.5833 20.65 49.93C20.65 50.2633 20.6067 50.5533 20.52 50.8C20.44 51.04 20.3133 51.23 20.14 51.37C19.9733 51.51 19.7567 51.6 19.49 51.64C19.8167 51.7133 20.08 51.84 20.28 52.02C20.48 52.1933 20.6267 52.42 20.72 52.7C20.82 52.9733 20.87 53.3033 20.87 53.69C20.87 54.0367 20.83 54.3533 20.75 54.64C20.67 54.9267 20.5433 55.17 20.37 55.37C20.2033 55.57 19.9867 55.7267 19.72 55.84C19.46 55.9467 19.15 56 18.79 56H16.63ZM17.76 55.19H18.52C19.0267 55.19 19.3633 55.0733 19.53 54.84C19.7033 54.6 19.79 54.2167 19.79 53.69C19.79 53.35 19.7433 53.0667 19.65 52.84C19.5633 52.6067 19.42 52.4333 19.22 52.32C19.0267 52.2 18.7633 52.14 18.43 52.14H17.76V55.19ZM17.76 51.28H18.43C18.75 51.28 19 51.2367 19.18 51.15C19.36 51.0567 19.4867 50.91 19.56 50.71C19.6333 50.51 19.67 50.25 19.67 49.93C19.67 49.5567 19.6133 49.2867 19.5 49.12C19.3867 48.9533 19.21 48.85 18.97 48.81C18.73 48.7633 18.4167 48.74 18.03 48.74H17.76V51.28ZM22.8241 56.08C22.5975 56.08 22.3975 56.0167 22.2241 55.89C22.0508 55.7567 21.9141 55.59 21.8141 55.39C21.7141 55.1833 21.6641 54.9667 21.6641 54.74C21.6641 54.38 21.7241 54.0767 21.8441 53.83C21.9641 53.5833 22.1275 53.3767 22.3341 53.21C22.5475 53.0367 22.7908 52.8867 23.0641 52.76C23.3441 52.6333 23.6375 52.51 23.9441 52.39V51.98C23.9441 51.7467 23.9308 51.5533 23.9041 51.4C23.8775 51.2467 23.8208 51.1333 23.7341 51.06C23.6541 50.98 23.5308 50.94 23.3641 50.94C23.2175 50.94 23.0975 50.9733 23.0041 51.04C22.9175 51.1067 22.8541 51.2033 22.8141 51.33C22.7741 51.45 22.7541 51.5933 22.7541 51.76V52.05L21.6941 52.01C21.7075 51.37 21.8541 50.9 22.1341 50.6C22.4141 50.2933 22.8475 50.14 23.4341 50.14C24.0075 50.14 24.4141 50.2967 24.6541 50.61C24.8941 50.9233 25.0141 51.3767 25.0141 51.97V54.61C25.0141 54.79 25.0175 54.9633 25.0241 55.13C25.0375 55.2967 25.0508 55.4533 25.0641 55.6C25.0841 55.74 25.1008 55.8733 25.1141 56H24.1341C24.1141 55.8933 24.0875 55.76 24.0541 55.6C24.0275 55.4333 24.0075 55.2833 23.9941 55.15C23.9275 55.3767 23.7975 55.59 23.6041 55.79C23.4175 55.9833 23.1575 56.08 22.8241 56.08ZM23.2441 55.16C23.3508 55.16 23.4508 55.13 23.5441 55.07C23.6375 55.01 23.7208 54.9433 23.7941 54.87C23.8675 54.79 23.9175 54.7267 23.9441 54.68V53.04C23.7775 53.1333 23.6208 53.2267 23.4741 53.32C23.3275 53.4133 23.1975 53.5133 23.0841 53.62C22.9775 53.72 22.8908 53.8367 22.8241 53.97C22.7641 54.0967 22.7341 54.2433 22.7341 54.41C22.7341 54.6433 22.7775 54.8267 22.8641 54.96C22.9508 55.0933 23.0775 55.16 23.2441 55.16ZM26.042 56V50.22H27.072V55.24H28.092V50.22H29.122V55.24H30.142V50.22H31.172V56H26.042ZM36.1571 56.08C35.6838 56.08 35.3238 55.9867 35.0771 55.8C34.8371 55.6067 34.6738 55.3367 34.5871 54.99C34.5071 54.6433 34.4671 54.24 34.4671 53.78V52.45C34.4671 51.9633 34.5104 51.55 34.5971 51.21C34.6838 50.8633 34.8471 50.6 35.0871 50.42C35.3338 50.2333 35.6904 50.14 36.1571 50.14C36.5771 50.14 36.9004 50.21 37.1271 50.35C37.3604 50.4833 37.5204 50.6867 37.6071 50.96C37.6938 51.2267 37.7371 51.56 37.7371 51.96V52.3H36.7671V51.95C36.7671 51.6967 36.7504 51.4967 36.7171 51.35C36.6838 51.2033 36.6238 51.0967 36.5371 51.03C36.4504 50.9633 36.3271 50.93 36.1671 50.93C35.9938 50.93 35.8604 50.97 35.7671 51.05C35.6738 51.13 35.6104 51.2667 35.5771 51.46C35.5504 51.6467 35.5371 51.9033 35.5371 52.23V54.05C35.5371 54.5433 35.5838 54.8733 35.6771 55.04C35.7704 55.2067 35.9371 55.29 36.1771 55.29C36.3571 55.29 36.4871 55.25 36.5671 55.17C36.6538 55.0833 36.7071 54.9633 36.7271 54.81C36.7538 54.6567 36.7671 54.4833 36.7671 54.29V53.82H37.7371V54.22C37.7371 54.6067 37.6904 54.94 37.5971 55.22C37.5104 55.5 37.3504 55.7133 37.1171 55.86C36.8904 56.0067 36.5704 56.08 36.1571 56.08ZM40.2784 56.08C39.8518 56.08 39.5151 55.9933 39.2684 55.82C39.0218 55.6467 38.8451 55.4 38.7384 55.08C38.6384 54.76 38.5884 54.3833 38.5884 53.95V52.27C38.5884 51.8367 38.6384 51.46 38.7384 51.14C38.8451 50.82 39.0218 50.5733 39.2684 50.4C39.5151 50.2267 39.8518 50.14 40.2784 50.14C40.7051 50.14 41.0384 50.2267 41.2784 50.4C41.5251 50.5733 41.6984 50.82 41.7984 51.14C41.9051 51.46 41.9584 51.8367 41.9584 52.27V53.95C41.9584 54.3833 41.9051 54.76 41.7984 55.08C41.6984 55.4 41.5251 55.6467 41.2784 55.82C41.0384 55.9933 40.7051 56.08 40.2784 56.08ZM40.2784 55.29C40.4851 55.29 40.6284 55.23 40.7084 55.11C40.7951 54.99 40.8451 54.8333 40.8584 54.64C40.8784 54.44 40.8884 54.2333 40.8884 54.02V52.21C40.8884 51.99 40.8784 51.7833 40.8584 51.59C40.8451 51.3967 40.7951 51.24 40.7084 51.12C40.6284 50.9933 40.4851 50.93 40.2784 50.93C40.0718 50.93 39.9251 50.9933 39.8384 51.12C39.7518 51.24 39.6984 51.3967 39.6784 51.59C39.6651 51.7833 39.6584 51.99 39.6584 52.21V54.02C39.6584 54.2333 39.6651 54.44 39.6784 54.64C39.6984 54.8333 39.7518 54.99 39.8384 55.11C39.9251 55.23 40.0718 55.29 40.2784 55.29ZM42.9365 56V50.22H46.2965V56H45.2265V51.03H44.0065V56H42.9365ZM48.9798 56.08C48.5265 56.08 48.1765 55.9933 47.9298 55.82C47.6832 55.64 47.5098 55.38 47.4098 55.04C47.3165 54.6933 47.2698 54.27 47.2698 53.77V52.45C47.2698 51.9367 47.3198 51.51 47.4198 51.17C47.5198 50.83 47.6932 50.5733 47.9398 50.4C48.1932 50.2267 48.5398 50.14 48.9798 50.14C49.4665 50.14 49.8232 50.24 50.0498 50.44C50.2832 50.64 50.4365 50.93 50.5098 51.31C50.5832 51.6833 50.6198 52.1333 50.6198 52.66V53.13H48.3398V54.29C48.3398 54.5233 48.3598 54.7133 48.3998 54.86C48.4465 55.0067 48.5165 55.1167 48.6098 55.19C48.7098 55.2567 48.8365 55.29 48.9898 55.29C49.1498 55.29 49.2698 55.2533 49.3498 55.18C49.4365 55.1 49.4932 54.99 49.5198 54.85C49.5532 54.7033 49.5698 54.5333 49.5698 54.34V53.99H50.6098V54.21C50.6098 54.79 50.4865 55.2467 50.2398 55.58C49.9932 55.9133 49.5732 56.08 48.9798 56.08ZM48.3398 52.55H49.5698V52.03C49.5698 51.79 49.5565 51.59 49.5298 51.43C49.5032 51.2633 49.4465 51.14 49.3598 51.06C49.2798 50.9733 49.1498 50.93 48.9698 50.93C48.7965 50.93 48.6632 50.97 48.5698 51.05C48.4832 51.13 48.4232 51.2667 48.3898 51.46C48.3565 51.6467 48.3398 51.9067 48.3398 52.24V52.55ZM51.5888 57.9V50.22H52.6588V50.68C52.7855 50.5333 52.9388 50.4067 53.1188 50.3C53.2988 50.1933 53.5122 50.14 53.7588 50.14C54.0588 50.14 54.2955 50.22 54.4688 50.38C54.6488 50.5333 54.7822 50.73 54.8688 50.97C54.9555 51.2033 55.0122 51.4433 55.0388 51.69C55.0655 51.93 55.0788 52.1367 55.0788 52.31V53.71C55.0788 54.1167 55.0388 54.5033 54.9588 54.87C54.8788 55.23 54.7322 55.5233 54.5188 55.75C54.3122 55.97 54.0188 56.08 53.6388 56.08C53.4322 56.08 53.2488 56.03 53.0888 55.93C52.9288 55.8233 52.7855 55.7033 52.6588 55.57V57.9H51.5888ZM53.4288 55.24C53.6155 55.24 53.7488 55.1733 53.8288 55.04C53.9088 54.9 53.9588 54.7133 53.9788 54.48C53.9988 54.2467 54.0088 53.99 54.0088 53.71V52.31C54.0088 52.07 53.9955 51.85 53.9688 51.65C53.9422 51.4433 53.8855 51.28 53.7988 51.16C53.7122 51.04 53.5755 50.98 53.3888 50.98C53.2488 50.98 53.1155 51.01 52.9888 51.07C52.8622 51.13 52.7522 51.2 52.6588 51.28V54.98C52.7588 55.0533 52.8722 55.1167 52.9988 55.17C53.1255 55.2167 53.2688 55.24 53.4288 55.24ZM56.0517 56V50.22H57.1217V52.65H58.4917V50.22H59.5617V56H58.4917V53.43H57.1217V56H56.0517ZM60.6416 56V50.22H61.5416V54.11L63.2816 50.22H64.1216V56H63.2416V52.08L61.5116 56H60.6416ZM65.2119 56V50.22H66.2819V52.66H66.5819L67.6719 50.22H68.7719L67.5619 53.02L68.7919 56H67.6719L66.5819 53.3H66.2819V56H65.2119ZM73.2274 56.08C72.7541 56.08 72.3941 55.9867 72.1474 55.8C71.9074 55.6067 71.7441 55.3367 71.6574 54.99C71.5774 54.6433 71.5374 54.24 71.5374 53.78V52.45C71.5374 51.9633 71.5808 51.55 71.6674 51.21C71.7541 50.8633 71.9174 50.6 72.1574 50.42C72.4041 50.2333 72.7608 50.14 73.2274 50.14C73.6474 50.14 73.9708 50.21 74.1974 50.35C74.4308 50.4833 74.5908 50.6867 74.6774 50.96C74.7641 51.2267 74.8074 51.56 74.8074 51.96V52.3H73.8374V51.95C73.8374 51.6967 73.8208 51.4967 73.7874 51.35C73.7541 51.2033 73.6941 51.0967 73.6074 51.03C73.5208 50.9633 73.3974 50.93 73.2374 50.93C73.0641 50.93 72.9308 50.97 72.8374 51.05C72.7441 51.13 72.6808 51.2667 72.6474 51.46C72.6208 51.6467 72.6074 51.9033 72.6074 52.23V54.05C72.6074 54.5433 72.6541 54.8733 72.7474 55.04C72.8408 55.2067 73.0074 55.29 73.2474 55.29C73.4274 55.29 73.5574 55.25 73.6374 55.17C73.7241 55.0833 73.7774 54.9633 73.7974 54.81C73.8241 54.6567 73.8374 54.4833 73.8374 54.29V53.82H74.8074V54.22C74.8074 54.6067 74.7608 54.94 74.6674 55.22C74.5808 55.5 74.4208 55.7133 74.1874 55.86C73.9608 56.0067 73.6408 56.08 73.2274 56.08ZM75.2388 57.47V55.29C75.4388 55.1367 75.6221 54.9533 75.7888 54.74C75.9554 54.5267 76.1021 54.2567 76.2288 53.93C76.3554 53.6033 76.4554 53.2 76.5288 52.72C76.6021 52.24 76.6421 51.66 76.6488 50.98L76.6688 50.22H79.2788V55.24H79.9788V57.47H79.1988L79.1088 56H76.1088L76.0188 57.47H75.2388ZM76.2788 55.24H78.2488V50.99H77.4988L77.4788 51.2C77.4721 51.9067 77.4354 52.4967 77.3688 52.97C77.3088 53.4367 77.2221 53.82 77.1088 54.12C77.0021 54.4133 76.8754 54.6467 76.7288 54.82C76.5888 54.9933 76.4388 55.1333 76.2788 55.24ZM81.7597 56.08C81.533 56.08 81.333 56.0167 81.1597 55.89C80.9864 55.7567 80.8497 55.59 80.7497 55.39C80.6497 55.1833 80.5997 54.9667 80.5997 54.74C80.5997 54.38 80.6597 54.0767 80.7797 53.83C80.8997 53.5833 81.063 53.3767 81.2697 53.21C81.483 53.0367 81.7264 52.8867 81.9997 52.76C82.2797 52.6333 82.573 52.51 82.8797 52.39V51.98C82.8797 51.7467 82.8664 51.5533 82.8397 51.4C82.813 51.2467 82.7564 51.1333 82.6697 51.06C82.5897 50.98 82.4664 50.94 82.2997 50.94C82.153 50.94 82.033 50.9733 81.9397 51.04C81.853 51.1067 81.7897 51.2033 81.7497 51.33C81.7097 51.45 81.6897 51.5933 81.6897 51.76V52.05L80.6297 52.01C80.643 51.37 80.7897 50.9 81.0697 50.6C81.3497 50.2933 81.783 50.14 82.3697 50.14C82.943 50.14 83.3497 50.2967 83.5897 50.61C83.8297 50.9233 83.9497 51.3767 83.9497 51.97V54.61C83.9497 54.79 83.953 54.9633 83.9597 55.13C83.973 55.2967 83.9864 55.4533 83.9997 55.6C84.0197 55.74 84.0364 55.8733 84.0497 56H83.0697C83.0497 55.8933 83.023 55.76 82.9897 55.6C82.963 55.4333 82.943 55.2833 82.9297 55.15C82.863 55.3767 82.733 55.59 82.5397 55.79C82.353 55.9833 82.093 56.08 81.7597 56.08ZM82.1797 55.16C82.2864 55.16 82.3864 55.13 82.4797 55.07C82.573 55.01 82.6564 54.9433 82.7297 54.87C82.803 54.79 82.853 54.7267 82.8797 54.68V53.04C82.713 53.1333 82.5564 53.2267 82.4097 53.32C82.263 53.4133 82.133 53.5133 82.0197 53.62C81.913 53.72 81.8264 53.8367 81.7597 53.97C81.6997 54.0967 81.6697 54.2433 81.6697 54.41C81.6697 54.6433 81.713 54.8267 81.7997 54.96C81.8864 55.0933 82.013 55.16 82.1797 55.16ZM84.6075 56.05V55.24C84.8075 55.24 84.9642 55.2 85.0775 55.12C85.1975 55.04 85.2875 54.9067 85.3475 54.72C85.4142 54.5267 85.4642 54.27 85.4975 53.95C85.5308 53.6233 85.5608 53.2167 85.5875 52.73L85.7175 50.22H88.7475V56H87.6775V51.03H86.6575L86.5675 52.73C86.5342 53.39 86.4842 53.9367 86.4175 54.37C86.3575 54.8033 86.2608 55.1433 86.1275 55.39C85.9942 55.63 85.8142 55.8 85.5875 55.9C85.3675 56 85.0808 56.05 84.7275 56.05H84.6075ZM91.411 56.08C90.9377 56.08 90.5777 55.9867 90.331 55.8C90.091 55.6067 89.9277 55.3367 89.841 54.99C89.761 54.6433 89.721 54.24 89.721 53.78V52.45C89.721 51.9633 89.7643 51.55 89.851 51.21C89.9377 50.8633 90.101 50.6 90.341 50.42C90.5877 50.2333 90.9443 50.14 91.411 50.14C91.831 50.14 92.1543 50.21 92.381 50.35C92.6143 50.4833 92.7743 50.6867 92.861 50.96C92.9477 51.2267 92.991 51.56 92.991 51.96V52.3H92.021V51.95C92.021 51.6967 92.0043 51.4967 91.971 51.35C91.9377 51.2033 91.8777 51.0967 91.791 51.03C91.7043 50.9633 91.581 50.93 91.421 50.93C91.2477 50.93 91.1143 50.97 91.021 51.05C90.9277 51.13 90.8643 51.2667 90.831 51.46C90.8043 51.6467 90.791 51.9033 90.791 52.23V54.05C90.791 54.5433 90.8377 54.8733 90.931 55.04C91.0243 55.2067 91.191 55.29 91.431 55.29C91.611 55.29 91.741 55.25 91.821 55.17C91.9077 55.0833 91.961 54.9633 91.981 54.81C92.0077 54.6567 92.021 54.4833 92.021 54.29V53.82H92.991V54.22C92.991 54.6067 92.9443 54.94 92.851 55.22C92.7643 55.5 92.6043 55.7133 92.371 55.86C92.1443 56.0067 91.8243 56.08 91.411 56.08ZM93.5023 56L94.5923 53.55C94.4057 53.4767 94.2523 53.3667 94.1323 53.22C94.019 53.0733 93.9357 52.8933 93.8823 52.68C93.829 52.4667 93.8023 52.2267 93.8023 51.96C93.8023 51.6533 93.8423 51.39 93.9223 51.17C94.0023 50.95 94.129 50.77 94.3023 50.63C94.4757 50.49 94.7057 50.3867 94.9923 50.32C95.279 50.2533 95.6323 50.22 96.0523 50.22H97.1723V56H96.1123V53.72C96.0057 53.72 95.9157 53.72 95.8423 53.72C95.769 53.7133 95.689 53.7067 95.6023 53.7L94.6523 56H93.5023ZM95.9923 53.1C96.0057 53.1 96.0257 53.1 96.0523 53.1C96.0857 53.1 96.1057 53.1 96.1123 53.1V50.83C96.1057 50.83 96.0857 50.83 96.0523 50.83C96.0257 50.83 96.009 50.83 96.0023 50.83C95.689 50.83 95.439 50.87 95.2523 50.95C95.0723 51.0233 94.9457 51.1433 94.8723 51.31C94.799 51.47 94.7623 51.6867 94.7623 51.96C94.7623 52.34 94.8457 52.6233 95.0123 52.81C95.1857 52.9967 95.5123 53.0933 95.9923 53.1Z"></path>
</svg>
