<svg xmlns="http://www.w3.org/2000/svg" fill="none" viewBox="0 0 28 21" height="21" width="28">
<path fill="#FFFEE8" d="M7.5 4L5 3L1.5 8V9L3 11L14.5 18L16.5 18.5H19L21 17.5L22.5 15.5L23.5 13L23 10.5L20.5 6.5L13 2.5H11L9 4H7.5Z"></path>
<path fill="#7F899B" d="M21.6109 9.16641L22.5142 10.5213C22.8095 10.9643 23.5 10.7552 23.5 10.2229C23.5 10.0802 23.5567 9.94331 23.6576 9.8424L24.9497 8.55025C24.9832 8.51679 25.0142 8.481 25.0426 8.44315L26.1292 6.99443C26.3564 6.69141 26.393 6.286 26.2236 5.94721L26.0935 5.68709C26.0318 5.5637 25.9453 5.45441 25.8393 5.36609L23.0892 3.0743C23.0299 3.02493 22.9652 2.98258 22.8962 2.9481L21.2111 2.10557C21.0723 2.03615 20.9192 2 20.7639 2H20.6926C20.5654 2 20.4393 2.02428 20.3212 2.07152L18.1788 2.92848C18.0607 2.97572 17.9346 3 17.8074 3H16.5H15.0662C14.7149 3 14.3894 3.1843 14.2087 3.4855L13.0412 5.43129C13.0138 5.47702 12.99 5.52488 12.9702 5.5744L12.136 7.65989C12.0482 7.8795 12.041 8.12313 12.1158 8.34751L12.2721 8.81623C12.4082 9.22457 12.7903 9.5 13.2208 9.5H13.4338C13.7851 9.5 14.1106 9.3157 14.2913 9.0145L15.3502 7.2497C15.448 7.08662 15.5904 6.95482 15.7605 6.86977L16.1691 6.66543C16.3826 6.55868 16.6273 6.53182 16.8589 6.58972L18.332 6.95799C18.4432 6.98579 18.5488 7.0325 18.6441 7.09608L21.3336 8.88906C21.4434 8.96229 21.5377 9.05656 21.6109 9.16641Z"></path>
<path fill="#7F899B" d="M13.5 15L15 18L11.5 19L7 16.5L5 14.5V12.5L6.5 10.5L8 10L10 11L13.5 15Z"></path>
<path stroke-linejoin="round" stroke="#0D0E12" d="M14.8125 3L12.2348 2.54679C12.0606 2.51614 11.8813 2.53229 11.7153 2.59358L8.21674 3.88536C8.01512 3.9598 7.79489 3.96731 7.58867 3.90677L5.25106 3.22049C4.80989 3.09098 4.33726 3.27898 4.10559 3.67613L1.41489 8.28875C1.17389 8.7019 1.25919 9.22786 1.61842 9.54366L3.84375 11.5L5.36719 12.5M14.8125 3C14.8125 3 12.9688 5 12.5 6C12.0312 7 11.7812 9.5 13 9.5C13.8462 9.5 14.9636 7.81273 15.5676 6.78119C15.8248 6.34192 16.359 6.13542 16.8308 6.32657C18.0585 6.82395 20.2885 7.78852 21 8.5C22 9.5 23 11 23 11M14.8125 3C14.8125 3 16.5 2.66667 17.5 3C18.1867 3.2289 19.5807 2.4361 20.3868 1.91686C20.7571 1.67834 21.2409 1.6807 21.5933 1.94498L26.1746 5.38096C26.6262 5.71967 26.7081 6.36483 26.3555 6.80565L23 11M14.8125 17.9706C14.8125 17.9706 13.3765 19 11.9688 19C10.561 19 7.5 16.5 6 15.5C4.5 14.5 5.36719 12.5 5.36719 12.5M14.8125 17.9706C14.8125 17.9706 14.0938 16 13.5 15C12.9062 14 10 11 9 10.5C8 10 7.5 10 6.6875 10.5C5.875 11 5.36719 12.5 5.36719 12.5M14.8125 17.9706C14.8125 17.9706 15.0625 18.5 17.5 18.5C19.9375 18.5 20.4601 18 22.5226 15.5C24.5851 13 23 11 23 11M19 10.5L23 14.5M18 13.5L21.5 17M16.5 16L19 18.5M9 11L6.6875 15.7215M11.5 13L8.5 17M13.5 15.5L10.5 18.5"></path>
<rect fill-opacity="0.01" fill="white" height="21" width="26" x="1"></rect>
</svg>
