<svg xmlns="http://www.w3.org/2000/svg" fill="none" viewBox="0 0 192 192" height="192" width="192">
<path fill="#0D0E12" d="M11.5 0H12.5V192H11.5V0Z"></path>
<path fill="#0D0E12" d="M23.5 0H24.5V192H23.5V0Z"></path>
<path fill="#0D0E12" d="M0 12.4492L-4.37114e-08 11.4492L192 11.4492L192 12.4492L0 12.4492Z"></path>
<path fill="#0D0E12" d="M2.18556e-08 72.5L-2.18557e-08 71.5L192 71.5L192 72.5L2.18556e-08 72.5Z"></path>
<path fill="#0D0E12" d="M2.18556e-08 132.5L-2.18558e-08 131.5L192 131.5L192 132.5L2.18556e-08 132.5Z"></path>
<path fill="#0D0E12" d="M2.18556e-08 24.5L-2.18557e-08 23.5L192 23.5L192 24.5L2.18556e-08 24.5Z"></path>
<path fill="#0D0E12" d="M2.18556e-08 84.5L-2.18558e-08 83.5L192 83.5L192 84.5L2.18556e-08 84.5Z"></path>
<path fill="#0D0E12" d="M2.18556e-08 144.5L-2.18558e-08 143.5L192 143.5L192 144.5L2.18556e-08 144.5Z"></path>
<path fill="#0D0E12" d="M2.18556e-08 36.5L-2.18558e-08 35.5L192 35.5L192 36.5L2.18556e-08 36.5Z"></path>
<path fill="#0D0E12" d="M2.18556e-08 96.5L-2.18558e-08 95.5L192 95.5L192 96.5L2.18556e-08 96.5Z"></path>
<path fill="#0D0E12" d="M-2.18557e-08 156.5L-6.5567e-08 155.5L192 155.5L192 156.5L-2.18557e-08 156.5Z"></path>
<path fill="#0D0E12" d="M2.18556e-08 48.5L-2.18558e-08 47.5L192 47.5L192 48.5L2.18556e-08 48.5Z"></path>
<path fill="#0D0E12" d="M2.18556e-08 108.5L-2.18557e-08 107.5L192 107.5L192 108.5L2.18556e-08 108.5Z"></path>
<path fill="#0D0E12" d="M2.18556e-08 168.5L-2.18557e-08 167.5L192 167.5L192 168.5L2.18556e-08 168.5Z"></path>
<path fill="#0D0E12" d="M-2.18557e-08 60.5L-6.5567e-08 59.5L192 59.5L192 60.5L-2.18557e-08 60.5Z"></path>
<path fill="#0D0E12" d="M2.18556e-08 120.5L-2.18557e-08 119.5L192 119.5L192 120.5L2.18556e-08 120.5Z"></path>
<path fill="#0D0E12" d="M4.37115e-08 180.5L0 179.5L192 179.5L192 180.5L4.37115e-08 180.5Z"></path>
<path fill="#0D0E12" d="M47.5 0H48.5V192H47.5V0Z"></path>
<path fill="#0D0E12" d="M71.5 0H72.5V192H71.5V0Z"></path>
<path fill="#0D0E12" d="M95.5 0H96.5V192H95.5V0Z"></path>
<path fill="#0D0E12" d="M119.5 0H120.5V192H119.5V0Z"></path>
<path fill="#0D0E12" d="M143.5 0H144.5V192H143.5V0Z"></path>
<path fill="#0D0E12" d="M167.5 0H168.5V192H167.5V0Z"></path>
<path fill="#0D0E12" d="M35.5 0H36.5V192H35.5V0Z"></path>
<path fill="#0D0E12" d="M59.5 0H60.5V192H59.5V0Z"></path>
<path fill="#0D0E12" d="M83.5 0H84.5V192H83.5V0Z"></path>
<path fill="#0D0E12" d="M107.5 0H108.5V192H107.5V0Z"></path>
<path fill="#0D0E12" d="M131.5 0H132.5V192H131.5V0Z"></path>
<path fill="#0D0E12" d="M155.5 0H156.5V192H155.5V0Z"></path>
<path fill="#0D0E12" d="M179.5 0H180.5V192H179.5V0Z"></path>
</svg>
