<svg xmlns="http://www.w3.org/2000/svg" fill="none" viewBox="0 0 44 22" height="22" width="44">
<rect stroke="white" fill="#0D0E12" height="21" width="43" y="0.5" x="0.5"></rect>
<path fill="white" d="M16.4593 16.75V13.72H16.6893C16.8426 13.6733 16.9826 13.5933 17.1093 13.48C17.2426 13.36 17.3626 13.2 17.4693 13C17.576 12.8 17.6726 12.55 17.7593 12.25C17.846 11.95 17.9193 11.5933 17.9793 11.18C18.0393 10.76 18.0893 10.2767 18.1293 9.73L18.3493 6.9H22.1193V13.72H23.0293V16.75H21.8493L21.7593 15H17.7893L17.6893 16.75H16.4593ZM18.3793 13.72H20.4493V8.17H19.6993L19.6093 9.91C19.576 10.4833 19.526 10.97 19.4593 11.37C19.3993 11.77 19.326 12.1033 19.2393 12.37C19.1593 12.63 19.0726 12.8433 18.9793 13.01C18.886 13.1767 18.786 13.3133 18.6793 13.42C18.5793 13.5267 18.4793 13.6267 18.3793 13.72ZM23.4229 15L24.9529 6.9H26.9929L28.5029 15H26.8529L26.5829 13.29H25.3929L25.1129 15H23.4229ZM25.5529 12.22H26.4129L25.9829 9.06L25.5529 12.22Z"></path>
</svg>
