<svg xmlns="http://www.w3.org/2000/svg" fill="none" viewBox="0 0 214 84" height="84" width="214">
<mask fill="white" id="path-1-inside-1_1632_2">
<path d="M0 0H214V84H0V0Z"></path>
</mask>
<path fill="#0D0E12" d="M0 0H214V84H0V0Z"></path>
<path mask="url(#path-1-inside-1_1632_2)" fill="white" d="M0 0V-1H-1V0H0ZM0 84H-1V85H0V84ZM0 1H214V-1H0V1ZM214 83H0V85H214V83ZM1 84V0H-1V84H1Z"></path>
<path fill="#FF0000" d="M16.72 38V28.28H19.252C19.668 28.28 20.06 28.312 20.428 28.376C20.804 28.44 21.136 28.564 21.424 28.748C21.712 28.924 21.936 29.18 22.096 29.516C22.264 29.844 22.348 30.28 22.348 30.824C22.348 31.216 22.288 31.548 22.168 31.82C22.056 32.084 21.892 32.296 21.676 32.456C21.468 32.616 21.216 32.724 20.92 32.78C21.296 32.828 21.612 32.952 21.868 33.152C22.124 33.344 22.316 33.604 22.444 33.932C22.58 34.26 22.648 34.656 22.648 35.12C22.648 35.624 22.58 36.06 22.444 36.428C22.316 36.788 22.128 37.084 21.88 37.316C21.632 37.548 21.324 37.72 20.956 37.832C20.596 37.944 20.18 38 19.708 38H16.72ZM18.868 36.5H19.324C19.796 36.5 20.12 36.38 20.296 36.14C20.48 35.9 20.572 35.548 20.572 35.084C20.572 34.716 20.532 34.424 20.452 34.208C20.372 33.992 20.24 33.836 20.056 33.74C19.872 33.636 19.624 33.584 19.312 33.584H18.868V36.5ZM18.868 32.168H19.288C19.616 32.168 19.864 32.12 20.032 32.024C20.2 31.92 20.312 31.772 20.368 31.58C20.432 31.388 20.464 31.156 20.464 30.884C20.464 30.628 20.416 30.416 20.32 30.248C20.232 30.072 20.096 29.94 19.912 29.852C19.736 29.764 19.512 29.72 19.24 29.72H18.868V32.168ZM23.8107 38V28.28H25.9587V32.384H26.4387C27.0547 32.384 27.5747 32.484 27.9987 32.684C28.4307 32.884 28.7547 33.192 28.9707 33.608C29.1947 34.016 29.3067 34.544 29.3067 35.192C29.3067 35.784 29.2267 36.264 29.0667 36.632C28.9147 37 28.6987 37.284 28.4187 37.484C28.1387 37.684 27.8147 37.82 27.4467 37.892C27.0787 37.964 26.6787 38 26.2467 38H23.8107ZM25.9587 36.596H26.2587C26.5307 36.596 26.7427 36.544 26.8947 36.44C27.0547 36.336 27.1667 36.176 27.2307 35.96C27.3027 35.744 27.3347 35.472 27.3267 35.144C27.3187 34.784 27.2427 34.484 27.0987 34.244C26.9547 33.996 26.6667 33.872 26.2347 33.872H25.9587V36.596ZM30.1227 38V28.28H32.2707V38H30.1227ZM39.2897 38.18C38.6097 38.18 38.0737 38.052 37.6817 37.796C37.2977 37.54 37.0217 37.184 36.8537 36.728C36.6937 36.264 36.6137 35.732 36.6137 35.132V34.784H38.6297C38.6297 34.8 38.6297 34.848 38.6297 34.928C38.6297 35.008 38.6297 35.084 38.6297 35.156C38.6297 35.636 38.6777 35.98 38.7737 36.188C38.8697 36.388 39.0537 36.488 39.3257 36.488C39.5097 36.488 39.6457 36.44 39.7337 36.344C39.8297 36.248 39.8937 36.108 39.9257 35.924C39.9657 35.732 39.9857 35.492 39.9857 35.204C39.9857 34.716 39.9137 34.348 39.7697 34.1C39.6257 33.844 39.3257 33.712 38.8697 33.704C38.8617 33.696 38.8257 33.692 38.7617 33.692C38.7057 33.692 38.6377 33.692 38.5577 33.692C38.4777 33.692 38.4017 33.692 38.3297 33.692V32.384C38.3857 32.384 38.4417 32.384 38.4977 32.384C38.5537 32.384 38.6097 32.384 38.6657 32.384C38.7217 32.384 38.7737 32.384 38.8217 32.384C39.2937 32.376 39.6057 32.248 39.7577 32C39.9097 31.752 39.9857 31.384 39.9857 30.896C39.9857 30.52 39.9257 30.232 39.8057 30.032C39.6937 29.832 39.5017 29.732 39.2297 29.732C38.9657 29.732 38.7817 29.84 38.6777 30.056C38.5817 30.264 38.5297 30.544 38.5217 30.896C38.5217 30.912 38.5217 30.98 38.5217 31.1C38.5217 31.212 38.5217 31.324 38.5217 31.436H36.5057V30.848C36.5057 30.264 36.6177 29.772 36.8417 29.372C37.0737 28.964 37.3937 28.656 37.8017 28.448C38.2097 28.24 38.6897 28.136 39.2417 28.136C39.8097 28.136 40.2937 28.236 40.6937 28.436C41.1017 28.636 41.4137 28.932 41.6297 29.324C41.8457 29.708 41.9537 30.188 41.9537 30.764C41.9537 31.332 41.8377 31.812 41.6057 32.204C41.3737 32.588 41.0937 32.824 40.7657 32.912C40.9897 33 41.1897 33.132 41.3657 33.308C41.5497 33.476 41.6937 33.708 41.7977 34.004C41.9017 34.3 41.9537 34.68 41.9537 35.144C41.9537 35.736 41.8657 36.264 41.6897 36.728C41.5217 37.184 41.2417 37.54 40.8497 37.796C40.4577 38.052 39.9377 38.18 39.2897 38.18ZM42.6661 38L44.5021 28.28H46.9501L48.7621 38H46.7821L46.4581 35.948H45.0301L44.6941 38H42.6661ZM45.2221 34.664H46.2541L45.7381 30.872L45.2221 34.664ZM49.7794 38V28.28H54.6034V29.912H51.9274V32.384H52.3834C52.9994 32.384 53.5194 32.484 53.9434 32.684C54.3754 32.884 54.7034 33.192 54.9274 33.608C55.1514 34.016 55.2634 34.544 55.2634 35.192C55.2634 35.784 55.1834 36.264 55.0234 36.632C54.8714 37 54.6554 37.284 54.3754 37.484C54.0954 37.684 53.7674 37.82 53.3914 37.892C53.0234 37.964 52.6234 38 52.1914 38H49.7794ZM51.9274 36.596H52.2034C52.4754 36.596 52.6914 36.544 52.8514 36.44C53.0114 36.336 53.1234 36.176 53.1874 35.96C53.2514 35.744 53.2794 35.472 53.2714 35.144C53.2634 34.784 53.1874 34.484 53.0434 34.244C52.8994 33.996 52.6114 33.872 52.1794 33.872H51.9274V36.596ZM55.92 38L57.756 28.28H60.204L62.016 38H60.036L59.712 35.948H58.284L57.948 38H55.92ZM58.476 34.664H59.508L58.992 30.872L58.476 34.664ZM63.0333 38V28.28H65.1813V32.216H66.6813V28.28H68.8413V38H66.6813V33.752H65.1813V38H63.0333ZM70.3216 38V28.28H74.6896V29.744H72.4696V32.156H74.1616V33.644H72.4696V36.548H74.7136V38H70.3216ZM75.7248 38V28.28H77.8728V32.216H79.3728V28.28H81.5328V38H79.3728V33.752H77.8728V38H75.7248ZM83.049 38V28.28H85.197V32.384H85.677C86.293 32.384 86.813 32.484 87.237 32.684C87.669 32.884 87.993 33.192 88.209 33.608C88.433 34.016 88.545 34.544 88.545 35.192C88.545 35.784 88.465 36.264 88.305 36.632C88.153 37 87.937 37.284 87.657 37.484C87.377 37.684 87.053 37.82 86.685 37.892C86.317 37.964 85.917 38 85.485 38H83.049ZM85.197 36.596H85.497C85.769 36.596 85.981 36.544 86.133 36.44C86.293 36.336 86.405 36.176 86.469 35.96C86.541 35.744 86.573 35.472 86.565 35.144C86.557 34.784 86.481 34.484 86.337 34.244C86.193 33.996 85.905 33.872 85.473 33.872H85.197V36.596ZM89.361 38V28.28H91.509V38H89.361Z"></path>
<path fill="white" d="M16.63 56V47.9H18.49C18.8567 47.9 19.1733 47.94 19.44 48.02C19.7133 48.1 19.94 48.2233 20.12 48.39C20.3 48.5567 20.4333 48.77 20.52 49.03C20.6067 49.2833 20.65 49.5833 20.65 49.93C20.65 50.2633 20.6067 50.5533 20.52 50.8C20.44 51.04 20.3133 51.23 20.14 51.37C19.9733 51.51 19.7567 51.6 19.49 51.64C19.8167 51.7133 20.08 51.84 20.28 52.02C20.48 52.1933 20.6267 52.42 20.72 52.7C20.82 52.9733 20.87 53.3033 20.87 53.69C20.87 54.0367 20.83 54.3533 20.75 54.64C20.67 54.9267 20.5433 55.17 20.37 55.37C20.2033 55.57 19.9867 55.7267 19.72 55.84C19.46 55.9467 19.15 56 18.79 56H16.63ZM17.76 55.19H18.52C19.0267 55.19 19.3633 55.0733 19.53 54.84C19.7033 54.6 19.79 54.2167 19.79 53.69C19.79 53.35 19.7433 53.0667 19.65 52.84C19.5633 52.6067 19.42 52.4333 19.22 52.32C19.0267 52.2 18.7633 52.14 18.43 52.14H17.76V55.19ZM17.76 51.28H18.43C18.75 51.28 19 51.2367 19.18 51.15C19.36 51.0567 19.4867 50.91 19.56 50.71C19.6333 50.51 19.67 50.25 19.67 49.93C19.67 49.5567 19.6133 49.2867 19.5 49.12C19.3867 48.9533 19.21 48.85 18.97 48.81C18.73 48.7633 18.4167 48.74 18.03 48.74H17.76V51.28ZM21.7841 56V50.22H22.8541V52.61C22.8675 52.61 22.8841 52.61 22.9041 52.61C22.9308 52.61 22.9541 52.61 22.9741 52.61C22.9941 52.61 23.0108 52.61 23.0241 52.61C23.4175 52.6167 23.7508 52.6467 24.0241 52.7C24.3041 52.7467 24.5308 52.8333 24.7041 52.96C24.8775 53.08 25.0041 53.25 25.0841 53.47C25.1641 53.6833 25.2041 53.96 25.2041 54.3C25.2041 54.6133 25.1641 54.88 25.0841 55.1C25.0041 55.3133 24.8741 55.4867 24.6941 55.62C24.5141 55.7533 24.2775 55.85 23.9841 55.91C23.6908 55.97 23.3341 56 22.9141 56H21.7841ZM22.8541 55.37H22.9141C23.2541 55.37 23.5208 55.34 23.7141 55.28C23.9075 55.22 24.0441 55.1133 24.1241 54.96C24.2041 54.8 24.2441 54.5767 24.2441 54.29C24.2441 54.03 24.2075 53.8267 24.1341 53.68C24.0675 53.5267 23.9408 53.4167 23.7541 53.35C23.5741 53.2767 23.3108 53.24 22.9641 53.24C22.9575 53.24 22.9408 53.24 22.9141 53.24C22.8875 53.24 22.8675 53.24 22.8541 53.24V55.37ZM25.8641 56V50.22H26.9341V56H25.8641ZM30.2998 56V50.22H31.3698V52.65H32.7398V50.22H33.8098V56H32.7398V53.43H31.3698V56H30.2998ZM36.4896 56.08C36.0363 56.08 35.6863 55.9933 35.4396 55.82C35.1929 55.64 35.0196 55.38 34.9196 55.04C34.8263 54.6933 34.7796 54.27 34.7796 53.77V52.45C34.7796 51.9367 34.8296 51.51 34.9296 51.17C35.0296 50.83 35.2029 50.5733 35.4496 50.4C35.7029 50.2267 36.0496 50.14 36.4896 50.14C36.9763 50.14 37.3329 50.24 37.5596 50.44C37.7929 50.64 37.9463 50.93 38.0196 51.31C38.0929 51.6833 38.1296 52.1333 38.1296 52.66V53.13H35.8496V54.29C35.8496 54.5233 35.8696 54.7133 35.9096 54.86C35.9563 55.0067 36.0263 55.1167 36.1196 55.19C36.2196 55.2567 36.3463 55.29 36.4996 55.29C36.6596 55.29 36.7796 55.2533 36.8596 55.18C36.9463 55.1 37.0029 54.99 37.0296 54.85C37.0629 54.7033 37.0796 54.5333 37.0796 54.34V53.99H38.1196V54.21C38.1196 54.79 37.9963 55.2467 37.7496 55.58C37.5029 55.9133 37.0829 56.08 36.4896 56.08ZM35.8496 52.55H37.0796V52.03C37.0796 51.79 37.0663 51.59 37.0396 51.43C37.0129 51.2633 36.9563 51.14 36.8696 51.06C36.7896 50.9733 36.6596 50.93 36.4796 50.93C36.3063 50.93 36.1729 50.97 36.0796 51.05C35.9929 51.13 35.9329 51.2667 35.8996 51.46C35.8663 51.6467 35.8496 51.9067 35.8496 52.24V52.55ZM41.3538 56L41.4138 50.22H42.2038L43.4837 53.77L44.7738 50.22H45.5638L45.6238 56H44.7238V52.55L43.6538 55.43H43.3238L42.2538 52.57V56H41.3538ZM48.2667 56.08C47.8401 56.08 47.5034 55.9933 47.2567 55.82C47.0101 55.6467 46.8334 55.4 46.7267 55.08C46.6267 54.76 46.5767 54.3833 46.5767 53.95V52.27C46.5767 51.8367 46.6267 51.46 46.7267 51.14C46.8334 50.82 47.0101 50.5733 47.2567 50.4C47.5034 50.2267 47.8401 50.14 48.2667 50.14C48.6934 50.14 49.0267 50.2267 49.2667 50.4C49.5134 50.5733 49.6867 50.82 49.7867 51.14C49.8934 51.46 49.9467 51.8367 49.9467 52.27V53.95C49.9467 54.3833 49.8934 54.76 49.7867 55.08C49.6867 55.4 49.5134 55.6467 49.2667 55.82C49.0267 55.9933 48.6934 56.08 48.2667 56.08ZM48.2667 55.29C48.4734 55.29 48.6167 55.23 48.6967 55.11C48.7834 54.99 48.8334 54.8333 48.8467 54.64C48.8667 54.44 48.8767 54.2333 48.8767 54.02V52.21C48.8767 51.99 48.8667 51.7833 48.8467 51.59C48.8334 51.3967 48.7834 51.24 48.6967 51.12C48.6167 50.9933 48.4734 50.93 48.2667 50.93C48.0601 50.93 47.9134 50.9933 47.8267 51.12C47.7401 51.24 47.6867 51.3967 47.6667 51.59C47.6534 51.7833 47.6467 51.99 47.6467 52.21V54.02C47.6467 54.2333 47.6534 54.44 47.6667 54.64C47.6867 54.8333 47.7401 54.99 47.8267 55.11C47.9134 55.23 48.0601 55.29 48.2667 55.29ZM50.3857 56L51.8357 53.05L50.4757 50.22H51.4957L52.7257 53H52.8057V50.22H53.6857V53H53.7657L54.9857 50.22H56.0057L54.6457 53.05L56.0957 56H55.1057L53.7657 53.16H53.6857V56H52.8057V53.16H52.7157L51.3757 56H50.3857ZM58.2767 56.08C57.8234 56.08 57.4734 55.9933 57.2267 55.82C56.9801 55.64 56.8067 55.38 56.7067 55.04C56.6134 54.6933 56.5667 54.27 56.5667 53.77V52.45C56.5667 51.9367 56.6167 51.51 56.7167 51.17C56.8167 50.83 56.9901 50.5733 57.2367 50.4C57.4901 50.2267 57.8367 50.14 58.2767 50.14C58.7634 50.14 59.1201 50.24 59.3467 50.44C59.5801 50.64 59.7334 50.93 59.8067 51.31C59.8801 51.6833 59.9167 52.1333 59.9167 52.66V53.13H57.6367V54.29C57.6367 54.5233 57.6567 54.7133 57.6967 54.86C57.7434 55.0067 57.8134 55.1167 57.9067 55.19C58.0067 55.2567 58.1334 55.29 58.2867 55.29C58.4467 55.29 58.5667 55.2533 58.6467 55.18C58.7334 55.1 58.7901 54.99 58.8167 54.85C58.8501 54.7033 58.8667 54.5333 58.8667 54.34V53.99H59.9067V54.21C59.9067 54.79 59.7834 55.2467 59.5367 55.58C59.2901 55.9133 58.8701 56.08 58.2767 56.08ZM57.6367 52.55H58.8667V52.03C58.8667 51.79 58.8534 51.59 58.8267 51.43C58.8001 51.2633 58.7434 51.14 58.6567 51.06C58.5767 50.9733 58.4467 50.93 58.2667 50.93C58.0934 50.93 57.9601 50.97 57.8667 51.05C57.7801 51.13 57.7201 51.2667 57.6867 51.46C57.6534 51.6467 57.6367 51.9067 57.6367 52.24V52.55ZM61.4966 56V51.02H60.4166V50.22H63.6566V51.02H62.5666V56H61.4966ZM65.8451 56.08C65.3917 56.08 65.0417 55.9933 64.7951 55.82C64.5484 55.64 64.3751 55.38 64.2751 55.04C64.1817 54.6933 64.1351 54.27 64.1351 53.77V52.45C64.1351 51.9367 64.1851 51.51 64.2851 51.17C64.3851 50.83 64.5584 50.5733 64.8051 50.4C65.0584 50.2267 65.4051 50.14 65.8451 50.14C66.3317 50.14 66.6884 50.24 66.9151 50.44C67.1484 50.64 67.3017 50.93 67.3751 51.31C67.4484 51.6833 67.4851 52.1333 67.4851 52.66V53.13H65.2051V54.29C65.2051 54.5233 65.2251 54.7133 65.2651 54.86C65.3117 55.0067 65.3817 55.1167 65.4751 55.19C65.5751 55.2567 65.7017 55.29 65.8551 55.29C66.0151 55.29 66.1351 55.2533 66.2151 55.18C66.3017 55.1 66.3584 54.99 66.3851 54.85C66.4184 54.7033 66.4351 54.5333 66.4351 54.34V53.99H67.4751V54.21C67.4751 54.79 67.3517 55.2467 67.1051 55.58C66.8584 55.9133 66.4384 56.08 65.8451 56.08ZM65.2051 52.55H66.4351V52.03C66.4351 51.79 66.4217 51.59 66.3951 51.43C66.3684 51.2633 66.3117 51.14 66.2251 51.06C66.1451 50.9733 66.0151 50.93 65.8351 50.93C65.6617 50.93 65.5284 50.97 65.4351 51.05C65.3484 51.13 65.2884 51.2667 65.2551 51.46C65.2217 51.6467 65.2051 51.9067 65.2051 52.24V52.55ZM70.7392 56V50.22H71.6392V54.11L73.3792 50.22H74.2192V56H73.3392V52.08L71.6092 56H70.7392ZM76.8895 56.08C76.4162 56.08 76.0562 55.9867 75.8095 55.8C75.5695 55.6067 75.4062 55.3367 75.3195 54.99C75.2395 54.6433 75.1995 54.24 75.1995 53.78V52.45C75.1995 51.9633 75.2429 51.55 75.3295 51.21C75.4162 50.8633 75.5795 50.6 75.8195 50.42C76.0662 50.2333 76.4229 50.14 76.8895 50.14C77.3095 50.14 77.6329 50.21 77.8595 50.35C78.0929 50.4833 78.2529 50.6867 78.3395 50.96C78.4262 51.2267 78.4695 51.56 78.4695 51.96V52.3H77.4995V51.95C77.4995 51.6967 77.4829 51.4967 77.4495 51.35C77.4162 51.2033 77.3562 51.0967 77.2695 51.03C77.1829 50.9633 77.0595 50.93 76.8995 50.93C76.7262 50.93 76.5929 50.97 76.4995 51.05C76.4062 51.13 76.3429 51.2667 76.3095 51.46C76.2829 51.6467 76.2695 51.9033 76.2695 52.23V54.05C76.2695 54.5433 76.3162 54.8733 76.4095 55.04C76.5029 55.2067 76.6695 55.29 76.9095 55.29C77.0895 55.29 77.2195 55.25 77.2995 55.17C77.3862 55.0833 77.4395 54.9633 77.4595 54.81C77.4862 54.6567 77.4995 54.4833 77.4995 54.29V53.82H78.4695V54.22C78.4695 54.6067 78.4229 54.94 78.3295 55.22C78.2429 55.5 78.0829 55.7133 77.8495 55.86C77.6229 56.0067 77.3029 56.08 76.8895 56.08ZM79.4209 56V50.22H82.7809V56H81.7109V51.03H80.4909V56H79.4209ZM85.4542 56.08C85.0276 56.08 84.6909 55.9933 84.4442 55.82C84.1976 55.6467 84.0209 55.4 83.9142 55.08C83.8142 54.76 83.7642 54.3833 83.7642 53.95V52.27C83.7642 51.8367 83.8142 51.46 83.9142 51.14C84.0209 50.82 84.1976 50.5733 84.4442 50.4C84.6909 50.2267 85.0276 50.14 85.4542 50.14C85.8809 50.14 86.2142 50.2267 86.4542 50.4C86.7009 50.5733 86.8742 50.82 86.9742 51.14C87.0809 51.46 87.1342 51.8367 87.1342 52.27V53.95C87.1342 54.3833 87.0809 54.76 86.9742 55.08C86.8742 55.4 86.7009 55.6467 86.4542 55.82C86.2142 55.9933 85.8809 56.08 85.4542 56.08ZM85.4542 55.29C85.6609 55.29 85.8042 55.23 85.8842 55.11C85.9709 54.99 86.0209 54.8333 86.0342 54.64C86.0542 54.44 86.0642 54.2333 86.0642 54.02V52.21C86.0642 51.99 86.0542 51.7833 86.0342 51.59C86.0209 51.3967 85.9709 51.24 85.8842 51.12C85.8042 50.9933 85.6609 50.93 85.4542 50.93C85.2476 50.93 85.1009 50.9933 85.0142 51.12C84.9276 51.24 84.8742 51.3967 84.8542 51.59C84.8409 51.7833 84.8342 51.99 84.8342 52.21V54.02C84.8342 54.2333 84.8409 54.44 84.8542 54.64C84.8742 54.8333 84.9276 54.99 85.0142 55.11C85.1009 55.23 85.2476 55.29 85.4542 55.29ZM87.6251 56.05V55.24C87.8251 55.24 87.9817 55.2 88.0951 55.12C88.2151 55.04 88.3051 54.9067 88.3651 54.72C88.4317 54.5267 88.4817 54.27 88.5151 53.95C88.5484 53.6233 88.5784 53.2167 88.6051 52.73L88.7351 50.22H91.7651V56H90.6951V51.03H89.6751L89.5851 52.73C89.5517 53.39 89.5017 53.9367 89.4351 54.37C89.3751 54.8033 89.2784 55.1433 89.1451 55.39C89.0117 55.63 88.8317 55.8 88.6051 55.9C88.3851 56 88.0984 56.05 87.7451 56.05H87.6251ZM92.8486 56V50.22H93.9186V52.61C93.9319 52.61 93.9486 52.61 93.9686 52.61C93.9953 52.61 94.0186 52.61 94.0386 52.61C94.0586 52.61 94.0753 52.61 94.0886 52.61C94.4819 52.6167 94.8153 52.6467 95.0886 52.7C95.3686 52.7467 95.5953 52.8333 95.7686 52.96C95.9419 53.08 96.0686 53.25 96.1486 53.47C96.2286 53.6833 96.2686 53.96 96.2686 54.3C96.2686 54.6133 96.2286 54.88 96.1486 55.1C96.0686 55.3133 95.9386 55.4867 95.7586 55.62C95.5786 55.7533 95.3419 55.85 95.0486 55.91C94.7553 55.97 94.3986 56 93.9786 56H92.8486ZM93.9186 55.37H93.9786C94.3186 55.37 94.5853 55.34 94.7786 55.28C94.9719 55.22 95.1086 55.1133 95.1886 54.96C95.2686 54.8 95.3086 54.5767 95.3086 54.29C95.3086 54.03 95.2719 53.8267 95.1986 53.68C95.1319 53.5267 95.0053 53.4167 94.8186 53.35C94.6386 53.2767 94.3753 53.24 94.0286 53.24C94.0219 53.24 94.0053 53.24 93.9786 53.24C93.9519 53.24 93.9319 53.24 93.9186 53.24V55.37ZM98.359 56.1C98.0923 56.1 97.8623 56.0633 97.669 55.99C97.4757 55.9167 97.3157 55.8033 97.189 55.65C97.0623 55.49 96.969 55.2933 96.909 55.06C96.849 54.8267 96.819 54.55 96.819 54.23H97.729C97.729 54.6233 97.7857 54.9067 97.899 55.08C98.0123 55.2533 98.1723 55.34 98.379 55.34C98.559 55.34 98.689 55.2933 98.769 55.2C98.849 55.1067 98.899 54.98 98.919 54.82C98.939 54.6533 98.949 54.47 98.949 54.27C98.949 54.0167 98.9123 53.83 98.839 53.71C98.7723 53.5833 98.6523 53.5 98.479 53.46C98.3123 53.42 98.079 53.4 97.779 53.4V52.64C98.2457 52.64 98.5557 52.57 98.709 52.43C98.869 52.29 98.949 52.06 98.949 51.74C98.949 51.4533 98.889 51.2467 98.769 51.12C98.649 50.9933 98.499 50.93 98.319 50.93C98.119 50.93 97.959 50.9933 97.839 51.12C97.719 51.2467 97.659 51.5 97.659 51.88H96.749C96.749 51.4467 96.8123 51.1033 96.939 50.85C97.0723 50.5967 97.259 50.4167 97.499 50.31C97.7457 50.1967 98.0323 50.14 98.359 50.14C98.719 50.14 99.009 50.2133 99.229 50.36C99.4557 50.5067 99.619 50.7 99.719 50.94C99.8257 51.1733 99.879 51.42 99.879 51.68C99.879 52.0133 99.8257 52.2733 99.719 52.46C99.619 52.6467 99.4923 52.78 99.339 52.86C99.1923 52.94 99.049 52.9867 98.909 53C99.0557 53.0267 99.2023 53.0767 99.349 53.15C99.5023 53.2167 99.629 53.3467 99.729 53.54C99.8357 53.7267 99.889 54.02 99.889 54.42C99.889 54.9667 99.7623 55.3833 99.509 55.67C99.2557 55.9567 98.8723 56.1 98.359 56.1ZM102.339 56.08C101.912 56.08 101.576 55.9933 101.329 55.82C101.082 55.6467 100.906 55.4 100.799 55.08C100.699 54.76 100.649 54.3833 100.649 53.95V52.27C100.649 51.8367 100.699 51.46 100.799 51.14C100.906 50.82 101.082 50.5733 101.329 50.4C101.576 50.2267 101.912 50.14 102.339 50.14C102.766 50.14 103.099 50.2267 103.339 50.4C103.586 50.5733 103.759 50.82 103.859 51.14C103.966 51.46 104.019 51.8367 104.019 52.27V53.95C104.019 54.3833 103.966 54.76 103.859 55.08C103.759 55.4 103.586 55.6467 103.339 55.82C103.099 55.9933 102.766 56.08 102.339 56.08ZM102.339 55.29C102.546 55.29 102.689 55.23 102.769 55.11C102.856 54.99 102.906 54.8333 102.919 54.64C102.939 54.44 102.949 54.2333 102.949 54.02V52.21C102.949 51.99 102.939 51.7833 102.919 51.59C102.906 51.3967 102.856 51.24 102.769 51.12C102.689 50.9933 102.546 50.93 102.339 50.93C102.132 50.93 101.986 50.9933 101.899 51.12C101.812 51.24 101.759 51.3967 101.739 51.59C101.726 51.7833 101.719 51.99 101.719 52.21V54.02C101.719 54.2333 101.726 54.44 101.739 54.64C101.759 54.8333 101.812 54.99 101.899 55.11C101.986 55.23 102.132 55.29 102.339 55.29ZM104.997 56V50.22H106.617C107.01 50.22 107.317 50.2867 107.537 50.42C107.764 50.5467 107.924 50.7167 108.017 50.93C108.117 51.1367 108.17 51.36 108.177 51.6C108.184 51.8867 108.137 52.1433 108.037 52.37C107.937 52.5967 107.73 52.7567 107.417 52.85C107.657 52.8967 107.84 52.9967 107.967 53.15C108.1 53.2967 108.19 53.4733 108.237 53.68C108.29 53.8867 108.317 54.1 108.317 54.32C108.317 54.6533 108.267 54.9467 108.167 55.2C108.074 55.4533 107.907 55.65 107.667 55.79C107.434 55.93 107.1 56 106.667 56H104.997ZM106.047 55.19H106.427C106.58 55.19 106.72 55.17 106.847 55.13C106.974 55.0833 107.074 54.9933 107.147 54.86C107.227 54.7267 107.267 54.5333 107.267 54.28C107.267 53.98 107.23 53.7633 107.157 53.63C107.09 53.49 106.997 53.4033 106.877 53.37C106.764 53.3367 106.63 53.32 106.477 53.32H106.047V55.19ZM106.047 52.55H106.567C106.774 52.55 106.937 52.49 107.057 52.37C107.177 52.25 107.237 52.0367 107.237 51.73C107.237 51.4567 107.167 51.2667 107.027 51.16C106.887 51.0533 106.697 51 106.457 51H106.047V52.55ZM110.187 56.08C109.961 56.08 109.761 56.0167 109.587 55.89C109.414 55.7567 109.277 55.59 109.177 55.39C109.077 55.1833 109.027 54.9667 109.027 54.74C109.027 54.38 109.087 54.0767 109.207 53.83C109.327 53.5833 109.491 53.3767 109.697 53.21C109.911 53.0367 110.154 52.8867 110.427 52.76C110.707 52.6333 111.001 52.51 111.307 52.39V51.98C111.307 51.7467 111.294 51.5533 111.267 51.4C111.241 51.2467 111.184 51.1333 111.097 51.06C111.017 50.98 110.894 50.94 110.727 50.94C110.581 50.94 110.461 50.9733 110.367 51.04C110.281 51.1067 110.217 51.2033 110.177 51.33C110.137 51.45 110.117 51.5933 110.117 51.76V52.05L109.057 52.01C109.071 51.37 109.217 50.9 109.497 50.6C109.777 50.2933 110.211 50.14 110.797 50.14C111.371 50.14 111.777 50.2967 112.017 50.61C112.257 50.9233 112.377 51.3767 112.377 51.97V54.61C112.377 54.79 112.381 54.9633 112.387 55.13C112.401 55.2967 112.414 55.4533 112.427 55.6C112.447 55.74 112.464 55.8733 112.477 56H111.497C111.477 55.8933 111.451 55.76 111.417 55.6C111.391 55.4333 111.371 55.2833 111.357 55.15C111.291 55.3767 111.161 55.59 110.967 55.79C110.781 55.9833 110.521 56.08 110.187 56.08ZM110.607 55.16C110.714 55.16 110.814 55.13 110.907 55.07C111.001 55.01 111.084 54.9433 111.157 54.87C111.231 54.79 111.281 54.7267 111.307 54.68V53.04C111.141 53.1333 110.984 53.2267 110.837 53.32C110.691 53.4133 110.561 53.5133 110.447 53.62C110.341 53.72 110.254 53.8367 110.187 53.97C110.127 54.0967 110.097 54.2433 110.097 54.41C110.097 54.6433 110.141 54.8267 110.227 54.96C110.314 55.0933 110.441 55.16 110.607 55.16ZM114.055 56V51.02H112.975V50.22H116.215V51.02H115.125V56H114.055ZM116.862 56V50.22H117.932V52.61C117.946 52.61 117.962 52.61 117.982 52.61C118.009 52.61 118.032 52.61 118.052 52.61C118.072 52.61 118.089 52.61 118.102 52.61C118.496 52.6167 118.829 52.6467 119.102 52.7C119.382 52.7467 119.609 52.8333 119.782 52.96C119.956 53.08 120.082 53.25 120.162 53.47C120.242 53.6833 120.282 53.96 120.282 54.3C120.282 54.6133 120.242 54.88 120.162 55.1C120.082 55.3133 119.952 55.4867 119.772 55.62C119.592 55.7533 119.356 55.85 119.062 55.91C118.769 55.97 118.412 56 117.992 56H116.862ZM117.932 55.37H117.992C118.332 55.37 118.599 55.34 118.792 55.28C118.986 55.22 119.122 55.1133 119.202 54.96C119.282 54.8 119.322 54.5767 119.322 54.29C119.322 54.03 119.286 53.8267 119.212 53.68C119.146 53.5267 119.019 53.4167 118.832 53.35C118.652 53.2767 118.389 53.24 118.042 53.24C118.036 53.24 118.019 53.24 117.992 53.24C117.966 53.24 117.946 53.24 117.932 53.24V55.37ZM123.368 56L123.518 47.9H124.628L126.058 54.47L127.498 47.9H128.598L128.748 56H127.838L127.748 50.12L126.378 56H125.738L124.378 50.12L124.288 56H123.368ZM131.489 56.08C131.063 56.08 130.726 55.9933 130.479 55.82C130.233 55.6467 130.056 55.4 129.949 55.08C129.849 54.76 129.799 54.3833 129.799 53.95V52.27C129.799 51.8367 129.849 51.46 129.949 51.14C130.056 50.82 130.233 50.5733 130.479 50.4C130.726 50.2267 131.063 50.14 131.489 50.14C131.916 50.14 132.249 50.2267 132.489 50.4C132.736 50.5733 132.909 50.82 133.009 51.14C133.116 51.46 133.169 51.8367 133.169 52.27V53.95C133.169 54.3833 133.116 54.76 133.009 55.08C132.909 55.4 132.736 55.6467 132.489 55.82C132.249 55.9933 131.916 56.08 131.489 56.08ZM131.489 55.29C131.696 55.29 131.839 55.23 131.919 55.11C132.006 54.99 132.056 54.8333 132.069 54.64C132.089 54.44 132.099 54.2333 132.099 54.02V52.21C132.099 51.99 132.089 51.7833 132.069 51.59C132.056 51.3967 132.006 51.24 131.919 51.12C131.839 50.9933 131.696 50.93 131.489 50.93C131.283 50.93 131.136 50.9933 131.049 51.12C130.963 51.24 130.909 51.3967 130.889 51.59C130.876 51.7833 130.869 51.99 130.869 52.21V54.02C130.869 54.2333 130.876 54.44 130.889 54.64C130.909 54.8333 130.963 54.99 131.049 55.11C131.136 55.23 131.283 55.29 131.489 55.29ZM135.487 56.08C135.014 56.08 134.634 55.9333 134.347 55.64C134.061 55.34 133.897 54.9467 133.857 54.46L134.747 54.19C134.801 54.5567 134.891 54.8333 135.017 55.02C135.144 55.2 135.331 55.29 135.577 55.29C135.771 55.29 135.917 55.2367 136.017 55.13C136.117 55.0167 136.167 54.8667 136.167 54.68C136.167 54.5133 136.131 54.3633 136.057 54.23C135.984 54.0967 135.864 53.96 135.697 53.82L134.707 52.97C134.507 52.7967 134.337 52.6033 134.197 52.39C134.064 52.1767 133.997 51.9 133.997 51.56C133.997 51.2533 134.057 50.9967 134.177 50.79C134.304 50.5767 134.477 50.4167 134.697 50.31C134.924 50.1967 135.187 50.14 135.487 50.14C135.947 50.14 136.297 50.29 136.537 50.59C136.784 50.8833 136.924 51.24 136.957 51.66L136.237 51.93C136.211 51.73 136.171 51.5567 136.117 51.41C136.064 51.2567 135.991 51.14 135.897 51.06C135.804 50.9733 135.681 50.93 135.527 50.93C135.354 50.93 135.214 50.99 135.107 51.11C135.007 51.2233 134.957 51.36 134.957 51.52C134.957 51.62 134.977 51.72 135.017 51.82C135.064 51.9133 135.141 52.0067 135.247 52.1L136.267 53.04C136.407 53.1667 136.537 53.3033 136.657 53.45C136.784 53.5967 136.887 53.7633 136.967 53.95C137.047 54.1367 137.087 54.3533 137.087 54.6C137.087 54.9267 137.021 55.2 136.887 55.42C136.754 55.64 136.567 55.8067 136.327 55.92C136.087 56.0267 135.807 56.08 135.487 56.08ZM140.008 56.09C139.434 56.09 138.988 55.97 138.668 55.73C138.354 55.49 138.134 55.1667 138.008 54.76C137.888 54.3533 137.828 53.9 137.828 53.4V50.54C137.828 49.9933 137.888 49.5167 138.008 49.11C138.134 48.7033 138.354 48.39 138.668 48.17C138.988 47.9433 139.434 47.83 140.008 47.83C140.514 47.83 140.914 47.9233 141.208 48.11C141.508 48.2967 141.721 48.5633 141.848 48.91C141.981 49.2567 142.048 49.6733 142.048 50.16V50.8H140.978V50.23C140.978 49.93 140.961 49.6667 140.928 49.44C140.901 49.2067 140.821 49.0267 140.688 48.9C140.554 48.7733 140.331 48.71 140.018 48.71C139.698 48.71 139.464 48.78 139.318 48.92C139.171 49.0533 139.074 49.2467 139.028 49.5C138.988 49.7467 138.968 50.0367 138.968 50.37V53.58C138.968 53.9867 139.001 54.31 139.068 54.55C139.134 54.7833 139.244 54.95 139.398 55.05C139.551 55.15 139.758 55.2 140.018 55.2C140.324 55.2 140.544 55.1333 140.678 55C140.811 54.86 140.894 54.67 140.928 54.43C140.961 54.19 140.978 53.91 140.978 53.59V52.99H142.048V53.59C142.048 54.0833 141.988 54.52 141.868 54.9C141.748 55.2733 141.541 55.5667 141.248 55.78C140.954 55.9867 140.541 56.09 140.008 56.09ZM143.064 56V47.9H144.134V50.82C144.327 50.6333 144.544 50.4733 144.784 50.34C145.024 50.2067 145.291 50.14 145.584 50.14C145.811 50.14 145.984 50.2 146.104 50.32C146.231 50.44 146.317 50.59 146.364 50.77C146.417 50.95 146.444 51.1333 146.444 51.32V56H145.374V51.63C145.374 51.4233 145.344 51.2633 145.284 51.15C145.224 51.0367 145.101 50.98 144.914 50.98C144.787 50.98 144.654 51.0167 144.514 51.09C144.381 51.1633 144.254 51.2533 144.134 51.36V56H143.064ZM149.087 56.08C148.634 56.08 148.284 55.9933 148.037 55.82C147.791 55.64 147.617 55.38 147.517 55.04C147.424 54.6933 147.377 54.27 147.377 53.77V52.45C147.377 51.9367 147.427 51.51 147.527 51.17C147.627 50.83 147.801 50.5733 148.047 50.4C148.301 50.2267 148.647 50.14 149.087 50.14C149.574 50.14 149.931 50.24 150.157 50.44C150.391 50.64 150.544 50.93 150.617 51.31C150.691 51.6833 150.727 52.1333 150.727 52.66V53.13H148.447V54.29C148.447 54.5233 148.467 54.7133 148.507 54.86C148.554 55.0067 148.624 55.1167 148.717 55.19C148.817 55.2567 148.944 55.29 149.097 55.29C149.257 55.29 149.377 55.2533 149.457 55.18C149.544 55.1 149.601 54.99 149.627 54.85C149.661 54.7033 149.677 54.5333 149.677 54.34V53.99H150.717V54.21C150.717 54.79 150.594 55.2467 150.347 55.58C150.101 55.9133 149.681 56.08 149.087 56.08ZM148.447 52.55H149.677V52.03C149.677 51.79 149.664 51.59 149.637 51.43C149.611 51.2633 149.554 51.14 149.467 51.06C149.387 50.9733 149.257 50.93 149.077 50.93C148.904 50.93 148.771 50.97 148.677 51.05C148.591 51.13 148.531 51.2667 148.497 51.46C148.464 51.6467 148.447 51.9067 148.447 52.24V52.55ZM153.036 56.08C152.563 56.08 152.183 55.9333 151.896 55.64C151.61 55.34 151.446 54.9467 151.406 54.46L152.296 54.19C152.35 54.5567 152.44 54.8333 152.566 55.02C152.693 55.2 152.88 55.29 153.126 55.29C153.32 55.29 153.466 55.2367 153.566 55.13C153.666 55.0167 153.716 54.8667 153.716 54.68C153.716 54.5133 153.68 54.3633 153.606 54.23C153.533 54.0967 153.413 53.96 153.246 53.82L152.256 52.97C152.056 52.7967 151.886 52.6033 151.746 52.39C151.613 52.1767 151.546 51.9 151.546 51.56C151.546 51.2533 151.606 50.9967 151.726 50.79C151.853 50.5767 152.026 50.4167 152.246 50.31C152.473 50.1967 152.736 50.14 153.036 50.14C153.496 50.14 153.846 50.29 154.086 50.59C154.333 50.8833 154.473 51.24 154.506 51.66L153.786 51.93C153.76 51.73 153.72 51.5567 153.666 51.41C153.613 51.2567 153.54 51.14 153.446 51.06C153.353 50.9733 153.23 50.93 153.076 50.93C152.903 50.93 152.763 50.99 152.656 51.11C152.556 51.2233 152.506 51.36 152.506 51.52C152.506 51.62 152.526 51.72 152.566 51.82C152.613 51.9133 152.69 52.0067 152.796 52.1L153.816 53.04C153.956 53.1667 154.086 53.3033 154.206 53.45C154.333 53.5967 154.436 53.7633 154.516 53.95C154.596 54.1367 154.636 54.3533 154.636 54.6C154.636 54.9267 154.57 55.2 154.436 55.42C154.303 55.64 154.116 55.8067 153.876 55.92C153.636 56.0267 153.356 56.08 153.036 56.08ZM156.776 56.08C156.303 56.08 155.923 55.9333 155.636 55.64C155.35 55.34 155.186 54.9467 155.146 54.46L156.036 54.19C156.09 54.5567 156.18 54.8333 156.306 55.02C156.433 55.2 156.62 55.29 156.866 55.29C157.06 55.29 157.206 55.2367 157.306 55.13C157.406 55.0167 157.456 54.8667 157.456 54.68C157.456 54.5133 157.42 54.3633 157.346 54.23C157.273 54.0967 157.153 53.96 156.986 53.82L155.996 52.97C155.796 52.7967 155.626 52.6033 155.486 52.39C155.353 52.1767 155.286 51.9 155.286 51.56C155.286 51.2533 155.346 50.9967 155.466 50.79C155.593 50.5767 155.766 50.4167 155.986 50.31C156.213 50.1967 156.476 50.14 156.776 50.14C157.236 50.14 157.586 50.29 157.826 50.59C158.073 50.8833 158.213 51.24 158.246 51.66L157.526 51.93C157.5 51.73 157.46 51.5567 157.406 51.41C157.353 51.2567 157.28 51.14 157.186 51.06C157.093 50.9733 156.97 50.93 156.816 50.93C156.643 50.93 156.503 50.99 156.396 51.11C156.296 51.2233 156.246 51.36 156.246 51.52C156.246 51.62 156.266 51.72 156.306 51.82C156.353 51.9133 156.43 52.0067 156.536 52.1L157.556 53.04C157.696 53.1667 157.826 53.3033 157.946 53.45C158.073 53.5967 158.176 53.7633 158.256 53.95C158.336 54.1367 158.376 54.3533 158.376 54.6C158.376 54.9267 158.31 55.2 158.176 55.42C158.043 55.64 157.856 55.8067 157.616 55.92C157.376 56.0267 157.096 56.08 156.776 56.08Z"></path>
</svg>
