<svg xmlns="http://www.w3.org/2000/svg" fill="none" viewBox="0 0 13 18" height="18" width="13">
<rect fill-opacity="0.01" fill="#0D0E12" height="18" width="13"></rect>
<path fill="white" d="M0.78 14L2.892 5.804H0.24V4.28H4.848V5.66L2.736 14H0.78ZM8.40544 14.18C7.72544 14.18 7.18944 14.052 6.79744 13.796C6.41344 13.54 6.13744 13.184 5.96944 12.728C5.80944 12.264 5.72944 11.732 5.72944 11.132V10.784H7.73344C7.73344 10.792 7.73344 10.836 7.73344 10.916C7.73344 10.996 7.73344 11.068 7.73344 11.132C7.73344 11.452 7.75344 11.712 7.79344 11.912C7.83344 12.112 7.90544 12.26 8.00944 12.356C8.11344 12.444 8.25744 12.488 8.44144 12.488C8.62544 12.488 8.76144 12.44 8.84944 12.344C8.94544 12.248 9.00944 12.104 9.04144 11.912C9.07344 11.72 9.08944 11.48 9.08944 11.192C9.08944 10.712 9.02144 10.348 8.88544 10.1C8.75744 9.844 8.48544 9.712 8.06944 9.704C8.06144 9.704 8.01744 9.704 7.93744 9.704C7.85744 9.704 7.77744 9.704 7.69744 9.704V8.324C7.75344 8.324 7.80944 8.324 7.86544 8.324C7.92144 8.324 7.97344 8.324 8.02144 8.324C8.44544 8.324 8.72944 8.208 8.87344 7.976C9.01744 7.744 9.08944 7.384 9.08944 6.896C9.08944 6.52 9.03744 6.232 8.93344 6.032C8.83744 5.832 8.65344 5.732 8.38144 5.732C8.11744 5.732 7.94144 5.844 7.85344 6.068C7.77344 6.292 7.73344 6.58 7.73344 6.932C7.73344 7.012 7.73344 7.096 7.73344 7.184C7.73344 7.264 7.73344 7.348 7.73344 7.436H5.72944V6.848C5.72944 6.264 5.83344 5.772 6.04144 5.372C6.25744 4.964 6.56144 4.656 6.95344 4.448C7.35344 4.24 7.82944 4.136 8.38144 4.136C8.94144 4.136 9.42144 4.236 9.82144 4.436C10.2214 4.636 10.5294 4.932 10.7454 5.324C10.9614 5.708 11.0694 6.188 11.0694 6.764C11.0694 7.332 10.9534 7.808 10.7214 8.192C10.4894 8.576 10.2094 8.812 9.88144 8.9C10.1054 8.98 10.3054 9.108 10.4814 9.284C10.6654 9.46 10.8094 9.7 10.9134 10.004C11.0174 10.3 11.0694 10.68 11.0694 11.144C11.0694 11.736 10.9814 12.26 10.8054 12.716C10.6374 13.172 10.3574 13.532 9.96544 13.796C9.57344 14.052 9.05344 14.18 8.40544 14.18Z"></path>
</svg>
