<svg xmlns="http://www.w3.org/2000/svg" fill="none" viewBox="0 0 480 330" height="330" width="480">
<rect fill="#0D0E12" height="330" width="480"></rect>
<path fill="white" d="M161.775 194.144C161.167 194.144 160.659 194.036 160.251 193.82C159.843 193.604 159.535 193.272 159.327 192.824C159.119 192.368 159.003 191.78 158.979 191.06L160.815 190.784C160.823 191.2 160.859 191.536 160.923 191.792C160.995 192.048 161.091 192.232 161.211 192.344C161.339 192.456 161.491 192.512 161.667 192.512C161.891 192.512 162.035 192.436 162.099 192.284C162.171 192.132 162.207 191.972 162.207 191.804C162.207 191.404 162.111 191.068 161.919 190.796C161.727 190.516 161.467 190.236 161.139 189.956L160.299 189.224C159.931 188.912 159.619 188.56 159.363 188.168C159.115 187.768 158.991 187.276 158.991 186.692C158.991 185.868 159.235 185.24 159.723 184.808C160.211 184.368 160.875 184.148 161.715 184.148C162.235 184.148 162.651 184.236 162.963 184.412C163.283 184.588 163.523 184.82 163.683 185.108C163.851 185.388 163.963 185.688 164.019 186.008C164.083 186.32 164.119 186.62 164.127 186.908L162.279 187.136C162.271 186.848 162.251 186.6 162.219 186.392C162.195 186.176 162.139 186.012 162.051 185.9C161.963 185.78 161.827 185.72 161.643 185.72C161.443 185.72 161.295 185.804 161.199 185.972C161.111 186.14 161.067 186.308 161.067 186.476C161.067 186.836 161.151 187.132 161.319 187.364C161.495 187.588 161.723 187.824 162.003 188.072L162.807 188.78C163.231 189.14 163.587 189.548 163.875 190.004C164.171 190.46 164.319 191.024 164.319 191.696C164.319 192.152 164.215 192.568 164.007 192.944C163.799 193.312 163.503 193.604 163.119 193.82C162.743 194.036 162.295 194.144 161.775 194.144ZM165.359 194V184.28H169.727V185.744H167.507V188.156H169.199V189.644H167.507V192.548H169.751V194H165.359ZM170.258 194L172.094 184.28H174.542L176.354 194H174.374L174.05 191.948H172.622L172.286 194H170.258ZM172.814 190.664H173.846L173.33 186.872L172.814 190.664ZM177.335 194V184.28H180.011C180.667 184.28 181.235 184.352 181.715 184.496C182.195 184.64 182.567 184.9 182.831 185.276C183.103 185.644 183.239 186.168 183.239 186.848C183.239 187.248 183.207 187.604 183.143 187.916C183.079 188.228 182.959 188.5 182.783 188.732C182.615 188.956 182.371 189.144 182.051 189.296L183.383 194H181.163L180.095 189.644H179.483V194H177.335ZM179.483 188.408H180.083C180.387 188.408 180.623 188.356 180.791 188.252C180.959 188.14 181.075 187.984 181.139 187.784C181.211 187.576 181.247 187.328 181.247 187.04C181.247 186.624 181.171 186.3 181.019 186.068C180.867 185.836 180.587 185.72 180.179 185.72H179.483V188.408ZM187.221 194.144C186.485 194.144 185.901 194.012 185.469 193.748C185.045 193.476 184.745 193.1 184.569 192.62C184.393 192.132 184.305 191.56 184.305 190.904V187.4C184.305 186.728 184.393 186.152 184.569 185.672C184.745 185.184 185.045 184.808 185.469 184.544C185.901 184.28 186.485 184.148 187.221 184.148C187.941 184.148 188.501 184.268 188.901 184.508C189.309 184.74 189.597 185.068 189.765 185.492C189.933 185.916 190.017 186.404 190.017 186.956V187.796H187.917V186.824C187.917 186.632 187.905 186.448 187.881 186.272C187.865 186.096 187.809 185.952 187.713 185.84C187.617 185.72 187.453 185.66 187.221 185.66C186.997 185.66 186.829 185.72 186.717 185.84C186.613 185.96 186.545 186.112 186.513 186.296C186.489 186.472 186.477 186.66 186.477 186.86V191.432C186.477 191.648 186.493 191.848 186.525 192.032C186.565 192.208 186.637 192.352 186.741 192.464C186.853 192.568 187.013 192.62 187.221 192.62C187.445 192.62 187.605 192.564 187.701 192.452C187.797 192.332 187.857 192.18 187.881 191.996C187.905 191.812 187.917 191.624 187.917 191.432V190.412H190.017V191.252C190.017 191.804 189.933 192.3 189.765 192.74C189.605 193.172 189.321 193.516 188.913 193.772C188.513 194.02 187.949 194.144 187.221 194.144ZM191.235 194V184.28H193.383V188.216H194.883V184.28H197.043V194H194.883V189.752H193.383V194H191.235ZM198.535 194V184.28H200.683V194H198.535ZM202.132 194V184.28H203.644L205.636 188.96V184.28H207.412V194H205.96L203.968 188.96V194H202.132ZM211.391 194.144C210.719 194.144 210.187 194.004 209.795 193.724C209.411 193.444 209.135 193.052 208.967 192.548C208.807 192.036 208.727 191.448 208.727 190.784V187.52C208.727 186.832 208.815 186.236 208.991 185.732C209.167 185.228 209.467 184.84 209.891 184.568C210.323 184.288 210.907 184.148 211.643 184.148C212.363 184.148 212.927 184.268 213.335 184.508C213.751 184.748 214.047 185.08 214.223 185.504C214.399 185.928 214.487 186.424 214.487 186.992V187.616H212.387V186.824C212.387 186.616 212.371 186.424 212.339 186.248C212.315 186.072 212.251 185.932 212.147 185.828C212.051 185.716 211.891 185.66 211.667 185.66C211.435 185.66 211.267 185.724 211.163 185.852C211.059 185.972 210.991 186.124 210.959 186.308C210.935 186.492 210.923 186.684 210.923 186.884V191.384C210.923 191.6 210.943 191.804 210.983 191.996C211.031 192.18 211.111 192.332 211.223 192.452C211.343 192.564 211.511 192.62 211.727 192.62C211.951 192.62 212.123 192.56 212.243 192.44C212.363 192.32 212.447 192.164 212.495 191.972C212.543 191.78 212.567 191.576 212.567 191.36V190.22H211.691V188.96H214.499V194H213.083L212.963 193.196C212.835 193.468 212.647 193.696 212.399 193.88C212.151 194.056 211.815 194.144 211.391 194.144ZM218.913 194V184.28H223.113V185.732H221.061V188.18H222.849V189.68H221.061V194H218.913ZM226.9 194.144C226.172 194.144 225.596 194.016 225.172 193.76C224.748 193.504 224.444 193.136 224.26 192.656C224.076 192.176 223.984 191.604 223.984 190.94V187.328C223.984 186.656 224.076 186.084 224.26 185.612C224.444 185.14 224.748 184.78 225.172 184.532C225.596 184.276 226.172 184.148 226.9 184.148C227.636 184.148 228.216 184.276 228.64 184.532C229.072 184.78 229.38 185.14 229.564 185.612C229.748 186.084 229.84 186.656 229.84 187.328V190.94C229.84 191.604 229.748 192.176 229.564 192.656C229.38 193.136 229.072 193.504 228.64 193.76C228.216 194.016 227.636 194.144 226.9 194.144ZM226.9 192.62C227.124 192.62 227.288 192.564 227.392 192.452C227.496 192.34 227.564 192.196 227.596 192.02C227.628 191.844 227.644 191.664 227.644 191.48V186.8C227.644 186.608 227.628 186.428 227.596 186.26C227.564 186.084 227.496 185.94 227.392 185.828C227.288 185.716 227.124 185.66 226.9 185.66C226.692 185.66 226.536 185.716 226.432 185.828C226.328 185.94 226.26 186.084 226.228 186.26C226.196 186.428 226.18 186.608 226.18 186.8V191.48C226.18 191.664 226.192 191.844 226.216 192.02C226.248 192.196 226.312 192.34 226.408 192.452C226.512 192.564 226.676 192.62 226.9 192.62ZM231.148 194V184.28H233.824C234.48 184.28 235.048 184.352 235.528 184.496C236.008 184.64 236.38 184.9 236.644 185.276C236.916 185.644 237.052 186.168 237.052 186.848C237.052 187.248 237.02 187.604 236.956 187.916C236.892 188.228 236.772 188.5 236.596 188.732C236.428 188.956 236.184 189.144 235.864 189.296L237.196 194H234.976L233.908 189.644H233.296V194H231.148ZM233.296 188.408H233.896C234.2 188.408 234.436 188.356 234.604 188.252C234.772 188.14 234.888 187.984 234.952 187.784C235.024 187.576 235.06 187.328 235.06 187.04C235.06 186.624 234.984 186.3 234.832 186.068C234.68 185.836 234.4 185.72 233.992 185.72H233.296V188.408ZM242.289 194V185.876H240.825V184.28H245.901V185.876H244.449V194H242.289ZM246.793 194V184.28H248.941V188.216H250.441V184.28H252.601V194H250.441V189.752H248.941V194H246.793ZM254.081 194V184.28H258.449V185.744H256.229V188.156H257.921V189.644H256.229V192.548H258.473V194H254.081ZM265.303 194.144C264.575 194.144 263.999 194.016 263.575 193.76C263.151 193.504 262.847 193.136 262.663 192.656C262.479 192.176 262.387 191.604 262.387 190.94V187.328C262.387 186.656 262.479 186.084 262.663 185.612C262.847 185.14 263.151 184.78 263.575 184.532C263.999 184.276 264.575 184.148 265.303 184.148C266.039 184.148 266.619 184.276 267.043 184.532C267.475 184.78 267.783 185.14 267.967 185.612C268.151 186.084 268.243 186.656 268.243 187.328V190.94C268.243 191.604 268.151 192.176 267.967 192.656C267.783 193.136 267.475 193.504 267.043 193.76C266.619 194.016 266.039 194.144 265.303 194.144ZM265.303 192.62C265.527 192.62 265.691 192.564 265.795 192.452C265.899 192.34 265.967 192.196 265.999 192.02C266.031 191.844 266.047 191.664 266.047 191.48V186.8C266.047 186.608 266.031 186.428 265.999 186.26C265.967 186.084 265.899 185.94 265.795 185.828C265.691 185.716 265.527 185.66 265.303 185.66C265.095 185.66 264.939 185.716 264.835 185.828C264.731 185.94 264.663 186.084 264.631 186.26C264.599 186.428 264.583 186.608 264.583 186.8V191.48C264.583 191.664 264.595 191.844 264.619 192.02C264.651 192.196 264.715 192.34 264.811 192.452C264.915 192.564 265.079 192.62 265.303 192.62ZM269.55 194V184.28H272.814C273.398 184.28 273.878 184.392 274.254 184.616C274.63 184.832 274.91 185.152 275.094 185.576C275.278 185.992 275.37 186.5 275.37 187.1C275.37 187.852 275.246 188.428 274.998 188.828C274.75 189.22 274.414 189.492 273.99 189.644C273.566 189.796 273.09 189.872 272.562 189.872H271.698V194H269.55ZM271.698 188.372H272.418C272.682 188.372 272.882 188.324 273.018 188.228C273.154 188.132 273.242 187.988 273.282 187.796C273.33 187.604 273.354 187.36 273.354 187.064C273.354 186.816 273.334 186.6 273.294 186.416C273.262 186.224 273.178 186.072 273.042 185.96C272.906 185.848 272.694 185.792 272.406 185.792H271.698V188.372ZM276.406 194V184.28H279.67C280.254 184.28 280.734 184.392 281.11 184.616C281.486 184.832 281.766 185.152 281.95 185.576C282.134 185.992 282.226 186.5 282.226 187.1C282.226 187.852 282.102 188.428 281.854 188.828C281.606 189.22 281.27 189.492 280.846 189.644C280.422 189.796 279.946 189.872 279.418 189.872H278.554V194H276.406ZM278.554 188.372H279.274C279.538 188.372 279.738 188.324 279.874 188.228C280.01 188.132 280.098 187.988 280.138 187.796C280.186 187.604 280.21 187.36 280.21 187.064C280.21 186.816 280.19 186.6 280.15 186.416C280.118 186.224 280.034 186.072 279.898 185.96C279.762 185.848 279.55 185.792 279.262 185.792H278.554V188.372ZM286.045 194.144C285.317 194.144 284.741 194.016 284.317 193.76C283.893 193.504 283.589 193.136 283.405 192.656C283.221 192.176 283.129 191.604 283.129 190.94V187.328C283.129 186.656 283.221 186.084 283.405 185.612C283.589 185.14 283.893 184.78 284.317 184.532C284.741 184.276 285.317 184.148 286.045 184.148C286.781 184.148 287.361 184.276 287.785 184.532C288.217 184.78 288.525 185.14 288.709 185.612C288.893 186.084 288.985 186.656 288.985 187.328V190.94C288.985 191.604 288.893 192.176 288.709 192.656C288.525 193.136 288.217 193.504 287.785 193.76C287.361 194.016 286.781 194.144 286.045 194.144ZM286.045 192.62C286.269 192.62 286.433 192.564 286.537 192.452C286.641 192.34 286.709 192.196 286.741 192.02C286.773 191.844 286.789 191.664 286.789 191.48V186.8C286.789 186.608 286.773 186.428 286.741 186.26C286.709 186.084 286.641 185.94 286.537 185.828C286.433 185.716 286.269 185.66 286.045 185.66C285.837 185.66 285.681 185.716 285.577 185.828C285.473 185.94 285.405 186.084 285.373 186.26C285.341 186.428 285.325 186.608 285.325 186.8V191.48C285.325 191.664 285.337 191.844 285.361 192.02C285.393 192.196 285.457 192.34 285.553 192.452C285.657 192.564 285.821 192.62 286.045 192.62ZM290.292 194V184.28H291.804L293.796 188.96V184.28H295.572V194H294.12L292.128 188.96V194H290.292ZM297.019 194V184.28H301.387V185.744H299.167V188.156H300.859V189.644H299.167V192.548H301.411V194H297.019ZM302.386 194V184.28H303.898L305.89 188.96V184.28H307.666V194H306.214L304.222 188.96V194H302.386ZM309.989 194V185.876H308.525V184.28H313.601V185.876H312.149V194H309.989ZM314.288 194V192.152H316.136V194H314.288ZM317.218 194V192.152H319.066V194H317.218ZM320.148 194V192.152H321.996V194H320.148Z"></path>
<path fill="white" d="M197.72 35V25.28H200.984C201.568 25.28 202.048 25.392 202.424 25.616C202.8 25.832 203.08 26.152 203.264 26.576C203.448 26.992 203.54 27.5 203.54 28.1C203.54 28.852 203.416 29.428 203.168 29.828C202.92 30.22 202.584 30.492 202.16 30.644C201.736 30.796 201.26 30.872 200.732 30.872H199.868V35H197.72ZM199.868 29.372H200.588C200.852 29.372 201.052 29.324 201.188 29.228C201.324 29.132 201.412 28.988 201.452 28.796C201.5 28.604 201.524 28.36 201.524 28.064C201.524 27.816 201.504 27.6 201.464 27.416C201.432 27.224 201.348 27.072 201.212 26.96C201.076 26.848 200.864 26.792 200.576 26.792H199.868V29.372ZM204.575 35V25.28H206.723V33.548H208.955V35H204.575ZM209.428 35L211.264 25.28H213.712L215.524 35H213.544L213.22 32.948H211.792L211.456 35H209.428ZM211.984 31.664H213.016L212.5 27.872L211.984 31.664ZM217.249 35V31.028L215.401 25.28H217.429L218.353 28.352L219.181 25.28H221.125L219.313 31.028V35H217.249ZM221.943 35V25.28H226.311V26.744H224.091V29.156H225.783V30.644H224.091V33.548H226.335V35H221.943ZM227.31 35V25.28H229.986C230.642 25.28 231.21 25.352 231.69 25.496C232.17 25.64 232.542 25.9 232.806 26.276C233.078 26.644 233.214 27.168 233.214 27.848C233.214 28.248 233.182 28.604 233.118 28.916C233.054 29.228 232.934 29.5 232.758 29.732C232.59 29.956 232.346 30.144 232.026 30.296L233.358 35H231.138L230.07 30.644H229.458V35H227.31ZM229.458 29.408H230.058C230.362 29.408 230.598 29.356 230.766 29.252C230.934 29.14 231.05 28.984 231.114 28.784C231.186 28.576 231.222 28.328 231.222 28.04C231.222 27.624 231.146 27.3 230.994 27.068C230.842 26.836 230.562 26.72 230.154 26.72H229.458V29.408ZM237.038 35.144C236.43 35.144 235.922 35.036 235.514 34.82C235.106 34.604 234.798 34.272 234.59 33.824C234.382 33.368 234.266 32.78 234.242 32.06L236.078 31.784C236.086 32.2 236.122 32.536 236.186 32.792C236.258 33.048 236.354 33.232 236.474 33.344C236.602 33.456 236.754 33.512 236.93 33.512C237.154 33.512 237.298 33.436 237.362 33.284C237.434 33.132 237.47 32.972 237.47 32.804C237.47 32.404 237.374 32.068 237.182 31.796C236.99 31.516 236.73 31.236 236.402 30.956L235.562 30.224C235.194 29.912 234.882 29.56 234.626 29.168C234.378 28.768 234.254 28.276 234.254 27.692C234.254 26.868 234.498 26.24 234.986 25.808C235.474 25.368 236.138 25.148 236.978 25.148C237.498 25.148 237.914 25.236 238.226 25.412C238.546 25.588 238.786 25.82 238.946 26.108C239.114 26.388 239.226 26.688 239.282 27.008C239.346 27.32 239.382 27.62 239.39 27.908L237.542 28.136C237.534 27.848 237.514 27.6 237.482 27.392C237.458 27.176 237.402 27.012 237.314 26.9C237.226 26.78 237.09 26.72 236.906 26.72C236.706 26.72 236.558 26.804 236.462 26.972C236.374 27.14 236.33 27.308 236.33 27.476C236.33 27.836 236.414 28.132 236.582 28.364C236.758 28.588 236.986 28.824 237.266 29.072L238.07 29.78C238.494 30.14 238.85 30.548 239.138 31.004C239.434 31.46 239.582 32.024 239.582 32.696C239.582 33.152 239.478 33.568 239.27 33.944C239.062 34.312 238.766 34.604 238.382 34.82C238.006 35.036 237.558 35.144 237.038 35.144ZM246.477 35.144C245.749 35.144 245.173 35.016 244.749 34.76C244.325 34.504 244.021 34.136 243.837 33.656C243.653 33.176 243.561 32.604 243.561 31.94V28.328C243.561 27.656 243.653 27.084 243.837 26.612C244.021 26.14 244.325 25.78 244.749 25.532C245.173 25.276 245.749 25.148 246.477 25.148C247.213 25.148 247.793 25.276 248.217 25.532C248.649 25.78 248.957 26.14 249.141 26.612C249.325 27.084 249.417 27.656 249.417 28.328V31.94C249.417 32.604 249.325 33.176 249.141 33.656C248.957 34.136 248.649 34.504 248.217 34.76C247.793 35.016 247.213 35.144 246.477 35.144ZM246.477 33.62C246.701 33.62 246.865 33.564 246.969 33.452C247.073 33.34 247.141 33.196 247.173 33.02C247.205 32.844 247.221 32.664 247.221 32.48V27.8C247.221 27.608 247.205 27.428 247.173 27.26C247.141 27.084 247.073 26.94 246.969 26.828C246.865 26.716 246.701 26.66 246.477 26.66C246.269 26.66 246.113 26.716 246.009 26.828C245.905 26.94 245.837 27.084 245.805 27.26C245.773 27.428 245.757 27.608 245.757 27.8V32.48C245.757 32.664 245.769 32.844 245.793 33.02C245.825 33.196 245.889 33.34 245.985 33.452C246.089 33.564 246.253 33.62 246.477 33.62ZM250.724 35V25.28H252.236L254.228 29.96V25.28H256.004V35H254.552L252.56 29.96V35H250.724ZM257.45 35V25.28H259.598V33.548H261.83V35H257.45ZM262.783 35V25.28H264.931V35H262.783ZM266.38 35V25.28H267.892L269.884 29.96V25.28H271.66V35H270.208L268.216 29.96V35H266.38ZM273.107 35V25.28H277.475V26.744H275.255V29.156H276.947V30.644H275.255V33.548H277.499V35H273.107ZM278.558 30.056V28.232H280.382V30.056H278.558ZM278.558 34.328V32.504H280.382V34.328H278.558Z"></path>
</svg>
