<svg xmlns="http://www.w3.org/2000/svg" fill="none" viewBox="0 0 7 19" height="19" width="7">
<path fill-opacity="0.01" fill="white" d="M0 -0.00012207L7 -2.73785e-05V19L0 18.9999V-0.00012207Z"></path>
<path fill="#45D2FF" d="M0.813734 15.9079V14.4919C1.15773 14.4999 1.45773 14.4839 1.71373 14.4439C1.96973 14.4039 2.17773 14.3279 2.33773 14.2159C2.49773 14.1039 2.60173 13.9519 2.64973 13.7599C2.70573 13.5599 2.69773 13.3119 2.62573 13.0159L0.441734 4.27988H2.43373L3.27373 8.27588L3.66973 10.8799L3.95773 8.26388L4.66573 4.27988H6.68174L4.66573 13.3399C4.56973 13.7799 4.45773 14.1519 4.32973 14.4559C4.20173 14.7599 4.04173 15.0079 3.84973 15.1999C3.66573 15.3999 3.43773 15.5519 3.16573 15.6559C2.89373 15.7599 2.56173 15.8279 2.16973 15.8599C1.78573 15.8999 1.33373 15.9159 0.813734 15.9079Z"></path>
</svg>
