<svg xmlns="http://www.w3.org/2000/svg" fill="none" viewBox="0 0 22 22" height="22" width="22">
<circle stroke="#0D0E12" fill="#FDCD4D" r="10" cy="11" cx="11"></circle>
<path stroke-linecap="round" stroke="#0D0E12" d="M10 7.74999C9.5 6.75 7.5 6.75 7 7.75002"></path>
<path stroke-linecap="round" stroke="#0D0E12" d="M15 7.74999C14.5 6.75 12.5 6.75 12 7.75002"></path>
<path fill="#E60000" d="M15 19C13.5237 19.4921 12.0474 18.5313 11.5245 16.5941C11.5104 16.5421 11.5411 16.4882 11.593 16.4734L14.9298 15.5201C14.9716 15.5081 15.0165 15.5247 15.0404 15.561C16.0132 17.0405 16.4797 18.5068 15 19Z"></path>
<path stroke-linecap="round" stroke-width="0.5" stroke="#C40000" d="M14 17.5C13.5 16.5 13.5 16 13.5 16"></path>
<path fill="#0D0E12" d="M16.118 14.0232C16.3308 14.1905 16.3689 14.4998 16.1872 14.7003C15.5933 15.3557 14.8795 15.8938 14.0829 16.2846C13.1393 16.7475 12.1036 16.9919 11.0526 16.9998C10.0016 17.0077 8.96234 16.7788 8.0119 16.3302C7.20943 15.9514 6.48767 15.4241 5.88402 14.7777C5.69932 14.58 5.7328 14.2701 5.94301 14.0996C6.15323 13.9292 6.46042 13.9631 6.64737 14.1587C7.15679 14.6919 7.76086 15.128 8.43023 15.444C9.24761 15.8298 10.1414 16.0266 11.0452 16.0198C11.9491 16.013 12.8398 15.8028 13.6513 15.4047C14.3158 15.0788 14.9133 14.6336 15.4146 14.0929C15.5986 13.8944 15.9052 13.856 16.118 14.0232Z"></path>
</svg>
