<svg xmlns="http://www.w3.org/2000/svg" fill="none" viewBox="0 0 26 21" height="21" width="26">
<path fill="#FFFEE8" d="M5 3.43567C5 2.73949 5.69319 2.25041 6.35346 2.4711C8.3012 3.12209 11.8915 4.21739 14 4.21739C15.5803 4.21739 17.1606 3.60212 18.3024 3.01977C19.0336 2.64684 20 3.16181 20 3.98264V8.88693C20 9.20415 19.8501 9.50207 19.5837 9.67422C18.6586 10.2719 16.3293 11.6087 14 11.6087C11 11.6087 5 9.3913 5 9.3913V3.43567Z"></path>
<path stroke-linejoin="round" stroke="#0D0E12" d="M5 9.3913V3.43567C5 2.73949 5.69319 2.25041 6.35346 2.4711C8.3012 3.12209 11.8915 4.21739 14 4.21739C15.5803 4.21739 17.1606 3.60212 18.3023 3.01977C19.0336 2.64684 20 3.16181 20 3.98264V8.88693C20 9.20415 19.8501 9.50207 19.5837 9.67422C18.6586 10.2719 16.3293 11.6087 14 11.6087C11 11.6087 5 9.3913 5 9.3913ZM5 9.3913V18.5H6V9.7431"></path>
<rect fill-opacity="0.01" fill="white" height="21" width="26"></rect>
</svg>
