<svg xmlns="http://www.w3.org/2000/svg" fill="none" viewBox="0 0 13 18" height="18" width="13">
<rect fill-opacity="0.01" fill="#0D0E12" height="18" width="13"></rect>
<path fill="white" d="M3.06 14.18C2.348 14.18 1.808 14.056 1.44 13.808C1.08 13.552 0.836 13.196 0.708 12.74C0.58 12.284 0.516 11.756 0.516 11.156H2.448C2.448 11.524 2.468 11.824 2.508 12.056C2.548 12.288 2.62 12.456 2.724 12.56C2.836 12.656 2.992 12.7 3.192 12.692C3.4 12.684 3.548 12.6 3.636 12.44C3.724 12.28 3.776 12.052 3.792 11.756C3.816 11.452 3.828 11.088 3.828 10.664C3.828 10.344 3.808 10.06 3.768 9.812C3.736 9.564 3.664 9.368 3.552 9.224C3.448 9.072 3.288 8.996 3.072 8.996C2.872 8.996 2.708 9.068 2.58 9.212C2.452 9.356 2.36 9.58 2.304 9.884H0.576L0.756 4.28H5.292V5.96H2.364L2.256 7.964C2.336 7.852 2.488 7.756 2.712 7.676C2.936 7.588 3.176 7.532 3.432 7.508C3.928 7.452 4.344 7.544 4.68 7.784C5.024 8.016 5.28 8.372 5.448 8.852C5.624 9.332 5.712 9.92 5.712 10.616C5.712 11.136 5.68 11.616 5.616 12.056C5.552 12.488 5.428 12.864 5.244 13.184C5.06 13.496 4.792 13.74 4.44 13.916C4.088 14.092 3.628 14.18 3.06 14.18ZM9.22547 14.156C8.56947 14.156 8.04547 14.028 7.65347 13.772C7.26147 13.508 6.98147 13.148 6.81347 12.692C6.64547 12.228 6.56147 11.7 6.56147 11.108C6.56947 10.868 6.59347 10.636 6.63347 10.412C6.68147 10.18 6.74947 9.968 6.83747 9.776C6.93347 9.576 7.04947 9.404 7.18547 9.26C7.32947 9.108 7.49747 8.984 7.68947 8.888C7.44147 8.704 7.22147 8.44 7.02947 8.096C6.83747 7.744 6.73347 7.3 6.71747 6.764C6.70947 6.22 6.79747 5.752 6.98147 5.36C7.17347 4.968 7.45747 4.668 7.83347 4.46C8.20947 4.252 8.67347 4.148 9.22547 4.148C9.78547 4.148 10.2495 4.256 10.6175 4.472C10.9935 4.68 11.2735 4.98 11.4575 5.372C11.6415 5.756 11.7255 6.22 11.7095 6.764C11.7015 7.308 11.6055 7.756 11.4215 8.108C11.2375 8.452 11.0175 8.712 10.7615 8.888C10.9535 8.984 11.1175 9.108 11.2535 9.26C11.3975 9.404 11.5135 9.576 11.6015 9.776C11.6975 9.968 11.7695 10.18 11.8175 10.412C11.8655 10.636 11.8895 10.868 11.8895 11.108C11.9055 11.7 11.8255 12.228 11.6495 12.692C11.4815 13.148 11.2015 13.508 10.8095 13.772C10.4175 14.028 9.88947 14.156 9.22547 14.156ZM9.22547 12.68C9.44147 12.68 9.59747 12.6 9.69347 12.44C9.78947 12.28 9.84947 12.092 9.87347 11.876C9.89747 11.652 9.90947 11.448 9.90947 11.264C9.91747 11.016 9.90547 10.776 9.87347 10.544C9.84947 10.312 9.78947 10.124 9.69347 9.98C9.59747 9.828 9.44147 9.752 9.22547 9.752C9.01747 9.752 8.86547 9.828 8.76947 9.98C8.67347 10.124 8.60947 10.312 8.57747 10.544C8.55347 10.768 8.54147 11.008 8.54147 11.264C8.54147 11.448 8.55347 11.652 8.57747 11.876C8.60147 12.1 8.66147 12.292 8.75747 12.452C8.86147 12.604 9.01747 12.68 9.22547 12.68ZM9.22547 8.168C9.36147 8.168 9.47347 8.116 9.56147 8.012C9.64947 7.9 9.71347 7.736 9.75347 7.52C9.80147 7.304 9.82547 7.036 9.82547 6.716C9.82547 6.388 9.77347 6.128 9.66947 5.936C9.57347 5.744 9.42547 5.648 9.22547 5.648C9.02547 5.648 8.86947 5.744 8.75747 5.936C8.65347 6.128 8.60147 6.384 8.60147 6.704C8.60147 7.024 8.62147 7.296 8.66147 7.52C8.70947 7.736 8.78147 7.9 8.87747 8.012C8.97347 8.116 9.08947 8.168 9.22547 8.168Z"></path>
</svg>
