<svg xmlns="http://www.w3.org/2000/svg" fill="none" viewBox="0 0 67 52" height="52" width="67">
<rect stroke="#0D0E12" fill="white" height="51" width="66" y="0.5" x="0.5"></rect>
<path fill="#0D0E12" d="M8.55355 33.1C8.14022 33.1 7.78022 33.03 7.47355 32.89C7.17355 32.75 6.94022 32.54 6.77355 32.26C6.61355 31.98 6.53355 31.63 6.53355 31.21V29.01C6.53355 28.59 6.61355 28.24 6.77355 27.96C6.94022 27.68 7.17355 27.47 7.47355 27.33C7.78022 27.19 8.14022 27.12 8.55355 27.12C8.96689 27.12 9.32355 27.19 9.62355 27.33C9.93022 27.47 10.1669 27.68 10.3336 27.96C10.5002 28.24 10.5836 28.59 10.5836 29.01V31.21C10.5836 31.63 10.5002 31.98 10.3336 32.26C10.1669 32.54 9.93022 32.75 9.62355 32.89C9.32355 33.03 8.96689 33.1 8.55355 33.1ZM8.56355 32.02C8.67022 32.02 8.75355 31.9933 8.81355 31.94C8.87355 31.88 8.91355 31.8 8.93355 31.7C8.96022 31.5933 8.97355 31.4667 8.97355 31.32V28.9C8.97355 28.7533 8.96022 28.63 8.93355 28.53C8.91355 28.4233 8.87355 28.3433 8.81355 28.29C8.75355 28.23 8.67022 28.2 8.56355 28.2C8.45689 28.2 8.37355 28.23 8.31355 28.29C8.25355 28.3433 8.21022 28.4233 8.18355 28.53C8.15689 28.63 8.14355 28.7533 8.14355 28.9V31.32C8.14355 31.4667 8.15689 31.5933 8.18355 31.7C8.21022 31.8 8.25355 31.88 8.31355 31.94C8.37355 31.9933 8.45689 32.02 8.56355 32.02ZM12.1094 33V28.32H11.0594V27.22H14.7794V28.32H13.7294V33H12.1094ZM15.4621 33V27.22H17.0921V29.5H17.3321L18.2121 27.22H19.9621L18.8221 29.95L19.9921 33H18.2721L17.3321 30.44H17.0921V33H15.4621ZM20.5891 34.9V27.22H22.2191V27.64C22.4124 27.4667 22.6191 27.3367 22.8391 27.25C23.0591 27.1633 23.2691 27.12 23.4691 27.12C23.6891 27.12 23.8758 27.1633 24.0291 27.25C24.1891 27.3367 24.3191 27.46 24.4191 27.62C24.5191 27.7733 24.5924 27.9533 24.6391 28.16C24.6858 28.3667 24.7091 28.5867 24.7091 28.82V31.31C24.7091 31.67 24.6591 31.9833 24.5591 32.25C24.4658 32.5167 24.3258 32.7267 24.1391 32.88C23.9524 33.0267 23.7224 33.1 23.4491 33.1C23.2424 33.1 23.0324 33.0533 22.8191 32.96C22.6124 32.86 22.4124 32.7267 22.2191 32.56V34.9H20.5891ZM22.6491 32.05C22.7558 32.05 22.8391 32.02 22.8991 31.96C22.9591 31.9 23.0024 31.8233 23.0291 31.73C23.0624 31.63 23.0791 31.52 23.0791 31.4V28.7C23.0791 28.5867 23.0658 28.4867 23.0391 28.4C23.0124 28.3067 22.9691 28.2333 22.9091 28.18C22.8491 28.1267 22.7724 28.1 22.6791 28.1C22.5924 28.1 22.5091 28.12 22.4291 28.16C22.3558 28.1933 22.2858 28.24 22.2191 28.3V31.9C22.2924 31.9467 22.3624 31.9833 22.4291 32.01C22.5024 32.0367 22.5758 32.05 22.6491 32.05ZM25.6379 33V27.22H27.2679V29.54C27.2746 29.54 27.2779 29.54 27.2779 29.54C27.2846 29.54 27.2913 29.54 27.2979 29.54C27.3046 29.54 27.3113 29.54 27.3179 29.54C27.7179 29.54 28.0713 29.57 28.3779 29.63C28.6846 29.6833 28.9379 29.7767 29.1379 29.91C29.3446 30.0367 29.5013 30.21 29.6079 30.43C29.7146 30.65 29.7679 30.9267 29.7679 31.26C29.7679 31.5733 29.7213 31.84 29.6279 32.06C29.5413 32.28 29.3979 32.46 29.1979 32.6C29.0046 32.74 28.7513 32.8433 28.4379 32.91C28.1313 32.97 27.7613 33 27.3279 33H25.6379ZM27.2679 32.07H27.2979C27.5446 32.07 27.7379 32.0467 27.8779 32C28.0246 31.9467 28.1279 31.8633 28.1879 31.75C28.2546 31.63 28.2879 31.4733 28.2879 31.28C28.2879 31.0733 28.2546 30.9167 28.1879 30.81C28.1279 30.6967 28.0246 30.6167 27.8779 30.57C27.7379 30.5233 27.5513 30.5 27.3179 30.5C27.3113 30.5 27.3013 30.5 27.2879 30.5C27.2813 30.5 27.2746 30.5 27.2679 30.5V32.07ZM30.3879 33V27.22H32.0179V33H30.3879ZM33.7403 33V28.32H32.6903V27.22H36.4103V28.32H35.3603V33H33.7403ZM37.093 33V27.22H38.723V29.54C38.7297 29.54 38.733 29.54 38.733 29.54C38.7397 29.54 38.7463 29.54 38.753 29.54C38.7597 29.54 38.7663 29.54 38.773 29.54C39.173 29.54 39.5263 29.5667 39.833 29.62C40.1397 29.6733 40.393 29.7667 40.593 29.9C40.7997 30.0267 40.9563 30.2 41.063 30.42C41.1697 30.6333 41.223 30.9067 41.223 31.24C41.223 31.5533 41.1763 31.8233 41.083 32.05C40.9963 32.27 40.853 32.45 40.653 32.59C40.4597 32.73 40.2063 32.8333 39.893 32.9C39.5863 32.9667 39.2163 33 38.783 33H37.093ZM38.723 32.07H38.753C38.9997 32.07 39.193 32.0467 39.333 32C39.4797 31.9467 39.583 31.8633 39.643 31.75C39.7097 31.63 39.743 31.4733 39.743 31.28C39.743 31.0733 39.7097 30.9167 39.643 30.81C39.583 30.6967 39.4797 30.6167 39.333 30.57C39.193 30.5233 39.0063 30.5 38.773 30.5C38.7663 30.5 38.7563 30.5 38.743 30.5C38.7363 30.5 38.7297 30.5 38.723 30.5V32.07ZM46.4535 33.1C46.0335 33.1 45.6735 33.0233 45.3735 32.87C45.0801 32.7167 44.8535 32.4967 44.6935 32.21C44.5335 31.9233 44.4535 31.5767 44.4535 31.17V29.05C44.4535 28.6367 44.5335 28.2867 44.6935 28C44.8535 27.7133 45.0801 27.4967 45.3735 27.35C45.6735 27.1967 46.0335 27.12 46.4535 27.12C46.8668 27.12 47.2168 27.1833 47.5035 27.31C47.7968 27.4367 48.0201 27.63 48.1735 27.89C48.3268 28.1433 48.4035 28.4667 48.4035 28.86V29.47H46.8335V28.81C46.8335 28.6567 46.8168 28.54 46.7835 28.46C46.7568 28.3733 46.7135 28.3133 46.6535 28.28C46.6001 28.2467 46.5335 28.23 46.4535 28.23C46.3735 28.23 46.3068 28.2533 46.2535 28.3C46.2001 28.34 46.1601 28.41 46.1335 28.51C46.1068 28.6033 46.0935 28.7367 46.0935 28.91V31.31C46.0935 31.57 46.1235 31.7467 46.1835 31.84C46.2501 31.9333 46.3435 31.98 46.4635 31.98C46.5501 31.98 46.6201 31.9633 46.6735 31.93C46.7268 31.89 46.7668 31.83 46.7935 31.75C46.8201 31.6633 46.8335 31.55 46.8335 31.41V30.64H48.4035V31.34C48.4035 31.7267 48.3235 32.0533 48.1635 32.32C48.0101 32.58 47.7868 32.7767 47.4935 32.91C47.2068 33.0367 46.8601 33.1 46.4535 33.1ZM51.1512 33.1C50.7379 33.1 50.3779 33.03 50.0712 32.89C49.7712 32.75 49.5379 32.54 49.3712 32.26C49.2112 31.98 49.1312 31.63 49.1312 31.21V29.01C49.1312 28.59 49.2112 28.24 49.3712 27.96C49.5379 27.68 49.7712 27.47 50.0712 27.33C50.3779 27.19 50.7379 27.12 51.1512 27.12C51.5645 27.12 51.9212 27.19 52.2212 27.33C52.5279 27.47 52.7645 27.68 52.9312 27.96C53.0979 28.24 53.1812 28.59 53.1812 29.01V31.21C53.1812 31.63 53.0979 31.98 52.9312 32.26C52.7645 32.54 52.5279 32.75 52.2212 32.89C51.9212 33.03 51.5645 33.1 51.1512 33.1ZM51.1612 32.02C51.2679 32.02 51.3512 31.9933 51.4112 31.94C51.4712 31.88 51.5112 31.8 51.5312 31.7C51.5579 31.5933 51.5712 31.4667 51.5712 31.32V28.9C51.5712 28.7533 51.5579 28.63 51.5312 28.53C51.5112 28.4233 51.4712 28.3433 51.4112 28.29C51.3512 28.23 51.2679 28.2 51.1612 28.2C51.0545 28.2 50.9712 28.23 50.9112 28.29C50.8512 28.3433 50.8079 28.4233 50.7812 28.53C50.7545 28.63 50.7412 28.7533 50.7412 28.9V31.32C50.7412 31.4667 50.7545 31.5933 50.7812 31.7C50.8079 31.8 50.8512 31.88 50.9112 31.94C50.9712 31.9933 51.0545 32.02 51.1612 32.02ZM53.6852 33L54.9152 29.83L53.7452 27.22H55.3852L56.0052 28.61L56.5552 27.22H57.8052L56.6652 30.07L57.9752 33H56.3152L55.6152 31.41L55.0352 33H53.6852ZM58.639 30.01V28.97H61.229V30.01H58.639Z"></path>
<path fill="#0D0E12" d="M2.7893 45.9V38.22H4.4193V38.64C4.61263 38.4667 4.8193 38.3367 5.0393 38.25C5.2593 38.1633 5.4693 38.12 5.6693 38.12C5.8893 38.12 6.07596 38.1633 6.2293 38.25C6.3893 38.3367 6.5193 38.46 6.6193 38.62C6.7193 38.7733 6.79263 38.9533 6.8393 39.16C6.88596 39.3667 6.9093 39.5867 6.9093 39.82V42.31C6.9093 42.67 6.8593 42.9833 6.7593 43.25C6.66596 43.5167 6.52596 43.7267 6.3393 43.88C6.15263 44.0267 5.92263 44.1 5.6493 44.1C5.44263 44.1 5.23263 44.0533 5.0193 43.96C4.81263 43.86 4.61263 43.7267 4.4193 43.56V45.9H2.7893ZM4.8493 43.05C4.95596 43.05 5.0393 43.02 5.0993 42.96C5.1593 42.9 5.20263 42.8233 5.2293 42.73C5.26263 42.63 5.2793 42.52 5.2793 42.4V39.7C5.2793 39.5867 5.26596 39.4867 5.2393 39.4C5.21263 39.3067 5.1693 39.2333 5.1093 39.18C5.0493 39.1267 4.97263 39.1 4.8793 39.1C4.79263 39.1 4.7093 39.12 4.6293 39.16C4.55596 39.1933 4.48596 39.24 4.4193 39.3V42.9C4.49263 42.9467 4.56263 42.9833 4.6293 43.01C4.70263 43.0367 4.77596 43.05 4.8493 43.05ZM9.02813 44.1C8.73479 44.1 8.48813 44.03 8.28813 43.89C8.08813 43.75 7.93813 43.5733 7.83813 43.36C7.73813 43.14 7.68813 42.9167 7.68813 42.69C7.68813 42.33 7.75813 42.0267 7.89813 41.78C8.04479 41.5333 8.23479 41.3267 8.46813 41.16C8.70146 40.9933 8.95813 40.8533 9.23813 40.74C9.51813 40.62 9.79479 40.5133 10.0681 40.42V39.84C10.0681 39.74 10.0581 39.6533 10.0381 39.58C10.0181 39.5 9.98479 39.44 9.93813 39.4C9.89146 39.3533 9.82146 39.33 9.72813 39.33C9.63479 39.33 9.56146 39.35 9.50813 39.39C9.46146 39.43 9.42813 39.4867 9.40813 39.56C9.38813 39.6267 9.37479 39.7033 9.36813 39.79L9.32813 40.21L7.80813 40.15C7.84146 39.4567 8.02479 38.9467 8.35813 38.62C8.69813 38.2867 9.20479 38.12 9.87813 38.12C10.4648 38.12 10.9015 38.2833 11.1881 38.61C11.4815 38.93 11.6281 39.3467 11.6281 39.86V42.56C11.6281 42.8 11.6315 43.01 11.6381 43.19C11.6515 43.37 11.6648 43.5267 11.6781 43.66C11.6981 43.7933 11.7148 43.9067 11.7281 44H10.2681C10.2481 43.8467 10.2248 43.68 10.1981 43.5C10.1715 43.32 10.1515 43.2133 10.1381 43.18C10.0715 43.42 9.94479 43.6333 9.75813 43.82C9.57813 44.0067 9.33479 44.1 9.02813 44.1ZM9.60813 43C9.67479 43 9.73479 42.9867 9.78813 42.96C9.84813 42.9333 9.90146 42.8967 9.94813 42.85C9.99479 42.8033 10.0348 42.7567 10.0681 42.71V41.13C9.93479 41.21 9.81146 41.2933 9.69813 41.38C9.58479 41.46 9.48813 41.55 9.40813 41.65C9.32813 41.75 9.26479 41.86 9.21813 41.98C9.17813 42.0933 9.15813 42.2233 9.15813 42.37C9.15813 42.5633 9.19813 42.7167 9.27813 42.83C9.35813 42.9433 9.46813 43 9.60813 43ZM12.594 44V38.22H14.224V40.46H15.194V38.22H16.834V44H15.194V41.58H14.224V44H12.594ZM19.7379 44.1C19.3179 44.1 18.9579 44.0267 18.6579 43.88C18.3579 43.7267 18.1279 43.5067 17.9679 43.22C17.8079 42.9267 17.7279 42.5767 17.7279 42.17V40.05C17.7279 39.6367 17.8079 39.2867 17.9679 39C18.1279 38.7133 18.3579 38.4967 18.6579 38.35C18.9646 38.1967 19.3246 38.12 19.7379 38.12C20.1646 38.12 20.5179 38.1933 20.7979 38.34C21.0846 38.4867 21.2979 38.7033 21.4379 38.99C21.5846 39.2767 21.6579 39.63 21.6579 40.05V41.21H19.3379V42.32C19.3379 42.4667 19.3546 42.5867 19.3879 42.68C19.4212 42.7733 19.4679 42.84 19.5279 42.88C19.5879 42.92 19.6579 42.94 19.7379 42.94C19.8179 42.94 19.8879 42.9233 19.9479 42.89C20.0146 42.85 20.0646 42.79 20.0979 42.71C20.1379 42.63 20.1579 42.52 20.1579 42.38V41.77H21.6579V42.33C21.6579 42.9167 21.4879 43.36 21.1479 43.66C20.8079 43.9533 20.3379 44.1 19.7379 44.1ZM19.3379 40.45H20.1579V39.87C20.1579 39.7167 20.1379 39.5967 20.0979 39.51C20.0646 39.4233 20.0146 39.3633 19.9479 39.33C19.8879 39.2967 19.8146 39.28 19.7279 39.28C19.6479 39.28 19.5779 39.3 19.5179 39.34C19.4646 39.38 19.4212 39.45 19.3879 39.55C19.3546 39.6433 19.3379 39.78 19.3379 39.96V40.45ZM22.5452 44V38.22H24.1752V40.46H25.1452V38.22H26.7852V44H25.1452V41.58H24.1752V44H22.5452ZM27.7991 44V38.22H29.4291V40.46H30.3991V38.22H32.0391V44H30.3991V41.58H29.4291V44H27.7991ZM33.213 45.68V44.55C33.4196 44.55 33.5896 44.5367 33.723 44.51C33.863 44.4833 33.9663 44.4333 34.033 44.36C34.1063 44.2867 34.143 44.1867 34.143 44.06C34.143 43.9467 34.123 43.81 34.083 43.65C34.043 43.4833 33.993 43.2967 33.933 43.09L32.573 38.22H34.103L34.833 41.56L35.383 38.22H36.923L35.593 44.14C35.5063 44.54 35.3696 44.85 35.183 45.07C34.9963 45.2967 34.7663 45.4533 34.493 45.54C34.2263 45.6333 33.923 45.68 33.583 45.68H33.213ZM41.7254 44.1C41.3387 44.1 41.0021 44.03 40.7154 43.89C40.4287 43.75 40.2087 43.54 40.0554 43.26C39.9021 42.98 39.8254 42.63 39.8254 42.21V41.67H39.1354V44H37.5354V38.22H39.1354V40.53H39.8254V40.01C39.8254 39.59 39.9021 39.24 40.0554 38.96C40.2087 38.68 40.4287 38.47 40.7154 38.33C41.0021 38.19 41.3387 38.12 41.7254 38.12C42.1121 38.12 42.4487 38.19 42.7354 38.33C43.0221 38.47 43.2421 38.68 43.3954 38.96C43.5554 39.24 43.6354 39.59 43.6354 40.01V42.21C43.6354 42.63 43.5554 42.98 43.3954 43.26C43.2421 43.54 43.0221 43.75 42.7354 43.89C42.4487 44.03 42.1121 44.1 41.7254 44.1ZM41.7254 42.94C41.8321 42.94 41.9121 42.9133 41.9654 42.86C42.0187 42.8067 42.0554 42.73 42.0754 42.63C42.1021 42.5233 42.1154 42.3967 42.1154 42.25V39.97C42.1154 39.8233 42.1021 39.7 42.0754 39.6C42.0554 39.4933 42.0187 39.4133 41.9654 39.36C41.9121 39.3067 41.8321 39.28 41.7254 39.28C41.6321 39.28 41.5554 39.31 41.4954 39.37C41.4421 39.4233 41.4021 39.5 41.3754 39.6C41.3554 39.7 41.3454 39.8233 41.3454 39.97V42.25C41.3454 42.39 41.3554 42.5133 41.3754 42.62C41.4021 42.72 41.4421 42.8 41.4954 42.86C41.5554 42.9133 41.6321 42.94 41.7254 42.94ZM47.1057 44V38.22H48.3957V41.31L49.9057 38.22H51.1757V44H49.8557V40.94L48.3857 44H47.1057ZM52.1838 44V38.22H55.0638V39.32H53.8138V44H52.1838ZM55.6995 45.9V38.22H57.3295V38.64C57.5228 38.4667 57.7295 38.3367 57.9495 38.25C58.1695 38.1633 58.3795 38.12 58.5795 38.12C58.7995 38.12 58.9861 38.1633 59.1395 38.25C59.2995 38.3367 59.4295 38.46 59.5295 38.62C59.6295 38.7733 59.7028 38.9533 59.7495 39.16C59.7961 39.3667 59.8195 39.5867 59.8195 39.82V42.31C59.8195 42.67 59.7695 42.9833 59.6695 43.25C59.5761 43.5167 59.4361 43.7267 59.2495 43.88C59.0628 44.0267 58.8328 44.1 58.5595 44.1C58.3528 44.1 58.1428 44.0533 57.9295 43.96C57.7228 43.86 57.5228 43.7267 57.3295 43.56V45.9H55.6995ZM57.7595 43.05C57.8661 43.05 57.9495 43.02 58.0095 42.96C58.0695 42.9 58.1128 42.8233 58.1395 42.73C58.1728 42.63 58.1895 42.52 58.1895 42.4V39.7C58.1895 39.5867 58.1761 39.4867 58.1495 39.4C58.1228 39.3067 58.0795 39.2333 58.0195 39.18C57.9595 39.1267 57.8828 39.1 57.7895 39.1C57.7028 39.1 57.6195 39.12 57.5395 39.16C57.4661 39.1933 57.3961 39.24 57.3295 39.3V42.9C57.4028 42.9467 57.4728 42.9833 57.5395 43.01C57.6128 43.0367 57.6861 43.05 57.7595 43.05ZM60.9083 45.68V44.55C61.1149 44.55 61.2849 44.5367 61.4183 44.51C61.5583 44.4833 61.6616 44.4333 61.7283 44.36C61.8016 44.2867 61.8383 44.1867 61.8383 44.06C61.8383 43.9467 61.8183 43.81 61.7783 43.65C61.7383 43.4833 61.6883 43.2967 61.6283 43.09L60.2683 38.22H61.7983L62.5283 41.56L63.0783 38.22H64.6183L63.2883 44.14C63.2016 44.54 63.0649 44.85 62.8783 45.07C62.6916 45.2967 62.4616 45.4533 62.1883 45.54C61.9216 45.6333 61.6183 45.68 61.2783 45.68H60.9083Z"></path>
<rect fill="#0D0E12" height="4" width="4" y="5" x="26"></rect>
<rect fill="#0D0E12" height="4" width="4" y="5" x="34"></rect>
<rect fill="#0D0E12" height="4" width="4" y="9" x="38"></rect>
<rect fill="#0D0E12" height="4" width="4" y="13" x="26"></rect>
<rect fill="#0D0E12" height="4" width="4" y="13" x="34"></rect>
<rect fill="#0D0E12" height="4" width="4" y="9" x="30"></rect>
<rect fill="#0D0E12" height="4" width="4" y="17" x="30"></rect>
<rect fill="#0D0E12" height="4" width="4" y="17" x="38"></rect>
</svg>
