<svg xmlns="http://www.w3.org/2000/svg" fill="none" viewBox="0 0 15 12" height="12" width="15">
<g clip-path="url(#clip0_1496_70)">
<rect fill="#012168" height="12" width="15"></rect>
<rect fill="white" height="12" width="5" x="5"></rect>
<rect fill="white" transform="rotate(51.269 14.9109 -1.31812)" height="20.7198" width="2.14425" y="-1.31812" x="14.9109"></rect>
<rect fill="white" transform="rotate(-51.27 -1.25256 0.354736)" height="20.7198" width="2.14425" y="0.354736" x="-1.25256"></rect>
<rect fill="white" transform="rotate(90 15 4)" height="15" width="4" y="4" x="15"></rect>
<rect fill="#C9102E" transform="rotate(90 15 5)" height="15" width="2" y="5" x="15"></rect>
<rect fill="#C9102E" transform="rotate(-180 9 12)" height="12" width="3" y="12" x="9"></rect>
<rect fill="#C9102E" transform="rotate(51.27 7.50449 5.89526)" height="10.4974" width="0.713259" y="5.89526" x="7.50449"></rect>
<rect fill="#C9102E" transform="rotate(-51.27 -1.84247 -0.639893)" height="10.4974" width="0.708181" y="-0.639893" x="-1.84247"></rect>
<rect fill="#C9102E" transform="rotate(-51.27 6.93906 5.62842)" height="10.4974" width="0.689021" y="5.62842" x="6.93906"></rect>
<rect fill="#C9102E" transform="rotate(51.27 15.1891 -1)" height="10.4974" width="0.713259" y="-1" x="15.1891"></rect>
<rect fill="white" height="3" width="1" y="7" x="9"></rect>
<rect fill="white" height="3" width="1" y="7" x="5"></rect>
<rect fill="white" height="3" width="1" y="2" x="5"></rect>
<rect fill="white" height="3" width="1" y="2" x="9"></rect>
<rect fill="white" transform="rotate(-90 9 8)" height="3" width="1" y="8" x="9"></rect>
<rect fill="white" transform="rotate(-90 9 5)" height="3" width="1" y="5" x="9"></rect>
<rect fill="white" transform="rotate(-90 3 5)" height="3" width="1" y="5" x="3"></rect>
<rect fill="white" transform="rotate(-90 3 8)" height="3" width="1" y="8" x="3"></rect>
</g>
<defs>
<clipPath id="clip0_1496_70">
<rect fill="white" height="12" width="15"></rect>
</clipPath>
</defs>
</svg>
