<svg xmlns="http://www.w3.org/2000/svg" fill="none" viewBox="0 0 480 360" height="360" width="480">
<rect fill="white" height="360" width="480"></rect>
<rect fill="#F1F1F1" height="32" width="32" y="248" x="58"></rect>
<rect fill="#F1F1F1" height="32" width="32" y="248" x="95"></rect>
<rect fill="#F1F1F1" height="32" width="32" y="248" x="132"></rect>
<rect fill="#F1F1F1" height="32" width="32" y="248" x="169"></rect>
<rect fill="#F1F1F1" height="32" width="32" y="248" x="206"></rect>
<rect fill="#F1F1F1" height="32" width="32" y="248" x="243"></rect>
<rect fill="#F1F1F1" height="32" width="32" y="248" x="280"></rect>
<rect fill="#F1F1F1" height="32" width="32" y="248" x="317"></rect>
<rect fill="#F1F1F1" height="32" width="32" y="248" x="354"></rect>
<rect fill="#F1F1F1" height="192" width="192" y="48" x="18"></rect>
<rect fill="#F1F1F1" height="32" width="32" y="248" x="391"></rect>
<rect fill="#0D0E12" height="30" width="480"></rect>
<rect fill="#393939" height="1" width="480" y="29"></rect>
<rect fill="#F1F1F1" transform="rotate(-180 50 275)" height="22" width="32" y="275" x="50"></rect>
<path fill="white" d="M29.9792 264.364C29.5887 263.973 29.5887 263.34 29.9792 262.95L35.6361 257.293C36.0266 256.902 36.6597 256.902 37.0503 257.293C37.4408 257.683 37.4408 258.317 37.0503 258.707L31.3934 264.364C31.0029 264.754 30.3697 264.754 29.9792 264.364Z"></path>
<path fill="white" d="M30.2218 263.222C30.6124 262.831 31.2455 262.831 31.6361 263.222L37.2929 268.879C37.6834 269.269 37.6834 269.902 37.2929 270.293C36.9024 270.683 36.2692 270.683 35.8787 270.293L30.2218 264.636C29.8313 264.245 29.8313 263.612 30.2218 263.222Z"></path>
<rect fill="#F1F1F1" height="22" width="32" y="253" x="430"></rect>
<path fill="white" d="M450.021 263.636C450.411 264.027 450.411 264.66 450.021 265.05L444.364 270.707C443.973 271.098 443.34 271.098 442.95 270.707C442.559 270.317 442.559 269.683 442.95 269.293L448.607 263.636C448.997 263.246 449.63 263.246 450.021 263.636Z"></path>
<path fill="white" d="M449.778 264.778C449.388 265.169 448.754 265.169 448.364 264.778L442.707 259.121C442.317 258.731 442.317 258.098 442.707 257.707C443.098 257.317 443.731 257.317 444.121 257.707L449.778 263.364C450.169 263.755 450.169 264.388 449.778 264.778Z"></path>
<rect fill="#0D0E12" height="13" width="1" y="47" x="229"></rect>
<rect fill="#0D0E12" transform="rotate(-90 229 48)" height="13" width="1" y="48" x="229"></rect>
<path fill="white" d="M329.72 21V11.28H333.92V12.732H331.868V15.18H333.656V16.68H331.868V21H329.72ZM334.923 21V11.28H338.187C338.771 11.28 339.251 11.392 339.627 11.616C340.003 11.832 340.283 12.152 340.467 12.576C340.651 12.992 340.743 13.5 340.743 14.1C340.743 14.852 340.619 15.428 340.371 15.828C340.123 16.22 339.787 16.492 339.363 16.644C338.939 16.796 338.463 16.872 337.935 16.872H337.071V21H334.923ZM337.071 15.372H337.791C338.055 15.372 338.255 15.324 338.391 15.228C338.527 15.132 338.615 14.988 338.655 14.796C338.703 14.604 338.727 14.36 338.727 14.064C338.727 13.816 338.707 13.6 338.667 13.416C338.635 13.224 338.551 13.072 338.415 12.96C338.279 12.848 338.067 12.792 337.779 12.792H337.071V15.372ZM344.265 21.144C343.657 21.144 343.149 21.036 342.741 20.82C342.333 20.604 342.025 20.272 341.817 19.824C341.609 19.368 341.493 18.78 341.469 18.06L343.305 17.784C343.313 18.2 343.349 18.536 343.413 18.792C343.485 19.048 343.581 19.232 343.701 19.344C343.829 19.456 343.981 19.512 344.157 19.512C344.381 19.512 344.525 19.436 344.589 19.284C344.661 19.132 344.697 18.972 344.697 18.804C344.697 18.404 344.601 18.068 344.409 17.796C344.217 17.516 343.957 17.236 343.629 16.956L342.789 16.224C342.421 15.912 342.109 15.56 341.853 15.168C341.605 14.768 341.481 14.276 341.481 13.692C341.481 12.868 341.725 12.24 342.213 11.808C342.701 11.368 343.365 11.148 344.205 11.148C344.725 11.148 345.141 11.236 345.453 11.412C345.773 11.588 346.013 11.82 346.173 12.108C346.341 12.388 346.453 12.688 346.509 13.008C346.573 13.32 346.609 13.62 346.617 13.908L344.769 14.136C344.761 13.848 344.741 13.6 344.709 13.392C344.685 13.176 344.629 13.012 344.541 12.9C344.453 12.78 344.317 12.72 344.133 12.72C343.933 12.72 343.785 12.804 343.689 12.972C343.601 13.14 343.557 13.308 343.557 13.476C343.557 13.836 343.641 14.132 343.809 14.364C343.985 14.588 344.213 14.824 344.493 15.072L345.297 15.78C345.721 16.14 346.077 16.548 346.365 17.004C346.661 17.46 346.809 18.024 346.809 18.696C346.809 19.152 346.705 19.568 346.497 19.944C346.289 20.312 345.993 20.604 345.609 20.82C345.233 21.036 344.785 21.144 344.265 21.144ZM347.933 16.056V14.232H349.757V16.056H347.933ZM347.933 20.328V18.504H349.757V20.328H347.933Z"></path>
</svg>
