<svg version="1.1" xmlns="http://www.w3.org/2000/svg" xmlns:xlink="http://www.w3.org/1999/xlink" width="480" height="360" viewBox="0,0,480,360"><g data-paper-data="{&quot;isPaintingLayer&quot;:true}" fill-rule="nonzero" stroke="none" stroke-width="1" stroke-linecap="butt" stroke-linejoin="miter" stroke-miterlimit="10" stroke-dasharray="" stroke-dashoffset="0" style="mix-blend-mode: normal"><path d="M0,360v-360h480v360z" fill="#ffffff"/><path d="M18,112v-64h64v64z" fill="#f1f1f1"/><path d="M0,30v-30h480v30z" fill="#0d0e12"/><path d="M0,30v-1h480v1z" fill="#393939"/><path d="M19.39,160.1c-0.42,0 -0.78,-0.077 -1.08,-0.23c-0.2933,-0.153 -0.52,-0.373 -0.68,-0.66c-0.16,-0.287 -0.24,-0.633 -0.24,-1.04v-2.12c0,-0.413 0.08,-0.763 0.24,-1.05c0.16,-0.287 0.3867,-0.503 0.68,-0.65c0.3,-0.153 0.66,-0.23 1.08,-0.23c0.4133,0 0.7633,0.063 1.05,0.19c0.2933,0.127 0.5167,0.32 0.67,0.58c0.1533,0.253 0.23,0.577 0.23,0.97v0.61h-1.57v-0.66c0,-0.153 -0.0167,-0.27 -0.05,-0.35c-0.0267,-0.087 -0.07,-0.147 -0.13,-0.18c-0.0533,-0.033 -0.12,-0.05 -0.2,-0.05c-0.08,0 -0.1467,0.023 -0.2,0.07c-0.0533,0.04 -0.0933,0.11 -0.12,0.21c-0.0267,0.093 -0.04,0.227 -0.04,0.4v2.4c0,0.26 0.03,0.437 0.09,0.53c0.0667,0.093 0.16,0.14 0.28,0.14c0.0867,0 0.1567,-0.017 0.21,-0.05c0.0533,-0.04 0.0933,-0.1 0.12,-0.18c0.0267,-0.087 0.04,-0.2 0.04,-0.34v-0.77h1.57v0.7c0,0.387 -0.08,0.713 -0.24,0.98c-0.1533,0.26 -0.3767,0.457 -0.67,0.59c-0.2867,0.127 -0.6333,0.19 -1.04,0.19zM22.8877,160v-4.68h-1.05v-1.1h3.72v1.1h-1.05v4.68zM26.2405,161.9v-7.68h1.63v0.42c0.1933,-0.173 0.4,-0.303 0.62,-0.39c0.22,-0.087 0.43,-0.13 0.63,-0.13c0.22,0 0.4066,0.043 0.56,0.13c0.16,0.087 0.29,0.21 0.39,0.37c0.1,0.153 0.1733,0.333 0.22,0.54c0.0466,0.207 0.07,0.427 0.07,0.66v2.49c0,0.36 -0.05,0.673 -0.15,0.94c-0.0934,0.267 -0.2334,0.477 -0.42,0.63c-0.1867,0.147 -0.4167,0.22 -0.69,0.22c-0.2067,0 -0.4167,-0.047 -0.63,-0.14c-0.2067,-0.1 -0.4067,-0.233 -0.6,-0.4v2.34zM28.3005,159.05c0.1066,0 0.19,-0.03 0.25,-0.09c0.06,-0.06 0.1033,-0.137 0.13,-0.23c0.0333,-0.1 0.05,-0.21 0.05,-0.33v-2.7c0,-0.113 -0.0134,-0.213 -0.04,-0.3c-0.0267,-0.093 -0.07,-0.167 -0.13,-0.22c-0.06,-0.053 -0.1367,-0.08 -0.23,-0.08c-0.0867,0 -0.17,0.02 -0.25,0.06c-0.0734,0.033 -0.1434,0.08 -0.21,0.14v3.6c0.0733,0.047 0.1433,0.083 0.21,0.11c0.0733,0.027 0.1466,0.04 0.22,0.04zM32.4793,160.1c-0.2933,0 -0.54,-0.07 -0.74,-0.21c-0.2,-0.14 -0.35,-0.317 -0.45,-0.53c-0.1,-0.22 -0.15,-0.443 -0.15,-0.67c0,-0.36 0.07,-0.663 0.21,-0.91c0.1467,-0.247 0.3367,-0.453 0.57,-0.62c0.2333,-0.167 0.49,-0.307 0.77,-0.42c0.28,-0.12 0.5567,-0.227 0.83,-0.32v-0.58c0,-0.1 -0.01,-0.187 -0.03,-0.26c-0.02,-0.08 -0.0533,-0.14 -0.1,-0.18c-0.0467,-0.047 -0.1167,-0.07 -0.21,-0.07c-0.0933,0 -0.1667,0.02 -0.22,0.06c-0.0467,0.04 -0.08,0.097 -0.1,0.17c-0.02,0.067 -0.0333,0.143 -0.04,0.23l-0.04,0.42l-1.52,-0.06c0.0333,-0.693 0.2167,-1.203 0.55,-1.53c0.34,-0.333 0.8467,-0.5 1.52,-0.5c0.5867,0 1.0233,0.163 1.31,0.49c0.2933,0.32 0.44,0.737 0.44,1.25v2.7c0,0.24 0.0033,0.45 0.01,0.63c0.0133,0.18 0.0267,0.337 0.04,0.47c0.02,0.133 0.0367,0.247 0.05,0.34h-1.46c-0.02,-0.153 -0.0433,-0.32 -0.07,-0.5c-0.0267,-0.18 -0.0467,-0.287 -0.06,-0.32c-0.0667,0.24 -0.1933,0.453 -0.38,0.64c-0.18,0.187 -0.4233,0.28 -0.73,0.28zM33.0593,159c0.0667,0 0.1267,-0.013 0.18,-0.04c0.06,-0.027 0.1133,-0.063 0.16,-0.11c0.0467,-0.047 0.0867,-0.093 0.12,-0.14v-1.58c-0.1333,0.08 -0.2567,0.163 -0.37,0.25c-0.1133,0.08 -0.21,0.17 -0.29,0.27c-0.08,0.1 -0.1433,0.21 -0.19,0.33c-0.04,0.113 -0.06,0.243 -0.06,0.39c0,0.193 0.04,0.347 0.12,0.46c0.08,0.113 0.19,0.17 0.33,0.17zM36.0452,160v-5.78h1.63v2.24h0.97v-2.24h1.64v5.78h-1.64v-2.42h-0.97v2.42zM42.4891,160.1c-0.2934,0 -0.54,-0.07 -0.74,-0.21c-0.2,-0.14 -0.35,-0.317 -0.45,-0.53c-0.1,-0.22 -0.15,-0.443 -0.15,-0.67c0,-0.36 0.07,-0.663 0.21,-0.91c0.1466,-0.247 0.3366,-0.453 0.57,-0.62c0.2333,-0.167 0.49,-0.307 0.77,-0.42c0.28,-0.12 0.5566,-0.227 0.83,-0.32v-0.58c0,-0.1 -0.01,-0.187 -0.03,-0.26c-0.02,-0.08 -0.0534,-0.14 -0.1,-0.18c-0.0467,-0.047 -0.1167,-0.07 -0.21,-0.07c-0.0934,0 -0.1667,0.02 -0.22,0.06c-0.0467,0.04 -0.08,0.097 -0.1,0.17c-0.02,0.067 -0.0334,0.143 -0.04,0.23l-0.04,0.42l-1.52,-0.06c0.0333,-0.693 0.2166,-1.203 0.55,-1.53c0.34,-0.333 0.8466,-0.5 1.52,-0.5c0.5866,0 1.0233,0.163 1.31,0.49c0.2933,0.32 0.44,0.737 0.44,1.25v2.7c0,0.24 0.0033,0.45 0.01,0.63c0.0133,0.18 0.0266,0.337 0.04,0.47c0.02,0.133 0.0366,0.247 0.05,0.34h-1.46c-0.02,-0.153 -0.0434,-0.32 -0.07,-0.5c-0.0267,-0.18 -0.0467,-0.287 -0.06,-0.32c-0.0667,0.24 -0.1934,0.453 -0.38,0.64c-0.18,0.187 -0.4234,0.28 -0.73,0.28zM43.0691,159c0.0666,0 0.1266,-0.013 0.18,-0.04c0.06,-0.027 0.1133,-0.063 0.16,-0.11c0.0466,-0.047 0.0866,-0.093 0.12,-0.14v-1.58c-0.1334,0.08 -0.2567,0.163 -0.37,0.25c-0.1134,0.08 -0.21,0.17 -0.29,0.27c-0.08,0.1 -0.1434,0.21 -0.19,0.33c-0.04,0.113 -0.06,0.243 -0.06,0.39c0,0.193 0.04,0.347 0.12,0.46c0.08,0.113 0.19,0.17 0.33,0.17zM46.2149,155.88v-1.52h1.52v1.52zM46.2149,159.44v-1.52h1.52v1.52z" fill="#0d0e12"/><path d="M17.32,173.57v-2.56c0.22,-0.1 0.41,-0.23 0.57,-0.39c0.16,-0.167 0.2967,-0.367 0.41,-0.6c0.1133,-0.24 0.2033,-0.517 0.27,-0.83c0.0667,-0.32 0.1133,-0.683 0.14,-1.09l0.17,-1.88h3.18v4.78h0.84v2.57h-1.17l-0.11,-1.57h-3.02l-0.09,1.57zM19.08,171h1.49v-3.81h-0.48l-0.12,1.3c-0.02,0.367 -0.0567,0.687 -0.11,0.96c-0.0533,0.267 -0.12,0.5 -0.2,0.7c-0.0733,0.193 -0.16,0.36 -0.26,0.5c-0.1,0.133 -0.2067,0.25 -0.32,0.35zM24.7742,172.1c-0.2933,0 -0.54,-0.07 -0.74,-0.21c-0.2,-0.14 -0.35,-0.317 -0.45,-0.53c-0.1,-0.22 -0.15,-0.443 -0.15,-0.67c0,-0.36 0.07,-0.663 0.21,-0.91c0.1467,-0.247 0.3367,-0.453 0.57,-0.62c0.2334,-0.167 0.49,-0.307 0.77,-0.42c0.28,-0.12 0.5567,-0.227 0.83,-0.32v-0.58c0,-0.1 -0.01,-0.187 -0.03,-0.26c-0.02,-0.08 -0.0533,-0.14 -0.1,-0.18c-0.0466,-0.047 -0.1166,-0.07 -0.21,-0.07c-0.0933,0 -0.1666,0.02 -0.22,0.06c-0.0466,0.04 -0.08,0.097 -0.1,0.17c-0.02,0.067 -0.0333,0.143 -0.04,0.23l-0.04,0.42l-1.52,-0.06c0.0334,-0.693 0.2167,-1.203 0.55,-1.53c0.34,-0.333 0.8467,-0.5 1.52,-0.5c0.5867,0 1.0234,0.163 1.31,0.49c0.2934,0.32 0.44,0.737 0.44,1.25v2.7c0,0.24 0.0034,0.45 0.01,0.63c0.0134,0.18 0.0267,0.337 0.04,0.47c0.02,0.133 0.0367,0.247 0.05,0.34h-1.46c-0.02,-0.153 -0.0433,-0.32 -0.07,-0.5c-0.0266,-0.18 -0.0466,-0.287 -0.06,-0.32c-0.0666,0.24 -0.1933,0.453 -0.38,0.64c-0.18,0.187 -0.4233,0.28 -0.73,0.28zM25.3542,171c0.0667,0 0.1267,-0.013 0.18,-0.04c0.06,-0.027 0.1134,-0.063 0.16,-0.11c0.0467,-0.047 0.0867,-0.093 0.12,-0.14v-1.58c-0.1333,0.08 -0.2566,0.163 -0.37,0.25c-0.1133,0.08 -0.21,0.17 -0.29,0.27c-0.08,0.1 -0.1433,0.21 -0.19,0.33c-0.04,0.113 -0.06,0.243 -0.06,0.39c0,0.193 0.04,0.347 0.12,0.46c0.08,0.113 0.19,0.17 0.33,0.17zM29.0401,172v-4.68h-1.05v-1.1h3.72v1.1h-1.05v4.68zM33.5828,172.1c-0.2933,0 -0.54,-0.07 -0.74,-0.21c-0.2,-0.14 -0.35,-0.317 -0.45,-0.53c-0.1,-0.22 -0.15,-0.443 -0.15,-0.67c0,-0.36 0.07,-0.663 0.21,-0.91c0.1467,-0.247 0.3367,-0.453 0.57,-0.62c0.2333,-0.167 0.49,-0.307 0.77,-0.42c0.28,-0.12 0.5567,-0.227 0.83,-0.32v-0.58c0,-0.1 -0.01,-0.187 -0.03,-0.26c-0.02,-0.08 -0.0533,-0.14 -0.1,-0.18c-0.0467,-0.047 -0.1167,-0.07 -0.21,-0.07c-0.0933,0 -0.1667,0.02 -0.22,0.06c-0.0467,0.04 -0.08,0.097 -0.1,0.17c-0.02,0.067 -0.0333,0.143 -0.04,0.23l-0.04,0.42l-1.52,-0.06c0.0333,-0.693 0.2167,-1.203 0.55,-1.53c0.34,-0.333 0.8467,-0.5 1.52,-0.5c0.5867,0 1.0233,0.163 1.31,0.49c0.2933,0.32 0.44,0.737 0.44,1.25v2.7c0,0.24 0.0033,0.45 0.01,0.63c0.0133,0.18 0.0267,0.337 0.04,0.47c0.02,0.133 0.0367,0.247 0.05,0.34h-1.46c-0.02,-0.153 -0.0433,-0.32 -0.07,-0.5c-0.0267,-0.18 -0.0467,-0.287 -0.06,-0.32c-0.0667,0.24 -0.1933,0.453 -0.38,0.64c-0.18,0.187 -0.4233,0.28 -0.73,0.28zM34.1628,171c0.0667,0 0.1267,-0.013 0.18,-0.04c0.06,-0.027 0.1133,-0.063 0.16,-0.11c0.0467,-0.047 0.0867,-0.093 0.12,-0.14v-1.58c-0.1333,0.08 -0.2567,0.163 -0.37,0.25c-0.1133,0.08 -0.21,0.17 -0.29,0.27c-0.08,0.1 -0.1433,0.21 -0.19,0.33c-0.04,0.113 -0.06,0.243 -0.06,0.39c0,0.193 0.04,0.347 0.12,0.46c0.08,0.113 0.19,0.17 0.33,0.17zM39.7073,173.9v-7.68h1.63v0.42c0.1933,-0.173 0.4,-0.303 0.62,-0.39c0.22,-0.087 0.43,-0.13 0.63,-0.13c0.22,0 0.4066,0.043 0.56,0.13c0.16,0.087 0.29,0.21 0.39,0.37c0.1,0.153 0.1733,0.333 0.22,0.54c0.0466,0.207 0.07,0.427 0.07,0.66v2.49c0,0.36 -0.05,0.673 -0.15,0.94c-0.0934,0.267 -0.2334,0.477 -0.42,0.63c-0.1867,0.147 -0.4167,0.22 -0.69,0.22c-0.2067,0 -0.4167,-0.047 -0.63,-0.14c-0.2067,-0.1 -0.4067,-0.233 -0.6,-0.4v2.34zM41.7673,171.05c0.1066,0 0.19,-0.03 0.25,-0.09c0.06,-0.06 0.1033,-0.137 0.13,-0.23c0.0333,-0.1 0.05,-0.21 0.05,-0.33v-2.7c0,-0.113 -0.0134,-0.213 -0.04,-0.3c-0.0267,-0.093 -0.07,-0.167 -0.13,-0.22c-0.06,-0.053 -0.1367,-0.08 -0.23,-0.08c-0.0867,0 -0.17,0.02 -0.25,0.06c-0.0734,0.033 -0.1434,0.08 -0.21,0.14v3.6c0.0733,0.047 0.1433,0.083 0.21,0.11c0.0733,0.027 0.1466,0.04 0.22,0.04zM46.6461,172.1c-0.42,0 -0.78,-0.073 -1.08,-0.22c-0.3,-0.153 -0.53,-0.373 -0.69,-0.66c-0.16,-0.293 -0.24,-0.643 -0.24,-1.05v-2.12c0,-0.413 0.08,-0.763 0.24,-1.05c0.16,-0.287 0.39,-0.503 0.69,-0.65c0.3067,-0.153 0.6667,-0.23 1.08,-0.23c0.4267,0 0.78,0.073 1.06,0.22c0.2867,0.147 0.5,0.363 0.64,0.65c0.1467,0.287 0.22,0.64 0.22,1.06v1.16h-2.32v1.11c0,0.147 0.0167,0.267 0.05,0.36c0.0333,0.093 0.08,0.16 0.14,0.2c0.06,0.04 0.13,0.06 0.21,0.06c0.08,0 0.15,-0.017 0.21,-0.05c0.0667,-0.04 0.1167,-0.1 0.15,-0.18c0.04,-0.08 0.06,-0.19 0.06,-0.33v-0.61h1.5v0.56c0,0.587 -0.17,1.03 -0.51,1.33c-0.34,0.293 -0.81,0.44 -1.41,0.44zM46.2461,168.45h0.82v-0.58c0,-0.153 -0.02,-0.273 -0.06,-0.36c-0.0333,-0.087 -0.0833,-0.147 -0.15,-0.18c-0.06,-0.033 -0.1333,-0.05 -0.22,-0.05c-0.08,0 -0.15,0.02 -0.21,0.06c-0.0533,0.04 -0.0967,0.11 -0.13,0.21c-0.0333,0.093 -0.05,0.23 -0.05,0.41zM49.4534,172v-5.78h2.88v1.1h-1.25v4.68zM52.969,172v-5.78h1.29v3.09l1.51,-3.09h1.27v5.78h-1.32v-3.06l-1.47,3.06zM59.9271,172.1c-0.42,0 -0.78,-0.077 -1.08,-0.23c-0.2933,-0.153 -0.52,-0.373 -0.68,-0.66c-0.16,-0.287 -0.24,-0.633 -0.24,-1.04v-2.12c0,-0.413 0.08,-0.763 0.24,-1.05c0.16,-0.287 0.3867,-0.503 0.68,-0.65c0.3,-0.153 0.66,-0.23 1.08,-0.23c0.4133,0 0.7633,0.063 1.05,0.19c0.2933,0.127 0.5167,0.32 0.67,0.58c0.1533,0.253 0.23,0.577 0.23,0.97v0.61h-1.57v-0.66c0,-0.153 -0.0167,-0.27 -0.05,-0.35c-0.0267,-0.087 -0.07,-0.147 -0.13,-0.18c-0.0533,-0.033 -0.12,-0.05 -0.2,-0.05c-0.08,0 -0.1467,0.023 -0.2,0.07c-0.0533,0.04 -0.0933,0.11 -0.12,0.21c-0.0267,0.093 -0.04,0.227 -0.04,0.4v2.4c0,0.26 0.03,0.437 0.09,0.53c0.0667,0.093 0.16,0.14 0.28,0.14c0.0867,0 0.1567,-0.017 0.21,-0.05c0.0533,-0.04 0.0933,-0.1 0.12,-0.18c0.0267,-0.087 0.04,-0.2 0.04,-0.34v-0.77h1.57v0.7c0,0.387 -0.08,0.713 -0.24,0.98c-0.1533,0.26 -0.3767,0.457 -0.67,0.59c-0.2867,0.127 -0.6333,0.19 -1.04,0.19zM63.4248,172v-4.68h-1.05v-1.1h3.72v1.1h-1.05v4.68zM66.7776,173.9v-7.68h1.63v0.42c0.1933,-0.173 0.4,-0.303 0.62,-0.39c0.22,-0.087 0.43,-0.13 0.63,-0.13c0.22,0 0.4066,0.043 0.56,0.13c0.16,0.087 0.29,0.21 0.39,0.37c0.1,0.153 0.1733,0.333 0.22,0.54c0.0466,0.207 0.07,0.427 0.07,0.66v2.49c0,0.36 -0.05,0.673 -0.15,0.94c-0.0934,0.267 -0.2334,0.477 -0.42,0.63c-0.1867,0.147 -0.4167,0.22 -0.69,0.22c-0.2067,0 -0.4167,-0.047 -0.63,-0.14c-0.2067,-0.1 -0.4067,-0.233 -0.6,-0.4v2.34zM68.8376,171.05c0.1066,0 0.19,-0.03 0.25,-0.09c0.06,-0.06 0.1033,-0.137 0.13,-0.23c0.0333,-0.1 0.05,-0.21 0.05,-0.33v-2.7c0,-0.113 -0.0134,-0.213 -0.04,-0.3c-0.0267,-0.093 -0.07,-0.167 -0.13,-0.22c-0.06,-0.053 -0.1367,-0.08 -0.23,-0.08c-0.0867,0 -0.17,0.02 -0.25,0.06c-0.0734,0.033 -0.1434,0.08 -0.21,0.14v3.6c0.0733,0.047 0.1433,0.083 0.21,0.11c0.0733,0.027 0.1466,0.04 0.22,0.04zM73.0164,172.1c-0.2933,0 -0.54,-0.07 -0.74,-0.21c-0.2,-0.14 -0.35,-0.317 -0.45,-0.53c-0.1,-0.22 -0.15,-0.443 -0.15,-0.67c0,-0.36 0.07,-0.663 0.21,-0.91c0.1467,-0.247 0.3367,-0.453 0.57,-0.62c0.2333,-0.167 0.49,-0.307 0.77,-0.42c0.28,-0.12 0.5567,-0.227 0.83,-0.32v-0.58c0,-0.1 -0.01,-0.187 -0.03,-0.26c-0.02,-0.08 -0.0533,-0.14 -0.1,-0.18c-0.0467,-0.047 -0.1167,-0.07 -0.21,-0.07c-0.0933,0 -0.1667,0.02 -0.22,0.06c-0.0467,0.04 -0.08,0.097 -0.1,0.17c-0.02,0.067 -0.0333,0.143 -0.04,0.23l-0.04,0.42l-1.52,-0.06c0.0333,-0.693 0.2167,-1.203 0.55,-1.53c0.34,-0.333 0.8467,-0.5 1.52,-0.5c0.5867,0 1.0233,0.163 1.31,0.49c0.2933,0.32 0.44,0.737 0.44,1.25v2.7c0,0.24 0.0033,0.45 0.01,0.63c0.0133,0.18 0.0267,0.337 0.04,0.47c0.02,0.133 0.0367,0.247 0.05,0.34h-1.46c-0.02,-0.153 -0.0433,-0.32 -0.07,-0.5c-0.0267,-0.18 -0.0467,-0.287 -0.06,-0.32c-0.0667,0.24 -0.1933,0.453 -0.38,0.64c-0.18,0.187 -0.4233,0.28 -0.73,0.28zM73.5964,171c0.0667,0 0.1267,-0.013 0.18,-0.04c0.06,-0.027 0.1133,-0.063 0.16,-0.11c0.0467,-0.047 0.0867,-0.093 0.12,-0.14v-1.58c-0.1333,0.08 -0.2567,0.163 -0.37,0.25c-0.1133,0.08 -0.21,0.17 -0.29,0.27c-0.08,0.1 -0.1433,0.21 -0.19,0.33c-0.04,0.113 -0.06,0.243 -0.06,0.39c0,0.193 0.04,0.347 0.12,0.46c0.08,0.113 0.19,0.17 0.33,0.17zM80.3723,173.57l-0.11,-1.57h-3.69v-5.78h1.64v4.78h0.87v-4.78h1.63v4.78h0.83v2.57zM82.2561,172v-5.78h1.29v3.09l1.51,-3.09h1.27v5.78h-1.32v-3.06l-1.47,3.06zM87.3342,172v-5.78h1.29v3.09l1.51,-3.09h1.27v5.78h-1.32v-3.06l-1.47,3.06zM92.5723,167.88v-1.52h1.52v1.52zM92.5723,171.44v-1.52h1.52v1.52z" fill="#0d0e12"/><path d="M17.51,184v-5.78h2.05c0.58,0 1.0167,0.063 1.31,0.19c0.2933,0.12 0.49,0.287 0.59,0.5c0.1,0.213 0.15,0.463 0.15,0.75c0,0.38 -0.0833,0.66 -0.25,0.84c-0.16,0.173 -0.3733,0.297 -0.64,0.37c0.28,0.067 0.4933,0.167 0.64,0.3c0.1467,0.133 0.2467,0.297 0.3,0.49c0.06,0.193 0.09,0.417 0.09,0.67c0,0.373 -0.07,0.687 -0.21,0.94c-0.14,0.247 -0.3767,0.43 -0.71,0.55c-0.3333,0.12 -0.7867,0.18 -1.36,0.18zM19.13,183.1h0.27c0.1467,0 0.2767,-0.013 0.39,-0.04c0.1133,-0.027 0.2033,-0.097 0.27,-0.21c0.0733,-0.12 0.11,-0.31 0.11,-0.57c0,-0.293 -0.0333,-0.503 -0.1,-0.63c-0.06,-0.127 -0.1467,-0.203 -0.26,-0.23c-0.1133,-0.027 -0.2467,-0.04 -0.4,-0.04h-0.28zM19.13,180.5h0.41c0.1933,0 0.3267,-0.06 0.4,-0.18c0.0733,-0.127 0.11,-0.3 0.11,-0.52c0,-0.213 -0.04,-0.39 -0.12,-0.53c-0.0733,-0.14 -0.2433,-0.21 -0.51,-0.21h-0.29zM24.4588,184.1c-0.4133,0 -0.7733,-0.07 -1.08,-0.21c-0.3,-0.14 -0.5333,-0.35 -0.7,-0.63c-0.16,-0.28 -0.24,-0.63 -0.24,-1.05v-2.2c0,-0.42 0.08,-0.77 0.24,-1.05c0.1667,-0.28 0.4,-0.49 0.7,-0.63c0.3067,-0.14 0.6667,-0.21 1.08,-0.21c0.4134,0 0.77,0.07 1.07,0.21c0.3067,0.14 0.5434,0.35 0.71,0.63c0.1667,0.28 0.25,0.63 0.25,1.05v2.2c0,0.42 -0.0833,0.77 -0.25,1.05c-0.1666,0.28 -0.4033,0.49 -0.71,0.63c-0.3,0.14 -0.6566,0.21 -1.07,0.21zM24.4688,183.02c0.1067,0 0.19,-0.027 0.25,-0.08c0.06,-0.06 0.1,-0.14 0.12,-0.24c0.0267,-0.107 0.04,-0.233 0.04,-0.38v-2.42c0,-0.147 -0.0133,-0.27 -0.04,-0.37c-0.02,-0.107 -0.06,-0.187 -0.12,-0.24c-0.06,-0.06 -0.1433,-0.09 -0.25,-0.09c-0.1066,0 -0.19,0.03 -0.25,0.09c-0.06,0.053 -0.1033,0.133 -0.13,0.24c-0.0266,0.1 -0.04,0.223 -0.04,0.37v2.42c0,0.147 0.0134,0.273 0.04,0.38c0.0267,0.1 0.07,0.18 0.13,0.24c0.06,0.053 0.1434,0.08 0.25,0.08zM29.1128,184.11c-0.4,0 -0.7233,-0.053 -0.97,-0.16c-0.24,-0.113 -0.4267,-0.263 -0.56,-0.45c-0.1267,-0.193 -0.2133,-0.41 -0.26,-0.65c-0.04,-0.247 -0.06,-0.503 -0.06,-0.77h1.29c0,0.307 0.0467,0.537 0.14,0.69c0.1,0.147 0.2533,0.22 0.46,0.22c0.1533,0 0.27,-0.033 0.35,-0.1c0.08,-0.067 0.1333,-0.16 0.16,-0.28c0.0333,-0.12 0.05,-0.253 0.05,-0.4c0,-0.193 -0.0367,-0.347 -0.11,-0.46c-0.0667,-0.113 -0.18,-0.193 -0.34,-0.24c-0.1533,-0.053 -0.3633,-0.08 -0.63,-0.08v-0.84c0.4,0 0.66,-0.053 0.78,-0.16c0.1267,-0.107 0.19,-0.293 0.19,-0.56c0,-0.193 -0.04,-0.347 -0.12,-0.46c-0.0733,-0.113 -0.2067,-0.17 -0.4,-0.17c-0.2067,0 -0.3533,0.06 -0.44,0.18c-0.08,0.113 -0.12,0.317 -0.12,0.61h-1.28c0,-0.347 0.0533,-0.663 0.16,-0.95c0.1067,-0.293 0.2967,-0.527 0.57,-0.7c0.28,-0.173 0.6767,-0.26 1.19,-0.26c0.4533,0 0.82,0.073 1.1,0.22c0.2867,0.14 0.4933,0.333 0.62,0.58c0.1333,0.24 0.2,0.513 0.2,0.82c0,0.253 -0.04,0.467 -0.12,0.64c-0.08,0.173 -0.1833,0.31 -0.31,0.41c-0.1267,0.093 -0.2667,0.163 -0.42,0.21c0.1667,0.06 0.3133,0.14 0.44,0.24c0.1333,0.1 0.24,0.243 0.32,0.43c0.08,0.18 0.12,0.427 0.12,0.74c0,0.487 -0.1567,0.893 -0.47,1.22c-0.3133,0.32 -0.8233,0.48 -1.53,0.48zM31.8948,185.9v-7.68h1.63v0.42c0.1933,-0.173 0.4,-0.303 0.62,-0.39c0.22,-0.087 0.43,-0.13 0.63,-0.13c0.22,0 0.4066,0.043 0.56,0.13c0.16,0.087 0.29,0.21 0.39,0.37c0.1,0.153 0.1733,0.333 0.22,0.54c0.0466,0.207 0.07,0.427 0.07,0.66v2.49c0,0.36 -0.05,0.673 -0.15,0.94c-0.0934,0.267 -0.2334,0.477 -0.42,0.63c-0.1867,0.147 -0.4167,0.22 -0.69,0.22c-0.2067,0 -0.4167,-0.047 -0.63,-0.14c-0.2067,-0.1 -0.4067,-0.233 -0.6,-0.4v2.34zM33.9548,183.05c0.1066,0 0.19,-0.03 0.25,-0.09c0.06,-0.06 0.1033,-0.137 0.13,-0.23c0.0333,-0.1 0.05,-0.21 0.05,-0.33v-2.7c0,-0.113 -0.0134,-0.213 -0.04,-0.3c-0.0267,-0.093 -0.07,-0.167 -0.13,-0.22c-0.06,-0.053 -0.1367,-0.08 -0.23,-0.08c-0.0867,0 -0.17,0.02 -0.25,0.06c-0.0734,0.033 -0.1434,0.08 -0.21,0.14v3.6c0.0733,0.047 0.1433,0.083 0.21,0.11c0.0733,0.027 0.1466,0.04 0.22,0.04zM38.1336,184.1c-0.2933,0 -0.54,-0.07 -0.74,-0.21c-0.2,-0.14 -0.35,-0.317 -0.45,-0.53c-0.1,-0.22 -0.15,-0.443 -0.15,-0.67c0,-0.36 0.07,-0.663 0.21,-0.91c0.1467,-0.247 0.3367,-0.453 0.57,-0.62c0.2333,-0.167 0.49,-0.307 0.77,-0.42c0.28,-0.12 0.5567,-0.227 0.83,-0.32v-0.58c0,-0.1 -0.01,-0.187 -0.03,-0.26c-0.02,-0.08 -0.0533,-0.14 -0.1,-0.18c-0.0467,-0.047 -0.1167,-0.07 -0.21,-0.07c-0.0933,0 -0.1667,0.02 -0.22,0.06c-0.0467,0.04 -0.08,0.097 -0.1,0.17c-0.02,0.067 -0.0333,0.143 -0.04,0.23l-0.04,0.42l-1.52,-0.06c0.0333,-0.693 0.2167,-1.203 0.55,-1.53c0.34,-0.333 0.8467,-0.5 1.52,-0.5c0.5867,0 1.0233,0.163 1.31,0.49c0.2933,0.32 0.44,0.737 0.44,1.25v2.7c0,0.24 0.0033,0.45 0.01,0.63c0.0133,0.18 0.0267,0.337 0.04,0.47c0.02,0.133 0.0367,0.247 0.05,0.34h-1.46c-0.02,-0.153 -0.0433,-0.32 -0.07,-0.5c-0.0267,-0.18 -0.0467,-0.287 -0.06,-0.32c-0.0667,0.24 -0.1933,0.453 -0.38,0.64c-0.18,0.187 -0.4233,0.28 -0.73,0.28zM38.7136,183c0.0667,0 0.1267,-0.013 0.18,-0.04c0.06,-0.027 0.1133,-0.063 0.16,-0.11c0.0467,-0.047 0.0867,-0.093 0.12,-0.14v-1.58c-0.1333,0.08 -0.2567,0.163 -0.37,0.25c-0.1133,0.08 -0.21,0.17 -0.29,0.27c-0.08,0.1 -0.1433,0.21 -0.19,0.33c-0.04,0.113 -0.06,0.243 -0.06,0.39c0,0.193 0.04,0.347 0.12,0.46c0.08,0.113 0.19,0.17 0.33,0.17zM43.5795,184.1c-0.42,0 -0.78,-0.077 -1.08,-0.23c-0.2934,-0.153 -0.52,-0.373 -0.68,-0.66c-0.16,-0.287 -0.24,-0.633 -0.24,-1.04v-2.12c0,-0.413 0.08,-0.763 0.24,-1.05c0.16,-0.287 0.3866,-0.503 0.68,-0.65c0.3,-0.153 0.66,-0.23 1.08,-0.23c0.4133,0 0.7633,0.063 1.05,0.19c0.2933,0.127 0.5166,0.32 0.67,0.58c0.1533,0.253 0.23,0.577 0.23,0.97v0.61h-1.57v-0.66c0,-0.153 -0.0167,-0.27 -0.05,-0.35c-0.0267,-0.087 -0.07,-0.147 -0.13,-0.18c-0.0534,-0.033 -0.12,-0.05 -0.2,-0.05c-0.08,0 -0.1467,0.023 -0.2,0.07c-0.0534,0.04 -0.0934,0.11 -0.12,0.21c-0.0267,0.093 -0.04,0.227 -0.04,0.4v2.4c0,0.26 0.03,0.437 0.09,0.53c0.0666,0.093 0.16,0.14 0.28,0.14c0.0866,0 0.1566,-0.017 0.21,-0.05c0.0533,-0.04 0.0933,-0.1 0.12,-0.18c0.0266,-0.087 0.04,-0.2 0.04,-0.34v-0.77h1.57v0.7c0,0.387 -0.08,0.713 -0.24,0.98c-0.1534,0.26 -0.3767,0.457 -0.67,0.59c-0.2867,0.127 -0.6334,0.19 -1.04,0.19zM47.0772,184v-4.68h-1.05v-1.1h3.72v1.1h-1.05v4.68zM50.5899,179.88v-1.52h1.52v1.52zM50.5899,183.44v-1.52h1.52v1.52z" fill="#0d0e12"/><path d="M17.51,196v-5.78h1.63v2.28h0.24l0.88,-2.28h1.75l-1.14,2.73l1.17,3.05h-1.72l-0.94,-2.56h-0.24v2.56zM22.797,197.68v-1.13c0.2066,0 0.3766,-0.013 0.51,-0.04c0.14,-0.027 0.2433,-0.077 0.31,-0.15c0.0733,-0.073 0.11,-0.173 0.11,-0.3c0,-0.113 -0.02,-0.25 -0.06,-0.41c-0.04,-0.167 -0.09,-0.353 -0.15,-0.56l-1.36,-4.87h1.53l0.73,3.34l0.55,-3.34h1.54l-1.33,5.92c-0.0867,0.4 -0.2234,0.71 -0.41,0.93c-0.1867,0.227 -0.4167,0.383 -0.69,0.47c-0.2667,0.093 -0.57,0.14 -0.91,0.14zM29.0094,196.1c-0.5334,-0.013 -0.9434,-0.11 -1.23,-0.29c-0.28,-0.18 -0.47,-0.44 -0.57,-0.78c-0.1,-0.347 -0.15,-0.76 -0.15,-1.24v-3.23c0,-0.533 0.0533,-0.96 0.16,-1.28c0.1133,-0.32 0.2666,-0.567 0.46,-0.74c0.2,-0.173 0.43,-0.307 0.69,-0.4c0.26,-0.093 0.52,-0.167 0.78,-0.22c0.2666,-0.053 0.5233,-0.113 0.77,-0.18c0.2533,-0.073 0.4866,-0.18 0.7,-0.32l0.06,1.31c-0.22,0.113 -0.4534,0.197 -0.7,0.25c-0.24,0.047 -0.4767,0.09 -0.71,0.13c-0.2267,0.033 -0.4367,0.09 -0.63,0.17c-0.1734,0.067 -0.2967,0.193 -0.37,0.38c-0.0734,0.18 -0.11,0.43 -0.11,0.75v0.44c0.0866,-0.1 0.1933,-0.183 0.32,-0.25c0.1333,-0.067 0.2866,-0.117 0.46,-0.15c0.18,-0.033 0.3766,-0.05 0.59,-0.05c0.3533,0 0.64,0.067 0.86,0.2c0.22,0.133 0.38,0.353 0.48,0.66c0.1066,0.307 0.16,0.723 0.16,1.25v1.41c0,0.593 -0.0867,1.05 -0.26,1.37c-0.1667,0.313 -0.4034,0.527 -0.71,0.64c-0.3,0.113 -0.65,0.17 -1.05,0.17zM29.0794,195.05c0.1266,0 0.2166,-0.033 0.27,-0.1c0.06,-0.067 0.1,-0.19 0.12,-0.37c0.02,-0.187 0.03,-0.46 0.03,-0.82v-1.54c0,-0.22 -0.01,-0.393 -0.03,-0.52c-0.02,-0.133 -0.06,-0.227 -0.12,-0.28c-0.06,-0.053 -0.1467,-0.08 -0.26,-0.08c-0.0734,0 -0.1434,0.023 -0.21,0.07c-0.06,0.04 -0.11,0.11 -0.15,0.21c-0.04,0.093 -0.0734,0.227 -0.1,0.4v1.73c0,0.353 0.01,0.623 0.03,0.81c0.02,0.187 0.0633,0.317 0.13,0.39c0.0666,0.067 0.1633,0.1 0.29,0.1zM31.9534,196v-5.78h1.63v2.28h0.24l0.88,-2.28h1.75l-1.14,2.73l1.17,3.05h-1.72l-0.94,-2.56h-0.24v2.56zM37.0803,196v-5.78h1.29v3.09l1.51,-3.09h1.27v5.78h-1.32v-3.06l-1.47,3.06zM42.3184,191.88v-1.52h1.52v1.52zM42.3184,195.44v-1.52h1.52v1.52z" fill="#0d0e12"/><path d="M19.39,208.1c-0.42,0 -0.78,-0.077 -1.08,-0.23c-0.2933,-0.153 -0.52,-0.373 -0.68,-0.66c-0.16,-0.287 -0.24,-0.633 -0.24,-1.04v-2.12c0,-0.413 0.08,-0.763 0.24,-1.05c0.16,-0.287 0.3867,-0.503 0.68,-0.65c0.3,-0.153 0.66,-0.23 1.08,-0.23c0.4133,0 0.7633,0.063 1.05,0.19c0.2933,0.127 0.5167,0.32 0.67,0.58c0.1533,0.253 0.23,0.577 0.23,0.97v0.61h-1.57v-0.66c0,-0.153 -0.0167,-0.27 -0.05,-0.35c-0.0267,-0.087 -0.07,-0.147 -0.13,-0.18c-0.0533,-0.033 -0.12,-0.05 -0.2,-0.05c-0.08,0 -0.1467,0.023 -0.2,0.07c-0.0533,0.04 -0.0933,0.11 -0.12,0.21c-0.0267,0.093 -0.04,0.227 -0.04,0.4v2.4c0,0.26 0.03,0.437 0.09,0.53c0.0667,0.093 0.16,0.14 0.28,0.14c0.0867,0 0.1567,-0.017 0.21,-0.05c0.0533,-0.04 0.0933,-0.1 0.12,-0.18c0.0267,-0.087 0.04,-0.2 0.04,-0.34v-0.77h1.57v0.7c0,0.387 -0.08,0.713 -0.24,0.98c-0.1533,0.26 -0.3767,0.457 -0.67,0.59c-0.2867,0.127 -0.6333,0.19 -1.04,0.19zM22.1877,208v-5.78h1.63v2.32c0.0067,0 0.01,0 0.01,0c0.0067,0 0.0134,0 0.02,0c0.0067,0 0.0134,0 0.02,0c0.4,0 0.7534,0.03 1.06,0.09c0.3067,0.053 0.56,0.147 0.76,0.28c0.2067,0.127 0.3634,0.3 0.47,0.52c0.1067,0.22 0.16,0.497 0.16,0.83c0,0.313 -0.0466,0.58 -0.14,0.8c-0.0866,0.22 -0.23,0.4 -0.43,0.54c-0.1933,0.14 -0.4466,0.243 -0.76,0.31c-0.3066,0.06 -0.6766,0.09 -1.11,0.09zM23.8177,207.07h0.03c0.2467,0 0.44,-0.023 0.58,-0.07c0.1467,-0.053 0.25,-0.137 0.31,-0.25c0.0667,-0.12 0.1,-0.277 0.1,-0.47c0,-0.207 -0.0333,-0.363 -0.1,-0.47c-0.06,-0.113 -0.1633,-0.193 -0.31,-0.24c-0.14,-0.047 -0.3266,-0.07 -0.56,-0.07c-0.0066,0 -0.0166,0 -0.03,0c-0.0066,0 -0.0133,0 -0.02,0zM26.9377,208v-5.78h1.63v5.78zM29.5901,208v-5.78h2.88v1.1h-1.25v4.68zM33.1057,209.9v-7.68h1.63v0.42c0.1933,-0.173 0.4,-0.303 0.62,-0.39c0.22,-0.087 0.43,-0.13 0.63,-0.13c0.22,0 0.4067,0.043 0.56,0.13c0.16,0.087 0.29,0.21 0.39,0.37c0.1,0.153 0.1733,0.333 0.22,0.54c0.0467,0.207 0.07,0.427 0.07,0.66v2.49c0,0.36 -0.05,0.673 -0.15,0.94c-0.0933,0.267 -0.2333,0.477 -0.42,0.63c-0.1867,0.147 -0.4167,0.22 -0.69,0.22c-0.2067,0 -0.4167,-0.047 -0.63,-0.14c-0.2067,-0.1 -0.4067,-0.233 -0.6,-0.4v2.34zM35.1657,207.05c0.1067,0 0.19,-0.03 0.25,-0.09c0.06,-0.06 0.1033,-0.137 0.13,-0.23c0.0333,-0.1 0.05,-0.21 0.05,-0.33v-2.7c0,-0.113 -0.0133,-0.213 -0.04,-0.3c-0.0267,-0.093 -0.07,-0.167 -0.13,-0.22c-0.06,-0.053 -0.1367,-0.08 -0.23,-0.08c-0.0867,0 -0.17,0.02 -0.25,0.06c-0.0733,0.033 -0.1433,0.08 -0.21,0.14v3.6c0.0733,0.047 0.1433,0.083 0.21,0.11c0.0733,0.027 0.1467,0.04 0.22,0.04zM39.3445,208.1c-0.2933,0 -0.54,-0.07 -0.74,-0.21c-0.2,-0.14 -0.35,-0.317 -0.45,-0.53c-0.1,-0.22 -0.15,-0.443 -0.15,-0.67c0,-0.36 0.07,-0.663 0.21,-0.91c0.1467,-0.247 0.3367,-0.453 0.57,-0.62c0.2334,-0.167 0.49,-0.307 0.77,-0.42c0.28,-0.12 0.5567,-0.227 0.83,-0.32v-0.58c0,-0.1 -0.01,-0.187 -0.03,-0.26c-0.02,-0.08 -0.0533,-0.14 -0.1,-0.18c-0.0466,-0.047 -0.1166,-0.07 -0.21,-0.07c-0.0933,0 -0.1666,0.02 -0.22,0.06c-0.0466,0.04 -0.08,0.097 -0.1,0.17c-0.02,0.067 -0.0333,0.143 -0.04,0.23l-0.04,0.42l-1.52,-0.06c0.0334,-0.693 0.2167,-1.203 0.55,-1.53c0.34,-0.333 0.8467,-0.5 1.52,-0.5c0.5867,0 1.0234,0.163 1.31,0.49c0.2934,0.32 0.44,0.737 0.44,1.25v2.7c0,0.24 0.0034,0.45 0.01,0.63c0.0134,0.18 0.0267,0.337 0.04,0.47c0.02,0.133 0.0367,0.247 0.05,0.34h-1.46c-0.02,-0.153 -0.0433,-0.32 -0.07,-0.5c-0.0266,-0.18 -0.0466,-0.287 -0.06,-0.32c-0.0666,0.24 -0.1933,0.453 -0.38,0.64c-0.18,0.187 -0.4233,0.28 -0.73,0.28zM39.9245,207c0.0667,0 0.1267,-0.013 0.18,-0.04c0.06,-0.027 0.1134,-0.063 0.16,-0.11c0.0467,-0.047 0.0867,-0.093 0.12,-0.14v-1.58c-0.1333,0.08 -0.2566,0.163 -0.37,0.25c-0.1133,0.08 -0.21,0.17 -0.29,0.27c-0.08,0.1 -0.1433,0.21 -0.19,0.33c-0.04,0.113 -0.06,0.243 -0.06,0.39c0,0.193 0.04,0.347 0.12,0.46c0.08,0.113 0.19,0.17 0.33,0.17zM42.9104,208v-5.78h1.63v2.24h0.97v-2.24h1.64v5.78h-1.64v-2.42h-0.97v2.42zM50.0643,208.1c-0.4133,0 -0.7733,-0.07 -1.08,-0.21c-0.3,-0.14 -0.5333,-0.35 -0.7,-0.63c-0.16,-0.28 -0.24,-0.63 -0.24,-1.05v-2.2c0,-0.42 0.08,-0.77 0.24,-1.05c0.1667,-0.28 0.4,-0.49 0.7,-0.63c0.3067,-0.14 0.6667,-0.21 1.08,-0.21c0.4133,0 0.77,0.07 1.07,0.21c0.3067,0.14 0.5433,0.35 0.71,0.63c0.1667,0.28 0.25,0.63 0.25,1.05v2.2c0,0.42 -0.0833,0.77 -0.25,1.05c-0.1667,0.28 -0.4033,0.49 -0.71,0.63c-0.3,0.14 -0.6567,0.21 -1.07,0.21zM50.0743,207.02c0.1067,0 0.19,-0.027 0.25,-0.08c0.06,-0.06 0.1,-0.14 0.12,-0.24c0.0267,-0.107 0.04,-0.233 0.04,-0.38v-2.42c0,-0.147 -0.0133,-0.27 -0.04,-0.37c-0.02,-0.107 -0.06,-0.187 -0.12,-0.24c-0.06,-0.06 -0.1433,-0.09 -0.25,-0.09c-0.1067,0 -0.19,0.03 -0.25,0.09c-0.06,0.053 -0.1033,0.133 -0.13,0.24c-0.0267,0.1 -0.04,0.223 -0.04,0.37v2.42c0,0.147 0.0133,0.273 0.04,0.38c0.0267,0.1 0.07,0.18 0.13,0.24c0.06,0.053 0.1433,0.08 0.25,0.08zM55.5569,208v-5.78h4.1v5.78h-1.63v-4.67h-0.84v4.67zM61.8543,208.1c-0.2933,0 -0.54,-0.07 -0.74,-0.21c-0.2,-0.14 -0.35,-0.317 -0.45,-0.53c-0.1,-0.22 -0.15,-0.443 -0.15,-0.67c0,-0.36 0.07,-0.663 0.21,-0.91c0.1467,-0.247 0.3367,-0.453 0.57,-0.62c0.2333,-0.167 0.49,-0.307 0.77,-0.42c0.28,-0.12 0.5567,-0.227 0.83,-0.32v-0.58c0,-0.1 -0.01,-0.187 -0.03,-0.26c-0.02,-0.08 -0.0533,-0.14 -0.1,-0.18c-0.0467,-0.047 -0.1167,-0.07 -0.21,-0.07c-0.0933,0 -0.1667,0.02 -0.22,0.06c-0.0467,0.04 -0.08,0.097 -0.1,0.17c-0.02,0.067 -0.0333,0.143 -0.04,0.23l-0.04,0.42l-1.52,-0.06c0.0333,-0.693 0.2167,-1.203 0.55,-1.53c0.34,-0.333 0.8467,-0.5 1.52,-0.5c0.5867,0 1.0233,0.163 1.31,0.49c0.2933,0.32 0.44,0.737 0.44,1.25v2.7c0,0.24 0.0033,0.45 0.01,0.63c0.0133,0.18 0.0267,0.337 0.04,0.47c0.02,0.133 0.0367,0.247 0.05,0.34h-1.46c-0.02,-0.153 -0.0433,-0.32 -0.07,-0.5c-0.0267,-0.18 -0.0467,-0.287 -0.06,-0.32c-0.0667,0.24 -0.1933,0.453 -0.38,0.64c-0.18,0.187 -0.4233,0.28 -0.73,0.28zM62.4343,207c0.0667,0 0.1267,-0.013 0.18,-0.04c0.06,-0.027 0.1133,-0.063 0.16,-0.11c0.0467,-0.047 0.0867,-0.093 0.12,-0.14v-1.58c-0.1333,0.08 -0.2567,0.163 -0.37,0.25c-0.1133,0.08 -0.21,0.17 -0.29,0.27c-0.08,0.1 -0.1433,0.21 -0.19,0.33c-0.04,0.113 -0.06,0.243 -0.06,0.39c0,0.193 0.04,0.347 0.12,0.46c0.08,0.113 0.19,0.17 0.33,0.17zM65.4202,209.9v-7.68h1.63v0.42c0.1933,-0.173 0.4,-0.303 0.62,-0.39c0.22,-0.087 0.43,-0.13 0.63,-0.13c0.22,0 0.4066,0.043 0.56,0.13c0.16,0.087 0.29,0.21 0.39,0.37c0.1,0.153 0.1733,0.333 0.22,0.54c0.0466,0.207 0.07,0.427 0.07,0.66v2.49c0,0.36 -0.05,0.673 -0.15,0.94c-0.0934,0.267 -0.2334,0.477 -0.42,0.63c-0.1867,0.147 -0.4167,0.22 -0.69,0.22c-0.2067,0 -0.4167,-0.047 -0.63,-0.14c-0.2067,-0.1 -0.4067,-0.233 -0.6,-0.4v2.34zM67.4802,207.05c0.1066,0 0.19,-0.03 0.25,-0.09c0.06,-0.06 0.1033,-0.137 0.13,-0.23c0.0333,-0.1 0.05,-0.21 0.05,-0.33v-2.7c0,-0.113 -0.0134,-0.213 -0.04,-0.3c-0.0267,-0.093 -0.07,-0.167 -0.13,-0.22c-0.06,-0.053 -0.1367,-0.08 -0.23,-0.08c-0.0867,0 -0.17,0.02 -0.25,0.06c-0.0734,0.033 -0.1434,0.08 -0.21,0.14v3.6c0.0733,0.047 0.1433,0.083 0.21,0.11c0.0733,0.027 0.1466,0.04 0.22,0.04zM71.169,208v-4.68h-1.05v-1.1h3.72v1.1h-1.05v4.68zM74.5217,208v-5.78h1.29v3.09l1.51,-3.09h1.27v5.78h-1.32v-3.06l-1.47,3.06zM79.5998,208v-5.78h1.29v3.09l1.51,-3.09h1.27v5.78h-1.32v-3.06l-1.47,3.06zM81.6498,201.57c-0.4733,0 -0.8533,-0.133 -1.14,-0.4c-0.2866,-0.267 -0.43,-0.653 -0.43,-1.16h0.92c0,0.247 0.0467,0.43 0.14,0.55c0.1,0.12 0.27,0.18 0.51,0.18c0.2334,0 0.4,-0.06 0.5,-0.18c0.1,-0.127 0.15,-0.31 0.15,-0.55h0.92c0,0.507 -0.1433,0.893 -0.43,1.16c-0.2866,0.267 -0.6666,0.4 -1.14,0.4zM84.838,203.88v-1.52h1.52v1.52zM84.838,207.44v-1.52h1.52v1.52z" fill="#0d0e12"/><path d="M17.51,221v-5.78h4.1v5.78h-1.63v-4.67h-0.84v4.67zM24.5174,221.1c-0.4133,0 -0.7733,-0.07 -1.08,-0.21c-0.3,-0.14 -0.5333,-0.35 -0.7,-0.63c-0.16,-0.28 -0.24,-0.63 -0.24,-1.05v-2.2c0,-0.42 0.08,-0.77 0.24,-1.05c0.1667,-0.28 0.4,-0.49 0.7,-0.63c0.3067,-0.14 0.6667,-0.21 1.08,-0.21c0.4134,0 0.77,0.07 1.07,0.21c0.3067,0.14 0.5434,0.35 0.71,0.63c0.1667,0.28 0.25,0.63 0.25,1.05v2.2c0,0.42 -0.0833,0.77 -0.25,1.05c-0.1666,0.28 -0.4033,0.49 -0.71,0.63c-0.3,0.14 -0.6566,0.21 -1.07,0.21zM24.5274,220.02c0.1067,0 0.19,-0.027 0.25,-0.08c0.06,-0.06 0.1,-0.14 0.12,-0.24c0.0267,-0.107 0.04,-0.233 0.04,-0.38v-2.42c0,-0.147 -0.0133,-0.27 -0.04,-0.37c-0.02,-0.107 -0.06,-0.187 -0.12,-0.24c-0.06,-0.06 -0.1433,-0.09 -0.25,-0.09c-0.1066,0 -0.19,0.03 -0.25,0.09c-0.06,0.053 -0.1033,0.133 -0.13,0.24c-0.0266,0.1 -0.04,0.223 -0.04,0.37v2.42c0,0.147 0.0134,0.273 0.04,0.38c0.0267,0.1 0.07,0.18 0.13,0.24c0.06,0.053 0.1434,0.08 0.25,0.08zM29.3414,221.1c-0.5333,-0.013 -0.9433,-0.11 -1.23,-0.29c-0.28,-0.18 -0.47,-0.44 -0.57,-0.78c-0.1,-0.347 -0.15,-0.76 -0.15,-1.24v-3.23c0,-0.533 0.0533,-0.96 0.16,-1.28c0.1133,-0.32 0.2667,-0.567 0.46,-0.74c0.2,-0.173 0.43,-0.307 0.69,-0.4c0.26,-0.093 0.52,-0.167 0.78,-0.22c0.2667,-0.053 0.5233,-0.113 0.77,-0.18c0.2533,-0.073 0.4867,-0.18 0.7,-0.32l0.06,1.31c-0.22,0.113 -0.4533,0.197 -0.7,0.25c-0.24,0.047 -0.4767,0.09 -0.71,0.13c-0.2267,0.033 -0.4367,0.09 -0.63,0.17c-0.1733,0.067 -0.2967,0.193 -0.37,0.38c-0.0733,0.18 -0.11,0.43 -0.11,0.75v0.44c0.0867,-0.1 0.1933,-0.183 0.32,-0.25c0.1333,-0.067 0.2867,-0.117 0.46,-0.15c0.18,-0.033 0.3767,-0.05 0.59,-0.05c0.3533,0 0.64,0.067 0.86,0.2c0.22,0.133 0.38,0.353 0.48,0.66c0.1067,0.307 0.16,0.723 0.16,1.25v1.41c0,0.593 -0.0867,1.05 -0.26,1.37c-0.1667,0.313 -0.4033,0.527 -0.71,0.64c-0.3,0.113 -0.65,0.17 -1.05,0.17zM29.4114,220.05c0.1267,0 0.2167,-0.033 0.27,-0.1c0.06,-0.067 0.1,-0.19 0.12,-0.37c0.02,-0.187 0.03,-0.46 0.03,-0.82v-1.54c0,-0.22 -0.01,-0.393 -0.03,-0.52c-0.02,-0.133 -0.06,-0.227 -0.12,-0.28c-0.06,-0.053 -0.1467,-0.08 -0.26,-0.08c-0.0733,0 -0.1433,0.023 -0.21,0.07c-0.06,0.04 -0.11,0.11 -0.15,0.21c-0.04,0.093 -0.0733,0.227 -0.1,0.4v1.73c0,0.353 0.01,0.623 0.03,0.81c0.02,0.187 0.0633,0.317 0.13,0.39c0.0667,0.067 0.1633,0.1 0.29,0.1zM34.1754,221.1c-0.42,0 -0.78,-0.073 -1.08,-0.22c-0.3,-0.153 -0.53,-0.373 -0.69,-0.66c-0.16,-0.293 -0.24,-0.643 -0.24,-1.05v-2.12c0,-0.413 0.08,-0.763 0.24,-1.05c0.16,-0.287 0.39,-0.503 0.69,-0.65c0.3067,-0.153 0.6667,-0.23 1.08,-0.23c0.4267,0 0.78,0.073 1.06,0.22c0.2867,0.147 0.5,0.363 0.64,0.65c0.1467,0.287 0.22,0.64 0.22,1.06v1.16h-2.32v1.11c0,0.147 0.0167,0.267 0.05,0.36c0.0333,0.093 0.08,0.16 0.14,0.2c0.06,0.04 0.13,0.06 0.21,0.06c0.08,0 0.15,-0.017 0.21,-0.05c0.0667,-0.04 0.1167,-0.1 0.15,-0.18c0.04,-0.08 0.06,-0.19 0.06,-0.33v-0.61h1.5v0.56c0,0.587 -0.17,1.03 -0.51,1.33c-0.34,0.293 -0.81,0.44 -1.41,0.44zM33.7754,217.45h0.82v-0.58c0,-0.153 -0.02,-0.273 -0.06,-0.36c-0.0333,-0.087 -0.0833,-0.147 -0.15,-0.18c-0.06,-0.033 -0.1333,-0.05 -0.22,-0.05c-0.08,0 -0.15,0.02 -0.21,0.06c-0.0533,0.04 -0.0967,0.11 -0.13,0.21c-0.0333,0.093 -0.05,0.23 -0.05,0.41zM36.7927,222.57v-2.56c0.22,-0.1 0.41,-0.23 0.57,-0.39c0.16,-0.167 0.2966,-0.367 0.41,-0.6c0.1133,-0.24 0.2033,-0.517 0.27,-0.83c0.0666,-0.32 0.1133,-0.683 0.14,-1.09l0.17,-1.88h3.18v4.78h0.84v2.57h-1.17l-0.11,-1.57h-3.02l-0.09,1.57zM38.5527,220h1.49v-3.81h-0.48l-0.12,1.3c-0.02,0.367 -0.0567,0.687 -0.11,0.96c-0.0534,0.267 -0.12,0.5 -0.2,0.7c-0.0734,0.193 -0.16,0.36 -0.26,0.5c-0.1,0.133 -0.2067,0.25 -0.32,0.35zM43.2169,216.88v-1.52h1.52v1.52zM43.2169,220.44v-1.52h1.52v1.52z" fill="#0d0e12"/><path d="M17.51,233v-5.78h4.1v5.78h-1.63v-4.67h-0.84v4.67zM24.5174,233.1c-0.4133,0 -0.7733,-0.07 -1.08,-0.21c-0.3,-0.14 -0.5333,-0.35 -0.7,-0.63c-0.16,-0.28 -0.24,-0.63 -0.24,-1.05v-2.2c0,-0.42 0.08,-0.77 0.24,-1.05c0.1667,-0.28 0.4,-0.49 0.7,-0.63c0.3067,-0.14 0.6667,-0.21 1.08,-0.21c0.4134,0 0.77,0.07 1.07,0.21c0.3067,0.14 0.5434,0.35 0.71,0.63c0.1667,0.28 0.25,0.63 0.25,1.05v2.2c0,0.42 -0.0833,0.77 -0.25,1.05c-0.1666,0.28 -0.4033,0.49 -0.71,0.63c-0.3,0.14 -0.6566,0.21 -1.07,0.21zM24.5274,232.02c0.1067,0 0.19,-0.027 0.25,-0.08c0.06,-0.06 0.1,-0.14 0.12,-0.24c0.0267,-0.107 0.04,-0.233 0.04,-0.38v-2.42c0,-0.147 -0.0133,-0.27 -0.04,-0.37c-0.02,-0.107 -0.06,-0.187 -0.12,-0.24c-0.06,-0.06 -0.1433,-0.09 -0.25,-0.09c-0.1066,0 -0.19,0.03 -0.25,0.09c-0.06,0.053 -0.1033,0.133 -0.13,0.24c-0.0266,0.1 -0.04,0.223 -0.04,0.37v2.42c0,0.147 0.0134,0.273 0.04,0.38c0.0267,0.1 0.07,0.18 0.13,0.24c0.06,0.053 0.1434,0.08 0.25,0.08zM27.4514,234.9v-7.68h1.63v0.42c0.1933,-0.173 0.4,-0.303 0.62,-0.39c0.22,-0.087 0.43,-0.13 0.63,-0.13c0.22,0 0.4067,0.043 0.56,0.13c0.16,0.087 0.29,0.21 0.39,0.37c0.1,0.153 0.1733,0.333 0.22,0.54c0.0467,0.207 0.07,0.427 0.07,0.66v2.49c0,0.36 -0.05,0.673 -0.15,0.94c-0.0933,0.267 -0.2333,0.477 -0.42,0.63c-0.1867,0.147 -0.4167,0.22 -0.69,0.22c-0.2067,0 -0.4167,-0.047 -0.63,-0.14c-0.2067,-0.1 -0.4067,-0.233 -0.6,-0.4v2.34zM29.5114,232.05c0.1067,0 0.19,-0.03 0.25,-0.09c0.06,-0.06 0.1033,-0.137 0.13,-0.23c0.0333,-0.1 0.05,-0.21 0.05,-0.33v-2.7c0,-0.113 -0.0133,-0.213 -0.04,-0.3c-0.0267,-0.093 -0.07,-0.167 -0.13,-0.22c-0.06,-0.053 -0.1367,-0.08 -0.23,-0.08c-0.0867,0 -0.17,0.02 -0.25,0.06c-0.0733,0.033 -0.1433,0.08 -0.21,0.14v3.6c0.0733,0.047 0.1433,0.083 0.21,0.11c0.0733,0.027 0.1467,0.04 0.22,0.04zM33.6902,233.1c-0.2933,0 -0.54,-0.07 -0.74,-0.21c-0.2,-0.14 -0.35,-0.317 -0.45,-0.53c-0.1,-0.22 -0.15,-0.443 -0.15,-0.67c0,-0.36 0.07,-0.663 0.21,-0.91c0.1467,-0.247 0.3367,-0.453 0.57,-0.62c0.2334,-0.167 0.49,-0.307 0.77,-0.42c0.28,-0.12 0.5567,-0.227 0.83,-0.32v-0.58c0,-0.1 -0.01,-0.187 -0.03,-0.26c-0.02,-0.08 -0.0533,-0.14 -0.1,-0.18c-0.0466,-0.047 -0.1166,-0.07 -0.21,-0.07c-0.0933,0 -0.1666,0.02 -0.22,0.06c-0.0466,0.04 -0.08,0.097 -0.1,0.17c-0.02,0.067 -0.0333,0.143 -0.04,0.23l-0.04,0.42l-1.52,-0.06c0.0334,-0.693 0.2167,-1.203 0.55,-1.53c0.34,-0.333 0.8467,-0.5 1.52,-0.5c0.5867,0 1.0234,0.163 1.31,0.49c0.2934,0.32 0.44,0.737 0.44,1.25v2.7c0,0.24 0.0034,0.45 0.01,0.63c0.0134,0.18 0.0267,0.337 0.04,0.47c0.02,0.133 0.0367,0.247 0.05,0.34h-1.46c-0.02,-0.153 -0.0433,-0.32 -0.07,-0.5c-0.0266,-0.18 -0.0466,-0.287 -0.06,-0.32c-0.0666,0.24 -0.1933,0.453 -0.38,0.64c-0.18,0.187 -0.4233,0.28 -0.73,0.28zM34.2702,232c0.0667,0 0.1267,-0.013 0.18,-0.04c0.06,-0.027 0.1134,-0.063 0.16,-0.11c0.0467,-0.047 0.0867,-0.093 0.12,-0.14v-1.58c-0.1333,0.08 -0.2566,0.163 -0.37,0.25c-0.1133,0.08 -0.21,0.17 -0.29,0.27c-0.08,0.1 -0.1433,0.21 -0.19,0.33c-0.04,0.113 -0.06,0.243 -0.06,0.39c0,0.193 0.04,0.347 0.12,0.46c0.08,0.113 0.19,0.17 0.33,0.17zM36.8161,233l1.15,-2.91l-1.08,-2.87h1.41l0.92,2.74h0.12v-2.74h1.36v2.74h0.11l0.98,-2.74h1.43l-1.15,2.87l1.21,2.91h-1.35l-1.12,-2.79h-0.11v2.79h-1.36v-2.79h-0.12l-1.05,2.79zM45.7477,233.1c-0.42,0 -0.78,-0.073 -1.08,-0.22c-0.3,-0.153 -0.53,-0.373 -0.69,-0.66c-0.16,-0.293 -0.24,-0.643 -0.24,-1.05v-2.12c0,-0.413 0.08,-0.763 0.24,-1.05c0.16,-0.287 0.39,-0.503 0.69,-0.65c0.3066,-0.153 0.6666,-0.23 1.08,-0.23c0.4266,0 0.78,0.073 1.06,0.22c0.2866,0.147 0.5,0.363 0.64,0.65c0.1466,0.287 0.22,0.64 0.22,1.06v1.16h-2.32v1.11c0,0.147 0.0166,0.267 0.05,0.36c0.0333,0.093 0.08,0.16 0.14,0.2c0.06,0.04 0.13,0.06 0.21,0.06c0.08,0 0.15,-0.017 0.21,-0.05c0.0666,-0.04 0.1166,-0.1 0.15,-0.18c0.04,-0.08 0.06,-0.19 0.06,-0.33v-0.61h1.5v0.56c0,0.587 -0.17,1.03 -0.51,1.33c-0.34,0.293 -0.81,0.44 -1.41,0.44zM45.3477,229.45h0.82v-0.58c0,-0.153 -0.02,-0.273 -0.06,-0.36c-0.0334,-0.087 -0.0834,-0.147 -0.15,-0.18c-0.06,-0.033 -0.1334,-0.05 -0.22,-0.05c-0.08,0 -0.15,0.02 -0.21,0.06c-0.0534,0.04 -0.0967,0.11 -0.13,0.21c-0.0334,0.093 -0.05,0.23 -0.05,0.41zM48.5549,233v-5.78h1.63v2.24h0.97v-2.24h1.64v5.78h-1.64v-2.42h-0.97v2.42zM53.8088,233v-5.78h1.29v3.09l1.51,-3.09h1.27v5.78h-1.32v-3.06l-1.47,3.06zM58.887,233v-5.78h1.29v3.09l1.51,-3.09h1.27v5.78h-1.32v-3.06l-1.47,3.06zM60.937,226.57c-0.4734,0 -0.8534,-0.133 -1.14,-0.4c-0.2867,-0.267 -0.43,-0.653 -0.43,-1.16h0.92c0,0.247 0.0466,0.43 0.14,0.55c0.1,0.12 0.27,0.18 0.51,0.18c0.2333,0 0.4,-0.06 0.5,-0.18c0.1,-0.127 0.15,-0.31 0.15,-0.55h0.92c0,0.507 -0.1434,0.893 -0.43,1.16c-0.2867,0.267 -0.6667,0.4 -1.14,0.4zM64.1251,228.88v-1.52h1.52v1.52zM64.1251,232.44v-1.52h1.52v1.52z" fill="#0d0e12"/><path d="M17.51,245v-5.78h1.63v2.24h0.97v-2.24h1.64v5.78h-1.64v-2.42h-0.97v2.42zM22.7639,245v-5.78h1.29v3.09l1.51,-3.09h1.27v5.78h-1.32v-3.06l-1.47,3.06zM30.152,245v-2.33c-0.0866,0.007 -0.1766,0.013 -0.27,0.02c-0.0866,0.007 -0.1733,0.01 -0.26,0.01c-0.4933,0 -0.88,-0.057 -1.16,-0.17c-0.2733,-0.12 -0.4666,-0.287 -0.58,-0.5c-0.1066,-0.22 -0.16,-0.48 -0.16,-0.78v-2.03h1.62v1.93c0,0.207 0.04,0.36 0.12,0.46c0.08,0.1 0.2434,0.157 0.49,0.17c0.0334,0 0.0634,0 0.09,0c0.0334,-0.007 0.07,-0.01 0.11,-0.01v-2.55h1.63v5.78zM34.693,245.1c-0.42,0 -0.78,-0.073 -1.08,-0.22c-0.3,-0.153 -0.53,-0.373 -0.69,-0.66c-0.16,-0.293 -0.24,-0.643 -0.24,-1.05v-2.12c0,-0.413 0.08,-0.763 0.24,-1.05c0.16,-0.287 0.39,-0.503 0.69,-0.65c0.3066,-0.153 0.6666,-0.23 1.08,-0.23c0.4266,0 0.78,0.073 1.06,0.22c0.2866,0.147 0.5,0.363 0.64,0.65c0.1466,0.287 0.22,0.64 0.22,1.06v1.16h-2.32v1.11c0,0.147 0.0166,0.267 0.05,0.36c0.0333,0.093 0.08,0.16 0.14,0.2c0.06,0.04 0.13,0.06 0.21,0.06c0.08,0 0.15,-0.017 0.21,-0.05c0.0666,-0.04 0.1166,-0.1 0.15,-0.18c0.04,-0.08 0.06,-0.19 0.06,-0.33v-0.61h1.5v0.56c0,0.587 -0.17,1.03 -0.51,1.33c-0.34,0.293 -0.81,0.44 -1.41,0.44zM34.293,241.45h0.82v-0.58c0,-0.153 -0.02,-0.273 -0.06,-0.36c-0.0334,-0.087 -0.0834,-0.147 -0.15,-0.18c-0.06,-0.033 -0.1334,-0.05 -0.22,-0.05c-0.08,0 -0.15,0.02 -0.21,0.06c-0.0534,0.04 -0.0967,0.11 -0.13,0.21c-0.0334,0.093 -0.05,0.23 -0.05,0.41zM37.5002,245v-5.78h1.29v3.09l1.51,-3.09h1.27v5.78h-1.32v-3.06l-1.47,3.06zM39.5502,238.57c-0.4733,0 -0.8533,-0.133 -1.14,-0.4c-0.2866,-0.267 -0.43,-0.653 -0.43,-1.16h0.92c0,0.247 0.0467,0.43 0.14,0.55c0.1,0.12 0.27,0.18 0.51,0.18c0.2334,0 0.4,-0.06 0.5,-0.18c0.1,-0.127 0.15,-0.31 0.15,-0.55h0.92c0,0.507 -0.1433,0.893 -0.43,1.16c-0.2866,0.267 -0.6666,0.4 -1.14,0.4zM42.7384,240.88v-1.52h1.52v1.52zM42.7384,244.44v-1.52h1.52v1.52z" fill="#0d0e12"/><path d="M255.447,158v-6.45c-0.073,0.04 -0.156,0.08 -0.25,0.12c-0.093,0.04 -0.193,0.083 -0.3,0.13c-0.1,0.04 -0.2,0.08 -0.3,0.12c-0.093,0.04 -0.18,0.08 -0.26,0.12v-1.24c0.074,-0.04 0.177,-0.093 0.31,-0.16c0.134,-0.073 0.277,-0.153 0.43,-0.24c0.154,-0.087 0.297,-0.173 0.43,-0.26c0.134,-0.093 0.234,-0.173 0.3,-0.24h1.31v8.1zM260.754,158.15c-0.487,0 -0.893,-0.097 -1.22,-0.29c-0.327,-0.2 -0.573,-0.473 -0.74,-0.82c-0.167,-0.347 -0.25,-0.75 -0.25,-1.21v-3.67c0,-0.473 0.077,-0.887 0.23,-1.24c0.16,-0.36 0.403,-0.64 0.73,-0.84c0.327,-0.2 0.743,-0.3 1.25,-0.3c0.507,0 0.92,0.1 1.24,0.3c0.327,0.2 0.567,0.48 0.72,0.84c0.16,0.353 0.24,0.767 0.24,1.24v3.67c0,0.453 -0.083,0.857 -0.25,1.21c-0.167,0.347 -0.413,0.62 -0.74,0.82c-0.327,0.193 -0.73,0.29 -1.21,0.29zM260.754,156.66c0.16,0 0.273,-0.05 0.34,-0.15c0.073,-0.107 0.117,-0.227 0.13,-0.36c0.02,-0.14 0.03,-0.26 0.03,-0.36v-3.59c0,-0.113 -0.007,-0.24 -0.02,-0.38c-0.013,-0.147 -0.057,-0.273 -0.13,-0.38c-0.067,-0.113 -0.183,-0.17 -0.35,-0.17c-0.167,0 -0.287,0.057 -0.36,0.17c-0.067,0.107 -0.107,0.233 -0.12,0.38c-0.013,0.14 -0.02,0.267 -0.02,0.38v3.59c0,0.1 0.01,0.22 0.03,0.36c0.02,0.133 0.063,0.253 0.13,0.36c0.073,0.1 0.187,0.15 0.34,0.15zM266.252,158.15c-0.487,0 -0.893,-0.097 -1.22,-0.29c-0.327,-0.2 -0.573,-0.473 -0.74,-0.82c-0.167,-0.347 -0.25,-0.75 -0.25,-1.21v-3.67c0,-0.473 0.077,-0.887 0.23,-1.24c0.16,-0.36 0.403,-0.64 0.73,-0.84c0.327,-0.2 0.743,-0.3 1.25,-0.3c0.507,0 0.92,0.1 1.24,0.3c0.327,0.2 0.567,0.48 0.72,0.84c0.16,0.353 0.24,0.767 0.24,1.24v3.67c0,0.453 -0.083,0.857 -0.25,1.21c-0.167,0.347 -0.413,0.62 -0.74,0.82c-0.327,0.193 -0.73,0.29 -1.21,0.29zM266.252,156.66c0.16,0 0.273,-0.05 0.34,-0.15c0.073,-0.107 0.117,-0.227 0.13,-0.36c0.02,-0.14 0.03,-0.26 0.03,-0.36v-3.59c0,-0.113 -0.007,-0.24 -0.02,-0.38c-0.013,-0.147 -0.057,-0.273 -0.13,-0.38c-0.067,-0.113 -0.183,-0.17 -0.35,-0.17c-0.167,0 -0.287,0.057 -0.36,0.17c-0.067,0.107 -0.107,0.233 -0.12,0.38c-0.013,0.14 -0.02,0.267 -0.02,0.38v3.59c0,0.1 0.01,0.22 0.03,0.36c0.02,0.133 0.063,0.253 0.13,0.36c0.073,0.1 0.187,0.15 0.34,0.15z" fill="#0d0e12"/><path d="M266.252,279.15c-0.487,0 -0.893,-0.097 -1.22,-0.29c-0.327,-0.2 -0.573,-0.473 -0.74,-0.82c-0.167,-0.347 -0.25,-0.75 -0.25,-1.21v-3.67c0,-0.473 0.077,-0.887 0.23,-1.24c0.16,-0.36 0.403,-0.64 0.73,-0.84c0.327,-0.2 0.743,-0.3 1.25,-0.3c0.507,0 0.92,0.1 1.24,0.3c0.327,0.2 0.567,0.48 0.72,0.84c0.16,0.353 0.24,0.767 0.24,1.24v3.67c0,0.453 -0.083,0.857 -0.25,1.21c-0.167,0.347 -0.413,0.62 -0.74,0.82c-0.327,0.193 -0.73,0.29 -1.21,0.29zM266.252,277.66c0.16,0 0.273,-0.05 0.34,-0.15c0.073,-0.107 0.117,-0.227 0.13,-0.36c0.02,-0.14 0.03,-0.26 0.03,-0.36v-3.59c0,-0.113 -0.007,-0.24 -0.02,-0.38c-0.013,-0.147 -0.057,-0.273 -0.13,-0.38c-0.067,-0.113 -0.183,-0.17 -0.35,-0.17c-0.167,0 -0.287,0.057 -0.36,0.17c-0.067,0.107 -0.107,0.233 -0.12,0.38c-0.013,0.14 -0.02,0.267 -0.02,0.38v3.59c0,0.1 0.01,0.22 0.03,0.36c0.02,0.133 0.063,0.253 0.13,0.36c0.073,0.1 0.187,0.15 0.34,0.15z" fill="#0d0e12"/><path d="M271,268h192v1.00001h-192z" fill="#f1f1f1"/><path d="M271,211l192,0v1.00001l-192,0z" fill="#f1f1f1"/><path d="M271,239l192,0v1.00001l-192,0z" fill="#f1f1f1"/><path d="M271,182l192,0v1.00001l-192,0z" fill="#f1f1f1"/><path d="M271,153l192,0v1.00001l-192,0z" fill="#f1f1f1"/><path d="M271,269v-116h1v116z" fill="#f1f1f1"/><path d="M331,87v-39h29v39z" fill="#f1f1f1"/><path d="M399,87v-39h29v39z" fill="#f1f1f1"/><path d="M365,87v-39h29v39z" fill="#f1f1f1"/><path d="M297,87v-39h29v39z" fill="#f1f1f1"/><path d="M433,87v-39h29v39z" fill="#f1f1f1"/><path d="M365,131v-39h29v39z" fill="#f1f1f1"/><path d="M297,131v-39h29v39z" fill="#f1f1f1"/><path d="M433,131v-39h29v39z" fill="#f1f1f1"/><path d="M331,131v-39h29v39z" fill="#f1f1f1"/><path d="M399,131v-39h29v39z" fill="#f1f1f1"/><path d="M267.1,245.353c0,0.406 -0.063,0.756 -0.19,1.05c-0.127,0.286 -0.317,0.51 -0.57,0.67c-0.26,0.153 -0.583,0.23 -0.97,0.23h-0.3v-1.57h0.31c0.227,0 0.38,-0.034 0.46,-0.1c0.073,-0.067 0.11,-0.16 0.11,-0.28c0,-0.087 -0.02,-0.157 -0.06,-0.21c-0.04,-0.054 -0.11,-0.094 -0.21,-0.12c-0.1,-0.027 -0.237,-0.04 -0.41,-0.04h-0.78v1.33h-0.69v-1.33h-0.86c-0.173,0 -0.307,0.016 -0.4,0.05c-0.1,0.026 -0.167,0.066 -0.2,0.12c-0.04,0.053 -0.06,0.12 -0.06,0.2c0,0.126 0.043,0.223 0.13,0.29c0.08,0.06 0.227,0.09 0.44,0.09h0.41v1.57h-0.39c-0.387,0 -0.71,-0.077 -0.97,-0.23c-0.26,-0.16 -0.453,-0.387 -0.58,-0.68c-0.133,-0.294 -0.2,-0.64 -0.2,-1.04c0,-0.427 0.077,-0.787 0.23,-1.08c0.153,-0.3 0.373,-0.527 0.66,-0.68c0.287,-0.16 0.633,-0.24 1.04,-0.24h2.13c0.407,0 0.753,0.08 1.04,0.24c0.287,0.153 0.507,0.38 0.66,0.68c0.147,0.3 0.22,0.66 0.22,1.08zM268.72,240.197h-1.8v0.17c0,0.213 -0.03,0.446 -0.09,0.7c-0.067,0.246 -0.177,0.483 -0.33,0.71c-0.16,0.226 -0.37,0.413 -0.63,0.56c-0.267,0.146 -0.6,0.22 -1,0.22h-1.63c-0.353,0 -0.657,-0.064 -0.91,-0.19c-0.253,-0.134 -0.46,-0.307 -0.62,-0.52c-0.16,-0.214 -0.277,-0.45 -0.35,-0.71c-0.08,-0.26 -0.12,-0.517 -0.12,-0.77v-0.17h-2.33v-1.41h2.33v-0.2c0,-0.347 0.07,-0.687 0.21,-1.02c0.133,-0.334 0.347,-0.607 0.64,-0.82c0.293,-0.22 0.677,-0.33 1.15,-0.33h1.63c0.4,0 0.733,0.073 1,0.22c0.26,0.146 0.47,0.333 0.63,0.56c0.153,0.226 0.263,0.463 0.33,0.71c0.06,0.246 0.09,0.473 0.09,0.68v0.2h1.8zM265.95,240.327v-0.13h-3.8v0.14c0,0.126 0.037,0.243 0.11,0.35c0.067,0.106 0.17,0.193 0.31,0.26c0.14,0.06 0.317,0.09 0.53,0.09h1.88c0.207,0 0.383,-0.03 0.53,-0.09c0.147,-0.06 0.257,-0.144 0.33,-0.25c0.073,-0.107 0.11,-0.23 0.11,-0.37zM265.95,238.787v-0.11c0,-0.134 -0.037,-0.254 -0.11,-0.36c-0.073,-0.114 -0.183,-0.204 -0.33,-0.27c-0.147,-0.074 -0.323,-0.11 -0.53,-0.11h-1.88c-0.213,0 -0.39,0.033 -0.53,0.1c-0.14,0.066 -0.243,0.156 -0.31,0.27c-0.073,0.106 -0.11,0.226 -0.11,0.36v0.12zM268.72,233.224h-1.8v0.17c0,0.213 -0.03,0.447 -0.09,0.7c-0.067,0.247 -0.177,0.483 -0.33,0.71c-0.16,0.227 -0.37,0.413 -0.63,0.56c-0.267,0.147 -0.6,0.22 -1,0.22h-1.63c-0.353,0 -0.657,-0.063 -0.91,-0.19c-0.253,-0.133 -0.46,-0.307 -0.62,-0.52c-0.16,-0.213 -0.277,-0.45 -0.35,-0.71c-0.08,-0.26 -0.12,-0.517 -0.12,-0.77v-0.17h-2.33v-1.41h2.33v-0.2c0,-0.347 0.07,-0.687 0.21,-1.02c0.133,-0.333 0.347,-0.607 0.64,-0.82c0.293,-0.22 0.677,-0.33 1.15,-0.33h1.63c0.4,0 0.733,0.073 1,0.22c0.26,0.147 0.47,0.333 0.63,0.56c0.153,0.227 0.263,0.463 0.33,0.71c0.06,0.247 0.09,0.473 0.09,0.68v0.2h1.8zM265.95,233.354v-0.13h-3.8v0.14c0,0.127 0.037,0.243 0.11,0.35c0.067,0.107 0.17,0.193 0.31,0.26c0.14,0.06 0.317,0.09 0.53,0.09h1.88c0.207,0 0.383,-0.03 0.53,-0.09c0.147,-0.06 0.257,-0.143 0.33,-0.25c0.073,-0.107 0.11,-0.23 0.11,-0.37zM265.95,231.814v-0.11c0,-0.133 -0.037,-0.253 -0.11,-0.36c-0.073,-0.113 -0.183,-0.203 -0.33,-0.27c-0.147,-0.073 -0.323,-0.11 -0.53,-0.11h-1.88c-0.213,0 -0.39,0.033 -0.53,0.1c-0.14,0.067 -0.243,0.157 -0.31,0.27c-0.073,0.107 -0.11,0.227 -0.11,0.36v0.12zM267.1,226.621c0,0.42 -0.073,0.78 -0.22,1.08c-0.153,0.3 -0.373,0.53 -0.66,0.69c-0.293,0.16 -0.643,0.24 -1.05,0.24h-2.12c-0.413,0 -0.763,-0.08 -1.05,-0.24c-0.287,-0.16 -0.503,-0.39 -0.65,-0.69c-0.153,-0.306 -0.23,-0.666 -0.23,-1.08c0,-0.426 0.073,-0.78 0.22,-1.06c0.147,-0.286 0.363,-0.5 0.65,-0.64c0.287,-0.146 0.64,-0.22 1.06,-0.22h1.16v2.32h1.11c0.147,0 0.267,-0.016 0.36,-0.05c0.093,-0.033 0.16,-0.08 0.2,-0.14c0.04,-0.06 0.06,-0.13 0.06,-0.21c0,-0.08 -0.017,-0.15 -0.05,-0.21c-0.04,-0.066 -0.1,-0.116 -0.18,-0.15c-0.08,-0.04 -0.19,-0.06 -0.33,-0.06h-0.61v-1.5h0.56c0.587,0 1.03,0.17 1.33,0.51c0.293,0.34 0.44,0.81 0.44,1.41zM263.45,227.021v-0.82h-0.58c-0.153,0 -0.273,0.02 -0.36,0.06c-0.087,0.034 -0.147,0.084 -0.18,0.15c-0.033,0.06 -0.05,0.134 -0.05,0.22c0,0.08 0.02,0.15 0.06,0.21c0.04,0.054 0.11,0.097 0.21,0.13c0.093,0.034 0.23,0.05 0.41,0.05zM267,223.814h-5.78v-1.63h2.28v-0.24l-2.28,-0.88v-1.75l2.73,1.14l3.05,-1.17v1.72l-2.56,0.94v0.24h2.56zM267,217.987h-4.68v1.05h-1.1v-3.72h1.1v1.05h4.68zM267,214.635h-5.78v-1.29h3.09l-3.09,-1.51v-1.27h5.78v1.32h-3.06l3.06,1.47zM267,209.556h-5.78v-2.05c0,-0.58 0.063,-1.016 0.19,-1.31c0.12,-0.293 0.287,-0.49 0.5,-0.59c0.213,-0.1 0.463,-0.15 0.75,-0.15c0.38,0 0.66,0.084 0.84,0.25c0.173,0.16 0.297,0.374 0.37,0.64c0.067,-0.28 0.167,-0.493 0.3,-0.64c0.133,-0.146 0.297,-0.246 0.49,-0.3c0.193,-0.06 0.417,-0.09 0.67,-0.09c0.373,0 0.687,0.07 0.94,0.21c0.247,0.14 0.43,0.377 0.55,0.71c0.12,0.334 0.18,0.787 0.18,1.36zM266.1,207.936v-0.27c0,-0.146 -0.013,-0.276 -0.04,-0.39c-0.027,-0.113 -0.097,-0.203 -0.21,-0.27c-0.12,-0.073 -0.31,-0.11 -0.57,-0.11c-0.293,0 -0.503,0.034 -0.63,0.1c-0.127,0.06 -0.203,0.147 -0.23,0.26c-0.027,0.114 -0.04,0.247 -0.04,0.4v0.28zM263.5,207.936v-0.41c0,-0.193 -0.06,-0.326 -0.18,-0.4c-0.127,-0.073 -0.3,-0.11 -0.52,-0.11c-0.213,0 -0.39,0.04 -0.53,0.12c-0.14,0.074 -0.21,0.244 -0.21,0.51v0.29zM267,204.508h-5.78v-1.63h2.24v-0.97h-2.24v-1.64h5.78v1.64h-2.42v0.97h2.42zM267.1,197.354c0,0.413 -0.07,0.773 -0.21,1.08c-0.14,0.3 -0.35,0.533 -0.63,0.7c-0.28,0.16 -0.63,0.24 -1.05,0.24h-2.2c-0.42,0 -0.77,-0.08 -1.05,-0.24c-0.28,-0.167 -0.49,-0.4 -0.63,-0.7c-0.14,-0.307 -0.21,-0.667 -0.21,-1.08c0,-0.414 0.07,-0.77 0.21,-1.07c0.14,-0.307 0.35,-0.544 0.63,-0.71c0.28,-0.167 0.63,-0.25 1.05,-0.25h2.2c0.42,0 0.77,0.083 1.05,0.25c0.28,0.166 0.49,0.403 0.63,0.71c0.14,0.3 0.21,0.656 0.21,1.07zM266.02,197.344c0,-0.107 -0.027,-0.19 -0.08,-0.25c-0.06,-0.06 -0.14,-0.1 -0.24,-0.12c-0.107,-0.027 -0.233,-0.04 -0.38,-0.04h-2.42c-0.147,0 -0.27,0.013 -0.37,0.04c-0.107,0.02 -0.187,0.06 -0.24,0.12c-0.06,0.06 -0.09,0.143 -0.09,0.25c0,0.106 0.03,0.19 0.09,0.25c0.053,0.06 0.133,0.103 0.24,0.13c0.1,0.026 0.223,0.04 0.37,0.04h2.42c0.147,0 0.273,-0.014 0.38,-0.04c0.1,-0.027 0.18,-0.07 0.24,-0.13c0.053,-0.06 0.08,-0.144 0.08,-0.25zM267.1,192.54c0,0.42 -0.077,0.78 -0.23,1.08c-0.153,0.293 -0.373,0.52 -0.66,0.68c-0.287,0.16 -0.633,0.24 -1.04,0.24h-2.12c-0.413,0 -0.763,-0.08 -1.05,-0.24c-0.287,-0.16 -0.503,-0.387 -0.65,-0.68c-0.153,-0.3 -0.23,-0.66 -0.23,-1.08c0,-0.414 0.063,-0.764 0.19,-1.05c0.127,-0.294 0.32,-0.517 0.58,-0.67c0.253,-0.154 0.577,-0.23 0.97,-0.23h0.61v1.57h-0.66c-0.153,0 -0.27,0.016 -0.35,0.05c-0.087,0.026 -0.147,0.07 -0.18,0.13c-0.033,0.053 -0.05,0.12 -0.05,0.2c0,0.08 0.023,0.146 0.07,0.2c0.04,0.053 0.11,0.093 0.21,0.12c0.093,0.026 0.227,0.04 0.4,0.04h2.4c0.26,0 0.437,-0.03 0.53,-0.09c0.093,-0.067 0.14,-0.16 0.14,-0.28c0,-0.087 -0.017,-0.157 -0.05,-0.21c-0.04,-0.054 -0.1,-0.094 -0.18,-0.12c-0.087,-0.027 -0.2,-0.04 -0.34,-0.04h-0.77v-1.57h0.7c0.387,0 0.713,0.08 0.98,0.24c0.26,0.153 0.457,0.376 0.59,0.67c0.127,0.286 0.19,0.633 0.19,1.04zM267,189.042h-4.68v1.05h-1.1v-3.72h1.1v1.05h4.68zM267,185.689h-5.78v-1.63h2.32c0,-0.006 0,-0.01 0,-0.01c0,-0.006 0,-0.013 0,-0.02c0,-0.006 0,-0.013 0,-0.02c0,-0.4 0.027,-0.753 0.08,-1.06c0.053,-0.306 0.147,-0.56 0.28,-0.76c0.127,-0.206 0.3,-0.363 0.52,-0.47c0.213,-0.106 0.487,-0.16 0.82,-0.16c0.313,0 0.583,0.047 0.81,0.14c0.22,0.087 0.4,0.23 0.54,0.43c0.14,0.194 0.243,0.447 0.31,0.76c0.067,0.307 0.1,0.677 0.1,1.11zM266.07,184.059v-0.03c0,-0.246 -0.023,-0.44 -0.07,-0.58c-0.053,-0.146 -0.137,-0.25 -0.25,-0.31c-0.12,-0.066 -0.277,-0.1 -0.47,-0.1c-0.207,0 -0.363,0.034 -0.47,0.1c-0.113,0.06 -0.193,0.164 -0.24,0.31c-0.047,0.14 -0.07,0.327 -0.07,0.56c0,0.007 0,0.017 0,0.03c0,0.007 0,0.014 0,0.02z" fill="#0d0e12"/><path d="M351.617,280.57v-2.56c0.22,-0.1 0.41,-0.23 0.57,-0.39c0.16,-0.167 0.297,-0.367 0.41,-0.6c0.113,-0.24 0.203,-0.517 0.27,-0.83c0.067,-0.32 0.113,-0.683 0.14,-1.09l0.17,-1.88h3.18v4.78h0.84v2.57h-1.17l-0.11,-1.57h-3.02l-0.09,1.57zM353.377,278h1.49v-3.81h-0.48l-0.12,1.3c-0.02,0.367 -0.057,0.687 -0.11,0.96c-0.053,0.267 -0.12,0.5 -0.2,0.7c-0.073,0.193 -0.16,0.36 -0.26,0.5c-0.1,0.133 -0.207,0.25 -0.32,0.35zM357.881,279v-5.78h1.63v2.24h0.97v-2.24h1.64v5.78h-1.64v-2.42h-0.97v2.42zM363.135,279v-5.78h1.29v3.09l1.51,-3.09h1.27v5.78h-1.32v-3.06l-1.47,3.06z" fill="#0d0e12"/><path d="M329.72,21v-9.72h4.2v1.452h-2.052v2.448h1.788v1.5h-1.788v4.32zM334.923,21v-9.72h3.264c0.584,0 1.064,0.112 1.44,0.336c0.376,0.216 0.656,0.536 0.84,0.96c0.184,0.416 0.276,0.924 0.276,1.524c0,0.752 -0.124,1.328 -0.372,1.728c-0.248,0.392 -0.584,0.664 -1.008,0.816c-0.424,0.152 -0.9,0.228 -1.428,0.228h-0.864v4.128zM337.071,15.372h0.72c0.264,0 0.464,-0.048 0.6,-0.144c0.136,-0.096 0.224,-0.24 0.264,-0.432c0.048,-0.192 0.072,-0.436 0.072,-0.732c0,-0.248 -0.02,-0.464 -0.06,-0.648c-0.032,-0.192 -0.116,-0.344 -0.252,-0.456c-0.136,-0.112 -0.348,-0.168 -0.636,-0.168h-0.708zM344.265,21.144c-0.608,0 -1.116,-0.108 -1.524,-0.324c-0.408,-0.216 -0.716,-0.548 -0.924,-0.996c-0.208,-0.456 -0.324,-1.044 -0.348,-1.764l1.836,-0.276c0.008,0.416 0.044,0.752 0.108,1.008c0.072,0.256 0.168,0.44 0.288,0.552c0.128,0.112 0.28,0.168 0.456,0.168c0.224,0 0.368,-0.076 0.432,-0.228c0.072,-0.152 0.108,-0.312 0.108,-0.48c0,-0.4 -0.096,-0.736 -0.288,-1.008c-0.192,-0.28 -0.452,-0.56 -0.78,-0.84l-0.84,-0.732c-0.368,-0.312 -0.68,-0.664 -0.936,-1.056c-0.248,-0.4 -0.372,-0.892 -0.372,-1.476c0,-0.824 0.244,-1.452 0.732,-1.884c0.488,-0.44 1.152,-0.66 1.992,-0.66c0.52,0 0.936,0.088 1.248,0.264c0.32,0.176 0.56,0.408 0.72,0.696c0.168,0.28 0.28,0.58 0.336,0.9c0.064,0.312 0.1,0.612 0.108,0.9l-1.848,0.228c-0.008,-0.288 -0.028,-0.536 -0.06,-0.744c-0.024,-0.216 -0.08,-0.38 -0.168,-0.492c-0.088,-0.12 -0.224,-0.18 -0.408,-0.18c-0.2,0 -0.348,0.084 -0.444,0.252c-0.088,0.168 -0.132,0.336 -0.132,0.504c0,0.36 0.084,0.656 0.252,0.888c0.176,0.224 0.404,0.46 0.684,0.708l0.804,0.708c0.424,0.36 0.78,0.768 1.068,1.224c0.296,0.456 0.444,1.02 0.444,1.692c0,0.456 -0.104,0.872 -0.312,1.248c-0.208,0.368 -0.504,0.66 -0.888,0.876c-0.376,0.216 -0.824,0.324 -1.344,0.324zM347.933,16.056v-1.824h1.824v1.824zM347.933,20.328v-1.824h1.824v1.824z" fill="#ffffff"/><path d="M169.436,56v-8.1h4.85v8.1h-1.76v-6.82h-1.33v6.82zM175.401,57.9v-7.68h1.63v0.42c0.193,-0.1733 0.4,-0.3033 0.62,-0.39c0.22,-0.0867 0.43,-0.13 0.63,-0.13c0.22,0 0.406,0.0433 0.56,0.13c0.16,0.0867 0.29,0.21 0.39,0.37c0.1,0.1533 0.173,0.3333 0.22,0.54c0.046,0.2067 0.07,0.4267 0.07,0.66v2.49c0,0.36 -0.05,0.6733 -0.15,0.94c-0.094,0.2667 -0.234,0.4767 -0.42,0.63c-0.187,0.1467 -0.417,0.22 -0.69,0.22c-0.207,0 -0.417,-0.0467 -0.63,-0.14c-0.207,-0.1 -0.407,-0.2333 -0.6,-0.4v2.34zM177.461,55.05c0.106,0 0.19,-0.03 0.25,-0.09c0.06,-0.06 0.103,-0.1367 0.13,-0.23c0.033,-0.1 0.05,-0.21 0.05,-0.33v-2.7c0,-0.1133 -0.014,-0.2133 -0.04,-0.3c-0.027,-0.0933 -0.07,-0.1667 -0.13,-0.22c-0.06,-0.0533 -0.137,-0.08 -0.23,-0.08c-0.087,0 -0.17,0.02 -0.25,0.06c-0.074,0.0333 -0.144,0.08 -0.21,0.14v3.6c0.073,0.0467 0.143,0.0833 0.21,0.11c0.073,0.0267 0.146,0.04 0.22,0.04zM182.349,56.1c-0.413,0 -0.773,-0.07 -1.08,-0.21c-0.3,-0.14 -0.533,-0.35 -0.7,-0.63c-0.16,-0.28 -0.24,-0.63 -0.24,-1.05v-2.2c0,-0.42 0.08,-0.77 0.24,-1.05c0.167,-0.28 0.4,-0.49 0.7,-0.63c0.307,-0.14 0.667,-0.21 1.08,-0.21c0.414,0 0.77,0.07 1.07,0.21c0.307,0.14 0.544,0.35 0.71,0.63c0.167,0.28 0.25,0.63 0.25,1.05v2.2c0,0.42 -0.083,0.77 -0.25,1.05c-0.166,0.28 -0.403,0.49 -0.71,0.63c-0.3,0.14 -0.656,0.21 -1.07,0.21zM182.359,55.02c0.107,0 0.19,-0.0267 0.25,-0.08c0.06,-0.06 0.1,-0.14 0.12,-0.24c0.027,-0.1067 0.04,-0.2333 0.04,-0.38v-2.42c0,-0.1467 -0.013,-0.27 -0.04,-0.37c-0.02,-0.1067 -0.06,-0.1867 -0.12,-0.24c-0.06,-0.06 -0.143,-0.09 -0.25,-0.09c-0.106,0 -0.19,0.03 -0.25,0.09c-0.06,0.0533 -0.103,0.1333 -0.13,0.24c-0.026,0.1 -0.04,0.2233 -0.04,0.37v2.42c0,0.1467 0.014,0.2733 0.04,0.38c0.027,0.1 0.07,0.18 0.13,0.24c0.06,0.0533 0.144,0.08 0.25,0.08zM185.283,56v-5.78h2.05c0.58,0 1.017,0.0633 1.31,0.19c0.294,0.12 0.49,0.2867 0.59,0.5c0.1,0.2133 0.15,0.4633 0.15,0.75c0,0.38 -0.083,0.66 -0.25,0.84c-0.16,0.1733 -0.373,0.2967 -0.64,0.37c0.28,0.0667 0.494,0.1667 0.64,0.3c0.147,0.1333 0.247,0.2967 0.3,0.49c0.06,0.1933 0.09,0.4167 0.09,0.67c0,0.3733 -0.07,0.6867 -0.21,0.94c-0.14,0.2467 -0.376,0.43 -0.71,0.55c-0.333,0.12 -0.786,0.18 -1.36,0.18zM186.903,55.1h0.27c0.147,0 0.277,-0.0133 0.39,-0.04c0.114,-0.0267 0.204,-0.0967 0.27,-0.21c0.074,-0.12 0.11,-0.31 0.11,-0.57c0,-0.2933 -0.033,-0.5033 -0.1,-0.63c-0.06,-0.1267 -0.146,-0.2033 -0.26,-0.23c-0.113,-0.0267 -0.246,-0.04 -0.4,-0.04h-0.28zM186.903,52.5h0.41c0.194,0 0.327,-0.06 0.4,-0.18c0.074,-0.1267 0.11,-0.3 0.11,-0.52c0,-0.2133 -0.04,-0.39 -0.12,-0.53c-0.073,-0.14 -0.243,-0.21 -0.51,-0.21h-0.29zM192.222,56.1c-0.42,0 -0.78,-0.0733 -1.08,-0.22c-0.3,-0.1533 -0.53,-0.3733 -0.69,-0.66c-0.16,-0.2933 -0.24,-0.6433 -0.24,-1.05v-2.12c0,-0.4133 0.08,-0.7633 0.24,-1.05c0.16,-0.2867 0.39,-0.5033 0.69,-0.65c0.307,-0.1533 0.667,-0.23 1.08,-0.23c0.427,0 0.78,0.0733 1.06,0.22c0.287,0.1467 0.5,0.3633 0.64,0.65c0.147,0.2867 0.22,0.64 0.22,1.06v1.16h-2.32v1.11c0,0.1467 0.017,0.2667 0.05,0.36c0.034,0.0933 0.08,0.16 0.14,0.2c0.06,0.04 0.13,0.06 0.21,0.06c0.08,0 0.15,-0.0167 0.21,-0.05c0.067,-0.04 0.117,-0.1 0.15,-0.18c0.04,-0.08 0.06,-0.19 0.06,-0.33v-0.61h1.5v0.56c0,0.5867 -0.17,1.03 -0.51,1.33c-0.34,0.2933 -0.81,0.44 -1.41,0.44zM191.822,52.45h0.82v-0.58c0,-0.1533 -0.02,-0.2733 -0.06,-0.36c-0.033,-0.0867 -0.083,-0.1467 -0.15,-0.18c-0.06,-0.0333 -0.133,-0.05 -0.22,-0.05c-0.08,0 -0.15,0.02 -0.21,0.06c-0.053,0.04 -0.096,0.11 -0.13,0.21c-0.033,0.0933 -0.05,0.23 -0.05,0.41zM194.84,57.57v-2.56c0.22,-0.1 0.41,-0.23 0.57,-0.39c0.16,-0.1667 0.296,-0.3667 0.41,-0.6c0.113,-0.24 0.203,-0.5167 0.27,-0.83c0.066,-0.32 0.113,-0.6833 0.14,-1.09l0.17,-1.88h3.18v4.78h0.84v2.57h-1.17l-0.11,-1.57h-3.02l-0.09,1.57zM196.6,55h1.49v-3.81h-0.48l-0.12,1.3c-0.02,0.3667 -0.057,0.6867 -0.11,0.96c-0.054,0.2667 -0.12,0.5 -0.2,0.7c-0.074,0.1933 -0.16,0.36 -0.26,0.5c-0.1,0.1333 -0.207,0.25 -0.32,0.35zM202.994,56.1c-0.42,0 -0.78,-0.0733 -1.08,-0.22c-0.3,-0.1533 -0.53,-0.3733 -0.69,-0.66c-0.16,-0.2933 -0.24,-0.6433 -0.24,-1.05v-2.12c0,-0.4133 0.08,-0.7633 0.24,-1.05c0.16,-0.2867 0.39,-0.5033 0.69,-0.65c0.306,-0.1533 0.666,-0.23 1.08,-0.23c0.426,0 0.78,0.0733 1.06,0.22c0.286,0.1467 0.5,0.3633 0.64,0.65c0.146,0.2867 0.22,0.64 0.22,1.06v1.16h-2.32v1.11c0,0.1467 0.016,0.2667 0.05,0.36c0.033,0.0933 0.08,0.16 0.14,0.2c0.06,0.04 0.13,0.06 0.21,0.06c0.08,0 0.15,-0.0167 0.21,-0.05c0.066,-0.04 0.116,-0.1 0.15,-0.18c0.04,-0.08 0.06,-0.19 0.06,-0.33v-0.61h1.5v0.56c0,0.5867 -0.17,1.03 -0.51,1.33c-0.34,0.2933 -0.81,0.44 -1.41,0.44zM202.594,52.45h0.82v-0.58c0,-0.1533 -0.02,-0.2733 -0.06,-0.36c-0.034,-0.0867 -0.084,-0.1467 -0.15,-0.18c-0.06,-0.0333 -0.134,-0.05 -0.22,-0.05c-0.08,0 -0.15,0.02 -0.21,0.06c-0.054,0.04 -0.097,0.11 -0.13,0.21c-0.034,0.0933 -0.05,0.23 -0.05,0.41zM205.801,56v-5.78h1.63v2.24h0.97v-2.24h1.64v5.78h-1.64v-2.42h-0.97v2.42zM212.955,56.1c-0.413,0 -0.773,-0.07 -1.08,-0.21c-0.3,-0.14 -0.533,-0.35 -0.7,-0.63c-0.16,-0.28 -0.24,-0.63 -0.24,-1.05v-2.2c0,-0.42 0.08,-0.77 0.24,-1.05c0.167,-0.28 0.4,-0.49 0.7,-0.63c0.307,-0.14 0.667,-0.21 1.08,-0.21c0.413,0 0.77,0.07 1.07,0.21c0.307,0.14 0.543,0.35 0.71,0.63c0.167,0.28 0.25,0.63 0.25,1.05v2.2c0,0.42 -0.083,0.77 -0.25,1.05c-0.167,0.28 -0.403,0.49 -0.71,0.63c-0.3,0.14 -0.657,0.21 -1.07,0.21zM212.965,55.02c0.107,0 0.19,-0.0267 0.25,-0.08c0.06,-0.06 0.1,-0.14 0.12,-0.24c0.027,-0.1067 0.04,-0.2333 0.04,-0.38v-2.42c0,-0.1467 -0.013,-0.27 -0.04,-0.37c-0.02,-0.1067 -0.06,-0.1867 -0.12,-0.24c-0.06,-0.06 -0.143,-0.09 -0.25,-0.09c-0.107,0 -0.19,0.03 -0.25,0.09c-0.06,0.0533 -0.103,0.1333 -0.13,0.24c-0.027,0.1 -0.04,0.2233 -0.04,0.37v2.42c0,0.1467 0.013,0.2733 0.04,0.38c0.027,0.1 0.07,0.18 0.13,0.24c0.06,0.0533 0.143,0.08 0.25,0.08zM218.258,57.57v-2.56c0.22,-0.1 0.41,-0.23 0.57,-0.39c0.16,-0.1667 0.296,-0.3667 0.41,-0.6c0.113,-0.24 0.203,-0.5167 0.27,-0.83c0.066,-0.32 0.113,-0.6833 0.14,-1.09l0.17,-1.88h3.18v4.78h0.84v2.57h-1.17l-0.11,-1.57h-3.02l-0.09,1.57zM220.018,55h1.49v-3.81h-0.48l-0.12,1.3c-0.02,0.3667 -0.057,0.6867 -0.11,0.96c-0.054,0.2667 -0.12,0.5 -0.2,0.7c-0.074,0.1933 -0.16,0.36 -0.26,0.5c-0.1,0.1333 -0.207,0.25 -0.32,0.35zM224.522,56v-5.78h1.63v2.24h0.97v-2.24h1.64v5.78h-1.64v-2.42h-0.97v2.42zM231.666,56.1c-0.42,0 -0.78,-0.0733 -1.08,-0.22c-0.3,-0.1533 -0.53,-0.3733 -0.69,-0.66c-0.16,-0.2933 -0.24,-0.6433 -0.24,-1.05v-2.12c0,-0.4133 0.08,-0.7633 0.24,-1.05c0.16,-0.2867 0.39,-0.5033 0.69,-0.65c0.306,-0.1533 0.666,-0.23 1.08,-0.23c0.426,0 0.78,0.0733 1.06,0.22c0.286,0.1467 0.5,0.3633 0.64,0.65c0.146,0.2867 0.22,0.64 0.22,1.06v1.16h-2.32v1.11c0,0.1467 0.016,0.2667 0.05,0.36c0.033,0.0933 0.08,0.16 0.14,0.2c0.06,0.04 0.13,0.06 0.21,0.06c0.08,0 0.15,-0.0167 0.21,-0.05c0.066,-0.04 0.116,-0.1 0.15,-0.18c0.04,-0.08 0.06,-0.19 0.06,-0.33v-0.61h1.5v0.56c0,0.5867 -0.17,1.03 -0.51,1.33c-0.34,0.2933 -0.81,0.44 -1.41,0.44zM231.266,52.45h0.82v-0.58c0,-0.1533 -0.02,-0.2733 -0.06,-0.36c-0.034,-0.0867 -0.084,-0.1467 -0.15,-0.18c-0.06,-0.0333 -0.134,-0.05 -0.22,-0.05c-0.08,0 -0.15,0.02 -0.21,0.06c-0.054,0.04 -0.097,0.11 -0.13,0.21c-0.034,0.0933 -0.05,0.23 -0.05,0.41zM234.473,56v-5.78h1.29v3.09l1.51,-3.09h1.27v5.78h-1.32v-3.06l-1.47,3.06zM236.523,49.57c-0.473,0 -0.853,-0.1333 -1.14,-0.4c-0.287,-0.2667 -0.43,-0.6533 -0.43,-1.16h0.92c0,0.2467 0.047,0.43 0.14,0.55c0.1,0.12 0.27,0.18 0.51,0.18c0.233,0 0.4,-0.06 0.5,-0.18c0.1,-0.1267 0.15,-0.31 0.15,-0.55h0.92c0,0.5067 -0.143,0.8933 -0.43,1.16c-0.287,0.2667 -0.667,0.4 -1.14,0.4zM242.11,56v-5.78h2.05c0.58,0 1.016,0.0633 1.31,0.19c0.293,0.12 0.49,0.2867 0.59,0.5c0.1,0.2133 0.15,0.4633 0.15,0.75c0,0.38 -0.084,0.66 -0.25,0.84c-0.16,0.1733 -0.374,0.2967 -0.64,0.37c0.28,0.0667 0.493,0.1667 0.64,0.3c0.146,0.1333 0.246,0.2967 0.3,0.49c0.06,0.1933 0.09,0.4167 0.09,0.67c0,0.3733 -0.07,0.6867 -0.21,0.94c-0.14,0.2467 -0.377,0.43 -0.71,0.55c-0.334,0.12 -0.787,0.18 -1.36,0.18zM243.73,55.1h0.27c0.146,0 0.276,-0.0133 0.39,-0.04c0.113,-0.0267 0.203,-0.0967 0.27,-0.21c0.073,-0.12 0.11,-0.31 0.11,-0.57c0,-0.2933 -0.034,-0.5033 -0.1,-0.63c-0.06,-0.1267 -0.147,-0.2033 -0.26,-0.23c-0.114,-0.0267 -0.247,-0.04 -0.4,-0.04h-0.28zM243.73,52.5h0.41c0.193,0 0.326,-0.06 0.4,-0.18c0.073,-0.1267 0.11,-0.3 0.11,-0.52c0,-0.2133 -0.04,-0.39 -0.12,-0.53c-0.074,-0.14 -0.244,-0.21 -0.51,-0.21h-0.29zM249.777,56l0.14,-8.1h1.92l0.89,4.71l0.96,-4.71h1.85l0.14,8.1h-1.27l-0.15,-5.39l-0.94,5.39h-1.13l-1,-5.43l-0.12,5.43zM258.658,56.1c-0.413,0 -0.773,-0.07 -1.08,-0.21c-0.3,-0.14 -0.533,-0.35 -0.7,-0.63c-0.16,-0.28 -0.24,-0.63 -0.24,-1.05v-2.2c0,-0.42 0.08,-0.77 0.24,-1.05c0.167,-0.28 0.4,-0.49 0.7,-0.63c0.307,-0.14 0.667,-0.21 1.08,-0.21c0.413,0 0.77,0.07 1.07,0.21c0.307,0.14 0.543,0.35 0.71,0.63c0.167,0.28 0.25,0.63 0.25,1.05v2.2c0,0.42 -0.083,0.77 -0.25,1.05c-0.167,0.28 -0.403,0.49 -0.71,0.63c-0.3,0.14 -0.657,0.21 -1.07,0.21zM258.668,55.02c0.107,0 0.19,-0.0267 0.25,-0.08c0.06,-0.06 0.1,-0.14 0.12,-0.24c0.027,-0.1067 0.04,-0.2333 0.04,-0.38v-2.42c0,-0.1467 -0.013,-0.27 -0.04,-0.37c-0.02,-0.1067 -0.06,-0.1867 -0.12,-0.24c-0.06,-0.06 -0.143,-0.09 -0.25,-0.09c-0.107,0 -0.19,0.03 -0.25,0.09c-0.06,0.0533 -0.103,0.1333 -0.13,0.24c-0.027,0.1 -0.04,0.2233 -0.04,0.37v2.42c0,0.1467 0.013,0.2733 0.04,0.38c0.027,0.1 0.07,0.18 0.13,0.24c0.06,0.0533 0.143,0.08 0.25,0.08zM263.372,56.1c-0.507,0 -0.93,-0.1133 -1.27,-0.34c-0.333,-0.2267 -0.607,-0.5967 -0.82,-1.11l1.11,-0.49c0.107,0.26 0.23,0.4667 0.37,0.62c0.147,0.1467 0.307,0.22 0.48,0.22c0.127,0 0.22,-0.0267 0.28,-0.08c0.067,-0.0533 0.1,-0.1267 0.1,-0.22c0,-0.1533 -0.06,-0.2933 -0.18,-0.42c-0.113,-0.1267 -0.32,-0.3133 -0.62,-0.56l-0.42,-0.35c-0.307,-0.26 -0.55,-0.51 -0.73,-0.75c-0.173,-0.2467 -0.26,-0.55 -0.26,-0.91c0,-0.3133 0.08,-0.59 0.24,-0.83c0.167,-0.24 0.387,-0.4267 0.66,-0.56c0.273,-0.1333 0.567,-0.2 0.88,-0.2c0.473,0 0.87,0.13 1.19,0.39c0.32,0.26 0.543,0.6267 0.67,1.1l-1.05,0.48c-0.04,-0.1267 -0.097,-0.2533 -0.17,-0.38c-0.073,-0.1267 -0.163,-0.2333 -0.27,-0.32c-0.1,-0.0867 -0.21,-0.13 -0.33,-0.13c-0.107,0 -0.193,0.03 -0.26,0.09c-0.06,0.06 -0.09,0.14 -0.09,0.24c0,0.1267 0.07,0.2633 0.21,0.41c0.147,0.1467 0.347,0.3233 0.6,0.53l0.41,0.36c0.167,0.14 0.33,0.29 0.49,0.45c0.16,0.16 0.29,0.3367 0.39,0.53c0.107,0.1933 0.16,0.4133 0.16,0.66c0,0.3333 -0.083,0.62 -0.25,0.86c-0.167,0.2333 -0.387,0.41 -0.66,0.53c-0.267,0.12 -0.553,0.18 -0.86,0.18zM268.24,56.12c-0.613,0 -1.1,-0.11 -1.46,-0.33c-0.353,-0.2267 -0.603,-0.54 -0.75,-0.94c-0.146,-0.4067 -0.22,-0.8833 -0.22,-1.43v-2.92c0,-0.56 0.074,-1.04 0.22,-1.44c0.147,-0.4067 0.397,-0.72 0.75,-0.94c0.36,-0.22 0.847,-0.33 1.46,-0.33c0.6,0 1.067,0.1 1.4,0.3c0.34,0.1933 0.58,0.4667 0.72,0.82c0.14,0.3533 0.21,0.76 0.21,1.22v0.7h-1.75v-0.81c0,-0.16 -0.01,-0.3133 -0.03,-0.46c-0.013,-0.1467 -0.06,-0.2667 -0.14,-0.36c-0.08,-0.1 -0.216,-0.15 -0.41,-0.15c-0.186,0 -0.326,0.05 -0.42,0.15c-0.086,0.1 -0.143,0.2267 -0.17,0.38c-0.02,0.1467 -0.03,0.3033 -0.03,0.47v3.81c0,0.18 0.014,0.3467 0.04,0.5c0.034,0.1467 0.094,0.2667 0.18,0.36c0.094,0.0867 0.227,0.13 0.4,0.13c0.187,0 0.32,-0.0467 0.4,-0.14c0.08,-0.1 0.13,-0.2267 0.15,-0.38c0.02,-0.1533 0.03,-0.31 0.03,-0.47v-0.85h1.75v0.7c0,0.46 -0.07,0.8733 -0.21,1.24c-0.133,0.36 -0.37,0.6467 -0.71,0.86c-0.333,0.2067 -0.803,0.31 -1.41,0.31zM271.475,56v-8.1h1.62v2.83c0.213,-0.2133 0.437,-0.3667 0.67,-0.46c0.233,-0.1 0.483,-0.15 0.75,-0.15c0.233,0 0.427,0.06 0.58,0.18c0.16,0.1133 0.28,0.2733 0.36,0.48c0.08,0.2 0.12,0.43 0.12,0.69v4.53h-1.62v-4.3c0,-0.14 -0.023,-0.2467 -0.07,-0.32c-0.047,-0.0733 -0.133,-0.11 -0.26,-0.11c-0.067,0 -0.147,0.02 -0.24,0.06c-0.093,0.0333 -0.19,0.0833 -0.29,0.15v4.52zM278.443,56.1c-0.42,0 -0.78,-0.0733 -1.08,-0.22c-0.3,-0.1533 -0.53,-0.3733 -0.69,-0.66c-0.16,-0.2933 -0.24,-0.6433 -0.24,-1.05v-2.12c0,-0.4133 0.08,-0.7633 0.24,-1.05c0.16,-0.2867 0.39,-0.5033 0.69,-0.65c0.307,-0.1533 0.667,-0.23 1.08,-0.23c0.427,0 0.78,0.0733 1.06,0.22c0.287,0.1467 0.5,0.3633 0.64,0.65c0.147,0.2867 0.22,0.64 0.22,1.06v1.16h-2.32v1.11c0,0.1467 0.017,0.2667 0.05,0.36c0.033,0.0933 0.08,0.16 0.14,0.2c0.06,0.04 0.13,0.06 0.21,0.06c0.08,0 0.15,-0.0167 0.21,-0.05c0.067,-0.04 0.117,-0.1 0.15,-0.18c0.04,-0.08 0.06,-0.19 0.06,-0.33v-0.61h1.5v0.56c0,0.5867 -0.17,1.03 -0.51,1.33c-0.34,0.2933 -0.81,0.44 -1.41,0.44zM278.043,52.45h0.82v-0.58c0,-0.1533 -0.02,-0.2733 -0.06,-0.36c-0.033,-0.0867 -0.083,-0.1467 -0.15,-0.18c-0.06,-0.0333 -0.133,-0.05 -0.22,-0.05c-0.08,0 -0.15,0.02 -0.21,0.06c-0.053,0.04 -0.097,0.11 -0.13,0.21c-0.033,0.0933 -0.05,0.23 -0.05,0.41zM283.03,56.1c-0.506,0 -0.93,-0.1133 -1.27,-0.34c-0.333,-0.2267 -0.606,-0.5967 -0.82,-1.11l1.11,-0.49c0.107,0.26 0.23,0.4667 0.37,0.62c0.147,0.1467 0.307,0.22 0.48,0.22c0.127,0 0.22,-0.0267 0.28,-0.08c0.067,-0.0533 0.1,-0.1267 0.1,-0.22c0,-0.1533 -0.06,-0.2933 -0.18,-0.42c-0.113,-0.1267 -0.32,-0.3133 -0.62,-0.56l-0.42,-0.35c-0.306,-0.26 -0.55,-0.51 -0.73,-0.75c-0.173,-0.2467 -0.26,-0.55 -0.26,-0.91c0,-0.3133 0.08,-0.59 0.24,-0.83c0.167,-0.24 0.387,-0.4267 0.66,-0.56c0.274,-0.1333 0.567,-0.2 0.88,-0.2c0.474,0 0.87,0.13 1.19,0.39c0.32,0.26 0.544,0.6267 0.67,1.1l-1.05,0.48c-0.04,-0.1267 -0.096,-0.2533 -0.17,-0.38c-0.073,-0.1267 -0.163,-0.2333 -0.27,-0.32c-0.1,-0.0867 -0.21,-0.13 -0.33,-0.13c-0.106,0 -0.193,0.03 -0.26,0.09c-0.06,0.06 -0.09,0.14 -0.09,0.24c0,0.1267 0.07,0.2633 0.21,0.41c0.147,0.1467 0.347,0.3233 0.6,0.53l0.41,0.36c0.167,0.14 0.33,0.29 0.49,0.45c0.16,0.16 0.29,0.3367 0.39,0.53c0.107,0.1933 0.16,0.4133 0.16,0.66c0,0.3333 -0.083,0.62 -0.25,0.86c-0.166,0.2333 -0.386,0.41 -0.66,0.53c-0.266,0.12 -0.553,0.18 -0.86,0.18zM287.269,56.1c-0.507,0 -0.93,-0.1133 -1.27,-0.34c-0.334,-0.2267 -0.607,-0.5967 -0.82,-1.11l1.11,-0.49c0.106,0.26 0.23,0.4667 0.37,0.62c0.146,0.1467 0.306,0.22 0.48,0.22c0.126,0 0.22,-0.0267 0.28,-0.08c0.066,-0.0533 0.1,-0.1267 0.1,-0.22c0,-0.1533 -0.06,-0.2933 -0.18,-0.42c-0.114,-0.1267 -0.32,-0.3133 -0.62,-0.56l-0.42,-0.35c-0.307,-0.26 -0.55,-0.51 -0.73,-0.75c-0.174,-0.2467 -0.26,-0.55 -0.26,-0.91c0,-0.3133 0.08,-0.59 0.24,-0.83c0.166,-0.24 0.386,-0.4267 0.66,-0.56c0.273,-0.1333 0.566,-0.2 0.88,-0.2c0.473,0 0.87,0.13 1.19,0.39c0.32,0.26 0.543,0.6267 0.67,1.1l-1.05,0.48c-0.04,-0.1267 -0.097,-0.2533 -0.17,-0.38c-0.074,-0.1267 -0.164,-0.2333 -0.27,-0.32c-0.1,-0.0867 -0.21,-0.13 -0.33,-0.13c-0.107,0 -0.194,0.03 -0.26,0.09c-0.06,0.06 -0.09,0.14 -0.09,0.24c0,0.1267 0.07,0.2633 0.21,0.41c0.146,0.1467 0.346,0.3233 0.6,0.53l0.41,0.36c0.166,0.14 0.33,0.29 0.49,0.45c0.16,0.16 0.29,0.3367 0.39,0.53c0.106,0.1933 0.16,0.4133 0.16,0.66c0,0.3333 -0.084,0.62 -0.25,0.86c-0.167,0.2333 -0.387,0.41 -0.66,0.53c-0.267,0.12 -0.554,0.18 -0.86,0.18zM289.887,51.88v-1.52h1.52v1.52zM289.887,55.44v-1.52h1.52v1.52z" fill="#0d0e12"/></g></svg>