<svg xmlns="http://www.w3.org/2000/svg" fill="none" viewBox="0 0 13 18" height="18" width="13">
<rect fill-opacity="0.01" fill="#0D0E12" height="18" width="13"></rect>
<path fill="white" d="M1.596 14V6.26C1.508 6.308 1.408 6.356 1.296 6.404C1.184 6.452 1.064 6.504 0.936 6.56C0.816 6.608 0.696 6.656 0.576 6.704C0.464 6.752 0.36 6.8 0.264 6.848V5.36C0.352 5.312 0.476 5.248 0.636 5.168C0.796 5.08 0.968 4.984 1.152 4.88C1.336 4.776 1.508 4.672 1.668 4.568C1.828 4.456 1.948 4.36 2.028 4.28H3.6V14H1.596ZM7.79606 14.144C7.17206 14.144 6.68006 14.048 6.32006 13.856C5.96006 13.664 5.70406 13.384 5.55206 13.016C5.40006 12.64 5.32406 12.18 5.32406 11.636C5.32406 11.612 5.32406 11.588 5.32406 11.564C5.32406 11.532 5.32406 11.504 5.32406 11.48H7.19606C7.19606 11.872 7.22806 12.164 7.29206 12.356C7.36406 12.54 7.53606 12.632 7.80806 12.632C7.99206 12.632 8.12806 12.576 8.21606 12.464C8.30406 12.352 8.36006 12.156 8.38406 11.876C8.41606 11.588 8.43206 11.196 8.43206 10.7V9.836C8.32806 10.004 8.16806 10.132 7.95206 10.22C7.74406 10.308 7.50806 10.36 7.24406 10.376C6.73206 10.384 6.32006 10.256 6.00806 9.992C5.69606 9.728 5.47206 9.372 5.33606 8.924C5.20006 8.476 5.13206 7.988 5.13206 7.46C5.13206 6.78 5.21606 6.196 5.38406 5.708C5.56006 5.212 5.84406 4.828 6.23606 4.556C6.62806 4.284 7.14806 4.148 7.79606 4.148C8.43606 4.148 8.95206 4.276 9.34406 4.532C9.73606 4.788 10.0201 5.148 10.1961 5.612C10.3801 6.068 10.4721 6.608 10.4721 7.232V10.856C10.4721 11.488 10.3961 12.052 10.2441 12.548C10.1001 13.044 9.83606 13.436 9.45206 13.724C9.06806 14.004 8.51606 14.144 7.79606 14.144ZM7.82006 8.84C7.98006 8.84 8.10806 8.796 8.20406 8.708C8.30006 8.62 8.37606 8.536 8.43206 8.456V6.872C8.43206 6.648 8.41606 6.444 8.38406 6.26C8.35206 6.068 8.29206 5.916 8.20406 5.804C8.11606 5.684 7.98006 5.624 7.79606 5.624C7.62006 5.624 7.48806 5.688 7.40006 5.816C7.31206 5.936 7.25206 6.12 7.22006 6.368C7.19606 6.608 7.18406 6.908 7.18406 7.268C7.18406 7.58 7.19206 7.856 7.20806 8.096C7.23206 8.328 7.28806 8.512 7.37606 8.648C7.46406 8.776 7.61206 8.84 7.82006 8.84Z"></path>
</svg>
