<svg xmlns="http://www.w3.org/2000/svg" fill="none" viewBox="0 0 214 84" height="84" width="214">
<mask fill="white" id="path-1-inside-1_1560_16">
<path d="M0 0H214V84H0V0Z"></path>
</mask>
<path fill="#0D0E12" d="M0 0H214V84H0V0Z"></path>
<path mask="url(#path-1-inside-1_1560_16)" fill="white" d="M0 0V-1H-1V0H0ZM0 84H-1V85H0V84ZM0 1H214V-1H0V1ZM214 83H0V85H214V83ZM1 84V0H-1V84H1Z"></path>
<path fill="white" d="M19.504 38.144C18.768 38.144 18.184 38.012 17.752 37.748C17.328 37.476 17.028 37.1 16.852 36.62C16.676 36.132 16.588 35.56 16.588 34.904V31.4C16.588 30.728 16.676 30.152 16.852 29.672C17.028 29.184 17.328 28.808 17.752 28.544C18.184 28.28 18.768 28.148 19.504 28.148C20.224 28.148 20.784 28.268 21.184 28.508C21.592 28.74 21.88 29.068 22.048 29.492C22.216 29.916 22.3 30.404 22.3 30.956V31.796H20.2V30.824C20.2 30.632 20.188 30.448 20.164 30.272C20.148 30.096 20.092 29.952 19.996 29.84C19.9 29.72 19.736 29.66 19.504 29.66C19.28 29.66 19.112 29.72 19 29.84C18.896 29.96 18.828 30.112 18.796 30.296C18.772 30.472 18.76 30.66 18.76 30.86V35.432C18.76 35.648 18.776 35.848 18.808 36.032C18.848 36.208 18.92 36.352 19.024 36.464C19.136 36.568 19.296 36.62 19.504 36.62C19.728 36.62 19.888 36.564 19.984 36.452C20.08 36.332 20.14 36.18 20.164 35.996C20.188 35.812 20.2 35.624 20.2 35.432V34.412H22.3V35.252C22.3 35.804 22.216 36.3 22.048 36.74C21.888 37.172 21.604 37.516 21.196 37.772C20.796 38.02 20.232 38.144 19.504 38.144ZM26.2657 38.144C25.5377 38.144 24.9617 38.016 24.5377 37.76C24.1137 37.504 23.8097 37.136 23.6257 36.656C23.4417 36.176 23.3497 35.604 23.3497 34.94V31.328C23.3497 30.656 23.4417 30.084 23.6257 29.612C23.8097 29.14 24.1137 28.78 24.5377 28.532C24.9617 28.276 25.5377 28.148 26.2657 28.148C27.0017 28.148 27.5817 28.276 28.0057 28.532C28.4377 28.78 28.7457 29.14 28.9297 29.612C29.1137 30.084 29.2057 30.656 29.2057 31.328V34.94C29.2057 35.604 29.1137 36.176 28.9297 36.656C28.7457 37.136 28.4377 37.504 28.0057 37.76C27.5817 38.016 27.0017 38.144 26.2657 38.144ZM26.2657 36.62C26.4897 36.62 26.6537 36.564 26.7577 36.452C26.8617 36.34 26.9297 36.196 26.9617 36.02C26.9937 35.844 27.0097 35.664 27.0097 35.48V30.8C27.0097 30.608 26.9937 30.428 26.9617 30.26C26.9297 30.084 26.8617 29.94 26.7577 29.828C26.6537 29.716 26.4897 29.66 26.2657 29.66C26.0577 29.66 25.9017 29.716 25.7977 29.828C25.6937 29.94 25.6257 30.084 25.5937 30.26C25.5617 30.428 25.5457 30.608 25.5457 30.8V35.48C25.5457 35.664 25.5577 35.844 25.5817 36.02C25.6137 36.196 25.6777 36.34 25.7737 36.452C25.8777 36.564 26.0417 36.62 26.2657 36.62ZM33.297 38.144C32.569 38.144 31.993 38.016 31.569 37.76C31.145 37.504 30.841 37.136 30.657 36.656C30.473 36.176 30.381 35.604 30.381 34.94V31.328C30.381 30.656 30.473 30.084 30.657 29.612C30.841 29.14 31.145 28.78 31.569 28.532C31.993 28.276 32.569 28.148 33.297 28.148C34.033 28.148 34.613 28.276 35.037 28.532C35.469 28.78 35.777 29.14 35.961 29.612C36.145 30.084 36.237 30.656 36.237 31.328V34.94C36.237 35.604 36.145 36.176 35.961 36.656C35.777 37.136 35.469 37.504 35.037 37.76C34.613 38.016 34.033 38.144 33.297 38.144ZM33.297 36.62C33.521 36.62 33.685 36.564 33.789 36.452C33.893 36.34 33.961 36.196 33.993 36.02C34.025 35.844 34.041 35.664 34.041 35.48V30.8C34.041 30.608 34.025 30.428 33.993 30.26C33.961 30.084 33.893 29.94 33.789 29.828C33.685 29.716 33.521 29.66 33.297 29.66C33.089 29.66 32.933 29.716 32.829 29.828C32.725 29.94 32.657 30.084 32.625 30.26C32.593 30.428 32.577 30.608 32.577 30.8V35.48C32.577 35.664 32.589 35.844 32.613 36.02C32.645 36.196 32.709 36.34 32.805 36.452C32.909 36.564 33.073 36.62 33.297 36.62ZM37.5802 38V28.28H42.4042V29.912H39.7282V32.384H40.1842C40.8002 32.384 41.3202 32.484 41.7442 32.684C42.1762 32.884 42.5042 33.192 42.7282 33.608C42.9522 34.016 43.0642 34.544 43.0642 35.192C43.0642 35.784 42.9842 36.264 42.8242 36.632C42.6722 37 42.4562 37.284 42.1762 37.484C41.8962 37.684 41.5682 37.82 41.1922 37.892C40.8242 37.964 40.4242 38 39.9922 38H37.5802ZM39.7282 36.596H40.0042C40.2762 36.596 40.4922 36.544 40.6522 36.44C40.8122 36.336 40.9242 36.176 40.9882 35.96C41.0522 35.744 41.0802 35.472 41.0722 35.144C41.0642 34.784 40.9882 34.484 40.8442 34.244C40.7002 33.996 40.4122 33.872 39.9802 33.872H39.7282V36.596ZM52.3728 40.1L52.1208 38H44.2248V28.28H46.2528V36.548H47.4408V28.28H49.4568V36.548H50.5968V28.28H52.6248V36.548H53.9448V40.1H52.3728ZM55.1809 38V28.28H59.5489V29.744H57.3289V32.156H59.0209V33.644H57.3289V36.548H59.5729V38H55.1809ZM60.5841 38V28.28H62.7321V32.216H64.2321V28.28H66.3921V38H64.2321V33.752H62.7321V38H60.5841ZM67.9083 38V28.28H69.6003V33.848L72.0843 28.28H73.4763V38H71.7483V32.336L69.2163 38H67.9083ZM74.9505 38V28.28H79.3185V29.744H77.0985V32.156H78.7905V33.644H77.0985V36.548H79.3425V38H74.9505Z"></path>
<path fill="white" d="M16.63 56V47.9H17.63V53.51L20 47.9H20.81V56H19.82V50.3L17.47 56H16.63ZM23.3492 56.1C23.0826 56.1 22.8526 56.0633 22.6592 55.99C22.4659 55.9167 22.3059 55.8033 22.1792 55.65C22.0526 55.49 21.9592 55.2933 21.8992 55.06C21.8392 54.8267 21.8092 54.55 21.8092 54.23H22.7192C22.7192 54.6233 22.7759 54.9067 22.8892 55.08C23.0026 55.2533 23.1626 55.34 23.3692 55.34C23.5492 55.34 23.6792 55.2933 23.7592 55.2C23.8392 55.1067 23.8892 54.98 23.9092 54.82C23.9292 54.6533 23.9392 54.47 23.9392 54.27C23.9392 54.0167 23.9026 53.83 23.8292 53.71C23.7626 53.5833 23.6426 53.5 23.4692 53.46C23.3026 53.42 23.0692 53.4 22.7692 53.4V52.64C23.2359 52.64 23.5459 52.57 23.6992 52.43C23.8592 52.29 23.9392 52.06 23.9392 51.74C23.9392 51.4533 23.8792 51.2467 23.7592 51.12C23.6392 50.9933 23.4892 50.93 23.3092 50.93C23.1092 50.93 22.9492 50.9933 22.8292 51.12C22.7092 51.2467 22.6492 51.5 22.6492 51.88H21.7392C21.7392 51.4467 21.8026 51.1033 21.9292 50.85C22.0626 50.5967 22.2492 50.4167 22.4892 50.31C22.7359 50.1967 23.0226 50.14 23.3492 50.14C23.7092 50.14 23.9992 50.2133 24.2192 50.36C24.4459 50.5067 24.6092 50.7 24.7092 50.94C24.8159 51.1733 24.8692 51.42 24.8692 51.68C24.8692 52.0133 24.8159 52.2733 24.7092 52.46C24.6092 52.6467 24.4826 52.78 24.3292 52.86C24.1826 52.94 24.0392 52.9867 23.8992 53C24.0459 53.0267 24.1926 53.0767 24.3392 53.15C24.4926 53.2167 24.6192 53.3467 24.7192 53.54C24.8259 53.7267 24.8792 54.02 24.8792 54.42C24.8792 54.9667 24.7526 55.3833 24.4992 55.67C24.2459 55.9567 23.8626 56.1 23.3492 56.1ZM25.7392 56V50.22H27.3592C27.7526 50.22 28.0592 50.2867 28.2792 50.42C28.5059 50.5467 28.6659 50.7167 28.7592 50.93C28.8592 51.1367 28.9126 51.36 28.9192 51.6C28.9259 51.8867 28.8792 52.1433 28.7792 52.37C28.6792 52.5967 28.4726 52.7567 28.1592 52.85C28.3992 52.8967 28.5826 52.9967 28.7092 53.15C28.8426 53.2967 28.9326 53.4733 28.9792 53.68C29.0326 53.8867 29.0592 54.1 29.0592 54.32C29.0592 54.6533 29.0092 54.9467 28.9092 55.2C28.8159 55.4533 28.6492 55.65 28.4092 55.79C28.1759 55.93 27.8426 56 27.4092 56H25.7392ZM26.7892 55.19H27.1692C27.3226 55.19 27.4626 55.17 27.5892 55.13C27.7159 55.0833 27.8159 54.9933 27.8892 54.86C27.9692 54.7267 28.0092 54.5333 28.0092 54.28C28.0092 53.98 27.9726 53.7633 27.8992 53.63C27.8326 53.49 27.7392 53.4033 27.6192 53.37C27.5059 53.3367 27.3726 53.32 27.2192 53.32H26.7892V55.19ZM26.7892 52.55H27.3092C27.5159 52.55 27.6792 52.49 27.7992 52.37C27.9192 52.25 27.9792 52.0367 27.9792 51.73C27.9792 51.4567 27.9092 51.2667 27.7692 51.16C27.6292 51.0533 27.4392 51 27.1992 51H26.7892V52.55ZM29.8896 56V50.22H30.7896V54.11L32.5296 50.22H33.3696V56H32.4896V52.08L30.7596 56H29.8896ZM34.4599 56V50.22H35.5299V52.65H36.8999V50.22H37.9699V56H36.8999V53.43H35.5299V56H34.4599ZM39.0498 56V50.22H39.9498V54.11L41.6898 50.22H42.5298V56H41.6498V52.08L39.9198 56H39.0498ZM44.2701 56V51.02H43.1901V50.22H46.4301V51.02H45.3401V56H44.2701ZM48.6185 56.08C48.1652 56.08 47.8152 55.9933 47.5685 55.82C47.3218 55.64 47.1485 55.38 47.0485 55.04C46.9552 54.6933 46.9085 54.27 46.9085 53.77V52.45C46.9085 51.9367 46.9585 51.51 47.0585 51.17C47.1585 50.83 47.3318 50.5733 47.5785 50.4C47.8318 50.2267 48.1785 50.14 48.6185 50.14C49.1052 50.14 49.4618 50.24 49.6885 50.44C49.9218 50.64 50.0752 50.93 50.1485 51.31C50.2218 51.6833 50.2585 52.1333 50.2585 52.66V53.13H47.9785V54.29C47.9785 54.5233 47.9985 54.7133 48.0385 54.86C48.0852 55.0067 48.1552 55.1167 48.2485 55.19C48.3485 55.2567 48.4752 55.29 48.6285 55.29C48.7885 55.29 48.9085 55.2533 48.9885 55.18C49.0752 55.1 49.1318 54.99 49.1585 54.85C49.1918 54.7033 49.2085 54.5333 49.2085 54.34V53.99H50.2485V54.21C50.2485 54.79 50.1252 55.2467 49.8785 55.58C49.6318 55.9133 49.2118 56.08 48.6185 56.08ZM47.9785 52.55H49.2085V52.03C49.2085 51.79 49.1952 51.59 49.1685 51.43C49.1418 51.2633 49.0852 51.14 48.9985 51.06C48.9185 50.9733 48.7885 50.93 48.6085 50.93C48.4352 50.93 48.3018 50.97 48.2085 51.05C48.1218 51.13 48.0618 51.2667 48.0285 51.46C47.9952 51.6467 47.9785 51.9067 47.9785 52.24V52.55ZM51.2575 57.31L51.0875 56.85C51.2675 56.79 51.4075 56.6833 51.5075 56.53C51.6142 56.3833 51.6675 56.2067 51.6675 56H51.0975V54.85H52.1975V55.98C52.1975 56.3333 52.1208 56.6133 51.9675 56.82C51.8142 57.0333 51.5775 57.1967 51.2575 57.31ZM54.8579 57.47V55.29C55.0579 55.1367 55.2412 54.9533 55.4079 54.74C55.5746 54.5267 55.7212 54.2567 55.8479 53.93C55.9746 53.6033 56.0746 53.2 56.1479 52.72C56.2212 52.24 56.2612 51.66 56.2679 50.98L56.2879 50.22H58.8979V55.24H59.5979V57.47H58.8179L58.7279 56H55.7279L55.6379 57.47H54.8579ZM55.8979 55.24H57.8679V50.99H57.1179L57.0979 51.2C57.0912 51.9067 57.0546 52.4967 56.9879 52.97C56.9279 53.4367 56.8412 53.82 56.7279 54.12C56.6212 54.4133 56.4946 54.6467 56.3479 54.82C56.2079 54.9933 56.0579 55.1333 55.8979 55.24ZM61.3788 56.08C61.1522 56.08 60.9522 56.0167 60.7788 55.89C60.6055 55.7567 60.4688 55.59 60.3688 55.39C60.2688 55.1833 60.2188 54.9667 60.2188 54.74C60.2188 54.38 60.2788 54.0767 60.3988 53.83C60.5188 53.5833 60.6822 53.3767 60.8888 53.21C61.1022 53.0367 61.3455 52.8867 61.6188 52.76C61.8988 52.6333 62.1922 52.51 62.4988 52.39V51.98C62.4988 51.7467 62.4855 51.5533 62.4588 51.4C62.4322 51.2467 62.3755 51.1333 62.2888 51.06C62.2088 50.98 62.0855 50.94 61.9188 50.94C61.7722 50.94 61.6522 50.9733 61.5588 51.04C61.4722 51.1067 61.4088 51.2033 61.3688 51.33C61.3288 51.45 61.3088 51.5933 61.3088 51.76V52.05L60.2488 52.01C60.2622 51.37 60.4088 50.9 60.6888 50.6C60.9688 50.2933 61.4022 50.14 61.9888 50.14C62.5622 50.14 62.9688 50.2967 63.2088 50.61C63.4488 50.9233 63.5688 51.3767 63.5688 51.97V54.61C63.5688 54.79 63.5722 54.9633 63.5788 55.13C63.5922 55.2967 63.6055 55.4533 63.6188 55.6C63.6388 55.74 63.6555 55.8733 63.6688 56H62.6888C62.6688 55.8933 62.6422 55.76 62.6088 55.6C62.5822 55.4333 62.5622 55.2833 62.5488 55.15C62.4822 55.3767 62.3522 55.59 62.1588 55.79C61.9722 55.9833 61.7122 56.08 61.3788 56.08ZM61.7988 55.16C61.9055 55.16 62.0055 55.13 62.0988 55.07C62.1922 55.01 62.2755 54.9433 62.3488 54.87C62.4222 54.79 62.4722 54.7267 62.4988 54.68V53.04C62.3322 53.1333 62.1755 53.2267 62.0288 53.32C61.8822 53.4133 61.7522 53.5133 61.6388 53.62C61.5322 53.72 61.4455 53.8367 61.3788 53.97C61.3188 54.0967 61.2888 54.2433 61.2888 54.41C61.2888 54.6433 61.3322 54.8267 61.4188 54.96C61.5055 55.0933 61.6322 55.16 61.7988 55.16ZM64.5966 56V50.22H65.6666V52.65H67.0366V50.22H68.1066V56H67.0366V53.43H65.6666V56H64.5966ZM69.1865 56V50.22H70.2565V52.65H71.6265V50.22H72.6965V56H71.6265V53.43H70.2565V56H69.1865ZM74.8163 56.08C74.5897 56.08 74.3897 56.0167 74.2163 55.89C74.043 55.7567 73.9063 55.59 73.8063 55.39C73.7063 55.1833 73.6563 54.9667 73.6563 54.74C73.6563 54.38 73.7163 54.0767 73.8363 53.83C73.9563 53.5833 74.1197 53.3767 74.3263 53.21C74.5397 53.0367 74.783 52.8867 75.0563 52.76C75.3363 52.6333 75.6297 52.51 75.9363 52.39V51.98C75.9363 51.7467 75.923 51.5533 75.8963 51.4C75.8697 51.2467 75.813 51.1333 75.7263 51.06C75.6463 50.98 75.523 50.94 75.3563 50.94C75.2097 50.94 75.0897 50.9733 74.9963 51.04C74.9097 51.1067 74.8463 51.2033 74.8063 51.33C74.7663 51.45 74.7463 51.5933 74.7463 51.76V52.05L73.6863 52.01C73.6997 51.37 73.8463 50.9 74.1263 50.6C74.4063 50.2933 74.8397 50.14 75.4263 50.14C75.9997 50.14 76.4063 50.2967 76.6463 50.61C76.8863 50.9233 77.0063 51.3767 77.0063 51.97V54.61C77.0063 54.79 77.0097 54.9633 77.0163 55.13C77.0297 55.2967 77.043 55.4533 77.0563 55.6C77.0763 55.74 77.093 55.8733 77.1063 56H76.1263C76.1063 55.8933 76.0797 55.76 76.0463 55.6C76.0197 55.4333 75.9997 55.2833 75.9863 55.15C75.9197 55.3767 75.7897 55.59 75.5963 55.79C75.4097 55.9833 75.1497 56.08 74.8163 56.08ZM75.2363 55.16C75.343 55.16 75.443 55.13 75.5363 55.07C75.6297 55.01 75.713 54.9433 75.7863 54.87C75.8597 54.79 75.9097 54.7267 75.9363 54.68V53.04C75.7697 53.1333 75.613 53.2267 75.4663 53.32C75.3197 53.4133 75.1897 53.5133 75.0763 53.62C74.9697 53.72 74.883 53.8367 74.8163 53.97C74.7563 54.0967 74.7263 54.2433 74.7263 54.41C74.7263 54.6433 74.7697 54.8267 74.8563 54.96C74.943 55.0933 75.0697 55.16 75.2363 55.16ZM77.5941 56L78.6841 53.55C78.4975 53.4767 78.3441 53.3667 78.2241 53.22C78.1108 53.0733 78.0275 52.8933 77.9741 52.68C77.9208 52.4667 77.8941 52.2267 77.8941 51.96C77.8941 51.6533 77.9341 51.39 78.0141 51.17C78.0941 50.95 78.2208 50.77 78.3941 50.63C78.5675 50.49 78.7975 50.3867 79.0841 50.32C79.3708 50.2533 79.7241 50.22 80.1441 50.22H81.2641V56H80.2041V53.72C80.0975 53.72 80.0075 53.72 79.9341 53.72C79.8608 53.7133 79.7808 53.7067 79.6941 53.7L78.7441 56H77.5941ZM80.0841 53.1C80.0975 53.1 80.1175 53.1 80.1441 53.1C80.1775 53.1 80.1975 53.1 80.2041 53.1V50.83C80.1975 50.83 80.1775 50.83 80.1441 50.83C80.1175 50.83 80.1008 50.83 80.0941 50.83C79.7808 50.83 79.5308 50.87 79.3441 50.95C79.1641 51.0233 79.0375 51.1433 78.9641 51.31C78.8908 51.47 78.8541 51.6867 78.8541 51.96C78.8541 52.34 78.9375 52.6233 79.1041 52.81C79.2775 52.9967 79.6041 53.0933 80.0841 53.1ZM86.2257 56.08C85.799 56.08 85.4624 55.9933 85.2157 55.82C84.969 55.6467 84.7924 55.4 84.6857 55.08C84.5857 54.76 84.5357 54.3833 84.5357 53.95V52.27C84.5357 51.8367 84.5857 51.46 84.6857 51.14C84.7924 50.82 84.969 50.5733 85.2157 50.4C85.4624 50.2267 85.799 50.14 86.2257 50.14C86.6524 50.14 86.9857 50.2267 87.2257 50.4C87.4724 50.5733 87.6457 50.82 87.7457 51.14C87.8524 51.46 87.9057 51.8367 87.9057 52.27V53.95C87.9057 54.3833 87.8524 54.76 87.7457 55.08C87.6457 55.4 87.4724 55.6467 87.2257 55.82C86.9857 55.9933 86.6524 56.08 86.2257 56.08ZM86.2257 55.29C86.4324 55.29 86.5757 55.23 86.6557 55.11C86.7424 54.99 86.7924 54.8333 86.8057 54.64C86.8257 54.44 86.8357 54.2333 86.8357 54.02V52.21C86.8357 51.99 86.8257 51.7833 86.8057 51.59C86.7924 51.3967 86.7424 51.24 86.6557 51.12C86.5757 50.9933 86.4324 50.93 86.2257 50.93C86.019 50.93 85.8724 50.9933 85.7857 51.12C85.699 51.24 85.6457 51.3967 85.6257 51.59C85.6124 51.7833 85.6057 51.99 85.6057 52.21V54.02C85.6057 54.2333 85.6124 54.44 85.6257 54.64C85.6457 54.8333 85.699 54.99 85.7857 55.11C85.8724 55.23 86.019 55.29 86.2257 55.29ZM88.8838 56V50.22H92.2438V56H91.1738V51.03H89.9538V56H88.8838ZM96.7771 57.47L96.6871 56H93.3271V50.22H94.3971V55.24H95.7871V50.22H96.8571V55.24H97.5571V57.47H96.7771ZM98.1806 56V50.22H99.0806V54.11L100.821 50.22H101.661V56H100.781V52.08L99.0506 56H98.1806ZM102.311 56L103.401 53.55C103.214 53.4767 103.061 53.3667 102.941 53.22C102.828 53.0733 102.744 52.8933 102.691 52.68C102.638 52.4667 102.611 52.2267 102.611 51.96C102.611 51.6533 102.651 51.39 102.731 51.17C102.811 50.95 102.938 50.77 103.111 50.63C103.284 50.49 103.514 50.3867 103.801 50.32C104.088 50.2533 104.441 50.22 104.861 50.22H105.981V56H104.921V53.72C104.814 53.72 104.724 53.72 104.651 53.72C104.578 53.7133 104.498 53.7067 104.411 53.7L103.461 56H102.311ZM104.801 53.1C104.814 53.1 104.834 53.1 104.861 53.1C104.894 53.1 104.914 53.1 104.921 53.1V50.83C104.914 50.83 104.894 50.83 104.861 50.83C104.834 50.83 104.818 50.83 104.811 50.83C104.498 50.83 104.248 50.87 104.061 50.95C103.881 51.0233 103.754 51.1433 103.681 51.31C103.608 51.47 103.571 51.6867 103.571 51.96C103.571 52.34 103.654 52.6233 103.821 52.81C103.994 52.9967 104.321 53.0933 104.801 53.1ZM109.353 56V50.22H110.423V52.65H111.793V50.22H112.863V56H111.793V53.43H110.423V56H109.353ZM114.982 56.08C114.756 56.08 114.556 56.0167 114.382 55.89C114.209 55.7567 114.072 55.59 113.972 55.39C113.872 55.1833 113.822 54.9667 113.822 54.74C113.822 54.38 113.882 54.0767 114.002 53.83C114.122 53.5833 114.286 53.3767 114.492 53.21C114.706 53.0367 114.949 52.8867 115.222 52.76C115.502 52.6333 115.796 52.51 116.102 52.39V51.98C116.102 51.7467 116.089 51.5533 116.062 51.4C116.036 51.2467 115.979 51.1333 115.892 51.06C115.812 50.98 115.689 50.94 115.522 50.94C115.376 50.94 115.256 50.9733 115.162 51.04C115.076 51.1067 115.012 51.2033 114.972 51.33C114.932 51.45 114.912 51.5933 114.912 51.76V52.05L113.852 52.01C113.866 51.37 114.012 50.9 114.292 50.6C114.572 50.2933 115.006 50.14 115.592 50.14C116.166 50.14 116.572 50.2967 116.812 50.61C117.052 50.9233 117.172 51.3767 117.172 51.97V54.61C117.172 54.79 117.176 54.9633 117.182 55.13C117.196 55.2967 117.209 55.4533 117.222 55.6C117.242 55.74 117.259 55.8733 117.272 56H116.292C116.272 55.8933 116.246 55.76 116.212 55.6C116.186 55.4333 116.166 55.2833 116.152 55.15C116.086 55.3767 115.956 55.59 115.762 55.79C115.576 55.9833 115.316 56.08 114.982 56.08ZM115.402 55.16C115.509 55.16 115.609 55.13 115.702 55.07C115.796 55.01 115.879 54.9433 115.952 54.87C116.026 54.79 116.076 54.7267 116.102 54.68V53.04C115.936 53.1333 115.779 53.2267 115.632 53.32C115.486 53.4133 115.356 53.5133 115.242 53.62C115.136 53.72 115.049 53.8367 114.982 53.97C114.922 54.0967 114.892 54.2433 114.892 54.41C114.892 54.6433 114.936 54.8267 115.022 54.96C115.109 55.0933 115.236 55.16 115.402 55.16ZM117.75 56L119.05 52.96L117.78 50.22H118.8L119.65 52.05L120.4 50.22H121.45L120.13 53.09L121.47 56H120.45L119.54 54.04L118.76 56H117.75ZM123.677 56.08C123.25 56.08 122.914 55.9933 122.667 55.82C122.42 55.6467 122.244 55.4 122.137 55.08C122.037 54.76 121.987 54.3833 121.987 53.95V52.27C121.987 51.8367 122.037 51.46 122.137 51.14C122.244 50.82 122.42 50.5733 122.667 50.4C122.914 50.2267 123.25 50.14 123.677 50.14C124.104 50.14 124.437 50.2267 124.677 50.4C124.924 50.5733 125.097 50.82 125.197 51.14C125.304 51.46 125.357 51.8367 125.357 52.27V53.95C125.357 54.3833 125.304 54.76 125.197 55.08C125.097 55.4 124.924 55.6467 124.677 55.82C124.437 55.9933 124.104 56.08 123.677 56.08ZM123.677 55.29C123.884 55.29 124.027 55.23 124.107 55.11C124.194 54.99 124.244 54.8333 124.257 54.64C124.277 54.44 124.287 54.2333 124.287 54.02V52.21C124.287 51.99 124.277 51.7833 124.257 51.59C124.244 51.3967 124.194 51.24 124.107 51.12C124.027 50.9933 123.884 50.93 123.677 50.93C123.47 50.93 123.324 50.9933 123.237 51.12C123.15 51.24 123.097 51.3967 123.077 51.59C123.064 51.7833 123.057 51.99 123.057 52.21V54.02C123.057 54.2333 123.064 54.44 123.077 54.64C123.097 54.8333 123.15 54.99 123.237 55.11C123.324 55.23 123.47 55.29 123.677 55.29ZM125.815 57.47V55.29C126.015 55.1367 126.198 54.9533 126.365 54.74C126.532 54.5267 126.678 54.2567 126.805 53.93C126.932 53.6033 127.032 53.2 127.105 52.72C127.178 52.24 127.218 51.66 127.225 50.98L127.245 50.22H129.855V55.24H130.555V57.47H129.775L129.685 56H126.685L126.595 57.47H125.815ZM126.855 55.24H128.825V50.99H128.075L128.055 51.2C128.048 51.9067 128.012 52.4967 127.945 52.97C127.885 53.4367 127.798 53.82 127.685 54.12C127.578 54.4133 127.452 54.6467 127.305 54.82C127.165 54.9933 127.015 55.1333 126.855 55.24ZM131.296 56V50.22H132.196V54.11L133.936 50.22H134.776V56H133.896V52.08L132.166 56H131.296ZM136.516 56V51.02H135.436V50.22H138.676V51.02H137.586V56H136.516ZM140.903 56.08C140.43 56.08 140.07 55.9867 139.823 55.8C139.583 55.6067 139.42 55.3367 139.333 54.99C139.253 54.6433 139.213 54.24 139.213 53.78V52.45C139.213 51.9633 139.257 51.55 139.343 51.21C139.43 50.8633 139.593 50.6 139.833 50.42C140.08 50.2333 140.437 50.14 140.903 50.14C141.323 50.14 141.647 50.21 141.873 50.35C142.107 50.4833 142.267 50.6867 142.353 50.96C142.44 51.2267 142.483 51.56 142.483 51.96V52.3H141.513V51.95C141.513 51.6967 141.497 51.4967 141.463 51.35C141.43 51.2033 141.37 51.0967 141.283 51.03C141.197 50.9633 141.073 50.93 140.913 50.93C140.74 50.93 140.607 50.97 140.513 51.05C140.42 51.13 140.357 51.2667 140.323 51.46C140.297 51.6467 140.283 51.9033 140.283 52.23V54.05C140.283 54.5433 140.33 54.8733 140.423 55.04C140.517 55.2067 140.683 55.29 140.923 55.29C141.103 55.29 141.233 55.25 141.313 55.17C141.4 55.0833 141.453 54.9633 141.473 54.81C141.5 54.6567 141.513 54.4833 141.513 54.29V53.82H142.483V54.22C142.483 54.6067 142.437 54.94 142.343 55.22C142.257 55.5 142.097 55.7133 141.863 55.86C141.637 56.0067 141.317 56.08 140.903 56.08ZM142.995 56L144.085 53.55C143.898 53.4767 143.745 53.3667 143.625 53.22C143.511 53.0733 143.428 52.8933 143.375 52.68C143.321 52.4667 143.295 52.2267 143.295 51.96C143.295 51.6533 143.335 51.39 143.415 51.17C143.495 50.95 143.621 50.77 143.795 50.63C143.968 50.49 144.198 50.3867 144.485 50.32C144.771 50.2533 145.125 50.22 145.545 50.22H146.665V56H145.605V53.72C145.498 53.72 145.408 53.72 145.335 53.72C145.261 53.7133 145.181 53.7067 145.095 53.7L144.145 56H142.995ZM145.485 53.1C145.498 53.1 145.518 53.1 145.545 53.1C145.578 53.1 145.598 53.1 145.605 53.1V50.83C145.598 50.83 145.578 50.83 145.545 50.83C145.518 50.83 145.501 50.83 145.495 50.83C145.181 50.83 144.931 50.87 144.745 50.95C144.565 51.0233 144.438 51.1433 144.365 51.31C144.291 51.47 144.255 51.6867 144.255 51.96C144.255 52.34 144.338 52.6233 144.505 52.81C144.678 52.9967 145.005 53.0933 145.485 53.1ZM150.036 56V50.22H151.656C152.049 50.22 152.356 50.2867 152.576 50.42C152.803 50.5467 152.963 50.7167 153.056 50.93C153.156 51.1367 153.209 51.36 153.216 51.6C153.223 51.8867 153.176 52.1433 153.076 52.37C152.976 52.5967 152.769 52.7567 152.456 52.85C152.696 52.8967 152.879 52.9967 153.006 53.15C153.139 53.2967 153.229 53.4733 153.276 53.68C153.329 53.8867 153.356 54.1 153.356 54.32C153.356 54.6533 153.306 54.9467 153.206 55.2C153.113 55.4533 152.946 55.65 152.706 55.79C152.473 55.93 152.139 56 151.706 56H150.036ZM151.086 55.19H151.466C151.619 55.19 151.759 55.17 151.886 55.13C152.013 55.0833 152.113 54.9933 152.186 54.86C152.266 54.7267 152.306 54.5333 152.306 54.28C152.306 53.98 152.269 53.7633 152.196 53.63C152.129 53.49 152.036 53.4033 151.916 53.37C151.803 53.3367 151.669 53.32 151.516 53.32H151.086V55.19ZM151.086 52.55H151.606C151.813 52.55 151.976 52.49 152.096 52.37C152.216 52.25 152.276 52.0367 152.276 51.73C152.276 51.4567 152.206 51.2667 152.066 51.16C151.926 51.0533 151.736 51 151.496 51H151.086V52.55ZM156.472 57.9V50.22H157.542V50.68C157.668 50.5333 157.822 50.4067 158.002 50.3C158.182 50.1933 158.395 50.14 158.642 50.14C158.942 50.14 159.178 50.22 159.352 50.38C159.532 50.5333 159.665 50.73 159.752 50.97C159.838 51.2033 159.895 51.4433 159.922 51.69C159.948 51.93 159.962 52.1367 159.962 52.31V53.71C159.962 54.1167 159.922 54.5033 159.842 54.87C159.762 55.23 159.615 55.5233 159.402 55.75C159.195 55.97 158.902 56.08 158.522 56.08C158.315 56.08 158.132 56.03 157.972 55.93C157.812 55.8233 157.668 55.7033 157.542 55.57V57.9H156.472ZM158.312 55.24C158.498 55.24 158.632 55.1733 158.712 55.04C158.792 54.9 158.842 54.7133 158.862 54.48C158.882 54.2467 158.892 53.99 158.892 53.71V52.31C158.892 52.07 158.878 51.85 158.852 51.65C158.825 51.4433 158.768 51.28 158.682 51.16C158.595 51.04 158.458 50.98 158.272 50.98C158.132 50.98 157.998 51.01 157.872 51.07C157.745 51.13 157.635 51.2 157.542 51.28V54.98C157.642 55.0533 157.755 55.1167 157.882 55.17C158.008 55.2167 158.152 55.24 158.312 55.24ZM161.975 56.08C161.748 56.08 161.548 56.0167 161.375 55.89C161.201 55.7567 161.065 55.59 160.965 55.39C160.865 55.1833 160.815 54.9667 160.815 54.74C160.815 54.38 160.875 54.0767 160.995 53.83C161.115 53.5833 161.278 53.3767 161.485 53.21C161.698 53.0367 161.941 52.8867 162.215 52.76C162.495 52.6333 162.788 52.51 163.095 52.39V51.98C163.095 51.7467 163.081 51.5533 163.055 51.4C163.028 51.2467 162.971 51.1333 162.885 51.06C162.805 50.98 162.681 50.94 162.515 50.94C162.368 50.94 162.248 50.9733 162.155 51.04C162.068 51.1067 162.005 51.2033 161.965 51.33C161.925 51.45 161.905 51.5933 161.905 51.76V52.05L160.845 52.01C160.858 51.37 161.005 50.9 161.285 50.6C161.565 50.2933 161.998 50.14 162.585 50.14C163.158 50.14 163.565 50.2967 163.805 50.61C164.045 50.9233 164.165 51.3767 164.165 51.97V54.61C164.165 54.79 164.168 54.9633 164.175 55.13C164.188 55.2967 164.201 55.4533 164.215 55.6C164.235 55.74 164.251 55.8733 164.265 56H163.285C163.265 55.8933 163.238 55.76 163.205 55.6C163.178 55.4333 163.158 55.2833 163.145 55.15C163.078 55.3767 162.948 55.59 162.755 55.79C162.568 55.9833 162.308 56.08 161.975 56.08ZM162.395 55.16C162.501 55.16 162.601 55.13 162.695 55.07C162.788 55.01 162.871 54.9433 162.945 54.87C163.018 54.79 163.068 54.7267 163.095 54.68V53.04C162.928 53.1333 162.771 53.2267 162.625 53.32C162.478 53.4133 162.348 53.5133 162.235 53.62C162.128 53.72 162.041 53.8367 161.975 53.97C161.915 54.0967 161.885 54.2433 161.885 54.41C161.885 54.6433 161.928 54.8267 162.015 54.96C162.101 55.0933 162.228 55.16 162.395 55.16ZM166.552 56.1C166.286 56.1 166.056 56.0633 165.862 55.99C165.669 55.9167 165.509 55.8033 165.382 55.65C165.256 55.49 165.162 55.2933 165.102 55.06C165.042 54.8267 165.012 54.55 165.012 54.23H165.922C165.922 54.6233 165.979 54.9067 166.092 55.08C166.206 55.2533 166.366 55.34 166.572 55.34C166.752 55.34 166.882 55.2933 166.962 55.2C167.042 55.1067 167.092 54.98 167.112 54.82C167.132 54.6533 167.142 54.47 167.142 54.27C167.142 54.0167 167.106 53.83 167.032 53.71C166.966 53.5833 166.846 53.5 166.672 53.46C166.506 53.42 166.272 53.4 165.972 53.4V52.64C166.439 52.64 166.749 52.57 166.902 52.43C167.062 52.29 167.142 52.06 167.142 51.74C167.142 51.4533 167.082 51.2467 166.962 51.12C166.842 50.9933 166.692 50.93 166.512 50.93C166.312 50.93 166.152 50.9933 166.032 51.12C165.912 51.2467 165.852 51.5 165.852 51.88H164.942C164.942 51.4467 165.006 51.1033 165.132 50.85C165.266 50.5967 165.452 50.4167 165.692 50.31C165.939 50.1967 166.226 50.14 166.552 50.14C166.912 50.14 167.202 50.2133 167.422 50.36C167.649 50.5067 167.812 50.7 167.912 50.94C168.019 51.1733 168.072 51.42 168.072 51.68C168.072 52.0133 168.019 52.2733 167.912 52.46C167.812 52.6467 167.686 52.78 167.532 52.86C167.386 52.94 167.242 52.9867 167.102 53C167.249 53.0267 167.396 53.0767 167.542 53.15C167.696 53.2167 167.822 53.3467 167.922 53.54C168.029 53.7267 168.082 54.02 168.082 54.42C168.082 54.9667 167.956 55.3833 167.702 55.67C167.449 55.9567 167.066 56.1 166.552 56.1ZM168.942 57.9V50.22H170.012V50.68C170.139 50.5333 170.292 50.4067 170.472 50.3C170.652 50.1933 170.866 50.14 171.112 50.14C171.412 50.14 171.649 50.22 171.822 50.38C172.002 50.5333 172.136 50.73 172.222 50.97C172.309 51.2033 172.366 51.4433 172.392 51.69C172.419 51.93 172.432 52.1367 172.432 52.31V53.71C172.432 54.1167 172.392 54.5033 172.312 54.87C172.232 55.23 172.086 55.5233 171.872 55.75C171.666 55.97 171.372 56.08 170.992 56.08C170.786 56.08 170.602 56.03 170.442 55.93C170.282 55.8233 170.139 55.7033 170.012 55.57V57.9H168.942ZM170.782 55.24C170.969 55.24 171.102 55.1733 171.182 55.04C171.262 54.9 171.312 54.7133 171.332 54.48C171.352 54.2467 171.362 53.99 171.362 53.71V52.31C171.362 52.07 171.349 51.85 171.322 51.65C171.296 51.4433 171.239 51.28 171.152 51.16C171.066 51.04 170.929 50.98 170.742 50.98C170.602 50.98 170.469 51.01 170.342 51.07C170.216 51.13 170.106 51.2 170.012 51.28V54.98C170.112 55.0533 170.226 55.1167 170.352 55.17C170.479 55.2167 170.622 55.24 170.782 55.24ZM174.445 56.08C174.219 56.08 174.019 56.0167 173.845 55.89C173.672 55.7567 173.535 55.59 173.435 55.39C173.335 55.1833 173.285 54.9667 173.285 54.74C173.285 54.38 173.345 54.0767 173.465 53.83C173.585 53.5833 173.749 53.3767 173.955 53.21C174.169 53.0367 174.412 52.8867 174.685 52.76C174.965 52.6333 175.259 52.51 175.565 52.39V51.98C175.565 51.7467 175.552 51.5533 175.525 51.4C175.499 51.2467 175.442 51.1333 175.355 51.06C175.275 50.98 175.152 50.94 174.985 50.94C174.839 50.94 174.719 50.9733 174.625 51.04C174.539 51.1067 174.475 51.2033 174.435 51.33C174.395 51.45 174.375 51.5933 174.375 51.76V52.05L173.315 52.01C173.329 51.37 173.475 50.9 173.755 50.6C174.035 50.2933 174.469 50.14 175.055 50.14C175.629 50.14 176.035 50.2967 176.275 50.61C176.515 50.9233 176.635 51.3767 176.635 51.97V54.61C176.635 54.79 176.639 54.9633 176.645 55.13C176.659 55.2967 176.672 55.4533 176.685 55.6C176.705 55.74 176.722 55.8733 176.735 56H175.755C175.735 55.8933 175.709 55.76 175.675 55.6C175.649 55.4333 175.629 55.2833 175.615 55.15C175.549 55.3767 175.419 55.59 175.225 55.79C175.039 55.9833 174.779 56.08 174.445 56.08ZM174.865 55.16C174.972 55.16 175.072 55.13 175.165 55.07C175.259 55.01 175.342 54.9433 175.415 54.87C175.489 54.79 175.539 54.7267 175.565 54.68V53.04C175.399 53.1333 175.242 53.2267 175.095 53.32C174.949 53.4133 174.819 53.5133 174.705 53.62C174.599 53.72 174.512 53.8367 174.445 53.97C174.385 54.0967 174.355 54.2433 174.355 54.41C174.355 54.6433 174.399 54.8267 174.485 54.96C174.572 55.0933 174.699 55.16 174.865 55.16ZM179.273 56.08C178.94 56.08 178.65 56.0067 178.403 55.86C178.156 55.7067 177.966 55.4833 177.833 55.19C177.706 54.89 177.643 54.52 177.643 54.08V50.68C177.643 50.1733 177.68 49.76 177.753 49.44C177.833 49.12 177.956 48.8667 178.123 48.68C178.29 48.4933 178.506 48.3467 178.773 48.24C179.053 48.1267 179.303 48.0467 179.523 48C179.743 47.9533 179.953 47.9033 180.153 47.85C180.36 47.79 180.57 47.6967 180.783 47.57L181.003 48.46C180.816 48.58 180.61 48.67 180.383 48.73C180.163 48.7833 179.943 48.8333 179.723 48.88C179.503 48.92 179.296 48.9867 179.103 49.08C178.91 49.1733 178.76 49.3167 178.653 49.51C178.546 49.6967 178.493 49.9567 178.493 50.29V51.22C178.58 51.1333 178.693 51.0533 178.833 50.98C178.973 50.9 179.123 50.8333 179.283 50.78C179.45 50.7267 179.606 50.7 179.753 50.7C179.993 50.7 180.213 50.7633 180.413 50.89C180.613 51.0167 180.773 51.2333 180.893 51.54C181.013 51.84 181.073 52.25 181.073 52.77V53.87C181.073 54.4767 180.996 54.94 180.843 55.26C180.69 55.5733 180.476 55.79 180.203 55.91C179.936 56.0233 179.626 56.08 179.273 56.08ZM179.373 55.29C179.52 55.29 179.636 55.2567 179.723 55.19C179.816 55.1167 179.883 55 179.923 54.84C179.97 54.68 179.993 54.4667 179.993 54.2V52.45C179.993 52.2033 179.976 52.0067 179.943 51.86C179.91 51.7133 179.856 51.6067 179.783 51.54C179.71 51.4667 179.61 51.43 179.483 51.43C179.416 51.43 179.34 51.4433 179.253 51.47C179.173 51.49 179.086 51.5233 178.993 51.57C178.906 51.61 178.813 51.6633 178.713 51.73V54.11C178.713 54.39 178.733 54.6167 178.773 54.79C178.82 54.9633 178.89 55.09 178.983 55.17C179.083 55.25 179.213 55.29 179.373 55.29ZM183.638 56.08C183.211 56.08 182.874 55.9933 182.628 55.82C182.381 55.6467 182.204 55.4 182.098 55.08C181.998 54.76 181.948 54.3833 181.948 53.95V52.27C181.948 51.8367 181.998 51.46 182.098 51.14C182.204 50.82 182.381 50.5733 182.628 50.4C182.874 50.2267 183.211 50.14 183.638 50.14C184.064 50.14 184.398 50.2267 184.638 50.4C184.884 50.5733 185.058 50.82 185.158 51.14C185.264 51.46 185.318 51.8367 185.318 52.27V53.95C185.318 54.3833 185.264 54.76 185.158 55.08C185.058 55.4 184.884 55.6467 184.638 55.82C184.398 55.9933 184.064 56.08 183.638 56.08ZM183.638 55.29C183.844 55.29 183.988 55.23 184.068 55.11C184.154 54.99 184.204 54.8333 184.218 54.64C184.238 54.44 184.248 54.2333 184.248 54.02V52.21C184.248 51.99 184.238 51.7833 184.218 51.59C184.204 51.3967 184.154 51.24 184.068 51.12C183.988 50.9933 183.844 50.93 183.638 50.93C183.431 50.93 183.284 50.9933 183.198 51.12C183.111 51.24 183.058 51.3967 183.038 51.59C183.024 51.7833 183.018 51.99 183.018 52.21V54.02C183.018 54.2333 183.024 54.44 183.038 54.64C183.058 54.8333 183.111 54.99 183.198 55.11C183.284 55.23 183.431 55.29 183.638 55.29ZM186.868 56V51.02H185.788V50.22H189.028V51.02H187.938V56H186.868ZM189.675 56V50.22H190.745V52.66H191.045L192.135 50.22H193.235L192.025 53.02L193.255 56H192.135L191.045 53.3H190.745V56H189.675ZM195.425 56.08C194.972 56.08 194.622 55.9933 194.375 55.82C194.128 55.64 193.955 55.38 193.855 55.04C193.762 54.6933 193.715 54.27 193.715 53.77V52.45C193.715 51.9367 193.765 51.51 193.865 51.17C193.965 50.83 194.138 50.5733 194.385 50.4C194.638 50.2267 194.985 50.14 195.425 50.14C195.912 50.14 196.268 50.24 196.495 50.44C196.728 50.64 196.882 50.93 196.955 51.31C197.028 51.6833 197.065 52.1333 197.065 52.66V53.13H194.785V54.29C194.785 54.5233 194.805 54.7133 194.845 54.86C194.892 55.0067 194.962 55.1167 195.055 55.19C195.155 55.2567 195.282 55.29 195.435 55.29C195.595 55.29 195.715 55.2533 195.795 55.18C195.882 55.1 195.938 54.99 195.965 54.85C195.998 54.7033 196.015 54.5333 196.015 54.34V53.99H197.055V54.21C197.055 54.79 196.932 55.2467 196.685 55.58C196.438 55.9133 196.018 56.08 195.425 56.08ZM194.785 52.55H196.015V52.03C196.015 51.79 196.002 51.59 195.975 51.43C195.948 51.2633 195.892 51.14 195.805 51.06C195.725 50.9733 195.595 50.93 195.415 50.93C195.242 50.93 195.108 50.97 195.015 51.05C194.928 51.13 194.868 51.2667 194.835 51.46C194.802 51.6467 194.785 51.9067 194.785 52.24V52.55ZM197.984 56V54.81H199.054V56H197.984ZM199.869 56V54.81H200.939V56H199.869ZM201.754 56V54.81H202.824V56H201.754Z"></path>
</svg>
