<svg xmlns="http://www.w3.org/2000/svg" fill="none" viewBox="0 0 156 56" height="56" width="156">
<rect stroke="white" fill="#0D0E12" height="55" width="155" y="0.5" x="0.5"></rect>
<path fill="white" d="M43.7834 16V10.22H45.8334C46.4134 10.22 46.8501 10.2833 47.1434 10.41C47.4368 10.53 47.6334 10.6967 47.7334 10.91C47.8334 11.1233 47.8834 11.3733 47.8834 11.66C47.8834 12.04 47.8001 12.32 47.6334 12.5C47.4734 12.6733 47.2601 12.7967 46.9934 12.87C47.2734 12.9367 47.4868 13.0367 47.6334 13.17C47.7801 13.3033 47.8801 13.4667 47.9334 13.66C47.9934 13.8533 48.0234 14.0767 48.0234 14.33C48.0234 14.7033 47.9534 15.0167 47.8134 15.27C47.6734 15.5167 47.4368 15.7 47.1034 15.82C46.7701 15.94 46.3168 16 45.7434 16H43.7834ZM45.4034 15.1H45.6734C45.8201 15.1 45.9501 15.0867 46.0634 15.06C46.1768 15.0333 46.2668 14.9633 46.3334 14.85C46.4068 14.73 46.4434 14.54 46.4434 14.28C46.4434 13.9867 46.4101 13.7767 46.3434 13.65C46.2834 13.5233 46.1968 13.4467 46.0834 13.42C45.9701 13.3933 45.8368 13.38 45.6834 13.38H45.4034V15.1ZM45.4034 12.5H45.8134C46.0068 12.5 46.1401 12.44 46.2134 12.32C46.2868 12.1933 46.3234 12.02 46.3234 11.8C46.3234 11.5867 46.2834 11.41 46.2034 11.27C46.1301 11.13 45.9601 11.06 45.6934 11.06H45.4034V12.5ZM48.8323 17.9V10.22H50.4623V10.64C50.6556 10.4667 50.8623 10.3367 51.0823 10.25C51.3023 10.1633 51.5123 10.12 51.7123 10.12C51.9323 10.12 52.1189 10.1633 52.2723 10.25C52.4323 10.3367 52.5623 10.46 52.6623 10.62C52.7623 10.7733 52.8356 10.9533 52.8823 11.16C52.9289 11.3667 52.9523 11.5867 52.9523 11.82V14.31C52.9523 14.67 52.9023 14.9833 52.8023 15.25C52.7089 15.5167 52.5689 15.7267 52.3823 15.88C52.1956 16.0267 51.9656 16.1 51.6923 16.1C51.4856 16.1 51.2756 16.0533 51.0623 15.96C50.8556 15.86 50.6556 15.7267 50.4623 15.56V17.9H48.8323ZM50.8923 15.05C50.9989 15.05 51.0823 15.02 51.1423 14.96C51.2023 14.9 51.2456 14.8233 51.2723 14.73C51.3056 14.63 51.3223 14.52 51.3223 14.4V11.7C51.3223 11.5867 51.3089 11.4867 51.2823 11.4C51.2556 11.3067 51.2123 11.2333 51.1523 11.18C51.0923 11.1267 51.0156 11.1 50.9223 11.1C50.8356 11.1 50.7523 11.12 50.6723 11.16C50.5989 11.1933 50.5289 11.24 50.4623 11.3V14.9C50.5356 14.9467 50.6056 14.9833 50.6723 15.01C50.7456 15.0367 50.8189 15.05 50.8923 15.05ZM54.0411 17.68V16.55C54.2478 16.55 54.4178 16.5367 54.5511 16.51C54.6911 16.4833 54.7944 16.4333 54.8611 16.36C54.9344 16.2867 54.9711 16.1867 54.9711 16.06C54.9711 15.9467 54.9511 15.81 54.9111 15.65C54.8711 15.4833 54.8211 15.2967 54.7611 15.09L53.4011 10.22H54.9311L55.6611 13.56L56.2111 10.22H57.7511L56.4211 16.14C56.3344 16.54 56.1978 16.85 56.0111 17.07C55.8244 17.2967 55.5944 17.4533 55.3211 17.54C55.0544 17.6333 54.7511 17.68 54.4111 17.68H54.0411ZM60.6735 16V13.67C60.5868 13.6767 60.4968 13.6833 60.4035 13.69C60.3168 13.6967 60.2302 13.7 60.1435 13.7C59.6502 13.7 59.2635 13.6433 58.9835 13.53C58.7102 13.41 58.5168 13.2433 58.4035 13.03C58.2968 12.81 58.2435 12.55 58.2435 12.25V10.22H59.8635V12.15C59.8635 12.3567 59.9035 12.51 59.9835 12.61C60.0635 12.71 60.2268 12.7667 60.4735 12.78C60.5068 12.78 60.5368 12.78 60.5635 12.78C60.5968 12.7733 60.6335 12.77 60.6735 12.77V10.22H62.3035V16H60.6735ZM64.5145 16.1C64.2211 16.1 63.9745 16.03 63.7745 15.89C63.5745 15.75 63.4245 15.5733 63.3245 15.36C63.2245 15.14 63.1745 14.9167 63.1745 14.69C63.1745 14.33 63.2445 14.0267 63.3845 13.78C63.5311 13.5333 63.7211 13.3267 63.9545 13.16C64.1878 12.9933 64.4445 12.8533 64.7245 12.74C65.0045 12.62 65.2811 12.5133 65.5545 12.42V11.84C65.5545 11.74 65.5445 11.6533 65.5245 11.58C65.5045 11.5 65.4711 11.44 65.4245 11.4C65.3778 11.3533 65.3078 11.33 65.2145 11.33C65.1211 11.33 65.0478 11.35 64.9945 11.39C64.9478 11.43 64.9145 11.4867 64.8945 11.56C64.8745 11.6267 64.8611 11.7033 64.8545 11.79L64.8145 12.21L63.2945 12.15C63.3278 11.4567 63.5111 10.9467 63.8445 10.62C64.1845 10.2867 64.6911 10.12 65.3645 10.12C65.9511 10.12 66.3878 10.2833 66.6745 10.61C66.9678 10.93 67.1145 11.3467 67.1145 11.86V14.56C67.1145 14.8 67.1178 15.01 67.1245 15.19C67.1378 15.37 67.1511 15.5267 67.1645 15.66C67.1845 15.7933 67.2011 15.9067 67.2145 16H65.7545C65.7345 15.8467 65.7111 15.68 65.6845 15.5C65.6578 15.32 65.6378 15.2133 65.6245 15.18C65.5578 15.42 65.4311 15.6333 65.2445 15.82C65.0645 16.0067 64.8211 16.1 64.5145 16.1ZM65.0945 15C65.1611 15 65.2211 14.9867 65.2745 14.96C65.3345 14.9333 65.3878 14.8967 65.4345 14.85C65.4811 14.8033 65.5211 14.7567 65.5545 14.71V13.13C65.4211 13.21 65.2978 13.2933 65.1845 13.38C65.0711 13.46 64.9745 13.55 64.8945 13.65C64.8145 13.75 64.7511 13.86 64.7045 13.98C64.6645 14.0933 64.6445 14.2233 64.6445 14.37C64.6445 14.5633 64.6845 14.7167 64.7645 14.83C64.8445 14.9433 64.9545 15 65.0945 15ZM69.9703 16.1C69.5503 16.1 69.1903 16.0267 68.8903 15.88C68.5903 15.7267 68.3603 15.5067 68.2003 15.22C68.0403 14.9267 67.9603 14.5767 67.9603 14.17V12.05C67.9603 11.6367 68.0403 11.2867 68.2003 11C68.3603 10.7133 68.5903 10.4967 68.8903 10.35C69.197 10.1967 69.557 10.12 69.9703 10.12C70.397 10.12 70.7503 10.1933 71.0303 10.34C71.317 10.4867 71.5303 10.7033 71.6703 10.99C71.817 11.2767 71.8903 11.63 71.8903 12.05V13.21H69.5703V14.32C69.5703 14.4667 69.587 14.5867 69.6203 14.68C69.6536 14.7733 69.7003 14.84 69.7603 14.88C69.8203 14.92 69.8903 14.94 69.9703 14.94C70.0503 14.94 70.1203 14.9233 70.1803 14.89C70.247 14.85 70.297 14.79 70.3303 14.71C70.3703 14.63 70.3903 14.52 70.3903 14.38V13.77H71.8903V14.33C71.8903 14.9167 71.7203 15.36 71.3803 15.66C71.0403 15.9533 70.5703 16.1 69.9703 16.1ZM69.5703 12.45H70.3903V11.87C70.3903 11.7167 70.3703 11.5967 70.3303 11.51C70.297 11.4233 70.247 11.3633 70.1803 11.33C70.1203 11.2967 70.047 11.28 69.9603 11.28C69.8803 11.28 69.8103 11.3 69.7503 11.34C69.697 11.38 69.6536 11.45 69.6203 11.55C69.587 11.6433 69.5703 11.78 69.5703 11.96V12.45ZM73.4385 16V11.32H72.3885V10.22H76.1085V11.32H75.0585V16H73.4385ZM78.6713 16.1C78.2513 16.1 77.8913 16.0233 77.5913 15.87C77.2979 15.7167 77.0713 15.4967 76.9113 15.21C76.7513 14.9233 76.6713 14.5767 76.6713 14.17V12.05C76.6713 11.6367 76.7513 11.2867 76.9113 11C77.0713 10.7133 77.2979 10.4967 77.5913 10.35C77.8913 10.1967 78.2513 10.12 78.6713 10.12C79.0846 10.12 79.4346 10.1833 79.7213 10.31C80.0146 10.4367 80.2379 10.63 80.3913 10.89C80.5446 11.1433 80.6213 11.4667 80.6213 11.86V12.47H79.0513V11.81C79.0513 11.6567 79.0346 11.54 79.0013 11.46C78.9746 11.3733 78.9313 11.3133 78.8713 11.28C78.8179 11.2467 78.7513 11.23 78.6713 11.23C78.5913 11.23 78.5246 11.2533 78.4713 11.3C78.4179 11.34 78.3779 11.41 78.3513 11.51C78.3246 11.6033 78.3113 11.7367 78.3113 11.91V14.31C78.3113 14.57 78.3413 14.7467 78.4013 14.84C78.4679 14.9333 78.5613 14.98 78.6813 14.98C78.7679 14.98 78.8379 14.9633 78.8913 14.93C78.9446 14.89 78.9846 14.83 79.0113 14.75C79.0379 14.6633 79.0513 14.55 79.0513 14.41V13.64H80.6213V14.34C80.6213 14.7267 80.5413 15.0533 80.3813 15.32C80.2279 15.58 80.0046 15.7767 79.7113 15.91C79.4246 16.0367 79.0779 16.1 78.6713 16.1ZM81.129 16L82.029 13.6C81.8757 13.5133 81.7457 13.3933 81.639 13.24C81.5323 13.0867 81.4523 12.9067 81.399 12.7C81.3457 12.4933 81.319 12.27 81.319 12.03C81.319 11.7633 81.3557 11.52 81.429 11.3C81.509 11.08 81.6323 10.89 81.799 10.73C81.9723 10.57 82.1957 10.4467 82.469 10.36C82.7423 10.2667 83.0723 10.22 83.459 10.22H85.609V16H83.989V13.94C83.9623 13.94 83.889 13.94 83.769 13.94C83.649 13.9333 83.559 13.9267 83.499 13.92L82.849 16H81.129ZM83.919 12.98C83.9323 12.98 83.9457 12.98 83.959 12.98C83.9723 12.98 83.9823 12.98 83.989 12.98V11.14C83.9823 11.14 83.9723 11.14 83.959 11.14C83.9457 11.14 83.9323 11.14 83.919 11.14C83.6723 11.14 83.4657 11.1733 83.299 11.24C83.1323 11.3067 83.0057 11.4067 82.919 11.54C82.839 11.6667 82.799 11.8267 82.799 12.02C82.799 12.3467 82.8957 12.5867 83.089 12.74C83.289 12.8933 83.5657 12.9733 83.919 12.98ZM89.8838 16V11.32H88.8338V10.22H92.5538V11.32H91.5038V16H89.8838ZM95.0584 16.1C94.6451 16.1 94.2851 16.03 93.9784 15.89C93.6784 15.75 93.4451 15.54 93.2784 15.26C93.1184 14.98 93.0384 14.63 93.0384 14.21V12.01C93.0384 11.59 93.1184 11.24 93.2784 10.96C93.4451 10.68 93.6784 10.47 93.9784 10.33C94.2851 10.19 94.6451 10.12 95.0584 10.12C95.4718 10.12 95.8284 10.19 96.1284 10.33C96.4351 10.47 96.6718 10.68 96.8384 10.96C97.0051 11.24 97.0884 11.59 97.0884 12.01V14.21C97.0884 14.63 97.0051 14.98 96.8384 15.26C96.6718 15.54 96.4351 15.75 96.1284 15.89C95.8284 16.03 95.4718 16.1 95.0584 16.1ZM95.0684 15.02C95.1751 15.02 95.2584 14.9933 95.3184 14.94C95.3784 14.88 95.4184 14.8 95.4384 14.7C95.4651 14.5933 95.4784 14.4667 95.4784 14.32V11.9C95.4784 11.7533 95.4651 11.63 95.4384 11.53C95.4184 11.4233 95.3784 11.3433 95.3184 11.29C95.2584 11.23 95.1751 11.2 95.0684 11.2C94.9618 11.2 94.8784 11.23 94.8184 11.29C94.7584 11.3433 94.7151 11.4233 94.6884 11.53C94.6618 11.63 94.6484 11.7533 94.6484 11.9V14.32C94.6484 14.4667 94.6618 14.5933 94.6884 14.7C94.7151 14.8 94.7584 14.88 94.8184 14.94C94.8784 14.9933 94.9618 15.02 95.0684 15.02ZM97.9824 16L98.0024 10.22H99.2024L100.382 12.99L101.572 10.22H102.772L102.792 16H101.522V12.96L100.632 15.1H100.152L99.2524 12.95V16H97.9824ZM103.973 17.68V16.55C104.179 16.55 104.349 16.5367 104.483 16.51C104.623 16.4833 104.726 16.4333 104.793 16.36C104.866 16.2867 104.903 16.1867 104.903 16.06C104.903 15.9467 104.883 15.81 104.843 15.65C104.803 15.4833 104.753 15.2967 104.693 15.09L103.333 10.22H104.863L105.593 13.56L106.143 10.22H107.683L106.353 16.14C106.266 16.54 106.129 16.85 105.943 17.07C105.756 17.2967 105.526 17.4533 105.253 17.54C104.986 17.6333 104.683 17.68 104.343 17.68H103.973ZM108.465 17.4L108.365 16.87C108.538 16.8233 108.698 16.7367 108.845 16.61C108.998 16.49 109.075 16.2867 109.075 16H108.215V14.46H109.765V15.79C109.758 16.2833 109.648 16.6667 109.435 16.94C109.222 17.2133 108.898 17.3667 108.465 17.4ZM21.7961 31V25.22H23.4261V27.5H23.6661L24.5461 25.22H26.2961L25.1561 27.95L26.3261 31H24.6061L23.6661 28.44H23.4261V31H21.7961ZM27.6231 31V26.32H26.5731V25.22H30.2931V26.32H29.2431V31H27.6231ZM32.7977 31.1C32.3844 31.1 32.0244 31.03 31.7177 30.89C31.4177 30.75 31.1844 30.54 31.0177 30.26C30.8577 29.98 30.7777 29.63 30.7777 29.21V27.01C30.7777 26.59 30.8577 26.24 31.0177 25.96C31.1844 25.68 31.4177 25.47 31.7177 25.33C32.0244 25.19 32.3844 25.12 32.7977 25.12C33.211 25.12 33.5677 25.19 33.8677 25.33C34.1744 25.47 34.411 25.68 34.5777 25.96C34.7444 26.24 34.8277 26.59 34.8277 27.01V29.21C34.8277 29.63 34.7444 29.98 34.5777 30.26C34.411 30.54 34.1744 30.75 33.8677 30.89C33.5677 31.03 33.211 31.1 32.7977 31.1ZM32.8077 30.02C32.9144 30.02 32.9977 29.9933 33.0577 29.94C33.1177 29.88 33.1577 29.8 33.1777 29.7C33.2044 29.5933 33.2177 29.4667 33.2177 29.32V26.9C33.2177 26.7533 33.2044 26.63 33.1777 26.53C33.1577 26.4233 33.1177 26.3433 33.0577 26.29C32.9977 26.23 32.9144 26.2 32.8077 26.2C32.701 26.2 32.6177 26.23 32.5577 26.29C32.4977 26.3433 32.4544 26.4233 32.4277 26.53C32.401 26.63 32.3877 26.7533 32.3877 26.9V29.32C32.3877 29.4667 32.401 29.5933 32.4277 29.7C32.4544 29.8 32.4977 29.88 32.5577 29.94C32.6177 29.9933 32.701 30.02 32.8077 30.02ZM38.2903 31V25.22H42.3903V31H40.7603V26.33H39.9203V31H38.2903ZM45.2977 31.1C44.8844 31.1 44.5244 31.03 44.2177 30.89C43.9177 30.75 43.6844 30.54 43.5177 30.26C43.3577 29.98 43.2777 29.63 43.2777 29.21V27.01C43.2777 26.59 43.3577 26.24 43.5177 25.96C43.6844 25.68 43.9177 25.47 44.2177 25.33C44.5244 25.19 44.8844 25.12 45.2977 25.12C45.711 25.12 46.0677 25.19 46.3677 25.33C46.6744 25.47 46.911 25.68 47.0777 25.96C47.2444 26.24 47.3277 26.59 47.3277 27.01V29.21C47.3277 29.63 47.2444 29.98 47.0777 30.26C46.911 30.54 46.6744 30.75 46.3677 30.89C46.0677 31.03 45.711 31.1 45.2977 31.1ZM45.3077 30.02C45.4144 30.02 45.4977 29.9933 45.5577 29.94C45.6177 29.88 45.6577 29.8 45.6777 29.7C45.7044 29.5933 45.7177 29.4667 45.7177 29.32V26.9C45.7177 26.7533 45.7044 26.63 45.6777 26.53C45.6577 26.4233 45.6177 26.3433 45.5577 26.29C45.4977 26.23 45.4144 26.2 45.3077 26.2C45.201 26.2 45.1177 26.23 45.0577 26.29C44.9977 26.3433 44.9544 26.4233 44.9277 26.53C44.901 26.63 44.8877 26.7533 44.8877 26.9V29.32C44.8877 29.4667 44.901 29.5933 44.9277 29.7C44.9544 29.8 44.9977 29.88 45.0577 29.94C45.1177 29.9933 45.201 30.02 45.3077 30.02ZM50.1217 31.1C49.5883 31.0867 49.1783 30.99 48.8917 30.81C48.6117 30.63 48.4217 30.37 48.3217 30.03C48.2217 29.6833 48.1717 29.27 48.1717 28.79V25.56C48.1717 25.0267 48.225 24.6 48.3317 24.28C48.445 23.96 48.5983 23.7133 48.7917 23.54C48.9917 23.3667 49.2217 23.2333 49.4817 23.14C49.7417 23.0467 50.0017 22.9733 50.2617 22.92C50.5283 22.8667 50.785 22.8067 51.0317 22.74C51.285 22.6667 51.5183 22.56 51.7317 22.42L51.7917 23.73C51.5717 23.8433 51.3383 23.9267 51.0917 23.98C50.8517 24.0267 50.615 24.07 50.3817 24.11C50.155 24.1433 49.945 24.2 49.7517 24.28C49.5783 24.3467 49.455 24.4733 49.3817 24.66C49.3083 24.84 49.2717 25.09 49.2717 25.41V25.85C49.3583 25.75 49.465 25.6667 49.5917 25.6C49.725 25.5333 49.8783 25.4833 50.0517 25.45C50.2317 25.4167 50.4283 25.4 50.6417 25.4C50.995 25.4 51.2817 25.4667 51.5017 25.6C51.7217 25.7333 51.8817 25.9533 51.9817 26.26C52.0883 26.5667 52.1417 26.9833 52.1417 27.51V28.92C52.1417 29.5133 52.055 29.97 51.8817 30.29C51.715 30.6033 51.4783 30.8167 51.1717 30.93C50.8717 31.0433 50.5217 31.1 50.1217 31.1ZM50.1917 30.05C50.3183 30.05 50.4083 30.0167 50.4617 29.95C50.5217 29.8833 50.5617 29.76 50.5817 29.58C50.6017 29.3933 50.6117 29.12 50.6117 28.76V27.22C50.6117 27 50.6017 26.8267 50.5817 26.7C50.5617 26.5667 50.5217 26.4733 50.4617 26.42C50.4017 26.3667 50.315 26.34 50.2017 26.34C50.1283 26.34 50.0583 26.3633 49.9917 26.41C49.9317 26.45 49.8817 26.52 49.8417 26.62C49.8017 26.7133 49.7683 26.8467 49.7417 27.02V28.75C49.7417 29.1033 49.7517 29.3733 49.7717 29.56C49.7917 29.7467 49.835 29.8767 49.9017 29.95C49.9683 30.0167 50.065 30.05 50.1917 30.05ZM54.9557 31.1C54.5357 31.1 54.1757 31.0267 53.8757 30.88C53.5757 30.7267 53.3457 30.5067 53.1857 30.22C53.0257 29.9267 52.9457 29.5767 52.9457 29.17V27.05C52.9457 26.6367 53.0257 26.2867 53.1857 26C53.3457 25.7133 53.5757 25.4967 53.8757 25.35C54.1823 25.1967 54.5423 25.12 54.9557 25.12C55.3823 25.12 55.7357 25.1933 56.0157 25.34C56.3023 25.4867 56.5157 25.7033 56.6557 25.99C56.8023 26.2767 56.8757 26.63 56.8757 27.05V28.21H54.5557V29.32C54.5557 29.4667 54.5723 29.5867 54.6057 29.68C54.639 29.7733 54.6857 29.84 54.7457 29.88C54.8057 29.92 54.8757 29.94 54.9557 29.94C55.0357 29.94 55.1057 29.9233 55.1657 29.89C55.2323 29.85 55.2823 29.79 55.3157 29.71C55.3557 29.63 55.3757 29.52 55.3757 29.38V28.77H56.8757V29.33C56.8757 29.9167 56.7057 30.36 56.3657 30.66C56.0257 30.9533 55.5557 31.1 54.9557 31.1ZM54.5557 27.45H55.3757V26.87C55.3757 26.7167 55.3557 26.5967 55.3157 26.51C55.2823 26.4233 55.2323 26.3633 55.1657 26.33C55.1057 26.2967 55.0323 26.28 54.9457 26.28C54.8657 26.28 54.7957 26.3 54.7357 26.34C54.6823 26.38 54.639 26.45 54.6057 26.55C54.5723 26.6433 54.5557 26.78 54.5557 26.96V27.45ZM57.5729 32.57V30.01C57.7929 29.91 57.9829 29.78 58.1429 29.62C58.3029 29.4533 58.4396 29.2533 58.5529 29.02C58.6663 28.78 58.7563 28.5033 58.8229 28.19C58.8896 27.87 58.9363 27.5067 58.9629 27.1L59.1329 25.22H62.3129V30H63.1529V32.57H61.9829L61.8729 31H58.8529L58.7629 32.57H57.5729ZM59.3329 30H60.8229V26.19H60.3429L60.2229 27.49C60.2029 27.8567 60.1663 28.1767 60.1129 28.45C60.0596 28.7167 59.9929 28.95 59.9129 29.15C59.8396 29.3433 59.7529 29.51 59.6529 29.65C59.5529 29.7833 59.4463 29.9 59.3329 30ZM63.8371 31V25.22H65.1271V28.31L66.6371 25.22H67.9071V31H66.5871V27.94L65.1171 31H63.8371ZM69.6153 31V26.32H68.5653V25.22H72.2853V26.32H71.2353V31H69.6153ZM77.6166 31.13C77.0699 31.13 76.6333 31.0233 76.3066 30.81C75.9799 30.59 75.7466 30.29 75.6066 29.91C75.4666 29.5233 75.3966 29.0833 75.3966 28.59C75.4033 28.39 75.4233 28.1967 75.4566 28.01C75.4966 27.8167 75.5533 27.64 75.6266 27.48C75.7066 27.3133 75.8033 27.17 75.9166 27.05C76.0366 26.9233 76.1766 26.82 76.3366 26.74C76.1299 26.5867 75.9466 26.3667 75.7866 26.08C75.6266 25.7867 75.5399 25.4167 75.5266 24.97C75.5199 24.5167 75.5933 24.1267 75.7466 23.8C75.9066 23.4733 76.1433 23.2233 76.4566 23.05C76.7699 22.8767 77.1566 22.79 77.6166 22.79C78.0833 22.79 78.4699 22.88 78.7766 23.06C79.0899 23.2333 79.3233 23.4833 79.4766 23.81C79.6299 24.13 79.6999 24.5167 79.6866 24.97C79.6799 25.4233 79.5999 25.7967 79.4466 26.09C79.2933 26.3767 79.1099 26.5933 78.8966 26.74C79.0566 26.82 79.1933 26.9233 79.3066 27.05C79.4266 27.17 79.5233 27.3133 79.5966 27.48C79.6766 27.64 79.7366 27.8167 79.7766 28.01C79.8166 28.1967 79.8366 28.39 79.8366 28.59C79.8499 29.0833 79.7833 29.5233 79.6366 29.91C79.4966 30.29 79.2633 30.59 78.9366 30.81C78.6099 31.0233 78.1699 31.13 77.6166 31.13ZM77.6166 29.9C77.7966 29.9 77.9266 29.8333 78.0066 29.7C78.0866 29.5667 78.1366 29.41 78.1566 29.23C78.1766 29.0433 78.1866 28.8733 78.1866 28.72C78.1933 28.5133 78.1833 28.3133 78.1566 28.12C78.1366 27.9267 78.0866 27.77 78.0066 27.65C77.9266 27.5233 77.7966 27.46 77.6166 27.46C77.4433 27.46 77.3166 27.5233 77.2366 27.65C77.1566 27.77 77.1033 27.9267 77.0766 28.12C77.0566 28.3067 77.0466 28.5067 77.0466 28.72C77.0466 28.8733 77.0566 29.0433 77.0766 29.23C77.0966 29.4167 77.1466 29.5767 77.2266 29.71C77.3133 29.8367 77.4433 29.9 77.6166 29.9ZM77.6166 26.14C77.7299 26.14 77.8233 26.0967 77.8966 26.01C77.9699 25.9167 78.0233 25.78 78.0566 25.6C78.0966 25.42 78.1166 25.1967 78.1166 24.93C78.1166 24.6567 78.0733 24.44 77.9866 24.28C77.9066 24.12 77.7833 24.04 77.6166 24.04C77.4499 24.04 77.3199 24.12 77.2266 24.28C77.1399 24.44 77.0966 24.6533 77.0966 24.92C77.0966 25.1867 77.1133 25.4133 77.1466 25.6C77.1866 25.78 77.2466 25.9167 77.3266 26.01C77.4066 26.0967 77.5033 26.14 77.6166 26.14ZM82.9814 31.15C82.4948 31.15 82.0881 31.0533 81.7614 30.86C81.4348 30.66 81.1881 30.3867 81.0214 30.04C80.8548 29.6933 80.7714 29.29 80.7714 28.83V25.16C80.7714 24.6867 80.8481 24.2733 81.0014 23.92C81.1614 23.56 81.4048 23.28 81.7314 23.08C82.0581 22.88 82.4748 22.78 82.9814 22.78C83.4881 22.78 83.9014 22.88 84.2214 23.08C84.5481 23.28 84.7881 23.56 84.9414 23.92C85.1014 24.2733 85.1814 24.6867 85.1814 25.16V28.83C85.1814 29.2833 85.0981 29.6867 84.9314 30.04C84.7648 30.3867 84.5181 30.66 84.1914 30.86C83.8648 31.0533 83.4614 31.15 82.9814 31.15ZM82.9814 29.66C83.1414 29.66 83.2548 29.61 83.3214 29.51C83.3948 29.4033 83.4381 29.2833 83.4514 29.15C83.4714 29.01 83.4814 28.89 83.4814 28.79V25.2C83.4814 25.0867 83.4748 24.96 83.4614 24.82C83.4481 24.6733 83.4048 24.5467 83.3314 24.44C83.2648 24.3267 83.1481 24.27 82.9814 24.27C82.8148 24.27 82.6948 24.3267 82.6214 24.44C82.5548 24.5467 82.5148 24.6733 82.5014 24.82C82.4881 24.96 82.4814 25.0867 82.4814 25.2V28.79C82.4814 28.89 82.4914 29.01 82.5114 29.15C82.5314 29.2833 82.5748 29.4033 82.6414 29.51C82.7148 29.61 82.8281 29.66 82.9814 29.66ZM88.4795 31.15C87.9928 31.15 87.5862 31.0533 87.2595 30.86C86.9328 30.66 86.6862 30.3867 86.5195 30.04C86.3528 29.6933 86.2695 29.29 86.2695 28.83V25.16C86.2695 24.6867 86.3462 24.2733 86.4995 23.92C86.6595 23.56 86.9028 23.28 87.2295 23.08C87.5562 22.88 87.9728 22.78 88.4795 22.78C88.9862 22.78 89.3995 22.88 89.7195 23.08C90.0462 23.28 90.2862 23.56 90.4395 23.92C90.5995 24.2733 90.6795 24.6867 90.6795 25.16V28.83C90.6795 29.2833 90.5962 29.6867 90.4295 30.04C90.2628 30.3867 90.0162 30.66 89.6895 30.86C89.3628 31.0533 88.9595 31.15 88.4795 31.15ZM88.4795 29.66C88.6395 29.66 88.7528 29.61 88.8195 29.51C88.8928 29.4033 88.9362 29.2833 88.9495 29.15C88.9695 29.01 88.9795 28.89 88.9795 28.79V25.2C88.9795 25.0867 88.9728 24.96 88.9595 24.82C88.9462 24.6733 88.9028 24.5467 88.8295 24.44C88.7628 24.3267 88.6462 24.27 88.4795 24.27C88.3128 24.27 88.1928 24.3267 88.1195 24.44C88.0528 24.5467 88.0128 24.6733 87.9995 24.82C87.9862 24.96 87.9795 25.0867 87.9795 25.2V28.79C87.9795 28.89 87.9895 29.01 88.0095 29.15C88.0295 29.2833 88.0728 29.4033 88.1395 29.51C88.2128 29.61 88.3262 29.66 88.4795 29.66ZM94.2961 32.9V25.22H95.9261V25.64C96.1195 25.4667 96.3261 25.3367 96.5461 25.25C96.7661 25.1633 96.9761 25.12 97.1761 25.12C97.3961 25.12 97.5828 25.1633 97.7361 25.25C97.8961 25.3367 98.0261 25.46 98.1261 25.62C98.2261 25.7733 98.2995 25.9533 98.3461 26.16C98.3928 26.3667 98.4161 26.5867 98.4161 26.82V29.31C98.4161 29.67 98.3661 29.9833 98.2661 30.25C98.1728 30.5167 98.0328 30.7267 97.8461 30.88C97.6595 31.0267 97.4295 31.1 97.1561 31.1C96.9495 31.1 96.7395 31.0533 96.5261 30.96C96.3195 30.86 96.1195 30.7267 95.9261 30.56V32.9H94.2961ZM96.3561 30.05C96.4628 30.05 96.5461 30.02 96.6061 29.96C96.6661 29.9 96.7095 29.8233 96.7361 29.73C96.7695 29.63 96.7861 29.52 96.7861 29.4V26.7C96.7861 26.5867 96.7728 26.4867 96.7461 26.4C96.7195 26.3067 96.6761 26.2333 96.6161 26.18C96.5561 26.1267 96.4795 26.1 96.3861 26.1C96.2995 26.1 96.2161 26.12 96.1361 26.16C96.0628 26.1933 95.9928 26.24 95.9261 26.3V29.9C95.9995 29.9467 96.0695 29.9833 96.1361 30.01C96.2095 30.0367 96.2828 30.05 96.3561 30.05ZM100.535 31.1C100.242 31.1 99.995 31.03 99.795 30.89C99.595 30.75 99.445 30.5733 99.345 30.36C99.245 30.14 99.195 29.9167 99.195 29.69C99.195 29.33 99.265 29.0267 99.405 28.78C99.5516 28.5333 99.7416 28.3267 99.975 28.16C100.208 27.9933 100.465 27.8533 100.745 27.74C101.025 27.62 101.302 27.5133 101.575 27.42V26.84C101.575 26.74 101.565 26.6533 101.545 26.58C101.525 26.5 101.492 26.44 101.445 26.4C101.398 26.3533 101.328 26.33 101.235 26.33C101.142 26.33 101.068 26.35 101.015 26.39C100.968 26.43 100.935 26.4867 100.915 26.56C100.895 26.6267 100.882 26.7033 100.875 26.79L100.835 27.21L99.315 27.15C99.3483 26.4567 99.5316 25.9467 99.865 25.62C100.205 25.2867 100.712 25.12 101.385 25.12C101.972 25.12 102.408 25.2833 102.695 25.61C102.988 25.93 103.135 26.3467 103.135 26.86V29.56C103.135 29.8 103.138 30.01 103.145 30.19C103.158 30.37 103.172 30.5267 103.185 30.66C103.205 30.7933 103.222 30.9067 103.235 31H101.775C101.755 30.8467 101.732 30.68 101.705 30.5C101.678 30.32 101.658 30.2133 101.645 30.18C101.578 30.42 101.452 30.6333 101.265 30.82C101.085 31.0067 100.842 31.1 100.535 31.1ZM101.115 30C101.182 30 101.242 29.9867 101.295 29.96C101.355 29.9333 101.408 29.8967 101.455 29.85C101.502 29.8033 101.542 29.7567 101.575 29.71V28.13C101.442 28.21 101.318 28.2933 101.205 28.38C101.092 28.46 100.995 28.55 100.915 28.65C100.835 28.75 100.772 28.86 100.725 28.98C100.685 29.0933 100.665 29.2233 100.665 29.37C100.665 29.5633 100.705 29.7167 100.785 29.83C100.865 29.9433 100.975 30 101.115 30ZM105.821 31.11C105.421 31.11 105.097 31.0567 104.851 30.95C104.611 30.8367 104.424 30.6867 104.291 30.5C104.164 30.3067 104.077 30.09 104.031 29.85C103.991 29.6033 103.971 29.3467 103.971 29.08H105.261C105.261 29.3867 105.307 29.6167 105.401 29.77C105.501 29.9167 105.654 29.99 105.861 29.99C106.014 29.99 106.131 29.9567 106.211 29.89C106.291 29.8233 106.344 29.73 106.371 29.61C106.404 29.49 106.421 29.3567 106.421 29.21C106.421 29.0167 106.384 28.8633 106.311 28.75C106.244 28.6367 106.131 28.5567 105.971 28.51C105.817 28.4567 105.607 28.43 105.341 28.43V27.59C105.741 27.59 106.001 27.5367 106.121 27.43C106.247 27.3233 106.311 27.1367 106.311 26.87C106.311 26.6767 106.271 26.5233 106.191 26.41C106.117 26.2967 105.984 26.24 105.791 26.24C105.584 26.24 105.437 26.3 105.351 26.42C105.271 26.5333 105.231 26.7367 105.231 27.03H103.951C103.951 26.6833 104.004 26.3667 104.111 26.08C104.217 25.7867 104.407 25.5533 104.681 25.38C104.961 25.2067 105.357 25.12 105.871 25.12C106.324 25.12 106.691 25.1933 106.971 25.34C107.257 25.48 107.464 25.6733 107.591 25.92C107.724 26.16 107.791 26.4333 107.791 26.74C107.791 26.9933 107.751 27.2067 107.671 27.38C107.591 27.5533 107.487 27.69 107.361 27.79C107.234 27.8833 107.094 27.9533 106.941 28C107.107 28.06 107.254 28.14 107.381 28.24C107.514 28.34 107.621 28.4833 107.701 28.67C107.781 28.85 107.821 29.0967 107.821 29.41C107.821 29.8967 107.664 30.3033 107.351 30.63C107.037 30.95 106.527 31.11 105.821 31.11ZM113.041 31.1C112.621 31.1 112.261 31.0233 111.961 30.87C111.668 30.7167 111.441 30.4967 111.281 30.21C111.121 29.9233 111.041 29.5767 111.041 29.17V27.05C111.041 26.6367 111.121 26.2867 111.281 26C111.441 25.7133 111.668 25.4967 111.961 25.35C112.261 25.1967 112.621 25.12 113.041 25.12C113.455 25.12 113.805 25.1833 114.091 25.31C114.385 25.4367 114.608 25.63 114.761 25.89C114.915 26.1433 114.991 26.4667 114.991 26.86V27.47H113.421V26.81C113.421 26.6567 113.405 26.54 113.371 26.46C113.345 26.3733 113.301 26.3133 113.241 26.28C113.188 26.2467 113.121 26.23 113.041 26.23C112.961 26.23 112.895 26.2533 112.841 26.3C112.788 26.34 112.748 26.41 112.721 26.51C112.695 26.6033 112.681 26.7367 112.681 26.91V29.31C112.681 29.57 112.711 29.7467 112.771 29.84C112.838 29.9333 112.931 29.98 113.051 29.98C113.138 29.98 113.208 29.9633 113.261 29.93C113.315 29.89 113.355 29.83 113.381 29.75C113.408 29.6633 113.421 29.55 113.421 29.41V28.64H114.991V29.34C114.991 29.7267 114.911 30.0533 114.751 30.32C114.598 30.58 114.375 30.7767 114.081 30.91C113.795 31.0367 113.448 31.1 113.041 31.1ZM115.839 31V25.22H117.889C118.469 25.22 118.906 25.2833 119.199 25.41C119.492 25.53 119.689 25.6967 119.789 25.91C119.889 26.1233 119.939 26.3733 119.939 26.66C119.939 27.04 119.856 27.32 119.689 27.5C119.529 27.6733 119.316 27.7967 119.049 27.87C119.329 27.9367 119.542 28.0367 119.689 28.17C119.836 28.3033 119.936 28.4667 119.989 28.66C120.049 28.8533 120.079 29.0767 120.079 29.33C120.079 29.7033 120.009 30.0167 119.869 30.27C119.729 30.5167 119.492 30.7 119.159 30.82C118.826 30.94 118.372 31 117.799 31H115.839ZM117.459 30.1H117.729C117.876 30.1 118.006 30.0867 118.119 30.06C118.232 30.0333 118.322 29.9633 118.389 29.85C118.462 29.73 118.499 29.54 118.499 29.28C118.499 28.9867 118.466 28.7767 118.399 28.65C118.339 28.5233 118.252 28.4467 118.139 28.42C118.026 28.3933 117.892 28.38 117.739 28.38H117.459V30.1ZM117.459 27.5H117.869C118.062 27.5 118.196 27.44 118.269 27.32C118.342 27.1933 118.379 27.02 118.379 26.8C118.379 26.5867 118.339 26.41 118.259 26.27C118.186 26.13 118.016 26.06 117.749 26.06H117.459V27.5ZM122.788 31.1C122.375 31.1 122.015 31.03 121.708 30.89C121.408 30.75 121.175 30.54 121.008 30.26C120.848 29.98 120.768 29.63 120.768 29.21V27.01C120.768 26.59 120.848 26.24 121.008 25.96C121.175 25.68 121.408 25.47 121.708 25.33C122.015 25.19 122.375 25.12 122.788 25.12C123.201 25.12 123.558 25.19 123.858 25.33C124.165 25.47 124.401 25.68 124.568 25.96C124.735 26.24 124.818 26.59 124.818 27.01V29.21C124.818 29.63 124.735 29.98 124.568 30.26C124.401 30.54 124.165 30.75 123.858 30.89C123.558 31.03 123.201 31.1 122.788 31.1ZM122.798 30.02C122.905 30.02 122.988 29.9933 123.048 29.94C123.108 29.88 123.148 29.8 123.168 29.7C123.195 29.5933 123.208 29.4667 123.208 29.32V26.9C123.208 26.7533 123.195 26.63 123.168 26.53C123.148 26.4233 123.108 26.3433 123.048 26.29C122.988 26.23 122.905 26.2 122.798 26.2C122.691 26.2 122.608 26.23 122.548 26.29C122.488 26.3433 122.445 26.4233 122.418 26.53C122.391 26.63 122.378 26.7533 122.378 26.9V29.32C122.378 29.4667 122.391 29.5933 122.418 29.7C122.445 29.8 122.488 29.88 122.548 29.94C122.608 29.9933 122.691 30.02 122.798 30.02ZM125.722 31V25.22H127.012V28.31L128.522 25.22H129.792V31H128.472V27.94L127.002 31H125.722ZM130.4 31L131.63 27.83L130.46 25.22H132.1L132.72 26.61L133.27 25.22H134.52L133.38 28.07L134.69 31H133.03L132.33 29.41L131.75 31H130.4ZM55.5463 46.1C55.1263 46.1 54.7663 46.0233 54.4663 45.87C54.1729 45.7167 53.9463 45.4967 53.7863 45.21C53.6263 44.9233 53.5463 44.5767 53.5463 44.17V42.05C53.5463 41.6367 53.6263 41.2867 53.7863 41C53.9463 40.7133 54.1729 40.4967 54.4663 40.35C54.7663 40.1967 55.1263 40.12 55.5463 40.12C55.9596 40.12 56.3096 40.1833 56.5963 40.31C56.8896 40.4367 57.1129 40.63 57.2663 40.89C57.4196 41.1433 57.4963 41.4667 57.4963 41.86V42.47H55.9263V41.81C55.9263 41.6567 55.9096 41.54 55.8763 41.46C55.8496 41.3733 55.8063 41.3133 55.7463 41.28C55.6929 41.2467 55.6263 41.23 55.5463 41.23C55.4663 41.23 55.3996 41.2533 55.3463 41.3C55.2929 41.34 55.2529 41.41 55.2263 41.51C55.1996 41.6033 55.1863 41.7367 55.1863 41.91V44.31C55.1863 44.57 55.2163 44.7467 55.2763 44.84C55.3429 44.9333 55.4363 44.98 55.5563 44.98C55.6429 44.98 55.7129 44.9633 55.7663 44.93C55.8196 44.89 55.8596 44.83 55.8863 44.75C55.9129 44.6633 55.9263 44.55 55.9263 44.41V43.64H57.4963V44.34C57.4963 44.7267 57.4163 45.0533 57.2563 45.32C57.1029 45.58 56.8796 45.7767 56.5863 45.91C56.2996 46.0367 55.9529 46.1 55.5463 46.1ZM60.244 46.1C59.8307 46.1 59.4707 46.03 59.164 45.89C58.864 45.75 58.6307 45.54 58.464 45.26C58.304 44.98 58.224 44.63 58.224 44.21V42.01C58.224 41.59 58.304 41.24 58.464 40.96C58.6307 40.68 58.864 40.47 59.164 40.33C59.4707 40.19 59.8307 40.12 60.244 40.12C60.6573 40.12 61.014 40.19 61.314 40.33C61.6207 40.47 61.8573 40.68 62.024 40.96C62.1907 41.24 62.274 41.59 62.274 42.01V44.21C62.274 44.63 62.1907 44.98 62.024 45.26C61.8573 45.54 61.6207 45.75 61.314 45.89C61.014 46.03 60.6573 46.1 60.244 46.1ZM60.254 45.02C60.3607 45.02 60.444 44.9933 60.504 44.94C60.564 44.88 60.604 44.8 60.624 44.7C60.6507 44.5933 60.664 44.4667 60.664 44.32V41.9C60.664 41.7533 60.6507 41.63 60.624 41.53C60.604 41.4233 60.564 41.3433 60.504 41.29C60.444 41.23 60.3607 41.2 60.254 41.2C60.1473 41.2 60.064 41.23 60.004 41.29C59.944 41.3433 59.9007 41.4233 59.874 41.53C59.8473 41.63 59.834 41.7533 59.834 41.9V44.32C59.834 44.4667 59.8473 44.5933 59.874 44.7C59.9007 44.8 59.944 44.88 60.004 44.94C60.064 44.9933 60.1473 45.02 60.254 45.02ZM63.178 46V40.22H67.278V46H65.648V41.33H64.808V46H63.178ZM70.1754 46.1C69.7554 46.1 69.3954 46.0267 69.0954 45.88C68.7954 45.7267 68.5654 45.5067 68.4054 45.22C68.2454 44.9267 68.1654 44.5767 68.1654 44.17V42.05C68.1654 41.6367 68.2454 41.2867 68.4054 41C68.5654 40.7133 68.7954 40.4967 69.0954 40.35C69.4021 40.1967 69.7621 40.12 70.1754 40.12C70.6021 40.12 70.9554 40.1933 71.2354 40.34C71.5221 40.4867 71.7354 40.7033 71.8754 40.99C72.0221 41.2767 72.0954 41.63 72.0954 42.05V43.21H69.7754V44.32C69.7754 44.4667 69.7921 44.5867 69.8254 44.68C69.8587 44.7733 69.9054 44.84 69.9654 44.88C70.0254 44.92 70.0954 44.94 70.1754 44.94C70.2554 44.94 70.3254 44.9233 70.3854 44.89C70.4521 44.85 70.5021 44.79 70.5354 44.71C70.5754 44.63 70.5954 44.52 70.5954 44.38V43.77H72.0954V44.33C72.0954 44.9167 71.9254 45.36 71.5854 45.66C71.2454 45.9533 70.7754 46.1 70.1754 46.1ZM69.7754 42.45H70.5954V41.87C70.5954 41.7167 70.5754 41.5967 70.5354 41.51C70.5021 41.4233 70.4521 41.3633 70.3854 41.33C70.3254 41.2967 70.2521 41.28 70.1654 41.28C70.0854 41.28 70.0154 41.3 69.9554 41.34C69.9021 41.38 69.8587 41.45 69.8254 41.55C69.7921 41.6433 69.7754 41.78 69.7754 41.96V42.45ZM72.9827 47.9V40.22H74.6127V40.64C74.806 40.4667 75.0127 40.3367 75.2327 40.25C75.4527 40.1633 75.6627 40.12 75.8627 40.12C76.0827 40.12 76.2693 40.1633 76.4227 40.25C76.5827 40.3367 76.7127 40.46 76.8127 40.62C76.9127 40.7733 76.986 40.9533 77.0327 41.16C77.0793 41.3667 77.1027 41.5867 77.1027 41.82V44.31C77.1027 44.67 77.0527 44.9833 76.9527 45.25C76.8593 45.5167 76.7193 45.7267 76.5327 45.88C76.346 46.0267 76.116 46.1 75.8427 46.1C75.636 46.1 75.426 46.0533 75.2127 45.96C75.006 45.86 74.806 45.7267 74.6127 45.56V47.9H72.9827ZM75.0427 45.05C75.1493 45.05 75.2327 45.02 75.2927 44.96C75.3527 44.9 75.396 44.8233 75.4227 44.73C75.456 44.63 75.4727 44.52 75.4727 44.4V41.7C75.4727 41.5867 75.4593 41.4867 75.4327 41.4C75.406 41.3067 75.3627 41.2333 75.3027 41.18C75.2427 41.1267 75.166 41.1 75.0727 41.1C74.986 41.1 74.9027 41.12 74.8227 41.16C74.7493 41.1933 74.6793 41.24 74.6127 41.3V44.9C74.686 44.9467 74.756 44.9833 74.8227 45.01C74.896 45.0367 74.9693 45.05 75.0427 45.05ZM78.0315 46V40.22H79.6615V42.46H80.6315V40.22H82.2715V46H80.6315V43.58H79.6615V46H78.0315ZM83.2854 46V40.22H84.5754V43.31L86.0854 40.22H87.3554V46H86.0354V42.94L84.5654 46H83.2854ZM88.3635 46V40.22H89.9935V42.5H90.2335L91.1135 40.22H92.8635L91.7235 42.95L92.8935 46H91.1735L90.2335 43.44H89.9935V46H88.3635ZM95.3709 46.1C94.9576 46.1 94.5976 46.03 94.2909 45.89C93.9909 45.75 93.7576 45.54 93.5909 45.26C93.4309 44.98 93.3509 44.63 93.3509 44.21V42.01C93.3509 41.59 93.4309 41.24 93.5909 40.96C93.7576 40.68 93.9909 40.47 94.2909 40.33C94.5976 40.19 94.9576 40.12 95.3709 40.12C95.7843 40.12 96.1409 40.19 96.4409 40.33C96.7476 40.47 96.9843 40.68 97.1509 40.96C97.3176 41.24 97.4009 41.59 97.4009 42.01V44.21C97.4009 44.63 97.3176 44.98 97.1509 45.26C96.9843 45.54 96.7476 45.75 96.4409 45.89C96.1409 46.03 95.7843 46.1 95.3709 46.1ZM95.3809 45.02C95.4876 45.02 95.5709 44.9933 95.6309 44.94C95.6909 44.88 95.7309 44.8 95.7509 44.7C95.7776 44.5933 95.7909 44.4667 95.7909 44.32V41.9C95.7909 41.7533 95.7776 41.63 95.7509 41.53C95.7309 41.4233 95.6909 41.3433 95.6309 41.29C95.5709 41.23 95.4876 41.2 95.3809 41.2C95.2743 41.2 95.1909 41.23 95.1309 41.29C95.0709 41.3433 95.0276 41.4233 95.0009 41.53C94.9743 41.63 94.9609 41.7533 94.9609 41.9V44.32C94.9609 44.4667 94.9743 44.5933 95.0009 44.7C95.0276 44.8 95.0709 44.88 95.1309 44.94C95.1909 44.9933 95.2743 45.02 95.3809 45.02ZM98.3049 46V40.22H100.355C100.935 40.22 101.372 40.2833 101.665 40.41C101.958 40.53 102.155 40.6967 102.255 40.91C102.355 41.1233 102.405 41.3733 102.405 41.66C102.405 42.04 102.322 42.32 102.155 42.5C101.995 42.6733 101.782 42.7967 101.515 42.87C101.795 42.9367 102.008 43.0367 102.155 43.17C102.302 43.3033 102.402 43.4667 102.455 43.66C102.515 43.8533 102.545 44.0767 102.545 44.33C102.545 44.7033 102.475 45.0167 102.335 45.27C102.195 45.5167 101.958 45.7 101.625 45.82C101.292 45.94 100.838 46 100.265 46H98.3049ZM99.9249 45.1H100.195C100.342 45.1 100.472 45.0867 100.585 45.06C100.698 45.0333 100.788 44.9633 100.855 44.85C100.928 44.73 100.965 44.54 100.965 44.28C100.965 43.9867 100.932 43.7767 100.865 43.65C100.805 43.5233 100.718 43.4467 100.605 43.42C100.492 43.3933 100.358 43.38 100.205 43.38H99.9249V45.1ZM99.9249 42.5H100.335C100.528 42.5 100.662 42.44 100.735 42.32C100.808 42.1933 100.845 42.02 100.845 41.8C100.845 41.5867 100.805 41.41 100.725 41.27C100.652 41.13 100.482 41.06 100.215 41.06H99.9249V42.5Z"></path>
</svg>
