<svg xmlns="http://www.w3.org/2000/svg" fill="none" viewBox="0 0 104 22" height="22" width="104">
<rect stroke="#0D0E12" fill="white" height="21" width="103" y="0.5" x="0.5"></rect>
<path fill="#0D0E12" d="M34.92 16.12C34.3067 16.12 33.82 16.01 33.46 15.79C33.1067 15.5633 32.8567 15.25 32.71 14.85C32.5633 14.4433 32.49 13.9667 32.49 13.42V10.5C32.49 9.94 32.5633 9.46 32.71 9.06C32.8567 8.65333 33.1067 8.34 33.46 8.12C33.82 7.9 34.3067 7.79 34.92 7.79C35.52 7.79 35.9867 7.89 36.32 8.09C36.66 8.28333 36.9 8.55667 37.04 8.91C37.18 9.26333 37.25 9.67 37.25 10.13V10.83H35.5V10.02C35.5 9.86 35.49 9.70667 35.47 9.56C35.4567 9.41333 35.41 9.29333 35.33 9.2C35.25 9.1 35.1133 9.05 34.92 9.05C34.7333 9.05 34.5933 9.1 34.5 9.2C34.4133 9.3 34.3567 9.42667 34.33 9.58C34.31 9.72667 34.3 9.88333 34.3 10.05V13.86C34.3 14.04 34.3133 14.2067 34.34 14.36C34.3733 14.5067 34.4333 14.6267 34.52 14.72C34.6133 14.8067 34.7467 14.85 34.92 14.85C35.1067 14.85 35.24 14.8033 35.32 14.71C35.4 14.61 35.45 14.4833 35.47 14.33C35.49 14.1767 35.5 14.02 35.5 13.86V13.01H37.25V13.71C37.25 14.17 37.18 14.5833 37.04 14.95C36.9067 15.31 36.67 15.5967 36.33 15.81C35.9967 16.0167 35.5267 16.12 34.92 16.12ZM37.7048 16V14.74C37.9314 14.74 38.1148 14.7267 38.2548 14.7C38.3948 14.6667 38.5048 14.5933 38.5848 14.48C38.6648 14.3667 38.7281 14.1933 38.7748 13.96C38.8214 13.7267 38.8581 13.4133 38.8848 13.02C38.9181 12.6267 38.9581 12.1267 39.0048 11.52L39.2648 7.9H43.5548V16H41.7748V9.27H40.8848L40.7248 11.86C40.6781 12.5267 40.6314 13.1033 40.5848 13.59C40.5381 14.07 40.4614 14.4733 40.3548 14.8C40.2548 15.1267 40.1014 15.3833 39.8948 15.57C39.6948 15.75 39.4181 15.8733 39.0648 15.94C38.7114 16.0067 38.2581 16.0267 37.7048 16ZM44.7273 17.59V16.41C45.0139 16.4167 45.2639 16.4033 45.4773 16.37C45.6906 16.3367 45.8639 16.2733 45.9973 16.18C46.1306 16.0867 46.2173 15.96 46.2573 15.8C46.3039 15.6333 46.2973 15.4267 46.2373 15.18L44.4173 7.9H46.0773L46.7773 11.23L47.1073 13.4L47.3473 11.22L47.9373 7.9H49.6173L47.9373 15.45C47.8573 15.8167 47.7639 16.1267 47.6573 16.38C47.5506 16.6333 47.4173 16.84 47.2573 17C47.1039 17.1667 46.9139 17.2933 46.6873 17.38C46.4606 17.4667 46.1839 17.5233 45.8573 17.55C45.5373 17.5833 45.1606 17.5967 44.7273 17.59ZM53.4044 16V12.67C53.071 12.7167 52.7444 12.74 52.4244 12.74C52.0377 12.74 51.671 12.6667 51.3244 12.52C50.9844 12.3667 50.7077 12.1467 50.4944 11.86C50.281 11.5667 50.1744 11.21 50.1744 10.79V7.9H51.9644V10.78C51.9644 10.9467 51.981 11.0967 52.0144 11.23C52.0544 11.3567 52.141 11.4567 52.2744 11.53C52.4144 11.6033 52.631 11.64 52.9244 11.64C52.9977 11.64 53.0744 11.6367 53.1544 11.63C53.2344 11.6233 53.3177 11.6133 53.4044 11.6V7.9H55.1944V16H53.4044ZM56.0381 16L57.5681 7.9H59.6081L61.1181 16H59.4681L59.1981 14.29H58.0081L57.7281 16H56.0381ZM58.1681 13.22H59.0281L58.5981 10.06L58.1681 13.22ZM61.9659 16V7.9H63.3759V12.54L65.4459 7.9H66.6059V16H65.1659V11.28L63.0559 16H61.9659ZM64.4159 7.25C63.9426 7.25 63.5626 7.11667 63.2759 6.85C62.9893 6.58333 62.8459 6.19667 62.8459 5.69H63.7659C63.7659 5.93667 63.8126 6.12 63.9059 6.24C64.0059 6.36 64.1759 6.42 64.4159 6.42C64.6493 6.42 64.8159 6.36 64.9159 6.24C65.0159 6.11333 65.0659 5.93 65.0659 5.69H65.9859C65.9859 6.19667 65.8426 6.58333 65.5559 6.85C65.2693 7.11667 64.8893 7.25 64.4159 7.25ZM67.8644 16V7.9H69.6544V11.18H70.9044V7.9H72.7044V16H70.9044V12.46H69.6544V16H67.8644ZM73.5479 16L75.0779 7.9H77.1179L78.6279 16H76.9779L76.7079 14.29H75.5179L75.2379 16H73.5479ZM75.6779 13.22H76.5379L76.1079 10.06L75.6779 13.22ZM78.9457 16L80.4857 12.4C80.179 12.2133 79.9257 11.94 79.7257 11.58C79.5324 11.22 79.4357 10.8 79.4357 10.32C79.4357 9.69333 79.5457 9.20667 79.7657 8.86C79.9857 8.50667 80.299 8.26 80.7057 8.12C81.119 7.97333 81.6124 7.9 82.1857 7.9H84.2657V16H82.4857V12.8H82.1657C82.159 12.8 82.1424 12.8 82.1157 12.8C82.089 12.8 82.069 12.8 82.0557 12.8L80.8757 16H78.9457ZM82.2257 11.54H82.4857V9.13H82.2057C81.839 9.13 81.5624 9.23333 81.3757 9.44C81.1957 9.64 81.1057 9.93667 81.1057 10.33C81.1057 10.6767 81.1857 10.9667 81.3457 11.2C81.5057 11.4267 81.799 11.54 82.2257 11.54Z"></path>
<rect fill="#0D0E12" height="1.66667" width="1.66667" y="7" x="18"></rect>
<rect fill="#0D0E12" height="1.66667" width="1.66667" y="8.66675" x="19.6667"></rect>
<rect fill="#0D0E12" height="1.66667" width="1.66667" y="12" x="19.6667"></rect>
<rect fill="#0D0E12" height="1.66667" width="1.66667" y="10.3333" x="23"></rect>
<rect fill="#0D0E12" height="1.66667" width="1.66667" y="12" x="24.6667"></rect>
<rect fill="#0D0E12" height="1.66667" width="1.66667" y="13.6667" x="21.3333"></rect>
<rect fill="#0D0E12" height="1.66667" width="1.66667" y="13.6667" x="18"></rect>
<rect fill="#0D0E12" height="1.66667" width="1.66667" y="13.6667" x="23"></rect>
<rect fill="#0D0E12" height="1.66667" width="1.66667" y="15.3333" x="19.6667"></rect>
<rect fill="#0D0E12" height="1.66667" width="1.66667" y="15.3333" x="26.3333"></rect>
<rect fill="#0D0E12" height="1.66667" width="1.66667" y="7" x="24.6667"></rect>
<rect fill="#0D0E12" height="1.66667" width="1.66667" y="10.3333" x="26.3333"></rect>
<rect fill="#0D0E12" height="1.66667" width="1.66667" y="8.66675" x="26.3333"></rect>
<rect fill="#0D0E12" height="1.66667" width="1.66667" y="7" x="21.3333"></rect>
</svg>
