<svg xmlns="http://www.w3.org/2000/svg" fill="none" viewBox="0 0 214 84" height="84" width="214">
<mask fill="white" id="path-1-inside-1_1526_6">
<path d="M0 0H214V84H0V0Z"></path>
</mask>
<path fill="#0D0E12" d="M0 0H214V84H0V0Z"></path>
<path mask="url(#path-1-inside-1_1526_6)" fill="white" d="M0 0V-1H-1V0H0ZM0 84H-1V85H0V84ZM0 1H214V-1H0V1ZM214 83H0V85H214V83ZM1 84V0H-1V84H1Z"></path>
<path fill="#05FF00" d="M16.216 40.1V36.464H16.492C16.676 36.408 16.844 36.312 16.996 36.176C17.156 36.032 17.3 35.84 17.428 35.6C17.556 35.36 17.672 35.06 17.776 34.7C17.88 34.34 17.968 33.912 18.04 33.416C18.112 32.912 18.172 32.332 18.22 31.676L18.484 28.28H23.008V36.464H24.1V40.1H22.684L22.576 38H17.812L17.692 40.1H16.216ZM18.52 36.464H21.004V29.804H20.104L19.996 31.892C19.956 32.58 19.896 33.164 19.816 33.644C19.744 34.124 19.656 34.524 19.552 34.844C19.456 35.156 19.352 35.412 19.24 35.612C19.128 35.812 19.008 35.976 18.88 36.104C18.76 36.232 18.64 36.352 18.52 36.464ZM27.8243 38.144C27.0963 38.144 26.5203 38.016 26.0963 37.76C25.6723 37.504 25.3683 37.136 25.1843 36.656C25.0003 36.176 24.9083 35.604 24.9083 34.94V31.328C24.9083 30.656 25.0003 30.084 25.1843 29.612C25.3683 29.14 25.6723 28.78 26.0963 28.532C26.5203 28.276 27.0963 28.148 27.8243 28.148C28.5603 28.148 29.1403 28.276 29.5643 28.532C29.9963 28.78 30.3043 29.14 30.4883 29.612C30.6723 30.084 30.7643 30.656 30.7643 31.328V34.94C30.7643 35.604 30.6723 36.176 30.4883 36.656C30.3043 37.136 29.9963 37.504 29.5643 37.76C29.1403 38.016 28.5603 38.144 27.8243 38.144ZM27.8243 36.62C28.0483 36.62 28.2123 36.564 28.3163 36.452C28.4203 36.34 28.4883 36.196 28.5203 36.02C28.5523 35.844 28.5683 35.664 28.5683 35.48V30.8C28.5683 30.608 28.5523 30.428 28.5203 30.26C28.4883 30.084 28.4203 29.94 28.3163 29.828C28.2123 29.716 28.0483 29.66 27.8243 29.66C27.6163 29.66 27.4603 29.716 27.3563 29.828C27.2523 29.94 27.1843 30.084 27.1523 30.26C27.1203 30.428 27.1043 30.608 27.1043 30.8V35.48C27.1043 35.664 27.1163 35.844 27.1403 36.02C27.1723 36.196 27.2363 36.34 27.3323 36.452C27.4363 36.564 27.6003 36.62 27.8243 36.62ZM32.1076 38V28.28H36.9316V29.912H34.2556V32.384H34.7116C35.3276 32.384 35.8476 32.484 36.2716 32.684C36.7036 32.884 37.0316 33.192 37.2556 33.608C37.4796 34.016 37.5916 34.544 37.5916 35.192C37.5916 35.784 37.5116 36.264 37.3516 36.632C37.1996 37 36.9836 37.284 36.7036 37.484C36.4236 37.684 36.0956 37.82 35.7196 37.892C35.3516 37.964 34.9516 38 34.5196 38H32.1076ZM34.2556 36.596H34.5316C34.8036 36.596 35.0196 36.544 35.1796 36.44C35.3396 36.336 35.4516 36.176 35.5156 35.96C35.5796 35.744 35.6076 35.472 35.5996 35.144C35.5916 34.784 35.5156 34.484 35.3716 34.244C35.2276 33.996 34.9396 33.872 34.5076 33.872H34.2556V36.596ZM38.7161 38V28.28H41.9801C42.5641 28.28 43.0441 28.392 43.4201 28.616C43.7961 28.832 44.0761 29.152 44.2601 29.576C44.4441 29.992 44.5361 30.5 44.5361 31.1C44.5361 31.852 44.4121 32.428 44.1641 32.828C43.9161 33.22 43.5801 33.492 43.1561 33.644C42.7321 33.796 42.2561 33.872 41.7281 33.872H40.8641V38H38.7161ZM40.8641 32.372H41.5841C41.8481 32.372 42.0481 32.324 42.1841 32.228C42.3201 32.132 42.4081 31.988 42.4481 31.796C42.4961 31.604 42.5201 31.36 42.5201 31.064C42.5201 30.816 42.5001 30.6 42.4601 30.416C42.4281 30.224 42.3441 30.072 42.2081 29.96C42.0721 29.848 41.8601 29.792 41.5721 29.792H40.8641V32.372ZM48.3556 38.144C47.6276 38.144 47.0516 38.016 46.6276 37.76C46.2036 37.504 45.8996 37.136 45.7156 36.656C45.5316 36.176 45.4396 35.604 45.4396 34.94V31.328C45.4396 30.656 45.5316 30.084 45.7156 29.612C45.8996 29.14 46.2036 28.78 46.6276 28.532C47.0516 28.276 47.6276 28.148 48.3556 28.148C49.0916 28.148 49.6716 28.276 50.0956 28.532C50.5276 28.78 50.8356 29.14 51.0196 29.612C51.2036 30.084 51.2956 30.656 51.2956 31.328V34.94C51.2956 35.604 51.2036 36.176 51.0196 36.656C50.8356 37.136 50.5276 37.504 50.0956 37.76C49.6716 38.016 49.0916 38.144 48.3556 38.144ZM48.3556 36.62C48.5796 36.62 48.7436 36.564 48.8476 36.452C48.9516 36.34 49.0196 36.196 49.0516 36.02C49.0836 35.844 49.0996 35.664 49.0996 35.48V30.8C49.0996 30.608 49.0836 30.428 49.0516 30.26C49.0196 30.084 48.9516 29.94 48.8476 29.828C48.7436 29.716 48.5796 29.66 48.3556 29.66C48.1476 29.66 47.9916 29.716 47.8876 29.828C47.7836 29.94 47.7156 30.084 47.6836 30.26C47.6516 30.428 47.6356 30.608 47.6356 30.8V35.48C47.6356 35.664 47.6476 35.844 47.6716 36.02C47.7036 36.196 47.7676 36.34 47.8636 36.452C47.9676 36.564 48.1316 36.62 48.3556 36.62ZM55.6731 38V28.28H61.4931V38H59.3811V29.816H57.7851V38H55.6731ZM65.7228 38.144C64.9948 38.144 64.4188 38.016 63.9948 37.76C63.5708 37.504 63.2668 37.136 63.0828 36.656C62.8988 36.176 62.8068 35.604 62.8068 34.94V31.328C62.8068 30.656 62.8988 30.084 63.0828 29.612C63.2668 29.14 63.5708 28.78 63.9948 28.532C64.4188 28.276 64.9948 28.148 65.7228 28.148C66.4588 28.148 67.0388 28.276 67.4628 28.532C67.8948 28.78 68.2028 29.14 68.3867 29.612C68.5707 30.084 68.6628 30.656 68.6628 31.328V34.94C68.6628 35.604 68.5707 36.176 68.3867 36.656C68.2028 37.136 67.8948 37.504 67.4628 37.76C67.0388 38.016 66.4588 38.144 65.7228 38.144ZM65.7228 36.62C65.9468 36.62 66.1108 36.564 66.2148 36.452C66.3188 36.34 66.3868 36.196 66.4188 36.02C66.4508 35.844 66.4668 35.664 66.4668 35.48V30.8C66.4668 30.608 66.4508 30.428 66.4188 30.26C66.3868 30.084 66.3188 29.94 66.2148 29.828C66.1108 29.716 65.9468 29.66 65.7228 29.66C65.5148 29.66 65.3588 29.716 65.2548 29.828C65.1508 29.94 65.0828 30.084 65.0508 30.26C65.0188 30.428 65.0028 30.608 65.0028 30.8V35.48C65.0028 35.664 65.0148 35.844 65.0388 36.02C65.0708 36.196 65.1348 36.34 65.2308 36.452C65.3348 36.564 65.4988 36.62 65.7228 36.62ZM69.322 38L71.362 33.116L69.37 28.28H71.374L73.066 32.828H73.162V28.28H74.866V32.828H74.974L76.666 28.28H78.67L76.678 33.116L78.718 38H76.798L74.974 33.284H74.866V38H73.162V33.284H73.066L71.242 38H69.322ZM79.0411 38L80.8771 28.28H83.3251L85.1371 38H83.1571L82.8331 35.948H81.4051L81.0691 38H79.0411ZM81.5971 34.664H82.6291L82.1131 30.872L81.5971 34.664ZM85.4824 38V36.488C85.7544 36.488 85.9744 36.472 86.1424 36.44C86.3104 36.4 86.4424 36.312 86.5384 36.176C86.6344 36.04 86.7104 35.832 86.7664 35.552C86.8224 35.272 86.8664 34.896 86.8984 34.424C86.9384 33.952 86.9864 33.352 87.0424 32.624L87.3544 28.28H92.5024V38H90.3664V29.924H89.2984L89.1064 33.032C89.0504 33.832 88.9944 34.524 88.9384 35.108C88.8824 35.684 88.7904 36.168 88.6624 36.56C88.5424 36.952 88.3584 37.26 88.1104 37.484C87.8704 37.7 87.5384 37.848 87.1144 37.928C86.6904 38.008 86.1464 38.032 85.4824 38ZM96.7774 38.144C96.0494 38.144 95.4734 38.016 95.0494 37.76C94.6254 37.504 94.3214 37.136 94.1374 36.656C93.9534 36.176 93.8614 35.604 93.8614 34.94V31.328C93.8614 30.656 93.9534 30.084 94.1374 29.612C94.3214 29.14 94.6254 28.78 95.0494 28.532C95.4734 28.276 96.0494 28.148 96.7774 28.148C97.5134 28.148 98.0934 28.276 98.5174 28.532C98.9494 28.78 99.2574 29.14 99.4414 29.612C99.6254 30.084 99.7174 30.656 99.7174 31.328V34.94C99.7174 35.604 99.6254 36.176 99.4414 36.656C99.2574 37.136 98.9494 37.504 98.5174 37.76C98.0934 38.016 97.5134 38.144 96.7774 38.144ZM96.7774 36.62C97.0014 36.62 97.1654 36.564 97.2694 36.452C97.3734 36.34 97.4414 36.196 97.4734 36.02C97.5054 35.844 97.5214 35.664 97.5214 35.48V30.8C97.5214 30.608 97.5054 30.428 97.4734 30.26C97.4414 30.084 97.3734 29.94 97.2694 29.828C97.1654 29.716 97.0014 29.66 96.7774 29.66C96.5694 29.66 96.4134 29.716 96.3094 29.828C96.2054 29.94 96.1374 30.084 96.1054 30.26C96.0734 30.428 96.0574 30.608 96.0574 30.8V35.48C96.0574 35.664 96.0694 35.844 96.0934 36.02C96.1254 36.196 96.1894 36.34 96.2854 36.452C96.3894 36.564 96.5534 36.62 96.7774 36.62ZM101.025 38V28.28H103.557C103.973 28.28 104.365 28.312 104.733 28.376C105.109 28.44 105.441 28.564 105.729 28.748C106.017 28.924 106.241 29.18 106.401 29.516C106.569 29.844 106.653 30.28 106.653 30.824C106.653 31.216 106.593 31.548 106.473 31.82C106.361 32.084 106.197 32.296 105.981 32.456C105.773 32.616 105.521 32.724 105.225 32.78C105.601 32.828 105.917 32.952 106.173 33.152C106.429 33.344 106.621 33.604 106.749 33.932C106.885 34.26 106.953 34.656 106.953 35.12C106.953 35.624 106.885 36.06 106.749 36.428C106.621 36.788 106.433 37.084 106.185 37.316C105.937 37.548 105.629 37.72 105.261 37.832C104.901 37.944 104.485 38 104.013 38H101.025ZM103.173 36.5H103.629C104.101 36.5 104.425 36.38 104.601 36.14C104.785 35.9 104.877 35.548 104.877 35.084C104.877 34.716 104.837 34.424 104.757 34.208C104.677 33.992 104.545 33.836 104.361 33.74C104.177 33.636 103.929 33.584 103.617 33.584H103.173V36.5ZM103.173 32.168H103.593C103.921 32.168 104.169 32.12 104.337 32.024C104.505 31.92 104.617 31.772 104.673 31.58C104.737 31.388 104.769 31.156 104.769 30.884C104.769 30.628 104.721 30.416 104.625 30.248C104.537 30.072 104.401 29.94 104.217 29.852C104.041 29.764 103.817 29.72 103.545 29.72H103.173V32.168ZM107.611 38L109.447 28.28H111.895L113.707 38H111.727L111.403 35.948H109.975L109.639 38H107.611ZM110.167 34.664H111.199L110.683 30.872L110.167 34.664ZM115.412 38V29.876H113.948V28.28H119.024V29.876H117.572V38H115.412ZM119.916 38V28.28H122.064V32.384H122.544C123.152 32.384 123.668 32.484 124.092 32.684C124.516 32.884 124.84 33.192 125.064 33.608C125.288 34.016 125.4 34.544 125.4 35.192C125.4 35.784 125.32 36.264 125.16 36.632C125.008 37 124.792 37.284 124.512 37.484C124.232 37.684 123.904 37.82 123.528 37.892C123.16 37.964 122.764 38 122.34 38H119.916ZM122.064 36.596H122.352C122.624 36.596 122.836 36.544 122.988 36.44C123.148 36.336 123.26 36.176 123.324 35.96C123.396 35.744 123.428 35.472 123.42 35.144C123.412 34.784 123.336 34.484 123.192 34.244C123.056 33.996 122.768 33.872 122.328 33.872H122.064V36.596ZM126.98 35.528L126.416 28.304H128.36L127.652 35.528H126.98ZM126.38 38V36.176H128.228V38H126.38Z"></path>
<path fill="white" d="M16.63 56V47.9H18.49C18.8567 47.9 19.1733 47.94 19.44 48.02C19.7133 48.1 19.94 48.2233 20.12 48.39C20.3 48.5567 20.4333 48.77 20.52 49.03C20.6067 49.2833 20.65 49.5833 20.65 49.93C20.65 50.2633 20.6067 50.5533 20.52 50.8C20.44 51.04 20.3133 51.23 20.14 51.37C19.9733 51.51 19.7567 51.6 19.49 51.64C19.8167 51.7133 20.08 51.84 20.28 52.02C20.48 52.1933 20.6267 52.42 20.72 52.7C20.82 52.9733 20.87 53.3033 20.87 53.69C20.87 54.0367 20.83 54.3533 20.75 54.64C20.67 54.9267 20.5433 55.17 20.37 55.37C20.2033 55.57 19.9867 55.7267 19.72 55.84C19.46 55.9467 19.15 56 18.79 56H16.63ZM17.76 55.19H18.52C19.0267 55.19 19.3633 55.0733 19.53 54.84C19.7033 54.6 19.79 54.2167 19.79 53.69C19.79 53.35 19.7433 53.0667 19.65 52.84C19.5633 52.6067 19.42 52.4333 19.22 52.32C19.0267 52.2 18.7633 52.14 18.43 52.14H17.76V55.19ZM17.76 51.28H18.43C18.75 51.28 19 51.2367 19.18 51.15C19.36 51.0567 19.4867 50.91 19.56 50.71C19.6333 50.51 19.67 50.25 19.67 49.93C19.67 49.5567 19.6133 49.2867 19.5 49.12C19.3867 48.9533 19.21 48.85 18.97 48.81C18.73 48.7633 18.4167 48.74 18.03 48.74H17.76V51.28ZM21.7841 56V50.22H22.8541V52.61C22.8675 52.61 22.8841 52.61 22.9041 52.61C22.9308 52.61 22.9541 52.61 22.9741 52.61C22.9941 52.61 23.0108 52.61 23.0241 52.61C23.4175 52.6167 23.7508 52.6467 24.0241 52.7C24.3041 52.7467 24.5308 52.8333 24.7041 52.96C24.8775 53.08 25.0041 53.25 25.0841 53.47C25.1641 53.6833 25.2041 53.96 25.2041 54.3C25.2041 54.6133 25.1641 54.88 25.0841 55.1C25.0041 55.3133 24.8741 55.4867 24.6941 55.62C24.5141 55.7533 24.2775 55.85 23.9841 55.91C23.6908 55.97 23.3341 56 22.9141 56H21.7841ZM22.8541 55.37H22.9141C23.2541 55.37 23.5208 55.34 23.7141 55.28C23.9075 55.22 24.0441 55.1133 24.1241 54.96C24.2041 54.8 24.2441 54.5767 24.2441 54.29C24.2441 54.03 24.2075 53.8267 24.1341 53.68C24.0675 53.5267 23.9408 53.4167 23.7541 53.35C23.5741 53.2767 23.3108 53.24 22.9641 53.24C22.9575 53.24 22.9408 53.24 22.9141 53.24C22.8875 53.24 22.8675 53.24 22.8541 53.24V55.37ZM25.8641 56V50.22H26.9341V56H25.8641ZM30.2098 57.45V56.63C30.4698 56.63 30.6764 56.6167 30.8298 56.59C30.9831 56.57 31.0931 56.5267 31.1598 56.46C31.2264 56.4 31.2598 56.3133 31.2598 56.2C31.2598 56.14 31.2364 56.0067 31.1898 55.8C31.1431 55.5933 31.0931 55.3733 31.0398 55.14L29.8798 50.22H30.9598L31.7398 54.54L32.4898 50.22H33.5698L32.1898 56.32C32.1298 56.6 32.0198 56.82 31.8598 56.98C31.6998 57.1467 31.4931 57.2667 31.2398 57.34C30.9931 57.4133 30.6931 57.45 30.3398 57.45H30.2098ZM34.2158 56V50.22H37.5758V56H36.5058V51.03H35.2858V56H34.2158ZM40.2591 56.08C39.8058 56.08 39.4558 55.9933 39.2091 55.82C38.9625 55.64 38.7891 55.38 38.6891 55.04C38.5958 54.6933 38.5491 54.27 38.5491 53.77V52.45C38.5491 51.9367 38.5991 51.51 38.6991 51.17C38.7991 50.83 38.9725 50.5733 39.2191 50.4C39.4725 50.2267 39.8191 50.14 40.2591 50.14C40.7458 50.14 41.1025 50.24 41.3291 50.44C41.5625 50.64 41.7158 50.93 41.7891 51.31C41.8625 51.6833 41.8991 52.1333 41.8991 52.66V53.13H39.6191V54.29C39.6191 54.5233 39.6391 54.7133 39.6791 54.86C39.7258 55.0067 39.7958 55.1167 39.8891 55.19C39.9891 55.2567 40.1158 55.29 40.2691 55.29C40.4291 55.29 40.5491 55.2533 40.6291 55.18C40.7158 55.1 40.7725 54.99 40.7991 54.85C40.8325 54.7033 40.8491 54.5333 40.8491 54.34V53.99H41.8891V54.21C41.8891 54.79 41.7658 55.2467 41.5191 55.58C41.2725 55.9133 40.8525 56.08 40.2591 56.08ZM39.6191 52.55H40.8491V52.03C40.8491 51.79 40.8358 51.59 40.8091 51.43C40.7825 51.2633 40.7258 51.14 40.6391 51.06C40.5591 50.9733 40.4291 50.93 40.2491 50.93C40.0758 50.93 39.9425 50.97 39.8491 51.05C39.7625 51.13 39.7025 51.2667 39.6691 51.46C39.6358 51.6467 39.6191 51.9067 39.6191 52.24V52.55ZM42.8681 56V50.22H43.8981V55.24H44.9181V50.22H45.9481V55.24H46.9681V50.22H47.9981V56H42.8681ZM49.1181 56V50.22H50.1881V52.65H51.5581V50.22H52.6281V56H51.5581V53.43H50.1881V56H49.1181ZM55.298 56.08C54.8713 56.08 54.5346 55.9933 54.288 55.82C54.0413 55.6467 53.8646 55.4 53.758 55.08C53.658 54.76 53.608 54.3833 53.608 53.95V52.27C53.608 51.8367 53.658 51.46 53.758 51.14C53.8646 50.82 54.0413 50.5733 54.288 50.4C54.5346 50.2267 54.8713 50.14 55.298 50.14C55.7246 50.14 56.058 50.2267 56.298 50.4C56.5446 50.5733 56.718 50.82 56.818 51.14C56.9246 51.46 56.978 51.8367 56.978 52.27V53.95C56.978 54.3833 56.9246 54.76 56.818 55.08C56.718 55.4 56.5446 55.6467 56.298 55.82C56.058 55.9933 55.7246 56.08 55.298 56.08ZM55.298 55.29C55.5046 55.29 55.648 55.23 55.728 55.11C55.8146 54.99 55.8646 54.8333 55.878 54.64C55.898 54.44 55.908 54.2333 55.908 54.02V52.21C55.908 51.99 55.898 51.7833 55.878 51.59C55.8646 51.3967 55.8146 51.24 55.728 51.12C55.648 50.9933 55.5046 50.93 55.298 50.93C55.0913 50.93 54.9446 50.9933 54.858 51.12C54.7713 51.24 54.718 51.3967 54.698 51.59C54.6846 51.7833 54.678 51.99 54.678 52.21V54.02C54.678 54.2333 54.6846 54.44 54.698 54.64C54.718 54.8333 54.7713 54.99 54.858 55.11C54.9446 55.23 55.0913 55.29 55.298 55.29ZM60.2412 56V50.22H61.8612C62.2545 50.22 62.5612 50.2867 62.7812 50.42C63.0078 50.5467 63.1678 50.7167 63.2612 50.93C63.3612 51.1367 63.4145 51.36 63.4212 51.6C63.4278 51.8867 63.3812 52.1433 63.2812 52.37C63.1812 52.5967 62.9745 52.7567 62.6612 52.85C62.9012 52.8967 63.0845 52.9967 63.2112 53.15C63.3445 53.2967 63.4345 53.4733 63.4812 53.68C63.5345 53.8867 63.5612 54.1 63.5612 54.32C63.5612 54.6533 63.5112 54.9467 63.4112 55.2C63.3178 55.4533 63.1512 55.65 62.9112 55.79C62.6778 55.93 62.3445 56 61.9112 56H60.2412ZM61.2912 55.19H61.6712C61.8245 55.19 61.9645 55.17 62.0912 55.13C62.2178 55.0833 62.3178 54.9933 62.3912 54.86C62.4712 54.7267 62.5112 54.5333 62.5112 54.28C62.5112 53.98 62.4745 53.7633 62.4012 53.63C62.3345 53.49 62.2412 53.4033 62.1212 53.37C62.0078 53.3367 61.8745 53.32 61.7212 53.32H61.2912V55.19ZM61.2912 52.55H61.8112C62.0178 52.55 62.1812 52.49 62.3012 52.37C62.4212 52.25 62.4812 52.0367 62.4812 51.73C62.4812 51.4567 62.4112 51.2667 62.2712 51.16C62.1312 51.0533 61.9412 51 61.7012 51H61.2912V52.55ZM65.9816 56.08C65.5549 56.08 65.2182 55.9933 64.9716 55.82C64.7249 55.6467 64.5482 55.4 64.4416 55.08C64.3416 54.76 64.2916 54.3833 64.2916 53.95V52.27C64.2916 51.8367 64.3416 51.46 64.4416 51.14C64.5482 50.82 64.7249 50.5733 64.9716 50.4C65.2182 50.2267 65.5549 50.14 65.9816 50.14C66.4082 50.14 66.7416 50.2267 66.9816 50.4C67.2282 50.5733 67.4016 50.82 67.5016 51.14C67.6082 51.46 67.6616 51.8367 67.6616 52.27V53.95C67.6616 54.3833 67.6082 54.76 67.5016 55.08C67.4016 55.4 67.2282 55.6467 66.9816 55.82C66.7416 55.9933 66.4082 56.08 65.9816 56.08ZM65.9816 55.29C66.1882 55.29 66.3316 55.23 66.4116 55.11C66.4982 54.99 66.5482 54.8333 66.5616 54.64C66.5816 54.44 66.5916 54.2333 66.5916 54.02V52.21C66.5916 51.99 66.5816 51.7833 66.5616 51.59C66.5482 51.3967 66.4982 51.24 66.4116 51.12C66.3316 50.9933 66.1882 50.93 65.9816 50.93C65.7749 50.93 65.6282 50.9933 65.5416 51.12C65.4549 51.24 65.4016 51.3967 65.3816 51.59C65.3682 51.7833 65.3616 51.99 65.3616 52.21V54.02C65.3616 54.2333 65.3682 54.44 65.3816 54.64C65.4016 54.8333 65.4549 54.99 65.5416 55.11C65.6282 55.23 65.7749 55.29 65.9816 55.29ZM68.6396 56V50.22H69.6696V55.24H70.6896V50.22H71.7196V55.24H72.7396V50.22H73.7696V56H68.6396ZM74.5196 56.05V55.24C74.7196 55.24 74.8763 55.2 74.9896 55.12C75.1096 55.04 75.1996 54.9067 75.2596 54.72C75.3263 54.5267 75.3763 54.27 75.4096 53.95C75.4429 53.6233 75.4729 53.2167 75.4996 52.73L75.6296 50.22H78.6596V56H77.5896V51.03H76.5696L76.4796 52.73C76.4463 53.39 76.3963 53.9367 76.3296 54.37C76.2696 54.8033 76.1729 55.1433 76.0396 55.39C75.9063 55.63 75.7263 55.8 75.4996 55.9C75.2796 56 74.9929 56.05 74.6396 56.05H74.5196ZM79.7431 56V50.22H80.6431V54.11L82.3831 50.22H83.2231V56H82.3431V52.08L80.6131 56H79.7431ZM86.5986 56V50.22H88.2186C88.6119 50.22 88.9186 50.2867 89.1386 50.42C89.3653 50.5467 89.5253 50.7167 89.6186 50.93C89.7186 51.1367 89.7719 51.36 89.7786 51.6C89.7853 51.8867 89.7386 52.1433 89.6386 52.37C89.5386 52.5967 89.3319 52.7567 89.0186 52.85C89.2586 52.8967 89.4419 52.9967 89.5686 53.15C89.7019 53.2967 89.7919 53.4733 89.8386 53.68C89.8919 53.8867 89.9186 54.1 89.9186 54.32C89.9186 54.6533 89.8686 54.9467 89.7686 55.2C89.6753 55.4533 89.5086 55.65 89.2686 55.79C89.0353 55.93 88.7019 56 88.2686 56H86.5986ZM87.6486 55.19H88.0286C88.1819 55.19 88.3219 55.17 88.4486 55.13C88.5753 55.0833 88.6753 54.9933 88.7486 54.86C88.8286 54.7267 88.8686 54.5333 88.8686 54.28C88.8686 53.98 88.8319 53.7633 88.7586 53.63C88.6919 53.49 88.5986 53.4033 88.4786 53.37C88.3653 53.3367 88.2319 53.32 88.0786 53.32H87.6486V55.19ZM87.6486 52.55H88.1686C88.3753 52.55 88.5386 52.49 88.6586 52.37C88.7786 52.25 88.8386 52.0367 88.8386 51.73C88.8386 51.4567 88.7686 51.2667 88.6286 51.16C88.4886 51.0533 88.2986 51 88.0586 51H87.6486V52.55ZM94.6141 56.08C94.1408 56.08 93.7808 55.9867 93.5341 55.8C93.2941 55.6067 93.1308 55.3367 93.0441 54.99C92.9641 54.6433 92.9241 54.24 92.9241 53.78V52.45C92.9241 51.9633 92.9675 51.55 93.0541 51.21C93.1408 50.8633 93.3041 50.6 93.5441 50.42C93.7908 50.2333 94.1475 50.14 94.6141 50.14C95.0341 50.14 95.3575 50.21 95.5841 50.35C95.8175 50.4833 95.9775 50.6867 96.0641 50.96C96.1508 51.2267 96.1941 51.56 96.1941 51.96V52.3H95.2241V51.95C95.2241 51.6967 95.2075 51.4967 95.1741 51.35C95.1408 51.2033 95.0808 51.0967 94.9941 51.03C94.9075 50.9633 94.7841 50.93 94.6241 50.93C94.4508 50.93 94.3175 50.97 94.2241 51.05C94.1308 51.13 94.0675 51.2667 94.0341 51.46C94.0075 51.6467 93.9941 51.9033 93.9941 52.23V54.05C93.9941 54.5433 94.0408 54.8733 94.1341 55.04C94.2275 55.2067 94.3941 55.29 94.6341 55.29C94.8141 55.29 94.9441 55.25 95.0241 55.17C95.1108 55.0833 95.1641 54.9633 95.1841 54.81C95.2108 54.6567 95.2241 54.4833 95.2241 54.29V53.82H96.1941V54.22C96.1941 54.6067 96.1475 54.94 96.0541 55.22C95.9675 55.5 95.8075 55.7133 95.5741 55.86C95.3475 56.0067 95.0275 56.08 94.6141 56.08ZM97.1455 56V50.22H98.7655C99.1588 50.22 99.4655 50.2867 99.6855 50.42C99.9121 50.5467 100.072 50.7167 100.165 50.93C100.265 51.1367 100.319 51.36 100.325 51.6C100.332 51.8867 100.285 52.1433 100.185 52.37C100.085 52.5967 99.8788 52.7567 99.5655 52.85C99.8055 52.8967 99.9888 52.9967 100.115 53.15C100.249 53.2967 100.339 53.4733 100.385 53.68C100.439 53.8867 100.465 54.1 100.465 54.32C100.465 54.6533 100.415 54.9467 100.315 55.2C100.222 55.4533 100.055 55.65 99.8155 55.79C99.5821 55.93 99.2488 56 98.8155 56H97.1455ZM98.1955 55.19H98.5755C98.7288 55.19 98.8688 55.17 98.9955 55.13C99.1221 55.0833 99.2221 54.9933 99.2955 54.86C99.3755 54.7267 99.4155 54.5333 99.4155 54.28C99.4155 53.98 99.3788 53.7633 99.3055 53.63C99.2388 53.49 99.1455 53.4033 99.0255 53.37C98.9121 53.3367 98.7788 53.32 98.6255 53.32H98.1955V55.19ZM98.1955 52.55H98.7155C98.9221 52.55 99.0855 52.49 99.2055 52.37C99.3255 52.25 99.3855 52.0367 99.3855 51.73C99.3855 51.4567 99.3155 51.2667 99.1755 51.16C99.0355 51.0533 98.8455 51 98.6055 51H98.1955V52.55ZM102.886 56.08C102.459 56.08 102.123 55.9933 101.876 55.82C101.629 55.6467 101.453 55.4 101.346 55.08C101.246 54.76 101.196 54.3833 101.196 53.95V52.27C101.196 51.8367 101.246 51.46 101.346 51.14C101.453 50.82 101.629 50.5733 101.876 50.4C102.123 50.2267 102.459 50.14 102.886 50.14C103.313 50.14 103.646 50.2267 103.886 50.4C104.133 50.5733 104.306 50.82 104.406 51.14C104.513 51.46 104.566 51.8367 104.566 52.27V53.95C104.566 54.3833 104.513 54.76 104.406 55.08C104.306 55.4 104.133 55.6467 103.886 55.82C103.646 55.9933 103.313 56.08 102.886 56.08ZM102.886 55.29C103.093 55.29 103.236 55.23 103.316 55.11C103.403 54.99 103.453 54.8333 103.466 54.64C103.486 54.44 103.496 54.2333 103.496 54.02V52.21C103.496 51.99 103.486 51.7833 103.466 51.59C103.453 51.3967 103.403 51.24 103.316 51.12C103.236 50.9933 103.093 50.93 102.886 50.93C102.679 50.93 102.533 50.9933 102.446 51.12C102.359 51.24 102.306 51.3967 102.286 51.59C102.273 51.7833 102.266 51.99 102.266 52.21V54.02C102.266 54.2333 102.273 54.44 102.286 54.64C102.306 54.8333 102.359 54.99 102.446 55.11C102.533 55.23 102.679 55.29 102.886 55.29ZM105.544 56V50.22H106.444V54.11L108.184 50.22H109.024V56H108.144V52.08L106.414 56H105.544ZM107.314 49.59C106.834 49.59 106.494 49.46 106.294 49.2C106.101 48.94 106.004 48.6167 106.004 48.23H106.624C106.631 48.47 106.684 48.6567 106.784 48.79C106.891 48.9167 107.067 48.98 107.314 48.98C107.567 48.98 107.744 48.9133 107.844 48.78C107.951 48.6467 108.004 48.4633 108.004 48.23H108.634C108.634 48.6167 108.534 48.94 108.334 49.2C108.141 49.46 107.801 49.59 107.314 49.59ZM112.399 56V50.22H115.759V56H114.689V51.03H113.469V56H112.399ZM116.843 57.9V50.22H117.913V50.68C118.039 50.5333 118.193 50.4067 118.373 50.3C118.553 50.1933 118.766 50.14 119.013 50.14C119.313 50.14 119.549 50.22 119.723 50.38C119.903 50.5333 120.036 50.73 120.123 50.97C120.209 51.2033 120.266 51.4433 120.293 51.69C120.319 51.93 120.333 52.1367 120.333 52.31V53.71C120.333 54.1167 120.293 54.5033 120.213 54.87C120.133 55.23 119.986 55.5233 119.773 55.75C119.566 55.97 119.273 56.08 118.893 56.08C118.686 56.08 118.503 56.03 118.343 55.93C118.183 55.8233 118.039 55.7033 117.913 55.57V57.9H116.843ZM118.683 55.24C118.869 55.24 119.003 55.1733 119.083 55.04C119.163 54.9 119.213 54.7133 119.233 54.48C119.253 54.2467 119.263 53.99 119.263 53.71V52.31C119.263 52.07 119.249 51.85 119.223 51.65C119.196 51.4433 119.139 51.28 119.053 51.16C118.966 51.04 118.829 50.98 118.643 50.98C118.503 50.98 118.369 51.01 118.243 51.07C118.116 51.13 118.006 51.2 117.913 51.28V54.98C118.013 55.0533 118.126 55.1167 118.253 55.17C118.379 55.2167 118.523 55.24 118.683 55.24ZM122.896 56.08C122.469 56.08 122.132 55.9933 121.886 55.82C121.639 55.6467 121.462 55.4 121.356 55.08C121.256 54.76 121.206 54.3833 121.206 53.95V52.27C121.206 51.8367 121.256 51.46 121.356 51.14C121.462 50.82 121.639 50.5733 121.886 50.4C122.132 50.2267 122.469 50.14 122.896 50.14C123.322 50.14 123.656 50.2267 123.896 50.4C124.142 50.5733 124.316 50.82 124.416 51.14C124.522 51.46 124.576 51.8367 124.576 52.27V53.95C124.576 54.3833 124.522 54.76 124.416 55.08C124.316 55.4 124.142 55.6467 123.896 55.82C123.656 55.9933 123.322 56.08 122.896 56.08ZM122.896 55.29C123.102 55.29 123.246 55.23 123.326 55.11C123.412 54.99 123.462 54.8333 123.476 54.64C123.496 54.44 123.506 54.2333 123.506 54.02V52.21C123.506 51.99 123.496 51.7833 123.476 51.59C123.462 51.3967 123.412 51.24 123.326 51.12C123.246 50.9933 123.102 50.93 122.896 50.93C122.689 50.93 122.542 50.9933 122.456 51.12C122.369 51.24 122.316 51.3967 122.296 51.59C122.282 51.7833 122.276 51.99 122.276 52.21V54.02C122.276 54.2333 122.282 54.44 122.296 54.64C122.316 54.8333 122.369 54.99 122.456 55.11C122.542 55.23 122.689 55.29 122.896 55.29ZM127.544 57.9V55.68H127.444C127.224 55.68 126.997 55.6533 126.764 55.6C126.53 55.54 126.314 55.4333 126.114 55.28C125.914 55.1267 125.75 54.9033 125.624 54.61C125.504 54.3167 125.444 53.9367 125.444 53.47V52.43C125.444 52.0567 125.494 51.7367 125.594 51.47C125.7 51.2033 125.844 50.9867 126.024 50.82C126.21 50.6467 126.42 50.52 126.654 50.44C126.894 50.36 127.147 50.32 127.414 50.32H127.544V47.9H128.534V50.32H128.704C129.057 50.32 129.38 50.3933 129.674 50.54C129.967 50.68 130.2 50.9067 130.374 51.22C130.554 51.5267 130.644 51.93 130.644 52.43V53.47C130.644 53.9367 130.584 54.3167 130.464 54.61C130.344 54.9033 130.184 55.1267 129.984 55.28C129.79 55.4333 129.577 55.54 129.344 55.6C129.117 55.6533 128.894 55.68 128.674 55.68H128.534V57.9H127.544ZM127.474 54.92H127.544V51.02H127.444C127.237 51.02 127.057 51.0533 126.904 51.12C126.75 51.1867 126.63 51.31 126.544 51.49C126.457 51.67 126.414 51.93 126.414 52.27V53.46C126.414 53.8467 126.454 54.1467 126.534 54.36C126.614 54.5667 126.734 54.7133 126.894 54.8C127.054 54.88 127.247 54.92 127.474 54.92ZM128.534 54.92H128.594C128.827 54.92 129.024 54.88 129.184 54.8C129.344 54.7133 129.464 54.5667 129.544 54.36C129.63 54.1467 129.674 53.8467 129.674 53.46V52.27C129.674 51.93 129.63 51.67 129.544 51.49C129.457 51.31 129.334 51.1867 129.174 51.12C129.02 51.0533 128.837 51.02 128.624 51.02H128.534V54.92ZM131.618 56V50.22H132.518V54.11L134.258 50.22H135.098V56H134.218V52.08L132.488 56H131.618ZM135.818 56.05V55.24C136.018 55.24 136.175 55.2 136.288 55.12C136.408 55.04 136.498 54.9067 136.558 54.72C136.625 54.5267 136.675 54.27 136.708 53.95C136.742 53.6233 136.772 53.2167 136.798 52.73L136.928 50.22H139.958V56H138.888V51.03H137.868L137.778 52.73C137.745 53.39 137.695 53.9367 137.628 54.37C137.568 54.8033 137.472 55.1433 137.338 55.39C137.205 55.63 137.025 55.8 136.798 55.9C136.578 56 136.292 56.05 135.938 56.05H135.818ZM141.042 56V50.22H142.112V52.61C142.125 52.61 142.142 52.61 142.162 52.61C142.189 52.61 142.212 52.61 142.232 52.61C142.252 52.61 142.269 52.61 142.282 52.61C142.675 52.6167 143.009 52.6467 143.282 52.7C143.562 52.7467 143.789 52.8333 143.962 52.96C144.135 53.08 144.262 53.25 144.342 53.47C144.422 53.6833 144.462 53.96 144.462 54.3C144.462 54.6133 144.422 54.88 144.342 55.1C144.262 55.3133 144.132 55.4867 143.952 55.62C143.772 55.7533 143.535 55.85 143.242 55.91C142.949 55.97 142.592 56 142.172 56H141.042ZM142.112 55.37H142.172C142.512 55.37 142.779 55.34 142.972 55.28C143.165 55.22 143.302 55.1133 143.382 54.96C143.462 54.8 143.502 54.5767 143.502 54.29C143.502 54.03 143.465 53.8267 143.392 53.68C143.325 53.5267 143.199 53.4167 143.012 53.35C142.832 53.2767 142.569 53.24 142.222 53.24C142.215 53.24 142.199 53.24 142.172 53.24C142.145 53.24 142.125 53.24 142.112 53.24V55.37ZM145.492 54.27L145.152 47.9H146.232L145.872 54.27H145.492ZM145.152 56V54.9H146.232V56H145.152Z"></path>
</svg>
