<svg xmlns="http://www.w3.org/2000/svg" fill="none" viewBox="0 0 140 26" height="26" width="140">
<rect stroke="#0D0E12" fill="#0D0E12" height="21" width="139" y="2.5" x="0.5"></rect>
<path fill="white" d="M59.92 17.12C59.3067 17.12 58.82 17.01 58.46 16.79C58.1067 16.5633 57.8567 16.25 57.71 15.85C57.5633 15.4433 57.49 14.9667 57.49 14.42V11.5C57.49 10.94 57.5633 10.46 57.71 10.06C57.8567 9.65333 58.1067 9.34 58.46 9.12C58.82 8.9 59.3067 8.79 59.92 8.79C60.52 8.79 60.9867 8.89 61.32 9.09C61.66 9.28333 61.9 9.55667 62.04 9.91C62.18 10.2633 62.25 10.67 62.25 11.13V11.83H60.5V11.02C60.5 10.86 60.49 10.7067 60.47 10.56C60.4567 10.4133 60.41 10.2933 60.33 10.2C60.25 10.1 60.1133 10.05 59.92 10.05C59.7333 10.05 59.5933 10.1 59.5 10.2C59.4133 10.3 59.3567 10.4267 59.33 10.58C59.31 10.7267 59.3 10.8833 59.3 11.05V14.86C59.3 15.04 59.3133 15.2067 59.34 15.36C59.3733 15.5067 59.4333 15.6267 59.52 15.72C59.6133 15.8067 59.7467 15.85 59.92 15.85C60.1067 15.85 60.24 15.8033 60.32 15.71C60.4 15.61 60.45 15.4833 60.47 15.33C60.49 15.1767 60.5 15.02 60.5 14.86V14.01H62.25V14.71C62.25 15.17 62.18 15.5833 62.04 15.95C61.9067 16.31 61.67 16.5967 61.33 16.81C60.9967 17.0167 60.5267 17.12 59.92 17.12ZM63.2348 17V8.9H68.0848V17H66.3248V10.18H64.9948V17H63.2348ZM69.2895 17V8.9H72.0095C72.4961 8.9 72.8961 8.99333 73.2095 9.18C73.5228 9.36 73.7561 9.62667 73.9095 9.98C74.0628 10.3267 74.1395 10.75 74.1395 11.25C74.1395 11.8767 74.0361 12.3567 73.8295 12.69C73.6228 13.0167 73.3428 13.2433 72.9895 13.37C72.6361 13.4967 72.2395 13.56 71.7995 13.56H71.0795V17H69.2895ZM71.0795 12.31H71.6795C71.8995 12.31 72.0661 12.27 72.1795 12.19C72.2928 12.11 72.3661 11.99 72.3995 11.83C72.4395 11.67 72.4595 11.4667 72.4595 11.22C72.4595 11.0133 72.4428 10.8333 72.4095 10.68C72.3828 10.52 72.3128 10.3933 72.1995 10.3C72.0861 10.2067 71.9095 10.16 71.6695 10.16H71.0795V12.31ZM74.4463 17L75.9763 8.9H78.0163L79.5263 17H77.8763L77.6063 15.29H76.4163L76.1363 17H74.4463ZM76.5763 14.22H77.4363L77.0063 11.06L76.5763 14.22ZM80.3441 17V8.9H82.4541C82.8008 8.9 83.1275 8.92667 83.4341 8.98C83.7475 9.03333 84.0241 9.13667 84.2641 9.29C84.5041 9.43667 84.6908 9.65 84.8241 9.93C84.9641 10.2033 85.0341 10.5667 85.0341 11.02C85.0341 11.3467 84.9841 11.6233 84.8841 11.85C84.7908 12.07 84.6541 12.2467 84.4741 12.38C84.3008 12.5133 84.0908 12.6033 83.8441 12.65C84.1575 12.69 84.4208 12.7933 84.6341 12.96C84.8475 13.12 85.0075 13.3367 85.1141 13.61C85.2275 13.8833 85.2841 14.2133 85.2841 14.6C85.2841 15.02 85.2275 15.3833 85.1141 15.69C85.0075 15.99 84.8508 16.2367 84.6441 16.43C84.4375 16.6233 84.1808 16.7667 83.8741 16.86C83.5741 16.9533 83.2275 17 82.8341 17H80.3441ZM82.1341 15.75H82.5141C82.9075 15.75 83.1775 15.65 83.3241 15.45C83.4775 15.25 83.5541 14.9567 83.5541 14.57C83.5541 14.2633 83.5208 14.02 83.4541 13.84C83.3875 13.66 83.2775 13.53 83.1241 13.45C82.9708 13.3633 82.7641 13.32 82.5041 13.32H82.1341V15.75ZM82.1341 12.14H82.4841C82.7575 12.14 82.9641 12.1 83.1041 12.02C83.2441 11.9333 83.3375 11.81 83.3841 11.65C83.4375 11.49 83.4641 11.2967 83.4641 11.07C83.4641 10.8567 83.4241 10.68 83.3441 10.54C83.2708 10.3933 83.1575 10.2833 83.0041 10.21C82.8575 10.1367 82.6708 10.1 82.4441 10.1H82.1341V12.14ZM86.253 17V8.9H88.043V12.11H88.223L89.413 8.9H91.193L89.713 12.7L91.243 17H89.403L88.223 13.47H88.043V17H86.253ZM91.5557 17L93.0857 8.9H95.1257L96.6357 17H94.9857L94.7157 15.29H93.5257L93.2457 17H91.5557ZM93.6857 14.22H94.5457L94.1157 11.06L93.6857 14.22Z"></path>
<mask fill="white" id="path-3-inside-1_554_352">
<path d="M51.7088 9.488C51.7088 10.848 51.4608 11.896 50.9648 12.632C50.4688 13.352 49.6048 13.936 48.3728 14.384V15.8H43.4288V13.328C43.4288 12.736 43.5328 12.32 43.7408 12.08C43.9648 11.824 44.3168 11.6 44.7968 11.408C45.2928 11.2 45.5968 11.032 45.7088 10.904C45.8368 10.76 45.9008 10.568 45.9008 10.328C45.9008 9.88 45.6608 9.656 45.1808 9.656C44.8448 9.656 43.9648 9.744 42.5408 9.92V5.312C43.9488 5.104 45.2128 5 46.3328 5C49.9168 5 51.7088 6.496 51.7088 9.488ZM43.2368 18.584V17.84C43.2368 17.248 43.4048 16.832 43.7408 16.592C44.0928 16.336 44.6688 16.208 45.4688 16.208H46.2128C47.0928 16.208 47.7008 16.336 48.0368 16.592C48.3888 16.832 48.5648 17.248 48.5648 17.84V18.584C48.5648 19.192 48.3888 19.624 48.0368 19.88C47.6848 20.12 47.0608 20.24 46.1648 20.24H45.3968C44.6128 20.24 44.0528 20.12 43.7168 19.88C43.3968 19.64 43.2368 19.208 43.2368 18.584Z"></path>
</mask>
<path fill="white" d="M51.7088 9.488C51.7088 10.848 51.4608 11.896 50.9648 12.632C50.4688 13.352 49.6048 13.936 48.3728 14.384V15.8H43.4288V13.328C43.4288 12.736 43.5328 12.32 43.7408 12.08C43.9648 11.824 44.3168 11.6 44.7968 11.408C45.2928 11.2 45.5968 11.032 45.7088 10.904C45.8368 10.76 45.9008 10.568 45.9008 10.328C45.9008 9.88 45.6608 9.656 45.1808 9.656C44.8448 9.656 43.9648 9.744 42.5408 9.92V5.312C43.9488 5.104 45.2128 5 46.3328 5C49.9168 5 51.7088 6.496 51.7088 9.488ZM43.2368 18.584V17.84C43.2368 17.248 43.4048 16.832 43.7408 16.592C44.0928 16.336 44.6688 16.208 45.4688 16.208H46.2128C47.0928 16.208 47.7008 16.336 48.0368 16.592C48.3888 16.832 48.5648 17.248 48.5648 17.84V18.584C48.5648 19.192 48.3888 19.624 48.0368 19.88C47.6848 20.12 47.0608 20.24 46.1648 20.24H45.3968C44.6128 20.24 44.0528 20.12 43.7168 19.88C43.3968 19.64 43.2368 19.208 43.2368 18.584Z"></path>
<path mask="url(#path-3-inside-1_554_352)" fill="#0D0E12" d="M50.9648 12.632L51.7883 13.1993L51.794 13.1909L50.9648 12.632ZM48.3728 14.384L48.031 13.4442L47.3728 13.6836V14.384H48.3728ZM48.3728 15.8V16.8H49.3728V15.8H48.3728ZM43.4288 15.8H42.4288V16.8H43.4288V15.8ZM43.7408 12.08L42.9882 11.4215L42.9851 11.4251L43.7408 12.08ZM44.7968 11.408L45.1682 12.3365L45.1759 12.3334L45.1835 12.3302L44.7968 11.408ZM45.7088 10.904L44.9613 10.2396L44.9562 10.2455L45.7088 10.904ZM42.5408 9.92H41.5408V11.0512L42.6634 10.9124L42.5408 9.92ZM42.5408 5.312L42.3946 4.32274L41.5408 4.44887V5.312H42.5408ZM43.7408 16.592L44.322 17.4058L44.329 17.4007L43.7408 16.592ZM48.0368 16.592L47.4307 17.3874L47.4517 17.4034L47.4734 17.4182L48.0368 16.592ZM48.0368 19.88L48.6001 20.7062L48.6127 20.6977L48.625 20.6887L48.0368 19.88ZM43.7168 19.88L43.1168 20.68L43.1261 20.687L43.1355 20.6937L43.7168 19.88ZM50.7088 9.488C50.7088 10.7476 50.4755 11.5686 50.1355 12.0731L51.794 13.1909C52.446 12.2234 52.7088 10.9484 52.7088 9.488H50.7088ZM50.1413 12.0647C49.8088 12.5473 49.1599 13.0337 48.031 13.4442L48.7145 15.3238C50.0497 14.8383 51.1288 14.1567 51.7883 13.1993L50.1413 12.0647ZM47.3728 14.384V15.8H49.3728V14.384H47.3728ZM48.3728 14.8H43.4288V16.8H48.3728V14.8ZM44.4288 15.8V13.328H42.4288V15.8H44.4288ZM44.4288 13.328C44.4288 13.0852 44.4507 12.9196 44.4769 12.8145C44.5035 12.7081 44.5249 12.7021 44.4965 12.7349L42.9851 11.4251C42.531 11.9491 42.4288 12.6785 42.4288 13.328H44.4288ZM44.4934 12.7385C44.5733 12.6471 44.7653 12.4976 45.1682 12.3365L44.4254 10.4795C43.8683 10.7024 43.3563 11.0009 42.9882 11.4215L44.4934 12.7385ZM45.1835 12.3302C45.4488 12.2189 45.6849 12.1093 45.8805 12.0012C46.0508 11.9071 46.2847 11.7644 46.4614 11.5625L44.9562 10.2455C44.9982 10.1975 45.0258 10.1808 45.009 10.1927C44.9966 10.2015 44.9669 10.221 44.9131 10.2508C44.8047 10.3107 44.6407 10.3891 44.4101 10.4858L45.1835 12.3302ZM46.4562 11.5684C46.7841 11.1994 46.9008 10.7504 46.9008 10.328H44.9008C44.9008 10.3599 44.8965 10.3587 44.9041 10.3358C44.9127 10.3099 44.9309 10.2739 44.9614 10.2396L46.4562 11.5684ZM46.9008 10.328C46.9008 9.9315 46.7913 9.45528 46.4031 9.09294C46.0279 8.74273 45.5584 8.656 45.1808 8.656V10.656C45.2831 10.656 45.1737 10.6813 45.0385 10.5551C44.8902 10.4167 44.9008 10.2765 44.9008 10.328H46.9008ZM45.1808 8.656C44.7686 8.656 43.8165 8.75472 42.4181 8.92755L42.6634 10.9124C44.1131 10.7333 44.921 10.656 45.1808 10.656V8.656ZM43.5408 9.92V5.312H41.5408V9.92H43.5408ZM42.6869 6.30126C44.0588 6.0986 45.2727 6 46.3328 6V4C45.1529 4 43.8387 4.1094 42.3946 4.32274L42.6869 6.30126ZM46.3328 6C48.0102 6 49.0821 6.35383 49.7239 6.88966C50.3312 7.39662 50.7088 8.19835 50.7088 9.488H52.7088C52.7088 7.78565 52.1904 6.34338 51.0056 5.35434C49.8555 4.39417 48.2394 4 46.3328 4V6ZM44.2368 18.584V17.84H42.2368V18.584H44.2368ZM44.2368 17.84C44.2368 17.6335 44.2668 17.5161 44.29 17.4585C44.301 17.4314 44.3099 17.4186 44.3133 17.4142C44.3163 17.4103 44.3184 17.4083 44.322 17.4057L43.1595 15.7783C42.4592 16.2785 42.2368 17.0742 42.2368 17.84H44.2368ZM44.329 17.4007C44.4176 17.3363 44.7264 17.208 45.4688 17.208V15.208C44.6112 15.208 43.7679 15.3357 43.1526 15.7833L44.329 17.4007ZM45.4688 17.208H46.2128V15.208H45.4688V17.208ZM46.2128 17.208C47.0686 17.208 47.3777 17.347 47.4307 17.3874L48.6428 15.7966C48.0239 15.325 47.117 15.208 46.2128 15.208V17.208ZM47.4734 17.4182C47.4811 17.4234 47.4939 17.4313 47.5118 17.4736C47.5342 17.5265 47.5648 17.6383 47.5648 17.84H49.5648C49.5648 17.0573 49.3236 16.259 48.6001 15.7658L47.4734 17.4182ZM47.5648 17.84V18.584H49.5648V17.84H47.5648ZM47.5648 18.584C47.5648 18.796 47.5335 18.9208 47.5067 18.9867C47.4837 19.0431 47.4631 19.0607 47.4486 19.0713L48.625 20.6887C49.329 20.1767 49.5648 19.3758 49.5648 18.584H47.5648ZM47.4734 19.0538C47.3909 19.1101 47.0389 19.24 46.1648 19.24V21.24C47.0827 21.24 47.9787 21.1299 48.6001 20.7062L47.4734 19.0538ZM46.1648 19.24H45.3968V21.24H46.1648V19.24ZM45.3968 19.24C44.6614 19.24 44.3692 19.1171 44.298 19.0663L43.1355 20.6937C43.7364 21.1229 44.5642 21.24 45.3968 21.24V19.24ZM44.3168 19.08C44.3328 19.092 44.3182 19.0925 44.2945 19.0287C44.2674 18.9555 44.2368 18.8167 44.2368 18.584H42.2368C42.2368 19.343 42.4295 20.1645 43.1168 20.68L44.3168 19.08Z"></path>
</svg>
