<svg xmlns="http://www.w3.org/2000/svg" fill="none" viewBox="0 0 12 12" height="12" width="12">
<circle stroke-width="0.5" stroke="#0D0E12" fill="#FDCD4D" r="5" cy="6" cx="6"></circle>
<path fill="#0D0E12" d="M3.441 8.98848C3.33463 8.90486 3.31556 8.75018 3.40642 8.64991C3.70335 8.32222 4.06023 8.0532 4.45857 7.85779C4.93037 7.62636 5.44822 7.50413 5.97371 7.50018C6.4992 7.49624 7.01883 7.61067 7.49405 7.83499C7.89529 8.02439 8.25617 8.28802 8.55799 8.61121C8.65034 8.71011 8.6336 8.86506 8.52849 8.95027V8.95027C8.42339 9.03548 8.26979 9.01855 8.17632 8.92072C7.92161 8.65413 7.61957 8.43609 7.28489 8.27811C6.8762 8.08519 6.45192 7.99667 6 8.00006C5.54808 8.00346 5.08012 8.09868 4.67437 8.29771C4.3421 8.46071 4.04338 8.68326 3.7927 8.95365C3.7007 9.05287 3.54738 9.0721 3.441 8.98848V8.98848Z"></path>
<path fill="white" d="M6 4.75C6 5.30228 5.55228 5.75 5 5.75C4.44772 5.75 4 5.30228 4 4.75C4 4.19772 4.44772 3.75 5 3.75C5.55228 3.75 6 4.19772 6 4.75Z"></path>
<path fill="#0D0E12" d="M5.50006 4.75C5.50006 5.02614 5.2762 5.25 5.00006 5.25C4.72392 5.25 4.50006 5.02614 4.50006 4.75C4.50006 4.47386 4.72392 4.25 5.00006 4.25C5.2762 4.25 5.50006 4.47386 5.50006 4.75Z"></path>
<path fill="white" d="M5 4.25C5 4.38807 4.88807 4.5 4.75 4.5C4.61193 4.5 4.5 4.38807 4.5 4.25C4.5 4.11193 4.61193 4 4.75 4C4.88807 4 5 4.11193 5 4.25Z"></path>
<path fill="white" d="M8.00006 4.75C8.00006 5.30228 7.55235 5.75 7.00006 5.75C6.44778 5.75 6.00006 5.30228 6.00006 4.75C6.00006 4.19772 6.44778 3.75 7.00006 3.75C7.55235 3.75 8.00006 4.19772 8.00006 4.75Z"></path>
<path fill="#0D0E12" d="M7.5 4.75C7.5 5.02614 7.27614 5.25 7 5.25C6.72386 5.25 6.5 5.02614 6.5 4.75C6.5 4.47386 6.72386 4.25 7 4.25C7.27614 4.25 7.5 4.47386 7.5 4.75Z"></path>
<path fill="white" d="M7.00006 4.25C7.00006 4.38807 6.88813 4.5 6.75006 4.5C6.61199 4.5 6.50006 4.38807 6.50006 4.25C6.50006 4.11193 6.61199 4 6.75006 4C6.88813 4 7.00006 4.11193 7.00006 4.25Z"></path>
</svg>
