<svg xmlns="http://www.w3.org/2000/svg" fill="none" viewBox="0 0 12 12" height="12" width="12">
<circle stroke-width="0.5" stroke="#0D0E12" fill="#FDCD4D" r="5" cy="6" cx="6"></circle>
<path fill="#0D0E12" d="M3.69835 8.69834C3.60267 8.60266 3.60214 8.4468 3.70428 8.35804C4.33896 7.80649 5.15367 7.49997 5.99998 7.49997C6.84629 7.49997 7.661 7.80649 8.29568 8.35804C8.39782 8.4468 8.39729 8.60266 8.30161 8.69834V8.69834C8.20593 8.79402 8.05141 8.79312 7.94811 8.70573C7.40615 8.24721 6.71622 8 5.99998 8C5.28373 8 4.59381 8.24721 4.05185 8.70573C3.94855 8.79312 3.79403 8.79402 3.69835 8.69834V8.69834Z"></path>
<path fill="white" d="M5.5 5.5C5.5 6.05228 5.05228 6.5 4.5 6.5C3.94772 6.5 3.5 6.05228 3.5 5.5C3.5 4.94772 3.94772 4.5 4.5 4.5C5.05228 4.5 5.5 4.94772 5.5 5.5Z"></path>
<path fill="#0D0E12" d="M5 5.5C5 5.77614 4.77614 6 4.5 6C4.22386 6 4 5.77614 4 5.5C4 5.22386 4.22386 5 4.5 5C4.77614 5 5 5.22386 5 5.5Z"></path>
<path fill="white" d="M8.5 5.5C8.5 6.05228 8.05228 6.5 7.5 6.5C6.94772 6.5 6.5 6.05228 6.5 5.5C6.5 4.94772 6.94772 4.5 7.5 4.5C8.05228 4.5 8.5 4.94772 8.5 5.5Z"></path>
<path fill="#0D0E12" d="M8 5.5C8 5.77614 7.77614 6 7.5 6C7.22386 6 7 5.77614 7 5.5C7 5.22386 7.22386 5 7.5 5C7.77614 5 8 5.22386 8 5.5Z"></path>
<path fill="#FDCD4D" d="M3.8212 2.9878L6.41928 4.4878L5.66928 5.78684L3.0712 4.28684L3.8212 2.9878Z"></path>
<path fill="#FDCD4D" d="M5.50002 4.50002L8.0981 3.00002L8.8481 4.29906L6.25002 5.79906L5.50002 4.50002Z"></path>
<path stroke-linecap="round" stroke-width="0.5" stroke="#D29B09" d="M7.75 3.75L6.5 5"></path>
<path stroke-linecap="round" stroke-width="0.5" stroke="#D29B09" d="M4.25 3.75L5.5 5"></path>
</svg>
