<svg xmlns="http://www.w3.org/2000/svg" fill="none" viewBox="0 0 140 22" height="22" width="140">
<rect fill="#0D0E12" height="22" width="140"></rect>
<path fill="white" d="M55.6 15V6.9H58.32C58.8067 6.9 59.2067 6.99333 59.52 7.18C59.8333 7.36 60.0667 7.62667 60.22 7.98C60.3733 8.32667 60.45 8.75 60.45 9.25C60.45 9.87667 60.3467 10.3567 60.14 10.69C59.9333 11.0167 59.6533 11.2433 59.3 11.37C58.9467 11.4967 58.55 11.56 58.11 11.56H57.39V15H55.6ZM57.39 10.31H57.99C58.21 10.31 58.3767 10.27 58.49 10.19C58.6033 10.11 58.6767 9.99 58.71 9.83C58.75 9.67 58.77 9.46667 58.77 9.22C58.77 9.01333 58.7533 8.83333 58.72 8.68C58.6933 8.52 58.6233 8.39333 58.51 8.3C58.3967 8.20667 58.22 8.16 57.98 8.16H57.39V10.31ZM61.3129 15V6.9H63.1029V13.79H64.9629V15H61.3129ZM65.3565 15L66.8865 6.9H68.9265L70.4365 15H68.7865L68.5165 13.29H67.3265L67.0465 15H65.3565ZM67.4865 12.22H68.3465L67.9165 9.06L67.4865 12.22ZM71.8739 15V11.69L70.3339 6.9H72.0239L72.7939 9.46L73.4839 6.9H75.1039L73.5939 11.69V15H71.8739ZM80.6641 15.12C80.0575 15.12 79.5775 15.0133 79.2241 14.8C78.8708 14.5867 78.6175 14.28 78.4641 13.88C78.3108 13.48 78.2341 13.0033 78.2341 12.45V9.44C78.2341 8.88 78.3108 8.40333 78.4641 8.01C78.6175 7.61667 78.8708 7.31667 79.2241 7.11C79.5775 6.89667 80.0575 6.79 80.6641 6.79C81.2775 6.79 81.7608 6.89667 82.1141 7.11C82.4741 7.31667 82.7308 7.61667 82.8841 8.01C83.0375 8.40333 83.1141 8.88 83.1141 9.44V12.45C83.1141 13.0033 83.0375 13.48 82.8841 13.88C82.7308 14.28 82.4741 14.5867 82.1141 14.8C81.7608 15.0133 81.2775 15.12 80.6641 15.12ZM80.6641 13.85C80.8508 13.85 80.9875 13.8033 81.0741 13.71C81.1608 13.6167 81.2175 13.4967 81.2441 13.35C81.2708 13.2033 81.2841 13.0533 81.2841 12.9V9C81.2841 8.84 81.2708 8.69 81.2441 8.55C81.2175 8.40333 81.1608 8.28333 81.0741 8.19C80.9875 8.09667 80.8508 8.05 80.6641 8.05C80.4908 8.05 80.3608 8.09667 80.2741 8.19C80.1875 8.28333 80.1308 8.40333 80.1041 8.55C80.0775 8.69 80.0641 8.84 80.0641 9V12.9C80.0641 13.0533 80.0741 13.2033 80.0941 13.35C80.1208 13.4967 80.1741 13.6167 80.2541 13.71C80.3408 13.8033 80.4775 13.85 80.6641 13.85ZM84.2035 15V6.9H85.4635L87.1235 10.8V6.9H88.6035V15H87.3935L85.7335 10.8V15H84.2035ZM89.809 15V6.9H91.599V13.79H93.459V15H89.809ZM94.2526 15V6.9H96.0426V15H94.2526ZM97.2504 15V6.9H98.5104L100.17 10.8V6.9H101.65V15H100.44L98.7804 10.8V15H97.2504ZM102.856 15V6.9H106.496V8.12H104.646V10.13H106.056V11.37H104.646V13.79H106.516V15H102.856Z"></path>
<path fill="white" d="M43.7418 10.5702C43.7422 10.5469 43.7424 10.5235 43.7424 10.5001C43.7424 8.3335 41.9861 6.57715 39.8195 6.57715C38.4797 6.57715 37.2969 7.24875 36.5891 8.27364C36.3459 8.15673 36.0732 8.09123 35.7853 8.09123C34.759 8.09123 33.927 8.92319 33.927 9.94945C33.927 10.1677 33.9647 10.3772 34.0338 10.5717C33.9984 10.5698 33.9629 10.5688 33.927 10.5688C32.8628 10.5688 32 11.4316 32 12.4958C32 13.5601 32.8628 14.4229 33.927 14.4229L33.948 14.4228L36.5259 14.4228L36.5423 14.4229L36.5587 14.4228L39.7919 14.4229L39.8195 14.423L39.847 14.4229L43.6897 14.4229V14.4228C44.7442 14.4114 45.5956 13.553 45.5956 12.4958C45.5956 11.4561 44.7721 10.6087 43.7418 10.5702Z" clip-rule="evenodd" fill-rule="evenodd"></path>
</svg>
