<svg xmlns="http://www.w3.org/2000/svg" fill="none" viewBox="0 0 27 34" height="34" width="27">
<path stroke="#0D0E12" fill="white" d="M14.0111 3.4186C18.3192 3.49525 22.4815 3.88495 25.5 4.8583V8.99839H1.5V4.85897C4.58773 3.87444 9.71803 3.34221 14.0111 3.4186Z"></path>
<path stroke="#0D0E12" fill="white" d="M1.53999 29.1847C2.16399 24.0243 6.21999 28.2416 6.21999 19.5749V15.8917C6.21999 14.186 5.19443 12.6476 3.61999 11.9916L3.04179 11.7507C1.81748 11.2405 1.01999 10.0442 1.01999 8.71791C1.01999 8.0289 1.26795 7.35577 1.91596 7.12164C5.93278 5.67037 21.0671 5.67041 25.084 7.12166C25.732 7.35578 25.98 8.02891 25.98 8.71793C25.98 10.0443 25.1825 11.2405 23.9582 11.7507L23.38 11.9916C21.8056 12.6476 20.78 14.186 20.78 15.8917V19.5749C20.78 28.2416 24.836 24.1646 25.46 29.3249V30.4236C25.46 31.1276 25.2646 31.8391 24.6096 32.0974C20.835 33.5859 6.15406 33.4811 2.38665 31.9474C1.73455 31.6819 1.53999 30.9708 1.53999 30.2668V29.1847Z"></path>
<path stroke-linecap="round" stroke="#0D0E12" d="M5.18002 28.2416C6.74002 29.8666 20.26 29.8666 21.82 28.2416"></path>
<path stroke-linecap="round" stroke="#0D0E12" d="M20.78 11.4499C18.7 10.9083 8.30002 10.9083 6.22002 11.45"></path>
<path fill="white" d="M26 3.09039C25.3182 2.62583 24.3121 2.22132 23 1.89504V6.72537C24.3571 7.0607 25.3805 7.53924 26 8.21356V3.09039ZM2 7.66558V2.55092C3.27279 1.99527 5.12096 1.5622 7.5 1.29625V6.21364C5.12955 6.43632 3.24365 6.86774 2 7.66558ZM19 6.15835V1.2436C17.39 1.08426 15.5525 0.998291 13.5 0.998291C13.1608 0.998291 12.8274 1.00064 12.5 1.00528V6.00202C12.8285 5.99946 13.1619 5.99829 13.5 5.99829C15.515 5.99829 17.3642 6.03972 19 6.15835Z" clip-rule="evenodd" fill-rule="evenodd"></path>
<path fill="black" d="M23 1.89504L23.1207 1.40982L22.5 1.25549V1.89504H23ZM26 3.09039H26.5V2.82603L26.2815 2.67718L26 3.09039ZM23 6.72537H22.5V7.11686L22.8801 7.21077L23 6.72537ZM26 8.21356L25.6318 8.55182L26.5 9.4969V8.21356H26ZM2 2.55092L1.79995 2.09268L1.5 2.22363V2.55092H2ZM2 7.66558H1.5V8.5804L2.26999 8.08642L2 7.66558ZM7.5 1.29625H8V0.737241L7.44445 0.799346L7.5 1.29625ZM7.5 6.21364L7.54676 6.71145L8 6.66887V6.21364H7.5ZM19 1.2436H19.5V0.790642L19.0492 0.746032L19 1.2436ZM19 6.15835L18.9638 6.65704L19.5 6.69593V6.15835H19ZM12.5 1.00528L12.4929 0.50533L12 0.512315V1.00528H12.5ZM12.5 6.00202H12V6.50593L12.5039 6.502L12.5 6.00202ZM22.8793 2.38027C24.164 2.69971 25.1059 3.08621 25.7185 3.50359L26.2815 2.67718C25.5305 2.16546 24.4603 1.74293 23.1207 1.40982L22.8793 2.38027ZM23.5 6.72537V1.89504H22.5V6.72537H23.5ZM26.3682 7.8753C25.6495 7.09293 24.511 6.58369 23.1199 6.23997L22.8801 7.21077C24.2033 7.53772 25.1116 7.98554 25.6318 8.55182L26.3682 7.8753ZM26.5 8.21356V3.09039H25.5V8.21356H26.5ZM1.5 2.55092V7.66558H2.5V2.55092H1.5ZM7.44445 0.799346C5.04233 1.06788 3.13815 1.50847 1.79995 2.09268L2.20005 3.00915C3.40742 2.48206 5.1996 2.05653 7.55555 1.79316L7.44445 0.799346ZM8 6.21364V1.29625H7V6.21364H8ZM2.26999 8.08642C3.40699 7.357 5.19007 6.93284 7.54676 6.71145L7.45324 5.71583C5.06902 5.93981 3.08031 6.37848 1.73001 7.24474L2.26999 8.08642ZM18.5 1.2436V6.15835H19.5V1.2436H18.5ZM13.5 1.49829C15.539 1.49829 17.3598 1.58372 18.9508 1.74117L19.0492 0.746032C17.4202 0.584809 15.566 0.498291 13.5 0.498291V1.49829ZM12.5071 1.50523C12.8321 1.50062 13.1631 1.49829 13.5 1.49829V0.498291C13.1585 0.498291 12.8228 0.500655 12.4929 0.50533L12.5071 1.50523ZM13 6.00202V1.00528H12V6.00202H13ZM13.5 5.49829C13.1608 5.49829 12.8261 5.49946 12.4961 5.50203L12.5039 6.502C12.831 6.49946 13.1631 6.49829 13.5 6.49829V5.49829ZM19.0362 5.65966C17.3832 5.53979 15.5204 5.49829 13.5 5.49829V6.49829C15.5095 6.49829 17.3452 6.53966 18.9638 6.65704L19.0362 5.65966Z"></path>
</svg>
