<svg xmlns="http://www.w3.org/2000/svg" fill="none" viewBox="0 0 13 18" height="18" width="13">
<rect fill-opacity="0.01" fill="#0D0E12" height="18" width="13"></rect>
<path fill="white" d="M3.132 14.144C2.508 14.144 2.016 14.048 1.656 13.856C1.296 13.664 1.04 13.384 0.888 13.016C0.736 12.64 0.66 12.18 0.66 11.636C0.66 11.612 0.66 11.588 0.66 11.564C0.66 11.532 0.66 11.504 0.66 11.48H2.532C2.532 11.872 2.564 12.164 2.628 12.356C2.7 12.54 2.872 12.632 3.144 12.632C3.328 12.632 3.464 12.576 3.552 12.464C3.64 12.352 3.696 12.156 3.72 11.876C3.752 11.588 3.768 11.196 3.768 10.7V9.836C3.664 10.004 3.504 10.132 3.288 10.22C3.08 10.308 2.844 10.36 2.58 10.376C2.068 10.384 1.656 10.256 1.344 9.992C1.032 9.728 0.808 9.372 0.672 8.924C0.536 8.476 0.468 7.988 0.468 7.46C0.468 6.78 0.552 6.196 0.72 5.708C0.896 5.212 1.18 4.828 1.572 4.556C1.964 4.284 2.484 4.148 3.132 4.148C3.772 4.148 4.288 4.276 4.68 4.532C5.072 4.788 5.356 5.148 5.532 5.612C5.716 6.068 5.808 6.608 5.808 7.232V10.856C5.808 11.488 5.732 12.052 5.58 12.548C5.436 13.044 5.172 13.436 4.788 13.724C4.404 14.004 3.852 14.144 3.132 14.144ZM3.156 8.84C3.316 8.84 3.444 8.796 3.54 8.708C3.636 8.62 3.712 8.536 3.768 8.456V6.872C3.768 6.648 3.752 6.444 3.72 6.26C3.688 6.068 3.628 5.916 3.54 5.804C3.452 5.684 3.316 5.624 3.132 5.624C2.956 5.624 2.824 5.688 2.736 5.816C2.648 5.936 2.588 6.12 2.556 6.368C2.532 6.608 2.52 6.908 2.52 7.268C2.52 7.58 2.528 7.856 2.544 8.096C2.568 8.328 2.624 8.512 2.712 8.648C2.8 8.776 2.948 8.84 3.156 8.84ZM9.58903 14.18C8.90903 14.18 8.37303 14.052 7.98103 13.796C7.59703 13.54 7.32103 13.184 7.15303 12.728C6.99303 12.264 6.91303 11.732 6.91303 11.132V10.784H8.91703C8.91703 10.792 8.91703 10.836 8.91703 10.916C8.91703 10.996 8.91703 11.068 8.91703 11.132C8.91703 11.452 8.93703 11.712 8.97703 11.912C9.01703 12.112 9.08903 12.26 9.19303 12.356C9.29703 12.444 9.44103 12.488 9.62503 12.488C9.80903 12.488 9.94503 12.44 10.033 12.344C10.129 12.248 10.193 12.104 10.225 11.912C10.257 11.72 10.273 11.48 10.273 11.192C10.273 10.712 10.205 10.348 10.069 10.1C9.94103 9.844 9.66903 9.712 9.25303 9.704C9.24503 9.704 9.20103 9.704 9.12103 9.704C9.04103 9.704 8.96103 9.704 8.88103 9.704V8.324C8.93703 8.324 8.99303 8.324 9.04903 8.324C9.10503 8.324 9.15703 8.324 9.20503 8.324C9.62903 8.324 9.91303 8.208 10.057 7.976C10.201 7.744 10.273 7.384 10.273 6.896C10.273 6.52 10.221 6.232 10.117 6.032C10.021 5.832 9.83703 5.732 9.56503 5.732C9.30103 5.732 9.12503 5.844 9.03703 6.068C8.95703 6.292 8.91703 6.58 8.91703 6.932C8.91703 7.012 8.91703 7.096 8.91703 7.184C8.91703 7.264 8.91703 7.348 8.91703 7.436H6.91303V6.848C6.91303 6.264 7.01703 5.772 7.22503 5.372C7.44103 4.964 7.74503 4.656 8.13703 4.448C8.53703 4.24 9.01303 4.136 9.56503 4.136C10.125 4.136 10.605 4.236 11.005 4.436C11.405 4.636 11.713 4.932 11.929 5.324C12.145 5.708 12.253 6.188 12.253 6.764C12.253 7.332 12.137 7.808 11.905 8.192C11.673 8.576 11.393 8.812 11.065 8.9C11.289 8.98 11.489 9.108 11.665 9.284C11.849 9.46 11.993 9.7 12.097 10.004C12.201 10.3 12.253 10.68 12.253 11.144C12.253 11.736 12.165 12.26 11.989 12.716C11.821 13.172 11.541 13.532 11.149 13.796C10.757 14.052 10.237 14.18 9.58903 14.18Z"></path>
</svg>
