<svg xmlns="http://www.w3.org/2000/svg" fill="none" viewBox="0 0 480 360" height="360" width="480">
<rect fill-opacity="0.01" fill="white" height="360" width="480"></rect>
<rect fill-opacity="0.8" fill="#0D0E12" height="304" width="304" y="40" x="18"></rect>
<path fill="white" d="M104.818 174V164.28H107.35C107.766 164.28 108.158 164.312 108.526 164.376C108.902 164.44 109.234 164.564 109.522 164.748C109.81 164.924 110.034 165.18 110.194 165.516C110.362 165.844 110.446 166.28 110.446 166.824C110.446 167.216 110.386 167.548 110.266 167.82C110.154 168.084 109.99 168.296 109.774 168.456C109.566 168.616 109.314 168.724 109.018 168.78C109.394 168.828 109.71 168.952 109.966 169.152C110.222 169.344 110.414 169.604 110.542 169.932C110.678 170.26 110.746 170.656 110.746 171.12C110.746 171.624 110.678 172.06 110.542 172.428C110.414 172.788 110.226 173.084 109.978 173.316C109.73 173.548 109.422 173.72 109.054 173.832C108.694 173.944 108.278 174 107.806 174H104.818ZM106.966 172.5H107.422C107.894 172.5 108.218 172.38 108.394 172.14C108.578 171.9 108.67 171.548 108.67 171.084C108.67 170.716 108.63 170.424 108.55 170.208C108.47 169.992 108.338 169.836 108.154 169.74C107.97 169.636 107.722 169.584 107.41 169.584H106.966V172.5ZM106.966 168.168H107.386C107.714 168.168 107.962 168.12 108.13 168.024C108.298 167.92 108.41 167.772 108.466 167.58C108.53 167.388 108.562 167.156 108.562 166.884C108.562 166.628 108.514 166.416 108.418 166.248C108.33 166.072 108.194 165.94 108.01 165.852C107.834 165.764 107.61 165.72 107.338 165.72H106.966V168.168ZM111.908 174V164.28H114.056V168.384H114.536C115.152 168.384 115.672 168.484 116.096 168.684C116.528 168.884 116.852 169.192 117.068 169.608C117.292 170.016 117.404 170.544 117.404 171.192C117.404 171.784 117.324 172.264 117.164 172.632C117.012 173 116.796 173.284 116.516 173.484C116.236 173.684 115.912 173.82 115.544 173.892C115.176 173.964 114.776 174 114.344 174H111.908ZM114.056 172.596H114.356C114.628 172.596 114.84 172.544 114.992 172.44C115.152 172.336 115.264 172.176 115.328 171.96C115.4 171.744 115.432 171.472 115.424 171.144C115.416 170.784 115.34 170.484 115.196 170.244C115.052 169.996 114.764 169.872 114.332 169.872H114.056V172.596ZM118.22 174V164.28H120.368V174H118.22ZM127.699 174.144C126.963 174.144 126.379 174.012 125.947 173.748C125.523 173.476 125.223 173.1 125.047 172.62C124.871 172.132 124.783 171.56 124.783 170.904V167.4C124.783 166.728 124.871 166.152 125.047 165.672C125.223 165.184 125.523 164.808 125.947 164.544C126.379 164.28 126.963 164.148 127.699 164.148C128.419 164.148 128.979 164.268 129.379 164.508C129.787 164.74 130.075 165.068 130.243 165.492C130.411 165.916 130.495 166.404 130.495 166.956V167.796H128.395V166.824C128.395 166.632 128.383 166.448 128.359 166.272C128.343 166.096 128.287 165.952 128.191 165.84C128.095 165.72 127.931 165.66 127.699 165.66C127.475 165.66 127.307 165.72 127.195 165.84C127.091 165.96 127.023 166.112 126.991 166.296C126.967 166.472 126.955 166.66 126.955 166.86V171.432C126.955 171.648 126.971 171.848 127.003 172.032C127.043 172.208 127.115 172.352 127.219 172.464C127.331 172.568 127.491 172.62 127.699 172.62C127.923 172.62 128.083 172.564 128.179 172.452C128.275 172.332 128.335 172.18 128.359 171.996C128.383 171.812 128.395 171.624 128.395 171.432V170.412H130.495V171.252C130.495 171.804 130.411 172.3 130.243 172.74C130.083 173.172 129.799 173.516 129.391 173.772C128.991 174.02 128.427 174.144 127.699 174.144ZM134.461 174.144C133.733 174.144 133.157 174.016 132.733 173.76C132.309 173.504 132.005 173.136 131.821 172.656C131.637 172.176 131.545 171.604 131.545 170.94V167.328C131.545 166.656 131.637 166.084 131.821 165.612C132.005 165.14 132.309 164.78 132.733 164.532C133.157 164.276 133.733 164.148 134.461 164.148C135.197 164.148 135.777 164.276 136.201 164.532C136.633 164.78 136.941 165.14 137.125 165.612C137.309 166.084 137.401 166.656 137.401 167.328V170.94C137.401 171.604 137.309 172.176 137.125 172.656C136.941 173.136 136.633 173.504 136.201 173.76C135.777 174.016 135.197 174.144 134.461 174.144ZM134.461 172.62C134.685 172.62 134.849 172.564 134.953 172.452C135.057 172.34 135.125 172.196 135.157 172.02C135.189 171.844 135.205 171.664 135.205 171.48V166.8C135.205 166.608 135.189 166.428 135.157 166.26C135.125 166.084 135.057 165.94 134.953 165.828C134.849 165.716 134.685 165.66 134.461 165.66C134.253 165.66 134.097 165.716 133.993 165.828C133.889 165.94 133.821 166.084 133.789 166.26C133.757 166.428 133.741 166.608 133.741 166.8V171.48C133.741 171.664 133.753 171.844 133.777 172.02C133.809 172.196 133.873 172.34 133.969 172.452C134.073 172.564 134.237 172.62 134.461 172.62ZM138.744 174V164.28H143.244V165.876H140.892V174H138.744ZM142.9 174V172.488C143.172 172.488 143.392 172.472 143.56 172.44C143.728 172.4 143.86 172.312 143.956 172.176C144.052 172.04 144.128 171.832 144.184 171.552C144.24 171.272 144.284 170.896 144.316 170.424C144.356 169.952 144.404 169.352 144.46 168.624L144.772 164.28H149.92V174H147.784V165.924H146.716L146.524 169.032C146.468 169.832 146.412 170.524 146.356 171.108C146.3 171.684 146.208 172.168 146.08 172.56C145.96 172.952 145.776 173.26 145.528 173.484C145.288 173.7 144.956 173.848 144.532 173.928C144.108 174.008 143.564 174.032 142.9 174ZM150.943 174L152.779 164.28H155.227L157.039 174H155.059L154.735 171.948H153.307L152.971 174H150.943ZM153.499 170.664H154.531L154.015 166.872L153.499 170.664ZM160.805 174.144C160.069 174.144 159.485 174.012 159.053 173.748C158.629 173.476 158.329 173.1 158.153 172.62C157.977 172.132 157.889 171.56 157.889 170.904V167.4C157.889 166.728 157.977 166.152 158.153 165.672C158.329 165.184 158.629 164.808 159.053 164.544C159.485 164.28 160.069 164.148 160.805 164.148C161.525 164.148 162.085 164.268 162.485 164.508C162.893 164.74 163.181 165.068 163.349 165.492C163.517 165.916 163.601 166.404 163.601 166.956V167.796H161.501V166.824C161.501 166.632 161.489 166.448 161.465 166.272C161.449 166.096 161.393 165.952 161.297 165.84C161.201 165.72 161.037 165.66 160.805 165.66C160.581 165.66 160.413 165.72 160.301 165.84C160.197 165.96 160.129 166.112 160.097 166.296C160.073 166.472 160.061 166.66 160.061 166.86V171.432C160.061 171.648 160.077 171.848 160.109 172.032C160.149 172.208 160.221 172.352 160.325 172.464C160.437 172.568 160.597 172.62 160.805 172.62C161.029 172.62 161.189 172.564 161.285 172.452C161.381 172.332 161.441 172.18 161.465 171.996C161.489 171.812 161.501 171.624 161.501 171.432V170.412H163.601V171.252C163.601 171.804 163.517 172.3 163.349 172.74C163.189 173.172 162.905 173.516 162.497 173.772C162.097 174.02 161.533 174.144 160.805 174.144ZM164.819 174V164.28H166.967V168.216H168.467V164.28H170.627V174H168.467V169.752H166.967V174H164.819ZM172.143 174V164.28H174.291V168.384H174.771C175.387 168.384 175.907 168.484 176.331 168.684C176.763 168.884 177.087 169.192 177.303 169.608C177.527 170.016 177.639 170.544 177.639 171.192C177.639 171.784 177.559 172.264 177.399 172.632C177.247 173 177.031 173.284 176.751 173.484C176.471 173.684 176.147 173.82 175.779 173.892C175.411 173.964 175.011 174 174.579 174H172.143ZM174.291 172.596H174.591C174.863 172.596 175.075 172.544 175.227 172.44C175.387 172.336 175.499 172.176 175.563 171.96C175.635 171.744 175.667 171.472 175.659 171.144C175.651 170.784 175.575 170.484 175.431 170.244C175.287 169.996 174.999 169.872 174.567 169.872H174.291V172.596ZM178.455 174V164.28H180.603V174H178.455ZM187.934 174.144C187.198 174.144 186.614 174.012 186.182 173.748C185.758 173.476 185.458 173.1 185.282 172.62C185.106 172.132 185.018 171.56 185.018 170.904V167.4C185.018 166.728 185.106 166.152 185.282 165.672C185.458 165.184 185.758 164.808 186.182 164.544C186.614 164.28 187.198 164.148 187.934 164.148C188.654 164.148 189.214 164.268 189.614 164.508C190.022 164.74 190.31 165.068 190.478 165.492C190.646 165.916 190.73 166.404 190.73 166.956V167.796H188.63V166.824C188.63 166.632 188.618 166.448 188.594 166.272C188.578 166.096 188.522 165.952 188.426 165.84C188.33 165.72 188.166 165.66 187.934 165.66C187.71 165.66 187.542 165.72 187.43 165.84C187.326 165.96 187.258 166.112 187.226 166.296C187.202 166.472 187.19 166.66 187.19 166.86V171.432C187.19 171.648 187.206 171.848 187.238 172.032C187.278 172.208 187.35 172.352 187.454 172.464C187.566 172.568 187.726 172.62 187.934 172.62C188.158 172.62 188.318 172.564 188.414 172.452C188.51 172.332 188.57 172.18 188.594 171.996C188.618 171.812 188.63 171.624 188.63 171.432V170.412H190.73V171.252C190.73 171.804 190.646 172.3 190.478 172.74C190.318 173.172 190.034 173.516 189.626 173.772C189.226 174.02 188.662 174.144 187.934 174.144ZM195.018 174V164.28H197.166V168.216H198.666V164.28H200.826V174H198.666V169.752H197.166V174H195.018ZM202.342 174V164.28H204.034V169.848L206.518 164.28H207.91V174H206.182V168.336L203.65 174H202.342ZM213.068 174V170.004C212.668 170.06 212.276 170.088 211.892 170.088C211.428 170.088 210.988 170 210.572 169.824C210.164 169.64 209.832 169.376 209.576 169.032C209.32 168.68 209.192 168.252 209.192 167.748V164.28H211.34V167.736C211.34 167.936 211.36 168.116 211.4 168.276C211.448 168.428 211.552 168.548 211.712 168.636C211.88 168.724 212.14 168.768 212.492 168.768C212.58 168.768 212.672 168.764 212.768 168.756C212.864 168.748 212.964 168.736 213.068 168.72V164.28H215.216V174H213.068ZM216.733 174V164.28H218.881V168.384H219.361C219.969 168.384 220.485 168.484 220.909 168.684C221.333 168.884 221.657 169.192 221.881 169.608C222.105 170.016 222.217 170.544 222.217 171.192C222.217 171.784 222.137 172.264 221.977 172.632C221.825 173 221.609 173.284 221.329 173.484C221.049 173.684 220.721 173.82 220.345 173.892C219.977 173.964 219.581 174 219.157 174H216.733ZM218.881 172.596H219.169C219.441 172.596 219.653 172.544 219.805 172.44C219.965 172.336 220.077 172.176 220.141 171.96C220.213 171.744 220.245 171.472 220.237 171.144C220.229 170.784 220.153 170.484 220.009 170.244C219.873 169.996 219.585 169.872 219.145 169.872H218.881V172.596ZM223.365 174V164.28H227.733V165.744H225.513V168.156H227.205V169.644H225.513V172.548H227.757V174H223.365ZM228.768 174V164.28H230.46V169.848L232.944 164.28H234.336V174H232.608V168.336L230.076 174H228.768ZM231.708 163.5C231.14 163.5 230.684 163.34 230.34 163.02C229.996 162.7 229.824 162.236 229.824 161.628H230.928C230.928 161.924 230.984 162.144 231.096 162.288C231.216 162.432 231.42 162.504 231.708 162.504C231.988 162.504 232.188 162.432 232.308 162.288C232.428 162.136 232.488 161.916 232.488 161.628H233.592C233.592 162.236 233.42 162.7 233.076 163.02C232.732 163.34 232.276 163.5 231.708 163.5ZM236.638 171.444V169.896C236.998 169.616 237.322 169.304 237.61 168.96C237.898 168.616 238.126 168.252 238.294 167.868C238.462 167.476 238.546 167.072 238.546 166.656C238.546 166.36 238.49 166.148 238.378 166.02C238.274 165.884 238.118 165.816 237.91 165.816C237.718 165.816 237.566 165.872 237.454 165.984C237.35 166.096 237.298 166.252 237.298 166.452C237.298 166.58 237.31 166.696 237.334 166.8C237.366 166.896 237.402 167 237.442 167.112L235.678 167.52C235.614 167.328 235.562 167.144 235.522 166.968C235.49 166.784 235.474 166.592 235.474 166.392C235.474 165.688 235.686 165.14 236.11 164.748C236.542 164.348 237.158 164.148 237.958 164.148C238.766 164.148 239.386 164.36 239.818 164.784C240.258 165.208 240.478 165.812 240.478 166.596C240.478 167.076 240.398 167.532 240.238 167.964C240.078 168.396 239.842 168.804 239.53 169.188C239.226 169.572 238.854 169.932 238.414 170.268V171.444H236.638ZM236.578 174V172.14H238.486V174H236.578Z"></path>
</svg>
