<svg xmlns="http://www.w3.org/2000/svg" fill="none" viewBox="0 0 29 40" height="40" width="29">
<rect fill="white" height="39" width="29" y="1"></rect>
<path stroke="#0D0E12" fill="#0D0E12" d="M22.3954 35.5L22.5 35.5458V39.5H6.5V35.5458L6.60459 35.5H22.3954Z"></path>
<path stroke="#0D0E12" fill="#FFA800" d="M7.59375 25.125H21.4062L18.2188 32.5625L21.4062 34.6875H7.59375L10.7812 32.5625L7.59375 25.125Z"></path>
<mask height="10" width="15" y="25" x="7" maskUnits="userSpaceOnUse" style="mask-type:alpha" id="mask0_1477_425">
<path fill-opacity="0.6" fill="black" d="M7.59375 25.125H21.4062L18.2188 32.5625L21.4062 34.6875H7.59375L10.7812 32.5625L7.59375 25.125Z"></path>
</mask>
<g mask="url(#mask0_1477_425)">
<path fill-opacity="0.6" fill="black" d="M17.6875 27.25L19.2812 23L30.4375 35.2188L18.2188 43.7188L0.6875 37.875L3.34375 32.5625C4.40625 32.7396 7.4875 32.775 11.3125 31.5C15.1375 30.225 17.1562 28.1354 17.6875 27.25Z"></path>
</g>
<rect fill="white" height="3.1875" width="9.5625" y="35.75" x="9.71875"></rect>
<rect fill="black" height="1" width="7" y="37" x="11"></rect>
<rect fill="#0D0E12" transform="rotate(45 25.8179 2.38623)" rx="0.562492" height="2.24997" width="1.12498" y="2.38623" x="25.8179"></rect>
<path fill="#0D0E12" d="M21.2218 2.20962C22.0028 1.42857 23.2692 1.42858 24.0502 2.20962L26.7902 4.94958C27.5712 5.73063 27.5712 6.99696 26.7902 7.77801L25.8179 8.75025L20.2495 3.18186L21.2218 2.20962Z"></path>
<rect fill="#0D0E12" transform="rotate(-45 2.38647 3.18188)" rx="0.562492" height="2.24997" width="1.12498" y="3.18188" x="2.38647"></rect>
<path fill="#0D0E12" d="M2.20987 7.77798C1.42882 6.99693 1.42882 5.7306 2.20987 4.94956L4.94982 2.2096C5.73087 1.42855 6.9972 1.42855 7.77825 2.2096L8.75049 3.18184L3.1821 8.75022L2.20987 7.77798Z"></path>
<circle fill="#0D0E12" r="11.2498" cy="14.6251" cx="14.6248"></circle>
<circle fill="#FFD600" r="8.99987" cy="14.6249" cx="14.6249"></circle>
<rect fill="#0D0E12" rx="1" height="8.99987" width="2.24997" y="6.75" x="13.4998"></rect>
<rect fill="#0D0E12" transform="rotate(90 19.1248 13.5)" rx="1" height="5.62492" width="2.24997" y="13.5" x="19.1248"></rect>
<path fill="#0D0E12" d="M14 23C14 22.7239 14.2239 22.5 14.5 22.5V22.5C14.7761 22.5 15 22.7239 15 23V24.5C15 24.7761 14.7761 25 14.5 25V25C14.2239 25 14 24.7761 14 24.5V23Z"></path>
<path fill="#0D0E12" d="M14 4.5C14 4.22386 14.2239 4 14.5 4V4C14.7761 4 15 4.22386 15 4.5V6C15 6.27614 14.7761 6.5 14.5 6.5V6.5C14.2239 6.5 14 6.27614 14 6V4.5Z"></path>
<path fill="#0D0E12" d="M6 14C6.27614 14 6.5 14.2239 6.5 14.5V14.5C6.5 14.7761 6.27614 15 6 15L4.5 15C4.22386 15 4 14.7761 4 14.5V14.5C4 14.2239 4.22386 14 4.5 14L6 14Z"></path>
<path fill="#0D0E12" d="M24.5 14C24.7761 14 25 14.2239 25 14.5V14.5C25 14.7761 24.7761 15 24.5 15L23 15C22.7239 15 22.5 14.7761 22.5 14.5V14.5C22.5 14.2239 22.7239 14 23 14L24.5 14Z"></path>
<path fill="#0D0E12" d="M8.13619 20.1568C8.33145 19.9615 8.64804 19.9615 8.8433 20.1568V20.1568C9.03856 20.352 9.03856 20.6686 8.8433 20.8639L7.78264 21.9245C7.58738 22.1198 7.27079 22.1198 7.07553 21.9245V21.9245C6.88027 21.7293 6.88027 21.4127 7.07553 21.2174L8.13619 20.1568Z"></path>
<path fill="#0D0E12" d="M21.2175 7.07548C21.4128 6.88022 21.7293 6.88022 21.9246 7.07548V7.07548C22.1199 7.27074 22.1199 7.58732 21.9246 7.78258L20.8639 8.84324C20.6687 9.03851 20.3521 9.03851 20.1568 8.84324V8.84324C19.9616 8.64798 19.9616 8.3314 20.1568 8.13614L21.2175 7.07548Z"></path>
<path fill="#0D0E12" d="M8.84322 8.13619C9.03849 8.33145 9.03849 8.64804 8.84322 8.8433V8.8433C8.64796 9.03856 8.33138 9.03856 8.13612 8.8433L7.07546 7.78264C6.88019 7.58738 6.8802 7.27079 7.07546 7.07553V7.07553C7.27072 6.88027 7.5873 6.88027 7.78256 7.07553L8.84322 8.13619Z"></path>
<path fill="#0D0E12" d="M21.9245 21.2175C22.1198 21.4128 22.1198 21.7293 21.9245 21.9246V21.9246C21.7293 22.1199 21.4127 22.1199 21.2174 21.9246L20.1568 20.8639C19.9615 20.6687 19.9615 20.3521 20.1568 20.1568V20.1568C20.352 19.9616 20.6686 19.9616 20.8639 20.1568L21.9245 21.2175Z"></path>
</svg>
