<svg xmlns="http://www.w3.org/2000/svg" fill="none" viewBox="0 0 7 19" height="19" width="7">
<path fill-opacity="0.01" fill="white" d="M0 -0.00012207L7 -1.15965e-05V19L0 18.9999V-0.00012207Z"></path>
<path fill="#45D2FF" d="M3.62314 14.1439C2.88714 14.1439 2.30314 14.0119 1.87114 13.7479C1.44714 13.4759 1.14714 13.0999 0.971141 12.6199C0.795141 12.1319 0.707141 11.5599 0.707141 10.9039V7.39988C0.707141 6.72788 0.795141 6.15188 0.971141 5.67188C1.14714 5.18388 1.44714 4.80788 1.87114 4.54388C2.30314 4.27988 2.88714 4.14788 3.62314 4.14788C4.34314 4.14788 4.90314 4.26788 5.30314 4.50788C5.71114 4.73988 5.99914 5.06788 6.16714 5.49188C6.33514 5.91588 6.41914 6.40388 6.41914 6.95588V7.79588H4.31914V6.82388C4.31914 6.63188 4.30714 6.44788 4.28314 6.27188C4.26714 6.09588 4.21114 5.95188 4.11514 5.83988C4.01914 5.71988 3.85514 5.65988 3.62314 5.65988C3.39914 5.65988 3.23114 5.71988 3.11914 5.83988C3.01514 5.95988 2.94714 6.11188 2.91514 6.29588C2.89114 6.47188 2.87914 6.65988 2.87914 6.85988V11.4319C2.87914 11.6479 2.89514 11.8479 2.92714 12.0319C2.96714 12.2079 3.03914 12.3519 3.14314 12.4639C3.25514 12.5679 3.41514 12.6199 3.62314 12.6199C3.84714 12.6199 4.00714 12.5639 4.10314 12.4519C4.19914 12.3319 4.25914 12.1799 4.28314 11.9959C4.30714 11.8119 4.31914 11.6239 4.31914 11.4319V10.4119H6.41914V11.2519C6.41914 11.8039 6.33514 12.2999 6.16714 12.7399C6.00714 13.1719 5.72314 13.5159 5.31514 13.7719C4.91514 14.0199 4.35114 14.1439 3.62314 14.1439Z"></path>
</svg>
