<svg xmlns="http://www.w3.org/2000/svg" fill="none" viewBox="0 0 140 22" height="22" width="140">
<rect stroke="#0D0E12" fill="#0D0E12" height="21" width="139" y="0.5" x="0.5"></rect>
<path fill="white" d="M51.25 15L50.27 6.9H51.79L52.27 11.62L52.88 6.91H54.07L54.71 11.59L55.2 6.9H56.7L55.73 15H54.17L53.48 10.11L52.83 15H51.25ZM56.9678 15L58.4978 6.9H60.5378L62.0478 15H60.3978L60.1278 13.29H58.9378L58.6578 15H56.9678ZM59.0978 12.22H59.9578L59.5278 9.06L59.0978 12.22ZM63.1659 15V8.23H61.9459V6.9H66.1759V8.23H64.9659V15H63.1659ZM69.1309 15.12C68.5176 15.12 68.0309 15.01 67.6709 14.79C67.3176 14.5633 67.0676 14.25 66.9209 13.85C66.7743 13.4433 66.7009 12.9667 66.7009 12.42V9.5C66.7009 8.94 66.7743 8.46 66.9209 8.06C67.0676 7.65333 67.3176 7.34 67.6709 7.12C68.0309 6.9 68.5176 6.79 69.1309 6.79C69.7309 6.79 70.1976 6.89 70.5309 7.09C70.8709 7.28333 71.1109 7.55667 71.2509 7.91C71.3909 8.26333 71.4609 8.67 71.4609 9.13V9.83H69.7109V9.02C69.7109 8.86 69.7009 8.70667 69.6809 8.56C69.6676 8.41333 69.6209 8.29333 69.5409 8.2C69.4609 8.1 69.3243 8.05 69.1309 8.05C68.9443 8.05 68.8043 8.1 68.7109 8.2C68.6243 8.3 68.5676 8.42667 68.5409 8.58C68.5209 8.72667 68.5109 8.88333 68.5109 9.05V12.86C68.5109 13.04 68.5243 13.2067 68.5509 13.36C68.5843 13.5067 68.6443 13.6267 68.7309 13.72C68.8243 13.8067 68.9576 13.85 69.1309 13.85C69.3176 13.85 69.4509 13.8033 69.5309 13.71C69.6109 13.61 69.6609 13.4833 69.6809 13.33C69.7009 13.1767 69.7109 13.02 69.7109 12.86V12.01H71.4609V12.71C71.4609 13.17 71.3909 13.5833 71.2509 13.95C71.1176 14.31 70.8809 14.5967 70.5409 14.81C70.2076 15.0167 69.7376 15.12 69.1309 15.12ZM72.4757 15V6.9H74.2657V10.18H75.5157V6.9H77.3157V15H75.5157V11.46H74.2657V15H72.4757ZM83.2178 15.12C82.6578 15.12 82.2145 15.0033 81.8878 14.77C81.5678 14.5367 81.3378 14.21 81.1978 13.79C81.0645 13.3633 80.9978 12.8733 80.9978 12.32V9.6C80.9978 9.02667 81.0711 8.53 81.2178 8.11C81.3645 7.69 81.6145 7.36667 81.9678 7.14C82.3278 6.90667 82.8145 6.79 83.4278 6.79C84.0278 6.79 84.4978 6.89 84.8378 7.09C85.1845 7.29 85.4311 7.56667 85.5778 7.92C85.7245 8.27333 85.7978 8.68667 85.7978 9.16V9.68H84.0478V9.02C84.0478 8.84667 84.0345 8.68667 84.0078 8.54C83.9878 8.39333 83.9345 8.27667 83.8478 8.19C83.7678 8.09667 83.6345 8.05 83.4478 8.05C83.2545 8.05 83.1145 8.10333 83.0278 8.21C82.9411 8.31 82.8845 8.43667 82.8578 8.59C82.8378 8.74333 82.8278 8.90333 82.8278 9.07V12.82C82.8278 13 82.8445 13.17 82.8778 13.33C82.9178 13.4833 82.9845 13.61 83.0778 13.71C83.1778 13.8033 83.3178 13.85 83.4978 13.85C83.6845 13.85 83.8278 13.8 83.9278 13.7C84.0278 13.6 84.0978 13.47 84.1378 13.31C84.1778 13.15 84.1978 12.98 84.1978 12.8V11.85H83.4678V10.8H85.8078V15H84.6278L84.5278 14.33C84.4211 14.5567 84.2645 14.7467 84.0578 14.9C83.8511 15.0467 83.5711 15.12 83.2178 15.12ZM86.5381 15L88.0681 6.9H90.1081L91.6181 15H89.9681L89.6981 13.29H88.5081L88.2281 15H86.5381ZM88.6681 12.22H89.5281L89.0981 9.06L88.6681 12.22ZM92.4059 15L92.5459 6.9H94.4659L95.3559 11.61L96.3159 6.9H98.1659L98.3059 15H97.0359L96.8859 9.61L95.9459 15H94.8159L93.8159 9.57L93.6959 15H92.4059ZM99.477 15V6.9H103.117V8.12H101.267V10.13H102.677V11.37H101.267V13.79H103.137V15H99.477ZM106.1 15.12C105.593 15.12 105.17 15.03 104.83 14.85C104.49 14.67 104.233 14.3933 104.06 14.02C103.886 13.64 103.79 13.15 103.77 12.55L105.3 12.32C105.306 12.6667 105.336 12.9467 105.39 13.16C105.45 13.3733 105.53 13.5267 105.63 13.62C105.736 13.7133 105.863 13.76 106.01 13.76C106.196 13.76 106.316 13.6967 106.37 13.57C106.43 13.4433 106.46 13.31 106.46 13.17C106.46 12.8367 106.38 12.5567 106.22 12.33C106.06 12.0967 105.843 11.8633 105.57 11.63L104.87 11.02C104.563 10.76 104.303 10.4667 104.09 10.14C103.883 9.80667 103.78 9.39667 103.78 8.91C103.78 8.22333 103.983 7.7 104.39 7.34C104.796 6.97333 105.35 6.79 106.05 6.79C106.483 6.79 106.83 6.86333 107.09 7.01C107.356 7.15667 107.556 7.35 107.69 7.59C107.83 7.82333 107.923 8.07333 107.97 8.34C108.023 8.6 108.053 8.85 108.06 9.09L106.52 9.28C106.513 9.04 106.496 8.83333 106.47 8.66C106.45 8.48 106.403 8.34333 106.33 8.25C106.256 8.15 106.143 8.1 105.99 8.1C105.823 8.1 105.7 8.17 105.62 8.31C105.546 8.45 105.51 8.59 105.51 8.73C105.51 9.03 105.58 9.27667 105.72 9.47C105.866 9.65667 106.056 9.85333 106.29 10.06L106.96 10.65C107.313 10.95 107.61 11.29 107.85 11.67C108.096 12.05 108.22 12.52 108.22 13.08C108.22 13.46 108.133 13.8067 107.96 14.12C107.786 14.4267 107.54 14.67 107.22 14.85C106.906 15.03 106.533 15.12 106.1 15.12Z"></path>
<path fill="white" d="M44 10.7667C44 12.3556 41.0899 15.5333 37.5 15.5333C33.9101 15.5333 31 12.3556 31 10.7667C31 9.17778 33.9101 6 37.5 6C41.0899 6 44 9.17778 44 10.7667Z"></path>
<circle fill="black" r="3.03376" cy="10.7674" cx="37.5007"></circle>
<circle fill="white" r="1.30018" cy="10.7675" cx="37.5009"></circle>
</svg>
