<svg xmlns="http://www.w3.org/2000/svg" fill="none" viewBox="0 0 7 19" height="19" width="7">
<path fill-opacity="0.01" fill="white" d="M0 0H7V19H0V0Z"></path>
<path fill="#45D2FF" d="M3.5338 14.18C2.8538 14.18 2.3178 14.052 1.9258 13.796C1.5418 13.54 1.2658 13.184 1.0978 12.728C0.937797 12.264 0.857797 11.732 0.857797 11.132V10.784H2.8738C2.8738 10.8 2.8738 10.848 2.8738 10.928C2.8738 11.008 2.8738 11.084 2.8738 11.156C2.8738 11.636 2.9218 11.98 3.0178 12.188C3.1138 12.388 3.2978 12.488 3.5698 12.488C3.7538 12.488 3.8898 12.44 3.9778 12.344C4.0738 12.248 4.1378 12.108 4.1698 11.924C4.2098 11.732 4.2298 11.492 4.2298 11.204C4.2298 10.716 4.1578 10.348 4.0138 10.1C3.8698 9.844 3.5698 9.712 3.1138 9.704C3.1058 9.696 3.0698 9.692 3.0058 9.692C2.9498 9.692 2.8818 9.692 2.8018 9.692C2.7218 9.692 2.6458 9.692 2.5738 9.692V8.384C2.6298 8.384 2.6858 8.384 2.7418 8.384C2.7978 8.384 2.8538 8.384 2.9098 8.384C2.9658 8.384 3.0178 8.384 3.0658 8.384C3.5378 8.376 3.8498 8.248 4.0018 8C4.1538 7.752 4.2298 7.384 4.2298 6.896C4.2298 6.52 4.1698 6.232 4.0498 6.032C3.9378 5.832 3.7458 5.732 3.4738 5.732C3.2098 5.732 3.0258 5.84 2.9218 6.056C2.8258 6.264 2.7738 6.544 2.7658 6.896C2.7658 6.912 2.7658 6.98 2.7658 7.1C2.7658 7.212 2.7658 7.324 2.7658 7.436H0.749797V6.848C0.749797 6.264 0.861797 5.772 1.0858 5.372C1.3178 4.964 1.6378 4.656 2.0458 4.448C2.4538 4.24 2.9338 4.136 3.4858 4.136C4.0538 4.136 4.5378 4.236 4.9378 4.436C5.3458 4.636 5.6578 4.932 5.8738 5.324C6.0898 5.708 6.1978 6.188 6.1978 6.764C6.1978 7.332 6.0818 7.812 5.8498 8.204C5.6178 8.588 5.3378 8.824 5.0098 8.912C5.2338 9 5.4338 9.132 5.6098 9.308C5.7938 9.476 5.9378 9.708 6.0418 10.004C6.1458 10.3 6.1978 10.68 6.1978 11.144C6.1978 11.736 6.1098 12.264 5.9338 12.728C5.7658 13.184 5.4858 13.54 5.0938 13.796C4.7018 14.052 4.1818 14.18 3.5338 14.18Z"></path>
</svg>
