<svg xmlns="http://www.w3.org/2000/svg" fill="none" viewBox="0 0 13 18" height="18" width="13">
<rect fill-opacity="0.01" fill="#0D0E12" height="18" width="13"></rect>
<path fill="white" d="M0.78 14L2.892 5.804H0.24V4.28H4.848V5.66L2.736 14H0.78ZM8.39344 14.156C7.73744 14.156 7.21344 14.028 6.82144 13.772C6.42944 13.508 6.14944 13.148 5.98144 12.692C5.81344 12.228 5.72944 11.7 5.72944 11.108C5.73744 10.868 5.76144 10.636 5.80144 10.412C5.84944 10.18 5.91744 9.968 6.00544 9.776C6.10144 9.576 6.21744 9.404 6.35344 9.26C6.49744 9.108 6.66544 8.984 6.85744 8.888C6.60944 8.704 6.38944 8.44 6.19744 8.096C6.00544 7.744 5.90144 7.3 5.88544 6.764C5.87744 6.22 5.96544 5.752 6.14944 5.36C6.34144 4.968 6.62544 4.668 7.00144 4.46C7.37744 4.252 7.84144 4.148 8.39344 4.148C8.95344 4.148 9.41744 4.256 9.78544 4.472C10.1614 4.68 10.4414 4.98 10.6254 5.372C10.8094 5.756 10.8934 6.22 10.8774 6.764C10.8694 7.308 10.7734 7.756 10.5894 8.108C10.4054 8.452 10.1854 8.712 9.92944 8.888C10.1214 8.984 10.2854 9.108 10.4214 9.26C10.5654 9.404 10.6814 9.576 10.7694 9.776C10.8654 9.968 10.9374 10.18 10.9854 10.412C11.0334 10.636 11.0574 10.868 11.0574 11.108C11.0734 11.7 10.9934 12.228 10.8174 12.692C10.6494 13.148 10.3694 13.508 9.97744 13.772C9.58544 14.028 9.05744 14.156 8.39344 14.156ZM8.39344 12.68C8.60944 12.68 8.76544 12.6 8.86144 12.44C8.95744 12.28 9.01744 12.092 9.04144 11.876C9.06544 11.652 9.07744 11.448 9.07744 11.264C9.08544 11.016 9.07344 10.776 9.04144 10.544C9.01744 10.312 8.95744 10.124 8.86144 9.98C8.76544 9.828 8.60944 9.752 8.39344 9.752C8.18544 9.752 8.03344 9.828 7.93744 9.98C7.84144 10.124 7.77744 10.312 7.74544 10.544C7.72144 10.768 7.70944 11.008 7.70944 11.264C7.70944 11.448 7.72144 11.652 7.74544 11.876C7.76944 12.1 7.82944 12.292 7.92544 12.452C8.02944 12.604 8.18544 12.68 8.39344 12.68ZM8.39344 8.168C8.52944 8.168 8.64144 8.116 8.72944 8.012C8.81744 7.9 8.88144 7.736 8.92144 7.52C8.96944 7.304 8.99344 7.036 8.99344 6.716C8.99344 6.388 8.94144 6.128 8.83744 5.936C8.74144 5.744 8.59344 5.648 8.39344 5.648C8.19344 5.648 8.03744 5.744 7.92544 5.936C7.82144 6.128 7.76944 6.384 7.76944 6.704C7.76944 7.024 7.78944 7.296 7.82944 7.52C7.87744 7.736 7.94944 7.9 8.04544 8.012C8.14144 8.116 8.25744 8.168 8.39344 8.168Z"></path>
</svg>
