<svg xmlns="http://www.w3.org/2000/svg" fill="none" viewBox="0 0 214 84" height="84" width="214">
<mask fill="white" id="path-1-inside-1_1270_10">
<path d="M0 0H214V84H0V0Z"></path>
</mask>
<path fill="#0D0E12" d="M0 0H214V84H0V0Z"></path>
<path mask="url(#path-1-inside-1_1270_10)" fill="white" d="M0 0V-1H-1V0H0ZM0 84H-1V85H0V84ZM0 1H214V-1H0V1ZM214 83H0V85H214V83ZM1 84V0H-1V84H1Z"></path>
<path fill="#05FF00" d="M18.016 38L16.264 28.28H18.1L19.144 34.88L20.116 28.28H22.06L20.284 38H18.016ZM23.0484 38V28.28H25.1964V38H23.0484ZM29.4298 38.144C28.6938 38.144 28.1098 38.012 27.6778 37.748C27.2538 37.476 26.9538 37.1 26.7778 36.62C26.6018 36.132 26.5138 35.56 26.5138 34.904V31.4C26.5138 30.728 26.6018 30.152 26.7778 29.672C26.9538 29.184 27.2538 28.808 27.6778 28.544C28.1098 28.28 28.6938 28.148 29.4298 28.148C30.1498 28.148 30.7098 28.268 31.1098 28.508C31.5178 28.74 31.8058 29.068 31.9738 29.492C32.1418 29.916 32.2258 30.404 32.2258 30.956V31.796H30.1258V30.824C30.1258 30.632 30.1138 30.448 30.0898 30.272C30.0738 30.096 30.0178 29.952 29.9218 29.84C29.8258 29.72 29.6618 29.66 29.4298 29.66C29.2058 29.66 29.0378 29.72 28.9258 29.84C28.8218 29.96 28.7538 30.112 28.7218 30.296C28.6978 30.472 28.6858 30.66 28.6858 30.86V35.432C28.6858 35.648 28.7018 35.848 28.7338 36.032C28.7738 36.208 28.8458 36.352 28.9498 36.464C29.0618 36.568 29.2218 36.62 29.4298 36.62C29.6538 36.62 29.8138 36.564 29.9098 36.452C30.0058 36.332 30.0658 36.18 30.0898 35.996C30.1138 35.812 30.1258 35.624 30.1258 35.432V34.412H32.2258V35.252C32.2258 35.804 32.1418 36.3 31.9738 36.74C31.8138 37.172 31.5298 37.516 31.1218 37.772C30.7218 38.02 30.1578 38.144 29.4298 38.144ZM34.2835 38V29.876H32.8195V28.28H37.8955V29.876H36.4435V38H34.2835ZM41.4415 38.144C40.7135 38.144 40.1375 38.016 39.7135 37.76C39.2895 37.504 38.9855 37.136 38.8015 36.656C38.6175 36.176 38.5255 35.604 38.5255 34.94V31.328C38.5255 30.656 38.6175 30.084 38.8015 29.612C38.9855 29.14 39.2895 28.78 39.7135 28.532C40.1375 28.276 40.7135 28.148 41.4415 28.148C42.1775 28.148 42.7575 28.276 43.1815 28.532C43.6135 28.78 43.9215 29.14 44.1055 29.612C44.2895 30.084 44.3815 30.656 44.3815 31.328V34.94C44.3815 35.604 44.2895 36.176 44.1055 36.656C43.9215 37.136 43.6135 37.504 43.1815 37.76C42.7575 38.016 42.1775 38.144 41.4415 38.144ZM41.4415 36.62C41.6655 36.62 41.8295 36.564 41.9335 36.452C42.0375 36.34 42.1055 36.196 42.1375 36.02C42.1695 35.844 42.1855 35.664 42.1855 35.48V30.8C42.1855 30.608 42.1695 30.428 42.1375 30.26C42.1055 30.084 42.0375 29.94 41.9335 29.828C41.8295 29.716 41.6655 29.66 41.4415 29.66C41.2335 29.66 41.0775 29.716 40.9735 29.828C40.8695 29.94 40.8015 30.084 40.7695 30.26C40.7375 30.428 40.7215 30.608 40.7215 30.8V35.48C40.7215 35.664 40.7335 35.844 40.7575 36.02C40.7895 36.196 40.8535 36.34 40.9495 36.452C41.0535 36.564 41.2175 36.62 41.4415 36.62ZM45.6888 38V28.28H48.3648C49.0208 28.28 49.5888 28.352 50.0688 28.496C50.5488 28.64 50.9208 28.9 51.1848 29.276C51.4568 29.644 51.5928 30.168 51.5928 30.848C51.5928 31.248 51.5608 31.604 51.4968 31.916C51.4328 32.228 51.3128 32.5 51.1367 32.732C50.9688 32.956 50.7248 33.144 50.4048 33.296L51.7368 38H49.5168L48.4488 33.644H47.8368V38H45.6888ZM47.8368 32.408H48.4368C48.7408 32.408 48.9768 32.356 49.1448 32.252C49.3128 32.14 49.4288 31.984 49.4928 31.784C49.5648 31.576 49.6008 31.328 49.6008 31.04C49.6008 30.624 49.5248 30.3 49.3728 30.068C49.2208 29.836 48.9408 29.72 48.5328 29.72H47.8368V32.408ZM53.8854 38V34.028L52.0374 28.28H54.0654L54.9894 31.352L55.8174 28.28H57.7614L55.9494 34.028V38H53.8854Z"></path>
<path fill="white" d="M17.87 56V53.14L16.12 47.9H17.17L18.41 51.81L19.63 47.9H20.69L18.95 53.14V56H17.87ZM22.7491 56.08C22.3225 56.08 21.9858 55.9933 21.7391 55.82C21.4925 55.6467 21.3158 55.4 21.2091 55.08C21.1091 54.76 21.0591 54.3833 21.0591 53.95V52.27C21.0591 51.8367 21.1091 51.46 21.2091 51.14C21.3158 50.82 21.4925 50.5733 21.7391 50.4C21.9858 50.2267 22.3225 50.14 22.7491 50.14C23.1758 50.14 23.5091 50.2267 23.7491 50.4C23.9958 50.5733 24.1691 50.82 24.2691 51.14C24.3758 51.46 24.4291 51.8367 24.4291 52.27V53.95C24.4291 54.3833 24.3758 54.76 24.2691 55.08C24.1691 55.4 23.9958 55.6467 23.7491 55.82C23.5091 55.9933 23.1758 56.08 22.7491 56.08ZM22.7491 55.29C22.9558 55.29 23.0991 55.23 23.1791 55.11C23.2658 54.99 23.3158 54.8333 23.3291 54.64C23.3491 54.44 23.3591 54.2333 23.3591 54.02V52.21C23.3591 51.99 23.3491 51.7833 23.3291 51.59C23.3158 51.3967 23.2658 51.24 23.1791 51.12C23.0991 50.9933 22.9558 50.93 22.7491 50.93C22.5425 50.93 22.3958 50.9933 22.3091 51.12C22.2225 51.24 22.1691 51.3967 22.1491 51.59C22.1358 51.7833 22.1291 51.99 22.1291 52.21V54.02C22.1291 54.2333 22.1358 54.44 22.1491 54.64C22.1691 54.8333 22.2225 54.99 22.3091 55.11C22.3958 55.23 22.5425 55.29 22.7491 55.29ZM26.2372 56.08C26.0105 56.08 25.8339 56.02 25.7072 55.9C25.5805 55.78 25.4905 55.63 25.4372 55.45C25.3905 55.27 25.3672 55.0867 25.3672 54.9V50.22H26.4372V54.58C26.4372 54.7867 26.4672 54.95 26.5272 55.07C26.5872 55.1833 26.7105 55.24 26.8972 55.24C27.0172 55.24 27.1405 55.2067 27.2672 55.14C27.4005 55.0667 27.5272 54.98 27.6472 54.88V50.22H28.7172V56H27.6472V55.43C27.4605 55.61 27.2472 55.7633 27.0072 55.89C26.7739 56.0167 26.5172 56.08 26.2372 56.08ZM29.8415 56V50.22H30.9115V51.04C31.1248 50.6867 31.3382 50.45 31.5515 50.33C31.7648 50.21 31.9782 50.15 32.1915 50.15C32.2182 50.15 32.2415 50.15 32.2615 50.15C32.2882 50.15 32.3215 50.1533 32.3615 50.16V51.34C32.2815 51.3067 32.1882 51.28 32.0815 51.26C31.9815 51.2333 31.8782 51.22 31.7715 51.22C31.6048 51.22 31.4515 51.26 31.3115 51.34C31.1782 51.4133 31.0448 51.56 30.9115 51.78V56H29.8415ZM36.8995 56.08C36.4729 56.08 36.1362 55.9933 35.8895 55.82C35.6429 55.6467 35.4662 55.4 35.3595 55.08C35.2595 54.76 35.2095 54.3833 35.2095 53.95V52.27C35.2095 51.8367 35.2595 51.46 35.3595 51.14C35.4662 50.82 35.6429 50.5733 35.8895 50.4C36.1362 50.2267 36.4729 50.14 36.8995 50.14C37.3262 50.14 37.6595 50.2267 37.8995 50.4C38.1462 50.5733 38.3195 50.82 38.4195 51.14C38.5262 51.46 38.5795 51.8367 38.5795 52.27V53.95C38.5795 54.3833 38.5262 54.76 38.4195 55.08C38.3195 55.4 38.1462 55.6467 37.8995 55.82C37.6595 55.9933 37.3262 56.08 36.8995 56.08ZM36.8995 55.29C37.1062 55.29 37.2495 55.23 37.3295 55.11C37.4162 54.99 37.4662 54.8333 37.4795 54.64C37.4995 54.44 37.5095 54.2333 37.5095 54.02V52.21C37.5095 51.99 37.4995 51.7833 37.4795 51.59C37.4662 51.3967 37.4162 51.24 37.3295 51.12C37.2495 50.9933 37.1062 50.93 36.8995 50.93C36.6929 50.93 36.5462 50.9933 36.4595 51.12C36.3729 51.24 36.3195 51.3967 36.2995 51.59C36.2862 51.7833 36.2795 51.99 36.2795 52.21V54.02C36.2795 54.2333 36.2862 54.44 36.2995 54.64C36.3195 54.8333 36.3729 54.99 36.4595 55.11C36.5462 55.23 36.6929 55.29 36.8995 55.29ZM39.5576 57.9V50.22H40.6276V50.68C40.7542 50.5333 40.9076 50.4067 41.0876 50.3C41.2676 50.1933 41.4809 50.14 41.7276 50.14C42.0276 50.14 42.2642 50.22 42.4376 50.38C42.6176 50.5333 42.7509 50.73 42.8376 50.97C42.9242 51.2033 42.9809 51.4433 43.0076 51.69C43.0342 51.93 43.0476 52.1367 43.0476 52.31V53.71C43.0476 54.1167 43.0076 54.5033 42.9276 54.87C42.8476 55.23 42.7009 55.5233 42.4876 55.75C42.2809 55.97 41.9876 56.08 41.6076 56.08C41.4009 56.08 41.2176 56.03 41.0576 55.93C40.8976 55.8233 40.7542 55.7033 40.6276 55.57V57.9H39.5576ZM41.3976 55.24C41.5842 55.24 41.7176 55.1733 41.7976 55.04C41.8776 54.9 41.9276 54.7133 41.9476 54.48C41.9676 54.2467 41.9776 53.99 41.9776 53.71V52.31C41.9776 52.07 41.9642 51.85 41.9376 51.65C41.9109 51.4433 41.8542 51.28 41.7676 51.16C41.6809 51.04 41.5442 50.98 41.3576 50.98C41.2176 50.98 41.0842 51.01 40.9576 51.07C40.8309 51.13 40.7209 51.2 40.6276 51.28V54.98C40.7276 55.0533 40.8409 55.1167 40.9676 55.17C41.0942 55.2167 41.2376 55.24 41.3976 55.24ZM44.0205 57.9V50.22H45.0905V50.68C45.2171 50.5333 45.3705 50.4067 45.5505 50.3C45.7305 50.1933 45.9438 50.14 46.1905 50.14C46.4905 50.14 46.7271 50.22 46.9005 50.38C47.0805 50.5333 47.2138 50.73 47.3005 50.97C47.3871 51.2033 47.4438 51.4433 47.4705 51.69C47.4971 51.93 47.5105 52.1367 47.5105 52.31V53.71C47.5105 54.1167 47.4705 54.5033 47.3905 54.87C47.3105 55.23 47.1638 55.5233 46.9505 55.75C46.7438 55.97 46.4505 56.08 46.0705 56.08C45.8638 56.08 45.6805 56.03 45.5205 55.93C45.3605 55.8233 45.2171 55.7033 45.0905 55.57V57.9H44.0205ZM45.8605 55.24C46.0471 55.24 46.1805 55.1733 46.2605 55.04C46.3405 54.9 46.3905 54.7133 46.4105 54.48C46.4305 54.2467 46.4405 53.99 46.4405 53.71V52.31C46.4405 52.07 46.4271 51.85 46.4005 51.65C46.3738 51.4433 46.3171 51.28 46.2305 51.16C46.1438 51.04 46.0071 50.98 45.8205 50.98C45.6805 50.98 45.5471 51.01 45.4205 51.07C45.2938 51.13 45.1838 51.2 45.0905 51.28V54.98C45.1905 55.0533 45.3038 55.1167 45.4305 55.17C45.5571 55.2167 45.7005 55.24 45.8605 55.24ZM50.0734 56.08C49.6467 56.08 49.31 55.9933 49.0634 55.82C48.8167 55.6467 48.64 55.4 48.5334 55.08C48.4334 54.76 48.3834 54.3833 48.3834 53.95V52.27C48.3834 51.8367 48.4334 51.46 48.5334 51.14C48.64 50.82 48.8167 50.5733 49.0634 50.4C49.31 50.2267 49.6467 50.14 50.0734 50.14C50.5 50.14 50.8334 50.2267 51.0734 50.4C51.32 50.5733 51.4934 50.82 51.5934 51.14C51.7 51.46 51.7534 51.8367 51.7534 52.27V53.95C51.7534 54.3833 51.7 54.76 51.5934 55.08C51.4934 55.4 51.32 55.6467 51.0734 55.82C50.8334 55.9933 50.5 56.08 50.0734 56.08ZM50.0734 55.29C50.28 55.29 50.4234 55.23 50.5034 55.11C50.59 54.99 50.64 54.8333 50.6534 54.64C50.6734 54.44 50.6834 54.2333 50.6834 54.02V52.21C50.6834 51.99 50.6734 51.7833 50.6534 51.59C50.64 51.3967 50.59 51.24 50.5034 51.12C50.4234 50.9933 50.28 50.93 50.0734 50.93C49.8667 50.93 49.72 50.9933 49.6334 51.12C49.5467 51.24 49.4934 51.3967 49.4734 51.59C49.46 51.7833 49.4534 51.99 49.4534 52.21V54.02C49.4534 54.2333 49.46 54.44 49.4734 54.64C49.4934 54.8333 49.5467 54.99 49.6334 55.11C49.72 55.23 49.8667 55.29 50.0734 55.29ZM52.7314 56V50.22H53.8014V50.79C53.9947 50.61 54.2081 50.4567 54.4414 50.33C54.6747 50.2033 54.9314 50.14 55.2114 50.14C55.4447 50.14 55.6214 50.2 55.7414 50.32C55.8681 50.44 55.9547 50.59 56.0014 50.77C56.0547 50.95 56.0814 51.1333 56.0814 51.32V56H55.0114V51.63C55.0114 51.4233 54.9814 51.2633 54.9214 51.15C54.8614 51.0367 54.7381 50.98 54.5514 50.98C54.4314 50.98 54.3047 51.0167 54.1714 51.09C54.0447 51.1567 53.9214 51.24 53.8014 51.34V56H52.7314ZM58.7259 56.08C58.2726 56.08 57.9226 55.9933 57.6759 55.82C57.4293 55.64 57.2559 55.38 57.1559 55.04C57.0626 54.6933 57.0159 54.27 57.0159 53.77V52.45C57.0159 51.9367 57.0659 51.51 57.1659 51.17C57.2659 50.83 57.4393 50.5733 57.6859 50.4C57.9393 50.2267 58.2859 50.14 58.7259 50.14C59.2126 50.14 59.5693 50.24 59.7959 50.44C60.0293 50.64 60.1826 50.93 60.2559 51.31C60.3293 51.6833 60.3659 52.1333 60.3659 52.66V53.13H58.0859V54.29C58.0859 54.5233 58.1059 54.7133 58.1459 54.86C58.1926 55.0067 58.2626 55.1167 58.3559 55.19C58.4559 55.2567 58.5826 55.29 58.7359 55.29C58.8959 55.29 59.0159 55.2533 59.0959 55.18C59.1826 55.1 59.2393 54.99 59.2659 54.85C59.2993 54.7033 59.3159 54.5333 59.3159 54.34V53.99H60.3559V54.21C60.3559 54.79 60.2326 55.2467 59.9859 55.58C59.7393 55.9133 59.3193 56.08 58.7259 56.08ZM58.0859 52.55H59.3159V52.03C59.3159 51.79 59.3026 51.59 59.2759 51.43C59.2493 51.2633 59.1926 51.14 59.1059 51.06C59.0259 50.9733 58.8959 50.93 58.7159 50.93C58.5426 50.93 58.4093 50.97 58.3159 51.05C58.2293 51.13 58.1693 51.2667 58.1359 51.46C58.1026 51.6467 58.0859 51.9067 58.0859 52.24V52.55ZM61.3349 56V50.22H62.4049V50.79C62.5983 50.61 62.8116 50.4567 63.0449 50.33C63.2783 50.2033 63.5349 50.14 63.8149 50.14C64.0483 50.14 64.2249 50.2 64.3449 50.32C64.4716 50.44 64.5583 50.59 64.6049 50.77C64.6583 50.95 64.6849 51.1333 64.6849 51.32V56H63.6149V51.63C63.6149 51.4233 63.5849 51.2633 63.5249 51.15C63.4649 51.0367 63.3416 50.98 63.1549 50.98C63.0349 50.98 62.9083 51.0167 62.7749 51.09C62.6483 51.1567 62.5249 51.24 62.4049 51.34V56H61.3349ZM67.2695 56.08C66.9695 56.08 66.7261 56.0233 66.5395 55.91C66.3595 55.7967 66.2261 55.6367 66.1395 55.43C66.0595 55.2233 66.0195 54.98 66.0195 54.7V50.93H65.4095V50.22H66.0195V48.53H67.0895V50.22H68.0195V50.93H67.0895V54.63C67.0895 54.8567 67.1261 55.02 67.1995 55.12C67.2728 55.2133 67.4128 55.26 67.6195 55.26C67.6728 55.26 67.7328 55.2567 67.7995 55.25C67.8728 55.2433 67.9428 55.2367 68.0095 55.23V56.02C67.8761 56.04 67.7528 56.0533 67.6395 56.06C67.5261 56.0733 67.4028 56.08 67.2695 56.08ZM71.1208 56V50.22H72.1908V51.04C72.4041 50.6867 72.6174 50.45 72.8308 50.33C73.0441 50.21 73.2574 50.15 73.4708 50.15C73.4974 50.15 73.5208 50.15 73.5408 50.15C73.5674 50.15 73.6008 50.1533 73.6408 50.16V51.34C73.5608 51.3067 73.4674 51.28 73.3608 51.26C73.2608 51.2333 73.1574 51.22 73.0508 51.22C72.8841 51.22 72.7308 51.26 72.5908 51.34C72.4574 51.4133 72.3241 51.56 72.1908 51.78V56H71.1208ZM75.9037 56.08C75.4503 56.08 75.1003 55.9933 74.8537 55.82C74.607 55.64 74.4337 55.38 74.3337 55.04C74.2403 54.6933 74.1937 54.27 74.1937 53.77V52.45C74.1937 51.9367 74.2437 51.51 74.3437 51.17C74.4437 50.83 74.617 50.5733 74.8637 50.4C75.117 50.2267 75.4637 50.14 75.9037 50.14C76.3903 50.14 76.747 50.24 76.9737 50.44C77.207 50.64 77.3603 50.93 77.4337 51.31C77.507 51.6833 77.5437 52.1333 77.5437 52.66V53.13H75.2637V54.29C75.2637 54.5233 75.2837 54.7133 75.3237 54.86C75.3703 55.0067 75.4403 55.1167 75.5337 55.19C75.6337 55.2567 75.7603 55.29 75.9137 55.29C76.0737 55.29 76.1937 55.2533 76.2737 55.18C76.3603 55.1 76.417 54.99 76.4437 54.85C76.477 54.7033 76.4937 54.5333 76.4937 54.34V53.99H77.5337V54.21C77.5337 54.79 77.4103 55.2467 77.1637 55.58C76.917 55.9133 76.497 56.08 75.9037 56.08ZM75.2637 52.55H76.4937V52.03C76.4937 51.79 76.4803 51.59 76.4537 51.43C76.427 51.2633 76.3703 51.14 76.2837 51.06C76.2037 50.9733 76.0737 50.93 75.8937 50.93C75.7203 50.93 75.587 50.97 75.4937 51.05C75.407 51.13 75.347 51.2667 75.3137 51.46C75.2803 51.6467 75.2637 51.9067 75.2637 52.24V52.55ZM79.8527 56.08C79.3793 56.08 78.9993 55.9333 78.7127 55.64C78.426 55.34 78.2627 54.9467 78.2227 54.46L79.1127 54.19C79.166 54.5567 79.256 54.8333 79.3827 55.02C79.5093 55.2 79.696 55.29 79.9427 55.29C80.136 55.29 80.2827 55.2367 80.3827 55.13C80.4827 55.0167 80.5327 54.8667 80.5327 54.68C80.5327 54.5133 80.496 54.3633 80.4227 54.23C80.3493 54.0967 80.2293 53.96 80.0627 53.82L79.0727 52.97C78.8727 52.7967 78.7027 52.6033 78.5627 52.39C78.4293 52.1767 78.3627 51.9 78.3627 51.56C78.3627 51.2533 78.4227 50.9967 78.5427 50.79C78.6693 50.5767 78.8427 50.4167 79.0627 50.31C79.2893 50.1967 79.5527 50.14 79.8527 50.14C80.3127 50.14 80.6627 50.29 80.9027 50.59C81.1493 50.8833 81.2893 51.24 81.3227 51.66L80.6027 51.93C80.576 51.73 80.536 51.5567 80.4827 51.41C80.4293 51.2567 80.356 51.14 80.2627 51.06C80.1693 50.9733 80.046 50.93 79.8927 50.93C79.7193 50.93 79.5793 50.99 79.4727 51.11C79.3727 51.2233 79.3227 51.36 79.3227 51.52C79.3227 51.62 79.3427 51.72 79.3827 51.82C79.4293 51.9133 79.506 52.0067 79.6127 52.1L80.6327 53.04C80.7727 53.1667 80.9027 53.3033 81.0227 53.45C81.1493 53.5967 81.2527 53.7633 81.3327 53.95C81.4127 54.1367 81.4527 54.3533 81.4527 54.6C81.4527 54.9267 81.386 55.2 81.2527 55.42C81.1193 55.64 80.9327 55.8067 80.6927 55.92C80.4527 56.0267 80.1727 56.08 79.8527 56.08ZM82.3229 56V50.22H83.3929V56H82.3229ZM82.3229 49.36V48.24H83.3929V49.36H82.3229ZM86.038 57.79C85.6914 57.79 85.378 57.7533 85.098 57.68C84.818 57.6067 84.598 57.49 84.438 57.33C84.278 57.17 84.198 56.96 84.198 56.7C84.198 56.5133 84.238 56.35 84.318 56.21C84.398 56.07 84.5014 55.95 84.628 55.85C84.7547 55.7433 84.888 55.6567 85.028 55.59C84.8414 55.5367 84.7014 55.4533 84.608 55.34C84.5147 55.22 84.468 55.0967 84.468 54.97C84.468 54.7567 84.5247 54.5733 84.638 54.42C84.7514 54.2667 84.908 54.1 85.108 53.92C84.888 53.7533 84.7214 53.54 84.608 53.28C84.4947 53.02 84.438 52.66 84.438 52.2C84.438 51.7467 84.498 51.37 84.618 51.07C84.7447 50.7633 84.928 50.5333 85.168 50.38C85.4147 50.22 85.7147 50.14 86.068 50.14C86.3814 50.14 86.6314 50.1933 86.818 50.3C87.0114 50.4067 87.158 50.5667 87.258 50.78C87.2914 50.7267 87.3814 50.6367 87.528 50.51C87.6747 50.3767 87.8447 50.2667 88.038 50.18L88.198 50.11L88.468 50.8C88.3814 50.8133 88.2647 50.8467 88.118 50.9C87.978 50.9467 87.8447 50.9967 87.718 51.05C87.598 51.0967 87.5214 51.1367 87.488 51.17C87.5347 51.2833 87.5747 51.4467 87.608 51.66C87.648 51.8733 87.668 52.0633 87.668 52.23C87.668 52.6233 87.618 52.97 87.518 53.27C87.418 53.57 87.2514 53.8067 87.018 53.98C86.7914 54.1467 86.4747 54.23 86.068 54.23C85.9814 54.23 85.888 54.2233 85.788 54.21C85.688 54.1967 85.598 54.18 85.518 54.16C85.478 54.22 85.4347 54.29 85.388 54.37C85.348 54.45 85.328 54.5267 85.328 54.6C85.328 54.6733 85.3647 54.7333 85.438 54.78C85.518 54.82 85.6414 54.8467 85.808 54.86L86.708 54.94C87.1614 54.98 87.498 55.1167 87.718 55.35C87.938 55.5833 88.048 55.9167 88.048 56.35C88.048 56.6633 87.9747 56.9267 87.828 57.14C87.6814 57.36 87.458 57.5233 87.158 57.63C86.8647 57.7367 86.4914 57.79 86.038 57.79ZM86.118 56.95C86.498 56.95 86.778 56.9033 86.958 56.81C87.138 56.7233 87.228 56.58 87.228 56.38C87.228 56.26 87.2047 56.16 87.158 56.08C87.118 56 87.0414 55.9367 86.928 55.89C86.8147 55.8433 86.6514 55.81 86.438 55.79L85.528 55.71C85.4547 55.7833 85.3847 55.8567 85.318 55.93C85.2514 56.0033 85.198 56.08 85.158 56.16C85.118 56.2467 85.098 56.3367 85.098 56.43C85.098 56.6033 85.1714 56.7333 85.318 56.82C85.4647 56.9067 85.7314 56.95 86.118 56.95ZM86.068 53.48C86.2214 53.48 86.3414 53.4533 86.428 53.4C86.5214 53.34 86.5914 53.2567 86.638 53.15C86.6847 53.0367 86.7147 52.9 86.728 52.74C86.748 52.58 86.758 52.4 86.758 52.2C86.758 52 86.748 51.82 86.728 51.66C86.7147 51.4933 86.6847 51.3533 86.638 51.24C86.598 51.12 86.5314 51.03 86.438 50.97C86.3514 50.91 86.2314 50.88 86.078 50.88C85.9314 50.88 85.808 50.91 85.708 50.97C85.6147 51.03 85.5447 51.1167 85.498 51.23C85.4514 51.3367 85.418 51.4733 85.398 51.64C85.378 51.8 85.368 51.9867 85.368 52.2C85.368 52.38 85.3747 52.55 85.388 52.71C85.408 52.8633 85.4414 52.9967 85.488 53.11C85.5414 53.2233 85.6147 53.3133 85.708 53.38C85.8014 53.4467 85.9214 53.48 86.068 53.48ZM88.8838 56V50.22H89.9538V50.79C90.1471 50.61 90.3604 50.4567 90.5938 50.33C90.8271 50.2033 91.0838 50.14 91.3638 50.14C91.5971 50.14 91.7738 50.2 91.8938 50.32C92.0204 50.44 92.1071 50.59 92.1538 50.77C92.2071 50.95 92.2338 51.1333 92.2338 51.32V56H91.1638V51.63C91.1638 51.4233 91.1338 51.2633 91.0738 51.15C91.0137 51.0367 90.8904 50.98 90.7038 50.98C90.5838 50.98 90.4571 51.0167 90.3238 51.09C90.1971 51.1567 90.0738 51.24 89.9538 51.34V56H88.8838ZM94.8783 56.08C94.4249 56.08 94.0749 55.9933 93.8283 55.82C93.5816 55.64 93.4083 55.38 93.3083 55.04C93.2149 54.6933 93.1683 54.27 93.1683 53.77V52.45C93.1683 51.9367 93.2183 51.51 93.3183 51.17C93.4183 50.83 93.5916 50.5733 93.8383 50.4C94.0916 50.2267 94.4383 50.14 94.8783 50.14C95.3649 50.14 95.7216 50.24 95.9483 50.44C96.1816 50.64 96.3349 50.93 96.4083 51.31C96.4816 51.6833 96.5183 52.1333 96.5183 52.66V53.13H94.2383V54.29C94.2383 54.5233 94.2583 54.7133 94.2983 54.86C94.3449 55.0067 94.4149 55.1167 94.5083 55.19C94.6083 55.2567 94.7349 55.29 94.8883 55.29C95.0483 55.29 95.1683 55.2533 95.2483 55.18C95.3349 55.1 95.3916 54.99 95.4183 54.85C95.4516 54.7033 95.4683 54.5333 95.4683 54.34V53.99H96.5083V54.21C96.5083 54.79 96.3849 55.2467 96.1383 55.58C95.8916 55.9133 95.4716 56.08 94.8783 56.08ZM94.2383 52.55H95.4683V52.03C95.4683 51.79 95.4549 51.59 95.4283 51.43C95.4016 51.2633 95.3449 51.14 95.2583 51.06C95.1783 50.9733 95.0483 50.93 94.8683 50.93C94.6949 50.93 94.5616 50.97 94.4683 51.05C94.3816 51.13 94.3216 51.2667 94.2883 51.46C94.2549 51.6467 94.2383 51.9067 94.2383 52.24V52.55ZM98.8273 56.08C98.3406 56.08 97.9773 55.9033 97.7373 55.55C97.4973 55.19 97.3773 54.5833 97.3773 53.73V52.61C97.3773 52.17 97.4139 51.7633 97.4873 51.39C97.5606 51.01 97.6973 50.7067 97.8973 50.48C98.1039 50.2533 98.4039 50.14 98.7973 50.14C98.9906 50.14 99.1673 50.1833 99.3273 50.27C99.4873 50.3567 99.6306 50.4633 99.7573 50.59V47.9H100.827V56H99.7573V55.63C99.6306 55.7633 99.4906 55.8733 99.3373 55.96C99.1906 56.04 99.0206 56.08 98.8273 56.08ZM99.0973 55.24C99.1973 55.24 99.3039 55.2233 99.4173 55.19C99.5306 55.15 99.6439 55.0933 99.7573 55.02V51.23C99.6639 51.1633 99.5606 51.1067 99.4473 51.06C99.3339 51.0067 99.2106 50.98 99.0773 50.98C98.8306 50.98 98.6639 51.1 98.5773 51.34C98.4906 51.5733 98.4473 51.8567 98.4473 52.19V53.82C98.4473 54.0867 98.4606 54.33 98.4873 54.55C98.5206 54.7633 98.5839 54.9333 98.6773 55.06C98.7706 55.18 98.9106 55.24 99.0973 55.24Z"></path>
</svg>
