<svg xmlns="http://www.w3.org/2000/svg" fill="none" viewBox="0 0 67 52" height="52" width="67">
<rect stroke="#0D0E12" fill="white" height="51" width="66" y="0.5" x="0.5"></rect>
<path fill="#0D0E12" d="M26.5858 33.1C26.1724 33.1 25.8124 33.03 25.5058 32.89C25.2058 32.75 24.9724 32.54 24.8058 32.26C24.6458 31.98 24.5658 31.63 24.5658 31.21V29.01C24.5658 28.59 24.6458 28.24 24.8058 27.96C24.9724 27.68 25.2058 27.47 25.5058 27.33C25.8124 27.19 26.1724 27.12 26.5858 27.12C26.9991 27.12 27.3558 27.19 27.6558 27.33C27.9624 27.47 28.1991 27.68 28.3658 27.96C28.5324 28.24 28.6158 28.59 28.6158 29.01V31.21C28.6158 31.63 28.5324 31.98 28.3658 32.26C28.1991 32.54 27.9624 32.75 27.6558 32.89C27.3558 33.03 26.9991 33.1 26.5858 33.1ZM26.5958 32.02C26.7024 32.02 26.7858 31.9933 26.8458 31.94C26.9058 31.88 26.9458 31.8 26.9658 31.7C26.9924 31.5933 27.0058 31.4667 27.0058 31.32V28.9C27.0058 28.7533 26.9924 28.63 26.9658 28.53C26.9458 28.4233 26.9058 28.3433 26.8458 28.29C26.7858 28.23 26.7024 28.2 26.5958 28.2C26.4891 28.2 26.4058 28.23 26.3458 28.29C26.2858 28.3433 26.2424 28.4233 26.2158 28.53C26.1891 28.63 26.1758 28.7533 26.1758 28.9V31.32C26.1758 31.4667 26.1891 31.5933 26.2158 31.7C26.2424 31.8 26.2858 31.88 26.3458 31.94C26.4058 31.9933 26.4891 32.02 26.5958 32.02ZM29.5198 34.9V27.22H31.1498V27.64C31.3431 27.4667 31.5498 27.3367 31.7698 27.25C31.9898 27.1633 32.1998 27.12 32.3998 27.12C32.6198 27.12 32.8064 27.1633 32.9598 27.25C33.1198 27.3367 33.2498 27.46 33.3498 27.62C33.4498 27.7733 33.5231 27.9533 33.5698 28.16C33.6164 28.3667 33.6398 28.5867 33.6398 28.82V31.31C33.6398 31.67 33.5898 31.9833 33.4898 32.25C33.3964 32.5167 33.2564 32.7267 33.0698 32.88C32.8831 33.0267 32.6531 33.1 32.3798 33.1C32.1731 33.1 31.9631 33.0533 31.7498 32.96C31.5431 32.86 31.3431 32.7267 31.1498 32.56V34.9H29.5198ZM31.5798 32.05C31.6864 32.05 31.7698 32.02 31.8298 31.96C31.8898 31.9 31.9331 31.8233 31.9598 31.73C31.9931 31.63 32.0098 31.52 32.0098 31.4V28.7C32.0098 28.5867 31.9964 28.4867 31.9698 28.4C31.9431 28.3067 31.8998 28.2333 31.8398 28.18C31.7798 28.1267 31.7031 28.1 31.6098 28.1C31.5231 28.1 31.4398 28.12 31.3598 28.16C31.2864 28.1933 31.2164 28.24 31.1498 28.3V31.9C31.2231 31.9467 31.2931 31.9833 31.3598 32.01C31.4331 32.0367 31.5064 32.05 31.5798 32.05ZM36.4586 33.1C36.0386 33.1 35.6786 33.0267 35.3786 32.88C35.0786 32.7267 34.8486 32.5067 34.6886 32.22C34.5286 31.9267 34.4486 31.5767 34.4486 31.17V29.05C34.4486 28.6367 34.5286 28.2867 34.6886 28C34.8486 27.7133 35.0786 27.4967 35.3786 27.35C35.6853 27.1967 36.0453 27.12 36.4586 27.12C36.8853 27.12 37.2386 27.1933 37.5186 27.34C37.8053 27.4867 38.0186 27.7033 38.1586 27.99C38.3053 28.2767 38.3786 28.63 38.3786 29.05V30.21H36.0586V31.32C36.0586 31.4667 36.0753 31.5867 36.1086 31.68C36.1419 31.7733 36.1886 31.84 36.2486 31.88C36.3086 31.92 36.3786 31.94 36.4586 31.94C36.5386 31.94 36.6086 31.9233 36.6686 31.89C36.7353 31.85 36.7853 31.79 36.8186 31.71C36.8586 31.63 36.8786 31.52 36.8786 31.38V30.77H38.3786V31.33C38.3786 31.9167 38.2086 32.36 37.8686 32.66C37.5286 32.9533 37.0586 33.1 36.4586 33.1ZM36.0586 29.45H36.8786V28.87C36.8786 28.7167 36.8586 28.5967 36.8186 28.51C36.7853 28.4233 36.7353 28.3633 36.6686 28.33C36.6086 28.2967 36.5353 28.28 36.4486 28.28C36.3686 28.28 36.2986 28.3 36.2386 28.34C36.1853 28.38 36.1419 28.45 36.1086 28.55C36.0753 28.6433 36.0586 28.78 36.0586 28.96V29.45ZM39.2659 33V27.22H40.8959V27.8C41.1092 27.5867 41.3292 27.42 41.5559 27.3C41.7892 27.18 42.0325 27.12 42.2859 27.12C42.5259 27.12 42.7225 27.18 42.8759 27.3C43.0359 27.4133 43.1559 27.5733 43.2359 27.78C43.3159 27.98 43.3559 28.21 43.3559 28.47V33H41.7359V28.7C41.7359 28.56 41.7125 28.4533 41.6659 28.38C41.6192 28.3067 41.5325 28.27 41.4059 28.27C41.3392 28.27 41.2592 28.29 41.1659 28.33C41.0792 28.3633 40.9892 28.4133 40.8959 28.48V33H39.2659Z"></path>
<path fill="#0D0E12" d="M12.5498 44.1C12.0431 44.1 11.6198 43.9867 11.2798 43.76C10.9464 43.5333 10.6731 43.1633 10.4598 42.65L11.5698 42.16C11.6764 42.42 11.7998 42.6267 11.9398 42.78C12.0864 42.9267 12.2464 43 12.4198 43C12.5464 43 12.6398 42.9733 12.6998 42.92C12.7664 42.8667 12.7998 42.7933 12.7998 42.7C12.7998 42.5467 12.7398 42.4067 12.6198 42.28C12.5064 42.1533 12.2998 41.9667 11.9998 41.72L11.5798 41.37C11.2731 41.11 11.0298 40.86 10.8498 40.62C10.6764 40.3733 10.5898 40.07 10.5898 39.71C10.5898 39.3967 10.6698 39.12 10.8298 38.88C10.9964 38.64 11.2164 38.4533 11.4898 38.32C11.7631 38.1867 12.0564 38.12 12.3698 38.12C12.8431 38.12 13.2398 38.25 13.5598 38.51C13.8798 38.77 14.1031 39.1367 14.2298 39.61L13.1798 40.09C13.1398 39.9633 13.0831 39.8367 13.0098 39.71C12.9364 39.5833 12.8464 39.4767 12.7398 39.39C12.6398 39.3033 12.5298 39.26 12.4098 39.26C12.3031 39.26 12.2164 39.29 12.1498 39.35C12.0898 39.41 12.0598 39.49 12.0598 39.59C12.0598 39.7167 12.1298 39.8533 12.2698 40C12.4164 40.1467 12.6164 40.3233 12.8698 40.53L13.2798 40.89C13.4464 41.03 13.6098 41.18 13.7698 41.34C13.9298 41.5 14.0598 41.6767 14.1598 41.87C14.2664 42.0633 14.3198 42.2833 14.3198 42.53C14.3198 42.8633 14.2364 43.15 14.0698 43.39C13.9031 43.6233 13.6831 43.8 13.4098 43.92C13.1431 44.04 12.8564 44.1 12.5498 44.1ZM16.198 44.1C15.9047 44.1 15.658 44.03 15.458 43.89C15.258 43.75 15.108 43.5733 15.008 43.36C14.908 43.14 14.858 42.9167 14.858 42.69C14.858 42.33 14.928 42.0267 15.068 41.78C15.2147 41.5333 15.4047 41.3267 15.638 41.16C15.8714 40.9933 16.128 40.8533 16.408 40.74C16.688 40.62 16.9647 40.5133 17.238 40.42V39.84C17.238 39.74 17.228 39.6533 17.208 39.58C17.188 39.5 17.1547 39.44 17.108 39.4C17.0614 39.3533 16.9914 39.33 16.898 39.33C16.8047 39.33 16.7314 39.35 16.678 39.39C16.6314 39.43 16.598 39.4867 16.578 39.56C16.558 39.6267 16.5447 39.7033 16.538 39.79L16.498 40.21L14.978 40.15C15.0114 39.4567 15.1947 38.9467 15.528 38.62C15.868 38.2867 16.3747 38.12 17.048 38.12C17.6347 38.12 18.0714 38.2833 18.358 38.61C18.6514 38.93 18.798 39.3467 18.798 39.86V42.56C18.798 42.8 18.8014 43.01 18.808 43.19C18.8214 43.37 18.8347 43.5267 18.848 43.66C18.868 43.7933 18.8847 43.9067 18.898 44H17.438C17.418 43.8467 17.3947 43.68 17.368 43.5C17.3414 43.32 17.3214 43.2133 17.308 43.18C17.2414 43.42 17.1147 43.6333 16.928 43.82C16.748 44.0067 16.5047 44.1 16.198 44.1ZM16.778 43C16.8447 43 16.9047 42.9867 16.958 42.96C17.018 42.9333 17.0714 42.8967 17.118 42.85C17.1647 42.8033 17.2047 42.7567 17.238 42.71V41.13C17.1047 41.21 16.9814 41.2933 16.868 41.38C16.7547 41.46 16.658 41.55 16.578 41.65C16.498 41.75 16.4347 41.86 16.388 41.98C16.348 42.0933 16.328 42.2233 16.328 42.37C16.328 42.5633 16.368 42.7167 16.448 42.83C16.528 42.9433 16.638 43 16.778 43ZM20.5139 44L19.3539 38.22H20.9139L21.3939 41.91L21.8339 38.22H23.3939L22.2039 44H20.5139ZM25.8629 44.1C25.4429 44.1 25.0829 44.0267 24.7829 43.88C24.4829 43.7267 24.2529 43.5067 24.0929 43.22C23.9329 42.9267 23.8529 42.5767 23.8529 42.17V40.05C23.8529 39.6367 23.9329 39.2867 24.0929 39C24.2529 38.7133 24.4829 38.4967 24.7829 38.35C25.0896 38.1967 25.4496 38.12 25.8629 38.12C26.2896 38.12 26.6429 38.1933 26.9229 38.34C27.2096 38.4867 27.4229 38.7033 27.5629 38.99C27.7096 39.2767 27.7829 39.63 27.7829 40.05V41.21H25.4629V42.32C25.4629 42.4667 25.4796 42.5867 25.5129 42.68C25.5462 42.7733 25.5929 42.84 25.6529 42.88C25.7129 42.92 25.7829 42.94 25.8629 42.94C25.9429 42.94 26.0129 42.9233 26.0729 42.89C26.1396 42.85 26.1896 42.79 26.2229 42.71C26.2629 42.63 26.2829 42.52 26.2829 42.38V41.77H27.7829V42.33C27.7829 42.9167 27.6129 43.36 27.2729 43.66C26.9329 43.9533 26.4629 44.1 25.8629 44.1ZM25.4629 40.45H26.2829V39.87C26.2829 39.7167 26.2629 39.5967 26.2229 39.51C26.1896 39.4233 26.1396 39.3633 26.0729 39.33C26.0129 39.2967 25.9396 39.28 25.8529 39.28C25.7729 39.28 25.7029 39.3 25.6429 39.34C25.5896 39.38 25.5462 39.45 25.5129 39.55C25.4796 39.6433 25.4629 39.78 25.4629 39.96V40.45ZM29.9202 44.1C29.4935 44.1 29.1635 43.95 28.9302 43.65C28.6968 43.35 28.5802 42.9067 28.5802 42.32V39.93C28.5802 39.57 28.6302 39.2567 28.7302 38.99C28.8302 38.7167 28.9802 38.5033 29.1802 38.35C29.3802 38.1967 29.6268 38.12 29.9202 38.12C30.1335 38.12 30.3368 38.1633 30.5302 38.25C30.7235 38.33 30.9002 38.44 31.0602 38.58V35.9H32.6902V44H31.0602V43.55C30.8802 43.7233 30.6935 43.86 30.5002 43.96C30.3068 44.0533 30.1135 44.1 29.9202 44.1ZM30.6302 43.06C30.6835 43.06 30.7468 43.0467 30.8202 43.02C30.9002 42.9933 30.9802 42.9567 31.0602 42.91V39.26C30.9935 39.2267 30.9235 39.1967 30.8502 39.17C30.7768 39.1433 30.7068 39.13 30.6402 39.13C30.4935 39.13 30.3868 39.1933 30.3202 39.32C30.2535 39.44 30.2202 39.5867 30.2202 39.76V42.42C30.2202 42.54 30.2335 42.65 30.2602 42.75C30.2868 42.8433 30.3302 42.92 30.3902 42.98C30.4502 43.0333 30.5302 43.06 30.6302 43.06ZM38.138 46C37.7047 46 37.328 45.9567 37.008 45.87C36.688 45.7833 36.438 45.6533 36.258 45.48C36.0847 45.3067 35.998 45.0867 35.998 44.82C35.998 44.64 36.0347 44.4767 36.108 44.33C36.188 44.19 36.2947 44.0667 36.428 43.96C36.568 43.8467 36.7247 43.75 36.898 43.67C36.6447 43.5967 36.448 43.4867 36.308 43.34C36.168 43.1933 36.098 42.9967 36.098 42.75C36.098 42.5167 36.1547 42.3167 36.268 42.15C36.3814 41.9767 36.538 41.8033 36.738 41.63C36.5514 41.4633 36.408 41.26 36.308 41.02C36.2147 40.7733 36.168 40.4767 36.168 40.13C36.168 39.6967 36.248 39.33 36.408 39.03C36.568 38.73 36.8014 38.5033 37.108 38.35C37.4214 38.1967 37.798 38.12 38.238 38.12C38.538 38.12 38.8014 38.1567 39.028 38.23C39.2547 38.3033 39.448 38.4167 39.608 38.57C39.6814 38.4567 39.778 38.3467 39.898 38.24C40.018 38.1333 40.1547 38.0433 40.308 37.97L40.518 37.87L40.898 38.65C40.838 38.67 40.7547 38.7033 40.648 38.75C40.5414 38.7967 40.428 38.8467 40.308 38.9C40.1947 38.9533 40.0914 39.0067 39.998 39.06C40.0714 39.2067 40.128 39.3733 40.168 39.56C40.208 39.7467 40.228 39.94 40.228 40.14C40.228 40.5533 40.1514 40.91 39.998 41.21C39.8514 41.51 39.6314 41.74 39.338 41.9C39.0447 42.0533 38.678 42.13 38.238 42.13C38.0514 42.13 37.8747 42.1167 37.708 42.09C37.5414 42.0567 37.388 42.0167 37.248 41.97C37.208 42.0233 37.1714 42.08 37.138 42.14C37.1114 42.1933 37.098 42.2533 37.098 42.32C37.098 42.4 37.138 42.4633 37.218 42.51C37.298 42.5567 37.4414 42.5933 37.648 42.62L39.168 42.79C39.6614 42.8433 40.0247 43.0033 40.258 43.27C40.4914 43.53 40.608 43.8733 40.608 44.3C40.608 44.6667 40.5247 44.9767 40.358 45.23C40.198 45.4833 39.9347 45.6733 39.568 45.8C39.208 45.9333 38.7314 46 38.138 46ZM38.348 44.82C38.7147 44.82 38.9947 44.79 39.188 44.73C39.388 44.67 39.488 44.5467 39.488 44.36C39.488 44.2667 39.4614 44.19 39.408 44.13C39.3547 44.0767 39.2647 44.0333 39.138 44C39.018 43.96 38.8447 43.93 38.618 43.91L37.548 43.8C37.4814 43.8467 37.4214 43.9 37.368 43.96C37.3214 44.0133 37.2814 44.07 37.248 44.13C37.2214 44.1967 37.208 44.2667 37.208 44.34C37.208 44.5 37.2947 44.62 37.468 44.7C37.6414 44.78 37.9347 44.82 38.348 44.82ZM38.238 41.16C38.3314 41.16 38.408 41.1433 38.468 41.11C38.528 41.07 38.5714 41.01 38.598 40.93C38.6314 40.85 38.6547 40.7433 38.668 40.61C38.6814 40.4767 38.688 40.3167 38.688 40.13C38.688 39.9367 38.6814 39.7767 38.668 39.65C38.6547 39.5167 38.6314 39.41 38.598 39.33C38.5714 39.2433 38.528 39.1833 38.468 39.15C38.408 39.11 38.3314 39.09 38.238 39.09C38.1447 39.09 38.068 39.11 38.008 39.15C37.948 39.1833 37.9014 39.24 37.868 39.32C37.8414 39.4 37.8214 39.5067 37.808 39.64C37.7947 39.7733 37.788 39.9367 37.788 40.13C37.788 40.3167 37.7947 40.4767 37.808 40.61C37.8214 40.7367 37.8414 40.8433 37.868 40.93C37.9014 41.01 37.948 41.07 38.008 41.11C38.068 41.1433 38.1447 41.16 38.238 41.16ZM42.4578 44.1C42.1645 44.1 41.9178 44.03 41.7178 43.89C41.5178 43.75 41.3678 43.5733 41.2678 43.36C41.1678 43.14 41.1178 42.9167 41.1178 42.69C41.1178 42.33 41.1878 42.0267 41.3278 41.78C41.4745 41.5333 41.6645 41.3267 41.8978 41.16C42.1311 40.9933 42.3878 40.8533 42.6678 40.74C42.9478 40.62 43.2245 40.5133 43.4978 40.42V39.84C43.4978 39.74 43.4878 39.6533 43.4678 39.58C43.4478 39.5 43.4145 39.44 43.3678 39.4C43.3211 39.3533 43.2511 39.33 43.1578 39.33C43.0645 39.33 42.9911 39.35 42.9378 39.39C42.8911 39.43 42.8578 39.4867 42.8378 39.56C42.8178 39.6267 42.8045 39.7033 42.7978 39.79L42.7578 40.21L41.2378 40.15C41.2711 39.4567 41.4545 38.9467 41.7878 38.62C42.1278 38.2867 42.6345 38.12 43.3078 38.12C43.8945 38.12 44.3311 38.2833 44.6178 38.61C44.9111 38.93 45.0578 39.3467 45.0578 39.86V42.56C45.0578 42.8 45.0611 43.01 45.0678 43.19C45.0811 43.37 45.0945 43.5267 45.1078 43.66C45.1278 43.7933 45.1445 43.9067 45.1578 44H43.6978C43.6778 43.8467 43.6545 43.68 43.6278 43.5C43.6011 43.32 43.5811 43.2133 43.5678 43.18C43.5011 43.42 43.3745 43.6333 43.1878 43.82C43.0078 44.0067 42.7645 44.1 42.4578 44.1ZM43.0378 43C43.1045 43 43.1645 42.9867 43.2178 42.96C43.2778 42.9333 43.3311 42.8967 43.3778 42.85C43.4245 42.8033 43.4645 42.7567 43.4978 42.71V41.13C43.3645 41.21 43.2411 41.2933 43.1278 41.38C43.0145 41.46 42.9178 41.55 42.8378 41.65C42.7578 41.75 42.6945 41.86 42.6478 41.98C42.6078 42.0933 42.5878 42.2233 42.5878 42.37C42.5878 42.5633 42.6278 42.7167 42.7078 42.83C42.7878 42.9433 42.8978 43 43.0378 43ZM46.0237 44V38.22H47.6237V38.68C47.837 38.4733 48.057 38.3267 48.2837 38.24C48.517 38.1533 48.7537 38.11 48.9937 38.11C49.227 38.11 49.427 38.17 49.5937 38.29C49.767 38.4033 49.897 38.5733 49.9837 38.8C50.2103 38.5467 50.447 38.37 50.6937 38.27C50.947 38.1633 51.2003 38.11 51.4537 38.11C51.6803 38.11 51.877 38.1667 52.0437 38.28C52.2103 38.3867 52.3403 38.5467 52.4337 38.76C52.527 38.9667 52.5737 39.2167 52.5737 39.51V44H50.9737V39.68C50.9737 39.52 50.9437 39.4067 50.8837 39.34C50.8303 39.2667 50.747 39.23 50.6337 39.23C50.567 39.23 50.4837 39.25 50.3837 39.29C50.2837 39.3233 50.187 39.3733 50.0937 39.44C50.0937 39.4533 50.0937 39.4667 50.0937 39.48C50.0937 39.4867 50.0937 39.4967 50.0937 39.51V44H48.5137V39.68C48.5137 39.52 48.4837 39.4067 48.4237 39.34C48.3637 39.2667 48.277 39.23 48.1637 39.23C48.0903 39.23 48.0037 39.25 47.9037 39.29C47.8103 39.3233 47.717 39.3733 47.6237 39.44V44H46.0237ZM55.443 44.1C55.023 44.1 54.663 44.0267 54.363 43.88C54.063 43.7267 53.833 43.5067 53.673 43.22C53.513 42.9267 53.433 42.5767 53.433 42.17V40.05C53.433 39.6367 53.513 39.2867 53.673 39C53.833 38.7133 54.063 38.4967 54.363 38.35C54.6696 38.1967 55.0296 38.12 55.443 38.12C55.8696 38.12 56.223 38.1933 56.503 38.34C56.7896 38.4867 57.003 38.7033 57.143 38.99C57.2896 39.2767 57.363 39.63 57.363 40.05V41.21H55.043V42.32C55.043 42.4667 55.0596 42.5867 55.093 42.68C55.1263 42.7733 55.173 42.84 55.233 42.88C55.293 42.92 55.363 42.94 55.443 42.94C55.523 42.94 55.593 42.9233 55.653 42.89C55.7196 42.85 55.7696 42.79 55.803 42.71C55.843 42.63 55.863 42.52 55.863 42.38V41.77H57.363V42.33C57.363 42.9167 57.193 43.36 56.853 43.66C56.513 43.9533 56.043 44.1 55.443 44.1ZM55.043 40.45H55.863V39.87C55.863 39.7167 55.843 39.5967 55.803 39.51C55.7696 39.4233 55.7196 39.3633 55.653 39.33C55.593 39.2967 55.5196 39.28 55.433 39.28C55.353 39.28 55.283 39.3 55.223 39.34C55.1696 39.38 55.1263 39.45 55.093 39.55C55.0596 39.6433 55.043 39.78 55.043 39.96V40.45Z"></path>
<rect fill="#0D0E12" height="4" width="4" y="5" x="26"></rect>
<rect fill="#0D0E12" height="4" width="4" y="5" x="34"></rect>
<rect fill="#0D0E12" height="4" width="4" y="9" x="38"></rect>
<rect fill="#0D0E12" height="4" width="4" y="13" x="26"></rect>
<rect fill="#0D0E12" height="4" width="4" y="13" x="34"></rect>
<rect fill="#0D0E12" height="4" width="4" y="9" x="30"></rect>
<rect fill="#0D0E12" height="4" width="4" y="17" x="30"></rect>
<rect fill="#0D0E12" height="4" width="4" y="17" x="38"></rect>
</svg>
