<svg xmlns="http://www.w3.org/2000/svg" fill="none" viewBox="0 0 214 84" height="84" width="214">
<mask fill="white" id="path-1-inside-1_1435_69">
<path d="M0 0H214V84H0V0Z"></path>
</mask>
<path fill="#0D0E12" d="M0 0H214V84H0V0Z"></path>
<path mask="url(#path-1-inside-1_1435_69)" fill="white" d="M0 0V-1H-1V0H0ZM0 84H-1V85H0V84ZM0 1H214V-1H0V1ZM214 83H0V85H214V83ZM1 84V0H-1V84H1Z"></path>
<path fill="#FFF500" d="M16.72 38V28.28H19.18C20.028 28.28 20.688 28.388 21.16 28.604C21.632 28.812 21.964 29.144 22.156 29.6C22.348 30.048 22.444 30.632 22.444 31.352V34.88C22.444 35.608 22.348 36.204 22.156 36.668C21.964 37.124 21.632 37.46 21.16 37.676C20.696 37.892 20.044 38 19.204 38H16.72ZM18.868 36.512H19.204C19.532 36.512 19.768 36.464 19.912 36.368C20.056 36.272 20.144 36.128 20.176 35.936C20.216 35.744 20.236 35.504 20.236 35.216V30.98C20.236 30.692 20.212 30.46 20.164 30.284C20.124 30.108 20.032 29.98 19.888 29.9C19.744 29.82 19.512 29.78 19.192 29.78H18.868V36.512ZM23.7513 38V28.28H26.4273C27.0833 28.28 27.6513 28.352 28.1313 28.496C28.6113 28.64 28.9833 28.9 29.2473 29.276C29.5193 29.644 29.6553 30.168 29.6553 30.848C29.6553 31.248 29.6233 31.604 29.5593 31.916C29.4953 32.228 29.3753 32.5 29.1992 32.732C29.0313 32.956 28.7873 33.144 28.4673 33.296L29.7993 38H27.5793L26.5113 33.644H25.8993V38H23.7513ZM25.8993 32.408H26.4993C26.8033 32.408 27.0393 32.356 27.2073 32.252C27.3753 32.14 27.4913 31.984 27.5553 31.784C27.6273 31.576 27.6633 31.328 27.6633 31.04C27.6633 30.624 27.5873 30.3 27.4353 30.068C27.2833 29.836 27.0033 29.72 26.5953 29.72H25.8993V32.408ZM30.4786 38L32.3146 28.28H34.7626L36.5746 38H34.5946L34.2706 35.948H32.8426L32.5066 38H30.4786ZM33.0346 34.664H34.0666L33.5506 30.872L33.0346 34.664ZM38.125 38L36.949 28.28H38.773L39.349 33.944L40.081 28.292H41.509L42.277 33.908L42.865 28.28H44.665L43.501 38H41.629L40.801 32.132L40.021 38H38.125Z"></path>
<path fill="white" d="M16.63 56V47.9H18.39C18.99 47.9 19.4633 47.9933 19.81 48.18C20.1633 48.36 20.4133 48.6333 20.56 49C20.7133 49.3667 20.79 49.8233 20.79 50.37V53.35C20.79 53.9233 20.7133 54.4067 20.56 54.8C20.4133 55.1933 20.17 55.4933 19.83 55.7C19.4967 55.9 19.0467 56 18.48 56H16.63ZM17.76 55.19H18.4C18.8133 55.19 19.1067 55.11 19.28 54.95C19.4533 54.79 19.5567 54.5567 19.59 54.25C19.63 53.9433 19.65 53.5733 19.65 53.14V50.51C19.65 50.09 19.6233 49.75 19.57 49.49C19.5167 49.23 19.4 49.04 19.22 48.92C19.04 48.8 18.7567 48.74 18.37 48.74H17.76V55.19ZM21.8434 56V50.22H22.9134V51.04C23.1268 50.6867 23.3401 50.45 23.5534 50.33C23.7668 50.21 23.9801 50.15 24.1934 50.15C24.2201 50.15 24.2434 50.15 24.2634 50.15C24.2901 50.15 24.3234 50.1533 24.3634 50.16V51.34C24.2834 51.3067 24.1901 51.28 24.0834 51.26C23.9834 51.2333 23.8801 51.22 23.7734 51.22C23.6068 51.22 23.4534 51.26 23.3134 51.34C23.1801 51.4133 23.0468 51.56 22.9134 51.78V56H21.8434ZM26.0663 56.08C25.8397 56.08 25.6397 56.0167 25.4663 55.89C25.293 55.7567 25.1563 55.59 25.0563 55.39C24.9563 55.1833 24.9063 54.9667 24.9063 54.74C24.9063 54.38 24.9663 54.0767 25.0863 53.83C25.2063 53.5833 25.3697 53.3767 25.5763 53.21C25.7897 53.0367 26.033 52.8867 26.3063 52.76C26.5863 52.6333 26.8797 52.51 27.1863 52.39V51.98C27.1863 51.7467 27.173 51.5533 27.1463 51.4C27.1197 51.2467 27.063 51.1333 26.9763 51.06C26.8963 50.98 26.773 50.94 26.6063 50.94C26.4597 50.94 26.3397 50.9733 26.2463 51.04C26.1597 51.1067 26.0963 51.2033 26.0563 51.33C26.0163 51.45 25.9963 51.5933 25.9963 51.76V52.05L24.9363 52.01C24.9497 51.37 25.0963 50.9 25.3763 50.6C25.6563 50.2933 26.0897 50.14 26.6763 50.14C27.2497 50.14 27.6563 50.2967 27.8963 50.61C28.1363 50.9233 28.2563 51.3767 28.2563 51.97V54.61C28.2563 54.79 28.2597 54.9633 28.2663 55.13C28.2797 55.2967 28.293 55.4533 28.3063 55.6C28.3263 55.74 28.343 55.8733 28.3563 56H27.3763C27.3563 55.8933 27.3297 55.76 27.2963 55.6C27.2697 55.4333 27.2497 55.2833 27.2363 55.15C27.1697 55.3767 27.0397 55.59 26.8463 55.79C26.6597 55.9833 26.3997 56.08 26.0663 56.08ZM26.4863 55.16C26.593 55.16 26.693 55.13 26.7863 55.07C26.8797 55.01 26.963 54.9433 27.0363 54.87C27.1097 54.79 27.1597 54.7267 27.1863 54.68V53.04C27.0197 53.1333 26.863 53.2267 26.7163 53.32C26.5697 53.4133 26.4397 53.5133 26.3263 53.62C26.2197 53.72 26.133 53.8367 26.0663 53.97C26.0063 54.0967 25.9763 54.2433 25.9763 54.41C25.9763 54.6433 26.0197 54.8267 26.1063 54.96C26.193 55.0933 26.3197 55.16 26.4863 55.16ZM29.9541 56L29.0241 50.22H29.9041L30.5041 54.48L31.2741 50.22H32.0941L32.8641 54.46L33.4641 50.22H34.3441L33.3841 56H32.4841L31.6941 51.92L30.9141 56H29.9541ZM38.4882 56.08C38.2615 56.08 38.0615 56.0167 37.8882 55.89C37.7149 55.7567 37.5782 55.59 37.4782 55.39C37.3782 55.1833 37.3282 54.9667 37.3282 54.74C37.3282 54.38 37.3882 54.0767 37.5082 53.83C37.6282 53.5833 37.7915 53.3767 37.9982 53.21C38.2115 53.0367 38.4549 52.8867 38.7282 52.76C39.0082 52.6333 39.3015 52.51 39.6082 52.39V51.98C39.6082 51.7467 39.5949 51.5533 39.5682 51.4C39.5415 51.2467 39.4849 51.1333 39.3982 51.06C39.3182 50.98 39.1949 50.94 39.0282 50.94C38.8815 50.94 38.7615 50.9733 38.6682 51.04C38.5815 51.1067 38.5182 51.2033 38.4782 51.33C38.4382 51.45 38.4182 51.5933 38.4182 51.76V52.05L37.3582 52.01C37.3715 51.37 37.5182 50.9 37.7982 50.6C38.0782 50.2933 38.5115 50.14 39.0982 50.14C39.6715 50.14 40.0782 50.2967 40.3182 50.61C40.5582 50.9233 40.6782 51.3767 40.6782 51.97V54.61C40.6782 54.79 40.6815 54.9633 40.6882 55.13C40.7015 55.2967 40.7149 55.4533 40.7282 55.6C40.7482 55.74 40.7649 55.8733 40.7782 56H39.7982C39.7782 55.8933 39.7515 55.76 39.7182 55.6C39.6915 55.4333 39.6715 55.2833 39.6582 55.15C39.5915 55.3767 39.4615 55.59 39.2682 55.79C39.0815 55.9833 38.8215 56.08 38.4882 56.08ZM38.9082 55.16C39.0149 55.16 39.1149 55.13 39.2082 55.07C39.3015 55.01 39.3849 54.9433 39.4582 54.87C39.5315 54.79 39.5815 54.7267 39.6082 54.68V53.04C39.4415 53.1333 39.2849 53.2267 39.1382 53.32C38.9915 53.4133 38.8615 53.5133 38.7482 53.62C38.6415 53.72 38.5549 53.8367 38.4882 53.97C38.4282 54.0967 38.3982 54.2433 38.3982 54.41C38.3982 54.6433 38.4415 54.8267 38.5282 54.96C38.6149 55.0933 38.7415 55.16 38.9082 55.16ZM43.286 56.08C42.8127 56.08 42.4527 55.9867 42.206 55.8C41.966 55.6067 41.8027 55.3367 41.716 54.99C41.636 54.6433 41.596 54.24 41.596 53.78V52.45C41.596 51.9633 41.6393 51.55 41.726 51.21C41.8127 50.8633 41.976 50.6 42.216 50.42C42.4627 50.2333 42.8193 50.14 43.286 50.14C43.706 50.14 44.0293 50.21 44.256 50.35C44.4893 50.4833 44.6493 50.6867 44.736 50.96C44.8227 51.2267 44.866 51.56 44.866 51.96V52.3H43.896V51.95C43.896 51.6967 43.8793 51.4967 43.846 51.35C43.8127 51.2033 43.7527 51.0967 43.666 51.03C43.5793 50.9633 43.456 50.93 43.296 50.93C43.1227 50.93 42.9893 50.97 42.896 51.05C42.8027 51.13 42.7393 51.2667 42.706 51.46C42.6793 51.6467 42.666 51.9033 42.666 52.23V54.05C42.666 54.5433 42.7127 54.8733 42.806 55.04C42.8993 55.2067 43.066 55.29 43.306 55.29C43.486 55.29 43.616 55.25 43.696 55.17C43.7827 55.0833 43.836 54.9633 43.856 54.81C43.8827 54.6567 43.896 54.4833 43.896 54.29V53.82H44.866V54.22C44.866 54.6067 44.8193 54.94 44.726 55.22C44.6393 55.5 44.4793 55.7133 44.246 55.86C44.0193 56.0067 43.6993 56.08 43.286 56.08ZM47.3973 56.08C46.924 56.08 46.564 55.9867 46.3173 55.8C46.0773 55.6067 45.914 55.3367 45.8273 54.99C45.7473 54.6433 45.7073 54.24 45.7073 53.78V52.45C45.7073 51.9633 45.7507 51.55 45.8373 51.21C45.924 50.8633 46.0873 50.6 46.3273 50.42C46.574 50.2333 46.9307 50.14 47.3973 50.14C47.8173 50.14 48.1407 50.21 48.3673 50.35C48.6007 50.4833 48.7607 50.6867 48.8473 50.96C48.934 51.2267 48.9773 51.56 48.9773 51.96V52.3H48.0073V51.95C48.0073 51.6967 47.9907 51.4967 47.9573 51.35C47.924 51.2033 47.864 51.0967 47.7773 51.03C47.6907 50.9633 47.5673 50.93 47.4073 50.93C47.234 50.93 47.1007 50.97 47.0073 51.05C46.914 51.13 46.8507 51.2667 46.8173 51.46C46.7907 51.6467 46.7773 51.9033 46.7773 52.23V54.05C46.7773 54.5433 46.824 54.8733 46.9173 55.04C47.0107 55.2067 47.1773 55.29 47.4173 55.29C47.5973 55.29 47.7273 55.25 47.8073 55.17C47.894 55.0833 47.9473 54.9633 47.9673 54.81C47.994 54.6567 48.0073 54.4833 48.0073 54.29V53.82H48.9773V54.22C48.9773 54.6067 48.9307 54.94 48.8373 55.22C48.7507 55.5 48.5907 55.7133 48.3573 55.86C48.1307 56.0067 47.8107 56.08 47.3973 56.08ZM51.5187 56.08C51.092 56.08 50.7553 55.9933 50.5087 55.82C50.262 55.6467 50.0853 55.4 49.9787 55.08C49.8787 54.76 49.8287 54.3833 49.8287 53.95V52.27C49.8287 51.8367 49.8787 51.46 49.9787 51.14C50.0853 50.82 50.262 50.5733 50.5087 50.4C50.7553 50.2267 51.092 50.14 51.5187 50.14C51.9453 50.14 52.2787 50.2267 52.5187 50.4C52.7653 50.5733 52.9387 50.82 53.0387 51.14C53.1453 51.46 53.1987 51.8367 53.1987 52.27V53.95C53.1987 54.3833 53.1453 54.76 53.0387 55.08C52.9387 55.4 52.7653 55.6467 52.5187 55.82C52.2787 55.9933 51.9453 56.08 51.5187 56.08ZM51.5187 55.29C51.7253 55.29 51.8687 55.23 51.9487 55.11C52.0353 54.99 52.0853 54.8333 52.0987 54.64C52.1187 54.44 52.1287 54.2333 52.1287 54.02V52.21C52.1287 51.99 52.1187 51.7833 52.0987 51.59C52.0853 51.3967 52.0353 51.24 51.9487 51.12C51.8687 50.9933 51.7253 50.93 51.5187 50.93C51.312 50.93 51.1653 50.9933 51.0787 51.12C50.992 51.24 50.9387 51.3967 50.9187 51.59C50.9053 51.7833 50.8987 51.99 50.8987 52.21V54.02C50.8987 54.2333 50.9053 54.44 50.9187 54.64C50.9387 54.8333 50.992 54.99 51.0787 55.11C51.1653 55.23 51.312 55.29 51.5187 55.29ZM54.2067 56V50.22H55.2767V51.04C55.4901 50.6867 55.7034 50.45 55.9167 50.33C56.1301 50.21 56.3434 50.15 56.5567 50.15C56.5834 50.15 56.6067 50.15 56.6267 50.15C56.6534 50.15 56.6867 50.1533 56.7267 50.16V51.34C56.6467 51.3067 56.5534 51.28 56.4467 51.26C56.3467 51.2333 56.2434 51.22 56.1367 51.22C55.9701 51.22 55.8167 51.26 55.6767 51.34C55.5434 51.4133 55.4101 51.56 55.2767 51.78V56H54.2067ZM58.7296 56.08C58.2429 56.08 57.8796 55.9033 57.6396 55.55C57.3996 55.19 57.2796 54.5833 57.2796 53.73V52.61C57.2796 52.17 57.3163 51.7633 57.3896 51.39C57.4629 51.01 57.5996 50.7067 57.7996 50.48C58.0063 50.2533 58.3063 50.14 58.6996 50.14C58.8929 50.14 59.0696 50.1833 59.2296 50.27C59.3896 50.3567 59.5329 50.4633 59.6596 50.59V47.9H60.7296V56H59.6596V55.63C59.5329 55.7633 59.3929 55.8733 59.2396 55.96C59.0929 56.04 58.9229 56.08 58.7296 56.08ZM58.9996 55.24C59.0996 55.24 59.2063 55.2233 59.3196 55.19C59.4329 55.15 59.5463 55.0933 59.6596 55.02V51.23C59.5663 51.1633 59.4629 51.1067 59.3496 51.06C59.2363 51.0067 59.1129 50.98 58.9796 50.98C58.7329 50.98 58.5663 51.1 58.4796 51.34C58.3929 51.5733 58.3496 51.8567 58.3496 52.19V53.82C58.3496 54.0867 58.3629 54.33 58.3896 54.55C58.4229 54.7633 58.4863 54.9333 58.5796 55.06C58.6729 55.18 58.8129 55.24 58.9996 55.24ZM61.8834 56V50.22H62.9534V56H61.8834ZM61.8834 49.36V48.24H62.9534V49.36H61.8834ZM64.0986 56V50.22H65.1686V50.79C65.3619 50.61 65.5753 50.4567 65.8086 50.33C66.0419 50.2033 66.2986 50.14 66.5786 50.14C66.8119 50.14 66.9886 50.2 67.1086 50.32C67.2353 50.44 67.3219 50.59 67.3686 50.77C67.4219 50.95 67.4486 51.1333 67.4486 51.32V56H66.3786V51.63C66.3786 51.4233 66.3486 51.2633 66.2886 51.15C66.2286 51.0367 66.1053 50.98 65.9186 50.98C65.7986 50.98 65.6719 51.0167 65.5386 51.09C65.4119 51.1567 65.2886 51.24 65.1686 51.34V56H64.0986ZM69.9931 57.79C69.6465 57.79 69.3331 57.7533 69.0531 57.68C68.7731 57.6067 68.5531 57.49 68.3931 57.33C68.2331 57.17 68.1531 56.96 68.1531 56.7C68.1531 56.5133 68.1931 56.35 68.2731 56.21C68.3531 56.07 68.4565 55.95 68.5831 55.85C68.7098 55.7433 68.8431 55.6567 68.9831 55.59C68.7965 55.5367 68.6565 55.4533 68.5631 55.34C68.4698 55.22 68.4231 55.0967 68.4231 54.97C68.4231 54.7567 68.4798 54.5733 68.5931 54.42C68.7065 54.2667 68.8631 54.1 69.0631 53.92C68.8431 53.7533 68.6765 53.54 68.5631 53.28C68.4498 53.02 68.3931 52.66 68.3931 52.2C68.3931 51.7467 68.4531 51.37 68.5731 51.07C68.6998 50.7633 68.8831 50.5333 69.1231 50.38C69.3698 50.22 69.6698 50.14 70.0231 50.14C70.3365 50.14 70.5865 50.1933 70.7731 50.3C70.9665 50.4067 71.1131 50.5667 71.2131 50.78C71.2465 50.7267 71.3365 50.6367 71.4831 50.51C71.6298 50.3767 71.7998 50.2667 71.9931 50.18L72.1531 50.11L72.4231 50.8C72.3365 50.8133 72.2198 50.8467 72.0731 50.9C71.9331 50.9467 71.7998 50.9967 71.6731 51.05C71.5531 51.0967 71.4765 51.1367 71.4431 51.17C71.4898 51.2833 71.5298 51.4467 71.5631 51.66C71.6031 51.8733 71.6231 52.0633 71.6231 52.23C71.6231 52.6233 71.5731 52.97 71.4731 53.27C71.3731 53.57 71.2065 53.8067 70.9731 53.98C70.7465 54.1467 70.4298 54.23 70.0231 54.23C69.9365 54.23 69.8431 54.2233 69.7431 54.21C69.6431 54.1967 69.5531 54.18 69.4731 54.16C69.4331 54.22 69.3898 54.29 69.3431 54.37C69.3031 54.45 69.2831 54.5267 69.2831 54.6C69.2831 54.6733 69.3198 54.7333 69.3931 54.78C69.4731 54.82 69.5965 54.8467 69.7631 54.86L70.6631 54.94C71.1165 54.98 71.4531 55.1167 71.6731 55.35C71.8931 55.5833 72.0031 55.9167 72.0031 56.35C72.0031 56.6633 71.9298 56.9267 71.7831 57.14C71.6365 57.36 71.4131 57.5233 71.1131 57.63C70.8198 57.7367 70.4465 57.79 69.9931 57.79ZM70.0731 56.95C70.4531 56.95 70.7331 56.9033 70.9131 56.81C71.0931 56.7233 71.1831 56.58 71.1831 56.38C71.1831 56.26 71.1598 56.16 71.1131 56.08C71.0731 56 70.9965 55.9367 70.8831 55.89C70.7698 55.8433 70.6065 55.81 70.3931 55.79L69.4831 55.71C69.4098 55.7833 69.3398 55.8567 69.2731 55.93C69.2065 56.0033 69.1531 56.08 69.1131 56.16C69.0731 56.2467 69.0531 56.3367 69.0531 56.43C69.0531 56.6033 69.1265 56.7333 69.2731 56.82C69.4198 56.9067 69.6865 56.95 70.0731 56.95ZM70.0231 53.48C70.1765 53.48 70.2965 53.4533 70.3831 53.4C70.4765 53.34 70.5465 53.2567 70.5931 53.15C70.6398 53.0367 70.6698 52.9 70.6831 52.74C70.7031 52.58 70.7131 52.4 70.7131 52.2C70.7131 52 70.7031 51.82 70.6831 51.66C70.6698 51.4933 70.6398 51.3533 70.5931 51.24C70.5531 51.12 70.4865 51.03 70.3931 50.97C70.3065 50.91 70.1865 50.88 70.0331 50.88C69.8865 50.88 69.7631 50.91 69.6631 50.97C69.5698 51.03 69.4998 51.1167 69.4531 51.23C69.4065 51.3367 69.3731 51.4733 69.3531 51.64C69.3331 51.8 69.3231 51.9867 69.3231 52.2C69.3231 52.38 69.3298 52.55 69.3431 52.71C69.3631 52.8633 69.3965 52.9967 69.4431 53.11C69.4965 53.2233 69.5698 53.3133 69.6631 53.38C69.7565 53.4467 69.8765 53.48 70.0231 53.48ZM76.664 56.08C76.364 56.08 76.1207 56.0233 75.934 55.91C75.754 55.7967 75.6207 55.6367 75.534 55.43C75.454 55.2233 75.414 54.98 75.414 54.7V50.93H74.804V50.22H75.414V48.53H76.484V50.22H77.414V50.93H76.484V54.63C76.484 54.8567 76.5207 55.02 76.594 55.12C76.6673 55.2133 76.8073 55.26 77.014 55.26C77.0673 55.26 77.1273 55.2567 77.194 55.25C77.2673 55.2433 77.3373 55.2367 77.404 55.23V56.02C77.2707 56.04 77.1473 56.0533 77.034 56.06C76.9207 56.0733 76.7973 56.08 76.664 56.08ZM79.7902 56.08C79.3635 56.08 79.0268 55.9933 78.7802 55.82C78.5335 55.6467 78.3568 55.4 78.2502 55.08C78.1502 54.76 78.1002 54.3833 78.1002 53.95V52.27C78.1002 51.8367 78.1502 51.46 78.2502 51.14C78.3568 50.82 78.5335 50.5733 78.7802 50.4C79.0268 50.2267 79.3635 50.14 79.7902 50.14C80.2168 50.14 80.5502 50.2267 80.7902 50.4C81.0368 50.5733 81.2102 50.82 81.3102 51.14C81.4168 51.46 81.4702 51.8367 81.4702 52.27V53.95C81.4702 54.3833 81.4168 54.76 81.3102 55.08C81.2102 55.4 81.0368 55.6467 80.7902 55.82C80.5502 55.9933 80.2168 56.08 79.7902 56.08ZM79.7902 55.29C79.9968 55.29 80.1402 55.23 80.2202 55.11C80.3068 54.99 80.3568 54.8333 80.3702 54.64C80.3902 54.44 80.4002 54.2333 80.4002 54.02V52.21C80.4002 51.99 80.3902 51.7833 80.3702 51.59C80.3568 51.3967 80.3068 51.24 80.2202 51.12C80.1402 50.9933 79.9968 50.93 79.7902 50.93C79.5835 50.93 79.4368 50.9933 79.3502 51.12C79.2635 51.24 79.2102 51.3967 79.1902 51.59C79.1768 51.7833 79.1702 51.99 79.1702 52.21V54.02C79.1702 54.2333 79.1768 54.44 79.1902 54.64C79.2102 54.8333 79.2635 54.99 79.3502 55.11C79.4368 55.23 79.5835 55.29 79.7902 55.29ZM86.2734 56.08C85.9734 56.08 85.73 56.0233 85.5434 55.91C85.3634 55.7967 85.23 55.6367 85.1434 55.43C85.0634 55.2233 85.0234 54.98 85.0234 54.7V50.93H84.4134V50.22H85.0234V48.53H86.0934V50.22H87.0234V50.93H86.0934V54.63C86.0934 54.8567 86.13 55.02 86.2034 55.12C86.2767 55.2133 86.4167 55.26 86.6234 55.26C86.6767 55.26 86.7367 55.2567 86.8034 55.25C86.8767 55.2433 86.9467 55.2367 87.0134 55.23V56.02C86.88 56.04 86.7567 56.0533 86.6434 56.06C86.53 56.0733 86.4067 56.08 86.2734 56.08ZM87.8395 56V47.9H88.9095V50.82C89.1029 50.6333 89.3195 50.4733 89.5595 50.34C89.7995 50.2067 90.0662 50.14 90.3595 50.14C90.5862 50.14 90.7595 50.2 90.8795 50.32C91.0062 50.44 91.0929 50.59 91.1395 50.77C91.1929 50.95 91.2195 51.1333 91.2195 51.32V56H90.1495V51.63C90.1495 51.4233 90.1195 51.2633 90.0595 51.15C89.9995 51.0367 89.8762 50.98 89.6895 50.98C89.5629 50.98 89.4295 51.0167 89.2895 51.09C89.1562 51.1633 89.0295 51.2533 88.9095 51.36V56H87.8395ZM93.8627 56.08C93.4093 56.08 93.0593 55.9933 92.8127 55.82C92.566 55.64 92.3927 55.38 92.2927 55.04C92.1993 54.6933 92.1527 54.27 92.1527 53.77V52.45C92.1527 51.9367 92.2027 51.51 92.3027 51.17C92.4027 50.83 92.576 50.5733 92.8227 50.4C93.076 50.2267 93.4227 50.14 93.8627 50.14C94.3493 50.14 94.706 50.24 94.9327 50.44C95.166 50.64 95.3193 50.93 95.3927 51.31C95.466 51.6833 95.5027 52.1333 95.5027 52.66V53.13H93.2227V54.29C93.2227 54.5233 93.2427 54.7133 93.2827 54.86C93.3293 55.0067 93.3993 55.1167 93.4927 55.19C93.5927 55.2567 93.7193 55.29 93.8727 55.29C94.0327 55.29 94.1527 55.2533 94.2327 55.18C94.3193 55.1 94.376 54.99 94.4027 54.85C94.436 54.7033 94.4527 54.5333 94.4527 54.34V53.99H95.4927V54.21C95.4927 54.79 95.3693 55.2467 95.1227 55.58C94.876 55.9133 94.456 56.08 93.8627 56.08ZM93.2227 52.55H94.4527V52.03C94.4527 51.79 94.4393 51.59 94.4127 51.43C94.386 51.2633 94.3293 51.14 94.2427 51.06C94.1627 50.9733 94.0327 50.93 93.8527 50.93C93.6793 50.93 93.546 50.97 93.4527 51.05C93.366 51.13 93.306 51.2667 93.2727 51.46C93.2393 51.6467 93.2227 51.9067 93.2227 52.24V52.55ZM100.647 56.08C100.16 56.08 99.7735 55.9867 99.4868 55.8C99.2001 55.6133 98.9935 55.3433 98.8668 54.99C98.7468 54.6367 98.6868 54.2167 98.6868 53.73H99.7568C99.7568 53.97 99.7768 54.2067 99.8168 54.44C99.8568 54.6667 99.9401 54.8567 100.067 55.01C100.2 55.1567 100.4 55.23 100.667 55.23C100.96 55.23 101.17 55.1467 101.297 54.98C101.423 54.8067 101.503 54.5767 101.537 54.29C101.57 53.9967 101.587 53.6667 101.587 53.3C101.587 52.9333 101.567 52.6233 101.527 52.37C101.487 52.11 101.403 51.9133 101.277 51.78C101.15 51.64 100.95 51.57 100.677 51.57C100.457 51.57 100.27 51.64 100.117 51.78C99.9635 51.9133 99.8501 52.0667 99.7768 52.24H98.8668V47.9H102.357V48.97H99.8368L99.7668 51.21C99.9001 51.07 100.063 50.96 100.257 50.88C100.457 50.8 100.683 50.76 100.937 50.76C101.377 50.76 101.72 50.8633 101.967 51.07C102.22 51.2767 102.397 51.56 102.497 51.92C102.603 52.28 102.657 52.6933 102.657 53.16C102.657 53.5733 102.627 53.96 102.567 54.32C102.507 54.6733 102.4 54.9833 102.247 55.25C102.1 55.51 101.897 55.7133 101.637 55.86C101.377 56.0067 101.047 56.08 100.647 56.08ZM105.563 56.09C105.103 56.09 104.723 55.9867 104.423 55.78C104.129 55.5733 103.909 55.29 103.763 54.93C103.623 54.57 103.553 54.16 103.553 53.7V50.21C103.553 49.7367 103.623 49.3233 103.763 48.97C103.903 48.61 104.119 48.33 104.413 48.13C104.713 47.93 105.096 47.83 105.563 47.83C106.029 47.83 106.409 47.93 106.703 48.13C106.996 48.33 107.213 48.61 107.353 48.97C107.493 49.3233 107.563 49.7367 107.563 50.21V53.7C107.563 54.1667 107.489 54.58 107.343 54.94C107.203 55.3 106.986 55.5833 106.693 55.79C106.399 55.99 106.023 56.09 105.563 56.09ZM105.563 55.21C105.816 55.21 106.006 55.1367 106.133 54.99C106.266 54.8433 106.356 54.6567 106.403 54.43C106.456 54.1967 106.483 53.9567 106.483 53.71V50.2C106.483 49.94 106.459 49.6967 106.413 49.47C106.366 49.2367 106.276 49.05 106.143 48.91C106.016 48.77 105.823 48.7 105.563 48.7C105.303 48.7 105.106 48.77 104.973 48.91C104.839 49.05 104.749 49.2367 104.703 49.47C104.656 49.6967 104.633 49.94 104.633 50.2V53.71C104.633 53.9567 104.656 54.1967 104.703 54.43C104.756 54.6567 104.849 54.8433 104.983 54.99C105.123 55.1367 105.316 55.21 105.563 55.21ZM108.629 53.39V52.58H110.859V53.39H108.629ZM111.892 56V50.22H112.882V50.77C113.075 50.55 113.288 50.3867 113.522 50.28C113.755 50.1733 113.995 50.12 114.242 50.12C114.455 50.12 114.645 50.1733 114.812 50.28C114.985 50.3867 115.108 50.5767 115.182 50.85C115.388 50.5967 115.612 50.4133 115.852 50.3C116.098 50.18 116.355 50.12 116.622 50.12C116.808 50.12 116.978 50.1667 117.132 50.26C117.285 50.3467 117.408 50.49 117.502 50.69C117.595 50.8833 117.642 51.14 117.642 51.46V56H116.662V51.53C116.662 51.25 116.615 51.0633 116.522 50.97C116.435 50.87 116.315 50.82 116.162 50.82C116.015 50.82 115.862 50.8633 115.702 50.95C115.542 51.03 115.395 51.1433 115.262 51.29C115.262 51.3167 115.262 51.3433 115.262 51.37C115.262 51.3967 115.262 51.4267 115.262 51.46V56H114.282V51.53C114.282 51.25 114.235 51.0633 114.142 50.97C114.055 50.87 113.935 50.82 113.782 50.82C113.635 50.82 113.482 50.8633 113.322 50.95C113.168 51.03 113.022 51.1433 112.882 51.29V56H111.892ZM120.278 56.08C119.852 56.08 119.515 55.9933 119.268 55.82C119.022 55.6467 118.845 55.4 118.738 55.08C118.638 54.76 118.588 54.3833 118.588 53.95V52.27C118.588 51.8367 118.638 51.46 118.738 51.14C118.845 50.82 119.022 50.5733 119.268 50.4C119.515 50.2267 119.852 50.14 120.278 50.14C120.705 50.14 121.038 50.2267 121.278 50.4C121.525 50.5733 121.698 50.82 121.798 51.14C121.905 51.46 121.958 51.8367 121.958 52.27V53.95C121.958 54.3833 121.905 54.76 121.798 55.08C121.698 55.4 121.525 55.6467 121.278 55.82C121.038 55.9933 120.705 56.08 120.278 56.08ZM120.278 55.29C120.485 55.29 120.628 55.23 120.708 55.11C120.795 54.99 120.845 54.8333 120.858 54.64C120.878 54.44 120.888 54.2333 120.888 54.02V52.21C120.888 51.99 120.878 51.7833 120.858 51.59C120.845 51.3967 120.795 51.24 120.708 51.12C120.628 50.9933 120.485 50.93 120.278 50.93C120.072 50.93 119.925 50.9933 119.838 51.12C119.752 51.24 119.698 51.3967 119.678 51.59C119.665 51.7833 119.658 51.99 119.658 52.21V54.02C119.658 54.2333 119.665 54.44 119.678 54.64C119.698 54.8333 119.752 54.99 119.838 55.11C119.925 55.23 120.072 55.29 120.278 55.29ZM123.686 56L122.546 50.22H123.626L124.336 54.87L125.056 50.22H126.096L124.996 56H123.686ZM128.384 56.08C127.931 56.08 127.581 55.9933 127.334 55.82C127.087 55.64 126.914 55.38 126.814 55.04C126.721 54.6933 126.674 54.27 126.674 53.77V52.45C126.674 51.9367 126.724 51.51 126.824 51.17C126.924 50.83 127.097 50.5733 127.344 50.4C127.597 50.2267 127.944 50.14 128.384 50.14C128.871 50.14 129.227 50.24 129.454 50.44C129.687 50.64 129.841 50.93 129.914 51.31C129.987 51.6833 130.024 52.1333 130.024 52.66V53.13H127.744V54.29C127.744 54.5233 127.764 54.7133 127.804 54.86C127.851 55.0067 127.921 55.1167 128.014 55.19C128.114 55.2567 128.241 55.29 128.394 55.29C128.554 55.29 128.674 55.2533 128.754 55.18C128.841 55.1 128.897 54.99 128.924 54.85C128.957 54.7033 128.974 54.5333 128.974 54.34V53.99H130.014V54.21C130.014 54.79 129.891 55.2467 129.644 55.58C129.397 55.9133 128.977 56.08 128.384 56.08ZM127.744 52.55H128.974V52.03C128.974 51.79 128.961 51.59 128.934 51.43C128.907 51.2633 128.851 51.14 128.764 51.06C128.684 50.9733 128.554 50.93 128.374 50.93C128.201 50.93 128.067 50.97 127.974 51.05C127.887 51.13 127.827 51.2667 127.794 51.46C127.761 51.6467 127.744 51.9067 127.744 52.24V52.55ZM133.308 56V50.22H134.378V51.04C134.592 50.6867 134.805 50.45 135.018 50.33C135.232 50.21 135.445 50.15 135.658 50.15C135.685 50.15 135.708 50.15 135.728 50.15C135.755 50.15 135.788 50.1533 135.828 50.16V51.34C135.748 51.3067 135.655 51.28 135.548 51.26C135.448 51.2333 135.345 51.22 135.238 51.22C135.072 51.22 134.918 51.26 134.778 51.34C134.645 51.4133 134.512 51.56 134.378 51.78V56H133.308ZM137.321 56.08C137.095 56.08 136.918 56.02 136.791 55.9C136.665 55.78 136.575 55.63 136.521 55.45C136.475 55.27 136.451 55.0867 136.451 54.9V50.22H137.521V54.58C137.521 54.7867 137.551 54.95 137.611 55.07C137.671 55.1833 137.795 55.24 137.981 55.24C138.101 55.24 138.225 55.2067 138.351 55.14C138.485 55.0667 138.611 54.98 138.731 54.88V50.22H139.801V56H138.731V55.43C138.545 55.61 138.331 55.7633 138.091 55.89C137.858 56.0167 137.601 56.08 137.321 56.08ZM140.995 56V47.9H142.065V56H140.995ZM144.781 56.08C144.327 56.08 143.977 55.9933 143.731 55.82C143.484 55.64 143.311 55.38 143.211 55.04C143.117 54.6933 143.071 54.27 143.071 53.77V52.45C143.071 51.9367 143.121 51.51 143.221 51.17C143.321 50.83 143.494 50.5733 143.741 50.4C143.994 50.2267 144.341 50.14 144.781 50.14C145.267 50.14 145.624 50.24 145.851 50.44C146.084 50.64 146.237 50.93 146.311 51.31C146.384 51.6833 146.421 52.1333 146.421 52.66V53.13H144.141V54.29C144.141 54.5233 144.161 54.7133 144.201 54.86C144.247 55.0067 144.317 55.1167 144.411 55.19C144.511 55.2567 144.637 55.29 144.791 55.29C144.951 55.29 145.071 55.2533 145.151 55.18C145.237 55.1 145.294 54.99 145.321 54.85C145.354 54.7033 145.371 54.5333 145.371 54.34V53.99H146.411V54.21C146.411 54.79 146.287 55.2467 146.041 55.58C145.794 55.9133 145.374 56.08 144.781 56.08ZM144.141 52.55H145.371V52.03C145.371 51.79 145.357 51.59 145.331 51.43C145.304 51.2633 145.247 51.14 145.161 51.06C145.081 50.9733 144.951 50.93 144.771 50.93C144.597 50.93 144.464 50.97 144.371 51.05C144.284 51.13 144.224 51.2667 144.191 51.46C144.157 51.6467 144.141 51.9067 144.141 52.24V52.55Z"></path>
</svg>
