<svg xmlns="http://www.w3.org/2000/svg" fill="none" viewBox="0 0 13 18" height="18" width="13">
<rect fill-opacity="0.01" fill="#0D0E12" height="18" width="13"></rect>
<path fill="white" d="M3.132 14.144C2.508 14.144 2.016 14.048 1.656 13.856C1.296 13.664 1.04 13.384 0.888 13.016C0.736 12.64 0.66 12.18 0.66 11.636C0.66 11.612 0.66 11.588 0.66 11.564C0.66 11.532 0.66 11.504 0.66 11.48H2.532C2.532 11.872 2.564 12.164 2.628 12.356C2.7 12.54 2.872 12.632 3.144 12.632C3.328 12.632 3.464 12.576 3.552 12.464C3.64 12.352 3.696 12.156 3.72 11.876C3.752 11.588 3.768 11.196 3.768 10.7V9.836C3.664 10.004 3.504 10.132 3.288 10.22C3.08 10.308 2.844 10.36 2.58 10.376C2.068 10.384 1.656 10.256 1.344 9.992C1.032 9.728 0.808 9.372 0.672 8.924C0.536 8.476 0.468 7.988 0.468 7.46C0.468 6.78 0.552 6.196 0.72 5.708C0.896 5.212 1.18 4.828 1.572 4.556C1.964 4.284 2.484 4.148 3.132 4.148C3.772 4.148 4.288 4.276 4.68 4.532C5.072 4.788 5.356 5.148 5.532 5.612C5.716 6.068 5.808 6.608 5.808 7.232V10.856C5.808 11.488 5.732 12.052 5.58 12.548C5.436 13.044 5.172 13.436 4.788 13.724C4.404 14.004 3.852 14.144 3.132 14.144ZM3.156 8.84C3.316 8.84 3.444 8.796 3.54 8.708C3.636 8.62 3.712 8.536 3.768 8.456V6.872C3.768 6.648 3.752 6.444 3.72 6.26C3.688 6.068 3.628 5.916 3.54 5.804C3.452 5.684 3.316 5.624 3.132 5.624C2.956 5.624 2.824 5.688 2.736 5.816C2.648 5.936 2.588 6.12 2.556 6.368C2.532 6.608 2.52 6.908 2.52 7.268C2.52 7.58 2.528 7.856 2.544 8.096C2.568 8.328 2.624 8.512 2.712 8.648C2.8 8.776 2.948 8.84 3.156 8.84ZM7.00266 14L9.11466 5.804H6.46266V4.28H11.0707V5.66L8.95866 14H7.00266Z"></path>
</svg>
