<svg xmlns="http://www.w3.org/2000/svg" fill="none" viewBox="0 0 480 360" height="360" width="480">
<rect fill-opacity="0.01" fill="white" height="360" width="480"></rect>
<rect fill-opacity="0.8" fill="#0D0E12" height="304" width="304" y="40" x="18"></rect>
<path fill="white" d="M109.175 174V164.28H111.635C112.483 164.28 113.143 164.388 113.615 164.604C114.087 164.812 114.419 165.144 114.611 165.6C114.803 166.048 114.899 166.632 114.899 167.352V170.88C114.899 171.608 114.803 172.204 114.611 172.668C114.419 173.124 114.087 173.46 113.615 173.676C113.151 173.892 112.499 174 111.659 174H109.175ZM111.323 172.512H111.659C111.987 172.512 112.223 172.464 112.367 172.368C112.511 172.272 112.599 172.128 112.631 171.936C112.671 171.744 112.691 171.504 112.691 171.216V166.98C112.691 166.692 112.667 166.46 112.619 166.284C112.579 166.108 112.487 165.98 112.343 165.9C112.199 165.82 111.967 165.78 111.647 165.78H111.323V172.512ZM118.99 174.144C118.262 174.144 117.686 174.016 117.262 173.76C116.838 173.504 116.534 173.136 116.35 172.656C116.166 172.176 116.074 171.604 116.074 170.94V167.328C116.074 166.656 116.166 166.084 116.35 165.612C116.534 165.14 116.838 164.78 117.262 164.532C117.686 164.276 118.262 164.148 118.99 164.148C119.726 164.148 120.306 164.276 120.73 164.532C121.162 164.78 121.47 165.14 121.654 165.612C121.838 166.084 121.93 166.656 121.93 167.328V170.94C121.93 171.604 121.838 172.176 121.654 172.656C121.47 173.136 121.162 173.504 120.73 173.76C120.306 174.016 119.726 174.144 118.99 174.144ZM118.99 172.62C119.214 172.62 119.378 172.564 119.482 172.452C119.586 172.34 119.654 172.196 119.686 172.02C119.718 171.844 119.734 171.664 119.734 171.48V166.8C119.734 166.608 119.718 166.428 119.686 166.26C119.654 166.084 119.586 165.94 119.482 165.828C119.378 165.716 119.214 165.66 118.99 165.66C118.782 165.66 118.626 165.716 118.522 165.828C118.418 165.94 118.35 166.084 118.318 166.26C118.286 166.428 118.27 166.608 118.27 166.8V171.48C118.27 171.664 118.282 171.844 118.306 172.02C118.338 172.196 118.402 172.34 118.498 172.452C118.602 172.564 118.766 172.62 118.99 172.62ZM127.532 174V170.028L125.684 164.28H127.712L128.636 167.352L129.464 164.28H131.408L129.596 170.028V174H127.532ZM134.822 174.144C134.094 174.144 133.518 174.016 133.094 173.76C132.67 173.504 132.366 173.136 132.182 172.656C131.998 172.176 131.906 171.604 131.906 170.94V167.328C131.906 166.656 131.998 166.084 132.182 165.612C132.366 165.14 132.67 164.78 133.094 164.532C133.518 164.276 134.094 164.148 134.822 164.148C135.558 164.148 136.138 164.276 136.562 164.532C136.994 164.78 137.302 165.14 137.486 165.612C137.67 166.084 137.762 166.656 137.762 167.328V170.94C137.762 171.604 137.67 172.176 137.486 172.656C137.302 173.136 136.994 173.504 136.562 173.76C136.138 174.016 135.558 174.144 134.822 174.144ZM134.822 172.62C135.046 172.62 135.21 172.564 135.314 172.452C135.418 172.34 135.486 172.196 135.518 172.02C135.55 171.844 135.566 171.664 135.566 171.48V166.8C135.566 166.608 135.55 166.428 135.518 166.26C135.486 166.084 135.418 165.94 135.314 165.828C135.21 165.716 135.046 165.66 134.822 165.66C134.614 165.66 134.458 165.716 134.354 165.828C134.25 165.94 134.182 166.084 134.15 166.26C134.118 166.428 134.102 166.608 134.102 166.8V171.48C134.102 171.664 134.114 171.844 134.138 172.02C134.17 172.196 134.234 172.34 134.33 172.452C134.434 172.564 134.598 172.62 134.822 172.62ZM141.878 174.144C141.134 174.144 140.55 174.024 140.126 173.784C139.71 173.536 139.418 173.18 139.25 172.716C139.082 172.244 138.998 171.668 138.998 170.988V164.28H141.122V171.312C141.122 171.512 141.138 171.712 141.17 171.912C141.202 172.112 141.27 172.276 141.374 172.404C141.486 172.532 141.654 172.596 141.878 172.596C142.11 172.596 142.278 172.532 142.382 172.404C142.486 172.276 142.55 172.112 142.574 171.912C142.606 171.712 142.622 171.512 142.622 171.312V164.28H144.758V170.988C144.758 171.668 144.67 172.244 144.494 172.716C144.326 173.18 144.034 173.536 143.618 173.784C143.202 174.024 142.622 174.144 141.878 174.144ZM149.975 174L148.799 164.28H150.623L151.199 169.944L151.931 164.292H153.359L154.127 169.908L154.715 164.28H156.515L155.351 174H153.479L152.651 168.132L151.871 174H149.975ZM156.836 174L158.672 164.28H161.12L162.932 174H160.952L160.628 171.948H159.2L158.864 174H156.836ZM159.392 170.664H160.424L159.908 166.872L159.392 170.664ZM163.913 174V164.28H165.425L167.417 168.96V164.28H169.193V174H167.741L165.749 168.96V174H163.913ZM171.516 174V165.876H170.052V164.28H175.128V165.876H173.676V174H171.516ZM179.93 174V165.876H178.466V164.28H183.542V165.876H182.09V174H179.93ZM187.088 174.144C186.36 174.144 185.784 174.016 185.36 173.76C184.936 173.504 184.632 173.136 184.448 172.656C184.264 172.176 184.172 171.604 184.172 170.94V167.328C184.172 166.656 184.264 166.084 184.448 165.612C184.632 165.14 184.936 164.78 185.36 164.532C185.784 164.276 186.36 164.148 187.088 164.148C187.824 164.148 188.404 164.276 188.828 164.532C189.26 164.78 189.568 165.14 189.752 165.612C189.936 166.084 190.028 166.656 190.028 167.328V170.94C190.028 171.604 189.936 172.176 189.752 172.656C189.568 173.136 189.26 173.504 188.828 173.76C188.404 174.016 187.824 174.144 187.088 174.144ZM187.088 172.62C187.312 172.62 187.476 172.564 187.58 172.452C187.684 172.34 187.752 172.196 187.784 172.02C187.816 171.844 187.832 171.664 187.832 171.48V166.8C187.832 166.608 187.816 166.428 187.784 166.26C187.752 166.084 187.684 165.94 187.58 165.828C187.476 165.716 187.312 165.66 187.088 165.66C186.88 165.66 186.724 165.716 186.62 165.828C186.516 165.94 186.448 166.084 186.416 166.26C186.384 166.428 186.368 166.608 186.368 166.8V171.48C186.368 171.664 186.38 171.844 186.404 172.02C186.436 172.196 186.5 172.34 186.596 172.452C186.7 172.564 186.864 172.62 187.088 172.62ZM194.406 174V164.28H197.082C197.738 164.28 198.306 164.352 198.786 164.496C199.266 164.64 199.638 164.9 199.902 165.276C200.174 165.644 200.31 166.168 200.31 166.848C200.31 167.248 200.278 167.604 200.214 167.916C200.15 168.228 200.03 168.5 199.854 168.732C199.686 168.956 199.442 169.144 199.122 169.296L200.454 174H198.234L197.166 169.644H196.554V174H194.406ZM196.554 168.408H197.154C197.458 168.408 197.694 168.356 197.862 168.252C198.03 168.14 198.146 167.984 198.21 167.784C198.282 167.576 198.318 167.328 198.318 167.04C198.318 166.624 198.242 166.3 198.09 166.068C197.938 165.836 197.658 165.72 197.25 165.72H196.554V168.408ZM201.601 174V164.28H205.969V165.744H203.749V168.156H205.441V169.644H203.749V172.548H205.993V174H201.601ZM209.548 174.144C208.94 174.144 208.432 174.036 208.024 173.82C207.616 173.604 207.308 173.272 207.1 172.824C206.892 172.368 206.776 171.78 206.752 171.06L208.588 170.784C208.596 171.2 208.632 171.536 208.696 171.792C208.768 172.048 208.864 172.232 208.984 172.344C209.112 172.456 209.264 172.512 209.44 172.512C209.664 172.512 209.808 172.436 209.872 172.284C209.944 172.132 209.98 171.972 209.98 171.804C209.98 171.404 209.884 171.068 209.692 170.796C209.5 170.516 209.24 170.236 208.912 169.956L208.072 169.224C207.704 168.912 207.392 168.56 207.136 168.168C206.888 167.768 206.764 167.276 206.764 166.692C206.764 165.868 207.008 165.24 207.496 164.808C207.984 164.368 208.648 164.148 209.488 164.148C210.008 164.148 210.424 164.236 210.736 164.412C211.056 164.588 211.296 164.82 211.456 165.108C211.624 165.388 211.736 165.688 211.792 166.008C211.856 166.32 211.892 166.62 211.9 166.908L210.052 167.136C210.044 166.848 210.024 166.6 209.992 166.392C209.968 166.176 209.912 166.012 209.824 165.9C209.736 165.78 209.6 165.72 209.416 165.72C209.216 165.72 209.068 165.804 208.972 165.972C208.884 166.14 208.84 166.308 208.84 166.476C208.84 166.836 208.924 167.132 209.092 167.364C209.268 167.588 209.496 167.824 209.776 168.072L210.58 168.78C211.004 169.14 211.36 169.548 211.648 170.004C211.944 170.46 212.092 171.024 212.092 171.696C212.092 172.152 211.988 172.568 211.78 172.944C211.572 173.312 211.276 173.604 210.892 173.82C210.516 174.036 210.068 174.144 209.548 174.144ZM213.144 174V164.28H215.292V174H213.144ZM219.273 174.144C218.601 174.144 218.069 174.004 217.677 173.724C217.293 173.444 217.017 173.052 216.849 172.548C216.689 172.036 216.609 171.448 216.609 170.784V167.52C216.609 166.832 216.697 166.236 216.873 165.732C217.049 165.228 217.349 164.84 217.773 164.568C218.205 164.288 218.789 164.148 219.525 164.148C220.245 164.148 220.809 164.268 221.217 164.508C221.633 164.748 221.929 165.08 222.105 165.504C222.281 165.928 222.369 166.424 222.369 166.992V167.616H220.269V166.824C220.269 166.616 220.253 166.424 220.221 166.248C220.197 166.072 220.133 165.932 220.029 165.828C219.933 165.716 219.773 165.66 219.549 165.66C219.317 165.66 219.149 165.724 219.045 165.852C218.941 165.972 218.873 166.124 218.841 166.308C218.817 166.492 218.805 166.684 218.805 166.884V171.384C218.805 171.6 218.825 171.804 218.865 171.996C218.913 172.18 218.993 172.332 219.105 172.452C219.225 172.564 219.393 172.62 219.609 172.62C219.833 172.62 220.005 172.56 220.125 172.44C220.245 172.32 220.329 172.164 220.377 171.972C220.425 171.78 220.449 171.576 220.449 171.36V170.22H219.573V168.96H222.381V174H220.965L220.845 173.196C220.717 173.468 220.529 173.696 220.281 173.88C220.033 174.056 219.697 174.144 219.273 174.144ZM223.726 174V164.28H225.238L227.23 168.96V164.28H229.006V174H227.554L225.562 168.96V174H223.726ZM231.28 171.444V169.896C231.64 169.616 231.964 169.304 232.252 168.96C232.54 168.616 232.768 168.252 232.936 167.868C233.104 167.476 233.188 167.072 233.188 166.656C233.188 166.36 233.132 166.148 233.02 166.02C232.916 165.884 232.76 165.816 232.552 165.816C232.36 165.816 232.208 165.872 232.096 165.984C231.992 166.096 231.94 166.252 231.94 166.452C231.94 166.58 231.952 166.696 231.976 166.8C232.008 166.896 232.044 167 232.084 167.112L230.32 167.52C230.256 167.328 230.204 167.144 230.164 166.968C230.132 166.784 230.116 166.592 230.116 166.392C230.116 165.688 230.328 165.14 230.752 164.748C231.184 164.348 231.8 164.148 232.6 164.148C233.408 164.148 234.028 164.36 234.46 164.784C234.9 165.208 235.12 165.812 235.12 166.596C235.12 167.076 235.04 167.532 234.88 167.964C234.72 168.396 234.484 168.804 234.172 169.188C233.868 169.572 233.496 169.932 233.056 170.268V171.444H231.28ZM231.22 174V172.14H233.128V174H231.22Z"></path>
</svg>
