<svg xmlns="http://www.w3.org/2000/svg" fill="none" viewBox="0 0 13 18" height="18" width="13">
<rect fill-opacity="0.01" fill="#0D0E12" height="18" width="13"></rect>
<path fill="white" d="M0.78 14L2.892 5.804H0.24V4.28H4.848V5.66L2.736 14H0.78ZM8.40544 14.144C7.78144 14.144 7.28944 14.048 6.92944 13.856C6.56944 13.664 6.31344 13.384 6.16144 13.016C6.00944 12.64 5.93344 12.18 5.93344 11.636C5.93344 11.612 5.93344 11.588 5.93344 11.564C5.93344 11.532 5.93344 11.504 5.93344 11.48H7.80544C7.80544 11.872 7.83744 12.164 7.90144 12.356C7.97344 12.54 8.14544 12.632 8.41744 12.632C8.60144 12.632 8.73744 12.576 8.82544 12.464C8.91344 12.352 8.96944 12.156 8.99344 11.876C9.02544 11.588 9.04144 11.196 9.04144 10.7V9.836C8.93744 10.004 8.77744 10.132 8.56144 10.22C8.35344 10.308 8.11744 10.36 7.85344 10.376C7.34144 10.384 6.92944 10.256 6.61744 9.992C6.30544 9.728 6.08144 9.372 5.94544 8.924C5.80944 8.476 5.74144 7.988 5.74144 7.46C5.74144 6.78 5.82544 6.196 5.99344 5.708C6.16944 5.212 6.45344 4.828 6.84544 4.556C7.23744 4.284 7.75744 4.148 8.40544 4.148C9.04544 4.148 9.56144 4.276 9.95344 4.532C10.3454 4.788 10.6294 5.148 10.8054 5.612C10.9894 6.068 11.0814 6.608 11.0814 7.232V10.856C11.0814 11.488 11.0054 12.052 10.8534 12.548C10.7094 13.044 10.4454 13.436 10.0614 13.724C9.67744 14.004 9.12544 14.144 8.40544 14.144ZM8.42944 8.84C8.58944 8.84 8.71744 8.796 8.81344 8.708C8.90944 8.62 8.98544 8.536 9.04144 8.456V6.872C9.04144 6.648 9.02544 6.444 8.99344 6.26C8.96144 6.068 8.90144 5.916 8.81344 5.804C8.72544 5.684 8.58944 5.624 8.40544 5.624C8.22944 5.624 8.09744 5.688 8.00944 5.816C7.92144 5.936 7.86144 6.12 7.82944 6.368C7.80544 6.608 7.79344 6.908 7.79344 7.268C7.79344 7.58 7.80144 7.856 7.81744 8.096C7.84144 8.328 7.89744 8.512 7.98544 8.648C8.07344 8.776 8.22144 8.84 8.42944 8.84Z"></path>
</svg>
