<svg xmlns="http://www.w3.org/2000/svg" fill="none" viewBox="0 0 214 84" height="84" width="214">
<mask fill="white" id="path-1-inside-1_1613_22">
<path d="M0 0H214V84H0V0Z"></path>
</mask>
<path fill="#0D0E12" d="M0 0H214V84H0V0Z"></path>
<path mask="url(#path-1-inside-1_1613_22)" fill="white" d="M0 0V-1H-1V0H0ZM0 84H-1V85H0V84ZM0 1H214V-1H0V1ZM214 83H0V85H214V83ZM1 84V0H-1V84H1Z"></path>
<path fill="white" d="M16.684 38L16.852 28.28H19.156L20.224 33.932L21.376 28.28H23.596L23.764 38H22.24L22.06 31.532L20.932 38H19.576L18.376 31.484L18.232 38H16.684ZM25.1692 38V28.28H29.5372V29.744H27.3172V32.156H29.0092V33.644H27.3172V36.548H29.5612V38H25.1692ZM33.1164 38.144C32.5084 38.144 32.0004 38.036 31.5924 37.82C31.1844 37.604 30.8764 37.272 30.6684 36.824C30.4604 36.368 30.3444 35.78 30.3204 35.06L32.1564 34.784C32.1644 35.2 32.2004 35.536 32.2644 35.792C32.3364 36.048 32.4324 36.232 32.5524 36.344C32.6804 36.456 32.8324 36.512 33.0084 36.512C33.2324 36.512 33.3764 36.436 33.4404 36.284C33.5124 36.132 33.5484 35.972 33.5484 35.804C33.5484 35.404 33.4524 35.068 33.2604 34.796C33.0684 34.516 32.8084 34.236 32.4804 33.956L31.6404 33.224C31.2724 32.912 30.9604 32.56 30.7044 32.168C30.4564 31.768 30.3324 31.276 30.3324 30.692C30.3324 29.868 30.5764 29.24 31.0644 28.808C31.5524 28.368 32.2164 28.148 33.0564 28.148C33.5764 28.148 33.9924 28.236 34.3044 28.412C34.6244 28.588 34.8644 28.82 35.0244 29.108C35.1924 29.388 35.3044 29.688 35.3604 30.008C35.4244 30.32 35.4604 30.62 35.4684 30.908L33.6204 31.136C33.6124 30.848 33.5924 30.6 33.5604 30.392C33.5364 30.176 33.4804 30.012 33.3924 29.9C33.3044 29.78 33.1684 29.72 32.9844 29.72C32.7844 29.72 32.6364 29.804 32.5404 29.972C32.4524 30.14 32.4084 30.308 32.4084 30.476C32.4084 30.836 32.4924 31.132 32.6604 31.364C32.8364 31.588 33.0644 31.824 33.3444 32.072L34.1484 32.78C34.5724 33.14 34.9284 33.548 35.2164 34.004C35.5124 34.46 35.6604 35.024 35.6604 35.696C35.6604 36.152 35.5564 36.568 35.3484 36.944C35.1404 37.312 34.8444 37.604 34.4604 37.82C34.0844 38.036 33.6364 38.144 33.1164 38.144ZM39.093 38.144C38.485 38.144 37.977 38.036 37.569 37.82C37.161 37.604 36.853 37.272 36.645 36.824C36.437 36.368 36.321 35.78 36.297 35.06L38.133 34.784C38.141 35.2 38.177 35.536 38.241 35.792C38.313 36.048 38.409 36.232 38.529 36.344C38.657 36.456 38.809 36.512 38.985 36.512C39.209 36.512 39.353 36.436 39.417 36.284C39.489 36.132 39.525 35.972 39.525 35.804C39.525 35.404 39.429 35.068 39.237 34.796C39.045 34.516 38.785 34.236 38.457 33.956L37.617 33.224C37.249 32.912 36.937 32.56 36.681 32.168C36.433 31.768 36.309 31.276 36.309 30.692C36.309 29.868 36.553 29.24 37.041 28.808C37.529 28.368 38.193 28.148 39.033 28.148C39.553 28.148 39.969 28.236 40.281 28.412C40.601 28.588 40.841 28.82 41.001 29.108C41.169 29.388 41.281 29.688 41.337 30.008C41.401 30.32 41.437 30.62 41.445 30.908L39.597 31.136C39.589 30.848 39.569 30.6 39.537 30.392C39.513 30.176 39.457 30.012 39.369 29.9C39.281 29.78 39.145 29.72 38.961 29.72C38.761 29.72 38.613 29.804 38.517 29.972C38.429 30.14 38.385 30.308 38.385 30.476C38.385 30.836 38.469 31.132 38.637 31.364C38.813 31.588 39.041 31.824 39.321 32.072L40.125 32.78C40.549 33.14 40.905 33.548 41.193 34.004C41.489 34.46 41.637 35.024 41.637 35.696C41.637 36.152 41.533 36.568 41.325 36.944C41.117 37.312 40.821 37.604 40.437 37.82C40.061 38.036 39.613 38.144 39.093 38.144ZM42.1153 38L43.9513 28.28H46.3993L48.2113 38H46.2313L45.9073 35.948H44.4793L44.1433 38H42.1153ZM44.6713 34.664H45.7033L45.1873 30.872L44.6713 34.664ZM51.5723 38.144C50.9003 38.144 50.3683 38.004 49.9763 37.724C49.5923 37.444 49.3163 37.052 49.1483 36.548C48.9883 36.036 48.9083 35.448 48.9083 34.784V31.52C48.9083 30.832 48.9963 30.236 49.1723 29.732C49.3483 29.228 49.6483 28.84 50.0723 28.568C50.5043 28.288 51.0883 28.148 51.8243 28.148C52.5443 28.148 53.1083 28.268 53.5163 28.508C53.9323 28.748 54.2283 29.08 54.4043 29.504C54.5803 29.928 54.6683 30.424 54.6683 30.992V31.616H52.5683V30.824C52.5683 30.616 52.5523 30.424 52.5203 30.248C52.4963 30.072 52.4323 29.932 52.3283 29.828C52.2323 29.716 52.0723 29.66 51.8483 29.66C51.6163 29.66 51.4483 29.724 51.3443 29.852C51.2403 29.972 51.1723 30.124 51.1403 30.308C51.1163 30.492 51.1043 30.684 51.1043 30.884V35.384C51.1043 35.6 51.1243 35.804 51.1643 35.996C51.2123 36.18 51.2923 36.332 51.4043 36.452C51.5243 36.564 51.6923 36.62 51.9083 36.62C52.1323 36.62 52.3043 36.56 52.4243 36.44C52.5443 36.32 52.6283 36.164 52.6763 35.972C52.7243 35.78 52.7483 35.576 52.7483 35.36V34.22H51.8723V32.96H54.6803V38H53.2643L53.1443 37.196C53.0163 37.468 52.8283 37.696 52.5803 37.88C52.3323 38.056 51.9963 38.144 51.5723 38.144ZM56.0247 38V28.28H60.3927V29.744H58.1727V32.156H59.8647V33.644H58.1727V36.548H60.4167V38H56.0247Z"></path>
<path fill="white" d="M16.63 56V47.9H18.64C19.1267 47.9 19.5133 47.99 19.8 48.17C20.0933 48.3433 20.3067 48.5967 20.44 48.93C20.5733 49.2633 20.64 49.6667 20.64 50.14C20.64 50.5667 20.5633 50.9367 20.41 51.25C20.2633 51.5633 20.0433 51.8067 19.75 51.98C19.4567 52.1467 19.09 52.23 18.65 52.23H17.76V56H16.63ZM17.76 51.42H18.28C18.6067 51.42 18.8633 51.3833 19.05 51.31C19.2367 51.2367 19.37 51.11 19.45 50.93C19.53 50.7433 19.57 50.4833 19.57 50.15C19.57 49.7633 19.54 49.4667 19.48 49.26C19.4267 49.0533 19.31 48.91 19.13 48.83C18.95 48.75 18.67 48.71 18.29 48.71H17.76V51.42ZM22.8861 56.08C22.4328 56.08 22.0828 55.9933 21.8361 55.82C21.5894 55.64 21.4161 55.38 21.3161 55.04C21.2228 54.6933 21.1761 54.27 21.1761 53.77V52.45C21.1761 51.9367 21.2261 51.51 21.3261 51.17C21.4261 50.83 21.5994 50.5733 21.8461 50.4C22.0994 50.2267 22.4461 50.14 22.8861 50.14C23.3728 50.14 23.7294 50.24 23.9561 50.44C24.1894 50.64 24.3428 50.93 24.4161 51.31C24.4894 51.6833 24.5261 52.1333 24.5261 52.66V53.13H22.2461V54.29C22.2461 54.5233 22.2661 54.7133 22.3061 54.86C22.3528 55.0067 22.4228 55.1167 22.5161 55.19C22.6161 55.2567 22.7428 55.29 22.8961 55.29C23.0561 55.29 23.1761 55.2533 23.2561 55.18C23.3428 55.1 23.3994 54.99 23.4261 54.85C23.4594 54.7033 23.4761 54.5333 23.4761 54.34V53.99H24.5161V54.21C24.5161 54.79 24.3928 55.2467 24.1461 55.58C23.8994 55.9133 23.4794 56.08 22.8861 56.08ZM22.2461 52.55H23.4761V52.03C23.4761 51.79 23.4628 51.59 23.4361 51.43C23.4094 51.2633 23.3528 51.14 23.2661 51.06C23.1861 50.9733 23.0561 50.93 22.8761 50.93C22.7028 50.93 22.5694 50.97 22.4761 51.05C22.3894 51.13 22.3294 51.2667 22.2961 51.46C22.2628 51.6467 22.2461 51.9067 22.2461 52.24V52.55ZM25.5251 56V50.22H26.5951V51.04C26.8084 50.6867 27.0217 50.45 27.2351 50.33C27.4484 50.21 27.6617 50.15 27.8751 50.15C27.9017 50.15 27.9251 50.15 27.9451 50.15C27.9717 50.15 28.0051 50.1533 28.0451 50.16V51.34C27.9651 51.3067 27.8717 51.28 27.7651 51.26C27.6651 51.2333 27.5617 51.22 27.4551 51.22C27.2884 51.22 27.1351 51.26 26.9951 51.34C26.8617 51.4133 26.7284 51.56 26.5951 51.78V56H25.5251ZM28.738 56V47.9H29.808V50.82C30.0013 50.6333 30.218 50.4733 30.458 50.34C30.698 50.2067 30.9646 50.14 31.258 50.14C31.4846 50.14 31.658 50.2 31.778 50.32C31.9046 50.44 31.9913 50.59 32.038 50.77C32.0913 50.95 32.118 51.1333 32.118 51.32V56H31.048V51.63C31.048 51.4233 31.018 51.2633 30.958 51.15C30.898 51.0367 30.7746 50.98 30.588 50.98C30.4613 50.98 30.328 51.0167 30.188 51.09C30.0546 51.1633 29.928 51.2533 29.808 51.36V56H28.738ZM34.2011 56.08C33.9744 56.08 33.7744 56.0167 33.6011 55.89C33.4278 55.7567 33.2911 55.59 33.1911 55.39C33.0911 55.1833 33.0411 54.9667 33.0411 54.74C33.0411 54.38 33.1011 54.0767 33.2211 53.83C33.3411 53.5833 33.5044 53.3767 33.7111 53.21C33.9244 53.0367 34.1678 52.8867 34.4411 52.76C34.7211 52.6333 35.0144 52.51 35.3211 52.39V51.98C35.3211 51.7467 35.3078 51.5533 35.2811 51.4C35.2544 51.2467 35.1978 51.1333 35.1111 51.06C35.0311 50.98 34.9078 50.94 34.7411 50.94C34.5944 50.94 34.4744 50.9733 34.3811 51.04C34.2944 51.1067 34.2311 51.2033 34.1911 51.33C34.1511 51.45 34.1311 51.5933 34.1311 51.76V52.05L33.0711 52.01C33.0844 51.37 33.2311 50.9 33.5111 50.6C33.7911 50.2933 34.2244 50.14 34.8111 50.14C35.3844 50.14 35.7911 50.2967 36.0311 50.61C36.2711 50.9233 36.3911 51.3767 36.3911 51.97V54.61C36.3911 54.79 36.3944 54.9633 36.4011 55.13C36.4144 55.2967 36.4278 55.4533 36.4411 55.6C36.4611 55.74 36.4778 55.8733 36.4911 56H35.5111C35.4911 55.8933 35.4644 55.76 35.4311 55.6C35.4044 55.4333 35.3844 55.2833 35.3711 55.15C35.3044 55.3767 35.1744 55.59 34.9811 55.79C34.7944 55.9833 34.5344 56.08 34.2011 56.08ZM34.6211 55.16C34.7278 55.16 34.8278 55.13 34.9211 55.07C35.0144 55.01 35.0978 54.9433 35.1711 54.87C35.2444 54.79 35.2944 54.7267 35.3211 54.68V53.04C35.1544 53.1333 34.9978 53.2267 34.8511 53.32C34.7044 53.4133 34.5744 53.5133 34.4611 53.62C34.3544 53.72 34.2678 53.8367 34.2011 53.97C34.1411 54.0967 34.1111 54.2433 34.1111 54.41C34.1111 54.6433 34.1544 54.8267 34.2411 54.96C34.3278 55.0933 34.4544 55.16 34.6211 55.16ZM37.4189 57.9V50.22H38.4889V50.68C38.6156 50.5333 38.7689 50.4067 38.9489 50.3C39.1289 50.1933 39.3422 50.14 39.5889 50.14C39.8889 50.14 40.1256 50.22 40.2989 50.38C40.4789 50.5333 40.6122 50.73 40.6989 50.97C40.7856 51.2033 40.8422 51.4433 40.8689 51.69C40.8956 51.93 40.9089 52.1367 40.9089 52.31V53.71C40.9089 54.1167 40.8689 54.5033 40.7889 54.87C40.7089 55.23 40.5622 55.5233 40.3489 55.75C40.1422 55.97 39.8489 56.08 39.4689 56.08C39.2622 56.08 39.0789 56.03 38.9189 55.93C38.7589 55.8233 38.6156 55.7033 38.4889 55.57V57.9H37.4189ZM39.2589 55.24C39.4456 55.24 39.5789 55.1733 39.6589 55.04C39.7389 54.9 39.7889 54.7133 39.8089 54.48C39.8289 54.2467 39.8389 53.99 39.8389 53.71V52.31C39.8389 52.07 39.8256 51.85 39.7989 51.65C39.7722 51.4433 39.7156 51.28 39.6289 51.16C39.5422 51.04 39.4056 50.98 39.2189 50.98C39.0789 50.98 38.9456 51.01 38.8189 51.07C38.6922 51.13 38.5822 51.2 38.4889 51.28V54.98C38.5889 55.0533 38.7022 55.1167 38.8289 55.17C38.9556 55.2167 39.0989 55.24 39.2589 55.24ZM43.2218 56.08C42.7485 56.08 42.3685 55.9333 42.0818 55.64C41.7951 55.34 41.6318 54.9467 41.5918 54.46L42.4818 54.19C42.5351 54.5567 42.6251 54.8333 42.7518 55.02C42.8785 55.2 43.0651 55.29 43.3118 55.29C43.5051 55.29 43.6518 55.2367 43.7518 55.13C43.8518 55.0167 43.9018 54.8667 43.9018 54.68C43.9018 54.5133 43.8651 54.3633 43.7918 54.23C43.7185 54.0967 43.5985 53.96 43.4318 53.82L42.4418 52.97C42.2418 52.7967 42.0718 52.6033 41.9318 52.39C41.7985 52.1767 41.7318 51.9 41.7318 51.56C41.7318 51.2533 41.7918 50.9967 41.9118 50.79C42.0385 50.5767 42.2118 50.4167 42.4318 50.31C42.6585 50.1967 42.9218 50.14 43.2218 50.14C43.6818 50.14 44.0318 50.29 44.2718 50.59C44.5185 50.8833 44.6585 51.24 44.6918 51.66L43.9718 51.93C43.9451 51.73 43.9051 51.5567 43.8518 51.41C43.7985 51.2567 43.7251 51.14 43.6318 51.06C43.5385 50.9733 43.4151 50.93 43.2618 50.93C43.0885 50.93 42.9485 50.99 42.8418 51.11C42.7418 51.2233 42.6918 51.36 42.6918 51.52C42.6918 51.62 42.7118 51.72 42.7518 51.82C42.7985 51.9133 42.8751 52.0067 42.9818 52.1L44.0018 53.04C44.1418 53.1667 44.2718 53.3033 44.3918 53.45C44.5185 53.5967 44.6218 53.7633 44.7018 53.95C44.7818 54.1367 44.8218 54.3533 44.8218 54.6C44.8218 54.9267 44.7551 55.2 44.6218 55.42C44.4885 55.64 44.3018 55.8067 44.0618 55.92C43.8218 56.0267 43.5418 56.08 43.2218 56.08ZM49.4472 56.08C49.1472 56.08 48.9039 56.0233 48.7172 55.91C48.5372 55.7967 48.4039 55.6367 48.3172 55.43C48.2372 55.2233 48.1972 54.98 48.1972 54.7V50.93H47.5872V50.22H48.1972V48.53H49.2672V50.22H50.1972V50.93H49.2672V54.63C49.2672 54.8567 49.3039 55.02 49.3772 55.12C49.4505 55.2133 49.5905 55.26 49.7972 55.26C49.8505 55.26 49.9105 55.2567 49.9772 55.25C50.0505 55.2433 50.1205 55.2367 50.1872 55.23V56.02C50.0539 56.04 49.9305 56.0533 49.8172 56.06C49.7039 56.0733 49.5805 56.08 49.4472 56.08ZM51.0134 56V47.9H52.0834V50.82C52.2767 50.6333 52.4934 50.4733 52.7334 50.34C52.9734 50.2067 53.24 50.14 53.5334 50.14C53.76 50.14 53.9334 50.2 54.0534 50.32C54.18 50.44 54.2667 50.59 54.3134 50.77C54.3667 50.95 54.3934 51.1333 54.3934 51.32V56H53.3234V51.63C53.3234 51.4233 53.2934 51.2633 53.2334 51.15C53.1734 51.0367 53.05 50.98 52.8634 50.98C52.7367 50.98 52.6034 51.0167 52.4634 51.09C52.33 51.1633 52.2034 51.2533 52.0834 51.36V56H51.0134ZM55.5065 56V50.22H56.5765V56H55.5065ZM55.5065 49.36V48.24H56.5765V49.36H55.5065ZM59.0616 56.08C58.5883 56.08 58.2083 55.9333 57.9216 55.64C57.635 55.34 57.4716 54.9467 57.4316 54.46L58.3216 54.19C58.375 54.5567 58.465 54.8333 58.5916 55.02C58.7183 55.2 58.905 55.29 59.1516 55.29C59.345 55.29 59.4916 55.2367 59.5916 55.13C59.6916 55.0167 59.7416 54.8667 59.7416 54.68C59.7416 54.5133 59.705 54.3633 59.6316 54.23C59.5583 54.0967 59.4383 53.96 59.2716 53.82L58.2816 52.97C58.0816 52.7967 57.9116 52.6033 57.7716 52.39C57.6383 52.1767 57.5716 51.9 57.5716 51.56C57.5716 51.2533 57.6316 50.9967 57.7516 50.79C57.8783 50.5767 58.0516 50.4167 58.2716 50.31C58.4983 50.1967 58.7616 50.14 59.0616 50.14C59.5216 50.14 59.8716 50.29 60.1116 50.59C60.3583 50.8833 60.4983 51.24 60.5316 51.66L59.8116 51.93C59.785 51.73 59.745 51.5567 59.6916 51.41C59.6383 51.2567 59.565 51.14 59.4716 51.06C59.3783 50.9733 59.255 50.93 59.1016 50.93C58.9283 50.93 58.7883 50.99 58.6816 51.11C58.5816 51.2233 58.5316 51.36 58.5316 51.52C58.5316 51.62 58.5516 51.72 58.5916 51.82C58.6383 51.9133 58.715 52.0067 58.8216 52.1L59.8416 53.04C59.9816 53.1667 60.1116 53.3033 60.2316 53.45C60.3583 53.5967 60.4616 53.7633 60.5416 53.95C60.6216 54.1367 60.6616 54.3533 60.6616 54.6C60.6616 54.9267 60.595 55.2 60.4616 55.42C60.3283 55.64 60.1416 55.8067 59.9016 55.92C59.6616 56.0267 59.3816 56.08 59.0616 56.08ZM63.817 56V50.22H64.887V56H63.817ZM63.817 49.36V48.24H64.887V49.36H63.817ZM67.3722 56.08C66.8989 56.08 66.5189 55.9333 66.2322 55.64C65.9455 55.34 65.7822 54.9467 65.7422 54.46L66.6322 54.19C66.6855 54.5567 66.7755 54.8333 66.9022 55.02C67.0289 55.2 67.2155 55.29 67.4622 55.29C67.6555 55.29 67.8022 55.2367 67.9022 55.13C68.0022 55.0167 68.0522 54.8667 68.0522 54.68C68.0522 54.5133 68.0155 54.3633 67.9422 54.23C67.8689 54.0967 67.7489 53.96 67.5822 53.82L66.5922 52.97C66.3922 52.7967 66.2222 52.6033 66.0822 52.39C65.9489 52.1767 65.8822 51.9 65.8822 51.56C65.8822 51.2533 65.9422 50.9967 66.0622 50.79C66.1889 50.5767 66.3622 50.4167 66.5822 50.31C66.8089 50.1967 67.0722 50.14 67.3722 50.14C67.8322 50.14 68.1822 50.29 68.4222 50.59C68.6689 50.8833 68.8089 51.24 68.8422 51.66L68.1222 51.93C68.0955 51.73 68.0555 51.5567 68.0022 51.41C67.9489 51.2567 67.8755 51.14 67.7822 51.06C67.6889 50.9733 67.5655 50.93 67.4122 50.93C67.2389 50.93 67.0989 50.99 66.9922 51.11C66.8922 51.2233 66.8422 51.36 66.8422 51.52C66.8422 51.62 66.8622 51.72 66.9022 51.82C66.9489 51.9133 67.0255 52.0067 67.1322 52.1L68.1522 53.04C68.2922 53.1667 68.4222 53.3033 68.5422 53.45C68.6689 53.5967 68.7722 53.7633 68.8522 53.95C68.9322 54.1367 68.9722 54.3533 68.9722 54.6C68.9722 54.9267 68.9055 55.2 68.7722 55.42C68.6389 55.64 68.4522 55.8067 68.2122 55.92C67.9722 56.0267 67.6922 56.08 67.3722 56.08ZM73.5976 56.08C73.2976 56.08 73.0542 56.0233 72.8676 55.91C72.6876 55.7967 72.5542 55.6367 72.4676 55.43C72.3876 55.2233 72.3476 54.98 72.3476 54.7V50.93H71.7376V50.22H72.3476V48.53H73.4176V50.22H74.3476V50.93H73.4176V54.63C73.4176 54.8567 73.4542 55.02 73.5276 55.12C73.6009 55.2133 73.7409 55.26 73.9476 55.26C74.0009 55.26 74.0609 55.2567 74.1276 55.25C74.2009 55.2433 74.2709 55.2367 74.3376 55.23V56.02C74.2042 56.04 74.0809 56.0533 73.9676 56.06C73.8542 56.0733 73.7309 56.08 73.5976 56.08ZM75.1638 56V47.9H76.2338V50.82C76.4271 50.6333 76.6438 50.4733 76.8838 50.34C77.1238 50.2067 77.3904 50.14 77.6838 50.14C77.9104 50.14 78.0838 50.2 78.2038 50.32C78.3304 50.44 78.4171 50.59 78.4638 50.77C78.5171 50.95 78.5438 51.1333 78.5438 51.32V56H77.4738V51.63C77.4738 51.4233 77.4438 51.2633 77.3838 51.15C77.3238 51.0367 77.2004 50.98 77.0138 50.98C76.8871 50.98 76.7538 51.0167 76.6138 51.09C76.4804 51.1633 76.3538 51.2533 76.2338 51.36V56H75.1638ZM81.1869 56.08C80.7335 56.08 80.3835 55.9933 80.1369 55.82C79.8902 55.64 79.7169 55.38 79.6169 55.04C79.5235 54.6933 79.4769 54.27 79.4769 53.77V52.45C79.4769 51.9367 79.5269 51.51 79.6269 51.17C79.7269 50.83 79.9002 50.5733 80.1469 50.4C80.4002 50.2267 80.7469 50.14 81.1869 50.14C81.6735 50.14 82.0302 50.24 82.2569 50.44C82.4902 50.64 82.6435 50.93 82.7169 51.31C82.7902 51.6833 82.8269 52.1333 82.8269 52.66V53.13H80.5469V54.29C80.5469 54.5233 80.5669 54.7133 80.6069 54.86C80.6535 55.0067 80.7235 55.1167 80.8169 55.19C80.9169 55.2567 81.0435 55.29 81.1969 55.29C81.3569 55.29 81.4769 55.2533 81.5569 55.18C81.6435 55.1 81.7002 54.99 81.7269 54.85C81.7602 54.7033 81.7769 54.5333 81.7769 54.34V53.99H82.8169V54.21C82.8169 54.79 82.6935 55.2467 82.4469 55.58C82.2002 55.9133 81.7802 56.08 81.1869 56.08ZM80.5469 52.55H81.7769V52.03C81.7769 51.79 81.7635 51.59 81.7369 51.43C81.7102 51.2633 81.6535 51.14 81.5669 51.06C81.4869 50.9733 81.3569 50.93 81.1769 50.93C81.0035 50.93 80.8702 50.97 80.7769 51.05C80.6902 51.13 80.6302 51.2667 80.5969 51.46C80.5635 51.6467 80.5469 51.9067 80.5469 52.24V52.55ZM86.081 57.9V50.22H87.151V50.68C87.2777 50.5333 87.431 50.4067 87.611 50.3C87.791 50.1933 88.0043 50.14 88.251 50.14C88.551 50.14 88.7877 50.22 88.961 50.38C89.141 50.5333 89.2743 50.73 89.361 50.97C89.4477 51.2033 89.5043 51.4433 89.531 51.69C89.5577 51.93 89.571 52.1367 89.571 52.31V53.71C89.571 54.1167 89.531 54.5033 89.451 54.87C89.371 55.23 89.2243 55.5233 89.011 55.75C88.8043 55.97 88.511 56.08 88.131 56.08C87.9243 56.08 87.741 56.03 87.581 55.93C87.421 55.8233 87.2777 55.7033 87.151 55.57V57.9H86.081ZM87.921 55.24C88.1077 55.24 88.241 55.1733 88.321 55.04C88.401 54.9 88.451 54.7133 88.471 54.48C88.491 54.2467 88.501 53.99 88.501 53.71V52.31C88.501 52.07 88.4877 51.85 88.461 51.65C88.4343 51.4433 88.3777 51.28 88.291 51.16C88.2043 51.04 88.0677 50.98 87.881 50.98C87.741 50.98 87.6077 51.01 87.481 51.07C87.3543 51.13 87.2443 51.2 87.151 51.28V54.98C87.251 55.0533 87.3643 55.1167 87.491 55.17C87.6177 55.2167 87.761 55.24 87.921 55.24ZM90.5739 56V50.22H91.6439V51.04C91.8572 50.6867 92.0706 50.45 92.2839 50.33C92.4972 50.21 92.7106 50.15 92.9239 50.15C92.9506 50.15 92.9739 50.15 92.9939 50.15C93.0206 50.15 93.0539 50.1533 93.0939 50.16V51.34C93.0139 51.3067 92.9206 51.28 92.8139 51.26C92.7139 51.2333 92.6106 51.22 92.5039 51.22C92.3372 51.22 92.1839 51.26 92.0439 51.34C91.9106 51.4133 91.7772 51.56 91.6439 51.78V56H90.5739ZM95.3468 56.08C94.9201 56.08 94.5835 55.9933 94.3368 55.82C94.0901 55.6467 93.9135 55.4 93.8068 55.08C93.7068 54.76 93.6568 54.3833 93.6568 53.95V52.27C93.6568 51.8367 93.7068 51.46 93.8068 51.14C93.9135 50.82 94.0901 50.5733 94.3368 50.4C94.5835 50.2267 94.9201 50.14 95.3468 50.14C95.7735 50.14 96.1068 50.2267 96.3468 50.4C96.5935 50.5733 96.7668 50.82 96.8668 51.14C96.9735 51.46 97.0268 51.8367 97.0268 52.27V53.95C97.0268 54.3833 96.9735 54.76 96.8668 55.08C96.7668 55.4 96.5935 55.6467 96.3468 55.82C96.1068 55.9933 95.7735 56.08 95.3468 56.08ZM95.3468 55.29C95.5535 55.29 95.6968 55.23 95.7768 55.11C95.8635 54.99 95.9135 54.8333 95.9268 54.64C95.9468 54.44 95.9568 54.2333 95.9568 54.02V52.21C95.9568 51.99 95.9468 51.7833 95.9268 51.59C95.9135 51.3967 95.8635 51.24 95.7768 51.12C95.6968 50.9933 95.5535 50.93 95.3468 50.93C95.1401 50.93 94.9935 50.9933 94.9068 51.12C94.8201 51.24 94.7668 51.3967 94.7468 51.59C94.7335 51.7833 94.7268 51.99 94.7268 52.21V54.02C94.7268 54.2333 94.7335 54.44 94.7468 54.64C94.7668 54.8333 94.8201 54.99 94.9068 55.11C94.9935 55.23 95.1401 55.29 95.3468 55.29ZM98.3448 56V51.01H97.6548V50.22H98.3448V49.92C98.3448 49.5333 98.3848 49.2133 98.4648 48.96C98.5515 48.7067 98.6948 48.5167 98.8948 48.39C99.0948 48.2633 99.3682 48.2 99.7148 48.2C99.8015 48.2 99.8915 48.2033 99.9848 48.21C100.085 48.2167 100.188 48.2267 100.295 48.24V49.04C100.228 49.0267 100.162 49.0167 100.095 49.01C100.035 49.0033 99.9782 49 99.9248 49C99.7182 49 99.5815 49.0567 99.5148 49.17C99.4482 49.2833 99.4148 49.4733 99.4148 49.74V50.22H101.775V56H100.705V51.01H99.4148V56H98.3448ZM100.805 49.36V48.24H101.785V49.36H100.805ZM103.017 56V47.9H104.087V56H103.017ZM106.802 56.08C106.349 56.08 105.999 55.9933 105.752 55.82C105.505 55.64 105.332 55.38 105.232 55.04C105.139 54.6933 105.092 54.27 105.092 53.77V52.45C105.092 51.9367 105.142 51.51 105.242 51.17C105.342 50.83 105.515 50.5733 105.762 50.4C106.015 50.2267 106.362 50.14 106.802 50.14C107.289 50.14 107.645 50.24 107.872 50.44C108.105 50.64 108.259 50.93 108.332 51.31C108.405 51.6833 108.442 52.1333 108.442 52.66V53.13H106.162V54.29C106.162 54.5233 106.182 54.7133 106.222 54.86C106.269 55.0067 106.339 55.1167 106.432 55.19C106.532 55.2567 106.659 55.29 106.812 55.29C106.972 55.29 107.092 55.2533 107.172 55.18C107.259 55.1 107.315 54.99 107.342 54.85C107.375 54.7033 107.392 54.5333 107.392 54.34V53.99H108.432V54.21C108.432 54.79 108.309 55.2467 108.062 55.58C107.815 55.9133 107.395 56.08 106.802 56.08ZM106.162 52.55H107.392V52.03C107.392 51.79 107.379 51.59 107.352 51.43C107.325 51.2633 107.269 51.14 107.182 51.06C107.102 50.9733 106.972 50.93 106.792 50.93C106.619 50.93 106.485 50.97 106.392 51.05C106.305 51.13 106.245 51.2667 106.212 51.46C106.179 51.6467 106.162 51.9067 106.162 52.24V52.55ZM113.276 56.08C112.803 56.08 112.443 55.9867 112.196 55.8C111.956 55.6067 111.793 55.3367 111.706 54.99C111.626 54.6433 111.586 54.24 111.586 53.78V52.45C111.586 51.9633 111.63 51.55 111.716 51.21C111.803 50.8633 111.966 50.6 112.206 50.42C112.453 50.2333 112.81 50.14 113.276 50.14C113.696 50.14 114.02 50.21 114.246 50.35C114.48 50.4833 114.64 50.6867 114.726 50.96C114.813 51.2267 114.856 51.56 114.856 51.96V52.3H113.886V51.95C113.886 51.6967 113.87 51.4967 113.836 51.35C113.803 51.2033 113.743 51.0967 113.656 51.03C113.57 50.9633 113.446 50.93 113.286 50.93C113.113 50.93 112.98 50.97 112.886 51.05C112.793 51.13 112.73 51.2667 112.696 51.46C112.67 51.6467 112.656 51.9033 112.656 52.23V54.05C112.656 54.5433 112.703 54.8733 112.796 55.04C112.89 55.2067 113.056 55.29 113.296 55.29C113.476 55.29 113.606 55.25 113.686 55.17C113.773 55.0833 113.826 54.9633 113.846 54.81C113.873 54.6567 113.886 54.4833 113.886 54.29V53.82H114.856V54.22C114.856 54.6067 114.81 54.94 114.716 55.22C114.63 55.5 114.47 55.7133 114.236 55.86C114.01 56.0067 113.69 56.08 113.276 56.08ZM117.398 56.08C116.971 56.08 116.634 55.9933 116.388 55.82C116.141 55.6467 115.964 55.4 115.858 55.08C115.758 54.76 115.708 54.3833 115.708 53.95V52.27C115.708 51.8367 115.758 51.46 115.858 51.14C115.964 50.82 116.141 50.5733 116.388 50.4C116.634 50.2267 116.971 50.14 117.398 50.14C117.824 50.14 118.158 50.2267 118.398 50.4C118.644 50.5733 118.818 50.82 118.918 51.14C119.024 51.46 119.078 51.8367 119.078 52.27V53.95C119.078 54.3833 119.024 54.76 118.918 55.08C118.818 55.4 118.644 55.6467 118.398 55.82C118.158 55.9933 117.824 56.08 117.398 56.08ZM117.398 55.29C117.604 55.29 117.748 55.23 117.828 55.11C117.914 54.99 117.964 54.8333 117.978 54.64C117.998 54.44 118.008 54.2333 118.008 54.02V52.21C118.008 51.99 117.998 51.7833 117.978 51.59C117.964 51.3967 117.914 51.24 117.828 51.12C117.748 50.9933 117.604 50.93 117.398 50.93C117.191 50.93 117.044 50.9933 116.958 51.12C116.871 51.24 116.818 51.3967 116.798 51.59C116.784 51.7833 116.778 51.99 116.778 52.21V54.02C116.778 54.2333 116.784 54.44 116.798 54.64C116.818 54.8333 116.871 54.99 116.958 55.11C117.044 55.23 117.191 55.29 117.398 55.29ZM121.396 56.08C120.909 56.08 120.546 55.9033 120.306 55.55C120.066 55.19 119.946 54.5833 119.946 53.73V52.61C119.946 52.17 119.982 51.7633 120.056 51.39C120.129 51.01 120.266 50.7067 120.466 50.48C120.672 50.2533 120.972 50.14 121.366 50.14C121.559 50.14 121.736 50.1833 121.896 50.27C122.056 50.3567 122.199 50.4633 122.326 50.59V47.9H123.396V56H122.326V55.63C122.199 55.7633 122.059 55.8733 121.906 55.96C121.759 56.04 121.589 56.08 121.396 56.08ZM121.666 55.24C121.766 55.24 121.872 55.2233 121.986 55.19C122.099 55.15 122.212 55.0933 122.326 55.02V51.23C122.232 51.1633 122.129 51.1067 122.016 51.06C121.902 51.0067 121.779 50.98 121.646 50.98C121.399 50.98 121.232 51.1 121.146 51.34C121.059 51.5733 121.016 51.8567 121.016 52.19V53.82C121.016 54.0867 121.029 54.33 121.056 54.55C121.089 54.7633 121.152 54.9333 121.246 55.06C121.339 55.18 121.479 55.24 121.666 55.24ZM126.079 56.08C125.626 56.08 125.276 55.9933 125.029 55.82C124.783 55.64 124.609 55.38 124.509 55.04C124.416 54.6933 124.369 54.27 124.369 53.77V52.45C124.369 51.9367 124.419 51.51 124.519 51.17C124.619 50.83 124.793 50.5733 125.039 50.4C125.293 50.2267 125.639 50.14 126.079 50.14C126.566 50.14 126.923 50.24 127.149 50.44C127.383 50.64 127.536 50.93 127.609 51.31C127.683 51.6833 127.719 52.1333 127.719 52.66V53.13H125.439V54.29C125.439 54.5233 125.459 54.7133 125.499 54.86C125.546 55.0067 125.616 55.1167 125.709 55.19C125.809 55.2567 125.936 55.29 126.089 55.29C126.249 55.29 126.369 55.2533 126.449 55.18C126.536 55.1 126.593 54.99 126.619 54.85C126.653 54.7033 126.669 54.5333 126.669 54.34V53.99H127.709V54.21C127.709 54.79 127.586 55.2467 127.339 55.58C127.093 55.9133 126.673 56.08 126.079 56.08ZM125.439 52.55H126.669V52.03C126.669 51.79 126.656 51.59 126.629 51.43C126.603 51.2633 126.546 51.14 126.459 51.06C126.379 50.9733 126.249 50.93 126.069 50.93C125.896 50.93 125.763 50.97 125.669 51.05C125.583 51.13 125.523 51.2667 125.489 51.46C125.456 51.6467 125.439 51.9067 125.439 52.24V52.55Z"></path>
</svg>
