<svg xmlns="http://www.w3.org/2000/svg" fill="none" viewBox="0 0 13 18" height="18" width="13">
<rect fill-opacity="0.01" fill="#0D0E12" height="18" width="13"></rect>
<path fill="white" d="M3.312 14.144C2.68 14.144 2.164 14.008 1.764 13.736C1.372 13.456 1.084 13.076 0.9 12.596C0.716 12.116 0.624 11.568 0.624 10.952V7.436C0.624 6.804 0.696 6.24 0.84 5.744C0.992 5.248 1.26 4.86 1.644 4.58C2.028 4.292 2.58 4.148 3.3 4.148C3.924 4.148 4.416 4.244 4.776 4.436C5.136 4.628 5.392 4.908 5.544 5.276C5.696 5.644 5.772 6.1 5.772 6.644C5.772 6.676 5.772 6.708 5.772 6.74C5.78 6.764 5.784 6.788 5.784 6.812H3.9C3.9 6.42 3.868 6.132 3.804 5.948C3.748 5.756 3.584 5.66 3.312 5.66C3.128 5.66 2.988 5.716 2.892 5.828C2.804 5.94 2.744 6.136 2.712 6.416C2.68 6.696 2.664 7.088 2.664 7.592V8.456C2.76 8.288 2.916 8.16 3.132 8.072C3.348 7.976 3.592 7.924 3.864 7.916C4.376 7.9 4.784 8.016 5.088 8.264C5.4 8.512 5.624 8.852 5.76 9.284C5.896 9.708 5.964 10.184 5.964 10.712C5.964 11.392 5.884 11.992 5.724 12.512C5.564 13.024 5.292 13.424 4.908 13.712C4.524 14 3.992 14.144 3.312 14.144ZM3.336 12.668C3.52 12.668 3.652 12.608 3.732 12.488C3.82 12.36 3.876 12.176 3.9 11.936C3.932 11.688 3.948 11.384 3.948 11.024C3.948 10.704 3.936 10.428 3.912 10.196C3.896 9.964 3.844 9.784 3.756 9.656C3.668 9.52 3.52 9.452 3.312 9.452C3.216 9.452 3.124 9.472 3.036 9.512C2.948 9.552 2.872 9.604 2.808 9.668C2.744 9.724 2.696 9.78 2.664 9.836V11.42C2.664 11.636 2.68 11.84 2.712 12.032C2.752 12.224 2.82 12.38 2.916 12.5C3.02 12.612 3.16 12.668 3.336 12.668ZM9.51703 14.18C8.80503 14.18 8.26503 14.056 7.89703 13.808C7.53703 13.552 7.29303 13.196 7.16503 12.74C7.03703 12.284 6.97303 11.756 6.97303 11.156H8.90503C8.90503 11.524 8.92503 11.824 8.96503 12.056C9.00503 12.288 9.07703 12.456 9.18103 12.56C9.29303 12.656 9.44903 12.7 9.64903 12.692C9.85703 12.684 10.005 12.6 10.093 12.44C10.181 12.28 10.233 12.052 10.249 11.756C10.273 11.452 10.285 11.088 10.285 10.664C10.285 10.344 10.265 10.06 10.225 9.812C10.193 9.564 10.121 9.368 10.009 9.224C9.90503 9.072 9.74503 8.996 9.52903 8.996C9.32903 8.996 9.16503 9.068 9.03703 9.212C8.90903 9.356 8.81703 9.58 8.76103 9.884H7.03303L7.21303 4.28H11.749V5.96H8.82103L8.71303 7.964C8.79303 7.852 8.94503 7.756 9.16903 7.676C9.39303 7.588 9.63303 7.532 9.88903 7.508C10.385 7.452 10.801 7.544 11.137 7.784C11.481 8.016 11.737 8.372 11.905 8.852C12.081 9.332 12.169 9.92 12.169 10.616C12.169 11.136 12.137 11.616 12.073 12.056C12.009 12.488 11.885 12.864 11.701 13.184C11.517 13.496 11.249 13.74 10.897 13.916C10.545 14.092 10.085 14.18 9.51703 14.18Z"></path>
</svg>
