<svg xmlns="http://www.w3.org/2000/svg" fill="none" viewBox="0 0 13 18" height="18" width="13">
<rect fill-opacity="0.01" fill="#0D0E12" height="18" width="13"></rect>
<path fill="white" d="M3.06 14.18C2.348 14.18 1.808 14.056 1.44 13.808C1.08 13.552 0.836 13.196 0.708 12.74C0.58 12.284 0.516 11.756 0.516 11.156H2.448C2.448 11.524 2.468 11.824 2.508 12.056C2.548 12.288 2.62 12.456 2.724 12.56C2.836 12.656 2.992 12.7 3.192 12.692C3.4 12.684 3.548 12.6 3.636 12.44C3.724 12.28 3.776 12.052 3.792 11.756C3.816 11.452 3.828 11.088 3.828 10.664C3.828 10.344 3.808 10.06 3.768 9.812C3.736 9.564 3.664 9.368 3.552 9.224C3.448 9.072 3.288 8.996 3.072 8.996C2.872 8.996 2.708 9.068 2.58 9.212C2.452 9.356 2.36 9.58 2.304 9.884H0.576L0.756 4.28H5.292V5.96H2.364L2.256 7.964C2.336 7.852 2.488 7.756 2.712 7.676C2.936 7.588 3.176 7.532 3.432 7.508C3.928 7.452 4.344 7.544 4.68 7.784C5.024 8.016 5.28 8.372 5.448 8.852C5.624 9.332 5.712 9.92 5.712 10.616C5.712 11.136 5.68 11.616 5.616 12.056C5.552 12.488 5.428 12.864 5.244 13.184C5.06 13.496 4.792 13.74 4.44 13.916C4.088 14.092 3.628 14.18 3.06 14.18ZM9.41747 14.144C8.78547 14.144 8.26947 14.008 7.86947 13.736C7.47747 13.456 7.18947 13.076 7.00547 12.596C6.82147 12.116 6.72947 11.568 6.72947 10.952V7.436C6.72947 6.804 6.80147 6.24 6.94547 5.744C7.09747 5.248 7.36547 4.86 7.74947 4.58C8.13347 4.292 8.68547 4.148 9.40547 4.148C10.0295 4.148 10.5215 4.244 10.8815 4.436C11.2415 4.628 11.4975 4.908 11.6495 5.276C11.8015 5.644 11.8775 6.1 11.8775 6.644C11.8775 6.676 11.8775 6.708 11.8775 6.74C11.8855 6.764 11.8895 6.788 11.8895 6.812H10.0055C10.0055 6.42 9.97347 6.132 9.90947 5.948C9.85347 5.756 9.68947 5.66 9.41747 5.66C9.23347 5.66 9.09347 5.716 8.99747 5.828C8.90947 5.94 8.84947 6.136 8.81747 6.416C8.78547 6.696 8.76947 7.088 8.76947 7.592V8.456C8.86547 8.288 9.02147 8.16 9.23747 8.072C9.45347 7.976 9.69747 7.924 9.96947 7.916C10.4815 7.9 10.8895 8.016 11.1935 8.264C11.5055 8.512 11.7295 8.852 11.8655 9.284C12.0015 9.708 12.0695 10.184 12.0695 10.712C12.0695 11.392 11.9895 11.992 11.8295 12.512C11.6695 13.024 11.3975 13.424 11.0135 13.712C10.6295 14 10.0975 14.144 9.41747 14.144ZM9.44147 12.668C9.62547 12.668 9.75747 12.608 9.83747 12.488C9.92547 12.36 9.98147 12.176 10.0055 11.936C10.0375 11.688 10.0535 11.384 10.0535 11.024C10.0535 10.704 10.0415 10.428 10.0175 10.196C10.0015 9.964 9.94947 9.784 9.86147 9.656C9.77347 9.52 9.62547 9.452 9.41747 9.452C9.32147 9.452 9.22947 9.472 9.14147 9.512C9.05347 9.552 8.97747 9.604 8.91347 9.668C8.84947 9.724 8.80147 9.78 8.76947 9.836V11.42C8.76947 11.636 8.78547 11.84 8.81747 12.032C8.85747 12.224 8.92547 12.38 9.02147 12.5C9.12547 12.612 9.26547 12.668 9.44147 12.668Z"></path>
</svg>
