<svg xmlns="http://www.w3.org/2000/svg" fill="none" viewBox="0 0 90 40" height="40" width="90">
<rect fill="#0D0E12" height="40" width="90"></rect>
<path fill="white" d="M10.4719 25.18C9.88788 25.18 9.39988 25.064 9.00788 24.832C8.61588 24.592 8.31988 24.264 8.11988 23.848C7.91988 23.432 7.81988 22.948 7.81988 22.396V17.992C7.81988 17.424 7.91188 16.928 8.09588 16.504C8.28788 16.072 8.57988 15.736 8.97188 15.496C9.36388 15.256 9.86388 15.136 10.4719 15.136C11.0799 15.136 11.5759 15.256 11.9599 15.496C12.3519 15.736 12.6399 16.072 12.8239 16.504C13.0159 16.928 13.1119 17.424 13.1119 17.992V22.396C13.1119 22.94 13.0119 23.424 12.8119 23.848C12.6119 24.264 12.3159 24.592 11.9239 24.832C11.5319 25.064 11.0479 25.18 10.4719 25.18ZM10.4719 23.392C10.6639 23.392 10.7999 23.332 10.8799 23.212C10.9679 23.084 11.0199 22.94 11.0359 22.78C11.0599 22.612 11.0719 22.468 11.0719 22.348V18.04C11.0719 17.904 11.0639 17.752 11.0479 17.584C11.0319 17.408 10.9799 17.256 10.8919 17.128C10.8119 16.992 10.6719 16.924 10.4719 16.924C10.2719 16.924 10.1279 16.992 10.0399 17.128C9.95988 17.256 9.91188 17.408 9.89588 17.584C9.87988 17.752 9.87188 17.904 9.87188 18.04V22.348C9.87188 22.468 9.88388 22.612 9.90788 22.78C9.93188 22.94 9.98388 23.084 10.0639 23.212C10.1519 23.332 10.2879 23.392 10.4719 23.392ZM17.0695 25.18C16.4855 25.18 15.9975 25.064 15.6055 24.832C15.2135 24.592 14.9175 24.264 14.7175 23.848C14.5175 23.432 14.4175 22.948 14.4175 22.396V17.992C14.4175 17.424 14.5095 16.928 14.6935 16.504C14.8855 16.072 15.1775 15.736 15.5695 15.496C15.9615 15.256 16.4615 15.136 17.0695 15.136C17.6775 15.136 18.1735 15.256 18.5575 15.496C18.9495 15.736 19.2375 16.072 19.4215 16.504C19.6135 16.928 19.7095 17.424 19.7095 17.992V22.396C19.7095 22.94 19.6095 23.424 19.4095 23.848C19.2095 24.264 18.9135 24.592 18.5215 24.832C18.1295 25.064 17.6455 25.18 17.0695 25.18ZM17.0695 23.392C17.2615 23.392 17.3975 23.332 17.4775 23.212C17.5655 23.084 17.6175 22.94 17.6335 22.78C17.6575 22.612 17.6695 22.468 17.6695 22.348V18.04C17.6695 17.904 17.6615 17.752 17.6455 17.584C17.6295 17.408 17.5775 17.256 17.4895 17.128C17.4095 16.992 17.2695 16.924 17.0695 16.924C16.8695 16.924 16.7255 16.992 16.6375 17.128C16.5575 17.256 16.5095 17.408 16.4935 17.584C16.4775 17.752 16.4695 17.904 16.4695 18.04V22.348C16.4695 22.468 16.4815 22.612 16.5055 22.78C16.5295 22.94 16.5815 23.084 16.6615 23.212C16.7495 23.332 16.8855 23.392 17.0695 23.392ZM24.0495 25V18.064H25.9695V18.616C26.2255 18.368 26.4895 18.192 26.7615 18.088C27.0415 17.984 27.3255 17.932 27.6135 17.932C27.8935 17.932 28.1335 18.004 28.3335 18.148C28.5415 18.284 28.6975 18.488 28.8015 18.76C29.0735 18.456 29.3575 18.244 29.6535 18.124C29.9575 17.996 30.2615 17.932 30.5655 17.932C30.8375 17.932 31.0735 18 31.2735 18.136C31.4735 18.264 31.6295 18.456 31.7415 18.712C31.8535 18.96 31.9095 19.26 31.9095 19.612V25H29.9895V19.816C29.9895 19.624 29.9535 19.488 29.8815 19.408C29.8175 19.32 29.7175 19.276 29.5815 19.276C29.5015 19.276 29.4015 19.3 29.2815 19.348C29.1615 19.388 29.0455 19.448 28.9335 19.528C28.9335 19.544 28.9335 19.56 28.9335 19.576C28.9335 19.584 28.9335 19.596 28.9335 19.612V25H27.0375V19.816C27.0375 19.624 27.0015 19.488 26.9295 19.408C26.8575 19.32 26.7535 19.276 26.6175 19.276C26.5295 19.276 26.4255 19.3 26.3055 19.348C26.1935 19.388 26.0815 19.448 25.9695 19.528V25H24.0495ZM33.0967 25V18.064H35.0527V25H33.0967ZM33.0847 16.888V15.532H35.0527V16.888H33.0847ZM36.2604 25V18.064H38.2164V18.76C38.4724 18.504 38.7364 18.304 39.0084 18.16C39.2884 18.016 39.5804 17.944 39.8844 17.944C40.1724 17.944 40.4084 18.016 40.5924 18.16C40.7844 18.296 40.9284 18.488 41.0244 18.736C41.1204 18.976 41.1684 19.252 41.1684 19.564V25H39.2244V19.84C39.2244 19.672 39.1964 19.544 39.1404 19.456C39.0844 19.368 38.9804 19.324 38.8284 19.324C38.7484 19.324 38.6524 19.348 38.5404 19.396C38.4364 19.436 38.3284 19.496 38.2164 19.576V25H36.2604ZM42.2825 25V23.152H44.1305V25H42.2825ZM50.8625 25.18C50.1825 25.18 49.6465 25.052 49.2545 24.796C48.8705 24.54 48.5945 24.184 48.4265 23.728C48.2665 23.264 48.1865 22.732 48.1865 22.132V21.784H50.1905C50.1905 21.792 50.1905 21.836 50.1905 21.916C50.1905 21.996 50.1905 22.068 50.1905 22.132C50.1905 22.452 50.2105 22.712 50.2505 22.912C50.2905 23.112 50.3625 23.26 50.4665 23.356C50.5705 23.444 50.7145 23.488 50.8985 23.488C51.0825 23.488 51.2185 23.44 51.3065 23.344C51.4025 23.248 51.4665 23.104 51.4985 22.912C51.5305 22.72 51.5465 22.48 51.5465 22.192C51.5465 21.712 51.4785 21.348 51.3425 21.1C51.2145 20.844 50.9425 20.712 50.5265 20.704C50.5185 20.704 50.4745 20.704 50.3945 20.704C50.3145 20.704 50.2345 20.704 50.1545 20.704V19.324C50.2105 19.324 50.2665 19.324 50.3225 19.324C50.3785 19.324 50.4305 19.324 50.4785 19.324C50.9025 19.324 51.1865 19.208 51.3305 18.976C51.4745 18.744 51.5465 18.384 51.5465 17.896C51.5465 17.52 51.4945 17.232 51.3905 17.032C51.2945 16.832 51.1105 16.732 50.8385 16.732C50.5745 16.732 50.3985 16.844 50.3105 17.068C50.2305 17.292 50.1905 17.58 50.1905 17.932C50.1905 18.012 50.1905 18.096 50.1905 18.184C50.1905 18.264 50.1905 18.348 50.1905 18.436H48.1865V17.848C48.1865 17.264 48.2905 16.772 48.4985 16.372C48.7145 15.964 49.0185 15.656 49.4105 15.448C49.8105 15.24 50.2865 15.136 50.8385 15.136C51.3985 15.136 51.8785 15.236 52.2785 15.436C52.6785 15.636 52.9865 15.932 53.2025 16.324C53.4185 16.708 53.5265 17.188 53.5265 17.764C53.5265 18.332 53.4105 18.808 53.1785 19.192C52.9465 19.576 52.6665 19.812 52.3385 19.9C52.5625 19.98 52.7625 20.108 52.9385 20.284C53.1225 20.46 53.2665 20.7 53.3705 21.004C53.4745 21.3 53.5265 21.68 53.5265 22.144C53.5265 22.736 53.4385 23.26 53.2625 23.716C53.0945 24.172 52.8145 24.532 52.4225 24.796C52.0305 25.052 51.5105 25.18 50.8625 25.18ZM57.1945 25.18C56.6105 25.18 56.1225 25.064 55.7305 24.832C55.3385 24.592 55.0425 24.264 54.8425 23.848C54.6425 23.432 54.5425 22.948 54.5425 22.396V17.992C54.5425 17.424 54.6345 16.928 54.8185 16.504C55.0105 16.072 55.3025 15.736 55.6945 15.496C56.0865 15.256 56.5865 15.136 57.1945 15.136C57.8025 15.136 58.2985 15.256 58.6825 15.496C59.0745 15.736 59.3625 16.072 59.5465 16.504C59.7385 16.928 59.8345 17.424 59.8345 17.992V22.396C59.8345 22.94 59.7345 23.424 59.5345 23.848C59.3345 24.264 59.0385 24.592 58.6465 24.832C58.2545 25.064 57.7705 25.18 57.1945 25.18ZM57.1945 23.392C57.3865 23.392 57.5225 23.332 57.6025 23.212C57.6905 23.084 57.7425 22.94 57.7585 22.78C57.7825 22.612 57.7945 22.468 57.7945 22.348V18.04C57.7945 17.904 57.7865 17.752 57.7705 17.584C57.7545 17.408 57.7025 17.256 57.6145 17.128C57.5345 16.992 57.3945 16.924 57.1945 16.924C56.9945 16.924 56.8505 16.992 56.7625 17.128C56.6825 17.256 56.6345 17.408 56.6185 17.584C56.6025 17.752 56.5945 17.904 56.5945 18.04V22.348C56.5945 22.468 56.6065 22.612 56.6305 22.78C56.6545 22.94 56.7065 23.084 56.7865 23.212C56.8745 23.332 57.0105 23.392 57.1945 23.392ZM66.3105 25.12C65.7025 25.12 65.1945 24.984 64.7865 24.712C64.3865 24.44 64.0585 23.996 63.8025 23.38L65.1345 22.792C65.2625 23.104 65.4105 23.352 65.5785 23.536C65.7545 23.712 65.9465 23.8 66.1545 23.8C66.3065 23.8 66.4185 23.768 66.4905 23.704C66.5705 23.64 66.6105 23.552 66.6105 23.44C66.6105 23.256 66.5385 23.088 66.3945 22.936C66.2585 22.784 66.0105 22.56 65.6505 22.264L65.1465 21.844C64.7785 21.532 64.4865 21.232 64.2705 20.944C64.0625 20.648 63.9585 20.284 63.9585 19.852C63.9585 19.476 64.0545 19.144 64.2465 18.856C64.4465 18.568 64.7105 18.344 65.0385 18.184C65.3665 18.024 65.7185 17.944 66.0945 17.944C66.6625 17.944 67.1385 18.1 67.5225 18.412C67.9065 18.724 68.1745 19.164 68.3265 19.732L67.0665 20.308C67.0185 20.156 66.9505 20.004 66.8625 19.852C66.7745 19.7 66.6665 19.572 66.5385 19.468C66.4185 19.364 66.2865 19.312 66.1425 19.312C66.0145 19.312 65.9105 19.348 65.8305 19.42C65.7585 19.492 65.7225 19.588 65.7225 19.708C65.7225 19.86 65.8065 20.024 65.9745 20.2C66.1505 20.376 66.3905 20.588 66.6945 20.836L67.1865 21.268C67.3865 21.436 67.5825 21.616 67.7745 21.808C67.9665 22 68.1225 22.212 68.2425 22.444C68.3705 22.676 68.4345 22.94 68.4345 23.236C68.4345 23.636 68.3345 23.98 68.1345 24.268C67.9345 24.548 67.6705 24.76 67.3425 24.904C67.0225 25.048 66.6785 25.12 66.3105 25.12ZM71.5284 25.12C71.0244 25.12 70.5924 25.032 70.2324 24.856C69.8724 24.672 69.5964 24.408 69.4044 24.064C69.2124 23.712 69.1164 23.292 69.1164 22.804V20.26C69.1164 19.764 69.2124 19.344 69.4044 19C69.5964 18.656 69.8724 18.396 70.2324 18.22C70.6004 18.036 71.0324 17.944 71.5284 17.944C72.0404 17.944 72.4644 18.032 72.8004 18.208C73.1444 18.384 73.4004 18.644 73.5684 18.988C73.7444 19.332 73.8324 19.756 73.8324 20.26V21.652H71.0484V22.984C71.0484 23.16 71.0684 23.304 71.1084 23.416C71.1484 23.528 71.2044 23.608 71.2764 23.656C71.3484 23.704 71.4324 23.728 71.5284 23.728C71.6244 23.728 71.7084 23.708 71.7804 23.668C71.8604 23.62 71.9204 23.548 71.9604 23.452C72.0084 23.356 72.0324 23.224 72.0324 23.056V22.324H73.8324V22.996C73.8324 23.7 73.6284 24.232 73.2204 24.592C72.8124 24.944 72.2484 25.12 71.5284 25.12ZM71.0484 20.74H72.0324V20.044C72.0324 19.86 72.0084 19.716 71.9604 19.612C71.9204 19.508 71.8604 19.436 71.7804 19.396C71.7084 19.356 71.6204 19.336 71.5164 19.336C71.4204 19.336 71.3364 19.36 71.2644 19.408C71.2004 19.456 71.1484 19.54 71.1084 19.66C71.0684 19.772 71.0484 19.936 71.0484 20.152V20.74ZM77.1532 25.12C76.6492 25.12 76.2172 25.028 75.8572 24.844C75.5052 24.66 75.2332 24.396 75.0412 24.052C74.8492 23.708 74.7532 23.292 74.7532 22.804V20.26C74.7532 19.764 74.8492 19.344 75.0412 19C75.2332 18.656 75.5052 18.396 75.8572 18.22C76.2172 18.036 76.6492 17.944 77.1532 17.944C77.6492 17.944 78.0692 18.02 78.4132 18.172C78.7652 18.324 79.0332 18.556 79.2172 18.868C79.4012 19.172 79.4932 19.56 79.4932 20.032V20.764H77.6092V19.972C77.6092 19.788 77.5892 19.648 77.5492 19.552C77.5172 19.448 77.4652 19.376 77.3932 19.336C77.3292 19.296 77.2492 19.276 77.1532 19.276C77.0572 19.276 76.9772 19.304 76.9132 19.36C76.8492 19.408 76.8012 19.492 76.7692 19.612C76.7372 19.724 76.7212 19.884 76.7212 20.092V22.972C76.7212 23.284 76.7572 23.496 76.8292 23.608C76.9092 23.72 77.0212 23.776 77.1652 23.776C77.2692 23.776 77.3532 23.756 77.4172 23.716C77.4812 23.668 77.5292 23.596 77.5612 23.5C77.5932 23.396 77.6092 23.26 77.6092 23.092V22.168H79.4932V23.008C79.4932 23.472 79.3972 23.864 79.2052 24.184C79.0212 24.496 78.7532 24.732 78.4012 24.892C78.0572 25.044 77.6412 25.12 77.1532 25.12ZM80.4504 25V23.152H82.2984V25H80.4504Z"></path>
</svg>
