<svg xmlns="http://www.w3.org/2000/svg" fill="none" viewBox="0 0 156 56" height="56" width="156">
<rect stroke="white" fill="#0D0E12" height="55" width="155" y="0.5" x="0.5"></rect>
<path fill="white" d="M41.0005 16V10.22H42.6305V16H41.0005ZM40.9905 9.24V8.11H42.6305V9.24H40.9905ZM45.417 16.1C44.9103 16.1 44.487 15.9867 44.147 15.76C43.8136 15.5333 43.5403 15.1633 43.327 14.65L44.437 14.16C44.5436 14.42 44.667 14.6267 44.807 14.78C44.9536 14.9267 45.1136 15 45.287 15C45.4136 15 45.507 14.9733 45.567 14.92C45.6336 14.8667 45.667 14.7933 45.667 14.7C45.667 14.5467 45.607 14.4067 45.487 14.28C45.3736 14.1533 45.167 13.9667 44.867 13.72L44.447 13.37C44.1403 13.11 43.897 12.86 43.717 12.62C43.5436 12.3733 43.457 12.07 43.457 11.71C43.457 11.3967 43.537 11.12 43.697 10.88C43.8636 10.64 44.0836 10.4533 44.357 10.32C44.6303 10.1867 44.9236 10.12 45.237 10.12C45.7103 10.12 46.107 10.25 46.427 10.51C46.747 10.77 46.9703 11.1367 47.097 11.61L46.047 12.09C46.007 11.9633 45.9503 11.8367 45.877 11.71C45.8036 11.5833 45.7136 11.4767 45.607 11.39C45.507 11.3033 45.397 11.26 45.277 11.26C45.1703 11.26 45.0836 11.29 45.017 11.35C44.957 11.41 44.927 11.49 44.927 11.59C44.927 11.7167 44.997 11.8533 45.137 12C45.2836 12.1467 45.4836 12.3233 45.737 12.53L46.147 12.89C46.3136 13.03 46.477 13.18 46.637 13.34C46.797 13.5 46.927 13.6767 47.027 13.87C47.1336 14.0633 47.187 14.2833 47.187 14.53C47.187 14.8633 47.1036 15.15 46.937 15.39C46.7703 15.6233 46.5503 15.8 46.277 15.92C46.0103 16.04 45.7236 16.1 45.417 16.1ZM52.3138 18C51.8805 18 51.5038 17.9567 51.1838 17.87C50.8638 17.7833 50.6138 17.6533 50.4338 17.48C50.2605 17.3067 50.1738 17.0867 50.1738 16.82C50.1738 16.64 50.2105 16.4767 50.2838 16.33C50.3638 16.19 50.4705 16.0667 50.6038 15.96C50.7438 15.8467 50.9005 15.75 51.0738 15.67C50.8205 15.5967 50.6238 15.4867 50.4838 15.34C50.3438 15.1933 50.2738 14.9967 50.2738 14.75C50.2738 14.5167 50.3305 14.3167 50.4438 14.15C50.5572 13.9767 50.7138 13.8033 50.9138 13.63C50.7272 13.4633 50.5838 13.26 50.4838 13.02C50.3905 12.7733 50.3438 12.4767 50.3438 12.13C50.3438 11.6967 50.4238 11.33 50.5838 11.03C50.7438 10.73 50.9772 10.5033 51.2838 10.35C51.5972 10.1967 51.9738 10.12 52.4138 10.12C52.7138 10.12 52.9772 10.1567 53.2038 10.23C53.4305 10.3033 53.6238 10.4167 53.7838 10.57C53.8572 10.4567 53.9538 10.3467 54.0738 10.24C54.1938 10.1333 54.3305 10.0433 54.4838 9.97L54.6938 9.87L55.0738 10.65C55.0138 10.67 54.9305 10.7033 54.8238 10.75C54.7172 10.7967 54.6038 10.8467 54.4838 10.9C54.3705 10.9533 54.2672 11.0067 54.1738 11.06C54.2472 11.2067 54.3038 11.3733 54.3438 11.56C54.3838 11.7467 54.4038 11.94 54.4038 12.14C54.4038 12.5533 54.3272 12.91 54.1738 13.21C54.0272 13.51 53.8072 13.74 53.5138 13.9C53.2205 14.0533 52.8538 14.13 52.4138 14.13C52.2272 14.13 52.0505 14.1167 51.8838 14.09C51.7172 14.0567 51.5638 14.0167 51.4238 13.97C51.3838 14.0233 51.3472 14.08 51.3138 14.14C51.2872 14.1933 51.2738 14.2533 51.2738 14.32C51.2738 14.4 51.3138 14.4633 51.3938 14.51C51.4738 14.5567 51.6172 14.5933 51.8238 14.62L53.3438 14.79C53.8372 14.8433 54.2005 15.0033 54.4338 15.27C54.6672 15.53 54.7838 15.8733 54.7838 16.3C54.7838 16.6667 54.7005 16.9767 54.5338 17.23C54.3738 17.4833 54.1105 17.6733 53.7438 17.8C53.3838 17.9333 52.9072 18 52.3138 18ZM52.5238 16.82C52.8905 16.82 53.1705 16.79 53.3638 16.73C53.5638 16.67 53.6638 16.5467 53.6638 16.36C53.6638 16.2667 53.6372 16.19 53.5838 16.13C53.5305 16.0767 53.4405 16.0333 53.3138 16C53.1938 15.96 53.0205 15.93 52.7938 15.91L51.7238 15.8C51.6572 15.8467 51.5972 15.9 51.5438 15.96C51.4972 16.0133 51.4572 16.07 51.4238 16.13C51.3972 16.1967 51.3838 16.2667 51.3838 16.34C51.3838 16.5 51.4705 16.62 51.6438 16.7C51.8172 16.78 52.1105 16.82 52.5238 16.82ZM52.4138 13.16C52.5072 13.16 52.5838 13.1433 52.6438 13.11C52.7038 13.07 52.7472 13.01 52.7738 12.93C52.8072 12.85 52.8305 12.7433 52.8438 12.61C52.8572 12.4767 52.8638 12.3167 52.8638 12.13C52.8638 11.9367 52.8572 11.7767 52.8438 11.65C52.8305 11.5167 52.8072 11.41 52.7738 11.33C52.7472 11.2433 52.7038 11.1833 52.6438 11.15C52.5838 11.11 52.5072 11.09 52.4138 11.09C52.3205 11.09 52.2438 11.11 52.1838 11.15C52.1238 11.1833 52.0772 11.24 52.0438 11.32C52.0172 11.4 51.9972 11.5067 51.9838 11.64C51.9705 11.7733 51.9638 11.9367 51.9638 12.13C51.9638 12.3167 51.9705 12.4767 51.9838 12.61C51.9972 12.7367 52.0172 12.8433 52.0438 12.93C52.0772 13.01 52.1238 13.07 52.1838 13.11C52.2438 13.1433 52.3205 13.16 52.4138 13.16ZM55.4536 16V10.22H57.0836V16H55.4536ZM55.4436 9.24V8.11H57.0836V9.24H55.4436ZM58.8401 16L57.6801 10.22H59.2401L59.7201 13.91L60.1601 10.22H61.7201L60.5301 16H58.8401ZM64.1891 16.1C63.7691 16.1 63.4091 16.0267 63.1091 15.88C62.8091 15.7267 62.5791 15.5067 62.4191 15.22C62.2591 14.9267 62.1791 14.5767 62.1791 14.17V12.05C62.1791 11.6367 62.2591 11.2867 62.4191 11C62.5791 10.7133 62.8091 10.4967 63.1091 10.35C63.4157 10.1967 63.7757 10.12 64.1891 10.12C64.6157 10.12 64.9691 10.1933 65.2491 10.34C65.5357 10.4867 65.7491 10.7033 65.8891 10.99C66.0357 11.2767 66.1091 11.63 66.1091 12.05V13.21H63.7891V14.32C63.7891 14.4667 63.8057 14.5867 63.8391 14.68C63.8724 14.7733 63.9191 14.84 63.9791 14.88C64.0391 14.92 64.1091 14.94 64.1891 14.94C64.2691 14.94 64.3391 14.9233 64.3991 14.89C64.4657 14.85 64.5157 14.79 64.5491 14.71C64.5891 14.63 64.6091 14.52 64.6091 14.38V13.77H66.1091V14.33C66.1091 14.9167 65.9391 15.36 65.5991 15.66C65.2591 15.9533 64.7891 16.1 64.1891 16.1ZM63.7891 12.45H64.6091V11.87C64.6091 11.7167 64.5891 11.5967 64.5491 11.51C64.5157 11.4233 64.4657 11.3633 64.3991 11.33C64.3391 11.2967 64.2657 11.28 64.1791 11.28C64.0991 11.28 64.0291 11.3 63.9691 11.34C63.9157 11.38 63.8724 11.45 63.8391 11.55C63.8057 11.6433 63.7891 11.78 63.7891 11.96V12.45ZM66.9963 16V10.22H68.6263V10.8C68.8397 10.5867 69.0597 10.42 69.2863 10.3C69.5197 10.18 69.763 10.12 70.0163 10.12C70.2563 10.12 70.453 10.18 70.6063 10.3C70.7663 10.4133 70.8863 10.5733 70.9663 10.78C71.0463 10.98 71.0863 11.21 71.0863 11.47V16H69.4663V11.7C69.4663 11.56 69.443 11.4533 69.3963 11.38C69.3497 11.3067 69.263 11.27 69.1363 11.27C69.0697 11.27 68.9897 11.29 68.8963 11.33C68.8097 11.3633 68.7197 11.4133 68.6263 11.48V16H66.9963ZM76.4133 16.06C75.9799 16.06 75.6433 15.9967 75.4033 15.87C75.1699 15.7433 75.0099 15.56 74.9233 15.32C74.8366 15.0733 74.7933 14.7767 74.7933 14.43V11.29H74.2333V10.22H74.7933V8.46H76.4433V10.22H77.2633V11.29H76.4433V14.27C76.4433 14.4367 76.4899 14.5567 76.5833 14.63C76.6833 14.7033 76.8066 14.74 76.9533 14.74C77.0399 14.74 77.1199 14.7367 77.1933 14.73C77.2666 14.7167 77.3333 14.7067 77.3933 14.7V15.98C77.3066 15.9933 77.1699 16.01 76.9833 16.03C76.7966 16.05 76.6066 16.06 76.4133 16.06ZM80.0584 16.1C79.6451 16.1 79.2851 16.03 78.9784 15.89C78.6784 15.75 78.4451 15.54 78.2784 15.26C78.1184 14.98 78.0384 14.63 78.0384 14.21V12.01C78.0384 11.59 78.1184 11.24 78.2784 10.96C78.4451 10.68 78.6784 10.47 78.9784 10.33C79.2851 10.19 79.6451 10.12 80.0584 10.12C80.4718 10.12 80.8284 10.19 81.1284 10.33C81.4351 10.47 81.6718 10.68 81.8384 10.96C82.0051 11.24 82.0884 11.59 82.0884 12.01V14.21C82.0884 14.63 82.0051 14.98 81.8384 15.26C81.6718 15.54 81.4351 15.75 81.1284 15.89C80.8284 16.03 80.4718 16.1 80.0584 16.1ZM80.0684 15.02C80.1751 15.02 80.2584 14.9933 80.3184 14.94C80.3784 14.88 80.4184 14.8 80.4384 14.7C80.4651 14.5933 80.4784 14.4667 80.4784 14.32V11.9C80.4784 11.7533 80.4651 11.63 80.4384 11.53C80.4184 11.4233 80.3784 11.3433 80.3184 11.29C80.2584 11.23 80.1751 11.2 80.0684 11.2C79.9618 11.2 79.8784 11.23 79.8184 11.29C79.7584 11.3433 79.7151 11.4233 79.6884 11.53C79.6618 11.63 79.6484 11.7533 79.6484 11.9V14.32C79.6484 14.4667 79.6618 14.5933 79.6884 14.7C79.7151 14.8 79.7584 14.88 79.8184 14.94C79.8784 14.9933 79.9618 15.02 80.0684 15.02ZM87.341 16.06C86.9077 16.06 86.571 15.9967 86.331 15.87C86.0977 15.7433 85.9377 15.56 85.851 15.32C85.7643 15.0733 85.721 14.7767 85.721 14.43V11.29H85.161V10.22H85.721V8.46H87.371V10.22H88.191V11.29H87.371V14.27C87.371 14.4367 87.4177 14.5567 87.511 14.63C87.611 14.7033 87.7343 14.74 87.881 14.74C87.9677 14.74 88.0477 14.7367 88.121 14.73C88.1943 14.7167 88.261 14.7067 88.321 14.7V15.98C88.2343 15.9933 88.0977 16.01 87.911 16.03C87.7243 16.05 87.5343 16.06 87.341 16.06ZM89.0962 16V7.9H90.7162V10.73C90.9295 10.5167 91.1528 10.3633 91.3862 10.27C91.6195 10.17 91.8695 10.12 92.1362 10.12C92.3695 10.12 92.5628 10.18 92.7162 10.3C92.8762 10.4133 92.9962 10.5733 93.0762 10.78C93.1562 10.98 93.1962 11.21 93.1962 11.47V16H91.5762V11.7C91.5762 11.56 91.5528 11.4533 91.5062 11.38C91.4595 11.3067 91.3728 11.27 91.2462 11.27C91.1795 11.27 91.0995 11.29 91.0062 11.33C90.9128 11.3633 90.8162 11.4133 90.7162 11.48V16H89.0962ZM96.0641 16.1C95.6441 16.1 95.2841 16.0267 94.9841 15.88C94.6841 15.7267 94.4541 15.5067 94.2941 15.22C94.1341 14.9267 94.0541 14.5767 94.0541 14.17V12.05C94.0541 11.6367 94.1341 11.2867 94.2941 11C94.4541 10.7133 94.6841 10.4967 94.9841 10.35C95.2907 10.1967 95.6507 10.12 96.0641 10.12C96.4907 10.12 96.8441 10.1933 97.1241 10.34C97.4107 10.4867 97.6241 10.7033 97.7641 10.99C97.9107 11.2767 97.9841 11.63 97.9841 12.05V13.21H95.6641V14.32C95.6641 14.4667 95.6807 14.5867 95.7141 14.68C95.7474 14.7733 95.7941 14.84 95.8541 14.88C95.9141 14.92 95.9841 14.94 96.0641 14.94C96.1441 14.94 96.2141 14.9233 96.2741 14.89C96.3407 14.85 96.3907 14.79 96.4241 14.71C96.4641 14.63 96.4841 14.52 96.4841 14.38V13.77H97.9841V14.33C97.9841 14.9167 97.8141 15.36 97.4741 15.66C97.1341 15.9533 96.6641 16.1 96.0641 16.1ZM95.6641 12.45H96.4841V11.87C96.4841 11.7167 96.4641 11.5967 96.4241 11.51C96.3907 11.4233 96.3407 11.3633 96.2741 11.33C96.2141 11.2967 96.1407 11.28 96.0541 11.28C95.9741 11.28 95.9041 11.3 95.8441 11.34C95.7907 11.38 95.7474 11.45 95.7141 11.55C95.6807 11.6433 95.6641 11.78 95.6641 11.96V12.45ZM103.33 16.1C102.917 16.1 102.557 16.03 102.25 15.89C101.95 15.75 101.717 15.54 101.55 15.26C101.39 14.98 101.31 14.63 101.31 14.21V12.01C101.31 11.59 101.39 11.24 101.55 10.96C101.717 10.68 101.95 10.47 102.25 10.33C102.557 10.19 102.917 10.12 103.33 10.12C103.743 10.12 104.1 10.19 104.4 10.33C104.707 10.47 104.943 10.68 105.11 10.96C105.277 11.24 105.36 11.59 105.36 12.01V14.21C105.36 14.63 105.277 14.98 105.11 15.26C104.943 15.54 104.707 15.75 104.4 15.89C104.1 16.03 103.743 16.1 103.33 16.1ZM103.34 15.02C103.447 15.02 103.53 14.9933 103.59 14.94C103.65 14.88 103.69 14.8 103.71 14.7C103.737 14.5933 103.75 14.4667 103.75 14.32V11.9C103.75 11.7533 103.737 11.63 103.71 11.53C103.69 11.4233 103.65 11.3433 103.59 11.29C103.53 11.23 103.447 11.2 103.34 11.2C103.233 11.2 103.15 11.23 103.09 11.29C103.03 11.3433 102.987 11.4233 102.96 11.53C102.933 11.63 102.92 11.7533 102.92 11.9V14.32C102.92 14.4667 102.933 14.5933 102.96 14.7C102.987 14.8 103.03 14.88 103.09 14.94C103.15 14.9933 103.233 15.02 103.34 15.02ZM106.264 16V10.22H107.894V10.8C108.107 10.5867 108.327 10.42 108.554 10.3C108.787 10.18 109.031 10.12 109.284 10.12C109.524 10.12 109.721 10.18 109.874 10.3C110.034 10.4133 110.154 10.5733 110.234 10.78C110.314 10.98 110.354 11.21 110.354 11.47V16H108.734V11.7C108.734 11.56 108.711 11.4533 108.664 11.38C108.617 11.3067 108.531 11.27 108.404 11.27C108.337 11.27 108.257 11.29 108.164 11.33C108.077 11.3633 107.987 11.4133 107.894 11.48V16H106.264ZM113.222 16.1C112.802 16.1 112.442 16.0267 112.142 15.88C111.842 15.7267 111.612 15.5067 111.452 15.22C111.292 14.9267 111.212 14.5767 111.212 14.17V12.05C111.212 11.6367 111.292 11.2867 111.452 11C111.612 10.7133 111.842 10.4967 112.142 10.35C112.449 10.1967 112.809 10.12 113.222 10.12C113.649 10.12 114.002 10.1933 114.282 10.34C114.569 10.4867 114.782 10.7033 114.922 10.99C115.069 11.2767 115.142 11.63 115.142 12.05V13.21H112.822V14.32C112.822 14.4667 112.839 14.5867 112.872 14.68C112.906 14.7733 112.952 14.84 113.012 14.88C113.072 14.92 113.142 14.94 113.222 14.94C113.302 14.94 113.372 14.9233 113.432 14.89C113.499 14.85 113.549 14.79 113.582 14.71C113.622 14.63 113.642 14.52 113.642 14.38V13.77H115.142V14.33C115.142 14.9167 114.972 15.36 114.632 15.66C114.292 15.9533 113.822 16.1 113.222 16.1ZM112.822 12.45H113.642V11.87C113.642 11.7167 113.622 11.5967 113.582 11.51C113.549 11.4233 113.499 11.3633 113.432 11.33C113.372 11.2967 113.299 11.28 113.212 11.28C113.132 11.28 113.062 11.3 113.002 11.34C112.949 11.38 112.906 11.45 112.872 11.55C112.839 11.6433 112.822 11.78 112.822 11.96V12.45ZM36.101 31L35.251 25.22H36.611L37.031 28.5L37.481 25.22H38.661L39.051 28.58L39.541 25.22H40.801L39.941 31H38.541L38.041 27.75L37.481 31H36.101ZM41.5278 31V22.9H43.1478V25.73C43.3611 25.5167 43.5845 25.3633 43.8178 25.27C44.0511 25.17 44.3011 25.12 44.5678 25.12C44.8011 25.12 44.9945 25.18 45.1478 25.3C45.3078 25.4133 45.4278 25.5733 45.5078 25.78C45.5878 25.98 45.6278 26.21 45.6278 26.47V31H44.0078V26.7C44.0078 26.56 43.9845 26.4533 43.9378 26.38C43.8911 26.3067 43.8045 26.27 43.6778 26.27C43.6111 26.27 43.5311 26.29 43.4378 26.33C43.3445 26.3633 43.2478 26.4133 43.1478 26.48V31H41.5278ZM48.5057 31.1C48.0924 31.1 47.7324 31.03 47.4257 30.89C47.1257 30.75 46.8924 30.54 46.7257 30.26C46.5657 29.98 46.4857 29.63 46.4857 29.21V27.01C46.4857 26.59 46.5657 26.24 46.7257 25.96C46.8924 25.68 47.1257 25.47 47.4257 25.33C47.7324 25.19 48.0924 25.12 48.5057 25.12C48.919 25.12 49.2757 25.19 49.5757 25.33C49.8824 25.47 50.119 25.68 50.2857 25.96C50.4524 26.24 50.5357 26.59 50.5357 27.01V29.21C50.5357 29.63 50.4524 29.98 50.2857 30.26C50.119 30.54 49.8824 30.75 49.5757 30.89C49.2757 31.03 48.919 31.1 48.5057 31.1ZM48.5157 30.02C48.6224 30.02 48.7057 29.9933 48.7657 29.94C48.8257 29.88 48.8657 29.8 48.8857 29.7C48.9124 29.5933 48.9257 29.4667 48.9257 29.32V26.9C48.9257 26.7533 48.9124 26.63 48.8857 26.53C48.8657 26.4233 48.8257 26.3433 48.7657 26.29C48.7057 26.23 48.6224 26.2 48.5157 26.2C48.409 26.2 48.3257 26.23 48.2657 26.29C48.2057 26.3433 48.1624 26.4233 48.1357 26.53C48.109 26.63 48.0957 26.7533 48.0957 26.9V29.32C48.0957 29.4667 48.109 29.5933 48.1357 29.7C48.1624 29.8 48.2057 29.88 48.2657 29.94C48.3257 29.9933 48.409 30.02 48.5157 30.02ZM54.5483 31L53.6983 25.22H55.0583L55.4783 28.5L55.9283 25.22H57.1083L57.4983 28.58L57.9883 25.22H59.2483L58.3883 31H56.9883L56.4883 27.75L55.9283 31H54.5483ZM59.9751 31V25.22H61.6051V31H59.9751ZM59.9651 24.24V23.11H61.6051V24.24H59.9651ZM62.6816 31V22.9H64.3016V31H62.6816ZM65.4257 31V22.9H67.0457V31H65.4257ZM71.9084 31.1C71.4818 31.1 71.1518 30.95 70.9184 30.65C70.6851 30.35 70.5684 29.9067 70.5684 29.32V26.93C70.5684 26.57 70.6184 26.2567 70.7184 25.99C70.8184 25.7167 70.9684 25.5033 71.1684 25.35C71.3684 25.1967 71.6151 25.12 71.9084 25.12C72.1218 25.12 72.3251 25.1633 72.5184 25.25C72.7118 25.33 72.8884 25.44 73.0484 25.58V22.9H74.6784V31H73.0484V30.55C72.8684 30.7233 72.6818 30.86 72.4884 30.96C72.2951 31.0533 72.1018 31.1 71.9084 31.1ZM72.6184 30.06C72.6718 30.06 72.7351 30.0467 72.8084 30.02C72.8884 29.9933 72.9684 29.9567 73.0484 29.91V26.26C72.9818 26.2267 72.9118 26.1967 72.8384 26.17C72.7651 26.1433 72.6951 26.13 72.6284 26.13C72.4818 26.13 72.3751 26.1933 72.3084 26.32C72.2418 26.44 72.2084 26.5867 72.2084 26.76V29.42C72.2084 29.54 72.2218 29.65 72.2484 29.75C72.2751 29.8433 72.3184 29.92 72.3784 29.98C72.4384 30.0333 72.5184 30.06 72.6184 30.06ZM77.5777 31.1C77.1577 31.1 76.7977 31.0267 76.4977 30.88C76.1977 30.7267 75.9677 30.5067 75.8077 30.22C75.6477 29.9267 75.5677 29.5767 75.5677 29.17V27.05C75.5677 26.6367 75.6477 26.2867 75.8077 26C75.9677 25.7133 76.1977 25.4967 76.4977 25.35C76.8044 25.1967 77.1644 25.12 77.5777 25.12C78.0044 25.12 78.3577 25.1933 78.6377 25.34C78.9244 25.4867 79.1377 25.7033 79.2777 25.99C79.4244 26.2767 79.4977 26.63 79.4977 27.05V28.21H77.1777V29.32C77.1777 29.4667 77.1944 29.5867 77.2277 29.68C77.2611 29.7733 77.3077 29.84 77.3677 29.88C77.4277 29.92 77.4977 29.94 77.5777 29.94C77.6577 29.94 77.7277 29.9233 77.7877 29.89C77.8544 29.85 77.9044 29.79 77.9377 29.71C77.9777 29.63 77.9977 29.52 77.9977 29.38V28.77H79.4977V29.33C79.4977 29.9167 79.3277 30.36 78.9877 30.66C78.6477 30.9533 78.1777 31.1 77.5777 31.1ZM77.1777 27.45H77.9977V26.87C77.9977 26.7167 77.9777 26.5967 77.9377 26.51C77.9044 26.4233 77.8544 26.3633 77.7877 26.33C77.7277 26.2967 77.6544 26.28 77.5677 26.28C77.4877 26.28 77.4177 26.3 77.3577 26.34C77.3044 26.38 77.2611 26.45 77.2277 26.55C77.1944 26.6433 77.1777 26.78 77.1777 26.96V27.45ZM80.595 31V26.32H80.045V25.22H80.595V24.79C80.595 24.45 80.6283 24.1533 80.695 23.9C80.7683 23.6467 80.915 23.45 81.135 23.31C81.3617 23.17 81.7083 23.1 82.175 23.1C82.3017 23.1 82.425 23.1033 82.545 23.11C82.6717 23.1167 82.8083 23.13 82.955 23.15V24.36C82.9083 24.3467 82.8517 24.3367 82.785 24.33C82.725 24.3167 82.665 24.31 82.605 24.31C82.485 24.31 82.3917 24.3467 82.325 24.42C82.2583 24.4867 82.225 24.6 82.225 24.76V25.22H82.955V26.32H82.225V31H80.595ZM85.4781 31.1C85.0581 31.1 84.6981 31.0267 84.3981 30.88C84.0981 30.7267 83.8681 30.5067 83.7081 30.22C83.5481 29.9267 83.4681 29.5767 83.4681 29.17V27.05C83.4681 26.6367 83.5481 26.2867 83.7081 26C83.8681 25.7133 84.0981 25.4967 84.3981 25.35C84.7048 25.1967 85.0648 25.12 85.4781 25.12C85.9048 25.12 86.2581 25.1933 86.5381 25.34C86.8248 25.4867 87.0381 25.7033 87.1781 25.99C87.3248 26.2767 87.3981 26.63 87.3981 27.05V28.21H85.0781V29.32C85.0781 29.4667 85.0948 29.5867 85.1281 29.68C85.1615 29.7733 85.2081 29.84 85.2681 29.88C85.3281 29.92 85.3981 29.94 85.4781 29.94C85.5581 29.94 85.6281 29.9233 85.6881 29.89C85.7548 29.85 85.8048 29.79 85.8381 29.71C85.8781 29.63 85.8981 29.52 85.8981 29.38V28.77H87.3981V29.33C87.3981 29.9167 87.2281 30.36 86.8881 30.66C86.5481 30.9533 86.0781 31.1 85.4781 31.1ZM85.0781 27.45H85.8981V26.87C85.8981 26.7167 85.8781 26.5967 85.8381 26.51C85.8048 26.4233 85.7548 26.3633 85.6881 26.33C85.6281 26.2967 85.5548 26.28 85.4681 26.28C85.3881 26.28 85.3181 26.3 85.2581 26.34C85.2048 26.38 85.1615 26.45 85.1281 26.55C85.0948 26.6433 85.0781 26.78 85.0781 26.96V27.45ZM89.4754 31.1C89.1821 31.1 88.9354 31.03 88.7354 30.89C88.5354 30.75 88.3854 30.5733 88.2854 30.36C88.1854 30.14 88.1354 29.9167 88.1354 29.69C88.1354 29.33 88.2054 29.0267 88.3454 28.78C88.4921 28.5333 88.6821 28.3267 88.9154 28.16C89.1487 27.9933 89.4054 27.8533 89.6854 27.74C89.9654 27.62 90.2421 27.5133 90.5154 27.42V26.84C90.5154 26.74 90.5054 26.6533 90.4854 26.58C90.4654 26.5 90.4321 26.44 90.3854 26.4C90.3387 26.3533 90.2687 26.33 90.1754 26.33C90.0821 26.33 90.0087 26.35 89.9554 26.39C89.9087 26.43 89.8754 26.4867 89.8554 26.56C89.8354 26.6267 89.8221 26.7033 89.8154 26.79L89.7754 27.21L88.2554 27.15C88.2887 26.4567 88.4721 25.9467 88.8054 25.62C89.1454 25.2867 89.6521 25.12 90.3254 25.12C90.9121 25.12 91.3487 25.2833 91.6354 25.61C91.9287 25.93 92.0754 26.3467 92.0754 26.86V29.56C92.0754 29.8 92.0787 30.01 92.0854 30.19C92.0987 30.37 92.1121 30.5267 92.1254 30.66C92.1454 30.7933 92.1621 30.9067 92.1754 31H90.7154C90.6954 30.8467 90.6721 30.68 90.6454 30.5C90.6187 30.32 90.5987 30.2133 90.5854 30.18C90.5187 30.42 90.3921 30.6333 90.2054 30.82C90.0254 31.0067 89.7821 31.1 89.4754 31.1ZM90.0554 30C90.1221 30 90.1821 29.9867 90.2354 29.96C90.2954 29.9333 90.3487 29.8967 90.3954 29.85C90.4421 29.8033 90.4821 29.7567 90.5154 29.71V28.13C90.3821 28.21 90.2587 28.2933 90.1454 28.38C90.0321 28.46 89.9354 28.55 89.8554 28.65C89.7754 28.75 89.7121 28.86 89.6654 28.98C89.6254 29.0933 89.6054 29.2233 89.6054 29.37C89.6054 29.5633 89.6454 29.7167 89.7254 29.83C89.8054 29.9433 89.9154 30 90.0554 30ZM94.8117 31.06C94.3784 31.06 94.0417 30.9967 93.8017 30.87C93.5684 30.7433 93.4084 30.56 93.3217 30.32C93.2351 30.0733 93.1917 29.7767 93.1917 29.43V26.29H92.6317V25.22H93.1917V23.46H94.8417V25.22H95.6617V26.29H94.8417V29.27C94.8417 29.4367 94.8884 29.5567 94.9817 29.63C95.0817 29.7033 95.2051 29.74 95.3517 29.74C95.4384 29.74 95.5184 29.7367 95.5917 29.73C95.6651 29.7167 95.7317 29.7067 95.7917 29.7V30.98C95.7051 30.9933 95.5684 31.01 95.3817 31.03C95.1951 31.05 95.0051 31.06 94.8117 31.06ZM100.905 31.06C100.472 31.06 100.135 30.9967 99.8955 30.87C99.6621 30.7433 99.5021 30.56 99.4155 30.32C99.3288 30.0733 99.2855 29.7767 99.2855 29.43V26.29H98.7255V25.22H99.2855V23.46H100.935V25.22H101.755V26.29H100.935V29.27C100.935 29.4367 100.982 29.5567 101.075 29.63C101.175 29.7033 101.299 29.74 101.445 29.74C101.532 29.74 101.612 29.7367 101.685 29.73C101.759 29.7167 101.825 29.7067 101.885 29.7V30.98C101.799 30.9933 101.662 31.01 101.475 31.03C101.289 31.05 101.099 31.06 100.905 31.06ZM102.661 31V22.9H104.281V25.73C104.494 25.5167 104.717 25.3633 104.951 25.27C105.184 25.17 105.434 25.12 105.701 25.12C105.934 25.12 106.127 25.18 106.281 25.3C106.441 25.4133 106.561 25.5733 106.641 25.78C106.721 25.98 106.761 26.21 106.761 26.47V31H105.141V26.7C105.141 26.56 105.117 26.4533 105.071 26.38C105.024 26.3067 104.937 26.27 104.811 26.27C104.744 26.27 104.664 26.29 104.571 26.33C104.477 26.3633 104.381 26.4133 104.281 26.48V31H102.661ZM109.629 31.1C109.209 31.1 108.849 31.0267 108.549 30.88C108.249 30.7267 108.019 30.5067 107.859 30.22C107.699 29.9267 107.619 29.5767 107.619 29.17V27.05C107.619 26.6367 107.699 26.2867 107.859 26C108.019 25.7133 108.249 25.4967 108.549 25.35C108.855 25.1967 109.215 25.12 109.629 25.12C110.055 25.12 110.409 25.1933 110.689 25.34C110.975 25.4867 111.189 25.7033 111.329 25.99C111.475 26.2767 111.549 26.63 111.549 27.05V28.21H109.229V29.32C109.229 29.4667 109.245 29.5867 109.279 29.68C109.312 29.7733 109.359 29.84 109.419 29.88C109.479 29.92 109.549 29.94 109.629 29.94C109.709 29.94 109.779 29.9233 109.839 29.89C109.905 29.85 109.955 29.79 109.989 29.71C110.029 29.63 110.049 29.52 110.049 29.38V28.77H111.549V29.33C111.549 29.9167 111.379 30.36 111.039 30.66C110.699 30.9533 110.229 31.1 109.629 31.1ZM109.229 27.45H110.049V26.87C110.049 26.7167 110.029 26.5967 109.989 26.51C109.955 26.4233 109.905 26.3633 109.839 26.33C109.779 26.2967 109.705 26.28 109.619 26.28C109.539 26.28 109.469 26.3 109.409 26.34C109.355 26.38 109.312 26.45 109.279 26.55C109.245 26.6433 109.229 26.78 109.229 26.96V27.45ZM112.446 31V25.22H114.076V31H112.446ZM112.436 24.24V23.11H114.076V24.24H112.436ZM115.102 31V25.22H116.732V26.18C116.919 25.8467 117.106 25.5933 117.292 25.42C117.479 25.24 117.706 25.15 117.972 25.15C118.026 25.15 118.072 25.1533 118.112 25.16C118.152 25.16 118.189 25.1667 118.222 25.18V26.8C118.149 26.7667 118.066 26.74 117.972 26.72C117.886 26.6933 117.792 26.68 117.692 26.68C117.506 26.68 117.332 26.73 117.172 26.83C117.012 26.93 116.866 27.0667 116.732 27.24V31H115.102ZM37.2752 46.1C36.8619 46.1 36.5019 46.03 36.1952 45.89C35.8952 45.75 35.6619 45.54 35.4952 45.26C35.3352 44.98 35.2552 44.63 35.2552 44.21V42.01C35.2552 41.59 35.3352 41.24 35.4952 40.96C35.6619 40.68 35.8952 40.47 36.1952 40.33C36.5019 40.19 36.8619 40.12 37.2752 40.12C37.6886 40.12 38.0452 40.19 38.3452 40.33C38.6519 40.47 38.8886 40.68 39.0552 40.96C39.2219 41.24 39.3052 41.59 39.3052 42.01V44.21C39.3052 44.63 39.2219 44.98 39.0552 45.26C38.8886 45.54 38.6519 45.75 38.3452 45.89C38.0452 46.03 37.6886 46.1 37.2752 46.1ZM37.2852 45.02C37.3919 45.02 37.4752 44.9933 37.5352 44.94C37.5952 44.88 37.6352 44.8 37.6552 44.7C37.6819 44.5933 37.6952 44.4667 37.6952 44.32V41.9C37.6952 41.7533 37.6819 41.63 37.6552 41.53C37.6352 41.4233 37.5952 41.3433 37.5352 41.29C37.4752 41.23 37.3919 41.2 37.2852 41.2C37.1786 41.2 37.0952 41.23 37.0352 41.29C36.9752 41.3433 36.9319 41.4233 36.9052 41.53C36.8786 41.63 36.8652 41.7533 36.8652 41.9V44.32C36.8652 44.4667 36.8786 44.5933 36.9052 44.7C36.9319 44.8 36.9752 44.88 37.0352 44.94C37.0952 44.9933 37.1786 45.02 37.2852 45.02ZM40.2092 47.9V40.22H41.8392V40.64C42.0326 40.4667 42.2392 40.3367 42.4592 40.25C42.6792 40.1633 42.8892 40.12 43.0892 40.12C43.3092 40.12 43.4959 40.1633 43.6492 40.25C43.8092 40.3367 43.9392 40.46 44.0392 40.62C44.1392 40.7733 44.2126 40.9533 44.2592 41.16C44.3059 41.3667 44.3292 41.5867 44.3292 41.82V44.31C44.3292 44.67 44.2792 44.9833 44.1792 45.25C44.0859 45.5167 43.9459 45.7267 43.7592 45.88C43.5726 46.0267 43.3426 46.1 43.0692 46.1C42.8626 46.1 42.6526 46.0533 42.4392 45.96C42.2326 45.86 42.0326 45.7267 41.8392 45.56V47.9H40.2092ZM42.2692 45.05C42.3759 45.05 42.4592 45.02 42.5192 44.96C42.5792 44.9 42.6226 44.8233 42.6492 44.73C42.6826 44.63 42.6992 44.52 42.6992 44.4V41.7C42.6992 41.5867 42.6859 41.4867 42.6592 41.4C42.6326 41.3067 42.5892 41.2333 42.5292 41.18C42.4692 41.1267 42.3926 41.1 42.2992 41.1C42.2126 41.1 42.1292 41.12 42.0492 41.16C41.9759 41.1933 41.9059 41.24 41.8392 41.3V44.9C41.9126 44.9467 41.9826 44.9833 42.0492 45.01C42.1226 45.0367 42.1959 45.05 42.2692 45.05ZM45.258 47.9V40.22H46.888V40.64C47.0814 40.4667 47.288 40.3367 47.508 40.25C47.728 40.1633 47.938 40.12 48.138 40.12C48.358 40.12 48.5447 40.1633 48.698 40.25C48.858 40.3367 48.988 40.46 49.088 40.62C49.188 40.7733 49.2614 40.9533 49.308 41.16C49.3547 41.3667 49.378 41.5867 49.378 41.82V44.31C49.378 44.67 49.328 44.9833 49.228 45.25C49.1347 45.5167 48.9947 45.7267 48.808 45.88C48.6214 46.0267 48.3914 46.1 48.118 46.1C47.9114 46.1 47.7014 46.0533 47.488 45.96C47.2814 45.86 47.0814 45.7267 46.888 45.56V47.9H45.258ZM47.318 45.05C47.4247 45.05 47.508 45.02 47.568 44.96C47.628 44.9 47.6714 44.8233 47.698 44.73C47.7314 44.63 47.748 44.52 47.748 44.4V41.7C47.748 41.5867 47.7347 41.4867 47.708 41.4C47.6814 41.3067 47.638 41.2333 47.578 41.18C47.518 41.1267 47.4414 41.1 47.348 41.1C47.2614 41.1 47.178 41.12 47.098 41.16C47.0247 41.1933 46.9547 41.24 46.888 41.3V44.9C46.9614 44.9467 47.0314 44.9833 47.098 45.01C47.1714 45.0367 47.2447 45.05 47.318 45.05ZM52.2069 46.1C51.7935 46.1 51.4335 46.03 51.1269 45.89C50.8269 45.75 50.5935 45.54 50.4269 45.26C50.2669 44.98 50.1869 44.63 50.1869 44.21V42.01C50.1869 41.59 50.2669 41.24 50.4269 40.96C50.5935 40.68 50.8269 40.47 51.1269 40.33C51.4335 40.19 51.7935 40.12 52.2069 40.12C52.6202 40.12 52.9769 40.19 53.2769 40.33C53.5835 40.47 53.8202 40.68 53.9869 40.96C54.1535 41.24 54.2369 41.59 54.2369 42.01V44.21C54.2369 44.63 54.1535 44.98 53.9869 45.26C53.8202 45.54 53.5835 45.75 53.2769 45.89C52.9769 46.03 52.6202 46.1 52.2069 46.1ZM52.2169 45.02C52.3235 45.02 52.4069 44.9933 52.4669 44.94C52.5269 44.88 52.5669 44.8 52.5869 44.7C52.6135 44.5933 52.6269 44.4667 52.6269 44.32V41.9C52.6269 41.7533 52.6135 41.63 52.5869 41.53C52.5669 41.4233 52.5269 41.3433 52.4669 41.29C52.4069 41.23 52.3235 41.2 52.2169 41.2C52.1102 41.2 52.0269 41.23 51.9669 41.29C51.9069 41.3433 51.8635 41.4233 51.8369 41.53C51.8102 41.63 51.7969 41.7533 51.7969 41.9V44.32C51.7969 44.4667 51.8102 44.5933 51.8369 44.7C51.8635 44.8 51.9069 44.88 51.9669 44.94C52.0269 44.9933 52.1102 45.02 52.2169 45.02ZM55.1409 46V40.22H56.7709V40.8C56.9842 40.5867 57.2042 40.42 57.4309 40.3C57.6642 40.18 57.9075 40.12 58.1609 40.12C58.4009 40.12 58.5975 40.18 58.7509 40.3C58.9109 40.4133 59.0309 40.5733 59.1109 40.78C59.1909 40.98 59.2309 41.21 59.2309 41.47V46H57.6109V41.7C57.6109 41.56 57.5875 41.4533 57.5409 41.38C57.4942 41.3067 57.4075 41.27 57.2809 41.27C57.2142 41.27 57.1342 41.29 57.0409 41.33C56.9542 41.3633 56.8642 41.4133 56.7709 41.48V46H55.1409ZM62.0992 46.1C61.6792 46.1 61.3192 46.0267 61.0192 45.88C60.7192 45.7267 60.4892 45.5067 60.3292 45.22C60.1692 44.9267 60.0892 44.5767 60.0892 44.17V42.05C60.0892 41.6367 60.1692 41.2867 60.3292 41C60.4892 40.7133 60.7192 40.4967 61.0192 40.35C61.3259 40.1967 61.6859 40.12 62.0992 40.12C62.5259 40.12 62.8792 40.1933 63.1592 40.34C63.4459 40.4867 63.6592 40.7033 63.7992 40.99C63.9459 41.2767 64.0192 41.63 64.0192 42.05V43.21H61.6992V44.32C61.6992 44.4667 61.7159 44.5867 61.7492 44.68C61.7826 44.7733 61.8292 44.84 61.8892 44.88C61.9492 44.92 62.0192 44.94 62.0992 44.94C62.1792 44.94 62.2492 44.9233 62.3092 44.89C62.3759 44.85 62.4259 44.79 62.4592 44.71C62.4992 44.63 62.5192 44.52 62.5192 44.38V43.77H64.0192V44.33C64.0192 44.9167 63.8492 45.36 63.5092 45.66C63.1692 45.9533 62.6992 46.1 62.0992 46.1ZM61.6992 42.45H62.5192V41.87C62.5192 41.7167 62.4992 41.5967 62.4592 41.51C62.4259 41.4233 62.3759 41.3633 62.3092 41.33C62.2492 41.2967 62.1759 41.28 62.0892 41.28C62.0092 41.28 61.9392 41.3 61.8792 41.34C61.8259 41.38 61.7826 41.45 61.7492 41.55C61.7159 41.6433 61.6992 41.78 61.6992 41.96V42.45ZM64.9065 46V40.22H66.5365V40.8C66.7498 40.5867 66.9698 40.42 67.1965 40.3C67.4298 40.18 67.6732 40.12 67.9265 40.12C68.1665 40.12 68.3632 40.18 68.5165 40.3C68.6765 40.4133 68.7965 40.5733 68.8765 40.78C68.9565 40.98 68.9965 41.21 68.9965 41.47V46H67.3765V41.7C67.3765 41.56 67.3532 41.4533 67.3065 41.38C67.2598 41.3067 67.1732 41.27 67.0465 41.27C66.9798 41.27 66.8998 41.29 66.8065 41.33C66.7198 41.3633 66.6298 41.4133 66.5365 41.48V46H64.9065ZM71.7648 46.06C71.3315 46.06 70.9948 45.9967 70.7548 45.87C70.5215 45.7433 70.3615 45.56 70.2748 45.32C70.1882 45.0733 70.1448 44.7767 70.1448 44.43V41.29H69.5848V40.22H70.1448V38.46H71.7948V40.22H72.6148V41.29H71.7948V44.27C71.7948 44.4367 71.8415 44.5567 71.9348 44.63C72.0348 44.7033 72.1582 44.74 72.3048 44.74C72.3915 44.74 72.4715 44.7367 72.5448 44.73C72.6182 44.7167 72.6848 44.7067 72.7448 44.7V45.98C72.6582 45.9933 72.5215 46.01 72.3348 46.03C72.1482 46.05 71.9582 46.06 71.7648 46.06ZM75.29 46.1C74.7833 46.1 74.36 45.9867 74.02 45.76C73.6867 45.5333 73.4133 45.1633 73.2 44.65L74.31 44.16C74.4167 44.42 74.54 44.6267 74.68 44.78C74.8267 44.9267 74.9867 45 75.16 45C75.2867 45 75.38 44.9733 75.44 44.92C75.5067 44.8667 75.54 44.7933 75.54 44.7C75.54 44.5467 75.48 44.4067 75.36 44.28C75.2467 44.1533 75.04 43.9667 74.74 43.72L74.32 43.37C74.0133 43.11 73.77 42.86 73.59 42.62C73.4167 42.3733 73.33 42.07 73.33 41.71C73.33 41.3967 73.41 41.12 73.57 40.88C73.7367 40.64 73.9567 40.4533 74.23 40.32C74.5033 40.1867 74.7967 40.12 75.11 40.12C75.5833 40.12 75.98 40.25 76.3 40.51C76.62 40.77 76.8433 41.1367 76.97 41.61L75.92 42.09C75.88 41.9633 75.8233 41.8367 75.75 41.71C75.6767 41.5833 75.5867 41.4767 75.48 41.39C75.38 41.3033 75.27 41.26 75.15 41.26C75.0433 41.26 74.9567 41.29 74.89 41.35C74.83 41.41 74.8 41.49 74.8 41.59C74.8 41.7167 74.87 41.8533 75.01 42C75.1567 42.1467 75.3567 42.3233 75.61 42.53L76.02 42.89C76.1867 43.03 76.35 43.18 76.51 43.34C76.67 43.5 76.8 43.6767 76.9 43.87C77.0067 44.0633 77.06 44.2833 77.06 44.53C77.06 44.8633 76.9767 45.15 76.81 45.39C76.6433 45.6233 76.4233 45.8 76.15 45.92C75.8833 46.04 75.5967 46.1 75.29 46.1ZM80.2069 46V44.82L82.1469 41.84C82.2935 41.62 82.4302 41.4067 82.5569 41.2C82.6902 40.9933 82.7969 40.7833 82.8769 40.57C82.9635 40.3567 83.0069 40.1333 83.0069 39.9C83.0069 39.6667 82.9602 39.4933 82.8669 39.38C82.7735 39.2667 82.6469 39.21 82.4869 39.21C82.3069 39.21 82.1669 39.26 82.0669 39.36C81.9669 39.46 81.8969 39.5933 81.8569 39.76C81.8235 39.9267 81.8069 40.1133 81.8069 40.32V40.72H80.1869V40.29C80.1869 39.81 80.2635 39.3833 80.4169 39.01C80.5702 38.63 80.8135 38.3333 81.1469 38.12C81.4802 37.9 81.9169 37.79 82.4569 37.79C83.1835 37.79 83.7302 37.98 84.0969 38.36C84.4702 38.7333 84.6569 39.2567 84.6569 39.93C84.6569 40.2567 84.6035 40.56 84.4969 40.84C84.3969 41.12 84.2602 41.3933 84.0869 41.66C83.9202 41.92 83.7402 42.1933 83.5469 42.48L82.0669 44.69H84.4369V46H80.2069ZM87.6836 46.15C87.1969 46.15 86.7903 46.0533 86.4636 45.86C86.1369 45.66 85.8903 45.3867 85.7236 45.04C85.5569 44.6933 85.4736 44.29 85.4736 43.83V40.16C85.4736 39.6867 85.5503 39.2733 85.7036 38.92C85.8636 38.56 86.1069 38.28 86.4336 38.08C86.7603 37.88 87.1769 37.78 87.6836 37.78C88.1903 37.78 88.6036 37.88 88.9236 38.08C89.2503 38.28 89.4903 38.56 89.6436 38.92C89.8036 39.2733 89.8836 39.6867 89.8836 40.16V43.83C89.8836 44.2833 89.8003 44.6867 89.6336 45.04C89.4669 45.3867 89.2203 45.66 88.8936 45.86C88.5669 46.0533 88.1636 46.15 87.6836 46.15ZM87.6836 44.66C87.8436 44.66 87.9569 44.61 88.0236 44.51C88.0969 44.4033 88.1403 44.2833 88.1536 44.15C88.1736 44.01 88.1836 43.89 88.1836 43.79V40.2C88.1836 40.0867 88.1769 39.96 88.1636 39.82C88.1503 39.6733 88.1069 39.5467 88.0336 39.44C87.9669 39.3267 87.8503 39.27 87.6836 39.27C87.5169 39.27 87.3969 39.3267 87.3236 39.44C87.2569 39.5467 87.2169 39.6733 87.2036 39.82C87.1903 39.96 87.1836 40.0867 87.1836 40.2V43.79C87.1836 43.89 87.1936 44.01 87.2136 44.15C87.2336 44.2833 87.2769 44.4033 87.3436 44.51C87.4169 44.61 87.5303 44.66 87.6836 44.66ZM93.1816 46.15C92.695 46.15 92.2883 46.0533 91.9616 45.86C91.635 45.66 91.3883 45.3867 91.2216 45.04C91.055 44.6933 90.9716 44.29 90.9716 43.83V40.16C90.9716 39.6867 91.0483 39.2733 91.2016 38.92C91.3616 38.56 91.605 38.28 91.9316 38.08C92.2583 37.88 92.675 37.78 93.1816 37.78C93.6883 37.78 94.1016 37.88 94.4216 38.08C94.7483 38.28 94.9883 38.56 95.1416 38.92C95.3016 39.2733 95.3816 39.6867 95.3816 40.16V43.83C95.3816 44.2833 95.2983 44.6867 95.1316 45.04C94.965 45.3867 94.7183 45.66 94.3916 45.86C94.065 46.0533 93.6616 46.15 93.1816 46.15ZM93.1816 44.66C93.3416 44.66 93.455 44.61 93.5216 44.51C93.595 44.4033 93.6383 44.2833 93.6516 44.15C93.6716 44.01 93.6816 43.89 93.6816 43.79V40.2C93.6816 40.0867 93.675 39.96 93.6616 39.82C93.6483 39.6733 93.605 39.5467 93.5316 39.44C93.465 39.3267 93.3483 39.27 93.1816 39.27C93.015 39.27 92.895 39.3267 92.8216 39.44C92.755 39.5467 92.715 39.6733 92.7016 39.82C92.6883 39.96 92.6816 40.0867 92.6816 40.2V43.79C92.6816 43.89 92.6916 44.01 92.7116 44.15C92.7316 44.2833 92.775 44.4033 92.8416 44.51C92.915 44.61 93.0283 44.66 93.1816 44.66ZM100.788 46.06C100.355 46.06 100.018 45.9967 99.7783 45.87C99.5449 45.7433 99.3849 45.56 99.2983 45.32C99.2116 45.0733 99.1683 44.7767 99.1683 44.43V41.29H98.6083V40.22H99.1683V38.46H100.818V40.22H101.638V41.29H100.818V44.27C100.818 44.4367 100.865 44.5567 100.958 44.63C101.058 44.7033 101.182 44.74 101.328 44.74C101.415 44.74 101.495 44.7367 101.568 44.73C101.642 44.7167 101.708 44.7067 101.768 44.7V45.98C101.682 45.9933 101.545 46.01 101.358 46.03C101.172 46.05 100.982 46.06 100.788 46.06ZM102.543 46V40.22H104.173V46H102.543ZM102.533 39.24V38.11H104.173V39.24H102.533ZM105.18 46V40.22H106.78V40.68C106.993 40.4733 107.213 40.3267 107.44 40.24C107.673 40.1533 107.91 40.11 108.15 40.11C108.383 40.11 108.583 40.17 108.75 40.29C108.923 40.4033 109.053 40.5733 109.14 40.8C109.367 40.5467 109.603 40.37 109.85 40.27C110.103 40.1633 110.357 40.11 110.61 40.11C110.837 40.11 111.033 40.1667 111.2 40.28C111.367 40.3867 111.497 40.5467 111.59 40.76C111.683 40.9667 111.73 41.2167 111.73 41.51V46H110.13V41.68C110.13 41.52 110.1 41.4067 110.04 41.34C109.987 41.2667 109.903 41.23 109.79 41.23C109.723 41.23 109.64 41.25 109.54 41.29C109.44 41.3233 109.343 41.3733 109.25 41.44C109.25 41.4533 109.25 41.4667 109.25 41.48C109.25 41.4867 109.25 41.4967 109.25 41.51V46H107.67V41.68C107.67 41.52 107.64 41.4067 107.58 41.34C107.52 41.2667 107.433 41.23 107.32 41.23C107.247 41.23 107.16 41.25 107.06 41.29C106.967 41.3233 106.873 41.3733 106.78 41.44V46H105.18ZM114.599 46.1C114.179 46.1 113.819 46.0267 113.519 45.88C113.219 45.7267 112.989 45.5067 112.829 45.22C112.669 44.9267 112.589 44.5767 112.589 44.17V42.05C112.589 41.6367 112.669 41.2867 112.829 41C112.989 40.7133 113.219 40.4967 113.519 40.35C113.826 40.1967 114.186 40.12 114.599 40.12C115.026 40.12 115.379 40.1933 115.659 40.34C115.946 40.4867 116.159 40.7033 116.299 40.99C116.446 41.2767 116.519 41.63 116.519 42.05V43.21H114.199V44.32C114.199 44.4667 114.216 44.5867 114.249 44.68C114.283 44.7733 114.329 44.84 114.389 44.88C114.449 44.92 114.519 44.94 114.599 44.94C114.679 44.94 114.749 44.9233 114.809 44.89C114.876 44.85 114.926 44.79 114.959 44.71C114.999 44.63 115.019 44.52 115.019 44.38V43.77H116.519V44.33C116.519 44.9167 116.349 45.36 116.009 45.66C115.669 45.9533 115.199 46.1 114.599 46.1ZM114.199 42.45H115.019V41.87C115.019 41.7167 114.999 41.5967 114.959 41.51C114.926 41.4233 114.876 41.3633 114.809 41.33C114.749 41.2967 114.676 41.28 114.589 41.28C114.509 41.28 114.439 41.3 114.379 41.34C114.326 41.38 114.283 41.45 114.249 41.55C114.216 41.6433 114.199 41.78 114.199 41.96V42.45ZM119.186 46.1C118.68 46.1 118.256 45.9867 117.916 45.76C117.583 45.5333 117.31 45.1633 117.096 44.65L118.206 44.16C118.313 44.42 118.436 44.6267 118.576 44.78C118.723 44.9267 118.883 45 119.056 45C119.183 45 119.276 44.9733 119.336 44.92C119.403 44.8667 119.436 44.7933 119.436 44.7C119.436 44.5467 119.376 44.4067 119.256 44.28C119.143 44.1533 118.936 43.9667 118.636 43.72L118.216 43.37C117.91 43.11 117.666 42.86 117.486 42.62C117.313 42.3733 117.226 42.07 117.226 41.71C117.226 41.3967 117.306 41.12 117.466 40.88C117.633 40.64 117.853 40.4533 118.126 40.32C118.4 40.1867 118.693 40.12 119.006 40.12C119.48 40.12 119.876 40.25 120.196 40.51C120.516 40.77 120.74 41.1367 120.866 41.61L119.816 42.09C119.776 41.9633 119.72 41.8367 119.646 41.71C119.573 41.5833 119.483 41.4767 119.376 41.39C119.276 41.3033 119.166 41.26 119.046 41.26C118.94 41.26 118.853 41.29 118.786 41.35C118.726 41.41 118.696 41.49 118.696 41.59C118.696 41.7167 118.766 41.8533 118.906 42C119.053 42.1467 119.253 42.3233 119.506 42.53L119.916 42.89C120.083 43.03 120.246 43.18 120.406 43.34C120.566 43.5 120.696 43.6767 120.796 43.87C120.903 44.0633 120.956 44.2833 120.956 44.53C120.956 44.8633 120.873 45.15 120.706 45.39C120.54 45.6233 120.32 45.8 120.046 45.92C119.78 46.04 119.493 46.1 119.186 46.1Z"></path>
</svg>
