<svg xmlns="http://www.w3.org/2000/svg" fill="none" viewBox="0 0 13 18" height="18" width="13">
<rect fill-opacity="0.01" fill="#0D0E12" height="18" width="13"></rect>
<path fill="white" d="M3.06 14.18C2.348 14.18 1.808 14.056 1.44 13.808C1.08 13.552 0.836 13.196 0.708 12.74C0.58 12.284 0.516 11.756 0.516 11.156H2.448C2.448 11.524 2.468 11.824 2.508 12.056C2.548 12.288 2.62 12.456 2.724 12.56C2.836 12.656 2.992 12.7 3.192 12.692C3.4 12.684 3.548 12.6 3.636 12.44C3.724 12.28 3.776 12.052 3.792 11.756C3.816 11.452 3.828 11.088 3.828 10.664C3.828 10.344 3.808 10.06 3.768 9.812C3.736 9.564 3.664 9.368 3.552 9.224C3.448 9.072 3.288 8.996 3.072 8.996C2.872 8.996 2.708 9.068 2.58 9.212C2.452 9.356 2.36 9.58 2.304 9.884H0.576L0.756 4.28H5.292V5.96H2.364L2.256 7.964C2.336 7.852 2.488 7.756 2.712 7.676C2.936 7.588 3.176 7.532 3.432 7.508C3.928 7.452 4.344 7.544 4.68 7.784C5.024 8.016 5.28 8.372 5.448 8.852C5.624 9.332 5.712 9.92 5.712 10.616C5.712 11.136 5.68 11.616 5.616 12.056C5.552 12.488 5.428 12.864 5.244 13.184C5.06 13.496 4.792 13.74 4.44 13.916C4.088 14.092 3.628 14.18 3.06 14.18ZM9.39347 14V11.816H6.40547V10.34L8.93747 4.28H11.2655V10.328H12.1655V11.816H11.2655V14H9.39347ZM7.92947 10.328H9.39347V6.284L7.92947 10.328Z"></path>
</svg>
