<svg xmlns="http://www.w3.org/2000/svg" fill="none" viewBox="0 0 13 18" height="18" width="13">
<rect fill-opacity="0.01" fill="#0D0E12" height="18" width="13"></rect>
<path fill="white" d="M0.78 14L2.892 5.804H0.24V4.28H4.848V5.66L2.736 14H0.78ZM8.57344 14.18C7.98944 14.18 7.50144 14.064 7.10944 13.832C6.71744 13.592 6.42144 13.264 6.22144 12.848C6.02144 12.432 5.92144 11.948 5.92144 11.396V6.992C5.92144 6.424 6.01344 5.928 6.19744 5.504C6.38944 5.072 6.68144 4.736 7.07344 4.496C7.46544 4.256 7.96544 4.136 8.57344 4.136C9.18144 4.136 9.67744 4.256 10.0614 4.496C10.4534 4.736 10.7414 5.072 10.9254 5.504C11.1174 5.928 11.2134 6.424 11.2134 6.992V11.396C11.2134 11.94 11.1134 12.424 10.9134 12.848C10.7134 13.264 10.4174 13.592 10.0254 13.832C9.63344 14.064 9.14944 14.18 8.57344 14.18ZM8.57344 12.392C8.76544 12.392 8.90144 12.332 8.98144 12.212C9.06944 12.084 9.12144 11.94 9.13744 11.78C9.16144 11.612 9.17344 11.468 9.17344 11.348V7.04C9.17344 6.904 9.16544 6.752 9.14944 6.584C9.13344 6.408 9.08144 6.256 8.99344 6.128C8.91344 5.992 8.77344 5.924 8.57344 5.924C8.37344 5.924 8.22944 5.992 8.14144 6.128C8.06144 6.256 8.01344 6.408 7.99744 6.584C7.98144 6.752 7.97344 6.904 7.97344 7.04V11.348C7.97344 11.468 7.98544 11.612 8.00944 11.78C8.03344 11.94 8.08544 12.084 8.16544 12.212C8.25344 12.332 8.38944 12.392 8.57344 12.392Z"></path>
</svg>
