<svg xmlns="http://www.w3.org/2000/svg" fill="none" viewBox="0 0 31 41" height="41" width="31">
<rect fill="white" height="39" width="29" y="2" x="1"></rect>
<path stroke="#0D0E12" fill="#0D0E12" d="M23.3954 36.5L23.5 36.5458V40.5H7.5V36.5458L7.60459 36.5H23.3954Z"></path>
<path stroke="#0D0E12" fill="#A10000" d="M8.59375 26.125H22.4062L19.2188 33.5625L22.4062 35.6875H8.59375L11.7812 33.5625L8.59375 26.125Z"></path>
<mask height="10" width="15" y="26" x="8" maskUnits="userSpaceOnUse" style="mask-type:alpha" id="mask0_1477_420">
<path fill-opacity="0.6" fill="black" d="M8.59375 26.125H22.4062L19.2188 33.5625L22.4062 35.6875H8.59375L11.7812 33.5625L8.59375 26.125Z"></path>
</mask>
<g mask="url(#mask0_1477_420)">
<path fill-opacity="0.6" fill="black" d="M18.6875 28.25L20.2812 24L31.4375 36.2188L19.2188 44.7188L1.6875 38.875L4.34375 33.5625C5.40625 33.7396 8.4875 33.775 12.3125 32.5C16.1375 31.225 18.1562 29.1354 18.6875 28.25Z"></path>
</g>
<rect fill="white" height="3.1875" width="9.5625" y="36.75" x="10.7188"></rect>
<rect fill-opacity="0.01" fill="white" height="31" width="31"></rect>
<path stroke-width="0.816337" stroke="#0D0E12" fill="#FF0000" d="M22.3033 5.19409V8.90887H9.54489V5.19409C10.7317 4.82851 12.2454 4.63367 13.5175 4.53174C14.1988 4.47715 14.8019 4.44983 15.2344 4.43618C15.4505 4.42936 15.6238 4.42595 15.7427 4.42426C15.8021 4.42341 15.8479 4.42299 15.8786 4.42278L15.9132 4.4226L15.9217 4.42258L15.9237 4.42257L15.9241 4.42257L15.9241 4.42257H15.9241L15.9241 4.42257L15.9245 4.42257L15.9265 4.42258L15.935 4.4226L15.9696 4.42278C16.0003 4.42299 16.0461 4.42341 16.1055 4.42426C16.2244 4.42595 16.3977 4.42936 16.6138 4.43618C17.0463 4.44983 17.6494 4.47715 18.3307 4.53174C19.6028 4.63367 21.1164 4.82851 22.3033 5.19409Z"></path>
<path stroke-width="0.816337" stroke="#0D0E12" fill="#FF0000" d="M12.9387 2.9126C14.7477 2.56849 16.2523 2.56849 18.0613 2.9126V6.5885H12.9387V2.9126Z"></path>
<path stroke-width="0.816337" stroke="#0D0E12" fill="#FF0000" d="M5.34434 4.34774C5.5019 4.10386 6.14311 3.38041 8.3979 3.09883C9.24957 2.99247 10.0013 3.70922 10.0013 4.64431V5.69698C10.0013 6.33445 9.63598 6.9155 9.06146 7.19171L7.68007 7.85584C6.57902 8.38519 5.30294 7.5828 5.30294 6.36111V4.58971C5.30294 4.44713 5.32225 4.38193 5.34434 4.34774Z"></path>
<path stroke-width="0.816337" stroke="#0D0E12" fill="#FF0000" d="M25.6971 4.36784V4.36425C25.6971 4.35961 25.697 4.35819 25.697 4.35819C25.697 4.35819 25.697 4.35837 25.6971 4.35866C25.6971 4.3595 25.6972 4.36144 25.6973 4.36425C25.6975 4.36694 25.6978 4.37044 25.6983 4.37454C25.6986 4.37701 25.6988 4.37694 25.6984 4.37453C25.6981 4.37311 25.6977 4.37086 25.6971 4.36784ZM25.6971 4.36784V6.36111C25.6971 7.5828 24.421 8.38519 23.3199 7.85584L21.9385 7.19171C21.364 6.9155 20.9987 6.33445 20.9987 5.69698V4.64431C20.9987 3.71248 21.7513 2.99053 22.6121 3.08503C24.1626 3.25523 24.939 3.61221 25.3203 3.89975C25.6288 4.13236 25.6878 4.3257 25.6971 4.36784Z"></path>
<path stroke-width="0.816337" stroke="#0D0E12" fill="#FF0000" d="M5.7433 25.4416C6.25236 21.2319 9.5612 24.6723 9.5612 17.6021V14.5974C9.5612 13.2059 8.72456 11.9509 7.44015 11.4157L6.96846 11.2192C5.96968 10.803 5.31909 9.8271 5.31909 8.74508C5.31909 8.183 5.52138 7.63387 6.05002 7.44287C9.32689 6.25893 21.6734 6.25897 24.9503 7.44288C25.4789 7.63388 25.6812 8.18301 25.6812 8.7451C25.6812 9.82711 25.0306 10.803 24.0319 11.2192L23.5602 11.4157C22.2757 11.9509 21.4391 13.2059 21.4391 14.5974V17.6021C21.4391 24.6723 24.7479 21.3463 25.257 25.556C25.257 26.7213 24.8389 27.8093 23.7043 28.0747C20.0254 28.9352 10.9382 28.8696 7.27745 27.9595C6.15528 27.6805 5.7433 26.598 5.7433 25.4416Z"></path>
<path stroke-linecap="round" stroke-width="0.816337" stroke="#0D0E12" d="M8.71265 24.6724C9.98528 25.998 21.0148 25.998 22.2874 24.6724"></path>
<path stroke-linecap="round" stroke-width="0.816337" stroke="#0D0E12" d="M21.439 10.9736C19.7421 10.5317 11.2579 10.5317 9.56106 10.9736"></path>
<path fill="#0D0E12" d="M13 11.9689L16.87 11.9689C16.846 11.9249 16.822 11.8749 16.798 11.8189C16.774 11.7629 16.748 11.7029 16.72 11.6389C16.696 11.5789 16.672 11.5189 16.648 11.4589C16.624 11.4029 16.6 11.3509 16.576 11.3029L17.32 11.3029C17.344 11.3469 17.376 11.4089 17.416 11.4889C17.46 11.5689 17.508 11.6549 17.56 11.7469C17.612 11.8389 17.664 11.9249 17.716 12.0049C17.772 12.0849 17.82 12.1449 17.86 12.1849L17.86 12.9709L13 12.9709L13 11.9689ZM12.16 13.9109L12.478 13.8509C12.506 13.9549 12.558 14.0509 12.634 14.1389C12.706 14.2309 12.828 14.2769 13 14.2769L13 13.7609L13.924 13.7609L13.924 14.6909L13.126 14.6909C12.83 14.6869 12.6 14.6209 12.436 14.4929C12.272 14.3649 12.18 14.1709 12.16 13.9109ZM12.91 16.5826C12.91 16.2906 12.968 16.0466 13.084 15.8506C13.204 15.6546 13.368 15.5066 13.576 15.4066C13.784 15.3066 14.026 15.2566 14.302 15.2566L16.504 15.2566C16.788 15.2566 17.036 15.3026 17.248 15.3946C17.464 15.4906 17.632 15.6366 17.752 15.8326C17.872 16.0286 17.932 16.2786 17.932 16.5826C17.932 16.8866 17.872 17.1346 17.752 17.3266C17.632 17.5226 17.464 17.6666 17.248 17.7586C17.036 17.8546 16.788 17.9026 16.504 17.9026L14.302 17.9026C14.03 17.9026 13.788 17.8526 13.576 17.7526C13.368 17.6526 13.204 17.5046 13.084 17.3086C12.968 17.1126 12.91 16.8706 12.91 16.5826ZM13.804 16.5826C13.804 16.6786 13.834 16.7466 13.894 16.7866C13.958 16.8306 14.03 16.8566 14.11 16.8646C14.194 16.8766 14.266 16.8826 14.326 16.8826L16.48 16.8826C16.548 16.8826 16.624 16.8786 16.708 16.8706C16.796 16.8626 16.872 16.8366 16.936 16.7926C17.004 16.7526 17.038 16.6826 17.038 16.5826C17.038 16.4826 17.004 16.4106 16.936 16.3666C16.872 16.3266 16.796 16.3026 16.708 16.2946C16.624 16.2866 16.548 16.2826 16.48 16.2826L14.326 16.2826C14.266 16.2826 14.194 16.2886 14.11 16.3006C14.03 16.3126 13.958 16.3386 13.894 16.3786C13.834 16.4226 13.804 16.4906 13.804 16.5826ZM12.91 19.8814C12.91 19.5894 12.968 19.3454 13.084 19.1494C13.204 18.9534 13.368 18.8054 13.576 18.7054C13.784 18.6054 14.026 18.5554 14.302 18.5554L16.504 18.5554C16.788 18.5554 17.036 18.6014 17.248 18.6934C17.464 18.7894 17.632 18.9354 17.752 19.1314C17.872 19.3274 17.932 19.5774 17.932 19.8814C17.932 20.1854 17.872 20.4334 17.752 20.6254C17.632 20.8214 17.464 20.9654 17.248 21.0574C17.036 21.1534 16.788 21.2014 16.504 21.2014L14.302 21.2014C14.03 21.2014 13.788 21.1514 13.576 21.0514C13.368 20.9514 13.204 20.8034 13.084 20.6074C12.968 20.4114 12.91 20.1694 12.91 19.8814ZM13.804 19.8814C13.804 19.9774 13.834 20.0454 13.894 20.0854C13.958 20.1294 14.03 20.1554 14.11 20.1634C14.194 20.1754 14.266 20.1814 14.326 20.1814L16.48 20.1814C16.548 20.1814 16.624 20.1774 16.708 20.1694C16.796 20.1614 16.872 20.1354 16.936 20.0914C17.004 20.0514 17.038 19.9814 17.038 19.8814C17.038 19.7814 17.004 19.7094 16.936 19.6654C16.872 19.6254 16.796 19.6014 16.708 19.5934C16.624 19.5854 16.548 19.5814 16.48 19.5814L14.326 19.5814C14.266 19.5814 14.194 19.5874 14.11 19.5994C14.03 19.6114 13.958 19.6374 13.894 19.6774C13.834 19.7214 13.804 19.7894 13.804 19.8814ZM12.91 23.1803C12.91 22.8883 12.968 22.6443 13.084 22.4483C13.204 22.2523 13.368 22.1043 13.576 22.0043C13.784 21.9043 14.026 21.8543 14.302 21.8543L16.504 21.8543C16.788 21.8543 17.036 21.9003 17.248 21.9923C17.464 22.0883 17.632 22.2343 17.752 22.4303C17.872 22.6263 17.932 22.8763 17.932 23.1803C17.932 23.4843 17.872 23.7323 17.752 23.9243C17.632 24.1203 17.464 24.2643 17.248 24.3563C17.036 24.4523 16.788 24.5003 16.504 24.5003L14.302 24.5003C14.03 24.5003 13.788 24.4503 13.576 24.3503C13.368 24.2503 13.204 24.1023 13.084 23.9063C12.968 23.7103 12.91 23.4683 12.91 23.1803ZM13.804 23.1803C13.804 23.2763 13.834 23.3443 13.894 23.3843C13.958 23.4283 14.03 23.4543 14.11 23.4623C14.194 23.4743 14.266 23.4803 14.326 23.4803L16.48 23.4803C16.548 23.4803 16.624 23.4763 16.708 23.4683C16.796 23.4603 16.872 23.4343 16.936 23.3903C17.004 23.3503 17.038 23.2803 17.038 23.1803C17.038 23.0803 17.004 23.0083 16.936 22.9643C16.872 22.9243 16.796 22.9003 16.708 22.8923C16.624 22.8843 16.548 22.8803 16.48 22.8803L14.326 22.8803C14.266 22.8803 14.194 22.8863 14.11 22.8983C14.03 22.9103 13.958 22.9363 13.894 22.9763C13.834 23.0203 13.804 23.0883 13.804 23.1803Z"></path>
<rect fill="black" height="1" width="6" y="38" x="12"></rect>
</svg>
