<svg xmlns="http://www.w3.org/2000/svg" fill="none" viewBox="0 0 67 52" height="52" width="67">
<rect stroke="#0D0E12" fill="white" height="51" width="66" y="0.5" x="0.5"></rect>
<path fill="#0D0E12" d="M17.6204 33V27.22H19.2504V29.46H20.2204V27.22H21.8604V33H20.2204V30.58H19.2504V33H17.6204ZM24.7743 33.1C24.3609 33.1 24.0009 33.03 23.6943 32.89C23.3943 32.75 23.1609 32.54 22.9943 32.26C22.8343 31.98 22.7543 31.63 22.7543 31.21V29.01C22.7543 28.59 22.8343 28.24 22.9943 27.96C23.1609 27.68 23.3943 27.47 23.6943 27.33C24.0009 27.19 24.3609 27.12 24.7743 27.12C25.1876 27.12 25.5443 27.19 25.8443 27.33C26.1509 27.47 26.3876 27.68 26.5543 27.96C26.7209 28.24 26.8043 28.59 26.8043 29.01V31.21C26.8043 31.63 26.7209 31.98 26.5543 32.26C26.3876 32.54 26.1509 32.75 25.8443 32.89C25.5443 33.03 25.1876 33.1 24.7743 33.1ZM24.7843 32.02C24.8909 32.02 24.9743 31.9933 25.0343 31.94C25.0943 31.88 25.1343 31.8 25.1543 31.7C25.1809 31.5933 25.1943 31.4667 25.1943 31.32V28.9C25.1943 28.7533 25.1809 28.63 25.1543 28.53C25.1343 28.4233 25.0943 28.3433 25.0343 28.29C24.9743 28.23 24.8909 28.2 24.7843 28.2C24.6776 28.2 24.5943 28.23 24.5343 28.29C24.4743 28.3433 24.4309 28.4233 24.4043 28.53C24.3776 28.63 24.3643 28.7533 24.3643 28.9V31.32C24.3643 31.4667 24.3776 31.5933 24.4043 31.7C24.4309 31.8 24.4743 31.88 24.5343 31.94C24.5943 31.9933 24.6776 32.02 24.7843 32.02ZM27.7082 33V27.22H29.7582C30.3382 27.22 30.7749 27.2833 31.0682 27.41C31.3616 27.53 31.5582 27.6967 31.6582 27.91C31.7582 28.1233 31.8082 28.3733 31.8082 28.66C31.8082 29.04 31.7249 29.32 31.5582 29.5C31.3982 29.6733 31.1849 29.7967 30.9182 29.87C31.1982 29.9367 31.4116 30.0367 31.5582 30.17C31.7049 30.3033 31.8049 30.4667 31.8582 30.66C31.9182 30.8533 31.9482 31.0767 31.9482 31.33C31.9482 31.7033 31.8782 32.0167 31.7382 32.27C31.5982 32.5167 31.3616 32.7 31.0282 32.82C30.6949 32.94 30.2416 33 29.6682 33H27.7082ZM29.3282 32.1H29.5982C29.7449 32.1 29.8749 32.0867 29.9882 32.06C30.1016 32.0333 30.1916 31.9633 30.2582 31.85C30.3316 31.73 30.3682 31.54 30.3682 31.28C30.3682 30.9867 30.3349 30.7767 30.2682 30.65C30.2082 30.5233 30.1216 30.4467 30.0082 30.42C29.8949 30.3933 29.7616 30.38 29.6082 30.38H29.3282V32.1ZM29.3282 29.5H29.7382C29.9316 29.5 30.0649 29.44 30.1382 29.32C30.2116 29.1933 30.2482 29.02 30.2482 28.8C30.2482 28.5867 30.2082 28.41 30.1282 28.27C30.0549 28.13 29.8849 28.06 29.6182 28.06H29.3282V29.5ZM34.6571 33.1C34.2437 33.1 33.8837 33.03 33.5771 32.89C33.2771 32.75 33.0437 32.54 32.8771 32.26C32.7171 31.98 32.6371 31.63 32.6371 31.21V29.01C32.6371 28.59 32.7171 28.24 32.8771 27.96C33.0437 27.68 33.2771 27.47 33.5771 27.33C33.8837 27.19 34.2437 27.12 34.6571 27.12C35.0704 27.12 35.4271 27.19 35.7271 27.33C36.0337 27.47 36.2704 27.68 36.4371 27.96C36.6037 28.24 36.6871 28.59 36.6871 29.01V31.21C36.6871 31.63 36.6037 31.98 36.4371 32.26C36.2704 32.54 36.0337 32.75 35.7271 32.89C35.4271 33.03 35.0704 33.1 34.6571 33.1ZM34.6671 32.02C34.7737 32.02 34.8571 31.9933 34.9171 31.94C34.9771 31.88 35.0171 31.8 35.0371 31.7C35.0637 31.5933 35.0771 31.4667 35.0771 31.32V28.9C35.0771 28.7533 35.0637 28.63 35.0371 28.53C35.0171 28.4233 34.9771 28.3433 34.9171 28.29C34.8571 28.23 34.7737 28.2 34.6671 28.2C34.5604 28.2 34.4771 28.23 34.4171 28.29C34.3571 28.3433 34.3137 28.4233 34.2871 28.53C34.2604 28.63 34.2471 28.7533 34.2471 28.9V31.32C34.2471 31.4667 34.2604 31.5933 34.2871 31.7C34.3137 31.8 34.3571 31.88 34.4171 31.94C34.4771 31.9933 34.5604 32.02 34.6671 32.02ZM39.4711 33.1C39.0511 33.1 38.6911 33.0233 38.3911 32.87C38.0977 32.7167 37.8711 32.4967 37.7111 32.21C37.5511 31.9233 37.4711 31.5767 37.4711 31.17V29.05C37.4711 28.6367 37.5511 28.2867 37.7111 28C37.8711 27.7133 38.0977 27.4967 38.3911 27.35C38.6911 27.1967 39.0511 27.12 39.4711 27.12C39.8844 27.12 40.2344 27.1833 40.5211 27.31C40.8144 27.4367 41.0377 27.63 41.1911 27.89C41.3444 28.1433 41.4211 28.4667 41.4211 28.86V29.47H39.8511V28.81C39.8511 28.6567 39.8344 28.54 39.8011 28.46C39.7744 28.3733 39.7311 28.3133 39.6711 28.28C39.6177 28.2467 39.5511 28.23 39.4711 28.23C39.3911 28.23 39.3244 28.2533 39.2711 28.3C39.2177 28.34 39.1777 28.41 39.1511 28.51C39.1244 28.6033 39.1111 28.7367 39.1111 28.91V31.31C39.1111 31.57 39.1411 31.7467 39.2011 31.84C39.2677 31.9333 39.3611 31.98 39.4811 31.98C39.5677 31.98 39.6377 31.9633 39.6911 31.93C39.7444 31.89 39.7844 31.83 39.8111 31.75C39.8377 31.6633 39.8511 31.55 39.8511 31.41V30.64H41.4211V31.34C41.4211 31.7267 41.3411 32.0533 41.1811 32.32C41.0277 32.58 40.8044 32.7767 40.5111 32.91C40.2244 33.0367 39.8777 33.1 39.4711 33.1ZM42.9688 33V28.32H41.9188V27.22H45.6388V28.32H44.5888V33H42.9688ZM46.3215 33V27.22H47.6115V30.31L49.1215 27.22H50.3915V33H49.0715V29.94L47.6015 33H46.3215Z"></path>
<path fill="#0D0E12" d="M15.0651 44L15.2051 35.9H17.1251L18.0151 40.61L18.9751 35.9H20.8251L20.9651 44H19.6951L19.5451 38.61L18.6051 44H17.4751L16.4751 38.57L16.3551 44H15.0651ZM23.9461 44.1C23.5328 44.1 23.1728 44.03 22.8661 43.89C22.5661 43.75 22.3328 43.54 22.1661 43.26C22.0061 42.98 21.9261 42.63 21.9261 42.21V40.01C21.9261 39.59 22.0061 39.24 22.1661 38.96C22.3328 38.68 22.5661 38.47 22.8661 38.33C23.1728 38.19 23.5328 38.12 23.9461 38.12C24.3595 38.12 24.7161 38.19 25.0161 38.33C25.3228 38.47 25.5595 38.68 25.7261 38.96C25.8928 39.24 25.9761 39.59 25.9761 40.01V42.21C25.9761 42.63 25.8928 42.98 25.7261 43.26C25.5595 43.54 25.3228 43.75 25.0161 43.89C24.7161 44.03 24.3595 44.1 23.9461 44.1ZM23.9561 43.02C24.0628 43.02 24.1461 42.9933 24.2061 42.94C24.2661 42.88 24.3061 42.8 24.3261 42.7C24.3528 42.5933 24.3661 42.4667 24.3661 42.32V39.9C24.3661 39.7533 24.3528 39.63 24.3261 39.53C24.3061 39.4233 24.2661 39.3433 24.2061 39.29C24.1461 39.23 24.0628 39.2 23.9561 39.2C23.8495 39.2 23.7661 39.23 23.7061 39.29C23.6461 39.3433 23.6028 39.4233 23.5761 39.53C23.5495 39.63 23.5361 39.7533 23.5361 39.9V42.32C23.5361 42.4667 23.5495 42.5933 23.5761 42.7C23.6028 42.8 23.6461 42.88 23.7061 42.94C23.7661 42.9933 23.8495 43.02 23.9561 43.02ZM28.6601 44.1C28.1535 44.1 27.7301 43.9867 27.3901 43.76C27.0568 43.5333 26.7835 43.1633 26.5701 42.65L27.6801 42.16C27.7868 42.42 27.9101 42.6267 28.0501 42.78C28.1968 42.9267 28.3568 43 28.5301 43C28.6568 43 28.7501 42.9733 28.8101 42.92C28.8768 42.8667 28.9101 42.7933 28.9101 42.7C28.9101 42.5467 28.8501 42.4067 28.7301 42.28C28.6168 42.1533 28.4101 41.9667 28.1101 41.72L27.6901 41.37C27.3835 41.11 27.1401 40.86 26.9601 40.62C26.7868 40.3733 26.7001 40.07 26.7001 39.71C26.7001 39.3967 26.7801 39.12 26.9401 38.88C27.1068 38.64 27.3268 38.4533 27.6001 38.32C27.8735 38.1867 28.1668 38.12 28.4801 38.12C28.9535 38.12 29.3501 38.25 29.6701 38.51C29.9901 38.77 30.2135 39.1367 30.3401 39.61L29.2901 40.09C29.2501 39.9633 29.1935 39.8367 29.1201 39.71C29.0468 39.5833 28.9568 39.4767 28.8501 39.39C28.7501 39.3033 28.6401 39.26 28.5201 39.26C28.4135 39.26 28.3268 39.29 28.2601 39.35C28.2001 39.41 28.1701 39.49 28.1701 39.59C28.1701 39.7167 28.2401 39.8533 28.3801 40C28.5268 40.1467 28.7268 40.3233 28.9801 40.53L29.3901 40.89C29.5568 41.03 29.7201 41.18 29.8801 41.34C30.0401 41.5 30.1701 41.6767 30.2701 41.87C30.3768 42.0633 30.4301 42.2833 30.4301 42.53C30.4301 42.8633 30.3468 43.15 30.1801 43.39C30.0135 43.6233 29.7935 43.8 29.5201 43.92C29.2535 44.04 28.9668 44.1 28.6601 44.1ZM33.5284 44.12C32.9151 44.12 32.4284 44.01 32.0684 43.79C31.7151 43.5633 31.4651 43.25 31.3184 42.85C31.1717 42.4433 31.0984 41.9667 31.0984 41.42V38.5C31.0984 37.94 31.1717 37.46 31.3184 37.06C31.4651 36.6533 31.7151 36.34 32.0684 36.12C32.4284 35.9 32.9151 35.79 33.5284 35.79C34.1284 35.79 34.5951 35.89 34.9284 36.09C35.2684 36.2833 35.5084 36.5567 35.6484 36.91C35.7884 37.2633 35.8584 37.67 35.8584 38.13V38.83H34.1084V38.02C34.1084 37.86 34.0984 37.7067 34.0784 37.56C34.0651 37.4133 34.0184 37.2933 33.9384 37.2C33.8584 37.1 33.7217 37.05 33.5284 37.05C33.3417 37.05 33.2017 37.1 33.1084 37.2C33.0217 37.3 32.9651 37.4267 32.9384 37.58C32.9184 37.7267 32.9084 37.8833 32.9084 38.05V41.86C32.9084 42.04 32.9217 42.2067 32.9484 42.36C32.9817 42.5067 33.0417 42.6267 33.1284 42.72C33.2217 42.8067 33.3551 42.85 33.5284 42.85C33.7151 42.85 33.8484 42.8033 33.9284 42.71C34.0084 42.61 34.0584 42.4833 34.0784 42.33C34.0984 42.1767 34.1084 42.02 34.1084 41.86V41.01H35.8584V41.71C35.8584 42.17 35.7884 42.5833 35.6484 42.95C35.5151 43.31 35.2784 43.5967 34.9384 43.81C34.6051 44.0167 34.1351 44.12 33.5284 44.12ZM36.7632 44V35.9H38.3832V38.73C38.5965 38.5167 38.8198 38.3633 39.0532 38.27C39.2865 38.17 39.5365 38.12 39.8032 38.12C40.0365 38.12 40.2298 38.18 40.3832 38.3C40.5432 38.4133 40.6632 38.5733 40.7432 38.78C40.8232 38.98 40.8632 39.21 40.8632 39.47V44H39.2432V39.7C39.2432 39.56 39.2198 39.4533 39.1732 39.38C39.1265 39.3067 39.0398 39.27 38.9132 39.27C38.8465 39.27 38.7665 39.29 38.6732 39.33C38.5798 39.3633 38.4832 39.4133 38.3832 39.48V44H36.7632ZM43.7311 44.1C43.3111 44.1 42.9511 44.0267 42.6511 43.88C42.3511 43.7267 42.1211 43.5067 41.9611 43.22C41.8011 42.9267 41.7211 42.5767 41.7211 42.17V40.05C41.7211 39.6367 41.8011 39.2867 41.9611 39C42.1211 38.7133 42.3511 38.4967 42.6511 38.35C42.9577 38.1967 43.3177 38.12 43.7311 38.12C44.1577 38.12 44.5111 38.1933 44.7911 38.34C45.0777 38.4867 45.2911 38.7033 45.4311 38.99C45.5777 39.2767 45.6511 39.63 45.6511 40.05V41.21H43.3311V42.32C43.3311 42.4667 43.3477 42.5867 43.3811 42.68C43.4144 42.7733 43.4611 42.84 43.5211 42.88C43.5811 42.92 43.6511 42.94 43.7311 42.94C43.8111 42.94 43.8811 42.9233 43.9411 42.89C44.0077 42.85 44.0577 42.79 44.0911 42.71C44.1311 42.63 44.1511 42.52 44.1511 42.38V41.77H45.6511V42.33C45.6511 42.9167 45.4811 43.36 45.1411 43.66C44.8011 43.9533 44.3311 44.1 43.7311 44.1ZM43.3311 40.45H44.1511V39.87C44.1511 39.7167 44.1311 39.5967 44.0911 39.51C44.0577 39.4233 44.0077 39.3633 43.9411 39.33C43.8811 39.2967 43.8077 39.28 43.7211 39.28C43.6411 39.28 43.5711 39.3 43.5111 39.34C43.4577 39.38 43.4144 39.45 43.3811 39.55C43.3477 39.6433 43.3311 39.78 43.3311 39.96V40.45ZM48.3183 44.1C47.8117 44.1 47.3883 43.9867 47.0483 43.76C46.715 43.5333 46.4417 43.1633 46.2283 42.65L47.3383 42.16C47.445 42.42 47.5683 42.6267 47.7083 42.78C47.855 42.9267 48.015 43 48.1883 43C48.315 43 48.4083 42.9733 48.4683 42.92C48.535 42.8667 48.5683 42.7933 48.5683 42.7C48.5683 42.5467 48.5083 42.4067 48.3883 42.28C48.275 42.1533 48.0683 41.9667 47.7683 41.72L47.3483 41.37C47.0417 41.11 46.7983 40.86 46.6183 40.62C46.445 40.3733 46.3583 40.07 46.3583 39.71C46.3583 39.3967 46.4383 39.12 46.5983 38.88C46.765 38.64 46.985 38.4533 47.2583 38.32C47.5317 38.1867 47.825 38.12 48.1383 38.12C48.6117 38.12 49.0083 38.25 49.3283 38.51C49.6483 38.77 49.8717 39.1367 49.9983 39.61L48.9483 40.09C48.9083 39.9633 48.8517 39.8367 48.7783 39.71C48.705 39.5833 48.615 39.4767 48.5083 39.39C48.4083 39.3033 48.2983 39.26 48.1783 39.26C48.0717 39.26 47.985 39.29 47.9183 39.35C47.8583 39.41 47.8283 39.49 47.8283 39.59C47.8283 39.7167 47.8983 39.8533 48.0383 40C48.185 40.1467 48.385 40.3233 48.6383 40.53L49.0483 40.89C49.215 41.03 49.3783 41.18 49.5383 41.34C49.6983 41.5 49.8283 41.6767 49.9283 41.87C50.035 42.0633 50.0883 42.2833 50.0883 42.53C50.0883 42.8633 50.005 43.15 49.8383 43.39C49.6717 43.6233 49.4517 43.8 49.1783 43.92C48.9117 44.04 48.625 44.1 48.3183 44.1ZM52.5566 44.1C52.0499 44.1 51.6266 43.9867 51.2866 43.76C50.9533 43.5333 50.6799 43.1633 50.4666 42.65L51.5766 42.16C51.6833 42.42 51.8066 42.6267 51.9466 42.78C52.0933 42.9267 52.2533 43 52.4266 43C52.5533 43 52.6466 42.9733 52.7066 42.92C52.7733 42.8667 52.8066 42.7933 52.8066 42.7C52.8066 42.5467 52.7466 42.4067 52.6266 42.28C52.5133 42.1533 52.3066 41.9667 52.0066 41.72L51.5866 41.37C51.2799 41.11 51.0366 40.86 50.8566 40.62C50.6833 40.3733 50.5966 40.07 50.5966 39.71C50.5966 39.3967 50.6766 39.12 50.8366 38.88C51.0033 38.64 51.2233 38.4533 51.4966 38.32C51.7699 38.1867 52.0633 38.12 52.3766 38.12C52.8499 38.12 53.2466 38.25 53.5666 38.51C53.8866 38.77 54.1099 39.1367 54.2366 39.61L53.1866 40.09C53.1466 39.9633 53.0899 39.8367 53.0166 39.71C52.9433 39.5833 52.8533 39.4767 52.7466 39.39C52.6466 39.3033 52.5366 39.26 52.4166 39.26C52.3099 39.26 52.2233 39.29 52.1566 39.35C52.0966 39.41 52.0666 39.49 52.0666 39.59C52.0666 39.7167 52.1366 39.8533 52.2766 40C52.4233 40.1467 52.6233 40.3233 52.8766 40.53L53.2866 40.89C53.4533 41.03 53.6166 41.18 53.7766 41.34C53.9366 41.5 54.0666 41.6767 54.1666 41.87C54.2733 42.0633 54.3266 42.2833 54.3266 42.53C54.3266 42.8633 54.2433 43.15 54.0766 43.39C53.9099 43.6233 53.6899 43.8 53.4166 43.92C53.1499 44.04 52.8633 44.1 52.5566 44.1Z"></path>
<rect stroke="black" fill="white" height="15" width="15" y="5.5" x="26.5"></rect>
<rect fill="#0D0E12" height="6" width="6" y="7" x="28"></rect>
<rect fill="#0D0E12" height="2" width="5" y="7" x="35"></rect>
<rect fill="#0D0E12" height="1" width="5" y="10" x="35"></rect>
<rect fill="#0D0E12" height="1" width="5" y="12" x="35"></rect>
<rect fill="#0D0E12" height="1" width="12" y="14" x="28"></rect>
<rect fill="#0D0E12" height="1" width="12" y="16" x="28"></rect>
<rect fill="#0D0E12" height="1" width="12" y="18" x="28"></rect>
</svg>
