<svg xmlns="http://www.w3.org/2000/svg" fill="none" viewBox="0 0 7 19" height="19" width="7">
<path fill-opacity="0.01" fill="white" d="M0 0.000205351L7 -1.675e-05V19L0 19.0002V0.000205351Z"></path>
<path fill="#45D2FF" d="M0.922016 13.9999V4.27988H3.07002V8.38388H3.55002C4.15802 8.38388 4.67402 8.48388 5.09802 8.68388C5.52202 8.88388 5.84602 9.19188 6.07002 9.60788C6.29402 10.0159 6.40602 10.5439 6.40602 11.1919C6.40602 11.7839 6.32602 12.2639 6.16602 12.6319C6.01402 12.9999 5.79802 13.2839 5.51802 13.4839C5.23802 13.6839 4.91002 13.8199 4.53402 13.8919C4.16602 13.9639 3.77002 13.9999 3.34602 13.9999H0.922016ZM3.07002 12.5959H3.35802C3.63002 12.5959 3.84202 12.5439 3.99402 12.4399C4.15402 12.3359 4.26602 12.1759 4.33002 11.9599C4.40202 11.7439 4.43402 11.4719 4.42602 11.1439C4.41802 10.7839 4.34202 10.4839 4.19802 10.2439C4.06202 9.99588 3.77402 9.87188 3.33402 9.87188H3.07002V12.5959Z"></path>
</svg>
