<svg xmlns="http://www.w3.org/2000/svg" fill="none" viewBox="0 0 44 22" height="22" width="44">
<rect stroke="white" fill="#0D0E12" height="21" width="43" y="0.5" x="0.5"></rect>
<path fill="white" d="M16.8495 15V11.69L15.3095 6.9H16.9995L17.7695 9.46L18.4595 6.9H20.0795L18.5695 11.69V15H16.8495ZM20.7611 15V6.9H24.4011V8.12H22.5511V10.13H23.9611V11.37H22.5511V13.79H24.4211V15H20.7611ZM27.3838 15.12C26.8771 15.12 26.4538 15.03 26.1138 14.85C25.7738 14.67 25.5171 14.3933 25.3438 14.02C25.1705 13.64 25.0738 13.15 25.0538 12.55L26.5838 12.32C26.5905 12.6667 26.6205 12.9467 26.6738 13.16C26.7338 13.3733 26.8138 13.5267 26.9138 13.62C27.0205 13.7133 27.1471 13.76 27.2938 13.76C27.4805 13.76 27.6005 13.6967 27.6538 13.57C27.7138 13.4433 27.7438 13.31 27.7438 13.17C27.7438 12.8367 27.6638 12.5567 27.5038 12.33C27.3438 12.0967 27.1271 11.8633 26.8538 11.63L26.1538 11.02C25.8471 10.76 25.5871 10.4667 25.3738 10.14C25.1671 9.80667 25.0638 9.39667 25.0638 8.91C25.0638 8.22333 25.2671 7.7 25.6738 7.34C26.0805 6.97333 26.6338 6.79 27.3338 6.79C27.7671 6.79 28.1138 6.86333 28.3738 7.01C28.6405 7.15667 28.8405 7.35 28.9738 7.59C29.1138 7.82333 29.2071 8.07333 29.2538 8.34C29.3071 8.6 29.3371 8.85 29.3438 9.09L27.8038 9.28C27.7971 9.04 27.7805 8.83333 27.7538 8.66C27.7338 8.48 27.6871 8.34333 27.6138 8.25C27.5405 8.15 27.4271 8.1 27.2738 8.1C27.1071 8.1 26.9838 8.17 26.9038 8.31C26.8305 8.45 26.7938 8.59 26.7938 8.73C26.7938 9.03 26.8638 9.27667 27.0038 9.47C27.1505 9.65667 27.3405 9.85333 27.5738 10.06L28.2438 10.65C28.5971 10.95 28.8938 11.29 29.1338 11.67C29.3805 12.05 29.5038 12.52 29.5038 13.08C29.5038 13.46 29.4171 13.8067 29.2438 14.12C29.0705 14.4267 28.8238 14.67 28.5038 14.85C28.1905 15.03 27.8171 15.12 27.3838 15.12Z"></path>
</svg>
