<svg xmlns="http://www.w3.org/2000/svg" fill="none" viewBox="0 0 27 34" height="34" width="27">
<path stroke="#0D0E12" fill="white" d="M14.0111 3.4186C18.3192 3.49525 22.4815 3.88495 25.5 4.8583V8.99839H1.5V4.85897C4.58773 3.87444 9.71803 3.34221 14.0111 3.4186Z"></path>
<path stroke="#0D0E12" fill="white" d="M1.53999 29.1847C2.16399 24.0243 6.21999 28.2416 6.21999 19.5749V15.8917C6.21999 14.186 5.19443 12.6476 3.61999 11.9916L3.04179 11.7507C1.81748 11.2405 1.01999 10.0442 1.01999 8.71791C1.01999 8.0289 1.26795 7.35577 1.91596 7.12164C5.93278 5.67037 21.0671 5.67041 25.084 7.12166C25.732 7.35578 25.98 8.02891 25.98 8.71793C25.98 10.0443 25.1825 11.2405 23.9582 11.7507L23.38 11.9916C21.8056 12.6476 20.78 14.186 20.78 15.8917V19.5749C20.78 28.2416 24.836 24.1646 25.46 29.3249V30.4236C25.46 31.1276 25.2646 31.8391 24.6096 32.0974C20.835 33.5859 6.15406 33.4811 2.38665 31.9474C1.73455 31.6819 1.53999 30.9708 1.53999 30.2668V29.1847Z"></path>
<path stroke-linecap="round" stroke="#0D0E12" d="M5.18002 28.2416C6.74002 29.8666 20.26 29.8666 21.82 28.2416"></path>
<path stroke-linecap="round" stroke="#0D0E12" d="M20.78 11.4499C18.7 10.9083 8.30002 10.9083 6.22002 11.45"></path>
<path fill="white" d="M26 3.09039C25.4075 2.68671 24.5702 2.32836 23.5 2.02729V6.85994C24.6102 7.1852 25.4591 7.62474 26 8.21356V3.09039ZM2.5 7.38132V2.34993C3.83697 1.85423 5.68283 1.47293 8 1.2436V6.17028C5.70098 6.35377 3.82351 6.71331 2.5 7.38132ZM19.5 6.19762V1.29625C17.7738 1.10328 15.7681 0.998291 13.5 0.998291C13.3319 0.998291 13.1652 0.998868 13 1.00001V5.99918C13.1655 5.99858 13.3322 5.99829 13.5 5.99829C15.7231 5.99829 17.7444 6.04872 19.5 6.19762Z" clip-rule="evenodd" fill-rule="evenodd"></path>
<path fill="black" d="M23.5 2.02729L23.6354 1.54598L23 1.36723V2.02729H23.5ZM26 3.09039H26.5V2.82603L26.2815 2.67718L26 3.09039ZM23.5 6.85994H23V7.23447L23.3594 7.33977L23.5 6.85994ZM26 8.21356L25.6318 8.55182L26.5 9.4969V8.21356H26ZM2.5 2.34993L2.32618 1.88112L2 2.00205V2.34993H2.5ZM2.5 7.38132H2V8.19376L2.72529 7.82769L2.5 7.38132ZM8 1.2436H8.5V0.691676L7.95076 0.746034L8 1.2436ZM8 6.17028L8.03978 6.6687L8.5 6.63196V6.17028H8ZM19.5 1.29625H20V0.849028L19.5555 0.799343L19.5 1.29625ZM19.5 6.19762L19.4577 6.69584L20 6.74183V6.19762H19.5ZM13 1.00001L12.9965 0.500026L12.5 0.503472V1.00001H13ZM13 5.99918H12.5V6.50101L13.0018 6.49918L13 5.99918ZM23.3646 2.50861C24.4068 2.80179 25.1875 3.14181 25.7185 3.50359L26.2815 2.67718C25.6276 2.2316 24.7337 1.85494 23.6354 1.54598L23.3646 2.50861ZM24 6.85994V2.02729H23V6.85994H24ZM26.3682 7.8753C25.7389 7.1903 24.7901 6.7169 23.6406 6.38011L23.3594 7.33977C24.4302 7.65351 25.1792 8.05918 25.6318 8.55182L26.3682 7.8753ZM26.5 8.21356V3.09039H25.5V8.21356H26.5ZM2 2.34993V7.38132H3V2.34993H2ZM7.95076 0.746034C5.61098 0.977598 3.71853 1.36488 2.32618 1.88112L2.67382 2.81874C3.95542 2.34358 5.75468 1.96826 8.04924 1.74117L7.95076 0.746034ZM8.5 6.17028V1.2436H7.5V6.17028H8.5ZM2.72529 7.82769C3.95855 7.20523 5.75522 6.85103 8.03978 6.6687L7.96022 5.67187C5.64675 5.85651 3.68847 6.22139 2.27471 6.93496L2.72529 7.82769ZM19 1.29625V6.19762H20V1.29625H19ZM13.5 1.49829C15.7533 1.49829 17.7401 1.60263 19.4445 1.79315L19.5555 0.799343C17.8075 0.603934 15.7829 0.498291 13.5 0.498291V1.49829ZM13.0035 1.5C13.1675 1.49886 13.333 1.49829 13.5 1.49829V0.498291C13.3308 0.498291 13.1629 0.498872 12.9965 0.500026L13.0035 1.5ZM13.5 5.99918V1.00001H12.5V5.99918H13.5ZM13.5 5.49829C13.3316 5.49829 13.1643 5.49858 12.9982 5.49919L13.0018 6.49918C13.1667 6.49858 13.3328 6.49829 13.5 6.49829V5.49829ZM19.5423 5.69941C17.7662 5.54877 15.7287 5.49829 13.5 5.49829V6.49829C15.7174 6.49829 17.7227 6.54867 19.4577 6.69584L19.5423 5.69941Z"></path>
</svg>
