<svg xmlns="http://www.w3.org/2000/svg" fill="none" viewBox="0 0 480 360" height="360" width="480">
<rect fill="white" height="360" width="480"></rect>
<path fill="white" d="M22.624 64V54.28H24.148L26.14 59.032V54.28H27.904V64H26.428L24.46 58.9V64H22.624ZM31.288 64.132C30.568 64.132 29.984 63.948 29.536 63.58C29.096 63.212 28.876 62.648 28.876 61.888V59.176C28.876 58.416 29.096 57.852 29.536 57.484C29.984 57.116 30.568 56.932 31.288 56.932C32 56.932 32.584 57.116 33.04 57.484C33.496 57.844 33.724 58.408 33.724 59.176V61.888C33.724 62.656 33.496 63.224 33.04 63.592C32.584 63.952 32 64.132 31.288 64.132ZM31.288 62.752C31.424 62.752 31.528 62.724 31.6 62.668C31.68 62.612 31.736 62.524 31.768 62.404C31.8 62.276 31.816 62.112 31.816 61.912V59.152C31.816 58.944 31.8 58.78 31.768 58.66C31.736 58.54 31.68 58.452 31.6 58.396C31.528 58.34 31.424 58.312 31.288 58.312C31.16 58.312 31.056 58.34 30.976 58.396C30.904 58.452 30.848 58.544 30.808 58.672C30.776 58.792 30.76 58.952 30.76 59.152V61.912C30.76 62.112 30.776 62.276 30.808 62.404C30.848 62.524 30.904 62.612 30.976 62.668C31.056 62.724 31.16 62.752 31.288 62.752Z"></path>
<rect fill="#0D0E12" height="30" width="480"></rect>
<path fill="white" d="M329.72 21V11.28H333.92V12.732H331.868V15.18H333.656V16.68H331.868V21H329.72ZM334.923 21V11.28H338.187C338.771 11.28 339.251 11.392 339.627 11.616C340.003 11.832 340.283 12.152 340.467 12.576C340.651 12.992 340.743 13.5 340.743 14.1C340.743 14.852 340.619 15.428 340.371 15.828C340.123 16.22 339.787 16.492 339.363 16.644C338.939 16.796 338.463 16.872 337.935 16.872H337.071V21H334.923ZM337.071 15.372H337.791C338.055 15.372 338.255 15.324 338.391 15.228C338.527 15.132 338.615 14.988 338.655 14.796C338.703 14.604 338.727 14.36 338.727 14.064C338.727 13.816 338.707 13.6 338.667 13.416C338.635 13.224 338.551 13.072 338.415 12.96C338.279 12.848 338.067 12.792 337.779 12.792H337.071V15.372ZM344.265 21.144C343.657 21.144 343.149 21.036 342.741 20.82C342.333 20.604 342.025 20.272 341.817 19.824C341.609 19.368 341.493 18.78 341.469 18.06L343.305 17.784C343.313 18.2 343.349 18.536 343.413 18.792C343.485 19.048 343.581 19.232 343.701 19.344C343.829 19.456 343.981 19.512 344.157 19.512C344.381 19.512 344.525 19.436 344.589 19.284C344.661 19.132 344.697 18.972 344.697 18.804C344.697 18.404 344.601 18.068 344.409 17.796C344.217 17.516 343.957 17.236 343.629 16.956L342.789 16.224C342.421 15.912 342.109 15.56 341.853 15.168C341.605 14.768 341.481 14.276 341.481 13.692C341.481 12.868 341.725 12.24 342.213 11.808C342.701 11.368 343.365 11.148 344.205 11.148C344.725 11.148 345.141 11.236 345.453 11.412C345.773 11.588 346.013 11.82 346.173 12.108C346.341 12.388 346.453 12.688 346.509 13.008C346.573 13.32 346.609 13.62 346.617 13.908L344.769 14.136C344.761 13.848 344.741 13.6 344.709 13.392C344.685 13.176 344.629 13.012 344.541 12.9C344.453 12.78 344.317 12.72 344.133 12.72C343.933 12.72 343.785 12.804 343.689 12.972C343.601 13.14 343.557 13.308 343.557 13.476C343.557 13.836 343.641 14.132 343.809 14.364C343.985 14.588 344.213 14.824 344.493 15.072L345.297 15.78C345.721 16.14 346.077 16.548 346.365 17.004C346.661 17.46 346.809 18.024 346.809 18.696C346.809 19.152 346.705 19.568 346.497 19.944C346.289 20.312 345.993 20.604 345.609 20.82C345.233 21.036 344.785 21.144 344.265 21.144ZM347.933 16.056V14.232H349.757V16.056H347.933ZM347.933 20.328V18.504H349.757V20.328H347.933Z"></path>
<path fill="#0D0E12" d="M103.672 83.192C102.691 83.192 101.912 83.016 101.336 82.664C100.771 82.3013 100.371 81.8 100.136 81.16C99.9013 80.5093 99.784 79.7467 99.784 78.872V74.2C99.784 73.304 99.9013 72.536 100.136 71.896C100.371 71.2453 100.771 70.744 101.336 70.392C101.912 70.04 102.691 69.864 103.672 69.864C104.632 69.864 105.379 70.024 105.912 70.344C106.456 70.6533 106.84 71.0907 107.064 71.656C107.288 72.2213 107.4 72.872 107.4 73.608V74.728H104.6V73.432C104.6 73.176 104.584 72.9307 104.552 72.696C104.531 72.4613 104.456 72.2693 104.328 72.12C104.2 71.96 103.981 71.88 103.672 71.88C103.373 71.88 103.149 71.96 103 72.12C102.861 72.28 102.771 72.4827 102.728 72.728C102.696 72.9627 102.68 73.2133 102.68 73.48V79.576C102.68 79.864 102.701 80.1307 102.744 80.376C102.797 80.6107 102.893 80.8027 103.032 80.952C103.181 81.0907 103.395 81.16 103.672 81.16C103.971 81.16 104.184 81.0853 104.312 80.936C104.44 80.776 104.52 80.5733 104.552 80.328C104.584 80.0827 104.6 79.832 104.6 79.576V78.216H107.4V79.336C107.4 80.072 107.288 80.7333 107.064 81.32C106.851 81.896 106.472 82.3547 105.928 82.696C105.395 83.0267 104.643 83.192 103.672 83.192ZM108.944 83V70.04H111.536V83H108.944ZM115.126 83.16C114.657 83.16 114.262 83.048 113.942 82.824C113.622 82.6 113.382 82.3173 113.222 81.976C113.062 81.624 112.982 81.2667 112.982 80.904C112.982 80.328 113.094 79.8427 113.318 79.448C113.553 79.0533 113.857 78.7227 114.23 78.456C114.604 78.1893 115.014 77.9653 115.462 77.784C115.91 77.592 116.353 77.4213 116.79 77.272V76.344C116.79 76.184 116.774 76.0453 116.742 75.928C116.71 75.8 116.657 75.704 116.582 75.64C116.508 75.5653 116.396 75.528 116.246 75.528C116.097 75.528 115.98 75.56 115.894 75.624C115.82 75.688 115.766 75.7787 115.734 75.896C115.702 76.0027 115.681 76.1253 115.67 76.264L115.606 76.936L113.174 76.84C113.228 75.7307 113.521 74.9147 114.054 74.392C114.598 73.8587 115.409 73.592 116.486 73.592C117.425 73.592 118.124 73.8533 118.582 74.376C119.052 74.888 119.286 75.5547 119.286 76.376V80.696C119.286 81.08 119.292 81.416 119.302 81.704C119.324 81.992 119.345 82.2427 119.366 82.456C119.398 82.6693 119.425 82.8507 119.446 83H117.11C117.078 82.7547 117.041 82.488 116.998 82.2C116.956 81.912 116.924 81.7413 116.902 81.688C116.796 82.072 116.593 82.4133 116.294 82.712C116.006 83.0107 115.617 83.16 115.126 83.16ZM116.054 81.4C116.161 81.4 116.257 81.3787 116.342 81.336C116.438 81.2933 116.524 81.2347 116.598 81.16C116.673 81.0853 116.737 81.0107 116.79 80.936V78.408C116.577 78.536 116.38 78.6693 116.198 78.808C116.017 78.936 115.862 79.08 115.734 79.24C115.606 79.4 115.505 79.576 115.43 79.768C115.366 79.9493 115.334 80.1573 115.334 80.392C115.334 80.7013 115.398 80.9467 115.526 81.128C115.654 81.3093 115.83 81.4 116.054 81.4ZM123.68 83.16C122.869 83.16 122.192 82.9787 121.648 82.616C121.114 82.2533 120.677 81.6613 120.336 80.84L122.112 80.056C122.282 80.472 122.48 80.8027 122.704 81.048C122.938 81.2827 123.194 81.4 123.472 81.4C123.674 81.4 123.824 81.3573 123.92 81.272C124.026 81.1867 124.08 81.0693 124.08 80.92C124.08 80.6747 123.984 80.4507 123.792 80.248C123.61 80.0453 123.28 79.7467 122.8 79.352L122.128 78.792C121.637 78.376 121.248 77.976 120.96 77.592C120.682 77.1973 120.544 76.712 120.544 76.136C120.544 75.6347 120.672 75.192 120.928 74.808C121.194 74.424 121.546 74.1253 121.984 73.912C122.421 73.6987 122.89 73.592 123.392 73.592C124.149 73.592 124.784 73.8 125.296 74.216C125.808 74.632 126.165 75.2187 126.368 75.976L124.688 76.744C124.624 76.5413 124.533 76.3387 124.416 76.136C124.298 75.9333 124.154 75.7627 123.984 75.624C123.824 75.4853 123.648 75.416 123.456 75.416C123.285 75.416 123.146 75.464 123.04 75.56C122.944 75.656 122.896 75.784 122.896 75.944C122.896 76.1467 123.008 76.3653 123.232 76.6C123.466 76.8347 123.786 77.1173 124.192 77.448L124.848 78.024C125.114 78.248 125.376 78.488 125.632 78.744C125.888 79 126.096 79.2827 126.256 79.592C126.426 79.9013 126.512 80.2533 126.512 80.648C126.512 81.1813 126.378 81.64 126.112 82.024C125.845 82.3973 125.493 82.68 125.056 82.872C124.629 83.064 124.17 83.16 123.68 83.16ZM130.461 83.16C129.65 83.16 128.973 82.9787 128.429 82.616C127.896 82.2533 127.458 81.6613 127.117 80.84L128.893 80.056C129.064 80.472 129.261 80.8027 129.485 81.048C129.72 81.2827 129.976 81.4 130.253 81.4C130.456 81.4 130.605 81.3573 130.701 81.272C130.808 81.1867 130.861 81.0693 130.861 80.92C130.861 80.6747 130.765 80.4507 130.573 80.248C130.392 80.0453 130.061 79.7467 129.581 79.352L128.909 78.792C128.418 78.376 128.029 77.976 127.741 77.592C127.464 77.1973 127.325 76.712 127.325 76.136C127.325 75.6347 127.453 75.192 127.709 74.808C127.976 74.424 128.328 74.1253 128.765 73.912C129.202 73.6987 129.672 73.592 130.173 73.592C130.93 73.592 131.565 73.8 132.077 74.216C132.589 74.632 132.946 75.2187 133.149 75.976L131.469 76.744C131.405 76.5413 131.314 76.3387 131.197 76.136C131.08 75.9333 130.936 75.7627 130.765 75.624C130.605 75.4853 130.429 75.416 130.237 75.416C130.066 75.416 129.928 75.464 129.821 75.56C129.725 75.656 129.677 75.784 129.677 75.944C129.677 76.1467 129.789 76.3653 130.013 76.6C130.248 76.8347 130.568 77.1173 130.973 77.448L131.629 78.024C131.896 78.248 132.157 78.488 132.413 78.744C132.669 79 132.877 79.2827 133.037 79.592C133.208 79.9013 133.293 80.2533 133.293 80.648C133.293 81.1813 133.16 81.64 132.893 82.024C132.626 82.3973 132.274 82.68 131.837 82.872C131.41 83.064 130.952 83.16 130.461 83.16ZM134.41 83V73.752H137.018V83H134.41ZM134.394 72.184V70.376H137.018V72.184H134.394ZM141.637 83.16C140.965 83.16 140.389 83.0373 139.909 82.792C139.439 82.5467 139.077 82.1947 138.821 81.736C138.565 81.2773 138.437 80.7227 138.437 80.072V76.68C138.437 76.0187 138.565 75.4587 138.821 75C139.077 74.5413 139.439 74.1947 139.909 73.96C140.389 73.7147 140.965 73.592 141.637 73.592C142.298 73.592 142.858 73.6933 143.317 73.896C143.786 74.0987 144.143 74.408 144.389 74.824C144.634 75.2293 144.757 75.7467 144.757 76.376V77.352H142.245V76.296C142.245 76.0507 142.218 75.864 142.165 75.736C142.122 75.5973 142.053 75.5013 141.957 75.448C141.871 75.3947 141.765 75.368 141.637 75.368C141.509 75.368 141.402 75.4053 141.317 75.48C141.231 75.544 141.167 75.656 141.125 75.816C141.082 75.9653 141.061 76.1787 141.061 76.456V80.296C141.061 80.712 141.109 80.9947 141.205 81.144C141.311 81.2933 141.461 81.368 141.653 81.368C141.791 81.368 141.903 81.3413 141.989 81.288C142.074 81.224 142.138 81.128 142.181 81C142.223 80.8613 142.245 80.68 142.245 80.456V79.224H144.757V80.344C144.757 80.9627 144.629 81.4853 144.373 81.912C144.127 82.328 143.77 82.6427 143.301 82.856C142.842 83.0587 142.287 83.16 141.637 83.16Z"></path>
<path fill="#0D0E12" d="M99.96 221V208.04H102.824V219.064H105.8V221H99.96ZM106.926 221V211.752H109.534V221H106.926ZM106.91 210.184V208.376H109.534V210.184H106.91ZM111.48 221V213.512H110.6V211.752H111.48V211.064C111.48 210.52 111.533 210.045 111.64 209.64C111.757 209.235 111.992 208.92 112.344 208.696C112.707 208.472 113.261 208.36 114.008 208.36C114.211 208.36 114.408 208.365 114.6 208.376C114.803 208.387 115.021 208.408 115.256 208.44V210.376C115.181 210.355 115.091 210.339 114.984 210.328C114.888 210.307 114.792 210.296 114.696 210.296C114.504 210.296 114.355 210.355 114.248 210.472C114.141 210.579 114.088 210.76 114.088 211.016V211.752H115.256V213.512H114.088V221H111.48ZM119.293 221.16C118.621 221.16 118.045 221.043 117.565 220.808C117.085 220.563 116.717 220.211 116.461 219.752C116.205 219.283 116.077 218.723 116.077 218.072V214.68C116.077 214.019 116.205 213.459 116.461 213C116.717 212.541 117.085 212.195 117.565 211.96C118.056 211.715 118.632 211.592 119.293 211.592C119.976 211.592 120.541 211.709 120.989 211.944C121.448 212.179 121.789 212.525 122.013 212.984C122.248 213.443 122.365 214.008 122.365 214.68V216.536H118.653V218.312C118.653 218.547 118.68 218.739 118.733 218.888C118.786 219.037 118.861 219.144 118.957 219.208C119.053 219.272 119.165 219.304 119.293 219.304C119.421 219.304 119.533 219.277 119.629 219.224C119.736 219.16 119.816 219.064 119.869 218.936C119.933 218.808 119.965 218.632 119.965 218.408V217.432H122.365V218.328C122.365 219.267 122.093 219.976 121.549 220.456C121.005 220.925 120.253 221.16 119.293 221.16ZM118.653 215.32H119.965V214.392C119.965 214.147 119.933 213.955 119.869 213.816C119.816 213.677 119.736 213.581 119.629 213.528C119.533 213.475 119.416 213.448 119.277 213.448C119.149 213.448 119.037 213.48 118.941 213.544C118.856 213.608 118.786 213.72 118.733 213.88C118.68 214.029 118.653 214.248 118.653 214.536V215.32ZM131.911 223.864C131.207 223.864 130.62 223.725 130.151 223.448C129.681 223.171 129.303 222.776 129.015 222.264C128.737 221.763 128.529 221.181 128.391 220.52C128.252 219.848 128.161 219.123 128.118 218.344C128.076 217.565 128.055 216.765 128.055 215.944C128.055 215.059 128.076 214.216 128.118 213.416C128.161 212.616 128.252 211.88 128.391 211.208C128.529 210.525 128.737 209.939 129.015 209.448C129.303 208.957 129.681 208.579 130.151 208.312C130.62 208.035 131.207 207.896 131.911 207.896V209.72C131.612 209.72 131.367 209.859 131.174 210.136C130.983 210.413 130.833 210.819 130.727 211.352C130.62 211.875 130.545 212.52 130.503 213.288C130.471 214.056 130.455 214.941 130.455 215.944C130.455 216.957 130.476 217.843 130.519 218.6C130.561 219.357 130.636 219.992 130.743 220.504C130.86 221.005 131.009 221.384 131.191 221.64C131.383 221.896 131.623 222.024 131.911 222.024V223.864ZM136.325 221.16C135.663 221.16 135.087 221.048 134.597 220.824C134.117 220.6 133.743 220.264 133.477 219.816C133.221 219.368 133.093 218.808 133.093 218.136V214.616C133.093 213.944 133.221 213.384 133.477 212.936C133.743 212.488 134.117 212.152 134.597 211.928C135.087 211.704 135.663 211.592 136.325 211.592C136.986 211.592 137.557 211.704 138.037 211.928C138.527 212.152 138.906 212.488 139.173 212.936C139.439 213.384 139.573 213.944 139.573 214.616V218.136C139.573 218.808 139.439 219.368 139.173 219.816C138.906 220.264 138.527 220.6 138.037 220.824C137.557 221.048 136.986 221.16 136.325 221.16ZM136.341 219.432C136.511 219.432 136.645 219.389 136.741 219.304C136.837 219.208 136.901 219.08 136.933 218.92C136.975 218.749 136.997 218.547 136.997 218.312V214.44C136.997 214.205 136.975 214.008 136.933 213.848C136.901 213.677 136.837 213.549 136.741 213.464C136.645 213.368 136.511 213.32 136.341 213.32C136.17 213.32 136.037 213.368 135.941 213.464C135.845 213.549 135.775 213.677 135.733 213.848C135.69 214.008 135.669 214.205 135.669 214.44V218.312C135.669 218.547 135.69 218.749 135.733 218.92C135.775 219.08 135.845 219.208 135.941 219.304C136.037 219.389 136.17 219.432 136.341 219.432ZM141.019 224.04V211.752H143.627V212.424C143.936 212.147 144.267 211.939 144.619 211.8C144.971 211.661 145.307 211.592 145.627 211.592C145.979 211.592 146.278 211.661 146.523 211.8C146.779 211.939 146.987 212.136 147.147 212.392C147.307 212.637 147.424 212.925 147.499 213.256C147.574 213.587 147.611 213.939 147.611 214.312V218.296C147.611 218.872 147.531 219.373 147.371 219.8C147.222 220.227 146.998 220.563 146.699 220.808C146.4 221.043 146.032 221.16 145.595 221.16C145.264 221.16 144.928 221.085 144.587 220.936C144.256 220.776 143.936 220.563 143.627 220.296V224.04H141.019ZM144.315 219.48C144.486 219.48 144.619 219.432 144.715 219.336C144.811 219.24 144.88 219.117 144.923 218.968C144.976 218.808 145.003 218.632 145.003 218.44V214.12C145.003 213.939 144.982 213.779 144.939 213.64C144.896 213.491 144.827 213.373 144.731 213.288C144.635 213.203 144.512 213.16 144.363 213.16C144.224 213.16 144.091 213.192 143.963 213.256C143.846 213.309 143.734 213.384 143.627 213.48V219.24C143.744 219.315 143.856 219.373 143.963 219.416C144.08 219.459 144.198 219.48 144.315 219.48ZM149.097 224.04V211.752H151.705V212.424C152.015 212.147 152.345 211.939 152.697 211.8C153.049 211.661 153.385 211.592 153.705 211.592C154.057 211.592 154.356 211.661 154.601 211.8C154.857 211.939 155.065 212.136 155.225 212.392C155.385 212.637 155.503 212.925 155.577 213.256C155.652 213.587 155.689 213.939 155.689 214.312V218.296C155.689 218.872 155.609 219.373 155.449 219.8C155.3 220.227 155.076 220.563 154.777 220.808C154.479 221.043 154.111 221.16 153.673 221.16C153.343 221.16 153.007 221.085 152.665 220.936C152.335 220.776 152.015 220.563 151.705 220.296V224.04H149.097ZM152.393 219.48C152.564 219.48 152.697 219.432 152.793 219.336C152.889 219.24 152.959 219.117 153.001 218.968C153.055 218.808 153.081 218.632 153.081 218.44V214.12C153.081 213.939 153.06 213.779 153.017 213.64C152.975 213.491 152.905 213.373 152.809 213.288C152.713 213.203 152.591 213.16 152.441 213.16C152.303 213.16 152.169 213.192 152.041 213.256C151.924 213.309 151.812 213.384 151.705 213.48V219.24C151.823 219.315 151.935 219.373 152.041 219.416C152.159 219.459 152.276 219.48 152.393 219.48ZM160.215 221.16C159.554 221.16 158.978 221.048 158.487 220.824C158.007 220.6 157.634 220.264 157.367 219.816C157.111 219.368 156.983 218.808 156.983 218.136V214.616C156.983 213.944 157.111 213.384 157.367 212.936C157.634 212.488 158.007 212.152 158.487 211.928C158.978 211.704 159.554 211.592 160.215 211.592C160.877 211.592 161.447 211.704 161.927 211.928C162.418 212.152 162.797 212.488 163.063 212.936C163.33 213.384 163.463 213.944 163.463 214.616V218.136C163.463 218.808 163.33 219.368 163.063 219.816C162.797 220.264 162.418 220.6 161.927 220.824C161.447 221.048 160.877 221.16 160.215 221.16ZM160.231 219.432C160.402 219.432 160.535 219.389 160.631 219.304C160.727 219.208 160.791 219.08 160.823 218.92C160.866 218.749 160.887 218.547 160.887 218.312V214.44C160.887 214.205 160.866 214.008 160.823 213.848C160.791 213.677 160.727 213.549 160.631 213.464C160.535 213.368 160.402 213.32 160.231 213.32C160.061 213.32 159.927 213.368 159.831 213.464C159.735 213.549 159.666 213.677 159.623 213.848C159.581 214.008 159.559 214.205 159.559 214.44V218.312C159.559 218.547 159.581 218.749 159.623 218.92C159.666 219.08 159.735 219.208 159.831 219.304C159.927 219.389 160.061 219.432 160.231 219.432ZM164.91 221V211.752H167.518V212.68C167.859 212.339 168.211 212.072 168.574 211.88C168.947 211.688 169.336 211.592 169.742 211.592C170.126 211.592 170.44 211.688 170.686 211.88C170.942 212.061 171.134 212.317 171.262 212.648C171.39 212.968 171.454 213.336 171.454 213.752V221H168.862V214.12C168.862 213.896 168.824 213.725 168.75 213.608C168.675 213.491 168.536 213.432 168.334 213.432C168.227 213.432 168.099 213.464 167.95 213.528C167.811 213.581 167.667 213.661 167.518 213.768V221H164.91ZM176.043 221.16C175.371 221.16 174.795 221.043 174.315 220.808C173.835 220.563 173.467 220.211 173.211 219.752C172.955 219.283 172.827 218.723 172.827 218.072V214.68C172.827 214.019 172.955 213.459 173.211 213C173.467 212.541 173.835 212.195 174.315 211.96C174.806 211.715 175.382 211.592 176.043 211.592C176.726 211.592 177.291 211.709 177.739 211.944C178.198 212.179 178.539 212.525 178.763 212.984C178.998 213.443 179.115 214.008 179.115 214.68V216.536H175.403V218.312C175.403 218.547 175.43 218.739 175.483 218.888C175.536 219.037 175.611 219.144 175.707 219.208C175.803 219.272 175.915 219.304 176.043 219.304C176.171 219.304 176.283 219.277 176.379 219.224C176.486 219.16 176.566 219.064 176.619 218.936C176.683 218.808 176.715 218.632 176.715 218.408V217.432H179.115V218.328C179.115 219.267 178.843 219.976 178.299 220.456C177.755 220.925 177.003 221.16 176.043 221.16ZM175.403 215.32H176.715V214.392C176.715 214.147 176.683 213.955 176.619 213.816C176.566 213.677 176.486 213.581 176.379 213.528C176.283 213.475 176.166 213.448 176.027 213.448C175.899 213.448 175.787 213.48 175.691 213.544C175.606 213.608 175.536 213.72 175.483 213.88C175.43 214.029 175.403 214.248 175.403 214.536V215.32ZM180.535 221V211.752H183.143V212.68C183.484 212.339 183.836 212.072 184.199 211.88C184.572 211.688 184.961 211.592 185.367 211.592C185.751 211.592 186.065 211.688 186.311 211.88C186.567 212.061 186.759 212.317 186.887 212.648C187.015 212.968 187.079 213.336 187.079 213.752V221H184.487V214.12C184.487 213.896 184.449 213.725 184.375 213.608C184.3 213.491 184.161 213.432 183.959 213.432C183.852 213.432 183.724 213.464 183.575 213.528C183.436 213.581 183.292 213.661 183.143 213.768V221H180.535ZM191.508 221.096C190.815 221.096 190.276 220.995 189.892 220.792C189.519 220.589 189.263 220.296 189.124 219.912C188.985 219.517 188.916 219.043 188.916 218.488V213.464H188.02V211.752H188.916V208.936H191.556V211.752H192.868V213.464H191.556V218.232C191.556 218.499 191.631 218.691 191.78 218.808C191.94 218.925 192.137 218.984 192.372 218.984C192.511 218.984 192.639 218.979 192.756 218.968C192.873 218.947 192.98 218.931 193.076 218.92V220.968C192.937 220.989 192.719 221.016 192.42 221.048C192.121 221.08 191.817 221.096 191.508 221.096ZM193.884 212.856V208.04H196.012L195.148 212.856H193.884ZM199.867 221.16C199.056 221.16 198.379 220.979 197.835 220.616C197.302 220.253 196.864 219.661 196.523 218.84L198.299 218.056C198.47 218.472 198.667 218.803 198.891 219.048C199.126 219.283 199.382 219.4 199.659 219.4C199.862 219.4 200.011 219.357 200.107 219.272C200.214 219.187 200.267 219.069 200.267 218.92C200.267 218.675 200.171 218.451 199.979 218.248C199.798 218.045 199.467 217.747 198.987 217.352L198.315 216.792C197.824 216.376 197.435 215.976 197.147 215.592C196.87 215.197 196.731 214.712 196.731 214.136C196.731 213.635 196.859 213.192 197.115 212.808C197.382 212.424 197.734 212.125 198.171 211.912C198.608 211.699 199.078 211.592 199.579 211.592C200.336 211.592 200.971 211.8 201.483 212.216C201.995 212.632 202.352 213.219 202.555 213.976L200.875 214.744C200.811 214.541 200.72 214.339 200.603 214.136C200.486 213.933 200.342 213.763 200.171 213.624C200.011 213.485 199.835 213.416 199.643 213.416C199.472 213.416 199.334 213.464 199.227 213.56C199.131 213.656 199.083 213.784 199.083 213.944C199.083 214.147 199.195 214.365 199.419 214.6C199.654 214.835 199.974 215.117 200.379 215.448L201.035 216.024C201.302 216.248 201.563 216.488 201.819 216.744C202.075 217 202.283 217.283 202.443 217.592C202.614 217.901 202.699 218.253 202.699 218.648C202.699 219.181 202.566 219.64 202.299 220.024C202.032 220.397 201.68 220.68 201.243 220.872C200.816 221.064 200.358 221.16 199.867 221.16ZM207.894 224.04V211.752H210.502V212.424C210.811 212.147 211.142 211.939 211.494 211.8C211.846 211.661 212.182 211.592 212.502 211.592C212.854 211.592 213.153 211.661 213.398 211.8C213.654 211.939 213.862 212.136 214.022 212.392C214.182 212.637 214.299 212.925 214.374 213.256C214.449 213.587 214.486 213.939 214.486 214.312V218.296C214.486 218.872 214.406 219.373 214.246 219.8C214.097 220.227 213.873 220.563 213.574 220.808C213.275 221.043 212.907 221.16 212.47 221.16C212.139 221.16 211.803 221.085 211.462 220.936C211.131 220.776 210.811 220.563 210.502 220.296V224.04H207.894ZM211.19 219.48C211.361 219.48 211.494 219.432 211.59 219.336C211.686 219.24 211.755 219.117 211.798 218.968C211.851 218.808 211.878 218.632 211.878 218.44V214.12C211.878 213.939 211.857 213.779 211.814 213.64C211.771 213.491 211.702 213.373 211.606 213.288C211.51 213.203 211.387 213.16 211.238 213.16C211.099 213.16 210.966 213.192 210.838 213.256C210.721 213.309 210.609 213.384 210.502 213.48V219.24C210.619 219.315 210.731 219.373 210.838 219.416C210.955 219.459 211.073 219.48 211.19 219.48ZM215.988 221V211.752H218.596V221H215.988ZM215.972 210.184V208.376H218.596V210.184H215.972ZM223.231 221.16C222.559 221.16 221.983 221.043 221.503 220.808C221.023 220.563 220.655 220.211 220.399 219.752C220.143 219.283 220.015 218.723 220.015 218.072V214.68C220.015 214.019 220.143 213.459 220.399 213C220.655 212.541 221.023 212.195 221.503 211.96C221.993 211.715 222.569 211.592 223.231 211.592C223.913 211.592 224.479 211.709 224.927 211.944C225.385 212.179 225.727 212.525 225.951 212.984C226.185 213.443 226.303 214.008 226.303 214.68V216.536H222.591V218.312C222.591 218.547 222.617 218.739 222.671 218.888C222.724 219.037 222.799 219.144 222.895 219.208C222.991 219.272 223.103 219.304 223.231 219.304C223.359 219.304 223.471 219.277 223.567 219.224C223.673 219.16 223.753 219.064 223.807 218.936C223.871 218.808 223.903 218.632 223.903 218.408V217.432H226.303V218.328C226.303 219.267 226.031 219.976 225.487 220.456C224.943 220.925 224.191 221.16 223.231 221.16ZM222.591 215.32H223.903V214.392C223.903 214.147 223.871 213.955 223.807 213.816C223.753 213.677 223.673 213.581 223.567 213.528C223.471 213.475 223.353 213.448 223.215 213.448C223.087 213.448 222.975 213.48 222.879 213.544C222.793 213.608 222.724 213.72 222.671 213.88C222.617 214.029 222.591 214.248 222.591 214.536V215.32ZM230.73 221.16C230.058 221.16 229.482 221.037 229.002 220.792C228.533 220.547 228.17 220.195 227.914 219.736C227.658 219.277 227.53 218.723 227.53 218.072V214.68C227.53 214.019 227.658 213.459 227.914 213C228.17 212.541 228.533 212.195 229.002 211.96C229.482 211.715 230.058 211.592 230.73 211.592C231.392 211.592 231.952 211.693 232.41 211.896C232.88 212.099 233.237 212.408 233.482 212.824C233.728 213.229 233.85 213.747 233.85 214.376V215.352H231.338V214.296C231.338 214.051 231.312 213.864 231.258 213.736C231.216 213.597 231.146 213.501 231.05 213.448C230.965 213.395 230.858 213.368 230.73 213.368C230.602 213.368 230.496 213.405 230.41 213.48C230.325 213.544 230.261 213.656 230.218 213.816C230.176 213.965 230.154 214.179 230.154 214.456V218.296C230.154 218.712 230.202 218.995 230.298 219.144C230.405 219.293 230.554 219.368 230.746 219.368C230.885 219.368 230.997 219.341 231.082 219.288C231.168 219.224 231.232 219.128 231.274 219C231.317 218.861 231.338 218.68 231.338 218.456V217.224H233.85V218.344C233.85 218.963 233.722 219.485 233.466 219.912C233.221 220.328 232.864 220.643 232.394 220.856C231.936 221.059 231.381 221.16 230.73 221.16ZM238.231 221.16C237.559 221.16 236.983 221.043 236.503 220.808C236.023 220.563 235.655 220.211 235.399 219.752C235.143 219.283 235.015 218.723 235.015 218.072V214.68C235.015 214.019 235.143 213.459 235.399 213C235.655 212.541 236.023 212.195 236.503 211.96C236.993 211.715 237.569 211.592 238.231 211.592C238.913 211.592 239.479 211.709 239.927 211.944C240.385 212.179 240.727 212.525 240.951 212.984C241.185 213.443 241.303 214.008 241.303 214.68V216.536H237.591V218.312C237.591 218.547 237.617 218.739 237.671 218.888C237.724 219.037 237.799 219.144 237.895 219.208C237.991 219.272 238.103 219.304 238.231 219.304C238.359 219.304 238.471 219.277 238.567 219.224C238.673 219.16 238.753 219.064 238.807 218.936C238.871 218.808 238.903 218.632 238.903 218.408V217.432H241.303V218.328C241.303 219.267 241.031 219.976 240.487 220.456C239.943 220.925 239.191 221.16 238.231 221.16ZM237.591 215.32H238.903V214.392C238.903 214.147 238.871 213.955 238.807 213.816C238.753 213.677 238.673 213.581 238.567 213.528C238.471 213.475 238.353 213.448 238.215 213.448C238.087 213.448 237.975 213.48 237.879 213.544C237.793 213.608 237.724 213.72 237.671 213.88C237.617 214.029 237.591 214.248 237.591 214.536V215.32ZM245.57 221.16C244.76 221.16 244.082 220.979 243.538 220.616C243.005 220.253 242.568 219.661 242.226 218.84L244.002 218.056C244.173 218.472 244.37 218.803 244.594 219.048C244.829 219.283 245.085 219.4 245.362 219.4C245.565 219.4 245.714 219.357 245.81 219.272C245.917 219.187 245.97 219.069 245.97 218.92C245.97 218.675 245.874 218.451 245.682 218.248C245.501 218.045 245.17 217.747 244.69 217.352L244.018 216.792C243.528 216.376 243.138 215.976 242.85 215.592C242.573 215.197 242.434 214.712 242.434 214.136C242.434 213.635 242.562 213.192 242.818 212.808C243.085 212.424 243.437 212.125 243.874 211.912C244.312 211.699 244.781 211.592 245.282 211.592C246.04 211.592 246.674 211.8 247.186 212.216C247.698 212.632 248.056 213.219 248.258 213.976L246.578 214.744C246.514 214.541 246.424 214.339 246.306 214.136C246.189 213.933 246.045 213.763 245.874 213.624C245.714 213.485 245.538 213.416 245.346 213.416C245.176 213.416 245.037 213.464 244.93 213.56C244.834 213.656 244.786 213.784 244.786 213.944C244.786 214.147 244.898 214.365 245.122 214.6C245.357 214.835 245.677 215.117 246.082 215.448L246.738 216.024C247.005 216.248 247.266 216.488 247.522 216.744C247.778 217 247.986 217.283 248.146 217.592C248.317 217.901 248.402 218.253 248.402 218.648C248.402 219.181 248.269 219.64 248.002 220.024C247.736 220.397 247.384 220.68 246.946 220.872C246.52 221.064 246.061 221.16 245.57 221.16ZM255.501 221.16C255.032 221.16 254.637 221.048 254.317 220.824C253.997 220.6 253.757 220.317 253.597 219.976C253.437 219.624 253.357 219.267 253.357 218.904C253.357 218.328 253.469 217.843 253.693 217.448C253.928 217.053 254.232 216.723 254.605 216.456C254.979 216.189 255.389 215.965 255.837 215.784C256.285 215.592 256.728 215.421 257.165 215.272V214.344C257.165 214.184 257.149 214.045 257.117 213.928C257.085 213.8 257.032 213.704 256.957 213.64C256.883 213.565 256.771 213.528 256.621 213.528C256.472 213.528 256.355 213.56 256.269 213.624C256.195 213.688 256.141 213.779 256.109 213.896C256.077 214.003 256.056 214.125 256.045 214.264L255.981 214.936L253.549 214.84C253.603 213.731 253.896 212.915 254.429 212.392C254.973 211.859 255.784 211.592 256.861 211.592C257.8 211.592 258.499 211.853 258.957 212.376C259.427 212.888 259.661 213.555 259.661 214.376V218.696C259.661 219.08 259.667 219.416 259.677 219.704C259.699 219.992 259.72 220.243 259.741 220.456C259.773 220.669 259.8 220.851 259.821 221H257.485C257.453 220.755 257.416 220.488 257.373 220.2C257.331 219.912 257.299 219.741 257.277 219.688C257.171 220.072 256.968 220.413 256.669 220.712C256.381 221.011 255.992 221.16 255.501 221.16ZM256.429 219.4C256.536 219.4 256.632 219.379 256.717 219.336C256.813 219.293 256.899 219.235 256.973 219.16C257.048 219.085 257.112 219.011 257.165 218.936V216.408C256.952 216.536 256.755 216.669 256.573 216.808C256.392 216.936 256.237 217.08 256.109 217.24C255.981 217.4 255.88 217.576 255.805 217.768C255.741 217.949 255.709 218.157 255.709 218.392C255.709 218.701 255.773 218.947 255.901 219.128C256.029 219.309 256.205 219.4 256.429 219.4ZM261.239 221V211.752H263.847V213.288C264.145 212.755 264.444 212.349 264.743 212.072C265.041 211.784 265.404 211.64 265.831 211.64C265.916 211.64 265.991 211.645 266.055 211.656C266.119 211.656 266.177 211.667 266.231 211.688V214.28C266.113 214.227 265.98 214.184 265.831 214.152C265.692 214.109 265.543 214.088 265.383 214.088C265.084 214.088 264.807 214.168 264.551 214.328C264.295 214.488 264.06 214.707 263.847 214.984V221H261.239ZM270.356 221.16C269.684 221.16 269.108 221.043 268.628 220.808C268.148 220.563 267.78 220.211 267.524 219.752C267.268 219.283 267.14 218.723 267.14 218.072V214.68C267.14 214.019 267.268 213.459 267.524 213C267.78 212.541 268.148 212.195 268.628 211.96C269.118 211.715 269.694 211.592 270.356 211.592C271.038 211.592 271.604 211.709 272.052 211.944C272.51 212.179 272.852 212.525 273.076 212.984C273.31 213.443 273.428 214.008 273.428 214.68V216.536H269.716V218.312C269.716 218.547 269.742 218.739 269.796 218.888C269.849 219.037 269.924 219.144 270.02 219.208C270.116 219.272 270.228 219.304 270.356 219.304C270.484 219.304 270.596 219.277 270.692 219.224C270.798 219.16 270.878 219.064 270.932 218.936C270.996 218.808 271.028 218.632 271.028 218.408V217.432H273.428V218.328C273.428 219.267 273.156 219.976 272.612 220.456C272.068 220.925 271.316 221.16 270.356 221.16ZM269.716 215.32H271.028V214.392C271.028 214.147 270.996 213.955 270.932 213.816C270.878 213.677 270.798 213.581 270.692 213.528C270.596 213.475 270.478 213.448 270.34 213.448C270.212 213.448 270.1 213.48 270.004 213.544C269.918 213.608 269.849 213.72 269.796 213.88C269.742 214.029 269.716 214.248 269.716 214.536V215.32ZM278.941 221V211.752H281.549V212.68C281.89 212.339 282.242 212.072 282.605 211.88C282.978 211.688 283.368 211.592 283.773 211.592C284.157 211.592 284.472 211.688 284.717 211.88C284.973 212.061 285.165 212.317 285.293 212.648C285.421 212.968 285.485 213.336 285.485 213.752V221H282.893V214.12C282.893 213.896 282.856 213.725 282.781 213.608C282.706 213.491 282.568 213.432 282.365 213.432C282.258 213.432 282.13 213.464 281.981 213.528C281.842 213.581 281.698 213.661 281.549 213.768V221H278.941ZM290.09 221.16C289.429 221.16 288.853 221.048 288.362 220.824C287.882 220.6 287.509 220.264 287.242 219.816C286.986 219.368 286.858 218.808 286.858 218.136V214.616C286.858 213.944 286.986 213.384 287.242 212.936C287.509 212.488 287.882 212.152 288.362 211.928C288.853 211.704 289.429 211.592 290.09 211.592C290.752 211.592 291.322 211.704 291.802 211.928C292.293 212.152 292.672 212.488 292.938 212.936C293.205 213.384 293.338 213.944 293.338 214.616V218.136C293.338 218.808 293.205 219.368 292.938 219.816C292.672 220.264 292.293 220.6 291.802 220.824C291.322 221.048 290.752 221.16 290.09 221.16ZM290.106 219.432C290.277 219.432 290.41 219.389 290.506 219.304C290.602 219.208 290.666 219.08 290.698 218.92C290.741 218.749 290.762 218.547 290.762 218.312V214.44C290.762 214.205 290.741 214.008 290.698 213.848C290.666 213.677 290.602 213.549 290.506 213.464C290.41 213.368 290.277 213.32 290.106 213.32C289.936 213.32 289.802 213.368 289.706 213.464C289.61 213.549 289.541 213.677 289.498 213.848C289.456 214.008 289.434 214.205 289.434 214.44V218.312C289.434 218.547 289.456 218.749 289.498 218.92C289.541 219.08 289.61 219.208 289.706 219.304C289.802 219.389 289.936 219.432 290.106 219.432ZM297.649 221.096C296.955 221.096 296.417 220.995 296.033 220.792C295.659 220.589 295.403 220.296 295.265 219.912C295.126 219.517 295.057 219.043 295.057 218.488V213.464H294.161V211.752H295.057V208.936H297.697V211.752H299.009V213.464H297.697V218.232C297.697 218.499 297.771 218.691 297.921 218.808C298.081 218.925 298.278 218.984 298.513 218.984C298.651 218.984 298.779 218.979 298.897 218.968C299.014 218.947 299.121 218.931 299.217 218.92V220.968C299.078 220.989 298.859 221.016 298.561 221.048C298.262 221.08 297.958 221.096 297.649 221.096ZM305.735 221L303.879 211.752H306.375L307.143 217.656L307.847 211.752H310.343L308.439 221H305.735ZM311.285 221V211.752H313.893V221H311.285ZM311.269 210.184V208.376H313.893V210.184H311.269ZM318.352 221.16C317.541 221.16 316.864 220.979 316.32 220.616C315.786 220.253 315.349 219.661 315.008 218.84L316.784 218.056C316.954 218.472 317.152 218.803 317.376 219.048C317.61 219.283 317.866 219.4 318.144 219.4C318.346 219.4 318.496 219.357 318.592 219.272C318.698 219.187 318.752 219.069 318.752 218.92C318.752 218.675 318.656 218.451 318.464 218.248C318.282 218.045 317.952 217.747 317.472 217.352L316.799 216.792C316.309 216.376 315.92 215.976 315.632 215.592C315.354 215.197 315.215 214.712 315.215 214.136C315.215 213.635 315.344 213.192 315.6 212.808C315.866 212.424 316.218 212.125 316.656 211.912C317.093 211.699 317.562 211.592 318.064 211.592C318.821 211.592 319.456 211.8 319.968 212.216C320.48 212.632 320.837 213.219 321.04 213.976L319.36 214.744C319.296 214.541 319.205 214.339 319.088 214.136C318.97 213.933 318.826 213.763 318.656 213.624C318.496 213.485 318.32 213.416 318.128 213.416C317.957 213.416 317.818 213.464 317.712 213.56C317.616 213.656 317.568 213.784 317.568 213.944C317.568 214.147 317.68 214.365 317.904 214.6C318.138 214.835 318.458 215.117 318.864 215.448L319.52 216.024C319.786 216.248 320.048 216.488 320.304 216.744C320.56 217 320.768 217.283 320.928 217.592C321.098 217.901 321.184 218.253 321.184 218.648C321.184 219.181 321.05 219.64 320.784 220.024C320.517 220.397 320.165 220.68 319.728 220.872C319.301 221.064 318.842 221.16 318.352 221.16ZM322.301 221V211.752H324.909V221H322.301ZM322.285 210.184V208.376H324.909V210.184H322.285ZM331.111 221.16C330.77 221.16 330.428 221.085 330.087 220.936C329.756 220.776 329.436 220.563 329.127 220.296V221H326.519V208.04H329.127V212.424C329.447 212.147 329.778 211.939 330.119 211.8C330.471 211.661 330.812 211.592 331.143 211.592C331.495 211.592 331.794 211.661 332.039 211.8C332.295 211.939 332.503 212.136 332.663 212.392C332.823 212.637 332.94 212.925 333.015 213.256C333.09 213.587 333.127 213.939 333.127 214.312V218.296C333.127 218.872 333.047 219.373 332.887 219.8C332.738 220.227 332.514 220.563 332.215 220.808C331.916 221.043 331.548 221.16 331.111 221.16ZM329.847 219.48C330.018 219.48 330.151 219.432 330.247 219.336C330.343 219.24 330.412 219.117 330.455 218.968C330.498 218.808 330.519 218.632 330.519 218.44V214.12C330.519 213.939 330.498 213.779 330.455 213.64C330.412 213.491 330.343 213.373 330.247 213.288C330.162 213.203 330.039 213.16 329.879 213.16C329.74 213.16 329.607 213.192 329.479 213.256C329.362 213.309 329.244 213.379 329.127 213.464V219.224C329.244 219.299 329.362 219.363 329.479 219.416C329.607 219.459 329.73 219.48 329.847 219.48ZM334.725 221V208.04H337.317V221H334.725ZM342.028 221.16C341.356 221.16 340.78 221.043 340.299 220.808C339.82 220.563 339.452 220.211 339.196 219.752C338.94 219.283 338.812 218.723 338.812 218.072V214.68C338.812 214.019 338.94 213.459 339.196 213C339.452 212.541 339.82 212.195 340.299 211.96C340.79 211.715 341.366 211.592 342.028 211.592C342.71 211.592 343.276 211.709 343.724 211.944C344.182 212.179 344.524 212.525 344.748 212.984C344.982 213.443 345.1 214.008 345.1 214.68V216.536H341.388V218.312C341.388 218.547 341.414 218.739 341.468 218.888C341.521 219.037 341.596 219.144 341.692 219.208C341.788 219.272 341.9 219.304 342.028 219.304C342.156 219.304 342.268 219.277 342.364 219.224C342.47 219.16 342.55 219.064 342.604 218.936C342.668 218.808 342.7 218.632 342.7 218.408V217.432H345.1V218.328C345.1 219.267 344.828 219.976 344.284 220.456C343.74 220.925 342.988 221.16 342.028 221.16ZM341.388 215.32H342.7V214.392C342.7 214.147 342.668 213.955 342.604 213.816C342.55 213.677 342.47 213.581 342.364 213.528C342.268 213.475 342.15 213.448 342.012 213.448C341.884 213.448 341.772 213.48 341.676 213.544C341.59 213.608 341.521 213.72 341.468 213.88C341.414 214.029 341.388 214.248 341.388 214.536V215.32ZM346.263 223.864V222.024C346.551 222.024 346.786 221.896 346.967 221.64C347.159 221.384 347.308 221 347.415 220.488C347.522 219.976 347.596 219.341 347.639 218.584C347.682 217.827 347.703 216.941 347.703 215.928C347.703 214.925 347.682 214.04 347.639 213.272C347.607 212.504 347.538 211.859 347.431 211.336C347.335 210.803 347.191 210.403 346.999 210.136C346.818 209.859 346.572 209.72 346.263 209.72V207.896C346.967 207.896 347.554 208.029 348.023 208.296C348.492 208.563 348.866 208.947 349.143 209.448C349.431 209.939 349.644 210.52 349.783 211.192C349.922 211.864 350.012 212.6 350.055 213.4C350.098 214.2 350.119 215.043 350.119 215.928C350.119 216.749 350.098 217.549 350.055 218.328C350.012 219.107 349.922 219.832 349.783 220.504C349.644 221.176 349.431 221.763 349.143 222.264C348.866 222.765 348.492 223.155 348.023 223.432C347.554 223.72 346.967 223.864 346.263 223.864Z"></path>
</svg>
