<svg xmlns="http://www.w3.org/2000/svg" fill="none" viewBox="0 0 140 22" height="22" width="140">
<rect stroke="#0D0E12" fill="#0D0E12" height="21" width="139" y="0.5" x="0.5"></rect>
<path fill="white" d="M38.6 15V6.9H43.45V15H41.69V8.18H40.36V15H38.6ZM44.6547 15V6.9H47.3747C47.8614 6.9 48.2614 6.99333 48.5747 7.18C48.888 7.36 49.1214 7.62667 49.2747 7.98C49.428 8.32667 49.5047 8.75 49.5047 9.25C49.5047 9.87667 49.4014 10.3567 49.1947 10.69C48.988 11.0167 48.708 11.2433 48.3547 11.37C48.0014 11.4967 47.6047 11.56 47.1647 11.56H46.4447V15H44.6547ZM46.4447 10.31H47.0447C47.2647 10.31 47.4314 10.27 47.5447 10.19C47.658 10.11 47.7314 9.99 47.7647 9.83C47.8047 9.67 47.8247 9.46667 47.8247 9.22C47.8247 9.01333 47.808 8.83333 47.7747 8.68C47.748 8.52 47.678 8.39333 47.5647 8.3C47.4514 8.20667 47.2747 8.16 47.0347 8.16H46.4447V10.31ZM49.8116 15L51.3416 6.9H53.3816L54.8916 15H53.2416L52.9716 13.29H51.7816L51.5016 15H49.8116ZM51.9416 12.22H52.8016L52.3716 9.06L51.9416 12.22ZM55.7094 15V6.9H57.8194C58.166 6.9 58.4927 6.92667 58.7994 6.98C59.1127 7.03333 59.3894 7.13667 59.6294 7.29C59.8694 7.43667 60.056 7.65 60.1894 7.93C60.3294 8.20333 60.3994 8.56667 60.3994 9.02C60.3994 9.34667 60.3494 9.62333 60.2494 9.85C60.156 10.07 60.0194 10.2467 59.8394 10.38C59.666 10.5133 59.456 10.6033 59.2094 10.65C59.5227 10.69 59.786 10.7933 59.9994 10.96C60.2127 11.12 60.3727 11.3367 60.4794 11.61C60.5927 11.8833 60.6494 12.2133 60.6494 12.6C60.6494 13.02 60.5927 13.3833 60.4794 13.69C60.3727 13.99 60.216 14.2367 60.0094 14.43C59.8027 14.6233 59.546 14.7667 59.2394 14.86C58.9394 14.9533 58.5927 15 58.1994 15H55.7094ZM57.4994 13.75H57.8794C58.2727 13.75 58.5427 13.65 58.6894 13.45C58.8427 13.25 58.9194 12.9567 58.9194 12.57C58.9194 12.2633 58.886 12.02 58.8194 11.84C58.7527 11.66 58.6427 11.53 58.4894 11.45C58.336 11.3633 58.1294 11.32 57.8694 11.32H57.4994V13.75ZM57.4994 10.14H57.8494C58.1227 10.14 58.3294 10.1 58.4694 10.02C58.6094 9.93333 58.7027 9.81 58.7494 9.65C58.8027 9.49 58.8294 9.29667 58.8294 9.07C58.8294 8.85667 58.7894 8.68 58.7094 8.54C58.636 8.39333 58.5227 8.28333 58.3694 8.21C58.2227 8.13667 58.036 8.1 57.8094 8.1H57.4994V10.14ZM61.6183 15V6.9H63.0283V11.54L65.0983 6.9H66.2583V15H64.8183V10.28L62.7083 15H61.6183ZM66.9567 15V13.74C67.1834 13.74 67.3667 13.7267 67.5067 13.7C67.6467 13.6667 67.7567 13.5933 67.8367 13.48C67.9167 13.3667 67.9801 13.1933 68.0267 12.96C68.0734 12.7267 68.1101 12.4133 68.1367 12.02C68.1701 11.6267 68.2101 11.1267 68.2567 10.52L68.5167 6.9H72.8067V15H71.0267V8.27H70.1367L69.9767 10.86C69.9301 11.5267 69.8834 12.1033 69.8367 12.59C69.7901 13.07 69.7134 13.4733 69.6067 13.8C69.5067 14.1267 69.3534 14.3833 69.1467 14.57C68.9467 14.75 68.6701 14.8733 68.3167 14.94C67.9634 15.0067 67.5101 15.0267 66.9567 15ZM73.6592 15L75.1892 6.9H77.2292L78.7392 15H77.0892L76.8192 13.29H75.6292L75.3492 15H73.6592ZM75.7892 12.22H76.6492L76.2192 9.06L75.7892 12.22ZM82.1456 15V6.9H83.8356V13.72H84.8256V6.9H86.5056V13.72H87.4556V6.9H89.1356V15H82.1456ZM89.9776 15L91.5076 6.9H93.5476L95.0576 15H93.4076L93.1376 13.29H91.9476L91.6676 15H89.9776ZM92.1076 12.22H92.9676L92.5376 9.06L92.1076 12.22ZM95.3454 15L96.9154 10.64L95.4154 6.9H97.1054L97.9954 9.09L98.7154 6.9H100.205L98.7854 11.11L100.365 15H98.6854L97.6954 12.58L96.8254 15H95.3454ZM100.992 15L101.132 6.9H103.052L103.942 11.61L104.902 6.9H106.752L106.892 15H105.622L105.472 9.61L104.532 15H103.402L102.402 9.57L102.282 15H100.992ZM107.673 15L109.203 6.9H111.243L112.753 15H111.103L110.833 13.29H109.643L109.363 15H107.673ZM109.803 12.22H110.663L110.233 9.06L109.803 12.22ZM114.174 15V8.23H112.954V6.9H117.184V8.23H115.974V15H114.174Z"></path>
<path stroke-width="0.5" stroke="#0D0E12" fill="white" d="M21 15.5C21.2251 12.7985 24.2884 13.1379 24.8958 10.4939C25.0194 9.9556 25.4477 9.5 26 9.5C26.5523 9.5 26.9806 9.9556 27.1042 10.4939C27.7116 13.1379 30.7749 12.7985 31 15.5V15.7871C31 16.4232 30.8104 17.0563 30.2032 17.2459C28.3171 17.8347 23.6829 17.8347 21.7968 17.2459C21.1897 17.0563 21 16.4232 21 15.7871V15.5Z"></path>
<circle stroke-width="0.5" stroke="#0D0E12" fill="white" r="2.25" cy="5.5" cx="26"></circle>
<path stroke-width="0.5" stroke="#0D0E12" fill="white" d="M22.2396 8.71843C22.6084 8.4429 23.1625 8.2252 23.8307 8.07783C24.4948 7.93136 25.2528 7.85844 26.0136 7.85988C26.7744 7.86133 27.5315 7.93714 28.1937 8.08452C28.86 8.23283 29.4112 8.44943 29.7758 8.72004C29.9988 8.88553 30.0354 9.09325 29.9704 9.27589C29.9006 9.47193 29.7013 9.66511 29.3982 9.72941C28.5607 9.90708 27.3074 10.0001 26.0376 10.0049C24.7681 10.0098 23.5055 9.92634 22.6502 9.75987C22.3312 9.69779 22.1184 9.49941 22.0422 9.2967C21.9714 9.10853 22.0064 8.89269 22.2396 8.71843Z"></path>
<path stroke-linecap="round" stroke-width="0.5" stroke="#0D0E12" d="M22 15.5C22.75 16.25 29.25 16.25 30 15.5"></path>
</svg>
