<svg xmlns="http://www.w3.org/2000/svg" fill="none" viewBox="0 0 27 34" height="34" width="27">
<path stroke="#0D0E12" fill="white" d="M14.0111 3.42031C18.3192 3.49696 22.4815 3.88666 25.5 4.86001V9.0001H1.5V4.86068C4.58773 3.87614 9.71803 3.34392 14.0111 3.42031Z"></path>
<path stroke="#0D0E12" fill="white" d="M1.53999 29.1864C2.16399 24.0261 6.21999 28.2433 6.21999 19.5766V15.8934C6.21999 14.1877 5.19443 12.6493 3.61999 11.9933L3.04179 11.7524C1.81748 11.2422 1.01999 10.046 1.01999 8.71962C1.01999 8.0306 1.26795 7.35748 1.91596 7.12335C5.93278 5.67207 21.0671 5.67212 25.084 7.12337C25.732 7.35749 25.98 8.03062 25.98 8.71964C25.98 10.046 25.1825 11.2422 23.9582 11.7524L23.38 11.9933C21.8056 12.6493 20.78 14.1877 20.78 15.8934V19.5766C20.78 28.2433 24.836 24.1663 25.46 29.3266V30.4253C25.46 31.1293 25.2646 31.8408 24.6096 32.0991C20.835 33.5876 6.15406 33.4828 2.38665 31.9491C1.73455 31.6836 1.53999 30.9726 1.53999 30.2685V29.1864Z"></path>
<path stroke-linecap="round" stroke="#0D0E12" d="M5.18002 28.2433C6.74002 29.8683 20.26 29.8683 21.82 28.2433"></path>
<path stroke-linecap="round" stroke="#0D0E12" d="M20.78 11.4517C18.7 10.91 8.30002 10.91 6.22002 11.4517"></path>
<path fill="white" d="M2 7.66725C1.59767 7.92536 1.26256 8.22182 1 8.56197V3.09207C1.27933 2.90175 1.61308 2.72151 2 2.55259V7.66725ZM23 6.72705V1.89673C21.5382 1.53322 19.6965 1.26682 17.5 1.12269V6.07438C19.6659 6.16835 21.529 6.36359 23 6.72705ZM12.5 6.0037V1.00696C10.2012 1.03953 8.19468 1.18506 6.5 1.42384V6.32582C8.22111 6.10435 10.2454 6.02125 12.5 6.0037Z" clip-rule="evenodd" fill-rule="evenodd"></path>
<path fill="black" d="M1 8.56197H0.5V10.028L1.3958 8.86748L1 8.56197ZM2 7.66725L2.26998 8.0881L2.5 7.94053V7.66725H2ZM1 3.09207L0.718459 2.67887L0.5 2.82772V3.09207H1ZM2 2.55259H2.5V1.78874L1.79995 2.09435L2 2.55259ZM23 1.89673H23.5V1.50583L23.1207 1.4115L23 1.89673ZM23 6.72705L22.8801 7.21245L23.5 7.36563V6.72705H23ZM17.5 1.12269L17.5327 0.623759L17 0.588799V1.12269H17.5ZM17.5 6.07438H17V6.55315L17.4783 6.57391L17.5 6.07438ZM12.5 1.00696H13V0.499822L12.4929 0.507008L12.5 1.00696ZM12.5 6.0037L12.5039 6.50368L13 6.49982V6.0037H12.5ZM6.5 1.42384L6.43024 0.928734L6 0.989356V1.42384H6.5ZM6.5 6.32582H6V6.89428L6.56381 6.82173L6.5 6.32582ZM1.3958 8.86748C1.618 8.57962 1.90795 8.32036 2.26998 8.0881L1.73002 7.24641C1.28739 7.53037 0.907114 7.86402 0.604199 8.25645L1.3958 8.86748ZM0.5 3.09207V8.56197H1.5V3.09207H0.5ZM1.79995 2.09435C1.391 2.27289 1.02874 2.46746 0.718459 2.67887L1.28154 3.50528C1.52991 3.33604 1.83515 3.17013 2.20005 3.01083L1.79995 2.09435ZM2.5 7.66725V2.55259H1.5V7.66725H2.5ZM22.5 1.89673V6.72705H23.5V1.89673H22.5ZM17.4673 1.62161C19.644 1.76446 21.4547 2.02768 22.8793 2.38195L23.1207 1.4115C21.6217 1.03877 19.7489 0.76919 17.5327 0.623759L17.4673 1.62161ZM18 6.07438V1.12269H17V6.07438H18ZM23.1199 6.24165C21.601 5.86634 19.6992 5.66933 17.5217 5.57485L17.4783 6.57391C19.6326 6.66738 21.457 6.86083 22.8801 7.21245L23.1199 6.24165ZM12 1.00696V6.0037H13V1.00696H12ZM6.56976 1.91895C8.23933 1.68371 10.2244 1.53926 12.5071 1.50691L12.4929 0.507008C10.1781 0.539812 8.15003 0.686412 6.43024 0.928734L6.56976 1.91895ZM7 6.32582V1.42384H6V6.32582H7ZM12.4961 5.50371C10.2348 5.52132 8.18704 5.60461 6.43619 5.82991L6.56381 6.82173C8.25518 6.60409 10.256 6.52118 12.5039 6.50368L12.4961 5.50371Z"></path>
</svg>
