<svg xmlns="http://www.w3.org/2000/svg" fill="none" viewBox="0 0 27 34" height="34" width="27">
<path stroke="#0D0E12" fill="white" d="M14.0111 3.4186C18.3192 3.49525 22.4815 3.88495 25.5 4.8583V8.99839H1.5V4.85897C4.58773 3.87444 9.71803 3.34221 14.0111 3.4186Z"></path>
<path stroke="#0D0E12" fill="white" d="M1.53999 29.1847C2.16399 24.0243 6.21999 28.2416 6.21999 19.5749V15.8917C6.21999 14.186 5.19443 12.6476 3.61999 11.9916L3.04179 11.7507C1.81748 11.2405 1.01999 10.0442 1.01999 8.71791C1.01999 8.0289 1.26795 7.35577 1.91596 7.12164C5.93278 5.67037 21.0671 5.67041 25.084 7.12166C25.732 7.35578 25.98 8.02891 25.98 8.71793C25.98 10.0443 25.1825 11.2405 23.9582 11.7507L23.38 11.9916C21.8056 12.6476 20.78 14.186 20.78 15.8917V19.5749C20.78 28.2416 24.836 24.1646 25.46 29.3249V30.4236C25.46 31.1276 25.2646 31.8391 24.6096 32.0974C20.835 33.5859 6.15406 33.4811 2.38665 31.9474C1.73455 31.6819 1.53999 30.9708 1.53999 30.2668V29.1847Z"></path>
<path stroke-linecap="round" stroke="#0D0E12" d="M5.18002 28.2416C6.74002 29.8666 20.26 29.8666 21.82 28.2416"></path>
<path stroke-linecap="round" stroke="#0D0E12" d="M20.78 11.4499C18.7 10.9083 8.30002 10.9083 6.22002 11.45"></path>
<path fill="white" d="M26 3.09039C25.5032 2.75187 24.8342 2.44523 24 2.17752V7.02054C24.8674 7.32588 25.5434 7.71654 26 8.21356V3.09039ZM3 7.154V2.17752C4.48789 1.69999 6.50121 1.3463 9 1.15639V6.10264C6.5327 6.24191 4.48567 6.54533 3 7.154ZM20 6.24345V1.35557C18.1649 1.12489 15.9907 0.998291 13.5 0.998291L13.5 5.99829C15.9373 5.99829 18.1321 6.05891 20 6.24345Z" clip-rule="evenodd" fill-rule="evenodd"></path>
<path fill="black" d="M24 2.17752L24.1528 1.70144L23.5 1.49193V2.17752H24ZM26 3.09039H26.5V2.82603L26.2815 2.67718L26 3.09039ZM24 7.02054H23.5V7.37459L23.834 7.49216L24 7.02054ZM26 8.21356L25.6318 8.55182L26.5 9.49689V8.21356H26ZM3 2.17752L2.84721 1.70144L2.5 1.81287V2.17752H3ZM3 7.154H2.5V7.89918L3.18956 7.61668L3 7.154ZM9 1.15639H9.5V0.616944L8.96211 0.657824L9 1.15639ZM9 6.10264L9.02818 6.60184L9.5 6.57521V6.10264H9ZM20 1.35557H20.5V0.914489L20.0624 0.859477L20 1.35557ZM20 6.24345L19.9508 6.74103L20.5 6.79529V6.24345H20ZM13.5 0.998291V0.498291H13L13 0.998291L13.5 0.998291ZM13.5 5.99829L13 5.99829L13 6.49829H13.5V5.99829ZM23.8472 2.6536C24.6536 2.91241 25.2743 3.201 25.7184 3.50359L26.2815 2.67718C25.732 2.30274 25.0147 1.97805 24.1528 1.70144L23.8472 2.6536ZM24.5 7.02054V2.17752H23.5V7.02054H24.5ZM26.3682 7.8753C25.8357 7.29567 25.076 6.86926 24.166 6.54891L23.834 7.49216C24.6587 7.7825 25.2511 8.1374 25.6318 8.55182L26.3682 7.8753ZM26.5 8.21356V3.09039H25.5V8.21356H26.5ZM2.5 2.17752V7.154H3.5V2.17752H2.5ZM8.96211 0.657824C6.4414 0.8494 4.3858 1.20763 2.84721 1.70144L3.15279 2.6536C4.58998 2.19234 6.56102 1.84319 9.03789 1.65495L8.96211 0.657824ZM9.5 6.10264V1.15639H8.5V6.10264H9.5ZM3.18956 7.61668C4.59474 7.04098 6.57241 6.74047 9.02818 6.60184L8.97182 5.60343C6.49299 5.74336 4.37659 6.04968 2.81044 6.69132L3.18956 7.61668ZM19.5 1.35557V6.24345H20.5V1.35557H19.5ZM13.5 1.49829C15.9746 1.49829 18.1274 1.62412 19.9376 1.85167L20.0624 0.859477C18.2023 0.625661 16.0067 0.498291 13.5 0.498291V1.49829ZM14 5.99829L14 0.998291L13 0.998291L13 5.99829L14 5.99829ZM20.0492 5.74588C18.1569 5.55892 15.9429 5.49829 13.5 5.49829V6.49829C15.9316 6.49829 18.1073 6.55889 19.9508 6.74103L20.0492 5.74588Z"></path>
</svg>
