<svg xmlns="http://www.w3.org/2000/svg" fill="none" viewBox="0 0 13 18" height="18" width="13">
<rect fill-opacity="0.01" fill="#0D0E12" height="18" width="13"></rect>
<path fill="white" d="M3.12 14.156C2.464 14.156 1.94 14.028 1.548 13.772C1.156 13.508 0.876 13.148 0.708 12.692C0.54 12.228 0.456 11.7 0.456 11.108C0.464 10.868 0.488 10.636 0.528 10.412C0.576 10.18 0.644 9.968 0.732 9.776C0.828 9.576 0.944 9.404 1.08 9.26C1.224 9.108 1.392 8.984 1.584 8.888C1.336 8.704 1.116 8.44 0.924 8.096C0.732 7.744 0.628 7.3 0.612 6.764C0.604 6.22 0.692 5.752 0.876 5.36C1.068 4.968 1.352 4.668 1.728 4.46C2.104 4.252 2.568 4.148 3.12 4.148C3.68 4.148 4.144 4.256 4.512 4.472C4.888 4.68 5.168 4.98 5.352 5.372C5.536 5.756 5.62 6.22 5.604 6.764C5.596 7.308 5.5 7.756 5.316 8.108C5.132 8.452 4.912 8.712 4.656 8.888C4.848 8.984 5.012 9.108 5.148 9.26C5.292 9.404 5.408 9.576 5.496 9.776C5.592 9.968 5.664 10.18 5.712 10.412C5.76 10.636 5.784 10.868 5.784 11.108C5.8 11.7 5.72 12.228 5.544 12.692C5.376 13.148 5.096 13.508 4.704 13.772C4.312 14.028 3.784 14.156 3.12 14.156ZM3.12 12.68C3.336 12.68 3.492 12.6 3.588 12.44C3.684 12.28 3.744 12.092 3.768 11.876C3.792 11.652 3.804 11.448 3.804 11.264C3.812 11.016 3.8 10.776 3.768 10.544C3.744 10.312 3.684 10.124 3.588 9.98C3.492 9.828 3.336 9.752 3.12 9.752C2.912 9.752 2.76 9.828 2.664 9.98C2.568 10.124 2.504 10.312 2.472 10.544C2.448 10.768 2.436 11.008 2.436 11.264C2.436 11.448 2.448 11.652 2.472 11.876C2.496 12.1 2.556 12.292 2.652 12.452C2.756 12.604 2.912 12.68 3.12 12.68ZM3.12 8.168C3.256 8.168 3.368 8.116 3.456 8.012C3.544 7.9 3.608 7.736 3.648 7.52C3.696 7.304 3.72 7.036 3.72 6.716C3.72 6.388 3.668 6.128 3.564 5.936C3.468 5.744 3.32 5.648 3.12 5.648C2.92 5.648 2.764 5.744 2.652 5.936C2.548 6.128 2.496 6.384 2.496 6.704C2.496 7.024 2.516 7.296 2.556 7.52C2.604 7.736 2.676 7.9 2.772 8.012C2.868 8.116 2.984 8.168 3.12 8.168ZM9.55781 14.18C8.97381 14.18 8.48581 14.064 8.09381 13.832C7.70181 13.592 7.40581 13.264 7.20581 12.848C7.00581 12.432 6.90581 11.948 6.90581 11.396V6.992C6.90581 6.424 6.99781 5.928 7.18181 5.504C7.37381 5.072 7.66581 4.736 8.05781 4.496C8.44981 4.256 8.94981 4.136 9.55781 4.136C10.1658 4.136 10.6618 4.256 11.0458 4.496C11.4378 4.736 11.7258 5.072 11.9098 5.504C12.1018 5.928 12.1978 6.424 12.1978 6.992V11.396C12.1978 11.94 12.0978 12.424 11.8978 12.848C11.6978 13.264 11.4018 13.592 11.0098 13.832C10.6178 14.064 10.1338 14.18 9.55781 14.18ZM9.55781 12.392C9.74981 12.392 9.88581 12.332 9.96581 12.212C10.0538 12.084 10.1058 11.94 10.1218 11.78C10.1458 11.612 10.1578 11.468 10.1578 11.348V7.04C10.1578 6.904 10.1498 6.752 10.1338 6.584C10.1178 6.408 10.0658 6.256 9.97781 6.128C9.89781 5.992 9.75781 5.924 9.55781 5.924C9.35781 5.924 9.21381 5.992 9.12581 6.128C9.04581 6.256 8.99781 6.408 8.98181 6.584C8.96581 6.752 8.95781 6.904 8.95781 7.04V11.348C8.95781 11.468 8.96981 11.612 8.99381 11.78C9.01781 11.94 9.06981 12.084 9.14981 12.212C9.23781 12.332 9.37381 12.392 9.55781 12.392Z"></path>
</svg>
