<svg xmlns="http://www.w3.org/2000/svg" fill="none" viewBox="0 0 90 40" height="40" width="90">
<rect fill="#0D0E12" height="40" width="90"></rect>
<path fill="white" d="M9.42305 25.18C8.83905 25.18 8.35105 25.064 7.95905 24.832C7.56705 24.592 7.27105 24.264 7.07105 23.848C6.87105 23.432 6.77105 22.948 6.77105 22.396V17.992C6.77105 17.424 6.86305 16.928 7.04705 16.504C7.23905 16.072 7.53105 15.736 7.92305 15.496C8.31505 15.256 8.81505 15.136 9.42305 15.136C10.031 15.136 10.527 15.256 10.911 15.496C11.303 15.736 11.591 16.072 11.775 16.504C11.967 16.928 12.063 17.424 12.063 17.992V22.396C12.063 22.94 11.963 23.424 11.763 23.848C11.563 24.264 11.267 24.592 10.875 24.832C10.483 25.064 9.99905 25.18 9.42305 25.18ZM9.42305 23.392C9.61505 23.392 9.75105 23.332 9.83105 23.212C9.91905 23.084 9.97105 22.94 9.98705 22.78C10.011 22.612 10.023 22.468 10.023 22.348V18.04C10.023 17.904 10.015 17.752 9.99905 17.584C9.98305 17.408 9.93105 17.256 9.84305 17.128C9.76305 16.992 9.62305 16.924 9.42305 16.924C9.22305 16.924 9.07905 16.992 8.99105 17.128C8.91105 17.256 8.86305 17.408 8.84705 17.584C8.83105 17.752 8.82305 17.904 8.82305 18.04V22.348C8.82305 22.468 8.83505 22.612 8.85905 22.78C8.88305 22.94 8.93505 23.084 9.01505 23.212C9.10305 23.332 9.23905 23.392 9.42305 23.392ZM15.7807 25.18C15.0687 25.18 14.5287 25.056 14.1607 24.808C13.8007 24.552 13.5567 24.196 13.4287 23.74C13.3007 23.284 13.2367 22.756 13.2367 22.156H15.1687C15.1687 22.524 15.1887 22.824 15.2287 23.056C15.2687 23.288 15.3407 23.456 15.4447 23.56C15.5567 23.656 15.7127 23.7 15.9127 23.692C16.1207 23.684 16.2687 23.6 16.3567 23.44C16.4447 23.28 16.4967 23.052 16.5127 22.756C16.5367 22.452 16.5487 22.088 16.5487 21.664C16.5487 21.344 16.5287 21.06 16.4887 20.812C16.4567 20.564 16.3847 20.368 16.2727 20.224C16.1687 20.072 16.0087 19.996 15.7927 19.996C15.5927 19.996 15.4287 20.068 15.3007 20.212C15.1727 20.356 15.0807 20.58 15.0247 20.884H13.2967L13.4767 15.28H18.0127V16.96H15.0847L14.9767 18.964C15.0567 18.852 15.2087 18.756 15.4327 18.676C15.6567 18.588 15.8967 18.532 16.1527 18.508C16.6487 18.452 17.0647 18.544 17.4007 18.784C17.7447 19.016 18.0007 19.372 18.1687 19.852C18.3447 20.332 18.4327 20.92 18.4327 21.616C18.4327 22.136 18.4007 22.616 18.3367 23.056C18.2727 23.488 18.1487 23.864 17.9647 24.184C17.7807 24.496 17.5127 24.74 17.1607 24.916C16.8087 25.092 16.3487 25.18 15.7807 25.18ZM22.4965 25L22.5205 18.064H23.9605L25.3765 21.388L26.8045 18.064H28.2445L28.2685 25H26.7445V21.352L25.6765 23.92H25.1005L24.0205 21.34V25H22.4965ZM29.4929 25V18.064H31.0409V21.772L32.8529 18.064H34.3769V25H32.7929V21.328L31.0289 25H29.4929ZM35.5866 25V18.064H37.5426V20.752H38.7066V18.064H40.6746V25H38.7066V22.096H37.5426V25H35.5866ZM41.8313 25V23.152H43.6793V25H41.8313ZM50.5793 25.18C49.9953 25.18 49.5073 25.064 49.1153 24.832C48.7233 24.592 48.4273 24.264 48.2273 23.848C48.0273 23.432 47.9273 22.948 47.9273 22.396V17.992C47.9273 17.424 48.0193 16.928 48.2033 16.504C48.3953 16.072 48.6873 15.736 49.0793 15.496C49.4713 15.256 49.9713 15.136 50.5793 15.136C51.1873 15.136 51.6833 15.256 52.0673 15.496C52.4593 15.736 52.7473 16.072 52.9313 16.504C53.1233 16.928 53.2193 17.424 53.2193 17.992V22.396C53.2193 22.94 53.1193 23.424 52.9193 23.848C52.7193 24.264 52.4233 24.592 52.0313 24.832C51.6393 25.064 51.1553 25.18 50.5793 25.18ZM50.5793 23.392C50.7713 23.392 50.9073 23.332 50.9873 23.212C51.0753 23.084 51.1273 22.94 51.1433 22.78C51.1673 22.612 51.1793 22.468 51.1793 22.348V18.04C51.1793 17.904 51.1713 17.752 51.1553 17.584C51.1393 17.408 51.0873 17.256 50.9993 17.128C50.9193 16.992 50.7793 16.924 50.5793 16.924C50.3793 16.924 50.2353 16.992 50.1473 17.128C50.0673 17.256 50.0193 17.408 50.0033 17.584C49.9873 17.752 49.9793 17.904 49.9793 18.04V22.348C49.9793 22.468 49.9913 22.612 50.0153 22.78C50.0393 22.94 50.0913 23.084 50.1713 23.212C50.2593 23.332 50.3953 23.392 50.5793 23.392ZM57.177 25.18C56.593 25.18 56.105 25.064 55.713 24.832C55.321 24.592 55.025 24.264 54.825 23.848C54.625 23.432 54.525 22.948 54.525 22.396V17.992C54.525 17.424 54.617 16.928 54.801 16.504C54.993 16.072 55.285 15.736 55.677 15.496C56.069 15.256 56.569 15.136 57.177 15.136C57.785 15.136 58.281 15.256 58.665 15.496C59.057 15.736 59.345 16.072 59.529 16.504C59.721 16.928 59.817 17.424 59.817 17.992V22.396C59.817 22.94 59.717 23.424 59.517 23.848C59.317 24.264 59.021 24.592 58.629 24.832C58.237 25.064 57.753 25.18 57.177 25.18ZM57.177 23.392C57.369 23.392 57.505 23.332 57.585 23.212C57.673 23.084 57.725 22.94 57.741 22.78C57.765 22.612 57.777 22.468 57.777 22.348V18.04C57.777 17.904 57.769 17.752 57.753 17.584C57.737 17.408 57.685 17.256 57.597 17.128C57.517 16.992 57.377 16.924 57.177 16.924C56.977 16.924 56.833 16.992 56.745 17.128C56.665 17.256 56.617 17.408 56.601 17.584C56.585 17.752 56.577 17.904 56.577 18.04V22.348C56.577 22.468 56.589 22.612 56.613 22.78C56.637 22.94 56.689 23.084 56.769 23.212C56.857 23.332 56.993 23.392 57.177 23.392ZM66.4129 25.12C65.9089 25.12 65.4769 25.028 65.1169 24.844C64.7649 24.66 64.4929 24.396 64.3009 24.052C64.1089 23.708 64.0129 23.292 64.0129 22.804V20.26C64.0129 19.764 64.1089 19.344 64.3009 19C64.4929 18.656 64.7649 18.396 65.1169 18.22C65.4769 18.036 65.9089 17.944 66.4129 17.944C66.9089 17.944 67.3289 18.02 67.6729 18.172C68.0249 18.324 68.2929 18.556 68.4769 18.868C68.6609 19.172 68.7529 19.56 68.7529 20.032V20.764H66.8689V19.972C66.8689 19.788 66.8489 19.648 66.8089 19.552C66.7769 19.448 66.7249 19.376 66.6529 19.336C66.5889 19.296 66.5089 19.276 66.4129 19.276C66.3169 19.276 66.2369 19.304 66.1729 19.36C66.1089 19.408 66.0609 19.492 66.0289 19.612C65.9969 19.724 65.9809 19.884 65.9809 20.092V22.972C65.9809 23.284 66.0169 23.496 66.0889 23.608C66.1689 23.72 66.2809 23.776 66.4249 23.776C66.5289 23.776 66.6129 23.756 66.6769 23.716C66.7409 23.668 66.7889 23.596 66.8209 23.5C66.8529 23.396 66.8689 23.26 66.8689 23.092V22.168H68.7529V23.008C68.7529 23.472 68.6569 23.864 68.4649 24.184C68.2809 24.496 68.0129 24.732 67.6609 24.892C67.3169 25.044 66.9009 25.12 66.4129 25.12ZM72.0382 25.12C71.5342 25.12 71.1022 25.032 70.7422 24.856C70.3822 24.672 70.1062 24.408 69.9142 24.064C69.7222 23.712 69.6262 23.292 69.6262 22.804V20.26C69.6262 19.764 69.7222 19.344 69.9142 19C70.1062 18.656 70.3822 18.396 70.7422 18.22C71.1102 18.036 71.5422 17.944 72.0382 17.944C72.5502 17.944 72.9742 18.032 73.3102 18.208C73.6542 18.384 73.9102 18.644 74.0782 18.988C74.2542 19.332 74.3422 19.756 74.3422 20.26V21.652H71.5582V22.984C71.5582 23.16 71.5782 23.304 71.6182 23.416C71.6582 23.528 71.7142 23.608 71.7862 23.656C71.8582 23.704 71.9422 23.728 72.0382 23.728C72.1342 23.728 72.2182 23.708 72.2902 23.668C72.3702 23.62 72.4302 23.548 72.4702 23.452C72.5182 23.356 72.5422 23.224 72.5422 23.056V22.324H74.3422V22.996C74.3422 23.7 74.1382 24.232 73.7302 24.592C73.3222 24.944 72.7582 25.12 72.0382 25.12ZM71.5582 20.74H72.5422V20.044C72.5422 19.86 72.5182 19.716 72.4702 19.612C72.4302 19.508 72.3702 19.436 72.2902 19.396C72.2182 19.356 72.1302 19.336 72.0262 19.336C71.9302 19.336 71.8462 19.36 71.7742 19.408C71.7102 19.456 71.6582 19.54 71.6182 19.66C71.5782 19.772 71.5582 19.936 71.5582 20.152V20.74ZM75.4069 25V18.064H77.3629V20.8H77.6509L78.7069 18.064H80.8069L79.4389 21.34L80.8429 25H78.7789L77.6509 21.928H77.3629V25H75.4069ZM81.4993 25V23.152H83.3473V25H81.4993Z"></path>
</svg>
