<svg xmlns="http://www.w3.org/2000/svg" fill="none" viewBox="0 0 214 84" height="84" width="214">
<mask fill="white" id="path-1-inside-1_1451_33">
<path d="M0 0H214V84H0V0Z"></path>
</mask>
<path fill="#0D0E12" d="M0 0H214V84H0V0Z"></path>
<path mask="url(#path-1-inside-1_1451_33)" fill="white" d="M0 0V-1H-1V0H0ZM0 84H-1V85H0V84ZM0 1H214V-1H0V1ZM214 83H0V85H214V83ZM1 84V0H-1V84H1Z"></path>
<path fill="#05FF00" d="M18.016 38L16.264 28.28H18.1L19.144 34.88L20.116 28.28H22.06L20.284 38H18.016ZM23.0484 38V28.28H25.1964V38H23.0484ZM29.4298 38.144C28.6938 38.144 28.1098 38.012 27.6778 37.748C27.2538 37.476 26.9538 37.1 26.7778 36.62C26.6018 36.132 26.5138 35.56 26.5138 34.904V31.4C26.5138 30.728 26.6018 30.152 26.7778 29.672C26.9538 29.184 27.2538 28.808 27.6778 28.544C28.1098 28.28 28.6938 28.148 29.4298 28.148C30.1498 28.148 30.7098 28.268 31.1098 28.508C31.5178 28.74 31.8058 29.068 31.9738 29.492C32.1418 29.916 32.2258 30.404 32.2258 30.956V31.796H30.1258V30.824C30.1258 30.632 30.1138 30.448 30.0898 30.272C30.0738 30.096 30.0178 29.952 29.9218 29.84C29.8258 29.72 29.6618 29.66 29.4298 29.66C29.2058 29.66 29.0378 29.72 28.9258 29.84C28.8218 29.96 28.7538 30.112 28.7218 30.296C28.6978 30.472 28.6858 30.66 28.6858 30.86V35.432C28.6858 35.648 28.7018 35.848 28.7338 36.032C28.7738 36.208 28.8458 36.352 28.9498 36.464C29.0618 36.568 29.2218 36.62 29.4298 36.62C29.6538 36.62 29.8138 36.564 29.9098 36.452C30.0058 36.332 30.0658 36.18 30.0898 35.996C30.1138 35.812 30.1258 35.624 30.1258 35.432V34.412H32.2258V35.252C32.2258 35.804 32.1418 36.3 31.9738 36.74C31.8138 37.172 31.5298 37.516 31.1218 37.772C30.7218 38.02 30.1578 38.144 29.4298 38.144ZM34.2835 38V29.876H32.8195V28.28H37.8955V29.876H36.4435V38H34.2835ZM41.4415 38.144C40.7135 38.144 40.1375 38.016 39.7135 37.76C39.2895 37.504 38.9855 37.136 38.8015 36.656C38.6175 36.176 38.5255 35.604 38.5255 34.94V31.328C38.5255 30.656 38.6175 30.084 38.8015 29.612C38.9855 29.14 39.2895 28.78 39.7135 28.532C40.1375 28.276 40.7135 28.148 41.4415 28.148C42.1775 28.148 42.7575 28.276 43.1815 28.532C43.6135 28.78 43.9215 29.14 44.1055 29.612C44.2895 30.084 44.3815 30.656 44.3815 31.328V34.94C44.3815 35.604 44.2895 36.176 44.1055 36.656C43.9215 37.136 43.6135 37.504 43.1815 37.76C42.7575 38.016 42.1775 38.144 41.4415 38.144ZM41.4415 36.62C41.6655 36.62 41.8295 36.564 41.9335 36.452C42.0375 36.34 42.1055 36.196 42.1375 36.02C42.1695 35.844 42.1855 35.664 42.1855 35.48V30.8C42.1855 30.608 42.1695 30.428 42.1375 30.26C42.1055 30.084 42.0375 29.94 41.9335 29.828C41.8295 29.716 41.6655 29.66 41.4415 29.66C41.2335 29.66 41.0775 29.716 40.9735 29.828C40.8695 29.94 40.8015 30.084 40.7695 30.26C40.7375 30.428 40.7215 30.608 40.7215 30.8V35.48C40.7215 35.664 40.7335 35.844 40.7575 36.02C40.7895 36.196 40.8535 36.34 40.9495 36.452C41.0535 36.564 41.2175 36.62 41.4415 36.62ZM45.6888 38V28.28H48.3648C49.0208 28.28 49.5888 28.352 50.0688 28.496C50.5488 28.64 50.9208 28.9 51.1848 29.276C51.4568 29.644 51.5928 30.168 51.5928 30.848C51.5928 31.248 51.5608 31.604 51.4968 31.916C51.4328 32.228 51.3128 32.5 51.1367 32.732C50.9688 32.956 50.7248 33.144 50.4048 33.296L51.7368 38H49.5168L48.4488 33.644H47.8368V38H45.6888ZM47.8368 32.408H48.4368C48.7408 32.408 48.9768 32.356 49.1448 32.252C49.3128 32.14 49.4288 31.984 49.4928 31.784C49.5648 31.576 49.6008 31.328 49.6008 31.04C49.6008 30.624 49.5248 30.3 49.3728 30.068C49.2208 29.836 48.9408 29.72 48.5328 29.72H47.8368V32.408ZM53.8854 38V34.028L52.0374 28.28H54.0654L54.9894 31.352L55.8174 28.28H57.7614L55.9494 34.028V38H53.8854Z"></path>
<path fill="white" d="M17.52 56V48.74H16.15V47.9H19.98V48.74H18.65V56H17.52ZM20.7009 56V47.9H21.7709V50.82C21.9642 50.6333 22.1809 50.4733 22.4209 50.34C22.6609 50.2067 22.9275 50.14 23.2209 50.14C23.4475 50.14 23.6209 50.2 23.7409 50.32C23.8675 50.44 23.9542 50.59 24.0009 50.77C24.0542 50.95 24.0809 51.1333 24.0809 51.32V56H23.0109V51.63C23.0109 51.4233 22.9809 51.2633 22.9209 51.15C22.8609 51.0367 22.7375 50.98 22.5509 50.98C22.4242 50.98 22.2909 51.0167 22.1509 51.09C22.0175 51.1633 21.8909 51.2533 21.7709 51.36V56H20.7009ZM26.724 56.08C26.2707 56.08 25.9207 55.9933 25.674 55.82C25.4273 55.64 25.254 55.38 25.154 55.04C25.0607 54.6933 25.014 54.27 25.014 53.77V52.45C25.014 51.9367 25.064 51.51 25.164 51.17C25.264 50.83 25.4373 50.5733 25.684 50.4C25.9373 50.2267 26.284 50.14 26.724 50.14C27.2107 50.14 27.5673 50.24 27.794 50.44C28.0273 50.64 28.1807 50.93 28.254 51.31C28.3273 51.6833 28.364 52.1333 28.364 52.66V53.13H26.084V54.29C26.084 54.5233 26.104 54.7133 26.144 54.86C26.1907 55.0067 26.2607 55.1167 26.354 55.19C26.454 55.2567 26.5807 55.29 26.734 55.29C26.894 55.29 27.014 55.2533 27.094 55.18C27.1807 55.1 27.2373 54.99 27.264 54.85C27.2973 54.7033 27.314 54.5333 27.314 54.34V53.99H28.354V54.21C28.354 54.79 28.2307 55.2467 27.984 55.58C27.7373 55.9133 27.3173 56.08 26.724 56.08ZM26.084 52.55H27.314V52.03C27.314 51.79 27.3007 51.59 27.274 51.43C27.2473 51.2633 27.1907 51.14 27.104 51.06C27.024 50.9733 26.894 50.93 26.714 50.93C26.5407 50.93 26.4073 50.97 26.314 51.05C26.2273 51.13 26.1673 51.2667 26.134 51.46C26.1007 51.6467 26.084 51.9067 26.084 52.24V52.55ZM33.2081 56.08C32.7815 56.08 32.4448 55.9933 32.1981 55.82C31.9515 55.6467 31.7748 55.4 31.6681 55.08C31.5681 54.76 31.5181 54.3833 31.5181 53.95V52.27C31.5181 51.8367 31.5681 51.46 31.6681 51.14C31.7748 50.82 31.9515 50.5733 32.1981 50.4C32.4448 50.2267 32.7815 50.14 33.2081 50.14C33.6348 50.14 33.9681 50.2267 34.2081 50.4C34.4548 50.5733 34.6281 50.82 34.7281 51.14C34.8348 51.46 34.8881 51.8367 34.8881 52.27V53.95C34.8881 54.3833 34.8348 54.76 34.7281 55.08C34.6281 55.4 34.4548 55.6467 34.2081 55.82C33.9681 55.9933 33.6348 56.08 33.2081 56.08ZM33.2081 55.29C33.4148 55.29 33.5581 55.23 33.6381 55.11C33.7248 54.99 33.7748 54.8333 33.7881 54.64C33.8081 54.44 33.8181 54.2333 33.8181 54.02V52.21C33.8181 51.99 33.8081 51.7833 33.7881 51.59C33.7748 51.3967 33.7248 51.24 33.6381 51.12C33.5581 50.9933 33.4148 50.93 33.2081 50.93C33.0015 50.93 32.8548 50.9933 32.7681 51.12C32.6815 51.24 32.6281 51.3967 32.6081 51.59C32.5948 51.7833 32.5881 51.99 32.5881 52.21V54.02C32.5881 54.2333 32.5948 54.44 32.6081 54.64C32.6281 54.8333 32.6815 54.99 32.7681 55.11C32.8548 55.23 33.0015 55.29 33.2081 55.29ZM35.8662 57.9V50.22H36.9362V50.68C37.0628 50.5333 37.2162 50.4067 37.3962 50.3C37.5762 50.1933 37.7895 50.14 38.0362 50.14C38.3362 50.14 38.5728 50.22 38.7462 50.38C38.9262 50.5333 39.0595 50.73 39.1462 50.97C39.2328 51.2033 39.2895 51.4433 39.3162 51.69C39.3428 51.93 39.3562 52.1367 39.3562 52.31V53.71C39.3562 54.1167 39.3162 54.5033 39.2362 54.87C39.1562 55.23 39.0095 55.5233 38.7962 55.75C38.5895 55.97 38.2962 56.08 37.9162 56.08C37.7095 56.08 37.5262 56.03 37.3662 55.93C37.2062 55.8233 37.0628 55.7033 36.9362 55.57V57.9H35.8662ZM37.7062 55.24C37.8928 55.24 38.0262 55.1733 38.1062 55.04C38.1862 54.9 38.2362 54.7133 38.2562 54.48C38.2762 54.2467 38.2862 53.99 38.2862 53.71V52.31C38.2862 52.07 38.2728 51.85 38.2462 51.65C38.2195 51.4433 38.1628 51.28 38.0762 51.16C37.9895 51.04 37.8528 50.98 37.6662 50.98C37.5262 50.98 37.3928 51.01 37.2662 51.07C37.1395 51.13 37.0295 51.2 36.9362 51.28V54.98C37.0362 55.0533 37.1495 55.1167 37.2762 55.17C37.4028 55.2167 37.5462 55.24 37.7062 55.24ZM40.3291 57.9V50.22H41.3991V50.68C41.5257 50.5333 41.6791 50.4067 41.8591 50.3C42.0391 50.1933 42.2524 50.14 42.4991 50.14C42.7991 50.14 43.0357 50.22 43.2091 50.38C43.3891 50.5333 43.5224 50.73 43.6091 50.97C43.6957 51.2033 43.7524 51.4433 43.7791 51.69C43.8057 51.93 43.8191 52.1367 43.8191 52.31V53.71C43.8191 54.1167 43.7791 54.5033 43.6991 54.87C43.6191 55.23 43.4724 55.5233 43.2591 55.75C43.0524 55.97 42.7591 56.08 42.3791 56.08C42.1724 56.08 41.9891 56.03 41.8291 55.93C41.6691 55.8233 41.5257 55.7033 41.3991 55.57V57.9H40.3291ZM42.1691 55.24C42.3557 55.24 42.4891 55.1733 42.5691 55.04C42.6491 54.9 42.6991 54.7133 42.7191 54.48C42.7391 54.2467 42.7491 53.99 42.7491 53.71V52.31C42.7491 52.07 42.7357 51.85 42.7091 51.65C42.6824 51.4433 42.6257 51.28 42.5391 51.16C42.4524 51.04 42.3157 50.98 42.1291 50.98C41.9891 50.98 41.8557 51.01 41.7291 51.07C41.6024 51.13 41.4924 51.2 41.3991 51.28V54.98C41.4991 55.0533 41.6124 55.1167 41.7391 55.17C41.8657 55.2167 42.0091 55.24 42.1691 55.24ZM46.382 56.08C45.9553 56.08 45.6186 55.9933 45.372 55.82C45.1253 55.6467 44.9486 55.4 44.842 55.08C44.742 54.76 44.692 54.3833 44.692 53.95V52.27C44.692 51.8367 44.742 51.46 44.842 51.14C44.9486 50.82 45.1253 50.5733 45.372 50.4C45.6186 50.2267 45.9553 50.14 46.382 50.14C46.8086 50.14 47.142 50.2267 47.382 50.4C47.6286 50.5733 47.802 50.82 47.902 51.14C48.0086 51.46 48.062 51.8367 48.062 52.27V53.95C48.062 54.3833 48.0086 54.76 47.902 55.08C47.802 55.4 47.6286 55.6467 47.382 55.82C47.142 55.9933 46.8086 56.08 46.382 56.08ZM46.382 55.29C46.5886 55.29 46.732 55.23 46.812 55.11C46.8986 54.99 46.9486 54.8333 46.962 54.64C46.982 54.44 46.992 54.2333 46.992 54.02V52.21C46.992 51.99 46.982 51.7833 46.962 51.59C46.9486 51.3967 46.8986 51.24 46.812 51.12C46.732 50.9933 46.5886 50.93 46.382 50.93C46.1753 50.93 46.0286 50.9933 45.942 51.12C45.8553 51.24 45.802 51.3967 45.782 51.59C45.7686 51.7833 45.762 51.99 45.762 52.21V54.02C45.762 54.2333 45.7686 54.44 45.782 54.64C45.802 54.8333 45.8553 54.99 45.942 55.11C46.0286 55.23 46.1753 55.29 46.382 55.29ZM49.04 56V50.22H50.11V50.79C50.3033 50.61 50.5167 50.4567 50.75 50.33C50.9833 50.2033 51.24 50.14 51.52 50.14C51.7533 50.14 51.93 50.2 52.05 50.32C52.1767 50.44 52.2633 50.59 52.31 50.77C52.3633 50.95 52.39 51.1333 52.39 51.32V56H51.32V51.63C51.32 51.4233 51.29 51.2633 51.23 51.15C51.17 51.0367 51.0467 50.98 50.86 50.98C50.74 50.98 50.6133 51.0167 50.48 51.09C50.3533 51.1567 50.23 51.24 50.11 51.34V56H49.04ZM55.0345 56.08C54.5812 56.08 54.2312 55.9933 53.9845 55.82C53.7379 55.64 53.5645 55.38 53.4645 55.04C53.3712 54.6933 53.3245 54.27 53.3245 53.77V52.45C53.3245 51.9367 53.3745 51.51 53.4745 51.17C53.5745 50.83 53.7479 50.5733 53.9945 50.4C54.2479 50.2267 54.5945 50.14 55.0345 50.14C55.5212 50.14 55.8779 50.24 56.1045 50.44C56.3379 50.64 56.4912 50.93 56.5645 51.31C56.6379 51.6833 56.6745 52.1333 56.6745 52.66V53.13H54.3945V54.29C54.3945 54.5233 54.4145 54.7133 54.4545 54.86C54.5012 55.0067 54.5712 55.1167 54.6645 55.19C54.7645 55.2567 54.8912 55.29 55.0445 55.29C55.2045 55.29 55.3245 55.2533 55.4045 55.18C55.4912 55.1 55.5479 54.99 55.5745 54.85C55.6079 54.7033 55.6245 54.5333 55.6245 54.34V53.99H56.6645V54.21C56.6645 54.79 56.5412 55.2467 56.2945 55.58C56.0479 55.9133 55.6279 56.08 55.0345 56.08ZM54.3945 52.55H55.6245V52.03C55.6245 51.79 55.6112 51.59 55.5845 51.43C55.5579 51.2633 55.5012 51.14 55.4145 51.06C55.3345 50.9733 55.2045 50.93 55.0245 50.93C54.8512 50.93 54.7179 50.97 54.6245 51.05C54.5379 51.13 54.4779 51.2667 54.4445 51.46C54.4112 51.6467 54.3945 51.9067 54.3945 52.24V52.55ZM57.6435 56V50.22H58.7135V50.79C58.9068 50.61 59.1202 50.4567 59.3535 50.33C59.5868 50.2033 59.8435 50.14 60.1235 50.14C60.3568 50.14 60.5335 50.2 60.6535 50.32C60.7802 50.44 60.8668 50.59 60.9135 50.77C60.9668 50.95 60.9935 51.1333 60.9935 51.32V56H59.9235V51.63C59.9235 51.4233 59.8935 51.2633 59.8335 51.15C59.7735 51.0367 59.6502 50.98 59.4635 50.98C59.3435 50.98 59.2168 51.0167 59.0835 51.09C58.9568 51.1567 58.8335 51.24 58.7135 51.34V56H57.6435ZM63.578 56.08C63.278 56.08 63.0347 56.0233 62.848 55.91C62.668 55.7967 62.5347 55.6367 62.448 55.43C62.368 55.2233 62.328 54.98 62.328 54.7V50.93H61.718V50.22H62.328V48.53H63.398V50.22H64.328V50.93H63.398V54.63C63.398 54.8567 63.4347 55.02 63.508 55.12C63.5814 55.2133 63.7214 55.26 63.928 55.26C63.9814 55.26 64.0414 55.2567 64.108 55.25C64.1814 55.2433 64.2514 55.2367 64.318 55.23V56.02C64.1847 56.04 64.0614 56.0533 63.948 56.06C63.8347 56.0733 63.7114 56.08 63.578 56.08ZM67.4294 56V47.9H68.4994V50.82C68.6927 50.6333 68.9094 50.4733 69.1494 50.34C69.3894 50.2067 69.656 50.14 69.9494 50.14C70.176 50.14 70.3494 50.2 70.4694 50.32C70.596 50.44 70.6827 50.59 70.7294 50.77C70.7827 50.95 70.8094 51.1333 70.8094 51.32V56H69.7394V51.63C69.7394 51.4233 69.7094 51.2633 69.6494 51.15C69.5894 51.0367 69.466 50.98 69.2794 50.98C69.1527 50.98 69.0194 51.0167 68.8794 51.09C68.746 51.1633 68.6194 51.2533 68.4994 51.36V56H67.4294ZM72.8925 56.08C72.6658 56.08 72.4658 56.0167 72.2925 55.89C72.1192 55.7567 71.9825 55.59 71.8825 55.39C71.7825 55.1833 71.7325 54.9667 71.7325 54.74C71.7325 54.38 71.7925 54.0767 71.9125 53.83C72.0325 53.5833 72.1958 53.3767 72.4025 53.21C72.6158 53.0367 72.8592 52.8867 73.1325 52.76C73.4125 52.6333 73.7058 52.51 74.0125 52.39V51.98C74.0125 51.7467 73.9992 51.5533 73.9725 51.4C73.9458 51.2467 73.8892 51.1333 73.8025 51.06C73.7225 50.98 73.5992 50.94 73.4325 50.94C73.2858 50.94 73.1658 50.9733 73.0725 51.04C72.9858 51.1067 72.9225 51.2033 72.8825 51.33C72.8425 51.45 72.8225 51.5933 72.8225 51.76V52.05L71.7625 52.01C71.7758 51.37 71.9225 50.9 72.2025 50.6C72.4825 50.2933 72.9158 50.14 73.5025 50.14C74.0758 50.14 74.4825 50.2967 74.7225 50.61C74.9625 50.9233 75.0825 51.3767 75.0825 51.97V54.61C75.0825 54.79 75.0858 54.9633 75.0925 55.13C75.1058 55.2967 75.1192 55.4533 75.1325 55.6C75.1525 55.74 75.1692 55.8733 75.1825 56H74.2025C74.1825 55.8933 74.1558 55.76 74.1225 55.6C74.0958 55.4333 74.0758 55.2833 74.0625 55.15C73.9958 55.3767 73.8658 55.59 73.6725 55.79C73.4858 55.9833 73.2258 56.08 72.8925 56.08ZM73.3125 55.16C73.4192 55.16 73.5192 55.13 73.6125 55.07C73.7058 55.01 73.7892 54.9433 73.8625 54.87C73.9358 54.79 73.9858 54.7267 74.0125 54.68V53.04C73.8458 53.1333 73.6892 53.2267 73.5425 53.32C73.3958 53.4133 73.2658 53.5133 73.1525 53.62C73.0458 53.72 72.9592 53.8367 72.8925 53.97C72.8325 54.0967 72.8025 54.2433 72.8025 54.41C72.8025 54.6433 72.8458 54.8267 72.9325 54.96C73.0192 55.0933 73.1458 55.16 73.3125 55.16ZM77.4503 56.08C76.977 56.08 76.597 55.9333 76.3103 55.64C76.0236 55.34 75.8603 54.9467 75.8203 54.46L76.7103 54.19C76.7636 54.5567 76.8536 54.8333 76.9803 55.02C77.107 55.2 77.2936 55.29 77.5403 55.29C77.7336 55.29 77.8803 55.2367 77.9803 55.13C78.0803 55.0167 78.1303 54.8667 78.1303 54.68C78.1303 54.5133 78.0936 54.3633 78.0203 54.23C77.947 54.0967 77.827 53.96 77.6603 53.82L76.6703 52.97C76.4703 52.7967 76.3003 52.6033 76.1603 52.39C76.027 52.1767 75.9603 51.9 75.9603 51.56C75.9603 51.2533 76.0203 50.9967 76.1403 50.79C76.267 50.5767 76.4403 50.4167 76.6603 50.31C76.887 50.1967 77.1503 50.14 77.4503 50.14C77.9103 50.14 78.2603 50.29 78.5003 50.59C78.747 50.8833 78.887 51.24 78.9203 51.66L78.2003 51.93C78.1736 51.73 78.1336 51.5567 78.0803 51.41C78.027 51.2567 77.9536 51.14 77.8603 51.06C77.767 50.9733 77.6436 50.93 77.4903 50.93C77.317 50.93 77.177 50.99 77.0703 51.11C76.9703 51.2233 76.9203 51.36 76.9203 51.52C76.9203 51.62 76.9403 51.72 76.9803 51.82C77.027 51.9133 77.1036 52.0067 77.2103 52.1L78.2303 53.04C78.3703 53.1667 78.5003 53.3033 78.6203 53.45C78.747 53.5967 78.8503 53.7633 78.9303 53.95C79.0103 54.1367 79.0503 54.3533 79.0503 54.6C79.0503 54.9267 78.9836 55.2 78.8503 55.42C78.717 55.64 78.5303 55.8067 78.2903 55.92C78.0503 56.0267 77.7703 56.08 77.4503 56.08ZM82.1657 56V50.22H83.2357V51.04C83.449 50.6867 83.6624 50.45 83.8757 50.33C84.089 50.21 84.3024 50.15 84.5157 50.15C84.5424 50.15 84.5657 50.15 84.5857 50.15C84.6124 50.15 84.6457 50.1533 84.6857 50.16V51.34C84.6057 51.3067 84.5124 51.28 84.4057 51.26C84.3057 51.2333 84.2024 51.22 84.0957 51.22C83.929 51.22 83.7757 51.26 83.6357 51.34C83.5024 51.4133 83.369 51.56 83.2357 51.78V56H82.1657ZM86.1786 56.08C85.9519 56.08 85.7753 56.02 85.6486 55.9C85.5219 55.78 85.4319 55.63 85.3786 55.45C85.3319 55.27 85.3086 55.0867 85.3086 54.9V50.22H86.3786V54.58C86.3786 54.7867 86.4086 54.95 86.4686 55.07C86.5286 55.1833 86.6519 55.24 86.8386 55.24C86.9586 55.24 87.0819 55.2067 87.2086 55.14C87.3419 55.0667 87.4686 54.98 87.5886 54.88V50.22H88.6586V56H87.5886V55.43C87.4019 55.61 87.1886 55.7633 86.9486 55.89C86.7153 56.0167 86.4586 56.08 86.1786 56.08ZM89.7529 56V50.22H90.8229V50.79C91.0162 50.61 91.2296 50.4567 91.4629 50.33C91.6962 50.2033 91.9529 50.14 92.2329 50.14C92.4662 50.14 92.6429 50.2 92.7629 50.32C92.8896 50.44 92.9762 50.59 93.0229 50.77C93.0762 50.95 93.1029 51.1333 93.1029 51.32V56H92.0329V51.63C92.0329 51.4233 92.0029 51.2633 91.9429 51.15C91.8829 51.0367 91.7596 50.98 91.5729 50.98C91.4529 50.98 91.3262 51.0167 91.1929 51.09C91.0662 51.1567 90.9429 51.24 90.8229 51.34V56H89.7529ZM98.0226 56.08C97.5959 56.08 97.2592 55.9933 97.0126 55.82C96.7659 55.6467 96.5892 55.4 96.4826 55.08C96.3826 54.76 96.3326 54.3833 96.3326 53.95V52.27C96.3326 51.8367 96.3826 51.46 96.4826 51.14C96.5892 50.82 96.7659 50.5733 97.0126 50.4C97.2592 50.2267 97.5959 50.14 98.0226 50.14C98.4492 50.14 98.7826 50.2267 99.0226 50.4C99.2692 50.5733 99.4426 50.82 99.5426 51.14C99.6492 51.46 99.7026 51.8367 99.7026 52.27V53.95C99.7026 54.3833 99.6492 54.76 99.5426 55.08C99.4426 55.4 99.2692 55.6467 99.0226 55.82C98.7826 55.9933 98.4492 56.08 98.0226 56.08ZM98.0226 55.29C98.2292 55.29 98.3726 55.23 98.4526 55.11C98.5392 54.99 98.5892 54.8333 98.6026 54.64C98.6226 54.44 98.6326 54.2333 98.6326 54.02V52.21C98.6326 51.99 98.6226 51.7833 98.6026 51.59C98.5892 51.3967 98.5392 51.24 98.4526 51.12C98.3726 50.9933 98.2292 50.93 98.0226 50.93C97.8159 50.93 97.6692 50.9933 97.5826 51.12C97.4959 51.24 97.4426 51.3967 97.4226 51.59C97.4092 51.7833 97.4026 51.99 97.4026 52.21V54.02C97.4026 54.2333 97.4092 54.44 97.4226 54.64C97.4426 54.8333 97.4959 54.99 97.5826 55.11C97.6692 55.23 97.8159 55.29 98.0226 55.29ZM101.511 56.08C101.284 56.08 101.107 56.02 100.981 55.9C100.854 55.78 100.764 55.63 100.711 55.45C100.664 55.27 100.641 55.0867 100.641 54.9V50.22H101.711V54.58C101.711 54.7867 101.741 54.95 101.801 55.07C101.861 55.1833 101.984 55.24 102.171 55.24C102.291 55.24 102.414 55.2067 102.541 55.14C102.674 55.0667 102.801 54.98 102.921 54.88V50.22H103.991V56H102.921V55.43C102.734 55.61 102.521 55.7633 102.281 55.89C102.047 56.0167 101.791 56.08 101.511 56.08ZM106.625 56.08C106.325 56.08 106.082 56.0233 105.895 55.91C105.715 55.7967 105.582 55.6367 105.495 55.43C105.415 55.2233 105.375 54.98 105.375 54.7V50.93H104.765V50.22H105.375V48.53H106.445V50.22H107.375V50.93H106.445V54.63C106.445 54.8567 106.482 55.02 106.555 55.12C106.628 55.2133 106.768 55.26 106.975 55.26C107.028 55.26 107.088 55.2567 107.155 55.25C107.228 55.2433 107.298 55.2367 107.365 55.23V56.02C107.232 56.04 107.108 56.0533 106.995 56.06C106.882 56.0733 106.758 56.08 106.625 56.08ZM112.036 56.08C111.61 56.08 111.273 55.9933 111.026 55.82C110.78 55.6467 110.603 55.4 110.496 55.08C110.396 54.76 110.346 54.3833 110.346 53.95V52.27C110.346 51.8367 110.396 51.46 110.496 51.14C110.603 50.82 110.78 50.5733 111.026 50.4C111.273 50.2267 111.61 50.14 112.036 50.14C112.463 50.14 112.796 50.2267 113.036 50.4C113.283 50.5733 113.456 50.82 113.556 51.14C113.663 51.46 113.716 51.8367 113.716 52.27V53.95C113.716 54.3833 113.663 54.76 113.556 55.08C113.456 55.4 113.283 55.6467 113.036 55.82C112.796 55.9933 112.463 56.08 112.036 56.08ZM112.036 55.29C112.243 55.29 112.386 55.23 112.466 55.11C112.553 54.99 112.603 54.8333 112.616 54.64C112.636 54.44 112.646 54.2333 112.646 54.02V52.21C112.646 51.99 112.636 51.7833 112.616 51.59C112.603 51.3967 112.553 51.24 112.466 51.12C112.386 50.9933 112.243 50.93 112.036 50.93C111.83 50.93 111.683 50.9933 111.596 51.12C111.51 51.24 111.456 51.3967 111.436 51.59C111.423 51.7833 111.416 51.99 111.416 52.21V54.02C111.416 54.2333 111.423 54.44 111.436 54.64C111.456 54.8333 111.51 54.99 111.596 55.11C111.683 55.23 111.83 55.29 112.036 55.29ZM115.034 56V51.01H114.344V50.22H115.034V49.92C115.034 49.56 115.061 49.2533 115.114 49C115.174 48.74 115.294 48.54 115.474 48.4C115.654 48.26 115.924 48.19 116.284 48.19C116.418 48.19 116.534 48.1967 116.634 48.21C116.741 48.2167 116.858 48.2333 116.984 48.26V49.04C116.924 49.0267 116.858 49.0167 116.784 49.01C116.711 48.9967 116.644 48.99 116.584 48.99C116.378 48.99 116.244 49.06 116.184 49.2C116.131 49.3333 116.104 49.5133 116.104 49.74V50.22H116.984V51.01H116.104V56H115.034ZM121.391 56.08C121.091 56.08 120.847 56.0233 120.661 55.91C120.481 55.7967 120.347 55.6367 120.261 55.43C120.181 55.2233 120.141 54.98 120.141 54.7V50.93H119.531V50.22H120.141V48.53H121.211V50.22H122.141V50.93H121.211V54.63C121.211 54.8567 121.247 55.02 121.321 55.12C121.394 55.2133 121.534 55.26 121.741 55.26C121.794 55.26 121.854 55.2567 121.921 55.25C121.994 55.2433 122.064 55.2367 122.131 55.23V56.02C121.997 56.04 121.874 56.0533 121.761 56.06C121.647 56.0733 121.524 56.08 121.391 56.08ZM122.997 56V50.22H124.067V56H122.997ZM122.997 49.36V48.24H124.067V49.36H122.997ZM125.212 56V50.22H126.202V50.77C126.395 50.55 126.609 50.3867 126.842 50.28C127.075 50.1733 127.315 50.12 127.562 50.12C127.775 50.12 127.965 50.1733 128.132 50.28C128.305 50.3867 128.429 50.5767 128.502 50.85C128.709 50.5967 128.932 50.4133 129.172 50.3C129.419 50.18 129.675 50.12 129.942 50.12C130.129 50.12 130.299 50.1667 130.452 50.26C130.605 50.3467 130.729 50.49 130.822 50.69C130.915 50.8833 130.962 51.14 130.962 51.46V56H129.982V51.53C129.982 51.25 129.935 51.0633 129.842 50.97C129.755 50.87 129.635 50.82 129.482 50.82C129.335 50.82 129.182 50.8633 129.022 50.95C128.862 51.03 128.715 51.1433 128.582 51.29C128.582 51.3167 128.582 51.3433 128.582 51.37C128.582 51.3967 128.582 51.4267 128.582 51.46V56H127.602V51.53C127.602 51.25 127.555 51.0633 127.462 50.97C127.375 50.87 127.255 50.82 127.102 50.82C126.955 50.82 126.802 50.8633 126.642 50.95C126.489 51.03 126.342 51.1433 126.202 51.29V56H125.212ZM133.609 56.08C133.155 56.08 132.805 55.9933 132.559 55.82C132.312 55.64 132.139 55.38 132.039 55.04C131.945 54.6933 131.899 54.27 131.899 53.77V52.45C131.899 51.9367 131.949 51.51 132.049 51.17C132.149 50.83 132.322 50.5733 132.569 50.4C132.822 50.2267 133.169 50.14 133.609 50.14C134.095 50.14 134.452 50.24 134.679 50.44C134.912 50.64 135.065 50.93 135.139 51.31C135.212 51.6833 135.249 52.1333 135.249 52.66V53.13H132.969V54.29C132.969 54.5233 132.989 54.7133 133.029 54.86C133.075 55.0067 133.145 55.1167 133.239 55.19C133.339 55.2567 133.465 55.29 133.619 55.29C133.779 55.29 133.899 55.2533 133.979 55.18C134.065 55.1 134.122 54.99 134.149 54.85C134.182 54.7033 134.199 54.5333 134.199 54.34V53.99H135.239V54.21C135.239 54.79 135.115 55.2467 134.869 55.58C134.622 55.9133 134.202 56.08 133.609 56.08ZM132.969 52.55H134.199V52.03C134.199 51.79 134.185 51.59 134.159 51.43C134.132 51.2633 134.075 51.14 133.989 51.06C133.909 50.9733 133.779 50.93 133.599 50.93C133.425 50.93 133.292 50.97 133.199 51.05C133.112 51.13 133.052 51.2667 133.019 51.46C132.985 51.6467 132.969 51.9067 132.969 52.24V52.55Z"></path>
</svg>
