<svg xmlns="http://www.w3.org/2000/svg" fill="none" viewBox="0 0 104 22" height="22" width="104">
<rect stroke="#0D0E12" fill="#0D0E12" height="21" width="103" y="0.5" x="0.5"></rect>
<path fill="white" d="M43.6139 15V6.9H45.4039V15H43.6139ZM46.5817 15L46.7217 6.9H48.6417L49.5317 11.61L50.4917 6.9H52.3417L52.4817 15H51.2117L51.0617 9.61L50.1217 15H48.9917L47.9917 9.57L47.8717 15H46.5817ZM53.6527 15V6.9H56.3727C56.8594 6.9 57.2594 6.99333 57.5727 7.18C57.8861 7.36 58.1194 7.62667 58.2727 7.98C58.4261 8.32667 58.5027 8.75 58.5027 9.25C58.5027 9.87667 58.3994 10.3567 58.1927 10.69C57.9861 11.0167 57.7061 11.2433 57.3527 11.37C56.9994 11.4967 56.6027 11.56 56.1627 11.56H55.4427V15H53.6527ZM55.4427 10.31H56.0427C56.2627 10.31 56.4294 10.27 56.5427 10.19C56.6561 10.11 56.7294 9.99 56.7627 9.83C56.8027 9.67 56.8227 9.46667 56.8227 9.22C56.8227 9.01333 56.8061 8.83333 56.7727 8.68C56.7461 8.52 56.6761 8.39333 56.5627 8.3C56.4494 8.20667 56.2727 8.16 56.0327 8.16H55.4427V10.31ZM61.6856 15.12C61.079 15.12 60.599 15.0133 60.2456 14.8C59.8923 14.5867 59.639 14.28 59.4856 13.88C59.3323 13.48 59.2556 13.0033 59.2556 12.45V9.44C59.2556 8.88 59.3323 8.40333 59.4856 8.01C59.639 7.61667 59.8923 7.31667 60.2456 7.11C60.599 6.89667 61.079 6.79 61.6856 6.79C62.299 6.79 62.7823 6.89667 63.1356 7.11C63.4956 7.31667 63.7523 7.61667 63.9056 8.01C64.059 8.40333 64.1356 8.88 64.1356 9.44V12.45C64.1356 13.0033 64.059 13.48 63.9056 13.88C63.7523 14.28 63.4956 14.5867 63.1356 14.8C62.7823 15.0133 62.299 15.12 61.6856 15.12ZM61.6856 13.85C61.8723 13.85 62.009 13.8033 62.0956 13.71C62.1823 13.6167 62.239 13.4967 62.2656 13.35C62.2923 13.2033 62.3056 13.0533 62.3056 12.9V9C62.3056 8.84 62.2923 8.69 62.2656 8.55C62.239 8.40333 62.1823 8.28333 62.0956 8.19C62.009 8.09667 61.8723 8.05 61.6856 8.05C61.5123 8.05 61.3823 8.09667 61.2956 8.19C61.209 8.28333 61.1523 8.40333 61.1256 8.55C61.099 8.69 61.0856 8.84 61.0856 9V12.9C61.0856 13.0533 61.0956 13.2033 61.1156 13.35C61.1423 13.4967 61.1956 13.6167 61.2756 13.71C61.3623 13.8033 61.499 13.85 61.6856 13.85ZM65.225 15V6.9H67.455C68.0017 6.9 68.475 6.96 68.875 7.08C69.275 7.2 69.585 7.41667 69.805 7.73C70.0317 8.03667 70.145 8.47333 70.145 9.04C70.145 9.37333 70.1183 9.67 70.065 9.93C70.0117 10.19 69.9117 10.4167 69.765 10.61C69.625 10.7967 69.4217 10.9533 69.155 11.08L70.265 15H68.415L67.525 11.37H67.015V15H65.225ZM67.015 10.34H67.515C67.7683 10.34 67.965 10.2967 68.105 10.21C68.245 10.1167 68.3417 9.98667 68.395 9.82C68.455 9.64667 68.485 9.44 68.485 9.2C68.485 8.85333 68.4217 8.58333 68.295 8.39C68.1683 8.19667 67.935 8.1 67.595 8.1H67.015V10.34ZM71.873 15V8.23H70.653V6.9H74.883V8.23H73.673V15H71.873Z"></path>
<rect fill="white" rx="0.454271" height="0.908543" width="9.08543" y="15.0916" x="29"></rect>
<rect fill="white" transform="rotate(135 37.1507 10.1135)" rx="0.479838" height="0.959676" width="5.1115" y="10.1135" x="37.1507"></rect>
<rect fill="white" transform="rotate(45 30.6183 9.45483)" rx="0.47776" height="0.955519" width="5.0884" y="9.45483" x="30.6183"></rect>
<rect fill="white" transform="rotate(90 34.0049 6)" rx="0.454272" height="0.908543" width="7.26834" y="6" x="34.0049"></rect>
<rect fill="white" transform="rotate(-90 29 16)" rx="0.454271" height="0.908543" width="4.08844" y="16" x="29"></rect>
<rect fill="white" transform="rotate(-90 37.1769 16)" rx="0.454271" height="0.908543" width="4.08844" y="16" x="37.1769"></rect>
</svg>
