<svg xmlns="http://www.w3.org/2000/svg" fill="none" viewBox="0 0 12 12" height="12" width="12">
<circle stroke-width="0.5" stroke="#0D0E12" fill="#FDCD4D" r="5" cy="6" cx="6"></circle>
<path fill="white" d="M9 5.5C9 6.05228 8.55228 6.5 8 6.5C7.44772 6.5 7 6.05228 7 5.5C7 4.94772 7.44772 4.5 8 4.5C8.55228 4.5 9 4.94772 9 5.5Z"></path>
<path fill="#0D0E12" d="M8.5 5.5C8.5 5.77614 8.27614 6 8 6C7.72386 6 7.5 5.77614 7.5 5.5C7.5 5.22386 7.72386 5 8 5C8.27614 5 8.5 5.22386 8.5 5.5Z"></path>
<path fill="white" d="M8 5C8 5.13807 7.88807 5.25 7.75 5.25C7.61193 5.25 7.5 5.13807 7.5 5C7.5 4.86193 7.61193 4.75 7.75 4.75C7.88807 4.75 8 4.86193 8 5Z"></path>
<path stroke-linecap="round" stroke-width="0.5" stroke="#0D0E12" d="M6 5.375C5.75 4.875 4.75 4.875 4.5 5.37501"></path>
<path stroke-linecap="round" stroke-width="0.5" stroke="#0D0E12" d="M3.49996 7.49993C3.5 8.24994 4.49998 8.99993 6.49998 8.99993"></path>
</svg>
