<svg xmlns="http://www.w3.org/2000/svg" fill="none" viewBox="0 0 13 18" height="18" width="13">
<rect fill-opacity="0.01" fill="#0D0E12" height="18" width="13"></rect>
<path fill="white" d="M0.78 14L2.892 5.804H0.24V4.28H4.848V5.66L2.736 14H0.78ZM8.33344 14.18C7.62144 14.18 7.08144 14.056 6.71344 13.808C6.35344 13.552 6.10944 13.196 5.98144 12.74C5.85344 12.284 5.78944 11.756 5.78944 11.156H7.72144C7.72144 11.524 7.74144 11.824 7.78144 12.056C7.82144 12.288 7.89344 12.456 7.99744 12.56C8.10944 12.656 8.26544 12.7 8.46544 12.692C8.67344 12.684 8.82144 12.6 8.90944 12.44C8.99744 12.28 9.04944 12.052 9.06544 11.756C9.08944 11.452 9.10144 11.088 9.10144 10.664C9.10144 10.344 9.08144 10.06 9.04144 9.812C9.00944 9.564 8.93744 9.368 8.82544 9.224C8.72144 9.072 8.56144 8.996 8.34544 8.996C8.14544 8.996 7.98144 9.068 7.85344 9.212C7.72544 9.356 7.63344 9.58 7.57744 9.884H5.84944L6.02944 4.28H10.5654V5.96H7.63744L7.52944 7.964C7.60944 7.852 7.76144 7.756 7.98544 7.676C8.20944 7.588 8.44944 7.532 8.70544 7.508C9.20144 7.452 9.61744 7.544 9.95344 7.784C10.2974 8.016 10.5534 8.372 10.7214 8.852C10.8974 9.332 10.9854 9.92 10.9854 10.616C10.9854 11.136 10.9534 11.616 10.8894 12.056C10.8254 12.488 10.7014 12.864 10.5174 13.184C10.3334 13.496 10.0654 13.74 9.71344 13.916C9.36144 14.092 8.90144 14.18 8.33344 14.18Z"></path>
</svg>
