<svg xmlns="http://www.w3.org/2000/svg" fill="none" viewBox="0 0 10 19" height="19" width="10">
<path fill-opacity="0.01" fill="white" d="M0 2.18478e-05L10 -3.32919e-05V19L0 19V2.18478e-05Z"></path>
<path fill="#45D2FF" d="M0.769672 13.9999V4.27988H2.91767V8.38388H3.39767C4.01367 8.38388 4.53367 8.48388 4.95767 8.68388C5.38967 8.88388 5.71367 9.19188 5.92967 9.60788C6.15367 10.0159 6.26567 10.5439 6.26567 11.1919C6.26567 11.7839 6.18567 12.2639 6.02567 12.6319C5.87367 12.9999 5.65767 13.2839 5.37767 13.4839C5.09767 13.6839 4.77367 13.8199 4.40567 13.8919C4.03767 13.9639 3.63767 13.9999 3.20567 13.9999H0.769672ZM2.91767 12.5959H3.21767C3.48967 12.5959 3.70167 12.5439 3.85367 12.4399C4.01367 12.3359 4.12567 12.1759 4.18967 11.9599C4.26167 11.7439 4.29367 11.4719 4.28567 11.1439C4.27767 10.7839 4.20167 10.4839 4.05767 10.2439C3.91367 9.99588 3.62567 9.87188 3.19367 9.87188H2.91767V12.5959ZM7.08167 13.9999V4.27988H9.22967V13.9999H7.08167Z"></path>
</svg>
