<svg xmlns="http://www.w3.org/2000/svg" fill="none" viewBox="0 0 13 18" height="18" width="13">
<rect fill-opacity="0.01" fill="#0D0E12" height="18" width="13"></rect>
<path fill="white" d="M0.492 14V12.584L2.82 9.008C2.996 8.744 3.16 8.488 3.312 8.24C3.472 7.992 3.6 7.74 3.696 7.484C3.8 7.228 3.852 6.96 3.852 6.68C3.852 6.4 3.796 6.192 3.684 6.056C3.572 5.92 3.42 5.852 3.228 5.852C3.012 5.852 2.844 5.912 2.724 6.032C2.604 6.152 2.52 6.312 2.472 6.512C2.432 6.712 2.412 6.936 2.412 7.184V7.664H0.468V7.148C0.468 6.572 0.56 6.06 0.744 5.612C0.928 5.156 1.22 4.8 1.62 4.544C2.02 4.28 2.544 4.148 3.192 4.148C4.064 4.148 4.72 4.376 5.16 4.832C5.608 5.28 5.832 5.908 5.832 6.716C5.832 7.108 5.768 7.472 5.64 7.808C5.52 8.144 5.356 8.472 5.148 8.792C4.948 9.104 4.732 9.432 4.5 9.776L2.724 12.428H5.568V14H0.492ZM9.47606 14.144C8.84406 14.144 8.32806 14.008 7.92806 13.736C7.53606 13.456 7.24806 13.076 7.06406 12.596C6.88006 12.116 6.78806 11.568 6.78806 10.952V7.436C6.78806 6.804 6.86006 6.24 7.00406 5.744C7.15606 5.248 7.42406 4.86 7.80806 4.58C8.19206 4.292 8.74406 4.148 9.46406 4.148C10.0881 4.148 10.5801 4.244 10.9401 4.436C11.3001 4.628 11.5561 4.908 11.7081 5.276C11.8601 5.644 11.9361 6.1 11.9361 6.644C11.9361 6.676 11.9361 6.708 11.9361 6.74C11.9441 6.764 11.9481 6.788 11.9481 6.812H10.0641C10.0641 6.42 10.0321 6.132 9.96806 5.948C9.91206 5.756 9.74806 5.66 9.47606 5.66C9.29206 5.66 9.15206 5.716 9.05606 5.828C8.96806 5.94 8.90806 6.136 8.87606 6.416C8.84406 6.696 8.82806 7.088 8.82806 7.592V8.456C8.92406 8.288 9.08006 8.16 9.29606 8.072C9.51206 7.976 9.75606 7.924 10.0281 7.916C10.5401 7.9 10.9481 8.016 11.2521 8.264C11.5641 8.512 11.7881 8.852 11.9241 9.284C12.0601 9.708 12.1281 10.184 12.1281 10.712C12.1281 11.392 12.0481 11.992 11.8881 12.512C11.7281 13.024 11.4561 13.424 11.0721 13.712C10.6881 14 10.1561 14.144 9.47606 14.144ZM9.50006 12.668C9.68406 12.668 9.81606 12.608 9.89606 12.488C9.98406 12.36 10.0401 12.176 10.0641 11.936C10.0961 11.688 10.1121 11.384 10.1121 11.024C10.1121 10.704 10.1001 10.428 10.0761 10.196C10.0601 9.964 10.0081 9.784 9.92006 9.656C9.83206 9.52 9.68406 9.452 9.47606 9.452C9.38006 9.452 9.28806 9.472 9.20006 9.512C9.11206 9.552 9.03606 9.604 8.97206 9.668C8.90806 9.724 8.86006 9.78 8.82806 9.836V11.42C8.82806 11.636 8.84406 11.84 8.87606 12.032C8.91606 12.224 8.98406 12.38 9.08006 12.5C9.18406 12.612 9.32406 12.668 9.50006 12.668Z"></path>
</svg>
