<svg xmlns="http://www.w3.org/2000/svg" fill="none" viewBox="0 0 480 360" height="360" width="480">
<rect fill="white" height="360" width="480"></rect>
<rect fill="#0D0E12" height="30" width="480"></rect>
<rect fill="#393939" height="1" width="480" y="29"></rect>
<path fill="white" d="M47.756 64V54.28H49.448V59.848L51.932 54.28H53.324V64H51.596V58.336L49.064 64H47.756ZM54.8341 64V54.28H59.3341V55.876H56.9821V64H54.8341ZM60.3528 64V54.28H63.6168C64.2008 54.28 64.6808 54.392 65.0568 54.616C65.4328 54.832 65.7128 55.152 65.8968 55.576C66.0808 55.992 66.1728 56.5 66.1728 57.1C66.1728 57.852 66.0488 58.428 65.8008 58.828C65.5528 59.22 65.2168 59.492 64.7928 59.644C64.3688 59.796 63.8928 59.872 63.3648 59.872H62.5008V64H60.3528ZM62.5008 58.372H63.2208C63.4848 58.372 63.6848 58.324 63.8208 58.228C63.9568 58.132 64.0448 57.988 64.0848 57.796C64.1328 57.604 64.1568 57.36 64.1568 57.064C64.1568 56.816 64.1368 56.6 64.0968 56.416C64.0648 56.224 63.9808 56.072 63.8448 55.96C63.7088 55.848 63.4968 55.792 63.2088 55.792H62.5008V58.372ZM69.9923 64.144C69.2643 64.144 68.6883 64.016 68.2643 63.76C67.8403 63.504 67.5363 63.136 67.3523 62.656C67.1683 62.176 67.0763 61.604 67.0763 60.94V57.328C67.0763 56.656 67.1683 56.084 67.3523 55.612C67.5363 55.14 67.8403 54.78 68.2643 54.532C68.6883 54.276 69.2643 54.148 69.9923 54.148C70.7283 54.148 71.3083 54.276 71.7323 54.532C72.1643 54.78 72.4723 55.14 72.6563 55.612C72.8403 56.084 72.9323 56.656 72.9323 57.328V60.94C72.9323 61.604 72.8403 62.176 72.6563 62.656C72.4723 63.136 72.1643 63.504 71.7323 63.76C71.3083 64.016 70.7283 64.144 69.9923 64.144ZM69.9923 62.62C70.2163 62.62 70.3803 62.564 70.4843 62.452C70.5883 62.34 70.6563 62.196 70.6883 62.02C70.7203 61.844 70.7363 61.664 70.7363 61.48V56.8C70.7363 56.608 70.7203 56.428 70.6883 56.26C70.6563 56.084 70.5883 55.94 70.4843 55.828C70.3803 55.716 70.2163 55.66 69.9923 55.66C69.7843 55.66 69.6283 55.716 69.5243 55.828C69.4203 55.94 69.3523 56.084 69.3203 56.26C69.2883 56.428 69.2723 56.608 69.2723 56.8V61.48C69.2723 61.664 69.2843 61.844 69.3083 62.02C69.3403 62.196 69.4043 62.34 69.5003 62.452C69.6043 62.564 69.7683 62.62 69.9923 62.62ZM74.2755 64V54.28H76.4235V58.132H76.6395L78.0675 54.28H80.2035L78.4275 58.84L80.2635 64H78.0555L76.6395 59.764H76.4235V64H74.2755Z"></path>
<path fill="white" d="M22.624 64V54.28H24.148L26.14 59.032V54.28H27.904V64H26.428L24.46 58.9V64H22.624ZM31.288 64.132C30.568 64.132 29.984 63.948 29.536 63.58C29.096 63.212 28.876 62.648 28.876 61.888V59.176C28.876 58.416 29.096 57.852 29.536 57.484C29.984 57.116 30.568 56.932 31.288 56.932C32 56.932 32.584 57.116 33.04 57.484C33.496 57.844 33.724 58.408 33.724 59.176V61.888C33.724 62.656 33.496 63.224 33.04 63.592C32.584 63.952 32 64.132 31.288 64.132ZM31.288 62.752C31.424 62.752 31.528 62.724 31.6 62.668C31.68 62.612 31.736 62.524 31.768 62.404C31.8 62.276 31.816 62.112 31.816 61.912V59.152C31.816 58.944 31.8 58.78 31.768 58.66C31.736 58.54 31.68 58.452 31.6 58.396C31.528 58.34 31.424 58.312 31.288 58.312C31.16 58.312 31.056 58.34 30.976 58.396C30.904 58.452 30.848 58.544 30.808 58.672C30.776 58.792 30.76 58.952 30.76 59.152V61.912C30.76 62.112 30.776 62.276 30.808 62.404C30.848 62.524 30.904 62.612 30.976 62.668C31.056 62.724 31.16 62.752 31.288 62.752Z"></path>
<path fill="white" d="M163.756 64V54.28H165.904V58.132H166.12L167.548 54.28H169.684L167.908 58.84L169.744 64H167.536L166.12 59.764H165.904V64H163.756ZM170.587 64V54.28H176.407V64H174.295V55.816H172.699V64H170.587ZM177.349 66.1V62.464H177.625C177.809 62.408 177.977 62.312 178.129 62.176C178.289 62.032 178.433 61.84 178.561 61.6C178.689 61.36 178.805 61.06 178.909 60.7C179.013 60.34 179.101 59.912 179.173 59.416C179.245 58.912 179.305 58.332 179.353 57.676L179.617 54.28H184.141V62.464H185.233V66.1H183.817L183.709 64H178.945L178.825 66.1H177.349ZM179.653 62.464H182.137V55.804H181.237L181.129 57.892C181.089 58.58 181.029 59.164 180.949 59.644C180.877 60.124 180.789 60.524 180.685 60.844C180.589 61.156 180.485 61.412 180.373 61.612C180.261 61.812 180.141 61.976 180.013 62.104C179.893 62.232 179.773 62.352 179.653 62.464Z"></path>
<path fill="white" d="M227.72 64V54.28H233.54V64H231.428V55.816H229.832V64H227.72ZM234.986 64V54.28H238.25C238.834 54.28 239.314 54.392 239.69 54.616C240.066 54.832 240.346 55.152 240.53 55.576C240.714 55.992 240.806 56.5 240.806 57.1C240.806 57.852 240.682 58.428 240.434 58.828C240.186 59.22 239.85 59.492 239.426 59.644C239.002 59.796 238.526 59.872 237.998 59.872H237.134V64H234.986ZM237.134 58.372H237.854C238.118 58.372 238.318 58.324 238.454 58.228C238.59 58.132 238.678 57.988 238.718 57.796C238.766 57.604 238.79 57.36 238.79 57.064C238.79 56.816 238.77 56.6 238.73 56.416C238.698 56.224 238.614 56.072 238.478 55.96C238.342 55.848 238.13 55.792 237.842 55.792H237.134V58.372ZM244.625 64.144C243.897 64.144 243.321 64.016 242.897 63.76C242.473 63.504 242.169 63.136 241.985 62.656C241.801 62.176 241.709 61.604 241.709 60.94V57.328C241.709 56.656 241.801 56.084 241.985 55.612C242.169 55.14 242.473 54.78 242.897 54.532C243.321 54.276 243.897 54.148 244.625 54.148C245.361 54.148 245.941 54.276 246.365 54.532C246.797 54.78 247.105 55.14 247.289 55.612C247.473 56.084 247.565 56.656 247.565 57.328V60.94C247.565 61.604 247.473 62.176 247.289 62.656C247.105 63.136 246.797 63.504 246.365 63.76C245.941 64.016 245.361 64.144 244.625 64.144ZM244.625 62.62C244.849 62.62 245.013 62.564 245.117 62.452C245.221 62.34 245.289 62.196 245.321 62.02C245.353 61.844 245.369 61.664 245.369 61.48V56.8C245.369 56.608 245.353 56.428 245.321 56.26C245.289 56.084 245.221 55.94 245.117 55.828C245.013 55.716 244.849 55.66 244.625 55.66C244.417 55.66 244.261 55.716 244.157 55.828C244.053 55.94 243.985 56.084 243.953 56.26C243.921 56.428 243.905 56.608 243.905 56.8V61.48C243.905 61.664 243.917 61.844 243.941 62.02C243.973 62.196 244.037 62.34 244.133 62.452C244.237 62.564 244.401 62.62 244.625 62.62ZM249.748 64V55.876H248.284V54.28H253.36V55.876H251.908V64H249.748ZM254.252 64V54.28H255.944V59.848L258.428 54.28H259.82V64H258.092V58.336L255.56 64H254.252ZM261.294 64V54.28H263.826C264.242 54.28 264.634 54.312 265.002 54.376C265.378 54.44 265.71 54.564 265.998 54.748C266.286 54.924 266.51 55.18 266.67 55.516C266.838 55.844 266.922 56.28 266.922 56.824C266.922 57.216 266.862 57.548 266.742 57.82C266.63 58.084 266.466 58.296 266.25 58.456C266.042 58.616 265.79 58.724 265.494 58.78C265.87 58.828 266.186 58.952 266.442 59.152C266.698 59.344 266.89 59.604 267.018 59.932C267.154 60.26 267.222 60.656 267.222 61.12C267.222 61.624 267.154 62.06 267.018 62.428C266.89 62.788 266.702 63.084 266.454 63.316C266.206 63.548 265.898 63.72 265.53 63.832C265.17 63.944 264.754 64 264.282 64H261.294ZM263.442 62.5H263.898C264.37 62.5 264.694 62.38 264.87 62.14C265.054 61.9 265.146 61.548 265.146 61.084C265.146 60.716 265.106 60.424 265.026 60.208C264.946 59.992 264.814 59.836 264.63 59.74C264.446 59.636 264.198 59.584 263.886 59.584H263.442V62.5ZM263.442 58.168H263.862C264.19 58.168 264.438 58.12 264.606 58.024C264.774 57.92 264.886 57.772 264.942 57.58C265.006 57.388 265.038 57.156 265.038 56.884C265.038 56.628 264.99 56.416 264.894 56.248C264.806 56.072 264.67 55.94 264.486 55.852C264.31 55.764 264.086 55.72 263.814 55.72H263.442V58.168ZM268.385 64V54.28H270.533V58.216H272.033V54.28H274.193V64H272.033V59.752H270.533V64H268.385ZM275.709 64V54.28H277.401V59.848L279.885 54.28H281.277V64H279.549V58.336L277.017 64H275.709ZM282.787 64V54.28H284.935V58.132H285.151L286.579 54.28H288.715L286.939 58.84L288.775 64H286.567L285.151 59.764H284.935V64H282.787Z"></path>
<path fill="white" d="M329.72 21V11.28H333.92V12.732H331.868V15.18H333.656V16.68H331.868V21H329.72ZM334.923 21V11.28H338.187C338.771 11.28 339.251 11.392 339.627 11.616C340.003 11.832 340.283 12.152 340.467 12.576C340.651 12.992 340.743 13.5 340.743 14.1C340.743 14.852 340.619 15.428 340.371 15.828C340.123 16.22 339.787 16.492 339.363 16.644C338.939 16.796 338.463 16.872 337.935 16.872H337.071V21H334.923ZM337.071 15.372H337.791C338.055 15.372 338.255 15.324 338.391 15.228C338.527 15.132 338.615 14.988 338.655 14.796C338.703 14.604 338.727 14.36 338.727 14.064C338.727 13.816 338.707 13.6 338.667 13.416C338.635 13.224 338.551 13.072 338.415 12.96C338.279 12.848 338.067 12.792 337.779 12.792H337.071V15.372ZM344.265 21.144C343.657 21.144 343.149 21.036 342.741 20.82C342.333 20.604 342.025 20.272 341.817 19.824C341.609 19.368 341.493 18.78 341.469 18.06L343.305 17.784C343.313 18.2 343.349 18.536 343.413 18.792C343.485 19.048 343.581 19.232 343.701 19.344C343.829 19.456 343.981 19.512 344.157 19.512C344.381 19.512 344.525 19.436 344.589 19.284C344.661 19.132 344.697 18.972 344.697 18.804C344.697 18.404 344.601 18.068 344.409 17.796C344.217 17.516 343.957 17.236 343.629 16.956L342.789 16.224C342.421 15.912 342.109 15.56 341.853 15.168C341.605 14.768 341.481 14.276 341.481 13.692C341.481 12.868 341.725 12.24 342.213 11.808C342.701 11.368 343.365 11.148 344.205 11.148C344.725 11.148 345.141 11.236 345.453 11.412C345.773 11.588 346.013 11.82 346.173 12.108C346.341 12.388 346.453 12.688 346.509 13.008C346.573 13.32 346.609 13.62 346.617 13.908L344.769 14.136C344.761 13.848 344.741 13.6 344.709 13.392C344.685 13.176 344.629 13.012 344.541 12.9C344.453 12.78 344.317 12.72 344.133 12.72C343.933 12.72 343.785 12.804 343.689 12.972C343.601 13.14 343.557 13.308 343.557 13.476C343.557 13.836 343.641 14.132 343.809 14.364C343.985 14.588 344.213 14.824 344.493 15.072L345.297 15.78C345.721 16.14 346.077 16.548 346.365 17.004C346.661 17.46 346.809 18.024 346.809 18.696C346.809 19.152 346.705 19.568 346.497 19.944C346.289 20.312 345.993 20.604 345.609 20.82C345.233 21.036 344.785 21.144 344.265 21.144ZM347.933 16.056V14.232H349.757V16.056H347.933ZM347.933 20.328V18.504H349.757V20.328H347.933Z"></path>
</svg>
