<svg xmlns="http://www.w3.org/2000/svg" fill="none" viewBox="0 0 13 18" height="18" width="13">
<rect fill-opacity="0.01" fill="#0D0E12" height="18" width="13"></rect>
<path fill="white" d="M3.132 14.18C2.452 14.18 1.916 14.052 1.524 13.796C1.14 13.54 0.864 13.184 0.696 12.728C0.536 12.264 0.456 11.732 0.456 11.132V10.784H2.46C2.46 10.792 2.46 10.836 2.46 10.916C2.46 10.996 2.46 11.068 2.46 11.132C2.46 11.452 2.48 11.712 2.52 11.912C2.56 12.112 2.632 12.26 2.736 12.356C2.84 12.444 2.984 12.488 3.168 12.488C3.352 12.488 3.488 12.44 3.576 12.344C3.672 12.248 3.736 12.104 3.768 11.912C3.8 11.72 3.816 11.48 3.816 11.192C3.816 10.712 3.748 10.348 3.612 10.1C3.484 9.844 3.212 9.712 2.796 9.704C2.788 9.704 2.744 9.704 2.664 9.704C2.584 9.704 2.504 9.704 2.424 9.704V8.324C2.48 8.324 2.536 8.324 2.592 8.324C2.648 8.324 2.7 8.324 2.748 8.324C3.172 8.324 3.456 8.208 3.6 7.976C3.744 7.744 3.816 7.384 3.816 6.896C3.816 6.52 3.764 6.232 3.66 6.032C3.564 5.832 3.38 5.732 3.108 5.732C2.844 5.732 2.668 5.844 2.58 6.068C2.5 6.292 2.46 6.58 2.46 6.932C2.46 7.012 2.46 7.096 2.46 7.184C2.46 7.264 2.46 7.348 2.46 7.436H0.456V6.848C0.456 6.264 0.56 5.772 0.768 5.372C0.984 4.964 1.288 4.656 1.68 4.448C2.08 4.24 2.556 4.136 3.108 4.136C3.668 4.136 4.148 4.236 4.548 4.436C4.948 4.636 5.256 4.932 5.472 5.324C5.688 5.708 5.796 6.188 5.796 6.764C5.796 7.332 5.68 7.808 5.448 8.192C5.216 8.576 4.936 8.812 4.608 8.9C4.832 8.98 5.032 9.108 5.208 9.284C5.392 9.46 5.536 9.7 5.64 10.004C5.744 10.3 5.796 10.68 5.796 11.144C5.796 11.736 5.708 12.26 5.532 12.716C5.364 13.172 5.084 13.532 4.692 13.796C4.3 14.052 3.78 14.18 3.132 14.18ZM9.22406 14.18C8.51206 14.18 7.97206 14.056 7.60406 13.808C7.24406 13.552 7.00006 13.196 6.87206 12.74C6.74406 12.284 6.68006 11.756 6.68006 11.156H8.61206C8.61206 11.524 8.63206 11.824 8.67206 12.056C8.71206 12.288 8.78406 12.456 8.88806 12.56C9.00006 12.656 9.15606 12.7 9.35606 12.692C9.56406 12.684 9.71206 12.6 9.80006 12.44C9.88806 12.28 9.94006 12.052 9.95606 11.756C9.98006 11.452 9.99206 11.088 9.99206 10.664C9.99206 10.344 9.97206 10.06 9.93206 9.812C9.90006 9.564 9.82806 9.368 9.71606 9.224C9.61206 9.072 9.45206 8.996 9.23606 8.996C9.03606 8.996 8.87206 9.068 8.74406 9.212C8.61606 9.356 8.52406 9.58 8.46806 9.884H6.74006L6.92006 4.28H11.4561V5.96H8.52806L8.42006 7.964C8.50006 7.852 8.65206 7.756 8.87606 7.676C9.10006 7.588 9.34006 7.532 9.59606 7.508C10.0921 7.452 10.5081 7.544 10.8441 7.784C11.1881 8.016 11.4441 8.372 11.6121 8.852C11.7881 9.332 11.8761 9.92 11.8761 10.616C11.8761 11.136 11.8441 11.616 11.7801 12.056C11.7161 12.488 11.5921 12.864 11.4081 13.184C11.2241 13.496 10.9561 13.74 10.6041 13.916C10.2521 14.092 9.79206 14.18 9.22406 14.18Z"></path>
</svg>
