<svg xmlns="http://www.w3.org/2000/svg" fill="none" viewBox="0 0 214 84" height="84" width="214">
<mask fill="white" id="path-1-inside-1_1435_73">
<path d="M0 0H214V84H0V0Z"></path>
</mask>
<path fill="#0D0E12" d="M0 0H214V84H0V0Z"></path>
<path mask="url(#path-1-inside-1_1435_73)" fill="white" d="M0 0V-1H-1V0H0ZM0 84H-1V85H0V84ZM0 1H214V-1H0V1ZM214 83H0V85H214V83ZM1 84V0H-1V84H1Z"></path>
<path fill="#FFF500" d="M16.756 38V28.28H18.904V32.216H20.404V28.28H22.564V38H20.404V33.752H18.904V38H16.756ZM24.0802 38V28.28H25.7722V33.848L28.2562 28.28H29.6482V38H27.9202V32.336L25.3882 38H24.0802ZM34.8063 38V34.004C34.4063 34.06 34.0143 34.088 33.6303 34.088C33.1663 34.088 32.7263 34 32.3103 33.824C31.9023 33.64 31.5703 33.376 31.3143 33.032C31.0583 32.68 30.9303 32.252 30.9303 31.748V28.28H33.0783V31.736C33.0783 31.936 33.0983 32.116 33.1383 32.276C33.1863 32.428 33.2903 32.548 33.4503 32.636C33.6183 32.724 33.8783 32.768 34.2303 32.768C34.3183 32.768 34.4103 32.764 34.5063 32.756C34.6023 32.748 34.7023 32.736 34.8063 32.72V28.28H36.9543V38H34.8063ZM38.4708 38V28.28H40.6188V32.384H41.0988C41.7068 32.384 42.2228 32.484 42.6468 32.684C43.0708 32.884 43.3948 33.192 43.6188 33.608C43.8428 34.016 43.9548 34.544 43.9548 35.192C43.9548 35.784 43.8748 36.264 43.7148 36.632C43.5628 37 43.3468 37.284 43.0668 37.484C42.7868 37.684 42.4588 37.82 42.0828 37.892C41.7148 37.964 41.3188 38 40.8948 38H38.4708ZM40.6188 36.596H40.9068C41.1788 36.596 41.3908 36.544 41.5428 36.44C41.7028 36.336 41.8148 36.176 41.8788 35.96C41.9508 35.744 41.9828 35.472 41.9748 35.144C41.9668 34.784 41.8908 34.484 41.7468 34.244C41.6108 33.996 41.3228 33.872 40.8828 33.872H40.6188V36.596ZM44.5028 38L46.3508 33.68C45.9828 33.456 45.6788 33.128 45.4388 32.696C45.2068 32.264 45.0908 31.76 45.0908 31.184C45.0908 30.432 45.2228 29.848 45.4868 29.432C45.7508 29.008 46.1268 28.712 46.6148 28.544C47.1108 28.368 47.7028 28.28 48.3908 28.28H50.8868V38H48.7508V34.16H48.3668C48.3588 34.16 48.3388 34.16 48.3068 34.16C48.2748 34.16 48.2508 34.16 48.2348 34.16L46.8188 38H44.5028ZM48.4388 32.648H48.7508V29.756H48.4148C47.9748 29.756 47.6428 29.88 47.4188 30.128C47.2028 30.368 47.0948 30.724 47.0948 31.196C47.0948 31.612 47.1908 31.96 47.3828 32.24C47.5748 32.512 47.9268 32.648 48.4388 32.648Z"></path>
<path fill="white" d="M16.63 56V47.9H17.76V51.4H19.84V47.9H20.97V56H19.84V52.21H17.76V56H16.63ZM22.1455 56V50.22H23.0455V54.11L24.7855 50.22H25.6255V56H24.7455V52.08L23.0155 56H22.1455ZM28.8858 56V53.71C28.7591 53.7233 28.6324 53.7367 28.5058 53.75C28.3791 53.7633 28.2491 53.77 28.1158 53.77C27.8291 53.77 27.5658 53.73 27.3258 53.65C27.0858 53.57 26.8958 53.4267 26.7558 53.22C26.6158 53.0067 26.5458 52.71 26.5458 52.33V50.22H27.6158V52.34C27.6158 52.5467 27.6624 52.71 27.7558 52.83C27.8558 52.95 28.0591 53.01 28.3658 53.01C28.4458 53.01 28.5291 53.0067 28.6158 53C28.7024 52.9867 28.7924 52.9733 28.8858 52.96V50.22H29.9558V56H28.8858ZM31.042 56V50.22H32.112V52.61C32.1253 52.61 32.142 52.61 32.162 52.61C32.1886 52.61 32.212 52.61 32.232 52.61C32.252 52.61 32.2686 52.61 32.282 52.61C32.6753 52.6167 33.0086 52.6467 33.282 52.7C33.562 52.7467 33.7886 52.8333 33.962 52.96C34.1353 53.08 34.262 53.25 34.342 53.47C34.422 53.6833 34.462 53.96 34.462 54.3C34.462 54.6133 34.422 54.88 34.342 55.1C34.262 55.3133 34.132 55.4867 33.952 55.62C33.772 55.7533 33.5353 55.85 33.242 55.91C32.9486 55.97 32.592 56 32.172 56H31.042ZM32.112 55.37H32.172C32.512 55.37 32.7786 55.34 32.972 55.28C33.1653 55.22 33.302 55.1133 33.382 54.96C33.462 54.8 33.502 54.5767 33.502 54.29C33.502 54.03 33.4653 53.8267 33.392 53.68C33.3253 53.5267 33.1986 53.4167 33.012 53.35C32.832 53.2767 32.5686 53.24 32.222 53.24C32.2153 53.24 32.1986 53.24 32.172 53.24C32.1453 53.24 32.1253 53.24 32.112 53.24V55.37ZM34.7523 56L35.8423 53.55C35.6557 53.4767 35.5023 53.3667 35.3823 53.22C35.269 53.0733 35.1857 52.8933 35.1323 52.68C35.079 52.4667 35.0523 52.2267 35.0523 51.96C35.0523 51.6533 35.0923 51.39 35.1723 51.17C35.2523 50.95 35.379 50.77 35.5523 50.63C35.7257 50.49 35.9557 50.3867 36.2423 50.32C36.529 50.2533 36.8823 50.22 37.3023 50.22H38.4223V56H37.3623V53.72C37.2557 53.72 37.1657 53.72 37.0923 53.72C37.019 53.7133 36.939 53.7067 36.8523 53.7L35.9023 56H34.7523ZM37.2423 53.1C37.2557 53.1 37.2757 53.1 37.3023 53.1C37.3357 53.1 37.3557 53.1 37.3623 53.1V50.83C37.3557 50.83 37.3357 50.83 37.3023 50.83C37.2757 50.83 37.259 50.83 37.2523 50.83C36.939 50.83 36.689 50.87 36.5023 50.95C36.3223 51.0233 36.1957 51.1433 36.1223 51.31C36.049 51.47 36.0123 51.6867 36.0123 51.96C36.0123 52.34 36.0957 52.6233 36.2623 52.81C36.4357 52.9967 36.7623 53.0933 37.2423 53.1ZM41.7939 56V50.22H45.1539V56H44.0839V51.03H42.8639V56H41.7939ZM47.8273 56.08C47.4006 56.08 47.0639 55.9933 46.8173 55.82C46.5706 55.6467 46.3939 55.4 46.2873 55.08C46.1873 54.76 46.1373 54.3833 46.1373 53.95V52.27C46.1373 51.8367 46.1873 51.46 46.2873 51.14C46.3939 50.82 46.5706 50.5733 46.8173 50.4C47.0639 50.2267 47.4006 50.14 47.8273 50.14C48.2539 50.14 48.5873 50.2267 48.8273 50.4C49.0739 50.5733 49.2473 50.82 49.3473 51.14C49.4539 51.46 49.5073 51.8367 49.5073 52.27V53.95C49.5073 54.3833 49.4539 54.76 49.3473 55.08C49.2473 55.4 49.0739 55.6467 48.8273 55.82C48.5873 55.9933 48.2539 56.08 47.8273 56.08ZM47.8273 55.29C48.0339 55.29 48.1773 55.23 48.2573 55.11C48.3439 54.99 48.3939 54.8333 48.4073 54.64C48.4273 54.44 48.4373 54.2333 48.4373 54.02V52.21C48.4373 51.99 48.4273 51.7833 48.4073 51.59C48.3939 51.3967 48.3439 51.24 48.2573 51.12C48.1773 50.9933 48.0339 50.93 47.8273 50.93C47.6206 50.93 47.4739 50.9933 47.3873 51.12C47.3006 51.24 47.2473 51.3967 47.2273 51.59C47.2139 51.7833 47.2073 51.99 47.2073 52.21V54.02C47.2073 54.2333 47.2139 54.44 47.2273 54.64C47.2473 54.8333 47.3006 54.99 47.3873 55.11C47.4739 55.23 47.6206 55.29 47.8273 55.29ZM52.7705 56V50.22H56.1305V56H55.0605V51.03H53.8405V56H52.7705ZM57.2138 57.9V50.22H58.2838V50.68C58.4105 50.5333 58.5638 50.4067 58.7438 50.3C58.9238 50.1933 59.1372 50.14 59.3838 50.14C59.6838 50.14 59.9205 50.22 60.0938 50.38C60.2738 50.5333 60.4072 50.73 60.4938 50.97C60.5805 51.2033 60.6372 51.4433 60.6638 51.69C60.6905 51.93 60.7038 52.1367 60.7038 52.31V53.71C60.7038 54.1167 60.6638 54.5033 60.5838 54.87C60.5038 55.23 60.3572 55.5233 60.1438 55.75C59.9372 55.97 59.6438 56.08 59.2638 56.08C59.0572 56.08 58.8738 56.03 58.7138 55.93C58.5538 55.8233 58.4105 55.7033 58.2838 55.57V57.9H57.2138ZM59.0538 55.24C59.2405 55.24 59.3738 55.1733 59.4538 55.04C59.5338 54.9 59.5838 54.7133 59.6038 54.48C59.6238 54.2467 59.6338 53.99 59.6338 53.71V52.31C59.6338 52.07 59.6205 51.85 59.5938 51.65C59.5672 51.4433 59.5105 51.28 59.4238 51.16C59.3372 51.04 59.2005 50.98 59.0138 50.98C58.8738 50.98 58.7405 51.01 58.6138 51.07C58.4872 51.13 58.3772 51.2 58.2838 51.28V54.98C58.3838 55.0533 58.4972 55.1167 58.6238 55.17C58.7505 55.2167 58.8938 55.24 59.0538 55.24ZM62.7167 56.08C62.4901 56.08 62.2901 56.0167 62.1167 55.89C61.9434 55.7567 61.8067 55.59 61.7067 55.39C61.6067 55.1833 61.5567 54.9667 61.5567 54.74C61.5567 54.38 61.6167 54.0767 61.7367 53.83C61.8567 53.5833 62.0201 53.3767 62.2267 53.21C62.4401 53.0367 62.6834 52.8867 62.9567 52.76C63.2367 52.6333 63.5301 52.51 63.8367 52.39V51.98C63.8367 51.7467 63.8234 51.5533 63.7967 51.4C63.7701 51.2467 63.7134 51.1333 63.6267 51.06C63.5467 50.98 63.4234 50.94 63.2567 50.94C63.1101 50.94 62.9901 50.9733 62.8967 51.04C62.8101 51.1067 62.7467 51.2033 62.7067 51.33C62.6667 51.45 62.6467 51.5933 62.6467 51.76V52.05L61.5867 52.01C61.6001 51.37 61.7467 50.9 62.0267 50.6C62.3067 50.2933 62.7401 50.14 63.3267 50.14C63.9001 50.14 64.3067 50.2967 64.5467 50.61C64.7867 50.9233 64.9067 51.3767 64.9067 51.97V54.61C64.9067 54.79 64.9101 54.9633 64.9167 55.13C64.9301 55.2967 64.9434 55.4533 64.9567 55.6C64.9767 55.74 64.9934 55.8733 65.0067 56H64.0267C64.0067 55.8933 63.9801 55.76 63.9467 55.6C63.9201 55.4333 63.9001 55.2833 63.8867 55.15C63.8201 55.3767 63.6901 55.59 63.4967 55.79C63.3101 55.9833 63.0501 56.08 62.7167 56.08ZM63.1367 55.16C63.2434 55.16 63.3434 55.13 63.4367 55.07C63.5301 55.01 63.6134 54.9433 63.6867 54.87C63.7601 54.79 63.8101 54.7267 63.8367 54.68V53.04C63.6701 53.1333 63.5134 53.2267 63.3667 53.32C63.2201 53.4133 63.0901 53.5133 62.9767 53.62C62.8701 53.72 62.7834 53.8367 62.7167 53.97C62.6567 54.0967 62.6267 54.2433 62.6267 54.41C62.6267 54.6433 62.6701 54.8267 62.7567 54.96C62.8434 55.0933 62.9701 55.16 63.1367 55.16ZM65.9345 56V50.22H67.5545C67.9479 50.22 68.2545 50.2867 68.4745 50.42C68.7012 50.5467 68.8612 50.7167 68.9545 50.93C69.0545 51.1367 69.1079 51.36 69.1145 51.6C69.1212 51.8867 69.0745 52.1433 68.9745 52.37C68.8745 52.5967 68.6679 52.7567 68.3545 52.85C68.5945 52.8967 68.7779 52.9967 68.9045 53.15C69.0379 53.2967 69.1279 53.4733 69.1745 53.68C69.2279 53.8867 69.2545 54.1 69.2545 54.32C69.2545 54.6533 69.2045 54.9467 69.1045 55.2C69.0112 55.4533 68.8445 55.65 68.6045 55.79C68.3712 55.93 68.0379 56 67.6045 56H65.9345ZM66.9845 55.19H67.3645C67.5179 55.19 67.6579 55.17 67.7845 55.13C67.9112 55.0833 68.0112 54.9933 68.0845 54.86C68.1645 54.7267 68.2045 54.5333 68.2045 54.28C68.2045 53.98 68.1679 53.7633 68.0945 53.63C68.0279 53.49 67.9345 53.4033 67.8145 53.37C67.7012 53.3367 67.5679 53.32 67.4145 53.32H66.9845V55.19ZM66.9845 52.55H67.5045C67.7112 52.55 67.8745 52.49 67.9945 52.37C68.1145 52.25 68.1745 52.0367 68.1745 51.73C68.1745 51.4567 68.1045 51.2667 67.9645 51.16C67.8245 51.0533 67.6345 51 67.3945 51H66.9845V52.55ZM70.0849 56V50.22H70.9849V54.11L72.7249 50.22H73.5649V56H72.6849V52.08L70.9549 56H70.0849ZM74.2852 56.05V55.24C74.4852 55.24 74.6419 55.2 74.7552 55.12C74.8752 55.04 74.9652 54.9067 75.0252 54.72C75.0919 54.5267 75.1419 54.27 75.1752 53.95C75.2086 53.6233 75.2386 53.2167 75.2652 52.73L75.3952 50.22H78.4252V56H77.3552V51.03H76.3352L76.2452 52.73C76.2119 53.39 76.1619 53.9367 76.0952 54.37C76.0352 54.8033 75.9386 55.1433 75.8052 55.39C75.6719 55.63 75.4919 55.8 75.2652 55.9C75.0452 56 74.7586 56.05 74.4052 56.05H74.2852ZM79.4188 57.45V56.63C79.6788 56.63 79.8854 56.6167 80.0388 56.59C80.1921 56.57 80.3021 56.5267 80.3688 56.46C80.4354 56.4 80.4688 56.3133 80.4688 56.2C80.4688 56.14 80.4454 56.0067 80.3988 55.8C80.3521 55.5933 80.3021 55.3733 80.2488 55.14L79.0888 50.22H80.1688L80.9488 54.54L81.6988 50.22H82.7788L81.3988 56.32C81.3388 56.6 81.2288 56.82 81.0688 56.98C80.9088 57.1467 80.7021 57.2667 80.4488 57.34C80.2021 57.4133 79.9021 57.45 79.5488 57.45H79.4188ZM87.5999 56.08C87.1133 56.08 86.7266 55.9867 86.4399 55.8C86.1533 55.6133 85.9466 55.3433 85.8199 54.99C85.6999 54.6367 85.6399 54.2167 85.6399 53.73H86.7099C86.7099 53.97 86.7299 54.2067 86.7699 54.44C86.8099 54.6667 86.8933 54.8567 87.0199 55.01C87.1533 55.1567 87.3533 55.23 87.6199 55.23C87.9133 55.23 88.1233 55.1467 88.2499 54.98C88.3766 54.8067 88.4566 54.5767 88.4899 54.29C88.5233 53.9967 88.5399 53.6667 88.5399 53.3C88.5399 52.9333 88.5199 52.6233 88.4799 52.37C88.4399 52.11 88.3566 51.9133 88.2299 51.78C88.1033 51.64 87.9033 51.57 87.6299 51.57C87.4099 51.57 87.2233 51.64 87.0699 51.78C86.9166 51.9133 86.8033 52.0667 86.7299 52.24H85.8199V47.9H89.3099V48.97H86.7899L86.7199 51.21C86.8533 51.07 87.0166 50.96 87.2099 50.88C87.4099 50.8 87.6366 50.76 87.8899 50.76C88.3299 50.76 88.6733 50.8633 88.9199 51.07C89.1733 51.2767 89.3499 51.56 89.4499 51.92C89.5566 52.28 89.6099 52.6933 89.6099 53.16C89.6099 53.5733 89.5799 53.96 89.5199 54.32C89.4599 54.6733 89.3533 54.9833 89.1999 55.25C89.0533 55.51 88.8499 55.7133 88.5899 55.86C88.3299 56.0067 87.9999 56.08 87.5999 56.08ZM92.5158 56.09C92.0558 56.09 91.6758 55.9867 91.3758 55.78C91.0824 55.5733 90.8624 55.29 90.7158 54.93C90.5758 54.57 90.5058 54.16 90.5058 53.7V50.21C90.5058 49.7367 90.5758 49.3233 90.7158 48.97C90.8558 48.61 91.0724 48.33 91.3658 48.13C91.6658 47.93 92.0491 47.83 92.5158 47.83C92.9824 47.83 93.3624 47.93 93.6558 48.13C93.9491 48.33 94.1658 48.61 94.3058 48.97C94.4458 49.3233 94.5158 49.7367 94.5158 50.21V53.7C94.5158 54.1667 94.4424 54.58 94.2958 54.94C94.1558 55.3 93.9391 55.5833 93.6458 55.79C93.3524 55.99 92.9758 56.09 92.5158 56.09ZM92.5158 55.21C92.7691 55.21 92.9591 55.1367 93.0858 54.99C93.2191 54.8433 93.3091 54.6567 93.3558 54.43C93.4091 54.1967 93.4358 53.9567 93.4358 53.71V50.2C93.4358 49.94 93.4124 49.6967 93.3658 49.47C93.3191 49.2367 93.2291 49.05 93.0958 48.91C92.9691 48.77 92.7758 48.7 92.5158 48.7C92.2558 48.7 92.0591 48.77 91.9258 48.91C91.7924 49.05 91.7024 49.2367 91.6558 49.47C91.6091 49.6967 91.5858 49.94 91.5858 50.2V53.71C91.5858 53.9567 91.6091 54.1967 91.6558 54.43C91.7091 54.6567 91.8024 54.8433 91.9358 54.99C92.0758 55.1367 92.2691 55.21 92.5158 55.21ZM97.467 56L98.767 52.96L97.497 50.22H98.517L99.367 52.05L100.117 50.22H101.167L99.847 53.09L101.187 56H100.167L99.257 54.04L98.477 56H97.467ZM103.394 56.08C102.967 56.08 102.63 55.9933 102.384 55.82C102.137 55.6467 101.96 55.4 101.854 55.08C101.754 54.76 101.704 54.3833 101.704 53.95V52.27C101.704 51.8367 101.754 51.46 101.854 51.14C101.96 50.82 102.137 50.5733 102.384 50.4C102.63 50.2267 102.967 50.14 103.394 50.14C103.82 50.14 104.154 50.2267 104.394 50.4C104.64 50.5733 104.814 50.82 104.914 51.14C105.02 51.46 105.074 51.8367 105.074 52.27V53.95C105.074 54.3833 105.02 54.76 104.914 55.08C104.814 55.4 104.64 55.6467 104.394 55.82C104.154 55.9933 103.82 56.08 103.394 56.08ZM103.394 55.29C103.6 55.29 103.744 55.23 103.824 55.11C103.91 54.99 103.96 54.8333 103.974 54.64C103.994 54.44 104.004 54.2333 104.004 54.02V52.21C104.004 51.99 103.994 51.7833 103.974 51.59C103.96 51.3967 103.91 51.24 103.824 51.12C103.744 50.9933 103.6 50.93 103.394 50.93C103.187 50.93 103.04 50.9933 102.954 51.12C102.867 51.24 102.814 51.3967 102.794 51.59C102.78 51.7833 102.774 51.99 102.774 52.21V54.02C102.774 54.2333 102.78 54.44 102.794 54.64C102.814 54.8333 102.867 54.99 102.954 55.11C103.04 55.23 103.187 55.29 103.394 55.29ZM105.532 57.47V55.29C105.732 55.1367 105.915 54.9533 106.082 54.74C106.248 54.5267 106.395 54.2567 106.522 53.93C106.648 53.6033 106.748 53.2 106.822 52.72C106.895 52.24 106.935 51.66 106.942 50.98L106.962 50.22H109.572V55.24H110.272V57.47H109.492L109.402 56H106.402L106.312 57.47H105.532ZM106.572 55.24H108.542V50.99H107.792L107.772 51.2C107.765 51.9067 107.728 52.4967 107.662 52.97C107.602 53.4367 107.515 53.82 107.402 54.12C107.295 54.4133 107.168 54.6467 107.022 54.82C106.882 54.9933 106.732 55.1333 106.572 55.24ZM112.466 56.08C112.039 56.08 111.703 55.9933 111.456 55.82C111.209 55.6467 111.033 55.4 110.926 55.08C110.826 54.76 110.776 54.3833 110.776 53.95V52.27C110.776 51.8367 110.826 51.46 110.926 51.14C111.033 50.82 111.209 50.5733 111.456 50.4C111.703 50.2267 112.039 50.14 112.466 50.14C112.893 50.14 113.226 50.2267 113.466 50.4C113.713 50.5733 113.886 50.82 113.986 51.14C114.093 51.46 114.146 51.8367 114.146 52.27V53.95C114.146 54.3833 114.093 54.76 113.986 55.08C113.886 55.4 113.713 55.6467 113.466 55.82C113.226 55.9933 112.893 56.08 112.466 56.08ZM112.466 55.29C112.673 55.29 112.816 55.23 112.896 55.11C112.983 54.99 113.033 54.8333 113.046 54.64C113.066 54.44 113.076 54.2333 113.076 54.02V52.21C113.076 51.99 113.066 51.7833 113.046 51.59C113.033 51.3967 112.983 51.24 112.896 51.12C112.816 50.9933 112.673 50.93 112.466 50.93C112.259 50.93 112.113 50.9933 112.026 51.12C111.939 51.24 111.886 51.3967 111.866 51.59C111.853 51.7833 111.846 51.99 111.846 52.21V54.02C111.846 54.2333 111.853 54.44 111.866 54.64C111.886 54.8333 111.939 54.99 112.026 55.11C112.113 55.23 112.259 55.29 112.466 55.29ZM115.124 56V50.22H116.744C117.137 50.22 117.444 50.2867 117.664 50.42C117.891 50.5467 118.051 50.7167 118.144 50.93C118.244 51.1367 118.297 51.36 118.304 51.6C118.311 51.8867 118.264 52.1433 118.164 52.37C118.064 52.5967 117.857 52.7567 117.544 52.85C117.784 52.8967 117.967 52.9967 118.094 53.15C118.227 53.2967 118.317 53.4733 118.364 53.68C118.417 53.8867 118.444 54.1 118.444 54.32C118.444 54.6533 118.394 54.9467 118.294 55.2C118.201 55.4533 118.034 55.65 117.794 55.79C117.561 55.93 117.227 56 116.794 56H115.124ZM116.174 55.19H116.554C116.707 55.19 116.847 55.17 116.974 55.13C117.101 55.0833 117.201 54.9933 117.274 54.86C117.354 54.7267 117.394 54.5333 117.394 54.28C117.394 53.98 117.357 53.7633 117.284 53.63C117.217 53.49 117.124 53.4033 117.004 53.37C116.891 53.3367 116.757 53.32 116.604 53.32H116.174V55.19ZM116.174 52.55H116.694C116.901 52.55 117.064 52.49 117.184 52.37C117.304 52.25 117.364 52.0367 117.364 51.73C117.364 51.4567 117.294 51.2667 117.154 51.16C117.014 51.0533 116.824 51 116.584 51H116.174V52.55Z"></path>
</svg>
