<svg xmlns="http://www.w3.org/2000/svg" fill="none" viewBox="0 0 214 84" height="84" width="214">
<mask fill="white" id="path-1-inside-1_1526_2">
<path d="M0 0H214V84H0V0Z"></path>
</mask>
<path fill="#0D0E12" d="M0 0H214V84H0V0Z"></path>
<path mask="url(#path-1-inside-1_1526_2)" fill="white" d="M0 0V-1H-1V0H0ZM0 84H-1V85H0V84ZM0 1H214V-1H0V1ZM214 83H0V85H214V83ZM1 84V0H-1V84H1Z"></path>
<path fill="#05FF00" d="M17.5 38L16.324 28.28H18.148L18.724 33.944L19.456 28.292H20.884L21.652 33.908L22.24 28.28H24.04L22.876 38H21.004L20.176 32.132L19.396 38H17.5ZM25.0872 38V28.28H29.4552V29.744H27.2352V32.156H28.9272V33.644H27.2352V36.548H29.4792V38H25.0872ZM30.4544 38V28.28H32.6024V36.548H34.8344V38H30.4544ZM38.4063 38.144C37.6703 38.144 37.0863 38.012 36.6543 37.748C36.2303 37.476 35.9303 37.1 35.7543 36.62C35.5783 36.132 35.4903 35.56 35.4903 34.904V31.4C35.4903 30.728 35.5783 30.152 35.7543 29.672C35.9303 29.184 36.2303 28.808 36.6543 28.544C37.0863 28.28 37.6703 28.148 38.4063 28.148C39.1263 28.148 39.6863 28.268 40.0863 28.508C40.4943 28.74 40.7823 29.068 40.9503 29.492C41.1183 29.916 41.2023 30.404 41.2023 30.956V31.796H39.1023V30.824C39.1023 30.632 39.0903 30.448 39.0663 30.272C39.0503 30.096 38.9943 29.952 38.8983 29.84C38.8023 29.72 38.6383 29.66 38.4063 29.66C38.1823 29.66 38.0143 29.72 37.9023 29.84C37.7983 29.96 37.7303 30.112 37.6983 30.296C37.6743 30.472 37.6623 30.66 37.6623 30.86V35.432C37.6623 35.648 37.6783 35.848 37.7103 36.032C37.7503 36.208 37.8223 36.352 37.9263 36.464C38.0383 36.568 38.1983 36.62 38.4063 36.62C38.6303 36.62 38.7903 36.564 38.8863 36.452C38.9823 36.332 39.0423 36.18 39.0663 35.996C39.0903 35.812 39.1023 35.624 39.1023 35.432V34.412H41.2023V35.252C41.2023 35.804 41.1183 36.3 40.9503 36.74C40.7903 37.172 40.5063 37.516 40.0983 37.772C39.6983 38.02 39.1343 38.144 38.4063 38.144ZM45.1681 38.144C44.4401 38.144 43.8641 38.016 43.4401 37.76C43.0161 37.504 42.7121 37.136 42.5281 36.656C42.3441 36.176 42.2521 35.604 42.2521 34.94V31.328C42.2521 30.656 42.3441 30.084 42.5281 29.612C42.7121 29.14 43.0161 28.78 43.4401 28.532C43.8641 28.276 44.4401 28.148 45.1681 28.148C45.9041 28.148 46.4841 28.276 46.9081 28.532C47.3401 28.78 47.6481 29.14 47.8321 29.612C48.0161 30.084 48.1081 30.656 48.1081 31.328V34.94C48.1081 35.604 48.0161 36.176 47.8321 36.656C47.6481 37.136 47.3401 37.504 46.9081 37.76C46.4841 38.016 45.9041 38.144 45.1681 38.144ZM45.1681 36.62C45.3921 36.62 45.5561 36.564 45.6601 36.452C45.7641 36.34 45.8321 36.196 45.8641 36.02C45.8961 35.844 45.9121 35.664 45.9121 35.48V30.8C45.9121 30.608 45.8961 30.428 45.8641 30.26C45.8321 30.084 45.7641 29.94 45.6601 29.828C45.5561 29.716 45.3921 29.66 45.1681 29.66C44.9601 29.66 44.8041 29.716 44.7001 29.828C44.5961 29.94 44.5281 30.084 44.4961 30.26C44.4641 30.428 44.4481 30.608 44.4481 30.8V35.48C44.4481 35.664 44.4601 35.844 44.4841 36.02C44.5161 36.196 44.5801 36.34 44.6761 36.452C44.7801 36.564 44.9441 36.62 45.1681 36.62ZM49.3793 38L49.5473 28.28H51.8513L52.9193 33.932L54.0713 28.28H56.2913L56.4593 38H54.9353L54.7553 31.532L53.6273 38H52.2713L51.0713 31.484L50.9273 38H49.3793ZM57.8645 38V28.28H62.2325V29.744H60.0125V32.156H61.7045V33.644H60.0125V36.548H62.2565V38H57.8645ZM63.6637 35.528L63.0997 28.304H65.0437L64.3357 35.528H63.6637ZM63.0637 38V36.176H64.9117V38H63.0637Z"></path>
<path fill="white" d="M17.87 56V53.14L16.12 47.9H17.17L18.41 51.81L19.63 47.9H20.69L18.95 53.14V56H17.87ZM22.7491 56.08C22.3225 56.08 21.9858 55.9933 21.7391 55.82C21.4925 55.6467 21.3158 55.4 21.2091 55.08C21.1091 54.76 21.0591 54.3833 21.0591 53.95V52.27C21.0591 51.8367 21.1091 51.46 21.2091 51.14C21.3158 50.82 21.4925 50.5733 21.7391 50.4C21.9858 50.2267 22.3225 50.14 22.7491 50.14C23.1758 50.14 23.5091 50.2267 23.7491 50.4C23.9958 50.5733 24.1691 50.82 24.2691 51.14C24.3758 51.46 24.4291 51.8367 24.4291 52.27V53.95C24.4291 54.3833 24.3758 54.76 24.2691 55.08C24.1691 55.4 23.9958 55.6467 23.7491 55.82C23.5091 55.9933 23.1758 56.08 22.7491 56.08ZM22.7491 55.29C22.9558 55.29 23.0991 55.23 23.1791 55.11C23.2658 54.99 23.3158 54.8333 23.3291 54.64C23.3491 54.44 23.3591 54.2333 23.3591 54.02V52.21C23.3591 51.99 23.3491 51.7833 23.3291 51.59C23.3158 51.3967 23.2658 51.24 23.1791 51.12C23.0991 50.9933 22.9558 50.93 22.7491 50.93C22.5425 50.93 22.3958 50.9933 22.3091 51.12C22.2225 51.24 22.1691 51.3967 22.1491 51.59C22.1358 51.7833 22.1291 51.99 22.1291 52.21V54.02C22.1291 54.2333 22.1358 54.44 22.1491 54.64C22.1691 54.8333 22.2225 54.99 22.3091 55.11C22.3958 55.23 22.5425 55.29 22.7491 55.29ZM26.2372 56.08C26.0105 56.08 25.8339 56.02 25.7072 55.9C25.5805 55.78 25.4905 55.63 25.4372 55.45C25.3905 55.27 25.3672 55.0867 25.3672 54.9V50.22H26.4372V54.58C26.4372 54.7867 26.4672 54.95 26.5272 55.07C26.5872 55.1833 26.7105 55.24 26.8972 55.24C27.0172 55.24 27.1405 55.2067 27.2672 55.14C27.4005 55.0667 27.5272 54.98 27.6472 54.88V50.22H28.7172V56H27.6472V55.43C27.4605 55.61 27.2472 55.7633 27.0072 55.89C26.7739 56.0167 26.5172 56.08 26.2372 56.08ZM32.1266 56V47.9H33.1966V50.82C33.39 50.6333 33.6066 50.4733 33.8466 50.34C34.0866 50.2067 34.3533 50.14 34.6466 50.14C34.8733 50.14 35.0466 50.2 35.1666 50.32C35.2933 50.44 35.38 50.59 35.4266 50.77C35.48 50.95 35.5066 51.1333 35.5066 51.32V56H34.4366V51.63C34.4366 51.4233 34.4066 51.2633 34.3466 51.15C34.2866 51.0367 34.1633 50.98 33.9766 50.98C33.85 50.98 33.7166 51.0167 33.5766 51.09C33.4433 51.1633 33.3166 51.2533 33.1966 51.36V56H32.1266ZM37.5898 56.08C37.3631 56.08 37.1631 56.0167 36.9898 55.89C36.8164 55.7567 36.6798 55.59 36.5798 55.39C36.4798 55.1833 36.4298 54.9667 36.4298 54.74C36.4298 54.38 36.4898 54.0767 36.6098 53.83C36.7298 53.5833 36.8931 53.3767 37.0998 53.21C37.3131 53.0367 37.5564 52.8867 37.8298 52.76C38.1098 52.6333 38.4031 52.51 38.7098 52.39V51.98C38.7098 51.7467 38.6964 51.5533 38.6698 51.4C38.6431 51.2467 38.5864 51.1333 38.4998 51.06C38.4198 50.98 38.2964 50.94 38.1298 50.94C37.9831 50.94 37.8631 50.9733 37.7698 51.04C37.6831 51.1067 37.6198 51.2033 37.5798 51.33C37.5398 51.45 37.5198 51.5933 37.5198 51.76V52.05L36.4598 52.01C36.4731 51.37 36.6198 50.9 36.8998 50.6C37.1798 50.2933 37.6131 50.14 38.1998 50.14C38.7731 50.14 39.1798 50.2967 39.4198 50.61C39.6598 50.9233 39.7798 51.3767 39.7798 51.97V54.61C39.7798 54.79 39.7831 54.9633 39.7898 55.13C39.8031 55.2967 39.8164 55.4533 39.8298 55.6C39.8498 55.74 39.8664 55.8733 39.8798 56H38.8998C38.8798 55.8933 38.8531 55.76 38.8198 55.6C38.7931 55.4333 38.7731 55.2833 38.7598 55.15C38.6931 55.3767 38.5631 55.59 38.3698 55.79C38.1831 55.9833 37.9231 56.08 37.5898 56.08ZM38.0098 55.16C38.1164 55.16 38.2164 55.13 38.3098 55.07C38.4031 55.01 38.4864 54.9433 38.5598 54.87C38.6331 54.79 38.6831 54.7267 38.7098 54.68V53.04C38.5431 53.1333 38.3864 53.2267 38.2398 53.32C38.0931 53.4133 37.9631 53.5133 37.8498 53.62C37.7431 53.72 37.6564 53.8367 37.5898 53.97C37.5298 54.0967 37.4998 54.2433 37.4998 54.41C37.4998 54.6433 37.5431 54.8267 37.6298 54.96C37.7164 55.0933 37.8431 55.16 38.0098 55.16ZM41.5576 56L40.4176 50.22H41.4976L42.2076 54.87L42.9276 50.22H43.9676L42.8676 56H41.5576ZM46.2552 56.08C45.8019 56.08 45.4519 55.9933 45.2052 55.82C44.9586 55.64 44.7852 55.38 44.6852 55.04C44.5919 54.6933 44.5452 54.27 44.5452 53.77V52.45C44.5452 51.9367 44.5952 51.51 44.6952 51.17C44.7952 50.83 44.9686 50.5733 45.2152 50.4C45.4686 50.2267 45.8152 50.14 46.2552 50.14C46.7419 50.14 47.0986 50.24 47.3252 50.44C47.5586 50.64 47.7119 50.93 47.7852 51.31C47.8586 51.6833 47.8952 52.1333 47.8952 52.66V53.13H45.6152V54.29C45.6152 54.5233 45.6352 54.7133 45.6752 54.86C45.7219 55.0067 45.7919 55.1167 45.8852 55.19C45.9852 55.2567 46.1119 55.29 46.2652 55.29C46.4252 55.29 46.5452 55.2533 46.6252 55.18C46.7119 55.1 46.7686 54.99 46.7952 54.85C46.8286 54.7033 46.8452 54.5333 46.8452 54.34V53.99H47.8852V54.21C47.8852 54.79 47.7619 55.2467 47.5152 55.58C47.2686 55.9133 46.8486 56.08 46.2552 56.08ZM45.6152 52.55H46.8452V52.03C46.8452 51.79 46.8319 51.59 46.8052 51.43C46.7786 51.2633 46.7219 51.14 46.6352 51.06C46.5552 50.9733 46.4252 50.93 46.2452 50.93C46.0719 50.93 45.9386 50.97 45.8452 51.05C45.7586 51.13 45.6986 51.2667 45.6652 51.46C45.6319 51.6467 45.6152 51.9067 45.6152 52.24V52.55ZM52.4894 56.08C52.016 56.08 51.636 55.9333 51.3494 55.64C51.0627 55.34 50.8994 54.9467 50.8594 54.46L51.7494 54.19C51.8027 54.5567 51.8927 54.8333 52.0194 55.02C52.146 55.2 52.3327 55.29 52.5794 55.29C52.7727 55.29 52.9194 55.2367 53.0194 55.13C53.1194 55.0167 53.1694 54.8667 53.1694 54.68C53.1694 54.5133 53.1327 54.3633 53.0594 54.23C52.986 54.0967 52.866 53.96 52.6994 53.82L51.7094 52.97C51.5094 52.7967 51.3394 52.6033 51.1994 52.39C51.066 52.1767 50.9994 51.9 50.9994 51.56C50.9994 51.2533 51.0594 50.9967 51.1794 50.79C51.306 50.5767 51.4794 50.4167 51.6994 50.31C51.926 50.1967 52.1894 50.14 52.4894 50.14C52.9494 50.14 53.2994 50.29 53.5394 50.59C53.786 50.8833 53.926 51.24 53.9594 51.66L53.2394 51.93C53.2127 51.73 53.1727 51.5567 53.1194 51.41C53.066 51.2567 52.9927 51.14 52.8994 51.06C52.806 50.9733 52.6827 50.93 52.5294 50.93C52.356 50.93 52.216 50.99 52.1094 51.11C52.0094 51.2233 51.9594 51.36 51.9594 51.52C51.9594 51.62 51.9794 51.72 52.0194 51.82C52.066 51.9133 52.1427 52.0067 52.2494 52.1L53.2694 53.04C53.4094 53.1667 53.5394 53.3033 53.6594 53.45C53.786 53.5967 53.8894 53.7633 53.9694 53.95C54.0494 54.1367 54.0894 54.3533 54.0894 54.6C54.0894 54.9267 54.0227 55.2 53.8894 55.42C53.756 55.64 53.5694 55.8067 53.3294 55.92C53.0894 56.0267 52.8094 56.08 52.4894 56.08ZM55.7196 56.08C55.4929 56.08 55.3163 56.02 55.1896 55.9C55.0629 55.78 54.9729 55.63 54.9196 55.45C54.8729 55.27 54.8496 55.0867 54.8496 54.9V50.22H55.9196V54.58C55.9196 54.7867 55.9496 54.95 56.0096 55.07C56.0696 55.1833 56.1929 55.24 56.3796 55.24C56.4996 55.24 56.6229 55.2067 56.7496 55.14C56.8829 55.0667 57.0096 54.98 57.1296 54.88V50.22H58.1996V56H57.1296V55.43C56.9429 55.61 56.7296 55.7633 56.4896 55.89C56.2563 56.0167 55.9996 56.08 55.7196 56.08ZM60.8739 56.08C60.4006 56.08 60.0406 55.9867 59.7939 55.8C59.5539 55.6067 59.3906 55.3367 59.3039 54.99C59.2239 54.6433 59.1839 54.24 59.1839 53.78V52.45C59.1839 51.9633 59.2272 51.55 59.3139 51.21C59.4006 50.8633 59.5639 50.6 59.8039 50.42C60.0506 50.2333 60.4072 50.14 60.8739 50.14C61.2939 50.14 61.6172 50.21 61.8439 50.35C62.0772 50.4833 62.2372 50.6867 62.3239 50.96C62.4106 51.2267 62.4539 51.56 62.4539 51.96V52.3H61.4839V51.95C61.4839 51.6967 61.4672 51.4967 61.4339 51.35C61.4006 51.2033 61.3406 51.0967 61.2539 51.03C61.1672 50.9633 61.0439 50.93 60.8839 50.93C60.7106 50.93 60.5772 50.97 60.4839 51.05C60.3906 51.13 60.3272 51.2667 60.2939 51.46C60.2672 51.6467 60.2539 51.9033 60.2539 52.23V54.05C60.2539 54.5433 60.3006 54.8733 60.3939 55.04C60.4872 55.2067 60.6539 55.29 60.8939 55.29C61.0739 55.29 61.2039 55.25 61.2839 55.17C61.3706 55.0833 61.4239 54.9633 61.4439 54.81C61.4706 54.6567 61.4839 54.4833 61.4839 54.29V53.82H62.4539V54.22C62.4539 54.6067 62.4072 54.94 62.3139 55.22C62.2272 55.5 62.0672 55.7133 61.8339 55.86C61.6072 56.0067 61.2872 56.08 60.8739 56.08ZM64.9852 56.08C64.5119 56.08 64.1519 55.9867 63.9052 55.8C63.6652 55.6067 63.5019 55.3367 63.4152 54.99C63.3352 54.6433 63.2952 54.24 63.2952 53.78V52.45C63.2952 51.9633 63.3386 51.55 63.4252 51.21C63.5119 50.8633 63.6752 50.6 63.9152 50.42C64.1619 50.2333 64.5186 50.14 64.9852 50.14C65.4052 50.14 65.7286 50.21 65.9552 50.35C66.1886 50.4833 66.3486 50.6867 66.4352 50.96C66.5219 51.2267 66.5652 51.56 66.5652 51.96V52.3H65.5952V51.95C65.5952 51.6967 65.5786 51.4967 65.5452 51.35C65.5119 51.2033 65.4519 51.0967 65.3652 51.03C65.2786 50.9633 65.1552 50.93 64.9952 50.93C64.8219 50.93 64.6886 50.97 64.5952 51.05C64.5019 51.13 64.4386 51.2667 64.4052 51.46C64.3786 51.6467 64.3652 51.9033 64.3652 52.23V54.05C64.3652 54.5433 64.4119 54.8733 64.5052 55.04C64.5986 55.2067 64.7652 55.29 65.0052 55.29C65.1852 55.29 65.3152 55.25 65.3952 55.17C65.4819 55.0833 65.5352 54.9633 65.5552 54.81C65.5819 54.6567 65.5952 54.4833 65.5952 54.29V53.82H66.5652V54.22C66.5652 54.6067 66.5186 54.94 66.4252 55.22C66.3386 55.5 66.1786 55.7133 65.9452 55.86C65.7186 56.0067 65.3986 56.08 64.9852 56.08ZM69.1166 56.08C68.6632 56.08 68.3132 55.9933 68.0666 55.82C67.8199 55.64 67.6466 55.38 67.5466 55.04C67.4532 54.6933 67.4066 54.27 67.4066 53.77V52.45C67.4066 51.9367 67.4566 51.51 67.5566 51.17C67.6566 50.83 67.8299 50.5733 68.0766 50.4C68.3299 50.2267 68.6766 50.14 69.1166 50.14C69.6032 50.14 69.9599 50.24 70.1866 50.44C70.4199 50.64 70.5732 50.93 70.6466 51.31C70.7199 51.6833 70.7566 52.1333 70.7566 52.66V53.13H68.4766V54.29C68.4766 54.5233 68.4966 54.7133 68.5366 54.86C68.5832 55.0067 68.6532 55.1167 68.7466 55.19C68.8466 55.2567 68.9732 55.29 69.1266 55.29C69.2866 55.29 69.4066 55.2533 69.4866 55.18C69.5732 55.1 69.6299 54.99 69.6566 54.85C69.6899 54.7033 69.7066 54.5333 69.7066 54.34V53.99H70.7466V54.21C70.7466 54.79 70.6232 55.2467 70.3766 55.58C70.1299 55.9133 69.7099 56.08 69.1166 56.08ZM68.4766 52.55H69.7066V52.03C69.7066 51.79 69.6932 51.59 69.6666 51.43C69.6399 51.2633 69.5832 51.14 69.4966 51.06C69.4166 50.9733 69.2866 50.93 69.1066 50.93C68.9332 50.93 68.7999 50.97 68.7066 51.05C68.6199 51.13 68.5599 51.2667 68.5266 51.46C68.4932 51.6467 68.4766 51.9067 68.4766 52.24V52.55ZM73.0655 56.08C72.5922 56.08 72.2122 55.9333 71.9255 55.64C71.6389 55.34 71.4755 54.9467 71.4355 54.46L72.3255 54.19C72.3789 54.5567 72.4689 54.8333 72.5955 55.02C72.7222 55.2 72.9089 55.29 73.1555 55.29C73.3489 55.29 73.4955 55.2367 73.5955 55.13C73.6955 55.0167 73.7455 54.8667 73.7455 54.68C73.7455 54.5133 73.7089 54.3633 73.6355 54.23C73.5622 54.0967 73.4422 53.96 73.2755 53.82L72.2855 52.97C72.0855 52.7967 71.9155 52.6033 71.7755 52.39C71.6422 52.1767 71.5755 51.9 71.5755 51.56C71.5755 51.2533 71.6355 50.9967 71.7555 50.79C71.8822 50.5767 72.0555 50.4167 72.2755 50.31C72.5022 50.1967 72.7655 50.14 73.0655 50.14C73.5255 50.14 73.8755 50.29 74.1155 50.59C74.3622 50.8833 74.5022 51.24 74.5355 51.66L73.8155 51.93C73.7889 51.73 73.7489 51.5567 73.6955 51.41C73.6422 51.2567 73.5689 51.14 73.4755 51.06C73.3822 50.9733 73.2589 50.93 73.1055 50.93C72.9322 50.93 72.7922 50.99 72.6855 51.11C72.5855 51.2233 72.5355 51.36 72.5355 51.52C72.5355 51.62 72.5555 51.72 72.5955 51.82C72.6422 51.9133 72.7189 52.0067 72.8255 52.1L73.8455 53.04C73.9855 53.1667 74.1155 53.3033 74.2355 53.45C74.3622 53.5967 74.4655 53.7633 74.5455 53.95C74.6255 54.1367 74.6655 54.3533 74.6655 54.6C74.6655 54.9267 74.5989 55.2 74.4655 55.42C74.3322 55.64 74.1455 55.8067 73.9055 55.92C73.6655 56.0267 73.3855 56.08 73.0655 56.08ZM76.8058 56.08C76.3324 56.08 75.9524 55.9333 75.6658 55.64C75.3791 55.34 75.2158 54.9467 75.1758 54.46L76.0658 54.19C76.1191 54.5567 76.2091 54.8333 76.3358 55.02C76.4624 55.2 76.6491 55.29 76.8958 55.29C77.0891 55.29 77.2358 55.2367 77.3358 55.13C77.4358 55.0167 77.4858 54.8667 77.4858 54.68C77.4858 54.5133 77.4491 54.3633 77.3758 54.23C77.3024 54.0967 77.1824 53.96 77.0158 53.82L76.0258 52.97C75.8258 52.7967 75.6558 52.6033 75.5158 52.39C75.3824 52.1767 75.3158 51.9 75.3158 51.56C75.3158 51.2533 75.3758 50.9967 75.4958 50.79C75.6224 50.5767 75.7958 50.4167 76.0158 50.31C76.2424 50.1967 76.5058 50.14 76.8058 50.14C77.2658 50.14 77.6158 50.29 77.8558 50.59C78.1024 50.8833 78.2424 51.24 78.2758 51.66L77.5558 51.93C77.5291 51.73 77.4891 51.5567 77.4358 51.41C77.3824 51.2567 77.3091 51.14 77.2158 51.06C77.1224 50.9733 76.9991 50.93 76.8458 50.93C76.6724 50.93 76.5324 50.99 76.4258 51.11C76.3258 51.2233 76.2758 51.36 76.2758 51.52C76.2758 51.62 76.2958 51.72 76.3358 51.82C76.3824 51.9133 76.4591 52.0067 76.5658 52.1L77.5858 53.04C77.7258 53.1667 77.8558 53.3033 77.9758 53.45C78.1024 53.5967 78.2058 53.7633 78.2858 53.95C78.3658 54.1367 78.4058 54.3533 78.4058 54.6C78.4058 54.9267 78.3391 55.2 78.2058 55.42C78.0724 55.64 77.8858 55.8067 77.6458 55.92C77.4058 56.0267 77.1258 56.08 76.8058 56.08ZM79.546 56V51.01H78.856V50.22H79.546V49.92C79.546 49.56 79.5727 49.2533 79.626 49C79.686 48.74 79.806 48.54 79.986 48.4C80.166 48.26 80.436 48.19 80.796 48.19C80.9293 48.19 81.046 48.1967 81.146 48.21C81.2527 48.2167 81.3693 48.2333 81.496 48.26V49.04C81.436 49.0267 81.3693 49.0167 81.296 49.01C81.2227 48.9967 81.156 48.99 81.096 48.99C80.8893 48.99 80.756 49.06 80.696 49.2C80.6427 49.3333 80.616 49.5133 80.616 49.74V50.22H81.496V51.01H80.616V56H79.546ZM82.9071 56.08C82.6804 56.08 82.5038 56.02 82.3771 55.9C82.2504 55.78 82.1604 55.63 82.1071 55.45C82.0604 55.27 82.0371 55.0867 82.0371 54.9V50.22H83.1071V54.58C83.1071 54.7867 83.1371 54.95 83.1971 55.07C83.2571 55.1833 83.3804 55.24 83.5671 55.24C83.6871 55.24 83.8104 55.2067 83.9371 55.14C84.0704 55.0667 84.1971 54.98 84.3171 54.88V50.22H85.3871V56H84.3171V55.43C84.1304 55.61 83.9171 55.7633 83.6771 55.89C83.4438 56.0167 83.1871 56.08 82.9071 56.08ZM86.5814 56V47.9H87.6514V56H86.5814ZM88.8666 56V47.9H89.9366V56H88.8666ZM90.9617 57.45V56.63C91.2217 56.63 91.4284 56.6167 91.5817 56.59C91.7351 56.57 91.8451 56.5267 91.9117 56.46C91.9784 56.4 92.0117 56.3133 92.0117 56.2C92.0117 56.14 91.9884 56.0067 91.9417 55.8C91.8951 55.5933 91.8451 55.3733 91.7917 55.14L90.6317 50.22H91.7117L92.4917 54.54L93.2417 50.22H94.3217L92.9417 56.32C92.8817 56.6 92.7717 56.82 92.6117 56.98C92.4517 57.1467 92.2451 57.2667 91.9917 57.34C91.7451 57.4133 91.4451 57.45 91.0917 57.45H90.9617ZM97.3529 56V47.9H98.4229V56H97.3529ZM101.128 56.08C100.701 56.08 100.365 55.9933 100.118 55.82C99.8714 55.6467 99.6947 55.4 99.588 55.08C99.488 54.76 99.438 54.3833 99.438 53.95V52.27C99.438 51.8367 99.488 51.46 99.588 51.14C99.6947 50.82 99.8714 50.5733 100.118 50.4C100.365 50.2267 100.701 50.14 101.128 50.14C101.555 50.14 101.888 50.2267 102.128 50.4C102.375 50.5733 102.548 50.82 102.648 51.14C102.755 51.46 102.808 51.8367 102.808 52.27V53.95C102.808 54.3833 102.755 54.76 102.648 55.08C102.548 55.4 102.375 55.6467 102.128 55.82C101.888 55.9933 101.555 56.08 101.128 56.08ZM101.128 55.29C101.335 55.29 101.478 55.23 101.558 55.11C101.645 54.99 101.695 54.8333 101.708 54.64C101.728 54.44 101.738 54.2333 101.738 54.02V52.21C101.738 51.99 101.728 51.7833 101.708 51.59C101.695 51.3967 101.645 51.24 101.558 51.12C101.478 50.9933 101.335 50.93 101.128 50.93C100.921 50.93 100.775 50.9933 100.688 51.12C100.601 51.24 100.548 51.3967 100.528 51.59C100.515 51.7833 100.508 51.99 100.508 52.21V54.02C100.508 54.2333 100.515 54.44 100.528 54.64C100.548 54.8333 100.601 54.99 100.688 55.11C100.775 55.23 100.921 55.29 101.128 55.29ZM105.286 57.79C104.939 57.79 104.626 57.7533 104.346 57.68C104.066 57.6067 103.846 57.49 103.686 57.33C103.526 57.17 103.446 56.96 103.446 56.7C103.446 56.5133 103.486 56.35 103.566 56.21C103.646 56.07 103.749 55.95 103.876 55.85C104.003 55.7433 104.136 55.6567 104.276 55.59C104.089 55.5367 103.949 55.4533 103.856 55.34C103.763 55.22 103.716 55.0967 103.716 54.97C103.716 54.7567 103.773 54.5733 103.886 54.42C103.999 54.2667 104.156 54.1 104.356 53.92C104.136 53.7533 103.969 53.54 103.856 53.28C103.743 53.02 103.686 52.66 103.686 52.2C103.686 51.7467 103.746 51.37 103.866 51.07C103.993 50.7633 104.176 50.5333 104.416 50.38C104.663 50.22 104.963 50.14 105.316 50.14C105.629 50.14 105.879 50.1933 106.066 50.3C106.259 50.4067 106.406 50.5667 106.506 50.78C106.539 50.7267 106.629 50.6367 106.776 50.51C106.923 50.3767 107.093 50.2667 107.286 50.18L107.446 50.11L107.716 50.8C107.629 50.8133 107.513 50.8467 107.366 50.9C107.226 50.9467 107.093 50.9967 106.966 51.05C106.846 51.0967 106.769 51.1367 106.736 51.17C106.783 51.2833 106.823 51.4467 106.856 51.66C106.896 51.8733 106.916 52.0633 106.916 52.23C106.916 52.6233 106.866 52.97 106.766 53.27C106.666 53.57 106.499 53.8067 106.266 53.98C106.039 54.1467 105.723 54.23 105.316 54.23C105.229 54.23 105.136 54.2233 105.036 54.21C104.936 54.1967 104.846 54.18 104.766 54.16C104.726 54.22 104.683 54.29 104.636 54.37C104.596 54.45 104.576 54.5267 104.576 54.6C104.576 54.6733 104.613 54.7333 104.686 54.78C104.766 54.82 104.889 54.8467 105.056 54.86L105.956 54.94C106.409 54.98 106.746 55.1167 106.966 55.35C107.186 55.5833 107.296 55.9167 107.296 56.35C107.296 56.6633 107.223 56.9267 107.076 57.14C106.929 57.36 106.706 57.5233 106.406 57.63C106.113 57.7367 105.739 57.79 105.286 57.79ZM105.366 56.95C105.746 56.95 106.026 56.9033 106.206 56.81C106.386 56.7233 106.476 56.58 106.476 56.38C106.476 56.26 106.453 56.16 106.406 56.08C106.366 56 106.289 55.9367 106.176 55.89C106.063 55.8433 105.899 55.81 105.686 55.79L104.776 55.71C104.703 55.7833 104.633 55.8567 104.566 55.93C104.499 56.0033 104.446 56.08 104.406 56.16C104.366 56.2467 104.346 56.3367 104.346 56.43C104.346 56.6033 104.419 56.7333 104.566 56.82C104.713 56.9067 104.979 56.95 105.366 56.95ZM105.316 53.48C105.469 53.48 105.589 53.4533 105.676 53.4C105.769 53.34 105.839 53.2567 105.886 53.15C105.933 53.0367 105.963 52.9 105.976 52.74C105.996 52.58 106.006 52.4 106.006 52.2C106.006 52 105.996 51.82 105.976 51.66C105.963 51.4933 105.933 51.3533 105.886 51.24C105.846 51.12 105.779 51.03 105.686 50.97C105.599 50.91 105.479 50.88 105.326 50.88C105.179 50.88 105.056 50.91 104.956 50.97C104.863 51.03 104.793 51.1167 104.746 51.23C104.699 51.3367 104.666 51.4733 104.646 51.64C104.626 51.8 104.616 51.9867 104.616 52.2C104.616 52.38 104.623 52.55 104.636 52.71C104.656 52.8633 104.689 52.9967 104.736 53.11C104.789 53.2233 104.863 53.3133 104.956 53.38C105.049 53.4467 105.169 53.48 105.316 53.48ZM109.573 57.79C109.227 57.79 108.913 57.7533 108.633 57.68C108.353 57.6067 108.133 57.49 107.973 57.33C107.813 57.17 107.733 56.96 107.733 56.7C107.733 56.5133 107.773 56.35 107.853 56.21C107.933 56.07 108.037 55.95 108.163 55.85C108.29 55.7433 108.423 55.6567 108.563 55.59C108.377 55.5367 108.237 55.4533 108.143 55.34C108.05 55.22 108.003 55.0967 108.003 54.97C108.003 54.7567 108.06 54.5733 108.173 54.42C108.287 54.2667 108.443 54.1 108.643 53.92C108.423 53.7533 108.257 53.54 108.143 53.28C108.03 53.02 107.973 52.66 107.973 52.2C107.973 51.7467 108.033 51.37 108.153 51.07C108.28 50.7633 108.463 50.5333 108.703 50.38C108.95 50.22 109.25 50.14 109.603 50.14C109.917 50.14 110.167 50.1933 110.353 50.3C110.547 50.4067 110.693 50.5667 110.793 50.78C110.827 50.7267 110.917 50.6367 111.063 50.51C111.21 50.3767 111.38 50.2667 111.573 50.18L111.733 50.11L112.003 50.8C111.917 50.8133 111.8 50.8467 111.653 50.9C111.513 50.9467 111.38 50.9967 111.253 51.05C111.133 51.0967 111.057 51.1367 111.023 51.17C111.07 51.2833 111.11 51.4467 111.143 51.66C111.183 51.8733 111.203 52.0633 111.203 52.23C111.203 52.6233 111.153 52.97 111.053 53.27C110.953 53.57 110.787 53.8067 110.553 53.98C110.327 54.1467 110.01 54.23 109.603 54.23C109.517 54.23 109.423 54.2233 109.323 54.21C109.223 54.1967 109.133 54.18 109.053 54.16C109.013 54.22 108.97 54.29 108.923 54.37C108.883 54.45 108.863 54.5267 108.863 54.6C108.863 54.6733 108.9 54.7333 108.973 54.78C109.053 54.82 109.177 54.8467 109.343 54.86L110.243 54.94C110.697 54.98 111.033 55.1167 111.253 55.35C111.473 55.5833 111.583 55.9167 111.583 56.35C111.583 56.6633 111.51 56.9267 111.363 57.14C111.217 57.36 110.993 57.5233 110.693 57.63C110.4 57.7367 110.027 57.79 109.573 57.79ZM109.653 56.95C110.033 56.95 110.313 56.9033 110.493 56.81C110.673 56.7233 110.763 56.58 110.763 56.38C110.763 56.26 110.74 56.16 110.693 56.08C110.653 56 110.577 55.9367 110.463 55.89C110.35 55.8433 110.187 55.81 109.973 55.79L109.063 55.71C108.99 55.7833 108.92 55.8567 108.853 55.93C108.787 56.0033 108.733 56.08 108.693 56.16C108.653 56.2467 108.633 56.3367 108.633 56.43C108.633 56.6033 108.707 56.7333 108.853 56.82C109 56.9067 109.267 56.95 109.653 56.95ZM109.603 53.48C109.757 53.48 109.877 53.4533 109.963 53.4C110.057 53.34 110.127 53.2567 110.173 53.15C110.22 53.0367 110.25 52.9 110.263 52.74C110.283 52.58 110.293 52.4 110.293 52.2C110.293 52 110.283 51.82 110.263 51.66C110.25 51.4933 110.22 51.3533 110.173 51.24C110.133 51.12 110.067 51.03 109.973 50.97C109.887 50.91 109.767 50.88 109.613 50.88C109.467 50.88 109.343 50.91 109.243 50.97C109.15 51.03 109.08 51.1167 109.033 51.23C108.987 51.3367 108.953 51.4733 108.933 51.64C108.913 51.8 108.903 51.9867 108.903 52.2C108.903 52.38 108.91 52.55 108.923 52.71C108.943 52.8633 108.977 52.9967 109.023 53.11C109.077 53.2233 109.15 53.3133 109.243 53.38C109.337 53.4467 109.457 53.48 109.603 53.48ZM113.98 56.08C113.527 56.08 113.177 55.9933 112.93 55.82C112.683 55.64 112.51 55.38 112.41 55.04C112.317 54.6933 112.27 54.27 112.27 53.77V52.45C112.27 51.9367 112.32 51.51 112.42 51.17C112.52 50.83 112.693 50.5733 112.94 50.4C113.193 50.2267 113.54 50.14 113.98 50.14C114.467 50.14 114.823 50.24 115.05 50.44C115.283 50.64 115.437 50.93 115.51 51.31C115.583 51.6833 115.62 52.1333 115.62 52.66V53.13H113.34V54.29C113.34 54.5233 113.36 54.7133 113.4 54.86C113.447 55.0067 113.517 55.1167 113.61 55.19C113.71 55.2567 113.837 55.29 113.99 55.29C114.15 55.29 114.27 55.2533 114.35 55.18C114.437 55.1 114.493 54.99 114.52 54.85C114.553 54.7033 114.57 54.5333 114.57 54.34V53.99H115.61V54.21C115.61 54.79 115.487 55.2467 115.24 55.58C114.993 55.9133 114.573 56.08 113.98 56.08ZM113.34 52.55H114.57V52.03C114.57 51.79 114.557 51.59 114.53 51.43C114.503 51.2633 114.447 51.14 114.36 51.06C114.28 50.9733 114.15 50.93 113.97 50.93C113.797 50.93 113.663 50.97 113.57 51.05C113.483 51.13 113.423 51.2667 113.39 51.46C113.357 51.6467 113.34 51.9067 113.34 52.24V52.55ZM117.929 56.08C117.442 56.08 117.079 55.9033 116.839 55.55C116.599 55.19 116.479 54.5833 116.479 53.73V52.61C116.479 52.17 116.515 51.7633 116.589 51.39C116.662 51.01 116.799 50.7067 116.999 50.48C117.205 50.2533 117.505 50.14 117.899 50.14C118.092 50.14 118.269 50.1833 118.429 50.27C118.589 50.3567 118.732 50.4633 118.859 50.59V47.9H119.929V56H118.859V55.63C118.732 55.7633 118.592 55.8733 118.439 55.96C118.292 56.04 118.122 56.08 117.929 56.08ZM118.199 55.24C118.299 55.24 118.405 55.2233 118.519 55.19C118.632 55.15 118.745 55.0933 118.859 55.02V51.23C118.765 51.1633 118.662 51.1067 118.549 51.06C118.435 51.0067 118.312 50.98 118.179 50.98C117.932 50.98 117.765 51.1 117.679 51.34C117.592 51.5733 117.549 51.8567 117.549 52.19V53.82C117.549 54.0867 117.562 54.33 117.589 54.55C117.622 54.7633 117.685 54.9333 117.779 55.06C117.872 55.18 118.012 55.24 118.199 55.24ZM123.368 56V50.22H124.438V56H123.368ZM123.368 49.36V48.24H124.438V49.36H123.368ZM125.583 56V50.22H126.653V50.79C126.846 50.61 127.06 50.4567 127.293 50.33C127.526 50.2033 127.783 50.14 128.063 50.14C128.296 50.14 128.473 50.2 128.593 50.32C128.72 50.44 128.806 50.59 128.853 50.77C128.906 50.95 128.933 51.1333 128.933 51.32V56H127.863V51.63C127.863 51.4233 127.833 51.2633 127.773 51.15C127.713 51.0367 127.59 50.98 127.403 50.98C127.283 50.98 127.156 51.0167 127.023 51.09C126.896 51.1567 126.773 51.24 126.653 51.34V56H125.583ZM131.518 56.08C131.218 56.08 130.974 56.0233 130.788 55.91C130.608 55.7967 130.474 55.6367 130.388 55.43C130.308 55.2233 130.268 54.98 130.268 54.7V50.93H129.658V50.22H130.268V48.53H131.338V50.22H132.268V50.93H131.338V54.63C131.338 54.8567 131.374 55.02 131.448 55.12C131.521 55.2133 131.661 55.26 131.868 55.26C131.921 55.26 131.981 55.2567 132.048 55.25C132.121 55.2433 132.191 55.2367 132.258 55.23V56.02C132.124 56.04 132.001 56.0533 131.888 56.06C131.774 56.0733 131.651 56.08 131.518 56.08ZM134.644 56.08C134.217 56.08 133.88 55.9933 133.634 55.82C133.387 55.6467 133.21 55.4 133.104 55.08C133.004 54.76 132.954 54.3833 132.954 53.95V52.27C132.954 51.8367 133.004 51.46 133.104 51.14C133.21 50.82 133.387 50.5733 133.634 50.4C133.88 50.2267 134.217 50.14 134.644 50.14C135.07 50.14 135.404 50.2267 135.644 50.4C135.89 50.5733 136.064 50.82 136.164 51.14C136.27 51.46 136.324 51.8367 136.324 52.27V53.95C136.324 54.3833 136.27 54.76 136.164 55.08C136.064 55.4 135.89 55.6467 135.644 55.82C135.404 55.9933 135.07 56.08 134.644 56.08ZM134.644 55.29C134.85 55.29 134.994 55.23 135.074 55.11C135.16 54.99 135.21 54.8333 135.224 54.64C135.244 54.44 135.254 54.2333 135.254 54.02V52.21C135.254 51.99 135.244 51.7833 135.224 51.59C135.21 51.3967 135.16 51.24 135.074 51.12C134.994 50.9933 134.85 50.93 134.644 50.93C134.437 50.93 134.29 50.9933 134.204 51.12C134.117 51.24 134.064 51.3967 134.044 51.59C134.03 51.7833 134.024 51.99 134.024 52.21V54.02C134.024 54.2333 134.03 54.44 134.044 54.64C134.064 54.8333 134.117 54.99 134.204 55.11C134.29 55.23 134.437 55.29 134.644 55.29ZM139.497 57.45V56.63C139.757 56.63 139.964 56.6167 140.117 56.59C140.27 56.57 140.38 56.5267 140.447 56.46C140.514 56.4 140.547 56.3133 140.547 56.2C140.547 56.14 140.524 56.0067 140.477 55.8C140.43 55.5933 140.38 55.3733 140.327 55.14L139.167 50.22H140.247L141.027 54.54L141.777 50.22H142.857L141.477 56.32C141.417 56.6 141.307 56.82 141.147 56.98C140.987 57.1467 140.78 57.2667 140.527 57.34C140.28 57.4133 139.98 57.45 139.627 57.45H139.497ZM145.093 56.08C144.666 56.08 144.33 55.9933 144.083 55.82C143.836 55.6467 143.66 55.4 143.553 55.08C143.453 54.76 143.403 54.3833 143.403 53.95V52.27C143.403 51.8367 143.453 51.46 143.553 51.14C143.66 50.82 143.836 50.5733 144.083 50.4C144.33 50.2267 144.666 50.14 145.093 50.14C145.52 50.14 145.853 50.2267 146.093 50.4C146.34 50.5733 146.513 50.82 146.613 51.14C146.72 51.46 146.773 51.8367 146.773 52.27V53.95C146.773 54.3833 146.72 54.76 146.613 55.08C146.513 55.4 146.34 55.6467 146.093 55.82C145.853 55.9933 145.52 56.08 145.093 56.08ZM145.093 55.29C145.3 55.29 145.443 55.23 145.523 55.11C145.61 54.99 145.66 54.8333 145.673 54.64C145.693 54.44 145.703 54.2333 145.703 54.02V52.21C145.703 51.99 145.693 51.7833 145.673 51.59C145.66 51.3967 145.61 51.24 145.523 51.12C145.443 50.9933 145.3 50.93 145.093 50.93C144.886 50.93 144.74 50.9933 144.653 51.12C144.566 51.24 144.513 51.3967 144.493 51.59C144.48 51.7833 144.473 51.99 144.473 52.21V54.02C144.473 54.2333 144.48 54.44 144.493 54.64C144.513 54.8333 144.566 54.99 144.653 55.11C144.74 55.23 144.886 55.29 145.093 55.29ZM148.581 56.08C148.354 56.08 148.178 56.02 148.051 55.9C147.924 55.78 147.834 55.63 147.781 55.45C147.734 55.27 147.711 55.0867 147.711 54.9V50.22H148.781V54.58C148.781 54.7867 148.811 54.95 148.871 55.07C148.931 55.1833 149.054 55.24 149.241 55.24C149.361 55.24 149.484 55.2067 149.611 55.14C149.744 55.0667 149.871 54.98 149.991 54.88V50.22H151.061V56H149.991V55.43C149.804 55.61 149.591 55.7633 149.351 55.89C149.118 56.0167 148.861 56.08 148.581 56.08ZM152.185 56V50.22H153.255V51.04C153.469 50.6867 153.682 50.45 153.895 50.33C154.109 50.21 154.322 50.15 154.535 50.15C154.562 50.15 154.585 50.15 154.605 50.15C154.632 50.15 154.665 50.1533 154.705 50.16V51.34C154.625 51.3067 154.532 51.28 154.425 51.26C154.325 51.2333 154.222 51.22 154.115 51.22C153.949 51.22 153.795 51.26 153.655 51.34C153.522 51.4133 153.389 51.56 153.255 51.78V56H152.185ZM157.653 57.9V50.22H158.723V50.68C158.85 50.5333 159.003 50.4067 159.183 50.3C159.363 50.1933 159.577 50.14 159.823 50.14C160.123 50.14 160.36 50.22 160.533 50.38C160.713 50.5333 160.847 50.73 160.933 50.97C161.02 51.2033 161.077 51.4433 161.103 51.69C161.13 51.93 161.143 52.1367 161.143 52.31V53.71C161.143 54.1167 161.103 54.5033 161.023 54.87C160.943 55.23 160.797 55.5233 160.583 55.75C160.377 55.97 160.083 56.08 159.703 56.08C159.497 56.08 159.313 56.03 159.153 55.93C158.993 55.8233 158.85 55.7033 158.723 55.57V57.9H157.653ZM159.493 55.24C159.68 55.24 159.813 55.1733 159.893 55.04C159.973 54.9 160.023 54.7133 160.043 54.48C160.063 54.2467 160.073 53.99 160.073 53.71V52.31C160.073 52.07 160.06 51.85 160.033 51.65C160.007 51.4433 159.95 51.28 159.863 51.16C159.777 51.04 159.64 50.98 159.453 50.98C159.313 50.98 159.18 51.01 159.053 51.07C158.927 51.13 158.817 51.2 158.723 51.28V54.98C158.823 55.0533 158.937 55.1167 159.063 55.17C159.19 55.2167 159.333 55.24 159.493 55.24ZM162.146 56V50.22H163.216V51.04C163.43 50.6867 163.643 50.45 163.856 50.33C164.07 50.21 164.283 50.15 164.496 50.15C164.523 50.15 164.546 50.15 164.566 50.15C164.593 50.15 164.626 50.1533 164.666 50.16V51.34C164.586 51.3067 164.493 51.28 164.386 51.26C164.286 51.2333 164.183 51.22 164.076 51.22C163.91 51.22 163.756 51.26 163.616 51.34C163.483 51.4133 163.35 51.56 163.216 51.78V56H162.146ZM166.919 56.08C166.492 56.08 166.156 55.9933 165.909 55.82C165.662 55.6467 165.486 55.4 165.379 55.08C165.279 54.76 165.229 54.3833 165.229 53.95V52.27C165.229 51.8367 165.279 51.46 165.379 51.14C165.486 50.82 165.662 50.5733 165.909 50.4C166.156 50.2267 166.492 50.14 166.919 50.14C167.346 50.14 167.679 50.2267 167.919 50.4C168.166 50.5733 168.339 50.82 168.439 51.14C168.546 51.46 168.599 51.8367 168.599 52.27V53.95C168.599 54.3833 168.546 54.76 168.439 55.08C168.339 55.4 168.166 55.6467 167.919 55.82C167.679 55.9933 167.346 56.08 166.919 56.08ZM166.919 55.29C167.126 55.29 167.269 55.23 167.349 55.11C167.436 54.99 167.486 54.8333 167.499 54.64C167.519 54.44 167.529 54.2333 167.529 54.02V52.21C167.529 51.99 167.519 51.7833 167.499 51.59C167.486 51.3967 167.436 51.24 167.349 51.12C167.269 50.9933 167.126 50.93 166.919 50.93C166.712 50.93 166.566 50.9933 166.479 51.12C166.392 51.24 166.339 51.3967 166.319 51.59C166.306 51.7833 166.299 51.99 166.299 52.21V54.02C166.299 54.2333 166.306 54.44 166.319 54.64C166.339 54.8333 166.392 54.99 166.479 55.11C166.566 55.23 166.712 55.29 166.919 55.29ZM169.917 56V51.01H169.227V50.22H169.917V49.92C169.917 49.5333 169.957 49.2133 170.037 48.96C170.124 48.7067 170.267 48.5167 170.467 48.39C170.667 48.2633 170.94 48.2 171.287 48.2C171.374 48.2 171.464 48.2033 171.557 48.21C171.657 48.2167 171.76 48.2267 171.867 48.24V49.04C171.8 49.0267 171.734 49.0167 171.667 49.01C171.607 49.0033 171.55 49 171.497 49C171.29 49 171.154 49.0567 171.087 49.17C171.02 49.2833 170.987 49.4733 170.987 49.74V50.22H173.347V56H172.277V51.01H170.987V56H169.917ZM172.377 49.36V48.24H173.357V49.36H172.377ZM174.589 56V47.9H175.659V56H174.589ZM178.374 56.08C177.921 56.08 177.571 55.9933 177.324 55.82C177.078 55.64 176.904 55.38 176.804 55.04C176.711 54.6933 176.664 54.27 176.664 53.77V52.45C176.664 51.9367 176.714 51.51 176.814 51.17C176.914 50.83 177.088 50.5733 177.334 50.4C177.588 50.2267 177.934 50.14 178.374 50.14C178.861 50.14 179.218 50.24 179.444 50.44C179.678 50.64 179.831 50.93 179.904 51.31C179.978 51.6833 180.014 52.1333 180.014 52.66V53.13H177.734V54.29C177.734 54.5233 177.754 54.7133 177.794 54.86C177.841 55.0067 177.911 55.1167 178.004 55.19C178.104 55.2567 178.231 55.29 178.384 55.29C178.544 55.29 178.664 55.2533 178.744 55.18C178.831 55.1 178.888 54.99 178.914 54.85C178.948 54.7033 178.964 54.5333 178.964 54.34V53.99H180.004V54.21C180.004 54.79 179.881 55.2467 179.634 55.58C179.388 55.9133 178.968 56.08 178.374 56.08ZM177.734 52.55H178.964V52.03C178.964 51.79 178.951 51.59 178.924 51.43C178.898 51.2633 178.841 51.14 178.754 51.06C178.674 50.9733 178.544 50.93 178.364 50.93C178.191 50.93 178.058 50.97 177.964 51.05C177.878 51.13 177.818 51.2667 177.784 51.46C177.751 51.6467 177.734 51.9067 177.734 52.24V52.55ZM181.283 54.27L180.943 47.9H182.023L181.663 54.27H181.283ZM180.943 56V54.9H182.023V56H180.943Z"></path>
</svg>
