<svg xmlns="http://www.w3.org/2000/svg" fill="none" viewBox="0 0 13 18" height="18" width="13">
<rect fill-opacity="0.01" fill="#0D0E12" height="18" width="13"></rect>
<path fill="white" d="M3.12 14.156C2.464 14.156 1.94 14.028 1.548 13.772C1.156 13.508 0.876 13.148 0.708 12.692C0.54 12.228 0.456 11.7 0.456 11.108C0.464 10.868 0.488 10.636 0.528 10.412C0.576 10.18 0.644 9.968 0.732 9.776C0.828 9.576 0.944 9.404 1.08 9.26C1.224 9.108 1.392 8.984 1.584 8.888C1.336 8.704 1.116 8.44 0.924 8.096C0.732 7.744 0.628 7.3 0.612 6.764C0.604 6.22 0.692 5.752 0.876 5.36C1.068 4.968 1.352 4.668 1.728 4.46C2.104 4.252 2.568 4.148 3.12 4.148C3.68 4.148 4.144 4.256 4.512 4.472C4.888 4.68 5.168 4.98 5.352 5.372C5.536 5.756 5.62 6.22 5.604 6.764C5.596 7.308 5.5 7.756 5.316 8.108C5.132 8.452 4.912 8.712 4.656 8.888C4.848 8.984 5.012 9.108 5.148 9.26C5.292 9.404 5.408 9.576 5.496 9.776C5.592 9.968 5.664 10.18 5.712 10.412C5.76 10.636 5.784 10.868 5.784 11.108C5.8 11.7 5.72 12.228 5.544 12.692C5.376 13.148 5.096 13.508 4.704 13.772C4.312 14.028 3.784 14.156 3.12 14.156ZM3.12 12.68C3.336 12.68 3.492 12.6 3.588 12.44C3.684 12.28 3.744 12.092 3.768 11.876C3.792 11.652 3.804 11.448 3.804 11.264C3.812 11.016 3.8 10.776 3.768 10.544C3.744 10.312 3.684 10.124 3.588 9.98C3.492 9.828 3.336 9.752 3.12 9.752C2.912 9.752 2.76 9.828 2.664 9.98C2.568 10.124 2.504 10.312 2.472 10.544C2.448 10.768 2.436 11.008 2.436 11.264C2.436 11.448 2.448 11.652 2.472 11.876C2.496 12.1 2.556 12.292 2.652 12.452C2.756 12.604 2.912 12.68 3.12 12.68ZM3.12 8.168C3.256 8.168 3.368 8.116 3.456 8.012C3.544 7.9 3.608 7.736 3.648 7.52C3.696 7.304 3.72 7.036 3.72 6.716C3.72 6.388 3.668 6.128 3.564 5.936C3.468 5.744 3.32 5.648 3.12 5.648C2.92 5.648 2.764 5.744 2.652 5.936C2.548 6.128 2.496 6.384 2.496 6.704C2.496 7.024 2.516 7.296 2.556 7.52C2.604 7.736 2.676 7.9 2.772 8.012C2.868 8.116 2.984 8.168 3.12 8.168ZM9.38981 14.18C8.70981 14.18 8.17381 14.052 7.78181 13.796C7.39781 13.54 7.12181 13.184 6.95381 12.728C6.79381 12.264 6.71381 11.732 6.71381 11.132V10.784H8.71781C8.71781 10.792 8.71781 10.836 8.71781 10.916C8.71781 10.996 8.71781 11.068 8.71781 11.132C8.71781 11.452 8.73781 11.712 8.77781 11.912C8.81781 12.112 8.88981 12.26 8.99381 12.356C9.09781 12.444 9.24181 12.488 9.42581 12.488C9.60981 12.488 9.74581 12.44 9.83381 12.344C9.92981 12.248 9.99381 12.104 10.0258 11.912C10.0578 11.72 10.0738 11.48 10.0738 11.192C10.0738 10.712 10.0058 10.348 9.86981 10.1C9.74181 9.844 9.46981 9.712 9.05381 9.704C9.04581 9.704 9.00181 9.704 8.92181 9.704C8.84181 9.704 8.76181 9.704 8.68181 9.704V8.324C8.73781 8.324 8.79381 8.324 8.84981 8.324C8.90581 8.324 8.95781 8.324 9.00581 8.324C9.42981 8.324 9.71381 8.208 9.85781 7.976C10.0018 7.744 10.0738 7.384 10.0738 6.896C10.0738 6.52 10.0218 6.232 9.91781 6.032C9.82181 5.832 9.63781 5.732 9.36581 5.732C9.10181 5.732 8.92581 5.844 8.83781 6.068C8.75781 6.292 8.71781 6.58 8.71781 6.932C8.71781 7.012 8.71781 7.096 8.71781 7.184C8.71781 7.264 8.71781 7.348 8.71781 7.436H6.71381V6.848C6.71381 6.264 6.81781 5.772 7.02581 5.372C7.24181 4.964 7.54581 4.656 7.93781 4.448C8.33781 4.24 8.81381 4.136 9.36581 4.136C9.92581 4.136 10.4058 4.236 10.8058 4.436C11.2058 4.636 11.5138 4.932 11.7298 5.324C11.9458 5.708 12.0538 6.188 12.0538 6.764C12.0538 7.332 11.9378 7.808 11.7058 8.192C11.4738 8.576 11.1938 8.812 10.8658 8.9C11.0898 8.98 11.2898 9.108 11.4658 9.284C11.6498 9.46 11.7938 9.7 11.8978 10.004C12.0018 10.3 12.0538 10.68 12.0538 11.144C12.0538 11.736 11.9658 12.26 11.7898 12.716C11.6218 13.172 11.3418 13.532 10.9498 13.796C10.5578 14.052 10.0378 14.18 9.38981 14.18Z"></path>
</svg>
