<svg xmlns="http://www.w3.org/2000/svg" fill="none" viewBox="0 0 156 56" height="56" width="156">
<rect stroke="white" fill="#0D0E12" height="55" width="155" y="0.5" x="0.5"></rect>
<path fill="white" d="M41.0005 23V17.22H42.6305V23H41.0005ZM40.9905 16.24V15.11H42.6305V16.24H40.9905ZM45.417 23.1C44.9103 23.1 44.487 22.9867 44.147 22.76C43.8136 22.5333 43.5403 22.1633 43.327 21.65L44.437 21.16C44.5436 21.42 44.667 21.6267 44.807 21.78C44.9536 21.9267 45.1136 22 45.287 22C45.4136 22 45.507 21.9733 45.567 21.92C45.6336 21.8667 45.667 21.7933 45.667 21.7C45.667 21.5467 45.607 21.4067 45.487 21.28C45.3736 21.1533 45.167 20.9667 44.867 20.72L44.447 20.37C44.1403 20.11 43.897 19.86 43.717 19.62C43.5436 19.3733 43.457 19.07 43.457 18.71C43.457 18.3967 43.537 18.12 43.697 17.88C43.8636 17.64 44.0836 17.4533 44.357 17.32C44.6303 17.1867 44.9236 17.12 45.237 17.12C45.7103 17.12 46.107 17.25 46.427 17.51C46.747 17.77 46.9703 18.1367 47.097 18.61L46.047 19.09C46.007 18.9633 45.9503 18.8367 45.877 18.71C45.8036 18.5833 45.7136 18.4767 45.607 18.39C45.507 18.3033 45.397 18.26 45.277 18.26C45.1703 18.26 45.0836 18.29 45.017 18.35C44.957 18.41 44.927 18.49 44.927 18.59C44.927 18.7167 44.997 18.8533 45.137 19C45.2836 19.1467 45.4836 19.3233 45.737 19.53L46.147 19.89C46.3136 20.03 46.477 20.18 46.637 20.34C46.797 20.5 46.927 20.6767 47.027 20.87C47.1336 21.0633 47.187 21.2833 47.187 21.53C47.187 21.8633 47.1036 22.15 46.937 22.39C46.7703 22.6233 46.5503 22.8 46.277 22.92C46.0103 23.04 45.7236 23.1 45.417 23.1ZM52.3138 25C51.8805 25 51.5038 24.9567 51.1838 24.87C50.8638 24.7833 50.6138 24.6533 50.4338 24.48C50.2605 24.3067 50.1738 24.0867 50.1738 23.82C50.1738 23.64 50.2105 23.4767 50.2838 23.33C50.3638 23.19 50.4705 23.0667 50.6038 22.96C50.7438 22.8467 50.9005 22.75 51.0738 22.67C50.8205 22.5967 50.6238 22.4867 50.4838 22.34C50.3438 22.1933 50.2738 21.9967 50.2738 21.75C50.2738 21.5167 50.3305 21.3167 50.4438 21.15C50.5572 20.9767 50.7138 20.8033 50.9138 20.63C50.7272 20.4633 50.5838 20.26 50.4838 20.02C50.3905 19.7733 50.3438 19.4767 50.3438 19.13C50.3438 18.6967 50.4238 18.33 50.5838 18.03C50.7438 17.73 50.9772 17.5033 51.2838 17.35C51.5972 17.1967 51.9738 17.12 52.4138 17.12C52.7138 17.12 52.9772 17.1567 53.2038 17.23C53.4305 17.3033 53.6238 17.4167 53.7838 17.57C53.8572 17.4567 53.9538 17.3467 54.0738 17.24C54.1938 17.1333 54.3305 17.0433 54.4838 16.97L54.6938 16.87L55.0738 17.65C55.0138 17.67 54.9305 17.7033 54.8238 17.75C54.7172 17.7967 54.6038 17.8467 54.4838 17.9C54.3705 17.9533 54.2672 18.0067 54.1738 18.06C54.2472 18.2067 54.3038 18.3733 54.3438 18.56C54.3838 18.7467 54.4038 18.94 54.4038 19.14C54.4038 19.5533 54.3272 19.91 54.1738 20.21C54.0272 20.51 53.8072 20.74 53.5138 20.9C53.2205 21.0533 52.8538 21.13 52.4138 21.13C52.2272 21.13 52.0505 21.1167 51.8838 21.09C51.7172 21.0567 51.5638 21.0167 51.4238 20.97C51.3838 21.0233 51.3472 21.08 51.3138 21.14C51.2872 21.1933 51.2738 21.2533 51.2738 21.32C51.2738 21.4 51.3138 21.4633 51.3938 21.51C51.4738 21.5567 51.6172 21.5933 51.8238 21.62L53.3438 21.79C53.8372 21.8433 54.2005 22.0033 54.4338 22.27C54.6672 22.53 54.7838 22.8733 54.7838 23.3C54.7838 23.6667 54.7005 23.9767 54.5338 24.23C54.3738 24.4833 54.1105 24.6733 53.7438 24.8C53.3838 24.9333 52.9072 25 52.3138 25ZM52.5238 23.82C52.8905 23.82 53.1705 23.79 53.3638 23.73C53.5638 23.67 53.6638 23.5467 53.6638 23.36C53.6638 23.2667 53.6372 23.19 53.5838 23.13C53.5305 23.0767 53.4405 23.0333 53.3138 23C53.1938 22.96 53.0205 22.93 52.7938 22.91L51.7238 22.8C51.6572 22.8467 51.5972 22.9 51.5438 22.96C51.4972 23.0133 51.4572 23.07 51.4238 23.13C51.3972 23.1967 51.3838 23.2667 51.3838 23.34C51.3838 23.5 51.4705 23.62 51.6438 23.7C51.8172 23.78 52.1105 23.82 52.5238 23.82ZM52.4138 20.16C52.5072 20.16 52.5838 20.1433 52.6438 20.11C52.7038 20.07 52.7472 20.01 52.7738 19.93C52.8072 19.85 52.8305 19.7433 52.8438 19.61C52.8572 19.4767 52.8638 19.3167 52.8638 19.13C52.8638 18.9367 52.8572 18.7767 52.8438 18.65C52.8305 18.5167 52.8072 18.41 52.7738 18.33C52.7472 18.2433 52.7038 18.1833 52.6438 18.15C52.5838 18.11 52.5072 18.09 52.4138 18.09C52.3205 18.09 52.2438 18.11 52.1838 18.15C52.1238 18.1833 52.0772 18.24 52.0438 18.32C52.0172 18.4 51.9972 18.5067 51.9838 18.64C51.9705 18.7733 51.9638 18.9367 51.9638 19.13C51.9638 19.3167 51.9705 19.4767 51.9838 19.61C51.9972 19.7367 52.0172 19.8433 52.0438 19.93C52.0772 20.01 52.1238 20.07 52.1838 20.11C52.2438 20.1433 52.3205 20.16 52.4138 20.16ZM55.4536 23V17.22H57.0836V23H55.4536ZM55.4436 16.24V15.11H57.0836V16.24H55.4436ZM58.8401 23L57.6801 17.22H59.2401L59.7201 20.91L60.1601 17.22H61.7201L60.5301 23H58.8401ZM64.1891 23.1C63.7691 23.1 63.4091 23.0267 63.1091 22.88C62.8091 22.7267 62.5791 22.5067 62.4191 22.22C62.2591 21.9267 62.1791 21.5767 62.1791 21.17V19.05C62.1791 18.6367 62.2591 18.2867 62.4191 18C62.5791 17.7133 62.8091 17.4967 63.1091 17.35C63.4157 17.1967 63.7757 17.12 64.1891 17.12C64.6157 17.12 64.9691 17.1933 65.2491 17.34C65.5357 17.4867 65.7491 17.7033 65.8891 17.99C66.0357 18.2767 66.1091 18.63 66.1091 19.05V20.21H63.7891V21.32C63.7891 21.4667 63.8057 21.5867 63.8391 21.68C63.8724 21.7733 63.9191 21.84 63.9791 21.88C64.0391 21.92 64.1091 21.94 64.1891 21.94C64.2691 21.94 64.3391 21.9233 64.3991 21.89C64.4657 21.85 64.5157 21.79 64.5491 21.71C64.5891 21.63 64.6091 21.52 64.6091 21.38V20.77H66.1091V21.33C66.1091 21.9167 65.9391 22.36 65.5991 22.66C65.2591 22.9533 64.7891 23.1 64.1891 23.1ZM63.7891 19.45H64.6091V18.87C64.6091 18.7167 64.5891 18.5967 64.5491 18.51C64.5157 18.4233 64.4657 18.3633 64.3991 18.33C64.3391 18.2967 64.2657 18.28 64.1791 18.28C64.0991 18.28 64.0291 18.3 63.9691 18.34C63.9157 18.38 63.8724 18.45 63.8391 18.55C63.8057 18.6433 63.7891 18.78 63.7891 18.96V19.45ZM66.9963 23V17.22H68.6263V17.8C68.8397 17.5867 69.0597 17.42 69.2863 17.3C69.5197 17.18 69.763 17.12 70.0163 17.12C70.2563 17.12 70.453 17.18 70.6063 17.3C70.7663 17.4133 70.8863 17.5733 70.9663 17.78C71.0463 17.98 71.0863 18.21 71.0863 18.47V23H69.4663V18.7C69.4663 18.56 69.443 18.4533 69.3963 18.38C69.3497 18.3067 69.263 18.27 69.1363 18.27C69.0697 18.27 68.9897 18.29 68.8963 18.33C68.8097 18.3633 68.7197 18.4133 68.6263 18.48V23H66.9963ZM76.4133 23.06C75.9799 23.06 75.6433 22.9967 75.4033 22.87C75.1699 22.7433 75.0099 22.56 74.9233 22.32C74.8366 22.0733 74.7933 21.7767 74.7933 21.43V18.29H74.2333V17.22H74.7933V15.46H76.4433V17.22H77.2633V18.29H76.4433V21.27C76.4433 21.4367 76.4899 21.5567 76.5833 21.63C76.6833 21.7033 76.8066 21.74 76.9533 21.74C77.0399 21.74 77.1199 21.7367 77.1933 21.73C77.2666 21.7167 77.3333 21.7067 77.3933 21.7V22.98C77.3066 22.9933 77.1699 23.01 76.9833 23.03C76.7966 23.05 76.6066 23.06 76.4133 23.06ZM80.0584 23.1C79.6451 23.1 79.2851 23.03 78.9784 22.89C78.6784 22.75 78.4451 22.54 78.2784 22.26C78.1184 21.98 78.0384 21.63 78.0384 21.21V19.01C78.0384 18.59 78.1184 18.24 78.2784 17.96C78.4451 17.68 78.6784 17.47 78.9784 17.33C79.2851 17.19 79.6451 17.12 80.0584 17.12C80.4718 17.12 80.8284 17.19 81.1284 17.33C81.4351 17.47 81.6718 17.68 81.8384 17.96C82.0051 18.24 82.0884 18.59 82.0884 19.01V21.21C82.0884 21.63 82.0051 21.98 81.8384 22.26C81.6718 22.54 81.4351 22.75 81.1284 22.89C80.8284 23.03 80.4718 23.1 80.0584 23.1ZM80.0684 22.02C80.1751 22.02 80.2584 21.9933 80.3184 21.94C80.3784 21.88 80.4184 21.8 80.4384 21.7C80.4651 21.5933 80.4784 21.4667 80.4784 21.32V18.9C80.4784 18.7533 80.4651 18.63 80.4384 18.53C80.4184 18.4233 80.3784 18.3433 80.3184 18.29C80.2584 18.23 80.1751 18.2 80.0684 18.2C79.9618 18.2 79.8784 18.23 79.8184 18.29C79.7584 18.3433 79.7151 18.4233 79.6884 18.53C79.6618 18.63 79.6484 18.7533 79.6484 18.9V21.32C79.6484 21.4667 79.6618 21.5933 79.6884 21.7C79.7151 21.8 79.7584 21.88 79.8184 21.94C79.8784 21.9933 79.9618 22.02 80.0684 22.02ZM87.341 23.06C86.9077 23.06 86.571 22.9967 86.331 22.87C86.0977 22.7433 85.9377 22.56 85.851 22.32C85.7643 22.0733 85.721 21.7767 85.721 21.43V18.29H85.161V17.22H85.721V15.46H87.371V17.22H88.191V18.29H87.371V21.27C87.371 21.4367 87.4177 21.5567 87.511 21.63C87.611 21.7033 87.7343 21.74 87.881 21.74C87.9677 21.74 88.0477 21.7367 88.121 21.73C88.1943 21.7167 88.261 21.7067 88.321 21.7V22.98C88.2343 22.9933 88.0977 23.01 87.911 23.03C87.7243 23.05 87.5343 23.06 87.341 23.06ZM89.0962 23V14.9H90.7162V17.73C90.9295 17.5167 91.1528 17.3633 91.3862 17.27C91.6195 17.17 91.8695 17.12 92.1362 17.12C92.3695 17.12 92.5628 17.18 92.7162 17.3C92.8762 17.4133 92.9962 17.5733 93.0762 17.78C93.1562 17.98 93.1962 18.21 93.1962 18.47V23H91.5762V18.7C91.5762 18.56 91.5528 18.4533 91.5062 18.38C91.4595 18.3067 91.3728 18.27 91.2462 18.27C91.1795 18.27 91.0995 18.29 91.0062 18.33C90.9128 18.3633 90.8162 18.4133 90.7162 18.48V23H89.0962ZM96.0641 23.1C95.6441 23.1 95.2841 23.0267 94.9841 22.88C94.6841 22.7267 94.4541 22.5067 94.2941 22.22C94.1341 21.9267 94.0541 21.5767 94.0541 21.17V19.05C94.0541 18.6367 94.1341 18.2867 94.2941 18C94.4541 17.7133 94.6841 17.4967 94.9841 17.35C95.2907 17.1967 95.6507 17.12 96.0641 17.12C96.4907 17.12 96.8441 17.1933 97.1241 17.34C97.4107 17.4867 97.6241 17.7033 97.7641 17.99C97.9107 18.2767 97.9841 18.63 97.9841 19.05V20.21H95.6641V21.32C95.6641 21.4667 95.6807 21.5867 95.7141 21.68C95.7474 21.7733 95.7941 21.84 95.8541 21.88C95.9141 21.92 95.9841 21.94 96.0641 21.94C96.1441 21.94 96.2141 21.9233 96.2741 21.89C96.3407 21.85 96.3907 21.79 96.4241 21.71C96.4641 21.63 96.4841 21.52 96.4841 21.38V20.77H97.9841V21.33C97.9841 21.9167 97.8141 22.36 97.4741 22.66C97.1341 22.9533 96.6641 23.1 96.0641 23.1ZM95.6641 19.45H96.4841V18.87C96.4841 18.7167 96.4641 18.5967 96.4241 18.51C96.3907 18.4233 96.3407 18.3633 96.2741 18.33C96.2141 18.2967 96.1407 18.28 96.0541 18.28C95.9741 18.28 95.9041 18.3 95.8441 18.34C95.7907 18.38 95.7474 18.45 95.7141 18.55C95.6807 18.6433 95.6641 18.78 95.6641 18.96V19.45ZM103.33 23.1C102.917 23.1 102.557 23.03 102.25 22.89C101.95 22.75 101.717 22.54 101.55 22.26C101.39 21.98 101.31 21.63 101.31 21.21V19.01C101.31 18.59 101.39 18.24 101.55 17.96C101.717 17.68 101.95 17.47 102.25 17.33C102.557 17.19 102.917 17.12 103.33 17.12C103.743 17.12 104.1 17.19 104.4 17.33C104.707 17.47 104.943 17.68 105.11 17.96C105.277 18.24 105.36 18.59 105.36 19.01V21.21C105.36 21.63 105.277 21.98 105.11 22.26C104.943 22.54 104.707 22.75 104.4 22.89C104.1 23.03 103.743 23.1 103.33 23.1ZM103.34 22.02C103.447 22.02 103.53 21.9933 103.59 21.94C103.65 21.88 103.69 21.8 103.71 21.7C103.737 21.5933 103.75 21.4667 103.75 21.32V18.9C103.75 18.7533 103.737 18.63 103.71 18.53C103.69 18.4233 103.65 18.3433 103.59 18.29C103.53 18.23 103.447 18.2 103.34 18.2C103.233 18.2 103.15 18.23 103.09 18.29C103.03 18.3433 102.987 18.4233 102.96 18.53C102.933 18.63 102.92 18.7533 102.92 18.9V21.32C102.92 21.4667 102.933 21.5933 102.96 21.7C102.987 21.8 103.03 21.88 103.09 21.94C103.15 21.9933 103.233 22.02 103.34 22.02ZM106.264 23V17.22H107.894V17.8C108.107 17.5867 108.327 17.42 108.554 17.3C108.787 17.18 109.031 17.12 109.284 17.12C109.524 17.12 109.721 17.18 109.874 17.3C110.034 17.4133 110.154 17.5733 110.234 17.78C110.314 17.98 110.354 18.21 110.354 18.47V23H108.734V18.7C108.734 18.56 108.711 18.4533 108.664 18.38C108.617 18.3067 108.531 18.27 108.404 18.27C108.337 18.27 108.257 18.29 108.164 18.33C108.077 18.3633 107.987 18.4133 107.894 18.48V23H106.264ZM113.222 23.1C112.802 23.1 112.442 23.0267 112.142 22.88C111.842 22.7267 111.612 22.5067 111.452 22.22C111.292 21.9267 111.212 21.5767 111.212 21.17V19.05C111.212 18.6367 111.292 18.2867 111.452 18C111.612 17.7133 111.842 17.4967 112.142 17.35C112.449 17.1967 112.809 17.12 113.222 17.12C113.649 17.12 114.002 17.1933 114.282 17.34C114.569 17.4867 114.782 17.7033 114.922 17.99C115.069 18.2767 115.142 18.63 115.142 19.05V20.21H112.822V21.32C112.822 21.4667 112.839 21.5867 112.872 21.68C112.906 21.7733 112.952 21.84 113.012 21.88C113.072 21.92 113.142 21.94 113.222 21.94C113.302 21.94 113.372 21.9233 113.432 21.89C113.499 21.85 113.549 21.79 113.582 21.71C113.622 21.63 113.642 21.52 113.642 21.38V20.77H115.142V21.33C115.142 21.9167 114.972 22.36 114.632 22.66C114.292 22.9533 113.822 23.1 113.222 23.1ZM112.822 19.45H113.642V18.87C113.642 18.7167 113.622 18.5967 113.582 18.51C113.549 18.4233 113.499 18.3633 113.432 18.33C113.372 18.2967 113.299 18.28 113.212 18.28C113.132 18.28 113.062 18.3 113.002 18.34C112.949 18.38 112.906 18.45 112.872 18.55C112.839 18.6433 112.822 18.78 112.822 18.96V19.45ZM29.2748 38L28.4248 32.22H29.7848L30.2048 35.5L30.6548 32.22H31.8348L32.2248 35.58L32.7148 32.22H33.9748L33.1148 38H31.7148L31.2148 34.75L30.6548 38H29.2748ZM34.7016 38V29.9H36.3216V32.73C36.535 32.5167 36.7583 32.3633 36.9916 32.27C37.225 32.17 37.475 32.12 37.7416 32.12C37.975 32.12 38.1683 32.18 38.3216 32.3C38.4816 32.4133 38.6016 32.5733 38.6816 32.78C38.7616 32.98 38.8016 33.21 38.8016 33.47V38H37.1816V33.7C37.1816 33.56 37.1583 33.4533 37.1116 33.38C37.065 33.3067 36.9783 33.27 36.8516 33.27C36.785 33.27 36.705 33.29 36.6116 33.33C36.5183 33.3633 36.4216 33.4133 36.3216 33.48V38H34.7016ZM41.6795 38.1C41.2662 38.1 40.9062 38.03 40.5995 37.89C40.2995 37.75 40.0662 37.54 39.8995 37.26C39.7395 36.98 39.6595 36.63 39.6595 36.21V34.01C39.6595 33.59 39.7395 33.24 39.8995 32.96C40.0662 32.68 40.2995 32.47 40.5995 32.33C40.9062 32.19 41.2662 32.12 41.6795 32.12C42.0929 32.12 42.4495 32.19 42.7495 32.33C43.0562 32.47 43.2929 32.68 43.4595 32.96C43.6262 33.24 43.7095 33.59 43.7095 34.01V36.21C43.7095 36.63 43.6262 36.98 43.4595 37.26C43.2929 37.54 43.0562 37.75 42.7495 37.89C42.4495 38.03 42.0929 38.1 41.6795 38.1ZM41.6895 37.02C41.7962 37.02 41.8795 36.9933 41.9395 36.94C41.9995 36.88 42.0395 36.8 42.0595 36.7C42.0862 36.5933 42.0995 36.4667 42.0995 36.32V33.9C42.0995 33.7533 42.0862 33.63 42.0595 33.53C42.0395 33.4233 41.9995 33.3433 41.9395 33.29C41.8795 33.23 41.7962 33.2 41.6895 33.2C41.5829 33.2 41.4995 33.23 41.4395 33.29C41.3795 33.3433 41.3362 33.4233 41.3095 33.53C41.2829 33.63 41.2695 33.7533 41.2695 33.9V36.32C41.2695 36.4667 41.2829 36.5933 41.3095 36.7C41.3362 36.8 41.3795 36.88 41.4395 36.94C41.4995 36.9933 41.5829 37.02 41.6895 37.02ZM47.7221 38L46.8721 32.22H48.2321L48.6521 35.5L49.1021 32.22H50.2821L50.6721 35.58L51.1621 32.22H52.4221L51.5621 38H50.1621L49.6621 34.75L49.1021 38H47.7221ZM53.1489 38V32.22H54.7789V38H53.1489ZM53.1389 31.24V30.11H54.7789V31.24H53.1389ZM55.8554 38V29.9H57.4754V38H55.8554ZM58.5995 38V29.9H60.2195V38H58.5995ZM63.8323 39.9V32.22H65.4623V32.64C65.6556 32.4667 65.8623 32.3367 66.0823 32.25C66.3023 32.1633 66.5123 32.12 66.7123 32.12C66.9323 32.12 67.1189 32.1633 67.2723 32.25C67.4323 32.3367 67.5623 32.46 67.6623 32.62C67.7623 32.7733 67.8356 32.9533 67.8823 33.16C67.9289 33.3667 67.9523 33.5867 67.9523 33.82V36.31C67.9523 36.67 67.9023 36.9833 67.8023 37.25C67.7089 37.5167 67.5689 37.7267 67.3823 37.88C67.1956 38.0267 66.9656 38.1 66.6923 38.1C66.4856 38.1 66.2756 38.0533 66.0623 37.96C65.8556 37.86 65.6556 37.7267 65.4623 37.56V39.9H63.8323ZM65.8923 37.05C65.9989 37.05 66.0823 37.02 66.1423 36.96C66.2023 36.9 66.2456 36.8233 66.2723 36.73C66.3056 36.63 66.3223 36.52 66.3223 36.4V33.7C66.3223 33.5867 66.3089 33.4867 66.2823 33.4C66.2556 33.3067 66.2123 33.2333 66.1523 33.18C66.0923 33.1267 66.0156 33.1 65.9223 33.1C65.8356 33.1 65.7523 33.12 65.6723 33.16C65.5989 33.1933 65.5289 33.24 65.4623 33.3V36.9C65.5356 36.9467 65.6056 36.9833 65.6723 37.01C65.7456 37.0367 65.8189 37.05 65.8923 37.05ZM68.9511 38V29.9H70.5711V38H68.9511ZM72.8152 38.1C72.5219 38.1 72.2752 38.03 72.0752 37.89C71.8752 37.75 71.7252 37.5733 71.6252 37.36C71.5252 37.14 71.4752 36.9167 71.4752 36.69C71.4752 36.33 71.5452 36.0267 71.6852 35.78C71.8319 35.5333 72.0219 35.3267 72.2552 35.16C72.4886 34.9933 72.7452 34.8533 73.0252 34.74C73.3052 34.62 73.5819 34.5133 73.8552 34.42V33.84C73.8552 33.74 73.8452 33.6533 73.8252 33.58C73.8052 33.5 73.7719 33.44 73.7252 33.4C73.6786 33.3533 73.6086 33.33 73.5152 33.33C73.4219 33.33 73.3486 33.35 73.2952 33.39C73.2486 33.43 73.2152 33.4867 73.1952 33.56C73.1752 33.6267 73.1619 33.7033 73.1552 33.79L73.1152 34.21L71.5952 34.15C71.6286 33.4567 71.8119 32.9467 72.1452 32.62C72.4852 32.2867 72.9919 32.12 73.6652 32.12C74.2519 32.12 74.6886 32.2833 74.9752 32.61C75.2686 32.93 75.4152 33.3467 75.4152 33.86V36.56C75.4152 36.8 75.4186 37.01 75.4252 37.19C75.4386 37.37 75.4519 37.5267 75.4652 37.66C75.4852 37.7933 75.5019 37.9067 75.5152 38H74.0552C74.0352 37.8467 74.0119 37.68 73.9852 37.5C73.9586 37.32 73.9386 37.2133 73.9252 37.18C73.8586 37.42 73.7319 37.6333 73.5452 37.82C73.3652 38.0067 73.1219 38.1 72.8152 38.1ZM73.3952 37C73.4619 37 73.5219 36.9867 73.5752 36.96C73.6352 36.9333 73.6886 36.8967 73.7352 36.85C73.7819 36.8033 73.8219 36.7567 73.8552 36.71V35.13C73.7219 35.21 73.5986 35.2933 73.4852 35.38C73.3719 35.46 73.2752 35.55 73.1952 35.65C73.1152 35.75 73.0519 35.86 73.0052 35.98C72.9652 36.0933 72.9452 36.2233 72.9452 36.37C72.9452 36.5633 72.9852 36.7167 73.0652 36.83C73.1452 36.9433 73.2552 37 73.3952 37ZM76.5411 39.68V38.55C76.7478 38.55 76.9178 38.5367 77.0511 38.51C77.1911 38.4833 77.2944 38.4333 77.3611 38.36C77.4344 38.2867 77.4711 38.1867 77.4711 38.06C77.4711 37.9467 77.4511 37.81 77.4111 37.65C77.3711 37.4833 77.3211 37.2967 77.2611 37.09L75.9011 32.22H77.4311L78.1611 35.56L78.7111 32.22H80.2511L78.9211 38.14C78.8344 38.54 78.6978 38.85 78.5111 39.07C78.3244 39.2967 78.0944 39.4533 77.8211 39.54C77.5544 39.6333 77.2511 39.68 76.9111 39.68H76.5411ZM85.4621 38.15C84.8688 38.15 84.4188 38.0467 84.1121 37.84C83.8121 37.6267 83.6088 37.33 83.5021 36.95C83.3954 36.57 83.3421 36.13 83.3421 35.63H84.9521C84.9521 35.9367 84.9688 36.1867 85.0021 36.38C85.0354 36.5733 85.0954 36.7133 85.1821 36.8C85.2754 36.88 85.4054 36.9167 85.5721 36.91C85.7454 36.9033 85.8688 36.8333 85.9421 36.7C86.0154 36.5667 86.0588 36.3767 86.0721 36.13C86.0921 35.8767 86.1021 35.5733 86.1021 35.22C86.1021 34.9533 86.0854 34.7167 86.0521 34.51C86.0254 34.3033 85.9654 34.14 85.8721 34.02C85.7854 33.8933 85.6521 33.83 85.4721 33.83C85.3054 33.83 85.1688 33.89 85.0621 34.01C84.9554 34.13 84.8788 34.3167 84.8321 34.57H83.3921L83.5421 29.9H87.3221V31.3H84.8821L84.7921 32.97C84.8588 32.8767 84.9854 32.7967 85.1721 32.73C85.3588 32.6567 85.5588 32.61 85.7721 32.59C86.1854 32.5433 86.5321 32.62 86.8121 32.82C87.0988 33.0133 87.3121 33.31 87.4521 33.71C87.5988 34.11 87.6721 34.6 87.6721 35.18C87.6721 35.6133 87.6454 36.0133 87.5921 36.38C87.5388 36.74 87.4354 37.0533 87.2821 37.32C87.1288 37.58 86.9054 37.7833 86.6121 37.93C86.3188 38.0767 85.9354 38.15 85.4621 38.15ZM90.75 38.15C90.2633 38.15 89.8567 38.0533 89.53 37.86C89.2033 37.66 88.9567 37.3867 88.79 37.04C88.6233 36.6933 88.54 36.29 88.54 35.83V32.16C88.54 31.6867 88.6167 31.2733 88.77 30.92C88.93 30.56 89.1733 30.28 89.5 30.08C89.8267 29.88 90.2433 29.78 90.75 29.78C91.2567 29.78 91.67 29.88 91.99 30.08C92.3167 30.28 92.5567 30.56 92.71 30.92C92.87 31.2733 92.95 31.6867 92.95 32.16V35.83C92.95 36.2833 92.8667 36.6867 92.7 37.04C92.5333 37.3867 92.2867 37.66 91.96 37.86C91.6333 38.0533 91.23 38.15 90.75 38.15ZM90.75 36.66C90.91 36.66 91.0233 36.61 91.09 36.51C91.1633 36.4033 91.2067 36.2833 91.22 36.15C91.24 36.01 91.25 35.89 91.25 35.79V32.2C91.25 32.0867 91.2433 31.96 91.23 31.82C91.2167 31.6733 91.1733 31.5467 91.1 31.44C91.0333 31.3267 90.9167 31.27 90.75 31.27C90.5833 31.27 90.4633 31.3267 90.39 31.44C90.3233 31.5467 90.2833 31.6733 90.27 31.82C90.2567 31.96 90.25 32.0867 90.25 32.2V35.79C90.25 35.89 90.26 36.01 90.28 36.15C90.3 36.2833 90.3433 36.4033 90.41 36.51C90.4833 36.61 90.5967 36.66 90.75 36.66ZM96.248 38.15C95.7614 38.15 95.3547 38.0533 95.028 37.86C94.7014 37.66 94.4547 37.3867 94.288 37.04C94.1214 36.6933 94.038 36.29 94.038 35.83V32.16C94.038 31.6867 94.1147 31.2733 94.268 30.92C94.428 30.56 94.6714 30.28 94.998 30.08C95.3247 29.88 95.7414 29.78 96.248 29.78C96.7547 29.78 97.168 29.88 97.488 30.08C97.8147 30.28 98.0547 30.56 98.208 30.92C98.368 31.2733 98.448 31.6867 98.448 32.16V35.83C98.448 36.2833 98.3647 36.6867 98.198 37.04C98.0314 37.3867 97.7847 37.66 97.458 37.86C97.1314 38.0533 96.728 38.15 96.248 38.15ZM96.248 36.66C96.408 36.66 96.5214 36.61 96.588 36.51C96.6614 36.4033 96.7047 36.2833 96.718 36.15C96.738 36.01 96.748 35.89 96.748 35.79V32.2C96.748 32.0867 96.7414 31.96 96.728 31.82C96.7147 31.6733 96.6714 31.5467 96.598 31.44C96.5314 31.3267 96.4147 31.27 96.248 31.27C96.0814 31.27 95.9614 31.3267 95.888 31.44C95.8214 31.5467 95.7814 31.6733 95.768 31.82C95.7547 31.96 95.748 32.0867 95.748 32.2V35.79C95.748 35.89 95.758 36.01 95.778 36.15C95.798 36.2833 95.8414 36.4033 95.908 36.51C95.9814 36.61 96.0947 36.66 96.248 36.66ZM103.945 40C103.511 40 103.135 39.9567 102.815 39.87C102.495 39.7833 102.245 39.6533 102.065 39.48C101.891 39.3067 101.805 39.0867 101.805 38.82C101.805 38.64 101.841 38.4767 101.915 38.33C101.995 38.19 102.101 38.0667 102.235 37.96C102.375 37.8467 102.531 37.75 102.705 37.67C102.451 37.5967 102.255 37.4867 102.115 37.34C101.975 37.1933 101.905 36.9967 101.905 36.75C101.905 36.5167 101.961 36.3167 102.075 36.15C102.188 35.9767 102.345 35.8033 102.545 35.63C102.358 35.4633 102.215 35.26 102.115 35.02C102.021 34.7733 101.975 34.4767 101.975 34.13C101.975 33.6967 102.055 33.33 102.215 33.03C102.375 32.73 102.608 32.5033 102.915 32.35C103.228 32.1967 103.605 32.12 104.045 32.12C104.345 32.12 104.608 32.1567 104.835 32.23C105.061 32.3033 105.255 32.4167 105.415 32.57C105.488 32.4567 105.585 32.3467 105.705 32.24C105.825 32.1333 105.961 32.0433 106.115 31.97L106.325 31.87L106.705 32.65C106.645 32.67 106.561 32.7033 106.455 32.75C106.348 32.7967 106.235 32.8467 106.115 32.9C106.001 32.9533 105.898 33.0067 105.805 33.06C105.878 33.2067 105.935 33.3733 105.975 33.56C106.015 33.7467 106.035 33.94 106.035 34.14C106.035 34.5533 105.958 34.91 105.805 35.21C105.658 35.51 105.438 35.74 105.145 35.9C104.851 36.0533 104.485 36.13 104.045 36.13C103.858 36.13 103.681 36.1167 103.515 36.09C103.348 36.0567 103.195 36.0167 103.055 35.97C103.015 36.0233 102.978 36.08 102.945 36.14C102.918 36.1933 102.905 36.2533 102.905 36.32C102.905 36.4 102.945 36.4633 103.025 36.51C103.105 36.5567 103.248 36.5933 103.455 36.62L104.975 36.79C105.468 36.8433 105.831 37.0033 106.065 37.27C106.298 37.53 106.415 37.8733 106.415 38.3C106.415 38.6667 106.331 38.9767 106.165 39.23C106.005 39.4833 105.741 39.6733 105.375 39.8C105.015 39.9333 104.538 40 103.945 40ZM104.155 38.82C104.521 38.82 104.801 38.79 104.995 38.73C105.195 38.67 105.295 38.5467 105.295 38.36C105.295 38.2667 105.268 38.19 105.215 38.13C105.161 38.0767 105.071 38.0333 104.945 38C104.825 37.96 104.651 37.93 104.425 37.91L103.355 37.8C103.288 37.8467 103.228 37.9 103.175 37.96C103.128 38.0133 103.088 38.07 103.055 38.13C103.028 38.1967 103.015 38.2667 103.015 38.34C103.015 38.5 103.101 38.62 103.275 38.7C103.448 38.78 103.741 38.82 104.155 38.82ZM104.045 35.16C104.138 35.16 104.215 35.1433 104.275 35.11C104.335 35.07 104.378 35.01 104.405 34.93C104.438 34.85 104.461 34.7433 104.475 34.61C104.488 34.4767 104.495 34.3167 104.495 34.13C104.495 33.9367 104.488 33.7767 104.475 33.65C104.461 33.5167 104.438 33.41 104.405 33.33C104.378 33.2433 104.335 33.1833 104.275 33.15C104.215 33.11 104.138 33.09 104.045 33.09C103.951 33.09 103.875 33.11 103.815 33.15C103.755 33.1833 103.708 33.24 103.675 33.32C103.648 33.4 103.628 33.5067 103.615 33.64C103.601 33.7733 103.595 33.9367 103.595 34.13C103.595 34.3167 103.601 34.4767 103.615 34.61C103.628 34.7367 103.648 34.8433 103.675 34.93C103.708 35.01 103.755 35.07 103.815 35.11C103.875 35.1433 103.951 35.16 104.045 35.16ZM108.264 38.1C107.971 38.1 107.724 38.03 107.524 37.89C107.324 37.75 107.174 37.5733 107.074 37.36C106.974 37.14 106.924 36.9167 106.924 36.69C106.924 36.33 106.994 36.0267 107.134 35.78C107.281 35.5333 107.471 35.3267 107.704 35.16C107.938 34.9933 108.194 34.8533 108.474 34.74C108.754 34.62 109.031 34.5133 109.304 34.42V33.84C109.304 33.74 109.294 33.6533 109.274 33.58C109.254 33.5 109.221 33.44 109.174 33.4C109.128 33.3533 109.058 33.33 108.964 33.33C108.871 33.33 108.798 33.35 108.744 33.39C108.698 33.43 108.664 33.4867 108.644 33.56C108.624 33.6267 108.611 33.7033 108.604 33.79L108.564 34.21L107.044 34.15C107.078 33.4567 107.261 32.9467 107.594 32.62C107.934 32.2867 108.441 32.12 109.114 32.12C109.701 32.12 110.138 32.2833 110.424 32.61C110.718 32.93 110.864 33.3467 110.864 33.86V36.56C110.864 36.8 110.868 37.01 110.874 37.19C110.888 37.37 110.901 37.5267 110.914 37.66C110.934 37.7933 110.951 37.9067 110.964 38H109.504C109.484 37.8467 109.461 37.68 109.434 37.5C109.408 37.32 109.388 37.2133 109.374 37.18C109.308 37.42 109.181 37.6333 108.994 37.82C108.814 38.0067 108.571 38.1 108.264 38.1ZM108.844 37C108.911 37 108.971 36.9867 109.024 36.96C109.084 36.9333 109.138 36.8967 109.184 36.85C109.231 36.8033 109.271 36.7567 109.304 36.71V35.13C109.171 35.21 109.048 35.2933 108.934 35.38C108.821 35.46 108.724 35.55 108.644 35.65C108.564 35.75 108.501 35.86 108.454 35.98C108.414 36.0933 108.394 36.2233 108.394 36.37C108.394 36.5633 108.434 36.7167 108.514 36.83C108.594 36.9433 108.704 37 108.844 37ZM111.83 38V32.22H113.43V32.68C113.644 32.4733 113.864 32.3267 114.09 32.24C114.324 32.1533 114.56 32.11 114.8 32.11C115.034 32.11 115.234 32.17 115.4 32.29C115.574 32.4033 115.704 32.5733 115.79 32.8C116.017 32.5467 116.254 32.37 116.5 32.27C116.754 32.1633 117.007 32.11 117.26 32.11C117.487 32.11 117.684 32.1667 117.85 32.28C118.017 32.3867 118.147 32.5467 118.24 32.76C118.334 32.9667 118.38 33.2167 118.38 33.51V38H116.78V33.68C116.78 33.52 116.75 33.4067 116.69 33.34C116.637 33.2667 116.554 33.23 116.44 33.23C116.374 33.23 116.29 33.25 116.19 33.29C116.09 33.3233 115.994 33.3733 115.9 33.44C115.9 33.4533 115.9 33.4667 115.9 33.48C115.9 33.4867 115.9 33.4967 115.9 33.51V38H114.32V33.68C114.32 33.52 114.29 33.4067 114.23 33.34C114.17 33.2667 114.084 33.23 113.97 33.23C113.897 33.23 113.81 33.25 113.71 33.29C113.617 33.3233 113.524 33.3733 113.43 33.44V38H111.83ZM121.25 38.1C120.83 38.1 120.47 38.0267 120.17 37.88C119.87 37.7267 119.64 37.5067 119.48 37.22C119.32 36.9267 119.24 36.5767 119.24 36.17V34.05C119.24 33.6367 119.32 33.2867 119.48 33C119.64 32.7133 119.87 32.4967 120.17 32.35C120.476 32.1967 120.836 32.12 121.25 32.12C121.676 32.12 122.03 32.1933 122.31 32.34C122.596 32.4867 122.81 32.7033 122.95 32.99C123.096 33.2767 123.17 33.63 123.17 34.05V35.21H120.85V36.32C120.85 36.4667 120.866 36.5867 120.9 36.68C120.933 36.7733 120.98 36.84 121.04 36.88C121.1 36.92 121.17 36.94 121.25 36.94C121.33 36.94 121.4 36.9233 121.46 36.89C121.526 36.85 121.576 36.79 121.61 36.71C121.65 36.63 121.67 36.52 121.67 36.38V35.77H123.17V36.33C123.17 36.9167 123 37.36 122.66 37.66C122.32 37.9533 121.85 38.1 121.25 38.1ZM120.85 34.45H121.67V33.87C121.67 33.7167 121.65 33.5967 121.61 33.51C121.576 33.4233 121.526 33.3633 121.46 33.33C121.4 33.2967 121.326 33.28 121.24 33.28C121.16 33.28 121.09 33.3 121.03 33.34C120.976 33.38 120.933 33.45 120.9 33.55C120.866 33.6433 120.85 33.78 120.85 33.96V34.45ZM125.837 38.1C125.33 38.1 124.907 37.9867 124.567 37.76C124.234 37.5333 123.96 37.1633 123.747 36.65L124.857 36.16C124.964 36.42 125.087 36.6267 125.227 36.78C125.374 36.9267 125.534 37 125.707 37C125.834 37 125.927 36.9733 125.987 36.92C126.054 36.8667 126.087 36.7933 126.087 36.7C126.087 36.5467 126.027 36.4067 125.907 36.28C125.794 36.1533 125.587 35.9667 125.287 35.72L124.867 35.37C124.56 35.11 124.317 34.86 124.137 34.62C123.964 34.3733 123.877 34.07 123.877 33.71C123.877 33.3967 123.957 33.12 124.117 32.88C124.284 32.64 124.504 32.4533 124.777 32.32C125.05 32.1867 125.344 32.12 125.657 32.12C126.13 32.12 126.527 32.25 126.847 32.51C127.167 32.77 127.39 33.1367 127.517 33.61L126.467 34.09C126.427 33.9633 126.37 33.8367 126.297 33.71C126.224 33.5833 126.134 33.4767 126.027 33.39C125.927 33.3033 125.817 33.26 125.697 33.26C125.59 33.26 125.504 33.29 125.437 33.35C125.377 33.41 125.347 33.49 125.347 33.59C125.347 33.7167 125.417 33.8533 125.557 34C125.704 34.1467 125.904 34.3233 126.157 34.53L126.567 34.89C126.734 35.03 126.897 35.18 127.057 35.34C127.217 35.5 127.347 35.6767 127.447 35.87C127.554 36.0633 127.607 36.2833 127.607 36.53C127.607 36.8633 127.524 37.15 127.357 37.39C127.19 37.6233 126.97 37.8 126.697 37.92C126.43 38.04 126.144 38.1 125.837 38.1Z"></path>
</svg>
