<svg xmlns="http://www.w3.org/2000/svg" fill="none" viewBox="0 0 70 18" height="18" width="70">
<path fill="#0D0E12" d="M1.596 14V5.876H0.132V4.28H5.208V5.876H3.756V14H1.596ZM8.754 14.144C8.026 14.144 7.45 14.016 7.026 13.76C6.602 13.504 6.298 13.136 6.114 12.656C5.93 12.176 5.838 11.604 5.838 10.94V7.328C5.838 6.656 5.93 6.084 6.114 5.612C6.298 5.14 6.602 4.78 7.026 4.532C7.45 4.276 8.026 4.148 8.754 4.148C9.49 4.148 10.07 4.276 10.494 4.532C10.926 4.78 11.234 5.14 11.418 5.612C11.602 6.084 11.694 6.656 11.694 7.328V10.94C11.694 11.604 11.602 12.176 11.418 12.656C11.234 13.136 10.926 13.504 10.494 13.76C10.07 14.016 9.49 14.144 8.754 14.144ZM8.754 12.62C8.978 12.62 9.142 12.564 9.246 12.452C9.35 12.34 9.418 12.196 9.45 12.02C9.482 11.844 9.498 11.664 9.498 11.48V6.8C9.498 6.608 9.482 6.428 9.45 6.26C9.418 6.084 9.35 5.94 9.246 5.828C9.142 5.716 8.978 5.66 8.754 5.66C8.546 5.66 8.39 5.716 8.286 5.828C8.182 5.94 8.114 6.084 8.082 6.26C8.05 6.428 8.034 6.608 8.034 6.8V11.48C8.034 11.664 8.046 11.844 8.07 12.02C8.102 12.196 8.166 12.34 8.262 12.452C8.366 12.564 8.53 12.62 8.754 12.62ZM13.7835 14V5.876H12.3195V4.28H17.3955V5.876H15.9435V14H13.7835ZM17.3497 14L19.1857 4.28H21.6337L23.4457 14H21.4657L21.1417 11.948H19.7137L19.3777 14H17.3497ZM19.9057 10.664H20.9377L20.4217 6.872L19.9057 10.664ZM24.427 14V4.28H26.575V12.548H28.807V14H24.427ZM35.3497 14.144C34.6777 14.144 34.1457 14.004 33.7537 13.724C33.3697 13.444 33.0937 13.052 32.9257 12.548C32.7657 12.036 32.6857 11.448 32.6857 10.784V7.52C32.6857 6.832 32.7737 6.236 32.9497 5.732C33.1257 5.228 33.4257 4.84 33.8497 4.568C34.2817 4.288 34.8657 4.148 35.6017 4.148C36.3217 4.148 36.8857 4.268 37.2937 4.508C37.7097 4.748 38.0057 5.08 38.1817 5.504C38.3577 5.928 38.4457 6.424 38.4457 6.992V7.616H36.3457V6.824C36.3457 6.616 36.3297 6.424 36.2977 6.248C36.2737 6.072 36.2097 5.932 36.1057 5.828C36.0097 5.716 35.8497 5.66 35.6257 5.66C35.3937 5.66 35.2257 5.724 35.1217 5.852C35.0177 5.972 34.9497 6.124 34.9177 6.308C34.8937 6.492 34.8817 6.684 34.8817 6.884V11.384C34.8817 11.6 34.9017 11.804 34.9417 11.996C34.9897 12.18 35.0697 12.332 35.1817 12.452C35.3017 12.564 35.4697 12.62 35.6857 12.62C35.9097 12.62 36.0817 12.56 36.2017 12.44C36.3217 12.32 36.4057 12.164 36.4537 11.972C36.5017 11.78 36.5257 11.576 36.5257 11.36V10.22H35.6497V8.96H38.4577V14H37.0417L36.9217 13.196C36.7937 13.468 36.6057 13.696 36.3577 13.88C36.1097 14.056 35.7737 14.144 35.3497 14.144ZM39.334 14L41.17 4.28H43.618L45.43 14H43.45L43.126 11.948H41.698L41.362 14H39.334ZM41.89 10.664H42.922L42.406 6.872L41.89 10.664ZM46.3754 14L46.5434 4.28H48.8474L49.9154 9.932L51.0674 4.28H53.2874L53.4554 14H51.9314L51.7514 7.532L50.6234 14H49.2674L48.0674 7.484L47.9234 14H46.3754ZM54.8606 14V4.28H59.2286V5.744H57.0086V8.156H58.7006V9.644H57.0086V12.548H59.2526V14H54.8606ZM62.8078 14.144C62.1998 14.144 61.6918 14.036 61.2838 13.82C60.8758 13.604 60.5678 13.272 60.3598 12.824C60.1518 12.368 60.0358 11.78 60.0118 11.06L61.8478 10.784C61.8558 11.2 61.8918 11.536 61.9558 11.792C62.0278 12.048 62.1238 12.232 62.2438 12.344C62.3718 12.456 62.5238 12.512 62.6998 12.512C62.9238 12.512 63.0678 12.436 63.1318 12.284C63.2038 12.132 63.2398 11.972 63.2398 11.804C63.2398 11.404 63.1438 11.068 62.9518 10.796C62.7598 10.516 62.4998 10.236 62.1718 9.956L61.3318 9.224C60.9638 8.912 60.6518 8.56 60.3958 8.168C60.1478 7.768 60.0238 7.276 60.0238 6.692C60.0238 5.868 60.2678 5.24 60.7558 4.808C61.2438 4.368 61.9078 4.148 62.7478 4.148C63.2678 4.148 63.6838 4.236 63.9958 4.412C64.3158 4.588 64.5558 4.82 64.7158 5.108C64.8838 5.388 64.9958 5.688 65.0518 6.008C65.1158 6.32 65.1518 6.62 65.1598 6.908L63.3118 7.136C63.3038 6.848 63.2838 6.6 63.2518 6.392C63.2278 6.176 63.1718 6.012 63.0838 5.9C62.9958 5.78 62.8598 5.72 62.6758 5.72C62.4758 5.72 62.3278 5.804 62.2318 5.972C62.1438 6.14 62.0998 6.308 62.0998 6.476C62.0998 6.836 62.1838 7.132 62.3518 7.364C62.5278 7.588 62.7558 7.824 63.0358 8.072L63.8398 8.78C64.2638 9.14 64.6198 9.548 64.9078 10.004C65.2038 10.46 65.3518 11.024 65.3518 11.696C65.3518 12.152 65.2478 12.568 65.0398 12.944C64.8318 13.312 64.5358 13.604 64.1518 13.82C63.7758 14.036 63.3278 14.144 62.8078 14.144ZM66.4759 9.056V7.232H68.2999V9.056H66.4759ZM66.4759 13.328V11.504H68.2999V13.328H66.4759Z"></path>
<rect fill-opacity="0.01" fill="white" height="18" width="70"></rect>
</svg>
