<svg xmlns="http://www.w3.org/2000/svg" fill="none" viewBox="0 0 480 360" height="360" width="480">
<rect fill="white" height="360" width="480"></rect>
<rect fill="#0D0E12" height="30" width="480"></rect>
<mask height="38" width="38" y="40" x="132" maskUnits="userSpaceOnUse" style="mask-type:alpha" id="mask0_309_2">
<rect fill="#ECECEC" height="38" width="38" y="40" x="132"></rect>
</mask>
<g mask="url(#mask0_309_2)">
<rect fill="#D0D0D0" transform="rotate(45 151.184 20)" height="55.7253" width="1" y="20" x="151.184"></rect>
<rect fill="#D0D0D0" transform="rotate(45 168.154 36.9706)" height="55.7253" width="1" y="36.9706" x="168.154"></rect>
<rect fill="#D0D0D0" transform="rotate(45 159.669 28.4852)" height="55.7253" width="1" y="28.4852" x="159.669"></rect>
<rect fill="#D0D0D0" transform="rotate(45 176.64 45.4558)" height="55.7253" width="1" y="45.4558" x="176.64"></rect>
<rect fill="#D0D0D0" transform="rotate(45 155.426 24.2427)" height="55.7253" width="1" y="24.2427" x="155.426"></rect>
<rect fill="#D0D0D0" transform="rotate(45 172.397 41.2133)" height="55.7253" width="1" y="41.2133" x="172.397"></rect>
<rect fill="#D0D0D0" transform="rotate(45 163.912 32.7279)" height="55.7253" width="1" y="32.7279" x="163.912"></rect>
<rect fill="#D0D0D0" transform="rotate(45 180.882 49.6985)" height="55.7253" width="1" y="49.6985" x="180.882"></rect>
<rect fill="#D0D0D0" transform="rotate(45 153.305 22.1213)" height="55.7253" width="1" y="22.1213" x="153.305"></rect>
<rect fill="#D0D0D0" transform="rotate(45 170.276 39.0919)" height="55.7253" width="1" y="39.0919" x="170.276"></rect>
<rect fill="#D0D0D0" transform="rotate(45 161.79 30.6066)" height="55.7253" width="1" y="30.6066" x="161.79"></rect>
<rect fill="#D0D0D0" transform="rotate(45 178.761 47.5771)" height="55.7253" width="1" y="47.5771" x="178.761"></rect>
<rect fill="#D0D0D0" transform="rotate(45 157.548 26.364)" height="55.7253" width="1" y="26.364" x="157.548"></rect>
<rect fill="#D0D0D0" transform="rotate(45 174.518 43.3345)" height="55.7253" width="1" y="43.3345" x="174.518"></rect>
<rect fill="#D0D0D0" transform="rotate(45 166.033 34.8492)" height="55.7253" width="1" y="34.8492" x="166.033"></rect>
<rect fill="#D0D0D0" transform="rotate(45 183.004 51.8198)" height="55.7253" width="1" y="51.8198" x="183.004"></rect>
<rect fill="#D0D0D0" transform="rotate(45 185.125 53.9412)" height="55.7253" width="1" y="53.9412" x="185.125"></rect>
<rect fill="#D0D0D0" transform="rotate(45 187.246 56.0625)" height="55.7253" width="1" y="56.0625" x="187.246"></rect>
<rect fill="#D0D0D0" transform="rotate(45 189.368 58.1837)" height="55.7253" width="1" y="58.1837" x="189.368"></rect>
</g>
<mask height="38" width="38" y="116" x="132" maskUnits="userSpaceOnUse" style="mask-type:alpha" id="mask1_309_2">
<rect fill="#ECECEC" height="38" width="38" y="116" x="132"></rect>
</mask>
<g mask="url(#mask1_309_2)">
<rect fill="#D0D0D0" transform="rotate(45 151.184 96)" height="55.7253" width="1" y="96" x="151.184"></rect>
<rect fill="#D0D0D0" transform="rotate(45 168.154 112.971)" height="55.7253" width="1" y="112.971" x="168.154"></rect>
<rect fill="#D0D0D0" transform="rotate(45 159.669 104.485)" height="55.7253" width="1" y="104.485" x="159.669"></rect>
<rect fill="#D0D0D0" transform="rotate(45 176.64 121.456)" height="55.7253" width="1" y="121.456" x="176.64"></rect>
<rect fill="#D0D0D0" transform="rotate(45 155.426 100.243)" height="55.7253" width="1" y="100.243" x="155.426"></rect>
<rect fill="#D0D0D0" transform="rotate(45 172.397 117.213)" height="55.7253" width="1" y="117.213" x="172.397"></rect>
<rect fill="#D0D0D0" transform="rotate(45 163.912 108.728)" height="55.7253" width="1" y="108.728" x="163.912"></rect>
<rect fill="#D0D0D0" transform="rotate(45 180.882 125.698)" height="55.7253" width="1" y="125.698" x="180.882"></rect>
<rect fill="#D0D0D0" transform="rotate(45 153.305 98.1213)" height="55.7253" width="1" y="98.1213" x="153.305"></rect>
<rect fill="#D0D0D0" transform="rotate(45 170.276 115.092)" height="55.7253" width="1" y="115.092" x="170.276"></rect>
<rect fill="#D0D0D0" transform="rotate(45 161.79 106.607)" height="55.7253" width="1" y="106.607" x="161.79"></rect>
<rect fill="#D0D0D0" transform="rotate(45 178.761 123.577)" height="55.7253" width="1" y="123.577" x="178.761"></rect>
<rect fill="#D0D0D0" transform="rotate(45 157.548 102.364)" height="55.7253" width="1" y="102.364" x="157.548"></rect>
<rect fill="#D0D0D0" transform="rotate(45 174.518 119.334)" height="55.7253" width="1" y="119.334" x="174.518"></rect>
<rect fill="#D0D0D0" transform="rotate(45 166.033 110.849)" height="55.7253" width="1" y="110.849" x="166.033"></rect>
<rect fill="#D0D0D0" transform="rotate(45 183.004 127.82)" height="55.7253" width="1" y="127.82" x="183.004"></rect>
<rect fill="#D0D0D0" transform="rotate(45 185.125 129.941)" height="55.7253" width="1" y="129.941" x="185.125"></rect>
<rect fill="#D0D0D0" transform="rotate(45 187.246 132.062)" height="55.7253" width="1" y="132.062" x="187.246"></rect>
<rect fill="#D0D0D0" transform="rotate(45 189.368 134.184)" height="55.7253" width="1" y="134.184" x="189.368"></rect>
</g>
<mask height="38" width="38" y="192" x="132" maskUnits="userSpaceOnUse" style="mask-type:alpha" id="mask2_309_2">
<rect fill="#ECECEC" height="38" width="38" y="192" x="132"></rect>
</mask>
<g mask="url(#mask2_309_2)">
<rect fill="#D0D0D0" transform="rotate(45 151.184 172)" height="55.7253" width="1" y="172" x="151.184"></rect>
<rect fill="#D0D0D0" transform="rotate(45 168.154 188.971)" height="55.7253" width="1" y="188.971" x="168.154"></rect>
<rect fill="#D0D0D0" transform="rotate(45 159.669 180.485)" height="55.7253" width="1" y="180.485" x="159.669"></rect>
<rect fill="#D0D0D0" transform="rotate(45 176.64 197.456)" height="55.7253" width="1" y="197.456" x="176.64"></rect>
<rect fill="#D0D0D0" transform="rotate(45 155.426 176.243)" height="55.7253" width="1" y="176.243" x="155.426"></rect>
<rect fill="#D0D0D0" transform="rotate(45 172.397 193.213)" height="55.7253" width="1" y="193.213" x="172.397"></rect>
<rect fill="#D0D0D0" transform="rotate(45 163.912 184.728)" height="55.7253" width="1" y="184.728" x="163.912"></rect>
<rect fill="#D0D0D0" transform="rotate(45 180.882 201.698)" height="55.7253" width="1" y="201.698" x="180.882"></rect>
<rect fill="#D0D0D0" transform="rotate(45 153.305 174.121)" height="55.7253" width="1" y="174.121" x="153.305"></rect>
<rect fill="#D0D0D0" transform="rotate(45 170.276 191.092)" height="55.7253" width="1" y="191.092" x="170.276"></rect>
<rect fill="#D0D0D0" transform="rotate(45 161.79 182.607)" height="55.7253" width="1" y="182.607" x="161.79"></rect>
<rect fill="#D0D0D0" transform="rotate(45 178.761 199.577)" height="55.7253" width="1" y="199.577" x="178.761"></rect>
<rect fill="#D0D0D0" transform="rotate(45 157.548 178.364)" height="55.7253" width="1" y="178.364" x="157.548"></rect>
<rect fill="#D0D0D0" transform="rotate(45 174.518 195.334)" height="55.7253" width="1" y="195.334" x="174.518"></rect>
<rect fill="#D0D0D0" transform="rotate(45 166.033 186.849)" height="55.7253" width="1" y="186.849" x="166.033"></rect>
<rect fill="#D0D0D0" transform="rotate(45 183.004 203.82)" height="55.7253" width="1" y="203.82" x="183.004"></rect>
<rect fill="#D0D0D0" transform="rotate(45 185.125 205.941)" height="55.7253" width="1" y="205.941" x="185.125"></rect>
<rect fill="#D0D0D0" transform="rotate(45 187.246 208.062)" height="55.7253" width="1" y="208.062" x="187.246"></rect>
<rect fill="#D0D0D0" transform="rotate(45 189.368 210.184)" height="55.7253" width="1" y="210.184" x="189.368"></rect>
</g>
<mask height="38" width="38" y="268" x="132" maskUnits="userSpaceOnUse" style="mask-type:alpha" id="mask3_309_2">
<rect fill="#ECECEC" height="38" width="38" y="268" x="132"></rect>
</mask>
<g mask="url(#mask3_309_2)">
<rect fill="#D0D0D0" transform="rotate(45 151.184 248)" height="55.7253" width="1" y="248" x="151.184"></rect>
<rect fill="#D0D0D0" transform="rotate(45 168.154 264.971)" height="55.7253" width="1" y="264.971" x="168.154"></rect>
<rect fill="#D0D0D0" transform="rotate(45 159.669 256.485)" height="55.7253" width="1" y="256.485" x="159.669"></rect>
<rect fill="#D0D0D0" transform="rotate(45 176.64 273.456)" height="55.7253" width="1" y="273.456" x="176.64"></rect>
<rect fill="#D0D0D0" transform="rotate(45 155.426 252.243)" height="55.7253" width="1" y="252.243" x="155.426"></rect>
<rect fill="#D0D0D0" transform="rotate(45 172.397 269.213)" height="55.7253" width="1" y="269.213" x="172.397"></rect>
<rect fill="#D0D0D0" transform="rotate(45 163.912 260.728)" height="55.7253" width="1" y="260.728" x="163.912"></rect>
<rect fill="#D0D0D0" transform="rotate(45 180.882 277.698)" height="55.7253" width="1" y="277.698" x="180.882"></rect>
<rect fill="#D0D0D0" transform="rotate(45 153.305 250.121)" height="55.7253" width="1" y="250.121" x="153.305"></rect>
<rect fill="#D0D0D0" transform="rotate(45 170.276 267.092)" height="55.7253" width="1" y="267.092" x="170.276"></rect>
<rect fill="#D0D0D0" transform="rotate(45 161.79 258.607)" height="55.7253" width="1" y="258.607" x="161.79"></rect>
<rect fill="#D0D0D0" transform="rotate(45 178.761 275.577)" height="55.7253" width="1" y="275.577" x="178.761"></rect>
<rect fill="#D0D0D0" transform="rotate(45 157.548 254.364)" height="55.7253" width="1" y="254.364" x="157.548"></rect>
<rect fill="#D0D0D0" transform="rotate(45 174.518 271.334)" height="55.7253" width="1" y="271.334" x="174.518"></rect>
<rect fill="#D0D0D0" transform="rotate(45 166.033 262.849)" height="55.7253" width="1" y="262.849" x="166.033"></rect>
<rect fill="#D0D0D0" transform="rotate(45 183.004 279.82)" height="55.7253" width="1" y="279.82" x="183.004"></rect>
<rect fill="#D0D0D0" transform="rotate(45 185.125 281.941)" height="55.7253" width="1" y="281.941" x="185.125"></rect>
<rect fill="#D0D0D0" transform="rotate(45 187.246 284.062)" height="55.7253" width="1" y="284.062" x="187.246"></rect>
<rect fill="#D0D0D0" transform="rotate(45 189.368 286.184)" height="55.7253" width="1" y="286.184" x="189.368"></rect>
</g>
<mask height="38" width="38" y="40" x="56" maskUnits="userSpaceOnUse" style="mask-type:alpha" id="mask4_309_2">
<rect fill="#ECECEC" height="38" width="38" y="40" x="56"></rect>
</mask>
<g mask="url(#mask4_309_2)">
<rect fill="#D0D0D0" transform="rotate(45 75.1838 20)" height="55.7253" width="1" y="20" x="75.1838"></rect>
<rect fill="#D0D0D0" transform="rotate(45 92.1544 36.9706)" height="55.7253" width="1" y="36.9706" x="92.1544"></rect>
<rect fill="#D0D0D0" transform="rotate(45 83.6691 28.4852)" height="55.7253" width="1" y="28.4852" x="83.6691"></rect>
<rect fill="#D0D0D0" transform="rotate(45 100.64 45.4558)" height="55.7253" width="1" y="45.4558" x="100.64"></rect>
<rect fill="#D0D0D0" transform="rotate(45 79.4264 24.2427)" height="55.7253" width="1" y="24.2427" x="79.4264"></rect>
<rect fill="#D0D0D0" transform="rotate(45 96.397 41.2133)" height="55.7253" width="1" y="41.2133" x="96.397"></rect>
<rect fill="#D0D0D0" transform="rotate(45 87.9117 32.7279)" height="55.7253" width="1" y="32.7279" x="87.9117"></rect>
<rect fill="#D0D0D0" transform="rotate(45 104.882 49.6985)" height="55.7253" width="1" y="49.6985" x="104.882"></rect>
<rect fill="#D0D0D0" transform="rotate(45 77.3051 22.1213)" height="55.7253" width="1" y="22.1213" x="77.3051"></rect>
<rect fill="#D0D0D0" transform="rotate(45 94.2756 39.0919)" height="55.7253" width="1" y="39.0919" x="94.2756"></rect>
<rect fill="#D0D0D0" transform="rotate(45 85.7904 30.6066)" height="55.7253" width="1" y="30.6066" x="85.7904"></rect>
<rect fill="#D0D0D0" transform="rotate(45 102.761 47.5771)" height="55.7253" width="1" y="47.5771" x="102.761"></rect>
<rect fill="#D0D0D0" transform="rotate(45 81.5477 26.364)" height="55.7253" width="1" y="26.364" x="81.5477"></rect>
<rect fill="#D0D0D0" transform="rotate(45 98.5183 43.3345)" height="55.7253" width="1" y="43.3345" x="98.5183"></rect>
<rect fill="#D0D0D0" transform="rotate(45 90.033 34.8492)" height="55.7253" width="1" y="34.8492" x="90.033"></rect>
<rect fill="#D0D0D0" transform="rotate(45 107.004 51.8198)" height="55.7253" width="1" y="51.8198" x="107.004"></rect>
<rect fill="#D0D0D0" transform="rotate(45 109.125 53.9412)" height="55.7253" width="1" y="53.9412" x="109.125"></rect>
<rect fill="#D0D0D0" transform="rotate(45 111.246 56.0625)" height="55.7253" width="1" y="56.0625" x="111.246"></rect>
<rect fill="#D0D0D0" transform="rotate(45 113.368 58.1837)" height="55.7253" width="1" y="58.1837" x="113.368"></rect>
</g>
<mask height="38" width="38" y="116" x="56" maskUnits="userSpaceOnUse" style="mask-type:alpha" id="mask5_309_2">
<rect fill="#ECECEC" height="38" width="38" y="116" x="56"></rect>
</mask>
<g mask="url(#mask5_309_2)">
<rect fill="#D0D0D0" transform="rotate(45 75.1838 96)" height="55.7253" width="1" y="96" x="75.1838"></rect>
<rect fill="#D0D0D0" transform="rotate(45 92.1544 112.971)" height="55.7253" width="1" y="112.971" x="92.1544"></rect>
<rect fill="#D0D0D0" transform="rotate(45 83.6691 104.485)" height="55.7253" width="1" y="104.485" x="83.6691"></rect>
<rect fill="#D0D0D0" transform="rotate(45 100.64 121.456)" height="55.7253" width="1" y="121.456" x="100.64"></rect>
<rect fill="#D0D0D0" transform="rotate(45 79.4264 100.243)" height="55.7253" width="1" y="100.243" x="79.4264"></rect>
<rect fill="#D0D0D0" transform="rotate(45 96.397 117.213)" height="55.7253" width="1" y="117.213" x="96.397"></rect>
<rect fill="#D0D0D0" transform="rotate(45 87.9117 108.728)" height="55.7253" width="1" y="108.728" x="87.9117"></rect>
<rect fill="#D0D0D0" transform="rotate(45 104.882 125.698)" height="55.7253" width="1" y="125.698" x="104.882"></rect>
<rect fill="#D0D0D0" transform="rotate(45 77.3051 98.1213)" height="55.7253" width="1" y="98.1213" x="77.3051"></rect>
<rect fill="#D0D0D0" transform="rotate(45 94.2756 115.092)" height="55.7253" width="1" y="115.092" x="94.2756"></rect>
<rect fill="#D0D0D0" transform="rotate(45 85.7904 106.607)" height="55.7253" width="1" y="106.607" x="85.7904"></rect>
<rect fill="#D0D0D0" transform="rotate(45 102.761 123.577)" height="55.7253" width="1" y="123.577" x="102.761"></rect>
<rect fill="#D0D0D0" transform="rotate(45 81.5477 102.364)" height="55.7253" width="1" y="102.364" x="81.5477"></rect>
<rect fill="#D0D0D0" transform="rotate(45 98.5183 119.334)" height="55.7253" width="1" y="119.334" x="98.5183"></rect>
<rect fill="#D0D0D0" transform="rotate(45 90.033 110.849)" height="55.7253" width="1" y="110.849" x="90.033"></rect>
<rect fill="#D0D0D0" transform="rotate(45 107.004 127.82)" height="55.7253" width="1" y="127.82" x="107.004"></rect>
<rect fill="#D0D0D0" transform="rotate(45 109.125 129.941)" height="55.7253" width="1" y="129.941" x="109.125"></rect>
<rect fill="#D0D0D0" transform="rotate(45 111.246 132.062)" height="55.7253" width="1" y="132.062" x="111.246"></rect>
<rect fill="#D0D0D0" transform="rotate(45 113.368 134.184)" height="55.7253" width="1" y="134.184" x="113.368"></rect>
</g>
<mask height="38" width="38" y="78" x="18" maskUnits="userSpaceOnUse" style="mask-type:alpha" id="mask6_309_2">
<rect fill="#ECECEC" height="38" width="38" y="78" x="18"></rect>
</mask>
<g mask="url(#mask6_309_2)">
<rect fill="#D0D0D0" transform="rotate(45 37.1838 58)" height="55.7253" width="1" y="58" x="37.1838"></rect>
<rect fill="#D0D0D0" transform="rotate(45 54.1544 74.9706)" height="55.7253" width="1" y="74.9706" x="54.1544"></rect>
<rect fill="#D0D0D0" transform="rotate(45 45.6691 66.4852)" height="55.7253" width="1" y="66.4852" x="45.6691"></rect>
<rect fill="#D0D0D0" transform="rotate(45 62.6396 83.4558)" height="55.7253" width="1" y="83.4558" x="62.6396"></rect>
<rect fill="#D0D0D0" transform="rotate(45 41.4264 62.2427)" height="55.7253" width="1" y="62.2427" x="41.4264"></rect>
<rect fill="#D0D0D0" transform="rotate(45 58.397 79.2133)" height="55.7253" width="1" y="79.2133" x="58.397"></rect>
<rect fill="#D0D0D0" transform="rotate(45 49.9117 70.7279)" height="55.7253" width="1" y="70.7279" x="49.9117"></rect>
<rect fill="#D0D0D0" transform="rotate(45 66.8823 87.6985)" height="55.7253" width="1" y="87.6985" x="66.8823"></rect>
<rect fill="#D0D0D0" transform="rotate(45 39.3051 60.1213)" height="55.7253" width="1" y="60.1213" x="39.3051"></rect>
<rect fill="#D0D0D0" transform="rotate(45 56.2756 77.0919)" height="55.7253" width="1" y="77.0919" x="56.2756"></rect>
<rect fill="#D0D0D0" transform="rotate(45 47.7904 68.6066)" height="55.7253" width="1" y="68.6066" x="47.7904"></rect>
<rect fill="#D0D0D0" transform="rotate(45 64.7609 85.5771)" height="55.7253" width="1" y="85.5771" x="64.7609"></rect>
<rect fill="#D0D0D0" transform="rotate(45 43.5477 64.364)" height="55.7253" width="1" y="64.364" x="43.5477"></rect>
<rect fill="#D0D0D0" transform="rotate(45 60.5183 81.3345)" height="55.7253" width="1" y="81.3345" x="60.5183"></rect>
<rect fill="#D0D0D0" transform="rotate(45 52.033 72.8492)" height="55.7253" width="1" y="72.8492" x="52.033"></rect>
<rect fill="#D0D0D0" transform="rotate(45 69.0036 89.8198)" height="55.7253" width="1" y="89.8198" x="69.0036"></rect>
<rect fill="#D0D0D0" transform="rotate(45 71.1249 91.9412)" height="55.7253" width="1" y="91.9412" x="71.1249"></rect>
<rect fill="#D0D0D0" transform="rotate(45 73.2462 94.0625)" height="55.7253" width="1" y="94.0625" x="73.2462"></rect>
<rect fill="#D0D0D0" transform="rotate(45 75.3676 96.1837)" height="55.7253" width="1" y="96.1837" x="75.3676"></rect>
</g>
<mask height="38" width="38" y="192" x="56" maskUnits="userSpaceOnUse" style="mask-type:alpha" id="mask7_309_2">
<rect fill="#ECECEC" height="38" width="38" y="192" x="56"></rect>
</mask>
<g mask="url(#mask7_309_2)">
<rect fill="#D0D0D0" transform="rotate(45 75.1838 172)" height="55.7253" width="1" y="172" x="75.1838"></rect>
<rect fill="#D0D0D0" transform="rotate(45 92.1544 188.971)" height="55.7253" width="1" y="188.971" x="92.1544"></rect>
<rect fill="#D0D0D0" transform="rotate(45 83.6691 180.485)" height="55.7253" width="1" y="180.485" x="83.6691"></rect>
<rect fill="#D0D0D0" transform="rotate(45 100.64 197.456)" height="55.7253" width="1" y="197.456" x="100.64"></rect>
<rect fill="#D0D0D0" transform="rotate(45 79.4264 176.243)" height="55.7253" width="1" y="176.243" x="79.4264"></rect>
<rect fill="#D0D0D0" transform="rotate(45 96.397 193.213)" height="55.7253" width="1" y="193.213" x="96.397"></rect>
<rect fill="#D0D0D0" transform="rotate(45 87.9117 184.728)" height="55.7253" width="1" y="184.728" x="87.9117"></rect>
<rect fill="#D0D0D0" transform="rotate(45 104.882 201.698)" height="55.7253" width="1" y="201.698" x="104.882"></rect>
<rect fill="#D0D0D0" transform="rotate(45 77.3051 174.121)" height="55.7253" width="1" y="174.121" x="77.3051"></rect>
<rect fill="#D0D0D0" transform="rotate(45 94.2756 191.092)" height="55.7253" width="1" y="191.092" x="94.2756"></rect>
<rect fill="#D0D0D0" transform="rotate(45 85.7904 182.607)" height="55.7253" width="1" y="182.607" x="85.7904"></rect>
<rect fill="#D0D0D0" transform="rotate(45 102.761 199.577)" height="55.7253" width="1" y="199.577" x="102.761"></rect>
<rect fill="#D0D0D0" transform="rotate(45 81.5477 178.364)" height="55.7253" width="1" y="178.364" x="81.5477"></rect>
<rect fill="#D0D0D0" transform="rotate(45 98.5183 195.334)" height="55.7253" width="1" y="195.334" x="98.5183"></rect>
<rect fill="#D0D0D0" transform="rotate(45 90.033 186.849)" height="55.7253" width="1" y="186.849" x="90.033"></rect>
<rect fill="#D0D0D0" transform="rotate(45 107.004 203.82)" height="55.7253" width="1" y="203.82" x="107.004"></rect>
<rect fill="#D0D0D0" transform="rotate(45 109.125 205.941)" height="55.7253" width="1" y="205.941" x="109.125"></rect>
<rect fill="#D0D0D0" transform="rotate(45 111.246 208.062)" height="55.7253" width="1" y="208.062" x="111.246"></rect>
<rect fill="#D0D0D0" transform="rotate(45 113.368 210.184)" height="55.7253" width="1" y="210.184" x="113.368"></rect>
</g>
<mask height="38" width="38" y="268" x="56" maskUnits="userSpaceOnUse" style="mask-type:alpha" id="mask8_309_2">
<rect fill="#ECECEC" height="38" width="38" y="268" x="56"></rect>
</mask>
<g mask="url(#mask8_309_2)">
<rect fill="#D0D0D0" transform="rotate(45 75.1838 248)" height="55.7253" width="1" y="248" x="75.1838"></rect>
<rect fill="#D0D0D0" transform="rotate(45 92.1544 264.971)" height="55.7253" width="1" y="264.971" x="92.1544"></rect>
<rect fill="#D0D0D0" transform="rotate(45 83.6691 256.485)" height="55.7253" width="1" y="256.485" x="83.6691"></rect>
<rect fill="#D0D0D0" transform="rotate(45 100.64 273.456)" height="55.7253" width="1" y="273.456" x="100.64"></rect>
<rect fill="#D0D0D0" transform="rotate(45 79.4264 252.243)" height="55.7253" width="1" y="252.243" x="79.4264"></rect>
<rect fill="#D0D0D0" transform="rotate(45 96.397 269.213)" height="55.7253" width="1" y="269.213" x="96.397"></rect>
<rect fill="#D0D0D0" transform="rotate(45 87.9117 260.728)" height="55.7253" width="1" y="260.728" x="87.9117"></rect>
<rect fill="#D0D0D0" transform="rotate(45 104.882 277.698)" height="55.7253" width="1" y="277.698" x="104.882"></rect>
<rect fill="#D0D0D0" transform="rotate(45 77.3051 250.121)" height="55.7253" width="1" y="250.121" x="77.3051"></rect>
<rect fill="#D0D0D0" transform="rotate(45 94.2756 267.092)" height="55.7253" width="1" y="267.092" x="94.2756"></rect>
<rect fill="#D0D0D0" transform="rotate(45 85.7904 258.607)" height="55.7253" width="1" y="258.607" x="85.7904"></rect>
<rect fill="#D0D0D0" transform="rotate(45 102.761 275.577)" height="55.7253" width="1" y="275.577" x="102.761"></rect>
<rect fill="#D0D0D0" transform="rotate(45 81.5477 254.364)" height="55.7253" width="1" y="254.364" x="81.5477"></rect>
<rect fill="#D0D0D0" transform="rotate(45 98.5183 271.334)" height="55.7253" width="1" y="271.334" x="98.5183"></rect>
<rect fill="#D0D0D0" transform="rotate(45 90.033 262.849)" height="55.7253" width="1" y="262.849" x="90.033"></rect>
<rect fill="#D0D0D0" transform="rotate(45 107.004 279.82)" height="55.7253" width="1" y="279.82" x="107.004"></rect>
<rect fill="#D0D0D0" transform="rotate(45 109.125 281.941)" height="55.7253" width="1" y="281.941" x="109.125"></rect>
<rect fill="#D0D0D0" transform="rotate(45 111.246 284.062)" height="55.7253" width="1" y="284.062" x="111.246"></rect>
<rect fill="#D0D0D0" transform="rotate(45 113.368 286.184)" height="55.7253" width="1" y="286.184" x="113.368"></rect>
</g>
<mask height="38" width="38" y="154" x="18" maskUnits="userSpaceOnUse" style="mask-type:alpha" id="mask9_309_2">
<rect fill="#ECECEC" height="38" width="38" y="154" x="18"></rect>
</mask>
<g mask="url(#mask9_309_2)">
<rect fill="#D0D0D0" transform="rotate(45 37.1838 134)" height="55.7253" width="1" y="134" x="37.1838"></rect>
<rect fill="#D0D0D0" transform="rotate(45 54.1544 150.971)" height="55.7253" width="1" y="150.971" x="54.1544"></rect>
<rect fill="#D0D0D0" transform="rotate(45 45.6691 142.485)" height="55.7253" width="1" y="142.485" x="45.6691"></rect>
<rect fill="#D0D0D0" transform="rotate(45 62.6396 159.456)" height="55.7253" width="1" y="159.456" x="62.6396"></rect>
<rect fill="#D0D0D0" transform="rotate(45 41.4264 138.243)" height="55.7253" width="1" y="138.243" x="41.4264"></rect>
<rect fill="#D0D0D0" transform="rotate(45 58.397 155.213)" height="55.7253" width="1" y="155.213" x="58.397"></rect>
<rect fill="#D0D0D0" transform="rotate(45 49.9117 146.728)" height="55.7253" width="1" y="146.728" x="49.9117"></rect>
<rect fill="#D0D0D0" transform="rotate(45 66.8823 163.698)" height="55.7253" width="1" y="163.698" x="66.8823"></rect>
<rect fill="#D0D0D0" transform="rotate(45 39.3051 136.121)" height="55.7253" width="1" y="136.121" x="39.3051"></rect>
<rect fill="#D0D0D0" transform="rotate(45 56.2756 153.092)" height="55.7253" width="1" y="153.092" x="56.2756"></rect>
<rect fill="#D0D0D0" transform="rotate(45 47.7904 144.607)" height="55.7253" width="1" y="144.607" x="47.7904"></rect>
<rect fill="#D0D0D0" transform="rotate(45 64.7609 161.577)" height="55.7253" width="1" y="161.577" x="64.7609"></rect>
<rect fill="#D0D0D0" transform="rotate(45 43.5477 140.364)" height="55.7253" width="1" y="140.364" x="43.5477"></rect>
<rect fill="#D0D0D0" transform="rotate(45 60.5183 157.334)" height="55.7253" width="1" y="157.334" x="60.5183"></rect>
<rect fill="#D0D0D0" transform="rotate(45 52.033 148.849)" height="55.7253" width="1" y="148.849" x="52.033"></rect>
<rect fill="#D0D0D0" transform="rotate(45 69.0036 165.82)" height="55.7253" width="1" y="165.82" x="69.0036"></rect>
<rect fill="#D0D0D0" transform="rotate(45 71.1249 167.941)" height="55.7253" width="1" y="167.941" x="71.1249"></rect>
<rect fill="#D0D0D0" transform="rotate(45 73.2462 170.062)" height="55.7253" width="1" y="170.062" x="73.2462"></rect>
<rect fill="#D0D0D0" transform="rotate(45 75.3676 172.184)" height="55.7253" width="1" y="172.184" x="75.3676"></rect>
</g>
<mask height="38" width="38" y="230" x="18" maskUnits="userSpaceOnUse" style="mask-type:alpha" id="mask10_309_2">
<rect fill="#ECECEC" height="38" width="38" y="230" x="18"></rect>
</mask>
<g mask="url(#mask10_309_2)">
<rect fill="#D0D0D0" transform="rotate(45 37.1838 210)" height="55.7253" width="1" y="210" x="37.1838"></rect>
<rect fill="#D0D0D0" transform="rotate(45 54.1544 226.971)" height="55.7253" width="1" y="226.971" x="54.1544"></rect>
<rect fill="#D0D0D0" transform="rotate(45 45.6691 218.485)" height="55.7253" width="1" y="218.485" x="45.6691"></rect>
<rect fill="#D0D0D0" transform="rotate(45 62.6396 235.456)" height="55.7253" width="1" y="235.456" x="62.6396"></rect>
<rect fill="#D0D0D0" transform="rotate(45 41.4264 214.243)" height="55.7253" width="1" y="214.243" x="41.4264"></rect>
<rect fill="#D0D0D0" transform="rotate(45 58.397 231.213)" height="55.7253" width="1" y="231.213" x="58.397"></rect>
<rect fill="#D0D0D0" transform="rotate(45 49.9117 222.728)" height="55.7253" width="1" y="222.728" x="49.9117"></rect>
<rect fill="#D0D0D0" transform="rotate(45 66.8823 239.698)" height="55.7253" width="1" y="239.698" x="66.8823"></rect>
<rect fill="#D0D0D0" transform="rotate(45 39.3051 212.121)" height="55.7253" width="1" y="212.121" x="39.3051"></rect>
<rect fill="#D0D0D0" transform="rotate(45 56.2756 229.092)" height="55.7253" width="1" y="229.092" x="56.2756"></rect>
<rect fill="#D0D0D0" transform="rotate(45 47.7904 220.607)" height="55.7253" width="1" y="220.607" x="47.7904"></rect>
<rect fill="#D0D0D0" transform="rotate(45 64.7609 237.577)" height="55.7253" width="1" y="237.577" x="64.7609"></rect>
<rect fill="#D0D0D0" transform="rotate(45 43.5477 216.364)" height="55.7253" width="1" y="216.364" x="43.5477"></rect>
<rect fill="#D0D0D0" transform="rotate(45 60.5183 233.334)" height="55.7253" width="1" y="233.334" x="60.5183"></rect>
<rect fill="#D0D0D0" transform="rotate(45 52.033 224.849)" height="55.7253" width="1" y="224.849" x="52.033"></rect>
<rect fill="#D0D0D0" transform="rotate(45 69.0036 241.82)" height="55.7253" width="1" y="241.82" x="69.0036"></rect>
<rect fill="#D0D0D0" transform="rotate(45 71.1249 243.941)" height="55.7253" width="1" y="243.941" x="71.1249"></rect>
<rect fill="#D0D0D0" transform="rotate(45 73.2462 246.062)" height="55.7253" width="1" y="246.062" x="73.2462"></rect>
<rect fill="#D0D0D0" transform="rotate(45 75.3676 248.184)" height="55.7253" width="1" y="248.184" x="75.3676"></rect>
</g>
<mask height="38" width="38" y="306" x="18" maskUnits="userSpaceOnUse" style="mask-type:alpha" id="mask11_309_2">
<rect fill="#ECECEC" height="38" width="38" y="306" x="18"></rect>
</mask>
<g mask="url(#mask11_309_2)">
<rect fill="#D0D0D0" transform="rotate(45 37.1838 286)" height="55.7253" width="1" y="286" x="37.1838"></rect>
<rect fill="#D0D0D0" transform="rotate(45 54.1544 302.971)" height="55.7253" width="1" y="302.971" x="54.1544"></rect>
<rect fill="#D0D0D0" transform="rotate(45 45.6691 294.485)" height="55.7253" width="1" y="294.485" x="45.6691"></rect>
<rect fill="#D0D0D0" transform="rotate(45 62.6396 311.456)" height="55.7253" width="1" y="311.456" x="62.6396"></rect>
<rect fill="#D0D0D0" transform="rotate(45 41.4264 290.243)" height="55.7253" width="1" y="290.243" x="41.4264"></rect>
<rect fill="#D0D0D0" transform="rotate(45 58.397 307.213)" height="55.7253" width="1" y="307.213" x="58.397"></rect>
<rect fill="#D0D0D0" transform="rotate(45 49.9117 298.728)" height="55.7253" width="1" y="298.728" x="49.9117"></rect>
<rect fill="#D0D0D0" transform="rotate(45 66.8823 315.698)" height="55.7253" width="1" y="315.698" x="66.8823"></rect>
<rect fill="#D0D0D0" transform="rotate(45 39.3051 288.121)" height="55.7253" width="1" y="288.121" x="39.3051"></rect>
<rect fill="#D0D0D0" transform="rotate(45 56.2756 305.092)" height="55.7253" width="1" y="305.092" x="56.2756"></rect>
<rect fill="#D0D0D0" transform="rotate(45 47.7904 296.607)" height="55.7253" width="1" y="296.607" x="47.7904"></rect>
<rect fill="#D0D0D0" transform="rotate(45 64.7609 313.577)" height="55.7253" width="1" y="313.577" x="64.7609"></rect>
<rect fill="#D0D0D0" transform="rotate(45 43.5477 292.364)" height="55.7253" width="1" y="292.364" x="43.5477"></rect>
<rect fill="#D0D0D0" transform="rotate(45 60.5183 309.334)" height="55.7253" width="1" y="309.334" x="60.5183"></rect>
<rect fill="#D0D0D0" transform="rotate(45 52.033 300.849)" height="55.7253" width="1" y="300.849" x="52.033"></rect>
<rect fill="#D0D0D0" transform="rotate(45 69.0036 317.82)" height="55.7253" width="1" y="317.82" x="69.0036"></rect>
<rect fill="#D0D0D0" transform="rotate(45 71.1249 319.941)" height="55.7253" width="1" y="319.941" x="71.1249"></rect>
<rect fill="#D0D0D0" transform="rotate(45 73.2462 322.062)" height="55.7253" width="1" y="322.062" x="73.2462"></rect>
<rect fill="#D0D0D0" transform="rotate(45 75.3676 324.184)" height="55.7253" width="1" y="324.184" x="75.3676"></rect>
</g>
<mask height="38" width="38" y="78" x="170" maskUnits="userSpaceOnUse" style="mask-type:alpha" id="mask12_309_2">
<rect fill="#ECECEC" height="38" width="38" y="78" x="170"></rect>
</mask>
<g mask="url(#mask12_309_2)">
<rect fill="#D0D0D0" transform="rotate(45 189.184 58)" height="55.7253" width="1" y="58" x="189.184"></rect>
<rect fill="#D0D0D0" transform="rotate(45 206.154 74.9706)" height="55.7253" width="1" y="74.9706" x="206.154"></rect>
<rect fill="#D0D0D0" transform="rotate(45 197.669 66.4852)" height="55.7253" width="1" y="66.4852" x="197.669"></rect>
<rect fill="#D0D0D0" transform="rotate(45 214.64 83.4558)" height="55.7253" width="1" y="83.4558" x="214.64"></rect>
<rect fill="#D0D0D0" transform="rotate(45 193.426 62.2427)" height="55.7253" width="1" y="62.2427" x="193.426"></rect>
<rect fill="#D0D0D0" transform="rotate(45 210.397 79.2133)" height="55.7253" width="1" y="79.2133" x="210.397"></rect>
<rect fill="#D0D0D0" transform="rotate(45 201.912 70.7279)" height="55.7253" width="1" y="70.7279" x="201.912"></rect>
<rect fill="#D0D0D0" transform="rotate(45 218.882 87.6985)" height="55.7253" width="1" y="87.6985" x="218.882"></rect>
<rect fill="#D0D0D0" transform="rotate(45 191.305 60.1213)" height="55.7253" width="1" y="60.1213" x="191.305"></rect>
<rect fill="#D0D0D0" transform="rotate(45 208.276 77.0919)" height="55.7253" width="1" y="77.0919" x="208.276"></rect>
<rect fill="#D0D0D0" transform="rotate(45 199.79 68.6066)" height="55.7253" width="1" y="68.6066" x="199.79"></rect>
<rect fill="#D0D0D0" transform="rotate(45 216.761 85.5771)" height="55.7253" width="1" y="85.5771" x="216.761"></rect>
<rect fill="#D0D0D0" transform="rotate(45 195.548 64.364)" height="55.7253" width="1" y="64.364" x="195.548"></rect>
<rect fill="#D0D0D0" transform="rotate(45 212.518 81.3345)" height="55.7253" width="1" y="81.3345" x="212.518"></rect>
<rect fill="#D0D0D0" transform="rotate(45 204.033 72.8492)" height="55.7253" width="1" y="72.8492" x="204.033"></rect>
<rect fill="#D0D0D0" transform="rotate(45 221.004 89.8198)" height="55.7253" width="1" y="89.8198" x="221.004"></rect>
<rect fill="#D0D0D0" transform="rotate(45 223.125 91.9412)" height="55.7253" width="1" y="91.9412" x="223.125"></rect>
<rect fill="#D0D0D0" transform="rotate(45 225.246 94.0625)" height="55.7253" width="1" y="94.0625" x="225.246"></rect>
<rect fill="#D0D0D0" transform="rotate(45 227.368 96.1837)" height="55.7253" width="1" y="96.1837" x="227.368"></rect>
</g>
<mask height="38" width="38" y="154" x="170" maskUnits="userSpaceOnUse" style="mask-type:alpha" id="mask13_309_2">
<rect fill="#ECECEC" height="38" width="38" y="154" x="170"></rect>
</mask>
<g mask="url(#mask13_309_2)">
<rect fill="#D0D0D0" transform="rotate(45 189.184 134)" height="55.7253" width="1" y="134" x="189.184"></rect>
<rect fill="#D0D0D0" transform="rotate(45 206.154 150.971)" height="55.7253" width="1" y="150.971" x="206.154"></rect>
<rect fill="#D0D0D0" transform="rotate(45 197.669 142.485)" height="55.7253" width="1" y="142.485" x="197.669"></rect>
<rect fill="#D0D0D0" transform="rotate(45 214.64 159.456)" height="55.7253" width="1" y="159.456" x="214.64"></rect>
<rect fill="#D0D0D0" transform="rotate(45 193.426 138.243)" height="55.7253" width="1" y="138.243" x="193.426"></rect>
<rect fill="#D0D0D0" transform="rotate(45 210.397 155.213)" height="55.7253" width="1" y="155.213" x="210.397"></rect>
<rect fill="#D0D0D0" transform="rotate(45 201.912 146.728)" height="55.7253" width="1" y="146.728" x="201.912"></rect>
<rect fill="#D0D0D0" transform="rotate(45 218.882 163.698)" height="55.7253" width="1" y="163.698" x="218.882"></rect>
<rect fill="#D0D0D0" transform="rotate(45 191.305 136.121)" height="55.7253" width="1" y="136.121" x="191.305"></rect>
<rect fill="#D0D0D0" transform="rotate(45 208.276 153.092)" height="55.7253" width="1" y="153.092" x="208.276"></rect>
<rect fill="#D0D0D0" transform="rotate(45 199.79 144.607)" height="55.7253" width="1" y="144.607" x="199.79"></rect>
<rect fill="#D0D0D0" transform="rotate(45 216.761 161.577)" height="55.7253" width="1" y="161.577" x="216.761"></rect>
<rect fill="#D0D0D0" transform="rotate(45 195.548 140.364)" height="55.7253" width="1" y="140.364" x="195.548"></rect>
<rect fill="#D0D0D0" transform="rotate(45 212.518 157.334)" height="55.7253" width="1" y="157.334" x="212.518"></rect>
<rect fill="#D0D0D0" transform="rotate(45 204.033 148.849)" height="55.7253" width="1" y="148.849" x="204.033"></rect>
<rect fill="#D0D0D0" transform="rotate(45 221.004 165.82)" height="55.7253" width="1" y="165.82" x="221.004"></rect>
<rect fill="#D0D0D0" transform="rotate(45 223.125 167.941)" height="55.7253" width="1" y="167.941" x="223.125"></rect>
<rect fill="#D0D0D0" transform="rotate(45 225.246 170.062)" height="55.7253" width="1" y="170.062" x="225.246"></rect>
<rect fill="#D0D0D0" transform="rotate(45 227.368 172.184)" height="55.7253" width="1" y="172.184" x="227.368"></rect>
</g>
<mask height="38" width="38" y="230" x="170" maskUnits="userSpaceOnUse" style="mask-type:alpha" id="mask14_309_2">
<rect fill="#ECECEC" height="38" width="38" y="230" x="170"></rect>
</mask>
<g mask="url(#mask14_309_2)">
<rect fill="#D0D0D0" transform="rotate(45 189.184 210)" height="55.7253" width="1" y="210" x="189.184"></rect>
<rect fill="#D0D0D0" transform="rotate(45 206.154 226.971)" height="55.7253" width="1" y="226.971" x="206.154"></rect>
<rect fill="#D0D0D0" transform="rotate(45 197.669 218.485)" height="55.7253" width="1" y="218.485" x="197.669"></rect>
<rect fill="#D0D0D0" transform="rotate(45 214.64 235.456)" height="55.7253" width="1" y="235.456" x="214.64"></rect>
<rect fill="#D0D0D0" transform="rotate(45 193.426 214.243)" height="55.7253" width="1" y="214.243" x="193.426"></rect>
<rect fill="#D0D0D0" transform="rotate(45 210.397 231.213)" height="55.7253" width="1" y="231.213" x="210.397"></rect>
<rect fill="#D0D0D0" transform="rotate(45 201.912 222.728)" height="55.7253" width="1" y="222.728" x="201.912"></rect>
<rect fill="#D0D0D0" transform="rotate(45 218.882 239.698)" height="55.7253" width="1" y="239.698" x="218.882"></rect>
<rect fill="#D0D0D0" transform="rotate(45 191.305 212.121)" height="55.7253" width="1" y="212.121" x="191.305"></rect>
<rect fill="#D0D0D0" transform="rotate(45 208.276 229.092)" height="55.7253" width="1" y="229.092" x="208.276"></rect>
<rect fill="#D0D0D0" transform="rotate(45 199.79 220.607)" height="55.7253" width="1" y="220.607" x="199.79"></rect>
<rect fill="#D0D0D0" transform="rotate(45 216.761 237.577)" height="55.7253" width="1" y="237.577" x="216.761"></rect>
<rect fill="#D0D0D0" transform="rotate(45 195.548 216.364)" height="55.7253" width="1" y="216.364" x="195.548"></rect>
<rect fill="#D0D0D0" transform="rotate(45 212.518 233.334)" height="55.7253" width="1" y="233.334" x="212.518"></rect>
<rect fill="#D0D0D0" transform="rotate(45 204.033 224.849)" height="55.7253" width="1" y="224.849" x="204.033"></rect>
<rect fill="#D0D0D0" transform="rotate(45 221.004 241.82)" height="55.7253" width="1" y="241.82" x="221.004"></rect>
<rect fill="#D0D0D0" transform="rotate(45 223.125 243.941)" height="55.7253" width="1" y="243.941" x="223.125"></rect>
<rect fill="#D0D0D0" transform="rotate(45 225.246 246.062)" height="55.7253" width="1" y="246.062" x="225.246"></rect>
<rect fill="#D0D0D0" transform="rotate(45 227.368 248.184)" height="55.7253" width="1" y="248.184" x="227.368"></rect>
</g>
<mask height="38" width="38" y="306" x="170" maskUnits="userSpaceOnUse" style="mask-type:alpha" id="mask15_309_2">
<rect fill="#ECECEC" height="38" width="38" y="306" x="170"></rect>
</mask>
<g mask="url(#mask15_309_2)">
<rect fill="#D0D0D0" transform="rotate(45 189.184 286)" height="55.7253" width="1" y="286" x="189.184"></rect>
<rect fill="#D0D0D0" transform="rotate(45 206.154 302.971)" height="55.7253" width="1" y="302.971" x="206.154"></rect>
<rect fill="#D0D0D0" transform="rotate(45 197.669 294.485)" height="55.7253" width="1" y="294.485" x="197.669"></rect>
<rect fill="#D0D0D0" transform="rotate(45 214.64 311.456)" height="55.7253" width="1" y="311.456" x="214.64"></rect>
<rect fill="#D0D0D0" transform="rotate(45 193.426 290.243)" height="55.7253" width="1" y="290.243" x="193.426"></rect>
<rect fill="#D0D0D0" transform="rotate(45 210.397 307.213)" height="55.7253" width="1" y="307.213" x="210.397"></rect>
<rect fill="#D0D0D0" transform="rotate(45 201.912 298.728)" height="55.7253" width="1" y="298.728" x="201.912"></rect>
<rect fill="#D0D0D0" transform="rotate(45 218.882 315.698)" height="55.7253" width="1" y="315.698" x="218.882"></rect>
<rect fill="#D0D0D0" transform="rotate(45 191.305 288.121)" height="55.7253" width="1" y="288.121" x="191.305"></rect>
<rect fill="#D0D0D0" transform="rotate(45 208.276 305.092)" height="55.7253" width="1" y="305.092" x="208.276"></rect>
<rect fill="#D0D0D0" transform="rotate(45 199.79 296.607)" height="55.7253" width="1" y="296.607" x="199.79"></rect>
<rect fill="#D0D0D0" transform="rotate(45 216.761 313.577)" height="55.7253" width="1" y="313.577" x="216.761"></rect>
<rect fill="#D0D0D0" transform="rotate(45 195.548 292.364)" height="55.7253" width="1" y="292.364" x="195.548"></rect>
<rect fill="#D0D0D0" transform="rotate(45 212.518 309.334)" height="55.7253" width="1" y="309.334" x="212.518"></rect>
<rect fill="#D0D0D0" transform="rotate(45 204.033 300.849)" height="55.7253" width="1" y="300.849" x="204.033"></rect>
<rect fill="#D0D0D0" transform="rotate(45 221.004 317.82)" height="55.7253" width="1" y="317.82" x="221.004"></rect>
<rect fill="#D0D0D0" transform="rotate(45 223.125 319.941)" height="55.7253" width="1" y="319.941" x="223.125"></rect>
<rect fill="#D0D0D0" transform="rotate(45 225.246 322.062)" height="55.7253" width="1" y="322.062" x="225.246"></rect>
<rect fill="#D0D0D0" transform="rotate(45 227.368 324.184)" height="55.7253" width="1" y="324.184" x="227.368"></rect>
</g>
<mask height="38" width="38" y="78" x="94" maskUnits="userSpaceOnUse" style="mask-type:alpha" id="mask16_309_2">
<rect fill="#ECECEC" height="38" width="38" y="78" x="94"></rect>
</mask>
<g mask="url(#mask16_309_2)">
<rect fill="#D0D0D0" transform="rotate(45 113.184 58)" height="55.7253" width="1" y="58" x="113.184"></rect>
<rect fill="#D0D0D0" transform="rotate(45 130.154 74.9706)" height="55.7253" width="1" y="74.9706" x="130.154"></rect>
<rect fill="#D0D0D0" transform="rotate(45 121.669 66.4852)" height="55.7253" width="1" y="66.4852" x="121.669"></rect>
<rect fill="#D0D0D0" transform="rotate(45 138.64 83.4558)" height="55.7253" width="1" y="83.4558" x="138.64"></rect>
<rect fill="#D0D0D0" transform="rotate(45 117.426 62.2427)" height="55.7253" width="1" y="62.2427" x="117.426"></rect>
<rect fill="#D0D0D0" transform="rotate(45 134.397 79.2133)" height="55.7253" width="1" y="79.2133" x="134.397"></rect>
<rect fill="#D0D0D0" transform="rotate(45 125.912 70.7279)" height="55.7253" width="1" y="70.7279" x="125.912"></rect>
<rect fill="#D0D0D0" transform="rotate(45 142.882 87.6985)" height="55.7253" width="1" y="87.6985" x="142.882"></rect>
<rect fill="#D0D0D0" transform="rotate(45 115.305 60.1213)" height="55.7253" width="1" y="60.1213" x="115.305"></rect>
<rect fill="#D0D0D0" transform="rotate(45 132.276 77.0919)" height="55.7253" width="1" y="77.0919" x="132.276"></rect>
<rect fill="#D0D0D0" transform="rotate(45 123.79 68.6066)" height="55.7253" width="1" y="68.6066" x="123.79"></rect>
<rect fill="#D0D0D0" transform="rotate(45 140.761 85.5771)" height="55.7253" width="1" y="85.5771" x="140.761"></rect>
<rect fill="#D0D0D0" transform="rotate(45 119.548 64.364)" height="55.7253" width="1" y="64.364" x="119.548"></rect>
<rect fill="#D0D0D0" transform="rotate(45 136.518 81.3345)" height="55.7253" width="1" y="81.3345" x="136.518"></rect>
<rect fill="#D0D0D0" transform="rotate(45 128.033 72.8492)" height="55.7253" width="1" y="72.8492" x="128.033"></rect>
<rect fill="#D0D0D0" transform="rotate(45 145.004 89.8198)" height="55.7253" width="1" y="89.8198" x="145.004"></rect>
<rect fill="#D0D0D0" transform="rotate(45 147.125 91.9412)" height="55.7253" width="1" y="91.9412" x="147.125"></rect>
<rect fill="#D0D0D0" transform="rotate(45 149.246 94.0625)" height="55.7253" width="1" y="94.0625" x="149.246"></rect>
<rect fill="#D0D0D0" transform="rotate(45 151.368 96.1837)" height="55.7253" width="1" y="96.1837" x="151.368"></rect>
</g>
<mask height="38" width="38" y="154" x="94" maskUnits="userSpaceOnUse" style="mask-type:alpha" id="mask17_309_2">
<rect fill="#ECECEC" height="38" width="38" y="154" x="94"></rect>
</mask>
<g mask="url(#mask17_309_2)">
<rect fill="#D0D0D0" transform="rotate(45 113.184 134)" height="55.7253" width="1" y="134" x="113.184"></rect>
<rect fill="#D0D0D0" transform="rotate(45 130.154 150.971)" height="55.7253" width="1" y="150.971" x="130.154"></rect>
<rect fill="#D0D0D0" transform="rotate(45 121.669 142.485)" height="55.7253" width="1" y="142.485" x="121.669"></rect>
<rect fill="#D0D0D0" transform="rotate(45 138.64 159.456)" height="55.7253" width="1" y="159.456" x="138.64"></rect>
<rect fill="#D0D0D0" transform="rotate(45 117.426 138.243)" height="55.7253" width="1" y="138.243" x="117.426"></rect>
<rect fill="#D0D0D0" transform="rotate(45 134.397 155.213)" height="55.7253" width="1" y="155.213" x="134.397"></rect>
<rect fill="#D0D0D0" transform="rotate(45 125.912 146.728)" height="55.7253" width="1" y="146.728" x="125.912"></rect>
<rect fill="#D0D0D0" transform="rotate(45 142.882 163.698)" height="55.7253" width="1" y="163.698" x="142.882"></rect>
<rect fill="#D0D0D0" transform="rotate(45 115.305 136.121)" height="55.7253" width="1" y="136.121" x="115.305"></rect>
<rect fill="#D0D0D0" transform="rotate(45 132.276 153.092)" height="55.7253" width="1" y="153.092" x="132.276"></rect>
<rect fill="#D0D0D0" transform="rotate(45 123.79 144.607)" height="55.7253" width="1" y="144.607" x="123.79"></rect>
<rect fill="#D0D0D0" transform="rotate(45 140.761 161.577)" height="55.7253" width="1" y="161.577" x="140.761"></rect>
<rect fill="#D0D0D0" transform="rotate(45 119.548 140.364)" height="55.7253" width="1" y="140.364" x="119.548"></rect>
<rect fill="#D0D0D0" transform="rotate(45 136.518 157.334)" height="55.7253" width="1" y="157.334" x="136.518"></rect>
<rect fill="#D0D0D0" transform="rotate(45 128.033 148.849)" height="55.7253" width="1" y="148.849" x="128.033"></rect>
<rect fill="#D0D0D0" transform="rotate(45 145.004 165.82)" height="55.7253" width="1" y="165.82" x="145.004"></rect>
<rect fill="#D0D0D0" transform="rotate(45 147.125 167.941)" height="55.7253" width="1" y="167.941" x="147.125"></rect>
<rect fill="#D0D0D0" transform="rotate(45 149.246 170.062)" height="55.7253" width="1" y="170.062" x="149.246"></rect>
<rect fill="#D0D0D0" transform="rotate(45 151.368 172.184)" height="55.7253" width="1" y="172.184" x="151.368"></rect>
</g>
<mask height="38" width="38" y="230" x="94" maskUnits="userSpaceOnUse" style="mask-type:alpha" id="mask18_309_2">
<rect fill="#ECECEC" height="38" width="38" y="230" x="94"></rect>
</mask>
<g mask="url(#mask18_309_2)">
<rect fill="#D0D0D0" transform="rotate(45 113.184 210)" height="55.7253" width="1" y="210" x="113.184"></rect>
<rect fill="#D0D0D0" transform="rotate(45 130.154 226.971)" height="55.7253" width="1" y="226.971" x="130.154"></rect>
<rect fill="#D0D0D0" transform="rotate(45 121.669 218.485)" height="55.7253" width="1" y="218.485" x="121.669"></rect>
<rect fill="#D0D0D0" transform="rotate(45 138.64 235.456)" height="55.7253" width="1" y="235.456" x="138.64"></rect>
<rect fill="#D0D0D0" transform="rotate(45 117.426 214.243)" height="55.7253" width="1" y="214.243" x="117.426"></rect>
<rect fill="#D0D0D0" transform="rotate(45 134.397 231.213)" height="55.7253" width="1" y="231.213" x="134.397"></rect>
<rect fill="#D0D0D0" transform="rotate(45 125.912 222.728)" height="55.7253" width="1" y="222.728" x="125.912"></rect>
<rect fill="#D0D0D0" transform="rotate(45 142.882 239.698)" height="55.7253" width="1" y="239.698" x="142.882"></rect>
<rect fill="#D0D0D0" transform="rotate(45 115.305 212.121)" height="55.7253" width="1" y="212.121" x="115.305"></rect>
<rect fill="#D0D0D0" transform="rotate(45 132.276 229.092)" height="55.7253" width="1" y="229.092" x="132.276"></rect>
<rect fill="#D0D0D0" transform="rotate(45 123.79 220.607)" height="55.7253" width="1" y="220.607" x="123.79"></rect>
<rect fill="#D0D0D0" transform="rotate(45 140.761 237.577)" height="55.7253" width="1" y="237.577" x="140.761"></rect>
<rect fill="#D0D0D0" transform="rotate(45 119.548 216.364)" height="55.7253" width="1" y="216.364" x="119.548"></rect>
<rect fill="#D0D0D0" transform="rotate(45 136.518 233.334)" height="55.7253" width="1" y="233.334" x="136.518"></rect>
<rect fill="#D0D0D0" transform="rotate(45 128.033 224.849)" height="55.7253" width="1" y="224.849" x="128.033"></rect>
<rect fill="#D0D0D0" transform="rotate(45 145.004 241.82)" height="55.7253" width="1" y="241.82" x="145.004"></rect>
<rect fill="#D0D0D0" transform="rotate(45 147.125 243.941)" height="55.7253" width="1" y="243.941" x="147.125"></rect>
<rect fill="#D0D0D0" transform="rotate(45 149.246 246.062)" height="55.7253" width="1" y="246.062" x="149.246"></rect>
<rect fill="#D0D0D0" transform="rotate(45 151.368 248.184)" height="55.7253" width="1" y="248.184" x="151.368"></rect>
</g>
<mask height="38" width="38" y="306" x="94" maskUnits="userSpaceOnUse" style="mask-type:alpha" id="mask19_309_2">
<rect fill="#ECECEC" height="38" width="38" y="306" x="94"></rect>
</mask>
<g mask="url(#mask19_309_2)">
<rect fill="#D0D0D0" transform="rotate(45 113.184 286)" height="55.7253" width="1" y="286" x="113.184"></rect>
<rect fill="#D0D0D0" transform="rotate(45 130.154 302.971)" height="55.7253" width="1" y="302.971" x="130.154"></rect>
<rect fill="#D0D0D0" transform="rotate(45 121.669 294.485)" height="55.7253" width="1" y="294.485" x="121.669"></rect>
<rect fill="#D0D0D0" transform="rotate(45 138.64 311.456)" height="55.7253" width="1" y="311.456" x="138.64"></rect>
<rect fill="#D0D0D0" transform="rotate(45 117.426 290.243)" height="55.7253" width="1" y="290.243" x="117.426"></rect>
<rect fill="#D0D0D0" transform="rotate(45 134.397 307.213)" height="55.7253" width="1" y="307.213" x="134.397"></rect>
<rect fill="#D0D0D0" transform="rotate(45 125.912 298.728)" height="55.7253" width="1" y="298.728" x="125.912"></rect>
<rect fill="#D0D0D0" transform="rotate(45 142.882 315.698)" height="55.7253" width="1" y="315.698" x="142.882"></rect>
<rect fill="#D0D0D0" transform="rotate(45 115.305 288.121)" height="55.7253" width="1" y="288.121" x="115.305"></rect>
<rect fill="#D0D0D0" transform="rotate(45 132.276 305.092)" height="55.7253" width="1" y="305.092" x="132.276"></rect>
<rect fill="#D0D0D0" transform="rotate(45 123.79 296.607)" height="55.7253" width="1" y="296.607" x="123.79"></rect>
<rect fill="#D0D0D0" transform="rotate(45 140.761 313.577)" height="55.7253" width="1" y="313.577" x="140.761"></rect>
<rect fill="#D0D0D0" transform="rotate(45 119.548 292.364)" height="55.7253" width="1" y="292.364" x="119.548"></rect>
<rect fill="#D0D0D0" transform="rotate(45 136.518 309.334)" height="55.7253" width="1" y="309.334" x="136.518"></rect>
<rect fill="#D0D0D0" transform="rotate(45 128.033 300.849)" height="55.7253" width="1" y="300.849" x="128.033"></rect>
<rect fill="#D0D0D0" transform="rotate(45 145.004 317.82)" height="55.7253" width="1" y="317.82" x="145.004"></rect>
<rect fill="#D0D0D0" transform="rotate(45 147.125 319.941)" height="55.7253" width="1" y="319.941" x="147.125"></rect>
<rect fill="#D0D0D0" transform="rotate(45 149.246 322.062)" height="55.7253" width="1" y="322.062" x="149.246"></rect>
<rect fill="#D0D0D0" transform="rotate(45 151.368 324.184)" height="55.7253" width="1" y="324.184" x="151.368"></rect>
</g>
<mask height="38" width="38" y="78" x="246" maskUnits="userSpaceOnUse" style="mask-type:alpha" id="mask20_309_2">
<rect fill="#ECECEC" height="38" width="38" y="78" x="246"></rect>
</mask>
<g mask="url(#mask20_309_2)">
<rect fill="#D0D0D0" transform="rotate(45 265.184 58)" height="55.7253" width="1" y="58" x="265.184"></rect>
<rect fill="#D0D0D0" transform="rotate(45 282.154 74.9706)" height="55.7253" width="1" y="74.9706" x="282.154"></rect>
<rect fill="#D0D0D0" transform="rotate(45 273.669 66.4852)" height="55.7253" width="1" y="66.4852" x="273.669"></rect>
<rect fill="#D0D0D0" transform="rotate(45 290.64 83.4558)" height="55.7253" width="1" y="83.4558" x="290.64"></rect>
<rect fill="#D0D0D0" transform="rotate(45 269.427 62.2427)" height="55.7253" width="1" y="62.2427" x="269.427"></rect>
<rect fill="#D0D0D0" transform="rotate(45 286.397 79.2133)" height="55.7253" width="1" y="79.2133" x="286.397"></rect>
<rect fill="#D0D0D0" transform="rotate(45 277.912 70.7279)" height="55.7253" width="1" y="70.7279" x="277.912"></rect>
<rect fill="#D0D0D0" transform="rotate(45 294.882 87.6985)" height="55.7253" width="1" y="87.6985" x="294.882"></rect>
<rect fill="#D0D0D0" transform="rotate(45 267.305 60.1213)" height="55.7253" width="1" y="60.1213" x="267.305"></rect>
<rect fill="#D0D0D0" transform="rotate(45 284.276 77.0919)" height="55.7253" width="1" y="77.0919" x="284.276"></rect>
<rect fill="#D0D0D0" transform="rotate(45 275.79 68.6066)" height="55.7253" width="1" y="68.6066" x="275.79"></rect>
<rect fill="#D0D0D0" transform="rotate(45 292.761 85.5771)" height="55.7253" width="1" y="85.5771" x="292.761"></rect>
<rect fill="#D0D0D0" transform="rotate(45 271.548 64.364)" height="55.7253" width="1" y="64.364" x="271.548"></rect>
<rect fill="#D0D0D0" transform="rotate(45 288.518 81.3345)" height="55.7253" width="1" y="81.3345" x="288.518"></rect>
<rect fill="#D0D0D0" transform="rotate(45 280.033 72.8492)" height="55.7253" width="1" y="72.8492" x="280.033"></rect>
<rect fill="#D0D0D0" transform="rotate(45 297.004 89.8198)" height="55.7253" width="1" y="89.8198" x="297.004"></rect>
<rect fill="#D0D0D0" transform="rotate(45 299.125 91.9412)" height="55.7253" width="1" y="91.9412" x="299.125"></rect>
<rect fill="#D0D0D0" transform="rotate(45 301.246 94.0625)" height="55.7253" width="1" y="94.0625" x="301.246"></rect>
<rect fill="#D0D0D0" transform="rotate(45 303.368 96.1837)" height="55.7253" width="1" y="96.1837" x="303.368"></rect>
</g>
<mask height="38" width="38" y="154" x="246" maskUnits="userSpaceOnUse" style="mask-type:alpha" id="mask21_309_2">
<rect fill="#ECECEC" height="38" width="38" y="154" x="246"></rect>
</mask>
<g mask="url(#mask21_309_2)">
<rect fill="#D0D0D0" transform="rotate(45 265.184 134)" height="55.7253" width="1" y="134" x="265.184"></rect>
<rect fill="#D0D0D0" transform="rotate(45 282.154 150.971)" height="55.7253" width="1" y="150.971" x="282.154"></rect>
<rect fill="#D0D0D0" transform="rotate(45 273.669 142.485)" height="55.7253" width="1" y="142.485" x="273.669"></rect>
<rect fill="#D0D0D0" transform="rotate(45 290.64 159.456)" height="55.7253" width="1" y="159.456" x="290.64"></rect>
<rect fill="#D0D0D0" transform="rotate(45 269.427 138.243)" height="55.7253" width="1" y="138.243" x="269.427"></rect>
<rect fill="#D0D0D0" transform="rotate(45 286.397 155.213)" height="55.7253" width="1" y="155.213" x="286.397"></rect>
<rect fill="#D0D0D0" transform="rotate(45 277.912 146.728)" height="55.7253" width="1" y="146.728" x="277.912"></rect>
<rect fill="#D0D0D0" transform="rotate(45 294.882 163.698)" height="55.7253" width="1" y="163.698" x="294.882"></rect>
<rect fill="#D0D0D0" transform="rotate(45 267.305 136.121)" height="55.7253" width="1" y="136.121" x="267.305"></rect>
<rect fill="#D0D0D0" transform="rotate(45 284.276 153.092)" height="55.7253" width="1" y="153.092" x="284.276"></rect>
<rect fill="#D0D0D0" transform="rotate(45 275.79 144.607)" height="55.7253" width="1" y="144.607" x="275.79"></rect>
<rect fill="#D0D0D0" transform="rotate(45 292.761 161.577)" height="55.7253" width="1" y="161.577" x="292.761"></rect>
<rect fill="#D0D0D0" transform="rotate(45 271.548 140.364)" height="55.7253" width="1" y="140.364" x="271.548"></rect>
<rect fill="#D0D0D0" transform="rotate(45 288.518 157.334)" height="55.7253" width="1" y="157.334" x="288.518"></rect>
<rect fill="#D0D0D0" transform="rotate(45 280.033 148.849)" height="55.7253" width="1" y="148.849" x="280.033"></rect>
<rect fill="#D0D0D0" transform="rotate(45 297.004 165.82)" height="55.7253" width="1" y="165.82" x="297.004"></rect>
<rect fill="#D0D0D0" transform="rotate(45 299.125 167.941)" height="55.7253" width="1" y="167.941" x="299.125"></rect>
<rect fill="#D0D0D0" transform="rotate(45 301.246 170.062)" height="55.7253" width="1" y="170.062" x="301.246"></rect>
<rect fill="#D0D0D0" transform="rotate(45 303.368 172.184)" height="55.7253" width="1" y="172.184" x="303.368"></rect>
</g>
<mask height="38" width="38" y="230" x="246" maskUnits="userSpaceOnUse" style="mask-type:alpha" id="mask22_309_2">
<rect fill="#ECECEC" height="38" width="38" y="230" x="246"></rect>
</mask>
<g mask="url(#mask22_309_2)">
<rect fill="#D0D0D0" transform="rotate(45 265.184 210)" height="55.7253" width="1" y="210" x="265.184"></rect>
<rect fill="#D0D0D0" transform="rotate(45 282.154 226.971)" height="55.7253" width="1" y="226.971" x="282.154"></rect>
<rect fill="#D0D0D0" transform="rotate(45 273.669 218.485)" height="55.7253" width="1" y="218.485" x="273.669"></rect>
<rect fill="#D0D0D0" transform="rotate(45 290.64 235.456)" height="55.7253" width="1" y="235.456" x="290.64"></rect>
<rect fill="#D0D0D0" transform="rotate(45 269.427 214.243)" height="55.7253" width="1" y="214.243" x="269.427"></rect>
<rect fill="#D0D0D0" transform="rotate(45 286.397 231.213)" height="55.7253" width="1" y="231.213" x="286.397"></rect>
<rect fill="#D0D0D0" transform="rotate(45 277.912 222.728)" height="55.7253" width="1" y="222.728" x="277.912"></rect>
<rect fill="#D0D0D0" transform="rotate(45 294.882 239.698)" height="55.7253" width="1" y="239.698" x="294.882"></rect>
<rect fill="#D0D0D0" transform="rotate(45 267.305 212.121)" height="55.7253" width="1" y="212.121" x="267.305"></rect>
<rect fill="#D0D0D0" transform="rotate(45 284.276 229.092)" height="55.7253" width="1" y="229.092" x="284.276"></rect>
<rect fill="#D0D0D0" transform="rotate(45 275.79 220.607)" height="55.7253" width="1" y="220.607" x="275.79"></rect>
<rect fill="#D0D0D0" transform="rotate(45 292.761 237.577)" height="55.7253" width="1" y="237.577" x="292.761"></rect>
<rect fill="#D0D0D0" transform="rotate(45 271.548 216.364)" height="55.7253" width="1" y="216.364" x="271.548"></rect>
<rect fill="#D0D0D0" transform="rotate(45 288.518 233.334)" height="55.7253" width="1" y="233.334" x="288.518"></rect>
<rect fill="#D0D0D0" transform="rotate(45 280.033 224.849)" height="55.7253" width="1" y="224.849" x="280.033"></rect>
<rect fill="#D0D0D0" transform="rotate(45 297.004 241.82)" height="55.7253" width="1" y="241.82" x="297.004"></rect>
<rect fill="#D0D0D0" transform="rotate(45 299.125 243.941)" height="55.7253" width="1" y="243.941" x="299.125"></rect>
<rect fill="#D0D0D0" transform="rotate(45 301.246 246.062)" height="55.7253" width="1" y="246.062" x="301.246"></rect>
<rect fill="#D0D0D0" transform="rotate(45 303.368 248.184)" height="55.7253" width="1" y="248.184" x="303.368"></rect>
</g>
<mask height="38" width="38" y="306" x="246" maskUnits="userSpaceOnUse" style="mask-type:alpha" id="mask23_309_2">
<rect fill="#ECECEC" height="38" width="38" y="306" x="246"></rect>
</mask>
<g mask="url(#mask23_309_2)">
<rect fill="#D0D0D0" transform="rotate(45 265.184 286)" height="55.7253" width="1" y="286" x="265.184"></rect>
<rect fill="#D0D0D0" transform="rotate(45 282.154 302.971)" height="55.7253" width="1" y="302.971" x="282.154"></rect>
<rect fill="#D0D0D0" transform="rotate(45 273.669 294.485)" height="55.7253" width="1" y="294.485" x="273.669"></rect>
<rect fill="#D0D0D0" transform="rotate(45 290.64 311.456)" height="55.7253" width="1" y="311.456" x="290.64"></rect>
<rect fill="#D0D0D0" transform="rotate(45 269.427 290.243)" height="55.7253" width="1" y="290.243" x="269.427"></rect>
<rect fill="#D0D0D0" transform="rotate(45 286.397 307.213)" height="55.7253" width="1" y="307.213" x="286.397"></rect>
<rect fill="#D0D0D0" transform="rotate(45 277.912 298.728)" height="55.7253" width="1" y="298.728" x="277.912"></rect>
<rect fill="#D0D0D0" transform="rotate(45 294.882 315.698)" height="55.7253" width="1" y="315.698" x="294.882"></rect>
<rect fill="#D0D0D0" transform="rotate(45 267.305 288.121)" height="55.7253" width="1" y="288.121" x="267.305"></rect>
<rect fill="#D0D0D0" transform="rotate(45 284.276 305.092)" height="55.7253" width="1" y="305.092" x="284.276"></rect>
<rect fill="#D0D0D0" transform="rotate(45 275.79 296.607)" height="55.7253" width="1" y="296.607" x="275.79"></rect>
<rect fill="#D0D0D0" transform="rotate(45 292.761 313.577)" height="55.7253" width="1" y="313.577" x="292.761"></rect>
<rect fill="#D0D0D0" transform="rotate(45 271.548 292.364)" height="55.7253" width="1" y="292.364" x="271.548"></rect>
<rect fill="#D0D0D0" transform="rotate(45 288.518 309.334)" height="55.7253" width="1" y="309.334" x="288.518"></rect>
<rect fill="#D0D0D0" transform="rotate(45 280.033 300.849)" height="55.7253" width="1" y="300.849" x="280.033"></rect>
<rect fill="#D0D0D0" transform="rotate(45 297.004 317.82)" height="55.7253" width="1" y="317.82" x="297.004"></rect>
<rect fill="#D0D0D0" transform="rotate(45 299.125 319.941)" height="55.7253" width="1" y="319.941" x="299.125"></rect>
<rect fill="#D0D0D0" transform="rotate(45 301.246 322.062)" height="55.7253" width="1" y="322.062" x="301.246"></rect>
<rect fill="#D0D0D0" transform="rotate(45 303.368 324.184)" height="55.7253" width="1" y="324.184" x="303.368"></rect>
</g>
<mask height="38" width="38" y="40" x="208" maskUnits="userSpaceOnUse" style="mask-type:alpha" id="mask24_309_2">
<rect fill="#ECECEC" height="38" width="38" y="40" x="208"></rect>
</mask>
<g mask="url(#mask24_309_2)">
<rect fill="#D0D0D0" transform="rotate(45 227.184 20)" height="55.7253" width="1" y="20" x="227.184"></rect>
<rect fill="#D0D0D0" transform="rotate(45 244.154 36.9706)" height="55.7253" width="1" y="36.9706" x="244.154"></rect>
<rect fill="#D0D0D0" transform="rotate(45 235.669 28.4852)" height="55.7253" width="1" y="28.4852" x="235.669"></rect>
<rect fill="#D0D0D0" transform="rotate(45 252.64 45.4558)" height="55.7253" width="1" y="45.4558" x="252.64"></rect>
<rect fill="#D0D0D0" transform="rotate(45 231.426 24.2427)" height="55.7253" width="1" y="24.2427" x="231.426"></rect>
<rect fill="#D0D0D0" transform="rotate(45 248.397 41.2133)" height="55.7253" width="1" y="41.2133" x="248.397"></rect>
<rect fill="#D0D0D0" transform="rotate(45 239.912 32.7279)" height="55.7253" width="1" y="32.7279" x="239.912"></rect>
<rect fill="#D0D0D0" transform="rotate(45 256.882 49.6985)" height="55.7253" width="1" y="49.6985" x="256.882"></rect>
<rect fill="#D0D0D0" transform="rotate(45 229.305 22.1213)" height="55.7253" width="1" y="22.1213" x="229.305"></rect>
<rect fill="#D0D0D0" transform="rotate(45 246.276 39.0919)" height="55.7253" width="1" y="39.0919" x="246.276"></rect>
<rect fill="#D0D0D0" transform="rotate(45 237.79 30.6066)" height="55.7253" width="1" y="30.6066" x="237.79"></rect>
<rect fill="#D0D0D0" transform="rotate(45 254.761 47.5771)" height="55.7253" width="1" y="47.5771" x="254.761"></rect>
<rect fill="#D0D0D0" transform="rotate(45 233.548 26.364)" height="55.7253" width="1" y="26.364" x="233.548"></rect>
<rect fill="#D0D0D0" transform="rotate(45 250.518 43.3345)" height="55.7253" width="1" y="43.3345" x="250.518"></rect>
<rect fill="#D0D0D0" transform="rotate(45 242.033 34.8492)" height="55.7253" width="1" y="34.8492" x="242.033"></rect>
<rect fill="#D0D0D0" transform="rotate(45 259.004 51.8198)" height="55.7253" width="1" y="51.8198" x="259.004"></rect>
<rect fill="#D0D0D0" transform="rotate(45 261.125 53.9412)" height="55.7253" width="1" y="53.9412" x="261.125"></rect>
<rect fill="#D0D0D0" transform="rotate(45 263.246 56.0625)" height="55.7253" width="1" y="56.0625" x="263.246"></rect>
<rect fill="#D0D0D0" transform="rotate(45 265.368 58.1837)" height="55.7253" width="1" y="58.1837" x="265.368"></rect>
</g>
<mask height="38" width="38" y="116" x="208" maskUnits="userSpaceOnUse" style="mask-type:alpha" id="mask25_309_2">
<rect fill="#ECECEC" height="38" width="38" y="116" x="208"></rect>
</mask>
<g mask="url(#mask25_309_2)">
<rect fill="#D0D0D0" transform="rotate(45 227.184 96)" height="55.7253" width="1" y="96" x="227.184"></rect>
<rect fill="#D0D0D0" transform="rotate(45 244.154 112.971)" height="55.7253" width="1" y="112.971" x="244.154"></rect>
<rect fill="#D0D0D0" transform="rotate(45 235.669 104.485)" height="55.7253" width="1" y="104.485" x="235.669"></rect>
<rect fill="#D0D0D0" transform="rotate(45 252.64 121.456)" height="55.7253" width="1" y="121.456" x="252.64"></rect>
<rect fill="#D0D0D0" transform="rotate(45 231.426 100.243)" height="55.7253" width="1" y="100.243" x="231.426"></rect>
<rect fill="#D0D0D0" transform="rotate(45 248.397 117.213)" height="55.7253" width="1" y="117.213" x="248.397"></rect>
<rect fill="#D0D0D0" transform="rotate(45 239.912 108.728)" height="55.7253" width="1" y="108.728" x="239.912"></rect>
<rect fill="#D0D0D0" transform="rotate(45 256.882 125.698)" height="55.7253" width="1" y="125.698" x="256.882"></rect>
<rect fill="#D0D0D0" transform="rotate(45 229.305 98.1213)" height="55.7253" width="1" y="98.1213" x="229.305"></rect>
<rect fill="#D0D0D0" transform="rotate(45 246.276 115.092)" height="55.7253" width="1" y="115.092" x="246.276"></rect>
<rect fill="#D0D0D0" transform="rotate(45 237.79 106.607)" height="55.7253" width="1" y="106.607" x="237.79"></rect>
<rect fill="#D0D0D0" transform="rotate(45 254.761 123.577)" height="55.7253" width="1" y="123.577" x="254.761"></rect>
<rect fill="#D0D0D0" transform="rotate(45 233.548 102.364)" height="55.7253" width="1" y="102.364" x="233.548"></rect>
<rect fill="#D0D0D0" transform="rotate(45 250.518 119.334)" height="55.7253" width="1" y="119.334" x="250.518"></rect>
<rect fill="#D0D0D0" transform="rotate(45 242.033 110.849)" height="55.7253" width="1" y="110.849" x="242.033"></rect>
<rect fill="#D0D0D0" transform="rotate(45 259.004 127.82)" height="55.7253" width="1" y="127.82" x="259.004"></rect>
<rect fill="#D0D0D0" transform="rotate(45 261.125 129.941)" height="55.7253" width="1" y="129.941" x="261.125"></rect>
<rect fill="#D0D0D0" transform="rotate(45 263.246 132.062)" height="55.7253" width="1" y="132.062" x="263.246"></rect>
<rect fill="#D0D0D0" transform="rotate(45 265.368 134.184)" height="55.7253" width="1" y="134.184" x="265.368"></rect>
</g>
<mask height="38" width="38" y="192" x="208" maskUnits="userSpaceOnUse" style="mask-type:alpha" id="mask26_309_2">
<rect fill="#ECECEC" height="38" width="38" y="192" x="208"></rect>
</mask>
<g mask="url(#mask26_309_2)">
<rect fill="#D0D0D0" transform="rotate(45 227.184 172)" height="55.7253" width="1" y="172" x="227.184"></rect>
<rect fill="#D0D0D0" transform="rotate(45 244.154 188.971)" height="55.7253" width="1" y="188.971" x="244.154"></rect>
<rect fill="#D0D0D0" transform="rotate(45 235.669 180.485)" height="55.7253" width="1" y="180.485" x="235.669"></rect>
<rect fill="#D0D0D0" transform="rotate(45 252.64 197.456)" height="55.7253" width="1" y="197.456" x="252.64"></rect>
<rect fill="#D0D0D0" transform="rotate(45 231.426 176.243)" height="55.7253" width="1" y="176.243" x="231.426"></rect>
<rect fill="#D0D0D0" transform="rotate(45 248.397 193.213)" height="55.7253" width="1" y="193.213" x="248.397"></rect>
<rect fill="#D0D0D0" transform="rotate(45 239.912 184.728)" height="55.7253" width="1" y="184.728" x="239.912"></rect>
<rect fill="#D0D0D0" transform="rotate(45 256.882 201.698)" height="55.7253" width="1" y="201.698" x="256.882"></rect>
<rect fill="#D0D0D0" transform="rotate(45 229.305 174.121)" height="55.7253" width="1" y="174.121" x="229.305"></rect>
<rect fill="#D0D0D0" transform="rotate(45 246.276 191.092)" height="55.7253" width="1" y="191.092" x="246.276"></rect>
<rect fill="#D0D0D0" transform="rotate(45 237.79 182.607)" height="55.7253" width="1" y="182.607" x="237.79"></rect>
<rect fill="#D0D0D0" transform="rotate(45 254.761 199.577)" height="55.7253" width="1" y="199.577" x="254.761"></rect>
<rect fill="#D0D0D0" transform="rotate(45 233.548 178.364)" height="55.7253" width="1" y="178.364" x="233.548"></rect>
<rect fill="#D0D0D0" transform="rotate(45 250.518 195.334)" height="55.7253" width="1" y="195.334" x="250.518"></rect>
<rect fill="#D0D0D0" transform="rotate(45 242.033 186.849)" height="55.7253" width="1" y="186.849" x="242.033"></rect>
<rect fill="#D0D0D0" transform="rotate(45 259.004 203.82)" height="55.7253" width="1" y="203.82" x="259.004"></rect>
<rect fill="#D0D0D0" transform="rotate(45 261.125 205.941)" height="55.7253" width="1" y="205.941" x="261.125"></rect>
<rect fill="#D0D0D0" transform="rotate(45 263.246 208.062)" height="55.7253" width="1" y="208.062" x="263.246"></rect>
<rect fill="#D0D0D0" transform="rotate(45 265.368 210.184)" height="55.7253" width="1" y="210.184" x="265.368"></rect>
</g>
<mask height="38" width="38" y="268" x="208" maskUnits="userSpaceOnUse" style="mask-type:alpha" id="mask27_309_2">
<rect fill="#ECECEC" height="38" width="38" y="268" x="208"></rect>
</mask>
<g mask="url(#mask27_309_2)">
<rect fill="#D0D0D0" transform="rotate(45 227.184 248)" height="55.7253" width="1" y="248" x="227.184"></rect>
<rect fill="#D0D0D0" transform="rotate(45 244.154 264.971)" height="55.7253" width="1" y="264.971" x="244.154"></rect>
<rect fill="#D0D0D0" transform="rotate(45 235.669 256.485)" height="55.7253" width="1" y="256.485" x="235.669"></rect>
<rect fill="#D0D0D0" transform="rotate(45 252.64 273.456)" height="55.7253" width="1" y="273.456" x="252.64"></rect>
<rect fill="#D0D0D0" transform="rotate(45 231.426 252.243)" height="55.7253" width="1" y="252.243" x="231.426"></rect>
<rect fill="#D0D0D0" transform="rotate(45 248.397 269.213)" height="55.7253" width="1" y="269.213" x="248.397"></rect>
<rect fill="#D0D0D0" transform="rotate(45 239.912 260.728)" height="55.7253" width="1" y="260.728" x="239.912"></rect>
<rect fill="#D0D0D0" transform="rotate(45 256.882 277.698)" height="55.7253" width="1" y="277.698" x="256.882"></rect>
<rect fill="#D0D0D0" transform="rotate(45 229.305 250.121)" height="55.7253" width="1" y="250.121" x="229.305"></rect>
<rect fill="#D0D0D0" transform="rotate(45 246.276 267.092)" height="55.7253" width="1" y="267.092" x="246.276"></rect>
<rect fill="#D0D0D0" transform="rotate(45 237.79 258.607)" height="55.7253" width="1" y="258.607" x="237.79"></rect>
<rect fill="#D0D0D0" transform="rotate(45 254.761 275.577)" height="55.7253" width="1" y="275.577" x="254.761"></rect>
<rect fill="#D0D0D0" transform="rotate(45 233.548 254.364)" height="55.7253" width="1" y="254.364" x="233.548"></rect>
<rect fill="#D0D0D0" transform="rotate(45 250.518 271.334)" height="55.7253" width="1" y="271.334" x="250.518"></rect>
<rect fill="#D0D0D0" transform="rotate(45 242.033 262.849)" height="55.7253" width="1" y="262.849" x="242.033"></rect>
<rect fill="#D0D0D0" transform="rotate(45 259.004 279.82)" height="55.7253" width="1" y="279.82" x="259.004"></rect>
<rect fill="#D0D0D0" transform="rotate(45 261.125 281.941)" height="55.7253" width="1" y="281.941" x="261.125"></rect>
<rect fill="#D0D0D0" transform="rotate(45 263.246 284.062)" height="55.7253" width="1" y="284.062" x="263.246"></rect>
<rect fill="#D0D0D0" transform="rotate(45 265.368 286.184)" height="55.7253" width="1" y="286.184" x="265.368"></rect>
</g>
<mask height="38" width="38" y="40" x="284" maskUnits="userSpaceOnUse" style="mask-type:alpha" id="mask28_309_2">
<rect fill="#ECECEC" height="38" width="38" y="40" x="284"></rect>
</mask>
<g mask="url(#mask28_309_2)">
<rect fill="#D0D0D0" transform="rotate(45 303.184 20)" height="55.7253" width="1" y="20" x="303.184"></rect>
<rect fill="#D0D0D0" transform="rotate(45 320.154 36.9706)" height="55.7253" width="1" y="36.9706" x="320.154"></rect>
<rect fill="#D0D0D0" transform="rotate(45 311.669 28.4852)" height="55.7253" width="1" y="28.4852" x="311.669"></rect>
<rect fill="#D0D0D0" transform="rotate(45 328.64 45.4558)" height="55.7253" width="1" y="45.4558" x="328.64"></rect>
<rect fill="#D0D0D0" transform="rotate(45 307.427 24.2427)" height="55.7253" width="1" y="24.2427" x="307.427"></rect>
<rect fill="#D0D0D0" transform="rotate(45 324.397 41.2133)" height="55.7253" width="1" y="41.2133" x="324.397"></rect>
<rect fill="#D0D0D0" transform="rotate(45 315.912 32.7279)" height="55.7253" width="1" y="32.7279" x="315.912"></rect>
<rect fill="#D0D0D0" transform="rotate(45 332.882 49.6985)" height="55.7253" width="1" y="49.6985" x="332.882"></rect>
<rect fill="#D0D0D0" transform="rotate(45 305.305 22.1213)" height="55.7253" width="1" y="22.1213" x="305.305"></rect>
<rect fill="#D0D0D0" transform="rotate(45 322.276 39.0919)" height="55.7253" width="1" y="39.0919" x="322.276"></rect>
<rect fill="#D0D0D0" transform="rotate(45 313.79 30.6066)" height="55.7253" width="1" y="30.6066" x="313.79"></rect>
<rect fill="#D0D0D0" transform="rotate(45 330.761 47.5771)" height="55.7253" width="1" y="47.5771" x="330.761"></rect>
<rect fill="#D0D0D0" transform="rotate(45 309.548 26.364)" height="55.7253" width="1" y="26.364" x="309.548"></rect>
<rect fill="#D0D0D0" transform="rotate(45 326.518 43.3345)" height="55.7253" width="1" y="43.3345" x="326.518"></rect>
<rect fill="#D0D0D0" transform="rotate(45 318.033 34.8492)" height="55.7253" width="1" y="34.8492" x="318.033"></rect>
<rect fill="#D0D0D0" transform="rotate(45 335.004 51.8198)" height="55.7253" width="1" y="51.8198" x="335.004"></rect>
<rect fill="#D0D0D0" transform="rotate(45 337.125 53.9412)" height="55.7253" width="1" y="53.9412" x="337.125"></rect>
<rect fill="#D0D0D0" transform="rotate(45 339.246 56.0625)" height="55.7253" width="1" y="56.0625" x="339.246"></rect>
<rect fill="#D0D0D0" transform="rotate(45 341.368 58.1837)" height="55.7253" width="1" y="58.1837" x="341.368"></rect>
</g>
<mask height="38" width="38" y="116" x="284" maskUnits="userSpaceOnUse" style="mask-type:alpha" id="mask29_309_2">
<rect fill="#ECECEC" height="38" width="38" y="116" x="284"></rect>
</mask>
<g mask="url(#mask29_309_2)">
<rect fill="#D0D0D0" transform="rotate(45 303.184 96)" height="55.7253" width="1" y="96" x="303.184"></rect>
<rect fill="#D0D0D0" transform="rotate(45 320.154 112.971)" height="55.7253" width="1" y="112.971" x="320.154"></rect>
<rect fill="#D0D0D0" transform="rotate(45 311.669 104.485)" height="55.7253" width="1" y="104.485" x="311.669"></rect>
<rect fill="#D0D0D0" transform="rotate(45 328.64 121.456)" height="55.7253" width="1" y="121.456" x="328.64"></rect>
<rect fill="#D0D0D0" transform="rotate(45 307.427 100.243)" height="55.7253" width="1" y="100.243" x="307.427"></rect>
<rect fill="#D0D0D0" transform="rotate(45 324.397 117.213)" height="55.7253" width="1" y="117.213" x="324.397"></rect>
<rect fill="#D0D0D0" transform="rotate(45 315.912 108.728)" height="55.7253" width="1" y="108.728" x="315.912"></rect>
<rect fill="#D0D0D0" transform="rotate(45 332.882 125.698)" height="55.7253" width="1" y="125.698" x="332.882"></rect>
<rect fill="#D0D0D0" transform="rotate(45 305.305 98.1213)" height="55.7253" width="1" y="98.1213" x="305.305"></rect>
<rect fill="#D0D0D0" transform="rotate(45 322.276 115.092)" height="55.7253" width="1" y="115.092" x="322.276"></rect>
<rect fill="#D0D0D0" transform="rotate(45 313.79 106.607)" height="55.7253" width="1" y="106.607" x="313.79"></rect>
<rect fill="#D0D0D0" transform="rotate(45 330.761 123.577)" height="55.7253" width="1" y="123.577" x="330.761"></rect>
<rect fill="#D0D0D0" transform="rotate(45 309.548 102.364)" height="55.7253" width="1" y="102.364" x="309.548"></rect>
<rect fill="#D0D0D0" transform="rotate(45 326.518 119.334)" height="55.7253" width="1" y="119.334" x="326.518"></rect>
<rect fill="#D0D0D0" transform="rotate(45 318.033 110.849)" height="55.7253" width="1" y="110.849" x="318.033"></rect>
<rect fill="#D0D0D0" transform="rotate(45 335.004 127.82)" height="55.7253" width="1" y="127.82" x="335.004"></rect>
<rect fill="#D0D0D0" transform="rotate(45 337.125 129.941)" height="55.7253" width="1" y="129.941" x="337.125"></rect>
<rect fill="#D0D0D0" transform="rotate(45 339.246 132.062)" height="55.7253" width="1" y="132.062" x="339.246"></rect>
<rect fill="#D0D0D0" transform="rotate(45 341.368 134.184)" height="55.7253" width="1" y="134.184" x="341.368"></rect>
</g>
<mask height="38" width="38" y="192" x="284" maskUnits="userSpaceOnUse" style="mask-type:alpha" id="mask30_309_2">
<rect fill="#ECECEC" height="38" width="38" y="192" x="284"></rect>
</mask>
<g mask="url(#mask30_309_2)">
<rect fill="#D0D0D0" transform="rotate(45 303.184 172)" height="55.7253" width="1" y="172" x="303.184"></rect>
<rect fill="#D0D0D0" transform="rotate(45 320.154 188.971)" height="55.7253" width="1" y="188.971" x="320.154"></rect>
<rect fill="#D0D0D0" transform="rotate(45 311.669 180.485)" height="55.7253" width="1" y="180.485" x="311.669"></rect>
<rect fill="#D0D0D0" transform="rotate(45 328.64 197.456)" height="55.7253" width="1" y="197.456" x="328.64"></rect>
<rect fill="#D0D0D0" transform="rotate(45 307.427 176.243)" height="55.7253" width="1" y="176.243" x="307.427"></rect>
<rect fill="#D0D0D0" transform="rotate(45 324.397 193.213)" height="55.7253" width="1" y="193.213" x="324.397"></rect>
<rect fill="#D0D0D0" transform="rotate(45 315.912 184.728)" height="55.7253" width="1" y="184.728" x="315.912"></rect>
<rect fill="#D0D0D0" transform="rotate(45 332.882 201.698)" height="55.7253" width="1" y="201.698" x="332.882"></rect>
<rect fill="#D0D0D0" transform="rotate(45 305.305 174.121)" height="55.7253" width="1" y="174.121" x="305.305"></rect>
<rect fill="#D0D0D0" transform="rotate(45 322.276 191.092)" height="55.7253" width="1" y="191.092" x="322.276"></rect>
<rect fill="#D0D0D0" transform="rotate(45 313.79 182.607)" height="55.7253" width="1" y="182.607" x="313.79"></rect>
<rect fill="#D0D0D0" transform="rotate(45 330.761 199.577)" height="55.7253" width="1" y="199.577" x="330.761"></rect>
<rect fill="#D0D0D0" transform="rotate(45 309.548 178.364)" height="55.7253" width="1" y="178.364" x="309.548"></rect>
<rect fill="#D0D0D0" transform="rotate(45 326.518 195.334)" height="55.7253" width="1" y="195.334" x="326.518"></rect>
<rect fill="#D0D0D0" transform="rotate(45 318.033 186.849)" height="55.7253" width="1" y="186.849" x="318.033"></rect>
<rect fill="#D0D0D0" transform="rotate(45 335.004 203.82)" height="55.7253" width="1" y="203.82" x="335.004"></rect>
<rect fill="#D0D0D0" transform="rotate(45 337.125 205.941)" height="55.7253" width="1" y="205.941" x="337.125"></rect>
<rect fill="#D0D0D0" transform="rotate(45 339.246 208.062)" height="55.7253" width="1" y="208.062" x="339.246"></rect>
<rect fill="#D0D0D0" transform="rotate(45 341.368 210.184)" height="55.7253" width="1" y="210.184" x="341.368"></rect>
</g>
<mask height="38" width="38" y="268" x="284" maskUnits="userSpaceOnUse" style="mask-type:alpha" id="mask31_309_2">
<rect fill="#ECECEC" height="38" width="38" y="268" x="284"></rect>
</mask>
<g mask="url(#mask31_309_2)">
<rect fill="#D0D0D0" transform="rotate(45 303.184 248)" height="55.7253" width="1" y="248" x="303.184"></rect>
<rect fill="#D0D0D0" transform="rotate(45 320.154 264.971)" height="55.7253" width="1" y="264.971" x="320.154"></rect>
<rect fill="#D0D0D0" transform="rotate(45 311.669 256.485)" height="55.7253" width="1" y="256.485" x="311.669"></rect>
<rect fill="#D0D0D0" transform="rotate(45 328.64 273.456)" height="55.7253" width="1" y="273.456" x="328.64"></rect>
<rect fill="#D0D0D0" transform="rotate(45 307.427 252.243)" height="55.7253" width="1" y="252.243" x="307.427"></rect>
<rect fill="#D0D0D0" transform="rotate(45 324.397 269.213)" height="55.7253" width="1" y="269.213" x="324.397"></rect>
<rect fill="#D0D0D0" transform="rotate(45 315.912 260.728)" height="55.7253" width="1" y="260.728" x="315.912"></rect>
<rect fill="#D0D0D0" transform="rotate(45 332.882 277.698)" height="55.7253" width="1" y="277.698" x="332.882"></rect>
<rect fill="#D0D0D0" transform="rotate(45 305.305 250.121)" height="55.7253" width="1" y="250.121" x="305.305"></rect>
<rect fill="#D0D0D0" transform="rotate(45 322.276 267.092)" height="55.7253" width="1" y="267.092" x="322.276"></rect>
<rect fill="#D0D0D0" transform="rotate(45 313.79 258.607)" height="55.7253" width="1" y="258.607" x="313.79"></rect>
<rect fill="#D0D0D0" transform="rotate(45 330.761 275.577)" height="55.7253" width="1" y="275.577" x="330.761"></rect>
<rect fill="#D0D0D0" transform="rotate(45 309.548 254.364)" height="55.7253" width="1" y="254.364" x="309.548"></rect>
<rect fill="#D0D0D0" transform="rotate(45 326.518 271.334)" height="55.7253" width="1" y="271.334" x="326.518"></rect>
<rect fill="#D0D0D0" transform="rotate(45 318.033 262.849)" height="55.7253" width="1" y="262.849" x="318.033"></rect>
<rect fill="#D0D0D0" transform="rotate(45 335.004 279.82)" height="55.7253" width="1" y="279.82" x="335.004"></rect>
<rect fill="#D0D0D0" transform="rotate(45 337.125 281.941)" height="55.7253" width="1" y="281.941" x="337.125"></rect>
<rect fill="#D0D0D0" transform="rotate(45 339.246 284.062)" height="55.7253" width="1" y="284.062" x="339.246"></rect>
<rect fill="#D0D0D0" transform="rotate(45 341.368 286.184)" height="55.7253" width="1" y="286.184" x="341.368"></rect>
</g>
<rect fill="white" height="38" width="38" y="40" x="18"></rect>
<rect fill="white" height="38" width="38" y="116" x="18"></rect>
<rect fill="white" height="38" width="38" y="192" x="18"></rect>
<rect fill="white" height="38" width="38" y="268" x="18"></rect>
<rect fill="white" height="38" width="38" y="40" x="170"></rect>
<rect fill="white" height="38" width="38" y="116" x="170"></rect>
<rect fill="white" height="38" width="38" y="192" x="170"></rect>
<rect fill="white" height="38" width="38" y="268" x="170"></rect>
<rect fill="white" height="38" width="38" y="40" x="94"></rect>
<rect fill="white" height="38" width="38" y="116" x="94"></rect>
<rect fill="white" height="38" width="38" y="192" x="94"></rect>
<rect fill="white" height="38" width="38" y="268" x="94"></rect>
<rect fill="white" height="38" width="38" y="78" x="56"></rect>
<rect fill="white" height="38" width="38" y="154" x="56"></rect>
<rect fill="white" height="38" width="38" y="230" x="56"></rect>
<rect fill="white" height="38" width="38" y="306" x="56"></rect>
<rect fill="white" height="38" width="38" y="78" x="208"></rect>
<rect fill="white" height="38" width="38" y="154" x="208"></rect>
<rect fill="white" height="38" width="38" y="230" x="208"></rect>
<rect fill="white" height="38" width="38" y="78" x="132"></rect>
<rect fill="white" height="38" width="38" y="154" x="132"></rect>
<rect fill="white" height="38" width="38" y="230" x="132"></rect>
<rect fill="white" height="38" width="38" y="306" x="132"></rect>
<rect fill="white" height="38" width="38" y="78" x="284"></rect>
<rect fill="white" height="38" width="38" y="154" x="284"></rect>
<rect fill="white" height="38" width="38" y="230" x="284"></rect>
<rect fill="white" height="38" width="38" y="306" x="284"></rect>
<rect fill="white" height="38" width="38" y="40" x="246"></rect>
<rect fill="white" height="38" width="38" y="116" x="246"></rect>
<rect fill="white" height="38" width="38" y="192" x="246"></rect>
<rect fill="white" height="38" width="38" y="268" x="246"></rect>
<rect fill="white" height="38" width="38" y="306" x="208"></rect>
<rect fill="#0D0E12" height="30" width="132" y="314" x="330"></rect>
<rect fill="#0D0E12" height="30" width="132" y="40" x="330"></rect>
<path fill="#7F899B" d="M34.11 354V345.09H35.353V348.94H37.641V345.09H38.884V354H37.641V349.831H35.353V354H34.11Z"></path>
<path fill="#7F899B" d="M13.2607 330.099C12.7254 330.099 12.2964 329.993 11.9737 329.78C11.6511 329.567 11.4164 329.267 11.2697 328.878C11.1304 328.482 11.0607 328.02 11.0607 327.492C11.0607 327.191 11.0864 326.927 11.1377 326.7C11.1891 326.473 11.2624 326.275 11.3577 326.106C11.4604 325.93 11.5777 325.78 11.7097 325.655C11.8491 325.523 11.9994 325.406 12.1607 325.303C11.8674 325.105 11.6291 324.848 11.4457 324.533C11.2624 324.21 11.1707 323.803 11.1707 323.312C11.1707 322.843 11.2441 322.436 11.3907 322.091C11.5374 321.746 11.7647 321.482 12.0727 321.299C12.3881 321.108 12.7841 321.013 13.2607 321.013C13.7374 321.013 14.1261 321.108 14.4267 321.299C14.7347 321.482 14.9621 321.746 15.1087 322.091C15.2554 322.436 15.3287 322.843 15.3287 323.312C15.3287 323.811 15.2371 324.218 15.0537 324.533C14.8777 324.848 14.6394 325.105 14.3387 325.303C14.5001 325.406 14.6467 325.523 14.7787 325.655C14.9181 325.78 15.0354 325.93 15.1307 326.106C15.2334 326.275 15.3104 326.473 15.3617 326.7C15.4204 326.927 15.4497 327.191 15.4497 327.492C15.4497 328.02 15.3764 328.482 15.2297 328.878C15.0904 329.267 14.8594 329.567 14.5367 329.78C14.2214 329.993 13.7961 330.099 13.2607 330.099ZM13.2607 329.164C13.5467 329.164 13.7667 329.091 13.9207 328.944C14.0747 328.797 14.1774 328.599 14.2287 328.35C14.2874 328.101 14.3167 327.822 14.3167 327.514C14.3167 327.235 14.2837 326.975 14.2177 326.733C14.1591 326.484 14.0527 326.282 13.8987 326.128C13.7447 325.967 13.5321 325.886 13.2607 325.886C12.9894 325.886 12.7731 325.963 12.6117 326.117C12.4577 326.271 12.3477 326.473 12.2817 326.722C12.2157 326.964 12.1827 327.228 12.1827 327.514C12.1827 327.822 12.2121 328.101 12.2707 328.35C12.3294 328.599 12.4357 328.797 12.5897 328.944C12.7511 329.091 12.9747 329.164 13.2607 329.164ZM13.2607 324.764C13.5101 324.757 13.6971 324.68 13.8217 324.533C13.9537 324.386 14.0454 324.199 14.0967 323.972C14.1481 323.737 14.1737 323.495 14.1737 323.246C14.1737 322.879 14.1077 322.568 13.9757 322.311C13.8437 322.054 13.6054 321.926 13.2607 321.926C12.9161 321.926 12.6741 322.054 12.5347 322.311C12.3954 322.568 12.3257 322.879 12.3257 323.246C12.3257 323.495 12.3514 323.737 12.4027 323.972C12.4541 324.199 12.5457 324.386 12.6777 324.533C12.8171 324.68 13.0114 324.757 13.2607 324.764Z"></path>
<path fill="#7F899B" d="M11.7798 290L13.3858 282.014H10.9988V281.09H14.5628V281.662L12.9128 290H11.7798Z"></path>
<path fill="#7F899B" d="M12.2948 254.099C11.7814 254.099 11.3634 253.971 11.0408 253.714C10.7181 253.45 10.4798 253.098 10.3258 252.658C10.1791 252.211 10.1058 251.716 10.1058 251.173V248.17C10.1058 247.591 10.1718 247.063 10.3038 246.586C10.4358 246.109 10.6594 245.728 10.9748 245.442C11.2974 245.156 11.7374 245.013 12.2948 245.013C12.7568 245.013 13.1454 245.097 13.4608 245.266C13.7834 245.435 14.0291 245.68 14.1978 246.003C14.3738 246.326 14.4654 246.718 14.4728 247.18C14.4728 247.195 14.4728 247.217 14.4728 247.246C14.4801 247.268 14.4838 247.29 14.4838 247.312H13.2958C13.2958 246.879 13.2261 246.549 13.0868 246.322C12.9474 246.095 12.6834 245.981 12.2948 245.981C12.0821 245.981 11.8988 246.051 11.7448 246.19C11.5908 246.322 11.4734 246.527 11.3928 246.806C11.3194 247.085 11.2828 247.444 11.2828 247.884V249.237C11.4001 249.054 11.5651 248.907 11.7778 248.797C11.9978 248.68 12.2654 248.621 12.5808 248.621C13.0721 248.621 13.4571 248.727 13.7358 248.94C14.0144 249.153 14.2124 249.453 14.3298 249.842C14.4471 250.223 14.5058 250.674 14.5058 251.195C14.5058 251.73 14.4324 252.218 14.2858 252.658C14.1391 253.098 13.9044 253.45 13.5818 253.714C13.2591 253.971 12.8301 254.099 12.2948 254.099ZM12.2948 253.12C12.5588 253.12 12.7641 253.047 12.9108 252.9C13.0574 252.746 13.1601 252.544 13.2188 252.295C13.2848 252.046 13.3178 251.774 13.3178 251.481C13.3178 251.129 13.2994 250.803 13.2628 250.502C13.2334 250.201 13.1491 249.963 13.0098 249.787C12.8704 249.604 12.6321 249.512 12.2948 249.512C12.1334 249.512 11.9868 249.541 11.8548 249.6C11.7228 249.659 11.6091 249.736 11.5138 249.831C11.4184 249.919 11.3414 250.014 11.2828 250.117V251.448C11.2828 251.749 11.3121 252.027 11.3708 252.284C11.4368 252.541 11.5431 252.746 11.6898 252.9C11.8364 253.047 12.0381 253.12 12.2948 253.12Z"></path>
<path fill="#7F899B" d="M12.4416 216.088C11.9062 216.088 11.4809 215.985 11.1656 215.78C10.8502 215.575 10.6229 215.278 10.4836 214.889C10.3516 214.5 10.2856 214.038 10.2856 213.503H11.4626C11.4626 213.767 11.4846 214.027 11.5286 214.284C11.5726 214.533 11.6642 214.742 11.8036 214.911C11.9502 215.072 12.1702 215.153 12.4636 215.153C12.7862 215.153 13.0172 215.061 13.1566 214.878C13.2959 214.687 13.3839 214.434 13.4206 214.119C13.4572 213.796 13.4756 213.433 13.4756 213.03C13.4756 212.627 13.4536 212.286 13.4096 212.007C13.3656 211.721 13.2739 211.505 13.1346 211.358C12.9952 211.204 12.7752 211.127 12.4746 211.127C12.2326 211.127 12.0272 211.204 11.8586 211.358C11.6899 211.505 11.5652 211.673 11.4846 211.864H10.4836V207.09H14.3226V208.267H11.5506L11.4736 210.731C11.6202 210.577 11.7999 210.456 12.0126 210.368C12.2326 210.28 12.4819 210.236 12.7606 210.236C13.2446 210.236 13.6222 210.35 13.8936 210.577C14.1722 210.804 14.3666 211.116 14.4766 211.512C14.5939 211.908 14.6526 212.363 14.6526 212.876C14.6526 213.331 14.6196 213.756 14.5536 214.152C14.4876 214.541 14.3702 214.882 14.2016 215.175C14.0402 215.461 13.8166 215.685 13.5306 215.846C13.2446 216.007 12.8816 216.088 12.4416 216.088Z"></path>
<path fill="#7F899B" d="M12.7076 178V175.613H10.1226V174.381L12.4436 169.09H13.8296V174.568H14.8306V175.613H13.8296V178H12.7076ZM11.2556 174.568H12.7076V170.52L11.2556 174.568Z"></path>
<path fill="#7F899B" d="M12.3758 140.099C11.8918 140.099 11.4885 140.007 11.1658 139.824C10.8431 139.641 10.6011 139.377 10.4398 139.032C10.2785 138.687 10.1978 138.28 10.1978 137.811V137.514H11.3638C11.3638 137.543 11.3638 137.576 11.3638 137.613C11.3638 137.642 11.3638 137.675 11.3638 137.712C11.3711 137.976 11.4005 138.214 11.4518 138.427C11.5105 138.64 11.6095 138.808 11.7488 138.933C11.8955 139.058 12.1045 139.12 12.3758 139.12C12.6618 139.12 12.8781 139.054 13.0248 138.922C13.1715 138.783 13.2705 138.588 13.3218 138.339C13.3731 138.09 13.3988 137.804 13.3988 137.481C13.3988 137.012 13.3108 136.63 13.1348 136.337C12.9661 136.036 12.6655 135.871 12.2328 135.842C12.2108 135.835 12.1815 135.831 12.1448 135.831C12.1155 135.831 12.0898 135.831 12.0678 135.831V134.654C12.0898 134.654 12.1155 134.654 12.1448 134.654C12.1741 134.654 12.1998 134.654 12.2218 134.654C12.6398 134.639 12.9405 134.529 13.1238 134.324C13.3071 134.119 13.3988 133.778 13.3988 133.301C13.3988 132.898 13.3291 132.575 13.1898 132.333C13.0578 132.091 12.7901 131.97 12.3868 131.97C11.9835 131.97 11.7158 132.106 11.5838 132.377C11.4518 132.641 11.3785 132.982 11.3638 133.4C11.3638 133.429 11.3638 133.462 11.3638 133.499C11.3638 133.528 11.3638 133.558 11.3638 133.587H10.1978V133.29C10.1978 132.813 10.2785 132.406 10.4398 132.069C10.6011 131.732 10.8431 131.471 11.1658 131.288C11.4958 131.105 11.9028 131.013 12.3868 131.013C12.8781 131.013 13.2851 131.105 13.6078 131.288C13.9305 131.471 14.1725 131.735 14.3338 132.08C14.4951 132.417 14.5758 132.824 14.5758 133.301C14.5758 133.836 14.4585 134.265 14.2238 134.588C13.9965 134.911 13.6885 135.131 13.2998 135.248C13.5711 135.329 13.7985 135.468 13.9818 135.666C14.1725 135.864 14.3191 136.117 14.4218 136.425C14.5245 136.726 14.5758 137.078 14.5758 137.481C14.5758 138.009 14.5025 138.471 14.3558 138.867C14.2091 139.256 13.9745 139.56 13.6518 139.78C13.3291 139.993 12.9038 140.099 12.3758 140.099Z"></path>
<path fill="#7F899B" d="M10.1981 102V101.164L12.4641 97.633C12.6327 97.369 12.7867 97.1233 12.9261 96.896C13.0727 96.6687 13.1901 96.4303 13.2781 96.181C13.3734 95.9243 13.4211 95.631 13.4211 95.301C13.4211 94.8903 13.3551 94.5677 13.2231 94.333C13.0911 94.0983 12.8601 93.981 12.5301 93.981C12.2514 93.981 12.0351 94.058 11.8811 94.212C11.7271 94.366 11.6207 94.5677 11.5621 94.817C11.5034 95.0663 11.4741 95.334 11.4741 95.62V95.917H10.2971V95.609C10.2971 95.0737 10.3667 94.6153 10.5061 94.234C10.6527 93.8453 10.8837 93.5447 11.1991 93.332C11.5217 93.1193 11.9471 93.013 12.4751 93.013C13.1937 93.013 13.7291 93.2183 14.0811 93.629C14.4331 94.0323 14.6091 94.5933 14.6091 95.312C14.6091 95.6933 14.5614 96.027 14.4661 96.313C14.3781 96.599 14.2607 96.8667 14.1141 97.116C13.9674 97.3653 13.8061 97.622 13.6301 97.886L11.5841 101.01H14.4001V102H10.1981Z"></path>
<path fill="#7F899B" d="M12.5197 65V57.63C12.5123 57.6373 12.428 57.6593 12.2667 57.696C12.1127 57.7327 11.9367 57.7693 11.7387 57.806C11.5407 57.8427 11.3647 57.8757 11.2107 57.905C11.0567 57.9343 10.976 57.949 10.9687 57.949V57.058C11.0933 57.0287 11.2363 56.9883 11.3977 56.937C11.5663 56.8857 11.735 56.8233 11.9037 56.75C12.0797 56.6767 12.2447 56.585 12.3987 56.475C12.56 56.365 12.6957 56.2367 12.8057 56.09H13.6967V65H12.5197Z"></path>
<path fill="#7F899B" d="M74.8726 354.11C74.3153 354.11 73.868 353.993 73.5306 353.758C73.2006 353.516 72.9586 353.168 72.8046 352.713C72.658 352.258 72.5846 351.712 72.5846 351.074V348.093C72.5846 347.44 72.6506 346.887 72.7826 346.432C72.922 345.97 73.164 345.618 73.5086 345.376C73.8606 345.134 74.3483 345.013 74.9716 345.013C75.529 345.013 75.9763 345.108 76.3136 345.299C76.6583 345.482 76.9076 345.768 77.0616 346.157C77.2156 346.538 77.2926 347.022 77.2926 347.609V347.939H76.1266V347.664C76.1266 347.275 76.101 346.96 76.0496 346.718C75.9983 346.469 75.892 346.285 75.7306 346.168C75.5766 346.043 75.331 345.981 74.9936 345.981C74.627 345.981 74.3593 346.065 74.1906 346.234C74.0293 346.403 73.9266 346.634 73.8826 346.927C73.846 347.213 73.8276 347.539 73.8276 347.906V351.206C73.8276 351.631 73.857 351.987 73.9156 352.273C73.9816 352.559 74.1026 352.772 74.2786 352.911C74.4546 353.05 74.704 353.12 75.0266 353.12C75.3493 353.12 75.5986 353.043 75.7746 352.889C75.9506 352.735 76.0716 352.508 76.1376 352.207C76.2036 351.906 76.2366 351.532 76.2366 351.085V350.469H75.1036V349.589H77.3586V354H76.5776L76.4566 352.977C76.3393 353.307 76.156 353.578 75.9066 353.791C75.6573 354.004 75.3126 354.11 74.8726 354.11Z"></path>
<path fill="#7F899B" d="M111.045 354V345.09H114.488V345.981H112.288V348.951H113.993V349.831H112.288V354H111.045Z"></path>
<path fill="#7F899B" d="M149.953 354V345.09H153.407V346.014H151.196V348.962H152.989V349.842H151.196V353.109H153.429V354H149.953Z"></path>
<path fill="#7F899B" d="M186.793 354V345.09H188.729C189.389 345.09 189.909 345.193 190.291 345.398C190.679 345.596 190.954 345.897 191.116 346.3C191.284 346.703 191.369 347.206 191.369 347.807V351.085C191.369 351.716 191.284 352.247 191.116 352.68C190.954 353.113 190.687 353.443 190.313 353.67C189.946 353.89 189.451 354 188.828 354H186.793ZM188.036 353.109H188.74C189.194 353.109 189.517 353.021 189.708 352.845C189.898 352.669 190.012 352.412 190.049 352.075C190.093 351.738 190.115 351.331 190.115 350.854V347.961C190.115 347.499 190.085 347.125 190.027 346.839C189.968 346.553 189.84 346.344 189.642 346.212C189.444 346.08 189.132 346.014 188.707 346.014H188.036V353.109Z"></path>
<path fill="#7F899B" d="M227.095 354.099C226.465 354.099 225.973 353.967 225.621 353.703C225.277 353.439 225.035 353.083 224.895 352.636C224.763 352.189 224.697 351.69 224.697 351.14V347.994C224.697 347.393 224.763 346.868 224.895 346.421C225.035 345.974 225.277 345.629 225.621 345.387C225.973 345.138 226.465 345.013 227.095 345.013C227.653 345.013 228.093 345.116 228.415 345.321C228.745 345.526 228.98 345.82 229.119 346.201C229.266 346.582 229.339 347.041 229.339 347.576V348.28H228.162V347.653C228.162 347.323 228.144 347.033 228.107 346.784C228.078 346.527 227.99 346.329 227.843 346.19C227.697 346.051 227.451 345.981 227.106 345.981C226.754 345.981 226.498 346.058 226.336 346.212C226.175 346.359 226.069 346.571 226.017 346.85C225.973 347.121 225.951 347.44 225.951 347.807V351.338C225.951 351.785 225.988 352.141 226.061 352.405C226.135 352.662 226.256 352.845 226.424 352.955C226.593 353.065 226.82 353.12 227.106 353.12C227.444 353.12 227.686 353.047 227.832 352.9C227.979 352.746 228.071 352.537 228.107 352.273C228.144 352.009 228.162 351.701 228.162 351.349V350.689H229.339V351.349C229.339 351.892 229.273 352.372 229.141 352.79C229.009 353.201 228.782 353.523 228.459 353.758C228.137 353.985 227.682 354.099 227.095 354.099Z"></path>
<path fill="#7F899B" d="M262.809 354V345.09H264.855C265.258 345.09 265.606 345.134 265.9 345.222C266.2 345.31 266.45 345.446 266.648 345.629C266.846 345.812 266.992 346.047 267.088 346.333C267.183 346.612 267.231 346.942 267.231 347.323C267.231 347.69 267.183 348.009 267.088 348.28C267 348.544 266.86 348.753 266.67 348.907C266.486 349.061 266.248 349.16 265.955 349.204C266.314 349.285 266.604 349.424 266.824 349.622C267.044 349.813 267.205 350.062 267.308 350.37C267.418 350.671 267.473 351.034 267.473 351.459C267.473 351.84 267.429 352.189 267.341 352.504C267.253 352.819 267.113 353.087 266.923 353.307C266.739 353.527 266.501 353.699 266.208 353.824C265.922 353.941 265.581 354 265.185 354H262.809ZM264.052 353.109H264.888C265.445 353.109 265.815 352.981 265.999 352.724C266.189 352.46 266.285 352.038 266.285 351.459C266.285 351.085 266.233 350.773 266.131 350.524C266.035 350.267 265.878 350.077 265.658 349.952C265.445 349.82 265.155 349.754 264.789 349.754H264.052V353.109ZM264.052 348.808H264.789C265.141 348.808 265.416 348.76 265.614 348.665C265.812 348.562 265.951 348.401 266.032 348.181C266.112 347.961 266.153 347.675 266.153 347.323C266.153 346.912 266.09 346.615 265.966 346.432C265.841 346.249 265.647 346.135 265.383 346.091C265.119 346.04 264.774 346.014 264.349 346.014H264.052V348.808Z"></path>
<path fill="#7F899B" d="M300.502 354L302.394 345.09H303.593L305.496 354H304.319L303.912 351.756H302.097L301.668 354H300.502ZM302.262 350.865H303.747L302.999 346.85L302.262 350.865Z"></path>
<path fill="#F1F1F1" d="M330 109H462V249H330V109Z"></path>
<rect fill="#F1F1F1" height="4" width="100" y="100" x="362"></rect>
<rect fill="#F1F1F1" height="4" width="100" y="305" x="362"></rect>
<rect fill="#393939" height="1" width="480" y="29"></rect>
<path fill="white" d="M329.72 21V11.28H333.92V12.732H331.868V15.18H333.656V16.68H331.868V21H329.72ZM334.923 21V11.28H338.187C338.771 11.28 339.251 11.392 339.627 11.616C340.003 11.832 340.283 12.152 340.467 12.576C340.651 12.992 340.743 13.5 340.743 14.1C340.743 14.852 340.619 15.428 340.371 15.828C340.123 16.22 339.787 16.492 339.363 16.644C338.939 16.796 338.463 16.872 337.935 16.872H337.071V21H334.923ZM337.071 15.372H337.791C338.055 15.372 338.255 15.324 338.391 15.228C338.527 15.132 338.615 14.988 338.655 14.796C338.703 14.604 338.727 14.36 338.727 14.064C338.727 13.816 338.707 13.6 338.667 13.416C338.635 13.224 338.551 13.072 338.415 12.96C338.279 12.848 338.067 12.792 337.779 12.792H337.071V15.372ZM344.265 21.144C343.657 21.144 343.149 21.036 342.741 20.82C342.333 20.604 342.025 20.272 341.817 19.824C341.609 19.368 341.493 18.78 341.469 18.06L343.305 17.784C343.313 18.2 343.349 18.536 343.413 18.792C343.485 19.048 343.581 19.232 343.701 19.344C343.829 19.456 343.981 19.512 344.157 19.512C344.381 19.512 344.525 19.436 344.589 19.284C344.661 19.132 344.697 18.972 344.697 18.804C344.697 18.404 344.601 18.068 344.409 17.796C344.217 17.516 343.957 17.236 343.629 16.956L342.789 16.224C342.421 15.912 342.109 15.56 341.853 15.168C341.605 14.768 341.481 14.276 341.481 13.692C341.481 12.868 341.725 12.24 342.213 11.808C342.701 11.368 343.365 11.148 344.205 11.148C344.725 11.148 345.141 11.236 345.453 11.412C345.773 11.588 346.013 11.82 346.173 12.108C346.341 12.388 346.453 12.688 346.509 13.008C346.573 13.32 346.609 13.62 346.617 13.908L344.769 14.136C344.761 13.848 344.741 13.6 344.709 13.392C344.685 13.176 344.629 13.012 344.541 12.9C344.453 12.78 344.317 12.72 344.133 12.72C343.933 12.72 343.785 12.804 343.689 12.972C343.601 13.14 343.557 13.308 343.557 13.476C343.557 13.836 343.641 14.132 343.809 14.364C343.985 14.588 344.213 14.824 344.493 15.072L345.297 15.78C345.721 16.14 346.077 16.548 346.365 17.004C346.661 17.46 346.809 18.024 346.809 18.696C346.809 19.152 346.705 19.568 346.497 19.944C346.289 20.312 345.993 20.604 345.609 20.82C345.233 21.036 344.785 21.144 344.265 21.144ZM347.933 16.056V14.232H349.757V16.056H347.933ZM347.933 20.328V18.504H349.757V20.328H347.933Z"></path>
</svg>
