<svg xmlns="http://www.w3.org/2000/svg" fill="none" viewBox="0 0 27 34" height="34" width="27">
<path stroke="#0D0E12" fill="white" d="M14.0111 3.4186C18.3192 3.49525 22.4815 3.88495 25.5 4.8583V8.99839H1.5V4.85897C4.58773 3.87444 9.71803 3.34221 14.0111 3.4186Z"></path>
<path stroke="#0D0E12" fill="white" d="M1.53999 29.1847C2.16399 24.0243 6.21999 28.2416 6.21999 19.5749V15.8917C6.21999 14.186 5.19443 12.6476 3.61999 11.9916L3.04179 11.7507C1.81748 11.2405 1.01999 10.0442 1.01999 8.71791C1.01999 8.0289 1.26795 7.35577 1.91596 7.12164C5.93278 5.67037 21.0671 5.67041 25.084 7.12166C25.732 7.35578 25.98 8.02891 25.98 8.71793C25.98 10.0443 25.1825 11.2405 23.9582 11.7507L23.38 11.9916C21.8056 12.6476 20.78 14.186 20.78 15.8917V19.5749C20.78 28.2416 24.836 24.1646 25.46 29.3249V30.4236C25.46 31.1276 25.2646 31.8391 24.6096 32.0974C20.835 33.5859 6.15406 33.4811 2.38665 31.9474C1.73455 31.6819 1.53999 30.9708 1.53999 30.2668V29.1847Z"></path>
<path stroke-linecap="round" stroke="#0D0E12" d="M5.18002 28.2416C6.74002 29.8666 20.26 29.8666 21.82 28.2416"></path>
<path stroke-linecap="round" stroke="#0D0E12" d="M20.78 11.4499C18.7 10.9083 8.30002 10.9083 6.22002 11.45"></path>
<path fill="white" d="M26 3.09039C25.1542 2.51406 23.8092 2.03015 22 1.67338V6.51401C23.8594 6.84874 25.2365 7.38243 26 8.21356V3.09039ZM1.5 8.03624V2.79105C2.68726 2.16157 4.53871 1.66496 7 1.35557V6.26456C4.53009 6.53648 2.6317 7.06199 1.5 8.03624ZM17.5 6.0727V1.12101C16.2755 1.04065 14.9407 0.998291 13.5 0.998291C12.6275 0.998291 11.7939 1.01383 11 1.04393V6.02498C11.8003 6.00593 12.6349 5.99829 13.5 5.99829C14.9214 5.99829 16.2603 6.01891 17.5 6.0727Z" clip-rule="evenodd" fill-rule="evenodd"></path>
<path fill="black" d="M22 1.67338L22.0967 1.18282L21.5 1.06515V1.67338H22ZM26 3.09039H26.5V2.82603L26.2815 2.67718L26 3.09039ZM22 6.51401H21.5V6.93203L21.9114 7.0061L22 6.51401ZM26 8.21356L25.6318 8.55182L26.5 9.4969V8.21356H26ZM1.5 2.79105L1.26579 2.3493L1 2.49022V2.79105H1.5ZM1.5 8.03624H1V9.12644L1.82621 8.41517L1.5 8.03624ZM7 1.35557H7.5V0.788789L6.93764 0.859478L7 1.35557ZM7 6.26456L7.05472 6.76156L7.5 6.71253V6.26456H7ZM17.5 1.12101H18V0.652743L17.5327 0.62208L17.5 1.12101ZM17.5 6.0727L17.4783 6.57223L18 6.59486V6.0727H17.5ZM11 1.04393L10.9811 0.544289L10.5 0.562531V1.04393H11ZM11 6.02498H10.5V6.53703L11.0119 6.52484L11 6.02498ZM21.9033 2.16393C23.6877 2.51581 24.955 2.9834 25.7185 3.50359L26.2815 2.67718C25.3533 2.04473 23.9308 1.54448 22.0967 1.18282L21.9033 2.16393ZM22.5 6.51401V1.67338H21.5V6.51401H22.5ZM26.3682 7.8753C25.4873 6.9164 23.9677 6.3602 22.0886 6.02192L21.9114 7.0061C23.751 7.33728 24.9856 7.84847 25.6318 8.55182L26.3682 7.8753ZM26.5 8.21356V3.09039H25.5V8.21356H26.5ZM1 2.79105V8.03624H2V2.79105H1ZM6.93764 0.859478C4.45382 1.1717 2.5321 1.67791 1.26579 2.3493L1.73421 3.2328C2.84243 2.64523 4.6236 2.15823 7.06236 1.85167L6.93764 0.859478ZM7.5 6.26456V1.35557H6.5V6.26456H7.5ZM1.82621 8.41517C2.83394 7.54764 4.59625 7.03222 7.05472 6.76156L6.94528 5.76756C4.46393 6.04075 2.42946 6.57634 1.17379 7.65732L1.82621 8.41517ZM17 1.12101V6.0727H18V1.12101H17ZM13.5 1.49829C14.931 1.49829 16.2548 1.54037 17.4673 1.61993L17.5327 0.62208C16.2961 0.540929 14.9504 0.498291 13.5 0.498291V1.49829ZM11.0189 1.54357C11.8061 1.51372 12.6334 1.49829 13.5 1.49829V0.498291C12.6216 0.498291 11.7816 0.513932 10.9811 0.544289L11.0189 1.54357ZM11.5 6.02498V1.04393H10.5V6.02498H11.5ZM13.5 5.49829C12.632 5.49829 11.7933 5.50595 10.9881 5.52512L11.0119 6.52484C11.8072 6.50591 12.6377 6.49829 13.5 6.49829V5.49829ZM17.5217 5.57317C16.2724 5.51896 14.9258 5.49829 13.5 5.49829V6.49829C14.917 6.49829 16.2482 6.51885 17.4783 6.57223L17.5217 5.57317Z"></path>
</svg>
