<svg xmlns="http://www.w3.org/2000/svg" fill="none" viewBox="0 0 27 34" height="34" width="27">
<path stroke="#0D0E12" fill="white" d="M14.0111 3.42031C18.3192 3.49696 22.4815 3.88666 25.5 4.86001V9.0001H1.5V4.86068C4.58773 3.87614 9.71803 3.34392 14.0111 3.42031Z"></path>
<path stroke="#0D0E12" fill="white" d="M1.53999 29.1864C2.16399 24.0261 6.21999 28.2433 6.21999 19.5766V15.8934C6.21999 14.1877 5.19443 12.6493 3.61999 11.9933L3.04179 11.7524C1.81748 11.2422 1.01999 10.046 1.01999 8.71962C1.01999 8.0306 1.26795 7.35748 1.91596 7.12335C5.93278 5.67207 21.0671 5.67212 25.084 7.12337C25.732 7.35749 25.98 8.03062 25.98 8.71964C25.98 10.046 25.1825 11.2422 23.9582 11.7524L23.38 11.9933C21.8056 12.6493 20.78 14.1877 20.78 15.8934V19.5766C20.78 28.2433 24.836 24.1663 25.46 29.3266V30.4253C25.46 31.1293 25.2646 31.8408 24.6096 32.0991C20.835 33.5876 6.15406 33.4828 2.38665 31.9491C1.73455 31.6836 1.53999 30.9726 1.53999 30.2685V29.1864Z"></path>
<path stroke-linecap="round" stroke="#0D0E12" d="M5.18002 28.2433C6.74002 29.8683 20.26 29.8683 21.82 28.2433"></path>
<path stroke-linecap="round" stroke="#0D0E12" d="M20.78 11.4517C18.7 10.91 8.30002 10.91 6.22002 11.4517"></path>
<path fill="white" d="M5 6.57161C3.14063 6.95314 1.76353 7.57284 1 8.562V3.09211C1.84584 2.51578 3.19075 2.03186 5 1.67509V6.57161ZM25.5 7.77363V2.79275C24.3127 2.16327 22.4613 1.66667 20 1.35728V6.24516C22.4699 6.48918 24.3683 6.94988 25.5 7.77363ZM15.5 6.01585V1.02877C14.858 1.00975 14.1912 1 13.5 1C11.8608 1 10.3586 1.05484 9 1.1581V6.10435C10.3772 6.0266 11.8854 6 13.5 6C14.1865 6 14.8538 6.00481 15.5 6.01585Z" clip-rule="evenodd" fill-rule="evenodd"></path>
<path fill="black" d="M1 8.562H0.5V10.028L1.3958 8.86751L1 8.562ZM5 6.57161L5.1005 7.0614L5.5 6.97942V6.57161H5ZM1 3.09211L0.718459 2.6789L0.5 2.82776V3.09211H1ZM5 1.67509H5.5V1.06686L4.90327 1.18453L5 1.67509ZM25.5 2.79275H26V2.49192L25.7342 2.351L25.5 2.79275ZM25.5 7.77363L25.2058 8.17788L26 8.756V7.77363H25.5ZM20 1.35728L20.0624 0.861186L19.5 0.790496V1.35728H20ZM20 6.24516H19.5V6.6982L19.9508 6.74274L20 6.24516ZM15.5 1.02877H16V0.543363L15.5148 0.528989L15.5 1.02877ZM15.5 6.01585L15.4915 6.51577L16 6.52446V6.01585H15.5ZM9 1.1581L8.96211 0.659533L8.5 0.694654V1.1581H9ZM9 6.10435H8.5V6.63337L9.02818 6.60355L9 6.10435ZM1.3958 8.86751C2.04674 8.02422 3.27422 7.43615 5.1005 7.0614L4.8995 6.08181C3.00703 6.47014 1.48032 7.12146 0.604199 8.25648L1.3958 8.86751ZM0.5 3.09211V8.562H1.5V3.09211H0.5ZM4.90327 1.18453C3.06921 1.5462 1.64669 2.04644 0.718459 2.6789L1.28154 3.50531C2.045 2.98511 3.3123 2.51752 5.09673 2.16564L4.90327 1.18453ZM5.5 6.57161V1.67509H4.5V6.57161H5.5ZM25 2.79275V7.77363H26V2.79275H25ZM19.9376 1.85338C22.3764 2.15993 24.1576 2.64693 25.2658 3.2345L25.7342 2.351C24.4679 1.67961 22.5462 1.1734 20.0624 0.861186L19.9376 1.85338ZM20.5 6.24516V1.35728H19.5V6.24516H20.5ZM25.7942 7.36938C24.5447 6.45985 22.5252 5.99221 20.0492 5.74758L19.9508 6.74274C22.4146 6.98615 24.1919 7.4399 25.2058 8.17788L25.7942 7.36938ZM15 1.02877V6.01585H16V1.02877H15ZM13.5 1.5C14.1865 1.5 14.8484 1.50968 15.4852 1.52855L15.5148 0.528989C14.8677 0.509816 14.1959 0.5 13.5 0.5V1.5ZM9.03789 1.65666C10.3823 1.55448 11.8717 1.5 13.5 1.5V0.5C11.8498 0.5 10.3349 0.555198 8.96211 0.659533L9.03789 1.65666ZM9.5 6.10435V1.1581H8.5V6.10435H9.5ZM13.5 5.5C11.8808 5.5 10.3622 5.52665 8.97182 5.60514L9.02818 6.60355C10.3923 6.52655 11.8901 6.5 13.5 6.5V5.5ZM15.5085 5.51592C14.859 5.50483 14.1888 5.5 13.5 5.5V6.5C14.1842 6.5 14.8486 6.5048 15.4915 6.51577L15.5085 5.51592Z"></path>
</svg>
