<svg xmlns="http://www.w3.org/2000/svg" fill="none" viewBox="0 0 27 34" height="34" width="27">
<path stroke="#0D0E12" fill="white" d="M14.0111 3.40444C18.3192 3.48109 22.4815 3.87079 25.5 4.84414V8.98423H1.5V4.84481C4.58773 3.86028 9.71803 3.32805 14.0111 3.40444Z"></path>
<path stroke="#0D0E12" fill="white" d="M1.53999 29.1705C2.16399 24.0102 6.21999 28.2274 6.21999 19.5607V15.8775C6.21999 14.1719 5.19443 12.6335 3.61999 11.9774L3.04179 11.7365C1.81748 11.2264 1.01999 10.0301 1.01999 8.70375C1.01999 8.01474 1.26795 7.34161 1.91596 7.10748C5.93278 5.65621 21.0671 5.65625 25.084 7.1075C25.732 7.34162 25.98 8.01475 25.98 8.70377C25.98 10.0301 25.1825 11.2263 23.9582 11.7365L23.38 11.9774C21.8056 12.6335 20.78 14.1719 20.78 15.8775V19.5607C20.78 28.2274 24.836 24.1504 25.46 29.3107V30.4094C25.46 31.1135 25.2646 31.8249 24.6096 32.0832C20.835 33.5717 6.15406 33.4669 2.38665 31.9332C1.73455 31.6677 1.53999 30.9567 1.53999 30.2526V29.1705Z"></path>
<path stroke-linecap="round" stroke="#0D0E12" d="M5.18002 28.2274C6.74002 29.8524 20.26 29.8524 21.82 28.2274"></path>
<path stroke-linecap="round" stroke="#0D0E12" d="M20.78 11.4358C18.7 10.8941 8.30002 10.8941 6.22002 11.4358"></path>
<path fill="white" d="M26 3.07621C25.6067 2.80825 25.1056 2.56027 24.5 2.33575V7.20117C25.1305 7.47319 25.6352 7.80235 26 8.19939V3.07621ZM3.5 6.9534V2.01312C5.0335 1.58173 7.04521 1.26793 9.5 1.10683V6.06271C7.08071 6.17585 5.03923 6.43126 3.5 6.9534ZM20 6.22928V1.3414C18.2887 1.12629 16.2826 1.00168 14 0.98584V5.985C16.238 5.99305 18.2607 6.05744 20 6.22928Z" clip-rule="evenodd" fill-rule="evenodd"></path>
<path fill="black" d="M24.5 2.33575L24.6738 1.86694L24 1.61711V2.33575H24.5ZM26 3.07621H26.5V2.81186L26.2815 2.66301L26 3.07621ZM24.5 7.20117H24V7.53L24.3019 7.66026L24.5 7.20117ZM26 8.19939L25.6318 8.53765L26.5 9.48272V8.19939H26ZM3.5 2.01312L3.3646 1.53181L3 1.63437V2.01312H3.5ZM3.5 6.9534H3V7.65099L3.66062 7.4269L3.5 6.9534ZM9.5 1.10683H10V0.572946L9.46726 0.607906L9.5 1.10683ZM9.5 6.06271L9.52336 6.56216L10 6.53987V6.06271H9.5ZM20 1.3414H20.5V0.900314L20.0624 0.845302L20 1.3414ZM20 6.22928L19.9508 6.72686L20.5 6.78111V6.22928H20ZM14 0.98584L14.0035 0.485852L13.5 0.482358V0.98584H14ZM14 5.985H13.5V6.48321L13.9982 6.485L14 5.985ZM24.3262 2.80457C24.9057 3.01944 25.3678 3.25053 25.7184 3.48941L26.2815 2.66301C25.8456 2.36597 25.3054 2.1011 24.6738 1.86694L24.3262 2.80457ZM25 7.20117V2.33575H24V7.20117H25ZM26.3682 7.86112C25.9419 7.39714 25.3711 7.03245 24.6981 6.74208L24.3019 7.66026C24.8898 7.91392 25.3285 8.20756 25.6318 8.53765L26.3682 7.86112ZM26.5 8.19939V3.07621H25.5V8.19939H26.5ZM3 2.01312V6.9534H4V2.01312H3ZM9.46726 0.607906C6.99139 0.770381 4.94263 1.08788 3.3646 1.53181L3.6354 2.49444C5.12437 2.07557 7.09902 1.76547 9.53274 1.60576L9.46726 0.607906ZM10 6.06271V1.10683H9V6.06271H10ZM3.66062 7.4269C5.13129 6.92802 7.11545 6.67477 9.52336 6.56216L9.47664 5.56325C7.04597 5.67692 4.94716 5.93451 3.33938 6.4799L3.66062 7.4269ZM19.5 1.3414V6.22928H20.5V1.3414H19.5ZM13.9965 1.48583C16.2637 1.50156 18.2497 1.62532 19.9376 1.83749L20.0624 0.845302C18.3277 0.627255 16.3015 0.5018 14.0035 0.485852L13.9965 1.48583ZM14.5 5.985V0.98584H13.5V5.985H14.5ZM20.0492 5.7317C18.2869 5.55759 16.2461 5.49308 14.0018 5.48501L13.9982 6.485C16.2299 6.49303 18.2345 6.55729 19.9508 6.72686L20.0492 5.7317Z"></path>
</svg>
