<svg xmlns="http://www.w3.org/2000/svg" fill="none" viewBox="0 0 90 40" height="40" width="90">
<rect fill="#0D0E12" height="40" width="90"></rect>
<path fill="white" d="M9.22575 25.18C8.54575 25.18 8.00975 25.052 7.61775 24.796C7.23375 24.54 6.95775 24.184 6.78975 23.728C6.62975 23.264 6.54975 22.732 6.54975 22.132V21.784H8.55375C8.55375 21.792 8.55375 21.836 8.55375 21.916C8.55375 21.996 8.55375 22.068 8.55375 22.132C8.55375 22.452 8.57375 22.712 8.61375 22.912C8.65375 23.112 8.72575 23.26 8.82975 23.356C8.93375 23.444 9.07775 23.488 9.26175 23.488C9.44575 23.488 9.58175 23.44 9.66975 23.344C9.76575 23.248 9.82975 23.104 9.86175 22.912C9.89375 22.72 9.90975 22.48 9.90975 22.192C9.90975 21.712 9.84175 21.348 9.70575 21.1C9.57775 20.844 9.30575 20.712 8.88975 20.704C8.88175 20.704 8.83775 20.704 8.75775 20.704C8.67775 20.704 8.59775 20.704 8.51775 20.704V19.324C8.57375 19.324 8.62975 19.324 8.68575 19.324C8.74175 19.324 8.79375 19.324 8.84175 19.324C9.26575 19.324 9.54975 19.208 9.69375 18.976C9.83775 18.744 9.90975 18.384 9.90975 17.896C9.90975 17.52 9.85775 17.232 9.75375 17.032C9.65775 16.832 9.47375 16.732 9.20175 16.732C8.93775 16.732 8.76175 16.844 8.67375 17.068C8.59375 17.292 8.55375 17.58 8.55375 17.932C8.55375 18.012 8.55375 18.096 8.55375 18.184C8.55375 18.264 8.55375 18.348 8.55375 18.436H6.54975V17.848C6.54975 17.264 6.65375 16.772 6.86175 16.372C7.07775 15.964 7.38175 15.656 7.77375 15.448C8.17375 15.24 8.64975 15.136 9.20175 15.136C9.76175 15.136 10.2418 15.236 10.6418 15.436C11.0418 15.636 11.3498 15.932 11.5658 16.324C11.7818 16.708 11.8898 17.188 11.8898 17.764C11.8898 18.332 11.7738 18.808 11.5418 19.192C11.3098 19.576 11.0298 19.812 10.7018 19.9C10.9258 19.98 11.1258 20.108 11.3018 20.284C11.4858 20.46 11.6298 20.7 11.7338 21.004C11.8378 21.3 11.8898 21.68 11.8898 22.144C11.8898 22.736 11.8018 23.26 11.6258 23.716C11.4578 24.172 11.1778 24.532 10.7858 24.796C10.3938 25.052 9.87375 25.18 9.22575 25.18ZM15.5578 25.18C14.9738 25.18 14.4858 25.064 14.0938 24.832C13.7018 24.592 13.4058 24.264 13.2058 23.848C13.0058 23.432 12.9058 22.948 12.9058 22.396V17.992C12.9058 17.424 12.9978 16.928 13.1818 16.504C13.3738 16.072 13.6658 15.736 14.0578 15.496C14.4498 15.256 14.9498 15.136 15.5578 15.136C16.1658 15.136 16.6618 15.256 17.0458 15.496C17.4378 15.736 17.7258 16.072 17.9098 16.504C18.1018 16.928 18.1978 17.424 18.1978 17.992V22.396C18.1978 22.94 18.0978 23.424 17.8978 23.848C17.6978 24.264 17.4018 24.592 17.0098 24.832C16.6178 25.064 16.1338 25.18 15.5578 25.18ZM15.5578 23.392C15.7498 23.392 15.8858 23.332 15.9658 23.212C16.0538 23.084 16.1058 22.94 16.1218 22.78C16.1458 22.612 16.1578 22.468 16.1578 22.348V18.04C16.1578 17.904 16.1498 17.752 16.1338 17.584C16.1178 17.408 16.0658 17.256 15.9778 17.128C15.8978 16.992 15.7578 16.924 15.5578 16.924C15.3578 16.924 15.2138 16.992 15.1258 17.128C15.0458 17.256 14.9978 17.408 14.9818 17.584C14.9658 17.752 14.9578 17.904 14.9578 18.04V22.348C14.9578 22.468 14.9698 22.612 14.9938 22.78C15.0178 22.94 15.0698 23.084 15.1498 23.212C15.2378 23.332 15.3738 23.392 15.5578 23.392ZM22.5258 25L22.5498 18.064H23.9898L25.4058 21.388L26.8338 18.064H28.2738L28.2978 25H26.7738V21.352L25.7058 23.92H25.1298L24.0498 21.34V25H22.5258ZM29.5222 25V18.064H31.0702V21.772L32.8822 18.064H34.4062V25H32.8222V21.328L31.0582 25H29.5222ZM35.6159 25V18.064H37.5719V20.752H38.7359V18.064H40.7039V25H38.7359V22.096H37.5719V25H35.6159ZM41.8606 25V23.152H43.7086V25H41.8606ZM50.6086 25.18C50.0246 25.18 49.5366 25.064 49.1446 24.832C48.7526 24.592 48.4566 24.264 48.2566 23.848C48.0566 23.432 47.9566 22.948 47.9566 22.396V17.992C47.9566 17.424 48.0486 16.928 48.2326 16.504C48.4246 16.072 48.7166 15.736 49.1086 15.496C49.5006 15.256 50.0006 15.136 50.6086 15.136C51.2166 15.136 51.7126 15.256 52.0966 15.496C52.4886 15.736 52.7766 16.072 52.9606 16.504C53.1526 16.928 53.2486 17.424 53.2486 17.992V22.396C53.2486 22.94 53.1486 23.424 52.9486 23.848C52.7486 24.264 52.4526 24.592 52.0606 24.832C51.6686 25.064 51.1846 25.18 50.6086 25.18ZM50.6086 23.392C50.8006 23.392 50.9366 23.332 51.0166 23.212C51.1046 23.084 51.1566 22.94 51.1726 22.78C51.1966 22.612 51.2086 22.468 51.2086 22.348V18.04C51.2086 17.904 51.2006 17.752 51.1846 17.584C51.1686 17.408 51.1166 17.256 51.0286 17.128C50.9486 16.992 50.8086 16.924 50.6086 16.924C50.4086 16.924 50.2646 16.992 50.1766 17.128C50.0966 17.256 50.0486 17.408 50.0326 17.584C50.0166 17.752 50.0086 17.904 50.0086 18.04V22.348C50.0086 22.468 50.0206 22.612 50.0446 22.78C50.0686 22.94 50.1206 23.084 50.2006 23.212C50.2886 23.332 50.4246 23.392 50.6086 23.392ZM57.2063 25.18C56.6223 25.18 56.1343 25.064 55.7423 24.832C55.3503 24.592 55.0543 24.264 54.8543 23.848C54.6543 23.432 54.5543 22.948 54.5543 22.396V17.992C54.5543 17.424 54.6463 16.928 54.8303 16.504C55.0223 16.072 55.3143 15.736 55.7063 15.496C56.0983 15.256 56.5983 15.136 57.2063 15.136C57.8143 15.136 58.3103 15.256 58.6943 15.496C59.0863 15.736 59.3743 16.072 59.5583 16.504C59.7503 16.928 59.8463 17.424 59.8463 17.992V22.396C59.8463 22.94 59.7463 23.424 59.5463 23.848C59.3463 24.264 59.0503 24.592 58.6583 24.832C58.2663 25.064 57.7823 25.18 57.2063 25.18ZM57.2063 23.392C57.3983 23.392 57.5343 23.332 57.6143 23.212C57.7023 23.084 57.7543 22.94 57.7703 22.78C57.7943 22.612 57.8063 22.468 57.8063 22.348V18.04C57.8063 17.904 57.7983 17.752 57.7823 17.584C57.7663 17.408 57.7143 17.256 57.6263 17.128C57.5463 16.992 57.4063 16.924 57.2063 16.924C57.0063 16.924 56.8623 16.992 56.7743 17.128C56.6943 17.256 56.6463 17.408 56.6303 17.584C56.6143 17.752 56.6063 17.904 56.6063 18.04V22.348C56.6063 22.468 56.6183 22.612 56.6423 22.78C56.6663 22.94 56.7183 23.084 56.7983 23.212C56.8863 23.332 57.0223 23.392 57.2063 23.392ZM66.4422 25.12C65.9382 25.12 65.5062 25.028 65.1462 24.844C64.7942 24.66 64.5222 24.396 64.3302 24.052C64.1382 23.708 64.0422 23.292 64.0422 22.804V20.26C64.0422 19.764 64.1382 19.344 64.3302 19C64.5222 18.656 64.7942 18.396 65.1462 18.22C65.5062 18.036 65.9382 17.944 66.4422 17.944C66.9382 17.944 67.3582 18.02 67.7022 18.172C68.0542 18.324 68.3222 18.556 68.5062 18.868C68.6902 19.172 68.7822 19.56 68.7822 20.032V20.764H66.8982V19.972C66.8982 19.788 66.8782 19.648 66.8382 19.552C66.8062 19.448 66.7542 19.376 66.6822 19.336C66.6182 19.296 66.5382 19.276 66.4422 19.276C66.3462 19.276 66.2662 19.304 66.2022 19.36C66.1382 19.408 66.0902 19.492 66.0582 19.612C66.0262 19.724 66.0102 19.884 66.0102 20.092V22.972C66.0102 23.284 66.0462 23.496 66.1182 23.608C66.1982 23.72 66.3102 23.776 66.4542 23.776C66.5582 23.776 66.6422 23.756 66.7062 23.716C66.7702 23.668 66.8182 23.596 66.8502 23.5C66.8822 23.396 66.8982 23.26 66.8982 23.092V22.168H68.7822V23.008C68.7822 23.472 68.6862 23.864 68.4942 24.184C68.3102 24.496 68.0422 24.732 67.6902 24.892C67.3462 25.044 66.9302 25.12 66.4422 25.12ZM72.0675 25.12C71.5635 25.12 71.1315 25.032 70.7715 24.856C70.4115 24.672 70.1355 24.408 69.9435 24.064C69.7515 23.712 69.6555 23.292 69.6555 22.804V20.26C69.6555 19.764 69.7515 19.344 69.9435 19C70.1355 18.656 70.4115 18.396 70.7715 18.22C71.1395 18.036 71.5715 17.944 72.0675 17.944C72.5795 17.944 73.0035 18.032 73.3395 18.208C73.6835 18.384 73.9395 18.644 74.1075 18.988C74.2835 19.332 74.3715 19.756 74.3715 20.26V21.652H71.5875V22.984C71.5875 23.16 71.6075 23.304 71.6475 23.416C71.6875 23.528 71.7435 23.608 71.8155 23.656C71.8875 23.704 71.9715 23.728 72.0675 23.728C72.1635 23.728 72.2475 23.708 72.3195 23.668C72.3995 23.62 72.4595 23.548 72.4995 23.452C72.5475 23.356 72.5715 23.224 72.5715 23.056V22.324H74.3715V22.996C74.3715 23.7 74.1675 24.232 73.7595 24.592C73.3515 24.944 72.7875 25.12 72.0675 25.12ZM71.5875 20.74H72.5715V20.044C72.5715 19.86 72.5475 19.716 72.4995 19.612C72.4595 19.508 72.3995 19.436 72.3195 19.396C72.2475 19.356 72.1595 19.336 72.0555 19.336C71.9595 19.336 71.8755 19.36 71.8035 19.408C71.7395 19.456 71.6875 19.54 71.6475 19.66C71.6075 19.772 71.5875 19.936 71.5875 20.152V20.74ZM75.4362 25V18.064H77.3922V20.8H77.6802L78.7362 18.064H80.8362L79.4682 21.34L80.8722 25H78.8082L77.6802 21.928H77.3922V25H75.4362ZM81.5286 25V23.152H83.3766V25H81.5286Z"></path>
</svg>
