<svg xmlns="http://www.w3.org/2000/svg" fill="none" viewBox="0 0 27 34" height="34" width="27">
<path stroke="#0D0E12" fill="white" d="M14.0111 3.42031C18.3192 3.49696 22.4815 3.88666 25.5 4.86001V9.0001H1.5V4.86068C4.58773 3.87614 9.71803 3.34392 14.0111 3.42031Z"></path>
<path stroke="#0D0E12" fill="white" d="M1.53999 29.1864C2.16399 24.0261 6.21999 28.2433 6.21999 19.5766V15.8934C6.21999 14.1877 5.19443 12.6493 3.61999 11.9933L3.04179 11.7524C1.81748 11.2422 1.01999 10.046 1.01999 8.71962C1.01999 8.0306 1.26795 7.35748 1.91596 7.12335C5.93278 5.67207 21.0671 5.67212 25.084 7.12337C25.732 7.35749 25.98 8.03062 25.98 8.71964C25.98 10.046 25.1825 11.2422 23.9582 11.7524L23.38 11.9933C21.8056 12.6493 20.78 14.1877 20.78 15.8934V19.5766C20.78 28.2433 24.836 24.1663 25.46 29.3266V30.4253C25.46 31.1293 25.2646 31.8408 24.6096 32.0991C20.835 33.5876 6.15406 33.4828 2.38665 31.9491C1.73455 31.6836 1.53999 30.9726 1.53999 30.2685V29.1864Z"></path>
<path stroke-linecap="round" stroke="#0D0E12" d="M5.18002 28.2433C6.74002 29.8683 20.26 29.8683 21.82 28.2433"></path>
<path stroke-linecap="round" stroke="#0D0E12" d="M20.78 11.4517C18.7 10.91 8.30002 10.91 6.22002 11.4517"></path>
<path fill="white" d="M3.5 6.96928C2.38983 7.34587 1.54093 7.86122 1 8.562V3.09211C1.59246 2.68842 2.42977 2.33008 3.5 2.02901V6.96928ZM24 7.02225V2.17923C22.6127 1.73397 20.7685 1.39638 18.5 1.19883V6.12658C20.7445 6.26495 22.6159 6.53498 24 7.02225ZM13.5 6L13.5 1C11.2319 1 9.22619 1.10499 7.5 1.29796V6.21535C9.25558 6.05043 11.2769 6 13.5 6Z" clip-rule="evenodd" fill-rule="evenodd"></path>
<path fill="black" d="M1 8.562H0.5V10.028L1.3958 8.86752L1 8.562ZM3.5 6.96928L3.66062 7.44278L4 7.32766V6.96928H3.5ZM1 3.09211L0.718459 2.6789L0.5 2.82776V3.09211H1ZM3.5 2.02901H4V1.36894L3.3646 1.54769L3.5 2.02901ZM24 2.17923H24.5V1.81458L24.1528 1.70315L24 2.17923ZM24 7.02225L23.834 7.49387L24.5 7.72834V7.02225H24ZM18.5 1.19883L18.5434 0.70072L18 0.653402V1.19883H18.5ZM18.5 6.12658H18V6.5967L18.4692 6.62563L18.5 6.12658ZM13.5 1L14 1L14 0.5H13.5V1ZM13.5 6V6.5H14L14 6L13.5 6ZM7.5 1.29796L7.44445 0.801054L7 0.850738V1.29796H7.5ZM7.5 6.21535H7V6.76452L7.54676 6.71316L7.5 6.21535ZM1.3958 8.86752C1.85414 8.27373 2.60144 7.80208 3.66062 7.44278L3.33938 6.49578C2.17822 6.88967 1.22772 7.4487 0.604199 8.25648L1.3958 8.86752ZM0.5 3.09211V8.562H1.5V3.09211H0.5ZM3.3646 1.54769C2.26632 1.85665 1.37241 2.23332 0.718459 2.6789L1.28154 3.50531C1.81251 3.14352 2.59323 2.8035 3.6354 2.51032L3.3646 1.54769ZM4 6.96928V2.02901H3V6.96928H4ZM23.5 2.17923V7.02225H24.5V2.17923H23.5ZM18.4566 1.69695C20.7034 1.89261 22.5076 2.22539 23.8472 2.65531L24.1528 1.70315C22.7177 1.24256 20.8336 0.900159 18.5434 0.70072L18.4566 1.69695ZM19 6.12658V1.19883H18V6.12658H19ZM24.166 6.55062C22.7151 6.03985 20.7879 5.76668 18.5308 5.62752L18.4692 6.62563C20.7011 6.76322 22.5166 7.03011 23.834 7.49387L24.166 6.55062ZM13 1L13 6L14 6L14 1L13 1ZM7.55555 1.79486C9.2599 1.60434 11.2467 1.5 13.5 1.5V0.5C11.2171 0.5 9.19248 0.605643 7.44445 0.801054L7.55555 1.79486ZM8 6.21535V1.29796H7V6.21535H8ZM13.5 5.5C11.2718 5.5 9.23214 5.55043 7.45324 5.71754L7.54676 6.71316C9.27902 6.55043 11.2821 6.5 13.5 6.5V5.5Z"></path>
</svg>
