<svg xmlns="http://www.w3.org/2000/svg" fill="none" viewBox="0 0 27 34" height="34" width="27">
<path stroke="#0D0E12" fill="white" d="M14.0111 3.40432C18.3192 3.48097 22.4815 3.87067 25.5 4.84402V8.98411H1.5V4.84469C4.58773 3.86015 9.71803 3.32793 14.0111 3.40432Z"></path>
<path stroke="#0D0E12" fill="white" d="M1.53999 29.1704C2.16399 24.0101 6.21999 28.2273 6.21999 19.5606V15.8774C6.21999 14.1717 5.19443 12.6334 3.61999 11.9773L3.04179 11.7364C1.81748 11.2262 1.01999 10.03 1.01999 8.70362C1.01999 8.01461 1.26795 7.34149 1.91596 7.10736C5.93278 5.65608 21.0671 5.65613 25.084 7.10737C25.732 7.3415 25.98 8.01463 25.98 8.70365C25.98 10.03 25.1825 11.2262 23.9582 11.7364L23.38 11.9773C21.8056 12.6334 20.78 14.1717 20.78 15.8774V19.5606C20.78 28.2273 24.836 24.1503 25.46 29.3106V30.4093C25.46 31.1133 25.2646 31.8248 24.6096 32.0831C20.835 33.5716 6.15406 33.4668 2.38665 31.9331C1.73455 31.6676 1.53999 30.9566 1.53999 30.2525V29.1704Z"></path>
<path stroke-linecap="round" stroke="#0D0E12" d="M5.18002 28.2273C6.74002 29.8523 20.26 29.8523 21.82 28.2273"></path>
<path stroke-linecap="round" stroke="#0D0E12" d="M20.78 11.4357C18.7 10.894 8.30002 10.894 6.22002 11.4357"></path>
<path fill="white" d="M4.5 6.66691V1.76356C6.10353 1.40911 8.11289 1.16217 10.5 1.05081V6.0243C8.15308 6.09603 6.11954 6.27669 4.5 6.66691ZM21 6.34441V1.48249C19.4457 1.23746 17.6067 1.07523 15.5 1.01282V5.99989C17.571 6.03526 19.4251 6.13457 21 6.34441Z" clip-rule="evenodd" fill-rule="evenodd"></path>
<path fill="black" d="M4.5 1.76356L4.39208 1.27534L4 1.36201V1.76356H4.5ZM4.5 6.66691H4V7.30169L4.61712 7.153L4.5 6.66691ZM10.5 1.05081H11V0.526942L10.4767 0.551353L10.5 1.05081ZM10.5 6.0243L10.5153 6.52406L11 6.50925V6.0243H10.5ZM21 1.48249H21.5V1.05514L21.0779 0.988588L21 1.48249ZM21 6.34441L20.934 6.84003L21.5 6.91545V6.34441H21ZM15.5 1.01282L15.5148 0.513037L15 0.497785V1.01282H15.5ZM15.5 5.99989H15V6.49143L15.4915 6.49982L15.5 5.99989ZM4 1.76356V6.66691H5V1.76356H4ZM10.4767 0.551353C8.07033 0.663609 6.0312 0.91303 4.39208 1.27534L4.60792 2.25177C6.17586 1.90519 8.15545 1.66073 10.5233 1.55027L10.4767 0.551353ZM11 6.0243V1.05081H10V6.0243H11ZM4.61712 7.153C6.18593 6.775 8.17848 6.59549 10.5153 6.52406L10.4847 5.52453C8.12769 5.59658 6.05314 5.77838 4.38288 6.18082L4.61712 7.153ZM20.5 1.48249V6.34441H21.5V1.48249H20.5ZM15.4852 1.5126C17.5758 1.57453 19.3931 1.73535 20.9221 1.97639L21.0779 0.988588C19.4983 0.73957 17.6376 0.575927 15.5148 0.513037L15.4852 1.5126ZM16 5.99989V1.01282H15V5.99989H16ZM21.066 5.84879C19.4637 5.63529 17.5879 5.53547 15.5085 5.49997L15.4915 6.49982C17.5542 6.53504 19.3865 6.63385 20.934 6.84003L21.066 5.84879Z"></path>
</svg>
