<svg xmlns="http://www.w3.org/2000/svg" fill="none" viewBox="0 0 13 18" height="18" width="13">
<rect fill-opacity="0.01" fill="#0D0E12" height="18" width="13"></rect>
<path fill="white" d="M3.132 14.18C2.452 14.18 1.916 14.052 1.524 13.796C1.14 13.54 0.864 13.184 0.696 12.728C0.536 12.264 0.456 11.732 0.456 11.132V10.784H2.46C2.46 10.792 2.46 10.836 2.46 10.916C2.46 10.996 2.46 11.068 2.46 11.132C2.46 11.452 2.48 11.712 2.52 11.912C2.56 12.112 2.632 12.26 2.736 12.356C2.84 12.444 2.984 12.488 3.168 12.488C3.352 12.488 3.488 12.44 3.576 12.344C3.672 12.248 3.736 12.104 3.768 11.912C3.8 11.72 3.816 11.48 3.816 11.192C3.816 10.712 3.748 10.348 3.612 10.1C3.484 9.844 3.212 9.712 2.796 9.704C2.788 9.704 2.744 9.704 2.664 9.704C2.584 9.704 2.504 9.704 2.424 9.704V8.324C2.48 8.324 2.536 8.324 2.592 8.324C2.648 8.324 2.7 8.324 2.748 8.324C3.172 8.324 3.456 8.208 3.6 7.976C3.744 7.744 3.816 7.384 3.816 6.896C3.816 6.52 3.764 6.232 3.66 6.032C3.564 5.832 3.38 5.732 3.108 5.732C2.844 5.732 2.668 5.844 2.58 6.068C2.5 6.292 2.46 6.58 2.46 6.932C2.46 7.012 2.46 7.096 2.46 7.184C2.46 7.264 2.46 7.348 2.46 7.436H0.456V6.848C0.456 6.264 0.56 5.772 0.768 5.372C0.984 4.964 1.288 4.656 1.68 4.448C2.08 4.24 2.556 4.136 3.108 4.136C3.668 4.136 4.148 4.236 4.548 4.436C4.948 4.636 5.256 4.932 5.472 5.324C5.688 5.708 5.796 6.188 5.796 6.764C5.796 7.332 5.68 7.808 5.448 8.192C5.216 8.576 4.936 8.812 4.608 8.9C4.832 8.98 5.032 9.108 5.208 9.284C5.392 9.46 5.536 9.7 5.64 10.004C5.744 10.3 5.796 10.68 5.796 11.144C5.796 11.736 5.708 12.26 5.532 12.716C5.364 13.172 5.084 13.532 4.692 13.796C4.3 14.052 3.78 14.18 3.132 14.18ZM9.46406 14.18C8.88006 14.18 8.39206 14.064 8.00006 13.832C7.60806 13.592 7.31206 13.264 7.11206 12.848C6.91206 12.432 6.81206 11.948 6.81206 11.396V6.992C6.81206 6.424 6.90406 5.928 7.08806 5.504C7.28006 5.072 7.57206 4.736 7.96406 4.496C8.35606 4.256 8.85606 4.136 9.46406 4.136C10.0721 4.136 10.5681 4.256 10.9521 4.496C11.3441 4.736 11.6321 5.072 11.8161 5.504C12.0081 5.928 12.1041 6.424 12.1041 6.992V11.396C12.1041 11.94 12.0041 12.424 11.8041 12.848C11.6041 13.264 11.3081 13.592 10.9161 13.832C10.5241 14.064 10.0401 14.18 9.46406 14.18ZM9.46406 12.392C9.65606 12.392 9.79206 12.332 9.87206 12.212C9.96006 12.084 10.0121 11.94 10.0281 11.78C10.0521 11.612 10.0641 11.468 10.0641 11.348V7.04C10.0641 6.904 10.0561 6.752 10.0401 6.584C10.0241 6.408 9.97206 6.256 9.88406 6.128C9.80406 5.992 9.66406 5.924 9.46406 5.924C9.26406 5.924 9.12006 5.992 9.03206 6.128C8.95206 6.256 8.90406 6.408 8.88806 6.584C8.87206 6.752 8.86406 6.904 8.86406 7.04V11.348C8.86406 11.468 8.87606 11.612 8.90006 11.78C8.92406 11.94 8.97606 12.084 9.05606 12.212C9.14406 12.332 9.28006 12.392 9.46406 12.392Z"></path>
</svg>
