<svg xmlns="http://www.w3.org/2000/svg" fill="none" viewBox="0 0 13 18" height="18" width="13">
<rect fill-opacity="0.01" fill="#0D0E12" height="18" width="13"></rect>
<path fill="white" d="M3.288 14V11.816H0.3V10.34L2.832 4.28H5.16V10.328H6.06V11.816H5.16V14H3.288ZM1.824 10.328H3.288V6.284L1.824 10.328ZM9.59297 14.18C9.00897 14.18 8.52097 14.064 8.12897 13.832C7.73697 13.592 7.44097 13.264 7.24097 12.848C7.04097 12.432 6.94097 11.948 6.94097 11.396V6.992C6.94097 6.424 7.03297 5.928 7.21697 5.504C7.40897 5.072 7.70097 4.736 8.09297 4.496C8.48497 4.256 8.98497 4.136 9.59297 4.136C10.201 4.136 10.697 4.256 11.081 4.496C11.473 4.736 11.761 5.072 11.945 5.504C12.137 5.928 12.233 6.424 12.233 6.992V11.396C12.233 11.94 12.133 12.424 11.933 12.848C11.733 13.264 11.437 13.592 11.045 13.832C10.653 14.064 10.169 14.18 9.59297 14.18ZM9.59297 12.392C9.78497 12.392 9.92097 12.332 10.001 12.212C10.089 12.084 10.141 11.94 10.157 11.78C10.181 11.612 10.193 11.468 10.193 11.348V7.04C10.193 6.904 10.185 6.752 10.169 6.584C10.153 6.408 10.101 6.256 10.013 6.128C9.93297 5.992 9.79297 5.924 9.59297 5.924C9.39297 5.924 9.24897 5.992 9.16097 6.128C9.08097 6.256 9.03297 6.408 9.01697 6.584C9.00097 6.752 8.99297 6.904 8.99297 7.04V11.348C8.99297 11.468 9.00497 11.612 9.02897 11.78C9.05297 11.94 9.10497 12.084 9.18497 12.212C9.27297 12.332 9.40897 12.392 9.59297 12.392Z"></path>
</svg>
