<svg xmlns="http://www.w3.org/2000/svg" fill="none" viewBox="0 0 27 34" height="34" width="27">
<path stroke="#0D0E12" fill="white" d="M14.0111 3.40432C18.3192 3.48097 22.4815 3.87067 25.5 4.84402V8.98411H1.5V4.84469C4.58773 3.86015 9.71803 3.32793 14.0111 3.40432Z"></path>
<path stroke="#0D0E12" fill="white" d="M1.53999 29.1704C2.16399 24.0101 6.21999 28.2273 6.21999 19.5606V15.8774C6.21999 14.1717 5.19443 12.6334 3.61999 11.9773L3.04179 11.7364C1.81748 11.2262 1.01999 10.03 1.01999 8.70362C1.01999 8.01461 1.26795 7.34149 1.91596 7.10736C5.93278 5.65608 21.0671 5.65613 25.084 7.10737C25.732 7.3415 25.98 8.01463 25.98 8.70365C25.98 10.03 25.1825 11.2262 23.9582 11.7364L23.38 11.9773C21.8056 12.6334 20.78 14.1717 20.78 15.8774V19.5606C20.78 28.2273 24.836 24.1503 25.46 29.3106V30.4093C25.46 31.1133 25.2646 31.8248 24.6096 32.0831C20.835 33.5716 6.15406 33.4668 2.38665 31.9331C1.73455 31.6676 1.53999 30.9566 1.53999 30.2525V29.1704Z"></path>
<path stroke-linecap="round" stroke="#0D0E12" d="M5.18002 28.2273C6.74002 29.8523 20.26 29.8523 21.82 28.2273"></path>
<path stroke-linecap="round" stroke="#0D0E12" d="M20.78 11.4357C18.7 10.894 8.30002 10.894 6.22002 11.4357"></path>
<path fill="white" d="M5 6.55563V1.65911C6.63109 1.33747 8.63958 1.11917 11 1.02966V6.01071C8.68119 6.06591 6.65058 6.21694 5 6.55563ZM21.5 6.41624V1.56586C19.9642 1.29515 18.1247 1.11023 16 1.02966V6.00977C18.0898 6.05705 19.9456 6.17573 21.5 6.41624Z" clip-rule="evenodd" fill-rule="evenodd"></path>
<path fill="black" d="M5 1.65911L4.90327 1.16856L4.5 1.24808V1.65911H5ZM5 6.55563H4.5V7.16865L5.1005 7.04542L5 6.55563ZM11 1.02966H11.5V0.510344L10.9811 0.530022L11 1.02966ZM11 6.01071L11.0119 6.51057L11.5 6.49895V6.01071H11ZM21.5 1.56586H22V1.14628L21.5868 1.07345L21.5 1.56586ZM21.5 6.41624L21.4235 6.91036L22 6.99955V6.41624H21.5ZM16 1.02966L16.0189 0.530022L15.5 0.510344V1.02966H16ZM16 6.00977H15.5V6.49859L15.9887 6.50964L16 6.00977ZM4.5 1.65911V6.55563H5.5V1.65911H4.5ZM10.9811 0.530022C8.60224 0.620228 6.56663 0.840555 4.90327 1.16856L5.09673 2.14967C6.69556 1.83439 8.67691 1.61811 11.0189 1.5293L10.9811 0.530022ZM11.5 6.01071V1.02966H10.5V6.01071H11.5ZM5.1005 7.04542C6.70703 6.71577 8.70239 6.56555 11.0119 6.51057L10.9881 5.51086C8.66 5.56628 6.59412 5.7181 4.8995 6.06584L5.1005 7.04542ZM21 1.56586V6.41624H22V1.56586H21ZM15.9811 1.5293C18.0888 1.60923 19.9049 1.79241 21.4132 2.05826L21.5868 1.07345C20.0235 0.797888 18.1605 0.611232 16.0189 0.530022L15.9811 1.5293ZM16.5 6.00977V1.02966H15.5V6.00977H16.5ZM21.5765 5.92212C19.9908 5.67678 18.1103 5.55739 16.0113 5.5099L15.9887 6.50964C18.0694 6.55672 19.9004 6.67469 21.4235 6.91036L21.5765 5.92212Z"></path>
</svg>
