<svg xmlns="http://www.w3.org/2000/svg" fill="none" viewBox="0 0 13 18" height="18" width="13">
<rect fill-opacity="0.01" fill="#0D0E12" height="18" width="13"></rect>
<path fill="white" d="M3.312 14.144C2.68 14.144 2.164 14.008 1.764 13.736C1.372 13.456 1.084 13.076 0.9 12.596C0.716 12.116 0.624 11.568 0.624 10.952V7.436C0.624 6.804 0.696 6.24 0.84 5.744C0.992 5.248 1.26 4.86 1.644 4.58C2.028 4.292 2.58 4.148 3.3 4.148C3.924 4.148 4.416 4.244 4.776 4.436C5.136 4.628 5.392 4.908 5.544 5.276C5.696 5.644 5.772 6.1 5.772 6.644C5.772 6.676 5.772 6.708 5.772 6.74C5.78 6.764 5.784 6.788 5.784 6.812H3.9C3.9 6.42 3.868 6.132 3.804 5.948C3.748 5.756 3.584 5.66 3.312 5.66C3.128 5.66 2.988 5.716 2.892 5.828C2.804 5.94 2.744 6.136 2.712 6.416C2.68 6.696 2.664 7.088 2.664 7.592V8.456C2.76 8.288 2.916 8.16 3.132 8.072C3.348 7.976 3.592 7.924 3.864 7.916C4.376 7.9 4.784 8.016 5.088 8.264C5.4 8.512 5.624 8.852 5.76 9.284C5.896 9.708 5.964 10.184 5.964 10.712C5.964 11.392 5.884 11.992 5.724 12.512C5.564 13.024 5.292 13.424 4.908 13.712C4.524 14 3.992 14.144 3.312 14.144ZM3.336 12.668C3.52 12.668 3.652 12.608 3.732 12.488C3.82 12.36 3.876 12.176 3.9 11.936C3.932 11.688 3.948 11.384 3.948 11.024C3.948 10.704 3.936 10.428 3.912 10.196C3.896 9.964 3.844 9.784 3.756 9.656C3.668 9.52 3.52 9.452 3.312 9.452C3.216 9.452 3.124 9.472 3.036 9.512C2.948 9.552 2.872 9.604 2.808 9.668C2.744 9.724 2.696 9.78 2.664 9.836V11.42C2.664 11.636 2.68 11.84 2.712 12.032C2.752 12.224 2.82 12.38 2.916 12.5C3.02 12.612 3.16 12.668 3.336 12.668ZM9.76903 14.144C9.13703 14.144 8.62103 14.008 8.22103 13.736C7.82903 13.456 7.54103 13.076 7.35703 12.596C7.17303 12.116 7.08103 11.568 7.08103 10.952V7.436C7.08103 6.804 7.15303 6.24 7.29703 5.744C7.44903 5.248 7.71703 4.86 8.10103 4.58C8.48503 4.292 9.03703 4.148 9.75703 4.148C10.381 4.148 10.873 4.244 11.233 4.436C11.593 4.628 11.849 4.908 12.001 5.276C12.153 5.644 12.229 6.1 12.229 6.644C12.229 6.676 12.229 6.708 12.229 6.74C12.237 6.764 12.241 6.788 12.241 6.812H10.357C10.357 6.42 10.325 6.132 10.261 5.948C10.205 5.756 10.041 5.66 9.76903 5.66C9.58503 5.66 9.44503 5.716 9.34903 5.828C9.26103 5.94 9.20103 6.136 9.16903 6.416C9.13703 6.696 9.12103 7.088 9.12103 7.592V8.456C9.21703 8.288 9.37303 8.16 9.58903 8.072C9.80503 7.976 10.049 7.924 10.321 7.916C10.833 7.9 11.241 8.016 11.545 8.264C11.857 8.512 12.081 8.852 12.217 9.284C12.353 9.708 12.421 10.184 12.421 10.712C12.421 11.392 12.341 11.992 12.181 12.512C12.021 13.024 11.749 13.424 11.365 13.712C10.981 14 10.449 14.144 9.76903 14.144ZM9.79303 12.668C9.97703 12.668 10.109 12.608 10.189 12.488C10.277 12.36 10.333 12.176 10.357 11.936C10.389 11.688 10.405 11.384 10.405 11.024C10.405 10.704 10.393 10.428 10.369 10.196C10.353 9.964 10.301 9.784 10.213 9.656C10.125 9.52 9.97703 9.452 9.76903 9.452C9.67303 9.452 9.58103 9.472 9.49303 9.512C9.40503 9.552 9.32903 9.604 9.26503 9.668C9.20103 9.724 9.15303 9.78 9.12103 9.836V11.42C9.12103 11.636 9.13703 11.84 9.16903 12.032C9.20903 12.224 9.27703 12.38 9.37303 12.5C9.47703 12.612 9.61703 12.668 9.79303 12.668Z"></path>
</svg>
