<svg xmlns="http://www.w3.org/2000/svg" fill="none" viewBox="0 0 214 84" height="84" width="214">
<mask fill="white" id="path-1-inside-1_1612_10">
<path d="M0 0H214V84H0V0Z"></path>
</mask>
<path fill="#0D0E12" d="M0 0H214V84H0V0Z"></path>
<path mask="url(#path-1-inside-1_1612_10)" fill="white" d="M0 0V-1H-1V0H0ZM0 84H-1V85H0V84ZM0 1H214V-1H0V1ZM214 83H0V85H214V83ZM1 84V0H-1V84H1Z"></path>
<path fill="white" d="M19.504 38.144C18.768 38.144 18.184 38.012 17.752 37.748C17.328 37.476 17.028 37.1 16.852 36.62C16.676 36.132 16.588 35.56 16.588 34.904V31.4C16.588 30.728 16.676 30.152 16.852 29.672C17.028 29.184 17.328 28.808 17.752 28.544C18.184 28.28 18.768 28.148 19.504 28.148C20.224 28.148 20.784 28.268 21.184 28.508C21.592 28.74 21.88 29.068 22.048 29.492C22.216 29.916 22.3 30.404 22.3 30.956V31.796H20.2V30.824C20.2 30.632 20.188 30.448 20.164 30.272C20.148 30.096 20.092 29.952 19.996 29.84C19.9 29.72 19.736 29.66 19.504 29.66C19.28 29.66 19.112 29.72 19 29.84C18.896 29.96 18.828 30.112 18.796 30.296C18.772 30.472 18.76 30.66 18.76 30.86V35.432C18.76 35.648 18.776 35.848 18.808 36.032C18.848 36.208 18.92 36.352 19.024 36.464C19.136 36.568 19.296 36.62 19.504 36.62C19.728 36.62 19.888 36.564 19.984 36.452C20.08 36.332 20.14 36.18 20.164 35.996C20.188 35.812 20.2 35.624 20.2 35.432V34.412H22.3V35.252C22.3 35.804 22.216 36.3 22.048 36.74C21.888 37.172 21.604 37.516 21.196 37.772C20.796 38.02 20.232 38.144 19.504 38.144ZM26.2657 38.144C25.5377 38.144 24.9617 38.016 24.5377 37.76C24.1137 37.504 23.8097 37.136 23.6257 36.656C23.4417 36.176 23.3497 35.604 23.3497 34.94V31.328C23.3497 30.656 23.4417 30.084 23.6257 29.612C23.8097 29.14 24.1137 28.78 24.5377 28.532C24.9617 28.276 25.5377 28.148 26.2657 28.148C27.0017 28.148 27.5817 28.276 28.0057 28.532C28.4377 28.78 28.7457 29.14 28.9297 29.612C29.1137 30.084 29.2057 30.656 29.2057 31.328V34.94C29.2057 35.604 29.1137 36.176 28.9297 36.656C28.7457 37.136 28.4377 37.504 28.0057 37.76C27.5817 38.016 27.0017 38.144 26.2657 38.144ZM26.2657 36.62C26.4897 36.62 26.6537 36.564 26.7577 36.452C26.8617 36.34 26.9297 36.196 26.9617 36.02C26.9937 35.844 27.0097 35.664 27.0097 35.48V30.8C27.0097 30.608 26.9937 30.428 26.9617 30.26C26.9297 30.084 26.8617 29.94 26.7577 29.828C26.6537 29.716 26.4897 29.66 26.2657 29.66C26.0577 29.66 25.9017 29.716 25.7977 29.828C25.6937 29.94 25.6257 30.084 25.5937 30.26C25.5617 30.428 25.5457 30.608 25.5457 30.8V35.48C25.5457 35.664 25.5577 35.844 25.5817 36.02C25.6137 36.196 25.6777 36.34 25.7737 36.452C25.8777 36.564 26.0417 36.62 26.2657 36.62ZM33.297 38.144C32.569 38.144 31.993 38.016 31.569 37.76C31.145 37.504 30.841 37.136 30.657 36.656C30.473 36.176 30.381 35.604 30.381 34.94V31.328C30.381 30.656 30.473 30.084 30.657 29.612C30.841 29.14 31.145 28.78 31.569 28.532C31.993 28.276 32.569 28.148 33.297 28.148C34.033 28.148 34.613 28.276 35.037 28.532C35.469 28.78 35.777 29.14 35.961 29.612C36.145 30.084 36.237 30.656 36.237 31.328V34.94C36.237 35.604 36.145 36.176 35.961 36.656C35.777 37.136 35.469 37.504 35.037 37.76C34.613 38.016 34.033 38.144 33.297 38.144ZM33.297 36.62C33.521 36.62 33.685 36.564 33.789 36.452C33.893 36.34 33.961 36.196 33.993 36.02C34.025 35.844 34.041 35.664 34.041 35.48V30.8C34.041 30.608 34.025 30.428 33.993 30.26C33.961 30.084 33.893 29.94 33.789 29.828C33.685 29.716 33.521 29.66 33.297 29.66C33.089 29.66 32.933 29.716 32.829 29.828C32.725 29.94 32.657 30.084 32.625 30.26C32.593 30.428 32.577 30.608 32.577 30.8V35.48C32.577 35.664 32.589 35.844 32.613 36.02C32.645 36.196 32.709 36.34 32.805 36.452C32.909 36.564 33.073 36.62 33.297 36.62ZM37.5802 38V28.28H42.4042V29.912H39.7282V32.384H40.1842C40.8002 32.384 41.3202 32.484 41.7442 32.684C42.1762 32.884 42.5042 33.192 42.7282 33.608C42.9522 34.016 43.0642 34.544 43.0642 35.192C43.0642 35.784 42.9842 36.264 42.8242 36.632C42.6722 37 42.4562 37.284 42.1762 37.484C41.8962 37.684 41.5682 37.82 41.1922 37.892C40.8242 37.964 40.4242 38 39.9922 38H37.5802ZM39.7282 36.596H40.0042C40.2762 36.596 40.4922 36.544 40.6522 36.44C40.8122 36.336 40.9242 36.176 40.9882 35.96C41.0522 35.744 41.0802 35.472 41.0722 35.144C41.0642 34.784 40.9882 34.484 40.8442 34.244C40.7002 33.996 40.4122 33.872 39.9802 33.872H39.7282V36.596ZM52.3728 40.1L52.1208 38H44.2248V28.28H46.2528V36.548H47.4408V28.28H49.4568V36.548H50.5968V28.28H52.6248V36.548H53.9448V40.1H52.3728ZM55.1809 38V28.28H59.5489V29.744H57.3289V32.156H59.0209V33.644H57.3289V36.548H59.5729V38H55.1809ZM60.5841 38V28.28H62.7321V32.216H64.2321V28.28H66.3921V38H64.2321V33.752H62.7321V38H60.5841ZM67.9083 38V28.28H69.6003V33.848L72.0843 28.28H73.4763V38H71.7483V32.336L69.2163 38H67.9083ZM74.9505 38V28.28H79.3185V29.744H77.0985V32.156H78.7905V33.644H77.0985V36.548H79.3425V38H74.9505Z"></path>
<path fill="white" d="M16.63 56V47.9H18.49C18.8567 47.9 19.1733 47.94 19.44 48.02C19.7133 48.1 19.94 48.2233 20.12 48.39C20.3 48.5567 20.4333 48.77 20.52 49.03C20.6067 49.2833 20.65 49.5833 20.65 49.93C20.65 50.2633 20.6067 50.5533 20.52 50.8C20.44 51.04 20.3133 51.23 20.14 51.37C19.9733 51.51 19.7567 51.6 19.49 51.64C19.8167 51.7133 20.08 51.84 20.28 52.02C20.48 52.1933 20.6267 52.42 20.72 52.7C20.82 52.9733 20.87 53.3033 20.87 53.69C20.87 54.0367 20.83 54.3533 20.75 54.64C20.67 54.9267 20.5433 55.17 20.37 55.37C20.2033 55.57 19.9867 55.7267 19.72 55.84C19.46 55.9467 19.15 56 18.79 56H16.63ZM17.76 55.19H18.52C19.0267 55.19 19.3633 55.0733 19.53 54.84C19.7033 54.6 19.79 54.2167 19.79 53.69C19.79 53.35 19.7433 53.0667 19.65 52.84C19.5633 52.6067 19.42 52.4333 19.22 52.32C19.0267 52.2 18.7633 52.14 18.43 52.14H17.76V55.19ZM17.76 51.28H18.43C18.75 51.28 19 51.2367 19.18 51.15C19.36 51.0567 19.4867 50.91 19.56 50.71C19.6333 50.51 19.67 50.25 19.67 49.93C19.67 49.5567 19.6133 49.2867 19.5 49.12C19.3867 48.9533 19.21 48.85 18.97 48.81C18.73 48.7633 18.4167 48.74 18.03 48.74H17.76V51.28ZM23.3741 56.08C22.9475 56.08 22.6108 55.9933 22.3641 55.82C22.1175 55.6467 21.9408 55.4 21.8341 55.08C21.7341 54.76 21.6841 54.3833 21.6841 53.95V52.27C21.6841 51.8367 21.7341 51.46 21.8341 51.14C21.9408 50.82 22.1175 50.5733 22.3641 50.4C22.6108 50.2267 22.9475 50.14 23.3741 50.14C23.8008 50.14 24.1341 50.2267 24.3741 50.4C24.6208 50.5733 24.7941 50.82 24.8941 51.14C25.0008 51.46 25.0541 51.8367 25.0541 52.27V53.95C25.0541 54.3833 25.0008 54.76 24.8941 55.08C24.7941 55.4 24.6208 55.6467 24.3741 55.82C24.1341 55.9933 23.8008 56.08 23.3741 56.08ZM23.3741 55.29C23.5808 55.29 23.7241 55.23 23.8041 55.11C23.8908 54.99 23.9408 54.8333 23.9541 54.64C23.9741 54.44 23.9841 54.2333 23.9841 54.02V52.21C23.9841 51.99 23.9741 51.7833 23.9541 51.59C23.9408 51.3967 23.8908 51.24 23.8041 51.12C23.7241 50.9933 23.5808 50.93 23.3741 50.93C23.1675 50.93 23.0208 50.9933 22.9341 51.12C22.8475 51.24 22.7941 51.3967 22.7741 51.59C22.7608 51.7833 22.7541 51.99 22.7541 52.21V54.02C22.7541 54.2333 22.7608 54.44 22.7741 54.64C22.7941 54.8333 22.8475 54.99 22.9341 55.11C23.0208 55.23 23.1675 55.29 23.3741 55.29ZM27.3922 56.1C27.1255 56.1 26.8955 56.0633 26.7022 55.99C26.5089 55.9167 26.3489 55.8033 26.2222 55.65C26.0955 55.49 26.0022 55.2933 25.9422 55.06C25.8822 54.8267 25.8522 54.55 25.8522 54.23H26.7622C26.7622 54.6233 26.8189 54.9067 26.9322 55.08C27.0455 55.2533 27.2055 55.34 27.4122 55.34C27.5922 55.34 27.7222 55.2933 27.8022 55.2C27.8822 55.1067 27.9322 54.98 27.9522 54.82C27.9722 54.6533 27.9822 54.47 27.9822 54.27C27.9822 54.0167 27.9455 53.83 27.8722 53.71C27.8055 53.5833 27.6855 53.5 27.5122 53.46C27.3455 53.42 27.1122 53.4 26.8122 53.4V52.64C27.2789 52.64 27.5889 52.57 27.7422 52.43C27.9022 52.29 27.9822 52.06 27.9822 51.74C27.9822 51.4533 27.9222 51.2467 27.8022 51.12C27.6822 50.9933 27.5322 50.93 27.3522 50.93C27.1522 50.93 26.9922 50.9933 26.8722 51.12C26.7522 51.2467 26.6922 51.5 26.6922 51.88H25.7822C25.7822 51.4467 25.8455 51.1033 25.9722 50.85C26.1055 50.5967 26.2922 50.4167 26.5322 50.31C26.7789 50.1967 27.0655 50.14 27.3922 50.14C27.7522 50.14 28.0422 50.2133 28.2622 50.36C28.4889 50.5067 28.6522 50.7 28.7522 50.94C28.8589 51.1733 28.9122 51.42 28.9122 51.68C28.9122 52.0133 28.8589 52.2733 28.7522 52.46C28.6522 52.6467 28.5255 52.78 28.3722 52.86C28.2255 52.94 28.0822 52.9867 27.9422 53C28.0889 53.0267 28.2355 53.0767 28.3822 53.15C28.5355 53.2167 28.6622 53.3467 28.7622 53.54C28.8689 53.7267 28.9222 54.02 28.9222 54.42C28.9222 54.9667 28.7955 55.3833 28.5422 55.67C28.2889 55.9567 27.9055 56.1 27.3922 56.1ZM29.7522 56L29.8122 50.22H30.6022L31.8822 53.77L33.1722 50.22H33.9622L34.0222 56H33.1222V52.55L32.0522 55.43H31.7222L30.6522 52.57V56H29.7522ZM36.6652 56.08C36.2385 56.08 35.9018 55.9933 35.6552 55.82C35.4085 55.6467 35.2318 55.4 35.1252 55.08C35.0252 54.76 34.9752 54.3833 34.9752 53.95V52.27C34.9752 51.8367 35.0252 51.46 35.1252 51.14C35.2318 50.82 35.4085 50.5733 35.6552 50.4C35.9018 50.2267 36.2385 50.14 36.6652 50.14C37.0918 50.14 37.4252 50.2267 37.6652 50.4C37.9118 50.5733 38.0852 50.82 38.1852 51.14C38.2918 51.46 38.3452 51.8367 38.3452 52.27V53.95C38.3452 54.3833 38.2918 54.76 38.1852 55.08C38.0852 55.4 37.9118 55.6467 37.6652 55.82C37.4252 55.9933 37.0918 56.08 36.6652 56.08ZM36.6652 55.29C36.8718 55.29 37.0152 55.23 37.0952 55.11C37.1818 54.99 37.2318 54.8333 37.2452 54.64C37.2652 54.44 37.2752 54.2333 37.2752 54.02V52.21C37.2752 51.99 37.2652 51.7833 37.2452 51.59C37.2318 51.3967 37.1818 51.24 37.0952 51.12C37.0152 50.9933 36.8718 50.93 36.6652 50.93C36.4585 50.93 36.3118 50.9933 36.2252 51.12C36.1385 51.24 36.0852 51.3967 36.0652 51.59C36.0518 51.7833 36.0452 51.99 36.0452 52.21V54.02C36.0452 54.2333 36.0518 54.44 36.0652 54.64C36.0852 54.8333 36.1385 54.99 36.2252 55.11C36.3118 55.23 36.4585 55.29 36.6652 55.29ZM38.7841 56L40.2341 53.05L38.8741 50.22H39.8941L41.1241 53H41.2041V50.22H42.0841V53H42.1641L43.3841 50.22H44.4041L43.0441 53.05L44.4941 56H43.5041L42.1641 53.16H42.0841V56H41.2041V53.16H41.1141L39.7741 56H38.7841ZM45.0752 56V50.22H46.1452V52.65H47.5152V50.22H48.5852V56H47.5152V53.43H46.1452V56H45.0752ZM51.255 56.08C50.8283 56.08 50.4917 55.9933 50.245 55.82C49.9983 55.6467 49.8217 55.4 49.715 55.08C49.615 54.76 49.565 54.3833 49.565 53.95V52.27C49.565 51.8367 49.615 51.46 49.715 51.14C49.8217 50.82 49.9983 50.5733 50.245 50.4C50.4917 50.2267 50.8283 50.14 51.255 50.14C51.6817 50.14 52.015 50.2267 52.255 50.4C52.5017 50.5733 52.675 50.82 52.775 51.14C52.8817 51.46 52.935 51.8367 52.935 52.27V53.95C52.935 54.3833 52.8817 54.76 52.775 55.08C52.675 55.4 52.5017 55.6467 52.255 55.82C52.015 55.9933 51.6817 56.08 51.255 56.08ZM51.255 55.29C51.4617 55.29 51.605 55.23 51.685 55.11C51.7717 54.99 51.8217 54.8333 51.835 54.64C51.855 54.44 51.865 54.2333 51.865 54.02V52.21C51.865 51.99 51.855 51.7833 51.835 51.59C51.8217 51.3967 51.7717 51.24 51.685 51.12C51.605 50.9933 51.4617 50.93 51.255 50.93C51.0483 50.93 50.9017 50.9933 50.815 51.12C50.7283 51.24 50.675 51.3967 50.655 51.59C50.6417 51.7833 50.635 51.99 50.635 52.21V54.02C50.635 54.2333 50.6417 54.44 50.655 54.64C50.675 54.8333 50.7283 54.99 50.815 55.11C50.9017 55.23 51.0483 55.29 51.255 55.29ZM53.943 57.31L53.773 56.85C53.953 56.79 54.093 56.6833 54.193 56.53C54.2997 56.3833 54.353 56.2067 54.353 56H53.783V54.85H54.883V55.98C54.883 56.3333 54.8064 56.6133 54.653 56.82C54.4997 57.0333 54.263 57.1967 53.943 57.31ZM59.5234 56.08C59.1034 56.08 58.7801 56.0133 58.5534 55.88C58.3268 55.7467 58.1668 55.5467 58.0734 55.28C57.9868 55.0133 57.9434 54.6833 57.9434 54.29V54.12H58.9134V54.29C58.9134 54.6567 58.9568 54.9167 59.0434 55.07C59.1301 55.2233 59.2868 55.3 59.5134 55.3C59.6934 55.3 59.8268 55.26 59.9134 55.18C60.0068 55.0933 60.0668 54.9567 60.0934 54.77C60.1268 54.5767 60.1434 54.32 60.1434 54V53.41H58.7634V52.81H60.1434V52.18C60.1434 51.8467 60.1234 51.5933 60.0834 51.42C60.0501 51.24 59.9868 51.1167 59.8934 51.05C59.8001 50.9767 59.6734 50.94 59.5134 50.94C59.2468 50.94 59.0801 51.0333 59.0134 51.22C58.9468 51.4 58.9134 51.6333 58.9134 51.92V52.2H57.9434V51.99C57.9434 51.6033 57.9901 51.2733 58.0834 51C58.1768 50.7267 58.3368 50.5167 58.5634 50.37C58.7968 50.2233 59.1201 50.15 59.5334 50.15C60.0068 50.15 60.3634 50.2467 60.6034 50.44C60.8434 50.6267 61.0034 50.8933 61.0834 51.24C61.1701 51.58 61.2134 51.9833 61.2134 52.45V53.78C61.2134 54.26 61.1701 54.6733 61.0834 55.02C60.9968 55.36 60.8301 55.6233 60.5834 55.81C60.3434 55.99 59.9901 56.08 59.5234 56.08ZM62.8345 56V51.02H61.7545V50.22H64.9945V51.02H63.9045V56H62.8345ZM67.173 56.08C66.7463 56.08 66.4096 55.9933 66.163 55.82C65.9163 55.6467 65.7396 55.4 65.633 55.08C65.533 54.76 65.483 54.3833 65.483 53.95V52.27C65.483 51.8367 65.533 51.46 65.633 51.14C65.7396 50.82 65.9163 50.5733 66.163 50.4C66.4096 50.2267 66.7463 50.14 67.173 50.14C67.5996 50.14 67.933 50.2267 68.173 50.4C68.4196 50.5733 68.593 50.82 68.693 51.14C68.7996 51.46 68.853 51.8367 68.853 52.27V53.95C68.853 54.3833 68.7996 54.76 68.693 55.08C68.593 55.4 68.4196 55.6467 68.173 55.82C67.933 55.9933 67.5996 56.08 67.173 56.08ZM67.173 55.29C67.3796 55.29 67.523 55.23 67.603 55.11C67.6896 54.99 67.7396 54.8333 67.753 54.64C67.773 54.44 67.783 54.2333 67.783 54.02V52.21C67.783 51.99 67.773 51.7833 67.753 51.59C67.7396 51.3967 67.6896 51.24 67.603 51.12C67.523 50.9933 67.3796 50.93 67.173 50.93C66.9663 50.93 66.8196 50.9933 66.733 51.12C66.6463 51.24 66.593 51.3967 66.573 51.59C66.5596 51.7833 66.553 51.99 66.553 52.21V54.02C66.553 54.2333 66.5596 54.44 66.573 54.64C66.593 54.8333 66.6463 54.99 66.733 55.11C66.8196 55.23 66.9663 55.29 67.173 55.29ZM72.1162 56V50.22H73.1862V52.66H73.4862L74.5762 50.22H75.6762L74.4662 53.02L75.6962 56H74.5762L73.4862 53.3H73.1862V56H72.1162ZM77.8566 56.08C77.4299 56.08 77.0932 55.9933 76.8466 55.82C76.5999 55.6467 76.4232 55.4 76.3166 55.08C76.2166 54.76 76.1666 54.3833 76.1666 53.95V52.27C76.1666 51.8367 76.2166 51.46 76.3166 51.14C76.4232 50.82 76.5999 50.5733 76.8466 50.4C77.0932 50.2267 77.4299 50.14 77.8566 50.14C78.2832 50.14 78.6166 50.2267 78.8566 50.4C79.1032 50.5733 79.2766 50.82 79.3766 51.14C79.4832 51.46 79.5366 51.8367 79.5366 52.27V53.95C79.5366 54.3833 79.4832 54.76 79.3766 55.08C79.2766 55.4 79.1032 55.6467 78.8566 55.82C78.6166 55.9933 78.2832 56.08 77.8566 56.08ZM77.8566 55.29C78.0632 55.29 78.2066 55.23 78.2866 55.11C78.3732 54.99 78.4232 54.8333 78.4366 54.64C78.4566 54.44 78.4666 54.2333 78.4666 54.02V52.21C78.4666 51.99 78.4566 51.7833 78.4366 51.59C78.4232 51.3967 78.3732 51.24 78.2866 51.12C78.2066 50.9933 78.0632 50.93 77.8566 50.93C77.6499 50.93 77.5032 50.9933 77.4166 51.12C77.3299 51.24 77.2766 51.3967 77.2566 51.59C77.2432 51.7833 77.2366 51.99 77.2366 52.21V54.02C77.2366 54.2333 77.2432 54.44 77.2566 54.64C77.2766 54.8333 77.3299 54.99 77.4166 55.11C77.5032 55.23 77.6499 55.29 77.8566 55.29ZM79.9946 57.47V55.29C80.1946 55.1367 80.3779 54.9533 80.5446 54.74C80.7113 54.5267 80.8579 54.2567 80.9846 53.93C81.1113 53.6033 81.2113 53.2 81.2846 52.72C81.3579 52.24 81.3979 51.66 81.4046 50.98L81.4246 50.22H84.0346V55.24H84.7346V57.47H83.9546L83.8646 56H80.8646L80.7746 57.47H79.9946ZM81.0346 55.24H83.0046V50.99H82.2546L82.2346 51.2C82.2279 51.9067 82.1913 52.4967 82.1246 52.97C82.0646 53.4367 81.9779 53.82 81.8646 54.12C81.7579 54.4133 81.6313 54.6467 81.4846 54.82C81.3446 54.9933 81.1946 55.1333 81.0346 55.24ZM87.7607 56V50.22H88.7907V55.24H89.8107V50.22H90.8407V55.24H91.8607V50.22H92.8907V56H87.7607ZM95.0507 56.08C94.824 56.08 94.624 56.0167 94.4507 55.89C94.2774 55.7567 94.1407 55.59 94.0407 55.39C93.9407 55.1833 93.8907 54.9667 93.8907 54.74C93.8907 54.38 93.9507 54.0767 94.0707 53.83C94.1907 53.5833 94.354 53.3767 94.5607 53.21C94.774 53.0367 95.0174 52.8867 95.2907 52.76C95.5707 52.6333 95.864 52.51 96.1707 52.39V51.98C96.1707 51.7467 96.1574 51.5533 96.1307 51.4C96.104 51.2467 96.0474 51.1333 95.9607 51.06C95.8807 50.98 95.7574 50.94 95.5907 50.94C95.444 50.94 95.324 50.9733 95.2307 51.04C95.144 51.1067 95.0807 51.2033 95.0407 51.33C95.0007 51.45 94.9807 51.5933 94.9807 51.76V52.05L93.9207 52.01C93.934 51.37 94.0807 50.9 94.3607 50.6C94.6407 50.2933 95.074 50.14 95.6607 50.14C96.234 50.14 96.6407 50.2967 96.8807 50.61C97.1207 50.9233 97.2407 51.3767 97.2407 51.97V54.61C97.2407 54.79 97.244 54.9633 97.2507 55.13C97.264 55.2967 97.2774 55.4533 97.2907 55.6C97.3107 55.74 97.3274 55.8733 97.3407 56H96.3607C96.3407 55.8933 96.314 55.76 96.2807 55.6C96.254 55.4333 96.234 55.2833 96.2207 55.15C96.154 55.3767 96.024 55.59 95.8307 55.79C95.644 55.9833 95.384 56.08 95.0507 56.08ZM95.4707 55.16C95.5774 55.16 95.6774 55.13 95.7707 55.07C95.864 55.01 95.9474 54.9433 96.0207 54.87C96.094 54.79 96.144 54.7267 96.1707 54.68V53.04C96.004 53.1333 95.8474 53.2267 95.7007 53.32C95.554 53.4133 95.424 53.5133 95.3107 53.62C95.204 53.72 95.1174 53.8367 95.0507 53.97C94.9907 54.0967 94.9607 54.2433 94.9607 54.41C94.9607 54.6433 95.004 54.8267 95.0907 54.96C95.1774 55.0933 95.304 55.16 95.4707 55.16ZM97.8185 56L99.1185 52.96L97.8485 50.22H98.8685L99.7185 52.05L100.469 50.22H101.519L100.199 53.09L101.539 56H100.519L99.6085 54.04L98.8285 56H97.8185ZM102.125 56L102.185 50.22H102.975L104.255 53.77L105.545 50.22H106.335L106.395 56H105.495V52.55L104.425 55.43H104.095L103.025 52.57V56H102.125ZM108.488 56.08C108.262 56.08 108.062 56.0167 107.888 55.89C107.715 55.7567 107.578 55.59 107.478 55.39C107.378 55.1833 107.328 54.9667 107.328 54.74C107.328 54.38 107.388 54.0767 107.508 53.83C107.628 53.5833 107.792 53.3767 107.998 53.21C108.212 53.0367 108.455 52.8867 108.728 52.76C109.008 52.6333 109.302 52.51 109.608 52.39V51.98C109.608 51.7467 109.595 51.5533 109.568 51.4C109.542 51.2467 109.485 51.1333 109.398 51.06C109.318 50.98 109.195 50.94 109.028 50.94C108.882 50.94 108.762 50.9733 108.668 51.04C108.582 51.1067 108.518 51.2033 108.478 51.33C108.438 51.45 108.418 51.5933 108.418 51.76V52.05L107.358 52.01C107.372 51.37 107.518 50.9 107.798 50.6C108.078 50.2933 108.512 50.14 109.098 50.14C109.672 50.14 110.078 50.2967 110.318 50.61C110.558 50.9233 110.678 51.3767 110.678 51.97V54.61C110.678 54.79 110.682 54.9633 110.688 55.13C110.702 55.2967 110.715 55.4533 110.728 55.6C110.748 55.74 110.765 55.8733 110.778 56H109.798C109.778 55.8933 109.752 55.76 109.718 55.6C109.692 55.4333 109.672 55.2833 109.658 55.15C109.592 55.3767 109.462 55.59 109.268 55.79C109.082 55.9833 108.822 56.08 108.488 56.08ZM108.908 55.16C109.015 55.16 109.115 55.13 109.208 55.07C109.302 55.01 109.385 54.9433 109.458 54.87C109.532 54.79 109.582 54.7267 109.608 54.68V53.04C109.442 53.1333 109.285 53.2267 109.138 53.32C108.992 53.4133 108.862 53.5133 108.748 53.62C108.642 53.72 108.555 53.8367 108.488 53.97C108.428 54.0967 108.398 54.2433 108.398 54.41C108.398 54.6433 108.442 54.8267 108.528 54.96C108.615 55.0933 108.742 55.16 108.908 55.16ZM112.356 56V51.02H111.276V50.22H114.516V51.02H113.426V56H112.356ZM115.163 56V50.22H116.233V52.65H117.603V50.22H118.673V56H117.603V53.43H116.233V56H115.163ZM121.343 56.08C120.916 56.08 120.58 55.9933 120.333 55.82C120.086 55.6467 119.91 55.4 119.803 55.08C119.703 54.76 119.653 54.3833 119.653 53.95V52.27C119.653 51.8367 119.703 51.46 119.803 51.14C119.91 50.82 120.086 50.5733 120.333 50.4C120.58 50.2267 120.916 50.14 121.343 50.14C121.77 50.14 122.103 50.2267 122.343 50.4C122.59 50.5733 122.763 50.82 122.863 51.14C122.97 51.46 123.023 51.8367 123.023 52.27V53.95C123.023 54.3833 122.97 54.76 122.863 55.08C122.763 55.4 122.59 55.6467 122.343 55.82C122.103 55.9933 121.77 56.08 121.343 56.08ZM121.343 55.29C121.55 55.29 121.693 55.23 121.773 55.11C121.86 54.99 121.91 54.8333 121.923 54.64C121.943 54.44 121.953 54.2333 121.953 54.02V52.21C121.953 51.99 121.943 51.7833 121.923 51.59C121.91 51.3967 121.86 51.24 121.773 51.12C121.693 50.9933 121.55 50.93 121.343 50.93C121.136 50.93 120.99 50.9933 120.903 51.12C120.816 51.24 120.763 51.3967 120.743 51.59C120.73 51.7833 120.723 51.99 120.723 52.21V54.02C120.723 54.2333 120.73 54.44 120.743 54.64C120.763 54.8333 120.816 54.99 120.903 55.11C120.99 55.23 121.136 55.29 121.343 55.29ZM124.001 56V50.22H124.901V54.11L126.641 50.22H127.481V56H126.601V52.08L124.871 56H124.001ZM125.771 49.59C125.291 49.59 124.951 49.46 124.751 49.2C124.558 48.94 124.461 48.6167 124.461 48.23H125.081C125.088 48.47 125.141 48.6567 125.241 48.79C125.348 48.9167 125.524 48.98 125.771 48.98C126.024 48.98 126.201 48.9133 126.301 48.78C126.408 48.6467 126.461 48.4633 126.461 48.23H127.091C127.091 48.6167 126.991 48.94 126.791 49.2C126.598 49.46 126.258 49.59 125.771 49.59ZM130.856 56V50.22H134.216V56H133.146V51.03H131.926V56H130.856ZM136.34 56.08C136.113 56.08 135.913 56.0167 135.74 55.89C135.566 55.7567 135.43 55.59 135.33 55.39C135.23 55.1833 135.18 54.9667 135.18 54.74C135.18 54.38 135.24 54.0767 135.36 53.83C135.48 53.5833 135.643 53.3767 135.85 53.21C136.063 53.0367 136.306 52.8867 136.58 52.76C136.86 52.6333 137.153 52.51 137.46 52.39V51.98C137.46 51.7467 137.446 51.5533 137.42 51.4C137.393 51.2467 137.336 51.1333 137.25 51.06C137.17 50.98 137.046 50.94 136.88 50.94C136.733 50.94 136.613 50.9733 136.52 51.04C136.433 51.1067 136.37 51.2033 136.33 51.33C136.29 51.45 136.27 51.5933 136.27 51.76V52.05L135.21 52.01C135.223 51.37 135.37 50.9 135.65 50.6C135.93 50.2933 136.363 50.14 136.95 50.14C137.523 50.14 137.93 50.2967 138.17 50.61C138.41 50.9233 138.53 51.3767 138.53 51.97V54.61C138.53 54.79 138.533 54.9633 138.54 55.13C138.553 55.2967 138.566 55.4533 138.58 55.6C138.6 55.74 138.616 55.8733 138.63 56H137.65C137.63 55.8933 137.603 55.76 137.57 55.6C137.543 55.4333 137.523 55.2833 137.51 55.15C137.443 55.3767 137.313 55.59 137.12 55.79C136.933 55.9833 136.673 56.08 136.34 56.08ZM136.76 55.16C136.866 55.16 136.966 55.13 137.06 55.07C137.153 55.01 137.236 54.9433 137.31 54.87C137.383 54.79 137.433 54.7267 137.46 54.68V53.04C137.293 53.1333 137.136 53.2267 136.99 53.32C136.843 53.4133 136.713 53.5133 136.6 53.62C136.493 53.72 136.406 53.8367 136.34 53.97C136.28 54.0967 136.25 54.2433 136.25 54.41C136.25 54.6433 136.293 54.8267 136.38 54.96C136.466 55.0933 136.593 55.16 136.76 55.16ZM139.558 57.9V50.22H140.628V50.68C140.754 50.5333 140.908 50.4067 141.088 50.3C141.268 50.1933 141.481 50.14 141.728 50.14C142.028 50.14 142.264 50.22 142.438 50.38C142.618 50.5333 142.751 50.73 142.838 50.97C142.924 51.2033 142.981 51.4433 143.008 51.69C143.034 51.93 143.048 52.1367 143.048 52.31V53.71C143.048 54.1167 143.008 54.5033 142.928 54.87C142.848 55.23 142.701 55.5233 142.488 55.75C142.281 55.97 141.988 56.08 141.608 56.08C141.401 56.08 141.218 56.03 141.058 55.93C140.898 55.8233 140.754 55.7033 140.628 55.57V57.9H139.558ZM141.398 55.24C141.584 55.24 141.718 55.1733 141.798 55.04C141.878 54.9 141.928 54.7133 141.948 54.48C141.968 54.2467 141.978 53.99 141.978 53.71V52.31C141.978 52.07 141.964 51.85 141.938 51.65C141.911 51.4433 141.854 51.28 141.768 51.16C141.681 51.04 141.544 50.98 141.358 50.98C141.218 50.98 141.084 51.01 140.958 51.07C140.831 51.13 140.721 51.2 140.628 51.28V54.98C140.728 55.0533 140.841 55.1167 140.968 55.17C141.094 55.2167 141.238 55.24 141.398 55.24ZM144.67 56V51.02H143.59V50.22H146.83V51.02H145.74V56H144.67ZM147.478 56V50.22H148.378V54.11L150.118 50.22H150.958V56H150.078V52.08L148.348 56H147.478ZM152.048 56V50.22H152.948V54.11L154.688 50.22H155.528V56H154.648V52.08L152.918 56H152.048Z"></path>
</svg>
