<svg xmlns="http://www.w3.org/2000/svg" fill="none" viewBox="0 0 156 56" height="56" width="156">
<rect stroke="white" fill="#0D0E12" height="55" width="155" y="0.5" x="0.5"></rect>
<path fill="white" d="M43.7834 23V17.22H45.8334C46.4134 17.22 46.8501 17.2833 47.1434 17.41C47.4368 17.53 47.6334 17.6967 47.7334 17.91C47.8334 18.1233 47.8834 18.3733 47.8834 18.66C47.8834 19.04 47.8001 19.32 47.6334 19.5C47.4734 19.6733 47.2601 19.7967 46.9934 19.87C47.2734 19.9367 47.4868 20.0367 47.6334 20.17C47.7801 20.3033 47.8801 20.4667 47.9334 20.66C47.9934 20.8533 48.0234 21.0767 48.0234 21.33C48.0234 21.7033 47.9534 22.0167 47.8134 22.27C47.6734 22.5167 47.4368 22.7 47.1034 22.82C46.7701 22.94 46.3168 23 45.7434 23H43.7834ZM45.4034 22.1H45.6734C45.8201 22.1 45.9501 22.0867 46.0634 22.06C46.1768 22.0333 46.2668 21.9633 46.3334 21.85C46.4068 21.73 46.4434 21.54 46.4434 21.28C46.4434 20.9867 46.4101 20.7767 46.3434 20.65C46.2834 20.5233 46.1968 20.4467 46.0834 20.42C45.9701 20.3933 45.8368 20.38 45.6834 20.38H45.4034V22.1ZM45.4034 19.5H45.8134C46.0068 19.5 46.1401 19.44 46.2134 19.32C46.2868 19.1933 46.3234 19.02 46.3234 18.8C46.3234 18.5867 46.2834 18.41 46.2034 18.27C46.1301 18.13 45.9601 18.06 45.6934 18.06H45.4034V19.5ZM48.8323 24.9V17.22H50.4623V17.64C50.6556 17.4667 50.8623 17.3367 51.0823 17.25C51.3023 17.1633 51.5123 17.12 51.7123 17.12C51.9323 17.12 52.1189 17.1633 52.2723 17.25C52.4323 17.3367 52.5623 17.46 52.6623 17.62C52.7623 17.7733 52.8356 17.9533 52.8823 18.16C52.9289 18.3667 52.9523 18.5867 52.9523 18.82V21.31C52.9523 21.67 52.9023 21.9833 52.8023 22.25C52.7089 22.5167 52.5689 22.7267 52.3823 22.88C52.1956 23.0267 51.9656 23.1 51.6923 23.1C51.4856 23.1 51.2756 23.0533 51.0623 22.96C50.8556 22.86 50.6556 22.7267 50.4623 22.56V24.9H48.8323ZM50.8923 22.05C50.9989 22.05 51.0823 22.02 51.1423 21.96C51.2023 21.9 51.2456 21.8233 51.2723 21.73C51.3056 21.63 51.3223 21.52 51.3223 21.4V18.7C51.3223 18.5867 51.3089 18.4867 51.2823 18.4C51.2556 18.3067 51.2123 18.2333 51.1523 18.18C51.0923 18.1267 51.0156 18.1 50.9223 18.1C50.8356 18.1 50.7523 18.12 50.6723 18.16C50.5989 18.1933 50.5289 18.24 50.4623 18.3V21.9C50.5356 21.9467 50.6056 21.9833 50.6723 22.01C50.7456 22.0367 50.8189 22.05 50.8923 22.05ZM54.0411 24.68V23.55C54.2478 23.55 54.4178 23.5367 54.5511 23.51C54.6911 23.4833 54.7944 23.4333 54.8611 23.36C54.9344 23.2867 54.9711 23.1867 54.9711 23.06C54.9711 22.9467 54.9511 22.81 54.9111 22.65C54.8711 22.4833 54.8211 22.2967 54.7611 22.09L53.4011 17.22H54.9311L55.6611 20.56L56.2111 17.22H57.7511L56.4211 23.14C56.3344 23.54 56.1978 23.85 56.0111 24.07C55.8244 24.2967 55.5944 24.4533 55.3211 24.54C55.0544 24.6333 54.7511 24.68 54.4111 24.68H54.0411ZM60.6735 23V20.67C60.5868 20.6767 60.4968 20.6833 60.4035 20.69C60.3168 20.6967 60.2302 20.7 60.1435 20.7C59.6502 20.7 59.2635 20.6433 58.9835 20.53C58.7102 20.41 58.5168 20.2433 58.4035 20.03C58.2968 19.81 58.2435 19.55 58.2435 19.25V17.22H59.8635V19.15C59.8635 19.3567 59.9035 19.51 59.9835 19.61C60.0635 19.71 60.2268 19.7667 60.4735 19.78C60.5068 19.78 60.5368 19.78 60.5635 19.78C60.5968 19.7733 60.6335 19.77 60.6735 19.77V17.22H62.3035V23H60.6735ZM64.5145 23.1C64.2211 23.1 63.9745 23.03 63.7745 22.89C63.5745 22.75 63.4245 22.5733 63.3245 22.36C63.2245 22.14 63.1745 21.9167 63.1745 21.69C63.1745 21.33 63.2445 21.0267 63.3845 20.78C63.5311 20.5333 63.7211 20.3267 63.9545 20.16C64.1878 19.9933 64.4445 19.8533 64.7245 19.74C65.0045 19.62 65.2811 19.5133 65.5545 19.42V18.84C65.5545 18.74 65.5445 18.6533 65.5245 18.58C65.5045 18.5 65.4711 18.44 65.4245 18.4C65.3778 18.3533 65.3078 18.33 65.2145 18.33C65.1211 18.33 65.0478 18.35 64.9945 18.39C64.9478 18.43 64.9145 18.4867 64.8945 18.56C64.8745 18.6267 64.8611 18.7033 64.8545 18.79L64.8145 19.21L63.2945 19.15C63.3278 18.4567 63.5111 17.9467 63.8445 17.62C64.1845 17.2867 64.6911 17.12 65.3645 17.12C65.9511 17.12 66.3878 17.2833 66.6745 17.61C66.9678 17.93 67.1145 18.3467 67.1145 18.86V21.56C67.1145 21.8 67.1178 22.01 67.1245 22.19C67.1378 22.37 67.1511 22.5267 67.1645 22.66C67.1845 22.7933 67.2011 22.9067 67.2145 23H65.7545C65.7345 22.8467 65.7111 22.68 65.6845 22.5C65.6578 22.32 65.6378 22.2133 65.6245 22.18C65.5578 22.42 65.4311 22.6333 65.2445 22.82C65.0645 23.0067 64.8211 23.1 64.5145 23.1ZM65.0945 22C65.1611 22 65.2211 21.9867 65.2745 21.96C65.3345 21.9333 65.3878 21.8967 65.4345 21.85C65.4811 21.8033 65.5211 21.7567 65.5545 21.71V20.13C65.4211 20.21 65.2978 20.2933 65.1845 20.38C65.0711 20.46 64.9745 20.55 64.8945 20.65C64.8145 20.75 64.7511 20.86 64.7045 20.98C64.6645 21.0933 64.6445 21.2233 64.6445 21.37C64.6445 21.5633 64.6845 21.7167 64.7645 21.83C64.8445 21.9433 64.9545 22 65.0945 22ZM69.9703 23.1C69.5503 23.1 69.1903 23.0267 68.8903 22.88C68.5903 22.7267 68.3603 22.5067 68.2003 22.22C68.0403 21.9267 67.9603 21.5767 67.9603 21.17V19.05C67.9603 18.6367 68.0403 18.2867 68.2003 18C68.3603 17.7133 68.5903 17.4967 68.8903 17.35C69.197 17.1967 69.557 17.12 69.9703 17.12C70.397 17.12 70.7503 17.1933 71.0303 17.34C71.317 17.4867 71.5303 17.7033 71.6703 17.99C71.817 18.2767 71.8903 18.63 71.8903 19.05V20.21H69.5703V21.32C69.5703 21.4667 69.587 21.5867 69.6203 21.68C69.6536 21.7733 69.7003 21.84 69.7603 21.88C69.8203 21.92 69.8903 21.94 69.9703 21.94C70.0503 21.94 70.1203 21.9233 70.1803 21.89C70.247 21.85 70.297 21.79 70.3303 21.71C70.3703 21.63 70.3903 21.52 70.3903 21.38V20.77H71.8903V21.33C71.8903 21.9167 71.7203 22.36 71.3803 22.66C71.0403 22.9533 70.5703 23.1 69.9703 23.1ZM69.5703 19.45H70.3903V18.87C70.3903 18.7167 70.3703 18.5967 70.3303 18.51C70.297 18.4233 70.247 18.3633 70.1803 18.33C70.1203 18.2967 70.047 18.28 69.9603 18.28C69.8803 18.28 69.8103 18.3 69.7503 18.34C69.697 18.38 69.6536 18.45 69.6203 18.55C69.587 18.6433 69.5703 18.78 69.5703 18.96V19.45ZM73.4385 23V18.32H72.3885V17.22H76.1085V18.32H75.0585V23H73.4385ZM78.6713 23.1C78.2513 23.1 77.8913 23.0233 77.5913 22.87C77.2979 22.7167 77.0713 22.4967 76.9113 22.21C76.7513 21.9233 76.6713 21.5767 76.6713 21.17V19.05C76.6713 18.6367 76.7513 18.2867 76.9113 18C77.0713 17.7133 77.2979 17.4967 77.5913 17.35C77.8913 17.1967 78.2513 17.12 78.6713 17.12C79.0846 17.12 79.4346 17.1833 79.7213 17.31C80.0146 17.4367 80.2379 17.63 80.3913 17.89C80.5446 18.1433 80.6213 18.4667 80.6213 18.86V19.47H79.0513V18.81C79.0513 18.6567 79.0346 18.54 79.0013 18.46C78.9746 18.3733 78.9313 18.3133 78.8713 18.28C78.8179 18.2467 78.7513 18.23 78.6713 18.23C78.5913 18.23 78.5246 18.2533 78.4713 18.3C78.4179 18.34 78.3779 18.41 78.3513 18.51C78.3246 18.6033 78.3113 18.7367 78.3113 18.91V21.31C78.3113 21.57 78.3413 21.7467 78.4013 21.84C78.4679 21.9333 78.5613 21.98 78.6813 21.98C78.7679 21.98 78.8379 21.9633 78.8913 21.93C78.9446 21.89 78.9846 21.83 79.0113 21.75C79.0379 21.6633 79.0513 21.55 79.0513 21.41V20.64H80.6213V21.34C80.6213 21.7267 80.5413 22.0533 80.3813 22.32C80.2279 22.58 80.0046 22.7767 79.7113 22.91C79.4246 23.0367 79.0779 23.1 78.6713 23.1ZM81.129 23L82.029 20.6C81.8757 20.5133 81.7457 20.3933 81.639 20.24C81.5323 20.0867 81.4523 19.9067 81.399 19.7C81.3457 19.4933 81.319 19.27 81.319 19.03C81.319 18.7633 81.3557 18.52 81.429 18.3C81.509 18.08 81.6323 17.89 81.799 17.73C81.9723 17.57 82.1957 17.4467 82.469 17.36C82.7423 17.2667 83.0723 17.22 83.459 17.22H85.609V23H83.989V20.94C83.9623 20.94 83.889 20.94 83.769 20.94C83.649 20.9333 83.559 20.9267 83.499 20.92L82.849 23H81.129ZM83.919 19.98C83.9323 19.98 83.9457 19.98 83.959 19.98C83.9723 19.98 83.9823 19.98 83.989 19.98V18.14C83.9823 18.14 83.9723 18.14 83.959 18.14C83.9457 18.14 83.9323 18.14 83.919 18.14C83.6723 18.14 83.4657 18.1733 83.299 18.24C83.1323 18.3067 83.0057 18.4067 82.919 18.54C82.839 18.6667 82.799 18.8267 82.799 19.02C82.799 19.3467 82.8957 19.5867 83.089 19.74C83.289 19.8933 83.5657 19.9733 83.919 19.98ZM89.8838 23V18.32H88.8338V17.22H92.5538V18.32H91.5038V23H89.8838ZM95.0584 23.1C94.6451 23.1 94.2851 23.03 93.9784 22.89C93.6784 22.75 93.4451 22.54 93.2784 22.26C93.1184 21.98 93.0384 21.63 93.0384 21.21V19.01C93.0384 18.59 93.1184 18.24 93.2784 17.96C93.4451 17.68 93.6784 17.47 93.9784 17.33C94.2851 17.19 94.6451 17.12 95.0584 17.12C95.4718 17.12 95.8284 17.19 96.1284 17.33C96.4351 17.47 96.6718 17.68 96.8384 17.96C97.0051 18.24 97.0884 18.59 97.0884 19.01V21.21C97.0884 21.63 97.0051 21.98 96.8384 22.26C96.6718 22.54 96.4351 22.75 96.1284 22.89C95.8284 23.03 95.4718 23.1 95.0584 23.1ZM95.0684 22.02C95.1751 22.02 95.2584 21.9933 95.3184 21.94C95.3784 21.88 95.4184 21.8 95.4384 21.7C95.4651 21.5933 95.4784 21.4667 95.4784 21.32V18.9C95.4784 18.7533 95.4651 18.63 95.4384 18.53C95.4184 18.4233 95.3784 18.3433 95.3184 18.29C95.2584 18.23 95.1751 18.2 95.0684 18.2C94.9618 18.2 94.8784 18.23 94.8184 18.29C94.7584 18.3433 94.7151 18.4233 94.6884 18.53C94.6618 18.63 94.6484 18.7533 94.6484 18.9V21.32C94.6484 21.4667 94.6618 21.5933 94.6884 21.7C94.7151 21.8 94.7584 21.88 94.8184 21.94C94.8784 21.9933 94.9618 22.02 95.0684 22.02ZM97.9824 23L98.0024 17.22H99.2024L100.382 19.99L101.572 17.22H102.772L102.792 23H101.522V19.96L100.632 22.1H100.152L99.2524 19.95V23H97.9824ZM103.973 24.68V23.55C104.179 23.55 104.349 23.5367 104.483 23.51C104.623 23.4833 104.726 23.4333 104.793 23.36C104.866 23.2867 104.903 23.1867 104.903 23.06C104.903 22.9467 104.883 22.81 104.843 22.65C104.803 22.4833 104.753 22.2967 104.693 22.09L103.333 17.22H104.863L105.593 20.56L106.143 17.22H107.683L106.353 23.14C106.266 23.54 106.129 23.85 105.943 24.07C105.756 24.2967 105.526 24.4533 105.253 24.54C104.986 24.6333 104.683 24.68 104.343 24.68H103.973ZM108.465 24.4L108.365 23.87C108.538 23.8233 108.698 23.7367 108.845 23.61C108.998 23.49 109.075 23.2867 109.075 23H108.215V21.46H109.765V22.79C109.758 23.2833 109.648 23.6667 109.435 23.94C109.222 24.2133 108.898 24.3667 108.465 24.4ZM28.0461 38V32.22H29.6761V34.5H29.9161L30.7961 32.22H32.5461L31.4061 34.95L32.5761 38H30.8561L29.9161 35.44H29.6761V38H28.0461ZM33.8731 38V33.32H32.8231V32.22H36.5431V33.32H35.4931V38H33.8731ZM39.0477 38.1C38.6344 38.1 38.2744 38.03 37.9677 37.89C37.6677 37.75 37.4344 37.54 37.2677 37.26C37.1077 36.98 37.0277 36.63 37.0277 36.21V34.01C37.0277 33.59 37.1077 33.24 37.2677 32.96C37.4344 32.68 37.6677 32.47 37.9677 32.33C38.2744 32.19 38.6344 32.12 39.0477 32.12C39.461 32.12 39.8177 32.19 40.1177 32.33C40.4244 32.47 40.661 32.68 40.8277 32.96C40.9944 33.24 41.0777 33.59 41.0777 34.01V36.21C41.0777 36.63 40.9944 36.98 40.8277 37.26C40.661 37.54 40.4244 37.75 40.1177 37.89C39.8177 38.03 39.461 38.1 39.0477 38.1ZM39.0577 37.02C39.1644 37.02 39.2477 36.9933 39.3077 36.94C39.3677 36.88 39.4077 36.8 39.4277 36.7C39.4544 36.5933 39.4677 36.4667 39.4677 36.32V33.9C39.4677 33.7533 39.4544 33.63 39.4277 33.53C39.4077 33.4233 39.3677 33.3433 39.3077 33.29C39.2477 33.23 39.1644 33.2 39.0577 33.2C38.951 33.2 38.8677 33.23 38.8077 33.29C38.7477 33.3433 38.7044 33.4233 38.6777 33.53C38.651 33.63 38.6377 33.7533 38.6377 33.9V36.32C38.6377 36.4667 38.651 36.5933 38.6777 36.7C38.7044 36.8 38.7477 36.88 38.8077 36.94C38.8677 36.9933 38.951 37.02 39.0577 37.02ZM46.4203 38.1C46.0003 38.1 45.6403 38.0233 45.3403 37.87C45.0469 37.7167 44.8203 37.4967 44.6603 37.21C44.5003 36.9233 44.4203 36.5767 44.4203 36.17V34.05C44.4203 33.6367 44.5003 33.2867 44.6603 33C44.8203 32.7133 45.0469 32.4967 45.3403 32.35C45.6403 32.1967 46.0003 32.12 46.4203 32.12C46.8336 32.12 47.1836 32.1833 47.4703 32.31C47.7636 32.4367 47.9869 32.63 48.1403 32.89C48.2936 33.1433 48.3703 33.4667 48.3703 33.86V34.47H46.8003V33.81C46.8003 33.6567 46.7836 33.54 46.7503 33.46C46.7236 33.3733 46.6803 33.3133 46.6203 33.28C46.5669 33.2467 46.5003 33.23 46.4203 33.23C46.3403 33.23 46.2736 33.2533 46.2203 33.3C46.1669 33.34 46.1269 33.41 46.1003 33.51C46.0736 33.6033 46.0603 33.7367 46.0603 33.91V36.31C46.0603 36.57 46.0903 36.7467 46.1503 36.84C46.2169 36.9333 46.3103 36.98 46.4303 36.98C46.5169 36.98 46.5869 36.9633 46.6403 36.93C46.6936 36.89 46.7336 36.83 46.7603 36.75C46.7869 36.6633 46.8003 36.55 46.8003 36.41V35.64H48.3703V36.34C48.3703 36.7267 48.2903 37.0533 48.1303 37.32C47.9769 37.58 47.7536 37.7767 47.4603 37.91C47.1736 38.0367 46.8269 38.1 46.4203 38.1ZM49.218 38V32.22H50.848V34.54C50.8547 34.54 50.858 34.54 50.858 34.54C50.8647 34.54 50.8713 34.54 50.878 34.54C50.8847 34.54 50.8913 34.54 50.898 34.54C51.298 34.54 51.6513 34.57 51.958 34.63C52.2647 34.6833 52.518 34.7767 52.718 34.91C52.9247 35.0367 53.0813 35.21 53.188 35.43C53.2947 35.65 53.348 35.9267 53.348 36.26C53.348 36.5733 53.3013 36.84 53.208 37.06C53.1213 37.28 52.978 37.46 52.778 37.6C52.5847 37.74 52.3313 37.8433 52.018 37.91C51.7113 37.97 51.3413 38 50.908 38H49.218ZM50.848 37.07H50.878C51.1247 37.07 51.318 37.0467 51.458 37C51.6047 36.9467 51.708 36.8633 51.768 36.75C51.8347 36.63 51.868 36.4733 51.868 36.28C51.868 36.0733 51.8347 35.9167 51.768 35.81C51.708 35.6967 51.6047 35.6167 51.458 35.57C51.318 35.5233 51.1313 35.5 50.898 35.5C50.8913 35.5 50.8813 35.5 50.868 35.5C50.8613 35.5 50.8547 35.5 50.848 35.5V37.07ZM53.968 38V32.22H55.598V38H53.968ZM56.6204 38V32.22H59.5004V33.32H58.2504V38H56.6204ZM60.136 39.9V32.22H61.766V32.64C61.9593 32.4667 62.166 32.3367 62.386 32.25C62.606 32.1633 62.816 32.12 63.016 32.12C63.236 32.12 63.4226 32.1633 63.576 32.25C63.736 32.3367 63.866 32.46 63.966 32.62C64.066 32.7733 64.1393 32.9533 64.186 33.16C64.2326 33.3667 64.256 33.5867 64.256 33.82V36.31C64.256 36.67 64.206 36.9833 64.106 37.25C64.0126 37.5167 63.8726 37.7267 63.686 37.88C63.4993 38.0267 63.2693 38.1 62.996 38.1C62.7893 38.1 62.5793 38.0533 62.366 37.96C62.1593 37.86 61.9593 37.7267 61.766 37.56V39.9H60.136ZM62.196 37.05C62.3026 37.05 62.386 37.02 62.446 36.96C62.506 36.9 62.5493 36.8233 62.576 36.73C62.6093 36.63 62.626 36.52 62.626 36.4V33.7C62.626 33.5867 62.6126 33.4867 62.586 33.4C62.5593 33.3067 62.516 33.2333 62.456 33.18C62.396 33.1267 62.3193 33.1 62.226 33.1C62.1393 33.1 62.056 33.12 61.976 33.16C61.9026 33.1933 61.8326 33.24 61.766 33.3V36.9C61.8393 36.9467 61.9093 36.9833 61.976 37.01C62.0493 37.0367 62.1226 37.05 62.196 37.05ZM66.3748 38.1C66.0815 38.1 65.8348 38.03 65.6348 37.89C65.4348 37.75 65.2848 37.5733 65.1848 37.36C65.0848 37.14 65.0348 36.9167 65.0348 36.69C65.0348 36.33 65.1048 36.0267 65.2448 35.78C65.3915 35.5333 65.5815 35.3267 65.8148 35.16C66.0481 34.9933 66.3048 34.8533 66.5848 34.74C66.8648 34.62 67.1415 34.5133 67.4148 34.42V33.84C67.4148 33.74 67.4048 33.6533 67.3848 33.58C67.3648 33.5 67.3315 33.44 67.2848 33.4C67.2381 33.3533 67.1681 33.33 67.0748 33.33C66.9815 33.33 66.9081 33.35 66.8548 33.39C66.8081 33.43 66.7748 33.4867 66.7548 33.56C66.7348 33.6267 66.7215 33.7033 66.7148 33.79L66.6748 34.21L65.1548 34.15C65.1881 33.4567 65.3715 32.9467 65.7048 32.62C66.0448 32.2867 66.5515 32.12 67.2248 32.12C67.8115 32.12 68.2481 32.2833 68.5348 32.61C68.8281 32.93 68.9748 33.3467 68.9748 33.86V36.56C68.9748 36.8 68.9781 37.01 68.9848 37.19C68.9981 37.37 69.0115 37.5267 69.0248 37.66C69.0448 37.7933 69.0615 37.9067 69.0748 38H67.6148C67.5948 37.8467 67.5715 37.68 67.5448 37.5C67.5181 37.32 67.4981 37.2133 67.4848 37.18C67.4181 37.42 67.2915 37.6333 67.1048 37.82C66.9248 38.0067 66.6815 38.1 66.3748 38.1ZM66.9548 37C67.0215 37 67.0815 36.9867 67.1348 36.96C67.1948 36.9333 67.2481 36.8967 67.2948 36.85C67.3415 36.8033 67.3815 36.7567 67.4148 36.71V35.13C67.2815 35.21 67.1581 35.2933 67.0448 35.38C66.9315 35.46 66.8348 35.55 66.7548 35.65C66.6748 35.75 66.6115 35.86 66.5648 35.98C66.5248 36.0933 66.5048 36.2233 66.5048 36.37C66.5048 36.5633 66.5448 36.7167 66.6248 36.83C66.7048 36.9433 66.8148 37 66.9548 37ZM71.8307 38.1C71.4107 38.1 71.0507 38.0267 70.7507 37.88C70.4507 37.7267 70.2207 37.5067 70.0607 37.22C69.9007 36.9267 69.8207 36.5767 69.8207 36.17V34.05C69.8207 33.6367 69.9007 33.2867 70.0607 33C70.2207 32.7133 70.4507 32.4967 70.7507 32.35C71.0573 32.1967 71.4173 32.12 71.8307 32.12C72.2573 32.12 72.6107 32.1933 72.8907 32.34C73.1773 32.4867 73.3907 32.7033 73.5307 32.99C73.6773 33.2767 73.7507 33.63 73.7507 34.05V35.21H71.4307V36.32C71.4307 36.4667 71.4473 36.5867 71.4807 36.68C71.514 36.7733 71.5607 36.84 71.6207 36.88C71.6807 36.92 71.7507 36.94 71.8307 36.94C71.9107 36.94 71.9807 36.9233 72.0407 36.89C72.1073 36.85 72.1573 36.79 72.1907 36.71C72.2307 36.63 72.2507 36.52 72.2507 36.38V35.77H73.7507V36.33C73.7507 36.9167 73.5807 37.36 73.2407 37.66C72.9007 37.9533 72.4307 38.1 71.8307 38.1ZM71.4307 34.45H72.2507V33.87C72.2507 33.7167 72.2307 33.5967 72.1907 33.51C72.1573 33.4233 72.1073 33.3633 72.0407 33.33C71.9807 33.2967 71.9073 33.28 71.8207 33.28C71.7407 33.28 71.6707 33.3 71.6107 33.34C71.5573 33.38 71.514 33.45 71.4807 33.55C71.4473 33.6433 71.4307 33.78 71.4307 33.96V34.45ZM75.2989 38V33.32H74.2489V32.22H77.9689V33.32H76.9189V38H75.2989ZM83.2502 38.15C82.6569 38.15 82.2069 38.0467 81.9002 37.84C81.6002 37.6267 81.3969 37.33 81.2902 36.95C81.1835 36.57 81.1302 36.13 81.1302 35.63H82.7402C82.7402 35.9367 82.7569 36.1867 82.7902 36.38C82.8235 36.5733 82.8835 36.7133 82.9702 36.8C83.0635 36.88 83.1935 36.9167 83.3602 36.91C83.5335 36.9033 83.6569 36.8333 83.7302 36.7C83.8035 36.5667 83.8469 36.3767 83.8602 36.13C83.8802 35.8767 83.8902 35.5733 83.8902 35.22C83.8902 34.9533 83.8735 34.7167 83.8402 34.51C83.8135 34.3033 83.7535 34.14 83.6602 34.02C83.5735 33.8933 83.4402 33.83 83.2602 33.83C83.0935 33.83 82.9569 33.89 82.8502 34.01C82.7435 34.13 82.6669 34.3167 82.6202 34.57H81.1802L81.3302 29.9H85.1102V31.3H82.6702L82.5802 32.97C82.6469 32.8767 82.7735 32.7967 82.9602 32.73C83.1469 32.6567 83.3469 32.61 83.5602 32.59C83.9735 32.5433 84.3202 32.62 84.6002 32.82C84.8869 33.0133 85.1002 33.31 85.2402 33.71C85.3869 34.11 85.4602 34.6 85.4602 35.18C85.4602 35.6133 85.4335 36.0133 85.3802 36.38C85.3269 36.74 85.2235 37.0533 85.0702 37.32C84.9169 37.58 84.6935 37.7833 84.4002 37.93C84.1069 38.0767 83.7235 38.15 83.2502 38.15ZM88.5381 38.15C88.0514 38.15 87.6448 38.0533 87.3181 37.86C86.9914 37.66 86.7448 37.3867 86.5781 37.04C86.4114 36.6933 86.3281 36.29 86.3281 35.83V32.16C86.3281 31.6867 86.4048 31.2733 86.5581 30.92C86.7181 30.56 86.9614 30.28 87.2881 30.08C87.6148 29.88 88.0314 29.78 88.5381 29.78C89.0448 29.78 89.4581 29.88 89.7781 30.08C90.1048 30.28 90.3448 30.56 90.4981 30.92C90.6581 31.2733 90.7381 31.6867 90.7381 32.16V35.83C90.7381 36.2833 90.6548 36.6867 90.4881 37.04C90.3214 37.3867 90.0748 37.66 89.7481 37.86C89.4214 38.0533 89.0181 38.15 88.5381 38.15ZM88.5381 36.66C88.6981 36.66 88.8114 36.61 88.8781 36.51C88.9514 36.4033 88.9948 36.2833 89.0081 36.15C89.0281 36.01 89.0381 35.89 89.0381 35.79V32.2C89.0381 32.0867 89.0314 31.96 89.0181 31.82C89.0048 31.6733 88.9614 31.5467 88.8881 31.44C88.8214 31.3267 88.7048 31.27 88.5381 31.27C88.3714 31.27 88.2514 31.3267 88.1781 31.44C88.1114 31.5467 88.0714 31.6733 88.0581 31.82C88.0448 31.96 88.0381 32.0867 88.0381 32.2V35.79C88.0381 35.89 88.0481 36.01 88.0681 36.15C88.0881 36.2833 88.1314 36.4033 88.1981 36.51C88.2714 36.61 88.3848 36.66 88.5381 36.66ZM94.0361 38.15C93.5495 38.15 93.1428 38.0533 92.8161 37.86C92.4895 37.66 92.2428 37.3867 92.0761 37.04C91.9095 36.6933 91.8261 36.29 91.8261 35.83V32.16C91.8261 31.6867 91.9028 31.2733 92.0561 30.92C92.2161 30.56 92.4595 30.28 92.7861 30.08C93.1128 29.88 93.5295 29.78 94.0361 29.78C94.5428 29.78 94.9561 29.88 95.2761 30.08C95.6028 30.28 95.8428 30.56 95.9961 30.92C96.1561 31.2733 96.2361 31.6867 96.2361 32.16V35.83C96.2361 36.2833 96.1528 36.6867 95.9861 37.04C95.8195 37.3867 95.5728 37.66 95.2461 37.86C94.9195 38.0533 94.5161 38.15 94.0361 38.15ZM94.0361 36.66C94.1961 36.66 94.3095 36.61 94.3761 36.51C94.4495 36.4033 94.4928 36.2833 94.5061 36.15C94.5261 36.01 94.5361 35.89 94.5361 35.79V32.2C94.5361 32.0867 94.5295 31.96 94.5161 31.82C94.5028 31.6733 94.4595 31.5467 94.3861 31.44C94.3195 31.3267 94.2028 31.27 94.0361 31.27C93.8695 31.27 93.7495 31.3267 93.6761 31.44C93.6095 31.5467 93.5695 31.6733 93.5561 31.82C93.5428 31.96 93.5361 32.0867 93.5361 32.2V35.79C93.5361 35.89 93.5461 36.01 93.5661 36.15C93.5861 36.2833 93.6295 36.4033 93.6961 36.51C93.7695 36.61 93.8828 36.66 94.0361 36.66ZM99.8528 38V32.22H103.953V38H102.323V33.33H101.483V38H99.8528ZM106.15 38.1C105.857 38.1 105.61 38.03 105.41 37.89C105.21 37.75 105.06 37.5733 104.96 37.36C104.86 37.14 104.81 36.9167 104.81 36.69C104.81 36.33 104.88 36.0267 105.02 35.78C105.167 35.5333 105.357 35.3267 105.59 35.16C105.824 34.9933 106.08 34.8533 106.36 34.74C106.64 34.62 106.917 34.5133 107.19 34.42V33.84C107.19 33.74 107.18 33.6533 107.16 33.58C107.14 33.5 107.107 33.44 107.06 33.4C107.014 33.3533 106.944 33.33 106.85 33.33C106.757 33.33 106.684 33.35 106.63 33.39C106.584 33.43 106.55 33.4867 106.53 33.56C106.51 33.6267 106.497 33.7033 106.49 33.79L106.45 34.21L104.93 34.15C104.964 33.4567 105.147 32.9467 105.48 32.62C105.82 32.2867 106.327 32.12 107 32.12C107.587 32.12 108.024 32.2833 108.31 32.61C108.604 32.93 108.75 33.3467 108.75 33.86V36.56C108.75 36.8 108.754 37.01 108.76 37.19C108.774 37.37 108.787 37.5267 108.8 37.66C108.82 37.7933 108.837 37.9067 108.85 38H107.39C107.37 37.8467 107.347 37.68 107.32 37.5C107.294 37.32 107.274 37.2133 107.26 37.18C107.194 37.42 107.067 37.6333 106.88 37.82C106.7 38.0067 106.457 38.1 106.15 38.1ZM106.73 37C106.797 37 106.857 36.9867 106.91 36.96C106.97 36.9333 107.024 36.8967 107.07 36.85C107.117 36.8033 107.157 36.7567 107.19 36.71V35.13C107.057 35.21 106.934 35.2933 106.82 35.38C106.707 35.46 106.61 35.55 106.53 35.65C106.45 35.75 106.387 35.86 106.34 35.98C106.3 36.0933 106.28 36.2233 106.28 36.37C106.28 36.5633 106.32 36.7167 106.4 36.83C106.48 36.9433 106.59 37 106.73 37ZM109.716 39.9V32.22H111.346V32.64C111.539 32.4667 111.746 32.3367 111.966 32.25C112.186 32.1633 112.396 32.12 112.596 32.12C112.816 32.12 113.003 32.1633 113.156 32.25C113.316 32.3367 113.446 32.46 113.546 32.62C113.646 32.7733 113.719 32.9533 113.766 33.16C113.813 33.3667 113.836 33.5867 113.836 33.82V36.31C113.836 36.67 113.786 36.9833 113.686 37.25C113.593 37.5167 113.453 37.7267 113.266 37.88C113.079 38.0267 112.849 38.1 112.576 38.1C112.369 38.1 112.159 38.0533 111.946 37.96C111.739 37.86 111.539 37.7267 111.346 37.56V39.9H109.716ZM111.776 37.05C111.883 37.05 111.966 37.02 112.026 36.96C112.086 36.9 112.129 36.8233 112.156 36.73C112.189 36.63 112.206 36.52 112.206 36.4V33.7C112.206 33.5867 112.193 33.4867 112.166 33.4C112.139 33.3067 112.096 33.2333 112.036 33.18C111.976 33.1267 111.899 33.1 111.806 33.1C111.719 33.1 111.636 33.12 111.556 33.16C111.483 33.1933 111.413 33.24 111.346 33.3V36.9C111.419 36.9467 111.489 36.9833 111.556 37.01C111.629 37.0367 111.703 37.05 111.776 37.05ZM115.465 38V33.32H114.415V32.22H118.135V33.32H117.085V38H115.465ZM118.818 38V32.22H120.108V35.31L121.618 32.22H122.888V38H121.568V34.94L120.098 38H118.818ZM123.896 38V32.22H125.186V35.31L126.696 32.22H127.966V38H126.646V34.94L125.176 38H123.896ZM125.946 31.57C125.472 31.57 125.092 31.4367 124.806 31.17C124.519 30.9033 124.376 30.5167 124.376 30.01H125.296C125.296 30.2567 125.342 30.44 125.436 30.56C125.536 30.68 125.706 30.74 125.946 30.74C126.179 30.74 126.346 30.68 126.446 30.56C126.546 30.4333 126.596 30.25 126.596 30.01H127.516C127.516 30.5167 127.372 30.9033 127.086 31.17C126.799 31.4367 126.419 31.57 125.946 31.57Z"></path>
</svg>
