<svg xmlns="http://www.w3.org/2000/svg" fill="none" viewBox="0 0 44 15" height="15" width="44">
<rect fill="#0D0E12" height="12" width="44" y="3"></rect>
<path fill="white" d="M2.80785 12V6.22H4.09785V9.31L5.60785 6.22H6.87785V12H5.55785V8.94L4.08785 12H2.80785ZM9.60598 12.11C9.20598 12.11 8.88264 12.0567 8.63598 11.95C8.39598 11.8367 8.20931 11.6867 8.07598 11.5C7.94931 11.3067 7.86264 11.09 7.81598 10.85C7.77598 10.6033 7.75598 10.3467 7.75598 10.08H9.04598C9.04598 10.3867 9.09264 10.6167 9.18598 10.77C9.28598 10.9167 9.43931 10.99 9.64598 10.99C9.79931 10.99 9.91598 10.9567 9.99598 10.89C10.076 10.8233 10.1293 10.73 10.156 10.61C10.1893 10.49 10.206 10.3567 10.206 10.21C10.206 10.0167 10.1693 9.86333 10.096 9.75C10.0293 9.63667 9.91598 9.55667 9.75598 9.51C9.60264 9.45667 9.39264 9.43 9.12598 9.43V8.59C9.52598 8.59 9.78598 8.53667 9.90598 8.43C10.0326 8.32333 10.096 8.13667 10.096 7.87C10.096 7.67667 10.056 7.52333 9.97598 7.41C9.90264 7.29667 9.76931 7.24 9.57598 7.24C9.36931 7.24 9.22264 7.3 9.13598 7.42C9.05598 7.53333 9.01598 7.73667 9.01598 8.03H7.73598C7.73598 7.68333 7.78931 7.36667 7.89598 7.08C8.00264 6.78667 8.19264 6.55333 8.46598 6.38C8.74598 6.20667 9.14264 6.12 9.65598 6.12C10.1093 6.12 10.476 6.19333 10.756 6.34C11.0426 6.48 11.2493 6.67333 11.376 6.92C11.5093 7.16 11.576 7.43333 11.576 7.74C11.576 7.99333 11.536 8.20667 11.456 8.38C11.376 8.55333 11.2726 8.69 11.146 8.79C11.0193 8.88333 10.8793 8.95333 10.726 9C10.8926 9.06 11.0393 9.14 11.166 9.24C11.2993 9.34 11.406 9.48333 11.486 9.67C11.566 9.85 11.606 10.0967 11.606 10.41C11.606 10.8967 11.4493 11.3033 11.136 11.63C10.8226 11.95 10.3126 12.11 9.60598 12.11ZM12.3779 12L12.3979 6.22H13.5979L14.7779 8.99L15.9679 6.22H17.1679L17.1879 12H15.9179V8.96L15.0279 11.1H14.5479L13.6479 8.95V12H12.3779ZM20.0982 12.1C19.6782 12.1 19.3182 12.0267 19.0182 11.88C18.7182 11.7267 18.4882 11.5067 18.3282 11.22C18.1682 10.9267 18.0882 10.5767 18.0882 10.17V8.05C18.0882 7.63667 18.1682 7.28667 18.3282 7C18.4882 6.71333 18.7182 6.49667 19.0182 6.35C19.3249 6.19667 19.6849 6.12 20.0982 6.12C20.5249 6.12 20.8782 6.19333 21.1582 6.34C21.4449 6.48667 21.6582 6.70333 21.7982 6.99C21.9449 7.27667 22.0182 7.63 22.0182 8.05V9.21H19.6982V10.32C19.6982 10.4667 19.7149 10.5867 19.7482 10.68C19.7816 10.7733 19.8282 10.84 19.8882 10.88C19.9482 10.92 20.0182 10.94 20.0982 10.94C20.1782 10.94 20.2482 10.9233 20.3082 10.89C20.3749 10.85 20.4249 10.79 20.4582 10.71C20.4982 10.63 20.5182 10.52 20.5182 10.38V9.77H22.0182V10.33C22.0182 10.9167 21.8482 11.36 21.5082 11.66C21.1682 11.9533 20.6982 12.1 20.0982 12.1ZM19.6982 8.45H20.5182V7.87C20.5182 7.71667 20.4982 7.59667 20.4582 7.51C20.4249 7.42333 20.3749 7.36333 20.3082 7.33C20.2482 7.29667 20.1749 7.28 20.0882 7.28C20.0082 7.28 19.9382 7.3 19.8782 7.34C19.8249 7.38 19.7816 7.45 19.7482 7.55C19.7149 7.64333 19.6982 7.78 19.6982 7.96V8.45ZM22.9055 12V6.22H24.5355V8.46H25.5055V6.22H27.1455V12H25.5055V9.58H24.5355V12H22.9055ZM28.1594 12V6.22H29.4494V9.31L30.9594 6.22H32.2294V12H30.9094V8.94L29.4394 12H28.1594ZM33.9375 12V7.32H32.8875V6.22H36.6075V7.32H35.5575V12H33.9375ZM37.2903 12V6.22H38.9203V8.54C38.9269 8.54 38.9303 8.54 38.9303 8.54C38.9369 8.54 38.9436 8.54 38.9503 8.54C38.9569 8.54 38.9636 8.54 38.9703 8.54C39.3703 8.54 39.7236 8.56667 40.0303 8.62C40.3369 8.67333 40.5903 8.76667 40.7903 8.9C40.9969 9.02667 41.1536 9.2 41.2603 9.42C41.3669 9.63333 41.4203 9.90667 41.4203 10.24C41.4203 10.5533 41.3736 10.8233 41.2803 11.05C41.1936 11.27 41.0503 11.45 40.8503 11.59C40.6569 11.73 40.4036 11.8333 40.0903 11.9C39.7836 11.9667 39.4136 12 38.9803 12H37.2903ZM38.9203 11.07H38.9503C39.1969 11.07 39.3903 11.0467 39.5303 11C39.6769 10.9467 39.7803 10.8633 39.8403 10.75C39.9069 10.63 39.9403 10.4733 39.9403 10.28C39.9403 10.0733 39.9069 9.91667 39.8403 9.81C39.7803 9.69667 39.6769 9.61667 39.5303 9.57C39.3903 9.52333 39.2036 9.5 38.9703 9.5C38.9636 9.5 38.9536 9.5 38.9403 9.5C38.9336 9.5 38.9269 9.5 38.9203 9.5V11.07Z"></path>
</svg>
