<svg xmlns="http://www.w3.org/2000/svg" fill="none" viewBox="0 0 214 84" height="84" width="214">
<mask fill="white" id="path-1-inside-1_1514_6">
<path d="M0 0H214V84H0V0Z"></path>
</mask>
<path fill="#0D0E12" d="M0 0H214V84H0V0Z"></path>
<path mask="url(#path-1-inside-1_1514_6)" fill="white" d="M0 0V-1H-1V0H0ZM0 84H-1V85H0V84ZM0 1H214V-1H0V1ZM214 83H0V85H214V83ZM1 84V0H-1V84H1Z"></path>
<path fill="white" d="M16.684 38L16.852 28.28H19.156L20.224 33.932L21.376 28.28H23.596L23.764 38H22.24L22.06 31.532L20.932 38H19.576L18.376 31.484L18.232 38H16.684ZM25.1692 38V28.28H29.5372V29.744H27.3172V32.156H29.0092V33.644H27.3172V36.548H29.5612V38H25.1692ZM33.1164 38.144C32.5084 38.144 32.0004 38.036 31.5924 37.82C31.1844 37.604 30.8764 37.272 30.6684 36.824C30.4604 36.368 30.3444 35.78 30.3204 35.06L32.1564 34.784C32.1644 35.2 32.2004 35.536 32.2644 35.792C32.3364 36.048 32.4324 36.232 32.5524 36.344C32.6804 36.456 32.8324 36.512 33.0084 36.512C33.2324 36.512 33.3764 36.436 33.4404 36.284C33.5124 36.132 33.5484 35.972 33.5484 35.804C33.5484 35.404 33.4524 35.068 33.2604 34.796C33.0684 34.516 32.8084 34.236 32.4804 33.956L31.6404 33.224C31.2724 32.912 30.9604 32.56 30.7044 32.168C30.4564 31.768 30.3324 31.276 30.3324 30.692C30.3324 29.868 30.5764 29.24 31.0644 28.808C31.5524 28.368 32.2164 28.148 33.0564 28.148C33.5764 28.148 33.9924 28.236 34.3044 28.412C34.6244 28.588 34.8644 28.82 35.0244 29.108C35.1924 29.388 35.3044 29.688 35.3604 30.008C35.4244 30.32 35.4604 30.62 35.4684 30.908L33.6204 31.136C33.6124 30.848 33.5924 30.6 33.5604 30.392C33.5364 30.176 33.4804 30.012 33.3924 29.9C33.3044 29.78 33.1684 29.72 32.9844 29.72C32.7844 29.72 32.6364 29.804 32.5404 29.972C32.4524 30.14 32.4084 30.308 32.4084 30.476C32.4084 30.836 32.4924 31.132 32.6604 31.364C32.8364 31.588 33.0644 31.824 33.3444 32.072L34.1484 32.78C34.5724 33.14 34.9284 33.548 35.2164 34.004C35.5124 34.46 35.6604 35.024 35.6604 35.696C35.6604 36.152 35.5564 36.568 35.3484 36.944C35.1404 37.312 34.8444 37.604 34.4604 37.82C34.0844 38.036 33.6364 38.144 33.1164 38.144ZM39.093 38.144C38.485 38.144 37.977 38.036 37.569 37.82C37.161 37.604 36.853 37.272 36.645 36.824C36.437 36.368 36.321 35.78 36.297 35.06L38.133 34.784C38.141 35.2 38.177 35.536 38.241 35.792C38.313 36.048 38.409 36.232 38.529 36.344C38.657 36.456 38.809 36.512 38.985 36.512C39.209 36.512 39.353 36.436 39.417 36.284C39.489 36.132 39.525 35.972 39.525 35.804C39.525 35.404 39.429 35.068 39.237 34.796C39.045 34.516 38.785 34.236 38.457 33.956L37.617 33.224C37.249 32.912 36.937 32.56 36.681 32.168C36.433 31.768 36.309 31.276 36.309 30.692C36.309 29.868 36.553 29.24 37.041 28.808C37.529 28.368 38.193 28.148 39.033 28.148C39.553 28.148 39.969 28.236 40.281 28.412C40.601 28.588 40.841 28.82 41.001 29.108C41.169 29.388 41.281 29.688 41.337 30.008C41.401 30.32 41.437 30.62 41.445 30.908L39.597 31.136C39.589 30.848 39.569 30.6 39.537 30.392C39.513 30.176 39.457 30.012 39.369 29.9C39.281 29.78 39.145 29.72 38.961 29.72C38.761 29.72 38.613 29.804 38.517 29.972C38.429 30.14 38.385 30.308 38.385 30.476C38.385 30.836 38.469 31.132 38.637 31.364C38.813 31.588 39.041 31.824 39.321 32.072L40.125 32.78C40.549 33.14 40.905 33.548 41.193 34.004C41.489 34.46 41.637 35.024 41.637 35.696C41.637 36.152 41.533 36.568 41.325 36.944C41.117 37.312 40.821 37.604 40.437 37.82C40.061 38.036 39.613 38.144 39.093 38.144ZM42.1153 38L43.9513 28.28H46.3993L48.2113 38H46.2313L45.9073 35.948H44.4793L44.1433 38H42.1153ZM44.6713 34.664H45.7033L45.1873 30.872L44.6713 34.664ZM51.5723 38.144C50.9003 38.144 50.3683 38.004 49.9763 37.724C49.5923 37.444 49.3163 37.052 49.1483 36.548C48.9883 36.036 48.9083 35.448 48.9083 34.784V31.52C48.9083 30.832 48.9963 30.236 49.1723 29.732C49.3483 29.228 49.6483 28.84 50.0723 28.568C50.5043 28.288 51.0883 28.148 51.8243 28.148C52.5443 28.148 53.1083 28.268 53.5163 28.508C53.9323 28.748 54.2283 29.08 54.4043 29.504C54.5803 29.928 54.6683 30.424 54.6683 30.992V31.616H52.5683V30.824C52.5683 30.616 52.5523 30.424 52.5203 30.248C52.4963 30.072 52.4323 29.932 52.3283 29.828C52.2323 29.716 52.0723 29.66 51.8483 29.66C51.6163 29.66 51.4483 29.724 51.3443 29.852C51.2403 29.972 51.1723 30.124 51.1403 30.308C51.1163 30.492 51.1043 30.684 51.1043 30.884V35.384C51.1043 35.6 51.1243 35.804 51.1643 35.996C51.2123 36.18 51.2923 36.332 51.4043 36.452C51.5243 36.564 51.6923 36.62 51.9083 36.62C52.1323 36.62 52.3043 36.56 52.4243 36.44C52.5443 36.32 52.6283 36.164 52.6763 35.972C52.7243 35.78 52.7483 35.576 52.7483 35.36V34.22H51.8723V32.96H54.6803V38H53.2643L53.1443 37.196C53.0163 37.468 52.8283 37.696 52.5803 37.88C52.3323 38.056 51.9963 38.144 51.5723 38.144ZM56.0247 38V28.28H60.3927V29.744H58.1727V32.156H59.8647V33.644H58.1727V36.548H60.4167V38H56.0247Z"></path>
<path fill="white" d="M17.68 56L16.36 47.9H17.3L18.17 53.72L19.26 47.93H20.06L21.16 53.75L22.01 47.9H22.93L21.63 56H20.81L19.68 50L18.54 56H17.68ZM25.3175 56.08C24.8908 56.08 24.5542 55.9933 24.3075 55.82C24.0608 55.6467 23.8842 55.4 23.7775 55.08C23.6775 54.76 23.6275 54.3833 23.6275 53.95V52.27C23.6275 51.8367 23.6775 51.46 23.7775 51.14C23.8842 50.82 24.0608 50.5733 24.3075 50.4C24.5542 50.2267 24.8908 50.14 25.3175 50.14C25.7442 50.14 26.0775 50.2267 26.3175 50.4C26.5642 50.5733 26.7375 50.82 26.8375 51.14C26.9442 51.46 26.9975 51.8367 26.9975 52.27V53.95C26.9975 54.3833 26.9442 54.76 26.8375 55.08C26.7375 55.4 26.5642 55.6467 26.3175 55.82C26.0775 55.9933 25.7442 56.08 25.3175 56.08ZM25.3175 55.29C25.5242 55.29 25.6675 55.23 25.7475 55.11C25.8342 54.99 25.8842 54.8333 25.8975 54.64C25.9175 54.44 25.9275 54.2333 25.9275 54.02V52.21C25.9275 51.99 25.9175 51.7833 25.8975 51.59C25.8842 51.3967 25.8342 51.24 25.7475 51.12C25.6675 50.9933 25.5242 50.93 25.3175 50.93C25.1108 50.93 24.9642 50.9933 24.8775 51.12C24.7908 51.24 24.7375 51.3967 24.7175 51.59C24.7042 51.7833 24.6975 51.99 24.6975 52.21V54.02C24.6975 54.2333 24.7042 54.44 24.7175 54.64C24.7375 54.8333 24.7908 54.99 24.8775 55.11C24.9642 55.23 25.1108 55.29 25.3175 55.29ZM28.8055 56.08C28.5789 56.08 28.4022 56.02 28.2755 55.9C28.1489 55.78 28.0589 55.63 28.0055 55.45C27.9589 55.27 27.9355 55.0867 27.9355 54.9V50.22H29.0055V54.58C29.0055 54.7867 29.0355 54.95 29.0955 55.07C29.1555 55.1833 29.2789 55.24 29.4655 55.24C29.5855 55.24 29.7089 55.2067 29.8355 55.14C29.9689 55.0667 30.0955 54.98 30.2155 54.88V50.22H31.2855V56H30.2155V55.43C30.0289 55.61 29.8155 55.7633 29.5755 55.89C29.3422 56.0167 29.0855 56.08 28.8055 56.08ZM32.4798 56V47.9H33.5498V56H32.4798ZM36.005 56.08C35.5183 56.08 35.155 55.9033 34.915 55.55C34.675 55.19 34.555 54.5833 34.555 53.73V52.61C34.555 52.17 34.5917 51.7633 34.665 51.39C34.7383 51.01 34.875 50.7067 35.075 50.48C35.2817 50.2533 35.5817 50.14 35.975 50.14C36.1683 50.14 36.345 50.1833 36.505 50.27C36.665 50.3567 36.8083 50.4633 36.935 50.59V47.9H38.005V56H36.935V55.63C36.8083 55.7633 36.6683 55.8733 36.515 55.96C36.3683 56.04 36.1983 56.08 36.005 56.08ZM36.275 55.24C36.375 55.24 36.4817 55.2233 36.595 55.19C36.7083 55.15 36.8217 55.0933 36.935 55.02V51.23C36.8417 51.1633 36.7383 51.1067 36.625 51.06C36.5117 51.0067 36.3883 50.98 36.255 50.98C36.0083 50.98 35.8417 51.1 35.755 51.34C35.6683 51.5733 35.625 51.8567 35.625 52.19V53.82C35.625 54.0867 35.6383 54.33 35.665 54.55C35.6983 54.7633 35.7617 54.9333 35.855 55.06C35.9483 55.18 36.0883 55.24 36.275 55.24ZM41.284 57.45V56.63C41.544 56.63 41.7507 56.6167 41.904 56.59C42.0573 56.57 42.1673 56.5267 42.234 56.46C42.3007 56.4 42.334 56.3133 42.334 56.2C42.334 56.14 42.3107 56.0067 42.264 55.8C42.2173 55.5933 42.1673 55.3733 42.114 55.14L40.954 50.22H42.034L42.814 54.54L43.564 50.22H44.644L43.264 56.32C43.204 56.6 43.094 56.82 42.934 56.98C42.774 57.1467 42.5673 57.2667 42.314 57.34C42.0673 57.4133 41.7673 57.45 41.414 57.45H41.284ZM46.88 56.08C46.4533 56.08 46.1167 55.9933 45.87 55.82C45.6233 55.6467 45.4467 55.4 45.34 55.08C45.24 54.76 45.19 54.3833 45.19 53.95V52.27C45.19 51.8367 45.24 51.46 45.34 51.14C45.4467 50.82 45.6233 50.5733 45.87 50.4C46.1167 50.2267 46.4533 50.14 46.88 50.14C47.3067 50.14 47.64 50.2267 47.88 50.4C48.1267 50.5733 48.3 50.82 48.4 51.14C48.5067 51.46 48.56 51.8367 48.56 52.27V53.95C48.56 54.3833 48.5067 54.76 48.4 55.08C48.3 55.4 48.1267 55.6467 47.88 55.82C47.64 55.9933 47.3067 56.08 46.88 56.08ZM46.88 55.29C47.0867 55.29 47.23 55.23 47.31 55.11C47.3967 54.99 47.4467 54.8333 47.46 54.64C47.48 54.44 47.49 54.2333 47.49 54.02V52.21C47.49 51.99 47.48 51.7833 47.46 51.59C47.4467 51.3967 47.3967 51.24 47.31 51.12C47.23 50.9933 47.0867 50.93 46.88 50.93C46.6733 50.93 46.5267 50.9933 46.44 51.12C46.3533 51.24 46.3 51.3967 46.28 51.59C46.2667 51.7833 46.26 51.99 46.26 52.21V54.02C46.26 54.2333 46.2667 54.44 46.28 54.64C46.3 54.8333 46.3533 54.99 46.44 55.11C46.5267 55.23 46.6733 55.29 46.88 55.29ZM50.368 56.08C50.1414 56.08 49.9647 56.02 49.838 55.9C49.7114 55.78 49.6214 55.63 49.568 55.45C49.5214 55.27 49.498 55.0867 49.498 54.9V50.22H50.568V54.58C50.568 54.7867 50.598 54.95 50.658 55.07C50.718 55.1833 50.8414 55.24 51.028 55.24C51.148 55.24 51.2714 55.2067 51.398 55.14C51.5314 55.0667 51.658 54.98 51.778 54.88V50.22H52.848V56H51.778V55.43C51.5914 55.61 51.378 55.7633 51.138 55.89C50.9047 56.0167 50.648 56.08 50.368 56.08ZM56.3275 56V47.9H57.3975V56H56.3275ZM58.5827 56V50.22H59.6527V56H58.5827ZM58.5827 49.36V48.24H59.6527V49.36H58.5827ZM60.8178 55.99V47.89H61.8878V52.72L63.4478 50.22H64.5678L63.2078 52.48L64.5278 56H63.4578L62.3778 53.04L61.8878 53.78V55.99H60.8178ZM66.6849 56.08C66.2316 56.08 65.8816 55.9933 65.6349 55.82C65.3883 55.64 65.2149 55.38 65.1149 55.04C65.0216 54.6933 64.9749 54.27 64.9749 53.77V52.45C64.9749 51.9367 65.0249 51.51 65.1249 51.17C65.2249 50.83 65.3983 50.5733 65.6449 50.4C65.8983 50.2267 66.2449 50.14 66.6849 50.14C67.1716 50.14 67.5283 50.24 67.7549 50.44C67.9883 50.64 68.1416 50.93 68.2149 51.31C68.2883 51.6833 68.3249 52.1333 68.3249 52.66V53.13H66.0449V54.29C66.0449 54.5233 66.0649 54.7133 66.1049 54.86C66.1516 55.0067 66.2216 55.1167 66.3149 55.19C66.4149 55.2567 66.5416 55.29 66.6949 55.29C66.8549 55.29 66.9749 55.2533 67.0549 55.18C67.1416 55.1 67.1983 54.99 67.2249 54.85C67.2583 54.7033 67.2749 54.5333 67.2749 54.34V53.99H68.3149V54.21C68.3149 54.79 68.1916 55.2467 67.9449 55.58C67.6983 55.9133 67.2783 56.08 66.6849 56.08ZM66.0449 52.55H67.2749V52.03C67.2749 51.79 67.2616 51.59 67.2349 51.43C67.2083 51.2633 67.1516 51.14 67.0649 51.06C66.9849 50.9733 66.8549 50.93 66.6749 50.93C66.5016 50.93 66.3683 50.97 66.2749 51.05C66.1883 51.13 66.1283 51.2667 66.0949 51.46C66.0616 51.6467 66.0449 51.9067 66.0449 52.24V52.55ZM73.1191 56.08C72.8191 56.08 72.5757 56.0233 72.3891 55.91C72.2091 55.7967 72.0757 55.6367 71.9891 55.43C71.9091 55.2233 71.8691 54.98 71.8691 54.7V50.93H71.2591V50.22H71.8691V48.53H72.9391V50.22H73.8691V50.93H72.9391V54.63C72.9391 54.8567 72.9757 55.02 73.0491 55.12C73.1224 55.2133 73.2624 55.26 73.4691 55.26C73.5224 55.26 73.5824 55.2567 73.6491 55.25C73.7224 55.2433 73.7924 55.2367 73.8591 55.23V56.02C73.7257 56.04 73.6024 56.0533 73.4891 56.06C73.3757 56.0733 73.2524 56.08 73.1191 56.08ZM76.2452 56.08C75.8186 56.08 75.4819 55.9933 75.2352 55.82C74.9886 55.6467 74.8119 55.4 74.7052 55.08C74.6052 54.76 74.5552 54.3833 74.5552 53.95V52.27C74.5552 51.8367 74.6052 51.46 74.7052 51.14C74.8119 50.82 74.9886 50.5733 75.2352 50.4C75.4819 50.2267 75.8186 50.14 76.2452 50.14C76.6719 50.14 77.0052 50.2267 77.2452 50.4C77.4919 50.5733 77.6652 50.82 77.7652 51.14C77.8719 51.46 77.9252 51.8367 77.9252 52.27V53.95C77.9252 54.3833 77.8719 54.76 77.7652 55.08C77.6652 55.4 77.4919 55.6467 77.2452 55.82C77.0052 55.9933 76.6719 56.08 76.2452 56.08ZM76.2452 55.29C76.4519 55.29 76.5952 55.23 76.6752 55.11C76.7619 54.99 76.8119 54.8333 76.8252 54.64C76.8452 54.44 76.8552 54.2333 76.8552 54.02V52.21C76.8552 51.99 76.8452 51.7833 76.8252 51.59C76.8119 51.3967 76.7619 51.24 76.6752 51.12C76.5952 50.9933 76.4519 50.93 76.2452 50.93C76.0386 50.93 75.8919 50.9933 75.8052 51.12C75.7186 51.24 75.6652 51.3967 75.6452 51.59C75.6319 51.7833 75.6252 51.99 75.6252 52.21V54.02C75.6252 54.2333 75.6319 54.44 75.6452 54.64C75.6652 54.8333 75.7186 54.99 75.8052 55.11C75.8919 55.23 76.0386 55.29 76.2452 55.29ZM81.1884 57.9V50.22H82.2584V50.68C82.3851 50.5333 82.5384 50.4067 82.7184 50.3C82.8984 50.1933 83.1118 50.14 83.3584 50.14C83.6584 50.14 83.8951 50.22 84.0684 50.38C84.2484 50.5333 84.3818 50.73 84.4684 50.97C84.5551 51.2033 84.6118 51.4433 84.6384 51.69C84.6651 51.93 84.6784 52.1367 84.6784 52.31V53.71C84.6784 54.1167 84.6384 54.5033 84.5584 54.87C84.4784 55.23 84.3318 55.5233 84.1184 55.75C83.9118 55.97 83.6184 56.08 83.2384 56.08C83.0318 56.08 82.8484 56.03 82.6884 55.93C82.5284 55.8233 82.3851 55.7033 82.2584 55.57V57.9H81.1884ZM83.0284 55.24C83.2151 55.24 83.3484 55.1733 83.4284 55.04C83.5084 54.9 83.5584 54.7133 83.5784 54.48C83.5984 54.2467 83.6084 53.99 83.6084 53.71V52.31C83.6084 52.07 83.5951 51.85 83.5684 51.65C83.5418 51.4433 83.4851 51.28 83.3984 51.16C83.3118 51.04 83.1751 50.98 82.9884 50.98C82.8484 50.98 82.7151 51.01 82.5884 51.07C82.4618 51.13 82.3518 51.2 82.2584 51.28V54.98C82.3584 55.0533 82.4718 55.1167 82.5984 55.17C82.7251 55.2167 82.8684 55.24 83.0284 55.24ZM85.7513 56V47.9H86.8213V56H85.7513ZM88.9765 56.08C88.7498 56.08 88.5498 56.0167 88.3765 55.89C88.2032 55.7567 88.0665 55.59 87.9665 55.39C87.8665 55.1833 87.8165 54.9667 87.8165 54.74C87.8165 54.38 87.8765 54.0767 87.9965 53.83C88.1165 53.5833 88.2798 53.3767 88.4865 53.21C88.6998 53.0367 88.9432 52.8867 89.2165 52.76C89.4965 52.6333 89.7898 52.51 90.0965 52.39V51.98C90.0965 51.7467 90.0832 51.5533 90.0565 51.4C90.0298 51.2467 89.9732 51.1333 89.8865 51.06C89.8065 50.98 89.6832 50.94 89.5165 50.94C89.3698 50.94 89.2498 50.9733 89.1565 51.04C89.0698 51.1067 89.0065 51.2033 88.9665 51.33C88.9265 51.45 88.9065 51.5933 88.9065 51.76V52.05L87.8465 52.01C87.8598 51.37 88.0065 50.9 88.2865 50.6C88.5665 50.2933 88.9998 50.14 89.5865 50.14C90.1598 50.14 90.5665 50.2967 90.8065 50.61C91.0465 50.9233 91.1665 51.3767 91.1665 51.97V54.61C91.1665 54.79 91.1698 54.9633 91.1765 55.13C91.1898 55.2967 91.2032 55.4533 91.2165 55.6C91.2365 55.74 91.2532 55.8733 91.2665 56H90.2865C90.2665 55.8933 90.2398 55.76 90.2065 55.6C90.1798 55.4333 90.1598 55.2833 90.1465 55.15C90.0798 55.3767 89.9498 55.59 89.7565 55.79C89.5698 55.9833 89.3098 56.08 88.9765 56.08ZM89.3965 55.16C89.5032 55.16 89.6032 55.13 89.6965 55.07C89.7898 55.01 89.8732 54.9433 89.9465 54.87C90.0198 54.79 90.0698 54.7267 90.0965 54.68V53.04C89.9298 53.1333 89.7732 53.2267 89.6265 53.32C89.4798 53.4133 89.3498 53.5133 89.2365 53.62C89.1298 53.72 89.0432 53.8367 88.9765 53.97C88.9165 54.0967 88.8865 54.2433 88.8865 54.41C88.8865 54.6433 88.9298 54.8267 89.0165 54.96C89.1032 55.0933 89.2298 55.16 89.3965 55.16ZM92.1043 57.45V56.63C92.3643 56.63 92.571 56.6167 92.7243 56.59C92.8776 56.57 92.9876 56.5267 93.0543 56.46C93.121 56.4 93.1543 56.3133 93.1543 56.2C93.1543 56.14 93.131 56.0067 93.0843 55.8C93.0376 55.5933 92.9876 55.3733 92.9343 55.14L91.7743 50.22H92.8543L93.6343 54.54L94.3843 50.22H95.4643L94.0843 56.32C94.0243 56.6 93.9143 56.82 93.7543 56.98C93.5943 57.1467 93.3876 57.2667 93.1343 57.34C92.8876 57.4133 92.5876 57.45 92.2343 57.45H92.1043ZM99.9855 56.08C99.5588 56.08 99.2221 55.9933 98.9755 55.82C98.7288 55.6467 98.5521 55.4 98.4455 55.08C98.3455 54.76 98.2955 54.3833 98.2955 53.95V52.27C98.2955 51.8367 98.3455 51.46 98.4455 51.14C98.5521 50.82 98.7288 50.5733 98.9755 50.4C99.2221 50.2267 99.5588 50.14 99.9855 50.14C100.412 50.14 100.745 50.2267 100.985 50.4C101.232 50.5733 101.405 50.82 101.505 51.14C101.612 51.46 101.665 51.8367 101.665 52.27V53.95C101.665 54.3833 101.612 54.76 101.505 55.08C101.405 55.4 101.232 55.6467 100.985 55.82C100.745 55.9933 100.412 56.08 99.9855 56.08ZM99.9855 55.29C100.192 55.29 100.335 55.23 100.415 55.11C100.502 54.99 100.552 54.8333 100.565 54.64C100.585 54.44 100.595 54.2333 100.595 54.02V52.21C100.595 51.99 100.585 51.7833 100.565 51.59C100.552 51.3967 100.502 51.24 100.415 51.12C100.335 50.9933 100.192 50.93 99.9855 50.93C99.7788 50.93 99.6321 50.9933 99.5455 51.12C99.4588 51.24 99.4055 51.3967 99.3855 51.59C99.3721 51.7833 99.3655 51.99 99.3655 52.21V54.02C99.3655 54.2333 99.3721 54.44 99.3855 54.64C99.4055 54.8333 99.4588 54.99 99.5455 55.11C99.6321 55.23 99.7788 55.29 99.9855 55.29ZM102.644 56V50.22H103.714V50.79C103.907 50.61 104.12 50.4567 104.354 50.33C104.587 50.2033 104.844 50.14 105.124 50.14C105.357 50.14 105.534 50.2 105.654 50.32C105.78 50.44 105.867 50.59 105.914 50.77C105.967 50.95 105.994 51.1333 105.994 51.32V56H104.924V51.63C104.924 51.4233 104.894 51.2633 104.834 51.15C104.774 51.0367 104.65 50.98 104.464 50.98C104.344 50.98 104.217 51.0167 104.084 51.09C103.957 51.1567 103.834 51.24 103.714 51.34V56H102.644ZM107.138 56V47.9H108.208V56H107.138ZM109.393 56V50.22H110.463V56H109.393ZM109.393 49.36V48.24H110.463V49.36H109.393ZM111.608 56V50.22H112.678V50.79C112.872 50.61 113.085 50.4567 113.318 50.33C113.552 50.2033 113.808 50.14 114.088 50.14C114.322 50.14 114.498 50.2 114.618 50.32C114.745 50.44 114.832 50.59 114.878 50.77C114.932 50.95 114.958 51.1333 114.958 51.32V56H113.888V51.63C113.888 51.4233 113.858 51.2633 113.798 51.15C113.738 51.0367 113.615 50.98 113.428 50.98C113.308 50.98 113.182 51.0167 113.048 51.09C112.922 51.1567 112.798 51.24 112.678 51.34V56H111.608ZM117.603 56.08C117.15 56.08 116.8 55.9933 116.553 55.82C116.306 55.64 116.133 55.38 116.033 55.04C115.94 54.6933 115.893 54.27 115.893 53.77V52.45C115.893 51.9367 115.943 51.51 116.043 51.17C116.143 50.83 116.316 50.5733 116.563 50.4C116.816 50.2267 117.163 50.14 117.603 50.14C118.09 50.14 118.446 50.24 118.673 50.44C118.906 50.64 119.06 50.93 119.133 51.31C119.206 51.6833 119.243 52.1333 119.243 52.66V53.13H116.963V54.29C116.963 54.5233 116.983 54.7133 117.023 54.86C117.07 55.0067 117.14 55.1167 117.233 55.19C117.333 55.2567 117.46 55.29 117.613 55.29C117.773 55.29 117.893 55.2533 117.973 55.18C118.06 55.1 118.116 54.99 118.143 54.85C118.176 54.7033 118.193 54.5333 118.193 54.34V53.99H119.233V54.21C119.233 54.79 119.11 55.2467 118.863 55.58C118.616 55.9133 118.196 56.08 117.603 56.08ZM116.963 52.55H118.193V52.03C118.193 51.79 118.18 51.59 118.153 51.43C118.126 51.2633 118.07 51.14 117.983 51.06C117.903 50.9733 117.773 50.93 117.593 50.93C117.42 50.93 117.286 50.97 117.193 51.05C117.106 51.13 117.046 51.2667 117.013 51.46C116.98 51.6467 116.963 51.9067 116.963 52.24V52.55ZM121.292 53.97V52.73C121.625 52.4367 121.925 52.1433 122.192 51.85C122.465 51.5567 122.682 51.2467 122.842 50.92C123.002 50.5933 123.082 50.2367 123.082 49.85C123.082 49.5367 122.999 49.2767 122.832 49.07C122.672 48.8633 122.435 48.76 122.122 48.76C121.855 48.76 121.642 48.8367 121.482 48.99C121.329 49.1433 121.252 49.34 121.252 49.58C121.252 49.6667 121.259 49.75 121.272 49.83C121.285 49.9033 121.302 49.9867 121.322 50.08L120.322 50.27C120.289 50.17 120.262 50.0667 120.242 49.96C120.222 49.8467 120.212 49.74 120.212 49.64C120.212 49.1067 120.379 48.6733 120.712 48.34C121.045 48 121.515 47.83 122.122 47.83C122.755 47.83 123.249 48.01 123.602 48.37C123.955 48.7233 124.132 49.2267 124.132 49.88C124.132 50.3267 124.049 50.73 123.882 51.09C123.715 51.45 123.489 51.7833 123.202 52.09C122.915 52.3967 122.595 52.7 122.242 53V53.97H121.292ZM121.242 56V54.9H122.312V56H121.242ZM129.53 56.09C128.983 56.09 128.547 55.9833 128.22 55.77C127.893 55.5567 127.66 55.2533 127.52 54.86C127.38 54.46 127.31 53.9933 127.31 53.46V50.39C127.31 49.8567 127.38 49.4 127.52 49.02C127.667 48.6333 127.9 48.34 128.22 48.14C128.547 47.9333 128.983 47.83 129.53 47.83C130.077 47.83 130.51 47.9333 130.83 48.14C131.15 48.3467 131.38 48.64 131.52 49.02C131.667 49.4 131.74 49.8567 131.74 50.39V53.47C131.74 53.9967 131.667 54.4567 131.52 54.85C131.38 55.2433 131.15 55.55 130.83 55.77C130.51 55.9833 130.077 56.09 129.53 56.09ZM129.53 55.2C129.83 55.2 130.057 55.14 130.21 55.02C130.363 54.8933 130.467 54.72 130.52 54.5C130.573 54.2733 130.6 54.01 130.6 53.71V50.16C130.6 49.86 130.573 49.6033 130.52 49.39C130.467 49.17 130.363 49.0033 130.21 48.89C130.057 48.77 129.83 48.71 129.53 48.71C129.23 48.71 129 48.77 128.84 48.89C128.687 49.0033 128.583 49.17 128.53 49.39C128.477 49.6033 128.45 49.86 128.45 50.16V53.71C128.45 54.01 128.477 54.2733 128.53 54.5C128.583 54.72 128.687 54.8933 128.84 55.02C129 55.14 129.23 55.2 129.53 55.2ZM133.101 56V51.01H132.411V50.22H133.101V49.92C133.101 49.56 133.127 49.2533 133.181 49C133.241 48.74 133.361 48.54 133.541 48.4C133.721 48.26 133.991 48.19 134.351 48.19C134.484 48.19 134.601 48.1967 134.701 48.21C134.807 48.2167 134.924 48.2333 135.051 48.26V49.04C134.991 49.0267 134.924 49.0167 134.851 49.01C134.777 48.9967 134.711 48.99 134.651 48.99C134.444 48.99 134.311 49.06 134.251 49.2C134.197 49.3333 134.171 49.5133 134.171 49.74V50.22H135.051V51.01H134.171V56H133.101ZM135.711 56V51.01H135.021V50.22H135.711V49.92C135.711 49.56 135.737 49.2533 135.791 49C135.851 48.74 135.971 48.54 136.151 48.4C136.331 48.26 136.601 48.19 136.961 48.19C137.094 48.19 137.211 48.1967 137.311 48.21C137.417 48.2167 137.534 48.2333 137.661 48.26V49.04C137.601 49.0267 137.534 49.0167 137.461 49.01C137.387 48.9967 137.321 48.99 137.261 48.99C137.054 48.99 136.921 49.06 136.861 49.2C136.807 49.3333 136.781 49.5133 136.781 49.74V50.22H137.661V51.01H136.781V56H135.711ZM139.839 56.08C139.386 56.08 139.036 55.9933 138.789 55.82C138.543 55.64 138.369 55.38 138.269 55.04C138.176 54.6933 138.129 54.27 138.129 53.77V52.45C138.129 51.9367 138.179 51.51 138.279 51.17C138.379 50.83 138.553 50.5733 138.799 50.4C139.053 50.2267 139.399 50.14 139.839 50.14C140.326 50.14 140.683 50.24 140.909 50.44C141.143 50.64 141.296 50.93 141.369 51.31C141.443 51.6833 141.479 52.1333 141.479 52.66V53.13H139.199V54.29C139.199 54.5233 139.219 54.7133 139.259 54.86C139.306 55.0067 139.376 55.1167 139.469 55.19C139.569 55.2567 139.696 55.29 139.849 55.29C140.009 55.29 140.129 55.2533 140.209 55.18C140.296 55.1 140.353 54.99 140.379 54.85C140.413 54.7033 140.429 54.5333 140.429 54.34V53.99H141.469V54.21C141.469 54.79 141.346 55.2467 141.099 55.58C140.853 55.9133 140.433 56.08 139.839 56.08ZM139.199 52.55H140.429V52.03C140.429 51.79 140.416 51.59 140.389 51.43C140.363 51.2633 140.306 51.14 140.219 51.06C140.139 50.9733 140.009 50.93 139.829 50.93C139.656 50.93 139.523 50.97 139.429 51.05C139.343 51.13 139.283 51.2667 139.249 51.46C139.216 51.6467 139.199 51.9067 139.199 52.24V52.55ZM142.478 56V50.22H143.548V51.04C143.762 50.6867 143.975 50.45 144.188 50.33C144.402 50.21 144.615 50.15 144.828 50.15C144.855 50.15 144.878 50.15 144.898 50.15C144.925 50.15 144.958 50.1533 144.998 50.16V51.34C144.918 51.3067 144.825 51.28 144.718 51.26C144.618 51.2333 144.515 51.22 144.408 51.22C144.242 51.22 144.088 51.26 143.948 51.34C143.815 51.4133 143.682 51.56 143.548 51.78V56H142.478ZM147.001 56.08C146.528 56.08 146.148 55.9333 145.861 55.64C145.574 55.34 145.411 54.9467 145.371 54.46L146.261 54.19C146.314 54.5567 146.404 54.8333 146.531 55.02C146.658 55.2 146.844 55.29 147.091 55.29C147.284 55.29 147.431 55.2367 147.531 55.13C147.631 55.0167 147.681 54.8667 147.681 54.68C147.681 54.5133 147.644 54.3633 147.571 54.23C147.498 54.0967 147.378 53.96 147.211 53.82L146.221 52.97C146.021 52.7967 145.851 52.6033 145.711 52.39C145.578 52.1767 145.511 51.9 145.511 51.56C145.511 51.2533 145.571 50.9967 145.691 50.79C145.818 50.5767 145.991 50.4167 146.211 50.31C146.438 50.1967 146.701 50.14 147.001 50.14C147.461 50.14 147.811 50.29 148.051 50.59C148.298 50.8833 148.438 51.24 148.471 51.66L147.751 51.93C147.724 51.73 147.684 51.5567 147.631 51.41C147.578 51.2567 147.504 51.14 147.411 51.06C147.318 50.9733 147.194 50.93 147.041 50.93C146.868 50.93 146.728 50.99 146.621 51.11C146.521 51.2233 146.471 51.36 146.471 51.52C146.471 51.62 146.491 51.72 146.531 51.82C146.578 51.9133 146.654 52.0067 146.761 52.1L147.781 53.04C147.921 53.1667 148.051 53.3033 148.171 53.45C148.298 53.5967 148.401 53.7633 148.481 53.95C148.561 54.1367 148.601 54.3533 148.601 54.6C148.601 54.9267 148.534 55.2 148.401 55.42C148.268 55.64 148.081 55.8067 147.841 55.92C147.601 56.0267 147.321 56.08 147.001 56.08ZM149.351 56V54.81H150.421V56H149.351ZM151.236 56V54.81H152.306V56H151.236ZM153.121 56V54.81H154.191V56H153.121Z"></path>
</svg>
