<svg xmlns="http://www.w3.org/2000/svg" fill="none" viewBox="0 0 29 39" height="39" width="29">
<rect fill="white" height="39" width="29"></rect>
<path stroke="#0D0E12" fill="#0D0E12" d="M22.3954 34.5L22.5 34.5458V38.5H6.5V34.5458L6.60459 34.5H22.3954Z"></path>
<path stroke="#0D0E12" fill="#A10000" d="M7.59375 24.125H21.4062L18.2188 31.5625L21.4062 33.6875H7.59375L10.7812 31.5625L7.59375 24.125Z"></path>
<mask height="10" width="15" y="24" x="7" maskUnits="userSpaceOnUse" style="mask-type:alpha" id="mask0_1477_423">
<path fill-opacity="0.6" fill="black" d="M7.59375 24.125H21.4062L18.2188 31.5625L21.4062 33.6875H7.59375L10.7812 31.5625L7.59375 24.125Z"></path>
</mask>
<g mask="url(#mask0_1477_423)">
<path fill-opacity="0.6" fill="black" d="M17.6875 26.25L19.2812 22L30.4375 34.2188L18.2188 42.7188L0.6875 36.875L3.34375 31.5625C4.40625 31.7396 7.4875 31.775 11.3125 30.5C15.1375 29.225 17.1562 27.1354 17.6875 26.25Z"></path>
</g>
<rect fill="white" height="3.1875" width="9.5625" y="34.75" x="9.71875"></rect>
<rect fill="black" height="1" width="2" y="36" x="11"></rect>
<rect fill="black" height="1" width="4" y="36" x="14"></rect>
<rect stroke-width="1.47368" stroke="#0D0E12" fill="#FF0000" rx="0.736842" height="13.2632" width="4.42105" y="9.89456" x="1.73684"></rect>
<path stroke-width="1.47368" stroke="#0D0E12" fill="#FF0000" d="M9.10525 9.89456H27.0193C27.5129 9.89456 27.8669 10.3704 27.7251 10.8431L24.1882 22.6326C24.0947 22.9443 23.8079 23.1577 23.4825 23.1577H9.84209C9.43515 23.1577 9.10525 22.8278 9.10525 22.4209V9.89456Z"></path>
<path stroke-width="1.47368" stroke="#0D0E12" fill="#FF0000" d="M16.6952 1.05252H17.2822C17.7406 1.05252 18.0878 1.46666 18.0077 1.91805L16.5929 9.89462H9.10525V9.43238L16.1381 1.30713C16.278 1.14543 16.4813 1.05252 16.6952 1.05252Z"></path>
<path fill="#FF0000" d="M9.84204 9.89459C9.84204 9.89459 10.5789 8.42091 12.0526 7.68407C13.5263 6.94723 15.9805 9.15775 15.9805 9.15775V11.5108L9.84204 13.5789V9.89459Z"></path>
<path fill="#0D0E12" d="M13.0956 19.104C12.6583 19.104 12.309 19.0187 12.0476 18.848C11.7863 18.672 11.5996 18.432 11.4876 18.128C11.3756 17.8187 11.3196 17.4667 11.3196 17.072C11.325 16.912 11.341 16.7573 11.3676 16.608C11.3996 16.4533 11.445 16.312 11.5036 16.184C11.5676 16.0507 11.645 15.936 11.7356 15.84C11.8316 15.7387 11.9436 15.656 12.0716 15.592C11.9063 15.4693 11.7596 15.2933 11.6316 15.064C11.5036 14.8293 11.4343 14.5333 11.4236 14.176C11.4183 13.8133 11.477 13.5013 11.5996 13.24C11.7276 12.9787 11.917 12.7787 12.1676 12.64C12.4183 12.5013 12.7276 12.432 13.0956 12.432C13.469 12.432 13.7783 12.504 14.0236 12.648C14.2743 12.7867 14.461 12.9867 14.5836 13.248C14.7063 13.504 14.7623 13.8133 14.7516 14.176C14.7463 14.5387 14.6823 14.8373 14.5596 15.072C14.437 15.3013 14.2903 15.4747 14.1196 15.592C14.2476 15.656 14.357 15.7387 14.4476 15.84C14.5436 15.936 14.621 16.0507 14.6796 16.184C14.7436 16.312 14.7916 16.4533 14.8236 16.608C14.8556 16.7573 14.8716 16.912 14.8716 17.072C14.8823 17.4667 14.829 17.8187 14.7116 18.128C14.5996 18.432 14.413 18.672 14.1516 18.848C13.8903 19.0187 13.5383 19.104 13.0956 19.104ZM13.0956 18.12C13.2396 18.12 13.3436 18.0667 13.4076 17.96C13.4716 17.8533 13.5116 17.728 13.5276 17.584C13.5436 17.4347 13.5516 17.2987 13.5516 17.176C13.557 17.0107 13.549 16.8507 13.5276 16.696C13.5116 16.5413 13.4716 16.416 13.4076 16.32C13.3436 16.2187 13.2396 16.168 13.0956 16.168C12.957 16.168 12.8556 16.2187 12.7916 16.32C12.7276 16.416 12.685 16.5413 12.6636 16.696C12.6476 16.8453 12.6396 17.0053 12.6396 17.176C12.6396 17.2987 12.6476 17.4347 12.6636 17.584C12.6796 17.7333 12.7196 17.8613 12.7836 17.968C12.853 18.0693 12.957 18.12 13.0956 18.12ZM13.0956 15.112C13.1863 15.112 13.261 15.0773 13.3196 15.008C13.3783 14.9333 13.421 14.824 13.4476 14.68C13.4796 14.536 13.4956 14.3573 13.4956 14.144C13.4956 13.9253 13.461 13.752 13.3916 13.624C13.3276 13.496 13.229 13.432 13.0956 13.432C12.9623 13.432 12.8583 13.496 12.7836 13.624C12.7143 13.752 12.6796 13.9227 12.6796 14.136C12.6796 14.3493 12.693 14.5307 12.7196 14.68C12.7516 14.824 12.7996 14.9333 12.8636 15.008C12.9276 15.0773 13.005 15.112 13.0956 15.112ZM17.3875 19.12C16.9982 19.12 16.6728 19.0427 16.4115 18.888C16.1502 18.728 15.9528 18.5093 15.8195 18.232C15.6862 17.9547 15.6195 17.632 15.6195 17.264V14.328C15.6195 13.9493 15.6808 13.6187 15.8035 13.336C15.9315 13.048 16.1262 12.824 16.3875 12.664C16.6488 12.504 16.9822 12.424 17.3875 12.424C17.7928 12.424 18.1235 12.504 18.3795 12.664C18.6408 12.824 18.8328 13.048 18.9555 13.336C19.0835 13.6187 19.1475 13.9493 19.1475 14.328V17.264C19.1475 17.6267 19.0808 17.9493 18.9475 18.232C18.8142 18.5093 18.6168 18.728 18.3555 18.888C18.0942 19.0427 17.7715 19.12 17.3875 19.12ZM17.3875 17.928C17.5155 17.928 17.6062 17.888 17.6595 17.808C17.7182 17.7227 17.7528 17.6267 17.7635 17.52C17.7795 17.408 17.7875 17.312 17.7875 17.232V14.36C17.7875 14.2693 17.7822 14.168 17.7715 14.056C17.7608 13.9387 17.7262 13.8373 17.6675 13.752C17.6142 13.6613 17.5208 13.616 17.3875 13.616C17.2542 13.616 17.1582 13.6613 17.0995 13.752C17.0462 13.8373 17.0142 13.9387 17.0035 14.056C16.9928 14.168 16.9875 14.2693 16.9875 14.36V17.232C16.9875 17.312 16.9955 17.408 17.0115 17.52C17.0275 17.6267 17.0622 17.7227 17.1155 17.808C17.1742 17.888 17.2648 17.928 17.3875 17.928ZM21.7859 19.12C21.3966 19.12 21.0713 19.0427 20.8099 18.888C20.5486 18.728 20.3513 18.5093 20.2179 18.232C20.0846 17.9547 20.0179 17.632 20.0179 17.264V14.328C20.0179 13.9493 20.0793 13.6187 20.2019 13.336C20.3299 13.048 20.5246 12.824 20.7859 12.664C21.0473 12.504 21.3806 12.424 21.7859 12.424C22.1913 12.424 22.5219 12.504 22.7779 12.664C23.0393 12.824 23.2313 13.048 23.3539 13.336C23.4819 13.6187 23.5459 13.9493 23.5459 14.328V17.264C23.5459 17.6267 23.4793 17.9493 23.3459 18.232C23.2126 18.5093 23.0153 18.728 22.7539 18.888C22.4926 19.0427 22.1699 19.12 21.7859 19.12ZM21.7859 17.928C21.9139 17.928 22.0046 17.888 22.0579 17.808C22.1166 17.7227 22.1513 17.6267 22.1619 17.52C22.1779 17.408 22.1859 17.312 22.1859 17.232V14.36C22.1859 14.2693 22.1806 14.168 22.1699 14.056C22.1593 13.9387 22.1246 13.8373 22.0659 13.752C22.0126 13.6613 21.9193 13.616 21.7859 13.616C21.6526 13.616 21.5566 13.6613 21.4979 13.752C21.4446 13.8373 21.4126 13.9387 21.4019 14.056C21.3913 14.168 21.3859 14.2693 21.3859 14.36V17.232C21.3859 17.312 21.3939 17.408 21.4099 17.52C21.4259 17.6267 21.4606 17.7227 21.5139 17.808C21.5726 17.888 21.6633 17.928 21.7859 17.928Z"></path>
<rect fill="#0D0E12" height="13" width="3" y="10" x="6"></rect>
<path fill="#0D0E12" d="M7 11H9V24H7V11Z"></path>
</svg>
