<svg xmlns="http://www.w3.org/2000/svg" fill="none" viewBox="0 0 90 40" height="40" width="90">
<rect fill="#0D0E12" height="40" width="90"></rect>
<path fill="white" d="M10.3039 25.18C9.62388 25.18 9.08788 25.052 8.69588 24.796C8.31188 24.54 8.03588 24.184 7.86788 23.728C7.70788 23.264 7.62788 22.732 7.62788 22.132V21.784H9.63188C9.63188 21.792 9.63188 21.836 9.63188 21.916C9.63188 21.996 9.63188 22.068 9.63188 22.132C9.63188 22.452 9.65188 22.712 9.69188 22.912C9.73188 23.112 9.80388 23.26 9.90788 23.356C10.0119 23.444 10.1559 23.488 10.3399 23.488C10.5239 23.488 10.6599 23.44 10.7479 23.344C10.8439 23.248 10.9079 23.104 10.9399 22.912C10.9719 22.72 10.9879 22.48 10.9879 22.192C10.9879 21.712 10.9199 21.348 10.7839 21.1C10.6559 20.844 10.3839 20.712 9.96788 20.704C9.95988 20.704 9.91588 20.704 9.83588 20.704C9.75588 20.704 9.67588 20.704 9.59588 20.704V19.324C9.65188 19.324 9.70788 19.324 9.76388 19.324C9.81988 19.324 9.87188 19.324 9.91988 19.324C10.3439 19.324 10.6279 19.208 10.7719 18.976C10.9159 18.744 10.9879 18.384 10.9879 17.896C10.9879 17.52 10.9359 17.232 10.8319 17.032C10.7359 16.832 10.5519 16.732 10.2799 16.732C10.0159 16.732 9.83988 16.844 9.75188 17.068C9.67188 17.292 9.63188 17.58 9.63188 17.932C9.63188 18.012 9.63188 18.096 9.63188 18.184C9.63188 18.264 9.63188 18.348 9.63188 18.436H7.62788V17.848C7.62788 17.264 7.73188 16.772 7.93988 16.372C8.15588 15.964 8.45988 15.656 8.85188 15.448C9.25188 15.24 9.72788 15.136 10.2799 15.136C10.8399 15.136 11.3199 15.236 11.7199 15.436C12.1199 15.636 12.4279 15.932 12.6439 16.324C12.8599 16.708 12.9679 17.188 12.9679 17.764C12.9679 18.332 12.8519 18.808 12.6199 19.192C12.3879 19.576 12.1079 19.812 11.7799 19.9C12.0039 19.98 12.2039 20.108 12.3799 20.284C12.5639 20.46 12.7079 20.7 12.8119 21.004C12.9159 21.3 12.9679 21.68 12.9679 22.144C12.9679 22.736 12.8799 23.26 12.7039 23.716C12.5359 24.172 12.2559 24.532 11.8639 24.796C11.4719 25.052 10.9519 25.18 10.3039 25.18ZM16.6359 25.18C16.0519 25.18 15.5639 25.064 15.1719 24.832C14.7799 24.592 14.4839 24.264 14.2839 23.848C14.0839 23.432 13.9839 22.948 13.9839 22.396V17.992C13.9839 17.424 14.0759 16.928 14.2599 16.504C14.4519 16.072 14.7439 15.736 15.1359 15.496C15.5279 15.256 16.0279 15.136 16.6359 15.136C17.2439 15.136 17.7399 15.256 18.1239 15.496C18.5159 15.736 18.8039 16.072 18.9879 16.504C19.1799 16.928 19.2759 17.424 19.2759 17.992V22.396C19.2759 22.94 19.1759 23.424 18.9759 23.848C18.7759 24.264 18.4799 24.592 18.0879 24.832C17.6959 25.064 17.2119 25.18 16.6359 25.18ZM16.6359 23.392C16.8279 23.392 16.9639 23.332 17.0439 23.212C17.1319 23.084 17.1839 22.94 17.1999 22.78C17.2239 22.612 17.2359 22.468 17.2359 22.348V18.04C17.2359 17.904 17.2279 17.752 17.2119 17.584C17.1959 17.408 17.1439 17.256 17.0559 17.128C16.9759 16.992 16.8359 16.924 16.6359 16.924C16.4359 16.924 16.2919 16.992 16.2039 17.128C16.1239 17.256 16.0759 17.408 16.0599 17.584C16.0439 17.752 16.0359 17.904 16.0359 18.04V22.348C16.0359 22.468 16.0479 22.612 16.0719 22.78C16.0959 22.94 16.1479 23.084 16.2279 23.212C16.3159 23.332 16.4519 23.392 16.6359 23.392ZM23.6159 25V18.064H25.5359V18.616C25.7919 18.368 26.0559 18.192 26.3279 18.088C26.6079 17.984 26.8919 17.932 27.1799 17.932C27.4599 17.932 27.6999 18.004 27.8999 18.148C28.1079 18.284 28.2639 18.488 28.3679 18.76C28.6399 18.456 28.9239 18.244 29.2199 18.124C29.5239 17.996 29.8279 17.932 30.1319 17.932C30.4039 17.932 30.6399 18 30.8399 18.136C31.0399 18.264 31.1959 18.456 31.3079 18.712C31.4199 18.96 31.4759 19.26 31.4759 19.612V25H29.5559V19.816C29.5559 19.624 29.5199 19.488 29.4479 19.408C29.3839 19.32 29.2839 19.276 29.1479 19.276C29.0679 19.276 28.9679 19.3 28.8479 19.348C28.7279 19.388 28.6119 19.448 28.4999 19.528C28.4999 19.544 28.4999 19.56 28.4999 19.576C28.4999 19.584 28.4999 19.596 28.4999 19.612V25H26.6039V19.816C26.6039 19.624 26.5679 19.488 26.4959 19.408C26.4239 19.32 26.3199 19.276 26.1839 19.276C26.0959 19.276 25.9919 19.3 25.8719 19.348C25.7599 19.388 25.6479 19.448 25.5359 19.528V25H23.6159ZM32.6631 25V18.064H34.6191V25H32.6631ZM32.6511 16.888V15.532H34.6191V16.888H32.6511ZM35.8268 25V18.064H37.7828V18.76C38.0388 18.504 38.3028 18.304 38.5748 18.16C38.8548 18.016 39.1468 17.944 39.4508 17.944C39.7388 17.944 39.9748 18.016 40.1588 18.16C40.3508 18.296 40.4948 18.488 40.5908 18.736C40.6868 18.976 40.7348 19.252 40.7348 19.564V25H38.7908V19.84C38.7908 19.672 38.7628 19.544 38.7068 19.456C38.6508 19.368 38.5468 19.324 38.3948 19.324C38.3148 19.324 38.2188 19.348 38.1068 19.396C38.0028 19.436 37.8948 19.496 37.7828 19.576V25H35.8268ZM41.8489 25V23.152H43.6969V25H41.8489ZM50.5969 25.18C50.0129 25.18 49.5249 25.064 49.1329 24.832C48.7409 24.592 48.4449 24.264 48.2449 23.848C48.0449 23.432 47.9449 22.948 47.9449 22.396V17.992C47.9449 17.424 48.0369 16.928 48.2209 16.504C48.4129 16.072 48.7049 15.736 49.0969 15.496C49.4889 15.256 49.9889 15.136 50.5969 15.136C51.2049 15.136 51.7009 15.256 52.0849 15.496C52.4769 15.736 52.7649 16.072 52.9489 16.504C53.1409 16.928 53.2369 17.424 53.2369 17.992V22.396C53.2369 22.94 53.1369 23.424 52.9369 23.848C52.7369 24.264 52.4409 24.592 52.0489 24.832C51.6569 25.064 51.1729 25.18 50.5969 25.18ZM50.5969 23.392C50.7889 23.392 50.9249 23.332 51.0049 23.212C51.0929 23.084 51.1449 22.94 51.1609 22.78C51.1849 22.612 51.1969 22.468 51.1969 22.348V18.04C51.1969 17.904 51.1889 17.752 51.1729 17.584C51.1569 17.408 51.1049 17.256 51.0169 17.128C50.9369 16.992 50.7969 16.924 50.5969 16.924C50.3969 16.924 50.2529 16.992 50.1649 17.128C50.0849 17.256 50.0369 17.408 50.0209 17.584C50.0049 17.752 49.9969 17.904 49.9969 18.04V22.348C49.9969 22.468 50.0089 22.612 50.0329 22.78C50.0569 22.94 50.1089 23.084 50.1889 23.212C50.2769 23.332 50.4129 23.392 50.5969 23.392ZM57.1945 25.18C56.6105 25.18 56.1225 25.064 55.7305 24.832C55.3385 24.592 55.0425 24.264 54.8425 23.848C54.6425 23.432 54.5425 22.948 54.5425 22.396V17.992C54.5425 17.424 54.6345 16.928 54.8185 16.504C55.0105 16.072 55.3025 15.736 55.6945 15.496C56.0865 15.256 56.5865 15.136 57.1945 15.136C57.8025 15.136 58.2985 15.256 58.6825 15.496C59.0745 15.736 59.3625 16.072 59.5465 16.504C59.7385 16.928 59.8345 17.424 59.8345 17.992V22.396C59.8345 22.94 59.7345 23.424 59.5345 23.848C59.3345 24.264 59.0385 24.592 58.6465 24.832C58.2545 25.064 57.7705 25.18 57.1945 25.18ZM57.1945 23.392C57.3865 23.392 57.5225 23.332 57.6025 23.212C57.6905 23.084 57.7425 22.94 57.7585 22.78C57.7825 22.612 57.7945 22.468 57.7945 22.348V18.04C57.7945 17.904 57.7865 17.752 57.7705 17.584C57.7545 17.408 57.7025 17.256 57.6145 17.128C57.5345 16.992 57.3945 16.924 57.1945 16.924C56.9945 16.924 56.8505 16.992 56.7625 17.128C56.6825 17.256 56.6345 17.408 56.6185 17.584C56.6025 17.752 56.5945 17.904 56.5945 18.04V22.348C56.5945 22.468 56.6065 22.612 56.6305 22.78C56.6545 22.94 56.7065 23.084 56.7865 23.212C56.8745 23.332 57.0105 23.392 57.1945 23.392ZM66.3105 25.12C65.7025 25.12 65.1945 24.984 64.7865 24.712C64.3865 24.44 64.0585 23.996 63.8025 23.38L65.1345 22.792C65.2625 23.104 65.4105 23.352 65.5785 23.536C65.7545 23.712 65.9465 23.8 66.1545 23.8C66.3065 23.8 66.4185 23.768 66.4905 23.704C66.5705 23.64 66.6105 23.552 66.6105 23.44C66.6105 23.256 66.5385 23.088 66.3945 22.936C66.2585 22.784 66.0105 22.56 65.6505 22.264L65.1465 21.844C64.7785 21.532 64.4865 21.232 64.2705 20.944C64.0625 20.648 63.9585 20.284 63.9585 19.852C63.9585 19.476 64.0545 19.144 64.2465 18.856C64.4465 18.568 64.7105 18.344 65.0385 18.184C65.3665 18.024 65.7185 17.944 66.0945 17.944C66.6625 17.944 67.1385 18.1 67.5225 18.412C67.9065 18.724 68.1745 19.164 68.3265 19.732L67.0665 20.308C67.0185 20.156 66.9505 20.004 66.8625 19.852C66.7745 19.7 66.6665 19.572 66.5385 19.468C66.4185 19.364 66.2865 19.312 66.1425 19.312C66.0145 19.312 65.9105 19.348 65.8305 19.42C65.7585 19.492 65.7225 19.588 65.7225 19.708C65.7225 19.86 65.8065 20.024 65.9745 20.2C66.1505 20.376 66.3905 20.588 66.6945 20.836L67.1865 21.268C67.3865 21.436 67.5825 21.616 67.7745 21.808C67.9665 22 68.1225 22.212 68.2425 22.444C68.3705 22.676 68.4345 22.94 68.4345 23.236C68.4345 23.636 68.3345 23.98 68.1345 24.268C67.9345 24.548 67.6705 24.76 67.3425 24.904C67.0225 25.048 66.6785 25.12 66.3105 25.12ZM71.5284 25.12C71.0244 25.12 70.5924 25.032 70.2324 24.856C69.8724 24.672 69.5964 24.408 69.4044 24.064C69.2124 23.712 69.1164 23.292 69.1164 22.804V20.26C69.1164 19.764 69.2124 19.344 69.4044 19C69.5964 18.656 69.8724 18.396 70.2324 18.22C70.6004 18.036 71.0324 17.944 71.5284 17.944C72.0404 17.944 72.4644 18.032 72.8004 18.208C73.1444 18.384 73.4004 18.644 73.5684 18.988C73.7444 19.332 73.8324 19.756 73.8324 20.26V21.652H71.0484V22.984C71.0484 23.16 71.0684 23.304 71.1084 23.416C71.1484 23.528 71.2044 23.608 71.2764 23.656C71.3484 23.704 71.4324 23.728 71.5284 23.728C71.6244 23.728 71.7084 23.708 71.7804 23.668C71.8604 23.62 71.9204 23.548 71.9604 23.452C72.0084 23.356 72.0324 23.224 72.0324 23.056V22.324H73.8324V22.996C73.8324 23.7 73.6284 24.232 73.2204 24.592C72.8124 24.944 72.2484 25.12 71.5284 25.12ZM71.0484 20.74H72.0324V20.044C72.0324 19.86 72.0084 19.716 71.9604 19.612C71.9204 19.508 71.8604 19.436 71.7804 19.396C71.7084 19.356 71.6204 19.336 71.5164 19.336C71.4204 19.336 71.3364 19.36 71.2644 19.408C71.2004 19.456 71.1484 19.54 71.1084 19.66C71.0684 19.772 71.0484 19.936 71.0484 20.152V20.74ZM77.1532 25.12C76.6492 25.12 76.2172 25.028 75.8572 24.844C75.5052 24.66 75.2332 24.396 75.0412 24.052C74.8492 23.708 74.7532 23.292 74.7532 22.804V20.26C74.7532 19.764 74.8492 19.344 75.0412 19C75.2332 18.656 75.5052 18.396 75.8572 18.22C76.2172 18.036 76.6492 17.944 77.1532 17.944C77.6492 17.944 78.0692 18.02 78.4132 18.172C78.7652 18.324 79.0332 18.556 79.2172 18.868C79.4012 19.172 79.4932 19.56 79.4932 20.032V20.764H77.6092V19.972C77.6092 19.788 77.5892 19.648 77.5492 19.552C77.5172 19.448 77.4652 19.376 77.3932 19.336C77.3292 19.296 77.2492 19.276 77.1532 19.276C77.0572 19.276 76.9772 19.304 76.9132 19.36C76.8492 19.408 76.8012 19.492 76.7692 19.612C76.7372 19.724 76.7212 19.884 76.7212 20.092V22.972C76.7212 23.284 76.7572 23.496 76.8292 23.608C76.9092 23.72 77.0212 23.776 77.1652 23.776C77.2692 23.776 77.3532 23.756 77.4172 23.716C77.4812 23.668 77.5292 23.596 77.5612 23.5C77.5932 23.396 77.6092 23.26 77.6092 23.092V22.168H79.4932V23.008C79.4932 23.472 79.3972 23.864 79.2052 24.184C79.0212 24.496 78.7532 24.732 78.4012 24.892C78.0572 25.044 77.6412 25.12 77.1532 25.12ZM80.4504 25V23.152H82.2984V25H80.4504Z"></path>
<circle fill="#33FF00" r="3" cy="6" cx="84"></circle>
</svg>
