<svg xmlns="http://www.w3.org/2000/svg" fill="none" viewBox="0 0 214 84" height="84" width="214">
<mask fill="white" id="path-1-inside-1_1605_6">
<path d="M0 0H214V84H0V0Z"></path>
</mask>
<path fill="#0D0E12" d="M0 0H214V84H0V0Z"></path>
<path mask="url(#path-1-inside-1_1605_6)" fill="white" d="M0 0V-1H-1V0H0ZM0 84H-1V85H0V84ZM0 1H214V-1H0V1ZM214 83H0V85H214V83ZM1 84V0H-1V84H1Z"></path>
<path fill="white" d="M16.684 38L16.852 28.28H19.156L20.224 33.932L21.376 28.28H23.596L23.764 38H22.24L22.06 31.532L20.932 38H19.576L18.376 31.484L18.232 38H16.684ZM25.1692 38V28.28H29.5372V29.744H27.3172V32.156H29.0092V33.644H27.3172V36.548H29.5612V38H25.1692ZM33.1164 38.144C32.5084 38.144 32.0004 38.036 31.5924 37.82C31.1844 37.604 30.8764 37.272 30.6684 36.824C30.4604 36.368 30.3444 35.78 30.3204 35.06L32.1564 34.784C32.1644 35.2 32.2004 35.536 32.2644 35.792C32.3364 36.048 32.4324 36.232 32.5524 36.344C32.6804 36.456 32.8324 36.512 33.0084 36.512C33.2324 36.512 33.3764 36.436 33.4404 36.284C33.5124 36.132 33.5484 35.972 33.5484 35.804C33.5484 35.404 33.4524 35.068 33.2604 34.796C33.0684 34.516 32.8084 34.236 32.4804 33.956L31.6404 33.224C31.2724 32.912 30.9604 32.56 30.7044 32.168C30.4564 31.768 30.3324 31.276 30.3324 30.692C30.3324 29.868 30.5764 29.24 31.0644 28.808C31.5524 28.368 32.2164 28.148 33.0564 28.148C33.5764 28.148 33.9924 28.236 34.3044 28.412C34.6244 28.588 34.8644 28.82 35.0244 29.108C35.1924 29.388 35.3044 29.688 35.3604 30.008C35.4244 30.32 35.4604 30.62 35.4684 30.908L33.6204 31.136C33.6124 30.848 33.5924 30.6 33.5604 30.392C33.5364 30.176 33.4804 30.012 33.3924 29.9C33.3044 29.78 33.1684 29.72 32.9844 29.72C32.7844 29.72 32.6364 29.804 32.5404 29.972C32.4524 30.14 32.4084 30.308 32.4084 30.476C32.4084 30.836 32.4924 31.132 32.6604 31.364C32.8364 31.588 33.0644 31.824 33.3444 32.072L34.1484 32.78C34.5724 33.14 34.9284 33.548 35.2164 34.004C35.5124 34.46 35.6604 35.024 35.6604 35.696C35.6604 36.152 35.5564 36.568 35.3484 36.944C35.1404 37.312 34.8444 37.604 34.4604 37.82C34.0844 38.036 33.6364 38.144 33.1164 38.144ZM39.093 38.144C38.485 38.144 37.977 38.036 37.569 37.82C37.161 37.604 36.853 37.272 36.645 36.824C36.437 36.368 36.321 35.78 36.297 35.06L38.133 34.784C38.141 35.2 38.177 35.536 38.241 35.792C38.313 36.048 38.409 36.232 38.529 36.344C38.657 36.456 38.809 36.512 38.985 36.512C39.209 36.512 39.353 36.436 39.417 36.284C39.489 36.132 39.525 35.972 39.525 35.804C39.525 35.404 39.429 35.068 39.237 34.796C39.045 34.516 38.785 34.236 38.457 33.956L37.617 33.224C37.249 32.912 36.937 32.56 36.681 32.168C36.433 31.768 36.309 31.276 36.309 30.692C36.309 29.868 36.553 29.24 37.041 28.808C37.529 28.368 38.193 28.148 39.033 28.148C39.553 28.148 39.969 28.236 40.281 28.412C40.601 28.588 40.841 28.82 41.001 29.108C41.169 29.388 41.281 29.688 41.337 30.008C41.401 30.32 41.437 30.62 41.445 30.908L39.597 31.136C39.589 30.848 39.569 30.6 39.537 30.392C39.513 30.176 39.457 30.012 39.369 29.9C39.281 29.78 39.145 29.72 38.961 29.72C38.761 29.72 38.613 29.804 38.517 29.972C38.429 30.14 38.385 30.308 38.385 30.476C38.385 30.836 38.469 31.132 38.637 31.364C38.813 31.588 39.041 31.824 39.321 32.072L40.125 32.78C40.549 33.14 40.905 33.548 41.193 34.004C41.489 34.46 41.637 35.024 41.637 35.696C41.637 36.152 41.533 36.568 41.325 36.944C41.117 37.312 40.821 37.604 40.437 37.82C40.061 38.036 39.613 38.144 39.093 38.144ZM42.1153 38L43.9513 28.28H46.3993L48.2113 38H46.2313L45.9073 35.948H44.4793L44.1433 38H42.1153ZM44.6713 34.664H45.7033L45.1873 30.872L44.6713 34.664ZM51.5723 38.144C50.9003 38.144 50.3683 38.004 49.9763 37.724C49.5923 37.444 49.3163 37.052 49.1483 36.548C48.9883 36.036 48.9083 35.448 48.9083 34.784V31.52C48.9083 30.832 48.9963 30.236 49.1723 29.732C49.3483 29.228 49.6483 28.84 50.0723 28.568C50.5043 28.288 51.0883 28.148 51.8243 28.148C52.5443 28.148 53.1083 28.268 53.5163 28.508C53.9323 28.748 54.2283 29.08 54.4043 29.504C54.5803 29.928 54.6683 30.424 54.6683 30.992V31.616H52.5683V30.824C52.5683 30.616 52.5523 30.424 52.5203 30.248C52.4963 30.072 52.4323 29.932 52.3283 29.828C52.2323 29.716 52.0723 29.66 51.8483 29.66C51.6163 29.66 51.4483 29.724 51.3443 29.852C51.2403 29.972 51.1723 30.124 51.1403 30.308C51.1163 30.492 51.1043 30.684 51.1043 30.884V35.384C51.1043 35.6 51.1243 35.804 51.1643 35.996C51.2123 36.18 51.2923 36.332 51.4043 36.452C51.5243 36.564 51.6923 36.62 51.9083 36.62C52.1323 36.62 52.3043 36.56 52.4243 36.44C52.5443 36.32 52.6283 36.164 52.6763 35.972C52.7243 35.78 52.7483 35.576 52.7483 35.36V34.22H51.8723V32.96H54.6803V38H53.2643L53.1443 37.196C53.0163 37.468 52.8283 37.696 52.5803 37.88C52.3323 38.056 51.9963 38.144 51.5723 38.144ZM56.0247 38V28.28H60.3927V29.744H58.1727V32.156H59.8647V33.644H58.1727V36.548H60.4167V38H56.0247Z"></path>
<path fill="white" d="M16.63 56V47.9H17.4L19.7 53.28V47.9H20.64V56H19.92L17.59 50.47V56H16.63ZM23.4132 56.08C22.9865 56.08 22.6499 55.9933 22.4032 55.82C22.1565 55.6467 21.9799 55.4 21.8732 55.08C21.7732 54.76 21.7232 54.3833 21.7232 53.95V52.27C21.7232 51.8367 21.7732 51.46 21.8732 51.14C21.9799 50.82 22.1565 50.5733 22.4032 50.4C22.6499 50.2267 22.9865 50.14 23.4132 50.14C23.8399 50.14 24.1732 50.2267 24.4132 50.4C24.6599 50.5733 24.8332 50.82 24.9332 51.14C25.0399 51.46 25.0932 51.8367 25.0932 52.27V53.95C25.0932 54.3833 25.0399 54.76 24.9332 55.08C24.8332 55.4 24.6599 55.6467 24.4132 55.82C24.1732 55.9933 23.8399 56.08 23.4132 56.08ZM23.4132 55.29C23.6199 55.29 23.7632 55.23 23.8432 55.11C23.9299 54.99 23.9799 54.8333 23.9932 54.64C24.0132 54.44 24.0232 54.2333 24.0232 54.02V52.21C24.0232 51.99 24.0132 51.7833 23.9932 51.59C23.9799 51.3967 23.9299 51.24 23.8432 51.12C23.7632 50.9933 23.6199 50.93 23.4132 50.93C23.2065 50.93 23.0599 50.9933 22.9732 51.12C22.8865 51.24 22.8332 51.3967 22.8132 51.59C22.7999 51.7833 22.7932 51.99 22.7932 52.21V54.02C22.7932 54.2333 22.7999 54.44 22.8132 54.64C22.8332 54.8333 22.8865 54.99 22.9732 55.11C23.0599 55.23 23.2065 55.29 23.4132 55.29ZM29.9464 56.08C29.5197 56.08 29.1831 55.9933 28.9364 55.82C28.6897 55.6467 28.5131 55.4 28.4064 55.08C28.3064 54.76 28.2564 54.3833 28.2564 53.95V52.27C28.2564 51.8367 28.3064 51.46 28.4064 51.14C28.5131 50.82 28.6897 50.5733 28.9364 50.4C29.1831 50.2267 29.5197 50.14 29.9464 50.14C30.3731 50.14 30.7064 50.2267 30.9464 50.4C31.1931 50.5733 31.3664 50.82 31.4664 51.14C31.5731 51.46 31.6264 51.8367 31.6264 52.27V53.95C31.6264 54.3833 31.5731 54.76 31.4664 55.08C31.3664 55.4 31.1931 55.6467 30.9464 55.82C30.7064 55.9933 30.3731 56.08 29.9464 56.08ZM29.9464 55.29C30.1531 55.29 30.2964 55.23 30.3764 55.11C30.4631 54.99 30.5131 54.8333 30.5264 54.64C30.5464 54.44 30.5564 54.2333 30.5564 54.02V52.21C30.5564 51.99 30.5464 51.7833 30.5264 51.59C30.5131 51.3967 30.4631 51.24 30.3764 51.12C30.2964 50.9933 30.1531 50.93 29.9464 50.93C29.7397 50.93 29.5931 50.9933 29.5064 51.12C29.4197 51.24 29.3664 51.3967 29.3464 51.59C29.3331 51.7833 29.3264 51.99 29.3264 52.21V54.02C29.3264 54.2333 29.3331 54.44 29.3464 54.64C29.3664 54.8333 29.4197 54.99 29.5064 55.11C29.5931 55.23 29.7397 55.29 29.9464 55.29ZM32.6045 56V50.22H33.6745V50.79C33.8678 50.61 34.0811 50.4567 34.3145 50.33C34.5478 50.2033 34.8045 50.14 35.0845 50.14C35.3178 50.14 35.4945 50.2 35.6145 50.32C35.7411 50.44 35.8278 50.59 35.8745 50.77C35.9278 50.95 35.9545 51.1333 35.9545 51.32V56H34.8845V51.63C34.8845 51.4233 34.8545 51.2633 34.7945 51.15C34.7345 51.0367 34.6111 50.98 34.4245 50.98C34.3045 50.98 34.1778 51.0167 34.0445 51.09C33.9178 51.1567 33.7945 51.24 33.6745 51.34V56H32.6045ZM38.599 56.08C38.1457 56.08 37.7957 55.9933 37.549 55.82C37.3023 55.64 37.129 55.38 37.029 55.04C36.9357 54.6933 36.889 54.27 36.889 53.77V52.45C36.889 51.9367 36.939 51.51 37.039 51.17C37.139 50.83 37.3123 50.5733 37.559 50.4C37.8123 50.2267 38.159 50.14 38.599 50.14C39.0857 50.14 39.4423 50.24 39.669 50.44C39.9023 50.64 40.0557 50.93 40.129 51.31C40.2023 51.6833 40.239 52.1333 40.239 52.66V53.13H37.959V54.29C37.959 54.5233 37.979 54.7133 38.019 54.86C38.0657 55.0067 38.1357 55.1167 38.229 55.19C38.329 55.2567 38.4557 55.29 38.609 55.29C38.769 55.29 38.889 55.2533 38.969 55.18C39.0557 55.1 39.1123 54.99 39.139 54.85C39.1723 54.7033 39.189 54.5333 39.189 54.34V53.99H40.229V54.21C40.229 54.79 40.1057 55.2467 39.859 55.58C39.6123 55.9133 39.1923 56.08 38.599 56.08ZM37.959 52.55H39.189V52.03C39.189 51.79 39.1757 51.59 39.149 51.43C39.1223 51.2633 39.0657 51.14 38.979 51.06C38.899 50.9733 38.769 50.93 38.589 50.93C38.4157 50.93 38.2823 50.97 38.189 51.05C38.1023 51.13 38.0423 51.2667 38.009 51.46C37.9757 51.6467 37.959 51.9067 37.959 52.24V52.55ZM43.5631 56V50.22H44.6331V56H43.5631ZM43.5631 49.36V48.24H44.6331V49.36H43.5631ZM47.1183 56.08C46.6449 56.08 46.2649 55.9333 45.9783 55.64C45.6916 55.34 45.5283 54.9467 45.4883 54.46L46.3783 54.19C46.4316 54.5567 46.5216 54.8333 46.6483 55.02C46.7749 55.2 46.9616 55.29 47.2083 55.29C47.4016 55.29 47.5483 55.2367 47.6483 55.13C47.7483 55.0167 47.7983 54.8667 47.7983 54.68C47.7983 54.5133 47.7616 54.3633 47.6883 54.23C47.6149 54.0967 47.4949 53.96 47.3283 53.82L46.3383 52.97C46.1383 52.7967 45.9683 52.6033 45.8283 52.39C45.6949 52.1767 45.6283 51.9 45.6283 51.56C45.6283 51.2533 45.6883 50.9967 45.8083 50.79C45.9349 50.5767 46.1083 50.4167 46.3283 50.31C46.5549 50.1967 46.8183 50.14 47.1183 50.14C47.5783 50.14 47.9283 50.29 48.1683 50.59C48.4149 50.8833 48.5549 51.24 48.5883 51.66L47.8683 51.93C47.8416 51.73 47.8016 51.5567 47.7483 51.41C47.6949 51.2567 47.6216 51.14 47.5283 51.06C47.4349 50.9733 47.3116 50.93 47.1583 50.93C46.9849 50.93 46.8449 50.99 46.7383 51.11C46.6383 51.2233 46.5883 51.36 46.5883 51.52C46.5883 51.62 46.6083 51.72 46.6483 51.82C46.6949 51.9133 46.7716 52.0067 46.8783 52.1L47.8983 53.04C48.0383 53.1667 48.1683 53.3033 48.2883 53.45C48.4149 53.5967 48.5183 53.7633 48.5983 53.95C48.6783 54.1367 48.7183 54.3533 48.7183 54.6C48.7183 54.9267 48.6516 55.2 48.5183 55.42C48.3849 55.64 48.1983 55.8067 47.9583 55.92C47.7183 56.0267 47.4383 56.08 47.1183 56.08ZM51.8037 57.9V50.22H52.8737V50.68C53.0003 50.5333 53.1537 50.4067 53.3337 50.3C53.5137 50.1933 53.727 50.14 53.9737 50.14C54.2737 50.14 54.5103 50.22 54.6837 50.38C54.8637 50.5333 54.997 50.73 55.0837 50.97C55.1703 51.2033 55.227 51.4433 55.2537 51.69C55.2803 51.93 55.2937 52.1367 55.2937 52.31V53.71C55.2937 54.1167 55.2537 54.5033 55.1737 54.87C55.0937 55.23 54.947 55.5233 54.7337 55.75C54.527 55.97 54.2337 56.08 53.8537 56.08C53.647 56.08 53.4637 56.03 53.3037 55.93C53.1437 55.8233 53.0003 55.7033 52.8737 55.57V57.9H51.8037ZM53.6437 55.24C53.8303 55.24 53.9637 55.1733 54.0437 55.04C54.1237 54.9 54.1737 54.7133 54.1937 54.48C54.2137 54.2467 54.2237 53.99 54.2237 53.71V52.31C54.2237 52.07 54.2103 51.85 54.1837 51.65C54.157 51.4433 54.1003 51.28 54.0137 51.16C53.927 51.04 53.7903 50.98 53.6037 50.98C53.4637 50.98 53.3303 51.01 53.2037 51.07C53.077 51.13 52.967 51.2 52.8737 51.28V54.98C52.9737 55.0533 53.087 55.1167 53.2137 55.17C53.3403 55.2167 53.4837 55.24 53.6437 55.24ZM56.3666 56V47.9H57.4366V56H56.3666ZM59.5917 56.08C59.3651 56.08 59.1651 56.0167 58.9917 55.89C58.8184 55.7567 58.6817 55.59 58.5817 55.39C58.4817 55.1833 58.4317 54.9667 58.4317 54.74C58.4317 54.38 58.4917 54.0767 58.6117 53.83C58.7317 53.5833 58.8951 53.3767 59.1017 53.21C59.3151 53.0367 59.5584 52.8867 59.8317 52.76C60.1117 52.6333 60.4051 52.51 60.7117 52.39V51.98C60.7117 51.7467 60.6984 51.5533 60.6717 51.4C60.6451 51.2467 60.5884 51.1333 60.5017 51.06C60.4217 50.98 60.2984 50.94 60.1317 50.94C59.9851 50.94 59.8651 50.9733 59.7717 51.04C59.6851 51.1067 59.6217 51.2033 59.5817 51.33C59.5417 51.45 59.5217 51.5933 59.5217 51.76V52.05L58.4617 52.01C58.4751 51.37 58.6217 50.9 58.9017 50.6C59.1817 50.2933 59.6151 50.14 60.2017 50.14C60.7751 50.14 61.1817 50.2967 61.4217 50.61C61.6617 50.9233 61.7817 51.3767 61.7817 51.97V54.61C61.7817 54.79 61.7851 54.9633 61.7917 55.13C61.8051 55.2967 61.8184 55.4533 61.8317 55.6C61.8517 55.74 61.8684 55.8733 61.8817 56H60.9017C60.8817 55.8933 60.8551 55.76 60.8217 55.6C60.7951 55.4333 60.7751 55.2833 60.7617 55.15C60.6951 55.3767 60.5651 55.59 60.3717 55.79C60.1851 55.9833 59.9251 56.08 59.5917 56.08ZM60.0117 55.16C60.1184 55.16 60.2184 55.13 60.3117 55.07C60.4051 55.01 60.4884 54.9433 60.5617 54.87C60.6351 54.79 60.6851 54.7267 60.7117 54.68V53.04C60.5451 53.1333 60.3884 53.2267 60.2417 53.32C60.0951 53.4133 59.9651 53.5133 59.8517 53.62C59.7451 53.72 59.6584 53.8367 59.5917 53.97C59.5317 54.0967 59.5017 54.2433 59.5017 54.41C59.5017 54.6433 59.5451 54.8267 59.6317 54.96C59.7184 55.0933 59.8451 55.16 60.0117 55.16ZM62.7195 57.45V56.63C62.9795 56.63 63.1862 56.6167 63.3395 56.59C63.4929 56.57 63.6029 56.5267 63.6695 56.46C63.7362 56.4 63.7695 56.3133 63.7695 56.2C63.7695 56.14 63.7462 56.0067 63.6995 55.8C63.6529 55.5933 63.6029 55.3733 63.5495 55.14L62.3895 50.22H63.4695L64.2495 54.54L64.9995 50.22H66.0795L64.6995 56.32C64.6395 56.6 64.5295 56.82 64.3695 56.98C64.2095 57.1467 64.0029 57.2667 63.7495 57.34C63.5029 57.4133 63.2029 57.45 62.8495 57.45H62.7195ZM66.7955 56V50.22H67.8655V56H66.7955ZM66.7955 49.36V48.24H67.8655V49.36H66.7955ZM69.0107 56V50.22H70.0807V50.79C70.274 50.61 70.4874 50.4567 70.7207 50.33C70.954 50.2033 71.2107 50.14 71.4907 50.14C71.724 50.14 71.9007 50.2 72.0207 50.32C72.1474 50.44 72.234 50.59 72.2807 50.77C72.334 50.95 72.3607 51.1333 72.3607 51.32V56H71.2907V51.63C71.2907 51.4233 71.2607 51.2633 71.2007 51.15C71.1407 51.0367 71.0174 50.98 70.8307 50.98C70.7107 50.98 70.584 51.0167 70.4507 51.09C70.324 51.1567 70.2007 51.24 70.0807 51.34V56H69.0107ZM74.9052 57.79C74.5586 57.79 74.2452 57.7533 73.9652 57.68C73.6852 57.6067 73.4652 57.49 73.3052 57.33C73.1452 57.17 73.0652 56.96 73.0652 56.7C73.0652 56.5133 73.1052 56.35 73.1852 56.21C73.2652 56.07 73.3686 55.95 73.4952 55.85C73.6219 55.7433 73.7552 55.6567 73.8952 55.59C73.7086 55.5367 73.5686 55.4533 73.4752 55.34C73.3819 55.22 73.3352 55.0967 73.3352 54.97C73.3352 54.7567 73.3919 54.5733 73.5052 54.42C73.6186 54.2667 73.7752 54.1 73.9752 53.92C73.7552 53.7533 73.5886 53.54 73.4752 53.28C73.3619 53.02 73.3052 52.66 73.3052 52.2C73.3052 51.7467 73.3652 51.37 73.4852 51.07C73.6119 50.7633 73.7952 50.5333 74.0352 50.38C74.2819 50.22 74.5819 50.14 74.9352 50.14C75.2486 50.14 75.4986 50.1933 75.6852 50.3C75.8786 50.4067 76.0252 50.5667 76.1252 50.78C76.1586 50.7267 76.2486 50.6367 76.3952 50.51C76.5419 50.3767 76.7119 50.2667 76.9052 50.18L77.0652 50.11L77.3352 50.8C77.2486 50.8133 77.1319 50.8467 76.9852 50.9C76.8452 50.9467 76.7119 50.9967 76.5852 51.05C76.4652 51.0967 76.3886 51.1367 76.3552 51.17C76.4019 51.2833 76.4419 51.4467 76.4752 51.66C76.5152 51.8733 76.5352 52.0633 76.5352 52.23C76.5352 52.6233 76.4852 52.97 76.3852 53.27C76.2852 53.57 76.1186 53.8067 75.8852 53.98C75.6586 54.1467 75.3419 54.23 74.9352 54.23C74.8486 54.23 74.7552 54.2233 74.6552 54.21C74.5552 54.1967 74.4652 54.18 74.3852 54.16C74.3452 54.22 74.3019 54.29 74.2552 54.37C74.2152 54.45 74.1952 54.5267 74.1952 54.6C74.1952 54.6733 74.2319 54.7333 74.3052 54.78C74.3852 54.82 74.5086 54.8467 74.6752 54.86L75.5752 54.94C76.0286 54.98 76.3652 55.1167 76.5852 55.35C76.8052 55.5833 76.9152 55.9167 76.9152 56.35C76.9152 56.6633 76.8419 56.9267 76.6952 57.14C76.5486 57.36 76.3252 57.5233 76.0252 57.63C75.7319 57.7367 75.3586 57.79 74.9052 57.79ZM74.9852 56.95C75.3652 56.95 75.6452 56.9033 75.8252 56.81C76.0052 56.7233 76.0952 56.58 76.0952 56.38C76.0952 56.26 76.0719 56.16 76.0252 56.08C75.9852 56 75.9086 55.9367 75.7952 55.89C75.6819 55.8433 75.5186 55.81 75.3052 55.79L74.3952 55.71C74.3219 55.7833 74.2519 55.8567 74.1852 55.93C74.1186 56.0033 74.0652 56.08 74.0252 56.16C73.9852 56.2467 73.9652 56.3367 73.9652 56.43C73.9652 56.6033 74.0386 56.7333 74.1852 56.82C74.3319 56.9067 74.5986 56.95 74.9852 56.95ZM74.9352 53.48C75.0886 53.48 75.2086 53.4533 75.2952 53.4C75.3886 53.34 75.4586 53.2567 75.5052 53.15C75.5519 53.0367 75.5819 52.9 75.5952 52.74C75.6152 52.58 75.6252 52.4 75.6252 52.2C75.6252 52 75.6152 51.82 75.5952 51.66C75.5819 51.4933 75.5519 51.3533 75.5052 51.24C75.4652 51.12 75.3986 51.03 75.3052 50.97C75.2186 50.91 75.0986 50.88 74.9452 50.88C74.7986 50.88 74.6752 50.91 74.5752 50.97C74.4819 51.03 74.4119 51.1167 74.3652 51.23C74.3186 51.3367 74.2852 51.4733 74.2652 51.64C74.2452 51.8 74.2352 51.9867 74.2352 52.2C74.2352 52.38 74.2419 52.55 74.2552 52.71C74.2752 52.8633 74.3086 52.9967 74.3552 53.11C74.4086 53.2233 74.4819 53.3133 74.5752 53.38C74.6686 53.4467 74.7886 53.48 74.9352 53.48ZM80.0661 56V50.22H81.1361V51.04C81.3494 50.6867 81.5628 50.45 81.7761 50.33C81.9894 50.21 82.2028 50.15 82.4161 50.15C82.4428 50.15 82.4661 50.15 82.4861 50.15C82.5128 50.15 82.5461 50.1533 82.5861 50.16V51.34C82.5061 51.3067 82.4128 51.28 82.3061 51.26C82.2061 51.2333 82.1028 51.22 81.9961 51.22C81.8294 51.22 81.6761 51.26 81.5361 51.34C81.4028 51.4133 81.2694 51.56 81.1361 51.78V56H80.0661ZM83.319 56V50.22H84.389V56H83.319ZM83.319 49.36V48.24H84.389V49.36H83.319ZM87.0341 57.79C86.6875 57.79 86.3741 57.7533 86.0941 57.68C85.8141 57.6067 85.5941 57.49 85.4341 57.33C85.2741 57.17 85.1941 56.96 85.1941 56.7C85.1941 56.5133 85.2341 56.35 85.3141 56.21C85.3941 56.07 85.4975 55.95 85.6241 55.85C85.7508 55.7433 85.8841 55.6567 86.0241 55.59C85.8375 55.5367 85.6975 55.4533 85.6041 55.34C85.5108 55.22 85.4641 55.0967 85.4641 54.97C85.4641 54.7567 85.5208 54.5733 85.6341 54.42C85.7475 54.2667 85.9041 54.1 86.1041 53.92C85.8841 53.7533 85.7175 53.54 85.6041 53.28C85.4908 53.02 85.4341 52.66 85.4341 52.2C85.4341 51.7467 85.4941 51.37 85.6141 51.07C85.7408 50.7633 85.9241 50.5333 86.1641 50.38C86.4108 50.22 86.7108 50.14 87.0641 50.14C87.3775 50.14 87.6275 50.1933 87.8141 50.3C88.0075 50.4067 88.1541 50.5667 88.2541 50.78C88.2875 50.7267 88.3775 50.6367 88.5241 50.51C88.6708 50.3767 88.8408 50.2667 89.0341 50.18L89.1941 50.11L89.4641 50.8C89.3775 50.8133 89.2608 50.8467 89.1141 50.9C88.9741 50.9467 88.8408 50.9967 88.7141 51.05C88.5941 51.0967 88.5175 51.1367 88.4841 51.17C88.5308 51.2833 88.5708 51.4467 88.6041 51.66C88.6441 51.8733 88.6641 52.0633 88.6641 52.23C88.6641 52.6233 88.6141 52.97 88.5141 53.27C88.4141 53.57 88.2475 53.8067 88.0141 53.98C87.7875 54.1467 87.4708 54.23 87.0641 54.23C86.9775 54.23 86.8841 54.2233 86.7841 54.21C86.6841 54.1967 86.5941 54.18 86.5141 54.16C86.4741 54.22 86.4308 54.29 86.3841 54.37C86.3441 54.45 86.3241 54.5267 86.3241 54.6C86.3241 54.6733 86.3608 54.7333 86.4341 54.78C86.5141 54.82 86.6375 54.8467 86.8041 54.86L87.7041 54.94C88.1575 54.98 88.4941 55.1167 88.7141 55.35C88.9341 55.5833 89.0441 55.9167 89.0441 56.35C89.0441 56.6633 88.9708 56.9267 88.8241 57.14C88.6775 57.36 88.4541 57.5233 88.1541 57.63C87.8608 57.7367 87.4875 57.79 87.0341 57.79ZM87.1141 56.95C87.4941 56.95 87.7741 56.9033 87.9541 56.81C88.1341 56.7233 88.2241 56.58 88.2241 56.38C88.2241 56.26 88.2008 56.16 88.1541 56.08C88.1141 56 88.0375 55.9367 87.9241 55.89C87.8108 55.8433 87.6475 55.81 87.4341 55.79L86.5241 55.71C86.4508 55.7833 86.3808 55.8567 86.3141 55.93C86.2475 56.0033 86.1941 56.08 86.1541 56.16C86.1141 56.2467 86.0941 56.3367 86.0941 56.43C86.0941 56.6033 86.1675 56.7333 86.3141 56.82C86.4608 56.9067 86.7275 56.95 87.1141 56.95ZM87.0641 53.48C87.2175 53.48 87.3375 53.4533 87.4241 53.4C87.5175 53.34 87.5875 53.2567 87.6341 53.15C87.6808 53.0367 87.7108 52.9 87.7241 52.74C87.7441 52.58 87.7541 52.4 87.7541 52.2C87.7541 52 87.7441 51.82 87.7241 51.66C87.7108 51.4933 87.6808 51.3533 87.6341 51.24C87.5941 51.12 87.5275 51.03 87.4341 50.97C87.3475 50.91 87.2275 50.88 87.0741 50.88C86.9275 50.88 86.8041 50.91 86.7041 50.97C86.6108 51.03 86.5408 51.1167 86.4941 51.23C86.4475 51.3367 86.4141 51.4733 86.3941 51.64C86.3741 51.8 86.3641 51.9867 86.3641 52.2C86.3641 52.38 86.3708 52.55 86.3841 52.71C86.4041 52.8633 86.4375 52.9967 86.4841 53.11C86.5375 53.2233 86.6108 53.3133 86.7041 53.38C86.7975 53.4467 86.9175 53.48 87.0641 53.48ZM89.9098 56V47.9H90.9798V50.82C91.1732 50.6333 91.3898 50.4733 91.6298 50.34C91.8698 50.2067 92.1365 50.14 92.4298 50.14C92.6565 50.14 92.8298 50.2 92.9498 50.32C93.0765 50.44 93.1632 50.59 93.2098 50.77C93.2632 50.95 93.2898 51.1333 93.2898 51.32V56H92.2198V51.63C92.2198 51.4233 92.1898 51.2633 92.1298 51.15C92.0698 51.0367 91.9465 50.98 91.7598 50.98C91.6332 50.98 91.4998 51.0167 91.3598 51.09C91.2265 51.1633 91.0998 51.2533 90.9798 51.36V56H89.9098ZM95.873 56.08C95.573 56.08 95.3296 56.0233 95.143 55.91C94.963 55.7967 94.8296 55.6367 94.743 55.43C94.663 55.2233 94.623 54.98 94.623 54.7V50.93H94.013V50.22H94.623V48.53H95.693V50.22H96.623V50.93H95.693V54.63C95.693 54.8567 95.7296 55.02 95.803 55.12C95.8763 55.2133 96.0163 55.26 96.223 55.26C96.2763 55.26 96.3363 55.2567 96.403 55.25C96.4763 55.2433 96.5463 55.2367 96.613 55.23V56.02C96.4796 56.04 96.3563 56.0533 96.243 56.06C96.1296 56.0733 96.0063 56.08 95.873 56.08ZM99.6943 56V50.22H100.764V50.79C100.958 50.61 101.171 50.4567 101.404 50.33C101.638 50.2033 101.894 50.14 102.174 50.14C102.408 50.14 102.584 50.2 102.704 50.32C102.831 50.44 102.918 50.59 102.964 50.77C103.018 50.95 103.044 51.1333 103.044 51.32V56H101.974V51.63C101.974 51.4233 101.944 51.2633 101.884 51.15C101.824 51.0367 101.701 50.98 101.514 50.98C101.394 50.98 101.268 51.0167 101.134 51.09C101.008 51.1567 100.884 51.24 100.764 51.34V56H99.6943ZM105.679 56.08C105.252 56.08 104.915 55.9933 104.669 55.82C104.422 55.6467 104.245 55.4 104.139 55.08C104.039 54.76 103.989 54.3833 103.989 53.95V52.27C103.989 51.8367 104.039 51.46 104.139 51.14C104.245 50.82 104.422 50.5733 104.669 50.4C104.915 50.2267 105.252 50.14 105.679 50.14C106.105 50.14 106.439 50.2267 106.679 50.4C106.925 50.5733 107.099 50.82 107.199 51.14C107.305 51.46 107.359 51.8367 107.359 52.27V53.95C107.359 54.3833 107.305 54.76 107.199 55.08C107.099 55.4 106.925 55.6467 106.679 55.82C106.439 55.9933 106.105 56.08 105.679 56.08ZM105.679 55.29C105.885 55.29 106.029 55.23 106.109 55.11C106.195 54.99 106.245 54.8333 106.259 54.64C106.279 54.44 106.289 54.2333 106.289 54.02V52.21C106.289 51.99 106.279 51.7833 106.259 51.59C106.245 51.3967 106.195 51.24 106.109 51.12C106.029 50.9933 105.885 50.93 105.679 50.93C105.472 50.93 105.325 50.9933 105.239 51.12C105.152 51.24 105.099 51.3967 105.079 51.59C105.065 51.7833 105.059 51.99 105.059 52.21V54.02C105.059 54.2333 105.065 54.44 105.079 54.64C105.099 54.8333 105.152 54.99 105.239 55.11C105.325 55.23 105.472 55.29 105.679 55.29ZM108.929 56L107.999 50.22H108.879L109.479 54.48L110.249 50.22H111.069L111.839 54.46L112.439 50.22H113.319L112.359 56H111.459L110.669 51.92L109.889 56H108.929ZM114.088 56V54.81H115.158V56H114.088ZM115.972 56V54.81H117.042V56H115.972ZM117.857 56V54.81H118.927V56H117.857Z"></path>
</svg>
