<svg xmlns="http://www.w3.org/2000/svg" fill="none" viewBox="0 0 13 18" height="18" width="13">
<rect fill-opacity="0.01" fill="#0D0E12" height="18" width="13"></rect>
<path fill="white" d="M3.312 14.144C2.68 14.144 2.164 14.008 1.764 13.736C1.372 13.456 1.084 13.076 0.9 12.596C0.716 12.116 0.624 11.568 0.624 10.952V7.436C0.624 6.804 0.696 6.24 0.84 5.744C0.992 5.248 1.26 4.86 1.644 4.58C2.028 4.292 2.58 4.148 3.3 4.148C3.924 4.148 4.416 4.244 4.776 4.436C5.136 4.628 5.392 4.908 5.544 5.276C5.696 5.644 5.772 6.1 5.772 6.644C5.772 6.676 5.772 6.708 5.772 6.74C5.78 6.764 5.784 6.788 5.784 6.812H3.9C3.9 6.42 3.868 6.132 3.804 5.948C3.748 5.756 3.584 5.66 3.312 5.66C3.128 5.66 2.988 5.716 2.892 5.828C2.804 5.94 2.744 6.136 2.712 6.416C2.68 6.696 2.664 7.088 2.664 7.592V8.456C2.76 8.288 2.916 8.16 3.132 8.072C3.348 7.976 3.592 7.924 3.864 7.916C4.376 7.9 4.784 8.016 5.088 8.264C5.4 8.512 5.624 8.852 5.76 9.284C5.896 9.708 5.964 10.184 5.964 10.712C5.964 11.392 5.884 11.992 5.724 12.512C5.564 13.024 5.292 13.424 4.908 13.712C4.524 14 3.992 14.144 3.312 14.144ZM3.336 12.668C3.52 12.668 3.652 12.608 3.732 12.488C3.82 12.36 3.876 12.176 3.9 11.936C3.932 11.688 3.948 11.384 3.948 11.024C3.948 10.704 3.936 10.428 3.912 10.196C3.896 9.964 3.844 9.784 3.756 9.656C3.668 9.52 3.52 9.452 3.312 9.452C3.216 9.452 3.124 9.472 3.036 9.512C2.948 9.552 2.872 9.604 2.808 9.668C2.744 9.724 2.696 9.78 2.664 9.836V11.42C2.664 11.636 2.68 11.84 2.712 12.032C2.752 12.224 2.82 12.38 2.916 12.5C3.02 12.612 3.16 12.668 3.336 12.668ZM9.44841 14.144C8.82441 14.144 8.33241 14.048 7.97241 13.856C7.61241 13.664 7.35641 13.384 7.20441 13.016C7.05241 12.64 6.97641 12.18 6.97641 11.636C6.97641 11.612 6.97641 11.588 6.97641 11.564C6.97641 11.532 6.97641 11.504 6.97641 11.48H8.84841C8.84841 11.872 8.88041 12.164 8.94441 12.356C9.01641 12.54 9.18841 12.632 9.46041 12.632C9.64441 12.632 9.78041 12.576 9.86841 12.464C9.95641 12.352 10.0124 12.156 10.0364 11.876C10.0684 11.588 10.0844 11.196 10.0844 10.7V9.836C9.98041 10.004 9.82041 10.132 9.60441 10.22C9.39641 10.308 9.16041 10.36 8.89641 10.376C8.38441 10.384 7.97241 10.256 7.66041 9.992C7.34841 9.728 7.12441 9.372 6.98841 8.924C6.85241 8.476 6.78441 7.988 6.78441 7.46C6.78441 6.78 6.86841 6.196 7.03641 5.708C7.21241 5.212 7.49641 4.828 7.88841 4.556C8.28041 4.284 8.80041 4.148 9.44841 4.148C10.0884 4.148 10.6044 4.276 10.9964 4.532C11.3884 4.788 11.6724 5.148 11.8484 5.612C12.0324 6.068 12.1244 6.608 12.1244 7.232V10.856C12.1244 11.488 12.0484 12.052 11.8964 12.548C11.7524 13.044 11.4884 13.436 11.1044 13.724C10.7204 14.004 10.1684 14.144 9.44841 14.144ZM9.47241 8.84C9.63241 8.84 9.76041 8.796 9.85641 8.708C9.95241 8.62 10.0284 8.536 10.0844 8.456V6.872C10.0844 6.648 10.0684 6.444 10.0364 6.26C10.0044 6.068 9.94441 5.916 9.85641 5.804C9.76841 5.684 9.63241 5.624 9.44841 5.624C9.27241 5.624 9.14041 5.688 9.05241 5.816C8.96441 5.936 8.90441 6.12 8.87241 6.368C8.84841 6.608 8.83641 6.908 8.83641 7.268C8.83641 7.58 8.84441 7.856 8.86041 8.096C8.88441 8.328 8.94041 8.512 9.02841 8.648C9.11641 8.776 9.26441 8.84 9.47241 8.84Z"></path>
</svg>
