<svg xmlns="http://www.w3.org/2000/svg" fill="none" viewBox="0 0 90 40" height="40" width="90">
<rect fill="#0D0E12" height="40" width="90"></rect>
<path fill="white" d="M10.3374 25.144C9.70539 25.144 9.18939 25.008 8.78939 24.736C8.39739 24.456 8.10939 24.076 7.92539 23.596C7.74139 23.116 7.64939 22.568 7.64939 21.952V18.436C7.64939 17.804 7.72139 17.24 7.86539 16.744C8.01739 16.248 8.28539 15.86 8.66939 15.58C9.05339 15.292 9.60539 15.148 10.3254 15.148C10.9494 15.148 11.4414 15.244 11.8014 15.436C12.1614 15.628 12.4174 15.908 12.5694 16.276C12.7214 16.644 12.7974 17.1 12.7974 17.644C12.7974 17.676 12.7974 17.708 12.7974 17.74C12.8054 17.764 12.8094 17.788 12.8094 17.812H10.9254C10.9254 17.42 10.8934 17.132 10.8294 16.948C10.7734 16.756 10.6094 16.66 10.3374 16.66C10.1534 16.66 10.0134 16.716 9.91739 16.828C9.82939 16.94 9.76939 17.136 9.73739 17.416C9.70539 17.696 9.68939 18.088 9.68939 18.592V19.456C9.78539 19.288 9.94139 19.16 10.1574 19.072C10.3734 18.976 10.6174 18.924 10.8894 18.916C11.4014 18.9 11.8094 19.016 12.1134 19.264C12.4254 19.512 12.6494 19.852 12.7854 20.284C12.9214 20.708 12.9894 21.184 12.9894 21.712C12.9894 22.392 12.9094 22.992 12.7494 23.512C12.5894 24.024 12.3174 24.424 11.9334 24.712C11.5494 25 11.0174 25.144 10.3374 25.144ZM10.3614 23.668C10.5454 23.668 10.6774 23.608 10.7574 23.488C10.8454 23.36 10.9014 23.176 10.9254 22.936C10.9574 22.688 10.9734 22.384 10.9734 22.024C10.9734 21.704 10.9614 21.428 10.9374 21.196C10.9214 20.964 10.8694 20.784 10.7814 20.656C10.6934 20.52 10.5454 20.452 10.3374 20.452C10.2414 20.452 10.1494 20.472 10.0614 20.512C9.97339 20.552 9.89739 20.604 9.83339 20.668C9.76939 20.724 9.72139 20.78 9.68939 20.836V22.42C9.68939 22.636 9.70539 22.84 9.73739 23.032C9.77739 23.224 9.84539 23.38 9.94139 23.5C10.0454 23.612 10.1854 23.668 10.3614 23.668ZM16.7824 25.18C16.1984 25.18 15.7104 25.064 15.3184 24.832C14.9264 24.592 14.6304 24.264 14.4304 23.848C14.2304 23.432 14.1304 22.948 14.1304 22.396V17.992C14.1304 17.424 14.2224 16.928 14.4064 16.504C14.5984 16.072 14.8904 15.736 15.2824 15.496C15.6744 15.256 16.1744 15.136 16.7824 15.136C17.3904 15.136 17.8864 15.256 18.2704 15.496C18.6624 15.736 18.9504 16.072 19.1344 16.504C19.3264 16.928 19.4224 17.424 19.4224 17.992V22.396C19.4224 22.94 19.3224 23.424 19.1224 23.848C18.9224 24.264 18.6264 24.592 18.2344 24.832C17.8424 25.064 17.3584 25.18 16.7824 25.18ZM16.7824 23.392C16.9744 23.392 17.1104 23.332 17.1904 23.212C17.2784 23.084 17.3304 22.94 17.3464 22.78C17.3704 22.612 17.3824 22.468 17.3824 22.348V18.04C17.3824 17.904 17.3744 17.752 17.3584 17.584C17.3424 17.408 17.2904 17.256 17.2024 17.128C17.1224 16.992 16.9824 16.924 16.7824 16.924C16.5824 16.924 16.4384 16.992 16.3504 17.128C16.2704 17.256 16.2224 17.408 16.2064 17.584C16.1904 17.752 16.1824 17.904 16.1824 18.04V22.348C16.1824 22.468 16.1944 22.612 16.2184 22.78C16.2424 22.94 16.2944 23.084 16.3744 23.212C16.4624 23.332 16.5984 23.392 16.7824 23.392ZM23.7624 25V18.064H25.6824V18.616C25.9384 18.368 26.2024 18.192 26.4744 18.088C26.7544 17.984 27.0384 17.932 27.3264 17.932C27.6064 17.932 27.8464 18.004 28.0464 18.148C28.2544 18.284 28.4104 18.488 28.5144 18.76C28.7864 18.456 29.0704 18.244 29.3664 18.124C29.6704 17.996 29.9744 17.932 30.2784 17.932C30.5504 17.932 30.7864 18 30.9864 18.136C31.1864 18.264 31.3424 18.456 31.4544 18.712C31.5664 18.96 31.6224 19.26 31.6224 19.612V25H29.7024V19.816C29.7024 19.624 29.6664 19.488 29.5944 19.408C29.5304 19.32 29.4304 19.276 29.2944 19.276C29.2144 19.276 29.1144 19.3 28.9944 19.348C28.8744 19.388 28.7584 19.448 28.6464 19.528C28.6464 19.544 28.6464 19.56 28.6464 19.576C28.6464 19.584 28.6464 19.596 28.6464 19.612V25H26.7504V19.816C26.7504 19.624 26.7144 19.488 26.6424 19.408C26.5704 19.32 26.4664 19.276 26.3304 19.276C26.2424 19.276 26.1384 19.3 26.0184 19.348C25.9064 19.388 25.7944 19.448 25.6824 19.528V25H23.7624ZM32.8095 25V18.064H34.7655V25H32.8095ZM32.7975 16.888V15.532H34.7655V16.888H32.7975ZM35.9733 25V18.064H37.9293V18.76C38.1853 18.504 38.4493 18.304 38.7213 18.16C39.0013 18.016 39.2933 17.944 39.5973 17.944C39.8853 17.944 40.1213 18.016 40.3053 18.16C40.4973 18.296 40.6413 18.488 40.7373 18.736C40.8333 18.976 40.8813 19.252 40.8813 19.564V25H38.9373V19.84C38.9373 19.672 38.9093 19.544 38.8533 19.456C38.7973 19.368 38.6933 19.324 38.5413 19.324C38.4613 19.324 38.3653 19.348 38.2533 19.396C38.1493 19.436 38.0413 19.496 37.9293 19.576V25H35.9733ZM41.9954 25V23.152H43.8434V25H41.9954ZM50.7434 25.18C50.1594 25.18 49.6714 25.064 49.2794 24.832C48.8874 24.592 48.5914 24.264 48.3914 23.848C48.1914 23.432 48.0914 22.948 48.0914 22.396V17.992C48.0914 17.424 48.1834 16.928 48.3674 16.504C48.5594 16.072 48.8514 15.736 49.2434 15.496C49.6354 15.256 50.1354 15.136 50.7434 15.136C51.3514 15.136 51.8474 15.256 52.2314 15.496C52.6234 15.736 52.9114 16.072 53.0954 16.504C53.2874 16.928 53.3834 17.424 53.3834 17.992V22.396C53.3834 22.94 53.2834 23.424 53.0834 23.848C52.8834 24.264 52.5874 24.592 52.1954 24.832C51.8034 25.064 51.3194 25.18 50.7434 25.18ZM50.7434 23.392C50.9354 23.392 51.0714 23.332 51.1514 23.212C51.2394 23.084 51.2914 22.94 51.3074 22.78C51.3314 22.612 51.3434 22.468 51.3434 22.348V18.04C51.3434 17.904 51.3354 17.752 51.3194 17.584C51.3034 17.408 51.2514 17.256 51.1634 17.128C51.0834 16.992 50.9434 16.924 50.7434 16.924C50.5434 16.924 50.3994 16.992 50.3114 17.128C50.2314 17.256 50.1834 17.408 50.1674 17.584C50.1514 17.752 50.1434 17.904 50.1434 18.04V22.348C50.1434 22.468 50.1554 22.612 50.1794 22.78C50.2034 22.94 50.2554 23.084 50.3354 23.212C50.4234 23.332 50.5594 23.392 50.7434 23.392ZM57.341 25.18C56.757 25.18 56.269 25.064 55.877 24.832C55.485 24.592 55.189 24.264 54.989 23.848C54.789 23.432 54.689 22.948 54.689 22.396V17.992C54.689 17.424 54.781 16.928 54.965 16.504C55.157 16.072 55.449 15.736 55.841 15.496C56.233 15.256 56.733 15.136 57.341 15.136C57.949 15.136 58.445 15.256 58.829 15.496C59.221 15.736 59.509 16.072 59.693 16.504C59.885 16.928 59.981 17.424 59.981 17.992V22.396C59.981 22.94 59.881 23.424 59.681 23.848C59.481 24.264 59.185 24.592 58.793 24.832C58.401 25.064 57.917 25.18 57.341 25.18ZM57.341 23.392C57.533 23.392 57.669 23.332 57.749 23.212C57.837 23.084 57.889 22.94 57.905 22.78C57.929 22.612 57.941 22.468 57.941 22.348V18.04C57.941 17.904 57.933 17.752 57.917 17.584C57.901 17.408 57.849 17.256 57.761 17.128C57.681 16.992 57.541 16.924 57.341 16.924C57.141 16.924 56.997 16.992 56.909 17.128C56.829 17.256 56.781 17.408 56.765 17.584C56.749 17.752 56.741 17.904 56.741 18.04V22.348C56.741 22.468 56.753 22.612 56.777 22.78C56.801 22.94 56.853 23.084 56.933 23.212C57.021 23.332 57.157 23.392 57.341 23.392ZM66.457 25.12C65.849 25.12 65.341 24.984 64.933 24.712C64.533 24.44 64.205 23.996 63.949 23.38L65.281 22.792C65.409 23.104 65.557 23.352 65.725 23.536C65.901 23.712 66.093 23.8 66.301 23.8C66.453 23.8 66.565 23.768 66.637 23.704C66.717 23.64 66.757 23.552 66.757 23.44C66.757 23.256 66.685 23.088 66.541 22.936C66.405 22.784 66.157 22.56 65.797 22.264L65.293 21.844C64.925 21.532 64.633 21.232 64.417 20.944C64.209 20.648 64.105 20.284 64.105 19.852C64.105 19.476 64.201 19.144 64.393 18.856C64.593 18.568 64.857 18.344 65.185 18.184C65.513 18.024 65.865 17.944 66.241 17.944C66.809 17.944 67.285 18.1 67.669 18.412C68.053 18.724 68.321 19.164 68.473 19.732L67.213 20.308C67.165 20.156 67.097 20.004 67.009 19.852C66.921 19.7 66.813 19.572 66.685 19.468C66.565 19.364 66.433 19.312 66.289 19.312C66.161 19.312 66.057 19.348 65.977 19.42C65.905 19.492 65.869 19.588 65.869 19.708C65.869 19.86 65.953 20.024 66.121 20.2C66.297 20.376 66.537 20.588 66.841 20.836L67.333 21.268C67.533 21.436 67.729 21.616 67.921 21.808C68.113 22 68.269 22.212 68.389 22.444C68.517 22.676 68.581 22.94 68.581 23.236C68.581 23.636 68.481 23.98 68.281 24.268C68.081 24.548 67.817 24.76 67.489 24.904C67.169 25.048 66.825 25.12 66.457 25.12ZM71.6749 25.12C71.1709 25.12 70.7389 25.032 70.3789 24.856C70.0189 24.672 69.7429 24.408 69.5509 24.064C69.3589 23.712 69.2629 23.292 69.2629 22.804V20.26C69.2629 19.764 69.3589 19.344 69.5509 19C69.7429 18.656 70.0189 18.396 70.3789 18.22C70.7469 18.036 71.1789 17.944 71.6749 17.944C72.1869 17.944 72.6109 18.032 72.9469 18.208C73.2909 18.384 73.5469 18.644 73.7149 18.988C73.8909 19.332 73.9789 19.756 73.9789 20.26V21.652H71.1949V22.984C71.1949 23.16 71.2149 23.304 71.2549 23.416C71.2949 23.528 71.3509 23.608 71.4229 23.656C71.4949 23.704 71.5789 23.728 71.6749 23.728C71.7709 23.728 71.8549 23.708 71.9269 23.668C72.0069 23.62 72.0669 23.548 72.1069 23.452C72.1549 23.356 72.1789 23.224 72.1789 23.056V22.324H73.9789V22.996C73.9789 23.7 73.7749 24.232 73.3669 24.592C72.9589 24.944 72.3949 25.12 71.6749 25.12ZM71.1949 20.74H72.1789V20.044C72.1789 19.86 72.1549 19.716 72.1069 19.612C72.0669 19.508 72.0069 19.436 71.9269 19.396C71.8549 19.356 71.7669 19.336 71.6629 19.336C71.5669 19.336 71.4829 19.36 71.4109 19.408C71.3469 19.456 71.2949 19.54 71.2549 19.66C71.2149 19.772 71.1949 19.936 71.1949 20.152V20.74ZM77.2996 25.12C76.7956 25.12 76.3636 25.028 76.0036 24.844C75.6516 24.66 75.3796 24.396 75.1876 24.052C74.9956 23.708 74.8996 23.292 74.8996 22.804V20.26C74.8996 19.764 74.9956 19.344 75.1876 19C75.3796 18.656 75.6516 18.396 76.0036 18.22C76.3636 18.036 76.7956 17.944 77.2996 17.944C77.7956 17.944 78.2156 18.02 78.5596 18.172C78.9116 18.324 79.1796 18.556 79.3636 18.868C79.5476 19.172 79.6396 19.56 79.6396 20.032V20.764H77.7556V19.972C77.7556 19.788 77.7356 19.648 77.6956 19.552C77.6636 19.448 77.6116 19.376 77.5396 19.336C77.4756 19.296 77.3956 19.276 77.2996 19.276C77.2036 19.276 77.1236 19.304 77.0596 19.36C76.9956 19.408 76.9476 19.492 76.9156 19.612C76.8836 19.724 76.8676 19.884 76.8676 20.092V22.972C76.8676 23.284 76.9036 23.496 76.9756 23.608C77.0556 23.72 77.1676 23.776 77.3116 23.776C77.4156 23.776 77.4996 23.756 77.5636 23.716C77.6276 23.668 77.6756 23.596 77.7076 23.5C77.7396 23.396 77.7556 23.26 77.7556 23.092V22.168H79.6396V23.008C79.6396 23.472 79.5436 23.864 79.3516 24.184C79.1676 24.496 78.8996 24.732 78.5476 24.892C78.2036 25.044 77.7876 25.12 77.2996 25.12ZM80.5969 25V23.152H82.4449V25H80.5969Z"></path>
<circle fill="#33FF00" r="3" cy="6" cx="84"></circle>
</svg>
