<svg xmlns="http://www.w3.org/2000/svg" fill="none" viewBox="0 0 104 22" height="22" width="104">
<rect stroke="#0D0E12" fill="#0D0E12" height="21" width="103" y="0.5" x="0.5"></rect>
<path fill="white" d="M41.83 15.1C41.2367 15.1 40.77 15 40.43 14.8C40.09 14.6 39.85 14.3233 39.71 13.97C39.57 13.6167 39.5 13.2133 39.5 12.76V12.33H41.25V12.86C41.25 13.02 41.2567 13.1767 41.27 13.33C41.29 13.4767 41.34 13.5967 41.42 13.69C41.5067 13.7833 41.6433 13.83 41.83 13.83C42.0167 13.83 42.1533 13.7833 42.24 13.69C42.3267 13.59 42.38 13.4633 42.4 13.31C42.4267 13.15 42.44 12.9867 42.44 12.82V11.4H41.1V10.5H42.44V9.02C42.44 8.83333 42.4233 8.66667 42.39 8.52C42.3633 8.36667 42.3067 8.24667 42.22 8.16C42.1333 8.07333 42.0033 8.03 41.83 8.03C41.6433 8.03 41.51 8.08 41.43 8.18C41.35 8.27333 41.3 8.39667 41.28 8.55C41.26 8.69667 41.25 8.85333 41.25 9.02V9.58H39.5V9.18C39.5 8.72 39.5667 8.30667 39.7 7.94C39.84 7.57333 40.08 7.28667 40.42 7.08C40.76 6.86667 41.23 6.76 41.83 6.76C42.45 6.76 42.9367 6.87333 43.29 7.1C43.6433 7.32 43.8933 7.63333 44.04 8.04C44.1867 8.44 44.26 8.91667 44.26 9.47V12.38C44.26 12.94 44.1867 13.4233 44.04 13.83C43.8933 14.2367 43.6433 14.55 43.29 14.77C42.9367 14.99 42.45 15.1 41.83 15.1ZM45.382 15V6.9H47.172V10.11H47.352L48.542 6.9H50.322L48.842 10.7L50.372 15H48.532L47.352 11.47H47.172V15H45.382ZM53.3946 15.12C52.7813 15.12 52.2946 15.01 51.9346 14.79C51.5813 14.5633 51.3313 14.25 51.1846 13.85C51.0379 13.4433 50.9646 12.9667 50.9646 12.42V9.5C50.9646 8.94 51.0379 8.46 51.1846 8.06C51.3313 7.65333 51.5813 7.34 51.9346 7.12C52.2946 6.9 52.7813 6.79 53.3946 6.79C53.9946 6.79 54.4613 6.89 54.7946 7.09C55.1346 7.28333 55.3746 7.55667 55.5146 7.91C55.6546 8.26333 55.7246 8.67 55.7246 9.13V9.83H53.9746V9.02C53.9746 8.86 53.9646 8.70667 53.9446 8.56C53.9313 8.41333 53.8846 8.29333 53.8046 8.2C53.7246 8.1 53.5879 8.05 53.3946 8.05C53.2079 8.05 53.0679 8.1 52.9746 8.2C52.8879 8.3 52.8313 8.42667 52.8046 8.58C52.7846 8.72667 52.7746 8.88333 52.7746 9.05V12.86C52.7746 13.04 52.7879 13.2067 52.8146 13.36C52.8479 13.5067 52.9079 13.6267 52.9946 13.72C53.0879 13.8067 53.2213 13.85 53.3946 13.85C53.5813 13.85 53.7146 13.8033 53.7946 13.71C53.8746 13.61 53.9246 13.4833 53.9446 13.33C53.9646 13.1767 53.9746 13.02 53.9746 12.86V12.01H55.7246V12.71C55.7246 13.17 55.6546 13.5833 55.5146 13.95C55.3813 14.31 55.1446 14.5967 54.8046 14.81C54.4713 15.0167 54.0013 15.12 53.3946 15.12ZM56.7094 15V6.9H61.5594V15H59.7994V8.18H58.4694V15H56.7094ZM65.0841 15.12C64.4774 15.12 63.9974 15.0133 63.6441 14.8C63.2907 14.5867 63.0374 14.28 62.8841 13.88C62.7307 13.48 62.6541 13.0033 62.6541 12.45V9.44C62.6541 8.88 62.7307 8.40333 62.8841 8.01C63.0374 7.61667 63.2907 7.31667 63.6441 7.11C63.9974 6.89667 64.4774 6.79 65.0841 6.79C65.6974 6.79 66.1807 6.89667 66.5341 7.11C66.8941 7.31667 67.1507 7.61667 67.3041 8.01C67.4574 8.40333 67.5341 8.88 67.5341 9.44V12.45C67.5341 13.0033 67.4574 13.48 67.3041 13.88C67.1507 14.28 66.8941 14.5867 66.5341 14.8C66.1807 15.0133 65.6974 15.12 65.0841 15.12ZM65.0841 13.85C65.2707 13.85 65.4074 13.8033 65.4941 13.71C65.5807 13.6167 65.6374 13.4967 65.6641 13.35C65.6907 13.2033 65.7041 13.0533 65.7041 12.9V9C65.7041 8.84 65.6907 8.69 65.6641 8.55C65.6374 8.40333 65.5807 8.28333 65.4941 8.19C65.4074 8.09667 65.2707 8.05 65.0841 8.05C64.9107 8.05 64.7807 8.09667 64.6941 8.19C64.6074 8.28333 64.5507 8.40333 64.5241 8.55C64.4974 8.69 64.4841 8.84 64.4841 9V12.9C64.4841 13.0533 64.4941 13.2033 64.5141 13.35C64.5407 13.4967 64.5941 13.6167 64.6741 13.71C64.7607 13.8033 64.8974 13.85 65.0841 13.85ZM68.6234 15V6.9H71.3434C71.8301 6.9 72.2301 6.99333 72.5434 7.18C72.8568 7.36 73.0901 7.62667 73.2434 7.98C73.3968 8.32667 73.4734 8.75 73.4734 9.25C73.4734 9.87667 73.3701 10.3567 73.1634 10.69C72.9568 11.0167 72.6768 11.2433 72.3234 11.37C71.9701 11.4967 71.5734 11.56 71.1334 11.56H70.4134V15H68.6234ZM70.4134 10.31H71.0134C71.2334 10.31 71.4001 10.27 71.5134 10.19C71.6268 10.11 71.7001 9.99 71.7334 9.83C71.7734 9.67 71.7934 9.46667 71.7934 9.22C71.7934 9.01333 71.7768 8.83333 71.7434 8.68C71.7168 8.52 71.6468 8.39333 71.5334 8.3C71.4201 8.20667 71.2434 8.16 71.0034 8.16H70.4134V10.31ZM75.0663 15V8.23H73.8463V6.9H78.0763V8.23H76.8663V15H75.0663Z"></path>
<rect fill="white" rx="0.454271" height="0.908543" width="9.08543" y="15.0916" x="25"></rect>
<rect fill="white" transform="rotate(-45 25.9427 9.61523)" rx="0.479838" height="0.959676" width="5.1115" y="9.61523" x="25.9427"></rect>
<rect fill="white" transform="rotate(-135 32.4751 10.2737)" rx="0.47776" height="0.955519" width="5.0884" y="10.2737" x="32.4751"></rect>
<rect fill="white" transform="rotate(-90 29.0884 13.7285)" rx="0.454272" height="0.908543" width="7.26834" y="13.7285" x="29.0884"></rect>
<rect fill="white" transform="rotate(-90 25 16)" rx="0.454271" height="0.908543" width="4.08844" y="16" x="25"></rect>
<rect fill="white" transform="rotate(-90 33.1769 16)" rx="0.454271" height="0.908543" width="4.08844" y="16" x="33.1769"></rect>
</svg>
