<svg xmlns="http://www.w3.org/2000/svg" fill="none" viewBox="0 0 480 360" height="360" width="480">
<g clip-path="url(#clip0_806_200)">
<rect fill="white" height="360" width="480"></rect>
<path fill="#F1F1F1" d="M460 48H464V342H460V48Z"></path>
<rect fill="#0D0E12" height="30" width="480"></rect>
<rect fill="#393939" height="1" width="480" y="29"></rect>
<rect fill="#0D0E12" height="22" width="397" y="48" x="18"></rect>
<path fill="white" d="M47.756 64V54.28H49.448V59.848L51.932 54.28H53.324V64H51.596V58.336L49.064 64H47.756ZM54.7621 64L54.9301 54.28H57.2341L58.3021 59.932L59.4541 54.28H61.6741L61.8421 64H60.3181L60.1381 57.532L59.0101 64H57.6541L56.4541 57.484L56.3101 64H54.7621ZM62.6473 64L64.4953 59.68C64.1273 59.456 63.8233 59.128 63.5833 58.696C63.3513 58.264 63.2353 57.76 63.2353 57.184C63.2353 56.432 63.3673 55.848 63.6313 55.432C63.8953 55.008 64.2713 54.712 64.7593 54.544C65.2553 54.368 65.8473 54.28 66.5353 54.28H69.0313V64H66.8953V60.16H66.5113C66.5033 60.16 66.4833 60.16 66.4513 60.16C66.4193 60.16 66.3953 60.16 66.3793 60.16L64.9633 64H62.6473ZM66.5833 58.648H66.8953V55.756H66.5593C66.1193 55.756 65.7873 55.88 65.5633 56.128C65.3473 56.368 65.2393 56.724 65.2393 57.196C65.2393 57.612 65.3353 57.96 65.5273 58.24C65.7193 58.512 66.0713 58.648 66.5833 58.648ZM73.595 64V54.28H79.415V64H77.303V55.816H75.707V64H73.595ZM83.6446 64.144C82.9166 64.144 82.3406 64.016 81.9166 63.76C81.4926 63.504 81.1886 63.136 81.0046 62.656C80.8206 62.176 80.7286 61.604 80.7286 60.94V57.328C80.7286 56.656 80.8206 56.084 81.0046 55.612C81.1886 55.14 81.4926 54.78 81.9166 54.532C82.3406 54.276 82.9166 54.148 83.6446 54.148C84.3806 54.148 84.9606 54.276 85.3846 54.532C85.8166 54.78 86.1246 55.14 86.3086 55.612C86.4926 56.084 86.5846 56.656 86.5846 57.328V60.94C86.5846 61.604 86.4926 62.176 86.3086 62.656C86.1246 63.136 85.8166 63.504 85.3846 63.76C84.9606 64.016 84.3806 64.144 83.6446 64.144ZM83.6446 62.62C83.8686 62.62 84.0326 62.564 84.1366 62.452C84.2406 62.34 84.3086 62.196 84.3406 62.02C84.3726 61.844 84.3886 61.664 84.3886 61.48V56.8C84.3886 56.608 84.3726 56.428 84.3406 56.26C84.3086 56.084 84.2406 55.94 84.1366 55.828C84.0326 55.716 83.8686 55.66 83.6446 55.66C83.4366 55.66 83.2806 55.716 83.1766 55.828C83.0726 55.94 83.0046 56.084 82.9726 56.26C82.9406 56.428 82.9246 56.608 82.9246 56.8V61.48C82.9246 61.664 82.9366 61.844 82.9606 62.02C82.9926 62.196 83.0566 62.34 83.1526 62.452C83.2566 62.564 83.4206 62.62 83.6446 62.62ZM87.2559 64V62.488C87.5279 62.488 87.7479 62.472 87.9159 62.44C88.0839 62.4 88.2159 62.312 88.3119 62.176C88.4079 62.04 88.4839 61.832 88.5399 61.552C88.5959 61.272 88.6399 60.896 88.6719 60.424C88.7119 59.952 88.7599 59.352 88.8159 58.624L89.1279 54.28H94.2759V64H92.1399V55.924H91.0719L90.8799 59.032C90.8239 59.832 90.7679 60.524 90.7119 61.108C90.6559 61.684 90.5639 62.168 90.4359 62.56C90.3159 62.952 90.1319 63.26 89.8839 63.484C89.6439 63.7 89.3119 63.848 88.8879 63.928C88.4639 64.008 87.9199 64.032 87.2559 64ZM95.8029 64V54.28H97.9509V58.384H98.4309C99.0389 58.384 99.5549 58.484 99.9789 58.684C100.403 58.884 100.727 59.192 100.951 59.608C101.175 60.016 101.287 60.544 101.287 61.192C101.287 61.784 101.207 62.264 101.047 62.632C100.895 63 100.679 63.284 100.399 63.484C100.119 63.684 99.7909 63.82 99.4149 63.892C99.0469 63.964 98.6509 64 98.2269 64H95.8029ZM97.9509 62.596H98.2389C98.5109 62.596 98.7229 62.544 98.8749 62.44C99.0349 62.336 99.1469 62.176 99.2109 61.96C99.2829 61.744 99.3149 61.472 99.3069 61.144C99.2989 60.784 99.2229 60.484 99.0789 60.244C98.9429 59.996 98.6549 59.872 98.2149 59.872H97.9509V62.596ZM104.907 64.18C104.227 64.18 103.691 64.052 103.299 63.796C102.915 63.54 102.639 63.184 102.471 62.728C102.311 62.264 102.231 61.732 102.231 61.132V60.784H104.247C104.247 60.8 104.247 60.848 104.247 60.928C104.247 61.008 104.247 61.084 104.247 61.156C104.247 61.636 104.295 61.98 104.391 62.188C104.487 62.388 104.671 62.488 104.943 62.488C105.127 62.488 105.263 62.44 105.351 62.344C105.447 62.248 105.511 62.108 105.543 61.924C105.583 61.732 105.603 61.492 105.603 61.204C105.603 60.716 105.531 60.348 105.387 60.1C105.243 59.844 104.943 59.712 104.487 59.704C104.479 59.696 104.443 59.692 104.379 59.692C104.323 59.692 104.255 59.692 104.175 59.692C104.095 59.692 104.019 59.692 103.947 59.692V58.384C104.003 58.384 104.059 58.384 104.115 58.384C104.171 58.384 104.227 58.384 104.283 58.384C104.339 58.384 104.391 58.384 104.439 58.384C104.911 58.376 105.223 58.248 105.375 58C105.527 57.752 105.603 57.384 105.603 56.896C105.603 56.52 105.543 56.232 105.423 56.032C105.311 55.832 105.119 55.732 104.847 55.732C104.583 55.732 104.399 55.84 104.295 56.056C104.199 56.264 104.147 56.544 104.139 56.896C104.139 56.912 104.139 56.98 104.139 57.1C104.139 57.212 104.139 57.324 104.139 57.436H102.123V56.848C102.123 56.264 102.235 55.772 102.459 55.372C102.691 54.964 103.011 54.656 103.419 54.448C103.827 54.24 104.307 54.136 104.859 54.136C105.427 54.136 105.911 54.236 106.311 54.436C106.719 54.636 107.031 54.932 107.247 55.324C107.463 55.708 107.571 56.188 107.571 56.764C107.571 57.332 107.455 57.812 107.223 58.204C106.991 58.588 106.711 58.824 106.383 58.912C106.607 59 106.807 59.132 106.983 59.308C107.167 59.476 107.311 59.708 107.415 60.004C107.519 60.3 107.571 60.68 107.571 61.144C107.571 61.736 107.483 62.264 107.307 62.728C107.139 63.184 106.859 63.54 106.467 63.796C106.075 64.052 105.555 64.18 104.907 64.18ZM111.535 64.144C110.807 64.144 110.231 64.016 109.807 63.76C109.383 63.504 109.079 63.136 108.895 62.656C108.711 62.176 108.619 61.604 108.619 60.94V57.328C108.619 56.656 108.711 56.084 108.895 55.612C109.079 55.14 109.383 54.78 109.807 54.532C110.231 54.276 110.807 54.148 111.535 54.148C112.271 54.148 112.851 54.276 113.275 54.532C113.707 54.78 114.015 55.14 114.199 55.612C114.383 56.084 114.475 56.656 114.475 57.328V60.94C114.475 61.604 114.383 62.176 114.199 62.656C114.015 63.136 113.707 63.504 113.275 63.76C112.851 64.016 112.271 64.144 111.535 64.144ZM111.535 62.62C111.759 62.62 111.923 62.564 112.027 62.452C112.131 62.34 112.199 62.196 112.231 62.02C112.263 61.844 112.279 61.664 112.279 61.48V56.8C112.279 56.608 112.263 56.428 112.231 56.26C112.199 56.084 112.131 55.94 112.027 55.828C111.923 55.716 111.759 55.66 111.535 55.66C111.327 55.66 111.171 55.716 111.067 55.828C110.963 55.94 110.895 56.084 110.863 56.26C110.831 56.428 110.815 56.608 110.815 56.8V61.48C110.815 61.664 110.827 61.844 110.851 62.02C110.883 62.196 110.947 62.34 111.043 62.452C111.147 62.564 111.311 62.62 111.535 62.62ZM115.783 64V54.28H118.315C118.731 54.28 119.123 54.312 119.491 54.376C119.867 54.44 120.199 54.564 120.487 54.748C120.775 54.924 120.999 55.18 121.159 55.516C121.327 55.844 121.411 56.28 121.411 56.824C121.411 57.216 121.351 57.548 121.23 57.82C121.118 58.084 120.955 58.296 120.739 58.456C120.531 58.616 120.279 58.724 119.983 58.78C120.359 58.828 120.675 58.952 120.931 59.152C121.187 59.344 121.379 59.604 121.507 59.932C121.643 60.26 121.711 60.656 121.711 61.12C121.711 61.624 121.643 62.06 121.507 62.428C121.379 62.788 121.191 63.084 120.943 63.316C120.695 63.548 120.387 63.72 120.019 63.832C119.659 63.944 119.243 64 118.771 64H115.783ZM117.931 62.5H118.387C118.859 62.5 119.183 62.38 119.359 62.14C119.543 61.9 119.635 61.548 119.635 61.084C119.635 60.716 119.595 60.424 119.515 60.208C119.435 59.992 119.303 59.836 119.119 59.74C118.935 59.636 118.687 59.584 118.375 59.584H117.931V62.5ZM117.931 58.168H118.351C118.679 58.168 118.927 58.12 119.095 58.024C119.263 57.92 119.375 57.772 119.431 57.58C119.495 57.388 119.527 57.156 119.527 56.884C119.527 56.628 119.479 56.416 119.383 56.248C119.295 56.072 119.159 55.94 118.975 55.852C118.799 55.764 118.575 55.72 118.303 55.72H117.931V58.168ZM122.369 64L124.205 54.28H126.653L128.465 64H126.485L126.161 61.948H124.733L124.397 64H122.369ZM124.925 60.664H125.957L125.441 56.872L124.925 60.664ZM130.17 64V55.876H128.706V54.28H133.782V55.876H132.33V64H130.17ZM134.638 64V54.28H139.006V55.744H136.786V58.156H138.478V59.644H136.786V62.548H139.03V64H134.638ZM139.369 64V62.488C139.641 62.488 139.861 62.472 140.029 62.44C140.197 62.4 140.329 62.312 140.425 62.176C140.521 62.04 140.597 61.832 140.653 61.552C140.709 61.272 140.753 60.896 140.785 60.424C140.825 59.952 140.873 59.352 140.929 58.624L141.241 54.28H146.389V64H144.253V55.924H143.185L142.993 59.032C142.937 59.832 142.881 60.524 142.825 61.108C142.769 61.684 142.677 62.168 142.549 62.56C142.429 62.952 142.245 63.26 141.997 63.484C141.757 63.7 141.425 63.848 141.001 63.928C140.577 64.008 140.033 64.032 139.369 64ZM147.28 64L149.128 59.68C148.76 59.456 148.456 59.128 148.216 58.696C147.984 58.264 147.868 57.76 147.868 57.184C147.868 56.432 148 55.848 148.264 55.432C148.528 55.008 148.904 54.712 149.392 54.544C149.888 54.368 150.48 54.28 151.168 54.28H153.664V64H151.528V60.16H151.144C151.136 60.16 151.116 60.16 151.084 60.16C151.052 60.16 151.028 60.16 151.012 60.16L149.596 64H147.28ZM151.216 58.648H151.528V55.756H151.192C150.752 55.756 150.42 55.88 150.196 56.128C149.98 56.368 149.872 56.724 149.872 57.196C149.872 57.612 149.968 57.96 150.16 58.24C150.352 58.512 150.704 58.648 151.216 58.648Z"></path>
<path fill="white" d="M22.624 64V54.28H24.148L26.14 59.032V54.28H27.904V64H26.428L24.46 58.9V64H22.624ZM31.288 64.132C30.568 64.132 29.984 63.948 29.536 63.58C29.096 63.212 28.876 62.648 28.876 61.888V59.176C28.876 58.416 29.096 57.852 29.536 57.484C29.984 57.116 30.568 56.932 31.288 56.932C32 56.932 32.584 57.116 33.04 57.484C33.496 57.844 33.724 58.408 33.724 59.176V61.888C33.724 62.656 33.496 63.224 33.04 63.592C32.584 63.952 32 64.132 31.288 64.132ZM31.288 62.752C31.424 62.752 31.528 62.724 31.6 62.668C31.68 62.612 31.736 62.524 31.768 62.404C31.8 62.276 31.816 62.112 31.816 61.912V59.152C31.816 58.944 31.8 58.78 31.768 58.66C31.736 58.54 31.68 58.452 31.6 58.396C31.528 58.34 31.424 58.312 31.288 58.312C31.16 58.312 31.056 58.34 30.976 58.396C30.904 58.452 30.848 58.544 30.808 58.672C30.776 58.792 30.76 58.952 30.76 59.152V61.912C30.76 62.112 30.776 62.276 30.808 62.404C30.848 62.524 30.904 62.612 30.976 62.668C31.056 62.724 31.16 62.752 31.288 62.752Z"></path>
<path fill="white" d="M198.756 64V54.28H200.904V58.132H201.12L202.548 54.28H204.684L202.908 58.84L204.744 64H202.536L201.12 59.764H200.904V64H198.756ZM205.587 64V54.28H211.407V64H209.295V55.816H207.699V64H205.587ZM212.349 66.1V62.464H212.625C212.809 62.408 212.977 62.312 213.129 62.176C213.289 62.032 213.433 61.84 213.561 61.6C213.689 61.36 213.805 61.06 213.909 60.7C214.013 60.34 214.101 59.912 214.173 59.416C214.245 58.912 214.305 58.332 214.353 57.676L214.617 54.28H219.141V62.464H220.233V66.1H218.817L218.709 64H213.945L213.825 66.1H212.349ZM214.653 62.464H217.137V55.804H216.237L216.129 57.892C216.089 58.58 216.029 59.164 215.949 59.644C215.877 60.124 215.789 60.524 215.685 60.844C215.589 61.156 215.485 61.412 215.373 61.612C215.261 61.812 215.141 61.976 215.013 62.104C214.893 62.232 214.773 62.352 214.653 62.464Z"></path>
<path fill="white" d="M269.72 64V54.28H275.54V64H273.428V55.816H271.832V64H269.72ZM276.986 64V54.28H280.25C280.834 54.28 281.314 54.392 281.69 54.616C282.066 54.832 282.346 55.152 282.53 55.576C282.714 55.992 282.806 56.5 282.806 57.1C282.806 57.852 282.682 58.428 282.434 58.828C282.186 59.22 281.85 59.492 281.426 59.644C281.002 59.796 280.526 59.872 279.998 59.872H279.134V64H276.986ZM279.134 58.372H279.854C280.118 58.372 280.318 58.324 280.454 58.228C280.59 58.132 280.678 57.988 280.718 57.796C280.766 57.604 280.79 57.36 280.79 57.064C280.79 56.816 280.77 56.6 280.73 56.416C280.698 56.224 280.614 56.072 280.478 55.96C280.342 55.848 280.13 55.792 279.842 55.792H279.134V58.372ZM286.625 64.144C285.897 64.144 285.321 64.016 284.897 63.76C284.473 63.504 284.169 63.136 283.985 62.656C283.801 62.176 283.709 61.604 283.709 60.94V57.328C283.709 56.656 283.801 56.084 283.985 55.612C284.169 55.14 284.473 54.78 284.897 54.532C285.321 54.276 285.897 54.148 286.625 54.148C287.361 54.148 287.941 54.276 288.365 54.532C288.797 54.78 289.105 55.14 289.289 55.612C289.473 56.084 289.565 56.656 289.565 57.328V60.94C289.565 61.604 289.473 62.176 289.289 62.656C289.105 63.136 288.797 63.504 288.365 63.76C287.941 64.016 287.361 64.144 286.625 64.144ZM286.625 62.62C286.849 62.62 287.013 62.564 287.117 62.452C287.221 62.34 287.289 62.196 287.321 62.02C287.353 61.844 287.369 61.664 287.369 61.48V56.8C287.369 56.608 287.353 56.428 287.321 56.26C287.289 56.084 287.221 55.94 287.117 55.828C287.013 55.716 286.849 55.66 286.625 55.66C286.417 55.66 286.261 55.716 286.157 55.828C286.053 55.94 285.985 56.084 285.953 56.26C285.921 56.428 285.905 56.608 285.905 56.8V61.48C285.905 61.664 285.917 61.844 285.941 62.02C285.973 62.196 286.037 62.34 286.133 62.452C286.237 62.564 286.401 62.62 286.625 62.62ZM291.748 64V55.876H290.284V54.28H295.36V55.876H293.908V64H291.748ZM296.252 64V54.28H297.944V59.848L300.428 54.28H301.82V64H300.092V58.336L297.56 64H296.252ZM303.294 64V54.28H305.826C306.242 54.28 306.634 54.312 307.002 54.376C307.378 54.44 307.71 54.564 307.998 54.748C308.286 54.924 308.51 55.18 308.67 55.516C308.838 55.844 308.922 56.28 308.922 56.824C308.922 57.216 308.862 57.548 308.742 57.82C308.63 58.084 308.466 58.296 308.25 58.456C308.042 58.616 307.79 58.724 307.494 58.78C307.87 58.828 308.186 58.952 308.442 59.152C308.698 59.344 308.89 59.604 309.018 59.932C309.154 60.26 309.222 60.656 309.222 61.12C309.222 61.624 309.154 62.06 309.018 62.428C308.89 62.788 308.702 63.084 308.454 63.316C308.206 63.548 307.898 63.72 307.53 63.832C307.17 63.944 306.754 64 306.282 64H303.294ZM305.442 62.5H305.898C306.37 62.5 306.694 62.38 306.87 62.14C307.054 61.9 307.146 61.548 307.146 61.084C307.146 60.716 307.106 60.424 307.026 60.208C306.946 59.992 306.814 59.836 306.63 59.74C306.446 59.636 306.198 59.584 305.886 59.584H305.442V62.5ZM305.442 58.168H305.862C306.19 58.168 306.438 58.12 306.606 58.024C306.774 57.92 306.886 57.772 306.942 57.58C307.006 57.388 307.038 57.156 307.038 56.884C307.038 56.628 306.99 56.416 306.894 56.248C306.806 56.072 306.67 55.94 306.486 55.852C306.31 55.764 306.086 55.72 305.814 55.72H305.442V58.168ZM310.385 64V54.28H312.533V58.216H314.033V54.28H316.193V64H314.033V59.752H312.533V64H310.385ZM317.709 64V54.28H319.401V59.848L321.885 54.28H323.277V64H321.549V58.336L319.017 64H317.709ZM324.787 64V54.28H326.935V58.132H327.151L328.579 54.28H330.715L328.939 58.84L330.775 64H328.567L327.151 59.764H326.935V64H324.787Z"></path>
<rect fill="#0D0E12" height="272" width="1" y="70" x="193"></rect>
<rect fill="#0D0E12" height="272" width="1" y="70" x="42"></rect>
<rect fill="#0D0E12" height="272" width="1" y="70" x="264"></rect>
<rect fill="white" height="18" width="480" y="342"></rect>
<path fill="white" d="M329.72 21V11.28H333.92V12.732H331.868V15.18H333.656V16.68H331.868V21H329.72ZM334.923 21V11.28H338.187C338.771 11.28 339.251 11.392 339.627 11.616C340.003 11.832 340.283 12.152 340.467 12.576C340.651 12.992 340.743 13.5 340.743 14.1C340.743 14.852 340.619 15.428 340.371 15.828C340.123 16.22 339.787 16.492 339.363 16.644C338.939 16.796 338.463 16.872 337.935 16.872H337.071V21H334.923ZM337.071 15.372H337.791C338.055 15.372 338.255 15.324 338.391 15.228C338.527 15.132 338.615 14.988 338.655 14.796C338.703 14.604 338.727 14.36 338.727 14.064C338.727 13.816 338.707 13.6 338.667 13.416C338.635 13.224 338.551 13.072 338.415 12.96C338.279 12.848 338.067 12.792 337.779 12.792H337.071V15.372ZM344.265 21.144C343.657 21.144 343.149 21.036 342.741 20.82C342.333 20.604 342.025 20.272 341.817 19.824C341.609 19.368 341.493 18.78 341.469 18.06L343.305 17.784C343.313 18.2 343.349 18.536 343.413 18.792C343.485 19.048 343.581 19.232 343.701 19.344C343.829 19.456 343.981 19.512 344.157 19.512C344.381 19.512 344.525 19.436 344.589 19.284C344.661 19.132 344.697 18.972 344.697 18.804C344.697 18.404 344.601 18.068 344.409 17.796C344.217 17.516 343.957 17.236 343.629 16.956L342.789 16.224C342.421 15.912 342.109 15.56 341.853 15.168C341.605 14.768 341.481 14.276 341.481 13.692C341.481 12.868 341.725 12.24 342.213 11.808C342.701 11.368 343.365 11.148 344.205 11.148C344.725 11.148 345.141 11.236 345.453 11.412C345.773 11.588 346.013 11.82 346.173 12.108C346.341 12.388 346.453 12.688 346.509 13.008C346.573 13.32 346.609 13.62 346.617 13.908L344.769 14.136C344.761 13.848 344.741 13.6 344.709 13.392C344.685 13.176 344.629 13.012 344.541 12.9C344.453 12.78 344.317 12.72 344.133 12.72C343.933 12.72 343.785 12.804 343.689 12.972C343.601 13.14 343.557 13.308 343.557 13.476C343.557 13.836 343.641 14.132 343.809 14.364C343.985 14.588 344.213 14.824 344.493 15.072L345.297 15.78C345.721 16.14 346.077 16.548 346.365 17.004C346.661 17.46 346.809 18.024 346.809 18.696C346.809 19.152 346.705 19.568 346.497 19.944C346.289 20.312 345.993 20.604 345.609 20.82C345.233 21.036 344.785 21.144 344.265 21.144ZM347.933 16.056V14.232H349.757V16.056H347.933ZM347.933 20.328V18.504H349.757V20.328H347.933Z"></path>
</g>
<defs>
<clipPath id="clip0_806_200">
<rect fill="white" height="360" width="480"></rect>
</clipPath>
</defs>
</svg>
