<svg xmlns="http://www.w3.org/2000/svg" fill="none" viewBox="0 0 43 15" height="15" width="43">
<rect fill="#0D0E12" height="13" width="43" y="2"></rect>
<path fill="white" d="M6.6318 12.1C6.12513 12.1 5.7018 11.9867 5.3618 11.76C5.02846 11.5333 4.75513 11.1633 4.5418 10.65L5.6518 10.16C5.75846 10.42 5.8818 10.6267 6.0218 10.78C6.16846 10.9267 6.32846 11 6.5018 11C6.62846 11 6.7218 10.9733 6.7818 10.92C6.84846 10.8667 6.8818 10.7933 6.8818 10.7C6.8818 10.5467 6.8218 10.4067 6.7018 10.28C6.58846 10.1533 6.3818 9.96667 6.0818 9.72L5.6618 9.37C5.35513 9.11 5.1118 8.86 4.9318 8.62C4.75846 8.37333 4.6718 8.07 4.6718 7.71C4.6718 7.39667 4.7518 7.12 4.9118 6.88C5.07846 6.64 5.29846 6.45333 5.5718 6.32C5.84513 6.18667 6.13846 6.12 6.4518 6.12C6.92513 6.12 7.3218 6.25 7.6418 6.51C7.9618 6.77 8.18513 7.13667 8.3118 7.61L7.2618 8.09C7.2218 7.96333 7.16513 7.83667 7.0918 7.71C7.01846 7.58333 6.92846 7.47667 6.8218 7.39C6.7218 7.30333 6.6118 7.26 6.4918 7.26C6.38513 7.26 6.29846 7.29 6.2318 7.35C6.1718 7.41 6.1418 7.49 6.1418 7.59C6.1418 7.71667 6.2118 7.85333 6.3518 8C6.49846 8.14667 6.69846 8.32333 6.9518 8.53L7.3618 8.89C7.52846 9.03 7.6918 9.18 7.8518 9.34C8.0118 9.5 8.1418 9.67667 8.2418 9.87C8.34846 10.0633 8.4018 10.2833 8.4018 10.53C8.4018 10.8633 8.31846 11.15 8.1518 11.39C7.98513 11.6233 7.76513 11.8 7.4918 11.92C7.22513 12.04 6.93846 12.1 6.6318 12.1ZM10.9801 12.1C10.5601 12.1 10.2001 12.0267 9.90008 11.88C9.60008 11.7267 9.37008 11.5067 9.21008 11.22C9.05008 10.9267 8.97008 10.5767 8.97008 10.17V8.05C8.97008 7.63667 9.05008 7.28667 9.21008 7C9.37008 6.71333 9.60008 6.49667 9.90008 6.35C10.2067 6.19667 10.5667 6.12 10.9801 6.12C11.4067 6.12 11.7601 6.19333 12.0401 6.34C12.3267 6.48667 12.5401 6.70333 12.6801 6.99C12.8267 7.27667 12.9001 7.63 12.9001 8.05V9.21H10.5801V10.32C10.5801 10.4667 10.5967 10.5867 10.6301 10.68C10.6634 10.7733 10.7101 10.84 10.7701 10.88C10.8301 10.92 10.9001 10.94 10.9801 10.94C11.0601 10.94 11.1301 10.9233 11.1901 10.89C11.2567 10.85 11.3067 10.79 11.3401 10.71C11.3801 10.63 11.4001 10.52 11.4001 10.38V9.77H12.9001V10.33C12.9001 10.9167 12.7301 11.36 12.3901 11.66C12.0501 11.9533 11.5801 12.1 10.9801 12.1ZM10.5801 8.45H11.4001V7.87C11.4001 7.71667 11.3801 7.59667 11.3401 7.51C11.3067 7.42333 11.2567 7.36333 11.1901 7.33C11.1301 7.29667 11.0567 7.28 10.9701 7.28C10.8901 7.28 10.8201 7.3 10.7601 7.34C10.7067 7.38 10.6634 7.45 10.6301 7.55C10.5967 7.64333 10.5801 7.78 10.5801 7.96V8.45ZM13.8573 12V3.9H15.4773V12H13.8573ZM18.4215 12.1C18.0015 12.1 17.6415 12.0267 17.3415 11.88C17.0415 11.7267 16.8115 11.5067 16.6515 11.22C16.4915 10.9267 16.4115 10.5767 16.4115 10.17V8.05C16.4115 7.63667 16.4915 7.28667 16.6515 7C16.8115 6.71333 17.0415 6.49667 17.3415 6.35C17.6482 6.19667 18.0082 6.12 18.4215 6.12C18.8482 6.12 19.2015 6.19333 19.4815 6.34C19.7682 6.48667 19.9815 6.70333 20.1215 6.99C20.2682 7.27667 20.3415 7.63 20.3415 8.05V9.21H18.0215V10.32C18.0215 10.4667 18.0382 10.5867 18.0715 10.68C18.1048 10.7733 18.1515 10.84 18.2115 10.88C18.2715 10.92 18.3415 10.94 18.4215 10.94C18.5015 10.94 18.5715 10.9233 18.6315 10.89C18.6982 10.85 18.7482 10.79 18.7815 10.71C18.8215 10.63 18.8415 10.52 18.8415 10.38V9.77H20.3415V10.33C20.3415 10.9167 20.1715 11.36 19.8315 11.66C19.4915 11.9533 19.0215 12.1 18.4215 12.1ZM18.0215 8.45H18.8415V7.87C18.8415 7.71667 18.8215 7.59667 18.7815 7.51C18.7482 7.42333 18.6982 7.36333 18.6315 7.33C18.5715 7.29667 18.4982 7.28 18.4115 7.28C18.3315 7.28 18.2615 7.3 18.2015 7.34C18.1482 7.38 18.1048 7.45 18.0715 7.55C18.0382 7.64333 18.0215 7.78 18.0215 7.96V8.45ZM23.1088 12.1C22.6888 12.1 22.3288 12.0233 22.0288 11.87C21.7354 11.7167 21.5088 11.4967 21.3488 11.21C21.1888 10.9233 21.1088 10.5767 21.1088 10.17V8.05C21.1088 7.63667 21.1888 7.28667 21.3488 7C21.5088 6.71333 21.7354 6.49667 22.0288 6.35C22.3288 6.19667 22.6888 6.12 23.1088 6.12C23.5221 6.12 23.8721 6.18333 24.1588 6.31C24.4521 6.43667 24.6754 6.63 24.8288 6.89C24.9821 7.14333 25.0588 7.46667 25.0588 7.86V8.47H23.4888V7.81C23.4888 7.65667 23.4721 7.54 23.4388 7.46C23.4121 7.37333 23.3688 7.31333 23.3088 7.28C23.2554 7.24667 23.1888 7.23 23.1088 7.23C23.0288 7.23 22.9621 7.25333 22.9088 7.3C22.8554 7.34 22.8154 7.41 22.7888 7.51C22.7621 7.60333 22.7488 7.73667 22.7488 7.91V10.31C22.7488 10.57 22.7788 10.7467 22.8388 10.84C22.9054 10.9333 22.9988 10.98 23.1188 10.98C23.2054 10.98 23.2754 10.9633 23.3288 10.93C23.3821 10.89 23.4221 10.83 23.4488 10.75C23.4754 10.6633 23.4888 10.55 23.4888 10.41V9.64H25.0588V10.34C25.0588 10.7267 24.9788 11.0533 24.8188 11.32C24.6654 11.58 24.4421 11.7767 24.1488 11.91C23.8621 12.0367 23.5154 12.1 23.1088 12.1ZM27.6965 12.06C27.2632 12.06 26.9265 11.9967 26.6865 11.87C26.4532 11.7433 26.2932 11.56 26.2065 11.32C26.1198 11.0733 26.0765 10.7767 26.0765 10.43V7.29H25.5165V6.22H26.0765V4.46H27.7265V6.22H28.5465V7.29H27.7265V10.27C27.7265 10.4367 27.7732 10.5567 27.8665 10.63C27.9665 10.7033 28.0898 10.74 28.2365 10.74C28.3232 10.74 28.4032 10.7367 28.4765 10.73C28.5498 10.7167 28.6165 10.7067 28.6765 10.7V11.98C28.5898 11.9933 28.4532 12.01 28.2665 12.03C28.0798 12.05 27.8898 12.06 27.6965 12.06ZM31.3316 12.1C30.9116 12.1 30.5516 12.0267 30.2516 11.88C29.9516 11.7267 29.7216 11.5067 29.5616 11.22C29.4016 10.9267 29.3216 10.5767 29.3216 10.17V8.05C29.3216 7.63667 29.4016 7.28667 29.5616 7C29.7216 6.71333 29.9516 6.49667 30.2516 6.35C30.5583 6.19667 30.9183 6.12 31.3316 6.12C31.7583 6.12 32.1116 6.19333 32.3916 6.34C32.6783 6.48667 32.8916 6.70333 33.0316 6.99C33.1783 7.27667 33.2516 7.63 33.2516 8.05V9.21H30.9316V10.32C30.9316 10.4667 30.9483 10.5867 30.9816 10.68C31.015 10.7733 31.0616 10.84 31.1216 10.88C31.1816 10.92 31.2516 10.94 31.3316 10.94C31.4116 10.94 31.4816 10.9233 31.5416 10.89C31.6083 10.85 31.6583 10.79 31.6916 10.71C31.7316 10.63 31.7516 10.52 31.7516 10.38V9.77H33.2516V10.33C33.2516 10.9167 33.0816 11.36 32.7416 11.66C32.4016 11.9533 31.9316 12.1 31.3316 12.1ZM30.9316 8.45H31.7516V7.87C31.7516 7.71667 31.7316 7.59667 31.6916 7.51C31.6583 7.42333 31.6083 7.36333 31.5416 7.33C31.4816 7.29667 31.4083 7.28 31.3216 7.28C31.2416 7.28 31.1716 7.3 31.1116 7.34C31.0583 7.38 31.015 7.45 30.9816 7.55C30.9483 7.64333 30.9316 7.78 30.9316 7.96V8.45ZM35.3889 12.1C34.9622 12.1 34.6322 11.95 34.3989 11.65C34.1656 11.35 34.0489 10.9067 34.0489 10.32V7.93C34.0489 7.57 34.0989 7.25667 34.1989 6.99C34.2989 6.71667 34.4489 6.50333 34.6489 6.35C34.8489 6.19667 35.0956 6.12 35.3889 6.12C35.6022 6.12 35.8056 6.16333 35.9989 6.25C36.1922 6.33 36.3689 6.44 36.5289 6.58V3.9H38.1589V12H36.5289V11.55C36.3489 11.7233 36.1622 11.86 35.9689 11.96C35.7756 12.0533 35.5822 12.1 35.3889 12.1ZM36.0989 11.06C36.1522 11.06 36.2156 11.0467 36.2889 11.02C36.3689 10.9933 36.4489 10.9567 36.5289 10.91V7.26C36.4622 7.22667 36.3922 7.19667 36.3189 7.17C36.2456 7.14333 36.1756 7.13 36.1089 7.13C35.9622 7.13 35.8556 7.19333 35.7889 7.32C35.7222 7.44 35.6889 7.58667 35.6889 7.76V10.42C35.6889 10.54 35.7022 10.65 35.7289 10.75C35.7556 10.8433 35.7989 10.92 35.8589 10.98C35.9189 11.0333 35.9989 11.06 36.0989 11.06Z"></path>
</svg>
