<svg xmlns="http://www.w3.org/2000/svg" fill="none" viewBox="0 0 90 22" height="22" width="90">
<rect stroke="white" fill="#0D0E12" height="21" width="89" y="0.5" x="0.5"></rect>
<path fill="white" d="M42.6001 15V6.9H44.7101C45.0567 6.9 45.3834 6.92667 45.6901 6.98C46.0034 7.03333 46.2801 7.13667 46.5201 7.29C46.7601 7.43667 46.9467 7.65 47.0801 7.93C47.2201 8.20333 47.2901 8.56667 47.2901 9.02C47.2901 9.34667 47.2401 9.62333 47.1401 9.85C47.0467 10.07 46.9101 10.2467 46.7301 10.38C46.5567 10.5133 46.3467 10.6033 46.1001 10.65C46.4134 10.69 46.6767 10.7933 46.8901 10.96C47.1034 11.12 47.2634 11.3367 47.3701 11.61C47.4834 11.8833 47.5401 12.2133 47.5401 12.6C47.5401 13.02 47.4834 13.3833 47.3701 13.69C47.2634 13.99 47.1067 14.2367 46.9001 14.43C46.6934 14.6233 46.4367 14.7667 46.1301 14.86C45.8301 14.9533 45.4834 15 45.0901 15H42.6001ZM44.3901 13.75H44.7701C45.1634 13.75 45.4334 13.65 45.5801 13.45C45.7334 13.25 45.8101 12.9567 45.8101 12.57C45.8101 12.2633 45.7767 12.02 45.7101 11.84C45.6434 11.66 45.5334 11.53 45.3801 11.45C45.2267 11.3633 45.0201 11.32 44.7601 11.32H44.3901V13.75ZM44.3901 10.14H44.7401C45.0134 10.14 45.2201 10.1 45.3601 10.02C45.5001 9.93333 45.5934 9.81 45.6401 9.65C45.6934 9.49 45.7201 9.29667 45.7201 9.07C45.7201 8.85667 45.6801 8.68 45.6001 8.54C45.5267 8.39333 45.4134 8.28333 45.2601 8.21C45.1134 8.13667 44.9267 8.1 44.7001 8.1H44.3901V10.14ZM48.0694 15L49.5994 6.9H51.6394L53.1494 15H51.4994L51.2294 13.29H50.0394L49.7594 15H48.0694ZM50.1994 12.22H51.0594L50.6294 9.06L50.1994 12.22ZM56.1603 15.12C55.547 15.12 55.0603 15.01 54.7003 14.79C54.347 14.5633 54.097 14.25 53.9503 13.85C53.8036 13.4433 53.7303 12.9667 53.7303 12.42V9.5C53.7303 8.94 53.8036 8.46 53.9503 8.06C54.097 7.65333 54.347 7.34 54.7003 7.12C55.0603 6.9 55.547 6.79 56.1603 6.79C56.7603 6.79 57.227 6.89 57.5603 7.09C57.9003 7.28333 58.1403 7.55667 58.2803 7.91C58.4203 8.26333 58.4903 8.67 58.4903 9.13V9.83H56.7403V9.02C56.7403 8.86 56.7303 8.70667 56.7103 8.56C56.697 8.41333 56.6503 8.29333 56.5703 8.2C56.4903 8.1 56.3536 8.05 56.1603 8.05C55.9736 8.05 55.8336 8.1 55.7403 8.2C55.6536 8.3 55.597 8.42667 55.5703 8.58C55.5503 8.72667 55.5403 8.88333 55.5403 9.05V12.86C55.5403 13.04 55.5536 13.2067 55.5803 13.36C55.6136 13.5067 55.6736 13.6267 55.7603 13.72C55.8536 13.8067 55.987 13.85 56.1603 13.85C56.347 13.85 56.4803 13.8033 56.5603 13.71C56.6403 13.61 56.6903 13.4833 56.7103 13.33C56.7303 13.1767 56.7403 13.02 56.7403 12.86V12.01H58.4903V12.71C58.4903 13.17 58.4203 13.5833 58.2803 13.95C58.147 14.31 57.9103 14.5967 57.5703 14.81C57.237 15.0167 56.767 15.12 56.1603 15.12ZM59.4751 15V6.9H61.2651V10.21L62.6251 6.9H64.3751L62.8751 10.56L64.4451 15H62.6251L61.4551 11.42L61.2651 11.74V15H59.4751Z"></path>
<path fill="white" d="M35.6568 11.2427C35.6568 11.795 35.2091 12.2427 34.6568 12.2427L25.6569 12.2427C25.1046 12.2427 24.6569 11.795 24.6569 11.2427C24.6569 10.6904 25.1046 10.2427 25.6569 10.2427L34.6568 10.2427C35.2091 10.2427 35.6568 10.6904 35.6568 11.2427Z"></path>
<path fill="white" d="M28.9498 14.7782C28.5593 15.1687 27.9261 15.1687 27.5356 14.7782L24.7071 11.9498C24.3166 11.5593 24.3166 10.9261 24.7071 10.5356C25.0977 10.145 25.7308 10.145 26.1214 10.5356L28.9498 13.364C29.3403 13.7545 29.3403 14.3877 28.9498 14.7782Z"></path>
<path fill="white" d="M24.7071 11.9498C24.3166 11.5593 24.3166 10.9261 24.7071 10.5356L27.5355 7.70714C27.9261 7.31662 28.5592 7.31662 28.9497 7.70714C29.3403 8.09767 29.3403 8.73083 28.9497 9.12136L26.1213 11.9498C25.7308 12.3403 25.0976 12.3403 24.7071 11.9498Z"></path>
</svg>
