<svg xmlns="http://www.w3.org/2000/svg" fill="none" viewBox="0 0 214 84" height="84" width="214">
<mask fill="white" id="path-1-inside-1_1521_14">
<path d="M0 0H214V84H0V0Z"></path>
</mask>
<path fill="#0D0E12" d="M0 0H214V84H0V0Z"></path>
<path mask="url(#path-1-inside-1_1521_14)" fill="white" d="M0 0V-1H-1V0H0ZM0 84H-1V85H0V84ZM0 1H214V-1H0V1ZM214 83H0V85H214V83ZM1 84V0H-1V84H1Z"></path>
<path fill="#FF0000" d="M19.504 38.144C18.776 38.144 18.2 38.016 17.776 37.76C17.352 37.504 17.048 37.136 16.864 36.656C16.68 36.176 16.588 35.604 16.588 34.94V31.328C16.588 30.656 16.68 30.084 16.864 29.612C17.048 29.14 17.352 28.78 17.776 28.532C18.2 28.276 18.776 28.148 19.504 28.148C20.24 28.148 20.82 28.276 21.244 28.532C21.676 28.78 21.984 29.14 22.168 29.612C22.352 30.084 22.444 30.656 22.444 31.328V34.94C22.444 35.604 22.352 36.176 22.168 36.656C21.984 37.136 21.676 37.504 21.244 37.76C20.82 38.016 20.24 38.144 19.504 38.144ZM19.504 36.62C19.728 36.62 19.892 36.564 19.996 36.452C20.1 36.34 20.168 36.196 20.2 36.02C20.232 35.844 20.248 35.664 20.248 35.48V30.8C20.248 30.608 20.232 30.428 20.2 30.26C20.168 30.084 20.1 29.94 19.996 29.828C19.892 29.716 19.728 29.66 19.504 29.66C19.296 29.66 19.14 29.716 19.036 29.828C18.932 29.94 18.864 30.084 18.832 30.26C18.8 30.428 18.784 30.608 18.784 30.8V35.48C18.784 35.664 18.796 35.844 18.82 36.02C18.852 36.196 18.916 36.34 19.012 36.452C19.116 36.564 19.28 36.62 19.504 36.62ZM23.7873 38V28.28H25.8153V36.464H27.0033V28.28H29.0193V36.464H30.1593V28.28H32.1753V38H23.7873ZM33.6896 38V28.28H35.3816V33.848L37.8656 28.28H39.2576V38H37.5296V32.336L34.9976 38H33.6896ZM40.7677 38V28.28H45.5917V29.912H42.9157V32.384H43.3717C43.9877 32.384 44.5077 32.484 44.9317 32.684C45.3637 32.884 45.6917 33.192 45.9157 33.608C46.1397 34.016 46.2517 34.544 46.2517 35.192C46.2517 35.784 46.1717 36.264 46.0117 36.632C45.8597 37 45.6437 37.284 45.3637 37.484C45.0837 37.684 44.7557 37.82 44.3797 37.892C44.0117 37.964 43.6117 38 43.1797 38H40.7677ZM42.9157 36.596H43.1917C43.4637 36.596 43.6797 36.544 43.8397 36.44C43.9997 36.336 44.1117 36.176 44.1757 35.96C44.2397 35.744 44.2677 35.472 44.2597 35.144C44.2517 34.784 44.1757 34.484 44.0317 34.244C43.8877 33.996 43.5997 33.872 43.1677 33.872H42.9157V36.596ZM47.4123 38V28.28H49.5603V32.132H49.7763L51.2043 28.28H53.3403L51.5643 32.84L53.4003 38H51.1923L49.7763 33.764H49.5603V38H47.4123ZM53.7754 38L55.6114 28.28H58.0594L59.8714 38H57.8914L57.5674 35.948H56.1394L55.8034 38H53.7754ZM56.3314 34.664H57.3634L56.8474 30.872L56.3314 34.664Z"></path>
<path fill="white" d="M16.63 56V47.9H18.49C18.8567 47.9 19.1733 47.94 19.44 48.02C19.7133 48.1 19.94 48.2233 20.12 48.39C20.3 48.5567 20.4333 48.77 20.52 49.03C20.6067 49.2833 20.65 49.5833 20.65 49.93C20.65 50.2633 20.6067 50.5533 20.52 50.8C20.44 51.04 20.3133 51.23 20.14 51.37C19.9733 51.51 19.7567 51.6 19.49 51.64C19.8167 51.7133 20.08 51.84 20.28 52.02C20.48 52.1933 20.6267 52.42 20.72 52.7C20.82 52.9733 20.87 53.3033 20.87 53.69C20.87 54.0367 20.83 54.3533 20.75 54.64C20.67 54.9267 20.5433 55.17 20.37 55.37C20.2033 55.57 19.9867 55.7267 19.72 55.84C19.46 55.9467 19.15 56 18.79 56H16.63ZM17.76 55.19H18.52C19.0267 55.19 19.3633 55.0733 19.53 54.84C19.7033 54.6 19.79 54.2167 19.79 53.69C19.79 53.35 19.7433 53.0667 19.65 52.84C19.5633 52.6067 19.42 52.4333 19.22 52.32C19.0267 52.2 18.7633 52.14 18.43 52.14H17.76V55.19ZM17.76 51.28H18.43C18.75 51.28 19 51.2367 19.18 51.15C19.36 51.0567 19.4867 50.91 19.56 50.71C19.6333 50.51 19.67 50.25 19.67 49.93C19.67 49.5567 19.6133 49.2867 19.5 49.12C19.3867 48.9533 19.21 48.85 18.97 48.81C18.73 48.7633 18.4167 48.74 18.03 48.74H17.76V51.28ZM24.0693 56V50.22H25.1393V52.66H25.4393L26.5293 50.22H27.6293L26.4193 53.02L27.6493 56H26.5293L25.4393 53.3H25.1393V56H24.0693ZM29.8097 56.08C29.383 56.08 29.0464 55.9933 28.7997 55.82C28.553 55.6467 28.3764 55.4 28.2697 55.08C28.1697 54.76 28.1197 54.3833 28.1197 53.95V52.27C28.1197 51.8367 28.1697 51.46 28.2697 51.14C28.3764 50.82 28.553 50.5733 28.7997 50.4C29.0464 50.2267 29.383 50.14 29.8097 50.14C30.2364 50.14 30.5697 50.2267 30.8097 50.4C31.0564 50.5733 31.2297 50.82 31.3297 51.14C31.4364 51.46 31.4897 51.8367 31.4897 52.27V53.95C31.4897 54.3833 31.4364 54.76 31.3297 55.08C31.2297 55.4 31.0564 55.6467 30.8097 55.82C30.5697 55.9933 30.2364 56.08 29.8097 56.08ZM29.8097 55.29C30.0164 55.29 30.1597 55.23 30.2397 55.11C30.3264 54.99 30.3764 54.8333 30.3897 54.64C30.4097 54.44 30.4197 54.2333 30.4197 54.02V52.21C30.4197 51.99 30.4097 51.7833 30.3897 51.59C30.3764 51.3967 30.3264 51.24 30.2397 51.12C30.1597 50.9933 30.0164 50.93 29.8097 50.93C29.603 50.93 29.4564 50.9933 29.3697 51.12C29.283 51.24 29.2297 51.3967 29.2097 51.59C29.1964 51.7833 29.1897 51.99 29.1897 52.21V54.02C29.1897 54.2333 29.1964 54.44 29.2097 54.64C29.2297 54.8333 29.283 54.99 29.3697 55.11C29.4564 55.23 29.603 55.29 29.8097 55.29ZM31.9477 57.47V55.29C32.1477 55.1367 32.3311 54.9533 32.4977 54.74C32.6644 54.5267 32.8111 54.2567 32.9377 53.93C33.0644 53.6033 33.1644 53.2 33.2377 52.72C33.3111 52.24 33.3511 51.66 33.3577 50.98L33.3777 50.22H35.9877V55.24H36.6877V57.47H35.9077L35.8177 56H32.8177L32.7277 57.47H31.9477ZM32.9877 55.24H34.9577V50.99H34.2077L34.1877 51.2C34.1811 51.9067 34.1444 52.4967 34.0777 52.97C34.0177 53.4367 33.9311 53.82 33.8177 54.12C33.7111 54.4133 33.5844 54.6467 33.4377 54.82C33.2977 54.9933 33.1477 55.1333 32.9877 55.24ZM39.0287 56.08C38.5753 56.08 38.2253 55.9933 37.9787 55.82C37.732 55.64 37.5587 55.38 37.4587 55.04C37.3653 54.6933 37.3187 54.27 37.3187 53.77V52.45C37.3187 51.9367 37.3687 51.51 37.4687 51.17C37.5687 50.83 37.742 50.5733 37.9887 50.4C38.242 50.2267 38.5887 50.14 39.0287 50.14C39.5153 50.14 39.872 50.24 40.0987 50.44C40.332 50.64 40.4853 50.93 40.5587 51.31C40.632 51.6833 40.6687 52.1333 40.6687 52.66V53.13H38.3887V54.29C38.3887 54.5233 38.4087 54.7133 38.4487 54.86C38.4953 55.0067 38.5653 55.1167 38.6587 55.19C38.7587 55.2567 38.8853 55.29 39.0387 55.29C39.1987 55.29 39.3187 55.2533 39.3987 55.18C39.4853 55.1 39.542 54.99 39.5687 54.85C39.602 54.7033 39.6187 54.5333 39.6187 54.34V53.99H40.6587V54.21C40.6587 54.79 40.5353 55.2467 40.2887 55.58C40.042 55.9133 39.622 56.08 39.0287 56.08ZM38.3887 52.55H39.6187V52.03C39.6187 51.79 39.6053 51.59 39.5787 51.43C39.552 51.2633 39.4953 51.14 39.4087 51.06C39.3287 50.9733 39.1987 50.93 39.0187 50.93C38.8453 50.93 38.712 50.97 38.6187 51.05C38.532 51.13 38.472 51.2667 38.4387 51.46C38.4053 51.6467 38.3887 51.9067 38.3887 52.24V52.55ZM43.4028 57.47V55.29C43.6028 55.1367 43.7861 54.9533 43.9528 54.74C44.1195 54.5267 44.2661 54.2567 44.3928 53.93C44.5195 53.6033 44.6195 53.2 44.6928 52.72C44.7661 52.24 44.8061 51.66 44.8128 50.98L44.8328 50.22H47.4428V55.24H48.1428V57.47H47.3628L47.2728 56H44.2728L44.1828 57.47H43.4028ZM44.4428 55.24H46.4128V50.99H45.6628L45.6428 51.2C45.6361 51.9067 45.5995 52.4967 45.5328 52.97C45.4728 53.4367 45.3861 53.82 45.2728 54.12C45.1661 54.4133 45.0395 54.6467 44.8928 54.82C44.7528 54.9933 44.6028 55.1333 44.4428 55.24ZM50.337 56.08C49.9104 56.08 49.5737 55.9933 49.327 55.82C49.0804 55.6467 48.9037 55.4 48.797 55.08C48.697 54.76 48.647 54.3833 48.647 53.95V52.27C48.647 51.8367 48.697 51.46 48.797 51.14C48.9037 50.82 49.0804 50.5733 49.327 50.4C49.5737 50.2267 49.9104 50.14 50.337 50.14C50.7637 50.14 51.097 50.2267 51.337 50.4C51.5837 50.5733 51.757 50.82 51.857 51.14C51.9637 51.46 52.017 51.8367 52.017 52.27V53.95C52.017 54.3833 51.9637 54.76 51.857 55.08C51.757 55.4 51.5837 55.6467 51.337 55.82C51.097 55.9933 50.7637 56.08 50.337 56.08ZM50.337 55.29C50.5437 55.29 50.687 55.23 50.767 55.11C50.8537 54.99 50.9037 54.8333 50.917 54.64C50.937 54.44 50.947 54.2333 50.947 54.02V52.21C50.947 51.99 50.937 51.7833 50.917 51.59C50.9037 51.3967 50.8537 51.24 50.767 51.12C50.687 50.9933 50.5437 50.93 50.337 50.93C50.1304 50.93 49.9837 50.9933 49.897 51.12C49.8104 51.24 49.757 51.3967 49.737 51.59C49.7237 51.7833 49.717 51.99 49.717 52.21V54.02C49.717 54.2333 49.7237 54.44 49.737 54.64C49.757 54.8333 49.8104 54.99 49.897 55.11C49.9837 55.23 50.1304 55.29 50.337 55.29ZM52.9951 56V50.22H56.3551V56H55.2851V51.03H54.0651V56H52.9951ZM57.3484 57.45V56.63C57.6084 56.63 57.8151 56.6167 57.9684 56.59C58.1218 56.57 58.2318 56.5267 58.2984 56.46C58.3651 56.4 58.3984 56.3133 58.3984 56.2C58.3984 56.14 58.3751 56.0067 58.3284 55.8C58.2818 55.5933 58.2318 55.3733 58.1784 55.14L57.0184 50.22H58.0984L58.8784 54.54L59.6284 50.22H60.7084L59.3284 56.32C59.2684 56.6 59.1584 56.82 58.9984 56.98C58.8384 57.1467 58.6318 57.2667 58.3784 57.34C58.1318 57.4133 57.8318 57.45 57.4784 57.45H57.3484ZM66.4045 57.47L66.3145 56H61.3545V50.22H62.3845V55.24H63.4045V50.22H64.4345V55.24H65.4545V50.22H66.4845V55.24H67.1845V57.47H66.4045ZM69.5951 56.08C69.1417 56.08 68.7917 55.9933 68.5451 55.82C68.2984 55.64 68.1251 55.38 68.0251 55.04C67.9317 54.6933 67.8851 54.27 67.8851 53.77V52.45C67.8851 51.9367 67.9351 51.51 68.0351 51.17C68.1351 50.83 68.3084 50.5733 68.5551 50.4C68.8084 50.2267 69.1551 50.14 69.5951 50.14C70.0817 50.14 70.4384 50.24 70.6651 50.44C70.8984 50.64 71.0517 50.93 71.1251 51.31C71.1984 51.6833 71.2351 52.1333 71.2351 52.66V53.13H68.9551V54.29C68.9551 54.5233 68.9751 54.7133 69.0151 54.86C69.0617 55.0067 69.1317 55.1167 69.2251 55.19C69.3251 55.2567 69.4517 55.29 69.6051 55.29C69.7651 55.29 69.8851 55.2533 69.9651 55.18C70.0517 55.1 70.1084 54.99 70.1351 54.85C70.1684 54.7033 70.1851 54.5333 70.1851 54.34V53.99H71.2251V54.21C71.2251 54.79 71.1017 55.2467 70.8551 55.58C70.6084 55.9133 70.1884 56.08 69.5951 56.08ZM68.9551 52.55H70.1851V52.03C70.1851 51.79 70.1717 51.59 70.1451 51.43C70.1184 51.2633 70.0617 51.14 69.9751 51.06C69.8951 50.9733 69.7651 50.93 69.5851 50.93C69.4117 50.93 69.2784 50.97 69.1851 51.05C69.0984 51.13 69.0384 51.2667 69.0051 51.46C68.9717 51.6467 68.9551 51.9067 68.9551 52.24V52.55ZM72.2041 56V50.22H73.2741V52.65H74.6441V50.22H75.7141V56H74.6441V53.43H73.2741V56H72.2041ZM77.8339 56.08C77.6072 56.08 77.4072 56.0167 77.2339 55.89C77.0606 55.7567 76.9239 55.59 76.8239 55.39C76.7239 55.1833 76.6739 54.9667 76.6739 54.74C76.6739 54.38 76.7339 54.0767 76.8539 53.83C76.9739 53.5833 77.1372 53.3767 77.3439 53.21C77.5572 53.0367 77.8006 52.8867 78.0739 52.76C78.3539 52.6333 78.6472 52.51 78.9539 52.39V51.98C78.9539 51.7467 78.9406 51.5533 78.9139 51.4C78.8872 51.2467 78.8306 51.1333 78.7439 51.06C78.6639 50.98 78.5406 50.94 78.3739 50.94C78.2272 50.94 78.1072 50.9733 78.0139 51.04C77.9272 51.1067 77.8639 51.2033 77.8239 51.33C77.7839 51.45 77.7639 51.5933 77.7639 51.76V52.05L76.7039 52.01C76.7172 51.37 76.8639 50.9 77.1439 50.6C77.4239 50.2933 77.8572 50.14 78.4439 50.14C79.0172 50.14 79.4239 50.2967 79.6639 50.61C79.9039 50.9233 80.0239 51.3767 80.0239 51.97V54.61C80.0239 54.79 80.0272 54.9633 80.0339 55.13C80.0472 55.2967 80.0606 55.4533 80.0739 55.6C80.0939 55.74 80.1106 55.8733 80.1239 56H79.1439C79.1239 55.8933 79.0972 55.76 79.0639 55.6C79.0372 55.4333 79.0172 55.2833 79.0039 55.15C78.9372 55.3767 78.8072 55.59 78.6139 55.79C78.4272 55.9833 78.1672 56.08 77.8339 56.08ZM78.2539 55.16C78.3606 55.16 78.4606 55.13 78.5539 55.07C78.6472 55.01 78.7306 54.9433 78.8039 54.87C78.8772 54.79 78.9272 54.7267 78.9539 54.68V53.04C78.7872 53.1333 78.6306 53.2267 78.4839 53.32C78.3372 53.4133 78.2072 53.5133 78.0939 53.62C77.9872 53.72 77.9006 53.8367 77.8339 53.97C77.7739 54.0967 77.7439 54.2433 77.7439 54.41C77.7439 54.6433 77.7872 54.8267 77.8739 54.96C77.9606 55.0933 78.0872 55.16 78.2539 55.16ZM84.9269 56.08C84.5002 56.08 84.1635 55.9933 83.9169 55.82C83.6702 55.6467 83.4935 55.4 83.3869 55.08C83.2869 54.76 83.2369 54.3833 83.2369 53.95V52.27C83.2369 51.8367 83.2869 51.46 83.3869 51.14C83.4935 50.82 83.6702 50.5733 83.9169 50.4C84.1635 50.2267 84.5002 50.14 84.9269 50.14C85.3535 50.14 85.6869 50.2267 85.9269 50.4C86.1735 50.5733 86.3469 50.82 86.4469 51.14C86.5535 51.46 86.6069 51.8367 86.6069 52.27V53.95C86.6069 54.3833 86.5535 54.76 86.4469 55.08C86.3469 55.4 86.1735 55.6467 85.9269 55.82C85.6869 55.9933 85.3535 56.08 84.9269 56.08ZM84.9269 55.29C85.1335 55.29 85.2769 55.23 85.3569 55.11C85.4435 54.99 85.4935 54.8333 85.5069 54.64C85.5269 54.44 85.5369 54.2333 85.5369 54.02V52.21C85.5369 51.99 85.5269 51.7833 85.5069 51.59C85.4935 51.3967 85.4435 51.24 85.3569 51.12C85.2769 50.9933 85.1335 50.93 84.9269 50.93C84.7202 50.93 84.5735 50.9933 84.4869 51.12C84.4002 51.24 84.3469 51.3967 84.3269 51.59C84.3135 51.7833 84.3069 51.99 84.3069 52.21V54.02C84.3069 54.2333 84.3135 54.44 84.3269 54.64C84.3469 54.8333 84.4002 54.99 84.4869 55.11C84.5735 55.23 84.7202 55.29 84.9269 55.29ZM87.5849 56V50.22H88.6149V55.24H89.6349V50.22H90.6649V55.24H91.6849V50.22H92.7149V56H87.5849ZM93.8349 56V50.22H94.7349V54.11L96.4749 50.22H97.3149V56H96.4349V52.08L94.7049 56H93.8349ZM100.015 56.08C99.6819 56.08 99.3919 56.0067 99.1452 55.86C98.8986 55.7067 98.7086 55.4833 98.5752 55.19C98.4486 54.89 98.3852 54.52 98.3852 54.08V50.68C98.3852 50.1733 98.4219 49.76 98.4952 49.44C98.5752 49.12 98.6986 48.8667 98.8652 48.68C99.0319 48.4933 99.2486 48.3467 99.5152 48.24C99.7952 48.1267 100.045 48.0467 100.265 48C100.485 47.9533 100.695 47.9033 100.895 47.85C101.102 47.79 101.312 47.6967 101.525 47.57L101.745 48.46C101.559 48.58 101.352 48.67 101.125 48.73C100.905 48.7833 100.685 48.8333 100.465 48.88C100.245 48.92 100.039 48.9867 99.8452 49.08C99.6519 49.1733 99.5019 49.3167 99.3952 49.51C99.2886 49.6967 99.2352 49.9567 99.2352 50.29V51.22C99.3219 51.1333 99.4352 51.0533 99.5752 50.98C99.7152 50.9 99.8652 50.8333 100.025 50.78C100.192 50.7267 100.349 50.7 100.495 50.7C100.735 50.7 100.955 50.7633 101.155 50.89C101.355 51.0167 101.515 51.2333 101.635 51.54C101.755 51.84 101.815 52.25 101.815 52.77V53.87C101.815 54.4767 101.739 54.94 101.585 55.26C101.432 55.5733 101.219 55.79 100.945 55.91C100.679 56.0233 100.369 56.08 100.015 56.08ZM100.115 55.29C100.262 55.29 100.379 55.2567 100.465 55.19C100.559 55.1167 100.625 55 100.665 54.84C100.712 54.68 100.735 54.4667 100.735 54.2V52.45C100.735 52.2033 100.719 52.0067 100.685 51.86C100.652 51.7133 100.599 51.6067 100.525 51.54C100.452 51.4667 100.352 51.43 100.225 51.43C100.159 51.43 100.082 51.4433 99.9952 51.47C99.9152 51.49 99.8286 51.5233 99.7352 51.57C99.6486 51.61 99.5552 51.6633 99.4552 51.73V54.11C99.4552 54.39 99.4752 54.6167 99.5152 54.79C99.5619 54.9633 99.6319 55.09 99.7252 55.17C99.8252 55.25 99.9552 55.29 100.115 55.29ZM102.79 56V50.22H103.86V52.66H104.16L105.25 50.22H106.35L105.14 53.02L106.37 56H105.25L104.16 53.3H103.86V56H102.79ZM107.98 56.08C107.754 56.08 107.554 56.0167 107.38 55.89C107.207 55.7567 107.07 55.59 106.97 55.39C106.87 55.1833 106.82 54.9667 106.82 54.74C106.82 54.38 106.88 54.0767 107 53.83C107.12 53.5833 107.284 53.3767 107.49 53.21C107.704 53.0367 107.947 52.8867 108.22 52.76C108.5 52.6333 108.794 52.51 109.1 52.39V51.98C109.1 51.7467 109.087 51.5533 109.06 51.4C109.034 51.2467 108.977 51.1333 108.89 51.06C108.81 50.98 108.687 50.94 108.52 50.94C108.374 50.94 108.254 50.9733 108.16 51.04C108.074 51.1067 108.01 51.2033 107.97 51.33C107.93 51.45 107.91 51.5933 107.91 51.76V52.05L106.85 52.01C106.864 51.37 107.01 50.9 107.29 50.6C107.57 50.2933 108.004 50.14 108.59 50.14C109.164 50.14 109.57 50.2967 109.81 50.61C110.05 50.9233 110.17 51.3767 110.17 51.97V54.61C110.17 54.79 110.174 54.9633 110.18 55.13C110.194 55.2967 110.207 55.4533 110.22 55.6C110.24 55.74 110.257 55.8733 110.27 56H109.29C109.27 55.8933 109.244 55.76 109.21 55.6C109.184 55.4333 109.164 55.2833 109.15 55.15C109.084 55.3767 108.954 55.59 108.76 55.79C108.574 55.9833 108.314 56.08 107.98 56.08ZM108.4 55.16C108.507 55.16 108.607 55.13 108.7 55.07C108.794 55.01 108.877 54.9433 108.95 54.87C109.024 54.79 109.074 54.7267 109.1 54.68V53.04C108.934 53.1333 108.777 53.2267 108.63 53.32C108.484 53.4133 108.354 53.5133 108.24 53.62C108.134 53.72 108.047 53.8367 107.98 53.97C107.92 54.0967 107.89 54.2433 107.89 54.41C107.89 54.6433 107.934 54.8267 108.02 54.96C108.107 55.0933 108.234 55.16 108.4 55.16ZM111.148 56V54.81H112.218V56H111.148ZM113.033 56V54.81H114.103V56H113.033ZM114.918 56V54.81H115.988V56H114.918Z"></path>
</svg>
