<svg xmlns="http://www.w3.org/2000/svg" fill="none" viewBox="0 0 90 22" height="22" width="90">
<rect stroke="white" fill="#0D0E12" height="21" width="89" y="0.5" x="0.5"></rect>
<path fill="white" d="M39.6301 15V6.9H41.4201V10.18H42.6701V6.9H44.4701V15H42.6701V11.46H41.4201V15H39.6301ZM45.3136 15L46.8436 6.9H48.8836L50.3936 15H48.7436L48.4736 13.29H47.2836L47.0036 15H45.3136ZM47.4436 12.22H48.3036L47.8736 9.06L47.4436 12.22ZM53.2714 15.15C52.7047 15.15 52.2581 15.0433 51.9314 14.83C51.6114 14.6167 51.3814 14.32 51.2414 13.94C51.1081 13.5533 51.0414 13.11 51.0414 12.61V12.32H52.7214C52.7214 12.3333 52.7214 12.3733 52.7214 12.44C52.7214 12.5067 52.7214 12.57 52.7214 12.63C52.7214 13.03 52.7614 13.3167 52.8414 13.49C52.9214 13.6567 53.0747 13.74 53.3014 13.74C53.4547 13.74 53.5681 13.7 53.6414 13.62C53.7214 13.54 53.7747 13.4233 53.8014 13.27C53.8347 13.11 53.8514 12.91 53.8514 12.67C53.8514 12.2633 53.7914 11.9567 53.6714 11.75C53.5514 11.5367 53.3014 11.4267 52.9214 11.42C52.9147 11.4133 52.8847 11.41 52.8314 11.41C52.7847 11.41 52.7281 11.41 52.6614 11.41C52.5947 11.41 52.5314 11.41 52.4714 11.41V10.32C52.5181 10.32 52.5647 10.32 52.6114 10.32C52.6581 10.32 52.7047 10.32 52.7514 10.32C52.7981 10.32 52.8414 10.32 52.8814 10.32C53.2747 10.3133 53.5347 10.2067 53.6614 10C53.7881 9.79333 53.8514 9.48667 53.8514 9.08C53.8514 8.76667 53.8014 8.52667 53.7014 8.36C53.6081 8.19333 53.4481 8.11 53.2214 8.11C53.0014 8.11 52.8481 8.2 52.7614 8.38C52.6814 8.55333 52.6381 8.78667 52.6314 9.08C52.6314 9.09333 52.6314 9.15 52.6314 9.25C52.6314 9.34333 52.6314 9.43667 52.6314 9.53H50.9514V9.04C50.9514 8.55333 51.0447 8.14333 51.2314 7.81C51.4247 7.47 51.6914 7.21333 52.0314 7.04C52.3714 6.86667 52.7714 6.78 53.2314 6.78C53.7047 6.78 54.1081 6.86333 54.4414 7.03C54.7814 7.19667 55.0414 7.44333 55.2214 7.77C55.4014 8.09 55.4914 8.49 55.4914 8.97C55.4914 9.44333 55.3947 9.84333 55.2014 10.17C55.0081 10.49 54.7747 10.6867 54.5014 10.76C54.6881 10.8333 54.8547 10.9433 55.0014 11.09C55.1547 11.23 55.2747 11.4233 55.3614 11.67C55.4481 11.9167 55.4914 12.2333 55.4914 12.62C55.4914 13.1133 55.4181 13.5533 55.2714 13.94C55.1314 14.32 54.8981 14.6167 54.5714 14.83C54.2447 15.0433 53.8114 15.15 53.2714 15.15ZM56.0851 15L57.6151 6.9H59.6551L61.1651 15H59.5151L59.2451 13.29H58.0551L57.7751 15H56.0851ZM58.2151 12.22H59.0751L58.6451 9.06L58.2151 12.22ZM61.5629 16.75V13.72H61.7929C61.9462 13.6733 62.0862 13.5933 62.2129 13.48C62.3462 13.36 62.4662 13.2 62.5729 13C62.6795 12.8 62.7762 12.55 62.8629 12.25C62.9495 11.95 63.0229 11.5933 63.0829 11.18C63.1429 10.76 63.1929 10.2767 63.2329 9.73L63.4529 6.9H67.2229V13.72H68.1329V16.75H66.9529L66.8629 15H62.8929L62.7929 16.75H61.5629ZM63.4829 13.72H65.5529V8.17H64.8029L64.7129 9.91C64.6795 10.4833 64.6295 10.97 64.5629 11.37C64.5029 11.77 64.4295 12.1033 64.3429 12.37C64.2629 12.63 64.1762 12.8433 64.0829 13.01C63.9895 13.1767 63.8895 13.3133 63.7829 13.42C63.6829 13.5267 63.5829 13.6267 63.4829 13.72Z"></path>
<path fill="white" d="M32.6568 11.2427C32.6568 11.795 32.2091 12.2427 31.6568 12.2427L22.6569 12.2427C22.1046 12.2427 21.6569 11.795 21.6569 11.2427V11.2427C21.6569 10.6904 22.1046 10.2427 22.6569 10.2427L31.6568 10.2427C32.2091 10.2427 32.6568 10.6904 32.6568 11.2427V11.2427Z"></path>
<path fill="white" d="M25.9498 14.7782C25.5593 15.1687 24.9261 15.1687 24.5356 14.7782L21.7071 11.9498C21.3166 11.5593 21.3166 10.9261 21.7071 10.5356V10.5356C22.0977 10.145 22.7308 10.145 23.1214 10.5356L25.9498 13.364C26.3403 13.7545 26.3403 14.3877 25.9498 14.7782V14.7782Z"></path>
<path fill="white" d="M21.7071 11.9498C21.3166 11.5593 21.3166 10.9261 21.7071 10.5356L24.5355 7.70714C24.9261 7.31662 25.5592 7.31662 25.9497 7.70714V7.70714C26.3403 8.09767 26.3403 8.73083 25.9497 9.12136L23.1213 11.9498C22.7308 12.3403 22.0976 12.3403 21.7071 11.9498V11.9498Z"></path>
</svg>
