<svg xmlns="http://www.w3.org/2000/svg" fill="none" viewBox="0 0 13 18" height="18" width="13">
<rect fill-opacity="0.01" fill="#0D0E12" height="18" width="13"></rect>
<path fill="white" d="M1.596 14V6.26C1.508 6.308 1.408 6.356 1.296 6.404C1.184 6.452 1.064 6.504 0.936 6.56C0.816 6.608 0.696 6.656 0.576 6.704C0.464 6.752 0.36 6.8 0.264 6.848V5.36C0.352 5.312 0.476 5.248 0.636 5.168C0.796 5.08 0.968 4.984 1.152 4.88C1.336 4.776 1.508 4.672 1.668 4.568C1.828 4.456 1.948 4.36 2.028 4.28H3.6V14H1.596ZM7.79606 14.18C7.11606 14.18 6.58006 14.052 6.18806 13.796C5.80406 13.54 5.52806 13.184 5.36006 12.728C5.20006 12.264 5.12006 11.732 5.12006 11.132V10.784H7.12406C7.12406 10.792 7.12406 10.836 7.12406 10.916C7.12406 10.996 7.12406 11.068 7.12406 11.132C7.12406 11.452 7.14406 11.712 7.18406 11.912C7.22406 12.112 7.29606 12.26 7.40006 12.356C7.50406 12.444 7.64806 12.488 7.83206 12.488C8.01606 12.488 8.15206 12.44 8.24006 12.344C8.33606 12.248 8.40006 12.104 8.43206 11.912C8.46406 11.72 8.48006 11.48 8.48006 11.192C8.48006 10.712 8.41206 10.348 8.27606 10.1C8.14806 9.844 7.87606 9.712 7.46006 9.704C7.45206 9.704 7.40806 9.704 7.32806 9.704C7.24806 9.704 7.16806 9.704 7.08806 9.704V8.324C7.14406 8.324 7.20006 8.324 7.25606 8.324C7.31206 8.324 7.36406 8.324 7.41206 8.324C7.83606 8.324 8.12006 8.208 8.26406 7.976C8.40806 7.744 8.48006 7.384 8.48006 6.896C8.48006 6.52 8.42806 6.232 8.32406 6.032C8.22806 5.832 8.04406 5.732 7.77206 5.732C7.50806 5.732 7.33206 5.844 7.24406 6.068C7.16406 6.292 7.12406 6.58 7.12406 6.932C7.12406 7.012 7.12406 7.096 7.12406 7.184C7.12406 7.264 7.12406 7.348 7.12406 7.436H5.12006V6.848C5.12006 6.264 5.22406 5.772 5.43206 5.372C5.64806 4.964 5.95206 4.656 6.34406 4.448C6.74406 4.24 7.22006 4.136 7.77206 4.136C8.33206 4.136 8.81206 4.236 9.21206 4.436C9.61206 4.636 9.92006 4.932 10.1361 5.324C10.3521 5.708 10.4601 6.188 10.4601 6.764C10.4601 7.332 10.3441 7.808 10.1121 8.192C9.88006 8.576 9.60006 8.812 9.27206 8.9C9.49606 8.98 9.69606 9.108 9.87206 9.284C10.0561 9.46 10.2001 9.7 10.3041 10.004C10.4081 10.3 10.4601 10.68 10.4601 11.144C10.4601 11.736 10.3721 12.26 10.1961 12.716C10.0281 13.172 9.74806 13.532 9.35606 13.796C8.96406 14.052 8.44406 14.18 7.79606 14.18Z"></path>
</svg>
