<svg xmlns="http://www.w3.org/2000/svg" fill="none" viewBox="0 0 13 18" height="18" width="13">
<rect fill-opacity="0.01" fill="#0D0E12" height="18" width="13"></rect>
<path fill="white" d="M3.312 14.144C2.68 14.144 2.164 14.008 1.764 13.736C1.372 13.456 1.084 13.076 0.9 12.596C0.716 12.116 0.624 11.568 0.624 10.952V7.436C0.624 6.804 0.696 6.24 0.84 5.744C0.992 5.248 1.26 4.86 1.644 4.58C2.028 4.292 2.58 4.148 3.3 4.148C3.924 4.148 4.416 4.244 4.776 4.436C5.136 4.628 5.392 4.908 5.544 5.276C5.696 5.644 5.772 6.1 5.772 6.644C5.772 6.676 5.772 6.708 5.772 6.74C5.78 6.764 5.784 6.788 5.784 6.812H3.9C3.9 6.42 3.868 6.132 3.804 5.948C3.748 5.756 3.584 5.66 3.312 5.66C3.128 5.66 2.988 5.716 2.892 5.828C2.804 5.94 2.744 6.136 2.712 6.416C2.68 6.696 2.664 7.088 2.664 7.592V8.456C2.76 8.288 2.916 8.16 3.132 8.072C3.348 7.976 3.592 7.924 3.864 7.916C4.376 7.9 4.784 8.016 5.088 8.264C5.4 8.512 5.624 8.852 5.76 9.284C5.896 9.708 5.964 10.184 5.964 10.712C5.964 11.392 5.884 11.992 5.724 12.512C5.564 13.024 5.292 13.424 4.908 13.712C4.524 14 3.992 14.144 3.312 14.144ZM3.336 12.668C3.52 12.668 3.652 12.608 3.732 12.488C3.82 12.36 3.876 12.176 3.9 11.936C3.932 11.688 3.948 11.384 3.948 11.024C3.948 10.704 3.936 10.428 3.912 10.196C3.896 9.964 3.844 9.784 3.756 9.656C3.668 9.52 3.52 9.452 3.312 9.452C3.216 9.452 3.124 9.472 3.036 9.512C2.948 9.552 2.872 9.604 2.808 9.668C2.744 9.724 2.696 9.78 2.664 9.836V11.42C2.664 11.636 2.68 11.84 2.712 12.032C2.752 12.224 2.82 12.38 2.916 12.5C3.02 12.612 3.16 12.668 3.336 12.668ZM9.58903 14.18C8.90903 14.18 8.37303 14.052 7.98103 13.796C7.59703 13.54 7.32103 13.184 7.15303 12.728C6.99303 12.264 6.91303 11.732 6.91303 11.132V10.784H8.91703C8.91703 10.792 8.91703 10.836 8.91703 10.916C8.91703 10.996 8.91703 11.068 8.91703 11.132C8.91703 11.452 8.93703 11.712 8.97703 11.912C9.01703 12.112 9.08903 12.26 9.19303 12.356C9.29703 12.444 9.44103 12.488 9.62503 12.488C9.80903 12.488 9.94503 12.44 10.033 12.344C10.129 12.248 10.193 12.104 10.225 11.912C10.257 11.72 10.273 11.48 10.273 11.192C10.273 10.712 10.205 10.348 10.069 10.1C9.94103 9.844 9.66903 9.712 9.25303 9.704C9.24503 9.704 9.20103 9.704 9.12103 9.704C9.04103 9.704 8.96103 9.704 8.88103 9.704V8.324C8.93703 8.324 8.99303 8.324 9.04903 8.324C9.10503 8.324 9.15703 8.324 9.20503 8.324C9.62903 8.324 9.91303 8.208 10.057 7.976C10.201 7.744 10.273 7.384 10.273 6.896C10.273 6.52 10.221 6.232 10.117 6.032C10.021 5.832 9.83703 5.732 9.56503 5.732C9.30103 5.732 9.12503 5.844 9.03703 6.068C8.95703 6.292 8.91703 6.58 8.91703 6.932C8.91703 7.012 8.91703 7.096 8.91703 7.184C8.91703 7.264 8.91703 7.348 8.91703 7.436H6.91303V6.848C6.91303 6.264 7.01703 5.772 7.22503 5.372C7.44103 4.964 7.74503 4.656 8.13703 4.448C8.53703 4.24 9.01303 4.136 9.56503 4.136C10.125 4.136 10.605 4.236 11.005 4.436C11.405 4.636 11.713 4.932 11.929 5.324C12.145 5.708 12.253 6.188 12.253 6.764C12.253 7.332 12.137 7.808 11.905 8.192C11.673 8.576 11.393 8.812 11.065 8.9C11.289 8.98 11.489 9.108 11.665 9.284C11.849 9.46 11.993 9.7 12.097 10.004C12.201 10.3 12.253 10.68 12.253 11.144C12.253 11.736 12.165 12.26 11.989 12.716C11.821 13.172 11.541 13.532 11.149 13.796C10.757 14.052 10.237 14.18 9.58903 14.18Z"></path>
</svg>
