<svg xmlns="http://www.w3.org/2000/svg" fill="none" viewBox="0 0 32 22" height="22" width="32">
<rect fill="#F1F1F1" height="22" width="32"></rect>
<path fill="white" d="M20.0209 10.636C20.4114 11.0266 20.4114 11.6597 20.0209 12.0503L14.3641 17.7071C13.9735 18.0976 13.3404 18.0976 12.9499 17.7071V17.7071C12.5593 17.3166 12.5593 16.6834 12.9499 16.2929L18.6067 10.636C18.9972 10.2455 19.6304 10.2455 20.0209 10.636V10.636Z"></path>
<path fill="white" d="M19.7784 11.7782C19.3879 12.1688 18.7547 12.1688 18.3642 11.7782L12.7073 6.12139C12.3168 5.73087 12.3168 5.0977 12.7073 4.70718V4.70718C13.0979 4.31665 13.731 4.31665 14.1215 4.70718L19.7784 10.364C20.1689 10.7546 20.1689 11.3877 19.7784 11.7782V11.7782Z"></path>
</svg>
