<svg xmlns="http://www.w3.org/2000/svg" fill="none" viewBox="0 0 13 18" height="18" width="13">
<rect fill-opacity="0.01" fill="#0D0E12" height="18" width="13"></rect>
<path fill="white" d="M3.12 14.156C2.464 14.156 1.94 14.028 1.548 13.772C1.156 13.508 0.876 13.148 0.708 12.692C0.54 12.228 0.456 11.7 0.456 11.108C0.464 10.868 0.488 10.636 0.528 10.412C0.576 10.18 0.644 9.968 0.732 9.776C0.828 9.576 0.944 9.404 1.08 9.26C1.224 9.108 1.392 8.984 1.584 8.888C1.336 8.704 1.116 8.44 0.924 8.096C0.732 7.744 0.628 7.3 0.612 6.764C0.604 6.22 0.692 5.752 0.876 5.36C1.068 4.968 1.352 4.668 1.728 4.46C2.104 4.252 2.568 4.148 3.12 4.148C3.68 4.148 4.144 4.256 4.512 4.472C4.888 4.68 5.168 4.98 5.352 5.372C5.536 5.756 5.62 6.22 5.604 6.764C5.596 7.308 5.5 7.756 5.316 8.108C5.132 8.452 4.912 8.712 4.656 8.888C4.848 8.984 5.012 9.108 5.148 9.26C5.292 9.404 5.408 9.576 5.496 9.776C5.592 9.968 5.664 10.18 5.712 10.412C5.76 10.636 5.784 10.868 5.784 11.108C5.8 11.7 5.72 12.228 5.544 12.692C5.376 13.148 5.096 13.508 4.704 13.772C4.312 14.028 3.784 14.156 3.12 14.156ZM3.12 12.68C3.336 12.68 3.492 12.6 3.588 12.44C3.684 12.28 3.744 12.092 3.768 11.876C3.792 11.652 3.804 11.448 3.804 11.264C3.812 11.016 3.8 10.776 3.768 10.544C3.744 10.312 3.684 10.124 3.588 9.98C3.492 9.828 3.336 9.752 3.12 9.752C2.912 9.752 2.76 9.828 2.664 9.98C2.568 10.124 2.504 10.312 2.472 10.544C2.448 10.768 2.436 11.008 2.436 11.264C2.436 11.448 2.448 11.652 2.472 11.876C2.496 12.1 2.556 12.292 2.652 12.452C2.756 12.604 2.912 12.68 3.12 12.68ZM3.12 8.168C3.256 8.168 3.368 8.116 3.456 8.012C3.544 7.9 3.608 7.736 3.648 7.52C3.696 7.304 3.72 7.036 3.72 6.716C3.72 6.388 3.668 6.128 3.564 5.936C3.468 5.744 3.32 5.648 3.12 5.648C2.92 5.648 2.764 5.744 2.652 5.936C2.548 6.128 2.496 6.384 2.496 6.704C2.496 7.024 2.516 7.296 2.556 7.52C2.604 7.736 2.676 7.9 2.772 8.012C2.868 8.116 2.984 8.168 3.12 8.168ZM9.38981 14.144C8.76581 14.144 8.27381 14.048 7.91381 13.856C7.55381 13.664 7.29781 13.384 7.14581 13.016C6.99381 12.64 6.91781 12.18 6.91781 11.636C6.91781 11.612 6.91781 11.588 6.91781 11.564C6.91781 11.532 6.91781 11.504 6.91781 11.48H8.78981C8.78981 11.872 8.82181 12.164 8.88581 12.356C8.95781 12.54 9.12981 12.632 9.40181 12.632C9.58581 12.632 9.72181 12.576 9.80981 12.464C9.89781 12.352 9.95381 12.156 9.97781 11.876C10.0098 11.588 10.0258 11.196 10.0258 10.7V9.836C9.92181 10.004 9.76181 10.132 9.54581 10.22C9.33781 10.308 9.10181 10.36 8.83781 10.376C8.32581 10.384 7.91381 10.256 7.60181 9.992C7.28981 9.728 7.06581 9.372 6.92981 8.924C6.79381 8.476 6.72581 7.988 6.72581 7.46C6.72581 6.78 6.80981 6.196 6.97781 5.708C7.15381 5.212 7.43781 4.828 7.82981 4.556C8.22181 4.284 8.74181 4.148 9.38981 4.148C10.0298 4.148 10.5458 4.276 10.9378 4.532C11.3298 4.788 11.6138 5.148 11.7898 5.612C11.9738 6.068 12.0658 6.608 12.0658 7.232V10.856C12.0658 11.488 11.9898 12.052 11.8378 12.548C11.6938 13.044 11.4298 13.436 11.0458 13.724C10.6618 14.004 10.1098 14.144 9.38981 14.144ZM9.41381 8.84C9.57381 8.84 9.70181 8.796 9.79781 8.708C9.89381 8.62 9.96981 8.536 10.0258 8.456V6.872C10.0258 6.648 10.0098 6.444 9.97781 6.26C9.94581 6.068 9.88581 5.916 9.79781 5.804C9.70981 5.684 9.57381 5.624 9.38981 5.624C9.21381 5.624 9.08181 5.688 8.99381 5.816C8.90581 5.936 8.84581 6.12 8.81381 6.368C8.78981 6.608 8.77781 6.908 8.77781 7.268C8.77781 7.58 8.78581 7.856 8.80181 8.096C8.82581 8.328 8.88181 8.512 8.96981 8.648C9.05781 8.776 9.20581 8.84 9.41381 8.84Z"></path>
</svg>
