<svg xmlns="http://www.w3.org/2000/svg" fill="none" viewBox="0 0 140 22" height="22" width="140">
<rect fill="#0D0E12" height="22" width="140"></rect>
<path fill="white" d="M39.33 15V8.23H38.11V6.9H42.34V8.23H41.13V15H39.33ZM42.6631 15L44.1931 6.9H46.2331L47.7431 15H46.0931L45.8231 13.29H44.6331L44.3531 15H42.6631ZM44.7931 12.22H45.6531L45.2231 9.06L44.7931 12.22ZM48.5909 15V6.9H52.6109V8.26H50.3809V10.32H50.7609C51.2743 10.32 51.7076 10.4033 52.0609 10.57C52.4209 10.7367 52.6943 10.9933 52.8809 11.34C53.0676 11.68 53.1609 12.12 53.1609 12.66C53.1609 13.1533 53.0943 13.5533 52.9609 13.86C52.8343 14.1667 52.6543 14.4033 52.4209 14.57C52.1876 14.7367 51.9143 14.85 51.6009 14.91C51.2943 14.97 50.9609 15 50.6009 15H48.5909ZM50.3809 13.83H50.6109C50.8376 13.83 51.0176 13.7867 51.1509 13.7C51.2843 13.6133 51.3776 13.48 51.4309 13.3C51.4843 13.12 51.5076 12.8933 51.5009 12.62C51.4943 12.32 51.4309 12.07 51.3109 11.87C51.1909 11.6633 50.9509 11.56 50.5909 11.56H50.3809V13.83ZM53.568 15V13.74C53.7947 13.74 53.978 13.7267 54.118 13.7C54.258 13.6667 54.368 13.5933 54.448 13.48C54.528 13.3667 54.5914 13.1933 54.638 12.96C54.6847 12.7267 54.7214 12.4133 54.748 12.02C54.7814 11.6267 54.8214 11.1267 54.868 10.52L55.128 6.9H59.418V15H57.638V8.27H56.748L56.588 10.86C56.5414 11.5267 56.4947 12.1033 56.448 12.59C56.4014 13.07 56.3247 13.4733 56.218 13.8C56.118 14.1267 55.9647 14.3833 55.758 14.57C55.558 14.75 55.2814 14.8733 54.928 14.94C54.5747 15.0067 54.1214 15.0267 53.568 15ZM60.6905 15V6.9H62.1005V11.54L64.1705 6.9H65.3305V15H63.8905V10.28L61.7805 15H60.6905ZM71.319 16.75L71.089 15H66.589V6.9H68.379V13.79H69.739V6.9H71.529V13.79H72.629V16.75H71.319ZM73.0245 15L74.5545 6.9H76.5945L78.1045 15H76.4545L76.1845 13.29H74.9945L74.7145 15H73.0245ZM75.1545 12.22H76.0145L75.5845 9.06L75.1545 12.22ZM81.5109 15V6.9H82.9209V11.54L84.9909 6.9H86.1509V15H84.7109V10.28L82.6009 15H81.5109ZM87.4093 15V6.9H91.1593V8.23H89.1993V15H87.4093ZM92.0082 15V6.9H94.7282C95.2149 6.9 95.6149 6.99333 95.9282 7.18C96.2415 7.36 96.4749 7.62667 96.6282 7.98C96.7815 8.32667 96.8582 8.75 96.8582 9.25C96.8582 9.87667 96.7549 10.3567 96.5482 10.69C96.3415 11.0167 96.0615 11.2433 95.7082 11.37C95.3549 11.4967 94.9582 11.56 94.5182 11.56H93.7982V15H92.0082ZM93.7982 10.31H94.3982C94.6182 10.31 94.7849 10.27 94.8982 10.19C95.0115 10.11 95.0849 9.99 95.1182 9.83C95.1582 9.67 95.1782 9.46667 95.1782 9.22C95.1782 9.01333 95.1615 8.83333 95.1282 8.68C95.1015 8.52 95.0315 8.39333 94.9182 8.3C94.8049 8.20667 94.6282 8.16 94.3882 8.16H93.7982V10.31ZM100.041 15.12C99.4344 15.12 98.9544 15.0133 98.6011 14.8C98.2478 14.5867 97.9944 14.28 97.8411 13.88C97.6878 13.48 97.6111 13.0033 97.6111 12.45V9.44C97.6111 8.88 97.6878 8.40333 97.8411 8.01C97.9944 7.61667 98.2478 7.31667 98.6011 7.11C98.9544 6.89667 99.4344 6.79 100.041 6.79C100.654 6.79 101.138 6.89667 101.491 7.11C101.851 7.31667 102.108 7.61667 102.261 8.01C102.414 8.40333 102.491 8.88 102.491 9.44V12.45C102.491 13.0033 102.414 13.48 102.261 13.88C102.108 14.28 101.851 14.5867 101.491 14.8C101.138 15.0133 100.654 15.12 100.041 15.12ZM100.041 13.85C100.228 13.85 100.364 13.8033 100.451 13.71C100.538 13.6167 100.594 13.4967 100.621 13.35C100.648 13.2033 100.661 13.0533 100.661 12.9V9C100.661 8.84 100.648 8.69 100.621 8.55C100.594 8.40333 100.538 8.28333 100.451 8.19C100.364 8.09667 100.228 8.05 100.041 8.05C99.8678 8.05 99.7378 8.09667 99.6511 8.19C99.5644 8.28333 99.5078 8.40333 99.4811 8.55C99.4544 8.69 99.4411 8.84 99.4411 9V12.9C99.4411 13.0533 99.4511 13.2033 99.4711 13.35C99.4978 13.4967 99.5511 13.6167 99.6311 13.71C99.7178 13.8033 99.8544 13.85 100.041 13.85ZM103.61 15V6.9H105.4V10.11H105.58L106.77 6.9H108.55L107.07 10.7L108.6 15H106.76L105.58 11.47H105.4V15H103.61ZM111.623 15.12C111.016 15.12 110.536 15.0133 110.183 14.8C109.83 14.5867 109.576 14.28 109.423 13.88C109.27 13.48 109.193 13.0033 109.193 12.45V9.44C109.193 8.88 109.27 8.40333 109.423 8.01C109.576 7.61667 109.83 7.31667 110.183 7.11C110.536 6.89667 111.016 6.79 111.623 6.79C112.236 6.79 112.72 6.89667 113.073 7.11C113.433 7.31667 113.69 7.61667 113.843 8.01C113.996 8.40333 114.073 8.88 114.073 9.44V12.45C114.073 13.0033 113.996 13.48 113.843 13.88C113.69 14.28 113.433 14.5867 113.073 14.8C112.72 15.0133 112.236 15.12 111.623 15.12ZM111.623 13.85C111.81 13.85 111.946 13.8033 112.033 13.71C112.12 13.6167 112.176 13.4967 112.203 13.35C112.23 13.2033 112.243 13.0533 112.243 12.9V9C112.243 8.84 112.23 8.69 112.203 8.55C112.176 8.40333 112.12 8.28333 112.033 8.19C111.946 8.09667 111.81 8.05 111.623 8.05C111.45 8.05 111.32 8.09667 111.233 8.19C111.146 8.28333 111.09 8.40333 111.063 8.55C111.036 8.69 111.023 8.84 111.023 9V12.9C111.023 13.0533 111.033 13.2033 111.053 13.35C111.08 13.4967 111.133 13.6167 111.213 13.71C111.3 13.8033 111.436 13.85 111.623 13.85ZM115.163 15V6.9H117.273C117.619 6.9 117.946 6.92667 118.253 6.98C118.566 7.03333 118.843 7.13667 119.083 7.29C119.323 7.43667 119.509 7.65 119.643 7.93C119.783 8.20333 119.853 8.56667 119.853 9.02C119.853 9.34667 119.803 9.62333 119.702 9.85C119.609 10.07 119.473 10.2467 119.293 10.38C119.119 10.5133 118.909 10.6033 118.663 10.65C118.976 10.69 119.239 10.7933 119.453 10.96C119.666 11.12 119.826 11.3367 119.933 11.61C120.046 11.8833 120.103 12.2133 120.103 12.6C120.103 13.02 120.046 13.3833 119.933 13.69C119.826 13.99 119.669 14.2367 119.463 14.43C119.256 14.6233 118.999 14.7667 118.693 14.86C118.393 14.9533 118.046 15 117.653 15H115.163ZM116.953 13.75H117.333C117.726 13.75 117.996 13.65 118.143 13.45C118.296 13.25 118.373 12.9567 118.373 12.57C118.373 12.2633 118.339 12.02 118.273 11.84C118.206 11.66 118.096 11.53 117.943 11.45C117.789 11.3633 117.583 11.32 117.323 11.32H116.953V13.75ZM116.953 10.14H117.303C117.576 10.14 117.783 10.1 117.923 10.02C118.063 9.93333 118.156 9.81 118.203 9.65C118.256 9.49 118.283 9.29667 118.283 9.07C118.283 8.85667 118.243 8.68 118.163 8.54C118.089 8.39333 117.976 8.28333 117.823 8.21C117.676 8.13667 117.489 8.1 117.263 8.1H116.953V10.14Z"></path>
<rect fill="white" height="2" width="2" y="6" x="19"></rect>
<rect fill="white" height="2" width="2" y="10" x="19"></rect>
<rect fill="white" height="2" width="2" y="14" x="19"></rect>
<rect fill="white" transform="rotate(90 32 6)" height="9" width="2" y="6" x="32"></rect>
<rect fill="white" transform="rotate(90 32 10)" height="9" width="2" y="10" x="32"></rect>
<rect fill="white" transform="rotate(90 32 14)" height="9" width="2" y="14" x="32"></rect>
</svg>
