<svg xmlns="http://www.w3.org/2000/svg" fill="none" viewBox="0 0 214 84" height="84" width="214">
<mask fill="white" id="path-1-inside-1_1272_18">
<path d="M0 0H214V84H0V0Z"></path>
</mask>
<path fill="#0D0E12" d="M0 0H214V84H0V0Z"></path>
<path mask="url(#path-1-inside-1_1272_18)" fill="white" d="M0 0V-1H-1V0H0ZM0 84H-1V85H0V84ZM0 1H214V-1H0V1ZM214 83H0V85H214V83ZM1 84V0H-1V84H1Z"></path>
<path fill="white" d="M19.504 38.144C18.768 38.144 18.184 38.012 17.752 37.748C17.328 37.476 17.028 37.1 16.852 36.62C16.676 36.132 16.588 35.56 16.588 34.904V31.4C16.588 30.728 16.676 30.152 16.852 29.672C17.028 29.184 17.328 28.808 17.752 28.544C18.184 28.28 18.768 28.148 19.504 28.148C20.224 28.148 20.784 28.268 21.184 28.508C21.592 28.74 21.88 29.068 22.048 29.492C22.216 29.916 22.3 30.404 22.3 30.956V31.796H20.2V30.824C20.2 30.632 20.188 30.448 20.164 30.272C20.148 30.096 20.092 29.952 19.996 29.84C19.9 29.72 19.736 29.66 19.504 29.66C19.28 29.66 19.112 29.72 19 29.84C18.896 29.96 18.828 30.112 18.796 30.296C18.772 30.472 18.76 30.66 18.76 30.86V35.432C18.76 35.648 18.776 35.848 18.808 36.032C18.848 36.208 18.92 36.352 19.024 36.464C19.136 36.568 19.296 36.62 19.504 36.62C19.728 36.62 19.888 36.564 19.984 36.452C20.08 36.332 20.14 36.18 20.164 35.996C20.188 35.812 20.2 35.624 20.2 35.432V34.412H22.3V35.252C22.3 35.804 22.216 36.3 22.048 36.74C21.888 37.172 21.604 37.516 21.196 37.772C20.796 38.02 20.232 38.144 19.504 38.144ZM26.2657 38.144C25.5377 38.144 24.9617 38.016 24.5377 37.76C24.1137 37.504 23.8097 37.136 23.6257 36.656C23.4417 36.176 23.3497 35.604 23.3497 34.94V31.328C23.3497 30.656 23.4417 30.084 23.6257 29.612C23.8097 29.14 24.1137 28.78 24.5377 28.532C24.9617 28.276 25.5377 28.148 26.2657 28.148C27.0017 28.148 27.5817 28.276 28.0057 28.532C28.4377 28.78 28.7457 29.14 28.9297 29.612C29.1137 30.084 29.2057 30.656 29.2057 31.328V34.94C29.2057 35.604 29.1137 36.176 28.9297 36.656C28.7457 37.136 28.4377 37.504 28.0057 37.76C27.5817 38.016 27.0017 38.144 26.2657 38.144ZM26.2657 36.62C26.4897 36.62 26.6537 36.564 26.7577 36.452C26.8617 36.34 26.9297 36.196 26.9617 36.02C26.9937 35.844 27.0097 35.664 27.0097 35.48V30.8C27.0097 30.608 26.9937 30.428 26.9617 30.26C26.9297 30.084 26.8617 29.94 26.7577 29.828C26.6537 29.716 26.4897 29.66 26.2657 29.66C26.0577 29.66 25.9017 29.716 25.7977 29.828C25.6937 29.94 25.6257 30.084 25.5937 30.26C25.5617 30.428 25.5457 30.608 25.5457 30.8V35.48C25.5457 35.664 25.5577 35.844 25.5817 36.02C25.6137 36.196 25.6777 36.34 25.7737 36.452C25.8777 36.564 26.0417 36.62 26.2657 36.62ZM33.297 38.144C32.569 38.144 31.993 38.016 31.569 37.76C31.145 37.504 30.841 37.136 30.657 36.656C30.473 36.176 30.381 35.604 30.381 34.94V31.328C30.381 30.656 30.473 30.084 30.657 29.612C30.841 29.14 31.145 28.78 31.569 28.532C31.993 28.276 32.569 28.148 33.297 28.148C34.033 28.148 34.613 28.276 35.037 28.532C35.469 28.78 35.777 29.14 35.961 29.612C36.145 30.084 36.237 30.656 36.237 31.328V34.94C36.237 35.604 36.145 36.176 35.961 36.656C35.777 37.136 35.469 37.504 35.037 37.76C34.613 38.016 34.033 38.144 33.297 38.144ZM33.297 36.62C33.521 36.62 33.685 36.564 33.789 36.452C33.893 36.34 33.961 36.196 33.993 36.02C34.025 35.844 34.041 35.664 34.041 35.48V30.8C34.041 30.608 34.025 30.428 33.993 30.26C33.961 30.084 33.893 29.94 33.789 29.828C33.685 29.716 33.521 29.66 33.297 29.66C33.089 29.66 32.933 29.716 32.829 29.828C32.725 29.94 32.657 30.084 32.625 30.26C32.593 30.428 32.577 30.608 32.577 30.8V35.48C32.577 35.664 32.589 35.844 32.613 36.02C32.645 36.196 32.709 36.34 32.805 36.452C32.909 36.564 33.073 36.62 33.297 36.62ZM37.5802 38V28.28H42.4042V29.912H39.7282V32.384H40.1842C40.8002 32.384 41.3202 32.484 41.7442 32.684C42.1762 32.884 42.5042 33.192 42.7282 33.608C42.9522 34.016 43.0642 34.544 43.0642 35.192C43.0642 35.784 42.9842 36.264 42.8242 36.632C42.6722 37 42.4562 37.284 42.1762 37.484C41.8962 37.684 41.5682 37.82 41.1922 37.892C40.8242 37.964 40.4242 38 39.9922 38H37.5802ZM39.7282 36.596H40.0042C40.2762 36.596 40.4922 36.544 40.6522 36.44C40.8122 36.336 40.9242 36.176 40.9882 35.96C41.0522 35.744 41.0802 35.472 41.0722 35.144C41.0642 34.784 40.9882 34.484 40.8442 34.244C40.7002 33.996 40.4122 33.872 39.9802 33.872H39.7282V36.596ZM52.3728 40.1L52.1208 38H44.2248V28.28H46.2528V36.548H47.4408V28.28H49.4568V36.548H50.5968V28.28H52.6248V36.548H53.9448V40.1H52.3728ZM55.1809 38V28.28H59.5489V29.744H57.3289V32.156H59.0209V33.644H57.3289V36.548H59.5729V38H55.1809ZM60.5841 38V28.28H62.7321V32.216H64.2321V28.28H66.3921V38H64.2321V33.752H62.7321V38H60.5841ZM67.9083 38V28.28H69.6003V33.848L72.0843 28.28H73.4763V38H71.7483V32.336L69.2163 38H67.9083ZM74.9505 38V28.28H79.3185V29.744H77.0985V32.156H78.7905V33.644H77.0985V36.548H79.3425V38H74.9505Z"></path>
<path fill="white" d="M18.66 56.09C18.0867 56.09 17.64 55.97 17.32 55.73C17.0067 55.49 16.7867 55.1667 16.66 54.76C16.54 54.3533 16.48 53.9 16.48 53.4V50.54C16.48 49.9933 16.54 49.5167 16.66 49.11C16.7867 48.7033 17.0067 48.39 17.32 48.17C17.64 47.9433 18.0867 47.83 18.66 47.83C19.1667 47.83 19.5667 47.9233 19.86 48.11C20.16 48.2967 20.3733 48.5633 20.5 48.91C20.6333 49.2567 20.7 49.6733 20.7 50.16V50.8H19.63V50.23C19.63 49.93 19.6133 49.6667 19.58 49.44C19.5533 49.2067 19.4733 49.0267 19.34 48.9C19.2067 48.7733 18.9833 48.71 18.67 48.71C18.35 48.71 18.1167 48.78 17.97 48.92C17.8233 49.0533 17.7267 49.2467 17.68 49.5C17.64 49.7467 17.62 50.0367 17.62 50.37V53.58C17.62 53.9867 17.6533 54.31 17.72 54.55C17.7867 54.7833 17.8967 54.95 18.05 55.05C18.2033 55.15 18.41 55.2 18.67 55.2C18.9767 55.2 19.1967 55.1333 19.33 55C19.4633 54.86 19.5467 54.67 19.58 54.43C19.6133 54.19 19.63 53.91 19.63 53.59V52.99H20.7V53.59C20.7 54.0833 20.64 54.52 20.52 54.9C20.4 55.2733 20.1933 55.5667 19.9 55.78C19.6067 55.9867 19.1933 56.09 18.66 56.09ZM23.2765 56.08C22.8498 56.08 22.5132 55.9933 22.2665 55.82C22.0198 55.6467 21.8432 55.4 21.7365 55.08C21.6365 54.76 21.5865 54.3833 21.5865 53.95V52.27C21.5865 51.8367 21.6365 51.46 21.7365 51.14C21.8432 50.82 22.0198 50.5733 22.2665 50.4C22.5132 50.2267 22.8498 50.14 23.2765 50.14C23.7032 50.14 24.0365 50.2267 24.2765 50.4C24.5232 50.5733 24.6965 50.82 24.7965 51.14C24.9032 51.46 24.9565 51.8367 24.9565 52.27V53.95C24.9565 54.3833 24.9032 54.76 24.7965 55.08C24.6965 55.4 24.5232 55.6467 24.2765 55.82C24.0365 55.9933 23.7032 56.08 23.2765 56.08ZM23.2765 55.29C23.4832 55.29 23.6265 55.23 23.7065 55.11C23.7932 54.99 23.8432 54.8333 23.8565 54.64C23.8765 54.44 23.8865 54.2333 23.8865 54.02V52.21C23.8865 51.99 23.8765 51.7833 23.8565 51.59C23.8432 51.3967 23.7932 51.24 23.7065 51.12C23.6265 50.9933 23.4832 50.93 23.2765 50.93C23.0698 50.93 22.9232 50.9933 22.8365 51.12C22.7498 51.24 22.6965 51.3967 22.6765 51.59C22.6632 51.7833 22.6565 51.99 22.6565 52.21V54.02C22.6565 54.2333 22.6632 54.44 22.6765 54.64C22.6965 54.8333 22.7498 54.99 22.8365 55.11C22.9232 55.23 23.0698 55.29 23.2765 55.29ZM25.9345 56V50.22H29.2945V56H28.2245V51.03H27.0045V56H25.9345ZM31.9779 56.08C31.5246 56.08 31.1746 55.9933 30.9279 55.82C30.6812 55.64 30.5079 55.38 30.4079 55.04C30.3146 54.6933 30.2679 54.27 30.2679 53.77V52.45C30.2679 51.9367 30.3179 51.51 30.4179 51.17C30.5179 50.83 30.6912 50.5733 30.9379 50.4C31.1912 50.2267 31.5379 50.14 31.9779 50.14C32.4646 50.14 32.8212 50.24 33.0479 50.44C33.2812 50.64 33.4346 50.93 33.5079 51.31C33.5812 51.6833 33.6179 52.1333 33.6179 52.66V53.13H31.3379V54.29C31.3379 54.5233 31.3579 54.7133 31.3979 54.86C31.4446 55.0067 31.5146 55.1167 31.6079 55.19C31.7079 55.2567 31.8346 55.29 31.9879 55.29C32.1479 55.29 32.2679 55.2533 32.3479 55.18C32.4346 55.1 32.4912 54.99 32.5179 54.85C32.5512 54.7033 32.5679 54.5333 32.5679 54.34V53.99H33.6079V54.21C33.6079 54.79 33.4846 55.2467 33.2379 55.58C32.9912 55.9133 32.5712 56.08 31.9779 56.08ZM31.3379 52.55H32.5679V52.03C32.5679 51.79 32.5546 51.59 32.5279 51.43C32.5012 51.2633 32.4446 51.14 32.3579 51.06C32.2779 50.9733 32.1479 50.93 31.9679 50.93C31.7946 50.93 31.6612 50.97 31.5679 51.05C31.4812 51.13 31.4212 51.2667 31.3879 51.46C31.3546 51.6467 31.3379 51.9067 31.3379 52.24V52.55ZM34.5869 57.9V50.22H35.6569V50.68C35.7835 50.5333 35.9369 50.4067 36.1169 50.3C36.2969 50.1933 36.5102 50.14 36.7569 50.14C37.0569 50.14 37.2935 50.22 37.4669 50.38C37.6469 50.5333 37.7802 50.73 37.8669 50.97C37.9535 51.2033 38.0102 51.4433 38.0369 51.69C38.0635 51.93 38.0769 52.1367 38.0769 52.31V53.71C38.0769 54.1167 38.0369 54.5033 37.9569 54.87C37.8769 55.23 37.7302 55.5233 37.5169 55.75C37.3102 55.97 37.0169 56.08 36.6369 56.08C36.4302 56.08 36.2469 56.03 36.0869 55.93C35.9269 55.8233 35.7835 55.7033 35.6569 55.57V57.9H34.5869ZM36.4269 55.24C36.6135 55.24 36.7469 55.1733 36.8269 55.04C36.9069 54.9 36.9569 54.7133 36.9769 54.48C36.9969 54.2467 37.0069 53.99 37.0069 53.71V52.31C37.0069 52.07 36.9935 51.85 36.9669 51.65C36.9402 51.4433 36.8835 51.28 36.7969 51.16C36.7102 51.04 36.5735 50.98 36.3869 50.98C36.2469 50.98 36.1135 51.01 35.9869 51.07C35.8602 51.13 35.7502 51.2 35.6569 51.28V54.98C35.7569 55.0533 35.8702 55.1167 35.9969 55.17C36.1235 55.2167 36.2669 55.24 36.4269 55.24ZM39.0498 56V50.22H40.1198V52.65H41.4898V50.22H42.5598V56H41.4898V53.43H40.1198V56H39.0498ZM43.6396 56V50.22H44.5396V54.11L46.2796 50.22H47.1196V56H46.2396V52.08L44.5096 56H43.6396ZM48.2099 56V50.22H49.2799V52.66H49.5799L50.6699 50.22H51.7699L50.5599 53.02L51.7899 56H50.6699L49.5799 53.3H49.2799V56H48.2099ZM54.6455 56V50.22H58.0055V56H56.9355V51.03H55.7155V56H54.6455ZM59.0888 57.9V50.22H60.1588V50.68C60.2855 50.5333 60.4388 50.4067 60.6188 50.3C60.7988 50.1933 61.0122 50.14 61.2588 50.14C61.5588 50.14 61.7955 50.22 61.9688 50.38C62.1488 50.5333 62.2822 50.73 62.3688 50.97C62.4555 51.2033 62.5122 51.4433 62.5388 51.69C62.5655 51.93 62.5788 52.1367 62.5788 52.31V53.71C62.5788 54.1167 62.5388 54.5033 62.4588 54.87C62.3788 55.23 62.2322 55.5233 62.0188 55.75C61.8122 55.97 61.5188 56.08 61.1388 56.08C60.9322 56.08 60.7488 56.03 60.5888 55.93C60.4288 55.8233 60.2855 55.7033 60.1588 55.57V57.9H59.0888ZM60.9288 55.24C61.1155 55.24 61.2488 55.1733 61.3288 55.04C61.4088 54.9 61.4588 54.7133 61.4788 54.48C61.4988 54.2467 61.5088 53.99 61.5088 53.71V52.31C61.5088 52.07 61.4955 51.85 61.4688 51.65C61.4422 51.4433 61.3855 51.28 61.2988 51.16C61.2122 51.04 61.0755 50.98 60.8888 50.98C60.7488 50.98 60.6155 51.01 60.4888 51.07C60.3622 51.13 60.2522 51.2 60.1588 51.28V54.98C60.2588 55.0533 60.3722 55.1167 60.4988 55.17C60.6255 55.2167 60.7688 55.24 60.9288 55.24ZM65.1517 56.08C64.6984 56.08 64.3484 55.9933 64.1017 55.82C63.8551 55.64 63.6817 55.38 63.5817 55.04C63.4884 54.6933 63.4417 54.27 63.4417 53.77V52.45C63.4417 51.9367 63.4917 51.51 63.5917 51.17C63.6917 50.83 63.8651 50.5733 64.1117 50.4C64.3651 50.2267 64.7117 50.14 65.1517 50.14C65.6384 50.14 65.9951 50.24 66.2217 50.44C66.4551 50.64 66.6084 50.93 66.6817 51.31C66.7551 51.6833 66.7917 52.1333 66.7917 52.66V53.13H64.5117V54.29C64.5117 54.5233 64.5317 54.7133 64.5717 54.86C64.6184 55.0067 64.6884 55.1167 64.7817 55.19C64.8817 55.2567 65.0084 55.29 65.1617 55.29C65.3217 55.29 65.4417 55.2533 65.5217 55.18C65.6084 55.1 65.6651 54.99 65.6917 54.85C65.7251 54.7033 65.7417 54.5333 65.7417 54.34V53.99H66.7817V54.21C66.7817 54.79 66.6584 55.2467 66.4117 55.58C66.1651 55.9133 65.7451 56.08 65.1517 56.08ZM64.5117 52.55H65.7417V52.03C65.7417 51.79 65.7284 51.59 65.7017 51.43C65.6751 51.2633 65.6184 51.14 65.5317 51.06C65.4517 50.9733 65.3217 50.93 65.1417 50.93C64.9684 50.93 64.8351 50.97 64.7417 51.05C64.6551 51.13 64.5951 51.2667 64.5617 51.46C64.5284 51.6467 64.5117 51.9067 64.5117 52.24V52.55ZM67.2407 57.47V55.29C67.4407 55.1367 67.624 54.9533 67.7907 54.74C67.9574 54.5267 68.104 54.2567 68.2307 53.93C68.3574 53.6033 68.4574 53.2 68.5307 52.72C68.604 52.24 68.644 51.66 68.6507 50.98L68.6707 50.22H71.2807V55.24H71.9807V57.47H71.2007L71.1107 56H68.1107L68.0207 57.47H67.2407ZM68.2807 55.24H70.2507V50.99H69.5007L69.4807 51.2C69.474 51.9067 69.4374 52.4967 69.3707 52.97C69.3107 53.4367 69.224 53.82 69.1107 54.12C69.004 54.4133 68.8774 54.6467 68.7307 54.82C68.5907 54.9933 68.4407 55.1333 68.2807 55.24ZM72.3516 56.05V55.24C72.5516 55.24 72.7083 55.2 72.8216 55.12C72.9416 55.04 73.0316 54.9067 73.0916 54.72C73.1583 54.5267 73.2083 54.27 73.2416 53.95C73.275 53.6233 73.305 53.2167 73.3316 52.73L73.4616 50.22H76.4916V56H75.4216V51.03H74.4016L74.3116 52.73C74.2783 53.39 74.2283 53.9367 74.1616 54.37C74.1016 54.8033 74.005 55.1433 73.8716 55.39C73.7383 55.63 73.5583 55.8 73.3316 55.9C73.1116 56 72.825 56.05 72.4716 56.05H72.3516ZM78.6152 56.08C78.3885 56.08 78.1885 56.0167 78.0152 55.89C77.8418 55.7567 77.7052 55.59 77.6052 55.39C77.5052 55.1833 77.4552 54.9667 77.4552 54.74C77.4552 54.38 77.5152 54.0767 77.6352 53.83C77.7552 53.5833 77.9185 53.3767 78.1252 53.21C78.3385 53.0367 78.5818 52.8867 78.8552 52.76C79.1352 52.6333 79.4285 52.51 79.7352 52.39V51.98C79.7352 51.7467 79.7218 51.5533 79.6952 51.4C79.6685 51.2467 79.6118 51.1333 79.5252 51.06C79.4452 50.98 79.3218 50.94 79.1552 50.94C79.0085 50.94 78.8885 50.9733 78.7952 51.04C78.7085 51.1067 78.6452 51.2033 78.6052 51.33C78.5652 51.45 78.5452 51.5933 78.5452 51.76V52.05L77.4852 52.01C77.4985 51.37 77.6452 50.9 77.9252 50.6C78.2052 50.2933 78.6385 50.14 79.2252 50.14C79.7985 50.14 80.2052 50.2967 80.4452 50.61C80.6852 50.9233 80.8052 51.3767 80.8052 51.97V54.61C80.8052 54.79 80.8085 54.9633 80.8152 55.13C80.8285 55.2967 80.8418 55.4533 80.8552 55.6C80.8752 55.74 80.8918 55.8733 80.9052 56H79.9252C79.9052 55.8933 79.8785 55.76 79.8452 55.6C79.8185 55.4333 79.7985 55.2833 79.7852 55.15C79.7185 55.3767 79.5885 55.59 79.3952 55.79C79.2085 55.9833 78.9485 56.08 78.6152 56.08ZM79.0352 55.16C79.1418 55.16 79.2418 55.13 79.3352 55.07C79.4285 55.01 79.5118 54.9433 79.5852 54.87C79.6585 54.79 79.7085 54.7267 79.7352 54.68V53.04C79.5685 53.1333 79.4118 53.2267 79.2652 53.32C79.1185 53.4133 78.9885 53.5133 78.8752 53.62C78.7685 53.72 78.6818 53.8367 78.6152 53.97C78.5552 54.0967 78.5252 54.2433 78.5252 54.41C78.5252 54.6433 78.5685 54.8267 78.6552 54.96C78.7418 55.0933 78.8685 55.16 79.0352 55.16ZM81.833 56V50.22H84.163V50.99H82.903V56H81.833ZM85.7148 56.08C85.4881 56.08 85.2881 56.0167 85.1148 55.89C84.9414 55.7567 84.8048 55.59 84.7048 55.39C84.6048 55.1833 84.5548 54.9667 84.5548 54.74C84.5548 54.38 84.6148 54.0767 84.7348 53.83C84.8548 53.5833 85.0181 53.3767 85.2248 53.21C85.4381 53.0367 85.6814 52.8867 85.9548 52.76C86.2348 52.6333 86.5281 52.51 86.8348 52.39V51.98C86.8348 51.7467 86.8214 51.5533 86.7948 51.4C86.7681 51.2467 86.7114 51.1333 86.6248 51.06C86.5448 50.98 86.4214 50.94 86.2548 50.94C86.1081 50.94 85.9881 50.9733 85.8948 51.04C85.8081 51.1067 85.7448 51.2033 85.7048 51.33C85.6648 51.45 85.6448 51.5933 85.6448 51.76V52.05L84.5848 52.01C84.5981 51.37 84.7448 50.9 85.0248 50.6C85.3048 50.2933 85.7381 50.14 86.3248 50.14C86.8981 50.14 87.3048 50.2967 87.5448 50.61C87.7848 50.9233 87.9048 51.3767 87.9048 51.97V54.61C87.9048 54.79 87.9081 54.9633 87.9148 55.13C87.9281 55.2967 87.9414 55.4533 87.9548 55.6C87.9748 55.74 87.9914 55.8733 88.0048 56H87.0248C87.0048 55.8933 86.9781 55.76 86.9448 55.6C86.9181 55.4333 86.8981 55.2833 86.8848 55.15C86.8181 55.3767 86.6881 55.59 86.4948 55.79C86.3081 55.9833 86.0481 56.08 85.7148 56.08ZM86.1348 55.16C86.2414 55.16 86.3414 55.13 86.4348 55.07C86.5281 55.01 86.6114 54.9433 86.6848 54.87C86.7581 54.79 86.8081 54.7267 86.8348 54.68V53.04C86.6681 53.1333 86.5114 53.2267 86.3648 53.32C86.2181 53.4133 86.0881 53.5133 85.9748 53.62C85.8681 53.72 85.7814 53.8367 85.7148 53.97C85.6548 54.0967 85.6248 54.2433 85.6248 54.41C85.6248 54.6433 85.6681 54.8267 85.7548 54.96C85.8414 55.0933 85.9681 55.16 86.1348 55.16ZM90.5326 56.08C90.0792 56.08 89.7292 55.9933 89.4826 55.82C89.2359 55.64 89.0626 55.38 88.9626 55.04C88.8692 54.6933 88.8226 54.27 88.8226 53.77V52.45C88.8226 51.9367 88.8726 51.51 88.9726 51.17C89.0726 50.83 89.2459 50.5733 89.4926 50.4C89.7459 50.2267 90.0926 50.14 90.5326 50.14C91.0192 50.14 91.3759 50.24 91.6026 50.44C91.8359 50.64 91.9892 50.93 92.0626 51.31C92.1359 51.6833 92.1726 52.1333 92.1726 52.66V53.13H89.8926V54.29C89.8926 54.5233 89.9126 54.7133 89.9526 54.86C89.9992 55.0067 90.0692 55.1167 90.1626 55.19C90.2626 55.2567 90.3892 55.29 90.5426 55.29C90.7026 55.29 90.8226 55.2533 90.9026 55.18C90.9892 55.1 91.0459 54.99 91.0726 54.85C91.1059 54.7033 91.1226 54.5333 91.1226 54.34V53.99H92.1626V54.21C92.1626 54.79 92.0392 55.2467 91.7926 55.58C91.5459 55.9133 91.1259 56.08 90.5326 56.08ZM89.8926 52.55H91.1226V52.03C91.1226 51.79 91.1092 51.59 91.0826 51.43C91.0559 51.2633 90.9992 51.14 90.9126 51.06C90.8326 50.9733 90.7026 50.93 90.5226 50.93C90.3492 50.93 90.2159 50.97 90.1226 51.05C90.0359 51.13 89.9759 51.2667 89.9426 51.46C89.9092 51.6467 89.8926 51.9067 89.8926 52.24V52.55ZM93.7525 56V51.02H92.6725V50.22H95.9125V51.02H94.8225V56H93.7525ZM98.8447 56V50.22H99.9147V52.65H101.285V50.22H102.355V56H101.285V53.43H99.9147V56H98.8447ZM103.435 56V50.22H104.335V54.11L106.075 50.22H106.915V56H106.035V52.08L104.305 56H103.435ZM110.175 56V53.71C110.048 53.7233 109.922 53.7367 109.795 53.75C109.668 53.7633 109.538 53.77 109.405 53.77C109.118 53.77 108.855 53.73 108.615 53.65C108.375 53.57 108.185 53.4267 108.045 53.22C107.905 53.0067 107.835 52.71 107.835 52.33V50.22H108.905V52.34C108.905 52.5467 108.952 52.71 109.045 52.83C109.145 52.95 109.348 53.01 109.655 53.01C109.735 53.01 109.818 53.0067 109.905 53C109.992 52.9867 110.082 52.9733 110.175 52.96V50.22H111.245V56H110.175ZM112.331 56V50.22H113.401V52.61C113.414 52.61 113.431 52.61 113.451 52.61C113.478 52.61 113.501 52.61 113.521 52.61C113.541 52.61 113.558 52.61 113.571 52.61C113.964 52.6167 114.298 52.6467 114.571 52.7C114.851 52.7467 115.078 52.8333 115.251 52.96C115.424 53.08 115.551 53.25 115.631 53.47C115.711 53.6833 115.751 53.96 115.751 54.3C115.751 54.6133 115.711 54.88 115.631 55.1C115.551 55.3133 115.421 55.4867 115.241 55.62C115.061 55.7533 114.824 55.85 114.531 55.91C114.238 55.97 113.881 56 113.461 56H112.331ZM113.401 55.37H113.461C113.801 55.37 114.068 55.34 114.261 55.28C114.454 55.22 114.591 55.1133 114.671 54.96C114.751 54.8 114.791 54.5767 114.791 54.29C114.791 54.03 114.754 53.8267 114.681 53.68C114.614 53.5267 114.488 53.4167 114.301 53.35C114.121 53.2767 113.858 53.24 113.511 53.24C113.504 53.24 113.488 53.24 113.461 53.24C113.434 53.24 113.414 53.24 113.401 53.24V55.37ZM119.721 56.08C119.335 56.08 119.031 55.9933 118.811 55.82C118.591 55.6467 118.438 55.4 118.351 55.08C118.265 54.76 118.221 54.3833 118.221 53.95V53.46H117.421V56H116.481V50.22H117.421V52.75H118.221V52.27C118.221 51.8367 118.265 51.46 118.351 51.14C118.438 50.82 118.591 50.5733 118.811 50.4C119.031 50.2267 119.335 50.14 119.721 50.14C120.108 50.14 120.408 50.2267 120.621 50.4C120.841 50.5733 120.995 50.82 121.081 51.14C121.175 51.46 121.221 51.8367 121.221 52.27V53.95C121.221 54.3833 121.175 54.76 121.081 55.08C120.995 55.4 120.841 55.6467 120.621 55.82C120.408 55.9933 120.108 56.08 119.721 56.08ZM119.721 55.29C119.908 55.29 120.038 55.23 120.111 55.11C120.191 54.99 120.238 54.8333 120.251 54.64C120.271 54.44 120.281 54.2333 120.281 54.02V52.21C120.281 51.99 120.271 51.7833 120.251 51.59C120.238 51.3967 120.191 51.24 120.111 51.12C120.038 50.9933 119.908 50.93 119.721 50.93C119.535 50.93 119.401 50.9933 119.321 51.12C119.248 51.24 119.201 51.3967 119.181 51.59C119.168 51.7833 119.161 51.99 119.161 52.21V54.02C119.161 54.2333 119.168 54.44 119.181 54.64C119.201 54.8333 119.248 54.99 119.321 55.11C119.401 55.23 119.535 55.29 119.721 55.29ZM122.164 56V54.81H123.234V56H122.164Z"></path>
</svg>
