<svg xmlns="http://www.w3.org/2000/svg" fill="none" viewBox="0 0 13 18" height="18" width="13">
<rect fill-opacity="0.01" fill="#0D0E12" height="18" width="13"></rect>
<path fill="white" d="M3.132 14.144C2.508 14.144 2.016 14.048 1.656 13.856C1.296 13.664 1.04 13.384 0.888 13.016C0.736 12.64 0.66 12.18 0.66 11.636C0.66 11.612 0.66 11.588 0.66 11.564C0.66 11.532 0.66 11.504 0.66 11.48H2.532C2.532 11.872 2.564 12.164 2.628 12.356C2.7 12.54 2.872 12.632 3.144 12.632C3.328 12.632 3.464 12.576 3.552 12.464C3.64 12.352 3.696 12.156 3.72 11.876C3.752 11.588 3.768 11.196 3.768 10.7V9.836C3.664 10.004 3.504 10.132 3.288 10.22C3.08 10.308 2.844 10.36 2.58 10.376C2.068 10.384 1.656 10.256 1.344 9.992C1.032 9.728 0.808 9.372 0.672 8.924C0.536 8.476 0.468 7.988 0.468 7.46C0.468 6.78 0.552 6.196 0.72 5.708C0.896 5.212 1.18 4.828 1.572 4.556C1.964 4.284 2.484 4.148 3.132 4.148C3.772 4.148 4.288 4.276 4.68 4.532C5.072 4.788 5.356 5.148 5.532 5.612C5.716 6.068 5.808 6.608 5.808 7.232V10.856C5.808 11.488 5.732 12.052 5.58 12.548C5.436 13.044 5.172 13.436 4.788 13.724C4.404 14.004 3.852 14.144 3.132 14.144ZM3.156 8.84C3.316 8.84 3.444 8.796 3.54 8.708C3.636 8.62 3.712 8.536 3.768 8.456V6.872C3.768 6.648 3.752 6.444 3.72 6.26C3.688 6.068 3.628 5.916 3.54 5.804C3.452 5.684 3.316 5.624 3.132 5.624C2.956 5.624 2.824 5.688 2.736 5.816C2.648 5.936 2.588 6.12 2.556 6.368C2.532 6.608 2.52 6.908 2.52 7.268C2.52 7.58 2.528 7.856 2.544 8.096C2.568 8.328 2.624 8.512 2.712 8.648C2.8 8.776 2.948 8.84 3.156 8.84ZM9.57703 14.156C8.92103 14.156 8.39703 14.028 8.00503 13.772C7.61303 13.508 7.33303 13.148 7.16503 12.692C6.99703 12.228 6.91303 11.7 6.91303 11.108C6.92103 10.868 6.94503 10.636 6.98503 10.412C7.03303 10.18 7.10103 9.968 7.18903 9.776C7.28503 9.576 7.40103 9.404 7.53703 9.26C7.68103 9.108 7.84903 8.984 8.04103 8.888C7.79303 8.704 7.57303 8.44 7.38103 8.096C7.18903 7.744 7.08503 7.3 7.06903 6.764C7.06103 6.22 7.14903 5.752 7.33303 5.36C7.52503 4.968 7.80903 4.668 8.18503 4.46C8.56103 4.252 9.02503 4.148 9.57703 4.148C10.137 4.148 10.601 4.256 10.969 4.472C11.345 4.68 11.625 4.98 11.809 5.372C11.993 5.756 12.077 6.22 12.061 6.764C12.053 7.308 11.957 7.756 11.773 8.108C11.589 8.452 11.369 8.712 11.113 8.888C11.305 8.984 11.469 9.108 11.605 9.26C11.749 9.404 11.865 9.576 11.953 9.776C12.049 9.968 12.121 10.18 12.169 10.412C12.217 10.636 12.241 10.868 12.241 11.108C12.257 11.7 12.177 12.228 12.001 12.692C11.833 13.148 11.553 13.508 11.161 13.772C10.769 14.028 10.241 14.156 9.57703 14.156ZM9.57703 12.68C9.79303 12.68 9.94903 12.6 10.045 12.44C10.141 12.28 10.201 12.092 10.225 11.876C10.249 11.652 10.261 11.448 10.261 11.264C10.269 11.016 10.257 10.776 10.225 10.544C10.201 10.312 10.141 10.124 10.045 9.98C9.94903 9.828 9.79303 9.752 9.57703 9.752C9.36903 9.752 9.21703 9.828 9.12103 9.98C9.02503 10.124 8.96103 10.312 8.92903 10.544C8.90503 10.768 8.89303 11.008 8.89303 11.264C8.89303 11.448 8.90503 11.652 8.92903 11.876C8.95303 12.1 9.01303 12.292 9.10903 12.452C9.21303 12.604 9.36903 12.68 9.57703 12.68ZM9.57703 8.168C9.71303 8.168 9.82503 8.116 9.91303 8.012C10.001 7.9 10.065 7.736 10.105 7.52C10.153 7.304 10.177 7.036 10.177 6.716C10.177 6.388 10.125 6.128 10.021 5.936C9.92503 5.744 9.77703 5.648 9.57703 5.648C9.37703 5.648 9.22103 5.744 9.10903 5.936C9.00503 6.128 8.95303 6.384 8.95303 6.704C8.95303 7.024 8.97303 7.296 9.01303 7.52C9.06103 7.736 9.13303 7.9 9.22903 8.012C9.32503 8.116 9.44103 8.168 9.57703 8.168Z"></path>
</svg>
