<svg xmlns="http://www.w3.org/2000/svg" fill="none" viewBox="0 0 13 18" height="18" width="13">
<rect fill-opacity="0.01" fill="#0D0E12" height="18" width="13"></rect>
<path fill="white" d="M3.3 14.18C2.716 14.18 2.228 14.064 1.836 13.832C1.444 13.592 1.148 13.264 0.948 12.848C0.748 12.432 0.648 11.948 0.648 11.396V6.992C0.648 6.424 0.74 5.928 0.924 5.504C1.116 5.072 1.408 4.736 1.8 4.496C2.192 4.256 2.692 4.136 3.3 4.136C3.908 4.136 4.404 4.256 4.788 4.496C5.18 4.736 5.468 5.072 5.652 5.504C5.844 5.928 5.94 6.424 5.94 6.992V11.396C5.94 11.94 5.84 12.424 5.64 12.848C5.44 13.264 5.144 13.592 4.752 13.832C4.36 14.064 3.876 14.18 3.3 14.18ZM3.3 12.392C3.492 12.392 3.628 12.332 3.708 12.212C3.796 12.084 3.848 11.94 3.864 11.78C3.888 11.612 3.9 11.468 3.9 11.348V7.04C3.9 6.904 3.892 6.752 3.876 6.584C3.86 6.408 3.808 6.256 3.72 6.128C3.64 5.992 3.5 5.924 3.3 5.924C3.1 5.924 2.956 5.992 2.868 6.128C2.788 6.256 2.74 6.408 2.724 6.584C2.708 6.752 2.7 6.904 2.7 7.04V11.348C2.7 11.468 2.712 11.612 2.736 11.78C2.76 11.94 2.812 12.084 2.892 12.212C2.98 12.332 3.116 12.392 3.3 12.392Z"></path>
</svg>
