<svg xmlns="http://www.w3.org/2000/svg" fill="none" viewBox="0 0 12 12" height="12" width="12">
<circle stroke-width="0.5" stroke="#0D0E12" fill="#FDCD4D" r="5" cy="6" cx="6"></circle>
<path fill="#0D0E12" d="M8.559 7.5116C8.66538 7.59523 8.68444 7.74991 8.59358 7.85017C8.29665 8.17787 7.93977 8.44689 7.54143 8.64229C7.06963 8.87373 6.55178 8.99595 6.02629 8.9999C5.5008 9.00385 4.98117 8.88942 4.50595 8.66509C4.10471 8.47569 3.74384 8.21206 3.44201 7.88887C3.34966 7.78998 3.3664 7.63503 3.47151 7.54982V7.54982C3.57662 7.46461 3.73021 7.48153 3.82368 7.57936C4.0784 7.84595 4.38043 8.06399 4.71512 8.22198C5.1238 8.4149 5.57069 8.51331 6.02261 8.50992C6.47453 8.50652 6.91988 8.40141 7.32563 8.20237C7.6579 8.03938 7.95663 7.81682 8.20731 7.54644C8.2993 7.44721 8.45262 7.42798 8.559 7.5116V7.5116Z"></path>
<path fill="white" d="M5.75 5.25C5.75 5.80228 5.30228 6.25 4.75 6.25C4.19772 6.25 3.75 5.80228 3.75 5.25C3.75 4.69772 4.19772 4.25 4.75 4.25C5.30228 4.25 5.75 4.69772 5.75 5.25Z"></path>
<path fill="#0D0E12" d="M5.25 5.25C5.25 5.52614 5.02614 5.75 4.75 5.75C4.47386 5.75 4.25 5.52614 4.25 5.25C4.25 4.97386 4.47386 4.75 4.75 4.75C5.02614 4.75 5.25 4.97386 5.25 5.25Z"></path>
<path fill="white" d="M4.75 4.75C4.75 4.88807 4.63807 5 4.5 5C4.36193 5 4.25 4.88807 4.25 4.75C4.25 4.61193 4.36193 4.5 4.5 4.5C4.63807 4.5 4.75 4.61193 4.75 4.75Z"></path>
<path fill="white" d="M8.25 5.25C8.25 5.80228 7.80228 6.25 7.25 6.25C6.69772 6.25 6.25 5.80228 6.25 5.25C6.25 4.69772 6.69772 4.25 7.25 4.25C7.80228 4.25 8.25 4.69772 8.25 5.25Z"></path>
<path fill="#0D0E12" d="M7.75 5.25C7.75 5.52614 7.52614 5.75 7.25 5.75C6.97386 5.75 6.75 5.52614 6.75 5.25C6.75 4.97386 6.97386 4.75 7.25 4.75C7.52614 4.75 7.75 4.97386 7.75 5.25Z"></path>
<path fill="white" d="M7.25 4.75C7.25 4.88807 7.13807 5 7 5C6.86193 5 6.75 4.88807 6.75 4.75C6.75 4.61193 6.86193 4.5 7 4.5C7.13807 4.5 7.25 4.61193 7.25 4.75Z"></path>
</svg>
