<svg xmlns="http://www.w3.org/2000/svg" fill="none" viewBox="0 0 9 19" height="19" width="9">
<path fill-opacity="0.01" fill="white" d="M0 0H9V19H0V0Z"></path>
<path fill="#45D2FF" d="M0.555844 16.1V12.464H0.831844C1.01584 12.408 1.18384 12.312 1.33584 12.176C1.49584 12.032 1.63984 11.84 1.76784 11.6C1.89584 11.36 2.01184 11.06 2.11584 10.7C2.21984 10.34 2.30784 9.912 2.37984 9.416C2.45184 8.912 2.51184 8.332 2.55984 7.676L2.82384 4.28H7.34784V12.464H8.43984V16.1H7.02384L6.91584 14H2.15184L2.03184 16.1H0.555844ZM2.85984 12.464H5.34384V5.804H4.44384L4.33584 7.892C4.29584 8.58 4.23584 9.164 4.15584 9.644C4.08384 10.124 3.99584 10.524 3.89184 10.844C3.79584 11.156 3.69184 11.412 3.57984 11.612C3.46784 11.812 3.34784 11.976 3.21984 12.104C3.09984 12.232 2.97984 12.352 2.85984 12.464Z"></path>
</svg>
