<svg xmlns="http://www.w3.org/2000/svg" fill="none" viewBox="0 0 31 41" height="41" width="31">
<rect fill="white" height="39" width="29" y="2" x="1"></rect>
<path stroke="#0D0E12" fill="#0D0E12" d="M23.3954 36.5L23.5 36.5458V40.5H7.5V36.5458L7.60459 36.5H23.3954Z"></path>
<path stroke="#0D0E12" fill="#FFA800" d="M8.59375 26.125H22.4062L19.2188 33.5625L22.4062 35.6875H8.59375L11.7812 33.5625L8.59375 26.125Z"></path>
<mask height="10" width="15" y="26" x="8" maskUnits="userSpaceOnUse" style="mask-type:alpha" id="mask0_1477_418">
<path fill-opacity="0.6" fill="black" d="M8.59375 26.125H22.4062L19.2188 33.5625L22.4062 35.6875H8.59375L11.7812 33.5625L8.59375 26.125Z"></path>
</mask>
<g mask="url(#mask0_1477_418)">
<path fill-opacity="0.6" fill="black" d="M18.6875 28.25L20.2812 24L31.4375 36.2188L19.2188 44.7188L1.6875 38.875L4.34375 33.5625C5.40625 33.7396 8.4875 33.775 12.3125 32.5C16.1375 31.225 18.1562 29.1354 18.6875 28.25Z"></path>
</g>
<rect fill="white" height="3.1875" width="9.5625" y="36.75" x="10.7188"></rect>
<rect fill-opacity="0.01" fill="white" height="31" width="31"></rect>
<path stroke-width="0.816337" stroke="#0D0E12" fill="#FFD600" d="M22.3033 5.19409V8.90887H9.54489V5.19409C10.7317 4.82851 12.2454 4.63367 13.5175 4.53174C14.1988 4.47715 14.8019 4.44983 15.2344 4.43618C15.4505 4.42936 15.6238 4.42595 15.7427 4.42426C15.8021 4.42341 15.8479 4.42299 15.8786 4.42278L15.9132 4.4226L15.9217 4.42258L15.9237 4.42257L15.9241 4.42257L15.9241 4.42257H15.9241L15.9241 4.42257L15.9245 4.42257L15.9265 4.42258L15.935 4.4226L15.9696 4.42278C16.0003 4.42299 16.0461 4.42341 16.1055 4.42426C16.2244 4.42595 16.3977 4.42936 16.6138 4.43618C17.0463 4.44983 17.6494 4.47715 18.3307 4.53174C19.6028 4.63367 21.1164 4.82851 22.3033 5.19409Z"></path>
<path stroke-width="0.816337" stroke="#0D0E12" fill="#FFD600" d="M12.9387 2.9126C14.7477 2.56849 16.2523 2.56849 18.0613 2.9126V6.5885H12.9387V2.9126Z"></path>
<path stroke-width="0.816337" stroke="#0D0E12" fill="#FFD600" d="M5.34434 4.34774C5.5019 4.10386 6.14311 3.38041 8.3979 3.09883C9.24957 2.99247 10.0013 3.70922 10.0013 4.64431V5.69698C10.0013 6.33445 9.63598 6.9155 9.06146 7.19171L7.68007 7.85584C6.57902 8.38519 5.30294 7.5828 5.30294 6.36111V4.58971C5.30294 4.44713 5.32225 4.38193 5.34434 4.34774Z"></path>
<path stroke-width="0.816337" stroke="#0D0E12" fill="#FFD600" d="M25.6971 4.36784V4.36425C25.6971 4.35961 25.697 4.35819 25.697 4.35819C25.697 4.35819 25.697 4.35837 25.6971 4.35866C25.6971 4.3595 25.6972 4.36144 25.6973 4.36425C25.6975 4.36694 25.6978 4.37044 25.6983 4.37454C25.6986 4.37701 25.6988 4.37694 25.6984 4.37453C25.6981 4.37311 25.6977 4.37086 25.6971 4.36784ZM25.6971 4.36784V6.36111C25.6971 7.5828 24.421 8.38519 23.3199 7.85584L21.9385 7.19171C21.364 6.9155 20.9987 6.33445 20.9987 5.69698V4.64431C20.9987 3.71248 21.7513 2.99053 22.6121 3.08503C24.1626 3.25523 24.939 3.61221 25.3203 3.89975C25.6288 4.13236 25.6878 4.3257 25.6971 4.36784Z"></path>
<path stroke-width="0.816337" stroke="#0D0E12" fill="#FFD600" d="M5.7433 25.4416C6.25236 21.2319 9.5612 24.6723 9.5612 17.6021V14.5974C9.5612 13.2059 8.72456 11.9509 7.44015 11.4157L6.96846 11.2192C5.96968 10.803 5.31909 9.8271 5.31909 8.74508C5.31909 8.183 5.52138 7.63387 6.05002 7.44287C9.32689 6.25893 21.6734 6.25897 24.9503 7.44288C25.4789 7.63388 25.6812 8.18301 25.6812 8.7451C25.6812 9.82711 25.0306 10.803 24.0319 11.2192L23.5602 11.4157C22.2757 11.9509 21.4391 13.2059 21.4391 14.5974V17.6021C21.4391 24.6723 24.7479 21.3463 25.257 25.556C25.257 26.7213 24.8389 27.8093 23.7043 28.0747C20.0254 28.9352 10.9382 28.8696 7.27745 27.9595C6.15528 27.6805 5.7433 26.598 5.7433 25.4416Z"></path>
<path stroke-linecap="round" stroke-width="0.816337" stroke="#0D0E12" d="M8.71265 24.6724C9.98528 25.998 21.0148 25.998 22.2874 24.6724"></path>
<path stroke-linecap="round" stroke-width="0.816337" stroke="#0D0E12" d="M21.439 10.9736C19.7421 10.5317 11.2579 10.5317 9.56106 10.9736"></path>
<path fill="#0D0E12" d="M12 13.1109L17.16 13.1109C17.128 13.0522 17.096 12.9855 17.064 12.9109C17.032 12.8362 16.9973 12.7562 16.96 12.6709C16.928 12.5909 16.896 12.5109 16.864 12.4309C16.832 12.3562 16.8 12.2869 16.768 12.2229L17.76 12.2229C17.792 12.2815 17.8347 12.3642 17.888 12.4709C17.9467 12.5775 18.0107 12.6922 18.08 12.8149C18.1493 12.9375 18.2187 13.0522 18.288 13.1589C18.3627 13.2655 18.4267 13.3455 18.48 13.3989L18.48 14.4469L12 14.4469L12 13.1109ZM11.88 17.3562C11.88 16.9669 11.9573 16.6416 12.112 16.3802C12.272 16.1189 12.4907 15.9216 12.768 15.7882C13.0453 15.6549 13.368 15.5882 13.736 15.5882L16.672 15.5882C17.0507 15.5882 17.3813 15.6496 17.664 15.7722C17.952 15.9002 18.176 16.0949 18.336 16.3562C18.496 16.6176 18.576 16.9509 18.576 17.3562C18.576 17.7616 18.496 18.0922 18.336 18.3482C18.176 18.6096 17.952 18.8016 17.664 18.9242C17.3813 19.0523 17.0507 19.1163 16.672 19.1163L13.736 19.1162C13.3733 19.1162 13.0507 19.0496 12.768 18.9162C12.4907 18.7829 12.272 18.5856 12.112 18.3242C11.9573 18.0629 11.88 17.7402 11.88 17.3562ZM13.072 17.3562C13.072 17.4842 13.112 17.5749 13.192 17.6282C13.2773 17.6869 13.3733 17.7216 13.48 17.7322C13.592 17.7482 13.688 17.7562 13.768 17.7562L16.64 17.7562C16.7307 17.7562 16.832 17.7509 16.944 17.7402C17.0613 17.7296 17.1627 17.6949 17.248 17.6362C17.3387 17.5829 17.384 17.4896 17.384 17.3562C17.384 17.2229 17.3387 17.1269 17.248 17.0682C17.1627 17.0149 17.0613 16.9829 16.944 16.9722C16.832 16.9616 16.7307 16.9562 16.64 16.9562L13.768 16.9562C13.688 16.9562 13.592 16.9642 13.48 16.9802C13.3733 16.9962 13.2773 17.0309 13.192 17.0842C13.112 17.1429 13.072 17.2336 13.072 17.3562ZM11.88 21.7547C11.88 21.3654 11.9573 21.04 12.112 20.7787C12.272 20.5174 12.4907 20.32 12.768 20.1867C13.0453 20.0534 13.368 19.9867 13.736 19.9867L16.672 19.9867C17.0507 19.9867 17.3813 20.048 17.664 20.1707C17.952 20.2987 18.176 20.4934 18.336 20.7547C18.496 21.016 18.576 21.3494 18.576 21.7547C18.576 22.16 18.496 22.4907 18.336 22.7467C18.176 23.008 17.952 23.2 17.664 23.3227C17.3813 23.4507 17.0507 23.5147 16.672 23.5147L13.736 23.5147C13.3733 23.5147 13.0507 23.448 12.768 23.3147C12.4907 23.1814 12.272 22.984 12.112 22.7227C11.9573 22.4614 11.88 22.1387 11.88 21.7547ZM13.072 21.7547C13.072 21.8827 13.112 21.9734 13.192 22.0267C13.2773 22.0854 13.3733 22.12 13.48 22.1307C13.592 22.1467 13.688 22.1547 13.768 22.1547L16.64 22.1547C16.7307 22.1547 16.832 22.1494 16.944 22.1387C17.0613 22.128 17.1627 22.0934 17.248 22.0347C17.3387 21.9814 17.384 21.888 17.384 21.7547C17.384 21.6214 17.3387 21.5254 17.248 21.4667C17.1627 21.4134 17.0613 21.3814 16.944 21.3707C16.832 21.36 16.7307 21.3547 16.64 21.3547L13.768 21.3547C13.688 21.3547 13.592 21.3627 13.48 21.3787C13.3733 21.3947 13.2773 21.4294 13.192 21.4827C13.112 21.5414 13.072 21.632 13.072 21.7547Z"></path>
<rect fill="black" height="1" width="6" y="38" x="12"></rect>
</svg>
