<svg xmlns="http://www.w3.org/2000/svg" fill="none" viewBox="0 0 38 38" height="38" width="38">
<rect fill-opacity="0.01" fill="white" height="38" width="38"></rect>
<path stroke="#0D0E12" fill="#FFFEE8" d="M7 32C7 29.3736 13.4381 30.5794 15.0416 28.9075C15.4774 28.4532 15.104 27.7792 14.6411 27.3526C13.0674 25.9022 9.66962 22.152 10.6 17.5C11.8 11.5 15.4 9 19 4C22.6 9 26.2 11.5 27.4 17.5C28.3304 22.152 24.9327 25.9022 23.3589 27.3526C22.896 27.7792 22.5226 28.4532 22.9584 28.9075C24.5619 30.5794 31 29.3736 31 32V33.3621C31 34.1111 30.7937 34.871 30.103 35.1608C26.2446 36.7797 11.7554 36.7797 7.89697 35.1608C7.20631 34.871 7 34.1111 7 33.3621V32Z"></path>
<path stroke="#0D0E12" fill="#FFFEE8" d="M20.5 3C20.5 3.82843 19.8284 4.5 19 4.5C18.1716 4.5 17.5 3.82843 17.5 3C17.5 2.17157 18.1716 1.5 19 1.5C19.8284 1.5 20.5 2.17157 20.5 3Z"></path>
<path stroke-linecap="round" stroke="#0D0E12" d="M19 11L19 20"></path>
<path stroke-linecap="round" stroke="#0D0E12" d="M14.8 15.4999C14.8 15.4999 16 15 19 15C22 14.9999 23.2 15.4999 23.2 15.4999"></path>
<path stroke-linecap="round" stroke="#0D0E12" d="M9.4 32C11.2 33.5 26.8 33.5 28.6 32"></path>
</svg>
