<svg xmlns="http://www.w3.org/2000/svg" fill="none" viewBox="0 0 85 15" height="15" width="85">
<rect fill="#0D0E12" height="14" width="85" y="1"></rect>
<path fill="white" d="M18.51 13.9V6.22H20.14V6.64C20.3333 6.46667 20.54 6.33667 20.76 6.25C20.98 6.16333 21.19 6.12 21.39 6.12C21.61 6.12 21.7967 6.16333 21.95 6.25C22.11 6.33667 22.24 6.46 22.34 6.62C22.44 6.77333 22.5133 6.95333 22.56 7.16C22.6067 7.36667 22.63 7.58667 22.63 7.82V10.31C22.63 10.67 22.58 10.9833 22.48 11.25C22.3867 11.5167 22.2467 11.7267 22.06 11.88C21.8733 12.0267 21.6433 12.1 21.37 12.1C21.1633 12.1 20.9533 12.0533 20.74 11.96C20.5333 11.86 20.3333 11.7267 20.14 11.56V13.9H18.51ZM20.57 11.05C20.6767 11.05 20.76 11.02 20.82 10.96C20.88 10.9 20.9233 10.8233 20.95 10.73C20.9833 10.63 21 10.52 21 10.4V7.7C21 7.58667 20.9867 7.48667 20.96 7.4C20.9333 7.30667 20.89 7.23333 20.83 7.18C20.77 7.12667 20.6933 7.1 20.6 7.1C20.5133 7.1 20.43 7.12 20.35 7.16C20.2767 7.19333 20.2067 7.24 20.14 7.3V10.9C20.2133 10.9467 20.2833 10.9833 20.35 11.01C20.4233 11.0367 20.4967 11.05 20.57 11.05ZM25.4488 12.1C25.0288 12.1 24.6688 12.0267 24.3688 11.88C24.0688 11.7267 23.8388 11.5067 23.6788 11.22C23.5188 10.9267 23.4388 10.5767 23.4388 10.17V8.05C23.4388 7.63667 23.5188 7.28667 23.6788 7C23.8388 6.71333 24.0688 6.49667 24.3688 6.35C24.6755 6.19667 25.0355 6.12 25.4488 6.12C25.8755 6.12 26.2288 6.19333 26.5088 6.34C26.7955 6.48667 27.0088 6.70333 27.1488 6.99C27.2955 7.27667 27.3688 7.63 27.3688 8.05V9.21H25.0488V10.32C25.0488 10.4667 25.0655 10.5867 25.0988 10.68C25.1322 10.7733 25.1788 10.84 25.2388 10.88C25.2988 10.92 25.3688 10.94 25.4488 10.94C25.5288 10.94 25.5988 10.9233 25.6588 10.89C25.7255 10.85 25.7755 10.79 25.8088 10.71C25.8488 10.63 25.8688 10.52 25.8688 10.38V9.77H27.3688V10.33C27.3688 10.9167 27.1988 11.36 26.8588 11.66C26.5188 11.9533 26.0488 12.1 25.4488 12.1ZM25.0488 8.45H25.8688V7.87C25.8688 7.71667 25.8488 7.59667 25.8088 7.51C25.7755 7.42333 25.7255 7.36333 25.6588 7.33C25.5988 7.29667 25.5255 7.28 25.4388 7.28C25.3588 7.28 25.2888 7.3 25.2288 7.34C25.1755 7.38 25.1322 7.45 25.0988 7.55C25.0655 7.64333 25.0488 7.78 25.0488 7.96V8.45ZM28.0661 13.57V11.01C28.2861 10.91 28.4761 10.78 28.6361 10.62C28.7961 10.4533 28.9328 10.2533 29.0461 10.02C29.1594 9.78 29.2494 9.50333 29.3161 9.19C29.3828 8.87 29.4294 8.50667 29.4561 8.1L29.6261 6.22H32.8061V11H33.6461V13.57H32.4761L32.3661 12H29.3461L29.2561 13.57H28.0661ZM29.8261 11H31.3161V7.19H30.8361L30.7161 8.49C30.6961 8.85667 30.6594 9.17667 30.6061 9.45C30.5528 9.71667 30.4861 9.95 30.4061 10.15C30.3328 10.3433 30.2461 10.51 30.1461 10.65C30.0461 10.7833 29.9394 10.9 29.8261 11ZM35.5203 12.1C35.227 12.1 34.9803 12.03 34.7803 11.89C34.5803 11.75 34.4303 11.5733 34.3303 11.36C34.2303 11.14 34.1803 10.9167 34.1803 10.69C34.1803 10.33 34.2503 10.0267 34.3903 9.78C34.537 9.53333 34.727 9.32667 34.9603 9.16C35.1936 8.99333 35.4503 8.85333 35.7303 8.74C36.0103 8.62 36.287 8.51333 36.5603 8.42V7.84C36.5603 7.74 36.5503 7.65333 36.5303 7.58C36.5103 7.5 36.477 7.44 36.4303 7.4C36.3836 7.35333 36.3136 7.33 36.2203 7.33C36.127 7.33 36.0536 7.35 36.0003 7.39C35.9536 7.43 35.9203 7.48667 35.9003 7.56C35.8803 7.62667 35.867 7.70333 35.8603 7.79L35.8203 8.21L34.3003 8.15C34.3336 7.45667 34.517 6.94667 34.8503 6.62C35.1903 6.28667 35.697 6.12 36.3703 6.12C36.957 6.12 37.3936 6.28333 37.6803 6.61C37.9736 6.93 38.1203 7.34667 38.1203 7.86V10.56C38.1203 10.8 38.1236 11.01 38.1303 11.19C38.1436 11.37 38.157 11.5267 38.1703 11.66C38.1903 11.7933 38.207 11.9067 38.2203 12H36.7603C36.7403 11.8467 36.717 11.68 36.6903 11.5C36.6636 11.32 36.6436 11.2133 36.6303 11.18C36.5636 11.42 36.437 11.6333 36.2503 11.82C36.0703 12.0067 35.827 12.1 35.5203 12.1ZM36.1003 11C36.167 11 36.227 10.9867 36.2803 10.96C36.3403 10.9333 36.3936 10.8967 36.4403 10.85C36.487 10.8033 36.527 10.7567 36.5603 10.71V9.13C36.427 9.21 36.3036 9.29333 36.1903 9.38C36.077 9.46 35.9803 9.55 35.9003 9.65C35.8203 9.75 35.757 9.86 35.7103 9.98C35.6703 10.0933 35.6503 10.2233 35.6503 10.37C35.6503 10.5633 35.6903 10.7167 35.7703 10.83C35.8503 10.9433 35.9603 11 36.1003 11ZM39.0862 12V6.22H40.7162V8.5H40.9562L41.8362 6.22H43.5862L42.4462 8.95L43.6162 12H41.8962L40.9562 9.44H40.7162V12H39.0862ZM44.9131 12V7.32H43.8631V6.22H47.5831V7.32H46.5331V12H44.9131ZM48.2659 12V6.22H49.5559V9.31L51.0659 6.22H52.3359V12H51.0159V8.94L49.5459 12H48.2659ZM53.344 13.9V6.22H54.974V6.64C55.1673 6.46667 55.374 6.33667 55.594 6.25C55.814 6.16333 56.024 6.12 56.224 6.12C56.444 6.12 56.6307 6.16333 56.784 6.25C56.944 6.33667 57.074 6.46 57.174 6.62C57.274 6.77333 57.3473 6.95333 57.394 7.16C57.4407 7.36667 57.464 7.58667 57.464 7.82V10.31C57.464 10.67 57.414 10.9833 57.314 11.25C57.2207 11.5167 57.0807 11.7267 56.894 11.88C56.7073 12.0267 56.4773 12.1 56.204 12.1C55.9973 12.1 55.7873 12.0533 55.574 11.96C55.3673 11.86 55.1673 11.7267 54.974 11.56V13.9H53.344ZM55.404 11.05C55.5107 11.05 55.594 11.02 55.654 10.96C55.714 10.9 55.7573 10.8233 55.784 10.73C55.8173 10.63 55.834 10.52 55.834 10.4V7.7C55.834 7.58667 55.8207 7.48667 55.794 7.4C55.7673 7.30667 55.724 7.23333 55.664 7.18C55.604 7.12667 55.5273 7.1 55.434 7.1C55.3473 7.1 55.264 7.12 55.184 7.16C55.1107 7.19333 55.0407 7.24 54.974 7.3V10.9C55.0473 10.9467 55.1173 10.9833 55.184 11.01C55.2573 11.0367 55.3307 11.05 55.404 11.05ZM60.2928 12.1C59.8795 12.1 59.5195 12.03 59.2128 11.89C58.9128 11.75 58.6795 11.54 58.5128 11.26C58.3528 10.98 58.2728 10.63 58.2728 10.21V8.01C58.2728 7.59 58.3528 7.24 58.5128 6.96C58.6795 6.68 58.9128 6.47 59.2128 6.33C59.5195 6.19 59.8795 6.12 60.2928 6.12C60.7061 6.12 61.0628 6.19 61.3628 6.33C61.6695 6.47 61.9061 6.68 62.0728 6.96C62.2395 7.24 62.3228 7.59 62.3228 8.01V10.21C62.3228 10.63 62.2395 10.98 62.0728 11.26C61.9061 11.54 61.6695 11.75 61.3628 11.89C61.0628 12.03 60.7061 12.1 60.2928 12.1ZM60.3028 11.02C60.4095 11.02 60.4928 10.9933 60.5528 10.94C60.6128 10.88 60.6528 10.8 60.6728 10.7C60.6995 10.5933 60.7128 10.4667 60.7128 10.32V7.9C60.7128 7.75333 60.6995 7.63 60.6728 7.53C60.6528 7.42333 60.6128 7.34333 60.5528 7.29C60.4928 7.23 60.4095 7.2 60.3028 7.2C60.1961 7.2 60.1128 7.23 60.0528 7.29C59.9928 7.34333 59.9495 7.42333 59.9228 7.53C59.8961 7.63 59.8828 7.75333 59.8828 7.9V10.32C59.8828 10.4667 59.8961 10.5933 59.9228 10.7C59.9495 10.8 59.9928 10.88 60.0528 10.94C60.1128 10.9933 60.1961 11.02 60.3028 11.02ZM63.2268 12V6.22H65.2768C65.8568 6.22 66.2935 6.28333 66.5868 6.41C66.8801 6.53 67.0768 6.69667 67.1768 6.91C67.2768 7.12333 67.3268 7.37333 67.3268 7.66C67.3268 8.04 67.2435 8.32 67.0768 8.5C66.9168 8.67333 66.7035 8.79667 66.4368 8.87C66.7168 8.93667 66.9301 9.03667 67.0768 9.17C67.2235 9.30333 67.3235 9.46667 67.3768 9.66C67.4368 9.85333 67.4668 10.0767 67.4668 10.33C67.4668 10.7033 67.3968 11.0167 67.2568 11.27C67.1168 11.5167 66.8801 11.7 66.5468 11.82C66.2135 11.94 65.7601 12 65.1868 12H63.2268ZM64.8468 11.1H65.1168C65.2635 11.1 65.3935 11.0867 65.5068 11.06C65.6201 11.0333 65.7101 10.9633 65.7768 10.85C65.8501 10.73 65.8868 10.54 65.8868 10.28C65.8868 9.98667 65.8535 9.77667 65.7868 9.65C65.7268 9.52333 65.6401 9.44667 65.5268 9.42C65.4135 9.39333 65.2801 9.38 65.1268 9.38H64.8468V11.1ZM64.8468 8.5H65.2568C65.4501 8.5 65.5835 8.44 65.6568 8.32C65.7301 8.19333 65.7668 8.02 65.7668 7.8C65.7668 7.58667 65.7268 7.41 65.6468 7.27C65.5735 7.13 65.4035 7.06 65.1368 7.06H64.8468V8.5ZM69.4461 12.1C69.1528 12.1 68.9061 12.03 68.7061 11.89C68.5061 11.75 68.3561 11.5733 68.2561 11.36C68.1561 11.14 68.1061 10.9167 68.1061 10.69C68.1061 10.33 68.1761 10.0267 68.3161 9.78C68.4628 9.53333 68.6528 9.32667 68.8861 9.16C69.1194 8.99333 69.3761 8.85333 69.6561 8.74C69.9361 8.62 70.2128 8.51333 70.4861 8.42V7.84C70.4861 7.74 70.4761 7.65333 70.4561 7.58C70.4361 7.5 70.4028 7.44 70.3561 7.4C70.3094 7.35333 70.2394 7.33 70.1461 7.33C70.0528 7.33 69.9794 7.35 69.9261 7.39C69.8794 7.43 69.8461 7.48667 69.8261 7.56C69.8061 7.62667 69.7928 7.70333 69.7861 7.79L69.7461 8.21L68.2261 8.15C68.2594 7.45667 68.4428 6.94667 68.7761 6.62C69.1161 6.28667 69.6228 6.12 70.2961 6.12C70.8828 6.12 71.3194 6.28333 71.6061 6.61C71.8994 6.93 72.0461 7.34667 72.0461 7.86V10.56C72.0461 10.8 72.0494 11.01 72.0561 11.19C72.0694 11.37 72.0828 11.5267 72.0961 11.66C72.1161 11.7933 72.1328 11.9067 72.1461 12H70.6861C70.6661 11.8467 70.6428 11.68 70.6161 11.5C70.5894 11.32 70.5694 11.2133 70.5561 11.18C70.4894 11.42 70.3628 11.6333 70.1761 11.82C69.9961 12.0067 69.7528 12.1 69.4461 12.1ZM70.0261 11C70.0928 11 70.1528 10.9867 70.2061 10.96C70.2661 10.9333 70.3194 10.8967 70.3661 10.85C70.4128 10.8033 70.4528 10.7567 70.4861 10.71V9.13C70.3528 9.21 70.2294 9.29333 70.1161 9.38C70.0028 9.46 69.9061 9.55 69.8261 9.65C69.7461 9.75 69.6828 9.86 69.6361 9.98C69.5961 10.0933 69.5761 10.2233 69.5761 10.37C69.5761 10.5633 69.6161 10.7167 69.6961 10.83C69.7761 10.9433 69.8861 11 70.0261 11ZM73.712 12V7.32H72.662V6.22H76.382V7.32H75.332V12H73.712ZM77.0647 12V6.22H78.6947V8.54C78.7014 8.54 78.7047 8.54 78.7047 8.54C78.7114 8.54 78.718 8.54 78.7247 8.54C78.7314 8.54 78.738 8.54 78.7447 8.54C79.1447 8.54 79.498 8.56667 79.8047 8.62C80.1114 8.67333 80.3647 8.76667 80.5647 8.9C80.7714 9.02667 80.928 9.2 81.0347 9.42C81.1414 9.63333 81.1947 9.90667 81.1947 10.24C81.1947 10.5533 81.148 10.8233 81.0547 11.05C80.968 11.27 80.8247 11.45 80.6247 11.59C80.4314 11.73 80.178 11.8333 79.8647 11.9C79.558 11.9667 79.188 12 78.7547 12H77.0647ZM78.6947 11.07H78.7247C78.9714 11.07 79.1647 11.0467 79.3047 11C79.4514 10.9467 79.5547 10.8633 79.6147 10.75C79.6814 10.63 79.7147 10.4733 79.7147 10.28C79.7147 10.0733 79.6814 9.91667 79.6147 9.81C79.5547 9.69667 79.4514 9.61667 79.3047 9.57C79.1647 9.52333 78.978 9.5 78.7447 9.5C78.738 9.5 78.728 9.5 78.7147 9.5C78.708 9.5 78.7014 9.5 78.6947 9.5V11.07Z"></path>
<rect fill="white" transform="rotate(45 9.36398 5.12134)" height="6" width="3" y="5.12134" x="9.36398"></rect>
<path fill="white" d="M11.4853 3L13.6066 5.12132L12.1924 6.53553L10.0711 4.41421L11.4853 3Z"></path>
<path fill="white" d="M4.41422 10.071L6.53554 12.1924L4.06066 12.5459L4.41422 10.071Z"></path>
</svg>
