<svg xmlns="http://www.w3.org/2000/svg" fill="none" viewBox="0 0 22 22" height="22" width="22">
<circle stroke="#0D0E12" fill="#FDCD4D" r="10" cy="11" cx="11"></circle>
<path fill="white" d="M5 13H17V15L14.5 17.5L11 18.5L7.5 17.5L5 15V13Z"></path>
<path fill="#0D0E12" d="M17.51 12C17.7806 12 18.0018 12.2197 17.9829 12.4896C17.8653 14.1672 17.1466 15.7529 15.9497 16.9497C14.637 18.2625 12.8565 19 11 19C9.14349 19 7.36301 18.2625 6.05025 16.9497C4.85339 15.7529 4.1347 14.1672 4.01713 12.4896C3.99821 12.2197 4.21938 12 4.49 12C4.76062 12 4.97793 12.2198 4.99992 12.4895C5.1155 13.9069 5.7302 15.2438 6.74322 16.2568C7.87219 17.3858 9.4034 18.02 11 18.02C12.5966 18.02 14.1278 17.3858 15.2568 16.2568C16.2698 15.2438 16.8845 13.9069 17.0001 12.4895C17.0221 12.2198 17.2394 12 17.51 12Z"></path>
<path stroke-linecap="round" stroke="#0D0E12" d="M4.5 12.5H17.5"></path>
<path stroke-linecap="round" stroke="#0D0E12" d="M15 6L12.1675 8.36039C12.1018 8.41515 12.1307 8.52179 12.2151 8.53585L15 9"></path>
<path stroke-linecap="round" stroke="#0D0E12" d="M7 6L9.83247 8.36039C9.89818 8.41515 9.86927 8.52179 9.78489 8.53585L7 9"></path>
</svg>
