<svg xmlns="http://www.w3.org/2000/svg" fill="none" viewBox="0 0 13 18" height="18" width="13">
<rect fill-opacity="0.01" fill="#0D0E12" height="18" width="13"></rect>
<path fill="white" d="M0.492 14V12.584L2.82 9.008C2.996 8.744 3.16 8.488 3.312 8.24C3.472 7.992 3.6 7.74 3.696 7.484C3.8 7.228 3.852 6.96 3.852 6.68C3.852 6.4 3.796 6.192 3.684 6.056C3.572 5.92 3.42 5.852 3.228 5.852C3.012 5.852 2.844 5.912 2.724 6.032C2.604 6.152 2.52 6.312 2.472 6.512C2.432 6.712 2.412 6.936 2.412 7.184V7.664H0.468V7.148C0.468 6.572 0.56 6.06 0.744 5.612C0.928 5.156 1.22 4.8 1.62 4.544C2.02 4.28 2.544 4.148 3.192 4.148C4.064 4.148 4.72 4.376 5.16 4.832C5.608 5.28 5.832 5.908 5.832 6.716C5.832 7.108 5.768 7.472 5.64 7.808C5.52 8.144 5.356 8.472 5.148 8.792C4.948 9.104 4.732 9.432 4.5 9.776L2.724 12.428H5.568V14H0.492ZM9.29606 14.18C8.61606 14.18 8.08006 14.052 7.68806 13.796C7.30406 13.54 7.02806 13.184 6.86006 12.728C6.70006 12.264 6.62006 11.732 6.62006 11.132V10.784H8.62406C8.62406 10.792 8.62406 10.836 8.62406 10.916C8.62406 10.996 8.62406 11.068 8.62406 11.132C8.62406 11.452 8.64406 11.712 8.68406 11.912C8.72406 12.112 8.79606 12.26 8.90006 12.356C9.00406 12.444 9.14806 12.488 9.33206 12.488C9.51606 12.488 9.65206 12.44 9.74006 12.344C9.83606 12.248 9.90006 12.104 9.93206 11.912C9.96406 11.72 9.98006 11.48 9.98006 11.192C9.98006 10.712 9.91206 10.348 9.77606 10.1C9.64806 9.844 9.37606 9.712 8.96006 9.704C8.95206 9.704 8.90806 9.704 8.82806 9.704C8.74806 9.704 8.66806 9.704 8.58806 9.704V8.324C8.64406 8.324 8.70006 8.324 8.75606 8.324C8.81206 8.324 8.86406 8.324 8.91206 8.324C9.33606 8.324 9.62006 8.208 9.76406 7.976C9.90806 7.744 9.98006 7.384 9.98006 6.896C9.98006 6.52 9.92806 6.232 9.82406 6.032C9.72806 5.832 9.54406 5.732 9.27206 5.732C9.00806 5.732 8.83206 5.844 8.74406 6.068C8.66406 6.292 8.62406 6.58 8.62406 6.932C8.62406 7.012 8.62406 7.096 8.62406 7.184C8.62406 7.264 8.62406 7.348 8.62406 7.436H6.62006V6.848C6.62006 6.264 6.72406 5.772 6.93206 5.372C7.14806 4.964 7.45206 4.656 7.84406 4.448C8.24406 4.24 8.72006 4.136 9.27206 4.136C9.83206 4.136 10.3121 4.236 10.7121 4.436C11.1121 4.636 11.4201 4.932 11.6361 5.324C11.8521 5.708 11.9601 6.188 11.9601 6.764C11.9601 7.332 11.8441 7.808 11.6121 8.192C11.3801 8.576 11.1001 8.812 10.7721 8.9C10.9961 8.98 11.1961 9.108 11.3721 9.284C11.5561 9.46 11.7001 9.7 11.8041 10.004C11.9081 10.3 11.9601 10.68 11.9601 11.144C11.9601 11.736 11.8721 12.26 11.6961 12.716C11.5281 13.172 11.2481 13.532 10.8561 13.796C10.4641 14.052 9.94406 14.18 9.29606 14.18Z"></path>
</svg>
