<svg xmlns="http://www.w3.org/2000/svg" fill="none" viewBox="0 0 13 18" height="18" width="13">
<rect fill-opacity="0.01" fill="#0D0E12" height="18" width="13"></rect>
<path fill="white" d="M3.288 14V11.816H0.3V10.34L2.832 4.28H5.16V10.328H6.06V11.816H5.16V14H3.288ZM1.824 10.328H3.288V6.284L1.824 10.328ZM7.70147 14V6.26C7.61347 6.308 7.51347 6.356 7.40147 6.404C7.28947 6.452 7.16947 6.504 7.04147 6.56C6.92147 6.608 6.80147 6.656 6.68147 6.704C6.56947 6.752 6.46547 6.8 6.36947 6.848V5.36C6.45747 5.312 6.58147 5.248 6.74147 5.168C6.90147 5.08 7.07347 4.984 7.25747 4.88C7.44147 4.776 7.61347 4.672 7.77347 4.568C7.93347 4.456 8.05347 4.36 8.13347 4.28H9.70547V14H7.70147Z"></path>
</svg>
