<svg xmlns="http://www.w3.org/2000/svg" fill="none" viewBox="0 0 104 22" height="22" width="104">
<rect stroke="#0D0E12" fill="#0D0E12" height="21" width="103" y="0.5" x="0.5"></rect>
<path fill="white" d="M31.6 15V6.9H35.24V8.12H33.39V10.13H34.8V11.37H33.39V13.79H35.26V15H31.6ZM35.5427 15L37.1127 10.64L35.6127 6.9H37.3027L38.1927 9.09L38.9127 6.9H40.4027L38.9827 11.11L40.5627 15H38.8827L37.8927 12.58L37.0227 15H35.5427ZM41.2191 15V6.9H43.9391C44.4258 6.9 44.8258 6.99333 45.1391 7.18C45.4525 7.36 45.6858 7.62667 45.8391 7.98C45.9925 8.32667 46.0691 8.75 46.0691 9.25C46.0691 9.87667 45.9658 10.3567 45.7591 10.69C45.5525 11.0167 45.2725 11.2433 44.9191 11.37C44.5658 11.4967 44.1691 11.56 43.7291 11.56H43.0091V15H41.2191ZM43.0091 10.31H43.6091C43.8291 10.31 43.9958 10.27 44.1091 10.19C44.2225 10.11 44.2958 9.99 44.3291 9.83C44.3691 9.67 44.3891 9.46667 44.3891 9.22C44.3891 9.01333 44.3725 8.83333 44.3391 8.68C44.3125 8.52 44.2425 8.39333 44.1291 8.3C44.0158 8.20667 43.8391 8.16 43.5991 8.16H43.0091V10.31ZM49.252 15.12C48.6454 15.12 48.1654 15.0133 47.812 14.8C47.4587 14.5867 47.2054 14.28 47.052 13.88C46.8987 13.48 46.822 13.0033 46.822 12.45V9.44C46.822 8.88 46.8987 8.40333 47.052 8.01C47.2054 7.61667 47.4587 7.31667 47.812 7.11C48.1654 6.89667 48.6454 6.79 49.252 6.79C49.8654 6.79 50.3487 6.89667 50.702 7.11C51.062 7.31667 51.3187 7.61667 51.472 8.01C51.6254 8.40333 51.702 8.88 51.702 9.44V12.45C51.702 13.0033 51.6254 13.48 51.472 13.88C51.3187 14.28 51.062 14.5867 50.702 14.8C50.3487 15.0133 49.8654 15.12 49.252 15.12ZM49.252 13.85C49.4387 13.85 49.5754 13.8033 49.662 13.71C49.7487 13.6167 49.8054 13.4967 49.832 13.35C49.8587 13.2033 49.872 13.0533 49.872 12.9V9C49.872 8.84 49.8587 8.69 49.832 8.55C49.8054 8.40333 49.7487 8.28333 49.662 8.19C49.5754 8.09667 49.4387 8.05 49.252 8.05C49.0787 8.05 48.9487 8.09667 48.862 8.19C48.7754 8.28333 48.7187 8.40333 48.692 8.55C48.6654 8.69 48.652 8.84 48.652 9V12.9C48.652 13.0533 48.662 13.2033 48.682 13.35C48.7087 13.4967 48.762 13.6167 48.842 13.71C48.9287 13.8033 49.0654 13.85 49.252 13.85ZM52.7914 15V6.9H55.0214C55.5681 6.9 56.0414 6.96 56.4414 7.08C56.8414 7.2 57.1514 7.41667 57.3714 7.73C57.5981 8.03667 57.7114 8.47333 57.7114 9.04C57.7114 9.37333 57.6847 9.67 57.6314 9.93C57.5781 10.19 57.4781 10.4167 57.3314 10.61C57.1914 10.7967 56.9881 10.9533 56.7214 11.08L57.8314 15H55.9814L55.0914 11.37H54.5814V15H52.7914ZM54.5814 10.34H55.0814C55.3347 10.34 55.5314 10.2967 55.6714 10.21C55.8114 10.1167 55.9081 9.98667 55.9614 9.82C56.0214 9.64667 56.0514 9.44 56.0514 9.2C56.0514 8.85333 55.9881 8.58333 55.8614 8.39C55.7347 8.19667 55.5014 8.1 55.1614 8.1H54.5814V10.34ZM59.4394 15V8.23H58.2194V6.9H62.4494V8.23H61.2394V15H59.4394ZM67.8311 15.12C67.2711 15.12 66.8278 15.0033 66.5011 14.77C66.1811 14.5367 65.9511 14.21 65.8111 13.79C65.6778 13.3633 65.6111 12.8733 65.6111 12.32V9.6C65.6111 9.02667 65.6844 8.53 65.8311 8.11C65.9778 7.69 66.2278 7.36667 66.5811 7.14C66.9411 6.90667 67.4278 6.79 68.0411 6.79C68.6411 6.79 69.1111 6.89 69.4511 7.09C69.7978 7.29 70.0444 7.56667 70.1911 7.92C70.3378 8.27333 70.4111 8.68667 70.4111 9.16V9.68H68.6611V9.02C68.6611 8.84667 68.6478 8.68667 68.6211 8.54C68.6011 8.39333 68.5478 8.27667 68.4611 8.19C68.3811 8.09667 68.2478 8.05 68.0611 8.05C67.8678 8.05 67.7278 8.10333 67.6411 8.21C67.5544 8.31 67.4978 8.43667 67.4711 8.59C67.4511 8.74333 67.4411 8.90333 67.4411 9.07V12.82C67.4411 13 67.4578 13.17 67.4911 13.33C67.5311 13.4833 67.5978 13.61 67.6911 13.71C67.7911 13.8033 67.9311 13.85 68.1111 13.85C68.2978 13.85 68.4411 13.8 68.5411 13.7C68.6411 13.6 68.7111 13.47 68.7511 13.31C68.7911 13.15 68.8111 12.98 68.8111 12.8V11.85H68.0811V10.8H70.4211V15H69.2411L69.1411 14.33C69.0344 14.5567 68.8778 14.7467 68.6711 14.9C68.4644 15.0467 68.1844 15.12 67.8311 15.12ZM71.1514 15L72.6814 6.9H74.7214L76.2314 15H74.5814L74.3114 13.29H73.1214L72.8414 15H71.1514ZM73.2814 12.22H74.1414L73.7114 9.06L73.2814 12.22ZM77.0192 15L77.1592 6.9H79.0792L79.9692 11.61L80.9292 6.9H82.7792L82.9192 15H81.6492L81.4992 9.61L80.5592 15H79.4292L78.4292 9.57L78.3092 15H77.0192ZM84.0902 15V6.9H87.7302V8.12H85.8802V10.13H87.2902V11.37H85.8802V13.79H87.7502V15H84.0902Z"></path>
<rect fill="white" rx="0.454271" height="0.908543" width="9.08543" y="15.0916" x="17"></rect>
<rect fill="white" transform="rotate(-45 17.9427 9.61523)" rx="0.479838" height="0.959676" width="5.1115" y="9.61523" x="17.9427"></rect>
<rect fill="white" transform="rotate(-135 24.4751 10.2737)" rx="0.47776" height="0.955519" width="5.0884" y="10.2737" x="24.4751"></rect>
<rect fill="white" transform="rotate(-90 21.0884 13.7285)" rx="0.454272" height="0.908543" width="7.26834" y="13.7285" x="21.0884"></rect>
<rect fill="white" transform="rotate(-90 17 16)" rx="0.454271" height="0.908543" width="4.08844" y="16" x="17"></rect>
<rect fill="white" transform="rotate(-90 25.1769 16)" rx="0.454271" height="0.908543" width="4.08844" y="16" x="25.1769"></rect>
</svg>
