<svg xmlns="http://www.w3.org/2000/svg" fill="none" viewBox="0 0 214 84" height="84" width="214">
<mask fill="white" id="path-1-inside-1_1514_2">
<path d="M0 0H214V84H0V0Z"></path>
</mask>
<path fill="#0D0E12" d="M0 0H214V84H0V0Z"></path>
<path mask="url(#path-1-inside-1_1514_2)" fill="white" d="M0 0V-1H-1V0H0ZM0 84H-1V85H0V84ZM0 1H214V-1H0V1ZM214 83H0V85H214V83ZM1 84V0H-1V84H1Z"></path>
<path fill="white" d="M19.504 38.144C18.768 38.144 18.184 38.012 17.752 37.748C17.328 37.476 17.028 37.1 16.852 36.62C16.676 36.132 16.588 35.56 16.588 34.904V31.4C16.588 30.728 16.676 30.152 16.852 29.672C17.028 29.184 17.328 28.808 17.752 28.544C18.184 28.28 18.768 28.148 19.504 28.148C20.224 28.148 20.784 28.268 21.184 28.508C21.592 28.74 21.88 29.068 22.048 29.492C22.216 29.916 22.3 30.404 22.3 30.956V31.796H20.2V30.824C20.2 30.632 20.188 30.448 20.164 30.272C20.148 30.096 20.092 29.952 19.996 29.84C19.9 29.72 19.736 29.66 19.504 29.66C19.28 29.66 19.112 29.72 19 29.84C18.896 29.96 18.828 30.112 18.796 30.296C18.772 30.472 18.76 30.66 18.76 30.86V35.432C18.76 35.648 18.776 35.848 18.808 36.032C18.848 36.208 18.92 36.352 19.024 36.464C19.136 36.568 19.296 36.62 19.504 36.62C19.728 36.62 19.888 36.564 19.984 36.452C20.08 36.332 20.14 36.18 20.164 35.996C20.188 35.812 20.2 35.624 20.2 35.432V34.412H22.3V35.252C22.3 35.804 22.216 36.3 22.048 36.74C21.888 37.172 21.604 37.516 21.196 37.772C20.796 38.02 20.232 38.144 19.504 38.144ZM26.2657 38.144C25.5377 38.144 24.9617 38.016 24.5377 37.76C24.1137 37.504 23.8097 37.136 23.6257 36.656C23.4417 36.176 23.3497 35.604 23.3497 34.94V31.328C23.3497 30.656 23.4417 30.084 23.6257 29.612C23.8097 29.14 24.1137 28.78 24.5377 28.532C24.9617 28.276 25.5377 28.148 26.2657 28.148C27.0017 28.148 27.5817 28.276 28.0057 28.532C28.4377 28.78 28.7457 29.14 28.9297 29.612C29.1137 30.084 29.2057 30.656 29.2057 31.328V34.94C29.2057 35.604 29.1137 36.176 28.9297 36.656C28.7457 37.136 28.4377 37.504 28.0057 37.76C27.5817 38.016 27.0017 38.144 26.2657 38.144ZM26.2657 36.62C26.4897 36.62 26.6537 36.564 26.7577 36.452C26.8617 36.34 26.9297 36.196 26.9617 36.02C26.9937 35.844 27.0097 35.664 27.0097 35.48V30.8C27.0097 30.608 26.9937 30.428 26.9617 30.26C26.9297 30.084 26.8617 29.94 26.7577 29.828C26.6537 29.716 26.4897 29.66 26.2657 29.66C26.0577 29.66 25.9017 29.716 25.7977 29.828C25.6937 29.94 25.6257 30.084 25.5937 30.26C25.5617 30.428 25.5457 30.608 25.5457 30.8V35.48C25.5457 35.664 25.5577 35.844 25.5817 36.02C25.6137 36.196 25.6777 36.34 25.7737 36.452C25.8777 36.564 26.0417 36.62 26.2657 36.62ZM33.297 38.144C32.569 38.144 31.993 38.016 31.569 37.76C31.145 37.504 30.841 37.136 30.657 36.656C30.473 36.176 30.381 35.604 30.381 34.94V31.328C30.381 30.656 30.473 30.084 30.657 29.612C30.841 29.14 31.145 28.78 31.569 28.532C31.993 28.276 32.569 28.148 33.297 28.148C34.033 28.148 34.613 28.276 35.037 28.532C35.469 28.78 35.777 29.14 35.961 29.612C36.145 30.084 36.237 30.656 36.237 31.328V34.94C36.237 35.604 36.145 36.176 35.961 36.656C35.777 37.136 35.469 37.504 35.037 37.76C34.613 38.016 34.033 38.144 33.297 38.144ZM33.297 36.62C33.521 36.62 33.685 36.564 33.789 36.452C33.893 36.34 33.961 36.196 33.993 36.02C34.025 35.844 34.041 35.664 34.041 35.48V30.8C34.041 30.608 34.025 30.428 33.993 30.26C33.961 30.084 33.893 29.94 33.789 29.828C33.685 29.716 33.521 29.66 33.297 29.66C33.089 29.66 32.933 29.716 32.829 29.828C32.725 29.94 32.657 30.084 32.625 30.26C32.593 30.428 32.577 30.608 32.577 30.8V35.48C32.577 35.664 32.589 35.844 32.613 36.02C32.645 36.196 32.709 36.34 32.805 36.452C32.909 36.564 33.073 36.62 33.297 36.62ZM37.5802 38V28.28H42.4042V29.912H39.7282V32.384H40.1842C40.8002 32.384 41.3202 32.484 41.7442 32.684C42.1762 32.884 42.5042 33.192 42.7282 33.608C42.9522 34.016 43.0642 34.544 43.0642 35.192C43.0642 35.784 42.9842 36.264 42.8242 36.632C42.6722 37 42.4562 37.284 42.1762 37.484C41.8962 37.684 41.5682 37.82 41.1922 37.892C40.8242 37.964 40.4242 38 39.9922 38H37.5802ZM39.7282 36.596H40.0042C40.2762 36.596 40.4922 36.544 40.6522 36.44C40.8122 36.336 40.9242 36.176 40.9882 35.96C41.0522 35.744 41.0802 35.472 41.0722 35.144C41.0642 34.784 40.9882 34.484 40.8442 34.244C40.7002 33.996 40.4122 33.872 39.9802 33.872H39.7282V36.596ZM52.3728 40.1L52.1208 38H44.2248V28.28H46.2528V36.548H47.4408V28.28H49.4568V36.548H50.5968V28.28H52.6248V36.548H53.9448V40.1H52.3728ZM55.1809 38V28.28H59.5489V29.744H57.3289V32.156H59.0209V33.644H57.3289V36.548H59.5729V38H55.1809ZM60.5841 38V28.28H62.7321V32.216H64.2321V28.28H66.3921V38H64.2321V33.752H62.7321V38H60.5841ZM67.9083 38V28.28H69.6003V33.848L72.0843 28.28H73.4763V38H71.7483V32.336L69.2163 38H67.9083ZM74.9505 38V28.28H79.3185V29.744H77.0985V32.156H78.7905V33.644H77.0985V36.548H79.3425V38H74.9505Z"></path>
<path fill="white" d="M16.63 56V47.9H17.76V51.4H19.84V47.9H20.97V56H19.84V52.21H17.76V56H16.63ZM23.7455 56.08C23.2921 56.08 22.9421 55.9933 22.6955 55.82C22.4488 55.64 22.2755 55.38 22.1755 55.04C22.0821 54.6933 22.0355 54.27 22.0355 53.77V52.45C22.0355 51.9367 22.0855 51.51 22.1855 51.17C22.2855 50.83 22.4588 50.5733 22.7055 50.4C22.9588 50.2267 23.3055 50.14 23.7455 50.14C24.2321 50.14 24.5888 50.24 24.8155 50.44C25.0488 50.64 25.2021 50.93 25.2755 51.31C25.3488 51.6833 25.3855 52.1333 25.3855 52.66V53.13H23.1055V54.29C23.1055 54.5233 23.1255 54.7133 23.1655 54.86C23.2121 55.0067 23.2821 55.1167 23.3755 55.19C23.4755 55.2567 23.6021 55.29 23.7555 55.29C23.9155 55.29 24.0355 55.2533 24.1155 55.18C24.2021 55.1 24.2588 54.99 24.2855 54.85C24.3188 54.7033 24.3355 54.5333 24.3355 54.34V53.99H25.3755V54.21C25.3755 54.79 25.2521 55.2467 25.0055 55.58C24.7588 55.9133 24.3388 56.08 23.7455 56.08ZM23.1055 52.55H24.3355V52.03C24.3355 51.79 24.3221 51.59 24.2955 51.43C24.2688 51.2633 24.2121 51.14 24.1255 51.06C24.0455 50.9733 23.9155 50.93 23.7355 50.93C23.5621 50.93 23.4288 50.97 23.3355 51.05C23.2488 51.13 23.1888 51.2667 23.1555 51.46C23.1221 51.6467 23.1055 51.9067 23.1055 52.24V52.55ZM28.1896 56L29.4896 52.96L28.2196 50.22H29.2396L30.0896 52.05L30.8396 50.22H31.8896L30.5696 53.09L31.9096 56H30.8896L29.9796 54.04L29.1996 56H28.1896ZM34.1163 56.08C33.6897 56.08 33.353 55.9933 33.1063 55.82C32.8597 55.6467 32.683 55.4 32.5763 55.08C32.4763 54.76 32.4263 54.3833 32.4263 53.95V52.27C32.4263 51.8367 32.4763 51.46 32.5763 51.14C32.683 50.82 32.8597 50.5733 33.1063 50.4C33.353 50.2267 33.6897 50.14 34.1163 50.14C34.543 50.14 34.8763 50.2267 35.1163 50.4C35.363 50.5733 35.5363 50.82 35.6363 51.14C35.743 51.46 35.7963 51.8367 35.7963 52.27V53.95C35.7963 54.3833 35.743 54.76 35.6363 55.08C35.5363 55.4 35.363 55.6467 35.1163 55.82C34.8763 55.9933 34.543 56.08 34.1163 56.08ZM34.1163 55.29C34.323 55.29 34.4663 55.23 34.5463 55.11C34.633 54.99 34.683 54.8333 34.6963 54.64C34.7163 54.44 34.7263 54.2333 34.7263 54.02V52.21C34.7263 51.99 34.7163 51.7833 34.6963 51.59C34.683 51.3967 34.633 51.24 34.5463 51.12C34.4663 50.9933 34.323 50.93 34.1163 50.93C33.9097 50.93 33.763 50.9933 33.6763 51.12C33.5897 51.24 33.5363 51.3967 33.5163 51.59C33.503 51.7833 33.4963 51.99 33.4963 52.21V54.02C33.4963 54.2333 33.503 54.44 33.5163 54.64C33.5363 54.8333 33.5897 54.99 33.6763 55.11C33.763 55.23 33.9097 55.29 34.1163 55.29ZM37.3463 56V51.02H36.2663V50.22H39.5063V51.02H38.4163V56H37.3463ZM41.6947 56.08C41.2414 56.08 40.8914 55.9933 40.6447 55.82C40.398 55.64 40.2247 55.38 40.1247 55.04C40.0314 54.6933 39.9847 54.27 39.9847 53.77V52.45C39.9847 51.9367 40.0347 51.51 40.1347 51.17C40.2347 50.83 40.408 50.5733 40.6547 50.4C40.908 50.2267 41.2547 50.14 41.6947 50.14C42.1814 50.14 42.538 50.24 42.7647 50.44C42.998 50.64 43.1514 50.93 43.2247 51.31C43.298 51.6833 43.3347 52.1333 43.3347 52.66V53.13H41.0547V54.29C41.0547 54.5233 41.0747 54.7133 41.1147 54.86C41.1614 55.0067 41.2314 55.1167 41.3247 55.19C41.4247 55.2567 41.5514 55.29 41.7047 55.29C41.8647 55.29 41.9847 55.2533 42.0647 55.18C42.1514 55.1 42.208 54.99 42.2347 54.85C42.268 54.7033 42.2847 54.5333 42.2847 54.34V53.99H43.3247V54.21C43.3247 54.79 43.2014 55.2467 42.9547 55.58C42.708 55.9133 42.288 56.08 41.6947 56.08ZM41.0547 52.55H42.2847V52.03C42.2847 51.79 42.2714 51.59 42.2447 51.43C42.218 51.2633 42.1614 51.14 42.0747 51.06C41.9947 50.9733 41.8647 50.93 41.6847 50.93C41.5114 50.93 41.378 50.97 41.2847 51.05C41.198 51.13 41.138 51.2667 41.1047 51.46C41.0714 51.6467 41.0547 51.9067 41.0547 52.24V52.55ZM43.9337 56.05V55.24C44.1337 55.24 44.2903 55.2 44.4037 55.12C44.5237 55.04 44.6137 54.9067 44.6737 54.72C44.7403 54.5267 44.7903 54.27 44.8237 53.95C44.857 53.6233 44.887 53.2167 44.9137 52.73L45.0437 50.22H48.0737V56H47.0037V51.03H45.9837L45.8937 52.73C45.8603 53.39 45.8103 53.9367 45.7437 54.37C45.6837 54.8033 45.587 55.1433 45.4537 55.39C45.3203 55.63 45.1403 55.8 44.9137 55.9C44.6937 56 44.407 56.05 44.0537 56.05H43.9337ZM49.1572 56V50.22H50.0572V54.11L51.7972 50.22H52.6372V56H51.7572V52.08L50.0272 56H49.1572ZM57.6227 56.08C57.2893 56.08 56.9993 56.0067 56.7527 55.86C56.506 55.7067 56.316 55.4833 56.1827 55.19C56.056 54.89 55.9927 54.52 55.9927 54.08V50.68C55.9927 50.1733 56.0293 49.76 56.1027 49.44C56.1827 49.12 56.306 48.8667 56.4727 48.68C56.6393 48.4933 56.856 48.3467 57.1227 48.24C57.4027 48.1267 57.6527 48.0467 57.8727 48C58.0927 47.9533 58.3027 47.9033 58.5027 47.85C58.7093 47.79 58.9193 47.6967 59.1327 47.57L59.3527 48.46C59.166 48.58 58.9593 48.67 58.7327 48.73C58.5127 48.7833 58.2927 48.8333 58.0727 48.88C57.8527 48.92 57.646 48.9867 57.4527 49.08C57.2593 49.1733 57.1093 49.3167 57.0027 49.51C56.896 49.6967 56.8427 49.9567 56.8427 50.29V51.22C56.9293 51.1333 57.0427 51.0533 57.1827 50.98C57.3227 50.9 57.4727 50.8333 57.6327 50.78C57.7993 50.7267 57.956 50.7 58.1027 50.7C58.3427 50.7 58.5627 50.7633 58.7627 50.89C58.9627 51.0167 59.1227 51.2333 59.2427 51.54C59.3627 51.84 59.4227 52.25 59.4227 52.77V53.87C59.4227 54.4767 59.346 54.94 59.1927 55.26C59.0393 55.5733 58.826 55.79 58.5527 55.91C58.286 56.0233 57.976 56.08 57.6227 56.08ZM57.7227 55.29C57.8693 55.29 57.986 55.2567 58.0727 55.19C58.166 55.1167 58.2327 55 58.2727 54.84C58.3193 54.68 58.3427 54.4667 58.3427 54.2V52.45C58.3427 52.2033 58.326 52.0067 58.2927 51.86C58.2593 51.7133 58.206 51.6067 58.1327 51.54C58.0593 51.4667 57.9593 51.43 57.8327 51.43C57.766 51.43 57.6893 51.4433 57.6027 51.47C57.5227 51.49 57.436 51.5233 57.3427 51.57C57.256 51.61 57.1627 51.6633 57.0627 51.73V54.11C57.0627 54.39 57.0827 54.6167 57.1227 54.79C57.1693 54.9633 57.2393 55.09 57.3327 55.17C57.4327 55.25 57.5627 55.29 57.7227 55.29ZM60.3974 56V50.22H61.4674V52.61C61.4808 52.61 61.4974 52.61 61.5174 52.61C61.5441 52.61 61.5674 52.61 61.5874 52.61C61.6074 52.61 61.6241 52.61 61.6374 52.61C62.0308 52.6167 62.3641 52.6467 62.6374 52.7C62.9174 52.7467 63.1441 52.8333 63.3174 52.96C63.4908 53.08 63.6174 53.25 63.6974 53.47C63.7774 53.6833 63.8174 53.96 63.8174 54.3C63.8174 54.6133 63.7774 54.88 63.6974 55.1C63.6174 55.3133 63.4874 55.4867 63.3074 55.62C63.1274 55.7533 62.8908 55.85 62.5974 55.91C62.3041 55.97 61.9474 56 61.5274 56H60.3974ZM61.4674 55.37H61.5274C61.8674 55.37 62.1341 55.34 62.3274 55.28C62.5208 55.22 62.6574 55.1133 62.7374 54.96C62.8174 54.8 62.8574 54.5767 62.8574 54.29C62.8574 54.03 62.8208 53.8267 62.7474 53.68C62.6808 53.5267 62.5541 53.4167 62.3674 53.35C62.1874 53.2767 61.9241 53.24 61.5774 53.24C61.5708 53.24 61.5541 53.24 61.5274 53.24C61.5008 53.24 61.4808 53.24 61.4674 53.24V55.37ZM64.4774 56V50.22H65.5474V56H64.4774ZM69.003 56V47.9H70.863C71.2297 47.9 71.5464 47.94 71.813 48.02C72.0864 48.1 72.313 48.2233 72.493 48.39C72.673 48.5567 72.8064 48.77 72.893 49.03C72.9797 49.2833 73.023 49.5833 73.023 49.93C73.023 50.2633 72.9797 50.5533 72.893 50.8C72.813 51.04 72.6864 51.23 72.513 51.37C72.3464 51.51 72.1297 51.6 71.863 51.64C72.1897 51.7133 72.453 51.84 72.653 52.02C72.853 52.1933 72.9997 52.42 73.093 52.7C73.193 52.9733 73.243 53.3033 73.243 53.69C73.243 54.0367 73.203 54.3533 73.123 54.64C73.043 54.9267 72.9164 55.17 72.743 55.37C72.5764 55.57 72.3597 55.7267 72.093 55.84C71.833 55.9467 71.523 56 71.163 56H69.003ZM70.133 55.19H70.893C71.3997 55.19 71.7364 55.0733 71.903 54.84C72.0764 54.6 72.163 54.2167 72.163 53.69C72.163 53.35 72.1164 53.0667 72.023 52.84C71.9364 52.6067 71.793 52.4333 71.593 52.32C71.3997 52.2 71.1364 52.14 70.803 52.14H70.133V55.19ZM70.133 51.28H70.803C71.123 51.28 71.373 51.2367 71.553 51.15C71.733 51.0567 71.8597 50.91 71.933 50.71C72.0064 50.51 72.043 50.25 72.043 49.93C72.043 49.5567 71.9864 49.2867 71.873 49.12C71.7597 48.9533 71.583 48.85 71.343 48.81C71.103 48.7633 70.7897 48.74 70.403 48.74H70.133V51.28ZM74.1572 56V50.22H75.2272V52.61C75.2405 52.61 75.2572 52.61 75.2772 52.61C75.3039 52.61 75.3272 52.61 75.3472 52.61C75.3672 52.61 75.3839 52.61 75.3972 52.61C75.7905 52.6167 76.1239 52.6467 76.3972 52.7C76.6772 52.7467 76.9039 52.8333 77.0772 52.96C77.2505 53.08 77.3772 53.25 77.4572 53.47C77.5372 53.6833 77.5772 53.96 77.5772 54.3C77.5772 54.6133 77.5372 54.88 77.4572 55.1C77.3772 55.3133 77.2472 55.4867 77.0672 55.62C76.8872 55.7533 76.6505 55.85 76.3572 55.91C76.0639 55.97 75.7072 56 75.2872 56H74.1572ZM75.2272 55.37H75.2872C75.6272 55.37 75.8939 55.34 76.0872 55.28C76.2805 55.22 76.4172 55.1133 76.4972 54.96C76.5772 54.8 76.6172 54.5767 76.6172 54.29C76.6172 54.03 76.5805 53.8267 76.5072 53.68C76.4405 53.5267 76.3139 53.4167 76.1272 53.35C75.9472 53.2767 75.6839 53.24 75.3372 53.24C75.3305 53.24 75.3139 53.24 75.2872 53.24C75.2605 53.24 75.2405 53.24 75.2272 53.24V55.37ZM78.2372 56V50.22H79.3072V56H78.2372ZM82.6728 56V50.22H86.0328V56H84.9628V51.03H83.7428V56H82.6728ZM88.7062 56.08C88.2795 56.08 87.9428 55.9933 87.6962 55.82C87.4495 55.6467 87.2728 55.4 87.1662 55.08C87.0662 54.76 87.0162 54.3833 87.0162 53.95V52.27C87.0162 51.8367 87.0662 51.46 87.1662 51.14C87.2728 50.82 87.4495 50.5733 87.6962 50.4C87.9428 50.2267 88.2795 50.14 88.7062 50.14C89.1328 50.14 89.4662 50.2267 89.7062 50.4C89.9528 50.5733 90.1262 50.82 90.2262 51.14C90.3328 51.46 90.3862 51.8367 90.3862 52.27V53.95C90.3862 54.3833 90.3328 54.76 90.2262 55.08C90.1262 55.4 89.9528 55.6467 89.7062 55.82C89.4662 55.9933 89.1328 56.08 88.7062 56.08ZM88.7062 55.29C88.9128 55.29 89.0562 55.23 89.1362 55.11C89.2228 54.99 89.2728 54.8333 89.2862 54.64C89.3062 54.44 89.3162 54.2333 89.3162 54.02V52.21C89.3162 51.99 89.3062 51.7833 89.2862 51.59C89.2728 51.3967 89.2228 51.24 89.1362 51.12C89.0562 50.9933 88.9128 50.93 88.7062 50.93C88.4995 50.93 88.3528 50.9933 88.2662 51.12C88.1795 51.24 88.1262 51.3967 88.1062 51.59C88.0928 51.7833 88.0862 51.99 88.0862 52.21V54.02C88.0862 54.2333 88.0928 54.44 88.1062 54.64C88.1262 54.8333 88.1795 54.99 88.2662 55.11C88.3528 55.23 88.4995 55.29 88.7062 55.29ZM91.3642 56V50.22H92.2642V54.11L94.0042 50.22H94.8442V56H93.9642V52.08L92.2342 56H91.3642ZM95.9345 56V50.22H98.2645V50.99H97.0045V56H95.9345ZM98.8349 57.9V50.22H99.9049V50.68C100.032 50.5333 100.185 50.4067 100.365 50.3C100.545 50.1933 100.758 50.14 101.005 50.14C101.305 50.14 101.542 50.22 101.715 50.38C101.895 50.5333 102.028 50.73 102.115 50.97C102.202 51.2033 102.258 51.4433 102.285 51.69C102.312 51.93 102.325 52.1367 102.325 52.31V53.71C102.325 54.1167 102.285 54.5033 102.205 54.87C102.125 55.23 101.978 55.5233 101.765 55.75C101.558 55.97 101.265 56.08 100.885 56.08C100.678 56.08 100.495 56.03 100.335 55.93C100.175 55.8233 100.032 55.7033 99.9049 55.57V57.9H98.8349ZM100.675 55.24C100.862 55.24 100.995 55.1733 101.075 55.04C101.155 54.9 101.205 54.7133 101.225 54.48C101.245 54.2467 101.255 53.99 101.255 53.71V52.31C101.255 52.07 101.242 51.85 101.215 51.65C101.188 51.4433 101.132 51.28 101.045 51.16C100.958 51.04 100.822 50.98 100.635 50.98C100.495 50.98 100.362 51.01 100.235 51.07C100.108 51.13 99.9983 51.2 99.9049 51.28V54.98C100.005 55.0533 100.118 55.1167 100.245 55.17C100.372 55.2167 100.515 55.24 100.675 55.24ZM104.338 56.08C104.111 56.08 103.911 56.0167 103.738 55.89C103.564 55.7567 103.428 55.59 103.328 55.39C103.228 55.1833 103.178 54.9667 103.178 54.74C103.178 54.38 103.238 54.0767 103.358 53.83C103.478 53.5833 103.641 53.3767 103.848 53.21C104.061 53.0367 104.304 52.8867 104.578 52.76C104.858 52.6333 105.151 52.51 105.458 52.39V51.98C105.458 51.7467 105.444 51.5533 105.418 51.4C105.391 51.2467 105.334 51.1333 105.248 51.06C105.168 50.98 105.044 50.94 104.878 50.94C104.731 50.94 104.611 50.9733 104.518 51.04C104.431 51.1067 104.368 51.2033 104.328 51.33C104.288 51.45 104.268 51.5933 104.268 51.76V52.05L103.208 52.01C103.221 51.37 103.368 50.9 103.648 50.6C103.928 50.2933 104.361 50.14 104.948 50.14C105.521 50.14 105.928 50.2967 106.168 50.61C106.408 50.9233 106.528 51.3767 106.528 51.97V54.61C106.528 54.79 106.531 54.9633 106.538 55.13C106.551 55.2967 106.564 55.4533 106.578 55.6C106.598 55.74 106.614 55.8733 106.628 56H105.648C105.628 55.8933 105.601 55.76 105.568 55.6C105.541 55.4333 105.521 55.2833 105.508 55.15C105.441 55.3767 105.311 55.59 105.118 55.79C104.931 55.9833 104.671 56.08 104.338 56.08ZM104.758 55.16C104.864 55.16 104.964 55.13 105.058 55.07C105.151 55.01 105.234 54.9433 105.308 54.87C105.381 54.79 105.431 54.7267 105.458 54.68V53.04C105.291 53.1333 105.134 53.2267 104.988 53.32C104.841 53.4133 104.711 53.5133 104.598 53.62C104.491 53.72 104.404 53.8367 104.338 53.97C104.278 54.0967 104.248 54.2433 104.248 54.41C104.248 54.6433 104.291 54.8267 104.378 54.96C104.464 55.0933 104.591 55.16 104.758 55.16ZM108.206 56V51.02H107.126V50.22H110.366V51.02H109.276V56H108.206ZM111.013 56V50.22H112.083V52.61C112.096 52.61 112.113 52.61 112.133 52.61C112.159 52.61 112.183 52.61 112.203 52.61C112.223 52.61 112.239 52.61 112.253 52.61C112.646 52.6167 112.979 52.6467 113.253 52.7C113.533 52.7467 113.759 52.8333 113.933 52.96C114.106 53.08 114.233 53.25 114.313 53.47C114.393 53.6833 114.433 53.96 114.433 54.3C114.433 54.6133 114.393 54.88 114.313 55.1C114.233 55.3133 114.103 55.4867 113.923 55.62C113.743 55.7533 113.506 55.85 113.213 55.91C112.919 55.97 112.563 56 112.143 56H111.013ZM112.083 55.37H112.143C112.483 55.37 112.749 55.34 112.943 55.28C113.136 55.22 113.273 55.1133 113.353 54.96C113.433 54.8 113.473 54.5767 113.473 54.29C113.473 54.03 113.436 53.8267 113.363 53.68C113.296 53.5267 113.169 53.4167 112.983 53.35C112.803 53.2767 112.539 53.24 112.193 53.24C112.186 53.24 112.169 53.24 112.143 53.24C112.116 53.24 112.096 53.24 112.083 53.24V55.37ZM119.038 56.08C118.612 56.08 118.275 55.9933 118.028 55.82C117.782 55.6467 117.605 55.4 117.498 55.08C117.398 54.76 117.348 54.3833 117.348 53.95V52.27C117.348 51.8367 117.398 51.46 117.498 51.14C117.605 50.82 117.782 50.5733 118.028 50.4C118.275 50.2267 118.612 50.14 119.038 50.14C119.465 50.14 119.798 50.2267 120.038 50.4C120.285 50.5733 120.458 50.82 120.558 51.14C120.665 51.46 120.718 51.8367 120.718 52.27V53.95C120.718 54.3833 120.665 54.76 120.558 55.08C120.458 55.4 120.285 55.6467 120.038 55.82C119.798 55.9933 119.465 56.08 119.038 56.08ZM119.038 55.29C119.245 55.29 119.388 55.23 119.468 55.11C119.555 54.99 119.605 54.8333 119.618 54.64C119.638 54.44 119.648 54.2333 119.648 54.02V52.21C119.648 51.99 119.638 51.7833 119.618 51.59C119.605 51.3967 119.555 51.24 119.468 51.12C119.388 50.9933 119.245 50.93 119.038 50.93C118.832 50.93 118.685 50.9933 118.598 51.12C118.512 51.24 118.458 51.3967 118.438 51.59C118.425 51.7833 118.418 51.99 118.418 52.21V54.02C118.418 54.2333 118.425 54.44 118.438 54.64C118.458 54.8333 118.512 54.99 118.598 55.11C118.685 55.23 118.832 55.29 119.038 55.29ZM121.696 56V50.22H122.766V52.65H124.136V50.22H125.206V56H124.136V53.43H122.766V56H121.696ZM125.916 56.05V55.24C126.116 55.24 126.273 55.2 126.386 55.12C126.506 55.04 126.596 54.9067 126.656 54.72C126.723 54.5267 126.773 54.27 126.806 53.95C126.839 53.6233 126.869 53.2167 126.896 52.73L127.026 50.22H130.056V56H128.986V51.03H127.966L127.876 52.73C127.843 53.39 127.793 53.9367 127.726 54.37C127.666 54.8033 127.569 55.1433 127.436 55.39C127.303 55.63 127.123 55.8 126.896 55.9C126.676 56 126.389 56.05 126.036 56.05H125.916ZM132.18 56.08C131.953 56.08 131.753 56.0167 131.58 55.89C131.406 55.7567 131.27 55.59 131.17 55.39C131.07 55.1833 131.02 54.9667 131.02 54.74C131.02 54.38 131.08 54.0767 131.2 53.83C131.32 53.5833 131.483 53.3767 131.69 53.21C131.903 53.0367 132.146 52.8867 132.42 52.76C132.7 52.6333 132.993 52.51 133.3 52.39V51.98C133.3 51.7467 133.286 51.5533 133.26 51.4C133.233 51.2467 133.176 51.1333 133.09 51.06C133.01 50.98 132.886 50.94 132.72 50.94C132.573 50.94 132.453 50.9733 132.36 51.04C132.273 51.1067 132.21 51.2033 132.17 51.33C132.13 51.45 132.11 51.5933 132.11 51.76V52.05L131.05 52.01C131.063 51.37 131.21 50.9 131.49 50.6C131.77 50.2933 132.203 50.14 132.79 50.14C133.363 50.14 133.77 50.2967 134.01 50.61C134.25 50.9233 134.37 51.3767 134.37 51.97V54.61C134.37 54.79 134.373 54.9633 134.38 55.13C134.393 55.2967 134.406 55.4533 134.42 55.6C134.44 55.74 134.456 55.8733 134.47 56H133.49C133.47 55.8933 133.443 55.76 133.41 55.6C133.383 55.4333 133.363 55.2833 133.35 55.15C133.283 55.3767 133.153 55.59 132.96 55.79C132.773 55.9833 132.513 56.08 132.18 56.08ZM132.6 55.16C132.706 55.16 132.806 55.13 132.9 55.07C132.993 55.01 133.076 54.9433 133.15 54.87C133.223 54.79 133.273 54.7267 133.3 54.68V53.04C133.133 53.1333 132.976 53.2267 132.83 53.32C132.683 53.4133 132.553 53.5133 132.44 53.62C132.333 53.72 132.246 53.8367 132.18 53.97C132.12 54.0967 132.09 54.2433 132.09 54.41C132.09 54.6433 132.133 54.8267 132.22 54.96C132.306 55.0933 132.433 55.16 132.6 55.16ZM135.397 56V50.22H136.297V54.11L138.037 50.22H138.877V56H137.997V52.08L136.267 56H135.397ZM137.167 49.59C136.687 49.59 136.347 49.46 136.147 49.2C135.954 48.94 135.857 48.6167 135.857 48.23H136.477C136.484 48.47 136.537 48.6567 136.637 48.79C136.744 48.9167 136.921 48.98 137.167 48.98C137.421 48.98 137.597 48.9133 137.697 48.78C137.804 48.6467 137.857 48.4633 137.857 48.23H138.487C138.487 48.6167 138.387 48.94 138.187 49.2C137.994 49.46 137.654 49.59 137.167 49.59ZM139.968 56V50.22H141.038V52.65H142.408V50.22H143.478V56H142.408V53.43H141.038V56H139.968ZM145.638 53.97V52.73C145.971 52.4367 146.271 52.1433 146.538 51.85C146.811 51.5567 147.028 51.2467 147.188 50.92C147.348 50.5933 147.428 50.2367 147.428 49.85C147.428 49.5367 147.344 49.2767 147.178 49.07C147.018 48.8633 146.781 48.76 146.468 48.76C146.201 48.76 145.988 48.8367 145.828 48.99C145.674 49.1433 145.598 49.34 145.598 49.58C145.598 49.6667 145.604 49.75 145.618 49.83C145.631 49.9033 145.648 49.9867 145.668 50.08L144.668 50.27C144.634 50.17 144.608 50.0667 144.588 49.96C144.568 49.8467 144.558 49.74 144.558 49.64C144.558 49.1067 144.724 48.6733 145.058 48.34C145.391 48 145.861 47.83 146.468 47.83C147.101 47.83 147.594 48.01 147.948 48.37C148.301 48.7233 148.478 49.2267 148.478 49.88C148.478 50.3267 148.394 50.73 148.228 51.09C148.061 51.45 147.834 51.7833 147.548 52.09C147.261 52.3967 146.941 52.7 146.588 53V53.97H145.638ZM145.588 56V54.9H146.658V56H145.588ZM151.806 56V47.9H153.666C154.032 47.9 154.349 47.94 154.616 48.02C154.889 48.1 155.116 48.2233 155.296 48.39C155.476 48.5567 155.609 48.77 155.696 49.03C155.782 49.2833 155.826 49.5833 155.826 49.93C155.826 50.2633 155.782 50.5533 155.696 50.8C155.616 51.04 155.489 51.23 155.316 51.37C155.149 51.51 154.932 51.6 154.666 51.64C154.992 51.7133 155.256 51.84 155.456 52.02C155.656 52.1933 155.802 52.42 155.896 52.7C155.996 52.9733 156.046 53.3033 156.046 53.69C156.046 54.0367 156.006 54.3533 155.926 54.64C155.846 54.9267 155.719 55.17 155.546 55.37C155.379 55.57 155.162 55.7267 154.896 55.84C154.636 55.9467 154.326 56 153.966 56H151.806ZM152.936 55.19H153.696C154.202 55.19 154.539 55.0733 154.706 54.84C154.879 54.6 154.966 54.2167 154.966 53.69C154.966 53.35 154.919 53.0667 154.826 52.84C154.739 52.6067 154.596 52.4333 154.396 52.32C154.202 52.2 153.939 52.14 153.606 52.14H152.936V55.19ZM152.936 51.28H153.606C153.926 51.28 154.176 51.2367 154.356 51.15C154.536 51.0567 154.662 50.91 154.736 50.71C154.809 50.51 154.846 50.25 154.846 49.93C154.846 49.5567 154.789 49.2867 154.676 49.12C154.562 48.9533 154.386 48.85 154.146 48.81C153.906 48.7633 153.592 48.74 153.206 48.74H152.936V51.28ZM158 56.08C157.773 56.08 157.573 56.0167 157.4 55.89C157.227 55.7567 157.09 55.59 156.99 55.39C156.89 55.1833 156.84 54.9667 156.84 54.74C156.84 54.38 156.9 54.0767 157.02 53.83C157.14 53.5833 157.303 53.3767 157.51 53.21C157.723 53.0367 157.967 52.8867 158.24 52.76C158.52 52.6333 158.813 52.51 159.12 52.39V51.98C159.12 51.7467 159.107 51.5533 159.08 51.4C159.053 51.2467 158.997 51.1333 158.91 51.06C158.83 50.98 158.707 50.94 158.54 50.94C158.393 50.94 158.273 50.9733 158.18 51.04C158.093 51.1067 158.03 51.2033 157.99 51.33C157.95 51.45 157.93 51.5933 157.93 51.76V52.05L156.87 52.01C156.883 51.37 157.03 50.9 157.31 50.6C157.59 50.2933 158.023 50.14 158.61 50.14C159.183 50.14 159.59 50.2967 159.83 50.61C160.07 50.9233 160.19 51.3767 160.19 51.97V54.61C160.19 54.79 160.193 54.9633 160.2 55.13C160.213 55.2967 160.227 55.4533 160.24 55.6C160.26 55.74 160.277 55.8733 160.29 56H159.31C159.29 55.8933 159.263 55.76 159.23 55.6C159.203 55.4333 159.183 55.2833 159.17 55.15C159.103 55.3767 158.973 55.59 158.78 55.79C158.593 55.9833 158.333 56.08 158 56.08ZM158.42 55.16C158.527 55.16 158.627 55.13 158.72 55.07C158.813 55.01 158.897 54.9433 158.97 54.87C159.043 54.79 159.093 54.7267 159.12 54.68V53.04C158.953 53.1333 158.797 53.2267 158.65 53.32C158.503 53.4133 158.373 53.5133 158.26 53.62C158.153 53.72 158.067 53.8367 158 53.97C157.94 54.0967 157.91 54.2433 157.91 54.41C157.91 54.6433 157.953 54.8267 158.04 54.96C158.127 55.0933 158.253 55.16 158.42 55.16ZM162.798 56.08C162.324 56.08 161.964 55.9867 161.718 55.8C161.478 55.6067 161.314 55.3367 161.228 54.99C161.148 54.6433 161.108 54.24 161.108 53.78V52.45C161.108 51.9633 161.151 51.55 161.238 51.21C161.324 50.8633 161.488 50.6 161.728 50.42C161.974 50.2333 162.331 50.14 162.798 50.14C163.218 50.14 163.541 50.21 163.768 50.35C164.001 50.4833 164.161 50.6867 164.248 50.96C164.334 51.2267 164.378 51.56 164.378 51.96V52.3H163.408V51.95C163.408 51.6967 163.391 51.4967 163.358 51.35C163.324 51.2033 163.264 51.0967 163.178 51.03C163.091 50.9633 162.968 50.93 162.808 50.93C162.634 50.93 162.501 50.97 162.408 51.05C162.314 51.13 162.251 51.2667 162.218 51.46C162.191 51.6467 162.178 51.9033 162.178 52.23V54.05C162.178 54.5433 162.224 54.8733 162.318 55.04C162.411 55.2067 162.578 55.29 162.818 55.29C162.998 55.29 163.128 55.25 163.208 55.17C163.294 55.0833 163.348 54.9633 163.368 54.81C163.394 54.6567 163.408 54.4833 163.408 54.29V53.82H164.378V54.22C164.378 54.6067 164.331 54.94 164.238 55.22C164.151 55.5 163.991 55.7133 163.758 55.86C163.531 56.0067 163.211 56.08 162.798 56.08ZM167.114 56L168.564 53.05L167.204 50.22H168.224L169.454 53H169.534V50.22H170.414V53H170.494L171.714 50.22H172.734L171.374 53.05L172.824 56H171.834L170.494 53.16H170.414V56H169.534V53.16H169.444L168.104 56H167.114ZM172.885 57.47V55.29C173.085 55.1367 173.269 54.9533 173.435 54.74C173.602 54.5267 173.749 54.2567 173.875 53.93C174.002 53.6033 174.102 53.2 174.175 52.72C174.249 52.24 174.289 51.66 174.295 50.98L174.315 50.22H176.925V55.24H177.625V57.47H176.845L176.755 56H173.755L173.665 57.47H172.885ZM173.925 55.24H175.895V50.99H175.145L175.125 51.2C175.119 51.9067 175.082 52.4967 175.015 52.97C174.955 53.4367 174.869 53.82 174.755 54.12C174.649 54.4133 174.522 54.6467 174.375 54.82C174.235 54.9933 174.085 55.1333 173.925 55.24ZM178.276 57.45V56.63C178.536 56.63 178.743 56.6167 178.896 56.59C179.05 56.57 179.16 56.5267 179.226 56.46C179.293 56.4 179.326 56.3133 179.326 56.2C179.326 56.14 179.303 56.0067 179.256 55.8C179.21 55.5933 179.16 55.3733 179.106 55.14L177.946 50.22H179.026L179.806 54.54L180.556 50.22H181.636L180.256 56.32C180.196 56.6 180.086 56.82 179.926 56.98C179.766 57.1467 179.56 57.2667 179.306 57.34C179.06 57.4133 178.76 57.45 178.406 57.45H178.276ZM182.932 56V51.02H181.852V50.22H185.092V51.02H184.002V56H182.932ZM185.689 56V54.81H186.759V56H185.689ZM187.574 56V54.81H188.644V56H187.574ZM189.459 56V54.81H190.529V56H189.459Z"></path>
</svg>
