<svg xmlns="http://www.w3.org/2000/svg" fill="none" viewBox="0 0 27 34" height="34" width="27">
<path stroke="#0D0E12" fill="white" d="M14.0111 3.42019C18.3192 3.49684 22.4815 3.88654 25.5 4.85988V8.99998H1.5V4.86056C4.58773 3.87602 9.71803 3.3438 14.0111 3.42019Z"></path>
<path stroke="#0D0E12" fill="white" d="M1.53999 29.1862C2.16399 24.0259 6.21999 28.2431 6.21999 19.5765V15.8933C6.21999 14.1876 5.19443 12.6492 3.61999 11.9932L3.04179 11.7523C1.81748 11.2421 1.01999 10.0458 1.01999 8.71949C1.01999 8.03048 1.26795 7.35736 1.91596 7.12323C5.93278 5.67195 21.0671 5.672 25.084 7.12324C25.732 7.35737 25.98 8.0305 25.98 8.71952C25.98 10.0458 25.1825 11.2421 23.9582 11.7522L23.38 11.9932C21.8056 12.6492 20.78 14.1876 20.78 15.8933V19.5765C20.78 28.2431 24.836 24.1662 25.46 29.3265V30.4251C25.46 31.1292 25.2646 31.8407 24.6096 32.099C20.835 33.5875 6.15406 33.4826 2.38665 31.949C1.73455 31.6835 1.53999 30.9724 1.53999 30.2684V29.1862Z"></path>
<path stroke-linecap="round" stroke="#0D0E12" d="M5.18002 28.2432C6.74002 29.8682 20.26 29.8682 21.82 28.2432"></path>
<path stroke-linecap="round" stroke="#0D0E12" d="M20.78 11.4515C18.7 10.9099 8.30002 10.9099 6.22002 11.4515"></path>
<path fill="white" d="M1.5 8.03787C1.31184 8.19985 1.14488 8.37423 1 8.56192V3.09203C1.15086 2.98924 1.31759 2.88939 1.5 2.79267V8.03787ZM22.5 6.61298V1.77943C21.0097 1.45001 19.1688 1.21345 17 1.09229V6.05459C19.1364 6.13086 20.9966 6.29686 22.5 6.61298ZM12 6.00869V1.01587C9.68318 1.0662 7.67607 1.23414 6 1.49836V6.39536C7.70061 6.1399 9.72668 6.03708 12 6.00869Z" clip-rule="evenodd" fill-rule="evenodd"></path>
<path fill="black" d="M1 8.56192H0.5V10.028L1.3958 8.86744L1 8.56192ZM1.5 8.03787L1.82621 8.4168L2 8.26718V8.03787H1.5ZM1 3.09203L0.718459 2.67883L0.5 2.82768V3.09203H1ZM1.5 2.79267H2V1.96165L1.26579 2.35092L1.5 2.79267ZM22.5 1.77943H23V1.37788L22.6079 1.29122L22.5 1.77943ZM22.5 6.61298L22.3971 7.10228L23 7.22905V6.61298H22.5ZM17 1.09229L17.0279 0.593069L16.5 0.563579V1.09229H17ZM17 6.05459H16.5V6.53706L16.9822 6.55427L17 6.05459ZM12 1.01587H12.5V0.50489L11.9891 0.515987L12 1.01587ZM12 6.00869L12.0062 6.50865L12.5 6.50249V6.00869H12ZM6 1.49836L5.92214 1.00446L5.5 1.07101V1.49836H6ZM6 6.39536H5.5V6.97608L6.07427 6.88981L6 6.39536ZM1.3958 8.86744C1.51855 8.70841 1.66178 8.55835 1.82621 8.4168L1.17379 7.65894C0.961902 7.84135 0.7712 8.04005 0.604199 8.2564L1.3958 8.86744ZM0.5 3.09203V8.56192H1.5V3.09203H0.5ZM1.26579 2.35092C1.0691 2.45521 0.886328 2.56445 0.718459 2.67883L1.28154 3.50523C1.41539 3.41403 1.56608 3.32357 1.73421 3.23443L1.26579 2.35092ZM2 8.03787V2.79267H1V8.03787H2ZM22 1.77943V6.61298H23V1.77943H22ZM16.9721 1.59151C19.1223 1.71163 20.9351 1.94559 22.3921 2.26765L22.6079 1.29122C21.0843 0.954433 19.2154 0.715273 17.0279 0.593069L16.9721 1.59151ZM17.5 6.05459V1.09229H16.5V6.05459H17.5ZM22.6029 6.12368C21.0583 5.79889 19.1651 5.63156 17.0178 5.55491L16.9822 6.55427C19.1077 6.63015 20.9349 6.79483 22.3971 7.10228L22.6029 6.12368ZM11.5 1.01587V6.00869H12.5V1.01587H11.5ZM6.07786 1.99226C7.7268 1.73231 9.71083 1.56571 12.0109 1.51575L11.9891 0.515987C9.65553 0.566678 7.62534 0.735959 5.92214 1.00446L6.07786 1.99226ZM6.5 6.39536V1.49836H5.5V6.39536H6.5ZM11.9938 5.50873C9.71287 5.53722 7.66009 5.64038 5.92573 5.90091L6.07427 6.88981C7.74113 6.63942 9.74048 6.53695 12.0062 6.50865L11.9938 5.50873Z"></path>
</svg>
