<svg xmlns="http://www.w3.org/2000/svg" fill="none" viewBox="0 0 7 19" height="19" width="7">
<path fill-opacity="0.01" fill="white" d="M0 -0.00012207L7 -1.15965e-05V19L0 18.9999V-0.00012207Z"></path>
<path fill="#45D2FF" d="M0.792266 13.9999V4.27988H4.05627C4.64027 4.27988 5.12027 4.39188 5.49627 4.61588C5.87227 4.83188 6.15227 5.15188 6.33627 5.57588C6.52027 5.99188 6.61227 6.49988 6.61227 7.09988C6.61227 7.85188 6.48827 8.42788 6.24027 8.82788C5.99227 9.21988 5.65627 9.49188 5.23227 9.64388C4.80827 9.79588 4.33227 9.87188 3.80427 9.87188H2.94027V13.9999H0.792266ZM2.94027 8.37188H3.66027C3.92427 8.37188 4.12427 8.32388 4.26027 8.22788C4.39627 8.13188 4.48427 7.98788 4.52427 7.79588C4.57227 7.60388 4.59627 7.35988 4.59627 7.06388C4.59627 6.81588 4.57627 6.59988 4.53627 6.41588C4.50427 6.22388 4.42027 6.07188 4.28427 5.95988C4.14827 5.84788 3.93627 5.79188 3.64827 5.79188H2.94027V8.37188Z"></path>
</svg>
