<svg xmlns="http://www.w3.org/2000/svg" fill="none" viewBox="0 0 140 22" height="22" width="140">
<rect stroke="#0D0E12" fill="#0D0E12" height="21" width="139" y="0.5" x="0.5"></rect>
<path fill="white" d="M53.92 15.12C53.3067 15.12 52.82 15.01 52.46 14.79C52.1067 14.5633 51.8567 14.25 51.71 13.85C51.5633 13.4433 51.49 12.9667 51.49 12.42V9.5C51.49 8.94 51.5633 8.46 51.71 8.06C51.8567 7.65333 52.1067 7.34 52.46 7.12C52.82 6.9 53.3067 6.79 53.92 6.79C54.52 6.79 54.9867 6.89 55.32 7.09C55.66 7.28333 55.9 7.55667 56.04 7.91C56.18 8.26333 56.25 8.67 56.25 9.13V9.83H54.5V9.02C54.5 8.86 54.49 8.70667 54.47 8.56C54.4567 8.41333 54.41 8.29333 54.33 8.2C54.25 8.1 54.1133 8.05 53.92 8.05C53.7333 8.05 53.5933 8.1 53.5 8.2C53.4133 8.3 53.3567 8.42667 53.33 8.58C53.31 8.72667 53.3 8.88333 53.3 9.05V12.86C53.3 13.04 53.3133 13.2067 53.34 13.36C53.3733 13.5067 53.4333 13.6267 53.52 13.72C53.6133 13.8067 53.7467 13.85 53.92 13.85C54.1067 13.85 54.24 13.8033 54.32 13.71C54.4 13.61 54.45 13.4833 54.47 13.33C54.49 13.1767 54.5 13.02 54.5 12.86V12.01H56.25V12.71C56.25 13.17 56.18 13.5833 56.04 13.95C55.9067 14.31 55.67 14.5967 55.33 14.81C54.9967 15.0167 54.5267 15.12 53.92 15.12ZM57.2648 15V6.9H59.0548V10.18H60.3048V6.9H62.1048V15H60.3048V11.46H59.0548V15H57.2648ZM63.3383 15V6.9H66.9783V8.12H65.1283V10.13H66.5383V11.37H65.1283V13.79H66.9983V15H63.3383ZM69.9609 15.12C69.4543 15.12 69.0309 15.03 68.6909 14.85C68.3509 14.67 68.0943 14.3933 67.9209 14.02C67.7476 13.64 67.6509 13.15 67.6309 12.55L69.1609 12.32C69.1676 12.6667 69.1976 12.9467 69.2509 13.16C69.3109 13.3733 69.3909 13.5267 69.4909 13.62C69.5976 13.7133 69.7243 13.76 69.8709 13.76C70.0576 13.76 70.1776 13.6967 70.2309 13.57C70.2909 13.4433 70.3209 13.31 70.3209 13.17C70.3209 12.8367 70.2409 12.5567 70.0809 12.33C69.9209 12.0967 69.7043 11.8633 69.4309 11.63L68.7309 11.02C68.4243 10.76 68.1643 10.4667 67.9509 10.14C67.7443 9.80667 67.6409 9.39667 67.6409 8.91C67.6409 8.22333 67.8443 7.7 68.2509 7.34C68.6576 6.97333 69.2109 6.79 69.9109 6.79C70.3443 6.79 70.6909 6.86333 70.9509 7.01C71.2176 7.15667 71.4176 7.35 71.5509 7.59C71.6909 7.82333 71.7843 8.07333 71.8309 8.34C71.8843 8.6 71.9143 8.85 71.9209 9.09L70.3809 9.28C70.3743 9.04 70.3576 8.83333 70.3309 8.66C70.3109 8.48 70.2643 8.34333 70.1909 8.25C70.1176 8.15 70.0043 8.1 69.8509 8.1C69.6843 8.1 69.5609 8.17 69.4809 8.31C69.4076 8.45 69.3709 8.59 69.3709 8.73C69.3709 9.03 69.4409 9.27667 69.5809 9.47C69.7276 9.65667 69.9176 9.85333 70.1509 10.06L70.8209 10.65C71.1743 10.95 71.4709 11.29 71.7109 11.67C71.9576 12.05 72.0809 12.52 72.0809 13.08C72.0809 13.46 71.9943 13.8067 71.8209 14.12C71.6476 14.4267 71.4009 14.67 71.0809 14.85C70.7676 15.03 70.3943 15.12 69.9609 15.12ZM74.9414 15.12C74.4347 15.12 74.0114 15.03 73.6714 14.85C73.3314 14.67 73.0747 14.3933 72.9014 14.02C72.7281 13.64 72.6314 13.15 72.6114 12.55L74.1414 12.32C74.1481 12.6667 74.1781 12.9467 74.2314 13.16C74.2914 13.3733 74.3714 13.5267 74.4714 13.62C74.5781 13.7133 74.7047 13.76 74.8514 13.76C75.0381 13.76 75.1581 13.6967 75.2114 13.57C75.2714 13.4433 75.3014 13.31 75.3014 13.17C75.3014 12.8367 75.2214 12.5567 75.0614 12.33C74.9014 12.0967 74.6847 11.8633 74.4114 11.63L73.7114 11.02C73.4047 10.76 73.1447 10.4667 72.9314 10.14C72.7247 9.80667 72.6214 9.39667 72.6214 8.91C72.6214 8.22333 72.8247 7.7 73.2314 7.34C73.6381 6.97333 74.1914 6.79 74.8914 6.79C75.3247 6.79 75.6714 6.86333 75.9314 7.01C76.1981 7.15667 76.3981 7.35 76.5314 7.59C76.6714 7.82333 76.7647 8.07333 76.8114 8.34C76.8647 8.6 76.8947 8.85 76.9014 9.09L75.3614 9.28C75.3547 9.04 75.3381 8.83333 75.3114 8.66C75.2914 8.48 75.2447 8.34333 75.1714 8.25C75.0981 8.15 74.9847 8.1 74.8314 8.1C74.6647 8.1 74.5414 8.17 74.4614 8.31C74.3881 8.45 74.3514 8.59 74.3514 8.73C74.3514 9.03 74.4214 9.27667 74.5614 9.47C74.7081 9.65667 74.8981 9.85333 75.1314 10.06L75.8014 10.65C76.1547 10.95 76.4514 11.29 76.6914 11.67C76.9381 12.05 77.0614 12.52 77.0614 13.08C77.0614 13.46 76.9747 13.8067 76.8014 14.12C76.6281 14.4267 76.3814 14.67 76.0614 14.85C75.7481 15.03 75.3747 15.12 74.9414 15.12ZM80.4867 15V6.9H82.7167C83.2634 6.9 83.7367 6.96 84.1367 7.08C84.5367 7.2 84.8467 7.41667 85.0667 7.73C85.2934 8.03667 85.4067 8.47333 85.4067 9.04C85.4067 9.37333 85.3801 9.67 85.3267 9.93C85.2734 10.19 85.1734 10.4167 85.0267 10.61C84.8867 10.7967 84.6834 10.9533 84.4167 11.08L85.5267 15H83.6767L82.7867 11.37H82.2767V15H80.4867ZM82.2767 10.34H82.7767C83.0301 10.34 83.2267 10.2967 83.3667 10.21C83.5067 10.1167 83.6034 9.98667 83.6567 9.82C83.7167 9.64667 83.7467 9.44 83.7467 9.2C83.7467 8.85333 83.6834 8.58333 83.5567 8.39C83.4301 8.19667 83.1967 8.1 82.8567 8.1H82.2767V10.34ZM88.774 15.12C88.154 15.12 87.6673 15.02 87.314 14.82C86.9673 14.6133 86.724 14.3167 86.584 13.93C86.444 13.5367 86.374 13.0567 86.374 12.49V6.9H88.144V12.76C88.144 12.9267 88.1573 13.0933 88.184 13.26C88.2107 13.4267 88.2673 13.5633 88.354 13.67C88.4473 13.7767 88.5873 13.83 88.774 13.83C88.9673 13.83 89.1073 13.7767 89.194 13.67C89.2807 13.5633 89.334 13.4267 89.354 13.26C89.3807 13.0933 89.394 12.9267 89.394 12.76V6.9H91.174V12.49C91.174 13.0567 91.1007 13.5367 90.954 13.93C90.814 14.3167 90.5707 14.6133 90.224 14.82C89.8773 15.02 89.394 15.12 88.774 15.12ZM92.3129 15V6.9H94.1029V13.79H95.9629V15H92.3129ZM96.7465 15V6.9H100.386V8.12H98.5365V10.13H99.9465V11.37H98.5365V13.79H100.406V15H96.7465ZM103.369 15.12C102.862 15.12 102.439 15.03 102.099 14.85C101.759 14.67 101.502 14.3933 101.329 14.02C101.156 13.64 101.059 13.15 101.039 12.55L102.569 12.32C102.576 12.6667 102.606 12.9467 102.659 13.16C102.719 13.3733 102.799 13.5267 102.899 13.62C103.006 13.7133 103.132 13.76 103.279 13.76C103.466 13.76 103.586 13.6967 103.639 13.57C103.699 13.4433 103.729 13.31 103.729 13.17C103.729 12.8367 103.649 12.5567 103.489 12.33C103.329 12.0967 103.112 11.8633 102.839 11.63L102.139 11.02C101.832 10.76 101.572 10.4667 101.359 10.14C101.152 9.80667 101.049 9.39667 101.049 8.91C101.049 8.22333 101.252 7.7 101.659 7.34C102.066 6.97333 102.619 6.79 103.319 6.79C103.752 6.79 104.099 6.86333 104.359 7.01C104.626 7.15667 104.826 7.35 104.959 7.59C105.099 7.82333 105.192 8.07333 105.239 8.34C105.292 8.6 105.322 8.85 105.329 9.09L103.789 9.28C103.782 9.04 103.766 8.83333 103.739 8.66C103.719 8.48 103.672 8.34333 103.599 8.25C103.526 8.15 103.412 8.1 103.259 8.1C103.092 8.1 102.969 8.17 102.889 8.31C102.816 8.45 102.779 8.59 102.779 8.73C102.779 9.03 102.849 9.27667 102.989 9.47C103.136 9.65667 103.326 9.85333 103.559 10.06L104.229 10.65C104.582 10.95 104.879 11.29 105.119 11.67C105.366 12.05 105.489 12.52 105.489 13.08C105.489 13.46 105.402 13.8067 105.229 14.12C105.056 14.4267 104.809 14.67 104.489 14.85C104.176 15.03 103.802 15.12 103.369 15.12Z"></path>
<path stroke-width="0.5" stroke="#0D0E12" fill="white" d="M34 15.5C34.2251 12.7985 37.2884 13.1379 37.8958 10.4939C38.0194 9.9556 38.4477 9.5 39 9.5C39.5523 9.5 39.9806 9.9556 40.1042 10.4939C40.7116 13.1379 43.7749 12.7985 44 15.5V15.7871C44 16.4232 43.8104 17.0563 43.2032 17.2459C41.3171 17.8347 36.6829 17.8347 34.7968 17.2459C34.1897 17.0563 34 16.4232 34 15.7871V15.5Z"></path>
<circle stroke-width="0.5" stroke="#0D0E12" fill="white" r="2.25" cy="5.5" cx="39"></circle>
<path stroke-width="0.5" stroke="#0D0E12" fill="white" d="M35.6502 9.75987C35.3312 9.69779 35.1184 9.49941 35.0422 9.2967C34.9714 9.10853 35.0064 8.89269 35.2396 8.71843C35.6084 8.4429 36.1625 8.2252 36.8307 8.07783C37.4948 7.93136 38.2528 7.85844 39.0136 7.85988C39.7744 7.86133 40.5315 7.93714 41.1937 8.08452C41.86 8.23283 42.4112 8.44943 42.7758 8.72004C42.9988 8.88553 43.0354 9.09325 42.9704 9.27589C42.9006 9.47193 42.7013 9.66511 42.3982 9.72941C41.5607 9.90708 40.3074 10.0001 39.0376 10.0049C37.7681 10.0098 36.5055 9.92634 35.6502 9.75987Z"></path>
<path stroke-linecap="round" stroke-width="0.5" stroke="#0D0E12" d="M35 15.5C35.75 16.25 42.25 16.25 43 15.5"></path>
</svg>
