<svg xmlns="http://www.w3.org/2000/svg" fill="none" viewBox="0 0 156 56" height="56" width="156">
<rect stroke="white" fill="#0D0E12" height="55" width="155" y="0.5" x="0.5"></rect>
<path fill="white" d="M43.7834 23V17.22H45.8334C46.4134 17.22 46.8501 17.2833 47.1434 17.41C47.4368 17.53 47.6334 17.6967 47.7334 17.91C47.8334 18.1233 47.8834 18.3733 47.8834 18.66C47.8834 19.04 47.8001 19.32 47.6334 19.5C47.4734 19.6733 47.2601 19.7967 46.9934 19.87C47.2734 19.9367 47.4868 20.0367 47.6334 20.17C47.7801 20.3033 47.8801 20.4667 47.9334 20.66C47.9934 20.8533 48.0234 21.0767 48.0234 21.33C48.0234 21.7033 47.9534 22.0167 47.8134 22.27C47.6734 22.5167 47.4368 22.7 47.1034 22.82C46.7701 22.94 46.3168 23 45.7434 23H43.7834ZM45.4034 22.1H45.6734C45.8201 22.1 45.9501 22.0867 46.0634 22.06C46.1768 22.0333 46.2668 21.9633 46.3334 21.85C46.4068 21.73 46.4434 21.54 46.4434 21.28C46.4434 20.9867 46.4101 20.7767 46.3434 20.65C46.2834 20.5233 46.1968 20.4467 46.0834 20.42C45.9701 20.3933 45.8368 20.38 45.6834 20.38H45.4034V22.1ZM45.4034 19.5H45.8134C46.0068 19.5 46.1401 19.44 46.2134 19.32C46.2868 19.1933 46.3234 19.02 46.3234 18.8C46.3234 18.5867 46.2834 18.41 46.2034 18.27C46.1301 18.13 45.9601 18.06 45.6934 18.06H45.4034V19.5ZM48.8323 24.9V17.22H50.4623V17.64C50.6556 17.4667 50.8623 17.3367 51.0823 17.25C51.3023 17.1633 51.5123 17.12 51.7123 17.12C51.9323 17.12 52.1189 17.1633 52.2723 17.25C52.4323 17.3367 52.5623 17.46 52.6623 17.62C52.7623 17.7733 52.8356 17.9533 52.8823 18.16C52.9289 18.3667 52.9523 18.5867 52.9523 18.82V21.31C52.9523 21.67 52.9023 21.9833 52.8023 22.25C52.7089 22.5167 52.5689 22.7267 52.3823 22.88C52.1956 23.0267 51.9656 23.1 51.6923 23.1C51.4856 23.1 51.2756 23.0533 51.0623 22.96C50.8556 22.86 50.6556 22.7267 50.4623 22.56V24.9H48.8323ZM50.8923 22.05C50.9989 22.05 51.0823 22.02 51.1423 21.96C51.2023 21.9 51.2456 21.8233 51.2723 21.73C51.3056 21.63 51.3223 21.52 51.3223 21.4V18.7C51.3223 18.5867 51.3089 18.4867 51.2823 18.4C51.2556 18.3067 51.2123 18.2333 51.1523 18.18C51.0923 18.1267 51.0156 18.1 50.9223 18.1C50.8356 18.1 50.7523 18.12 50.6723 18.16C50.5989 18.1933 50.5289 18.24 50.4623 18.3V21.9C50.5356 21.9467 50.6056 21.9833 50.6723 22.01C50.7456 22.0367 50.8189 22.05 50.8923 22.05ZM54.0411 24.68V23.55C54.2478 23.55 54.4178 23.5367 54.5511 23.51C54.6911 23.4833 54.7944 23.4333 54.8611 23.36C54.9344 23.2867 54.9711 23.1867 54.9711 23.06C54.9711 22.9467 54.9511 22.81 54.9111 22.65C54.8711 22.4833 54.8211 22.2967 54.7611 22.09L53.4011 17.22H54.9311L55.6611 20.56L56.2111 17.22H57.7511L56.4211 23.14C56.3344 23.54 56.1978 23.85 56.0111 24.07C55.8244 24.2967 55.5944 24.4533 55.3211 24.54C55.0544 24.6333 54.7511 24.68 54.4111 24.68H54.0411ZM60.6735 23V20.67C60.5868 20.6767 60.4968 20.6833 60.4035 20.69C60.3168 20.6967 60.2302 20.7 60.1435 20.7C59.6502 20.7 59.2635 20.6433 58.9835 20.53C58.7102 20.41 58.5168 20.2433 58.4035 20.03C58.2968 19.81 58.2435 19.55 58.2435 19.25V17.22H59.8635V19.15C59.8635 19.3567 59.9035 19.51 59.9835 19.61C60.0635 19.71 60.2268 19.7667 60.4735 19.78C60.5068 19.78 60.5368 19.78 60.5635 19.78C60.5968 19.7733 60.6335 19.77 60.6735 19.77V17.22H62.3035V23H60.6735ZM64.5145 23.1C64.2211 23.1 63.9745 23.03 63.7745 22.89C63.5745 22.75 63.4245 22.5733 63.3245 22.36C63.2245 22.14 63.1745 21.9167 63.1745 21.69C63.1745 21.33 63.2445 21.0267 63.3845 20.78C63.5311 20.5333 63.7211 20.3267 63.9545 20.16C64.1878 19.9933 64.4445 19.8533 64.7245 19.74C65.0045 19.62 65.2811 19.5133 65.5545 19.42V18.84C65.5545 18.74 65.5445 18.6533 65.5245 18.58C65.5045 18.5 65.4711 18.44 65.4245 18.4C65.3778 18.3533 65.3078 18.33 65.2145 18.33C65.1211 18.33 65.0478 18.35 64.9945 18.39C64.9478 18.43 64.9145 18.4867 64.8945 18.56C64.8745 18.6267 64.8611 18.7033 64.8545 18.79L64.8145 19.21L63.2945 19.15C63.3278 18.4567 63.5111 17.9467 63.8445 17.62C64.1845 17.2867 64.6911 17.12 65.3645 17.12C65.9511 17.12 66.3878 17.2833 66.6745 17.61C66.9678 17.93 67.1145 18.3467 67.1145 18.86V21.56C67.1145 21.8 67.1178 22.01 67.1245 22.19C67.1378 22.37 67.1511 22.5267 67.1645 22.66C67.1845 22.7933 67.2011 22.9067 67.2145 23H65.7545C65.7345 22.8467 65.7111 22.68 65.6845 22.5C65.6578 22.32 65.6378 22.2133 65.6245 22.18C65.5578 22.42 65.4311 22.6333 65.2445 22.82C65.0645 23.0067 64.8211 23.1 64.5145 23.1ZM65.0945 22C65.1611 22 65.2211 21.9867 65.2745 21.96C65.3345 21.9333 65.3878 21.8967 65.4345 21.85C65.4811 21.8033 65.5211 21.7567 65.5545 21.71V20.13C65.4211 20.21 65.2978 20.2933 65.1845 20.38C65.0711 20.46 64.9745 20.55 64.8945 20.65C64.8145 20.75 64.7511 20.86 64.7045 20.98C64.6645 21.0933 64.6445 21.2233 64.6445 21.37C64.6445 21.5633 64.6845 21.7167 64.7645 21.83C64.8445 21.9433 64.9545 22 65.0945 22ZM69.9703 23.1C69.5503 23.1 69.1903 23.0267 68.8903 22.88C68.5903 22.7267 68.3603 22.5067 68.2003 22.22C68.0403 21.9267 67.9603 21.5767 67.9603 21.17V19.05C67.9603 18.6367 68.0403 18.2867 68.2003 18C68.3603 17.7133 68.5903 17.4967 68.8903 17.35C69.197 17.1967 69.557 17.12 69.9703 17.12C70.397 17.12 70.7503 17.1933 71.0303 17.34C71.317 17.4867 71.5303 17.7033 71.6703 17.99C71.817 18.2767 71.8903 18.63 71.8903 19.05V20.21H69.5703V21.32C69.5703 21.4667 69.587 21.5867 69.6203 21.68C69.6536 21.7733 69.7003 21.84 69.7603 21.88C69.8203 21.92 69.8903 21.94 69.9703 21.94C70.0503 21.94 70.1203 21.9233 70.1803 21.89C70.247 21.85 70.297 21.79 70.3303 21.71C70.3703 21.63 70.3903 21.52 70.3903 21.38V20.77H71.8903V21.33C71.8903 21.9167 71.7203 22.36 71.3803 22.66C71.0403 22.9533 70.5703 23.1 69.9703 23.1ZM69.5703 19.45H70.3903V18.87C70.3903 18.7167 70.3703 18.5967 70.3303 18.51C70.297 18.4233 70.247 18.3633 70.1803 18.33C70.1203 18.2967 70.047 18.28 69.9603 18.28C69.8803 18.28 69.8103 18.3 69.7503 18.34C69.697 18.38 69.6536 18.45 69.6203 18.55C69.587 18.6433 69.5703 18.78 69.5703 18.96V19.45ZM73.4385 23V18.32H72.3885V17.22H76.1085V18.32H75.0585V23H73.4385ZM78.6713 23.1C78.2513 23.1 77.8913 23.0233 77.5913 22.87C77.2979 22.7167 77.0713 22.4967 76.9113 22.21C76.7513 21.9233 76.6713 21.5767 76.6713 21.17V19.05C76.6713 18.6367 76.7513 18.2867 76.9113 18C77.0713 17.7133 77.2979 17.4967 77.5913 17.35C77.8913 17.1967 78.2513 17.12 78.6713 17.12C79.0846 17.12 79.4346 17.1833 79.7213 17.31C80.0146 17.4367 80.2379 17.63 80.3913 17.89C80.5446 18.1433 80.6213 18.4667 80.6213 18.86V19.47H79.0513V18.81C79.0513 18.6567 79.0346 18.54 79.0013 18.46C78.9746 18.3733 78.9313 18.3133 78.8713 18.28C78.8179 18.2467 78.7513 18.23 78.6713 18.23C78.5913 18.23 78.5246 18.2533 78.4713 18.3C78.4179 18.34 78.3779 18.41 78.3513 18.51C78.3246 18.6033 78.3113 18.7367 78.3113 18.91V21.31C78.3113 21.57 78.3413 21.7467 78.4013 21.84C78.4679 21.9333 78.5613 21.98 78.6813 21.98C78.7679 21.98 78.8379 21.9633 78.8913 21.93C78.9446 21.89 78.9846 21.83 79.0113 21.75C79.0379 21.6633 79.0513 21.55 79.0513 21.41V20.64H80.6213V21.34C80.6213 21.7267 80.5413 22.0533 80.3813 22.32C80.2279 22.58 80.0046 22.7767 79.7113 22.91C79.4246 23.0367 79.0779 23.1 78.6713 23.1ZM81.129 23L82.029 20.6C81.8757 20.5133 81.7457 20.3933 81.639 20.24C81.5323 20.0867 81.4523 19.9067 81.399 19.7C81.3457 19.4933 81.319 19.27 81.319 19.03C81.319 18.7633 81.3557 18.52 81.429 18.3C81.509 18.08 81.6323 17.89 81.799 17.73C81.9723 17.57 82.1957 17.4467 82.469 17.36C82.7423 17.2667 83.0723 17.22 83.459 17.22H85.609V23H83.989V20.94C83.9623 20.94 83.889 20.94 83.769 20.94C83.649 20.9333 83.559 20.9267 83.499 20.92L82.849 23H81.129ZM83.919 19.98C83.9323 19.98 83.9457 19.98 83.959 19.98C83.9723 19.98 83.9823 19.98 83.989 19.98V18.14C83.9823 18.14 83.9723 18.14 83.959 18.14C83.9457 18.14 83.9323 18.14 83.919 18.14C83.6723 18.14 83.4657 18.1733 83.299 18.24C83.1323 18.3067 83.0057 18.4067 82.919 18.54C82.839 18.6667 82.799 18.8267 82.799 19.02C82.799 19.3467 82.8957 19.5867 83.089 19.74C83.289 19.8933 83.5657 19.9733 83.919 19.98ZM89.8838 23V18.32H88.8338V17.22H92.5538V18.32H91.5038V23H89.8838ZM95.0584 23.1C94.6451 23.1 94.2851 23.03 93.9784 22.89C93.6784 22.75 93.4451 22.54 93.2784 22.26C93.1184 21.98 93.0384 21.63 93.0384 21.21V19.01C93.0384 18.59 93.1184 18.24 93.2784 17.96C93.4451 17.68 93.6784 17.47 93.9784 17.33C94.2851 17.19 94.6451 17.12 95.0584 17.12C95.4718 17.12 95.8284 17.19 96.1284 17.33C96.4351 17.47 96.6718 17.68 96.8384 17.96C97.0051 18.24 97.0884 18.59 97.0884 19.01V21.21C97.0884 21.63 97.0051 21.98 96.8384 22.26C96.6718 22.54 96.4351 22.75 96.1284 22.89C95.8284 23.03 95.4718 23.1 95.0584 23.1ZM95.0684 22.02C95.1751 22.02 95.2584 21.9933 95.3184 21.94C95.3784 21.88 95.4184 21.8 95.4384 21.7C95.4651 21.5933 95.4784 21.4667 95.4784 21.32V18.9C95.4784 18.7533 95.4651 18.63 95.4384 18.53C95.4184 18.4233 95.3784 18.3433 95.3184 18.29C95.2584 18.23 95.1751 18.2 95.0684 18.2C94.9618 18.2 94.8784 18.23 94.8184 18.29C94.7584 18.3433 94.7151 18.4233 94.6884 18.53C94.6618 18.63 94.6484 18.7533 94.6484 18.9V21.32C94.6484 21.4667 94.6618 21.5933 94.6884 21.7C94.7151 21.8 94.7584 21.88 94.8184 21.94C94.8784 21.9933 94.9618 22.02 95.0684 22.02ZM97.9824 23L98.0024 17.22H99.2024L100.382 19.99L101.572 17.22H102.772L102.792 23H101.522V19.96L100.632 22.1H100.152L99.2524 19.95V23H97.9824ZM103.973 24.68V23.55C104.179 23.55 104.349 23.5367 104.483 23.51C104.623 23.4833 104.726 23.4333 104.793 23.36C104.866 23.2867 104.903 23.1867 104.903 23.06C104.903 22.9467 104.883 22.81 104.843 22.65C104.803 22.4833 104.753 22.2967 104.693 22.09L103.333 17.22H104.863L105.593 20.56L106.143 17.22H107.683L106.353 23.14C106.266 23.54 106.129 23.85 105.943 24.07C105.756 24.2967 105.526 24.4533 105.253 24.54C104.986 24.6333 104.683 24.68 104.343 24.68H103.973ZM108.465 24.4L108.365 23.87C108.538 23.8233 108.698 23.7367 108.845 23.61C108.998 23.49 109.075 23.2867 109.075 23H108.215V21.46H109.765V22.79C109.758 23.2833 109.648 23.6667 109.435 23.94C109.222 24.2133 108.898 24.3667 108.465 24.4ZM29.218 38V32.22H30.848V34.5H31.088L31.968 32.22H33.718L32.578 34.95L33.748 38H32.028L31.088 35.44H30.848V38H29.218ZM35.045 38V33.32H33.995V32.22H37.715V33.32H36.665V38H35.045ZM40.2196 38.1C39.8062 38.1 39.4462 38.03 39.1396 37.89C38.8396 37.75 38.6062 37.54 38.4396 37.26C38.2796 36.98 38.1996 36.63 38.1996 36.21V34.01C38.1996 33.59 38.2796 33.24 38.4396 32.96C38.6062 32.68 38.8396 32.47 39.1396 32.33C39.4462 32.19 39.8062 32.12 40.2196 32.12C40.6329 32.12 40.9896 32.19 41.2896 32.33C41.5962 32.47 41.8329 32.68 41.9996 32.96C42.1662 33.24 42.2496 33.59 42.2496 34.01V36.21C42.2496 36.63 42.1662 36.98 41.9996 37.26C41.8329 37.54 41.5962 37.75 41.2896 37.89C40.9896 38.03 40.6329 38.1 40.2196 38.1ZM40.2296 37.02C40.3362 37.02 40.4196 36.9933 40.4796 36.94C40.5396 36.88 40.5796 36.8 40.5996 36.7C40.6262 36.5933 40.6396 36.4667 40.6396 36.32V33.9C40.6396 33.7533 40.6262 33.63 40.5996 33.53C40.5796 33.4233 40.5396 33.3433 40.4796 33.29C40.4196 33.23 40.3362 33.2 40.2296 33.2C40.1229 33.2 40.0396 33.23 39.9796 33.29C39.9196 33.3433 39.8762 33.4233 39.8496 33.53C39.8229 33.63 39.8096 33.7533 39.8096 33.9V36.32C39.8096 36.4667 39.8229 36.5933 39.8496 36.7C39.8762 36.8 39.9196 36.88 39.9796 36.94C40.0396 36.9933 40.1229 37.02 40.2296 37.02ZM45.7121 38V32.22H49.8121V38H48.1821V33.33H47.3421V38H45.7121ZM52.7196 38.1C52.3062 38.1 51.9462 38.03 51.6396 37.89C51.3396 37.75 51.1062 37.54 50.9396 37.26C50.7796 36.98 50.6996 36.63 50.6996 36.21V34.01C50.6996 33.59 50.7796 33.24 50.9396 32.96C51.1062 32.68 51.3396 32.47 51.6396 32.33C51.9462 32.19 52.3062 32.12 52.7196 32.12C53.1329 32.12 53.4896 32.19 53.7896 32.33C54.0962 32.47 54.3329 32.68 54.4996 32.96C54.6662 33.24 54.7496 33.59 54.7496 34.01V36.21C54.7496 36.63 54.6662 36.98 54.4996 37.26C54.3329 37.54 54.0962 37.75 53.7896 37.89C53.4896 38.03 53.1329 38.1 52.7196 38.1ZM52.7296 37.02C52.8362 37.02 52.9196 36.9933 52.9796 36.94C53.0396 36.88 53.0796 36.8 53.0996 36.7C53.1262 36.5933 53.1396 36.4667 53.1396 36.32V33.9C53.1396 33.7533 53.1262 33.63 53.0996 33.53C53.0796 33.4233 53.0396 33.3433 52.9796 33.29C52.9196 33.23 52.8362 33.2 52.7296 33.2C52.6229 33.2 52.5396 33.23 52.4796 33.29C52.4196 33.3433 52.3762 33.4233 52.3496 33.53C52.3229 33.63 52.3096 33.7533 52.3096 33.9V36.32C52.3096 36.4667 52.3229 36.5933 52.3496 36.7C52.3762 36.8 52.4196 36.88 52.4796 36.94C52.5396 36.9933 52.6229 37.02 52.7296 37.02ZM57.5436 38.1C57.0102 38.0867 56.6002 37.99 56.3136 37.81C56.0336 37.63 55.8436 37.37 55.7436 37.03C55.6436 36.6833 55.5936 36.27 55.5936 35.79V32.56C55.5936 32.0267 55.6469 31.6 55.7536 31.28C55.8669 30.96 56.0202 30.7133 56.2136 30.54C56.4136 30.3667 56.6436 30.2333 56.9036 30.14C57.1636 30.0467 57.4236 29.9733 57.6836 29.92C57.9502 29.8667 58.2069 29.8067 58.4536 29.74C58.7069 29.6667 58.9402 29.56 59.1536 29.42L59.2136 30.73C58.9936 30.8433 58.7602 30.9267 58.5136 30.98C58.2736 31.0267 58.0369 31.07 57.8036 31.11C57.5769 31.1433 57.3669 31.2 57.1736 31.28C57.0002 31.3467 56.8769 31.4733 56.8036 31.66C56.7302 31.84 56.6936 32.09 56.6936 32.41V32.85C56.7802 32.75 56.8869 32.6667 57.0136 32.6C57.1469 32.5333 57.3002 32.4833 57.4736 32.45C57.6536 32.4167 57.8502 32.4 58.0636 32.4C58.4169 32.4 58.7036 32.4667 58.9236 32.6C59.1436 32.7333 59.3036 32.9533 59.4036 33.26C59.5102 33.5667 59.5636 33.9833 59.5636 34.51V35.92C59.5636 36.5133 59.4769 36.97 59.3036 37.29C59.1369 37.6033 58.9002 37.8167 58.5936 37.93C58.2936 38.0433 57.9436 38.1 57.5436 38.1ZM57.6136 37.05C57.7402 37.05 57.8302 37.0167 57.8836 36.95C57.9436 36.8833 57.9836 36.76 58.0036 36.58C58.0236 36.3933 58.0336 36.12 58.0336 35.76V34.22C58.0336 34 58.0236 33.8267 58.0036 33.7C57.9836 33.5667 57.9436 33.4733 57.8836 33.42C57.8236 33.3667 57.7369 33.34 57.6236 33.34C57.5502 33.34 57.4802 33.3633 57.4136 33.41C57.3536 33.45 57.3036 33.52 57.2636 33.62C57.2236 33.7133 57.1902 33.8467 57.1636 34.02V35.75C57.1636 36.1033 57.1736 36.3733 57.1936 36.56C57.2136 36.7467 57.2569 36.8767 57.3236 36.95C57.3902 37.0167 57.4869 37.05 57.6136 37.05ZM62.3775 38.1C61.9575 38.1 61.5975 38.0267 61.2975 37.88C60.9975 37.7267 60.7675 37.5067 60.6075 37.22C60.4475 36.9267 60.3675 36.5767 60.3675 36.17V34.05C60.3675 33.6367 60.4475 33.2867 60.6075 33C60.7675 32.7133 60.9975 32.4967 61.2975 32.35C61.6042 32.1967 61.9642 32.12 62.3775 32.12C62.8042 32.12 63.1575 32.1933 63.4375 32.34C63.7242 32.4867 63.9375 32.7033 64.0775 32.99C64.2242 33.2767 64.2975 33.63 64.2975 34.05V35.21H61.9775V36.32C61.9775 36.4667 61.9942 36.5867 62.0275 36.68C62.0609 36.7733 62.1075 36.84 62.1675 36.88C62.2275 36.92 62.2975 36.94 62.3775 36.94C62.4575 36.94 62.5275 36.9233 62.5875 36.89C62.6542 36.85 62.7042 36.79 62.7375 36.71C62.7775 36.63 62.7975 36.52 62.7975 36.38V35.77H64.2975V36.33C64.2975 36.9167 64.1275 37.36 63.7875 37.66C63.4475 37.9533 62.9775 38.1 62.3775 38.1ZM61.9775 34.45H62.7975V33.87C62.7975 33.7167 62.7775 33.5967 62.7375 33.51C62.7042 33.4233 62.6542 33.3633 62.5875 33.33C62.5275 33.2967 62.4542 33.28 62.3675 33.28C62.2875 33.28 62.2175 33.3 62.1575 33.34C62.1042 33.38 62.0609 33.45 62.0275 33.55C61.9942 33.6433 61.9775 33.78 61.9775 33.96V34.45ZM64.9948 39.57V37.01C65.2148 36.91 65.4048 36.78 65.5648 36.62C65.7248 36.4533 65.8615 36.2533 65.9748 36.02C66.0881 35.78 66.1781 35.5033 66.2448 35.19C66.3115 34.87 66.3581 34.5067 66.3848 34.1L66.5548 32.22H69.7348V37H70.5748V39.57H69.4048L69.2948 38H66.2748L66.1848 39.57H64.9948ZM66.7548 37H68.2448V33.19H67.7648L67.6448 34.49C67.6248 34.8567 67.5881 35.1767 67.5348 35.45C67.4815 35.7167 67.4148 35.95 67.3348 36.15C67.2615 36.3433 67.1748 36.51 67.0748 36.65C66.9748 36.7833 66.8681 36.9 66.7548 37ZM71.259 38V32.22H72.549V35.31L74.059 32.22H75.329V38H74.009V34.94L72.539 38H71.259ZM77.0371 38V33.32H75.9871V32.22H79.7071V33.32H78.6571V38H77.0371ZM82.9485 38V32.22H84.9985C85.5785 32.22 86.0151 32.2833 86.3085 32.41C86.6018 32.53 86.7985 32.6967 86.8985 32.91C86.9985 33.1233 87.0485 33.3733 87.0485 33.66C87.0485 34.04 86.9651 34.32 86.7985 34.5C86.6385 34.6733 86.4251 34.7967 86.1585 34.87C86.4385 34.9367 86.6518 35.0367 86.7985 35.17C86.9451 35.3033 87.0451 35.4667 87.0985 35.66C87.1585 35.8533 87.1885 36.0767 87.1885 36.33C87.1885 36.7033 87.1185 37.0167 86.9785 37.27C86.8385 37.5167 86.6018 37.7 86.2685 37.82C85.9351 37.94 85.4818 38 84.9085 38H82.9485ZM84.5685 37.1H84.8385C84.9851 37.1 85.1151 37.0867 85.2285 37.06C85.3418 37.0333 85.4318 36.9633 85.4985 36.85C85.5718 36.73 85.6085 36.54 85.6085 36.28C85.6085 35.9867 85.5751 35.7767 85.5085 35.65C85.4485 35.5233 85.3618 35.4467 85.2485 35.42C85.1351 35.3933 85.0018 35.38 84.8485 35.38H84.5685V37.1ZM84.5685 34.5H84.9785C85.1718 34.5 85.3051 34.44 85.3785 34.32C85.4518 34.1933 85.4885 34.02 85.4885 33.8C85.4885 33.5867 85.4485 33.41 85.3685 33.27C85.2951 33.13 85.1251 33.06 84.8585 33.06H84.5685V34.5ZM89.8773 38.1C89.4573 38.1 89.0973 38.0233 88.7973 37.87C88.504 37.7167 88.2773 37.4967 88.1173 37.21C87.9573 36.9233 87.8773 36.5767 87.8773 36.17V34.05C87.8773 33.6367 87.9573 33.2867 88.1173 33C88.2773 32.7133 88.504 32.4967 88.7973 32.35C89.0973 32.1967 89.4573 32.12 89.8773 32.12C90.2906 32.12 90.6406 32.1833 90.9273 32.31C91.2206 32.4367 91.444 32.63 91.5973 32.89C91.7506 33.1433 91.8273 33.4667 91.8273 33.86V34.47H90.2573V33.81C90.2573 33.6567 90.2406 33.54 90.2073 33.46C90.1806 33.3733 90.1373 33.3133 90.0773 33.28C90.024 33.2467 89.9573 33.23 89.8773 33.23C89.7973 33.23 89.7306 33.2533 89.6773 33.3C89.624 33.34 89.584 33.41 89.5573 33.51C89.5306 33.6033 89.5173 33.7367 89.5173 33.91V36.31C89.5173 36.57 89.5473 36.7467 89.6073 36.84C89.674 36.9333 89.7673 36.98 89.8873 36.98C89.974 36.98 90.044 36.9633 90.0973 36.93C90.1506 36.89 90.1906 36.83 90.2173 36.75C90.244 36.6633 90.2573 36.55 90.2573 36.41V35.64H91.8273V36.34C91.8273 36.7267 91.7473 37.0533 91.5873 37.32C91.434 37.58 91.2106 37.7767 90.9173 37.91C90.6306 38.0367 90.284 38.1 89.8773 38.1ZM94.565 38.1C94.145 38.1 93.785 38.0267 93.485 37.88C93.185 37.7267 92.955 37.5067 92.795 37.22C92.635 36.9267 92.555 36.5767 92.555 36.17V34.05C92.555 33.6367 92.635 33.2867 92.795 33C92.955 32.7133 93.185 32.4967 93.485 32.35C93.7917 32.1967 94.1517 32.12 94.565 32.12C94.9917 32.12 95.345 32.1933 95.625 32.34C95.9117 32.4867 96.125 32.7033 96.265 32.99C96.4117 33.2767 96.485 33.63 96.485 34.05V35.21H94.165V36.32C94.165 36.4667 94.1817 36.5867 94.215 36.68C94.2484 36.7733 94.295 36.84 94.355 36.88C94.415 36.92 94.485 36.94 94.565 36.94C94.645 36.94 94.715 36.9233 94.775 36.89C94.8417 36.85 94.8917 36.79 94.925 36.71C94.965 36.63 94.985 36.52 94.985 36.38V35.77H96.485V36.33C96.485 36.9167 96.315 37.36 95.975 37.66C95.635 37.9533 95.165 38.1 94.565 38.1ZM94.165 34.45H94.985V33.87C94.985 33.7167 94.965 33.5967 94.925 33.51C94.8917 33.4233 94.8417 33.3633 94.775 33.33C94.715 33.2967 94.6417 33.28 94.555 33.28C94.475 33.28 94.405 33.3 94.345 33.34C94.2917 33.38 94.2484 33.45 94.215 33.55C94.1817 33.6433 94.165 33.78 94.165 33.96V34.45ZM96.9723 38L98.2023 34.83L97.0323 32.22H98.6723L99.2923 33.61L99.8423 32.22H101.092L99.9523 35.07L101.262 38H99.6023L98.9023 36.41L98.3223 38H96.9723ZM106.245 38.1C105.711 38.0867 105.301 37.99 105.015 37.81C104.735 37.63 104.545 37.37 104.445 37.03C104.345 36.6833 104.295 36.27 104.295 35.79V32.56C104.295 32.0267 104.348 31.6 104.455 31.28C104.568 30.96 104.721 30.7133 104.915 30.54C105.115 30.3667 105.345 30.2333 105.605 30.14C105.865 30.0467 106.125 29.9733 106.385 29.92C106.651 29.8667 106.908 29.8067 107.155 29.74C107.408 29.6667 107.641 29.56 107.855 29.42L107.915 30.73C107.695 30.8433 107.461 30.9267 107.215 30.98C106.975 31.0267 106.738 31.07 106.505 31.11C106.278 31.1433 106.068 31.2 105.875 31.28C105.701 31.3467 105.578 31.4733 105.505 31.66C105.431 31.84 105.395 32.09 105.395 32.41V32.85C105.481 32.75 105.588 32.6667 105.715 32.6C105.848 32.5333 106.001 32.4833 106.175 32.45C106.355 32.4167 106.551 32.4 106.765 32.4C107.118 32.4 107.405 32.4667 107.625 32.6C107.845 32.7333 108.005 32.9533 108.105 33.26C108.211 33.5667 108.265 33.9833 108.265 34.51V35.92C108.265 36.5133 108.178 36.97 108.005 37.29C107.838 37.6033 107.601 37.8167 107.295 37.93C106.995 38.0433 106.645 38.1 106.245 38.1ZM106.315 37.05C106.441 37.05 106.531 37.0167 106.585 36.95C106.645 36.8833 106.685 36.76 106.705 36.58C106.725 36.3933 106.735 36.12 106.735 35.76V34.22C106.735 34 106.725 33.8267 106.705 33.7C106.685 33.5667 106.645 33.4733 106.585 33.42C106.525 33.3667 106.438 33.34 106.325 33.34C106.251 33.34 106.181 33.3633 106.115 33.41C106.055 33.45 106.005 33.52 105.965 33.62C105.925 33.7133 105.891 33.8467 105.865 34.02V35.75C105.865 36.1033 105.875 36.3733 105.895 36.56C105.915 36.7467 105.958 36.8767 106.025 36.95C106.091 37.0167 106.188 37.05 106.315 37.05ZM111.089 38.1C110.675 38.1 110.315 38.03 110.009 37.89C109.709 37.75 109.475 37.54 109.309 37.26C109.149 36.98 109.069 36.63 109.069 36.21V34.01C109.069 33.59 109.149 33.24 109.309 32.96C109.475 32.68 109.709 32.47 110.009 32.33C110.315 32.19 110.675 32.12 111.089 32.12C111.502 32.12 111.859 32.19 112.159 32.33C112.465 32.47 112.702 32.68 112.869 32.96C113.035 33.24 113.119 33.59 113.119 34.01V36.21C113.119 36.63 113.035 36.98 112.869 37.26C112.702 37.54 112.465 37.75 112.159 37.89C111.859 38.03 111.502 38.1 111.089 38.1ZM111.099 37.02C111.205 37.02 111.289 36.9933 111.349 36.94C111.409 36.88 111.449 36.8 111.469 36.7C111.495 36.5933 111.509 36.4667 111.509 36.32V33.9C111.509 33.7533 111.495 33.63 111.469 33.53C111.449 33.4233 111.409 33.3433 111.349 33.29C111.289 33.23 111.205 33.2 111.099 33.2C110.992 33.2 110.909 33.23 110.849 33.29C110.789 33.3433 110.745 33.4233 110.719 33.53C110.692 33.63 110.679 33.7533 110.679 33.9V36.32C110.679 36.4667 110.692 36.5933 110.719 36.7C110.745 36.8 110.789 36.88 110.849 36.94C110.909 36.9933 110.992 37.02 111.099 37.02ZM114.645 38V33.32H113.595V32.22H117.315V33.32H116.265V38H114.645ZM119.819 38.1C119.406 38.1 119.046 38.03 118.739 37.89C118.439 37.75 118.206 37.54 118.039 37.26C117.879 36.98 117.799 36.63 117.799 36.21V34.01C117.799 33.59 117.879 33.24 118.039 32.96C118.206 32.68 118.439 32.47 118.739 32.33C119.046 32.19 119.406 32.12 119.819 32.12C120.233 32.12 120.589 32.19 120.889 32.33C121.196 32.47 121.433 32.68 121.599 32.96C121.766 33.24 121.849 33.59 121.849 34.01V36.21C121.849 36.63 121.766 36.98 121.599 37.26C121.433 37.54 121.196 37.75 120.889 37.89C120.589 38.03 120.233 38.1 119.819 38.1ZM119.829 37.02C119.936 37.02 120.019 36.9933 120.079 36.94C120.139 36.88 120.179 36.8 120.199 36.7C120.226 36.5933 120.239 36.4667 120.239 36.32V33.9C120.239 33.7533 120.226 33.63 120.199 33.53C120.179 33.4233 120.139 33.3433 120.079 33.29C120.019 33.23 119.936 33.2 119.829 33.2C119.723 33.2 119.639 33.23 119.579 33.29C119.519 33.3433 119.476 33.4233 119.449 33.53C119.423 33.63 119.409 33.7533 119.409 33.9V36.32C119.409 36.4667 119.423 36.5933 119.449 36.7C119.476 36.8 119.519 36.88 119.579 36.94C119.639 36.9933 119.723 37.02 119.829 37.02ZM122.753 38V32.22H124.803C125.383 32.22 125.82 32.2833 126.113 32.41C126.406 32.53 126.603 32.6967 126.703 32.91C126.803 33.1233 126.853 33.3733 126.853 33.66C126.853 34.04 126.77 34.32 126.603 34.5C126.443 34.6733 126.23 34.7967 125.963 34.87C126.243 34.9367 126.456 35.0367 126.603 35.17C126.75 35.3033 126.85 35.4667 126.903 35.66C126.963 35.8533 126.993 36.0767 126.993 36.33C126.993 36.7033 126.923 37.0167 126.783 37.27C126.643 37.5167 126.406 37.7 126.073 37.82C125.74 37.94 125.286 38 124.713 38H122.753ZM124.373 37.1H124.643C124.79 37.1 124.92 37.0867 125.033 37.06C125.146 37.0333 125.236 36.9633 125.303 36.85C125.376 36.73 125.413 36.54 125.413 36.28C125.413 35.9867 125.38 35.7767 125.313 35.65C125.253 35.5233 125.166 35.4467 125.053 35.42C124.94 35.3933 124.806 35.38 124.653 35.38H124.373V37.1ZM124.373 34.5H124.783C124.976 34.5 125.11 34.44 125.183 34.32C125.256 34.1933 125.293 34.02 125.293 33.8C125.293 33.5867 125.253 33.41 125.173 33.27C125.1 33.13 124.93 33.06 124.663 33.06H124.373V34.5Z"></path>
</svg>
