<svg xmlns="http://www.w3.org/2000/svg" fill="none" viewBox="0 0 7 19" height="19" width="7">
<path fill-opacity="0.01" fill="white" d="M0.5 0H6.49999V19H0.5V0Z"></path>
<path fill="#45D2FF" d="M0.909969 14V12.584L3.23797 9.008C3.41397 8.744 3.57797 8.488 3.72997 8.24C3.88997 7.992 4.01797 7.74 4.11397 7.484C4.21797 7.228 4.26997 6.96 4.26997 6.68C4.26997 6.4 4.21397 6.192 4.10197 6.056C3.98997 5.92 3.83797 5.852 3.64597 5.852C3.42997 5.852 3.26197 5.912 3.14197 6.032C3.02197 6.152 2.93797 6.312 2.88997 6.512C2.84997 6.712 2.82997 6.936 2.82997 7.184V7.664H0.885969V7.148C0.885969 6.572 0.977969 6.06 1.16197 5.612C1.34597 5.156 1.63797 4.8 2.03797 4.544C2.43797 4.28 2.96197 4.148 3.60997 4.148C4.48197 4.148 5.13797 4.376 5.57797 4.832C6.02597 5.28 6.24997 5.908 6.24997 6.716C6.24997 7.108 6.18597 7.472 6.05797 7.808C5.93797 8.144 5.77397 8.472 5.56597 8.792C5.36597 9.104 5.14997 9.432 4.91797 9.776L3.14197 12.428H5.98597V14H0.909969Z"></path>
</svg>
