<svg xmlns="http://www.w3.org/2000/svg" fill="none" viewBox="0 0 27 34" height="34" width="27">
<path stroke="#0D0E12" fill="white" d="M14.0111 3.42031C18.3192 3.49696 22.4815 3.88666 25.5 4.86001V9.0001H1.5V4.86068C4.58773 3.87614 9.71803 3.34392 14.0111 3.42031Z"></path>
<path stroke="#0D0E12" fill="white" d="M1.53999 29.1864C2.16399 24.0261 6.21999 28.2433 6.21999 19.5766V15.8934C6.21999 14.1877 5.19443 12.6493 3.61999 11.9933L3.04179 11.7524C1.81748 11.2422 1.01999 10.046 1.01999 8.71962C1.01999 8.0306 1.26795 7.35748 1.91596 7.12335C5.93278 5.67207 21.0671 5.67212 25.084 7.12337C25.732 7.35749 25.98 8.03062 25.98 8.71964C25.98 10.046 25.1825 11.2422 23.9582 11.7524L23.38 11.9933C21.8056 12.6493 20.78 14.1877 20.78 15.8934V19.5766C20.78 28.2433 24.836 24.1663 25.46 29.3266V30.4253C25.46 31.1293 25.2646 31.8408 24.6096 32.0991C20.835 33.5876 6.15406 33.4828 2.38665 31.9491C1.73455 31.6836 1.53999 30.9726 1.53999 30.2685V29.1864Z"></path>
<path stroke-linecap="round" stroke="#0D0E12" d="M5.18002 28.2433C6.74002 29.8683 20.26 29.8683 21.82 28.2433"></path>
<path stroke-linecap="round" stroke="#0D0E12" d="M20.78 11.4517C18.7 10.91 8.30002 10.91 6.22002 11.4517"></path>
<path fill="white" d="M4.5 6.68286C2.89285 7.07009 1.6934 7.66369 1 8.562V3.09211C1.76598 2.57019 2.94125 2.12406 4.5 1.77951V6.68286ZM25 7.45938V2.55262C23.7272 1.99697 21.879 1.56391 19.5 1.29796V6.19933C21.8705 6.40039 23.7564 6.78098 25 7.45938ZM15 6.00858V1.01595C14.5136 1.00538 14.0135 1 13.5 1C11.657 1 9.98728 1.06932 8.5 1.19883V6.13525C10.0095 6.03352 11.6877 6 13.5 6C14.0109 6 14.5112 6.00267 15 6.00858Z" clip-rule="evenodd" fill-rule="evenodd"></path>
<path fill="black" d="M1 8.562H0.5V10.028L1.3958 8.86752L1 8.562ZM4.5 6.68286L4.61712 7.16895L5 7.0767V6.68286H4.5ZM1 3.09211L0.718459 2.6789L0.5 2.82776V3.09211H1ZM4.5 1.77951H5V1.15692L4.39208 1.29129L4.5 1.77951ZM25 2.55262H25.5V2.22533L25.2 2.09439L25 2.55262ZM25 7.45938L24.7606 7.89832L25.5 8.30168V7.45938H25ZM19.5 1.29796L19.5555 0.801054L19 0.738949V1.29796H19.5ZM19.5 6.19933H19V6.65872L19.4577 6.69755L19.5 6.19933ZM15 1.01595H15.5V0.526691L15.0109 0.516066L15 1.01595ZM15 6.00858L14.994 6.50854L15.5 6.51466V6.00858H15ZM8.5 1.19883L8.45662 0.70072L8 0.740483V1.19883H8.5ZM8.5 6.13525H8V6.67009L8.53362 6.63412L8.5 6.13525ZM1.3958 8.86752C1.98556 8.10347 3.05058 7.54639 4.61712 7.16895L4.38288 6.19677C2.73512 6.59379 1.40124 7.2239 0.604199 8.25648L1.3958 8.86752ZM0.5 3.09211V8.562H1.5V3.09211H0.5ZM4.39208 1.29129C2.80701 1.64166 1.5606 2.1051 0.718459 2.6789L1.28154 3.50531C1.97137 3.03528 3.07549 2.60645 4.60792 2.26772L4.39208 1.29129ZM5 6.68286V1.77951H4V6.68286H5ZM24.5 2.55262V7.45938H25.5V2.55262H24.5ZM19.4445 1.79486C21.8004 2.05823 23.5926 2.48377 24.8 3.01086L25.2 2.09439C23.8618 1.51018 21.9577 1.06958 19.5555 0.801054L19.4445 1.79486ZM20 6.19933V1.29796H19V6.19933H20ZM25.2394 7.02044C23.8987 6.28906 21.9234 5.90308 19.5423 5.70112L19.4577 6.69755C21.8175 6.8977 23.614 7.2729 24.7606 7.89832L25.2394 7.02044ZM14.5 1.01595V6.00858H15.5V1.01595H14.5ZM13.5 1.5C14.01 1.5 14.5065 1.50535 14.9891 1.51583L15.0109 0.516066C14.5207 0.505418 14.017 0.5 13.5 0.5V1.5ZM8.54338 1.69695C10.0142 1.56887 11.6692 1.5 13.5 1.5V0.5C11.6448 0.5 9.96041 0.569768 8.45662 0.70072L8.54338 1.69695ZM9 6.13525V1.19883H8V6.13525H9ZM13.5 5.5C11.6828 5.5 9.99192 5.53356 8.46638 5.63638L8.53362 6.63412C10.027 6.53347 11.6926 6.5 13.5 6.5V5.5ZM15.006 5.50861C14.5149 5.50267 14.0126 5.5 13.5 5.5V6.5C14.0092 6.5 14.5074 6.50266 14.994 6.50854L15.006 5.50861Z"></path>
</svg>
