<svg xmlns="http://www.w3.org/2000/svg" fill="none" viewBox="0 0 140 22" height="22" width="140">
<rect stroke="#0D0E12" fill="#0D0E12" height="21" width="139" y="0.5" x="0.5"></rect>
<path fill="white" d="M41.92 15.12C41.3067 15.12 40.82 15.01 40.46 14.79C40.1067 14.5633 39.8567 14.25 39.71 13.85C39.5633 13.4433 39.49 12.9667 39.49 12.42V9.5C39.49 8.94 39.5633 8.46 39.71 8.06C39.8567 7.65333 40.1067 7.34 40.46 7.12C40.82 6.9 41.3067 6.79 41.92 6.79C42.52 6.79 42.9867 6.89 43.32 7.09C43.66 7.28333 43.9 7.55667 44.04 7.91C44.18 8.26333 44.25 8.67 44.25 9.13V9.83H42.5V9.02C42.5 8.86 42.49 8.70667 42.47 8.56C42.4567 8.41333 42.41 8.29333 42.33 8.2C42.25 8.1 42.1133 8.05 41.92 8.05C41.7333 8.05 41.5933 8.1 41.5 8.2C41.4133 8.3 41.3567 8.42667 41.33 8.58C41.31 8.72667 41.3 8.88333 41.3 9.05V12.86C41.3 13.04 41.3133 13.2067 41.34 13.36C41.3733 13.5067 41.4333 13.6267 41.52 13.72C41.6133 13.8067 41.7467 13.85 41.92 13.85C42.1067 13.85 42.24 13.8033 42.32 13.71C42.4 13.61 42.45 13.4833 42.47 13.33C42.49 13.1767 42.5 13.02 42.5 12.86V12.01H44.25V12.71C44.25 13.17 44.18 13.5833 44.04 13.95C43.9067 14.31 43.67 14.5967 43.33 14.81C42.9967 15.0167 42.5267 15.12 41.92 15.12ZM45.2048 15L45.3448 6.9H47.2648L48.1548 11.61L49.1148 6.9H50.9648L51.1048 15H49.8348L49.6848 9.61L48.7448 15H47.6148L46.6148 9.57L46.4948 15H45.2048ZM54.5958 15.12C53.9891 15.12 53.5091 15.0133 53.1558 14.8C52.8024 14.5867 52.5491 14.28 52.3958 13.88C52.2424 13.48 52.1658 13.0033 52.1658 12.45V9.44C52.1658 8.88 52.2424 8.40333 52.3958 8.01C52.5491 7.61667 52.8024 7.31667 53.1558 7.11C53.5091 6.89667 53.9891 6.79 54.5958 6.79C55.2091 6.79 55.6924 6.89667 56.0458 7.11C56.4058 7.31667 56.6624 7.61667 56.8158 8.01C56.9691 8.40333 57.0458 8.88 57.0458 9.44V12.45C57.0458 13.0033 56.9691 13.48 56.8158 13.88C56.6624 14.28 56.4058 14.5867 56.0458 14.8C55.6924 15.0133 55.2091 15.12 54.5958 15.12ZM54.5958 13.85C54.7824 13.85 54.9191 13.8033 55.0058 13.71C55.0924 13.6167 55.1491 13.4967 55.1758 13.35C55.2024 13.2033 55.2158 13.0533 55.2158 12.9V9C55.2158 8.84 55.2024 8.69 55.1758 8.55C55.1491 8.40333 55.0924 8.28333 55.0058 8.19C54.9191 8.09667 54.7824 8.05 54.5958 8.05C54.4224 8.05 54.2924 8.09667 54.2058 8.19C54.1191 8.28333 54.0624 8.40333 54.0358 8.55C54.0091 8.69 53.9958 8.84 53.9958 9V12.9C53.9958 13.0533 54.0058 13.2033 54.0258 13.35C54.0524 13.4967 54.1058 13.6167 54.1858 13.71C54.2724 13.8033 54.4091 13.85 54.5958 13.85ZM58.8652 15V8.23H57.6452V6.9H61.8752V8.23H60.6652V15H58.8652ZM62.5883 15V6.9H65.3083C65.7949 6.9 66.1949 6.99333 66.5083 7.18C66.8216 7.36 67.0549 7.62667 67.2083 7.98C67.3616 8.32667 67.4383 8.75 67.4383 9.25C67.4383 9.87667 67.3349 10.3567 67.1283 10.69C66.9216 11.0167 66.6416 11.2433 66.2883 11.37C65.9349 11.4967 65.5383 11.56 65.0983 11.56H64.3783V15H62.5883ZM64.3783 10.31H64.9783C65.1983 10.31 65.3649 10.27 65.4783 10.19C65.5916 10.11 65.6649 9.99 65.6983 9.83C65.7383 9.67 65.7583 9.46667 65.7583 9.22C65.7583 9.01333 65.7416 8.83333 65.7083 8.68C65.6816 8.52 65.6116 8.39333 65.4983 8.3C65.3849 8.20667 65.2083 8.16 64.9683 8.16H64.3783V10.31ZM68.3012 15V6.9H71.9412V8.12H70.0912V10.13H71.5012V11.37H70.0912V13.79H71.9612V15H68.3012ZM73.5038 15V8.23H72.2838V6.9H76.5138V8.23H75.3038V15H73.5038ZM77.257 15V6.9H79.047V10.32H79.447C79.9536 10.32 80.3836 10.4033 80.737 10.57C81.0903 10.7367 81.3603 10.9933 81.547 11.34C81.7336 11.68 81.827 12.12 81.827 12.66C81.827 13.1533 81.7603 13.5533 81.627 13.86C81.5003 14.1667 81.3203 14.4033 81.087 14.57C80.8536 14.7367 80.5803 14.85 80.267 14.91C79.9603 14.97 79.6303 15 79.277 15H77.257ZM79.047 13.83H79.287C79.5136 13.83 79.6903 13.7867 79.817 13.7C79.9503 13.6133 80.0436 13.48 80.097 13.3C80.157 13.12 80.1836 12.8933 80.177 12.62C80.1703 12.32 80.107 12.07 79.987 11.87C79.8736 11.6633 79.6336 11.56 79.267 11.56H79.047V13.83ZM85.3422 15V6.9H90.1922V15H88.4322V8.18H87.1022V15H85.3422ZM91.0069 15L92.5369 6.9H94.5769L96.0869 15H94.4369L94.1669 13.29H92.9769L92.6969 15H91.0069ZM93.1369 12.22H93.9969L93.5669 9.06L93.1369 12.22ZM96.9047 15V6.9H99.6247C100.111 6.9 100.511 6.99333 100.825 7.18C101.138 7.36 101.371 7.62667 101.525 7.98C101.678 8.32667 101.755 8.75 101.755 9.25C101.755 9.87667 101.651 10.3567 101.445 10.69C101.238 11.0167 100.958 11.2433 100.605 11.37C100.251 11.4967 99.8547 11.56 99.4147 11.56H98.6947V15H96.9047ZM98.6947 10.31H99.2947C99.5147 10.31 99.6814 10.27 99.7947 10.19C99.908 10.11 99.9814 9.99 100.015 9.83C100.055 9.67 100.075 9.46667 100.075 9.22C100.075 9.01333 100.058 8.83333 100.025 8.68C99.998 8.52 99.928 8.39333 99.8147 8.3C99.7014 8.20667 99.5247 8.16 99.2847 8.16H98.6947V10.31ZM103.348 15V8.23H102.128V6.9H106.358V8.23H105.148V15H103.348ZM107.101 15V6.9H108.511V11.54L110.581 6.9H111.741V15H110.301V10.28L108.191 15H107.101ZM112.999 15V6.9H114.409V11.54L116.479 6.9H117.639V15H116.199V10.28L114.089 15H112.999Z"></path>
<path fill="white" d="M33 10.7667C33 12.3556 30.0899 15.5333 26.5 15.5333C22.9101 15.5333 20 12.3556 20 10.7667C20 9.17778 22.9101 6 26.5 6C30.0899 6 33 9.17778 33 10.7667Z"></path>
<circle fill="black" r="3.03376" cy="10.7674" cx="26.5007"></circle>
<circle fill="white" r="1.30018" cy="10.7675" cx="26.5009"></circle>
</svg>
