<svg xmlns="http://www.w3.org/2000/svg" fill="none" viewBox="0 0 7 19" height="19" width="7">
<path fill-opacity="0.01" fill="white" d="M0.5 0H6.5V19H0.5V0Z"></path>
<path fill="#45D2FF" d="M3.71797 14.144C3.10997 14.144 2.60197 14.036 2.19397 13.82C1.78597 13.604 1.47797 13.272 1.26997 12.824C1.06197 12.368 0.945969 11.78 0.921969 11.06L2.75797 10.784C2.76597 11.2 2.80197 11.536 2.86597 11.792C2.93797 12.048 3.03397 12.232 3.15397 12.344C3.28197 12.456 3.43397 12.512 3.60997 12.512C3.83397 12.512 3.97797 12.436 4.04197 12.284C4.11397 12.132 4.14997 11.972 4.14997 11.804C4.14997 11.404 4.05397 11.068 3.86197 10.796C3.66997 10.516 3.40997 10.236 3.08197 9.956L2.24197 9.224C1.87397 8.912 1.56197 8.56 1.30597 8.168C1.05797 7.768 0.933969 7.276 0.933969 6.692C0.933969 5.868 1.17797 5.24 1.66597 4.808C2.15397 4.368 2.81797 4.148 3.65797 4.148C4.17797 4.148 4.59397 4.236 4.90597 4.412C5.22597 4.588 5.46597 4.82 5.62597 5.108C5.79397 5.388 5.90597 5.688 5.96197 6.008C6.02597 6.32 6.06197 6.62 6.06997 6.908L4.22197 7.136C4.21397 6.848 4.19397 6.6 4.16197 6.392C4.13797 6.176 4.08197 6.012 3.99397 5.9C3.90597 5.78 3.76997 5.72 3.58597 5.72C3.38597 5.72 3.23797 5.804 3.14197 5.972C3.05397 6.14 3.00997 6.308 3.00997 6.476C3.00997 6.836 3.09397 7.132 3.26197 7.364C3.43797 7.588 3.66597 7.824 3.94597 8.072L4.74997 8.78C5.17397 9.14 5.52997 9.548 5.81797 10.004C6.11397 10.46 6.26197 11.024 6.26197 11.696C6.26197 12.152 6.15797 12.568 5.94997 12.944C5.74197 13.312 5.44597 13.604 5.06197 13.82C4.68597 14.036 4.23797 14.144 3.71797 14.144Z"></path>
</svg>
