<svg xmlns="http://www.w3.org/2000/svg" fill="none" viewBox="0 0 140 22" height="22" width="140">
<rect fill="#0D0E12" height="22" width="140"></rect>
<path fill="white" d="M46.2256 15V6.9H47.6356V11.54L49.7056 6.9H50.8656V15H49.4256V10.28L47.3156 15H46.2256ZM52.124 15V6.9H55.874V8.23H53.914V15H52.124ZM56.7229 15V6.9H59.4429C59.9296 6.9 60.3296 6.99333 60.6429 7.18C60.9563 7.36 61.1896 7.62667 61.3429 7.98C61.4963 8.32667 61.5729 8.75 61.5729 9.25C61.5729 9.87667 61.4696 10.3567 61.2629 10.69C61.0563 11.0167 60.7763 11.2433 60.4229 11.37C60.0696 11.4967 59.6729 11.56 59.2329 11.56H58.5129V15H56.7229ZM58.5129 10.31H59.1129C59.3329 10.31 59.4996 10.27 59.6129 10.19C59.7263 10.11 59.7996 9.99 59.8329 9.83C59.8729 9.67 59.8929 9.46667 59.8929 9.22C59.8929 9.01333 59.8763 8.83333 59.8429 8.68C59.8163 8.52 59.7463 8.39333 59.6329 8.3C59.5196 8.20667 59.3429 8.16 59.1029 8.16H58.5129V10.31ZM61.8798 15L63.4098 6.9H65.4498L66.9598 15H65.3098L65.0398 13.29H63.8498L63.5698 15H61.8798ZM64.0098 12.22H64.8698L64.4398 9.06L64.0098 12.22ZM68.3807 15V8.23H67.1607V6.9H71.3907V8.23H70.1807V15H68.3807ZM72.1338 15V6.9H73.9238V10.32H74.3238C74.8305 10.32 75.2605 10.4033 75.6138 10.57C75.9671 10.7367 76.2371 10.9933 76.4238 11.34C76.6105 11.68 76.7038 12.12 76.7038 12.66C76.7038 13.1533 76.6371 13.5533 76.5038 13.86C76.3771 14.1667 76.1971 14.4033 75.9638 14.57C75.7305 14.7367 75.4571 14.85 75.1438 14.91C74.8371 14.97 74.5071 15 74.1538 15H72.1338ZM73.9238 13.83H74.1638C74.3905 13.83 74.5671 13.7867 74.6938 13.7C74.8271 13.6133 74.9205 13.48 74.9738 13.3C75.0338 13.12 75.0605 12.8933 75.0538 12.62C75.0471 12.32 74.9838 12.07 74.8638 11.87C74.7505 11.6633 74.5105 11.56 74.1438 11.56H73.9238V13.83ZM82.539 15.12C81.9324 15.12 81.4524 15.0133 81.099 14.8C80.7457 14.5867 80.4924 14.28 80.339 13.88C80.1857 13.48 80.109 13.0033 80.109 12.45V9.44C80.109 8.88 80.1857 8.40333 80.339 8.01C80.4924 7.61667 80.7457 7.31667 81.099 7.11C81.4524 6.89667 81.9324 6.79 82.539 6.79C83.1524 6.79 83.6357 6.89667 83.989 7.11C84.349 7.31667 84.6057 7.61667 84.759 8.01C84.9124 8.40333 84.989 8.88 84.989 9.44V12.45C84.989 13.0033 84.9124 13.48 84.759 13.88C84.6057 14.28 84.349 14.5867 83.989 14.8C83.6357 15.0133 83.1524 15.12 82.539 15.12ZM82.539 13.85C82.7257 13.85 82.8624 13.8033 82.949 13.71C83.0357 13.6167 83.0924 13.4967 83.119 13.35C83.1457 13.2033 83.159 13.0533 83.159 12.9V9C83.159 8.84 83.1457 8.69 83.119 8.55C83.0924 8.40333 83.0357 8.28333 82.949 8.19C82.8624 8.09667 82.7257 8.05 82.539 8.05C82.3657 8.05 82.2357 8.09667 82.149 8.19C82.0624 8.28333 82.0057 8.40333 81.979 8.55C81.9524 8.69 81.939 8.84 81.939 9V12.9C81.939 13.0533 81.949 13.2033 81.969 13.35C81.9957 13.4967 82.049 13.6167 82.129 13.71C82.2157 13.8033 82.3524 13.85 82.539 13.85ZM86.1084 15V6.9H87.8984V10.18H89.1484V6.9H90.9484V15H89.1484V11.46H87.8984V15H86.1084ZM91.6519 15V13.74C91.8786 13.74 92.0619 13.7267 92.2019 13.7C92.3419 13.6667 92.4519 13.5933 92.5319 13.48C92.6119 13.3667 92.6752 13.1933 92.7219 12.96C92.7686 12.7267 92.8052 12.4133 92.8319 12.02C92.8652 11.6267 92.9052 11.1267 92.9519 10.52L93.2119 6.9H97.5019V15H95.7219V8.27H94.8319L94.6719 10.86C94.6252 11.5267 94.5786 12.1033 94.5319 12.59C94.4852 13.07 94.4086 13.4733 94.3019 13.8C94.2019 14.1267 94.0486 14.3833 93.8419 14.57C93.6419 14.75 93.3652 14.8733 93.0119 14.94C92.6586 15.0067 92.2052 15.0267 91.6519 15ZM98.3544 15L99.8844 6.9H101.924L103.434 15H101.784L101.514 13.29H100.324L100.044 15H98.3544ZM100.484 12.22H101.344L100.914 9.06L100.484 12.22ZM104.282 15V6.9H105.692V11.54L107.762 6.9H108.922V15H107.482V10.28L105.372 15H104.282ZM106.732 6.25C106.259 6.25 105.879 6.11667 105.592 5.85C105.306 5.58333 105.162 5.19667 105.162 4.69H106.082C106.082 4.93667 106.129 5.12 106.222 5.24C106.322 5.36 106.492 5.42 106.732 5.42C106.966 5.42 107.132 5.36 107.232 5.24C107.332 5.11333 107.382 4.93 107.382 4.69H108.302C108.302 5.19667 108.159 5.58333 107.872 5.85C107.586 6.11667 107.206 6.25 106.732 6.25ZM110.181 15V6.9H111.971V10.18H113.221V6.9H115.021V15H113.221V11.46H111.971V15H110.181Z"></path>
<path fill="white" d="M34.7418 10.5702C34.7422 10.5469 34.7424 10.5235 34.7424 10.5001C34.7424 8.3335 32.9861 6.57715 30.8195 6.57715C29.4797 6.57715 28.2969 7.24875 27.5891 8.27364C27.3459 8.15673 27.0732 8.09123 26.7853 8.09123C25.759 8.09123 24.927 8.92319 24.927 9.94945C24.927 10.1677 24.9647 10.3772 25.0338 10.5717C24.9984 10.5698 24.9629 10.5688 24.927 10.5688C23.8628 10.5688 23 11.4316 23 12.4958C23 13.5601 23.8628 14.4229 24.927 14.4229L24.948 14.4228L27.5259 14.4228L27.5423 14.4229L27.5587 14.4228L30.7919 14.4229L30.8195 14.423L30.847 14.4229L34.6897 14.4229V14.4228C35.7442 14.4114 36.5956 13.553 36.5956 12.4958C36.5956 11.4561 35.7721 10.6087 34.7418 10.5702Z" clip-rule="evenodd" fill-rule="evenodd"></path>
<circle fill="#33FF00" r="3" cy="6" cx="134"></circle>
</svg>
