<svg xmlns="http://www.w3.org/2000/svg" fill="none" viewBox="0 0 214 84" height="84" width="214">
<mask fill="white" id="path-1-inside-1_1605_2">
<path d="M0 0H214V84H0V0Z"></path>
</mask>
<path fill="#0D0E12" d="M0 0H214V84H0V0Z"></path>
<path mask="url(#path-1-inside-1_1605_2)" fill="white" d="M0 0V-1H-1V0H0ZM0 84H-1V85H0V84ZM0 1H214V-1H0V1ZM214 83H0V85H214V83ZM1 84V0H-1V84H1Z"></path>
<path fill="white" d="M19.504 38.144C18.768 38.144 18.184 38.012 17.752 37.748C17.328 37.476 17.028 37.1 16.852 36.62C16.676 36.132 16.588 35.56 16.588 34.904V31.4C16.588 30.728 16.676 30.152 16.852 29.672C17.028 29.184 17.328 28.808 17.752 28.544C18.184 28.28 18.768 28.148 19.504 28.148C20.224 28.148 20.784 28.268 21.184 28.508C21.592 28.74 21.88 29.068 22.048 29.492C22.216 29.916 22.3 30.404 22.3 30.956V31.796H20.2V30.824C20.2 30.632 20.188 30.448 20.164 30.272C20.148 30.096 20.092 29.952 19.996 29.84C19.9 29.72 19.736 29.66 19.504 29.66C19.28 29.66 19.112 29.72 19 29.84C18.896 29.96 18.828 30.112 18.796 30.296C18.772 30.472 18.76 30.66 18.76 30.86V35.432C18.76 35.648 18.776 35.848 18.808 36.032C18.848 36.208 18.92 36.352 19.024 36.464C19.136 36.568 19.296 36.62 19.504 36.62C19.728 36.62 19.888 36.564 19.984 36.452C20.08 36.332 20.14 36.18 20.164 35.996C20.188 35.812 20.2 35.624 20.2 35.432V34.412H22.3V35.252C22.3 35.804 22.216 36.3 22.048 36.74C21.888 37.172 21.604 37.516 21.196 37.772C20.796 38.02 20.232 38.144 19.504 38.144ZM26.2657 38.144C25.5377 38.144 24.9617 38.016 24.5377 37.76C24.1137 37.504 23.8097 37.136 23.6257 36.656C23.4417 36.176 23.3497 35.604 23.3497 34.94V31.328C23.3497 30.656 23.4417 30.084 23.6257 29.612C23.8097 29.14 24.1137 28.78 24.5377 28.532C24.9617 28.276 25.5377 28.148 26.2657 28.148C27.0017 28.148 27.5817 28.276 28.0057 28.532C28.4377 28.78 28.7457 29.14 28.9297 29.612C29.1137 30.084 29.2057 30.656 29.2057 31.328V34.94C29.2057 35.604 29.1137 36.176 28.9297 36.656C28.7457 37.136 28.4377 37.504 28.0057 37.76C27.5817 38.016 27.0017 38.144 26.2657 38.144ZM26.2657 36.62C26.4897 36.62 26.6537 36.564 26.7577 36.452C26.8617 36.34 26.9297 36.196 26.9617 36.02C26.9937 35.844 27.0097 35.664 27.0097 35.48V30.8C27.0097 30.608 26.9937 30.428 26.9617 30.26C26.9297 30.084 26.8617 29.94 26.7577 29.828C26.6537 29.716 26.4897 29.66 26.2657 29.66C26.0577 29.66 25.9017 29.716 25.7977 29.828C25.6937 29.94 25.6257 30.084 25.5937 30.26C25.5617 30.428 25.5457 30.608 25.5457 30.8V35.48C25.5457 35.664 25.5577 35.844 25.5817 36.02C25.6137 36.196 25.6777 36.34 25.7737 36.452C25.8777 36.564 26.0417 36.62 26.2657 36.62ZM33.297 38.144C32.569 38.144 31.993 38.016 31.569 37.76C31.145 37.504 30.841 37.136 30.657 36.656C30.473 36.176 30.381 35.604 30.381 34.94V31.328C30.381 30.656 30.473 30.084 30.657 29.612C30.841 29.14 31.145 28.78 31.569 28.532C31.993 28.276 32.569 28.148 33.297 28.148C34.033 28.148 34.613 28.276 35.037 28.532C35.469 28.78 35.777 29.14 35.961 29.612C36.145 30.084 36.237 30.656 36.237 31.328V34.94C36.237 35.604 36.145 36.176 35.961 36.656C35.777 37.136 35.469 37.504 35.037 37.76C34.613 38.016 34.033 38.144 33.297 38.144ZM33.297 36.62C33.521 36.62 33.685 36.564 33.789 36.452C33.893 36.34 33.961 36.196 33.993 36.02C34.025 35.844 34.041 35.664 34.041 35.48V30.8C34.041 30.608 34.025 30.428 33.993 30.26C33.961 30.084 33.893 29.94 33.789 29.828C33.685 29.716 33.521 29.66 33.297 29.66C33.089 29.66 32.933 29.716 32.829 29.828C32.725 29.94 32.657 30.084 32.625 30.26C32.593 30.428 32.577 30.608 32.577 30.8V35.48C32.577 35.664 32.589 35.844 32.613 36.02C32.645 36.196 32.709 36.34 32.805 36.452C32.909 36.564 33.073 36.62 33.297 36.62ZM37.5802 38V28.28H42.4042V29.912H39.7282V32.384H40.1842C40.8002 32.384 41.3202 32.484 41.7442 32.684C42.1762 32.884 42.5042 33.192 42.7282 33.608C42.9522 34.016 43.0642 34.544 43.0642 35.192C43.0642 35.784 42.9842 36.264 42.8242 36.632C42.6722 37 42.4562 37.284 42.1762 37.484C41.8962 37.684 41.5682 37.82 41.1922 37.892C40.8242 37.964 40.4242 38 39.9922 38H37.5802ZM39.7282 36.596H40.0042C40.2762 36.596 40.4922 36.544 40.6522 36.44C40.8122 36.336 40.9242 36.176 40.9882 35.96C41.0522 35.744 41.0802 35.472 41.0722 35.144C41.0642 34.784 40.9882 34.484 40.8442 34.244C40.7002 33.996 40.4122 33.872 39.9802 33.872H39.7282V36.596ZM52.3728 40.1L52.1208 38H44.2248V28.28H46.2528V36.548H47.4408V28.28H49.4568V36.548H50.5968V28.28H52.6248V36.548H53.9448V40.1H52.3728ZM55.1809 38V28.28H59.5489V29.744H57.3289V32.156H59.0209V33.644H57.3289V36.548H59.5729V38H55.1809ZM60.5841 38V28.28H62.7321V32.216H64.2321V28.28H66.3921V38H64.2321V33.752H62.7321V38H60.5841ZM67.9083 38V28.28H69.6003V33.848L72.0843 28.28H73.4763V38H71.7483V32.336L69.2163 38H67.9083ZM74.9505 38V28.28H79.3185V29.744H77.0985V32.156H78.7905V33.644H77.0985V36.548H79.3425V38H74.9505Z"></path>
<path fill="white" d="M18.66 56.09C18.0867 56.09 17.64 55.97 17.32 55.73C17.0067 55.49 16.7867 55.1667 16.66 54.76C16.54 54.3533 16.48 53.9 16.48 53.4V50.54C16.48 49.9933 16.54 49.5167 16.66 49.11C16.7867 48.7033 17.0067 48.39 17.32 48.17C17.64 47.9433 18.0867 47.83 18.66 47.83C19.1667 47.83 19.5667 47.9233 19.86 48.11C20.16 48.2967 20.3733 48.5633 20.5 48.91C20.6333 49.2567 20.7 49.6733 20.7 50.16V50.8H19.63V50.23C19.63 49.93 19.6133 49.6667 19.58 49.44C19.5533 49.2067 19.4733 49.0267 19.34 48.9C19.2067 48.7733 18.9833 48.71 18.67 48.71C18.35 48.71 18.1167 48.78 17.97 48.92C17.8233 49.0533 17.7267 49.2467 17.68 49.5C17.64 49.7467 17.62 50.0367 17.62 50.37V53.58C17.62 53.9867 17.6533 54.31 17.72 54.55C17.7867 54.7833 17.8967 54.95 18.05 55.05C18.2033 55.15 18.41 55.2 18.67 55.2C18.9767 55.2 19.1967 55.1333 19.33 55C19.4633 54.86 19.5467 54.67 19.58 54.43C19.6133 54.19 19.63 53.91 19.63 53.59V52.99H20.7V53.59C20.7 54.0833 20.64 54.52 20.52 54.9C20.4 55.2733 20.1933 55.5667 19.9 55.78C19.6067 55.9867 19.1933 56.09 18.66 56.09ZM23.2865 56.08C22.8332 56.08 22.4832 55.9933 22.2365 55.82C21.9898 55.64 21.8165 55.38 21.7165 55.04C21.6232 54.6933 21.5765 54.27 21.5765 53.77V52.45C21.5765 51.9367 21.6265 51.51 21.7265 51.17C21.8265 50.83 21.9998 50.5733 22.2465 50.4C22.4998 50.2267 22.8465 50.14 23.2865 50.14C23.7732 50.14 24.1298 50.24 24.3565 50.44C24.5898 50.64 24.7432 50.93 24.8165 51.31C24.8898 51.6833 24.9265 52.1333 24.9265 52.66V53.13H22.6465V54.29C22.6465 54.5233 22.6665 54.7133 22.7065 54.86C22.7532 55.0067 22.8232 55.1167 22.9165 55.19C23.0165 55.2567 23.1432 55.29 23.2965 55.29C23.4565 55.29 23.5765 55.2533 23.6565 55.18C23.7432 55.1 23.7998 54.99 23.8265 54.85C23.8598 54.7033 23.8765 54.5333 23.8765 54.34V53.99H24.9165V54.21C24.9165 54.79 24.7932 55.2467 24.5465 55.58C24.2998 55.9133 23.8798 56.08 23.2865 56.08ZM22.6465 52.55H23.8765V52.03C23.8765 51.79 23.8632 51.59 23.8365 51.43C23.8098 51.2633 23.7532 51.14 23.6665 51.06C23.5865 50.9733 23.4565 50.93 23.2765 50.93C23.1032 50.93 22.9698 50.97 22.8765 51.05C22.7898 51.13 22.7298 51.2667 22.6965 51.46C22.6632 51.6467 22.6465 51.9067 22.6465 52.24V52.55ZM25.8955 56V50.22H26.7955V54.11L28.5355 50.22H29.3755V56H28.4955V52.08L26.7655 56H25.8955ZM27.6655 49.59C27.1855 49.59 26.8455 49.46 26.6455 49.2C26.4521 48.94 26.3555 48.6167 26.3555 48.23H26.9755C26.9821 48.47 27.0355 48.6567 27.1355 48.79C27.2421 48.9167 27.4188 48.98 27.6655 48.98C27.9188 48.98 28.0955 48.9133 28.1955 48.78C28.3021 48.6467 28.3555 48.4633 28.3555 48.23H28.9855C28.9855 48.6167 28.8855 48.94 28.6855 49.2C28.4921 49.46 28.1521 49.59 27.6655 49.59ZM32.6358 56V53.71C32.5091 53.7233 32.3824 53.7367 32.2558 53.75C32.1291 53.7633 31.9991 53.77 31.8658 53.77C31.5791 53.77 31.3158 53.73 31.0758 53.65C30.8358 53.57 30.6458 53.4267 30.5058 53.22C30.3658 53.0067 30.2958 52.71 30.2958 52.33V50.22H31.3658V52.34C31.3658 52.5467 31.4124 52.71 31.5058 52.83C31.6058 52.95 31.8091 53.01 32.1158 53.01C32.1958 53.01 32.2791 53.0067 32.3658 53C32.4524 52.9867 32.5424 52.9733 32.6358 52.96V50.22H33.7058V56H32.6358ZM35.832 56.08C35.6053 56.08 35.4053 56.0167 35.232 55.89C35.0586 55.7567 34.922 55.59 34.822 55.39C34.722 55.1833 34.672 54.9667 34.672 54.74C34.672 54.38 34.732 54.0767 34.852 53.83C34.972 53.5833 35.1353 53.3767 35.342 53.21C35.5553 53.0367 35.7986 52.8867 36.072 52.76C36.352 52.6333 36.6453 52.51 36.952 52.39V51.98C36.952 51.7467 36.9386 51.5533 36.912 51.4C36.8853 51.2467 36.8286 51.1333 36.742 51.06C36.662 50.98 36.5386 50.94 36.372 50.94C36.2253 50.94 36.1053 50.9733 36.012 51.04C35.9253 51.1067 35.862 51.2033 35.822 51.33C35.782 51.45 35.762 51.5933 35.762 51.76V52.05L34.702 52.01C34.7153 51.37 34.862 50.9 35.142 50.6C35.422 50.2933 35.8553 50.14 36.442 50.14C37.0153 50.14 37.422 50.2967 37.662 50.61C37.902 50.9233 38.022 51.3767 38.022 51.97V54.61C38.022 54.79 38.0253 54.9633 38.032 55.13C38.0453 55.2967 38.0586 55.4533 38.072 55.6C38.092 55.74 38.1086 55.8733 38.122 56H37.142C37.122 55.8933 37.0953 55.76 37.062 55.6C37.0353 55.4333 37.0153 55.2833 37.002 55.15C36.9353 55.3767 36.8053 55.59 36.612 55.79C36.4253 55.9833 36.1653 56.08 35.832 56.08ZM36.252 55.16C36.3586 55.16 36.4586 55.13 36.552 55.07C36.6453 55.01 36.7286 54.9433 36.802 54.87C36.8753 54.79 36.9253 54.7267 36.952 54.68V53.04C36.7853 53.1333 36.6286 53.2267 36.482 53.32C36.3353 53.4133 36.2053 53.5133 36.092 53.62C35.9853 53.72 35.8986 53.8367 35.832 53.97C35.772 54.0967 35.742 54.2433 35.742 54.41C35.742 54.6433 35.7853 54.8267 35.872 54.96C35.9586 55.0933 36.0853 55.16 36.252 55.16ZM40.6298 56.08C40.1564 56.08 39.7964 55.9867 39.5498 55.8C39.3098 55.6067 39.1464 55.3367 39.0598 54.99C38.9798 54.6433 38.9398 54.24 38.9398 53.78V52.45C38.9398 51.9633 38.9831 51.55 39.0698 51.21C39.1564 50.8633 39.3198 50.6 39.5598 50.42C39.8064 50.2333 40.1631 50.14 40.6298 50.14C41.0498 50.14 41.3731 50.21 41.5998 50.35C41.8331 50.4833 41.9931 50.6867 42.0798 50.96C42.1664 51.2267 42.2098 51.56 42.2098 51.96V52.3H41.2398V51.95C41.2398 51.6967 41.2231 51.4967 41.1898 51.35C41.1564 51.2033 41.0964 51.0967 41.0098 51.03C40.9231 50.9633 40.7998 50.93 40.6398 50.93C40.4664 50.93 40.3331 50.97 40.2398 51.05C40.1464 51.13 40.0831 51.2667 40.0498 51.46C40.0231 51.6467 40.0098 51.9033 40.0098 52.23V54.05C40.0098 54.5433 40.0564 54.8733 40.1498 55.04C40.2431 55.2067 40.4098 55.29 40.6498 55.29C40.8298 55.29 40.9598 55.25 41.0398 55.17C41.1264 55.0833 41.1798 54.9633 41.1998 54.81C41.2264 54.6567 41.2398 54.4833 41.2398 54.29V53.82H42.2098V54.22C42.2098 54.6067 42.1631 54.94 42.0698 55.22C41.9831 55.5 41.8231 55.7133 41.5898 55.86C41.3631 56.0067 41.0431 56.08 40.6298 56.08ZM45.4463 56V50.22H46.5163V52.65H47.8863V50.22H48.9563V56H47.8863V53.43H46.5163V56H45.4463ZM50.0361 56V50.22H50.9361V54.11L52.6761 50.22H53.5161V56H52.6361V52.08L50.9061 56H50.0361ZM54.6064 56V50.22H55.6764V52.66H55.9764L57.0664 50.22H58.1664L56.9564 53.02L58.1864 56H57.0664L55.9764 53.3H55.6764V56H54.6064ZM59.4068 56V51.02H58.3268V50.22H61.5668V51.02H60.4768V56H59.4068ZM63.7452 56.08C63.3186 56.08 62.9819 55.9933 62.7352 55.82C62.4886 55.6467 62.3119 55.4 62.2052 55.08C62.1052 54.76 62.0552 54.3833 62.0552 53.95V52.27C62.0552 51.8367 62.1052 51.46 62.2052 51.14C62.3119 50.82 62.4886 50.5733 62.7352 50.4C62.9819 50.2267 63.3186 50.14 63.7452 50.14C64.1719 50.14 64.5052 50.2267 64.7452 50.4C64.9919 50.5733 65.1652 50.82 65.2652 51.14C65.3719 51.46 65.4252 51.8367 65.4252 52.27V53.95C65.4252 54.3833 65.3719 54.76 65.2652 55.08C65.1652 55.4 64.9919 55.6467 64.7452 55.82C64.5052 55.9933 64.1719 56.08 63.7452 56.08ZM63.7452 55.29C63.9519 55.29 64.0952 55.23 64.1752 55.11C64.2619 54.99 64.3119 54.8333 64.3252 54.64C64.3452 54.44 64.3552 54.2333 64.3552 54.02V52.21C64.3552 51.99 64.3452 51.7833 64.3252 51.59C64.3119 51.3967 64.2619 51.24 64.1752 51.12C64.0952 50.9933 63.9519 50.93 63.7452 50.93C63.5386 50.93 63.3919 50.9933 63.3052 51.12C63.2186 51.24 63.1652 51.3967 63.1452 51.59C63.1319 51.7833 63.1252 51.99 63.1252 52.21V54.02C63.1252 54.2333 63.1319 54.44 63.1452 54.64C63.1652 54.8333 63.2186 54.99 63.3052 55.11C63.3919 55.23 63.5386 55.29 63.7452 55.29ZM68.6884 56V50.22H69.7584V52.65H71.1284V50.22H72.1984V56H71.1284V53.43H69.7584V56H68.6884ZM74.8783 56.08C74.4249 56.08 74.0749 55.9933 73.8283 55.82C73.5816 55.64 73.4083 55.38 73.3083 55.04C73.2149 54.6933 73.1683 54.27 73.1683 53.77V52.45C73.1683 51.9367 73.2183 51.51 73.3183 51.17C73.4183 50.83 73.5916 50.5733 73.8383 50.4C74.0916 50.2267 74.4383 50.14 74.8783 50.14C75.3649 50.14 75.7216 50.24 75.9483 50.44C76.1816 50.64 76.3349 50.93 76.4083 51.31C76.4816 51.6833 76.5183 52.1333 76.5183 52.66V53.13H74.2383V54.29C74.2383 54.5233 74.2583 54.7133 74.2983 54.86C74.3449 55.0067 74.4149 55.1167 74.5083 55.19C74.6083 55.2567 74.7349 55.29 74.8883 55.29C75.0483 55.29 75.1683 55.2533 75.2483 55.18C75.3349 55.1 75.3916 54.99 75.4183 54.85C75.4516 54.7033 75.4683 54.5333 75.4683 54.34V53.99H76.5083V54.21C76.5083 54.79 76.3849 55.2467 76.1383 55.58C75.8916 55.9133 75.4716 56.08 74.8783 56.08ZM74.2383 52.55H75.4683V52.03C75.4683 51.79 75.4549 51.59 75.4283 51.43C75.4016 51.2633 75.3449 51.14 75.2583 51.06C75.1783 50.9733 75.0483 50.93 74.8683 50.93C74.6949 50.93 74.5616 50.97 74.4683 51.05C74.3816 51.13 74.3216 51.2667 74.2883 51.46C74.2549 51.6467 74.2383 51.9067 74.2383 52.24V52.55ZM79.7724 56V50.22H80.6724V54.11L82.4124 50.22H83.2524V56H82.3724V52.08L80.6424 56H79.7724ZM84.3427 56V50.22H86.6727V50.99H85.4127V56H84.3427ZM87.2431 57.9V50.22H88.3131V50.68C88.4398 50.5333 88.5931 50.4067 88.7731 50.3C88.9531 50.1933 89.1665 50.14 89.4131 50.14C89.7131 50.14 89.9498 50.22 90.1231 50.38C90.3031 50.5333 90.4365 50.73 90.5231 50.97C90.6098 51.2033 90.6665 51.4433 90.6931 51.69C90.7198 51.93 90.7331 52.1367 90.7331 52.31V53.71C90.7331 54.1167 90.6931 54.5033 90.6131 54.87C90.5331 55.23 90.3865 55.5233 90.1731 55.75C89.9665 55.97 89.6731 56.08 89.2931 56.08C89.0865 56.08 88.9031 56.03 88.7431 55.93C88.5831 55.8233 88.4398 55.7033 88.3131 55.57V57.9H87.2431ZM89.0831 55.24C89.2698 55.24 89.4031 55.1733 89.4831 55.04C89.5631 54.9 89.6131 54.7133 89.6331 54.48C89.6531 54.2467 89.6631 53.99 89.6631 53.71V52.31C89.6631 52.07 89.6498 51.85 89.6231 51.65C89.5965 51.4433 89.5398 51.28 89.4531 51.16C89.3665 51.04 89.2298 50.98 89.0431 50.98C88.9031 50.98 88.7698 51.01 88.6431 51.07C88.5165 51.13 88.4065 51.2 88.3131 51.28V54.98C88.4131 55.0533 88.5265 55.1167 88.6531 55.17C88.7798 55.2167 88.9231 55.24 89.0831 55.24ZM92.746 56.08C92.5193 56.08 92.3193 56.0167 92.146 55.89C91.9727 55.7567 91.836 55.59 91.736 55.39C91.636 55.1833 91.586 54.9667 91.586 54.74C91.586 54.38 91.646 54.0767 91.766 53.83C91.886 53.5833 92.0493 53.3767 92.256 53.21C92.4693 53.0367 92.7127 52.8867 92.986 52.76C93.266 52.6333 93.5593 52.51 93.866 52.39V51.98C93.866 51.7467 93.8527 51.5533 93.826 51.4C93.7993 51.2467 93.7427 51.1333 93.656 51.06C93.576 50.98 93.4527 50.94 93.286 50.94C93.1393 50.94 93.0193 50.9733 92.926 51.04C92.8393 51.1067 92.776 51.2033 92.736 51.33C92.696 51.45 92.676 51.5933 92.676 51.76V52.05L91.616 52.01C91.6293 51.37 91.776 50.9 92.056 50.6C92.336 50.2933 92.7693 50.14 93.356 50.14C93.9293 50.14 94.336 50.2967 94.576 50.61C94.816 50.9233 94.936 51.3767 94.936 51.97V54.61C94.936 54.79 94.9393 54.9633 94.946 55.13C94.9593 55.2967 94.9727 55.4533 94.986 55.6C95.006 55.74 95.0227 55.8733 95.036 56H94.056C94.036 55.8933 94.0093 55.76 93.976 55.6C93.9493 55.4333 93.9293 55.2833 93.916 55.15C93.8493 55.3767 93.7193 55.59 93.526 55.79C93.3393 55.9833 93.0793 56.08 92.746 56.08ZM93.166 55.16C93.2727 55.16 93.3727 55.13 93.466 55.07C93.5593 55.01 93.6427 54.9433 93.716 54.87C93.7893 54.79 93.8393 54.7267 93.866 54.68V53.04C93.6993 53.1333 93.5427 53.2267 93.396 53.32C93.2493 53.4133 93.1193 53.5133 93.006 53.62C92.8993 53.72 92.8127 53.8367 92.746 53.97C92.686 54.0967 92.656 54.2433 92.656 54.41C92.656 54.6433 92.6993 54.8267 92.786 54.96C92.8727 55.0933 92.9993 55.16 93.166 55.16ZM97.5638 56.08C97.1105 56.08 96.7605 55.9933 96.5138 55.82C96.2672 55.64 96.0938 55.38 95.9938 55.04C95.9005 54.6933 95.8538 54.27 95.8538 53.77V52.45C95.8538 51.9367 95.9038 51.51 96.0038 51.17C96.1038 50.83 96.2772 50.5733 96.5238 50.4C96.7772 50.2267 97.1238 50.14 97.5638 50.14C98.0505 50.14 98.4072 50.24 98.6338 50.44C98.8672 50.64 99.0205 50.93 99.0938 51.31C99.1672 51.6833 99.2038 52.1333 99.2038 52.66V53.13H96.9238V54.29C96.9238 54.5233 96.9438 54.7133 96.9838 54.86C97.0305 55.0067 97.1005 55.1167 97.1938 55.19C97.2938 55.2567 97.4205 55.29 97.5738 55.29C97.7338 55.29 97.8538 55.2533 97.9338 55.18C98.0205 55.1 98.0772 54.99 98.1038 54.85C98.1372 54.7033 98.1538 54.5333 98.1538 54.34V53.99H99.1938V54.21C99.1938 54.79 99.0705 55.2467 98.8238 55.58C98.5772 55.9133 98.1572 56.08 97.5638 56.08ZM96.9238 52.55H98.1538V52.03C98.1538 51.79 98.1405 51.59 98.1138 51.43C98.0872 51.2633 98.0305 51.14 97.9438 51.06C97.8638 50.9733 97.7338 50.93 97.5538 50.93C97.3805 50.93 97.2472 50.97 97.1538 51.05C97.0672 51.13 97.0072 51.2667 96.9738 51.46C96.9405 51.6467 96.9238 51.9067 96.9238 52.24V52.55ZM100.784 56V51.02H99.7038V50.22H102.944V51.02H101.854V56H100.784ZM103.541 56V54.81H104.611V56H103.541ZM105.426 56V54.81H106.496V56H105.426ZM107.31 56V54.81H108.38V56H107.31Z"></path>
</svg>
