<svg xmlns="http://www.w3.org/2000/svg" fill="none" viewBox="0 0 7 19" height="19" width="7">
<path fill-opacity="0.01" fill="white" d="M0.5 0H6.5V19H0.5V0Z"></path>
<path fill="#45D2FF" d="M3.40348 14.144C2.77948 14.144 2.28748 14.048 1.92748 13.856C1.56748 13.664 1.31148 13.384 1.15948 13.016C1.00748 12.64 0.931484 12.18 0.931484 11.636C0.931484 11.612 0.931484 11.588 0.931484 11.564C0.931484 11.532 0.931484 11.504 0.931484 11.48H2.80348C2.80348 11.872 2.83548 12.164 2.89948 12.356C2.97148 12.54 3.14348 12.632 3.41548 12.632C3.59948 12.632 3.73548 12.576 3.82348 12.464C3.91148 12.352 3.96748 12.156 3.99148 11.876C4.02348 11.588 4.03948 11.196 4.03948 10.7V9.836C3.93548 10.004 3.77548 10.132 3.55948 10.22C3.35148 10.308 3.11548 10.36 2.85148 10.376C2.33948 10.384 1.92748 10.256 1.61548 9.992C1.30348 9.728 1.07948 9.372 0.943484 8.924C0.807484 8.476 0.739484 7.988 0.739484 7.46C0.739484 6.78 0.823484 6.196 0.991484 5.708C1.16748 5.212 1.45148 4.828 1.84348 4.556C2.23548 4.284 2.75548 4.148 3.40348 4.148C4.04348 4.148 4.55948 4.276 4.95148 4.532C5.34348 4.788 5.62748 5.148 5.80348 5.612C5.98748 6.068 6.07948 6.608 6.07948 7.232V10.856C6.07948 11.488 6.00348 12.052 5.85148 12.548C5.70748 13.044 5.44348 13.436 5.05948 13.724C4.67548 14.004 4.12348 14.144 3.40348 14.144ZM3.42748 8.84C3.58748 8.84 3.71548 8.796 3.81148 8.708C3.90748 8.62 3.98348 8.536 4.03948 8.456V6.872C4.03948 6.648 4.02348 6.444 3.99148 6.26C3.95948 6.068 3.89948 5.916 3.81148 5.804C3.72348 5.684 3.58748 5.624 3.40348 5.624C3.22748 5.624 3.09548 5.688 3.00748 5.816C2.91948 5.936 2.85948 6.12 2.82748 6.368C2.80348 6.608 2.79148 6.908 2.79148 7.268C2.79148 7.58 2.79948 7.856 2.81548 8.096C2.83948 8.328 2.89548 8.512 2.98348 8.648C3.07148 8.776 3.21948 8.84 3.42748 8.84Z"></path>
</svg>
