<svg xmlns="http://www.w3.org/2000/svg" fill="none" viewBox="0 0 13 18" height="18" width="13">
<rect fill-opacity="0.01" fill="#0D0E12" height="18" width="13"></rect>
<path fill="white" d="M3.288 14V11.816H0.3V10.34L2.832 4.28H5.16V10.328H6.06V11.816H5.16V14H3.288ZM1.824 10.328H3.288V6.284L1.824 10.328ZM9.60497 14.144C8.97297 14.144 8.45697 14.008 8.05697 13.736C7.66497 13.456 7.37697 13.076 7.19297 12.596C7.00897 12.116 6.91697 11.568 6.91697 10.952V7.436C6.91697 6.804 6.98897 6.24 7.13297 5.744C7.28497 5.248 7.55297 4.86 7.93697 4.58C8.32097 4.292 8.87297 4.148 9.59297 4.148C10.217 4.148 10.709 4.244 11.069 4.436C11.429 4.628 11.685 4.908 11.837 5.276C11.989 5.644 12.065 6.1 12.065 6.644C12.065 6.676 12.065 6.708 12.065 6.74C12.073 6.764 12.077 6.788 12.077 6.812H10.193C10.193 6.42 10.161 6.132 10.097 5.948C10.041 5.756 9.87697 5.66 9.60497 5.66C9.42097 5.66 9.28097 5.716 9.18497 5.828C9.09697 5.94 9.03697 6.136 9.00497 6.416C8.97297 6.696 8.95697 7.088 8.95697 7.592V8.456C9.05297 8.288 9.20897 8.16 9.42497 8.072C9.64097 7.976 9.88497 7.924 10.157 7.916C10.669 7.9 11.077 8.016 11.381 8.264C11.693 8.512 11.917 8.852 12.053 9.284C12.189 9.708 12.257 10.184 12.257 10.712C12.257 11.392 12.177 11.992 12.017 12.512C11.857 13.024 11.585 13.424 11.201 13.712C10.817 14 10.285 14.144 9.60497 14.144ZM9.62897 12.668C9.81297 12.668 9.94497 12.608 10.025 12.488C10.113 12.36 10.169 12.176 10.193 11.936C10.225 11.688 10.241 11.384 10.241 11.024C10.241 10.704 10.229 10.428 10.205 10.196C10.189 9.964 10.137 9.784 10.049 9.656C9.96097 9.52 9.81297 9.452 9.60497 9.452C9.50897 9.452 9.41697 9.472 9.32897 9.512C9.24097 9.552 9.16497 9.604 9.10097 9.668C9.03697 9.724 8.98897 9.78 8.95697 9.836V11.42C8.95697 11.636 8.97297 11.84 9.00497 12.032C9.04497 12.224 9.11297 12.38 9.20897 12.5C9.31297 12.612 9.45297 12.668 9.62897 12.668Z"></path>
</svg>
