<svg xmlns="http://www.w3.org/2000/svg" fill="none" viewBox="0 0 214 84" height="84" width="214">
<mask fill="white" id="path-1-inside-1_1272_22">
<path d="M0 0H214V84H0V0Z"></path>
</mask>
<path fill="#0D0E12" d="M0 0H214V84H0V0Z"></path>
<path mask="url(#path-1-inside-1_1272_22)" fill="white" d="M0 0V-1H-1V0H0ZM0 84H-1V85H0V84ZM0 1H214V-1H0V1ZM214 83H0V85H214V83ZM1 84V0H-1V84H1Z"></path>
<path fill="white" d="M16.684 40L16.852 30.28H19.156L20.224 35.932L21.376 30.28H23.596L23.764 40H22.24L22.06 33.532L20.932 40H19.576L18.376 33.484L18.232 40H16.684ZM25.1692 40V30.28H29.5372V31.744H27.3172V34.156H29.0092V35.644H27.3172V38.548H29.5612V40H25.1692ZM33.1164 40.144C32.5084 40.144 32.0004 40.036 31.5924 39.82C31.1844 39.604 30.8764 39.272 30.6684 38.824C30.4604 38.368 30.3444 37.78 30.3204 37.06L32.1564 36.784C32.1644 37.2 32.2004 37.536 32.2644 37.792C32.3364 38.048 32.4324 38.232 32.5524 38.344C32.6804 38.456 32.8324 38.512 33.0084 38.512C33.2324 38.512 33.3764 38.436 33.4404 38.284C33.5124 38.132 33.5484 37.972 33.5484 37.804C33.5484 37.404 33.4524 37.068 33.2604 36.796C33.0684 36.516 32.8084 36.236 32.4804 35.956L31.6404 35.224C31.2724 34.912 30.9604 34.56 30.7044 34.168C30.4564 33.768 30.3324 33.276 30.3324 32.692C30.3324 31.868 30.5764 31.24 31.0644 30.808C31.5524 30.368 32.2164 30.148 33.0564 30.148C33.5764 30.148 33.9924 30.236 34.3044 30.412C34.6244 30.588 34.8644 30.82 35.0244 31.108C35.1924 31.388 35.3044 31.688 35.3604 32.008C35.4244 32.32 35.4604 32.62 35.4684 32.908L33.6204 33.136C33.6124 32.848 33.5924 32.6 33.5604 32.392C33.5364 32.176 33.4804 32.012 33.3924 31.9C33.3044 31.78 33.1684 31.72 32.9844 31.72C32.7844 31.72 32.6364 31.804 32.5404 31.972C32.4524 32.14 32.4084 32.308 32.4084 32.476C32.4084 32.836 32.4924 33.132 32.6604 33.364C32.8364 33.588 33.0644 33.824 33.3444 34.072L34.1484 34.78C34.5724 35.14 34.9284 35.548 35.2164 36.004C35.5124 36.46 35.6604 37.024 35.6604 37.696C35.6604 38.152 35.5564 38.568 35.3484 38.944C35.1404 39.312 34.8444 39.604 34.4604 39.82C34.0844 40.036 33.6364 40.144 33.1164 40.144ZM39.093 40.144C38.485 40.144 37.977 40.036 37.569 39.82C37.161 39.604 36.853 39.272 36.645 38.824C36.437 38.368 36.321 37.78 36.297 37.06L38.133 36.784C38.141 37.2 38.177 37.536 38.241 37.792C38.313 38.048 38.409 38.232 38.529 38.344C38.657 38.456 38.809 38.512 38.985 38.512C39.209 38.512 39.353 38.436 39.417 38.284C39.489 38.132 39.525 37.972 39.525 37.804C39.525 37.404 39.429 37.068 39.237 36.796C39.045 36.516 38.785 36.236 38.457 35.956L37.617 35.224C37.249 34.912 36.937 34.56 36.681 34.168C36.433 33.768 36.309 33.276 36.309 32.692C36.309 31.868 36.553 31.24 37.041 30.808C37.529 30.368 38.193 30.148 39.033 30.148C39.553 30.148 39.969 30.236 40.281 30.412C40.601 30.588 40.841 30.82 41.001 31.108C41.169 31.388 41.281 31.688 41.337 32.008C41.401 32.32 41.437 32.62 41.445 32.908L39.597 33.136C39.589 32.848 39.569 32.6 39.537 32.392C39.513 32.176 39.457 32.012 39.369 31.9C39.281 31.78 39.145 31.72 38.961 31.72C38.761 31.72 38.613 31.804 38.517 31.972C38.429 32.14 38.385 32.308 38.385 32.476C38.385 32.836 38.469 33.132 38.637 33.364C38.813 33.588 39.041 33.824 39.321 34.072L40.125 34.78C40.549 35.14 40.905 35.548 41.193 36.004C41.489 36.46 41.637 37.024 41.637 37.696C41.637 38.152 41.533 38.568 41.325 38.944C41.117 39.312 40.821 39.604 40.437 39.82C40.061 40.036 39.613 40.144 39.093 40.144ZM42.1153 40L43.9513 30.28H46.3993L48.2113 40H46.2313L45.9073 37.948H44.4793L44.1433 40H42.1153ZM44.6713 36.664H45.7033L45.1873 32.872L44.6713 36.664ZM51.5723 40.144C50.9003 40.144 50.3683 40.004 49.9763 39.724C49.5923 39.444 49.3163 39.052 49.1483 38.548C48.9883 38.036 48.9083 37.448 48.9083 36.784V33.52C48.9083 32.832 48.9963 32.236 49.1723 31.732C49.3483 31.228 49.6483 30.84 50.0723 30.568C50.5043 30.288 51.0883 30.148 51.8243 30.148C52.5443 30.148 53.1083 30.268 53.5163 30.508C53.9323 30.748 54.2283 31.08 54.4043 31.504C54.5803 31.928 54.6683 32.424 54.6683 32.992V33.616H52.5683V32.824C52.5683 32.616 52.5523 32.424 52.5203 32.248C52.4963 32.072 52.4323 31.932 52.3283 31.828C52.2323 31.716 52.0723 31.66 51.8483 31.66C51.6163 31.66 51.4483 31.724 51.3443 31.852C51.2403 31.972 51.1723 32.124 51.1403 32.308C51.1163 32.492 51.1043 32.684 51.1043 32.884V37.384C51.1043 37.6 51.1243 37.804 51.1643 37.996C51.2123 38.18 51.2923 38.332 51.4043 38.452C51.5243 38.564 51.6923 38.62 51.9083 38.62C52.1323 38.62 52.3043 38.56 52.4243 38.44C52.5443 38.32 52.6283 38.164 52.6763 37.972C52.7243 37.78 52.7483 37.576 52.7483 37.36V36.22H51.8723V34.96H54.6803V40H53.2643L53.1443 39.196C53.0163 39.468 52.8283 39.696 52.5803 39.88C52.3323 40.056 51.9963 40.144 51.5723 40.144ZM56.0247 40V30.28H60.3927V31.744H58.1727V34.156H59.8647V35.644H58.1727V38.548H60.4167V40H56.0247Z"></path>
<path fill="white" d="M17.52 58V50.74H16.15V49.9H19.98V50.74H18.65V58H17.52ZM20.7009 58V49.9H21.7709V52.82C21.9642 52.6333 22.1809 52.4733 22.4209 52.34C22.6609 52.2067 22.9275 52.14 23.2209 52.14C23.4475 52.14 23.6209 52.2 23.7409 52.32C23.8675 52.44 23.9542 52.59 24.0009 52.77C24.0542 52.95 24.0809 53.1333 24.0809 53.32V58H23.0109V53.63C23.0109 53.4233 22.9809 53.2633 22.9209 53.15C22.8609 53.0367 22.7375 52.98 22.5509 52.98C22.4242 52.98 22.2909 53.0167 22.1509 53.09C22.0175 53.1633 21.8909 53.2533 21.7709 53.36V58H20.7009ZM26.724 58.08C26.2707 58.08 25.9207 57.9933 25.674 57.82C25.4273 57.64 25.254 57.38 25.154 57.04C25.0607 56.6933 25.014 56.27 25.014 55.77V54.45C25.014 53.9367 25.064 53.51 25.164 53.17C25.264 52.83 25.4373 52.5733 25.684 52.4C25.9373 52.2267 26.284 52.14 26.724 52.14C27.2107 52.14 27.5673 52.24 27.794 52.44C28.0273 52.64 28.1807 52.93 28.254 53.31C28.3273 53.6833 28.364 54.1333 28.364 54.66V55.13H26.084V56.29C26.084 56.5233 26.104 56.7133 26.144 56.86C26.1907 57.0067 26.2607 57.1167 26.354 57.19C26.454 57.2567 26.5807 57.29 26.734 57.29C26.894 57.29 27.014 57.2533 27.094 57.18C27.1807 57.1 27.2373 56.99 27.264 56.85C27.2973 56.7033 27.314 56.5333 27.314 56.34V55.99H28.354V56.21C28.354 56.79 28.2307 57.2467 27.984 57.58C27.7373 57.9133 27.3173 58.08 26.724 58.08ZM26.084 54.55H27.314V54.03C27.314 53.79 27.3007 53.59 27.274 53.43C27.2473 53.2633 27.1907 53.14 27.104 53.06C27.024 52.9733 26.894 52.93 26.714 52.93C26.5407 52.93 26.4073 52.97 26.314 53.05C26.2273 53.13 26.1673 53.2667 26.134 53.46C26.1007 53.6467 26.084 53.9067 26.084 54.24V54.55ZM33.2081 58.08C32.7815 58.08 32.4448 57.9933 32.1981 57.82C31.9515 57.6467 31.7748 57.4 31.6681 57.08C31.5681 56.76 31.5181 56.3833 31.5181 55.95V54.27C31.5181 53.8367 31.5681 53.46 31.6681 53.14C31.7748 52.82 31.9515 52.5733 32.1981 52.4C32.4448 52.2267 32.7815 52.14 33.2081 52.14C33.6348 52.14 33.9681 52.2267 34.2081 52.4C34.4548 52.5733 34.6281 52.82 34.7281 53.14C34.8348 53.46 34.8881 53.8367 34.8881 54.27V55.95C34.8881 56.3833 34.8348 56.76 34.7281 57.08C34.6281 57.4 34.4548 57.6467 34.2081 57.82C33.9681 57.9933 33.6348 58.08 33.2081 58.08ZM33.2081 57.29C33.4148 57.29 33.5581 57.23 33.6381 57.11C33.7248 56.99 33.7748 56.8333 33.7881 56.64C33.8081 56.44 33.8181 56.2333 33.8181 56.02V54.21C33.8181 53.99 33.8081 53.7833 33.7881 53.59C33.7748 53.3967 33.7248 53.24 33.6381 53.12C33.5581 52.9933 33.4148 52.93 33.2081 52.93C33.0015 52.93 32.8548 52.9933 32.7681 53.12C32.6815 53.24 32.6281 53.3967 32.6081 53.59C32.5948 53.7833 32.5881 53.99 32.5881 54.21V56.02C32.5881 56.2333 32.5948 56.44 32.6081 56.64C32.6281 56.8333 32.6815 56.99 32.7681 57.11C32.8548 57.23 33.0015 57.29 33.2081 57.29ZM35.8662 59.9V52.22H36.9362V52.68C37.0628 52.5333 37.2162 52.4067 37.3962 52.3C37.5762 52.1933 37.7895 52.14 38.0362 52.14C38.3362 52.14 38.5728 52.22 38.7462 52.38C38.9262 52.5333 39.0595 52.73 39.1462 52.97C39.2328 53.2033 39.2895 53.4433 39.3162 53.69C39.3428 53.93 39.3562 54.1367 39.3562 54.31V55.71C39.3562 56.1167 39.3162 56.5033 39.2362 56.87C39.1562 57.23 39.0095 57.5233 38.7962 57.75C38.5895 57.97 38.2962 58.08 37.9162 58.08C37.7095 58.08 37.5262 58.03 37.3662 57.93C37.2062 57.8233 37.0628 57.7033 36.9362 57.57V59.9H35.8662ZM37.7062 57.24C37.8928 57.24 38.0262 57.1733 38.1062 57.04C38.1862 56.9 38.2362 56.7133 38.2562 56.48C38.2762 56.2467 38.2862 55.99 38.2862 55.71V54.31C38.2862 54.07 38.2728 53.85 38.2462 53.65C38.2195 53.4433 38.1628 53.28 38.0762 53.16C37.9895 53.04 37.8528 52.98 37.6662 52.98C37.5262 52.98 37.3928 53.01 37.2662 53.07C37.1395 53.13 37.0295 53.2 36.9362 53.28V56.98C37.0362 57.0533 37.1495 57.1167 37.2762 57.17C37.4028 57.2167 37.5462 57.24 37.7062 57.24ZM40.3291 59.9V52.22H41.3991V52.68C41.5257 52.5333 41.6791 52.4067 41.8591 52.3C42.0391 52.1933 42.2524 52.14 42.4991 52.14C42.7991 52.14 43.0357 52.22 43.2091 52.38C43.3891 52.5333 43.5224 52.73 43.6091 52.97C43.6957 53.2033 43.7524 53.4433 43.7791 53.69C43.8057 53.93 43.8191 54.1367 43.8191 54.31V55.71C43.8191 56.1167 43.7791 56.5033 43.6991 56.87C43.6191 57.23 43.4724 57.5233 43.2591 57.75C43.0524 57.97 42.7591 58.08 42.3791 58.08C42.1724 58.08 41.9891 58.03 41.8291 57.93C41.6691 57.8233 41.5257 57.7033 41.3991 57.57V59.9H40.3291ZM42.1691 57.24C42.3557 57.24 42.4891 57.1733 42.5691 57.04C42.6491 56.9 42.6991 56.7133 42.7191 56.48C42.7391 56.2467 42.7491 55.99 42.7491 55.71V54.31C42.7491 54.07 42.7357 53.85 42.7091 53.65C42.6824 53.4433 42.6257 53.28 42.5391 53.16C42.4524 53.04 42.3157 52.98 42.1291 52.98C41.9891 52.98 41.8557 53.01 41.7291 53.07C41.6024 53.13 41.4924 53.2 41.3991 53.28V56.98C41.4991 57.0533 41.6124 57.1167 41.7391 57.17C41.8657 57.2167 42.0091 57.24 42.1691 57.24ZM46.382 58.08C45.9553 58.08 45.6186 57.9933 45.372 57.82C45.1253 57.6467 44.9486 57.4 44.842 57.08C44.742 56.76 44.692 56.3833 44.692 55.95V54.27C44.692 53.8367 44.742 53.46 44.842 53.14C44.9486 52.82 45.1253 52.5733 45.372 52.4C45.6186 52.2267 45.9553 52.14 46.382 52.14C46.8086 52.14 47.142 52.2267 47.382 52.4C47.6286 52.5733 47.802 52.82 47.902 53.14C48.0086 53.46 48.062 53.8367 48.062 54.27V55.95C48.062 56.3833 48.0086 56.76 47.902 57.08C47.802 57.4 47.6286 57.6467 47.382 57.82C47.142 57.9933 46.8086 58.08 46.382 58.08ZM46.382 57.29C46.5886 57.29 46.732 57.23 46.812 57.11C46.8986 56.99 46.9486 56.8333 46.962 56.64C46.982 56.44 46.992 56.2333 46.992 56.02V54.21C46.992 53.99 46.982 53.7833 46.962 53.59C46.9486 53.3967 46.8986 53.24 46.812 53.12C46.732 52.9933 46.5886 52.93 46.382 52.93C46.1753 52.93 46.0286 52.9933 45.942 53.12C45.8553 53.24 45.802 53.3967 45.782 53.59C45.7686 53.7833 45.762 53.99 45.762 54.21V56.02C45.762 56.2333 45.7686 56.44 45.782 56.64C45.802 56.8333 45.8553 56.99 45.942 57.11C46.0286 57.23 46.1753 57.29 46.382 57.29ZM49.04 58V52.22H50.11V52.79C50.3033 52.61 50.5167 52.4567 50.75 52.33C50.9833 52.2033 51.24 52.14 51.52 52.14C51.7533 52.14 51.93 52.2 52.05 52.32C52.1767 52.44 52.2633 52.59 52.31 52.77C52.3633 52.95 52.39 53.1333 52.39 53.32V58H51.32V53.63C51.32 53.4233 51.29 53.2633 51.23 53.15C51.17 53.0367 51.0467 52.98 50.86 52.98C50.74 52.98 50.6133 53.0167 50.48 53.09C50.3533 53.1567 50.23 53.24 50.11 53.34V58H49.04ZM55.0345 58.08C54.5812 58.08 54.2312 57.9933 53.9845 57.82C53.7379 57.64 53.5645 57.38 53.4645 57.04C53.3712 56.6933 53.3245 56.27 53.3245 55.77V54.45C53.3245 53.9367 53.3745 53.51 53.4745 53.17C53.5745 52.83 53.7479 52.5733 53.9945 52.4C54.2479 52.2267 54.5945 52.14 55.0345 52.14C55.5212 52.14 55.8779 52.24 56.1045 52.44C56.3379 52.64 56.4912 52.93 56.5645 53.31C56.6379 53.6833 56.6745 54.1333 56.6745 54.66V55.13H54.3945V56.29C54.3945 56.5233 54.4145 56.7133 54.4545 56.86C54.5012 57.0067 54.5712 57.1167 54.6645 57.19C54.7645 57.2567 54.8912 57.29 55.0445 57.29C55.2045 57.29 55.3245 57.2533 55.4045 57.18C55.4912 57.1 55.5479 56.99 55.5745 56.85C55.6079 56.7033 55.6245 56.5333 55.6245 56.34V55.99H56.6645V56.21C56.6645 56.79 56.5412 57.2467 56.2945 57.58C56.0479 57.9133 55.6279 58.08 55.0345 58.08ZM54.3945 54.55H55.6245V54.03C55.6245 53.79 55.6112 53.59 55.5845 53.43C55.5579 53.2633 55.5012 53.14 55.4145 53.06C55.3345 52.9733 55.2045 52.93 55.0245 52.93C54.8512 52.93 54.7179 52.97 54.6245 53.05C54.5379 53.13 54.4779 53.2667 54.4445 53.46C54.4112 53.6467 54.3945 53.9067 54.3945 54.24V54.55ZM57.6435 58V52.22H58.7135V52.79C58.9068 52.61 59.1202 52.4567 59.3535 52.33C59.5868 52.2033 59.8435 52.14 60.1235 52.14C60.3568 52.14 60.5335 52.2 60.6535 52.32C60.7802 52.44 60.8668 52.59 60.9135 52.77C60.9668 52.95 60.9935 53.1333 60.9935 53.32V58H59.9235V53.63C59.9235 53.4233 59.8935 53.2633 59.8335 53.15C59.7735 53.0367 59.6502 52.98 59.4635 52.98C59.3435 52.98 59.2168 53.0167 59.0835 53.09C58.9568 53.1567 58.8335 53.24 58.7135 53.34V58H57.6435ZM63.578 58.08C63.278 58.08 63.0347 58.0233 62.848 57.91C62.668 57.7967 62.5347 57.6367 62.448 57.43C62.368 57.2233 62.328 56.98 62.328 56.7V52.93H61.718V52.22H62.328V50.53H63.398V52.22H64.328V52.93H63.398V56.63C63.398 56.8567 63.4347 57.02 63.508 57.12C63.5814 57.2133 63.7214 57.26 63.928 57.26C63.9814 57.26 64.0414 57.2567 64.108 57.25C64.1814 57.2433 64.2514 57.2367 64.318 57.23V58.02C64.1847 58.04 64.0614 58.0533 63.948 58.06C63.8347 58.0733 63.7114 58.08 63.578 58.08ZM68.9894 58.08C68.5627 58.08 68.226 57.9933 67.9794 57.82C67.7327 57.6467 67.556 57.4 67.4494 57.08C67.3494 56.76 67.2994 56.3833 67.2994 55.95V54.27C67.2994 53.8367 67.3494 53.46 67.4494 53.14C67.556 52.82 67.7327 52.5733 67.9794 52.4C68.226 52.2267 68.5627 52.14 68.9894 52.14C69.416 52.14 69.7494 52.2267 69.9894 52.4C70.236 52.5733 70.4094 52.82 70.5094 53.14C70.616 53.46 70.6694 53.8367 70.6694 54.27V55.95C70.6694 56.3833 70.616 56.76 70.5094 57.08C70.4094 57.4 70.236 57.6467 69.9894 57.82C69.7494 57.9933 69.416 58.08 68.9894 58.08ZM68.9894 57.29C69.196 57.29 69.3394 57.23 69.4194 57.11C69.506 56.99 69.556 56.8333 69.5694 56.64C69.5894 56.44 69.5994 56.2333 69.5994 56.02V54.21C69.5994 53.99 69.5894 53.7833 69.5694 53.59C69.556 53.3967 69.506 53.24 69.4194 53.12C69.3394 52.9933 69.196 52.93 68.9894 52.93C68.7827 52.93 68.636 52.9933 68.5494 53.12C68.4627 53.24 68.4094 53.3967 68.3894 53.59C68.376 53.7833 68.3694 53.99 68.3694 54.21V56.02C68.3694 56.2333 68.376 56.44 68.3894 56.64C68.4094 56.8333 68.4627 56.99 68.5494 57.11C68.636 57.23 68.7827 57.29 68.9894 57.29ZM71.9874 58V53.01H71.2974V52.22H71.9874V51.92C71.9874 51.56 72.0141 51.2533 72.0674 51C72.1274 50.74 72.2474 50.54 72.4274 50.4C72.6074 50.26 72.8774 50.19 73.2374 50.19C73.3708 50.19 73.4874 50.1967 73.5874 50.21C73.6941 50.2167 73.8108 50.2333 73.9374 50.26V51.04C73.8774 51.0267 73.8108 51.0167 73.7374 51.01C73.6641 50.9967 73.5974 50.99 73.5374 50.99C73.3308 50.99 73.1974 51.06 73.1374 51.2C73.0841 51.3333 73.0574 51.5133 73.0574 51.74V52.22H73.9374V53.01H73.0574V58H71.9874ZM74.5974 58V53.01H73.9074V52.22H74.5974V51.92C74.5974 51.56 74.6241 51.2533 74.6774 51C74.7374 50.74 74.8574 50.54 75.0374 50.4C75.2174 50.26 75.4874 50.19 75.8474 50.19C75.9808 50.19 76.0974 50.1967 76.1974 50.21C76.3041 50.2167 76.4208 50.2333 76.5474 50.26V51.04C76.4874 51.0267 76.4208 51.0167 76.3474 51.01C76.2741 50.9967 76.2074 50.99 76.1474 50.99C75.9408 50.99 75.8074 51.06 75.7474 51.2C75.6941 51.3333 75.6674 51.5133 75.6674 51.74V52.22H76.5474V53.01H75.6674V58H74.5974ZM78.7259 58.08C78.2726 58.08 77.9226 57.9933 77.6759 57.82C77.4293 57.64 77.2559 57.38 77.1559 57.04C77.0626 56.6933 77.0159 56.27 77.0159 55.77V54.45C77.0159 53.9367 77.0659 53.51 77.1659 53.17C77.2659 52.83 77.4393 52.5733 77.6859 52.4C77.9393 52.2267 78.2859 52.14 78.7259 52.14C79.2126 52.14 79.5693 52.24 79.7959 52.44C80.0293 52.64 80.1826 52.93 80.2559 53.31C80.3293 53.6833 80.3659 54.1333 80.3659 54.66V55.13H78.0859V56.29C78.0859 56.5233 78.1059 56.7133 78.1459 56.86C78.1926 57.0067 78.2626 57.1167 78.3559 57.19C78.4559 57.2567 78.5826 57.29 78.7359 57.29C78.8959 57.29 79.0159 57.2533 79.0959 57.18C79.1826 57.1 79.2393 56.99 79.2659 56.85C79.2993 56.7033 79.3159 56.5333 79.3159 56.34V55.99H80.3559V56.21C80.3559 56.79 80.2326 57.2467 79.9859 57.58C79.7393 57.9133 79.3193 58.08 78.7259 58.08ZM78.0859 54.55H79.3159V54.03C79.3159 53.79 79.3026 53.59 79.2759 53.43C79.2493 53.2633 79.1926 53.14 79.1059 53.06C79.0259 52.9733 78.8959 52.93 78.7159 52.93C78.5426 52.93 78.4093 52.97 78.3159 53.05C78.2293 53.13 78.1693 53.2667 78.1359 53.46C78.1026 53.6467 78.0859 53.9067 78.0859 54.24V54.55ZM81.3649 58V52.22H82.4349V53.04C82.6483 52.6867 82.8616 52.45 83.0749 52.33C83.2883 52.21 83.5016 52.15 83.7149 52.15C83.7416 52.15 83.7649 52.15 83.7849 52.15C83.8116 52.15 83.8449 52.1533 83.8849 52.16V53.34C83.8049 53.3067 83.7116 53.28 83.6049 53.26C83.5049 53.2333 83.4016 53.22 83.2949 53.22C83.1283 53.22 82.9749 53.26 82.8349 53.34C82.7016 53.4133 82.5683 53.56 82.4349 53.78V58H81.3649ZM85.8878 58.08C85.4145 58.08 85.0345 57.9333 84.7478 57.64C84.4611 57.34 84.2978 56.9467 84.2578 56.46L85.1478 56.19C85.2011 56.5567 85.2911 56.8333 85.4178 57.02C85.5445 57.2 85.7311 57.29 85.9778 57.29C86.1711 57.29 86.3178 57.2367 86.4178 57.13C86.5178 57.0167 86.5678 56.8667 86.5678 56.68C86.5678 56.5133 86.5311 56.3633 86.4578 56.23C86.3845 56.0967 86.2645 55.96 86.0978 55.82L85.1078 54.97C84.9078 54.7967 84.7378 54.6033 84.5978 54.39C84.4645 54.1767 84.3978 53.9 84.3978 53.56C84.3978 53.2533 84.4578 52.9967 84.5778 52.79C84.7045 52.5767 84.8778 52.4167 85.0978 52.31C85.3245 52.1967 85.5878 52.14 85.8878 52.14C86.3478 52.14 86.6978 52.29 86.9378 52.59C87.1845 52.8833 87.3245 53.24 87.3578 53.66L86.6378 53.93C86.6111 53.73 86.5711 53.5567 86.5178 53.41C86.4645 53.2567 86.3911 53.14 86.2978 53.06C86.2045 52.9733 86.0811 52.93 85.9278 52.93C85.7545 52.93 85.6145 52.99 85.5078 53.11C85.4078 53.2233 85.3578 53.36 85.3578 53.52C85.3578 53.62 85.3778 53.72 85.4178 53.82C85.4645 53.9133 85.5411 54.0067 85.6478 54.1L86.6678 55.04C86.8078 55.1667 86.9378 55.3033 87.0578 55.45C87.1845 55.5967 87.2878 55.7633 87.3678 55.95C87.4478 56.1367 87.4878 56.3533 87.4878 56.6C87.4878 56.9267 87.4211 57.2 87.2878 57.42C87.1545 57.64 86.9678 57.8067 86.7278 57.92C86.4878 58.0267 86.2078 58.08 85.8878 58.08ZM91.6132 58.08C91.3865 58.08 91.1865 58.0167 91.0132 57.89C90.8399 57.7567 90.7032 57.59 90.6032 57.39C90.5032 57.1833 90.4532 56.9667 90.4532 56.74C90.4532 56.38 90.5132 56.0767 90.6332 55.83C90.7532 55.5833 90.9165 55.3767 91.1232 55.21C91.3365 55.0367 91.5799 54.8867 91.8532 54.76C92.1332 54.6333 92.4265 54.51 92.7332 54.39V53.98C92.7332 53.7467 92.7199 53.5533 92.6932 53.4C92.6665 53.2467 92.6099 53.1333 92.5232 53.06C92.4432 52.98 92.3199 52.94 92.1532 52.94C92.0065 52.94 91.8865 52.9733 91.7932 53.04C91.7065 53.1067 91.6432 53.2033 91.6032 53.33C91.5632 53.45 91.5432 53.5933 91.5432 53.76V54.05L90.4832 54.01C90.4965 53.37 90.6432 52.9 90.9232 52.6C91.2032 52.2933 91.6365 52.14 92.2232 52.14C92.7965 52.14 93.2032 52.2967 93.4432 52.61C93.6832 52.9233 93.8032 53.3767 93.8032 53.97V56.61C93.8032 56.79 93.8065 56.9633 93.8132 57.13C93.8265 57.2967 93.8399 57.4533 93.8532 57.6C93.8732 57.74 93.8899 57.8733 93.9032 58H92.9232C92.9032 57.8933 92.8765 57.76 92.8432 57.6C92.8165 57.4333 92.7965 57.2833 92.7832 57.15C92.7165 57.3767 92.5865 57.59 92.3932 57.79C92.2065 57.9833 91.9465 58.08 91.6132 58.08ZM92.0332 57.16C92.1399 57.16 92.2399 57.13 92.3332 57.07C92.4265 57.01 92.5099 56.9433 92.5832 56.87C92.6565 56.79 92.7065 56.7267 92.7332 56.68V55.04C92.5665 55.1333 92.4099 55.2267 92.2632 55.32C92.1165 55.4133 91.9865 55.5133 91.8732 55.62C91.7665 55.72 91.6799 55.8367 91.6132 55.97C91.5532 56.0967 91.5232 56.2433 91.5232 56.41C91.5232 56.6433 91.5665 56.8267 91.6532 56.96C91.7399 57.0933 91.8665 57.16 92.0332 57.16ZM98.4562 58.08C97.9695 58.08 97.6062 57.9033 97.3662 57.55C97.1262 57.19 97.0062 56.5833 97.0062 55.73V54.61C97.0062 54.17 97.0428 53.7633 97.1162 53.39C97.1895 53.01 97.3262 52.7067 97.5262 52.48C97.7328 52.2533 98.0328 52.14 98.4262 52.14C98.6195 52.14 98.7962 52.1833 98.9562 52.27C99.1162 52.3567 99.2595 52.4633 99.3862 52.59V49.9H100.456V58H99.3862V57.63C99.2595 57.7633 99.1195 57.8733 98.9662 57.96C98.8195 58.04 98.6495 58.08 98.4562 58.08ZM98.7262 57.24C98.8262 57.24 98.9328 57.2233 99.0462 57.19C99.1595 57.15 99.2728 57.0933 99.3862 57.02V53.23C99.2928 53.1633 99.1895 53.1067 99.0762 53.06C98.9628 53.0067 98.8395 52.98 98.7062 52.98C98.4595 52.98 98.2928 53.1 98.2062 53.34C98.1195 53.5733 98.0762 53.8567 98.0762 54.19V55.82C98.0762 56.0867 98.0895 56.33 98.1162 56.55C98.1495 56.7633 98.2128 56.9333 98.3062 57.06C98.3995 57.18 98.5395 57.24 98.7262 57.24ZM101.57 58V52.22H102.64V53.04C102.853 52.6867 103.067 52.45 103.28 52.33C103.493 52.21 103.707 52.15 103.92 52.15C103.947 52.15 103.97 52.15 103.99 52.15C104.017 52.15 104.05 52.1533 104.09 52.16V53.34C104.01 53.3067 103.917 53.28 103.81 53.26C103.71 53.2333 103.607 53.22 103.5 53.22C103.333 53.22 103.18 53.26 103.04 53.34C102.907 53.4133 102.773 53.56 102.64 53.78V58H101.57ZM105.793 58.08C105.566 58.08 105.366 58.0167 105.193 57.89C105.02 57.7567 104.883 57.59 104.783 57.39C104.683 57.1833 104.633 56.9667 104.633 56.74C104.633 56.38 104.693 56.0767 104.813 55.83C104.933 55.5833 105.096 55.3767 105.303 55.21C105.516 55.0367 105.76 54.8867 106.033 54.76C106.313 54.6333 106.606 54.51 106.913 54.39V53.98C106.913 53.7467 106.9 53.5533 106.873 53.4C106.846 53.2467 106.79 53.1333 106.703 53.06C106.623 52.98 106.5 52.94 106.333 52.94C106.186 52.94 106.066 52.9733 105.973 53.04C105.886 53.1067 105.823 53.2033 105.783 53.33C105.743 53.45 105.723 53.5933 105.723 53.76V54.05L104.663 54.01C104.676 53.37 104.823 52.9 105.103 52.6C105.383 52.2933 105.816 52.14 106.403 52.14C106.976 52.14 107.383 52.2967 107.623 52.61C107.863 52.9233 107.983 53.3767 107.983 53.97V56.61C107.983 56.79 107.986 56.9633 107.993 57.13C108.006 57.2967 108.02 57.4533 108.033 57.6C108.053 57.74 108.07 57.8733 108.083 58H107.103C107.083 57.8933 107.056 57.76 107.023 57.6C106.996 57.4333 106.976 57.2833 106.963 57.15C106.896 57.3767 106.766 57.59 106.573 57.79C106.386 57.9833 106.126 58.08 105.793 58.08ZM106.213 57.16C106.32 57.16 106.42 57.13 106.513 57.07C106.606 57.01 106.69 56.9433 106.763 56.87C106.836 56.79 106.886 56.7267 106.913 56.68V55.04C106.746 55.1333 106.59 55.2267 106.443 55.32C106.296 55.4133 106.166 55.5133 106.053 55.62C105.946 55.72 105.86 55.8367 105.793 55.97C105.733 56.0967 105.703 56.2433 105.703 56.41C105.703 56.6433 105.746 56.8267 105.833 56.96C105.92 57.0933 106.046 57.16 106.213 57.16ZM109.681 58L108.751 52.22H109.631L110.231 56.48L111.001 52.22H111.821L112.591 56.46L113.191 52.22H114.071L113.111 58H112.211L111.421 53.92L110.641 58H109.681ZM114.84 58V56.81H115.91V58H114.84Z"></path>
</svg>
