<svg xmlns="http://www.w3.org/2000/svg" fill="none" viewBox="0 0 5 19" height="19" width="5">
<path fill-opacity="0.01" fill="white" d="M0.5 0H4.5V19H0.5V0Z"></path>
<path fill="#45D2FF" d="M4.10866 16.148C3.58066 16.148 3.14066 16.044 2.78866 15.836C2.43666 15.628 2.15266 15.332 1.93666 14.948C1.72866 14.572 1.57266 14.136 1.46866 13.64C1.36466 13.136 1.29666 12.592 1.26466 12.008C1.23266 11.424 1.21666 10.824 1.21666 10.208C1.21666 9.544 1.23266 8.912 1.26466 8.312C1.29666 7.712 1.36466 7.16 1.46866 6.656C1.57266 6.144 1.72866 5.704 1.93666 5.336C2.15266 4.968 2.43666 4.684 2.78866 4.484C3.14066 4.276 3.58066 4.172 4.10866 4.172V5.54C3.88466 5.54 3.70066 5.644 3.55666 5.852C3.41266 6.06 3.30066 6.364 3.22066 6.764C3.14066 7.156 3.08466 7.64 3.05266 8.216C3.02866 8.792 3.01666 9.456 3.01666 10.208C3.01666 10.968 3.03266 11.632 3.06466 12.2C3.09666 12.768 3.15266 13.244 3.23266 13.628C3.32066 14.004 3.43266 14.288 3.56866 14.48C3.71266 14.672 3.89266 14.768 4.10866 14.768V16.148Z"></path>
</svg>
