<svg xmlns="http://www.w3.org/2000/svg" fill="none" viewBox="0 0 29 39" height="39" width="29">
<rect fill="white" height="39" width="29"></rect>
<path stroke="#0D0E12" fill="#0D0E12" d="M22.3954 34.5L22.5 34.5458V38.5H6.5V34.5458L6.60459 34.5H22.3954Z"></path>
<path stroke="#0D0E12" fill="#FFA800" d="M7.59375 24.125H21.4062L18.2188 31.5625L21.4062 33.6875H7.59375L10.7812 31.5625L7.59375 24.125Z"></path>
<mask height="10" width="15" y="24" x="7" maskUnits="userSpaceOnUse" style="mask-type:alpha" id="mask0_1477_421">
<path fill-opacity="0.6" fill="black" d="M7.59375 24.125H21.4062L18.2188 31.5625L21.4062 33.6875H7.59375L10.7812 31.5625L7.59375 24.125Z"></path>
</mask>
<g mask="url(#mask0_1477_421)">
<path fill-opacity="0.6" fill="black" d="M17.6875 26.25L19.2812 22L30.4375 34.2188L18.2188 42.7188L0.6875 36.875L3.34375 31.5625C4.40625 31.7396 7.4875 31.775 11.3125 30.5C15.1375 29.225 17.1562 27.1354 17.6875 26.25Z"></path>
</g>
<rect fill="white" height="3.1875" width="9.5625" y="34.75" x="9.71875"></rect>
<rect fill="black" height="1" width="2" y="36" x="11"></rect>
<rect fill="black" height="1" width="4" y="36" x="14"></rect>
<rect stroke-width="1.47368" stroke="#0D0E12" fill="#FFD600" rx="0.736842" height="13.2632" width="4.42105" y="9.89456" x="1.73684"></rect>
<path stroke-width="1.47368" stroke="#0D0E12" fill="#FFD600" d="M9.10525 9.89456H27.0193C27.5129 9.89456 27.8669 10.3704 27.7251 10.8431L24.1882 22.6326C24.0947 22.9443 23.8079 23.1577 23.4825 23.1577H9.84209C9.43515 23.1577 9.10525 22.8278 9.10525 22.4209V9.89456Z"></path>
<path stroke-width="1.47368" stroke="#0D0E12" fill="#FFD600" d="M16.6952 1.05252H17.2822C17.7406 1.05252 18.0878 1.46666 18.0077 1.91805L16.5929 9.89462H9.10525V9.43238L16.1381 1.30713C16.278 1.14543 16.4813 1.05252 16.6952 1.05252Z"></path>
<path fill="#FFD600" d="M9.84204 9.89459C9.84204 9.89459 10.5789 8.42091 12.0526 7.68407C13.5263 6.94723 15.9805 9.15775 15.9805 9.15775V11.5108L9.84204 13.5789V9.89459Z"></path>
<path fill="#0D0E12" d="M15.3056 19.12C14.831 19.12 14.471 19.0373 14.2256 18.872C13.9856 18.7013 13.823 18.464 13.7376 18.16C13.6523 17.856 13.6096 17.504 13.6096 17.104H14.8976C14.8976 17.3493 14.911 17.5493 14.9376 17.704C14.9643 17.8587 15.0123 17.9707 15.0816 18.04C15.1563 18.104 15.2603 18.1333 15.3936 18.128C15.5323 18.1227 15.631 18.0667 15.6896 17.96C15.7483 17.8533 15.783 17.7013 15.7936 17.504C15.8096 17.3013 15.8176 17.0587 15.8176 16.776C15.8176 16.5627 15.8043 16.3733 15.7776 16.208C15.7563 16.0427 15.7083 15.912 15.6336 15.816C15.5643 15.7147 15.4576 15.664 15.3136 15.664C15.1803 15.664 15.071 15.712 14.9856 15.808C14.9003 15.904 14.839 16.0533 14.8016 16.256H13.6496L13.7696 12.52H16.7936V13.64H14.8416L14.7696 14.976C14.823 14.9013 14.9243 14.8373 15.0736 14.784C15.223 14.7253 15.383 14.688 15.5536 14.672C15.8843 14.6347 16.1616 14.696 16.3856 14.856C16.615 15.0107 16.7856 15.248 16.8976 15.568C17.015 15.888 17.0736 16.28 17.0736 16.744C17.0736 17.0907 17.0523 17.4107 17.0096 17.704C16.967 17.992 16.8843 18.2427 16.7616 18.456C16.639 18.664 16.4603 18.8267 16.2256 18.944C15.991 19.0613 15.6843 19.12 15.3056 19.12ZM19.5359 19.12C19.1466 19.12 18.8213 19.0427 18.5599 18.888C18.2986 18.728 18.1013 18.5093 17.9679 18.232C17.8346 17.9547 17.7679 17.632 17.7679 17.264V14.328C17.7679 13.9493 17.8293 13.6187 17.9519 13.336C18.0799 13.048 18.2746 12.824 18.5359 12.664C18.7973 12.504 19.1306 12.424 19.5359 12.424C19.9413 12.424 20.2719 12.504 20.5279 12.664C20.7893 12.824 20.9813 13.048 21.1039 13.336C21.2319 13.6187 21.2959 13.9493 21.2959 14.328V17.264C21.2959 17.6267 21.2293 17.9493 21.0959 18.232C20.9626 18.5093 20.7653 18.728 20.5039 18.888C20.2426 19.0427 19.9199 19.12 19.5359 19.12ZM19.5359 17.928C19.6639 17.928 19.7546 17.888 19.8079 17.808C19.8666 17.7227 19.9013 17.6267 19.9119 17.52C19.9279 17.408 19.9359 17.312 19.9359 17.232V14.36C19.9359 14.2693 19.9306 14.168 19.9199 14.056C19.9093 13.9387 19.8746 13.8373 19.8159 13.752C19.7626 13.6613 19.6693 13.616 19.5359 13.616C19.4026 13.616 19.3066 13.6613 19.2479 13.752C19.1946 13.8373 19.1626 13.9387 19.1519 14.056C19.1413 14.168 19.1359 14.2693 19.1359 14.36V17.232C19.1359 17.312 19.1439 17.408 19.1599 17.52C19.1759 17.6267 19.2106 17.7227 19.2639 17.808C19.3226 17.888 19.4133 17.928 19.5359 17.928Z"></path>
<rect fill="#0D0E12" height="13" width="3" y="10" x="6"></rect>
<path fill="#0D0E12" d="M7 11H9V24H7V11Z"></path>
</svg>
