<svg xmlns="http://www.w3.org/2000/svg" fill="none" viewBox="0 0 214 84" height="84" width="214">
<mask fill="white" id="path-1-inside-1_1560_20">
<path d="M0 0H214V84H0V0Z"></path>
</mask>
<path fill="#0D0E12" d="M0 0H214V84H0V0Z"></path>
<path mask="url(#path-1-inside-1_1560_20)" fill="white" d="M0 0V-1H-1V0H0ZM0 84H-1V85H0V84ZM0 1H214V-1H0V1ZM214 83H0V85H214V83ZM1 84V0H-1V84H1Z"></path>
<path fill="white" d="M16.684 38L16.852 28.28H19.156L20.224 33.932L21.376 28.28H23.596L23.764 38H22.24L22.06 31.532L20.932 38H19.576L18.376 31.484L18.232 38H16.684ZM25.1692 38V28.28H29.5372V29.744H27.3172V32.156H29.0092V33.644H27.3172V36.548H29.5612V38H25.1692ZM33.1164 38.144C32.5084 38.144 32.0004 38.036 31.5924 37.82C31.1844 37.604 30.8764 37.272 30.6684 36.824C30.4604 36.368 30.3444 35.78 30.3204 35.06L32.1564 34.784C32.1644 35.2 32.2004 35.536 32.2644 35.792C32.3364 36.048 32.4324 36.232 32.5524 36.344C32.6804 36.456 32.8324 36.512 33.0084 36.512C33.2324 36.512 33.3764 36.436 33.4404 36.284C33.5124 36.132 33.5484 35.972 33.5484 35.804C33.5484 35.404 33.4524 35.068 33.2604 34.796C33.0684 34.516 32.8084 34.236 32.4804 33.956L31.6404 33.224C31.2724 32.912 30.9604 32.56 30.7044 32.168C30.4564 31.768 30.3324 31.276 30.3324 30.692C30.3324 29.868 30.5764 29.24 31.0644 28.808C31.5524 28.368 32.2164 28.148 33.0564 28.148C33.5764 28.148 33.9924 28.236 34.3044 28.412C34.6244 28.588 34.8644 28.82 35.0244 29.108C35.1924 29.388 35.3044 29.688 35.3604 30.008C35.4244 30.32 35.4604 30.62 35.4684 30.908L33.6204 31.136C33.6124 30.848 33.5924 30.6 33.5604 30.392C33.5364 30.176 33.4804 30.012 33.3924 29.9C33.3044 29.78 33.1684 29.72 32.9844 29.72C32.7844 29.72 32.6364 29.804 32.5404 29.972C32.4524 30.14 32.4084 30.308 32.4084 30.476C32.4084 30.836 32.4924 31.132 32.6604 31.364C32.8364 31.588 33.0644 31.824 33.3444 32.072L34.1484 32.78C34.5724 33.14 34.9284 33.548 35.2164 34.004C35.5124 34.46 35.6604 35.024 35.6604 35.696C35.6604 36.152 35.5564 36.568 35.3484 36.944C35.1404 37.312 34.8444 37.604 34.4604 37.82C34.0844 38.036 33.6364 38.144 33.1164 38.144ZM39.093 38.144C38.485 38.144 37.977 38.036 37.569 37.82C37.161 37.604 36.853 37.272 36.645 36.824C36.437 36.368 36.321 35.78 36.297 35.06L38.133 34.784C38.141 35.2 38.177 35.536 38.241 35.792C38.313 36.048 38.409 36.232 38.529 36.344C38.657 36.456 38.809 36.512 38.985 36.512C39.209 36.512 39.353 36.436 39.417 36.284C39.489 36.132 39.525 35.972 39.525 35.804C39.525 35.404 39.429 35.068 39.237 34.796C39.045 34.516 38.785 34.236 38.457 33.956L37.617 33.224C37.249 32.912 36.937 32.56 36.681 32.168C36.433 31.768 36.309 31.276 36.309 30.692C36.309 29.868 36.553 29.24 37.041 28.808C37.529 28.368 38.193 28.148 39.033 28.148C39.553 28.148 39.969 28.236 40.281 28.412C40.601 28.588 40.841 28.82 41.001 29.108C41.169 29.388 41.281 29.688 41.337 30.008C41.401 30.32 41.437 30.62 41.445 30.908L39.597 31.136C39.589 30.848 39.569 30.6 39.537 30.392C39.513 30.176 39.457 30.012 39.369 29.9C39.281 29.78 39.145 29.72 38.961 29.72C38.761 29.72 38.613 29.804 38.517 29.972C38.429 30.14 38.385 30.308 38.385 30.476C38.385 30.836 38.469 31.132 38.637 31.364C38.813 31.588 39.041 31.824 39.321 32.072L40.125 32.78C40.549 33.14 40.905 33.548 41.193 34.004C41.489 34.46 41.637 35.024 41.637 35.696C41.637 36.152 41.533 36.568 41.325 36.944C41.117 37.312 40.821 37.604 40.437 37.82C40.061 38.036 39.613 38.144 39.093 38.144ZM42.1153 38L43.9513 28.28H46.3993L48.2113 38H46.2313L45.9073 35.948H44.4793L44.1433 38H42.1153ZM44.6713 34.664H45.7033L45.1873 30.872L44.6713 34.664ZM51.5723 38.144C50.9003 38.144 50.3683 38.004 49.9763 37.724C49.5923 37.444 49.3163 37.052 49.1483 36.548C48.9883 36.036 48.9083 35.448 48.9083 34.784V31.52C48.9083 30.832 48.9963 30.236 49.1723 29.732C49.3483 29.228 49.6483 28.84 50.0723 28.568C50.5043 28.288 51.0883 28.148 51.8243 28.148C52.5443 28.148 53.1083 28.268 53.5163 28.508C53.9323 28.748 54.2283 29.08 54.4043 29.504C54.5803 29.928 54.6683 30.424 54.6683 30.992V31.616H52.5683V30.824C52.5683 30.616 52.5523 30.424 52.5203 30.248C52.4963 30.072 52.4323 29.932 52.3283 29.828C52.2323 29.716 52.0723 29.66 51.8483 29.66C51.6163 29.66 51.4483 29.724 51.3443 29.852C51.2403 29.972 51.1723 30.124 51.1403 30.308C51.1163 30.492 51.1043 30.684 51.1043 30.884V35.384C51.1043 35.6 51.1243 35.804 51.1643 35.996C51.2123 36.18 51.2923 36.332 51.4043 36.452C51.5243 36.564 51.6923 36.62 51.9083 36.62C52.1323 36.62 52.3043 36.56 52.4243 36.44C52.5443 36.32 52.6283 36.164 52.6763 35.972C52.7243 35.78 52.7483 35.576 52.7483 35.36V34.22H51.8723V32.96H54.6803V38H53.2643L53.1443 37.196C53.0163 37.468 52.8283 37.696 52.5803 37.88C52.3323 38.056 51.9963 38.144 51.5723 38.144ZM56.0247 38V28.28H60.3927V29.744H58.1727V32.156H59.8647V33.644H58.1727V36.548H60.4167V38H56.0247Z"></path>
<path fill="white" d="M18.54 56.09C18.0733 56.09 17.6833 55.99 17.37 55.79C17.0633 55.59 16.83 55.3133 16.67 54.96C16.51 54.6067 16.4167 54.1967 16.39 53.73L17.39 53.46C17.41 53.7467 17.4533 54.0233 17.52 54.29C17.5933 54.5567 17.71 54.7767 17.87 54.95C18.03 55.1167 18.2533 55.2 18.54 55.2C18.8333 55.2 19.0533 55.12 19.2 54.96C19.3533 54.7933 19.43 54.5567 19.43 54.25C19.43 53.8833 19.3467 53.59 19.18 53.37C19.0133 53.1433 18.8033 52.9167 18.55 52.69L17.19 51.49C16.9233 51.2567 16.7267 51.0033 16.6 50.73C16.4733 50.45 16.41 50.1067 16.41 49.7C16.41 49.1067 16.58 48.6467 16.92 48.32C17.26 47.9933 17.7233 47.83 18.31 47.83C18.63 47.83 18.91 47.8733 19.15 47.96C19.3967 48.04 19.6 48.1667 19.76 48.34C19.9267 48.5133 20.0567 48.7333 20.15 49C20.25 49.26 20.3167 49.5667 20.35 49.92L19.39 50.18C19.37 49.9133 19.33 49.67 19.27 49.45C19.21 49.2233 19.1033 49.0433 18.95 48.91C18.8033 48.77 18.59 48.7 18.31 48.7C18.03 48.7 17.81 48.7767 17.65 48.93C17.4967 49.0767 17.42 49.2967 17.42 49.59C17.42 49.8367 17.46 50.04 17.54 50.2C17.6267 50.36 17.7633 50.5233 17.95 50.69L19.32 51.89C19.6267 52.1567 19.8967 52.4767 20.13 52.85C20.3633 53.2167 20.48 53.6533 20.48 54.16C20.48 54.56 20.3967 54.9067 20.23 55.2C20.0633 55.4867 19.8333 55.7067 19.54 55.86C19.2533 56.0133 18.92 56.09 18.54 56.09ZM22.8566 56.08C22.4299 56.08 22.0932 55.9933 21.8466 55.82C21.5999 55.6467 21.4232 55.4 21.3166 55.08C21.2166 54.76 21.1666 54.3833 21.1666 53.95V52.27C21.1666 51.8367 21.2166 51.46 21.3166 51.14C21.4232 50.82 21.5999 50.5733 21.8466 50.4C22.0932 50.2267 22.4299 50.14 22.8566 50.14C23.2832 50.14 23.6166 50.2267 23.8566 50.4C24.1032 50.5733 24.2766 50.82 24.3766 51.14C24.4832 51.46 24.5366 51.8367 24.5366 52.27V53.95C24.5366 54.3833 24.4832 54.76 24.3766 55.08C24.2766 55.4 24.1032 55.6467 23.8566 55.82C23.6166 55.9933 23.2832 56.08 22.8566 56.08ZM22.8566 55.29C23.0632 55.29 23.2066 55.23 23.2866 55.11C23.3732 54.99 23.4232 54.8333 23.4366 54.64C23.4566 54.44 23.4666 54.2333 23.4666 54.02V52.21C23.4666 51.99 23.4566 51.7833 23.4366 51.59C23.4232 51.3967 23.3732 51.24 23.2866 51.12C23.2066 50.9933 23.0632 50.93 22.8566 50.93C22.6499 50.93 22.5032 50.9933 22.4166 51.12C22.3299 51.24 22.2766 51.3967 22.2566 51.59C22.2432 51.7833 22.2366 51.99 22.2366 52.21V54.02C22.2366 54.2333 22.2432 54.44 22.2566 54.64C22.2766 54.8333 22.3299 54.99 22.4166 55.11C22.5032 55.23 22.6499 55.29 22.8566 55.29ZM25.5446 56V50.22H26.6146V51.04C26.8279 50.6867 27.0413 50.45 27.2546 50.33C27.4679 50.21 27.6813 50.15 27.8946 50.15C27.9213 50.15 27.9446 50.15 27.9646 50.15C27.9913 50.15 28.0246 50.1533 28.0646 50.16V51.34C27.9846 51.3067 27.8913 51.28 27.7846 51.26C27.6846 51.2333 27.5813 51.22 27.4746 51.22C27.3079 51.22 27.1546 51.26 27.0146 51.34C26.8813 51.4133 26.7479 51.56 26.6146 51.78V56H25.5446ZM28.7575 56V50.22H29.8275V51.04C30.0408 50.6867 30.2542 50.45 30.4675 50.33C30.6808 50.21 30.8942 50.15 31.1075 50.15C31.1342 50.15 31.1575 50.15 31.1775 50.15C31.2042 50.15 31.2375 50.1533 31.2775 50.16V51.34C31.1975 51.3067 31.1042 51.28 30.9975 51.26C30.8975 51.2333 30.7942 51.22 30.6875 51.22C30.5208 51.22 30.3675 51.26 30.2275 51.34C30.0942 51.4133 29.9608 51.56 29.8275 51.78V56H28.7575ZM31.8504 57.45V56.63C32.1104 56.63 32.3171 56.6167 32.4704 56.59C32.6237 56.57 32.7337 56.5267 32.8004 56.46C32.8671 56.4 32.9004 56.3133 32.9004 56.2C32.9004 56.14 32.8771 56.0067 32.8304 55.8C32.7837 55.5933 32.7337 55.3733 32.6804 55.14L31.5204 50.22H32.6004L33.3804 54.54L34.1304 50.22H35.2104L33.8304 56.32C33.7704 56.6 33.6604 56.82 33.5004 56.98C33.3404 57.1467 33.1337 57.2667 32.8804 57.34C32.6337 57.4133 32.3337 57.45 31.9804 57.45H31.8504ZM35.8864 57.31L35.7164 56.85C35.8964 56.79 36.0364 56.6833 36.1364 56.53C36.2431 56.3833 36.2964 56.2067 36.2964 56H35.7264V54.85H36.8264V55.98C36.8264 56.3333 36.7497 56.6133 36.5964 56.82C36.4431 57.0333 36.2064 57.1967 35.8864 57.31ZM41.5468 56.08C41.2468 56.08 41.0035 56.0233 40.8168 55.91C40.6368 55.7967 40.5035 55.6367 40.4168 55.43C40.3368 55.2233 40.2968 54.98 40.2968 54.7V50.93H39.6868V50.22H40.2968V48.53H41.3668V50.22H42.2968V50.93H41.3668V54.63C41.3668 54.8567 41.4035 55.02 41.4768 55.12C41.5501 55.2133 41.6901 55.26 41.8968 55.26C41.9501 55.26 42.0101 55.2567 42.0768 55.25C42.1501 55.2433 42.2201 55.2367 42.2868 55.23V56.02C42.1535 56.04 42.0301 56.0533 41.9168 56.06C41.8035 56.0733 41.6801 56.08 41.5468 56.08ZM43.113 56V47.9H44.183V50.82C44.3763 50.6333 44.593 50.4733 44.833 50.34C45.073 50.2067 45.3396 50.14 45.633 50.14C45.8596 50.14 46.033 50.2 46.153 50.32C46.2796 50.44 46.3663 50.59 46.413 50.77C46.4663 50.95 46.493 51.1333 46.493 51.32V56H45.423V51.63C45.423 51.4233 45.393 51.2633 45.333 51.15C45.273 51.0367 45.1496 50.98 44.963 50.98C44.8363 50.98 44.703 51.0167 44.563 51.09C44.4296 51.1633 44.303 51.2533 44.183 51.36V56H43.113ZM47.6061 56V50.22H48.6761V56H47.6061ZM47.6061 49.36V48.24H48.6761V49.36H47.6061ZM51.1613 56.08C50.6879 56.08 50.3079 55.9333 50.0213 55.64C49.7346 55.34 49.5713 54.9467 49.5313 54.46L50.4213 54.19C50.4746 54.5567 50.5646 54.8333 50.6913 55.02C50.8179 55.2 51.0046 55.29 51.2513 55.29C51.4446 55.29 51.5913 55.2367 51.6913 55.13C51.7913 55.0167 51.8413 54.8667 51.8413 54.68C51.8413 54.5133 51.8046 54.3633 51.7313 54.23C51.6579 54.0967 51.5379 53.96 51.3713 53.82L50.3813 52.97C50.1813 52.7967 50.0113 52.6033 49.8713 52.39C49.7379 52.1767 49.6713 51.9 49.6713 51.56C49.6713 51.2533 49.7313 50.9967 49.8513 50.79C49.9779 50.5767 50.1513 50.4167 50.3713 50.31C50.5979 50.1967 50.8613 50.14 51.1613 50.14C51.6213 50.14 51.9713 50.29 52.2113 50.59C52.4579 50.8833 52.5979 51.24 52.6313 51.66L51.9113 51.93C51.8846 51.73 51.8446 51.5567 51.7913 51.41C51.7379 51.2567 51.6646 51.14 51.5713 51.06C51.4779 50.9733 51.3546 50.93 51.2013 50.93C51.0279 50.93 50.8879 50.99 50.7813 51.11C50.6813 51.2233 50.6313 51.36 50.6313 51.52C50.6313 51.62 50.6513 51.72 50.6913 51.82C50.7379 51.9133 50.8146 52.0067 50.9213 52.1L51.9413 53.04C52.0813 53.1667 52.2113 53.3033 52.3313 53.45C52.4579 53.5967 52.5613 53.7633 52.6413 53.95C52.7213 54.1367 52.7613 54.3533 52.7613 54.6C52.7613 54.9267 52.6946 55.2 52.5613 55.42C52.4279 55.64 52.2413 55.8067 52.0013 55.92C51.7613 56.0267 51.4813 56.08 51.1613 56.08ZM57.4366 56.08C57.01 56.08 56.6733 55.9933 56.4266 55.82C56.18 55.6467 56.0033 55.4 55.8966 55.08C55.7966 54.76 55.7466 54.3833 55.7466 53.95V52.27C55.7466 51.8367 55.7966 51.46 55.8966 51.14C56.0033 50.82 56.18 50.5733 56.4266 50.4C56.6733 50.2267 57.01 50.14 57.4366 50.14C57.8633 50.14 58.1966 50.2267 58.4366 50.4C58.6833 50.5733 58.8566 50.82 58.9566 51.14C59.0633 51.46 59.1166 51.8367 59.1166 52.27V53.95C59.1166 54.3833 59.0633 54.76 58.9566 55.08C58.8566 55.4 58.6833 55.6467 58.4366 55.82C58.1966 55.9933 57.8633 56.08 57.4366 56.08ZM57.4366 55.29C57.6433 55.29 57.7866 55.23 57.8666 55.11C57.9533 54.99 58.0033 54.8333 58.0166 54.64C58.0366 54.44 58.0466 54.2333 58.0466 54.02V52.21C58.0466 51.99 58.0366 51.7833 58.0166 51.59C58.0033 51.3967 57.9533 51.24 57.8666 51.12C57.7866 50.9933 57.6433 50.93 57.4366 50.93C57.23 50.93 57.0833 50.9933 56.9966 51.12C56.91 51.24 56.8566 51.3967 56.8366 51.59C56.8233 51.7833 56.8166 51.99 56.8166 52.21V54.02C56.8166 54.2333 56.8233 54.44 56.8366 54.64C56.8566 54.8333 56.91 54.99 56.9966 55.11C57.0833 55.23 57.23 55.29 57.4366 55.29ZM60.0947 57.9V50.22H61.1647V50.68C61.2914 50.5333 61.4447 50.4067 61.6247 50.3C61.8047 50.1933 62.018 50.14 62.2647 50.14C62.5647 50.14 62.8014 50.22 62.9747 50.38C63.1547 50.5333 63.288 50.73 63.3747 50.97C63.4614 51.2033 63.518 51.4433 63.5447 51.69C63.5714 51.93 63.5847 52.1367 63.5847 52.31V53.71C63.5847 54.1167 63.5447 54.5033 63.4647 54.87C63.3847 55.23 63.238 55.5233 63.0247 55.75C62.818 55.97 62.5247 56.08 62.1447 56.08C61.938 56.08 61.7547 56.03 61.5947 55.93C61.4347 55.8233 61.2914 55.7033 61.1647 55.57V57.9H60.0947ZM61.9347 55.24C62.1214 55.24 62.2547 55.1733 62.3347 55.04C62.4147 54.9 62.4647 54.7133 62.4847 54.48C62.5047 54.2467 62.5147 53.99 62.5147 53.71V52.31C62.5147 52.07 62.5014 51.85 62.4747 51.65C62.448 51.4433 62.3914 51.28 62.3047 51.16C62.218 51.04 62.0814 50.98 61.8947 50.98C61.7547 50.98 61.6214 51.01 61.4947 51.07C61.368 51.13 61.258 51.2 61.1647 51.28V54.98C61.2647 55.0533 61.378 55.1167 61.5047 55.17C61.6314 55.2167 61.7747 55.24 61.9347 55.24ZM66.0976 56.08C65.7976 56.08 65.5542 56.0233 65.3676 55.91C65.1876 55.7967 65.0542 55.6367 64.9676 55.43C64.8876 55.2233 64.8476 54.98 64.8476 54.7V50.93H64.2376V50.22H64.8476V48.53H65.9176V50.22H66.8476V50.93H65.9176V54.63C65.9176 54.8567 65.9542 55.02 66.0276 55.12C66.1009 55.2133 66.2409 55.26 66.4476 55.26C66.5009 55.26 66.5609 55.2567 66.6276 55.25C66.7009 55.2433 66.7709 55.2367 66.8376 55.23V56.02C66.7042 56.04 66.5809 56.0533 66.4676 56.06C66.3542 56.0733 66.2309 56.08 66.0976 56.08ZM67.7038 56V50.22H68.7738V56H67.7038ZM67.7038 49.36V48.24H68.7738V49.36H67.7038ZM71.5089 56.08C71.0822 56.08 70.7456 55.9933 70.4989 55.82C70.2522 55.6467 70.0756 55.4 69.9689 55.08C69.8689 54.76 69.8189 54.3833 69.8189 53.95V52.27C69.8189 51.8367 69.8689 51.46 69.9689 51.14C70.0756 50.82 70.2522 50.5733 70.4989 50.4C70.7456 50.2267 71.0822 50.14 71.5089 50.14C71.9356 50.14 72.2689 50.2267 72.5089 50.4C72.7556 50.5733 72.9289 50.82 73.0289 51.14C73.1356 51.46 73.1889 51.8367 73.1889 52.27V53.95C73.1889 54.3833 73.1356 54.76 73.0289 55.08C72.9289 55.4 72.7556 55.6467 72.5089 55.82C72.2689 55.9933 71.9356 56.08 71.5089 56.08ZM71.5089 55.29C71.7156 55.29 71.8589 55.23 71.9389 55.11C72.0256 54.99 72.0756 54.8333 72.0889 54.64C72.1089 54.44 72.1189 54.2333 72.1189 54.02V52.21C72.1189 51.99 72.1089 51.7833 72.0889 51.59C72.0756 51.3967 72.0256 51.24 71.9389 51.12C71.8589 50.9933 71.7156 50.93 71.5089 50.93C71.3022 50.93 71.1556 50.9933 71.0689 51.12C70.9822 51.24 70.9289 51.3967 70.9089 51.59C70.8956 51.7833 70.8889 51.99 70.8889 52.21V54.02C70.8889 54.2333 70.8956 54.44 70.9089 54.64C70.9289 54.8333 70.9822 54.99 71.0689 55.11C71.1556 55.23 71.3022 55.29 71.5089 55.29ZM74.167 56V50.22H75.237V50.79C75.4303 50.61 75.6436 50.4567 75.877 50.33C76.1103 50.2033 76.367 50.14 76.647 50.14C76.8803 50.14 77.057 50.2 77.177 50.32C77.3036 50.44 77.3903 50.59 77.437 50.77C77.4903 50.95 77.517 51.1333 77.517 51.32V56H76.447V51.63C76.447 51.4233 76.417 51.2633 76.357 51.15C76.297 51.0367 76.1736 50.98 75.987 50.98C75.867 50.98 75.7403 51.0167 75.607 51.09C75.4803 51.1567 75.357 51.24 75.237 51.34V56H74.167ZM80.9166 56V50.22H81.9866V56H80.9166ZM80.9166 49.36V48.24H81.9866V49.36H80.9166ZM84.4718 56.08C83.9985 56.08 83.6185 55.9333 83.3318 55.64C83.0451 55.34 82.8818 54.9467 82.8418 54.46L83.7318 54.19C83.7851 54.5567 83.8751 54.8333 84.0018 55.02C84.1285 55.2 84.3151 55.29 84.5618 55.29C84.7551 55.29 84.9018 55.2367 85.0018 55.13C85.1018 55.0167 85.1518 54.8667 85.1518 54.68C85.1518 54.5133 85.1151 54.3633 85.0418 54.23C84.9685 54.0967 84.8485 53.96 84.6818 53.82L83.6918 52.97C83.4918 52.7967 83.3218 52.6033 83.1818 52.39C83.0485 52.1767 82.9818 51.9 82.9818 51.56C82.9818 51.2533 83.0418 50.9967 83.1618 50.79C83.2885 50.5767 83.4618 50.4167 83.6818 50.31C83.9085 50.1967 84.1718 50.14 84.4718 50.14C84.9318 50.14 85.2818 50.29 85.5218 50.59C85.7685 50.8833 85.9085 51.24 85.9418 51.66L85.2218 51.93C85.1951 51.73 85.1551 51.5567 85.1018 51.41C85.0485 51.2567 84.9751 51.14 84.8818 51.06C84.7885 50.9733 84.6651 50.93 84.5118 50.93C84.3385 50.93 84.1985 50.99 84.0918 51.11C83.9918 51.2233 83.9418 51.36 83.9418 51.52C83.9418 51.62 83.9618 51.72 84.0018 51.82C84.0485 51.9133 84.1251 52.0067 84.2318 52.1L85.2518 53.04C85.3918 53.1667 85.5218 53.3033 85.6418 53.45C85.7685 53.5967 85.8718 53.7633 85.9518 53.95C86.0318 54.1367 86.0718 54.3533 86.0718 54.6C86.0718 54.9267 86.0051 55.2 85.8718 55.42C85.7385 55.64 85.5518 55.8067 85.3118 55.92C85.0718 56.0267 84.7918 56.08 84.4718 56.08ZM89.9872 56.08C89.7605 56.08 89.5839 56.02 89.4572 55.9C89.3305 55.78 89.2405 55.63 89.1872 55.45C89.1405 55.27 89.1172 55.0867 89.1172 54.9V50.22H90.1872V54.58C90.1872 54.7867 90.2172 54.95 90.2772 55.07C90.3372 55.1833 90.4605 55.24 90.6472 55.24C90.7672 55.24 90.8905 55.2067 91.0172 55.14C91.1505 55.0667 91.2772 54.98 91.3972 54.88V50.22H92.4672V56H91.3972V55.43C91.2105 55.61 90.9972 55.7633 90.7572 55.89C90.5239 56.0167 90.2672 56.08 89.9872 56.08ZM93.5615 56V50.22H94.6315V50.79C94.8248 50.61 95.0382 50.4567 95.2715 50.33C95.5048 50.2033 95.7615 50.14 96.0415 50.14C96.2748 50.14 96.4515 50.2 96.5715 50.32C96.6982 50.44 96.7848 50.59 96.8315 50.77C96.8848 50.95 96.9115 51.1333 96.9115 51.32V56H95.8415V51.63C95.8415 51.4233 95.8115 51.2633 95.7515 51.15C95.6915 51.0367 95.5682 50.98 95.3815 50.98C95.2615 50.98 95.1348 51.0167 95.0015 51.09C94.8748 51.1567 94.7515 51.24 94.6315 51.34V56H93.5615ZM99.296 56.08C98.8093 56.08 98.446 55.9033 98.206 55.55C97.966 55.19 97.846 54.5833 97.846 53.73V52.61C97.846 52.17 97.8827 51.7633 97.956 51.39C98.0293 51.01 98.166 50.7067 98.366 50.48C98.5727 50.2533 98.8727 50.14 99.266 50.14C99.4593 50.14 99.636 50.1833 99.796 50.27C99.956 50.3567 100.099 50.4633 100.226 50.59V47.9H101.296V56H100.226V55.63C100.099 55.7633 99.9593 55.8733 99.806 55.96C99.6593 56.04 99.4893 56.08 99.296 56.08ZM99.566 55.24C99.666 55.24 99.7727 55.2233 99.886 55.19C99.9993 55.15 100.113 55.0933 100.226 55.02V51.23C100.133 51.1633 100.029 51.1067 99.916 51.06C99.8027 51.0067 99.6793 50.98 99.546 50.98C99.2993 50.98 99.1327 51.1 99.046 51.34C98.9593 51.5733 98.916 51.8567 98.916 52.19V53.82C98.916 54.0867 98.9293 54.33 98.956 54.55C98.9893 54.7633 99.0527 54.9333 99.146 55.06C99.2393 55.18 99.3793 55.24 99.566 55.24ZM103.98 56.08C103.527 56.08 103.177 55.9933 102.93 55.82C102.683 55.64 102.51 55.38 102.41 55.04C102.317 54.6933 102.27 54.27 102.27 53.77V52.45C102.27 51.9367 102.32 51.51 102.42 51.17C102.52 50.83 102.693 50.5733 102.94 50.4C103.193 50.2267 103.54 50.14 103.98 50.14C104.467 50.14 104.823 50.24 105.05 50.44C105.283 50.64 105.437 50.93 105.51 51.31C105.583 51.6833 105.62 52.1333 105.62 52.66V53.13H103.34V54.29C103.34 54.5233 103.36 54.7133 103.4 54.86C103.447 55.0067 103.517 55.1167 103.61 55.19C103.71 55.2567 103.837 55.29 103.99 55.29C104.15 55.29 104.27 55.2533 104.35 55.18C104.437 55.1 104.493 54.99 104.52 54.85C104.553 54.7033 104.57 54.5333 104.57 54.34V53.99H105.61V54.21C105.61 54.79 105.487 55.2467 105.24 55.58C104.993 55.9133 104.573 56.08 103.98 56.08ZM103.34 52.55H104.57V52.03C104.57 51.79 104.557 51.59 104.53 51.43C104.503 51.2633 104.447 51.14 104.36 51.06C104.28 50.9733 104.15 50.93 103.97 50.93C103.797 50.93 103.663 50.97 103.57 51.05C103.483 51.13 103.423 51.2667 103.39 51.46C103.357 51.6467 103.34 51.9067 103.34 52.24V52.55ZM106.619 56V50.22H107.689V51.04C107.902 50.6867 108.115 50.45 108.329 50.33C108.542 50.21 108.755 50.15 108.969 50.15C108.995 50.15 109.019 50.15 109.039 50.15C109.065 50.15 109.099 50.1533 109.139 50.16V51.34C109.059 51.3067 108.965 51.28 108.859 51.26C108.759 51.2333 108.655 51.22 108.549 51.22C108.382 51.22 108.229 51.26 108.089 51.34C107.955 51.4133 107.822 51.56 107.689 51.78V56H106.619ZM113.427 56.08C112.94 56.08 112.577 55.9033 112.337 55.55C112.097 55.19 111.977 54.5833 111.977 53.73V52.61C111.977 52.17 112.014 51.7633 112.087 51.39C112.16 51.01 112.297 50.7067 112.497 50.48C112.704 50.2533 113.004 50.14 113.397 50.14C113.59 50.14 113.767 50.1833 113.927 50.27C114.087 50.3567 114.23 50.4633 114.357 50.59V47.9H115.427V56H114.357V55.63C114.23 55.7633 114.09 55.8733 113.937 55.96C113.79 56.04 113.62 56.08 113.427 56.08ZM113.697 55.24C113.797 55.24 113.904 55.2233 114.017 55.19C114.13 55.15 114.244 55.0933 114.357 55.02V51.23C114.264 51.1633 114.16 51.1067 114.047 51.06C113.934 51.0067 113.81 50.98 113.677 50.98C113.43 50.98 113.264 51.1 113.177 51.34C113.09 51.5733 113.047 51.8567 113.047 52.19V53.82C113.047 54.0867 113.06 54.33 113.087 54.55C113.12 54.7633 113.184 54.9333 113.277 55.06C113.37 55.18 113.51 55.24 113.697 55.24ZM118.111 56.08C117.657 56.08 117.307 55.9933 117.061 55.82C116.814 55.64 116.641 55.38 116.541 55.04C116.447 54.6933 116.401 54.27 116.401 53.77V52.45C116.401 51.9367 116.451 51.51 116.551 51.17C116.651 50.83 116.824 50.5733 117.071 50.4C117.324 50.2267 117.671 50.14 118.111 50.14C118.597 50.14 118.954 50.24 119.181 50.44C119.414 50.64 119.567 50.93 119.641 51.31C119.714 51.6833 119.751 52.1333 119.751 52.66V53.13H117.471V54.29C117.471 54.5233 117.491 54.7133 117.531 54.86C117.577 55.0067 117.647 55.1167 117.741 55.19C117.841 55.2567 117.967 55.29 118.121 55.29C118.281 55.29 118.401 55.2533 118.481 55.18C118.567 55.1 118.624 54.99 118.651 54.85C118.684 54.7033 118.701 54.5333 118.701 54.34V53.99H119.741V54.21C119.741 54.79 119.617 55.2467 119.371 55.58C119.124 55.9133 118.704 56.08 118.111 56.08ZM117.471 52.55H118.701V52.03C118.701 51.79 118.687 51.59 118.661 51.43C118.634 51.2633 118.577 51.14 118.491 51.06C118.411 50.9733 118.281 50.93 118.101 50.93C117.927 50.93 117.794 50.97 117.701 51.05C117.614 51.13 117.554 51.2667 117.521 51.46C117.487 51.6467 117.471 51.9067 117.471 52.24V52.55ZM121.47 56L120.33 50.22H121.41L122.12 54.87L122.84 50.22H123.88L122.78 56H121.47ZM126.167 56.08C125.714 56.08 125.364 55.9933 125.117 55.82C124.871 55.64 124.697 55.38 124.597 55.04C124.504 54.6933 124.457 54.27 124.457 53.77V52.45C124.457 51.9367 124.507 51.51 124.607 51.17C124.707 50.83 124.881 50.5733 125.127 50.4C125.381 50.2267 125.727 50.14 126.167 50.14C126.654 50.14 127.011 50.24 127.237 50.44C127.471 50.64 127.624 50.93 127.697 51.31C127.771 51.6833 127.807 52.1333 127.807 52.66V53.13H125.527V54.29C125.527 54.5233 125.547 54.7133 125.587 54.86C125.634 55.0067 125.704 55.1167 125.797 55.19C125.897 55.2567 126.024 55.29 126.177 55.29C126.337 55.29 126.457 55.2533 126.537 55.18C126.624 55.1 126.681 54.99 126.707 54.85C126.741 54.7033 126.757 54.5333 126.757 54.34V53.99H127.797V54.21C127.797 54.79 127.674 55.2467 127.427 55.58C127.181 55.9133 126.761 56.08 126.167 56.08ZM125.527 52.55H126.757V52.03C126.757 51.79 126.744 51.59 126.717 51.43C126.691 51.2633 126.634 51.14 126.547 51.06C126.467 50.9733 126.337 50.93 126.157 50.93C125.984 50.93 125.851 50.97 125.757 51.05C125.671 51.13 125.611 51.2667 125.577 51.46C125.544 51.6467 125.527 51.9067 125.527 52.24V52.55ZM128.876 56V47.9H129.946V56H128.876ZM132.651 56.08C132.225 56.08 131.888 55.9933 131.641 55.82C131.395 55.6467 131.218 55.4 131.111 55.08C131.011 54.76 130.961 54.3833 130.961 53.95V52.27C130.961 51.8367 131.011 51.46 131.111 51.14C131.218 50.82 131.395 50.5733 131.641 50.4C131.888 50.2267 132.225 50.14 132.651 50.14C133.078 50.14 133.411 50.2267 133.651 50.4C133.898 50.5733 134.071 50.82 134.171 51.14C134.278 51.46 134.331 51.8367 134.331 52.27V53.95C134.331 54.3833 134.278 54.76 134.171 55.08C134.071 55.4 133.898 55.6467 133.651 55.82C133.411 55.9933 133.078 56.08 132.651 56.08ZM132.651 55.29C132.858 55.29 133.001 55.23 133.081 55.11C133.168 54.99 133.218 54.8333 133.231 54.64C133.251 54.44 133.261 54.2333 133.261 54.02V52.21C133.261 51.99 133.251 51.7833 133.231 51.59C133.218 51.3967 133.168 51.24 133.081 51.12C133.001 50.9933 132.858 50.93 132.651 50.93C132.445 50.93 132.298 50.9933 132.211 51.12C132.125 51.24 132.071 51.3967 132.051 51.59C132.038 51.7833 132.031 51.99 132.031 52.21V54.02C132.031 54.2333 132.038 54.44 132.051 54.64C132.071 54.8333 132.125 54.99 132.211 55.11C132.298 55.23 132.445 55.29 132.651 55.29ZM135.31 57.9V50.22H136.38V50.68C136.506 50.5333 136.66 50.4067 136.84 50.3C137.02 50.1933 137.233 50.14 137.48 50.14C137.78 50.14 138.016 50.22 138.19 50.38C138.37 50.5333 138.503 50.73 138.59 50.97C138.676 51.2033 138.733 51.4433 138.76 51.69C138.786 51.93 138.8 52.1367 138.8 52.31V53.71C138.8 54.1167 138.76 54.5033 138.68 54.87C138.6 55.23 138.453 55.5233 138.24 55.75C138.033 55.97 137.74 56.08 137.36 56.08C137.153 56.08 136.97 56.03 136.81 55.93C136.65 55.8233 136.506 55.7033 136.38 55.57V57.9H135.31ZM137.15 55.24C137.336 55.24 137.47 55.1733 137.55 55.04C137.63 54.9 137.68 54.7133 137.7 54.48C137.72 54.2467 137.73 53.99 137.73 53.71V52.31C137.73 52.07 137.716 51.85 137.69 51.65C137.663 51.4433 137.606 51.28 137.52 51.16C137.433 51.04 137.296 50.98 137.11 50.98C136.97 50.98 136.836 51.01 136.71 51.07C136.583 51.13 136.473 51.2 136.38 51.28V54.98C136.48 55.0533 136.593 55.1167 136.72 55.17C136.846 55.2167 136.99 55.24 137.15 55.24ZM139.772 56V50.22H140.762V50.77C140.956 50.55 141.169 50.3867 141.402 50.28C141.636 50.1733 141.876 50.12 142.122 50.12C142.336 50.12 142.526 50.1733 142.692 50.28C142.866 50.3867 142.989 50.5767 143.062 50.85C143.269 50.5967 143.492 50.4133 143.732 50.3C143.979 50.18 144.236 50.12 144.502 50.12C144.689 50.12 144.859 50.1667 145.012 50.26C145.166 50.3467 145.289 50.49 145.382 50.69C145.476 50.8833 145.522 51.14 145.522 51.46V56H144.542V51.53C144.542 51.25 144.496 51.0633 144.402 50.97C144.316 50.87 144.196 50.82 144.042 50.82C143.896 50.82 143.742 50.8633 143.582 50.95C143.422 51.03 143.276 51.1433 143.142 51.29C143.142 51.3167 143.142 51.3433 143.142 51.37C143.142 51.3967 143.142 51.4267 143.142 51.46V56H142.162V51.53C142.162 51.25 142.116 51.0633 142.022 50.97C141.936 50.87 141.816 50.82 141.662 50.82C141.516 50.82 141.362 50.8633 141.202 50.95C141.049 51.03 140.902 51.1433 140.762 51.29V56H139.772ZM148.169 56.08C147.716 56.08 147.366 55.9933 147.119 55.82C146.873 55.64 146.699 55.38 146.599 55.04C146.506 54.6933 146.459 54.27 146.459 53.77V52.45C146.459 51.9367 146.509 51.51 146.609 51.17C146.709 50.83 146.883 50.5733 147.129 50.4C147.383 50.2267 147.729 50.14 148.169 50.14C148.656 50.14 149.013 50.24 149.239 50.44C149.473 50.64 149.626 50.93 149.699 51.31C149.773 51.6833 149.809 52.1333 149.809 52.66V53.13H147.529V54.29C147.529 54.5233 147.549 54.7133 147.589 54.86C147.636 55.0067 147.706 55.1167 147.799 55.19C147.899 55.2567 148.026 55.29 148.179 55.29C148.339 55.29 148.459 55.2533 148.539 55.18C148.626 55.1 148.683 54.99 148.709 54.85C148.743 54.7033 148.759 54.5333 148.759 54.34V53.99H149.799V54.21C149.799 54.79 149.676 55.2467 149.429 55.58C149.183 55.9133 148.763 56.08 148.169 56.08ZM147.529 52.55H148.759V52.03C148.759 51.79 148.746 51.59 148.719 51.43C148.693 51.2633 148.636 51.14 148.549 51.06C148.469 50.9733 148.339 50.93 148.159 50.93C147.986 50.93 147.853 50.97 147.759 51.05C147.673 51.13 147.613 51.2667 147.579 51.46C147.546 51.6467 147.529 51.9067 147.529 52.24V52.55ZM150.778 56V50.22H151.848V50.79C152.042 50.61 152.255 50.4567 152.488 50.33C152.722 50.2033 152.978 50.14 153.258 50.14C153.492 50.14 153.668 50.2 153.788 50.32C153.915 50.44 154.002 50.59 154.048 50.77C154.102 50.95 154.128 51.1333 154.128 51.32V56H153.058V51.63C153.058 51.4233 153.028 51.2633 152.968 51.15C152.908 51.0367 152.785 50.98 152.598 50.98C152.478 50.98 152.352 51.0167 152.218 51.09C152.092 51.1567 151.968 51.24 151.848 51.34V56H150.778ZM156.713 56.08C156.413 56.08 156.169 56.0233 155.983 55.91C155.803 55.7967 155.669 55.6367 155.583 55.43C155.503 55.2233 155.463 54.98 155.463 54.7V50.93H154.853V50.22H155.463V48.53H156.533V50.22H157.463V50.93H156.533V54.63C156.533 54.8567 156.569 55.02 156.643 55.12C156.716 55.2133 156.856 55.26 157.063 55.26C157.116 55.26 157.176 55.2567 157.243 55.25C157.316 55.2433 157.386 55.2367 157.453 55.23V56.02C157.319 56.04 157.196 56.0533 157.083 56.06C156.969 56.0733 156.846 56.08 156.713 56.08ZM158.199 56V54.81H159.269V56H158.199ZM160.084 56V54.81H161.154V56H160.084ZM161.969 56V54.81H163.039V56H161.969Z"></path>
</svg>
