<svg xmlns="http://www.w3.org/2000/svg" fill="none" viewBox="0 0 214 84" height="84" width="214">
<mask fill="white" id="path-1-inside-1_1433_41">
<path d="M0 0H214V84H0V0Z"></path>
</mask>
<path fill="#0D0E12" d="M0 0H214V84H0V0Z"></path>
<path mask="url(#path-1-inside-1_1433_41)" fill="white" d="M0 0V-1H-1V0H0ZM0 84H-1V85H0V84ZM0 1H214V-1H0V1ZM214 83H0V85H214V83ZM1 84V0H-1V84H1Z"></path>
<path fill="#05FF00" d="M18.016 38L16.264 28.28H18.1L19.144 34.88L20.116 28.28H22.06L20.284 38H18.016ZM23.0484 38V28.28H25.1964V38H23.0484ZM29.4298 38.144C28.6938 38.144 28.1098 38.012 27.6778 37.748C27.2538 37.476 26.9538 37.1 26.7778 36.62C26.6018 36.132 26.5138 35.56 26.5138 34.904V31.4C26.5138 30.728 26.6018 30.152 26.7778 29.672C26.9538 29.184 27.2538 28.808 27.6778 28.544C28.1098 28.28 28.6938 28.148 29.4298 28.148C30.1498 28.148 30.7098 28.268 31.1098 28.508C31.5178 28.74 31.8058 29.068 31.9738 29.492C32.1418 29.916 32.2258 30.404 32.2258 30.956V31.796H30.1258V30.824C30.1258 30.632 30.1138 30.448 30.0898 30.272C30.0738 30.096 30.0178 29.952 29.9218 29.84C29.8258 29.72 29.6618 29.66 29.4298 29.66C29.2058 29.66 29.0378 29.72 28.9258 29.84C28.8218 29.96 28.7538 30.112 28.7218 30.296C28.6978 30.472 28.6858 30.66 28.6858 30.86V35.432C28.6858 35.648 28.7018 35.848 28.7338 36.032C28.7738 36.208 28.8458 36.352 28.9498 36.464C29.0618 36.568 29.2218 36.62 29.4298 36.62C29.6538 36.62 29.8138 36.564 29.9098 36.452C30.0058 36.332 30.0658 36.18 30.0898 35.996C30.1138 35.812 30.1258 35.624 30.1258 35.432V34.412H32.2258V35.252C32.2258 35.804 32.1418 36.3 31.9738 36.74C31.8138 37.172 31.5298 37.516 31.1218 37.772C30.7218 38.02 30.1578 38.144 29.4298 38.144ZM34.2835 38V29.876H32.8195V28.28H37.8955V29.876H36.4435V38H34.2835ZM41.4415 38.144C40.7135 38.144 40.1375 38.016 39.7135 37.76C39.2895 37.504 38.9855 37.136 38.8015 36.656C38.6175 36.176 38.5255 35.604 38.5255 34.94V31.328C38.5255 30.656 38.6175 30.084 38.8015 29.612C38.9855 29.14 39.2895 28.78 39.7135 28.532C40.1375 28.276 40.7135 28.148 41.4415 28.148C42.1775 28.148 42.7575 28.276 43.1815 28.532C43.6135 28.78 43.9215 29.14 44.1055 29.612C44.2895 30.084 44.3815 30.656 44.3815 31.328V34.94C44.3815 35.604 44.2895 36.176 44.1055 36.656C43.9215 37.136 43.6135 37.504 43.1815 37.76C42.7575 38.016 42.1775 38.144 41.4415 38.144ZM41.4415 36.62C41.6655 36.62 41.8295 36.564 41.9335 36.452C42.0375 36.34 42.1055 36.196 42.1375 36.02C42.1695 35.844 42.1855 35.664 42.1855 35.48V30.8C42.1855 30.608 42.1695 30.428 42.1375 30.26C42.1055 30.084 42.0375 29.94 41.9335 29.828C41.8295 29.716 41.6655 29.66 41.4415 29.66C41.2335 29.66 41.0775 29.716 40.9735 29.828C40.8695 29.94 40.8015 30.084 40.7695 30.26C40.7375 30.428 40.7215 30.608 40.7215 30.8V35.48C40.7215 35.664 40.7335 35.844 40.7575 36.02C40.7895 36.196 40.8535 36.34 40.9495 36.452C41.0535 36.564 41.2175 36.62 41.4415 36.62ZM45.6888 38V28.28H48.3648C49.0208 28.28 49.5888 28.352 50.0688 28.496C50.5488 28.64 50.9208 28.9 51.1848 29.276C51.4568 29.644 51.5928 30.168 51.5928 30.848C51.5928 31.248 51.5608 31.604 51.4968 31.916C51.4328 32.228 51.3128 32.5 51.1367 32.732C50.9688 32.956 50.7248 33.144 50.4048 33.296L51.7368 38H49.5168L48.4488 33.644H47.8368V38H45.6888ZM47.8368 32.408H48.4368C48.7408 32.408 48.9768 32.356 49.1448 32.252C49.3128 32.14 49.4288 31.984 49.4928 31.784C49.5648 31.576 49.6008 31.328 49.6008 31.04C49.6008 30.624 49.5248 30.3 49.3728 30.068C49.2208 29.836 48.9408 29.72 48.5328 29.72H47.8368V32.408ZM53.8854 38V34.028L52.0374 28.28H54.0654L54.9894 31.352L55.8174 28.28H57.7614L55.9494 34.028V38H53.8854Z"></path>
<path fill="white" d="M17.87 56V53.14L16.12 47.9H17.17L18.41 51.81L19.63 47.9H20.69L18.95 53.14V56H17.87ZM22.7491 56.08C22.3225 56.08 21.9858 55.9933 21.7391 55.82C21.4925 55.6467 21.3158 55.4 21.2091 55.08C21.1091 54.76 21.0591 54.3833 21.0591 53.95V52.27C21.0591 51.8367 21.1091 51.46 21.2091 51.14C21.3158 50.82 21.4925 50.5733 21.7391 50.4C21.9858 50.2267 22.3225 50.14 22.7491 50.14C23.1758 50.14 23.5091 50.2267 23.7491 50.4C23.9958 50.5733 24.1691 50.82 24.2691 51.14C24.3758 51.46 24.4291 51.8367 24.4291 52.27V53.95C24.4291 54.3833 24.3758 54.76 24.2691 55.08C24.1691 55.4 23.9958 55.6467 23.7491 55.82C23.5091 55.9933 23.1758 56.08 22.7491 56.08ZM22.7491 55.29C22.9558 55.29 23.0991 55.23 23.1791 55.11C23.2658 54.99 23.3158 54.8333 23.3291 54.64C23.3491 54.44 23.3591 54.2333 23.3591 54.02V52.21C23.3591 51.99 23.3491 51.7833 23.3291 51.59C23.3158 51.3967 23.2658 51.24 23.1791 51.12C23.0991 50.9933 22.9558 50.93 22.7491 50.93C22.5425 50.93 22.3958 50.9933 22.3091 51.12C22.2225 51.24 22.1691 51.3967 22.1491 51.59C22.1358 51.7833 22.1291 51.99 22.1291 52.21V54.02C22.1291 54.2333 22.1358 54.44 22.1491 54.64C22.1691 54.8333 22.2225 54.99 22.3091 55.11C22.3958 55.23 22.5425 55.29 22.7491 55.29ZM26.2372 56.08C26.0105 56.08 25.8339 56.02 25.7072 55.9C25.5805 55.78 25.4905 55.63 25.4372 55.45C25.3905 55.27 25.3672 55.0867 25.3672 54.9V50.22H26.4372V54.58C26.4372 54.7867 26.4672 54.95 26.5272 55.07C26.5872 55.1833 26.7105 55.24 26.8972 55.24C27.0172 55.24 27.1405 55.2067 27.2672 55.14C27.4005 55.0667 27.5272 54.98 27.6472 54.88V50.22H28.7172V56H27.6472V55.43C27.4605 55.61 27.2472 55.7633 27.0072 55.89C26.7739 56.0167 26.5172 56.08 26.2372 56.08ZM33.6766 56.08C33.2033 56.08 32.8433 55.9867 32.5966 55.8C32.3566 55.6067 32.1933 55.3367 32.1066 54.99C32.0266 54.6433 31.9866 54.24 31.9866 53.78V52.45C31.9866 51.9633 32.03 51.55 32.1166 51.21C32.2033 50.8633 32.3666 50.6 32.6066 50.42C32.8533 50.2333 33.21 50.14 33.6766 50.14C34.0966 50.14 34.42 50.21 34.6466 50.35C34.88 50.4833 35.04 50.6867 35.1266 50.96C35.2133 51.2267 35.2566 51.56 35.2566 51.96V52.3H34.2866V51.95C34.2866 51.6967 34.27 51.4967 34.2366 51.35C34.2033 51.2033 34.1433 51.0967 34.0566 51.03C33.97 50.9633 33.8466 50.93 33.6866 50.93C33.5133 50.93 33.38 50.97 33.2866 51.05C33.1933 51.13 33.13 51.2667 33.0966 51.46C33.07 51.6467 33.0566 51.9033 33.0566 52.23V54.05C33.0566 54.5433 33.1033 54.8733 33.1966 55.04C33.29 55.2067 33.4566 55.29 33.6966 55.29C33.8766 55.29 34.0066 55.25 34.0866 55.17C34.1733 55.0833 34.2266 54.9633 34.2466 54.81C34.2733 54.6567 34.2866 54.4833 34.2866 54.29V53.82H35.2566V54.22C35.2566 54.6067 35.21 54.94 35.1166 55.22C35.03 55.5 34.87 55.7133 34.6366 55.86C34.41 56.0067 34.09 56.08 33.6766 56.08ZM36.238 56V47.9H37.308V50.82C37.5013 50.6333 37.718 50.4733 37.958 50.34C38.198 50.2067 38.4646 50.14 38.758 50.14C38.9846 50.14 39.158 50.2 39.278 50.32C39.4046 50.44 39.4913 50.59 39.538 50.77C39.5913 50.95 39.618 51.1333 39.618 51.32V56H38.548V51.63C38.548 51.4233 38.518 51.2633 38.458 51.15C38.398 51.0367 38.2746 50.98 38.088 50.98C37.9613 50.98 37.828 51.0167 37.688 51.09C37.5546 51.1633 37.428 51.2533 37.308 51.36V56H36.238ZM42.2611 56.08C41.8078 56.08 41.4578 55.9933 41.2111 55.82C40.9644 55.64 40.7911 55.38 40.6911 55.04C40.5978 54.6933 40.5511 54.27 40.5511 53.77V52.45C40.5511 51.9367 40.6011 51.51 40.7011 51.17C40.8011 50.83 40.9744 50.5733 41.2211 50.4C41.4744 50.2267 41.8211 50.14 42.2611 50.14C42.7478 50.14 43.1044 50.24 43.3311 50.44C43.5644 50.64 43.7178 50.93 43.7911 51.31C43.8644 51.6833 43.9011 52.1333 43.9011 52.66V53.13H41.6211V54.29C41.6211 54.5233 41.6411 54.7133 41.6811 54.86C41.7278 55.0067 41.7978 55.1167 41.8911 55.19C41.9911 55.2567 42.1178 55.29 42.2711 55.29C42.4311 55.29 42.5511 55.2533 42.6311 55.18C42.7178 55.1 42.7744 54.99 42.8011 54.85C42.8344 54.7033 42.8511 54.5333 42.8511 54.34V53.99H43.8911V54.21C43.8911 54.79 43.7678 55.2467 43.5211 55.58C43.2744 55.9133 42.8544 56.08 42.2611 56.08ZM41.6211 52.55H42.8511V52.03C42.8511 51.79 42.8378 51.59 42.8111 51.43C42.7844 51.2633 42.7278 51.14 42.6411 51.06C42.5611 50.9733 42.4311 50.93 42.2511 50.93C42.0778 50.93 41.9444 50.97 41.8511 51.05C41.7644 51.13 41.7044 51.2667 41.6711 51.46C41.6378 51.6467 41.6211 51.9067 41.6211 52.24V52.55ZM46.4501 56.08C45.9767 56.08 45.6167 55.9867 45.3701 55.8C45.1301 55.6067 44.9667 55.3367 44.8801 54.99C44.8001 54.6433 44.7601 54.24 44.7601 53.78V52.45C44.7601 51.9633 44.8034 51.55 44.8901 51.21C44.9767 50.8633 45.1401 50.6 45.3801 50.42C45.6267 50.2333 45.9834 50.14 46.4501 50.14C46.8701 50.14 47.1934 50.21 47.4201 50.35C47.6534 50.4833 47.8134 50.6867 47.9001 50.96C47.9867 51.2267 48.0301 51.56 48.0301 51.96V52.3H47.0601V51.95C47.0601 51.6967 47.0434 51.4967 47.0101 51.35C46.9767 51.2033 46.9167 51.0967 46.8301 51.03C46.7434 50.9633 46.6201 50.93 46.4601 50.93C46.2867 50.93 46.1534 50.97 46.0601 51.05C45.9667 51.13 45.9034 51.2667 45.8701 51.46C45.8434 51.6467 45.8301 51.9033 45.8301 52.23V54.05C45.8301 54.5433 45.8767 54.8733 45.9701 55.04C46.0634 55.2067 46.2301 55.29 46.4701 55.29C46.6501 55.29 46.7801 55.25 46.8601 55.17C46.9467 55.0833 47.0001 54.9633 47.0201 54.81C47.0467 54.6567 47.0601 54.4833 47.0601 54.29V53.82H48.0301V54.22C48.0301 54.6067 47.9834 54.94 47.8901 55.22C47.8034 55.5 47.6434 55.7133 47.4101 55.86C47.1834 56.0067 46.8634 56.08 46.4501 56.08ZM49.0014 55.99V47.89H50.0714V52.72L51.6314 50.22H52.7514L51.3914 52.48L52.7114 56H51.6414L50.5614 53.04L50.0714 53.78V55.99H49.0014ZM53.2685 56V50.22H54.2585V50.77C54.4518 50.55 54.6652 50.3867 54.8985 50.28C55.1318 50.1733 55.3718 50.12 55.6185 50.12C55.8318 50.12 56.0218 50.1733 56.1885 50.28C56.3618 50.3867 56.4852 50.5767 56.5585 50.85C56.7652 50.5967 56.9885 50.4133 57.2285 50.3C57.4752 50.18 57.7318 50.12 57.9985 50.12C58.1852 50.12 58.3552 50.1667 58.5085 50.26C58.6618 50.3467 58.7852 50.49 58.8785 50.69C58.9718 50.8833 59.0185 51.14 59.0185 51.46V56H58.0385V51.53C58.0385 51.25 57.9918 51.0633 57.8985 50.97C57.8118 50.87 57.6918 50.82 57.5385 50.82C57.3918 50.82 57.2385 50.8633 57.0785 50.95C56.9185 51.03 56.7718 51.1433 56.6385 51.29C56.6385 51.3167 56.6385 51.3433 56.6385 51.37C56.6385 51.3967 56.6385 51.4267 56.6385 51.46V56H55.6585V51.53C55.6585 51.25 55.6118 51.0633 55.5185 50.97C55.4318 50.87 55.3118 50.82 55.1585 50.82C55.0118 50.82 54.8585 50.8633 54.6985 50.95C54.5452 51.03 54.3985 51.1433 54.2585 51.29V56H53.2685ZM61.1054 56.08C60.8787 56.08 60.6787 56.0167 60.5054 55.89C60.3321 55.7567 60.1954 55.59 60.0954 55.39C59.9954 55.1833 59.9454 54.9667 59.9454 54.74C59.9454 54.38 60.0054 54.0767 60.1254 53.83C60.2454 53.5833 60.4087 53.3767 60.6154 53.21C60.8287 53.0367 61.0721 52.8867 61.3454 52.76C61.6254 52.6333 61.9187 52.51 62.2254 52.39V51.98C62.2254 51.7467 62.2121 51.5533 62.1854 51.4C62.1587 51.2467 62.1021 51.1333 62.0154 51.06C61.9354 50.98 61.8121 50.94 61.6454 50.94C61.4987 50.94 61.3787 50.9733 61.2854 51.04C61.1987 51.1067 61.1354 51.2033 61.0954 51.33C61.0554 51.45 61.0354 51.5933 61.0354 51.76V52.05L59.9754 52.01C59.9887 51.37 60.1354 50.9 60.4154 50.6C60.6954 50.2933 61.1287 50.14 61.7154 50.14C62.2887 50.14 62.6954 50.2967 62.9354 50.61C63.1754 50.9233 63.2954 51.3767 63.2954 51.97V54.61C63.2954 54.79 63.2987 54.9633 63.3054 55.13C63.3187 55.2967 63.3321 55.4533 63.3454 55.6C63.3654 55.74 63.3821 55.8733 63.3954 56H62.4154C62.3954 55.8933 62.3687 55.76 62.3354 55.6C62.3087 55.4333 62.2887 55.2833 62.2754 55.15C62.2087 55.3767 62.0787 55.59 61.8854 55.79C61.6987 55.9833 61.4387 56.08 61.1054 56.08ZM61.5254 55.16C61.6321 55.16 61.7321 55.13 61.8254 55.07C61.9187 55.01 62.0021 54.9433 62.0754 54.87C62.1487 54.79 62.1987 54.7267 62.2254 54.68V53.04C62.0587 53.1333 61.9021 53.2267 61.7554 53.32C61.6087 53.4133 61.4787 53.5133 61.3654 53.62C61.2587 53.72 61.1721 53.8367 61.1054 53.97C61.0454 54.0967 61.0154 54.2433 61.0154 54.41C61.0154 54.6433 61.0587 54.8267 61.1454 54.96C61.2321 55.0933 61.3587 55.16 61.5254 55.16ZM65.7851 56.08C65.4851 56.08 65.2417 56.0233 65.0551 55.91C64.8751 55.7967 64.7417 55.6367 64.6551 55.43C64.5751 55.2233 64.5351 54.98 64.5351 54.7V50.93H63.9251V50.22H64.5351V48.53H65.6051V50.22H66.5351V50.93H65.6051V54.63C65.6051 54.8567 65.6417 55.02 65.7151 55.12C65.7884 55.2133 65.9284 55.26 66.1351 55.26C66.1884 55.26 66.2484 55.2567 66.3151 55.25C66.3884 55.2433 66.4584 55.2367 66.5251 55.23V56.02C66.3917 56.04 66.2684 56.0533 66.1551 56.06C66.0417 56.0733 65.9184 56.08 65.7851 56.08ZM68.9213 56.08C68.4679 56.08 68.1179 55.9933 67.8713 55.82C67.6246 55.64 67.4513 55.38 67.3513 55.04C67.2579 54.6933 67.2113 54.27 67.2113 53.77V52.45C67.2113 51.9367 67.2613 51.51 67.3613 51.17C67.4613 50.83 67.6346 50.5733 67.8813 50.4C68.1346 50.2267 68.4813 50.14 68.9213 50.14C69.4079 50.14 69.7646 50.24 69.9913 50.44C70.2246 50.64 70.3779 50.93 70.4513 51.31C70.5246 51.6833 70.5613 52.1333 70.5613 52.66V53.13H68.2813V54.29C68.2813 54.5233 68.3013 54.7133 68.3413 54.86C68.3879 55.0067 68.4579 55.1167 68.5513 55.19C68.6513 55.2567 68.7779 55.29 68.9313 55.29C69.0913 55.29 69.2113 55.2533 69.2913 55.18C69.3779 55.1 69.4346 54.99 69.4613 54.85C69.4946 54.7033 69.5113 54.5333 69.5113 54.34V53.99H70.5513V54.21C70.5513 54.79 70.4279 55.2467 70.1813 55.58C69.9346 55.9133 69.5146 56.08 68.9213 56.08ZM68.2813 52.55H69.5113V52.03C69.5113 51.79 69.4979 51.59 69.4713 51.43C69.4446 51.2633 69.3879 51.14 69.3013 51.06C69.2213 50.9733 69.0913 50.93 68.9113 50.93C68.7379 50.93 68.6046 50.97 68.5113 51.05C68.4246 51.13 68.3646 51.2667 68.3313 51.46C68.2979 51.6467 68.2813 51.9067 68.2813 52.24V52.55ZM72.8702 56.08C72.3836 56.08 72.0202 55.9033 71.7802 55.55C71.5402 55.19 71.4202 54.5833 71.4202 53.73V52.61C71.4202 52.17 71.4569 51.7633 71.5302 51.39C71.6036 51.01 71.7402 50.7067 71.9402 50.48C72.1469 50.2533 72.4469 50.14 72.8402 50.14C73.0336 50.14 73.2102 50.1833 73.3702 50.27C73.5302 50.3567 73.6736 50.4633 73.8002 50.59V47.9H74.8702V56H73.8002V55.63C73.6736 55.7633 73.5336 55.8733 73.3802 55.96C73.2336 56.04 73.0636 56.08 72.8702 56.08ZM73.1402 55.24C73.2402 55.24 73.3469 55.2233 73.4602 55.19C73.5736 55.15 73.6869 55.0933 73.8002 55.02V51.23C73.7069 51.1633 73.6036 51.1067 73.4902 51.06C73.3769 51.0067 73.2536 50.98 73.1202 50.98C72.8736 50.98 72.7069 51.1 72.6202 51.34C72.5336 51.5733 72.4902 51.8567 72.4902 52.19V53.82C72.4902 54.0867 72.5036 54.33 72.5302 54.55C72.5636 54.7633 72.6269 54.9333 72.7202 55.06C72.8136 55.18 72.9536 55.24 73.1402 55.24Z"></path>
</svg>
