<svg xmlns="http://www.w3.org/2000/svg" fill="none" viewBox="0 0 13 18" height="18" width="13">
<rect fill-opacity="0.01" fill="#0D0E12" height="18" width="13"></rect>
<path fill="white" d="M0.492 14V12.584L2.82 9.008C2.996 8.744 3.16 8.488 3.312 8.24C3.472 7.992 3.6 7.74 3.696 7.484C3.8 7.228 3.852 6.96 3.852 6.68C3.852 6.4 3.796 6.192 3.684 6.056C3.572 5.92 3.42 5.852 3.228 5.852C3.012 5.852 2.844 5.912 2.724 6.032C2.604 6.152 2.52 6.312 2.472 6.512C2.432 6.712 2.412 6.936 2.412 7.184V7.664H0.468V7.148C0.468 6.572 0.56 6.06 0.744 5.612C0.928 5.156 1.22 4.8 1.62 4.544C2.02 4.28 2.544 4.148 3.192 4.148C4.064 4.148 4.72 4.376 5.16 4.832C5.608 5.28 5.832 5.908 5.832 6.716C5.832 7.108 5.768 7.472 5.64 7.808C5.52 8.144 5.356 8.472 5.148 8.792C4.948 9.104 4.732 9.432 4.5 9.776L2.724 12.428H5.568V14H0.492ZM7.76006 14V6.26C7.67206 6.308 7.57206 6.356 7.46006 6.404C7.34806 6.452 7.22806 6.504 7.10006 6.56C6.98006 6.608 6.86006 6.656 6.74006 6.704C6.62806 6.752 6.52406 6.8 6.42806 6.848V5.36C6.51606 5.312 6.64006 5.248 6.80006 5.168C6.96006 5.08 7.13206 4.984 7.31606 4.88C7.50006 4.776 7.67206 4.672 7.83206 4.568C7.99206 4.456 8.11206 4.36 8.19206 4.28H9.76406V14H7.76006Z"></path>
</svg>
