<svg xmlns="http://www.w3.org/2000/svg" fill="none" viewBox="0 0 162 22" height="22" width="162">
<rect fill="#F1F1F1" height="22" width="162"></rect>
<path fill="white" d="M42.1095 15.12C41.4961 15.12 41.0095 15.01 40.6495 14.79C40.2961 14.5633 40.0461 14.25 39.8995 13.85C39.7528 13.4433 39.6795 12.9667 39.6795 12.42V9.5C39.6795 8.94 39.7528 8.46 39.8995 8.06C40.0461 7.65333 40.2961 7.34 40.6495 7.12C41.0095 6.9 41.4961 6.79 42.1095 6.79C42.7095 6.79 43.1761 6.89 43.5095 7.09C43.8495 7.28333 44.0895 7.55667 44.2295 7.91C44.3695 8.26333 44.4395 8.67 44.4395 9.13V9.83H42.6895V9.02C42.6895 8.86 42.6795 8.70667 42.6595 8.56C42.6461 8.41333 42.5995 8.29333 42.5195 8.2C42.4395 8.1 42.3028 8.05 42.1095 8.05C41.9228 8.05 41.7828 8.1 41.6895 8.2C41.6028 8.3 41.5461 8.42667 41.5195 8.58C41.4995 8.72667 41.4895 8.88333 41.4895 9.05V12.86C41.4895 13.04 41.5028 13.2067 41.5295 13.36C41.5628 13.5067 41.6228 13.6267 41.7095 13.72C41.8028 13.8067 41.9361 13.85 42.1095 13.85C42.2961 13.85 42.4295 13.8033 42.5095 13.71C42.5895 13.61 42.6395 13.4833 42.6595 13.33C42.6795 13.1767 42.6895 13.02 42.6895 12.86V12.01H44.4395V12.71C44.4395 13.17 44.3695 13.5833 44.2295 13.95C44.0961 14.31 43.8595 14.5967 43.5195 14.81C43.1861 15.0167 42.7161 15.12 42.1095 15.12ZM45.3942 15L45.5342 6.9H47.4542L48.3442 11.61L49.3042 6.9H51.1542L51.2942 15H50.0242L49.8742 9.61L48.9342 15H47.8042L46.8042 9.57L46.6842 15H45.3942ZM54.7852 15.12C54.1786 15.12 53.6986 15.0133 53.3452 14.8C52.9919 14.5867 52.7386 14.28 52.5852 13.88C52.4319 13.48 52.3552 13.0033 52.3552 12.45V9.44C52.3552 8.88 52.4319 8.40333 52.5852 8.01C52.7386 7.61667 52.9919 7.31667 53.3452 7.11C53.6986 6.89667 54.1786 6.79 54.7852 6.79C55.3986 6.79 55.8819 6.89667 56.2352 7.11C56.5952 7.31667 56.8519 7.61667 57.0052 8.01C57.1586 8.40333 57.2352 8.88 57.2352 9.44V12.45C57.2352 13.0033 57.1586 13.48 57.0052 13.88C56.8519 14.28 56.5952 14.5867 56.2352 14.8C55.8819 15.0133 55.3986 15.12 54.7852 15.12ZM54.7852 13.85C54.9719 13.85 55.1086 13.8033 55.1952 13.71C55.2819 13.6167 55.3386 13.4967 55.3652 13.35C55.3919 13.2033 55.4052 13.0533 55.4052 12.9V9C55.4052 8.84 55.3919 8.69 55.3652 8.55C55.3386 8.40333 55.2819 8.28333 55.1952 8.19C55.1086 8.09667 54.9719 8.05 54.7852 8.05C54.6119 8.05 54.4819 8.09667 54.3952 8.19C54.3086 8.28333 54.2519 8.40333 54.2252 8.55C54.1986 8.69 54.1852 8.84 54.1852 9V12.9C54.1852 13.0533 54.1952 13.2033 54.2152 13.35C54.2419 13.4967 54.2952 13.6167 54.3752 13.71C54.4619 13.8033 54.5986 13.85 54.7852 13.85ZM59.0546 15V8.23H57.8346V6.9H62.0646V8.23H60.8546V15H59.0546ZM62.7777 15V6.9H65.4977C65.9844 6.9 66.3844 6.99333 66.6977 7.18C67.0111 7.36 67.2444 7.62667 67.3977 7.98C67.5511 8.32667 67.6277 8.75 67.6277 9.25C67.6277 9.87667 67.5244 10.3567 67.3177 10.69C67.1111 11.0167 66.8311 11.2433 66.4777 11.37C66.1244 11.4967 65.7277 11.56 65.2877 11.56H64.5677V15H62.7777ZM64.5677 10.31H65.1677C65.3877 10.31 65.5544 10.27 65.6677 10.19C65.7811 10.11 65.8544 9.99 65.8877 9.83C65.9277 9.67 65.9477 9.46667 65.9477 9.22C65.9477 9.01333 65.9311 8.83333 65.8977 8.68C65.8711 8.52 65.8011 8.39333 65.6877 8.3C65.5744 8.20667 65.3977 8.16 65.1577 8.16H64.5677V10.31ZM68.4906 15V6.9H72.1306V8.12H70.2806V10.13H71.6906V11.37H70.2806V13.79H72.1506V15H68.4906ZM73.6933 15V8.23H72.4733V6.9H76.7033V8.23H75.4933V15H73.6933ZM77.4464 15V6.9H79.2364V10.32H79.6364C80.1431 10.32 80.5731 10.4033 80.9264 10.57C81.2797 10.7367 81.5497 10.9933 81.7364 11.34C81.9231 11.68 82.0164 12.12 82.0164 12.66C82.0164 13.1533 81.9497 13.5533 81.8164 13.86C81.6897 14.1667 81.5097 14.4033 81.2764 14.57C81.0431 14.7367 80.7697 14.85 80.4564 14.91C80.1497 14.97 79.8197 15 79.4664 15H77.4464ZM79.2364 13.83H79.4764C79.7031 13.83 79.8797 13.7867 80.0064 13.7C80.1397 13.6133 80.2331 13.48 80.2864 13.3C80.3464 13.12 80.3731 12.8933 80.3664 12.62C80.3597 12.32 80.2964 12.07 80.1764 11.87C80.0631 11.6633 79.8231 11.56 79.4564 11.56H79.2364V13.83ZM85.5316 15V6.9H90.3816V15H88.6216V8.18H87.2916V15H85.5316ZM91.1963 15L92.7263 6.9H94.7663L96.2763 15H94.6263L94.3563 13.29H93.1663L92.8863 15H91.1963ZM93.3263 12.22H94.1863L93.7563 9.06L93.3263 12.22ZM97.0941 15V6.9H99.8141C100.301 6.9 100.701 6.99333 101.014 7.18C101.327 7.36 101.561 7.62667 101.714 7.98C101.867 8.32667 101.944 8.75 101.944 9.25C101.944 9.87667 101.841 10.3567 101.634 10.69C101.427 11.0167 101.147 11.2433 100.794 11.37C100.441 11.4967 100.044 11.56 99.6041 11.56H98.8841V15H97.0941ZM98.8841 10.31H99.4841C99.7041 10.31 99.8708 10.27 99.9841 10.19C100.097 10.11 100.171 9.99 100.204 9.83C100.244 9.67 100.264 9.46667 100.264 9.22C100.264 9.01333 100.247 8.83333 100.214 8.68C100.187 8.52 100.117 8.39333 100.004 8.3C99.8908 8.20667 99.7141 8.16 99.4741 8.16H98.8841V10.31ZM103.537 15V8.23H102.317V6.9H106.547V8.23H105.337V15H103.537ZM107.29 15V6.9H108.7V11.54L110.77 6.9H111.93V15H110.49V10.28L108.38 15H107.29ZM118.079 15.12C117.505 15.12 117.055 15.0067 116.729 14.78C116.402 14.5467 116.172 14.2233 116.039 13.81C115.905 13.39 115.839 12.9033 115.839 12.35V11.56H114.959V15H113.189V6.9H114.959V10.24H115.839V9.54C115.839 8.98 115.905 8.49667 116.039 8.09C116.172 7.67667 116.402 7.35667 116.729 7.13C117.055 6.90333 117.505 6.79 118.079 6.79C118.652 6.79 119.102 6.90333 119.429 7.13C119.755 7.35667 119.985 7.67667 120.119 8.09C120.252 8.50333 120.319 8.98667 120.319 9.54V12.35C120.319 12.9033 120.252 13.39 120.119 13.81C119.985 14.2233 119.755 14.5467 119.429 14.78C119.102 15.0067 118.652 15.12 118.079 15.12ZM118.079 13.85C118.259 13.85 118.389 13.8033 118.469 13.71C118.549 13.6167 118.599 13.4967 118.619 13.35C118.639 13.2033 118.649 13.0533 118.649 12.9V9C118.649 8.84 118.639 8.69 118.619 8.55C118.599 8.40333 118.549 8.28333 118.469 8.19C118.389 8.09667 118.259 8.05 118.079 8.05C117.905 8.05 117.775 8.09667 117.689 8.19C117.609 8.28333 117.559 8.40333 117.539 8.55C117.519 8.69 117.509 8.84 117.509 9V12.9C117.509 13.0533 117.519 13.2033 117.539 13.35C117.559 13.4967 117.609 13.6167 117.689 13.71C117.775 13.8033 117.905 13.85 118.079 13.85Z"></path>
</svg>
