<svg xmlns="http://www.w3.org/2000/svg" fill="none" viewBox="0 0 214 84" height="84" width="214">
<mask fill="white" id="path-1-inside-1_1359_6">
<path d="M0 0H214V84H0V0Z"></path>
</mask>
<path fill="#0D0E12" d="M0 0H214V84H0V0Z"></path>
<path mask="url(#path-1-inside-1_1359_6)" fill="white" d="M0 0V-1H-1V0H0ZM0 84H-1V85H0V84ZM0 1H214V-1H0V1ZM214 83H0V85H214V83ZM1 84V0H-1V84H1Z"></path>
<path fill="#FF0000" d="M16.72 38V28.28H22.54V38H20.428V29.816H18.832V38H16.72ZM23.9856 38V28.28H27.2496C27.8336 28.28 28.3136 28.392 28.6896 28.616C29.0656 28.832 29.3456 29.152 29.5296 29.576C29.7136 29.992 29.8056 30.5 29.8056 31.1C29.8056 31.852 29.6816 32.428 29.4336 32.828C29.1856 33.22 28.8496 33.492 28.4256 33.644C28.0016 33.796 27.5256 33.872 26.9976 33.872H26.1336V38H23.9856ZM26.1336 32.372H26.8536C27.1176 32.372 27.3176 32.324 27.4536 32.228C27.5896 32.132 27.6776 31.988 27.7176 31.796C27.7656 31.604 27.7896 31.36 27.7896 31.064C27.7896 30.816 27.7696 30.6 27.7296 30.416C27.6976 30.224 27.6136 30.072 27.4776 29.96C27.3416 29.848 27.1296 29.792 26.8416 29.792H26.1336V32.372ZM33.6251 38.144C32.8971 38.144 32.3211 38.016 31.8971 37.76C31.4731 37.504 31.1691 37.136 30.9851 36.656C30.8011 36.176 30.7091 35.604 30.7091 34.94V31.328C30.7091 30.656 30.8011 30.084 30.9851 29.612C31.1691 29.14 31.4731 28.78 31.8971 28.532C32.3211 28.276 32.8971 28.148 33.6251 28.148C34.3611 28.148 34.9411 28.276 35.3651 28.532C35.7971 28.78 36.1051 29.14 36.2891 29.612C36.4731 30.084 36.5651 30.656 36.5651 31.328V34.94C36.5651 35.604 36.4731 36.176 36.2891 36.656C36.1051 37.136 35.7971 37.504 35.3651 37.76C34.9411 38.016 34.3611 38.144 33.6251 38.144ZM33.6251 36.62C33.8491 36.62 34.0131 36.564 34.1171 36.452C34.2211 36.34 34.2891 36.196 34.3211 36.02C34.3531 35.844 34.3691 35.664 34.3691 35.48V30.8C34.3691 30.608 34.3531 30.428 34.3211 30.26C34.2891 30.084 34.2211 29.94 34.1171 29.828C34.0131 29.716 33.8491 29.66 33.6251 29.66C33.4171 29.66 33.2611 29.716 33.1571 29.828C33.0531 29.94 32.9851 30.084 32.9531 30.26C32.9211 30.428 32.9051 30.608 32.9051 30.8V35.48C32.9051 35.664 32.9171 35.844 32.9411 36.02C32.9731 36.196 33.0371 36.34 33.1331 36.452C33.2371 36.564 33.4011 36.62 33.6251 36.62ZM37.9083 38V28.28H39.6003V33.848L42.0843 28.28H43.4763V38H41.7483V32.336L39.2163 38H37.9083ZM44.9865 38V28.28H49.4865V29.876H47.1345V38H44.9865ZM50.5052 38V28.28H53.7692C54.3532 28.28 54.8332 28.392 55.2092 28.616C55.5852 28.832 55.8652 29.152 56.0492 29.576C56.2332 29.992 56.3252 30.5 56.3252 31.1C56.3252 31.852 56.2012 32.428 55.9532 32.828C55.7052 33.22 55.3692 33.492 54.9452 33.644C54.5212 33.796 54.0452 33.872 53.5172 33.872H52.6532V38H50.5052ZM52.6532 32.372H53.3732C53.6372 32.372 53.8372 32.324 53.9732 32.228C54.1092 32.132 54.1972 31.988 54.2372 31.796C54.2852 31.604 54.3092 31.36 54.3092 31.064C54.3092 30.816 54.2892 30.6 54.2492 30.416C54.2172 30.224 54.1332 30.072 53.9972 29.96C53.8612 29.848 53.6492 29.792 53.3612 29.792H52.6532V32.372ZM57.3966 38V28.28H59.5446V32.384H60.0246C60.6406 32.384 61.1606 32.484 61.5846 32.684C62.0166 32.884 62.3406 33.192 62.5566 33.608C62.7806 34.016 62.8926 34.544 62.8926 35.192C62.8926 35.784 62.8126 36.264 62.6526 36.632C62.5006 37 62.2846 37.284 62.0046 37.484C61.7246 37.684 61.4006 37.82 61.0326 37.892C60.6646 37.964 60.2646 38 59.8326 38H57.3966ZM59.5446 36.596H59.8446C60.1166 36.596 60.3286 36.544 60.4806 36.44C60.6406 36.336 60.7526 36.176 60.8166 35.96C60.8886 35.744 60.9206 35.472 60.9126 35.144C60.9046 34.784 60.8286 34.484 60.6846 34.244C60.5406 33.996 60.2526 33.872 59.8206 33.872H59.5446V36.596ZM63.7086 38V28.28H65.8566V38H63.7086ZM67.3693 38V28.28H69.3973V36.464H70.5853V28.28H72.6013V36.464H73.7413V28.28H75.7573V38H67.3693Z"></path>
<path fill="white" d="M16.63 56V47.9H18.49C18.8567 47.9 19.1733 47.94 19.44 48.02C19.7133 48.1 19.94 48.2233 20.12 48.39C20.3 48.5567 20.4333 48.77 20.52 49.03C20.6067 49.2833 20.65 49.5833 20.65 49.93C20.65 50.2633 20.6067 50.5533 20.52 50.8C20.44 51.04 20.3133 51.23 20.14 51.37C19.9733 51.51 19.7567 51.6 19.49 51.64C19.8167 51.7133 20.08 51.84 20.28 52.02C20.48 52.1933 20.6267 52.42 20.72 52.7C20.82 52.9733 20.87 53.3033 20.87 53.69C20.87 54.0367 20.83 54.3533 20.75 54.64C20.67 54.9267 20.5433 55.17 20.37 55.37C20.2033 55.57 19.9867 55.7267 19.72 55.84C19.46 55.9467 19.15 56 18.79 56H16.63ZM17.76 55.19H18.52C19.0267 55.19 19.3633 55.0733 19.53 54.84C19.7033 54.6 19.79 54.2167 19.79 53.69C19.79 53.35 19.7433 53.0667 19.65 52.84C19.5633 52.6067 19.42 52.4333 19.22 52.32C19.0267 52.2 18.7633 52.14 18.43 52.14H17.76V55.19ZM17.76 51.28H18.43C18.75 51.28 19 51.2367 19.18 51.15C19.36 51.0567 19.4867 50.91 19.56 50.71C19.6333 50.51 19.67 50.25 19.67 49.93C19.67 49.5567 19.6133 49.2867 19.5 49.12C19.3867 48.9533 19.21 48.85 18.97 48.81C18.73 48.7633 18.4167 48.74 18.03 48.74H17.76V51.28ZM21.7841 56V50.22H22.8541V52.61C22.8675 52.61 22.8841 52.61 22.9041 52.61C22.9308 52.61 22.9541 52.61 22.9741 52.61C22.9941 52.61 23.0108 52.61 23.0241 52.61C23.4175 52.6167 23.7508 52.6467 24.0241 52.7C24.3041 52.7467 24.5308 52.8333 24.7041 52.96C24.8775 53.08 25.0041 53.25 25.0841 53.47C25.1641 53.6833 25.2041 53.96 25.2041 54.3C25.2041 54.6133 25.1641 54.88 25.0841 55.1C25.0041 55.3133 24.8741 55.4867 24.6941 55.62C24.5141 55.7533 24.2775 55.85 23.9841 55.91C23.6908 55.97 23.3341 56 22.9141 56H21.7841ZM22.8541 55.37H22.9141C23.2541 55.37 23.5208 55.34 23.7141 55.28C23.9075 55.22 24.0441 55.1133 24.1241 54.96C24.2041 54.8 24.2441 54.5767 24.2441 54.29C24.2441 54.03 24.2075 53.8267 24.1341 53.68C24.0675 53.5267 23.9408 53.4167 23.7541 53.35C23.5741 53.2767 23.3108 53.24 22.9641 53.24C22.9575 53.24 22.9408 53.24 22.9141 53.24C22.8875 53.24 22.8675 53.24 22.8541 53.24V55.37ZM25.8641 56V50.22H26.9341V56H25.8641ZM31.8798 56.08C31.4064 56.08 31.0464 55.9867 30.7998 55.8C30.5598 55.6067 30.3964 55.3367 30.3098 54.99C30.2298 54.6433 30.1898 54.24 30.1898 53.78V52.45C30.1898 51.9633 30.2331 51.55 30.3198 51.21C30.4064 50.8633 30.5698 50.6 30.8098 50.42C31.0564 50.2333 31.4131 50.14 31.8798 50.14C32.2998 50.14 32.6231 50.21 32.8498 50.35C33.0831 50.4833 33.2431 50.6867 33.3298 50.96C33.4164 51.2267 33.4598 51.56 33.4598 51.96V52.3H32.4898V51.95C32.4898 51.6967 32.4731 51.4967 32.4398 51.35C32.4064 51.2033 32.3464 51.0967 32.2598 51.03C32.1731 50.9633 32.0498 50.93 31.8898 50.93C31.7164 50.93 31.5831 50.97 31.4898 51.05C31.3964 51.13 31.3331 51.2667 31.2998 51.46C31.2731 51.6467 31.2598 51.9033 31.2598 52.23V54.05C31.2598 54.5433 31.3064 54.8733 31.3998 55.04C31.4931 55.2067 31.6598 55.29 31.8998 55.29C32.0798 55.29 32.2098 55.25 32.2898 55.17C32.3764 55.0833 32.4298 54.9633 32.4498 54.81C32.4764 54.6567 32.4898 54.4833 32.4898 54.29V53.82H33.4598V54.22C33.4598 54.6067 33.4131 54.94 33.3198 55.22C33.2331 55.5 33.0731 55.7133 32.8398 55.86C32.6131 56.0067 32.2931 56.08 31.8798 56.08ZM33.8911 57.47V55.29C34.0911 55.1367 34.2744 54.9533 34.4411 54.74C34.6078 54.5267 34.7544 54.2567 34.8811 53.93C35.0078 53.6033 35.1078 53.2 35.1811 52.72C35.2544 52.24 35.2944 51.66 35.3011 50.98L35.3211 50.22H37.9311V55.24H38.6311V57.47H37.8511L37.7611 56H34.7611L34.6711 57.47H33.8911ZM34.9311 55.24H36.9011V50.99H36.1511L36.1311 51.2C36.1244 51.9067 36.0878 52.4967 36.0211 52.97C35.9611 53.4367 35.8744 53.82 35.7611 54.12C35.6544 54.4133 35.5278 54.6467 35.3811 54.82C35.2411 54.9933 35.0911 55.1333 34.9311 55.24ZM40.412 56.08C40.1854 56.08 39.9854 56.0167 39.812 55.89C39.6387 55.7567 39.502 55.59 39.402 55.39C39.302 55.1833 39.252 54.9667 39.252 54.74C39.252 54.38 39.312 54.0767 39.432 53.83C39.552 53.5833 39.7154 53.3767 39.922 53.21C40.1354 53.0367 40.3787 52.8867 40.652 52.76C40.932 52.6333 41.2254 52.51 41.532 52.39V51.98C41.532 51.7467 41.5187 51.5533 41.492 51.4C41.4654 51.2467 41.4087 51.1333 41.322 51.06C41.242 50.98 41.1187 50.94 40.952 50.94C40.8054 50.94 40.6854 50.9733 40.592 51.04C40.5054 51.1067 40.442 51.2033 40.402 51.33C40.362 51.45 40.342 51.5933 40.342 51.76V52.05L39.282 52.01C39.2954 51.37 39.442 50.9 39.722 50.6C40.002 50.2933 40.4354 50.14 41.022 50.14C41.5954 50.14 42.002 50.2967 42.242 50.61C42.482 50.9233 42.602 51.3767 42.602 51.97V54.61C42.602 54.79 42.6054 54.9633 42.612 55.13C42.6254 55.2967 42.6387 55.4533 42.652 55.6C42.672 55.74 42.6887 55.8733 42.702 56H41.722C41.702 55.8933 41.6754 55.76 41.642 55.6C41.6154 55.4333 41.5954 55.2833 41.582 55.15C41.5154 55.3767 41.3854 55.59 41.192 55.79C41.0054 55.9833 40.7454 56.08 40.412 56.08ZM40.832 55.16C40.9387 55.16 41.0387 55.13 41.132 55.07C41.2254 55.01 41.3087 54.9433 41.382 54.87C41.4554 54.79 41.5054 54.7267 41.532 54.68V53.04C41.3654 53.1333 41.2087 53.2267 41.062 53.32C40.9154 53.4133 40.7854 53.5133 40.672 53.62C40.5654 53.72 40.4787 53.8367 40.412 53.97C40.352 54.0967 40.322 54.2433 40.322 54.41C40.322 54.6433 40.3654 54.8267 40.452 54.96C40.5387 55.0933 40.6654 55.16 40.832 55.16ZM43.2598 56.05V55.24C43.4598 55.24 43.6165 55.2 43.7298 55.12C43.8498 55.04 43.9398 54.9067 43.9998 54.72C44.0665 54.5267 44.1165 54.27 44.1498 53.95C44.1832 53.6233 44.2132 53.2167 44.2398 52.73L44.3698 50.22H47.3998V56H46.3298V51.03H45.3098L45.2198 52.73C45.1865 53.39 45.1365 53.9367 45.0698 54.37C45.0098 54.8033 44.9132 55.1433 44.7798 55.39C44.6465 55.63 44.4665 55.8 44.2398 55.9C44.0198 56 43.7332 56.05 43.3798 56.05H43.2598ZM48.4834 56V50.22H49.3834V54.11L51.1234 50.22H51.9634V56H51.0834V52.08L49.3534 56H48.4834ZM54.6337 56.08C54.1603 56.08 53.8003 55.9867 53.5537 55.8C53.3137 55.6067 53.1503 55.3367 53.0637 54.99C52.9837 54.6433 52.9437 54.24 52.9437 53.78V52.45C52.9437 51.9633 52.987 51.55 53.0737 51.21C53.1603 50.8633 53.3237 50.6 53.5637 50.42C53.8103 50.2333 54.167 50.14 54.6337 50.14C55.0537 50.14 55.377 50.21 55.6037 50.35C55.837 50.4833 55.997 50.6867 56.0837 50.96C56.1703 51.2267 56.2137 51.56 56.2137 51.96V52.3H55.2437V51.95C55.2437 51.6967 55.227 51.4967 55.1937 51.35C55.1603 51.2033 55.1003 51.0967 55.0137 51.03C54.927 50.9633 54.8037 50.93 54.6437 50.93C54.4703 50.93 54.337 50.97 54.2437 51.05C54.1503 51.13 54.087 51.2667 54.0537 51.46C54.027 51.6467 54.0137 51.9033 54.0137 52.23V54.05C54.0137 54.5433 54.0603 54.8733 54.1537 55.04C54.247 55.2067 54.4137 55.29 54.6537 55.29C54.8337 55.29 54.9637 55.25 55.0437 55.17C55.1303 55.0833 55.1837 54.9633 55.2037 54.81C55.2303 54.6567 55.2437 54.4833 55.2437 54.29V53.82H56.2137V54.22C56.2137 54.6067 56.167 54.94 56.0737 55.22C55.987 55.5 55.827 55.7133 55.5937 55.86C55.367 56.0067 55.047 56.08 54.6337 56.08ZM57.165 56V50.22H58.235V52.61C58.2483 52.61 58.265 52.61 58.285 52.61C58.3117 52.61 58.335 52.61 58.355 52.61C58.375 52.61 58.3917 52.61 58.405 52.61C58.7983 52.6167 59.1317 52.6467 59.405 52.7C59.685 52.7467 59.9117 52.8333 60.085 52.96C60.2583 53.08 60.385 53.25 60.465 53.47C60.545 53.6833 60.585 53.96 60.585 54.3C60.585 54.6133 60.545 54.88 60.465 55.1C60.385 55.3133 60.255 55.4867 60.075 55.62C59.895 55.7533 59.6583 55.85 59.365 55.91C59.0717 55.97 58.715 56 58.295 56H57.165ZM58.235 55.37H58.295C58.635 55.37 58.9017 55.34 59.095 55.28C59.2883 55.22 59.425 55.1133 59.505 54.96C59.585 54.8 59.625 54.5767 59.625 54.29C59.625 54.03 59.5883 53.8267 59.515 53.68C59.4483 53.5267 59.3217 53.4167 59.135 53.35C58.955 53.2767 58.6917 53.24 58.345 53.24C58.3383 53.24 58.3217 53.24 58.295 53.24C58.2683 53.24 58.2483 53.24 58.235 53.24V55.37ZM61.3454 57.31L61.1754 56.85C61.3554 56.79 61.4954 56.6833 61.5954 56.53C61.7021 56.3833 61.7554 56.2067 61.7554 56H61.1854V54.85H62.2854V55.98C62.2854 56.3333 62.2087 56.6133 62.0554 56.82C61.9021 57.0333 61.6654 57.1967 61.3454 57.31ZM67.0458 56.08C66.5724 56.08 66.2124 55.9867 65.9658 55.8C65.7258 55.6067 65.5624 55.3367 65.4758 54.99C65.3958 54.6433 65.3558 54.24 65.3558 53.78V52.45C65.3558 51.9633 65.3991 51.55 65.4858 51.21C65.5724 50.8633 65.7358 50.6 65.9758 50.42C66.2224 50.2333 66.5791 50.14 67.0458 50.14C67.4658 50.14 67.7891 50.21 68.0158 50.35C68.2491 50.4833 68.4091 50.6867 68.4958 50.96C68.5824 51.2267 68.6258 51.56 68.6258 51.96V52.3H67.6558V51.95C67.6558 51.6967 67.6391 51.4967 67.6058 51.35C67.5724 51.2033 67.5124 51.0967 67.4258 51.03C67.3391 50.9633 67.2158 50.93 67.0558 50.93C66.8824 50.93 66.7491 50.97 66.6558 51.05C66.5624 51.13 66.4991 51.2667 66.4658 51.46C66.4391 51.6467 66.4258 51.9033 66.4258 52.23V54.05C66.4258 54.5433 66.4724 54.8733 66.5658 55.04C66.6591 55.2067 66.8258 55.29 67.0658 55.29C67.2458 55.29 67.3758 55.25 67.4558 55.17C67.5424 55.0833 67.5958 54.9633 67.6158 54.81C67.6424 54.6567 67.6558 54.4833 67.6558 54.29V53.82H68.6258V54.22C68.6258 54.6067 68.5791 54.94 68.4858 55.22C68.3991 55.5 68.2391 55.7133 68.0058 55.86C67.7791 56.0067 67.4591 56.08 67.0458 56.08ZM71.1671 56.08C70.7404 56.08 70.4038 55.9933 70.1571 55.82C69.9104 55.6467 69.7338 55.4 69.6271 55.08C69.5271 54.76 69.4771 54.3833 69.4771 53.95V52.27C69.4771 51.8367 69.5271 51.46 69.6271 51.14C69.7338 50.82 69.9104 50.5733 70.1571 50.4C70.4038 50.2267 70.7404 50.14 71.1671 50.14C71.5938 50.14 71.9271 50.2267 72.1671 50.4C72.4138 50.5733 72.5871 50.82 72.6871 51.14C72.7938 51.46 72.8471 51.8367 72.8471 52.27V53.95C72.8471 54.3833 72.7938 54.76 72.6871 55.08C72.5871 55.4 72.4138 55.6467 72.1671 55.82C71.9271 55.9933 71.5938 56.08 71.1671 56.08ZM71.1671 55.29C71.3738 55.29 71.5171 55.23 71.5971 55.11C71.6838 54.99 71.7338 54.8333 71.7471 54.64C71.7671 54.44 71.7771 54.2333 71.7771 54.02V52.21C71.7771 51.99 71.7671 51.7833 71.7471 51.59C71.7338 51.3967 71.6838 51.24 71.5971 51.12C71.5171 50.9933 71.3738 50.93 71.1671 50.93C70.9604 50.93 70.8138 50.9933 70.7271 51.12C70.6404 51.24 70.5871 51.3967 70.5671 51.59C70.5538 51.7833 70.5471 51.99 70.5471 52.21V54.02C70.5471 54.2333 70.5538 54.44 70.5671 54.64C70.5871 54.8333 70.6404 54.99 70.7271 55.11C70.8138 55.23 70.9604 55.29 71.1671 55.29ZM73.8252 56V50.22H77.1852V56H76.1152V51.03H74.8952V56H73.8252ZM79.8685 56.08C79.4152 56.08 79.0652 55.9933 78.8185 55.82C78.5718 55.64 78.3985 55.38 78.2985 55.04C78.2052 54.6933 78.1585 54.27 78.1585 53.77V52.45C78.1585 51.9367 78.2085 51.51 78.3085 51.17C78.4085 50.83 78.5818 50.5733 78.8285 50.4C79.0818 50.2267 79.4285 50.14 79.8685 50.14C80.3552 50.14 80.7118 50.24 80.9385 50.44C81.1718 50.64 81.3252 50.93 81.3985 51.31C81.4718 51.6833 81.5085 52.1333 81.5085 52.66V53.13H79.2285V54.29C79.2285 54.5233 79.2485 54.7133 79.2885 54.86C79.3352 55.0067 79.4052 55.1167 79.4985 55.19C79.5985 55.2567 79.7252 55.29 79.8785 55.29C80.0385 55.29 80.1585 55.2533 80.2385 55.18C80.3252 55.1 80.3818 54.99 80.4085 54.85C80.4418 54.7033 80.4585 54.5333 80.4585 54.34V53.99H81.4985V54.21C81.4985 54.79 81.3752 55.2467 81.1285 55.58C80.8818 55.9133 80.4618 56.08 79.8685 56.08ZM79.2285 52.55H80.4585V52.03C80.4585 51.79 80.4452 51.59 80.4185 51.43C80.3918 51.2633 80.3352 51.14 80.2485 51.06C80.1685 50.9733 80.0385 50.93 79.8585 50.93C79.6852 50.93 79.5518 50.97 79.4585 51.05C79.3718 51.13 79.3118 51.2667 79.2785 51.46C79.2452 51.6467 79.2285 51.9067 79.2285 52.24V52.55ZM82.4775 57.9V50.22H83.5475V50.68C83.6742 50.5333 83.8275 50.4067 84.0075 50.3C84.1875 50.1933 84.4008 50.14 84.6475 50.14C84.9475 50.14 85.1842 50.22 85.3575 50.38C85.5375 50.5333 85.6708 50.73 85.7575 50.97C85.8442 51.2033 85.9008 51.4433 85.9275 51.69C85.9542 51.93 85.9675 52.1367 85.9675 52.31V53.71C85.9675 54.1167 85.9275 54.5033 85.8475 54.87C85.7675 55.23 85.6208 55.5233 85.4075 55.75C85.2008 55.97 84.9075 56.08 84.5275 56.08C84.3208 56.08 84.1375 56.03 83.9775 55.93C83.8175 55.8233 83.6742 55.7033 83.5475 55.57V57.9H82.4775ZM84.3175 55.24C84.5042 55.24 84.6375 55.1733 84.7175 55.04C84.7975 54.9 84.8475 54.7133 84.8675 54.48C84.8875 54.2467 84.8975 53.99 84.8975 53.71V52.31C84.8975 52.07 84.8842 51.85 84.8575 51.65C84.8308 51.4433 84.7742 51.28 84.6875 51.16C84.6008 51.04 84.4642 50.98 84.2775 50.98C84.1375 50.98 84.0042 51.01 83.8775 51.07C83.7508 51.13 83.6408 51.2 83.5475 51.28V54.98C83.6475 55.0533 83.7608 55.1167 83.8875 55.17C84.0142 55.2167 84.1575 55.24 84.3175 55.24ZM86.9404 56V50.22H88.0104V52.65H89.3804V50.22H90.4504V56H89.3804V53.43H88.0104V56H86.9404ZM91.5302 56V50.22H92.4302V54.11L94.1702 50.22H95.0102V56H94.1302V52.08L92.4002 56H91.5302ZM96.1005 56V50.22H97.1705V52.66H97.4705L98.5605 50.22H99.6605L98.4505 53.02L99.6805 56H98.5605L97.4705 53.3H97.1705V56H96.1005ZM102.536 56V50.22H105.896V56H104.826V51.03H103.606V56H102.536ZM108.569 56.08C108.143 56.08 107.806 55.9933 107.559 55.82C107.313 55.6467 107.136 55.4 107.029 55.08C106.929 54.76 106.879 54.3833 106.879 53.95V52.27C106.879 51.8367 106.929 51.46 107.029 51.14C107.136 50.82 107.313 50.5733 107.559 50.4C107.806 50.2267 108.143 50.14 108.569 50.14C108.996 50.14 109.329 50.2267 109.569 50.4C109.816 50.5733 109.989 50.82 110.089 51.14C110.196 51.46 110.249 51.8367 110.249 52.27V53.95C110.249 54.3833 110.196 54.76 110.089 55.08C109.989 55.4 109.816 55.6467 109.569 55.82C109.329 55.9933 108.996 56.08 108.569 56.08ZM108.569 55.29C108.776 55.29 108.919 55.23 108.999 55.11C109.086 54.99 109.136 54.8333 109.149 54.64C109.169 54.44 109.179 54.2333 109.179 54.02V52.21C109.179 51.99 109.169 51.7833 109.149 51.59C109.136 51.3967 109.086 51.24 108.999 51.12C108.919 50.9933 108.776 50.93 108.569 50.93C108.363 50.93 108.216 50.9933 108.129 51.12C108.043 51.24 107.989 51.3967 107.969 51.59C107.956 51.7833 107.949 51.99 107.949 52.21V54.02C107.949 54.2333 107.956 54.44 107.969 54.64C107.989 54.8333 108.043 54.99 108.129 55.11C108.216 55.23 108.363 55.29 108.569 55.29ZM112.838 56.08C112.504 56.08 112.214 56.0067 111.968 55.86C111.721 55.7067 111.531 55.4833 111.398 55.19C111.271 54.89 111.208 54.52 111.208 54.08V50.68C111.208 50.1733 111.244 49.76 111.318 49.44C111.398 49.12 111.521 48.8667 111.688 48.68C111.854 48.4933 112.071 48.3467 112.338 48.24C112.618 48.1267 112.868 48.0467 113.088 48C113.308 47.9533 113.518 47.9033 113.718 47.85C113.924 47.79 114.134 47.6967 114.348 47.57L114.568 48.46C114.381 48.58 114.174 48.67 113.948 48.73C113.728 48.7833 113.508 48.8333 113.288 48.88C113.068 48.92 112.861 48.9867 112.668 49.08C112.474 49.1733 112.324 49.3167 112.218 49.51C112.111 49.6967 112.058 49.9567 112.058 50.29V51.22C112.144 51.1333 112.258 51.0533 112.398 50.98C112.538 50.9 112.688 50.8333 112.848 50.78C113.014 50.7267 113.171 50.7 113.318 50.7C113.558 50.7 113.778 50.7633 113.978 50.89C114.178 51.0167 114.338 51.2333 114.458 51.54C114.578 51.84 114.638 52.25 114.638 52.77V53.87C114.638 54.4767 114.561 54.94 114.408 55.26C114.254 55.5733 114.041 55.79 113.768 55.91C113.501 56.0233 113.191 56.08 112.838 56.08ZM112.938 55.29C113.084 55.29 113.201 55.2567 113.288 55.19C113.381 55.1167 113.448 55 113.488 54.84C113.534 54.68 113.558 54.4667 113.558 54.2V52.45C113.558 52.2033 113.541 52.0067 113.508 51.86C113.474 51.7133 113.421 51.6067 113.348 51.54C113.274 51.4667 113.174 51.43 113.048 51.43C112.981 51.43 112.904 51.4433 112.818 51.47C112.738 51.49 112.651 51.5233 112.558 51.57C112.471 51.61 112.378 51.6633 112.278 51.73V54.11C112.278 54.39 112.298 54.6167 112.338 54.79C112.384 54.9633 112.454 55.09 112.548 55.17C112.648 55.25 112.778 55.29 112.938 55.29ZM117.212 56.08C116.759 56.08 116.409 55.9933 116.162 55.82C115.916 55.64 115.742 55.38 115.642 55.04C115.549 54.6933 115.502 54.27 115.502 53.77V52.45C115.502 51.9367 115.552 51.51 115.652 51.17C115.752 50.83 115.926 50.5733 116.172 50.4C116.426 50.2267 116.772 50.14 117.212 50.14C117.699 50.14 118.056 50.24 118.282 50.44C118.516 50.64 118.669 50.93 118.742 51.31C118.816 51.6833 118.852 52.1333 118.852 52.66V53.13H116.572V54.29C116.572 54.5233 116.592 54.7133 116.632 54.86C116.679 55.0067 116.749 55.1167 116.842 55.19C116.942 55.2567 117.069 55.29 117.222 55.29C117.382 55.29 117.502 55.2533 117.582 55.18C117.669 55.1 117.726 54.99 117.752 54.85C117.786 54.7033 117.802 54.5333 117.802 54.34V53.99H118.842V54.21C118.842 54.79 118.719 55.2467 118.472 55.58C118.226 55.9133 117.806 56.08 117.212 56.08ZM116.572 52.55H117.802V52.03C117.802 51.79 117.789 51.59 117.762 51.43C117.736 51.2633 117.679 51.14 117.592 51.06C117.512 50.9733 117.382 50.93 117.202 50.93C117.029 50.93 116.896 50.97 116.802 51.05C116.716 51.13 116.656 51.2667 116.622 51.46C116.589 51.6467 116.572 51.9067 116.572 52.24V52.55ZM119.301 57.47V55.29C119.501 55.1367 119.685 54.9533 119.851 54.74C120.018 54.5267 120.165 54.2567 120.291 53.93C120.418 53.6033 120.518 53.2 120.591 52.72C120.665 52.24 120.705 51.66 120.711 50.98L120.731 50.22H123.341V55.24H124.041V57.47H123.261L123.171 56H120.171L120.081 57.47H119.301ZM120.341 55.24H122.311V50.99H121.561L121.541 51.2C121.535 51.9067 121.498 52.4967 121.431 52.97C121.371 53.4367 121.285 53.82 121.171 54.12C121.065 54.4133 120.938 54.6467 120.791 54.82C120.651 54.9933 120.501 55.1333 120.341 55.24ZM124.782 56V50.22H125.682V54.11L127.422 50.22H128.262V56H127.382V52.08L125.652 56H124.782ZM128.983 56.05V55.24C129.183 55.24 129.339 55.2 129.453 55.12C129.573 55.04 129.663 54.9067 129.723 54.72C129.789 54.5267 129.839 54.27 129.873 53.95C129.906 53.6233 129.936 53.2167 129.963 52.73L130.093 50.22H133.123V56H132.053V51.03H131.033L130.943 52.73C130.909 53.39 130.859 53.9367 130.793 54.37C130.733 54.8033 130.636 55.1433 130.503 55.39C130.369 55.63 130.189 55.8 129.963 55.9C129.743 56 129.456 56.05 129.103 56.05H128.983Z"></path>
</svg>
