<svg xmlns="http://www.w3.org/2000/svg" fill="none" viewBox="0 0 13 18" height="18" width="13">
<rect fill-opacity="0.01" fill="#0D0E12" height="18" width="13"></rect>
<path fill="white" d="M0.78 14L2.892 5.804H0.24V4.28H4.848V5.66L2.736 14H0.78ZM6.86944 14V6.26C6.78144 6.308 6.68144 6.356 6.56944 6.404C6.45744 6.452 6.33744 6.504 6.20944 6.56C6.08944 6.608 5.96944 6.656 5.84944 6.704C5.73744 6.752 5.63344 6.8 5.53744 6.848V5.36C5.62544 5.312 5.74944 5.248 5.90944 5.168C6.06944 5.08 6.24144 4.984 6.42544 4.88C6.60944 4.776 6.78144 4.672 6.94144 4.568C7.10144 4.456 7.22144 4.36 7.30144 4.28H8.87344V14H6.86944Z"></path>
</svg>
