<svg xmlns="http://www.w3.org/2000/svg" fill="none" viewBox="0 0 22 22" height="22" width="22">
<circle stroke="#0D0E12" fill="#FDCD4D" r="10" cy="11" cx="11"></circle>
<path stroke-linecap="round" stroke="#0D0E12" d="M8 16C11 16 14 17 14 17"></path>
<path fill="#0D0E12" d="M3.88884 6C6.20892 6 10.1111 7.02564 10.1111 7.02564H11V8.05128C11 8.05128 10.5556 8.05128 10.1111 8.5641C9.66667 9.07692 9.5 11 8.5 11C7.5 11 6 11 5 10.5C4 10 3.52022 7.02333 3.5 7C3.05561 7 3 7.01282 3 6.5C3 5.98718 3.44444 6 3.88884 6Z"></path>
<path fill="#0D0E12" d="M18.1112 6C15.7911 6 11.8889 7.02564 11.8889 7.02564H11V8.05128C11 8.05128 11.4444 8.05128 11.8889 8.5641C12.3333 9.07692 12.5 11 13.5 11C14.5 11 16 11 17 10.5C18 10 18.4798 7.02333 18.5 7C18.9444 7 19 7.01282 19 6.5C19 5.98718 18.5556 6 18.1112 6Z"></path>
</svg>
