<svg xmlns="http://www.w3.org/2000/svg" fill="none" viewBox="0 0 156 56" height="56" width="156">
<rect stroke="white" fill="#0D0E12" height="55" width="155" y="0.5" x="0.5"></rect>
<path fill="white" d="M41.0005 23V17.22H42.6305V23H41.0005ZM40.9905 16.24V15.11H42.6305V16.24H40.9905ZM45.417 23.1C44.9103 23.1 44.487 22.9867 44.147 22.76C43.8136 22.5333 43.5403 22.1633 43.327 21.65L44.437 21.16C44.5436 21.42 44.667 21.6267 44.807 21.78C44.9536 21.9267 45.1136 22 45.287 22C45.4136 22 45.507 21.9733 45.567 21.92C45.6336 21.8667 45.667 21.7933 45.667 21.7C45.667 21.5467 45.607 21.4067 45.487 21.28C45.3736 21.1533 45.167 20.9667 44.867 20.72L44.447 20.37C44.1403 20.11 43.897 19.86 43.717 19.62C43.5436 19.3733 43.457 19.07 43.457 18.71C43.457 18.3967 43.537 18.12 43.697 17.88C43.8636 17.64 44.0836 17.4533 44.357 17.32C44.6303 17.1867 44.9236 17.12 45.237 17.12C45.7103 17.12 46.107 17.25 46.427 17.51C46.747 17.77 46.9703 18.1367 47.097 18.61L46.047 19.09C46.007 18.9633 45.9503 18.8367 45.877 18.71C45.8036 18.5833 45.7136 18.4767 45.607 18.39C45.507 18.3033 45.397 18.26 45.277 18.26C45.1703 18.26 45.0836 18.29 45.017 18.35C44.957 18.41 44.927 18.49 44.927 18.59C44.927 18.7167 44.997 18.8533 45.137 19C45.2836 19.1467 45.4836 19.3233 45.737 19.53L46.147 19.89C46.3136 20.03 46.477 20.18 46.637 20.34C46.797 20.5 46.927 20.6767 47.027 20.87C47.1336 21.0633 47.187 21.2833 47.187 21.53C47.187 21.8633 47.1036 22.15 46.937 22.39C46.7703 22.6233 46.5503 22.8 46.277 22.92C46.0103 23.04 45.7236 23.1 45.417 23.1ZM52.3138 25C51.8805 25 51.5038 24.9567 51.1838 24.87C50.8638 24.7833 50.6138 24.6533 50.4338 24.48C50.2605 24.3067 50.1738 24.0867 50.1738 23.82C50.1738 23.64 50.2105 23.4767 50.2838 23.33C50.3638 23.19 50.4705 23.0667 50.6038 22.96C50.7438 22.8467 50.9005 22.75 51.0738 22.67C50.8205 22.5967 50.6238 22.4867 50.4838 22.34C50.3438 22.1933 50.2738 21.9967 50.2738 21.75C50.2738 21.5167 50.3305 21.3167 50.4438 21.15C50.5572 20.9767 50.7138 20.8033 50.9138 20.63C50.7272 20.4633 50.5838 20.26 50.4838 20.02C50.3905 19.7733 50.3438 19.4767 50.3438 19.13C50.3438 18.6967 50.4238 18.33 50.5838 18.03C50.7438 17.73 50.9772 17.5033 51.2838 17.35C51.5972 17.1967 51.9738 17.12 52.4138 17.12C52.7138 17.12 52.9772 17.1567 53.2038 17.23C53.4305 17.3033 53.6238 17.4167 53.7838 17.57C53.8572 17.4567 53.9538 17.3467 54.0738 17.24C54.1938 17.1333 54.3305 17.0433 54.4838 16.97L54.6938 16.87L55.0738 17.65C55.0138 17.67 54.9305 17.7033 54.8238 17.75C54.7172 17.7967 54.6038 17.8467 54.4838 17.9C54.3705 17.9533 54.2672 18.0067 54.1738 18.06C54.2472 18.2067 54.3038 18.3733 54.3438 18.56C54.3838 18.7467 54.4038 18.94 54.4038 19.14C54.4038 19.5533 54.3272 19.91 54.1738 20.21C54.0272 20.51 53.8072 20.74 53.5138 20.9C53.2205 21.0533 52.8538 21.13 52.4138 21.13C52.2272 21.13 52.0505 21.1167 51.8838 21.09C51.7172 21.0567 51.5638 21.0167 51.4238 20.97C51.3838 21.0233 51.3472 21.08 51.3138 21.14C51.2872 21.1933 51.2738 21.2533 51.2738 21.32C51.2738 21.4 51.3138 21.4633 51.3938 21.51C51.4738 21.5567 51.6172 21.5933 51.8238 21.62L53.3438 21.79C53.8372 21.8433 54.2005 22.0033 54.4338 22.27C54.6672 22.53 54.7838 22.8733 54.7838 23.3C54.7838 23.6667 54.7005 23.9767 54.5338 24.23C54.3738 24.4833 54.1105 24.6733 53.7438 24.8C53.3838 24.9333 52.9072 25 52.3138 25ZM52.5238 23.82C52.8905 23.82 53.1705 23.79 53.3638 23.73C53.5638 23.67 53.6638 23.5467 53.6638 23.36C53.6638 23.2667 53.6372 23.19 53.5838 23.13C53.5305 23.0767 53.4405 23.0333 53.3138 23C53.1938 22.96 53.0205 22.93 52.7938 22.91L51.7238 22.8C51.6572 22.8467 51.5972 22.9 51.5438 22.96C51.4972 23.0133 51.4572 23.07 51.4238 23.13C51.3972 23.1967 51.3838 23.2667 51.3838 23.34C51.3838 23.5 51.4705 23.62 51.6438 23.7C51.8172 23.78 52.1105 23.82 52.5238 23.82ZM52.4138 20.16C52.5072 20.16 52.5838 20.1433 52.6438 20.11C52.7038 20.07 52.7472 20.01 52.7738 19.93C52.8072 19.85 52.8305 19.7433 52.8438 19.61C52.8572 19.4767 52.8638 19.3167 52.8638 19.13C52.8638 18.9367 52.8572 18.7767 52.8438 18.65C52.8305 18.5167 52.8072 18.41 52.7738 18.33C52.7472 18.2433 52.7038 18.1833 52.6438 18.15C52.5838 18.11 52.5072 18.09 52.4138 18.09C52.3205 18.09 52.2438 18.11 52.1838 18.15C52.1238 18.1833 52.0772 18.24 52.0438 18.32C52.0172 18.4 51.9972 18.5067 51.9838 18.64C51.9705 18.7733 51.9638 18.9367 51.9638 19.13C51.9638 19.3167 51.9705 19.4767 51.9838 19.61C51.9972 19.7367 52.0172 19.8433 52.0438 19.93C52.0772 20.01 52.1238 20.07 52.1838 20.11C52.2438 20.1433 52.3205 20.16 52.4138 20.16ZM55.4536 23V17.22H57.0836V23H55.4536ZM55.4436 16.24V15.11H57.0836V16.24H55.4436ZM58.8401 23L57.6801 17.22H59.2401L59.7201 20.91L60.1601 17.22H61.7201L60.5301 23H58.8401ZM64.1891 23.1C63.7691 23.1 63.4091 23.0267 63.1091 22.88C62.8091 22.7267 62.5791 22.5067 62.4191 22.22C62.2591 21.9267 62.1791 21.5767 62.1791 21.17V19.05C62.1791 18.6367 62.2591 18.2867 62.4191 18C62.5791 17.7133 62.8091 17.4967 63.1091 17.35C63.4157 17.1967 63.7757 17.12 64.1891 17.12C64.6157 17.12 64.9691 17.1933 65.2491 17.34C65.5357 17.4867 65.7491 17.7033 65.8891 17.99C66.0357 18.2767 66.1091 18.63 66.1091 19.05V20.21H63.7891V21.32C63.7891 21.4667 63.8057 21.5867 63.8391 21.68C63.8724 21.7733 63.9191 21.84 63.9791 21.88C64.0391 21.92 64.1091 21.94 64.1891 21.94C64.2691 21.94 64.3391 21.9233 64.3991 21.89C64.4657 21.85 64.5157 21.79 64.5491 21.71C64.5891 21.63 64.6091 21.52 64.6091 21.38V20.77H66.1091V21.33C66.1091 21.9167 65.9391 22.36 65.5991 22.66C65.2591 22.9533 64.7891 23.1 64.1891 23.1ZM63.7891 19.45H64.6091V18.87C64.6091 18.7167 64.5891 18.5967 64.5491 18.51C64.5157 18.4233 64.4657 18.3633 64.3991 18.33C64.3391 18.2967 64.2657 18.28 64.1791 18.28C64.0991 18.28 64.0291 18.3 63.9691 18.34C63.9157 18.38 63.8724 18.45 63.8391 18.55C63.8057 18.6433 63.7891 18.78 63.7891 18.96V19.45ZM66.9963 23V17.22H68.6263V17.8C68.8397 17.5867 69.0597 17.42 69.2863 17.3C69.5197 17.18 69.763 17.12 70.0163 17.12C70.2563 17.12 70.453 17.18 70.6063 17.3C70.7663 17.4133 70.8863 17.5733 70.9663 17.78C71.0463 17.98 71.0863 18.21 71.0863 18.47V23H69.4663V18.7C69.4663 18.56 69.443 18.4533 69.3963 18.38C69.3497 18.3067 69.263 18.27 69.1363 18.27C69.0697 18.27 68.9897 18.29 68.8963 18.33C68.8097 18.3633 68.7197 18.4133 68.6263 18.48V23H66.9963ZM76.4133 23.06C75.9799 23.06 75.6433 22.9967 75.4033 22.87C75.1699 22.7433 75.0099 22.56 74.9233 22.32C74.8366 22.0733 74.7933 21.7767 74.7933 21.43V18.29H74.2333V17.22H74.7933V15.46H76.4433V17.22H77.2633V18.29H76.4433V21.27C76.4433 21.4367 76.4899 21.5567 76.5833 21.63C76.6833 21.7033 76.8066 21.74 76.9533 21.74C77.0399 21.74 77.1199 21.7367 77.1933 21.73C77.2666 21.7167 77.3333 21.7067 77.3933 21.7V22.98C77.3066 22.9933 77.1699 23.01 76.9833 23.03C76.7966 23.05 76.6066 23.06 76.4133 23.06ZM80.0584 23.1C79.6451 23.1 79.2851 23.03 78.9784 22.89C78.6784 22.75 78.4451 22.54 78.2784 22.26C78.1184 21.98 78.0384 21.63 78.0384 21.21V19.01C78.0384 18.59 78.1184 18.24 78.2784 17.96C78.4451 17.68 78.6784 17.47 78.9784 17.33C79.2851 17.19 79.6451 17.12 80.0584 17.12C80.4718 17.12 80.8284 17.19 81.1284 17.33C81.4351 17.47 81.6718 17.68 81.8384 17.96C82.0051 18.24 82.0884 18.59 82.0884 19.01V21.21C82.0884 21.63 82.0051 21.98 81.8384 22.26C81.6718 22.54 81.4351 22.75 81.1284 22.89C80.8284 23.03 80.4718 23.1 80.0584 23.1ZM80.0684 22.02C80.1751 22.02 80.2584 21.9933 80.3184 21.94C80.3784 21.88 80.4184 21.8 80.4384 21.7C80.4651 21.5933 80.4784 21.4667 80.4784 21.32V18.9C80.4784 18.7533 80.4651 18.63 80.4384 18.53C80.4184 18.4233 80.3784 18.3433 80.3184 18.29C80.2584 18.23 80.1751 18.2 80.0684 18.2C79.9618 18.2 79.8784 18.23 79.8184 18.29C79.7584 18.3433 79.7151 18.4233 79.6884 18.53C79.6618 18.63 79.6484 18.7533 79.6484 18.9V21.32C79.6484 21.4667 79.6618 21.5933 79.6884 21.7C79.7151 21.8 79.7584 21.88 79.8184 21.94C79.8784 21.9933 79.9618 22.02 80.0684 22.02ZM87.341 23.06C86.9077 23.06 86.571 22.9967 86.331 22.87C86.0977 22.7433 85.9377 22.56 85.851 22.32C85.7643 22.0733 85.721 21.7767 85.721 21.43V18.29H85.161V17.22H85.721V15.46H87.371V17.22H88.191V18.29H87.371V21.27C87.371 21.4367 87.4177 21.5567 87.511 21.63C87.611 21.7033 87.7343 21.74 87.881 21.74C87.9677 21.74 88.0477 21.7367 88.121 21.73C88.1943 21.7167 88.261 21.7067 88.321 21.7V22.98C88.2343 22.9933 88.0977 23.01 87.911 23.03C87.7243 23.05 87.5343 23.06 87.341 23.06ZM89.0962 23V14.9H90.7162V17.73C90.9295 17.5167 91.1528 17.3633 91.3862 17.27C91.6195 17.17 91.8695 17.12 92.1362 17.12C92.3695 17.12 92.5628 17.18 92.7162 17.3C92.8762 17.4133 92.9962 17.5733 93.0762 17.78C93.1562 17.98 93.1962 18.21 93.1962 18.47V23H91.5762V18.7C91.5762 18.56 91.5528 18.4533 91.5062 18.38C91.4595 18.3067 91.3728 18.27 91.2462 18.27C91.1795 18.27 91.0995 18.29 91.0062 18.33C90.9128 18.3633 90.8162 18.4133 90.7162 18.48V23H89.0962ZM96.0641 23.1C95.6441 23.1 95.2841 23.0267 94.9841 22.88C94.6841 22.7267 94.4541 22.5067 94.2941 22.22C94.1341 21.9267 94.0541 21.5767 94.0541 21.17V19.05C94.0541 18.6367 94.1341 18.2867 94.2941 18C94.4541 17.7133 94.6841 17.4967 94.9841 17.35C95.2907 17.1967 95.6507 17.12 96.0641 17.12C96.4907 17.12 96.8441 17.1933 97.1241 17.34C97.4107 17.4867 97.6241 17.7033 97.7641 17.99C97.9107 18.2767 97.9841 18.63 97.9841 19.05V20.21H95.6641V21.32C95.6641 21.4667 95.6807 21.5867 95.7141 21.68C95.7474 21.7733 95.7941 21.84 95.8541 21.88C95.9141 21.92 95.9841 21.94 96.0641 21.94C96.1441 21.94 96.2141 21.9233 96.2741 21.89C96.3407 21.85 96.3907 21.79 96.4241 21.71C96.4641 21.63 96.4841 21.52 96.4841 21.38V20.77H97.9841V21.33C97.9841 21.9167 97.8141 22.36 97.4741 22.66C97.1341 22.9533 96.6641 23.1 96.0641 23.1ZM95.6641 19.45H96.4841V18.87C96.4841 18.7167 96.4641 18.5967 96.4241 18.51C96.3907 18.4233 96.3407 18.3633 96.2741 18.33C96.2141 18.2967 96.1407 18.28 96.0541 18.28C95.9741 18.28 95.9041 18.3 95.8441 18.34C95.7907 18.38 95.7474 18.45 95.7141 18.55C95.6807 18.6433 95.6641 18.78 95.6641 18.96V19.45ZM103.33 23.1C102.917 23.1 102.557 23.03 102.25 22.89C101.95 22.75 101.717 22.54 101.55 22.26C101.39 21.98 101.31 21.63 101.31 21.21V19.01C101.31 18.59 101.39 18.24 101.55 17.96C101.717 17.68 101.95 17.47 102.25 17.33C102.557 17.19 102.917 17.12 103.33 17.12C103.743 17.12 104.1 17.19 104.4 17.33C104.707 17.47 104.943 17.68 105.11 17.96C105.277 18.24 105.36 18.59 105.36 19.01V21.21C105.36 21.63 105.277 21.98 105.11 22.26C104.943 22.54 104.707 22.75 104.4 22.89C104.1 23.03 103.743 23.1 103.33 23.1ZM103.34 22.02C103.447 22.02 103.53 21.9933 103.59 21.94C103.65 21.88 103.69 21.8 103.71 21.7C103.737 21.5933 103.75 21.4667 103.75 21.32V18.9C103.75 18.7533 103.737 18.63 103.71 18.53C103.69 18.4233 103.65 18.3433 103.59 18.29C103.53 18.23 103.447 18.2 103.34 18.2C103.233 18.2 103.15 18.23 103.09 18.29C103.03 18.3433 102.987 18.4233 102.96 18.53C102.933 18.63 102.92 18.7533 102.92 18.9V21.32C102.92 21.4667 102.933 21.5933 102.96 21.7C102.987 21.8 103.03 21.88 103.09 21.94C103.15 21.9933 103.233 22.02 103.34 22.02ZM106.264 23V17.22H107.894V17.8C108.107 17.5867 108.327 17.42 108.554 17.3C108.787 17.18 109.031 17.12 109.284 17.12C109.524 17.12 109.721 17.18 109.874 17.3C110.034 17.4133 110.154 17.5733 110.234 17.78C110.314 17.98 110.354 18.21 110.354 18.47V23H108.734V18.7C108.734 18.56 108.711 18.4533 108.664 18.38C108.617 18.3067 108.531 18.27 108.404 18.27C108.337 18.27 108.257 18.29 108.164 18.33C108.077 18.3633 107.987 18.4133 107.894 18.48V23H106.264ZM113.222 23.1C112.802 23.1 112.442 23.0267 112.142 22.88C111.842 22.7267 111.612 22.5067 111.452 22.22C111.292 21.9267 111.212 21.5767 111.212 21.17V19.05C111.212 18.6367 111.292 18.2867 111.452 18C111.612 17.7133 111.842 17.4967 112.142 17.35C112.449 17.1967 112.809 17.12 113.222 17.12C113.649 17.12 114.002 17.1933 114.282 17.34C114.569 17.4867 114.782 17.7033 114.922 17.99C115.069 18.2767 115.142 18.63 115.142 19.05V20.21H112.822V21.32C112.822 21.4667 112.839 21.5867 112.872 21.68C112.906 21.7733 112.952 21.84 113.012 21.88C113.072 21.92 113.142 21.94 113.222 21.94C113.302 21.94 113.372 21.9233 113.432 21.89C113.499 21.85 113.549 21.79 113.582 21.71C113.622 21.63 113.642 21.52 113.642 21.38V20.77H115.142V21.33C115.142 21.9167 114.972 22.36 114.632 22.66C114.292 22.9533 113.822 23.1 113.222 23.1ZM112.822 19.45H113.642V18.87C113.642 18.7167 113.622 18.5967 113.582 18.51C113.549 18.4233 113.499 18.3633 113.432 18.33C113.372 18.2967 113.299 18.28 113.212 18.28C113.132 18.28 113.062 18.3 113.002 18.34C112.949 18.38 112.906 18.45 112.872 18.55C112.839 18.6433 112.822 18.78 112.822 18.96V19.45ZM29.8754 38L29.0254 32.22H30.3854L30.8054 35.5L31.2554 32.22H32.4354L32.8254 35.58L33.3154 32.22H34.5754L33.7154 38H32.3154L31.8154 34.75L31.2554 38H29.8754ZM35.3022 38V29.9H36.9222V32.73C37.1356 32.5167 37.3589 32.3633 37.5922 32.27C37.8256 32.17 38.0756 32.12 38.3422 32.12C38.5756 32.12 38.7689 32.18 38.9222 32.3C39.0822 32.4133 39.2022 32.5733 39.2822 32.78C39.3622 32.98 39.4022 33.21 39.4022 33.47V38H37.7822V33.7C37.7822 33.56 37.7589 33.4533 37.7122 33.38C37.6656 33.3067 37.5789 33.27 37.4522 33.27C37.3856 33.27 37.3056 33.29 37.2122 33.33C37.1189 33.3633 37.0222 33.4133 36.9222 33.48V38H35.3022ZM42.2801 38.1C41.8668 38.1 41.5068 38.03 41.2001 37.89C40.9001 37.75 40.6668 37.54 40.5001 37.26C40.3401 36.98 40.2601 36.63 40.2601 36.21V34.01C40.2601 33.59 40.3401 33.24 40.5001 32.96C40.6668 32.68 40.9001 32.47 41.2001 32.33C41.5068 32.19 41.8668 32.12 42.2801 32.12C42.6935 32.12 43.0501 32.19 43.3501 32.33C43.6568 32.47 43.8935 32.68 44.0601 32.96C44.2268 33.24 44.3101 33.59 44.3101 34.01V36.21C44.3101 36.63 44.2268 36.98 44.0601 37.26C43.8935 37.54 43.6568 37.75 43.3501 37.89C43.0501 38.03 42.6935 38.1 42.2801 38.1ZM42.2901 37.02C42.3968 37.02 42.4801 36.9933 42.5401 36.94C42.6001 36.88 42.6401 36.8 42.6601 36.7C42.6868 36.5933 42.7001 36.4667 42.7001 36.32V33.9C42.7001 33.7533 42.6868 33.63 42.6601 33.53C42.6401 33.4233 42.6001 33.3433 42.5401 33.29C42.4801 33.23 42.3968 33.2 42.2901 33.2C42.1835 33.2 42.1001 33.23 42.0401 33.29C41.9801 33.3433 41.9368 33.4233 41.9101 33.53C41.8835 33.63 41.8701 33.7533 41.8701 33.9V36.32C41.8701 36.4667 41.8835 36.5933 41.9101 36.7C41.9368 36.8 41.9801 36.88 42.0401 36.94C42.1001 36.9933 42.1835 37.02 42.2901 37.02ZM48.3227 38L47.4727 32.22H48.8327L49.2527 35.5L49.7027 32.22H50.8827L51.2727 35.58L51.7627 32.22H53.0227L52.1627 38H50.7627L50.2627 34.75L49.7027 38H48.3227ZM53.7495 38V32.22H55.3795V38H53.7495ZM53.7395 31.24V30.11H55.3795V31.24H53.7395ZM56.456 38V29.9H58.076V38H56.456ZM59.2001 38V29.9H60.8201V38H59.2001ZM64.4329 39.9V32.22H66.0629V32.64C66.2562 32.4667 66.4629 32.3367 66.6829 32.25C66.9029 32.1633 67.1129 32.12 67.3129 32.12C67.5329 32.12 67.7195 32.1633 67.8729 32.25C68.0329 32.3367 68.1629 32.46 68.2629 32.62C68.3629 32.7733 68.4362 32.9533 68.4829 33.16C68.5295 33.3667 68.5529 33.5867 68.5529 33.82V36.31C68.5529 36.67 68.5029 36.9833 68.4029 37.25C68.3095 37.5167 68.1695 37.7267 67.9829 37.88C67.7962 38.0267 67.5662 38.1 67.2929 38.1C67.0862 38.1 66.8762 38.0533 66.6629 37.96C66.4562 37.86 66.2562 37.7267 66.0629 37.56V39.9H64.4329ZM66.4929 37.05C66.5995 37.05 66.6829 37.02 66.7429 36.96C66.8029 36.9 66.8462 36.8233 66.8729 36.73C66.9062 36.63 66.9229 36.52 66.9229 36.4V33.7C66.9229 33.5867 66.9095 33.4867 66.8829 33.4C66.8562 33.3067 66.8129 33.2333 66.7529 33.18C66.6929 33.1267 66.6162 33.1 66.5229 33.1C66.4362 33.1 66.3529 33.12 66.2729 33.16C66.1995 33.1933 66.1295 33.24 66.0629 33.3V36.9C66.1362 36.9467 66.2062 36.9833 66.2729 37.01C66.3462 37.0367 66.4195 37.05 66.4929 37.05ZM69.5517 38V29.9H71.1717V38H69.5517ZM73.4158 38.1C73.1225 38.1 72.8758 38.03 72.6758 37.89C72.4758 37.75 72.3258 37.5733 72.2258 37.36C72.1258 37.14 72.0758 36.9167 72.0758 36.69C72.0758 36.33 72.1458 36.0267 72.2858 35.78C72.4325 35.5333 72.6225 35.3267 72.8558 35.16C73.0892 34.9933 73.3458 34.8533 73.6258 34.74C73.9058 34.62 74.1825 34.5133 74.4558 34.42V33.84C74.4558 33.74 74.4458 33.6533 74.4258 33.58C74.4058 33.5 74.3725 33.44 74.3258 33.4C74.2792 33.3533 74.2092 33.33 74.1158 33.33C74.0225 33.33 73.9492 33.35 73.8958 33.39C73.8492 33.43 73.8158 33.4867 73.7958 33.56C73.7758 33.6267 73.7625 33.7033 73.7558 33.79L73.7158 34.21L72.1958 34.15C72.2292 33.4567 72.4125 32.9467 72.7458 32.62C73.0858 32.2867 73.5925 32.12 74.2658 32.12C74.8525 32.12 75.2892 32.2833 75.5758 32.61C75.8692 32.93 76.0158 33.3467 76.0158 33.86V36.56C76.0158 36.8 76.0192 37.01 76.0258 37.19C76.0392 37.37 76.0525 37.5267 76.0658 37.66C76.0858 37.7933 76.1025 37.9067 76.1158 38H74.6558C74.6358 37.8467 74.6125 37.68 74.5858 37.5C74.5592 37.32 74.5392 37.2133 74.5258 37.18C74.4592 37.42 74.3325 37.6333 74.1458 37.82C73.9658 38.0067 73.7225 38.1 73.4158 38.1ZM73.9958 37C74.0625 37 74.1225 36.9867 74.1758 36.96C74.2358 36.9333 74.2892 36.8967 74.3358 36.85C74.3825 36.8033 74.4225 36.7567 74.4558 36.71V35.13C74.3225 35.21 74.1992 35.2933 74.0858 35.38C73.9725 35.46 73.8758 35.55 73.7958 35.65C73.7158 35.75 73.6525 35.86 73.6058 35.98C73.5658 36.0933 73.5458 36.2233 73.5458 36.37C73.5458 36.5633 73.5858 36.7167 73.6658 36.83C73.7458 36.9433 73.8558 37 73.9958 37ZM77.1417 39.68V38.55C77.3483 38.55 77.5183 38.5367 77.6517 38.51C77.7917 38.4833 77.895 38.4333 77.9617 38.36C78.035 38.2867 78.0717 38.1867 78.0717 38.06C78.0717 37.9467 78.0517 37.81 78.0117 37.65C77.9717 37.4833 77.9217 37.2967 77.8617 37.09L76.5017 32.22H78.0317L78.7617 35.56L79.3117 32.22H80.8517L79.5217 38.14C79.435 38.54 79.2983 38.85 79.1117 39.07C78.925 39.2967 78.695 39.4533 78.4217 39.54C78.155 39.6333 77.8517 39.68 77.5117 39.68H77.1417ZM84.8427 38V31.55C84.7694 31.59 84.686 31.63 84.5927 31.67C84.4994 31.71 84.3994 31.7533 84.2927 31.8C84.1927 31.84 84.0927 31.88 83.9927 31.92C83.8994 31.96 83.8127 32 83.7327 32.04V30.8C83.806 30.76 83.9094 30.7067 84.0427 30.64C84.176 30.5667 84.3194 30.4867 84.4727 30.4C84.626 30.3133 84.7694 30.2267 84.9027 30.14C85.036 30.0467 85.136 29.9667 85.2027 29.9H86.5127V38H84.8427ZM90.1494 38.15C89.6627 38.15 89.2561 38.0533 88.9294 37.86C88.6027 37.66 88.3561 37.3867 88.1894 37.04C88.0227 36.6933 87.9394 36.29 87.9394 35.83V32.16C87.9394 31.6867 88.0161 31.2733 88.1694 30.92C88.3294 30.56 88.5727 30.28 88.8994 30.08C89.2261 29.88 89.6427 29.78 90.1494 29.78C90.6561 29.78 91.0694 29.88 91.3894 30.08C91.7161 30.28 91.9561 30.56 92.1094 30.92C92.2694 31.2733 92.3494 31.6867 92.3494 32.16V35.83C92.3494 36.2833 92.2661 36.6867 92.0994 37.04C91.9327 37.3867 91.6861 37.66 91.3594 37.86C91.0327 38.0533 90.6294 38.15 90.1494 38.15ZM90.1494 36.66C90.3094 36.66 90.4227 36.61 90.4894 36.51C90.5627 36.4033 90.6061 36.2833 90.6194 36.15C90.6394 36.01 90.6494 35.89 90.6494 35.79V32.2C90.6494 32.0867 90.6427 31.96 90.6294 31.82C90.6161 31.6733 90.5727 31.5467 90.4994 31.44C90.4327 31.3267 90.3161 31.27 90.1494 31.27C89.9827 31.27 89.8627 31.3267 89.7894 31.44C89.7227 31.5467 89.6827 31.6733 89.6694 31.82C89.6561 31.96 89.6494 32.0867 89.6494 32.2V35.79C89.6494 35.89 89.6594 36.01 89.6794 36.15C89.6994 36.2833 89.7427 36.4033 89.8094 36.51C89.8827 36.61 89.9961 36.66 90.1494 36.66ZM95.6475 38.15C95.1608 38.15 94.7541 38.0533 94.4275 37.86C94.1008 37.66 93.8541 37.3867 93.6875 37.04C93.5208 36.6933 93.4375 36.29 93.4375 35.83V32.16C93.4375 31.6867 93.5141 31.2733 93.6675 30.92C93.8275 30.56 94.0708 30.28 94.3975 30.08C94.7241 29.88 95.1408 29.78 95.6475 29.78C96.1541 29.78 96.5675 29.88 96.8875 30.08C97.2141 30.28 97.4541 30.56 97.6075 30.92C97.7675 31.2733 97.8475 31.6867 97.8475 32.16V35.83C97.8475 36.2833 97.7641 36.6867 97.5975 37.04C97.4308 37.3867 97.1841 37.66 96.8575 37.86C96.5308 38.0533 96.1275 38.15 95.6475 38.15ZM95.6475 36.66C95.8075 36.66 95.9208 36.61 95.9875 36.51C96.0608 36.4033 96.1041 36.2833 96.1175 36.15C96.1375 36.01 96.1475 35.89 96.1475 35.79V32.2C96.1475 32.0867 96.1408 31.96 96.1275 31.82C96.1141 31.6733 96.0708 31.5467 95.9975 31.44C95.9308 31.3267 95.8141 31.27 95.6475 31.27C95.4808 31.27 95.3608 31.3267 95.2875 31.44C95.2208 31.5467 95.1808 31.6733 95.1675 31.82C95.1541 31.96 95.1475 32.0867 95.1475 32.2V35.79C95.1475 35.89 95.1575 36.01 95.1775 36.15C95.1975 36.2833 95.2408 36.4033 95.3075 36.51C95.3808 36.61 95.4941 36.66 95.6475 36.66ZM103.344 40C102.911 40 102.534 39.9567 102.214 39.87C101.894 39.7833 101.644 39.6533 101.464 39.48C101.291 39.3067 101.204 39.0867 101.204 38.82C101.204 38.64 101.241 38.4767 101.314 38.33C101.394 38.19 101.501 38.0667 101.634 37.96C101.774 37.8467 101.931 37.75 102.104 37.67C101.851 37.5967 101.654 37.4867 101.514 37.34C101.374 37.1933 101.304 36.9967 101.304 36.75C101.304 36.5167 101.361 36.3167 101.474 36.15C101.587 35.9767 101.744 35.8033 101.944 35.63C101.757 35.4633 101.614 35.26 101.514 35.02C101.421 34.7733 101.374 34.4767 101.374 34.13C101.374 33.6967 101.454 33.33 101.614 33.03C101.774 32.73 102.007 32.5033 102.314 32.35C102.627 32.1967 103.004 32.12 103.444 32.12C103.744 32.12 104.007 32.1567 104.234 32.23C104.461 32.3033 104.654 32.4167 104.814 32.57C104.887 32.4567 104.984 32.3467 105.104 32.24C105.224 32.1333 105.361 32.0433 105.514 31.97L105.724 31.87L106.104 32.65C106.044 32.67 105.961 32.7033 105.854 32.75C105.747 32.7967 105.634 32.8467 105.514 32.9C105.401 32.9533 105.297 33.0067 105.204 33.06C105.277 33.2067 105.334 33.3733 105.374 33.56C105.414 33.7467 105.434 33.94 105.434 34.14C105.434 34.5533 105.357 34.91 105.204 35.21C105.057 35.51 104.837 35.74 104.544 35.9C104.251 36.0533 103.884 36.13 103.444 36.13C103.257 36.13 103.081 36.1167 102.914 36.09C102.747 36.0567 102.594 36.0167 102.454 35.97C102.414 36.0233 102.377 36.08 102.344 36.14C102.317 36.1933 102.304 36.2533 102.304 36.32C102.304 36.4 102.344 36.4633 102.424 36.51C102.504 36.5567 102.647 36.5933 102.854 36.62L104.374 36.79C104.867 36.8433 105.231 37.0033 105.464 37.27C105.697 37.53 105.814 37.8733 105.814 38.3C105.814 38.6667 105.731 38.9767 105.564 39.23C105.404 39.4833 105.141 39.6733 104.774 39.8C104.414 39.9333 103.937 40 103.344 40ZM103.554 38.82C103.921 38.82 104.201 38.79 104.394 38.73C104.594 38.67 104.694 38.5467 104.694 38.36C104.694 38.2667 104.667 38.19 104.614 38.13C104.561 38.0767 104.471 38.0333 104.344 38C104.224 37.96 104.051 37.93 103.824 37.91L102.754 37.8C102.687 37.8467 102.627 37.9 102.574 37.96C102.527 38.0133 102.487 38.07 102.454 38.13C102.427 38.1967 102.414 38.2667 102.414 38.34C102.414 38.5 102.501 38.62 102.674 38.7C102.847 38.78 103.141 38.82 103.554 38.82ZM103.444 35.16C103.537 35.16 103.614 35.1433 103.674 35.11C103.734 35.07 103.777 35.01 103.804 34.93C103.837 34.85 103.861 34.7433 103.874 34.61C103.887 34.4767 103.894 34.3167 103.894 34.13C103.894 33.9367 103.887 33.7767 103.874 33.65C103.861 33.5167 103.837 33.41 103.804 33.33C103.777 33.2433 103.734 33.1833 103.674 33.15C103.614 33.11 103.537 33.09 103.444 33.09C103.351 33.09 103.274 33.11 103.214 33.15C103.154 33.1833 103.107 33.24 103.074 33.32C103.047 33.4 103.027 33.5067 103.014 33.64C103.001 33.7733 102.994 33.9367 102.994 34.13C102.994 34.3167 103.001 34.4767 103.014 34.61C103.027 34.7367 103.047 34.8433 103.074 34.93C103.107 35.01 103.154 35.07 103.214 35.11C103.274 35.1433 103.351 35.16 103.444 35.16ZM107.664 38.1C107.371 38.1 107.124 38.03 106.924 37.89C106.724 37.75 106.574 37.5733 106.474 37.36C106.374 37.14 106.324 36.9167 106.324 36.69C106.324 36.33 106.394 36.0267 106.534 35.78C106.681 35.5333 106.871 35.3267 107.104 35.16C107.337 34.9933 107.594 34.8533 107.874 34.74C108.154 34.62 108.431 34.5133 108.704 34.42V33.84C108.704 33.74 108.694 33.6533 108.674 33.58C108.654 33.5 108.621 33.44 108.574 33.4C108.527 33.3533 108.457 33.33 108.364 33.33C108.271 33.33 108.197 33.35 108.144 33.39C108.097 33.43 108.064 33.4867 108.044 33.56C108.024 33.6267 108.011 33.7033 108.004 33.79L107.964 34.21L106.444 34.15C106.477 33.4567 106.661 32.9467 106.994 32.62C107.334 32.2867 107.841 32.12 108.514 32.12C109.101 32.12 109.537 32.2833 109.824 32.61C110.117 32.93 110.264 33.3467 110.264 33.86V36.56C110.264 36.8 110.267 37.01 110.274 37.19C110.287 37.37 110.301 37.5267 110.314 37.66C110.334 37.7933 110.351 37.9067 110.364 38H108.904C108.884 37.8467 108.861 37.68 108.834 37.5C108.807 37.32 108.787 37.2133 108.774 37.18C108.707 37.42 108.581 37.6333 108.394 37.82C108.214 38.0067 107.971 38.1 107.664 38.1ZM108.244 37C108.311 37 108.371 36.9867 108.424 36.96C108.484 36.9333 108.537 36.8967 108.584 36.85C108.631 36.8033 108.671 36.7567 108.704 36.71V35.13C108.571 35.21 108.447 35.2933 108.334 35.38C108.221 35.46 108.124 35.55 108.044 35.65C107.964 35.75 107.901 35.86 107.854 35.98C107.814 36.0933 107.794 36.2233 107.794 36.37C107.794 36.5633 107.834 36.7167 107.914 36.83C107.994 36.9433 108.104 37 108.244 37ZM111.23 38V32.22H112.83V32.68C113.043 32.4733 113.263 32.3267 113.49 32.24C113.723 32.1533 113.96 32.11 114.2 32.11C114.433 32.11 114.633 32.17 114.8 32.29C114.973 32.4033 115.103 32.5733 115.19 32.8C115.416 32.5467 115.653 32.37 115.9 32.27C116.153 32.1633 116.406 32.11 116.66 32.11C116.886 32.11 117.083 32.1667 117.25 32.28C117.416 32.3867 117.546 32.5467 117.64 32.76C117.733 32.9667 117.78 33.2167 117.78 33.51V38H116.18V33.68C116.18 33.52 116.15 33.4067 116.09 33.34C116.036 33.2667 115.953 33.23 115.84 33.23C115.773 33.23 115.69 33.25 115.59 33.29C115.49 33.3233 115.393 33.3733 115.3 33.44C115.3 33.4533 115.3 33.4667 115.3 33.48C115.3 33.4867 115.3 33.4967 115.3 33.51V38H113.72V33.68C113.72 33.52 113.69 33.4067 113.63 33.34C113.57 33.2667 113.483 33.23 113.37 33.23C113.296 33.23 113.21 33.25 113.11 33.29C113.016 33.3233 112.923 33.3733 112.83 33.44V38H111.23ZM120.649 38.1C120.229 38.1 119.869 38.0267 119.569 37.88C119.269 37.7267 119.039 37.5067 118.879 37.22C118.719 36.9267 118.639 36.5767 118.639 36.17V34.05C118.639 33.6367 118.719 33.2867 118.879 33C119.039 32.7133 119.269 32.4967 119.569 32.35C119.876 32.1967 120.236 32.12 120.649 32.12C121.076 32.12 121.429 32.1933 121.709 32.34C121.996 32.4867 122.209 32.7033 122.349 32.99C122.496 33.2767 122.569 33.63 122.569 34.05V35.21H120.249V36.32C120.249 36.4667 120.266 36.5867 120.299 36.68C120.332 36.7733 120.379 36.84 120.439 36.88C120.499 36.92 120.569 36.94 120.649 36.94C120.729 36.94 120.799 36.9233 120.859 36.89C120.926 36.85 120.976 36.79 121.009 36.71C121.049 36.63 121.069 36.52 121.069 36.38V35.77H122.569V36.33C122.569 36.9167 122.399 37.36 122.059 37.66C121.719 37.9533 121.249 38.1 120.649 38.1ZM120.249 34.45H121.069V33.87C121.069 33.7167 121.049 33.5967 121.009 33.51C120.976 33.4233 120.926 33.3633 120.859 33.33C120.799 33.2967 120.726 33.28 120.639 33.28C120.559 33.28 120.489 33.3 120.429 33.34C120.376 33.38 120.332 33.45 120.299 33.55C120.266 33.6433 120.249 33.78 120.249 33.96V34.45ZM125.236 38.1C124.73 38.1 124.306 37.9867 123.966 37.76C123.633 37.5333 123.36 37.1633 123.146 36.65L124.256 36.16C124.363 36.42 124.486 36.6267 124.626 36.78C124.773 36.9267 124.933 37 125.106 37C125.233 37 125.326 36.9733 125.386 36.92C125.453 36.8667 125.486 36.7933 125.486 36.7C125.486 36.5467 125.426 36.4067 125.306 36.28C125.193 36.1533 124.986 35.9667 124.686 35.72L124.266 35.37C123.96 35.11 123.716 34.86 123.536 34.62C123.363 34.3733 123.276 34.07 123.276 33.71C123.276 33.3967 123.356 33.12 123.516 32.88C123.683 32.64 123.903 32.4533 124.176 32.32C124.45 32.1867 124.743 32.12 125.056 32.12C125.53 32.12 125.926 32.25 126.246 32.51C126.566 32.77 126.79 33.1367 126.916 33.61L125.866 34.09C125.826 33.9633 125.77 33.8367 125.696 33.71C125.623 33.5833 125.533 33.4767 125.426 33.39C125.326 33.3033 125.216 33.26 125.096 33.26C124.99 33.26 124.903 33.29 124.836 33.35C124.776 33.41 124.746 33.49 124.746 33.59C124.746 33.7167 124.816 33.8533 124.956 34C125.103 34.1467 125.303 34.3233 125.556 34.53L125.966 34.89C126.133 35.03 126.296 35.18 126.456 35.34C126.616 35.5 126.746 35.6767 126.846 35.87C126.953 36.0633 127.006 36.2833 127.006 36.53C127.006 36.8633 126.923 37.15 126.756 37.39C126.59 37.6233 126.37 37.8 126.096 37.92C125.83 38.04 125.543 38.1 125.236 38.1Z"></path>
</svg>
