<svg xmlns="http://www.w3.org/2000/svg" fill="none" viewBox="0 0 214 84" height="84" width="214">
<mask fill="white" id="path-1-inside-1_1461_22">
<path d="M0 0H214V84H0V0Z"></path>
</mask>
<path fill="#0D0E12" d="M0 0H214V84H0V0Z"></path>
<path mask="url(#path-1-inside-1_1461_22)" fill="white" d="M0 0V-1H-1V0H0ZM0 84H-1V85H0V84ZM0 1H214V-1H0V1ZM214 83H0V85H214V83ZM1 84V0H-1V84H1Z"></path>
<path fill="white" d="M16.684 38L16.852 28.28H19.156L20.224 33.932L21.376 28.28H23.596L23.764 38H22.24L22.06 31.532L20.932 38H19.576L18.376 31.484L18.232 38H16.684ZM25.1692 38V28.28H29.5372V29.744H27.3172V32.156H29.0092V33.644H27.3172V36.548H29.5612V38H25.1692ZM33.1164 38.144C32.5084 38.144 32.0004 38.036 31.5924 37.82C31.1844 37.604 30.8764 37.272 30.6684 36.824C30.4604 36.368 30.3444 35.78 30.3204 35.06L32.1564 34.784C32.1644 35.2 32.2004 35.536 32.2644 35.792C32.3364 36.048 32.4324 36.232 32.5524 36.344C32.6804 36.456 32.8324 36.512 33.0084 36.512C33.2324 36.512 33.3764 36.436 33.4404 36.284C33.5124 36.132 33.5484 35.972 33.5484 35.804C33.5484 35.404 33.4524 35.068 33.2604 34.796C33.0684 34.516 32.8084 34.236 32.4804 33.956L31.6404 33.224C31.2724 32.912 30.9604 32.56 30.7044 32.168C30.4564 31.768 30.3324 31.276 30.3324 30.692C30.3324 29.868 30.5764 29.24 31.0644 28.808C31.5524 28.368 32.2164 28.148 33.0564 28.148C33.5764 28.148 33.9924 28.236 34.3044 28.412C34.6244 28.588 34.8644 28.82 35.0244 29.108C35.1924 29.388 35.3044 29.688 35.3604 30.008C35.4244 30.32 35.4604 30.62 35.4684 30.908L33.6204 31.136C33.6124 30.848 33.5924 30.6 33.5604 30.392C33.5364 30.176 33.4804 30.012 33.3924 29.9C33.3044 29.78 33.1684 29.72 32.9844 29.72C32.7844 29.72 32.6364 29.804 32.5404 29.972C32.4524 30.14 32.4084 30.308 32.4084 30.476C32.4084 30.836 32.4924 31.132 32.6604 31.364C32.8364 31.588 33.0644 31.824 33.3444 32.072L34.1484 32.78C34.5724 33.14 34.9284 33.548 35.2164 34.004C35.5124 34.46 35.6604 35.024 35.6604 35.696C35.6604 36.152 35.5564 36.568 35.3484 36.944C35.1404 37.312 34.8444 37.604 34.4604 37.82C34.0844 38.036 33.6364 38.144 33.1164 38.144ZM39.093 38.144C38.485 38.144 37.977 38.036 37.569 37.82C37.161 37.604 36.853 37.272 36.645 36.824C36.437 36.368 36.321 35.78 36.297 35.06L38.133 34.784C38.141 35.2 38.177 35.536 38.241 35.792C38.313 36.048 38.409 36.232 38.529 36.344C38.657 36.456 38.809 36.512 38.985 36.512C39.209 36.512 39.353 36.436 39.417 36.284C39.489 36.132 39.525 35.972 39.525 35.804C39.525 35.404 39.429 35.068 39.237 34.796C39.045 34.516 38.785 34.236 38.457 33.956L37.617 33.224C37.249 32.912 36.937 32.56 36.681 32.168C36.433 31.768 36.309 31.276 36.309 30.692C36.309 29.868 36.553 29.24 37.041 28.808C37.529 28.368 38.193 28.148 39.033 28.148C39.553 28.148 39.969 28.236 40.281 28.412C40.601 28.588 40.841 28.82 41.001 29.108C41.169 29.388 41.281 29.688 41.337 30.008C41.401 30.32 41.437 30.62 41.445 30.908L39.597 31.136C39.589 30.848 39.569 30.6 39.537 30.392C39.513 30.176 39.457 30.012 39.369 29.9C39.281 29.78 39.145 29.72 38.961 29.72C38.761 29.72 38.613 29.804 38.517 29.972C38.429 30.14 38.385 30.308 38.385 30.476C38.385 30.836 38.469 31.132 38.637 31.364C38.813 31.588 39.041 31.824 39.321 32.072L40.125 32.78C40.549 33.14 40.905 33.548 41.193 34.004C41.489 34.46 41.637 35.024 41.637 35.696C41.637 36.152 41.533 36.568 41.325 36.944C41.117 37.312 40.821 37.604 40.437 37.82C40.061 38.036 39.613 38.144 39.093 38.144ZM42.1153 38L43.9513 28.28H46.3993L48.2113 38H46.2313L45.9073 35.948H44.4793L44.1433 38H42.1153ZM44.6713 34.664H45.7033L45.1873 30.872L44.6713 34.664ZM51.5723 38.144C50.9003 38.144 50.3683 38.004 49.9763 37.724C49.5923 37.444 49.3163 37.052 49.1483 36.548C48.9883 36.036 48.9083 35.448 48.9083 34.784V31.52C48.9083 30.832 48.9963 30.236 49.1723 29.732C49.3483 29.228 49.6483 28.84 50.0723 28.568C50.5043 28.288 51.0883 28.148 51.8243 28.148C52.5443 28.148 53.1083 28.268 53.5163 28.508C53.9323 28.748 54.2283 29.08 54.4043 29.504C54.5803 29.928 54.6683 30.424 54.6683 30.992V31.616H52.5683V30.824C52.5683 30.616 52.5523 30.424 52.5203 30.248C52.4963 30.072 52.4323 29.932 52.3283 29.828C52.2323 29.716 52.0723 29.66 51.8483 29.66C51.6163 29.66 51.4483 29.724 51.3443 29.852C51.2403 29.972 51.1723 30.124 51.1403 30.308C51.1163 30.492 51.1043 30.684 51.1043 30.884V35.384C51.1043 35.6 51.1243 35.804 51.1643 35.996C51.2123 36.18 51.2923 36.332 51.4043 36.452C51.5243 36.564 51.6923 36.62 51.9083 36.62C52.1323 36.62 52.3043 36.56 52.4243 36.44C52.5443 36.32 52.6283 36.164 52.6763 35.972C52.7243 35.78 52.7483 35.576 52.7483 35.36V34.22H51.8723V32.96H54.6803V38H53.2643L53.1443 37.196C53.0163 37.468 52.8283 37.696 52.5803 37.88C52.3323 38.056 51.9963 38.144 51.5723 38.144ZM56.0247 38V28.28H60.3927V29.744H58.1727V32.156H59.8647V33.644H58.1727V36.548H60.4167V38H56.0247Z"></path>
<path fill="white" d="M17.87 56V53.14L16.12 47.9H17.17L18.41 51.81L19.63 47.9H20.69L18.95 53.14V56H17.87ZM22.7491 56.08C22.3225 56.08 21.9858 55.9933 21.7391 55.82C21.4925 55.6467 21.3158 55.4 21.2091 55.08C21.1091 54.76 21.0591 54.3833 21.0591 53.95V52.27C21.0591 51.8367 21.1091 51.46 21.2091 51.14C21.3158 50.82 21.4925 50.5733 21.7391 50.4C21.9858 50.2267 22.3225 50.14 22.7491 50.14C23.1758 50.14 23.5091 50.2267 23.7491 50.4C23.9958 50.5733 24.1691 50.82 24.2691 51.14C24.3758 51.46 24.4291 51.8367 24.4291 52.27V53.95C24.4291 54.3833 24.3758 54.76 24.2691 55.08C24.1691 55.4 23.9958 55.6467 23.7491 55.82C23.5091 55.9933 23.1758 56.08 22.7491 56.08ZM22.7491 55.29C22.9558 55.29 23.0991 55.23 23.1791 55.11C23.2658 54.99 23.3158 54.8333 23.3291 54.64C23.3491 54.44 23.3591 54.2333 23.3591 54.02V52.21C23.3591 51.99 23.3491 51.7833 23.3291 51.59C23.3158 51.3967 23.2658 51.24 23.1791 51.12C23.0991 50.9933 22.9558 50.93 22.7491 50.93C22.5425 50.93 22.3958 50.9933 22.3091 51.12C22.2225 51.24 22.1691 51.3967 22.1491 51.59C22.1358 51.7833 22.1291 51.99 22.1291 52.21V54.02C22.1291 54.2333 22.1358 54.44 22.1491 54.64C22.1691 54.8333 22.2225 54.99 22.3091 55.11C22.3958 55.23 22.5425 55.29 22.7491 55.29ZM26.2372 56.08C26.0105 56.08 25.8339 56.02 25.7072 55.9C25.5805 55.78 25.4905 55.63 25.4372 55.45C25.3905 55.27 25.3672 55.0867 25.3672 54.9V50.22H26.4372V54.58C26.4372 54.7867 26.4672 54.95 26.5272 55.07C26.5872 55.1833 26.7105 55.24 26.8972 55.24C27.0172 55.24 27.1405 55.2067 27.2672 55.14C27.4005 55.0667 27.5272 54.98 27.6472 54.88V50.22H28.7172V56H27.6472V55.43C27.4605 55.61 27.2472 55.7633 27.0072 55.89C26.7739 56.0167 26.5172 56.08 26.2372 56.08ZM33.6866 56.08C33.26 56.08 32.9233 55.9933 32.6766 55.82C32.43 55.6467 32.2533 55.4 32.1466 55.08C32.0466 54.76 31.9966 54.3833 31.9966 53.95V52.27C31.9966 51.8367 32.0466 51.46 32.1466 51.14C32.2533 50.82 32.43 50.5733 32.6766 50.4C32.9233 50.2267 33.26 50.14 33.6866 50.14C34.1133 50.14 34.4466 50.2267 34.6866 50.4C34.9333 50.5733 35.1066 50.82 35.2066 51.14C35.3133 51.46 35.3666 51.8367 35.3666 52.27V53.95C35.3666 54.3833 35.3133 54.76 35.2066 55.08C35.1066 55.4 34.9333 55.6467 34.6866 55.82C34.4466 55.9933 34.1133 56.08 33.6866 56.08ZM33.6866 55.29C33.8933 55.29 34.0366 55.23 34.1166 55.11C34.2033 54.99 34.2533 54.8333 34.2666 54.64C34.2866 54.44 34.2966 54.2333 34.2966 54.02V52.21C34.2966 51.99 34.2866 51.7833 34.2666 51.59C34.2533 51.3967 34.2033 51.24 34.1166 51.12C34.0366 50.9933 33.8933 50.93 33.6866 50.93C33.48 50.93 33.3333 50.9933 33.2466 51.12C33.16 51.24 33.1066 51.3967 33.0866 51.59C33.0733 51.7833 33.0666 51.99 33.0666 52.21V54.02C33.0666 54.2333 33.0733 54.44 33.0866 54.64C33.1066 54.8333 33.16 54.99 33.2466 55.11C33.3333 55.23 33.48 55.29 33.6866 55.29ZM36.3747 56V50.22H37.4447V51.04C37.658 50.6867 37.8714 50.45 38.0847 50.33C38.298 50.21 38.5114 50.15 38.7247 50.15C38.7514 50.15 38.7747 50.15 38.7947 50.15C38.8214 50.15 38.8547 50.1533 38.8947 50.16V51.34C38.8147 51.3067 38.7214 51.28 38.6147 51.26C38.5147 51.2333 38.4114 51.22 38.3047 51.22C38.138 51.22 37.9847 51.26 37.8447 51.34C37.7114 51.4133 37.578 51.56 37.4447 51.78V56H36.3747ZM41.7527 57.45V56.63C42.0127 56.63 42.2194 56.6167 42.3727 56.59C42.5261 56.57 42.6361 56.5267 42.7027 56.46C42.7694 56.4 42.8027 56.3133 42.8027 56.2C42.8027 56.14 42.7794 56.0067 42.7327 55.8C42.6861 55.5933 42.6361 55.3733 42.5827 55.14L41.4227 50.22H42.5027L43.2827 54.54L44.0327 50.22H45.1127L43.7327 56.32C43.6727 56.6 43.5627 56.82 43.4027 56.98C43.2427 57.1467 43.0361 57.2667 42.7827 57.34C42.5361 57.4133 42.2361 57.45 41.8827 57.45H41.7527ZM47.3488 56.08C46.9221 56.08 46.5854 55.9933 46.3388 55.82C46.0921 55.6467 45.9154 55.4 45.8088 55.08C45.7088 54.76 45.6588 54.3833 45.6588 53.95V52.27C45.6588 51.8367 45.7088 51.46 45.8088 51.14C45.9154 50.82 46.0921 50.5733 46.3388 50.4C46.5854 50.2267 46.9221 50.14 47.3488 50.14C47.7754 50.14 48.1088 50.2267 48.3488 50.4C48.5954 50.5733 48.7688 50.82 48.8688 51.14C48.9754 51.46 49.0288 51.8367 49.0288 52.27V53.95C49.0288 54.3833 48.9754 54.76 48.8688 55.08C48.7688 55.4 48.5954 55.6467 48.3488 55.82C48.1088 55.9933 47.7754 56.08 47.3488 56.08ZM47.3488 55.29C47.5554 55.29 47.6988 55.23 47.7788 55.11C47.8654 54.99 47.9154 54.8333 47.9288 54.64C47.9488 54.44 47.9588 54.2333 47.9588 54.02V52.21C47.9588 51.99 47.9488 51.7833 47.9288 51.59C47.9154 51.3967 47.8654 51.24 47.7788 51.12C47.6988 50.9933 47.5554 50.93 47.3488 50.93C47.1421 50.93 46.9954 50.9933 46.9088 51.12C46.8221 51.24 46.7688 51.3967 46.7488 51.59C46.7354 51.7833 46.7288 51.99 46.7288 52.21V54.02C46.7288 54.2333 46.7354 54.44 46.7488 54.64C46.7688 54.8333 46.8221 54.99 46.9088 55.11C46.9954 55.23 47.1421 55.29 47.3488 55.29ZM50.8368 56.08C50.6101 56.08 50.4335 56.02 50.3068 55.9C50.1801 55.78 50.0901 55.63 50.0368 55.45C49.9901 55.27 49.9668 55.0867 49.9668 54.9V50.22H51.0368V54.58C51.0368 54.7867 51.0668 54.95 51.1268 55.07C51.1868 55.1833 51.3101 55.24 51.4968 55.24C51.6168 55.24 51.7401 55.2067 51.8668 55.14C52.0001 55.0667 52.1268 54.98 52.2468 54.88V50.22H53.3168V56H52.2468V55.43C52.0601 55.61 51.8468 55.7633 51.6068 55.89C51.3735 56.0167 51.1168 56.08 50.8368 56.08ZM54.4411 56V50.22H55.5111V51.04C55.7244 50.6867 55.9378 50.45 56.1511 50.33C56.3644 50.21 56.5778 50.15 56.7911 50.15C56.8178 50.15 56.8411 50.15 56.8611 50.15C56.8878 50.15 56.9211 50.1533 56.9611 50.16V51.34C56.8811 51.3067 56.7878 51.28 56.6811 51.26C56.5811 51.2333 56.4778 51.22 56.3711 51.22C56.2044 51.22 56.0511 51.26 55.9111 51.34C55.7778 51.4133 55.6444 51.56 55.5111 51.78V56H54.4411ZM61.4991 56.08C61.0725 56.08 60.7358 55.9933 60.4891 55.82C60.2425 55.6467 60.0658 55.4 59.9591 55.08C59.8591 54.76 59.8091 54.3833 59.8091 53.95V52.27C59.8091 51.8367 59.8591 51.46 59.9591 51.14C60.0658 50.82 60.2425 50.5733 60.4891 50.4C60.7358 50.2267 61.0725 50.14 61.4991 50.14C61.9258 50.14 62.2591 50.2267 62.4991 50.4C62.7458 50.5733 62.9191 50.82 63.0191 51.14C63.1258 51.46 63.1791 51.8367 63.1791 52.27V53.95C63.1791 54.3833 63.1258 54.76 63.0191 55.08C62.9191 55.4 62.7458 55.6467 62.4991 55.82C62.2591 55.9933 61.9258 56.08 61.4991 56.08ZM61.4991 55.29C61.7058 55.29 61.8491 55.23 61.9291 55.11C62.0158 54.99 62.0658 54.8333 62.0791 54.64C62.0991 54.44 62.1091 54.2333 62.1091 54.02V52.21C62.1091 51.99 62.0991 51.7833 62.0791 51.59C62.0658 51.3967 62.0158 51.24 61.9291 51.12C61.8491 50.9933 61.7058 50.93 61.4991 50.93C61.2925 50.93 61.1458 50.9933 61.0591 51.12C60.9725 51.24 60.9191 51.3967 60.8991 51.59C60.8858 51.7833 60.8791 51.99 60.8791 52.21V54.02C60.8791 54.2333 60.8858 54.44 60.8991 54.64C60.9191 54.8333 60.9725 54.99 61.0591 55.11C61.1458 55.23 61.2925 55.29 61.4991 55.29ZM64.1572 57.9V50.22H65.2272V50.68C65.3539 50.5333 65.5072 50.4067 65.6872 50.3C65.8672 50.1933 66.0805 50.14 66.3272 50.14C66.6272 50.14 66.8639 50.22 67.0372 50.38C67.2172 50.5333 67.3505 50.73 67.4372 50.97C67.5239 51.2033 67.5805 51.4433 67.6072 51.69C67.6339 51.93 67.6472 52.1367 67.6472 52.31V53.71C67.6472 54.1167 67.6072 54.5033 67.5272 54.87C67.4472 55.23 67.3005 55.5233 67.0872 55.75C66.8805 55.97 66.5872 56.08 66.2072 56.08C66.0005 56.08 65.8172 56.03 65.6572 55.93C65.4972 55.8233 65.3539 55.7033 65.2272 55.57V57.9H64.1572ZM65.9972 55.24C66.1839 55.24 66.3172 55.1733 66.3972 55.04C66.4772 54.9 66.5272 54.7133 66.5472 54.48C66.5672 54.2467 66.5772 53.99 66.5772 53.71V52.31C66.5772 52.07 66.5639 51.85 66.5372 51.65C66.5105 51.4433 66.4539 51.28 66.3672 51.16C66.2805 51.04 66.1439 50.98 65.9572 50.98C65.8172 50.98 65.6839 51.01 65.5572 51.07C65.4305 51.13 65.3205 51.2 65.2272 51.28V54.98C65.3272 55.0533 65.4405 55.1167 65.5672 55.17C65.6939 55.2167 65.8372 55.24 65.9972 55.24ZM68.6201 57.9V50.22H69.6901V50.68C69.8167 50.5333 69.9701 50.4067 70.1501 50.3C70.3301 50.1933 70.5434 50.14 70.7901 50.14C71.0901 50.14 71.3267 50.22 71.5001 50.38C71.6801 50.5333 71.8134 50.73 71.9001 50.97C71.9867 51.2033 72.0434 51.4433 72.0701 51.69C72.0967 51.93 72.1101 52.1367 72.1101 52.31V53.71C72.1101 54.1167 72.0701 54.5033 71.9901 54.87C71.9101 55.23 71.7634 55.5233 71.5501 55.75C71.3434 55.97 71.0501 56.08 70.6701 56.08C70.4634 56.08 70.2801 56.03 70.1201 55.93C69.9601 55.8233 69.8167 55.7033 69.6901 55.57V57.9H68.6201ZM70.4601 55.24C70.6467 55.24 70.7801 55.1733 70.8601 55.04C70.9401 54.9 70.9901 54.7133 71.0101 54.48C71.0301 54.2467 71.0401 53.99 71.0401 53.71V52.31C71.0401 52.07 71.0267 51.85 71.0001 51.65C70.9734 51.4433 70.9167 51.28 70.8301 51.16C70.7434 51.04 70.6067 50.98 70.4201 50.98C70.2801 50.98 70.1467 51.01 70.0201 51.07C69.8934 51.13 69.7834 51.2 69.6901 51.28V54.98C69.7901 55.0533 69.9034 55.1167 70.0301 55.17C70.1567 55.2167 70.3001 55.24 70.4601 55.24ZM74.673 56.08C74.2463 56.08 73.9096 55.9933 73.663 55.82C73.4163 55.6467 73.2396 55.4 73.133 55.08C73.033 54.76 72.983 54.3833 72.983 53.95V52.27C72.983 51.8367 73.033 51.46 73.133 51.14C73.2396 50.82 73.4163 50.5733 73.663 50.4C73.9096 50.2267 74.2463 50.14 74.673 50.14C75.0996 50.14 75.433 50.2267 75.673 50.4C75.9196 50.5733 76.093 50.82 76.193 51.14C76.2996 51.46 76.353 51.8367 76.353 52.27V53.95C76.353 54.3833 76.2996 54.76 76.193 55.08C76.093 55.4 75.9196 55.6467 75.673 55.82C75.433 55.9933 75.0996 56.08 74.673 56.08ZM74.673 55.29C74.8796 55.29 75.023 55.23 75.103 55.11C75.1896 54.99 75.2396 54.8333 75.253 54.64C75.273 54.44 75.283 54.2333 75.283 54.02V52.21C75.283 51.99 75.273 51.7833 75.253 51.59C75.2396 51.3967 75.1896 51.24 75.103 51.12C75.023 50.9933 74.8796 50.93 74.673 50.93C74.4663 50.93 74.3196 50.9933 74.233 51.12C74.1463 51.24 74.093 51.3967 74.073 51.59C74.0596 51.7833 74.053 51.99 74.053 52.21V54.02C74.053 54.2333 74.0596 54.44 74.073 54.64C74.093 54.8333 74.1463 54.99 74.233 55.11C74.3196 55.23 74.4663 55.29 74.673 55.29ZM77.331 56V50.22H78.401V50.79C78.5943 50.61 78.8077 50.4567 79.041 50.33C79.2743 50.2033 79.531 50.14 79.811 50.14C80.0443 50.14 80.221 50.2 80.341 50.32C80.4677 50.44 80.5543 50.59 80.601 50.77C80.6543 50.95 80.681 51.1333 80.681 51.32V56H79.611V51.63C79.611 51.4233 79.581 51.2633 79.521 51.15C79.461 51.0367 79.3377 50.98 79.151 50.98C79.031 50.98 78.9043 51.0167 78.771 51.09C78.6443 51.1567 78.521 51.24 78.401 51.34V56H77.331ZM83.3255 56.08C82.8722 56.08 82.5222 55.9933 82.2755 55.82C82.0289 55.64 81.8555 55.38 81.7555 55.04C81.6622 54.6933 81.6155 54.27 81.6155 53.77V52.45C81.6155 51.9367 81.6655 51.51 81.7655 51.17C81.8655 50.83 82.0389 50.5733 82.2855 50.4C82.5389 50.2267 82.8855 50.14 83.3255 50.14C83.8122 50.14 84.1689 50.24 84.3955 50.44C84.6289 50.64 84.7822 50.93 84.8555 51.31C84.9289 51.6833 84.9655 52.1333 84.9655 52.66V53.13H82.6855V54.29C82.6855 54.5233 82.7055 54.7133 82.7455 54.86C82.7922 55.0067 82.8622 55.1167 82.9555 55.19C83.0555 55.2567 83.1822 55.29 83.3355 55.29C83.4955 55.29 83.6155 55.2533 83.6955 55.18C83.7822 55.1 83.8389 54.99 83.8655 54.85C83.8989 54.7033 83.9155 54.5333 83.9155 54.34V53.99H84.9555V54.21C84.9555 54.79 84.8322 55.2467 84.5855 55.58C84.3389 55.9133 83.9189 56.08 83.3255 56.08ZM82.6855 52.55H83.9155V52.03C83.9155 51.79 83.9022 51.59 83.8755 51.43C83.8489 51.2633 83.7922 51.14 83.7055 51.06C83.6255 50.9733 83.4955 50.93 83.3155 50.93C83.1422 50.93 83.0089 50.97 82.9155 51.05C82.8289 51.13 82.7689 51.2667 82.7355 51.46C82.7022 51.6467 82.6855 51.9067 82.6855 52.24V52.55ZM85.9345 56V50.22H87.0045V50.79C87.1979 50.61 87.4112 50.4567 87.6445 50.33C87.8779 50.2033 88.1345 50.14 88.4145 50.14C88.6479 50.14 88.8245 50.2 88.9445 50.32C89.0712 50.44 89.1579 50.59 89.2045 50.77C89.2579 50.95 89.2845 51.1333 89.2845 51.32V56H88.2145V51.63C88.2145 51.4233 88.1845 51.2633 88.1245 51.15C88.0645 51.0367 87.9412 50.98 87.7545 50.98C87.6345 50.98 87.5079 51.0167 87.3745 51.09C87.2479 51.1567 87.1245 51.24 87.0045 51.34V56H85.9345ZM91.8691 56.08C91.5691 56.08 91.3257 56.0233 91.1391 55.91C90.9591 55.7967 90.8257 55.6367 90.7391 55.43C90.6591 55.2233 90.6191 54.98 90.6191 54.7V50.93H90.0091V50.22H90.6191V48.53H91.6891V50.22H92.6191V50.93H91.6891V54.63C91.6891 54.8567 91.7257 55.02 91.7991 55.12C91.8724 55.2133 92.0124 55.26 92.2191 55.26C92.2724 55.26 92.3324 55.2567 92.3991 55.25C92.4724 55.2433 92.5424 55.2367 92.6091 55.23V56.02C92.4757 56.04 92.3524 56.0533 92.2391 56.06C92.1257 56.0733 92.0024 56.08 91.8691 56.08ZM95.7204 56V47.9H96.7904V50.82C96.9837 50.6333 97.2004 50.4733 97.4404 50.34C97.6804 50.2067 97.9471 50.14 98.2404 50.14C98.4671 50.14 98.6404 50.2 98.7604 50.32C98.8871 50.44 98.9737 50.59 99.0204 50.77C99.0737 50.95 99.1004 51.1333 99.1004 51.32V56H98.0304V51.63C98.0304 51.4233 98.0004 51.2633 97.9404 51.15C97.8804 51.0367 97.7571 50.98 97.5704 50.98C97.4437 50.98 97.3104 51.0167 97.1704 51.09C97.0371 51.1633 96.9104 51.2533 96.7904 51.36V56H95.7204ZM101.184 56.08C100.957 56.08 100.757 56.0167 100.584 55.89C100.41 55.7567 100.274 55.59 100.174 55.39C100.074 55.1833 100.024 54.9667 100.024 54.74C100.024 54.38 100.084 54.0767 100.204 53.83C100.324 53.5833 100.487 53.3767 100.694 53.21C100.907 53.0367 101.15 52.8867 101.424 52.76C101.704 52.6333 101.997 52.51 102.304 52.39V51.98C102.304 51.7467 102.29 51.5533 102.264 51.4C102.237 51.2467 102.18 51.1333 102.094 51.06C102.014 50.98 101.89 50.94 101.724 50.94C101.577 50.94 101.457 50.9733 101.364 51.04C101.277 51.1067 101.214 51.2033 101.174 51.33C101.134 51.45 101.114 51.5933 101.114 51.76V52.05L100.054 52.01C100.067 51.37 100.214 50.9 100.494 50.6C100.774 50.2933 101.207 50.14 101.794 50.14C102.367 50.14 102.774 50.2967 103.014 50.61C103.254 50.9233 103.374 51.3767 103.374 51.97V54.61C103.374 54.79 103.377 54.9633 103.384 55.13C103.397 55.2967 103.41 55.4533 103.424 55.6C103.444 55.74 103.46 55.8733 103.474 56H102.494C102.474 55.8933 102.447 55.76 102.414 55.6C102.387 55.4333 102.367 55.2833 102.354 55.15C102.287 55.3767 102.157 55.59 101.964 55.79C101.777 55.9833 101.517 56.08 101.184 56.08ZM101.604 55.16C101.71 55.16 101.81 55.13 101.904 55.07C101.997 55.01 102.08 54.9433 102.154 54.87C102.227 54.79 102.277 54.7267 102.304 54.68V53.04C102.137 53.1333 101.98 53.2267 101.834 53.32C101.687 53.4133 101.557 53.5133 101.444 53.62C101.337 53.72 101.25 53.8367 101.184 53.97C101.124 54.0967 101.094 54.2433 101.094 54.41C101.094 54.6433 101.137 54.8267 101.224 54.96C101.31 55.0933 101.437 55.16 101.604 55.16ZM105.151 56L104.011 50.22H105.091L105.801 54.87L106.521 50.22H107.561L106.461 56H105.151ZM109.849 56.08C109.396 56.08 109.046 55.9933 108.799 55.82C108.552 55.64 108.379 55.38 108.279 55.04C108.186 54.6933 108.139 54.27 108.139 53.77V52.45C108.139 51.9367 108.189 51.51 108.289 51.17C108.389 50.83 108.562 50.5733 108.809 50.4C109.062 50.2267 109.409 50.14 109.849 50.14C110.336 50.14 110.692 50.24 110.919 50.44C111.152 50.64 111.306 50.93 111.379 51.31C111.452 51.6833 111.489 52.1333 111.489 52.66V53.13H109.209V54.29C109.209 54.5233 109.229 54.7133 109.269 54.86C109.316 55.0067 109.386 55.1167 109.479 55.19C109.579 55.2567 109.706 55.29 109.859 55.29C110.019 55.29 110.139 55.2533 110.219 55.18C110.306 55.1 110.362 54.99 110.389 54.85C110.422 54.7033 110.439 54.5333 110.439 54.34V53.99H111.479V54.21C111.479 54.79 111.356 55.2467 111.109 55.58C110.862 55.9133 110.442 56.08 109.849 56.08ZM109.209 52.55H110.439V52.03C110.439 51.79 110.426 51.59 110.399 51.43C110.372 51.2633 110.316 51.14 110.229 51.06C110.149 50.9733 110.019 50.93 109.839 50.93C109.666 50.93 109.532 50.97 109.439 51.05C109.352 51.13 109.292 51.2667 109.259 51.46C109.226 51.6467 109.209 51.9067 109.209 52.24V52.55ZM114.843 56V47.9H115.913V56H114.843ZM118.618 56.08C118.192 56.08 117.855 55.9933 117.608 55.82C117.362 55.6467 117.185 55.4 117.078 55.08C116.978 54.76 116.928 54.3833 116.928 53.95V52.27C116.928 51.8367 116.978 51.46 117.078 51.14C117.185 50.82 117.362 50.5733 117.608 50.4C117.855 50.2267 118.192 50.14 118.618 50.14C119.045 50.14 119.378 50.2267 119.618 50.4C119.865 50.5733 120.038 50.82 120.138 51.14C120.245 51.46 120.298 51.8367 120.298 52.27V53.95C120.298 54.3833 120.245 54.76 120.138 55.08C120.038 55.4 119.865 55.6467 119.618 55.82C119.378 55.9933 119.045 56.08 118.618 56.08ZM118.618 55.29C118.825 55.29 118.968 55.23 119.048 55.11C119.135 54.99 119.185 54.8333 119.198 54.64C119.218 54.44 119.228 54.2333 119.228 54.02V52.21C119.228 51.99 119.218 51.7833 119.198 51.59C119.185 51.3967 119.135 51.24 119.048 51.12C118.968 50.9933 118.825 50.93 118.618 50.93C118.412 50.93 118.265 50.9933 118.178 51.12C118.092 51.24 118.038 51.3967 118.018 51.59C118.005 51.7833 117.998 51.99 117.998 52.21V54.02C117.998 54.2333 118.005 54.44 118.018 54.64C118.038 54.8333 118.092 54.99 118.178 55.11C118.265 55.23 118.412 55.29 118.618 55.29ZM122.616 56.08C122.143 56.08 121.763 55.9333 121.476 55.64C121.19 55.34 121.026 54.9467 120.986 54.46L121.876 54.19C121.93 54.5567 122.02 54.8333 122.146 55.02C122.273 55.2 122.46 55.29 122.706 55.29C122.9 55.29 123.046 55.2367 123.146 55.13C123.246 55.0167 123.296 54.8667 123.296 54.68C123.296 54.5133 123.26 54.3633 123.186 54.23C123.113 54.0967 122.993 53.96 122.826 53.82L121.836 52.97C121.636 52.7967 121.466 52.6033 121.326 52.39C121.193 52.1767 121.126 51.9 121.126 51.56C121.126 51.2533 121.186 50.9967 121.306 50.79C121.433 50.5767 121.606 50.4167 121.826 50.31C122.053 50.1967 122.316 50.14 122.616 50.14C123.076 50.14 123.426 50.29 123.666 50.59C123.913 50.8833 124.053 51.24 124.086 51.66L123.366 51.93C123.34 51.73 123.3 51.5567 123.246 51.41C123.193 51.2567 123.12 51.14 123.026 51.06C122.933 50.9733 122.81 50.93 122.656 50.93C122.483 50.93 122.343 50.99 122.236 51.11C122.136 51.2233 122.086 51.36 122.086 51.52C122.086 51.62 122.106 51.72 122.146 51.82C122.193 51.9133 122.27 52.0067 122.376 52.1L123.396 53.04C123.536 53.1667 123.666 53.3033 123.786 53.45C123.913 53.5967 124.016 53.7633 124.096 53.95C124.176 54.1367 124.216 54.3533 124.216 54.6C124.216 54.9267 124.15 55.2 124.016 55.42C123.883 55.64 123.696 55.8067 123.456 55.92C123.216 56.0267 122.936 56.08 122.616 56.08ZM126.557 56.08C126.257 56.08 126.013 56.0233 125.827 55.91C125.647 55.7967 125.513 55.6367 125.427 55.43C125.347 55.2233 125.307 54.98 125.307 54.7V50.93H124.697V50.22H125.307V48.53H126.377V50.22H127.307V50.93H126.377V54.63C126.377 54.8567 126.413 55.02 126.487 55.12C126.56 55.2133 126.7 55.26 126.907 55.26C126.96 55.26 127.02 55.2567 127.087 55.25C127.16 55.2433 127.23 55.2367 127.297 55.23V56.02C127.163 56.04 127.04 56.0533 126.927 56.06C126.813 56.0733 126.69 56.08 126.557 56.08ZM131.918 56.08C131.618 56.08 131.375 56.0233 131.188 55.91C131.008 55.7967 130.875 55.6367 130.788 55.43C130.708 55.2233 130.668 54.98 130.668 54.7V50.93H130.058V50.22H130.668V48.53H131.738V50.22H132.668V50.93H131.738V54.63C131.738 54.8567 131.775 55.02 131.848 55.12C131.921 55.2133 132.061 55.26 132.268 55.26C132.321 55.26 132.381 55.2567 132.448 55.25C132.521 55.2433 132.591 55.2367 132.658 55.23V56.02C132.525 56.04 132.401 56.0533 132.288 56.06C132.175 56.0733 132.051 56.08 131.918 56.08ZM133.484 56V47.9H134.554V50.82C134.747 50.6333 134.964 50.4733 135.204 50.34C135.444 50.2067 135.711 50.14 136.004 50.14C136.231 50.14 136.404 50.2 136.524 50.32C136.651 50.44 136.737 50.59 136.784 50.77C136.837 50.95 136.864 51.1333 136.864 51.32V56H135.794V51.63C135.794 51.4233 135.764 51.2633 135.704 51.15C135.644 51.0367 135.521 50.98 135.334 50.98C135.207 50.98 135.074 51.0167 134.934 51.09C134.801 51.1633 134.674 51.2533 134.554 51.36V56H133.484ZM139.507 56.08C139.054 56.08 138.704 55.9933 138.457 55.82C138.211 55.64 138.037 55.38 137.937 55.04C137.844 54.6933 137.797 54.27 137.797 53.77V52.45C137.797 51.9367 137.847 51.51 137.947 51.17C138.047 50.83 138.221 50.5733 138.467 50.4C138.721 50.2267 139.067 50.14 139.507 50.14C139.994 50.14 140.351 50.24 140.577 50.44C140.811 50.64 140.964 50.93 141.037 51.31C141.111 51.6833 141.147 52.1333 141.147 52.66V53.13H138.867V54.29C138.867 54.5233 138.887 54.7133 138.927 54.86C138.974 55.0067 139.044 55.1167 139.137 55.19C139.237 55.2567 139.364 55.29 139.517 55.29C139.677 55.29 139.797 55.2533 139.877 55.18C139.964 55.1 140.021 54.99 140.047 54.85C140.081 54.7033 140.097 54.5333 140.097 54.34V53.99H141.137V54.21C141.137 54.79 141.014 55.2467 140.767 55.58C140.521 55.9133 140.101 56.08 139.507 56.08ZM138.867 52.55H140.097V52.03C140.097 51.79 140.084 51.59 140.057 51.43C140.031 51.2633 139.974 51.14 139.887 51.06C139.807 50.9733 139.677 50.93 139.497 50.93C139.324 50.93 139.191 50.97 139.097 51.05C139.011 51.13 138.951 51.2667 138.917 51.46C138.884 51.6467 138.867 51.9067 138.867 52.24V52.55ZM144.551 56V47.9H145.661V56H144.551ZM146.882 56V50.22H147.952V50.79C148.145 50.61 148.358 50.4567 148.592 50.33C148.825 50.2033 149.082 50.14 149.362 50.14C149.595 50.14 149.772 50.2 149.892 50.32C150.018 50.44 150.105 50.59 150.152 50.77C150.205 50.95 150.232 51.1333 150.232 51.32V56H149.162V51.63C149.162 51.4233 149.132 51.2633 149.072 51.15C149.012 51.0367 148.888 50.98 148.702 50.98C148.582 50.98 148.455 51.0167 148.322 51.09C148.195 51.1567 148.072 51.24 147.952 51.34V56H146.882ZM152.816 56.08C152.516 56.08 152.273 56.0233 152.086 55.91C151.906 55.7967 151.773 55.6367 151.686 55.43C151.606 55.2233 151.566 54.98 151.566 54.7V50.93H150.956V50.22H151.566V48.53H152.636V50.22H153.566V50.93H152.636V54.63C152.636 54.8567 152.673 55.02 152.746 55.12C152.82 55.2133 152.96 55.26 153.166 55.26C153.22 55.26 153.28 55.2567 153.346 55.25C153.42 55.2433 153.49 55.2367 153.556 55.23V56.02C153.423 56.04 153.3 56.0533 153.186 56.06C153.073 56.0733 152.95 56.08 152.816 56.08ZM155.953 56.08C155.499 56.08 155.149 55.9933 154.903 55.82C154.656 55.64 154.483 55.38 154.383 55.04C154.289 54.6933 154.243 54.27 154.243 53.77V52.45C154.243 51.9367 154.293 51.51 154.393 51.17C154.493 50.83 154.666 50.5733 154.913 50.4C155.166 50.2267 155.513 50.14 155.953 50.14C156.439 50.14 156.796 50.24 157.023 50.44C157.256 50.64 157.409 50.93 157.483 51.31C157.556 51.6833 157.593 52.1333 157.593 52.66V53.13H155.313V54.29C155.313 54.5233 155.333 54.7133 155.373 54.86C155.419 55.0067 155.489 55.1167 155.583 55.19C155.683 55.2567 155.809 55.29 155.963 55.29C156.123 55.29 156.243 55.2533 156.323 55.18C156.409 55.1 156.466 54.99 156.493 54.85C156.526 54.7033 156.543 54.5333 156.543 54.34V53.99H157.583V54.21C157.583 54.79 157.459 55.2467 157.213 55.58C156.966 55.9133 156.546 56.08 155.953 56.08ZM155.313 52.55H156.543V52.03C156.543 51.79 156.529 51.59 156.503 51.43C156.476 51.2633 156.419 51.14 156.333 51.06C156.253 50.9733 156.123 50.93 155.943 50.93C155.769 50.93 155.636 50.97 155.543 51.05C155.456 51.13 155.396 51.2667 155.363 51.46C155.329 51.6467 155.313 51.9067 155.313 52.24V52.55ZM158.591 56V50.22H159.661V51.04C159.875 50.6867 160.088 50.45 160.301 50.33C160.515 50.21 160.728 50.15 160.941 50.15C160.968 50.15 160.991 50.15 161.011 50.15C161.038 50.15 161.071 50.1533 161.111 50.16V51.34C161.031 51.3067 160.938 51.28 160.831 51.26C160.731 51.2333 160.628 51.22 160.521 51.22C160.355 51.22 160.201 51.26 160.061 51.34C159.928 51.4133 159.795 51.56 159.661 51.78V56H158.591ZM161.774 56V50.22H162.844V50.79C163.038 50.61 163.251 50.4567 163.484 50.33C163.718 50.2033 163.974 50.14 164.254 50.14C164.488 50.14 164.664 50.2 164.784 50.32C164.911 50.44 164.998 50.59 165.044 50.77C165.098 50.95 165.124 51.1333 165.124 51.32V56H164.054V51.63C164.054 51.4233 164.024 51.2633 163.964 51.15C163.904 51.0367 163.781 50.98 163.594 50.98C163.474 50.98 163.348 51.0167 163.214 51.09C163.088 51.1567 162.964 51.24 162.844 51.34V56H161.774ZM167.769 56.08C167.316 56.08 166.966 55.9933 166.719 55.82C166.472 55.64 166.299 55.38 166.199 55.04C166.106 54.6933 166.059 54.27 166.059 53.77V52.45C166.059 51.9367 166.109 51.51 166.209 51.17C166.309 50.83 166.482 50.5733 166.729 50.4C166.982 50.2267 167.329 50.14 167.769 50.14C168.256 50.14 168.612 50.24 168.839 50.44C169.072 50.64 169.226 50.93 169.299 51.31C169.372 51.6833 169.409 52.1333 169.409 52.66V53.13H167.129V54.29C167.129 54.5233 167.149 54.7133 167.189 54.86C167.236 55.0067 167.306 55.1167 167.399 55.19C167.499 55.2567 167.626 55.29 167.779 55.29C167.939 55.29 168.059 55.2533 168.139 55.18C168.226 55.1 168.282 54.99 168.309 54.85C168.342 54.7033 168.359 54.5333 168.359 54.34V53.99H169.399V54.21C169.399 54.79 169.276 55.2467 169.029 55.58C168.782 55.9133 168.362 56.08 167.769 56.08ZM167.129 52.55H168.359V52.03C168.359 51.79 168.346 51.59 168.319 51.43C168.292 51.2633 168.236 51.14 168.149 51.06C168.069 50.9733 167.939 50.93 167.759 50.93C167.586 50.93 167.452 50.97 167.359 51.05C167.272 51.13 167.212 51.2667 167.179 51.46C167.146 51.6467 167.129 51.9067 167.129 52.24V52.55ZM171.918 56.08C171.618 56.08 171.375 56.0233 171.188 55.91C171.008 55.7967 170.875 55.6367 170.788 55.43C170.708 55.2233 170.668 54.98 170.668 54.7V50.93H170.058V50.22H170.668V48.53H171.738V50.22H172.668V50.93H171.738V54.63C171.738 54.8567 171.775 55.02 171.848 55.12C171.921 55.2133 172.061 55.26 172.268 55.26C172.321 55.26 172.381 55.2567 172.448 55.25C172.521 55.2433 172.591 55.2367 172.658 55.23V56.02C172.525 56.04 172.401 56.0533 172.288 56.06C172.175 56.0733 172.051 56.08 171.918 56.08ZM173.404 56V54.81H174.474V56H173.404ZM175.289 56V54.81H176.359V56H175.289ZM177.174 56V54.81H178.244V56H177.174Z"></path>
</svg>
