<svg xmlns="http://www.w3.org/2000/svg" fill="none" viewBox="0 0 90 22" height="22" width="90">
<rect stroke="#0D0E12" fill="white" height="21" width="89" y="0.5" x="0.5"></rect>
<path fill="#0D0E12" d="M39.63 15V6.9H41.42V10.18H42.67V6.9H44.47V15H42.67V11.46H41.42V15H39.63ZM45.3135 15L46.8435 6.9H48.8835L50.3935 15H48.7435L48.4735 13.29H47.2835L47.0035 15H45.3135ZM47.4435 12.22H48.3035L47.8735 9.06L47.4435 12.22ZM53.2713 15.15C52.7047 15.15 52.258 15.0433 51.9313 14.83C51.6113 14.6167 51.3813 14.32 51.2413 13.94C51.108 13.5533 51.0413 13.11 51.0413 12.61V12.32H52.7213C52.7213 12.3333 52.7213 12.3733 52.7213 12.44C52.7213 12.5067 52.7213 12.57 52.7213 12.63C52.7213 13.03 52.7613 13.3167 52.8413 13.49C52.9213 13.6567 53.0747 13.74 53.3013 13.74C53.4547 13.74 53.568 13.7 53.6413 13.62C53.7213 13.54 53.7747 13.4233 53.8013 13.27C53.8347 13.11 53.8513 12.91 53.8513 12.67C53.8513 12.2633 53.7913 11.9567 53.6713 11.75C53.5513 11.5367 53.3013 11.4267 52.9213 11.42C52.9147 11.4133 52.8847 11.41 52.8313 11.41C52.7847 11.41 52.728 11.41 52.6613 11.41C52.5947 11.41 52.5313 11.41 52.4713 11.41V10.32C52.518 10.32 52.5647 10.32 52.6113 10.32C52.658 10.32 52.7047 10.32 52.7513 10.32C52.798 10.32 52.8413 10.32 52.8813 10.32C53.2747 10.3133 53.5347 10.2067 53.6613 10C53.788 9.79333 53.8513 9.48667 53.8513 9.08C53.8513 8.76667 53.8013 8.52667 53.7013 8.36C53.608 8.19333 53.448 8.11 53.2213 8.11C53.0013 8.11 52.848 8.2 52.7613 8.38C52.6813 8.55333 52.638 8.78667 52.6313 9.08C52.6313 9.09333 52.6313 9.15 52.6313 9.25C52.6313 9.34333 52.6313 9.43667 52.6313 9.53H50.9513V9.04C50.9513 8.55333 51.0447 8.14333 51.2313 7.81C51.4247 7.47 51.6913 7.21333 52.0313 7.04C52.3713 6.86667 52.7713 6.78 53.2313 6.78C53.7047 6.78 54.108 6.86333 54.4413 7.03C54.7813 7.19667 55.0413 7.44333 55.2213 7.77C55.4013 8.09 55.4913 8.49 55.4913 8.97C55.4913 9.44333 55.3947 9.84333 55.2013 10.17C55.008 10.49 54.7747 10.6867 54.5013 10.76C54.688 10.8333 54.8547 10.9433 55.0013 11.09C55.1547 11.23 55.2747 11.4233 55.3613 11.67C55.448 11.9167 55.4913 12.2333 55.4913 12.62C55.4913 13.1133 55.418 13.5533 55.2713 13.94C55.1313 14.32 54.898 14.6167 54.5713 14.83C54.2447 15.0433 53.8113 15.15 53.2713 15.15ZM56.085 15L57.615 6.9H59.655L61.165 15H59.515L59.245 13.29H58.055L57.775 15H56.085ZM58.215 12.22H59.075L58.645 9.06L58.215 12.22ZM61.5628 16.75V13.72H61.7928C61.9461 13.6733 62.0861 13.5933 62.2128 13.48C62.3461 13.36 62.4661 13.2 62.5728 13C62.6795 12.8 62.7761 12.55 62.8628 12.25C62.9495 11.95 63.0228 11.5933 63.0828 11.18C63.1428 10.76 63.1928 10.2767 63.2328 9.73L63.4528 6.9H67.2228V13.72H68.1328V16.75H66.9528L66.8628 15H62.8928L62.7928 16.75H61.5628ZM63.4828 13.72H65.5528V8.17H64.8028L64.7128 9.91C64.6795 10.4833 64.6295 10.97 64.5628 11.37C64.5028 11.77 64.4295 12.1033 64.3428 12.37C64.2628 12.63 64.1761 12.8433 64.0828 13.01C63.9895 13.1767 63.8895 13.3133 63.7828 13.42C63.6828 13.5267 63.5828 13.6267 63.4828 13.72Z"></path>
<path fill="#0D0E12" d="M32.6568 11.2427C32.6568 11.795 32.2091 12.2427 31.6568 12.2427L22.6568 12.2427C22.1045 12.2427 21.6568 11.795 21.6568 11.2427C21.6568 10.6904 22.1045 10.2427 22.6568 10.2427L31.6568 10.2427C32.2091 10.2427 32.6568 10.6904 32.6568 11.2427Z"></path>
<path fill="#0D0E12" d="M25.9498 14.7782C25.5593 15.1687 24.9261 15.1687 24.5356 14.7782L21.7071 11.9498C21.3166 11.5593 21.3166 10.9261 21.7071 10.5356C22.0977 10.145 22.7308 10.145 23.1214 10.5356L25.9498 13.364C26.3403 13.7545 26.3403 14.3877 25.9498 14.7782Z"></path>
<path fill="#0D0E12" d="M21.7071 11.9498C21.3166 11.5593 21.3166 10.9261 21.7071 10.5356L24.5355 7.70714C24.9261 7.31662 25.5592 7.31662 25.9497 7.70714C26.3403 8.09767 26.3403 8.73083 25.9497 9.12136L23.1213 11.9498C22.7308 12.3403 22.0976 12.3403 21.7071 11.9498Z"></path>
</svg>
