<svg xmlns="http://www.w3.org/2000/svg" fill="none" viewBox="0 0 104 22" height="22" width="104">
<rect fill="#0D0E12" height="22" width="104"></rect>
<path fill="white" d="M35.92 16.12C35.3067 16.12 34.82 16.01 34.46 15.79C34.1067 15.5633 33.8567 15.25 33.71 14.85C33.5633 14.4433 33.49 13.9667 33.49 13.42V10.5C33.49 9.94 33.5633 9.46 33.71 9.06C33.8567 8.65333 34.1067 8.34 34.46 8.12C34.82 7.9 35.3067 7.79 35.92 7.79C36.52 7.79 36.9867 7.89 37.32 8.09C37.66 8.28333 37.9 8.55667 38.04 8.91C38.18 9.26333 38.25 9.67 38.25 10.13V10.83H36.5V10.02C36.5 9.86 36.49 9.70667 36.47 9.56C36.4567 9.41333 36.41 9.29333 36.33 9.2C36.25 9.1 36.1133 9.05 35.92 9.05C35.7333 9.05 35.5933 9.1 35.5 9.2C35.4133 9.3 35.3567 9.42667 35.33 9.58C35.31 9.72667 35.3 9.88333 35.3 10.05V13.86C35.3 14.04 35.3133 14.2067 35.34 14.36C35.3733 14.5067 35.4333 14.6267 35.52 14.72C35.6133 14.8067 35.7467 14.85 35.92 14.85C36.1067 14.85 36.24 14.8033 36.32 14.71C36.4 14.61 36.45 14.4833 36.47 14.33C36.49 14.1767 36.5 14.02 36.5 13.86V13.01H38.25V13.71C38.25 14.17 38.18 14.5833 38.04 14.95C37.9067 15.31 37.67 15.5967 37.33 15.81C36.9967 16.0167 36.5267 16.12 35.92 16.12ZM38.7048 16V14.74C38.9314 14.74 39.1148 14.7267 39.2548 14.7C39.3948 14.6667 39.5048 14.5933 39.5848 14.48C39.6648 14.3667 39.7281 14.1933 39.7748 13.96C39.8214 13.7267 39.8581 13.4133 39.8848 13.02C39.9181 12.6267 39.9581 12.1267 40.0048 11.52L40.2648 7.9H44.5548V16H42.7748V9.27H41.8848L41.7248 11.86C41.6781 12.5267 41.6314 13.1033 41.5848 13.59C41.5381 14.07 41.4614 14.4733 41.3548 14.8C41.2548 15.1267 41.1014 15.3833 40.8948 15.57C40.6948 15.75 40.4181 15.8733 40.0648 15.94C39.7114 16.0067 39.2581 16.0267 38.7048 16ZM45.7273 17.59V16.41C46.0139 16.4167 46.2639 16.4033 46.4773 16.37C46.6906 16.3367 46.8639 16.2733 46.9973 16.18C47.1306 16.0867 47.2173 15.96 47.2573 15.8C47.3039 15.6333 47.2973 15.4267 47.2373 15.18L45.4173 7.9H47.0773L47.7773 11.23L48.1073 13.4L48.3473 11.22L48.9373 7.9H50.6173L48.9373 15.45C48.8573 15.8167 48.7639 16.1267 48.6573 16.38C48.5506 16.6333 48.4173 16.84 48.2573 17C48.1039 17.1667 47.9139 17.2933 47.6873 17.38C47.4606 17.4667 47.1839 17.5233 46.8573 17.55C46.5373 17.5833 46.1606 17.5967 45.7273 17.59ZM54.4044 16V12.67C54.071 12.7167 53.7444 12.74 53.4244 12.74C53.0377 12.74 52.671 12.6667 52.3244 12.52C51.9844 12.3667 51.7077 12.1467 51.4944 11.86C51.281 11.5667 51.1744 11.21 51.1744 10.79V7.9H52.9644V10.78C52.9644 10.9467 52.981 11.0967 53.0144 11.23C53.0544 11.3567 53.141 11.4567 53.2744 11.53C53.4144 11.6033 53.631 11.64 53.9244 11.64C53.9977 11.64 54.0744 11.6367 54.1544 11.63C54.2344 11.6233 54.3177 11.6133 54.4044 11.6V7.9H56.1944V16H54.4044ZM57.0381 16L58.5681 7.9H60.6081L62.1181 16H60.4681L60.1981 14.29H59.0081L58.7281 16H57.0381ZM59.1681 13.22H60.0281L59.5981 10.06L59.1681 13.22ZM62.9659 16V7.9H64.3759V12.54L66.4459 7.9H67.6059V16H66.1659V11.28L64.0559 16H62.9659ZM65.4159 7.25C64.9426 7.25 64.5626 7.11667 64.2759 6.85C63.9893 6.58333 63.8459 6.19667 63.8459 5.69H64.7659C64.7659 5.93667 64.8126 6.12 64.9059 6.24C65.0059 6.36 65.1759 6.42 65.4159 6.42C65.6493 6.42 65.8159 6.36 65.9159 6.24C66.0159 6.11333 66.0659 5.93 66.0659 5.69H66.9859C66.9859 6.19667 66.8426 6.58333 66.5559 6.85C66.2693 7.11667 65.8893 7.25 65.4159 7.25ZM68.8644 16V7.9H70.6544V11.18H71.9044V7.9H73.7044V16H71.9044V12.46H70.6544V16H68.8644ZM74.5479 16L76.0779 7.9H78.1179L79.6279 16H77.9779L77.7079 14.29H76.5179L76.2379 16H74.5479ZM76.6779 13.22H77.5379L77.1079 10.06L76.6779 13.22ZM79.9457 16L81.4857 12.4C81.179 12.2133 80.9257 11.94 80.7257 11.58C80.5324 11.22 80.4357 10.8 80.4357 10.32C80.4357 9.69333 80.5457 9.20667 80.7657 8.86C80.9857 8.50667 81.299 8.26 81.7057 8.12C82.119 7.97333 82.6124 7.9 83.1857 7.9H85.2657V16H83.4857V12.8H83.1657C83.159 12.8 83.1424 12.8 83.1157 12.8C83.089 12.8 83.069 12.8 83.0557 12.8L81.8757 16H79.9457ZM83.2257 11.54H83.4857V9.13H83.2057C82.839 9.13 82.5624 9.23333 82.3757 9.44C82.1957 9.64 82.1057 9.93667 82.1057 10.33C82.1057 10.6767 82.1857 10.9667 82.3457 11.2C82.5057 11.4267 82.799 11.54 83.2257 11.54Z"></path>
<rect fill="white" height="1.66667" width="1.66667" y="7" x="19"></rect>
<rect fill="white" height="1.66667" width="1.66667" y="8.66675" x="20.6666"></rect>
<rect fill="white" height="1.66667" width="1.66667" y="12" x="20.6666"></rect>
<rect fill="white" height="1.66667" width="1.66667" y="10.3333" x="24"></rect>
<rect fill="white" height="1.66667" width="1.66667" y="12" x="25.6666"></rect>
<rect fill="white" height="1.66667" width="1.66667" y="13.6667" x="22.3334"></rect>
<rect fill="white" height="1.66667" width="1.66667" y="13.6667" x="19"></rect>
<rect fill="white" height="1.66667" width="1.66667" y="13.6667" x="24"></rect>
<rect fill="white" height="1.66667" width="1.66667" y="15.3333" x="20.6666"></rect>
<rect fill="white" height="1.66667" width="1.66667" y="15.3333" x="27.3334"></rect>
<rect fill="white" height="1.66667" width="1.66667" y="7" x="25.6666"></rect>
<rect fill="white" height="1.66667" width="1.66667" y="10.3333" x="27.3334"></rect>
<rect fill="white" height="1.66667" width="1.66667" y="8.66675" x="27.3334"></rect>
<rect fill="white" height="1.66667" width="1.66667" y="7" x="22.3334"></rect>
</svg>
