<svg xmlns="http://www.w3.org/2000/svg" fill="none" viewBox="0 0 13 18" height="18" width="13">
<rect fill-opacity="0.01" fill="#0D0E12" height="18" width="13"></rect>
<path fill="white" d="M3.288 14V11.816H0.3V10.34L2.832 4.28H5.16V10.328H6.06V11.816H5.16V14H3.288ZM1.824 10.328H3.288V6.284L1.824 10.328ZM9.41297 14.156C8.75697 14.156 8.23297 14.028 7.84097 13.772C7.44897 13.508 7.16897 13.148 7.00097 12.692C6.83297 12.228 6.74897 11.7 6.74897 11.108C6.75697 10.868 6.78097 10.636 6.82097 10.412C6.86897 10.18 6.93697 9.968 7.02497 9.776C7.12097 9.576 7.23697 9.404 7.37297 9.26C7.51697 9.108 7.68497 8.984 7.87697 8.888C7.62897 8.704 7.40897 8.44 7.21697 8.096C7.02497 7.744 6.92097 7.3 6.90497 6.764C6.89697 6.22 6.98497 5.752 7.16897 5.36C7.36097 4.968 7.64497 4.668 8.02097 4.46C8.39697 4.252 8.86097 4.148 9.41297 4.148C9.97297 4.148 10.437 4.256 10.805 4.472C11.181 4.68 11.461 4.98 11.645 5.372C11.829 5.756 11.913 6.22 11.897 6.764C11.889 7.308 11.793 7.756 11.609 8.108C11.425 8.452 11.205 8.712 10.949 8.888C11.141 8.984 11.305 9.108 11.441 9.26C11.585 9.404 11.701 9.576 11.789 9.776C11.885 9.968 11.957 10.18 12.005 10.412C12.053 10.636 12.077 10.868 12.077 11.108C12.093 11.7 12.013 12.228 11.837 12.692C11.669 13.148 11.389 13.508 10.997 13.772C10.605 14.028 10.077 14.156 9.41297 14.156ZM9.41297 12.68C9.62897 12.68 9.78497 12.6 9.88097 12.44C9.97697 12.28 10.037 12.092 10.061 11.876C10.085 11.652 10.097 11.448 10.097 11.264C10.105 11.016 10.093 10.776 10.061 10.544C10.037 10.312 9.97697 10.124 9.88097 9.98C9.78497 9.828 9.62897 9.752 9.41297 9.752C9.20497 9.752 9.05297 9.828 8.95697 9.98C8.86097 10.124 8.79697 10.312 8.76497 10.544C8.74097 10.768 8.72897 11.008 8.72897 11.264C8.72897 11.448 8.74097 11.652 8.76497 11.876C8.78897 12.1 8.84897 12.292 8.94497 12.452C9.04897 12.604 9.20497 12.68 9.41297 12.68ZM9.41297 8.168C9.54897 8.168 9.66097 8.116 9.74897 8.012C9.83697 7.9 9.90097 7.736 9.94097 7.52C9.98897 7.304 10.013 7.036 10.013 6.716C10.013 6.388 9.96097 6.128 9.85697 5.936C9.76097 5.744 9.61297 5.648 9.41297 5.648C9.21297 5.648 9.05697 5.744 8.94497 5.936C8.84097 6.128 8.78897 6.384 8.78897 6.704C8.78897 7.024 8.80897 7.296 8.84897 7.52C8.89697 7.736 8.96897 7.9 9.06497 8.012C9.16097 8.116 9.27697 8.168 9.41297 8.168Z"></path>
</svg>
