<svg xmlns="http://www.w3.org/2000/svg" fill="none" viewBox="0 0 140 22" height="22" width="140">
<rect fill="#0D0E12" height="22" width="140"></rect>
<path fill="white" d="M40.9333 5.93324C40.9333 5.63868 41.1721 5.3999 41.4667 5.3999H42.5333C42.8279 5.3999 43.0667 5.63868 43.0667 5.93324V6.59277C43.5302 6.70457 43.966 6.8876 44.3618 7.12963L44.8284 6.66298C45.0367 6.4547 45.3744 6.4547 45.5827 6.66298L46.3369 7.41723C46.5452 7.62551 46.5452 7.9632 46.3369 8.17148L45.8703 8.63812C46.1123 9.0339 46.2953 9.46968 46.4071 9.93324H47.0667C47.3612 9.93324 47.6 10.172 47.6 10.4666V11.5332C47.6 11.8278 47.3612 12.0666 47.0667 12.0666H46.4071C46.2953 12.5301 46.1123 12.9659 45.8703 13.3617L46.3369 13.8283C46.5452 14.0366 46.5452 14.3743 46.3369 14.5826L45.5827 15.3368C45.3744 15.5451 45.0367 15.5451 44.8284 15.3368L44.3618 14.8702C43.966 15.1122 43.5302 15.2952 43.0667 15.407V16.0666C43.0667 16.3611 42.8279 16.5999 42.5333 16.5999H41.4667C41.1721 16.5999 40.9333 16.3611 40.9333 16.0666V15.407C40.4698 15.2952 40.034 15.1122 39.6382 14.8702L39.1716 15.3368C38.9633 15.5451 38.6256 15.5451 38.4173 15.3368L37.6631 14.5826C37.4548 14.3743 37.4548 14.0366 37.6631 13.8283L38.1297 13.3617C37.8877 12.9659 37.7047 12.5301 37.5929 12.0666H36.9333C36.6388 12.0666 36.4 11.8278 36.4 11.5332V10.4666C36.4 10.172 36.6388 9.93323 36.9333 9.93323H37.5929C37.7047 9.46968 37.8877 9.0339 38.1297 8.63812L37.6631 8.17147C37.4548 7.9632 37.4548 7.62551 37.6631 7.41723L38.4173 6.66298C38.6256 6.4547 38.9633 6.4547 39.1716 6.66298L39.6382 7.12963C40.034 6.8876 40.4698 6.70457 40.9333 6.59277V5.93324ZM42 13.9333C43.62 13.9333 44.9333 12.62 44.9333 10.9999C44.9333 9.3799 43.62 8.0666 42 8.0666C40.3799 8.0666 39.0666 9.3799 39.0666 10.9999C39.0666 12.62 40.3799 13.9333 42 13.9333Z" clip-rule="evenodd" fill-rule="evenodd"></path>
<rect fill-opacity="0.01" fill="black" height="16" width="16" y="3" x="34"></rect>
<path fill="white" d="M54.63 15V6.9H56.42V10.18H57.67V6.9H59.47V15H57.67V11.46H56.42V15H54.63ZM60.3135 15L61.8435 6.9H63.8835L65.3935 15H63.7435L63.4735 13.29H62.2835L62.0035 15H60.3135ZM62.4435 12.22H63.3035L62.8735 9.06L62.4435 12.22ZM68.5313 15.12C67.918 15.12 67.4313 15.01 67.0713 14.79C66.718 14.5633 66.468 14.25 66.3213 13.85C66.1747 13.4433 66.1013 12.9667 66.1013 12.42V9.5C66.1013 8.94 66.1747 8.46 66.3213 8.06C66.468 7.65333 66.718 7.34 67.0713 7.12C67.4313 6.9 67.918 6.79 68.5313 6.79C69.1313 6.79 69.598 6.89 69.9313 7.09C70.2713 7.28333 70.5113 7.55667 70.6513 7.91C70.7913 8.26333 70.8613 8.67 70.8613 9.13V9.83H69.1113V9.02C69.1113 8.86 69.1013 8.70667 69.0813 8.56C69.068 8.41333 69.0213 8.29333 68.9413 8.2C68.8613 8.1 68.7247 8.05 68.5313 8.05C68.3447 8.05 68.2047 8.1 68.1113 8.2C68.0247 8.3 67.968 8.42667 67.9413 8.58C67.9213 8.72667 67.9113 8.88333 67.9113 9.05V12.86C67.9113 13.04 67.9247 13.2067 67.9513 13.36C67.9847 13.5067 68.0447 13.6267 68.1313 13.72C68.2247 13.8067 68.358 13.85 68.5313 13.85C68.718 13.85 68.8513 13.8033 68.9313 13.71C69.0113 13.61 69.0613 13.4833 69.0813 13.33C69.1013 13.1767 69.1113 13.02 69.1113 12.86V12.01H70.8613V12.71C70.8613 13.17 70.7913 13.5833 70.6513 13.95C70.518 14.31 70.2813 14.5967 69.9413 14.81C69.608 15.0167 69.138 15.12 68.5313 15.12ZM72.5761 15V8.23H71.3561V6.9H75.5861V8.23H74.3761V15H72.5761ZM76.2992 15V6.9H79.0192C79.5059 6.9 79.9059 6.99333 80.2192 7.18C80.5326 7.36 80.7659 7.62667 80.9192 7.98C81.0726 8.32667 81.1492 8.75 81.1492 9.25C81.1492 9.87667 81.0459 10.3567 80.8392 10.69C80.6326 11.0167 80.3526 11.2433 79.9992 11.37C79.6459 11.4967 79.2492 11.56 78.8092 11.56H78.0892V15H76.2992ZM78.0892 10.31H78.6892C78.9092 10.31 79.0759 10.27 79.1892 10.19C79.3026 10.11 79.3759 9.99 79.4092 9.83C79.4492 9.67 79.4692 9.46667 79.4692 9.22C79.4692 9.01333 79.4526 8.83333 79.4192 8.68C79.3926 8.52 79.3226 8.39333 79.2092 8.3C79.0959 8.20667 78.9192 8.16 78.6792 8.16H78.0892V10.31ZM84.3321 15.12C83.7254 15.12 83.2454 15.0133 82.8921 14.8C82.5388 14.5867 82.2854 14.28 82.1321 13.88C81.9788 13.48 81.9021 13.0033 81.9021 12.45V9.44C81.9021 8.88 81.9788 8.40333 82.1321 8.01C82.2854 7.61667 82.5388 7.31667 82.8921 7.11C83.2454 6.89667 83.7254 6.79 84.3321 6.79C84.9454 6.79 85.4288 6.89667 85.7821 7.11C86.1421 7.31667 86.3988 7.61667 86.5521 8.01C86.7054 8.40333 86.7821 8.88 86.7821 9.44V12.45C86.7821 13.0033 86.7054 13.48 86.5521 13.88C86.3988 14.28 86.1421 14.5867 85.7821 14.8C85.4288 15.0133 84.9454 15.12 84.3321 15.12ZM84.3321 13.85C84.5188 13.85 84.6554 13.8033 84.7421 13.71C84.8288 13.6167 84.8854 13.4967 84.9121 13.35C84.9388 13.2033 84.9521 13.0533 84.9521 12.9V9C84.9521 8.84 84.9388 8.69 84.9121 8.55C84.8854 8.40333 84.8288 8.28333 84.7421 8.19C84.6554 8.09667 84.5188 8.05 84.3321 8.05C84.1588 8.05 84.0288 8.09667 83.9421 8.19C83.8554 8.28333 83.7988 8.40333 83.7721 8.55C83.7454 8.69 83.7321 8.84 83.7321 9V12.9C83.7321 13.0533 83.7421 13.2033 83.7621 13.35C83.7888 13.4967 83.8421 13.6167 83.9221 13.71C84.0088 13.8033 84.1454 13.85 84.3321 13.85ZM87.9015 15V6.9H89.3115V11.54L91.3815 6.9H92.5415V15H91.1015V10.28L88.9915 15H87.9015ZM90.3515 6.25C89.8782 6.25 89.4982 6.11667 89.2115 5.85C88.9248 5.58333 88.7815 5.19667 88.7815 4.69H89.7015C89.7015 4.93667 89.7482 5.12 89.8415 5.24C89.9415 5.36 90.1115 5.42 90.3515 5.42C90.5848 5.42 90.7515 5.36 90.8515 5.24C90.9515 5.11333 91.0015 4.93 91.0015 4.69H91.9215C91.9215 5.19667 91.7782 5.58333 91.4915 5.85C91.2048 6.11667 90.8248 6.25 90.3515 6.25ZM93.7999 15V6.9H95.5899V10.11H95.7699L96.9599 6.9H98.7399L97.2599 10.7L98.7899 15H96.9499L95.7699 11.47H95.5899V15H93.7999ZM99.5226 15V6.9H100.933V11.54L103.003 6.9H104.163V15H102.723V10.28L100.613 15H99.5226Z"></path>
</svg>
