<svg xmlns="http://www.w3.org/2000/svg" fill="none" viewBox="0 0 214 84" height="84" width="214">
<mask fill="white" id="path-1-inside-1_1276_44">
<path d="M0 0H214V84H0V0Z"></path>
</mask>
<path fill="#0D0E12" d="M0 0H214V84H0V0Z"></path>
<path mask="url(#path-1-inside-1_1276_44)" fill="white" d="M0 0V-1H-1V0H0ZM0 84H-1V85H0V84ZM0 1H214V-1H0V1ZM214 83H0V85H214V83ZM1 84V0H-1V84H1Z"></path>
<path fill="#FFF500" d="M16.756 38V28.28H18.904V32.216H20.404V28.28H22.564V38H20.404V33.752H18.904V38H16.756ZM24.0802 38V28.28H25.7722V33.848L28.2562 28.28H29.6482V38H27.9202V32.336L25.3882 38H24.0802ZM34.8063 38V34.004C34.4063 34.06 34.0143 34.088 33.6303 34.088C33.1663 34.088 32.7263 34 32.3103 33.824C31.9023 33.64 31.5703 33.376 31.3143 33.032C31.0583 32.68 30.9303 32.252 30.9303 31.748V28.28H33.0783V31.736C33.0783 31.936 33.0983 32.116 33.1383 32.276C33.1863 32.428 33.2903 32.548 33.4503 32.636C33.6183 32.724 33.8783 32.768 34.2303 32.768C34.3183 32.768 34.4103 32.764 34.5063 32.756C34.6023 32.748 34.7023 32.736 34.8063 32.72V28.28H36.9543V38H34.8063ZM38.4708 38V28.28H40.6188V32.384H41.0988C41.7068 32.384 42.2228 32.484 42.6468 32.684C43.0708 32.884 43.3948 33.192 43.6188 33.608C43.8428 34.016 43.9548 34.544 43.9548 35.192C43.9548 35.784 43.8748 36.264 43.7148 36.632C43.5628 37 43.3468 37.284 43.0668 37.484C42.7868 37.684 42.4588 37.82 42.0828 37.892C41.7148 37.964 41.3188 38 40.8948 38H38.4708ZM40.6188 36.596H40.9068C41.1788 36.596 41.3908 36.544 41.5428 36.44C41.7028 36.336 41.8148 36.176 41.8788 35.96C41.9508 35.744 41.9828 35.472 41.9748 35.144C41.9668 34.784 41.8908 34.484 41.7468 34.244C41.6108 33.996 41.3228 33.872 40.8828 33.872H40.6188V36.596ZM44.5028 38L46.3508 33.68C45.9828 33.456 45.6788 33.128 45.4388 32.696C45.2068 32.264 45.0908 31.76 45.0908 31.184C45.0908 30.432 45.2228 29.848 45.4868 29.432C45.7508 29.008 46.1268 28.712 46.6148 28.544C47.1108 28.368 47.7028 28.28 48.3908 28.28H50.8868V38H48.7508V34.16H48.3668C48.3588 34.16 48.3388 34.16 48.3068 34.16C48.2748 34.16 48.2508 34.16 48.2348 34.16L46.8188 38H44.5028ZM48.4388 32.648H48.7508V29.756H48.4148C47.9748 29.756 47.6428 29.88 47.4188 30.128C47.2028 30.368 47.0948 30.724 47.0948 31.196C47.0948 31.612 47.1908 31.96 47.3828 32.24C47.5748 32.512 47.9268 32.648 48.4388 32.648Z"></path>
<path fill="white" d="M16.63 56V47.9H17.76V51.4H19.84V47.9H20.97V56H19.84V52.21H17.76V56H16.63ZM22.1455 56V50.22H23.0455V54.11L24.7855 50.22H25.6255V56H24.7455V52.08L23.0155 56H22.1455ZM28.8858 56V53.71C28.7591 53.7233 28.6324 53.7367 28.5058 53.75C28.3791 53.7633 28.2491 53.77 28.1158 53.77C27.8291 53.77 27.5658 53.73 27.3258 53.65C27.0858 53.57 26.8958 53.4267 26.7558 53.22C26.6158 53.0067 26.5458 52.71 26.5458 52.33V50.22H27.6158V52.34C27.6158 52.5467 27.6624 52.71 27.7558 52.83C27.8558 52.95 28.0591 53.01 28.3658 53.01C28.4458 53.01 28.5291 53.0067 28.6158 53C28.7024 52.9867 28.7924 52.9733 28.8858 52.96V50.22H29.9558V56H28.8858ZM31.042 56V50.22H32.112V52.61C32.1253 52.61 32.142 52.61 32.162 52.61C32.1886 52.61 32.212 52.61 32.232 52.61C32.252 52.61 32.2686 52.61 32.282 52.61C32.6753 52.6167 33.0086 52.6467 33.282 52.7C33.562 52.7467 33.7886 52.8333 33.962 52.96C34.1353 53.08 34.262 53.25 34.342 53.47C34.422 53.6833 34.462 53.96 34.462 54.3C34.462 54.6133 34.422 54.88 34.342 55.1C34.262 55.3133 34.132 55.4867 33.952 55.62C33.772 55.7533 33.5353 55.85 33.242 55.91C32.9486 55.97 32.592 56 32.172 56H31.042ZM32.112 55.37H32.172C32.512 55.37 32.7786 55.34 32.972 55.28C33.1653 55.22 33.302 55.1133 33.382 54.96C33.462 54.8 33.502 54.5767 33.502 54.29C33.502 54.03 33.4653 53.8267 33.392 53.68C33.3253 53.5267 33.1986 53.4167 33.012 53.35C32.832 53.2767 32.5686 53.24 32.222 53.24C32.2153 53.24 32.1986 53.24 32.172 53.24C32.1453 53.24 32.1253 53.24 32.112 53.24V55.37ZM34.7523 56L35.8423 53.55C35.6557 53.4767 35.5023 53.3667 35.3823 53.22C35.269 53.0733 35.1857 52.8933 35.1323 52.68C35.079 52.4667 35.0523 52.2267 35.0523 51.96C35.0523 51.6533 35.0923 51.39 35.1723 51.17C35.2523 50.95 35.379 50.77 35.5523 50.63C35.7257 50.49 35.9557 50.3867 36.2423 50.32C36.529 50.2533 36.8823 50.22 37.3023 50.22H38.4223V56H37.3623V53.72C37.2557 53.72 37.1657 53.72 37.0923 53.72C37.019 53.7133 36.939 53.7067 36.8523 53.7L35.9023 56H34.7523ZM37.2423 53.1C37.2557 53.1 37.2757 53.1 37.3023 53.1C37.3357 53.1 37.3557 53.1 37.3623 53.1V50.83C37.3557 50.83 37.3357 50.83 37.3023 50.83C37.2757 50.83 37.259 50.83 37.2523 50.83C36.939 50.83 36.689 50.87 36.5023 50.95C36.3223 51.0233 36.1957 51.1433 36.1223 51.31C36.049 51.47 36.0123 51.6867 36.0123 51.96C36.0123 52.34 36.0957 52.6233 36.2623 52.81C36.4357 52.9967 36.7623 53.0933 37.2423 53.1ZM41.7939 56V50.22H45.1539V56H44.0839V51.03H42.8639V56H41.7939ZM47.8273 56.08C47.4006 56.08 47.0639 55.9933 46.8173 55.82C46.5706 55.6467 46.3939 55.4 46.2873 55.08C46.1873 54.76 46.1373 54.3833 46.1373 53.95V52.27C46.1373 51.8367 46.1873 51.46 46.2873 51.14C46.3939 50.82 46.5706 50.5733 46.8173 50.4C47.0639 50.2267 47.4006 50.14 47.8273 50.14C48.2539 50.14 48.5873 50.2267 48.8273 50.4C49.0739 50.5733 49.2473 50.82 49.3473 51.14C49.4539 51.46 49.5073 51.8367 49.5073 52.27V53.95C49.5073 54.3833 49.4539 54.76 49.3473 55.08C49.2473 55.4 49.0739 55.6467 48.8273 55.82C48.5873 55.9933 48.2539 56.08 47.8273 56.08ZM47.8273 55.29C48.0339 55.29 48.1773 55.23 48.2573 55.11C48.3439 54.99 48.3939 54.8333 48.4073 54.64C48.4273 54.44 48.4373 54.2333 48.4373 54.02V52.21C48.4373 51.99 48.4273 51.7833 48.4073 51.59C48.3939 51.3967 48.3439 51.24 48.2573 51.12C48.1773 50.9933 48.0339 50.93 47.8273 50.93C47.6206 50.93 47.4739 50.9933 47.3873 51.12C47.3006 51.24 47.2473 51.3967 47.2273 51.59C47.2139 51.7833 47.2073 51.99 47.2073 52.21V54.02C47.2073 54.2333 47.2139 54.44 47.2273 54.64C47.2473 54.8333 47.3006 54.99 47.3873 55.11C47.4739 55.23 47.6206 55.29 47.8273 55.29ZM54.3605 56.08C53.9338 56.08 53.5971 55.9933 53.3505 55.82C53.1038 55.6467 52.9271 55.4 52.8205 55.08C52.7205 54.76 52.6705 54.3833 52.6705 53.95V52.27C52.6705 51.8367 52.7205 51.46 52.8205 51.14C52.9271 50.82 53.1038 50.5733 53.3505 50.4C53.5971 50.2267 53.9338 50.14 54.3605 50.14C54.7871 50.14 55.1205 50.2267 55.3605 50.4C55.6071 50.5733 55.7805 50.82 55.8805 51.14C55.9871 51.46 56.0405 51.8367 56.0405 52.27V53.95C56.0405 54.3833 55.9871 54.76 55.8805 55.08C55.7805 55.4 55.6071 55.6467 55.3605 55.82C55.1205 55.9933 54.7871 56.08 54.3605 56.08ZM54.3605 55.29C54.5671 55.29 54.7105 55.23 54.7905 55.11C54.8771 54.99 54.9271 54.8333 54.9405 54.64C54.9605 54.44 54.9705 54.2333 54.9705 54.02V52.21C54.9705 51.99 54.9605 51.7833 54.9405 51.59C54.9271 51.3967 54.8771 51.24 54.7905 51.12C54.7105 50.9933 54.5671 50.93 54.3605 50.93C54.1538 50.93 54.0071 50.9933 53.9205 51.12C53.8338 51.24 53.7805 51.3967 53.7605 51.59C53.7471 51.7833 53.7405 51.99 53.7405 52.21V54.02C53.7405 54.2333 53.7471 54.44 53.7605 54.64C53.7805 54.8333 53.8338 54.99 53.9205 55.11C54.0071 55.23 54.1538 55.29 54.3605 55.29ZM58.6285 56.08C58.2952 56.08 58.0052 56.0067 57.7585 55.86C57.5118 55.7067 57.3218 55.4833 57.1885 55.19C57.0618 54.89 56.9985 54.52 56.9985 54.08V50.68C56.9985 50.1733 57.0352 49.76 57.1085 49.44C57.1885 49.12 57.3118 48.8667 57.4785 48.68C57.6452 48.4933 57.8618 48.3467 58.1285 48.24C58.4085 48.1267 58.6585 48.0467 58.8785 48C59.0985 47.9533 59.3085 47.9033 59.5085 47.85C59.7152 47.79 59.9252 47.6967 60.1385 47.57L60.3585 48.46C60.1718 48.58 59.9652 48.67 59.7385 48.73C59.5185 48.7833 59.2985 48.8333 59.0785 48.88C58.8585 48.92 58.6518 48.9867 58.4585 49.08C58.2652 49.1733 58.1152 49.3167 58.0085 49.51C57.9018 49.6967 57.8485 49.9567 57.8485 50.29V51.22C57.9352 51.1333 58.0485 51.0533 58.1885 50.98C58.3285 50.9 58.4785 50.8333 58.6385 50.78C58.8052 50.7267 58.9618 50.7 59.1085 50.7C59.3485 50.7 59.5685 50.7633 59.7685 50.89C59.9685 51.0167 60.1285 51.2333 60.2485 51.54C60.3685 51.84 60.4285 52.25 60.4285 52.77V53.87C60.4285 54.4767 60.3518 54.94 60.1985 55.26C60.0452 55.5733 59.8318 55.79 59.5585 55.91C59.2918 56.0233 58.9818 56.08 58.6285 56.08ZM58.7285 55.29C58.8752 55.29 58.9918 55.2567 59.0785 55.19C59.1718 55.1167 59.2385 55 59.2785 54.84C59.3252 54.68 59.3485 54.4667 59.3485 54.2V52.45C59.3485 52.2033 59.3318 52.0067 59.2985 51.86C59.2652 51.7133 59.2118 51.6067 59.1385 51.54C59.0652 51.4667 58.9652 51.43 58.8385 51.43C58.7718 51.43 58.6952 51.4433 58.6085 51.47C58.5285 51.49 58.4418 51.5233 58.3485 51.57C58.2618 51.61 58.1685 51.6633 58.0685 51.73V54.11C58.0685 54.39 58.0885 54.6167 58.1285 54.79C58.1752 54.9633 58.2452 55.09 58.3385 55.17C58.4385 55.25 58.5685 55.29 58.7285 55.29ZM62.9933 56.08C62.5666 56.08 62.2299 55.9933 61.9833 55.82C61.7366 55.6467 61.5599 55.4 61.4533 55.08C61.3533 54.76 61.3033 54.3833 61.3033 53.95V52.27C61.3033 51.8367 61.3533 51.46 61.4533 51.14C61.5599 50.82 61.7366 50.5733 61.9833 50.4C62.2299 50.2267 62.5666 50.14 62.9933 50.14C63.4199 50.14 63.7533 50.2267 63.9933 50.4C64.2399 50.5733 64.4133 50.82 64.5133 51.14C64.6199 51.46 64.6733 51.8367 64.6733 52.27V53.95C64.6733 54.3833 64.6199 54.76 64.5133 55.08C64.4133 55.4 64.2399 55.6467 63.9933 55.82C63.7533 55.9933 63.4199 56.08 62.9933 56.08ZM62.9933 55.29C63.1999 55.29 63.3433 55.23 63.4233 55.11C63.5099 54.99 63.5599 54.8333 63.5733 54.64C63.5933 54.44 63.6033 54.2333 63.6033 54.02V52.21C63.6033 51.99 63.5933 51.7833 63.5733 51.59C63.5599 51.3967 63.5099 51.24 63.4233 51.12C63.3433 50.9933 63.1999 50.93 62.9933 50.93C62.7866 50.93 62.6399 50.9933 62.5533 51.12C62.4666 51.24 62.4133 51.3967 62.3933 51.59C62.3799 51.7833 62.3733 51.99 62.3733 52.21V54.02C62.3733 54.2333 62.3799 54.44 62.3933 54.64C62.4133 54.8333 62.4666 54.99 62.5533 55.11C62.6399 55.23 62.7866 55.29 62.9933 55.29ZM68.8913 56.08C68.5047 56.08 68.2013 55.9933 67.9813 55.82C67.7613 55.6467 67.608 55.4 67.5213 55.08C67.4347 54.76 67.3913 54.3833 67.3913 53.95V53.46H66.5913V56H65.6513V50.22H66.5913V52.75H67.3913V52.27C67.3913 51.8367 67.4347 51.46 67.5213 51.14C67.608 50.82 67.7613 50.5733 67.9813 50.4C68.2013 50.2267 68.5047 50.14 68.8913 50.14C69.278 50.14 69.578 50.2267 69.7913 50.4C70.0113 50.5733 70.1647 50.82 70.2513 51.14C70.3447 51.46 70.3913 51.8367 70.3913 52.27V53.95C70.3913 54.3833 70.3447 54.76 70.2513 55.08C70.1647 55.4 70.0113 55.6467 69.7913 55.82C69.578 55.9933 69.278 56.08 68.8913 56.08ZM68.8913 55.29C69.078 55.29 69.208 55.23 69.2813 55.11C69.3613 54.99 69.408 54.8333 69.4213 54.64C69.4413 54.44 69.4513 54.2333 69.4513 54.02V52.21C69.4513 51.99 69.4413 51.7833 69.4213 51.59C69.408 51.3967 69.3613 51.24 69.2813 51.12C69.208 50.9933 69.078 50.93 68.8913 50.93C68.7047 50.93 68.5713 50.9933 68.4913 51.12C68.418 51.24 68.3713 51.3967 68.3513 51.59C68.338 51.7833 68.3313 51.99 68.3313 52.21V54.02C68.3313 54.2333 68.338 54.44 68.3513 54.64C68.3713 54.8333 68.418 54.99 68.4913 55.11C68.5713 55.23 68.7047 55.29 68.8913 55.29ZM70.8638 57.47V55.29C71.0638 55.1367 71.2471 54.9533 71.4138 54.74C71.5804 54.5267 71.7271 54.2567 71.8538 53.93C71.9804 53.6033 72.0804 53.2 72.1538 52.72C72.2271 52.24 72.2671 51.66 72.2738 50.98L72.2938 50.22H74.9038V55.24H75.6038V57.47H74.8238L74.7338 56H71.7338L71.6438 57.47H70.8638ZM71.9038 55.24H73.8738V50.99H73.1238L73.1038 51.2C73.0971 51.9067 73.0604 52.4967 72.9938 52.97C72.9338 53.4367 72.8471 53.82 72.7338 54.12C72.6271 54.4133 72.5004 54.6467 72.3538 54.82C72.2138 54.9933 72.0638 55.1333 71.9038 55.24ZM76.3447 56V50.22H77.4147V52.65H78.7847V50.22H79.8547V56H78.7847V53.43H77.4147V56H76.3447ZM82.5245 56.08C82.0979 56.08 81.7612 55.9933 81.5145 55.82C81.2679 55.6467 81.0912 55.4 80.9845 55.08C80.8845 54.76 80.8345 54.3833 80.8345 53.95V52.27C80.8345 51.8367 80.8845 51.46 80.9845 51.14C81.0912 50.82 81.2679 50.5733 81.5145 50.4C81.7612 50.2267 82.0979 50.14 82.5245 50.14C82.9512 50.14 83.2845 50.2267 83.5245 50.4C83.7712 50.5733 83.9445 50.82 84.0445 51.14C84.1512 51.46 84.2045 51.8367 84.2045 52.27V53.95C84.2045 54.3833 84.1512 54.76 84.0445 55.08C83.9445 55.4 83.7712 55.6467 83.5245 55.82C83.2845 55.9933 82.9512 56.08 82.5245 56.08ZM82.5245 55.29C82.7312 55.29 82.8745 55.23 82.9545 55.11C83.0412 54.99 83.0912 54.8333 83.1045 54.64C83.1245 54.44 83.1345 54.2333 83.1345 54.02V52.21C83.1345 51.99 83.1245 51.7833 83.1045 51.59C83.0912 51.3967 83.0412 51.24 82.9545 51.12C82.8745 50.9933 82.7312 50.93 82.5245 50.93C82.3179 50.93 82.1712 50.9933 82.0845 51.12C81.9979 51.24 81.9445 51.3967 81.9245 51.59C81.9112 51.7833 81.9045 51.99 81.9045 52.21V54.02C81.9045 54.2333 81.9112 54.44 81.9245 54.64C81.9445 54.8333 81.9979 54.99 82.0845 55.11C82.1712 55.23 82.3179 55.29 82.5245 55.29ZM85.1526 56L85.2126 50.22H86.0026L87.2826 53.77L88.5726 50.22H89.3626L89.4226 56H88.5226V52.55L87.4526 55.43H87.1226L86.0526 52.57V56H85.1526ZM90.3855 57.45V56.63C90.6455 56.63 90.8522 56.6167 91.0055 56.59C91.1589 56.57 91.2689 56.5267 91.3355 56.46C91.4022 56.4 91.4355 56.3133 91.4355 56.2C91.4355 56.14 91.4122 56.0067 91.3655 55.8C91.3189 55.5933 91.2689 55.3733 91.2155 55.14L90.0555 50.22H91.1355L91.9155 54.54L92.6655 50.22H93.7455L92.3655 56.32C92.3055 56.6 92.1955 56.82 92.0355 56.98C91.8755 57.1467 91.6689 57.2667 91.4155 57.34C91.1689 57.4133 90.8689 57.45 90.5155 57.45H90.3855ZM98.2567 56.08C97.7834 56.08 97.4234 55.9867 97.1767 55.8C96.9367 55.6067 96.7734 55.3367 96.6867 54.99C96.6067 54.6433 96.5667 54.24 96.5667 53.78V52.45C96.5667 51.9633 96.6101 51.55 96.6967 51.21C96.7834 50.8633 96.9467 50.6 97.1867 50.42C97.4334 50.2333 97.7901 50.14 98.2567 50.14C98.6767 50.14 99.0001 50.21 99.2267 50.35C99.4601 50.4833 99.6201 50.6867 99.7067 50.96C99.7934 51.2267 99.8367 51.56 99.8367 51.96V52.3H98.8667V51.95C98.8667 51.6967 98.8501 51.4967 98.8167 51.35C98.7834 51.2033 98.7234 51.0967 98.6367 51.03C98.5501 50.9633 98.4267 50.93 98.2667 50.93C98.0934 50.93 97.9601 50.97 97.8667 51.05C97.7734 51.13 97.7101 51.2667 97.6767 51.46C97.6501 51.6467 97.6367 51.9033 97.6367 52.23V54.05C97.6367 54.5433 97.6834 54.8733 97.7767 55.04C97.8701 55.2067 98.0367 55.29 98.2767 55.29C98.4567 55.29 98.5867 55.25 98.6667 55.17C98.7534 55.0833 98.8067 54.9633 98.8267 54.81C98.8534 54.6567 98.8667 54.4833 98.8667 54.29V53.82H99.8367V54.22C99.8367 54.6067 99.7901 54.94 99.6967 55.22C99.6101 55.5 99.4501 55.7133 99.2167 55.86C98.9901 56.0067 98.6701 56.08 98.2567 56.08ZM102.378 56.08C101.951 56.08 101.615 55.9933 101.368 55.82C101.121 55.6467 100.945 55.4 100.838 55.08C100.738 54.76 100.688 54.3833 100.688 53.95V52.27C100.688 51.8367 100.738 51.46 100.838 51.14C100.945 50.82 101.121 50.5733 101.368 50.4C101.615 50.2267 101.951 50.14 102.378 50.14C102.805 50.14 103.138 50.2267 103.378 50.4C103.625 50.5733 103.798 50.82 103.898 51.14C104.005 51.46 104.058 51.8367 104.058 52.27V53.95C104.058 54.3833 104.005 54.76 103.898 55.08C103.798 55.4 103.625 55.6467 103.378 55.82C103.138 55.9933 102.805 56.08 102.378 56.08ZM102.378 55.29C102.585 55.29 102.728 55.23 102.808 55.11C102.895 54.99 102.945 54.8333 102.958 54.64C102.978 54.44 102.988 54.2333 102.988 54.02V52.21C102.988 51.99 102.978 51.7833 102.958 51.59C102.945 51.3967 102.895 51.24 102.808 51.12C102.728 50.9933 102.585 50.93 102.378 50.93C102.171 50.93 102.025 50.9933 101.938 51.12C101.851 51.24 101.798 51.3967 101.778 51.59C101.765 51.7833 101.758 51.99 101.758 52.21V54.02C101.758 54.2333 101.765 54.44 101.778 54.64C101.798 54.8333 101.851 54.99 101.938 55.11C102.025 55.23 102.171 55.29 102.378 55.29ZM105.036 56V50.22H107.366V50.99H106.106V56H105.036ZM107.566 56.05V55.24C107.766 55.24 107.923 55.2 108.036 55.12C108.156 55.04 108.246 54.9067 108.306 54.72C108.373 54.5267 108.423 54.27 108.456 53.95C108.49 53.6233 108.52 53.2167 108.546 52.73L108.676 50.22H111.706V56H110.636V51.03H109.616L109.526 52.73C109.493 53.39 109.443 53.9367 109.376 54.37C109.316 54.8033 109.22 55.1433 109.086 55.39C108.953 55.63 108.773 55.8 108.546 55.9C108.326 56 108.04 56.05 107.686 56.05H107.566ZM113.83 56.08C113.603 56.08 113.403 56.0167 113.23 55.89C113.057 55.7567 112.92 55.59 112.82 55.39C112.72 55.1833 112.67 54.9667 112.67 54.74C112.67 54.38 112.73 54.0767 112.85 53.83C112.97 53.5833 113.133 53.3767 113.34 53.21C113.553 53.0367 113.797 52.8867 114.07 52.76C114.35 52.6333 114.643 52.51 114.95 52.39V51.98C114.95 51.7467 114.937 51.5533 114.91 51.4C114.883 51.2467 114.827 51.1333 114.74 51.06C114.66 50.98 114.537 50.94 114.37 50.94C114.223 50.94 114.103 50.9733 114.01 51.04C113.923 51.1067 113.86 51.2033 113.82 51.33C113.78 51.45 113.76 51.5933 113.76 51.76V52.05L112.7 52.01C112.713 51.37 112.86 50.9 113.14 50.6C113.42 50.2933 113.853 50.14 114.44 50.14C115.013 50.14 115.42 50.2967 115.66 50.61C115.9 50.9233 116.02 51.3767 116.02 51.97V54.61C116.02 54.79 116.023 54.9633 116.03 55.13C116.043 55.2967 116.057 55.4533 116.07 55.6C116.09 55.74 116.107 55.8733 116.12 56H115.14C115.12 55.8933 115.093 55.76 115.06 55.6C115.033 55.4333 115.013 55.2833 115 55.15C114.933 55.3767 114.803 55.59 114.61 55.79C114.423 55.9833 114.163 56.08 113.83 56.08ZM114.25 55.16C114.357 55.16 114.457 55.13 114.55 55.07C114.643 55.01 114.727 54.9433 114.8 54.87C114.873 54.79 114.923 54.7267 114.95 54.68V53.04C114.783 53.1333 114.627 53.2267 114.48 53.32C114.333 53.4133 114.203 53.5133 114.09 53.62C113.983 53.72 113.897 53.8367 113.83 53.97C113.77 54.0967 113.74 54.2433 113.74 54.41C113.74 54.6433 113.783 54.8267 113.87 54.96C113.957 55.0933 114.083 55.16 114.25 55.16ZM118.628 56.08C118.154 56.08 117.794 55.9867 117.548 55.8C117.308 55.6067 117.144 55.3367 117.058 54.99C116.978 54.6433 116.938 54.24 116.938 53.78V52.45C116.938 51.9633 116.981 51.55 117.068 51.21C117.154 50.8633 117.318 50.6 117.558 50.42C117.804 50.2333 118.161 50.14 118.628 50.14C119.048 50.14 119.371 50.21 119.598 50.35C119.831 50.4833 119.991 50.6867 120.078 50.96C120.164 51.2267 120.208 51.56 120.208 51.96V52.3H119.238V51.95C119.238 51.6967 119.221 51.4967 119.188 51.35C119.154 51.2033 119.094 51.0967 119.008 51.03C118.921 50.9633 118.798 50.93 118.638 50.93C118.464 50.93 118.331 50.97 118.238 51.05C118.144 51.13 118.081 51.2667 118.048 51.46C118.021 51.6467 118.008 51.9033 118.008 52.23V54.05C118.008 54.5433 118.054 54.8733 118.148 55.04C118.241 55.2067 118.408 55.29 118.648 55.29C118.828 55.29 118.958 55.25 119.038 55.17C119.124 55.0833 119.178 54.9633 119.198 54.81C119.224 54.6567 119.238 54.4833 119.238 54.29V53.82H120.208V54.22C120.208 54.6067 120.161 54.94 120.068 55.22C119.981 55.5 119.821 55.7133 119.588 55.86C119.361 56.0067 119.041 56.08 118.628 56.08ZM121.159 56V50.22H122.059V54.11L123.799 50.22H124.639V56H123.759V52.08L122.029 56H121.159ZM128.969 56.08C128.583 56.08 128.279 55.9933 128.059 55.82C127.839 55.6467 127.686 55.4 127.599 55.08C127.513 54.76 127.469 54.3833 127.469 53.95V53.46H126.669V56H125.729V50.22H126.669V52.75H127.469V52.27C127.469 51.8367 127.513 51.46 127.599 51.14C127.686 50.82 127.839 50.5733 128.059 50.4C128.279 50.2267 128.583 50.14 128.969 50.14C129.356 50.14 129.656 50.2267 129.869 50.4C130.089 50.5733 130.243 50.82 130.329 51.14C130.423 51.46 130.469 51.8367 130.469 52.27V53.95C130.469 54.3833 130.423 54.76 130.329 55.08C130.243 55.4 130.089 55.6467 129.869 55.82C129.656 55.9933 129.356 56.08 128.969 56.08ZM128.969 55.29C129.156 55.29 129.286 55.23 129.359 55.11C129.439 54.99 129.486 54.8333 129.499 54.64C129.519 54.44 129.529 54.2333 129.529 54.02V52.21C129.529 51.99 129.519 51.7833 129.499 51.59C129.486 51.3967 129.439 51.24 129.359 51.12C129.286 50.9933 129.156 50.93 128.969 50.93C128.783 50.93 128.649 50.9933 128.569 51.12C128.496 51.24 128.449 51.3967 128.429 51.59C128.416 51.7833 128.409 51.99 128.409 52.21V54.02C128.409 54.2333 128.416 54.44 128.429 54.64C128.449 54.8333 128.496 54.99 128.569 55.11C128.649 55.23 128.783 55.29 128.969 55.29Z"></path>
</svg>
