<svg xmlns="http://www.w3.org/2000/svg" fill="none" viewBox="0 0 13 18" height="18" width="13">
<rect fill-opacity="0.01" fill="#0D0E12" height="18" width="13"></rect>
<path fill="white" d="M3.288 14V11.816H0.3V10.34L2.832 4.28H5.16V10.328H6.06V11.816H5.16V14H3.288ZM1.824 10.328H3.288V6.284L1.824 10.328ZM9.35297 14.18C8.64097 14.18 8.10097 14.056 7.73297 13.808C7.37297 13.552 7.12897 13.196 7.00097 12.74C6.87297 12.284 6.80897 11.756 6.80897 11.156H8.74097C8.74097 11.524 8.76097 11.824 8.80097 12.056C8.84097 12.288 8.91297 12.456 9.01697 12.56C9.12897 12.656 9.28497 12.7 9.48497 12.692C9.69297 12.684 9.84097 12.6 9.92897 12.44C10.017 12.28 10.069 12.052 10.085 11.756C10.109 11.452 10.121 11.088 10.121 10.664C10.121 10.344 10.101 10.06 10.061 9.812C10.029 9.564 9.95697 9.368 9.84497 9.224C9.74097 9.072 9.58097 8.996 9.36497 8.996C9.16497 8.996 9.00097 9.068 8.87297 9.212C8.74497 9.356 8.65297 9.58 8.59697 9.884H6.86897L7.04897 4.28H11.585V5.96H8.65697L8.54897 7.964C8.62897 7.852 8.78097 7.756 9.00497 7.676C9.22897 7.588 9.46897 7.532 9.72497 7.508C10.221 7.452 10.637 7.544 10.973 7.784C11.317 8.016 11.573 8.372 11.741 8.852C11.917 9.332 12.005 9.92 12.005 10.616C12.005 11.136 11.973 11.616 11.909 12.056C11.845 12.488 11.721 12.864 11.537 13.184C11.353 13.496 11.085 13.74 10.733 13.916C10.381 14.092 9.92097 14.18 9.35297 14.18Z"></path>
</svg>
