<svg xmlns="http://www.w3.org/2000/svg" fill="none" viewBox="0 0 13 18" height="18" width="13">
<rect fill-opacity="0.01" fill="#0D0E12" height="18" width="13"></rect>
<path fill="white" d="M1.596 14V6.26C1.508 6.308 1.408 6.356 1.296 6.404C1.184 6.452 1.064 6.504 0.936 6.56C0.816 6.608 0.696 6.656 0.576 6.704C0.464 6.752 0.36 6.8 0.264 6.848V5.36C0.352 5.312 0.476 5.248 0.636 5.168C0.796 5.08 0.968 4.984 1.152 4.88C1.336 4.776 1.508 4.672 1.668 4.568C1.828 4.456 1.948 4.36 2.028 4.28H3.6V14H1.596ZM5.44406 14L7.55606 5.804H4.90406V4.28H9.51206V5.66L7.40006 14H5.44406Z"></path>
</svg>
