<svg xmlns="http://www.w3.org/2000/svg" fill="none" viewBox="0 0 480 360" height="360" width="480">
<rect fill-opacity="0.01" fill="white" height="30" width="480"></rect>
<rect fill-opacity="0.9" fill="#0D0E12" height="330" width="480" y="30"></rect>
<path fill="white" d="M216.154 148L217.99 138.28H220.438L222.25 148H220.27L219.946 145.948H218.518L218.182 148H216.154ZM218.71 144.664H219.742L219.226 140.872L218.71 144.664ZM225.272 148.072C224.752 148.072 224.348 147.996 224.06 147.844C223.78 147.692 223.588 147.472 223.484 147.184C223.38 146.888 223.328 146.532 223.328 146.116V142.348H222.656V141.064H223.328V138.952H225.308V141.064H226.292V142.348H225.308V145.924C225.308 146.124 225.364 146.268 225.476 146.356C225.596 146.444 225.744 146.488 225.92 146.488C226.024 146.488 226.12 146.484 226.208 146.476C226.296 146.46 226.376 146.448 226.448 146.44V147.976C226.344 147.992 226.18 148.012 225.956 148.036C225.732 148.06 225.504 148.072 225.272 148.072ZM229.514 148.072C228.994 148.072 228.59 147.996 228.302 147.844C228.022 147.692 227.83 147.472 227.726 147.184C227.622 146.888 227.57 146.532 227.57 146.116V142.348H226.898V141.064H227.57V138.952H229.55V141.064H230.534V142.348H229.55V145.924C229.55 146.124 229.606 146.268 229.718 146.356C229.838 146.444 229.986 146.488 230.162 146.488C230.266 146.488 230.362 146.484 230.45 146.476C230.538 146.46 230.618 146.448 230.69 146.44V147.976C230.586 147.992 230.422 148.012 230.198 148.036C229.974 148.06 229.746 148.072 229.514 148.072ZM233.876 148.12C233.372 148.12 232.94 148.032 232.58 147.856C232.22 147.672 231.944 147.408 231.752 147.064C231.56 146.712 231.464 146.292 231.464 145.804V143.26C231.464 142.764 231.56 142.344 231.752 142C231.944 141.656 232.22 141.396 232.58 141.22C232.948 141.036 233.38 140.944 233.876 140.944C234.388 140.944 234.812 141.032 235.148 141.208C235.492 141.384 235.748 141.644 235.916 141.988C236.092 142.332 236.18 142.756 236.18 143.26V144.652H233.396V145.984C233.396 146.16 233.416 146.304 233.456 146.416C233.496 146.528 233.552 146.608 233.624 146.656C233.696 146.704 233.78 146.728 233.876 146.728C233.972 146.728 234.056 146.708 234.128 146.668C234.208 146.62 234.268 146.548 234.308 146.452C234.356 146.356 234.38 146.224 234.38 146.056V145.324H236.18V145.996C236.18 146.7 235.976 147.232 235.568 147.592C235.16 147.944 234.596 148.12 233.876 148.12ZM233.396 143.74H234.38V143.044C234.38 142.86 234.356 142.716 234.308 142.612C234.268 142.508 234.208 142.436 234.128 142.396C234.056 142.356 233.968 142.336 233.864 142.336C233.768 142.336 233.684 142.36 233.612 142.408C233.548 142.456 233.496 142.54 233.456 142.66C233.416 142.772 233.396 142.936 233.396 143.152V143.74ZM237.245 148V141.064H239.201V141.76C239.457 141.504 239.721 141.304 239.993 141.16C240.273 141.016 240.565 140.944 240.869 140.944C241.157 140.944 241.393 141.016 241.577 141.16C241.769 141.296 241.913 141.488 242.009 141.736C242.105 141.976 242.153 142.252 242.153 142.564V148H240.209V142.84C240.209 142.672 240.181 142.544 240.125 142.456C240.069 142.368 239.965 142.324 239.813 142.324C239.733 142.324 239.637 142.348 239.525 142.396C239.421 142.436 239.313 142.496 239.201 142.576V148H237.245ZM245.475 148.072C244.955 148.072 244.551 147.996 244.263 147.844C243.983 147.692 243.791 147.472 243.687 147.184C243.583 146.888 243.531 146.532 243.531 146.116V142.348H242.859V141.064H243.531V138.952H245.511V141.064H246.495V142.348H245.511V145.924C245.511 146.124 245.567 146.268 245.679 146.356C245.799 146.444 245.947 146.488 246.123 146.488C246.227 146.488 246.323 146.484 246.411 146.476C246.499 146.46 246.579 146.448 246.651 146.44V147.976C246.547 147.992 246.383 148.012 246.159 148.036C245.935 148.06 245.707 148.072 245.475 148.072ZM247.581 148V141.064H249.537V148H247.581ZM247.569 139.888V138.532H249.537V139.888H247.569ZM253.025 148.12C252.529 148.12 252.097 148.036 251.729 147.868C251.369 147.7 251.089 147.448 250.889 147.112C250.697 146.776 250.601 146.356 250.601 145.852V143.212C250.601 142.708 250.697 142.288 250.889 141.952C251.089 141.616 251.369 141.364 251.729 141.196C252.097 141.028 252.529 140.944 253.025 140.944C253.521 140.944 253.949 141.028 254.309 141.196C254.677 141.364 254.961 141.616 255.161 141.952C255.361 142.288 255.461 142.708 255.461 143.212V145.852C255.461 146.356 255.361 146.776 255.161 147.112C254.961 147.448 254.677 147.7 254.309 147.868C253.949 148.036 253.521 148.12 253.025 148.12ZM253.037 146.824C253.165 146.824 253.265 146.792 253.337 146.728C253.409 146.656 253.457 146.56 253.481 146.44C253.513 146.312 253.529 146.16 253.529 145.984V143.08C253.529 142.904 253.513 142.756 253.481 142.636C253.457 142.508 253.409 142.412 253.337 142.348C253.265 142.276 253.165 142.24 253.037 142.24C252.909 142.24 252.809 142.276 252.737 142.348C252.665 142.412 252.613 142.508 252.581 142.636C252.549 142.756 252.533 142.904 252.533 143.08V145.984C252.533 146.16 252.549 146.312 252.581 146.44C252.613 146.56 252.665 146.656 252.737 146.728C252.809 146.792 252.909 146.824 253.037 146.824ZM256.546 148V141.064H258.502V141.76C258.758 141.504 259.022 141.304 259.294 141.16C259.574 141.016 259.866 140.944 260.17 140.944C260.458 140.944 260.694 141.016 260.878 141.16C261.07 141.296 261.214 141.488 261.31 141.736C261.406 141.976 261.454 142.252 261.454 142.564V148H259.51V142.84C259.51 142.672 259.482 142.544 259.426 142.456C259.37 142.368 259.266 142.324 259.114 142.324C259.034 142.324 258.938 142.348 258.826 142.396C258.722 142.436 258.614 142.496 258.502 142.576V148H256.546ZM263.168 145.528L262.604 138.304H264.548L263.84 145.528H263.168ZM262.568 148V146.176H264.416V148H262.568ZM130.525 166L132.361 156.28H134.809L136.621 166H134.641L134.317 163.948H132.889L132.553 166H130.525ZM133.081 162.664H134.113L133.597 158.872L133.081 162.664ZM139.643 166.072C139.123 166.072 138.719 165.996 138.431 165.844C138.151 165.692 137.959 165.472 137.855 165.184C137.751 164.888 137.699 164.532 137.699 164.116V160.348H137.027V159.064H137.699V156.952H139.679V159.064H140.663V160.348H139.679V163.924C139.679 164.124 139.735 164.268 139.847 164.356C139.967 164.444 140.115 164.488 140.291 164.488C140.395 164.488 140.491 164.484 140.579 164.476C140.667 164.46 140.747 164.448 140.819 164.44V165.976C140.715 165.992 140.551 166.012 140.327 166.036C140.103 166.06 139.875 166.072 139.643 166.072ZM146.955 166.072C146.435 166.072 146.031 165.996 145.743 165.844C145.463 165.692 145.271 165.472 145.167 165.184C145.063 164.888 145.011 164.532 145.011 164.116V160.348H144.339V159.064H145.011V156.952H146.991V159.064H147.975V160.348H146.991V163.924C146.991 164.124 147.047 164.268 147.159 164.356C147.279 164.444 147.427 164.488 147.603 164.488C147.707 164.488 147.803 164.484 147.891 164.476C147.979 164.46 148.059 164.448 148.131 164.44V165.976C148.027 165.992 147.863 166.012 147.639 166.036C147.415 166.06 147.187 166.072 146.955 166.072ZM149.062 166V156.28H151.006V159.676C151.262 159.42 151.53 159.236 151.81 159.124C152.09 159.004 152.39 158.944 152.71 158.944C152.99 158.944 153.222 159.016 153.406 159.16C153.598 159.296 153.742 159.488 153.838 159.736C153.934 159.976 153.982 160.252 153.982 160.564V166H152.038V160.84C152.038 160.672 152.01 160.544 151.954 160.456C151.898 160.368 151.794 160.324 151.642 160.324C151.562 160.324 151.466 160.348 151.354 160.396C151.242 160.436 151.126 160.496 151.006 160.576V166H149.062ZM157.423 166.12C156.919 166.12 156.487 166.032 156.127 165.856C155.767 165.672 155.491 165.408 155.299 165.064C155.107 164.712 155.011 164.292 155.011 163.804V161.26C155.011 160.764 155.107 160.344 155.299 160C155.491 159.656 155.767 159.396 156.127 159.22C156.495 159.036 156.927 158.944 157.423 158.944C157.935 158.944 158.359 159.032 158.695 159.208C159.039 159.384 159.295 159.644 159.463 159.988C159.639 160.332 159.727 160.756 159.727 161.26V162.652H156.943V163.984C156.943 164.16 156.963 164.304 157.003 164.416C157.043 164.528 157.099 164.608 157.171 164.656C157.243 164.704 157.327 164.728 157.423 164.728C157.519 164.728 157.603 164.708 157.675 164.668C157.755 164.62 157.815 164.548 157.855 164.452C157.903 164.356 157.927 164.224 157.927 164.056V163.324H159.727V163.996C159.727 164.7 159.523 165.232 159.115 165.592C158.707 165.944 158.143 166.12 157.423 166.12ZM156.943 161.74H157.927V161.044C157.927 160.86 157.903 160.716 157.855 160.612C157.815 160.508 157.755 160.436 157.675 160.396C157.603 160.356 157.515 160.336 157.411 160.336C157.315 160.336 157.231 160.36 157.159 160.408C157.095 160.456 157.043 160.54 157.003 160.66C156.963 160.772 156.943 160.936 156.943 161.152V161.74ZM163.862 166V159.064H165.782V159.616C166.038 159.368 166.302 159.192 166.574 159.088C166.854 158.984 167.138 158.932 167.426 158.932C167.706 158.932 167.946 159.004 168.146 159.148C168.354 159.284 168.51 159.488 168.614 159.76C168.886 159.456 169.17 159.244 169.466 159.124C169.77 158.996 170.074 158.932 170.378 158.932C170.65 158.932 170.886 159 171.086 159.136C171.286 159.264 171.442 159.456 171.554 159.712C171.666 159.96 171.722 160.26 171.722 160.612V166H169.802V160.816C169.802 160.624 169.766 160.488 169.694 160.408C169.63 160.32 169.53 160.276 169.394 160.276C169.314 160.276 169.214 160.3 169.094 160.348C168.974 160.388 168.858 160.448 168.746 160.528C168.746 160.544 168.746 160.56 168.746 160.576C168.746 160.584 168.746 160.596 168.746 160.612V166H166.85V160.816C166.85 160.624 166.814 160.488 166.742 160.408C166.67 160.32 166.566 160.276 166.43 160.276C166.342 160.276 166.238 160.3 166.118 160.348C166.006 160.388 165.894 160.448 165.782 160.528V166H163.862ZM175.177 166.12C174.681 166.12 174.249 166.036 173.881 165.868C173.521 165.7 173.241 165.448 173.041 165.112C172.849 164.776 172.753 164.356 172.753 163.852V161.212C172.753 160.708 172.849 160.288 173.041 159.952C173.241 159.616 173.521 159.364 173.881 159.196C174.249 159.028 174.681 158.944 175.177 158.944C175.673 158.944 176.101 159.028 176.461 159.196C176.829 159.364 177.113 159.616 177.313 159.952C177.513 160.288 177.613 160.708 177.613 161.212V163.852C177.613 164.356 177.513 164.776 177.313 165.112C177.113 165.448 176.829 165.7 176.461 165.868C176.101 166.036 175.673 166.12 175.177 166.12ZM175.189 164.824C175.317 164.824 175.417 164.792 175.489 164.728C175.561 164.656 175.609 164.56 175.633 164.44C175.665 164.312 175.681 164.16 175.681 163.984V161.08C175.681 160.904 175.665 160.756 175.633 160.636C175.609 160.508 175.561 160.412 175.489 160.348C175.417 160.276 175.317 160.24 175.189 160.24C175.061 160.24 174.961 160.276 174.889 160.348C174.817 160.412 174.765 160.508 174.733 160.636C174.701 160.756 174.685 160.904 174.685 161.08V163.984C174.685 164.16 174.701 164.312 174.733 164.44C174.765 164.56 174.817 164.656 174.889 164.728C174.961 164.792 175.061 164.824 175.189 164.824ZM178.698 166V159.064H180.618V159.616C180.874 159.368 181.138 159.192 181.41 159.088C181.69 158.984 181.974 158.932 182.262 158.932C182.542 158.932 182.782 159.004 182.982 159.148C183.19 159.284 183.346 159.488 183.45 159.76C183.722 159.456 184.006 159.244 184.302 159.124C184.606 158.996 184.91 158.932 185.214 158.932C185.486 158.932 185.722 159 185.922 159.136C186.122 159.264 186.278 159.456 186.39 159.712C186.502 159.96 186.558 160.26 186.558 160.612V166H184.638V160.816C184.638 160.624 184.602 160.488 184.53 160.408C184.466 160.32 184.366 160.276 184.23 160.276C184.15 160.276 184.05 160.3 183.93 160.348C183.81 160.388 183.694 160.448 183.582 160.528C183.582 160.544 183.582 160.56 183.582 160.576C183.582 160.584 183.582 160.596 183.582 160.612V166H181.686V160.816C181.686 160.624 181.65 160.488 181.578 160.408C181.506 160.32 181.402 160.276 181.266 160.276C181.178 160.276 181.074 160.3 180.954 160.348C180.842 160.388 180.73 160.448 180.618 160.528V166H178.698ZM190.001 166.12C189.497 166.12 189.065 166.032 188.705 165.856C188.345 165.672 188.069 165.408 187.877 165.064C187.685 164.712 187.589 164.292 187.589 163.804V161.26C187.589 160.764 187.685 160.344 187.877 160C188.069 159.656 188.345 159.396 188.705 159.22C189.073 159.036 189.505 158.944 190.001 158.944C190.513 158.944 190.937 159.032 191.273 159.208C191.617 159.384 191.873 159.644 192.041 159.988C192.217 160.332 192.305 160.756 192.305 161.26V162.652H189.521V163.984C189.521 164.16 189.541 164.304 189.581 164.416C189.621 164.528 189.677 164.608 189.749 164.656C189.821 164.704 189.905 164.728 190.001 164.728C190.097 164.728 190.181 164.708 190.253 164.668C190.333 164.62 190.393 164.548 190.433 164.452C190.481 164.356 190.505 164.224 190.505 164.056V163.324H192.305V163.996C192.305 164.7 192.101 165.232 191.693 165.592C191.285 165.944 190.721 166.12 190.001 166.12ZM189.521 161.74H190.505V161.044C190.505 160.86 190.481 160.716 190.433 160.612C190.393 160.508 190.333 160.436 190.253 160.396C190.181 160.356 190.093 160.336 189.989 160.336C189.893 160.336 189.809 160.36 189.737 160.408C189.673 160.456 189.621 160.54 189.581 160.66C189.541 160.772 189.521 160.936 189.521 161.152V161.74ZM193.37 166V159.064H195.326V159.76C195.582 159.504 195.846 159.304 196.118 159.16C196.398 159.016 196.69 158.944 196.994 158.944C197.282 158.944 197.518 159.016 197.702 159.16C197.894 159.296 198.038 159.488 198.134 159.736C198.23 159.976 198.278 160.252 198.278 160.564V166H196.334V160.84C196.334 160.672 196.306 160.544 196.25 160.456C196.194 160.368 196.09 160.324 195.938 160.324C195.858 160.324 195.762 160.348 195.65 160.396C195.546 160.436 195.438 160.496 195.326 160.576V166H193.37ZM201.6 166.072C201.08 166.072 200.676 165.996 200.388 165.844C200.108 165.692 199.916 165.472 199.812 165.184C199.708 164.888 199.656 164.532 199.656 164.116V160.348H198.984V159.064H199.656V156.952H201.636V159.064H202.62V160.348H201.636V163.924C201.636 164.124 201.692 164.268 201.804 164.356C201.924 164.444 202.072 164.488 202.248 164.488C202.352 164.488 202.448 164.484 202.536 164.476C202.624 164.46 202.704 164.448 202.776 164.44V165.976C202.672 165.992 202.508 166.012 202.284 166.036C202.06 166.06 201.832 166.072 201.6 166.072ZM206.956 168.016V166.66C207.204 166.66 207.408 166.644 207.568 166.612C207.736 166.58 207.86 166.52 207.94 166.432C208.028 166.344 208.072 166.224 208.072 166.072C208.072 165.936 208.048 165.772 208 165.58C207.952 165.38 207.892 165.156 207.82 164.908L206.188 159.064H208.024L208.9 163.072L209.56 159.064H211.408L209.812 166.168C209.708 166.648 209.544 167.02 209.32 167.284C209.096 167.556 208.82 167.744 208.492 167.848C208.172 167.96 207.808 168.016 207.4 168.016H206.956ZM214.423 166.12C213.927 166.12 213.495 166.036 213.127 165.868C212.767 165.7 212.487 165.448 212.287 165.112C212.095 164.776 211.999 164.356 211.999 163.852V161.212C211.999 160.708 212.095 160.288 212.287 159.952C212.487 159.616 212.767 159.364 213.127 159.196C213.495 159.028 213.927 158.944 214.423 158.944C214.919 158.944 215.347 159.028 215.707 159.196C216.075 159.364 216.359 159.616 216.559 159.952C216.759 160.288 216.859 160.708 216.859 161.212V163.852C216.859 164.356 216.759 164.776 216.559 165.112C216.359 165.448 216.075 165.7 215.707 165.868C215.347 166.036 214.919 166.12 214.423 166.12ZM214.435 164.824C214.563 164.824 214.663 164.792 214.735 164.728C214.807 164.656 214.855 164.56 214.879 164.44C214.911 164.312 214.927 164.16 214.927 163.984V161.08C214.927 160.904 214.911 160.756 214.879 160.636C214.855 160.508 214.807 160.412 214.735 160.348C214.663 160.276 214.563 160.24 214.435 160.24C214.307 160.24 214.207 160.276 214.135 160.348C214.063 160.412 214.011 160.508 213.979 160.636C213.947 160.756 213.931 160.904 213.931 161.08V163.984C213.931 164.16 213.947 164.312 213.979 164.44C214.011 164.56 214.063 164.656 214.135 164.728C214.207 164.792 214.307 164.824 214.435 164.824ZM219.168 166.12C218.888 166.12 218.648 166.052 218.448 165.916C218.256 165.772 218.112 165.576 218.016 165.328C217.92 165.08 217.872 164.804 217.872 164.5V159.064H219.828V164.272C219.828 164.44 219.856 164.572 219.912 164.668C219.976 164.756 220.084 164.8 220.236 164.8C220.324 164.8 220.416 164.78 220.512 164.74C220.608 164.692 220.708 164.64 220.812 164.584V159.064H222.756V166H220.812V165.364C220.564 165.596 220.3 165.78 220.02 165.916C219.748 166.052 219.464 166.12 219.168 166.12ZM228.489 166.12C228.137 166.12 227.841 166.036 227.601 165.868C227.361 165.7 227.181 165.488 227.061 165.232C226.941 164.968 226.881 164.7 226.881 164.428C226.881 163.996 226.965 163.632 227.133 163.336C227.309 163.04 227.537 162.792 227.817 162.592C228.097 162.392 228.405 162.224 228.741 162.088C229.077 161.944 229.409 161.816 229.737 161.704V161.008C229.737 160.888 229.725 160.784 229.701 160.696C229.677 160.6 229.637 160.528 229.581 160.48C229.525 160.424 229.441 160.396 229.329 160.396C229.217 160.396 229.129 160.42 229.065 160.468C229.009 160.516 228.969 160.584 228.945 160.672C228.921 160.752 228.905 160.844 228.897 160.948L228.849 161.452L227.025 161.38C227.065 160.548 227.285 159.936 227.685 159.544C228.093 159.144 228.701 158.944 229.509 158.944C230.213 158.944 230.737 159.14 231.081 159.532C231.433 159.916 231.609 160.416 231.609 161.032V164.272C231.609 164.56 231.613 164.812 231.621 165.028C231.637 165.244 231.653 165.432 231.669 165.592C231.693 165.752 231.713 165.888 231.729 166H229.977C229.953 165.816 229.925 165.616 229.893 165.4C229.861 165.184 229.837 165.056 229.821 165.016C229.741 165.304 229.589 165.56 229.365 165.784C229.149 166.008 228.857 166.12 228.489 166.12ZM229.185 164.8C229.265 164.8 229.337 164.784 229.401 164.752C229.473 164.72 229.537 164.676 229.593 164.62C229.649 164.564 229.697 164.508 229.737 164.452V162.556C229.577 162.652 229.429 162.752 229.293 162.856C229.157 162.952 229.041 163.06 228.945 163.18C228.849 163.3 228.773 163.432 228.717 163.576C228.669 163.712 228.645 163.868 228.645 164.044C228.645 164.276 228.693 164.46 228.789 164.596C228.885 164.732 229.017 164.8 229.185 164.8ZM232.792 166V159.064H234.748V160.216C234.972 159.816 235.196 159.512 235.42 159.304C235.644 159.088 235.916 158.98 236.236 158.98C236.3 158.98 236.356 158.984 236.404 158.992C236.452 158.992 236.496 159 236.536 159.016V160.96C236.448 160.92 236.348 160.888 236.236 160.864C236.132 160.832 236.02 160.816 235.9 160.816C235.676 160.816 235.468 160.876 235.276 160.996C235.084 161.116 234.908 161.28 234.748 161.488V166H232.792ZM239.63 166.12C239.126 166.12 238.694 166.032 238.334 165.856C237.974 165.672 237.698 165.408 237.506 165.064C237.314 164.712 237.218 164.292 237.218 163.804V161.26C237.218 160.764 237.314 160.344 237.506 160C237.698 159.656 237.974 159.396 238.334 159.22C238.702 159.036 239.134 158.944 239.63 158.944C240.142 158.944 240.566 159.032 240.902 159.208C241.246 159.384 241.502 159.644 241.67 159.988C241.846 160.332 241.934 160.756 241.934 161.26V162.652H239.15V163.984C239.15 164.16 239.17 164.304 239.21 164.416C239.25 164.528 239.306 164.608 239.378 164.656C239.45 164.704 239.534 164.728 239.63 164.728C239.726 164.728 239.81 164.708 239.882 164.668C239.962 164.62 240.022 164.548 240.062 164.452C240.11 164.356 240.134 164.224 240.134 164.056V163.324H241.934V163.996C241.934 164.7 241.73 165.232 241.322 165.592C240.914 165.944 240.35 166.12 239.63 166.12ZM239.15 161.74H240.134V161.044C240.134 160.86 240.11 160.716 240.062 160.612C240.022 160.508 239.962 160.436 239.882 160.396C239.81 160.356 239.722 160.336 239.618 160.336C239.522 160.336 239.438 160.36 239.366 160.408C239.302 160.456 239.25 160.54 239.21 160.66C239.17 160.772 239.15 160.936 239.15 161.152V161.74ZM246.069 168.28V159.064H248.025V159.568C248.257 159.36 248.505 159.204 248.769 159.1C249.033 158.996 249.285 158.944 249.525 158.944C249.789 158.944 250.013 158.996 250.197 159.1C250.389 159.204 250.545 159.352 250.665 159.544C250.785 159.728 250.873 159.944 250.929 160.192C250.985 160.44 251.013 160.704 251.013 160.984V163.972C251.013 164.404 250.953 164.78 250.833 165.1C250.721 165.42 250.553 165.672 250.329 165.856C250.105 166.032 249.829 166.12 249.501 166.12C249.253 166.12 249.001 166.064 248.745 165.952C248.497 165.832 248.257 165.672 248.025 165.472V168.28H246.069ZM248.541 164.86C248.669 164.86 248.769 164.824 248.841 164.752C248.913 164.68 248.965 164.588 248.997 164.476C249.037 164.356 249.057 164.224 249.057 164.08V160.84C249.057 160.704 249.041 160.584 249.009 160.48C248.977 160.368 248.925 160.28 248.853 160.216C248.781 160.152 248.689 160.12 248.577 160.12C248.473 160.12 248.373 160.144 248.277 160.192C248.189 160.232 248.105 160.288 248.025 160.36V164.68C248.113 164.736 248.197 164.78 248.277 164.812C248.365 164.844 248.453 164.86 248.541 164.86ZM252.212 166V156.28H254.156V166H252.212ZM256.849 166.12C256.497 166.12 256.201 166.036 255.961 165.868C255.721 165.7 255.541 165.488 255.421 165.232C255.301 164.968 255.241 164.7 255.241 164.428C255.241 163.996 255.325 163.632 255.493 163.336C255.669 163.04 255.897 162.792 256.177 162.592C256.457 162.392 256.765 162.224 257.101 162.088C257.437 161.944 257.769 161.816 258.097 161.704V161.008C258.097 160.888 258.085 160.784 258.061 160.696C258.037 160.6 257.997 160.528 257.941 160.48C257.885 160.424 257.801 160.396 257.689 160.396C257.577 160.396 257.489 160.42 257.425 160.468C257.369 160.516 257.329 160.584 257.305 160.672C257.281 160.752 257.265 160.844 257.257 160.948L257.209 161.452L255.385 161.38C255.425 160.548 255.645 159.936 256.045 159.544C256.453 159.144 257.061 158.944 257.869 158.944C258.573 158.944 259.097 159.14 259.441 159.532C259.793 159.916 259.969 160.416 259.969 161.032V164.272C259.969 164.56 259.973 164.812 259.981 165.028C259.997 165.244 260.013 165.432 260.029 165.592C260.053 165.752 260.073 165.888 260.089 166H258.337C258.313 165.816 258.285 165.616 258.253 165.4C258.221 165.184 258.197 165.056 258.181 165.016C258.101 165.304 257.949 165.56 257.725 165.784C257.509 166.008 257.217 166.12 256.849 166.12ZM257.545 164.8C257.625 164.8 257.697 164.784 257.761 164.752C257.833 164.72 257.897 164.676 257.953 164.62C258.009 164.564 258.057 164.508 258.097 164.452V162.556C257.937 162.652 257.789 162.752 257.653 162.856C257.517 162.952 257.401 163.06 257.305 163.18C257.209 163.3 257.133 163.432 257.077 163.576C257.029 163.712 257.005 163.868 257.005 164.044C257.005 164.276 257.053 164.46 257.149 164.596C257.245 164.732 257.377 164.8 257.545 164.8ZM261.32 168.016V166.66C261.568 166.66 261.772 166.644 261.932 166.612C262.1 166.58 262.224 166.52 262.304 166.432C262.392 166.344 262.436 166.224 262.436 166.072C262.436 165.936 262.412 165.772 262.364 165.58C262.316 165.38 262.256 165.156 262.184 164.908L260.552 159.064H262.388L263.264 163.072L263.924 159.064H265.772L264.176 166.168C264.072 166.648 263.908 167.02 263.684 167.284C263.46 167.556 263.184 167.744 262.856 167.848C262.536 167.96 262.172 168.016 261.764 168.016H261.32ZM266.519 166V159.064H268.475V166H266.519ZM266.507 157.888V156.532H268.475V157.888H266.507ZM269.682 166V159.064H271.638V159.76C271.894 159.504 272.158 159.304 272.43 159.16C272.71 159.016 273.002 158.944 273.306 158.944C273.594 158.944 273.83 159.016 274.014 159.16C274.206 159.296 274.35 159.488 274.446 159.736C274.542 159.976 274.59 160.252 274.59 160.564V166H272.646V160.84C272.646 160.672 272.618 160.544 272.562 160.456C272.506 160.368 272.402 160.324 272.25 160.324C272.17 160.324 272.074 160.348 271.962 160.396C271.858 160.436 271.75 160.496 271.638 160.576V166H269.682ZM278.02 168.4C277.5 168.4 277.048 168.348 276.664 168.244C276.28 168.14 275.98 167.984 275.764 167.776C275.556 167.568 275.452 167.304 275.452 166.984C275.452 166.768 275.496 166.572 275.584 166.396C275.68 166.228 275.808 166.08 275.968 165.952C276.136 165.816 276.324 165.7 276.532 165.604C276.228 165.516 275.992 165.384 275.824 165.208C275.656 165.032 275.572 164.796 275.572 164.5C275.572 164.22 275.64 163.98 275.776 163.78C275.912 163.572 276.1 163.364 276.34 163.156C276.116 162.956 275.944 162.712 275.824 162.424C275.712 162.128 275.656 161.772 275.656 161.356C275.656 160.836 275.752 160.396 275.944 160.036C276.136 159.676 276.416 159.404 276.784 159.22C277.16 159.036 277.612 158.944 278.14 158.944C278.5 158.944 278.816 158.988 279.088 159.076C279.36 159.164 279.592 159.3 279.784 159.484C279.872 159.348 279.988 159.216 280.132 159.088C280.276 158.96 280.44 158.852 280.624 158.764L280.876 158.644L281.332 159.58C281.26 159.604 281.16 159.644 281.032 159.7C280.904 159.756 280.768 159.816 280.624 159.88C280.488 159.944 280.364 160.008 280.252 160.072C280.34 160.248 280.408 160.448 280.456 160.672C280.504 160.896 280.528 161.128 280.528 161.368C280.528 161.864 280.436 162.292 280.252 162.652C280.076 163.012 279.812 163.288 279.46 163.48C279.108 163.664 278.668 163.756 278.14 163.756C277.916 163.756 277.704 163.74 277.504 163.708C277.304 163.668 277.12 163.62 276.952 163.564C276.904 163.628 276.86 163.696 276.82 163.768C276.788 163.832 276.772 163.904 276.772 163.984C276.772 164.08 276.82 164.156 276.916 164.212C277.012 164.268 277.184 164.312 277.432 164.344L279.256 164.548C279.848 164.612 280.284 164.804 280.564 165.124C280.844 165.436 280.984 165.848 280.984 166.36C280.984 166.8 280.884 167.172 280.684 167.476C280.492 167.78 280.176 168.008 279.736 168.16C279.304 168.32 278.732 168.4 278.02 168.4ZM278.272 166.984C278.712 166.984 279.048 166.948 279.28 166.876C279.52 166.804 279.64 166.656 279.64 166.432C279.64 166.32 279.608 166.228 279.544 166.156C279.48 166.092 279.372 166.04 279.22 166C279.076 165.952 278.868 165.916 278.596 165.892L277.312 165.76C277.232 165.816 277.16 165.88 277.096 165.952C277.04 166.016 276.992 166.084 276.952 166.156C276.92 166.236 276.904 166.32 276.904 166.408C276.904 166.6 277.008 166.744 277.216 166.84C277.424 166.936 277.776 166.984 278.272 166.984ZM278.14 162.592C278.252 162.592 278.344 162.572 278.416 162.532C278.488 162.484 278.54 162.412 278.572 162.316C278.612 162.22 278.64 162.092 278.656 161.932C278.672 161.772 278.68 161.58 278.68 161.356C278.68 161.124 278.672 160.932 278.656 160.78C278.64 160.62 278.612 160.492 278.572 160.396C278.54 160.292 278.488 160.22 278.416 160.18C278.344 160.132 278.252 160.108 278.14 160.108C278.028 160.108 277.936 160.132 277.864 160.18C277.792 160.22 277.736 160.288 277.696 160.384C277.664 160.48 277.64 160.608 277.624 160.768C277.608 160.928 277.6 161.124 277.6 161.356C277.6 161.58 277.608 161.772 277.624 161.932C277.64 162.084 277.664 162.212 277.696 162.316C277.736 162.412 277.792 162.484 277.864 162.532C277.936 162.572 278.028 162.592 278.14 162.592ZM281.98 167.68L281.86 167.044C282.068 166.988 282.26 166.884 282.436 166.732C282.62 166.588 282.712 166.344 282.712 166H281.68V164.152H283.54V165.748C283.532 166.34 283.4 166.8 283.144 167.128C282.888 167.456 282.5 167.64 281.98 167.68ZM289.854 166.072C289.334 166.072 288.93 165.996 288.642 165.844C288.362 165.692 288.17 165.472 288.066 165.184C287.962 164.888 287.91 164.532 287.91 164.116V160.348H287.238V159.064H287.91V156.952H289.89V159.064H290.874V160.348H289.89V163.924C289.89 164.124 289.946 164.268 290.058 164.356C290.178 164.444 290.326 164.488 290.502 164.488C290.606 164.488 290.702 164.484 290.79 164.476C290.878 164.46 290.958 164.448 291.03 164.44V165.976C290.926 165.992 290.762 166.012 290.538 166.036C290.314 166.06 290.086 166.072 289.854 166.072ZM291.96 166V156.28H293.904V159.676C294.16 159.42 294.428 159.236 294.708 159.124C294.988 159.004 295.288 158.944 295.608 158.944C295.888 158.944 296.12 159.016 296.304 159.16C296.496 159.296 296.64 159.488 296.736 159.736C296.832 159.976 296.88 160.252 296.88 160.564V166H294.936V160.84C294.936 160.672 294.908 160.544 294.852 160.456C294.796 160.368 294.692 160.324 294.54 160.324C294.46 160.324 294.364 160.348 294.252 160.396C294.14 160.436 294.024 160.496 293.904 160.576V166H291.96ZM298.065 166V159.064H300.021V166H298.065ZM298.053 157.888V156.532H300.021V157.888H298.053ZM303.365 166.12C302.757 166.12 302.249 165.984 301.841 165.712C301.441 165.44 301.113 164.996 300.857 164.38L302.189 163.792C302.317 164.104 302.465 164.352 302.633 164.536C302.809 164.712 303.001 164.8 303.209 164.8C303.361 164.8 303.473 164.768 303.545 164.704C303.625 164.64 303.665 164.552 303.665 164.44C303.665 164.256 303.593 164.088 303.449 163.936C303.313 163.784 303.065 163.56 302.705 163.264L302.201 162.844C301.833 162.532 301.541 162.232 301.325 161.944C301.117 161.648 301.013 161.284 301.013 160.852C301.013 160.476 301.109 160.144 301.301 159.856C301.501 159.568 301.765 159.344 302.093 159.184C302.421 159.024 302.773 158.944 303.149 158.944C303.717 158.944 304.193 159.1 304.577 159.412C304.961 159.724 305.229 160.164 305.381 160.732L304.121 161.308C304.073 161.156 304.005 161.004 303.917 160.852C303.829 160.7 303.721 160.572 303.593 160.468C303.473 160.364 303.341 160.312 303.197 160.312C303.069 160.312 302.965 160.348 302.885 160.42C302.813 160.492 302.777 160.588 302.777 160.708C302.777 160.86 302.861 161.024 303.029 161.2C303.205 161.376 303.445 161.588 303.749 161.836L304.241 162.268C304.441 162.436 304.637 162.616 304.829 162.808C305.021 163 305.177 163.212 305.297 163.444C305.425 163.676 305.489 163.94 305.489 164.236C305.489 164.636 305.389 164.98 305.189 165.268C304.989 165.548 304.725 165.76 304.397 165.904C304.077 166.048 303.733 166.12 303.365 166.12ZM309.397 166V159.064H311.353V166H309.397ZM309.385 157.888V156.532H311.353V157.888H309.385ZM314.697 166.12C314.089 166.12 313.581 165.984 313.173 165.712C312.773 165.44 312.445 164.996 312.189 164.38L313.521 163.792C313.649 164.104 313.797 164.352 313.965 164.536C314.141 164.712 314.333 164.8 314.541 164.8C314.693 164.8 314.805 164.768 314.877 164.704C314.957 164.64 314.997 164.552 314.997 164.44C314.997 164.256 314.925 164.088 314.781 163.936C314.645 163.784 314.397 163.56 314.037 163.264L313.533 162.844C313.165 162.532 312.873 162.232 312.657 161.944C312.449 161.648 312.345 161.284 312.345 160.852C312.345 160.476 312.441 160.144 312.633 159.856C312.833 159.568 313.097 159.344 313.425 159.184C313.753 159.024 314.105 158.944 314.481 158.944C315.049 158.944 315.525 159.1 315.909 159.412C316.293 159.724 316.561 160.164 316.713 160.732L315.453 161.308C315.405 161.156 315.337 161.004 315.249 160.852C315.161 160.7 315.053 160.572 314.925 160.468C314.805 160.364 314.673 160.312 314.529 160.312C314.401 160.312 314.297 160.348 314.217 160.42C314.145 160.492 314.109 160.588 314.109 160.708C314.109 160.86 314.193 161.024 314.361 161.2C314.537 161.376 314.777 161.588 315.081 161.836L315.573 162.268C315.773 162.436 315.969 162.616 316.161 162.808C316.353 163 316.509 163.212 316.629 163.444C316.757 163.676 316.821 163.94 316.821 164.236C316.821 164.636 316.721 164.98 316.521 165.268C316.321 165.548 316.057 165.76 315.729 165.904C315.409 166.048 315.065 166.12 314.697 166.12ZM322.145 166.12C321.793 166.12 321.497 166.036 321.257 165.868C321.017 165.7 320.837 165.488 320.717 165.232C320.597 164.968 320.537 164.7 320.537 164.428C320.537 163.996 320.621 163.632 320.789 163.336C320.965 163.04 321.193 162.792 321.473 162.592C321.753 162.392 322.061 162.224 322.397 162.088C322.733 161.944 323.065 161.816 323.393 161.704V161.008C323.393 160.888 323.381 160.784 323.357 160.696C323.333 160.6 323.293 160.528 323.237 160.48C323.181 160.424 323.097 160.396 322.985 160.396C322.873 160.396 322.785 160.42 322.721 160.468C322.665 160.516 322.625 160.584 322.601 160.672C322.577 160.752 322.561 160.844 322.553 160.948L322.505 161.452L320.681 161.38C320.721 160.548 320.941 159.936 321.341 159.544C321.749 159.144 322.357 158.944 323.165 158.944C323.869 158.944 324.393 159.14 324.737 159.532C325.089 159.916 325.265 160.416 325.265 161.032V164.272C325.265 164.56 325.269 164.812 325.277 165.028C325.293 165.244 325.309 165.432 325.325 165.592C325.349 165.752 325.369 165.888 325.385 166H323.633C323.609 165.816 323.581 165.616 323.549 165.4C323.517 165.184 323.493 165.056 323.477 165.016C323.397 165.304 323.245 165.56 323.021 165.784C322.805 166.008 322.513 166.12 322.145 166.12ZM322.841 164.8C322.921 164.8 322.993 164.784 323.057 164.752C323.129 164.72 323.193 164.676 323.249 164.62C323.305 164.564 323.353 164.508 323.393 164.452V162.556C323.233 162.652 323.085 162.752 322.949 162.856C322.813 162.952 322.697 163.06 322.601 163.18C322.505 163.3 322.429 163.432 322.373 163.576C322.325 163.712 322.301 163.868 322.301 164.044C322.301 164.276 322.349 164.46 322.445 164.596C322.541 164.732 322.673 164.8 322.841 164.8ZM328.681 166.12C328.177 166.12 327.745 166.028 327.385 165.844C327.033 165.66 326.761 165.396 326.569 165.052C326.377 164.708 326.281 164.292 326.281 163.804V161.26C326.281 160.764 326.377 160.344 326.569 160C326.761 159.656 327.033 159.396 327.385 159.22C327.745 159.036 328.177 158.944 328.681 158.944C329.177 158.944 329.597 159.02 329.941 159.172C330.293 159.324 330.561 159.556 330.745 159.868C330.929 160.172 331.021 160.56 331.021 161.032V161.764H329.137V160.972C329.137 160.788 329.117 160.648 329.077 160.552C329.045 160.448 328.993 160.376 328.921 160.336C328.857 160.296 328.777 160.276 328.681 160.276C328.585 160.276 328.505 160.304 328.441 160.36C328.377 160.408 328.329 160.492 328.297 160.612C328.265 160.724 328.249 160.884 328.249 161.092V163.972C328.249 164.284 328.285 164.496 328.357 164.608C328.437 164.72 328.549 164.776 328.693 164.776C328.797 164.776 328.881 164.756 328.945 164.716C329.009 164.668 329.057 164.596 329.089 164.5C329.121 164.396 329.137 164.26 329.137 164.092V163.168H331.021V164.008C331.021 164.472 330.925 164.864 330.733 165.184C330.549 165.496 330.281 165.732 329.929 165.892C329.585 166.044 329.169 166.12 328.681 166.12ZM334.186 166.072C333.666 166.072 333.262 165.996 332.974 165.844C332.694 165.692 332.502 165.472 332.398 165.184C332.294 164.888 332.242 164.532 332.242 164.116V160.348H331.57V159.064H332.242V156.952H334.222V159.064H335.206V160.348H334.222V163.924C334.222 164.124 334.278 164.268 334.39 164.356C334.51 164.444 334.658 164.488 334.834 164.488C334.938 164.488 335.034 164.484 335.122 164.476C335.21 164.46 335.29 164.448 335.362 164.44V165.976C335.258 165.992 335.094 166.012 334.87 166.036C334.646 166.06 334.418 166.072 334.186 166.072ZM336.292 166V159.064H338.248V166H336.292ZM336.28 157.888V156.532H338.248V157.888H336.28ZM341.736 166.12C341.24 166.12 340.808 166.036 340.44 165.868C340.08 165.7 339.8 165.448 339.6 165.112C339.408 164.776 339.312 164.356 339.312 163.852V161.212C339.312 160.708 339.408 160.288 339.6 159.952C339.8 159.616 340.08 159.364 340.44 159.196C340.808 159.028 341.24 158.944 341.736 158.944C342.232 158.944 342.66 159.028 343.02 159.196C343.388 159.364 343.672 159.616 343.872 159.952C344.072 160.288 344.172 160.708 344.172 161.212V163.852C344.172 164.356 344.072 164.776 343.872 165.112C343.672 165.448 343.388 165.7 343.02 165.868C342.66 166.036 342.232 166.12 341.736 166.12ZM341.748 164.824C341.876 164.824 341.976 164.792 342.048 164.728C342.12 164.656 342.168 164.56 342.192 164.44C342.224 164.312 342.24 164.16 342.24 163.984V161.08C342.24 160.904 342.224 160.756 342.192 160.636C342.168 160.508 342.12 160.412 342.048 160.348C341.976 160.276 341.876 160.24 341.748 160.24C341.62 160.24 341.52 160.276 341.448 160.348C341.376 160.412 341.324 160.508 341.292 160.636C341.26 160.756 341.244 160.904 341.244 161.08V163.984C341.244 164.16 341.26 164.312 341.292 164.44C341.324 164.56 341.376 164.656 341.448 164.728C341.52 164.792 341.62 164.824 341.748 164.824ZM345.257 166V159.064H347.213V159.76C347.469 159.504 347.733 159.304 348.005 159.16C348.285 159.016 348.577 158.944 348.881 158.944C349.169 158.944 349.405 159.016 349.589 159.16C349.781 159.296 349.925 159.488 350.021 159.736C350.117 159.976 350.165 160.252 350.165 160.564V166H348.221V160.84C348.221 160.672 348.193 160.544 348.137 160.456C348.081 160.368 347.977 160.324 347.825 160.324C347.745 160.324 347.649 160.348 347.537 160.396C347.433 160.436 347.325 160.496 347.213 160.576V166H345.257ZM131.581 184L130.561 177.064H132.193L132.697 181L133.237 177.064H134.653L135.121 181.096L135.709 177.064H137.221L136.189 184H134.509L133.909 180.1L133.237 184H131.581ZM138.093 184V177.064H140.049V184H138.093ZM138.081 175.888V174.532H140.049V175.888H138.081ZM141.341 184V174.28H143.285V184H141.341ZM144.634 184V174.28H146.578V184H144.634ZM150.925 184V177.064H152.881V184H150.925ZM150.913 175.888V174.532H152.881V175.888H150.913ZM154.089 184V177.064H156.045V177.76C156.301 177.504 156.565 177.304 156.837 177.16C157.117 177.016 157.409 176.944 157.713 176.944C158.001 176.944 158.237 177.016 158.421 177.16C158.613 177.296 158.757 177.488 158.853 177.736C158.949 177.976 158.997 178.252 158.997 178.564V184H157.053V178.84C157.053 178.672 157.025 178.544 156.969 178.456C156.913 178.368 156.809 178.324 156.657 178.324C156.577 178.324 156.481 178.348 156.369 178.396C156.265 178.436 156.157 178.496 156.045 178.576V184H154.089ZM162.319 184.072C161.799 184.072 161.395 183.996 161.107 183.844C160.827 183.692 160.635 183.472 160.531 183.184C160.427 182.888 160.375 182.532 160.375 182.116V178.348H159.703V177.064H160.375V174.952H162.355V177.064H163.339V178.348H162.355V181.924C162.355 182.124 162.411 182.268 162.523 182.356C162.643 182.444 162.791 182.488 162.967 182.488C163.071 182.488 163.167 182.484 163.255 182.476C163.343 182.46 163.423 182.448 163.495 182.44V183.976C163.391 183.992 163.227 184.012 163.003 184.036C162.779 184.06 162.551 184.072 162.319 184.072ZM166.681 184.12C166.177 184.12 165.745 184.032 165.385 183.856C165.025 183.672 164.749 183.408 164.557 183.064C164.365 182.712 164.269 182.292 164.269 181.804V179.26C164.269 178.764 164.365 178.344 164.557 178C164.749 177.656 165.025 177.396 165.385 177.22C165.753 177.036 166.185 176.944 166.681 176.944C167.193 176.944 167.617 177.032 167.953 177.208C168.297 177.384 168.553 177.644 168.721 177.988C168.897 178.332 168.985 178.756 168.985 179.26V180.652H166.201V181.984C166.201 182.16 166.221 182.304 166.261 182.416C166.301 182.528 166.357 182.608 166.429 182.656C166.501 182.704 166.585 182.728 166.681 182.728C166.777 182.728 166.861 182.708 166.933 182.668C167.013 182.62 167.073 182.548 167.113 182.452C167.161 182.356 167.185 182.224 167.185 182.056V181.324H168.985V181.996C168.985 182.7 168.781 183.232 168.373 183.592C167.965 183.944 167.401 184.12 166.681 184.12ZM166.201 179.74H167.185V179.044C167.185 178.86 167.161 178.716 167.113 178.612C167.073 178.508 167.013 178.436 166.933 178.396C166.861 178.356 166.773 178.336 166.669 178.336C166.573 178.336 166.489 178.36 166.417 178.408C166.353 178.456 166.301 178.54 166.261 178.66C166.221 178.772 166.201 178.936 166.201 179.152V179.74ZM170.074 184V177.064H172.03V178.216C172.254 177.816 172.478 177.512 172.702 177.304C172.926 177.088 173.198 176.98 173.518 176.98C173.582 176.98 173.638 176.984 173.686 176.992C173.734 176.992 173.778 177 173.818 177.016V178.96C173.73 178.92 173.63 178.888 173.518 178.864C173.414 178.832 173.302 178.816 173.182 178.816C172.958 178.816 172.75 178.876 172.558 178.996C172.366 179.116 172.19 179.28 172.03 179.488V184H170.074ZM174.667 184V177.064H176.623V178.216C176.847 177.816 177.071 177.512 177.295 177.304C177.519 177.088 177.791 176.98 178.111 176.98C178.175 176.98 178.231 176.984 178.279 176.992C178.327 176.992 178.371 177 178.411 177.016V178.96C178.323 178.92 178.223 178.888 178.111 178.864C178.007 178.832 177.895 178.816 177.775 178.816C177.551 178.816 177.343 178.876 177.151 178.996C176.959 179.116 176.783 179.28 176.623 179.488V184H174.667ZM180.461 184.12C180.181 184.12 179.941 184.052 179.741 183.916C179.549 183.772 179.405 183.576 179.309 183.328C179.213 183.08 179.165 182.804 179.165 182.5V177.064H181.121V182.272C181.121 182.44 181.149 182.572 181.205 182.668C181.269 182.756 181.377 182.8 181.529 182.8C181.617 182.8 181.709 182.78 181.805 182.74C181.901 182.692 182.001 182.64 182.105 182.584V177.064H184.049V184H182.105V183.364C181.857 183.596 181.593 183.78 181.313 183.916C181.041 184.052 180.757 184.12 180.461 184.12ZM185.284 186.28V177.064H187.24V177.568C187.472 177.36 187.72 177.204 187.984 177.1C188.248 176.996 188.5 176.944 188.74 176.944C189.004 176.944 189.228 176.996 189.412 177.1C189.604 177.204 189.76 177.352 189.88 177.544C190 177.728 190.088 177.944 190.144 178.192C190.2 178.44 190.228 178.704 190.228 178.984V181.972C190.228 182.404 190.168 182.78 190.048 183.1C189.936 183.42 189.768 183.672 189.544 183.856C189.32 184.032 189.044 184.12 188.716 184.12C188.468 184.12 188.216 184.064 187.96 183.952C187.712 183.832 187.472 183.672 187.24 183.472V186.28H185.284ZM187.756 182.86C187.884 182.86 187.984 182.824 188.056 182.752C188.128 182.68 188.18 182.588 188.212 182.476C188.252 182.356 188.272 182.224 188.272 182.08V178.84C188.272 178.704 188.256 178.584 188.224 178.48C188.192 178.368 188.14 178.28 188.068 178.216C187.996 178.152 187.904 178.12 187.792 178.12C187.688 178.12 187.588 178.144 187.492 178.192C187.404 178.232 187.32 178.288 187.24 178.36V182.68C187.328 182.736 187.412 182.78 187.492 182.812C187.58 182.844 187.668 182.86 187.756 182.86ZM193.49 184.072C192.97 184.072 192.566 183.996 192.278 183.844C191.998 183.692 191.806 183.472 191.702 183.184C191.598 182.888 191.546 182.532 191.546 182.116V178.348H190.874V177.064H191.546V174.952H193.526V177.064H194.51V178.348H193.526V181.924C193.526 182.124 193.582 182.268 193.694 182.356C193.814 182.444 193.962 182.488 194.138 182.488C194.242 182.488 194.338 182.484 194.426 182.476C194.514 182.46 194.594 182.448 194.666 182.44V183.976C194.562 183.992 194.398 184.012 194.174 184.036C193.95 184.06 193.722 184.072 193.49 184.072ZM200.803 184.072C200.283 184.072 199.879 183.996 199.591 183.844C199.311 183.692 199.119 183.472 199.015 183.184C198.911 182.888 198.859 182.532 198.859 182.116V178.348H198.187V177.064H198.859V174.952H200.839V177.064H201.823V178.348H200.839V181.924C200.839 182.124 200.895 182.268 201.007 182.356C201.127 182.444 201.275 182.488 201.451 182.488C201.555 182.488 201.651 182.484 201.739 182.476C201.827 182.46 201.907 182.448 201.979 182.44V183.976C201.875 183.992 201.711 184.012 201.487 184.036C201.263 184.06 201.035 184.072 200.803 184.072ZM202.909 184V174.28H204.853V177.676C205.109 177.42 205.377 177.236 205.657 177.124C205.937 177.004 206.237 176.944 206.557 176.944C206.837 176.944 207.069 177.016 207.253 177.16C207.445 177.296 207.589 177.488 207.685 177.736C207.781 177.976 207.829 178.252 207.829 178.564V184H205.885V178.84C205.885 178.672 205.857 178.544 205.801 178.456C205.745 178.368 205.641 178.324 205.489 178.324C205.409 178.324 205.313 178.348 205.201 178.396C205.089 178.436 204.973 178.496 204.853 178.576V184H202.909ZM211.271 184.12C210.767 184.12 210.335 184.032 209.975 183.856C209.615 183.672 209.339 183.408 209.147 183.064C208.955 182.712 208.859 182.292 208.859 181.804V179.26C208.859 178.764 208.955 178.344 209.147 178C209.339 177.656 209.615 177.396 209.975 177.22C210.343 177.036 210.775 176.944 211.271 176.944C211.783 176.944 212.207 177.032 212.543 177.208C212.887 177.384 213.143 177.644 213.311 177.988C213.487 178.332 213.575 178.756 213.575 179.26V180.652H210.791V181.984C210.791 182.16 210.811 182.304 210.851 182.416C210.891 182.528 210.947 182.608 211.019 182.656C211.091 182.704 211.175 182.728 211.271 182.728C211.367 182.728 211.451 182.708 211.523 182.668C211.603 182.62 211.663 182.548 211.703 182.452C211.751 182.356 211.775 182.224 211.775 182.056V181.324H213.575V181.996C213.575 182.7 213.371 183.232 212.963 183.592C212.555 183.944 211.991 184.12 211.271 184.12ZM210.791 179.74H211.775V179.044C211.775 178.86 211.751 178.716 211.703 178.612C211.663 178.508 211.603 178.436 211.523 178.396C211.451 178.356 211.363 178.336 211.259 178.336C211.163 178.336 211.079 178.36 211.007 178.408C210.943 178.456 210.891 178.54 210.851 178.66C210.811 178.772 210.791 178.936 210.791 179.152V179.74ZM219.966 186.4C219.446 186.4 218.994 186.348 218.61 186.244C218.226 186.14 217.926 185.984 217.71 185.776C217.502 185.568 217.398 185.304 217.398 184.984C217.398 184.768 217.442 184.572 217.53 184.396C217.626 184.228 217.754 184.08 217.914 183.952C218.082 183.816 218.27 183.7 218.478 183.604C218.174 183.516 217.938 183.384 217.77 183.208C217.602 183.032 217.518 182.796 217.518 182.5C217.518 182.22 217.586 181.98 217.722 181.78C217.858 181.572 218.046 181.364 218.286 181.156C218.062 180.956 217.89 180.712 217.77 180.424C217.658 180.128 217.602 179.772 217.602 179.356C217.602 178.836 217.698 178.396 217.89 178.036C218.082 177.676 218.362 177.404 218.73 177.22C219.106 177.036 219.558 176.944 220.086 176.944C220.446 176.944 220.762 176.988 221.034 177.076C221.306 177.164 221.538 177.3 221.73 177.484C221.818 177.348 221.934 177.216 222.078 177.088C222.222 176.96 222.386 176.852 222.57 176.764L222.822 176.644L223.278 177.58C223.206 177.604 223.106 177.644 222.978 177.7C222.85 177.756 222.714 177.816 222.57 177.88C222.434 177.944 222.31 178.008 222.198 178.072C222.286 178.248 222.354 178.448 222.402 178.672C222.45 178.896 222.474 179.128 222.474 179.368C222.474 179.864 222.382 180.292 222.198 180.652C222.022 181.012 221.758 181.288 221.406 181.48C221.054 181.664 220.614 181.756 220.086 181.756C219.862 181.756 219.65 181.74 219.45 181.708C219.25 181.668 219.066 181.62 218.898 181.564C218.85 181.628 218.806 181.696 218.766 181.768C218.734 181.832 218.718 181.904 218.718 181.984C218.718 182.08 218.766 182.156 218.862 182.212C218.958 182.268 219.13 182.312 219.378 182.344L221.202 182.548C221.794 182.612 222.23 182.804 222.51 183.124C222.79 183.436 222.93 183.848 222.93 184.36C222.93 184.8 222.83 185.172 222.63 185.476C222.438 185.78 222.122 186.008 221.682 186.16C221.25 186.32 220.678 186.4 219.966 186.4ZM220.218 184.984C220.658 184.984 220.994 184.948 221.226 184.876C221.466 184.804 221.586 184.656 221.586 184.432C221.586 184.32 221.554 184.228 221.49 184.156C221.426 184.092 221.318 184.04 221.166 184C221.022 183.952 220.814 183.916 220.542 183.892L219.258 183.76C219.178 183.816 219.106 183.88 219.042 183.952C218.986 184.016 218.938 184.084 218.898 184.156C218.866 184.236 218.85 184.32 218.85 184.408C218.85 184.6 218.954 184.744 219.162 184.84C219.37 184.936 219.722 184.984 220.218 184.984ZM220.086 180.592C220.198 180.592 220.29 180.572 220.362 180.532C220.434 180.484 220.486 180.412 220.518 180.316C220.558 180.22 220.586 180.092 220.602 179.932C220.618 179.772 220.626 179.58 220.626 179.356C220.626 179.124 220.618 178.932 220.602 178.78C220.586 178.62 220.558 178.492 220.518 178.396C220.486 178.292 220.434 178.22 220.362 178.18C220.29 178.132 220.198 178.108 220.086 178.108C219.974 178.108 219.882 178.132 219.81 178.18C219.738 178.22 219.682 178.288 219.642 178.384C219.61 178.48 219.586 178.608 219.57 178.768C219.554 178.928 219.546 179.124 219.546 179.356C219.546 179.58 219.554 179.772 219.57 179.932C219.586 180.084 219.61 180.212 219.642 180.316C219.682 180.412 219.738 180.484 219.81 180.532C219.882 180.572 219.974 180.592 220.086 180.592ZM225.149 184.12C224.797 184.12 224.501 184.036 224.261 183.868C224.021 183.7 223.841 183.488 223.721 183.232C223.601 182.968 223.541 182.7 223.541 182.428C223.541 181.996 223.625 181.632 223.793 181.336C223.969 181.04 224.197 180.792 224.477 180.592C224.757 180.392 225.065 180.224 225.401 180.088C225.737 179.944 226.069 179.816 226.397 179.704V179.008C226.397 178.888 226.385 178.784 226.361 178.696C226.337 178.6 226.297 178.528 226.241 178.48C226.185 178.424 226.101 178.396 225.989 178.396C225.877 178.396 225.789 178.42 225.725 178.468C225.669 178.516 225.629 178.584 225.605 178.672C225.581 178.752 225.565 178.844 225.557 178.948L225.509 179.452L223.685 179.38C223.725 178.548 223.945 177.936 224.345 177.544C224.753 177.144 225.361 176.944 226.169 176.944C226.873 176.944 227.397 177.14 227.741 177.532C228.093 177.916 228.269 178.416 228.269 179.032V182.272C228.269 182.56 228.273 182.812 228.281 183.028C228.297 183.244 228.313 183.432 228.329 183.592C228.353 183.752 228.373 183.888 228.389 184H226.637C226.613 183.816 226.585 183.616 226.553 183.4C226.521 183.184 226.497 183.056 226.481 183.016C226.401 183.304 226.249 183.56 226.025 183.784C225.809 184.008 225.517 184.12 225.149 184.12ZM225.845 182.8C225.925 182.8 225.997 182.784 226.061 182.752C226.133 182.72 226.197 182.676 226.253 182.62C226.309 182.564 226.357 182.508 226.397 182.452V180.556C226.237 180.652 226.089 180.752 225.953 180.856C225.817 180.952 225.701 181.06 225.605 181.18C225.509 181.3 225.433 181.432 225.377 181.576C225.329 181.712 225.305 181.868 225.305 182.044C225.305 182.276 225.353 182.46 225.449 182.596C225.545 182.732 225.677 182.8 225.845 182.8ZM229.428 184V177.064H231.348V177.616C231.604 177.368 231.868 177.192 232.14 177.088C232.42 176.984 232.704 176.932 232.992 176.932C233.272 176.932 233.512 177.004 233.712 177.148C233.92 177.284 234.076 177.488 234.18 177.76C234.452 177.456 234.736 177.244 235.032 177.124C235.336 176.996 235.64 176.932 235.944 176.932C236.216 176.932 236.452 177 236.652 177.136C236.852 177.264 237.008 177.456 237.12 177.712C237.232 177.96 237.288 178.26 237.288 178.612V184H235.368V178.816C235.368 178.624 235.332 178.488 235.26 178.408C235.196 178.32 235.096 178.276 234.96 178.276C234.88 178.276 234.78 178.3 234.66 178.348C234.54 178.388 234.424 178.448 234.312 178.528C234.312 178.544 234.312 178.56 234.312 178.576C234.312 178.584 234.312 178.596 234.312 178.612V184H232.416V178.816C232.416 178.624 232.38 178.488 232.308 178.408C232.236 178.32 232.132 178.276 231.996 178.276C231.908 178.276 231.804 178.3 231.684 178.348C231.572 178.388 231.46 178.448 231.348 178.528V184H229.428ZM240.732 184.12C240.228 184.12 239.796 184.032 239.436 183.856C239.076 183.672 238.8 183.408 238.608 183.064C238.416 182.712 238.32 182.292 238.32 181.804V179.26C238.32 178.764 238.416 178.344 238.608 178C238.8 177.656 239.076 177.396 239.436 177.22C239.804 177.036 240.236 176.944 240.732 176.944C241.244 176.944 241.668 177.032 242.004 177.208C242.348 177.384 242.604 177.644 242.772 177.988C242.948 178.332 243.036 178.756 243.036 179.26V180.652H240.252V181.984C240.252 182.16 240.272 182.304 240.312 182.416C240.352 182.528 240.408 182.608 240.48 182.656C240.552 182.704 240.636 182.728 240.732 182.728C240.828 182.728 240.912 182.708 240.984 182.668C241.064 182.62 241.124 182.548 241.164 182.452C241.212 182.356 241.236 182.224 241.236 182.056V181.324H243.036V181.996C243.036 182.7 242.832 183.232 242.424 183.592C242.016 183.944 241.452 184.12 240.732 184.12ZM240.252 179.74H241.236V179.044C241.236 178.86 241.212 178.716 241.164 178.612C241.124 178.508 241.064 178.436 240.984 178.396C240.912 178.356 240.824 178.336 240.72 178.336C240.624 178.336 240.54 178.36 240.468 178.408C240.404 178.456 240.352 178.54 240.312 178.66C240.272 178.772 240.252 178.936 240.252 179.152V179.74ZM244.04 184V182.152H245.888V184H244.04ZM250.208 184V174.28H252.668C253.516 174.28 254.176 174.388 254.648 174.604C255.12 174.812 255.452 175.144 255.644 175.6C255.836 176.048 255.932 176.632 255.932 177.352V180.88C255.932 181.608 255.836 182.204 255.644 182.668C255.452 183.124 255.12 183.46 254.648 183.676C254.184 183.892 253.532 184 252.692 184H250.208ZM252.356 182.512H252.692C253.02 182.512 253.256 182.464 253.4 182.368C253.544 182.272 253.632 182.128 253.664 181.936C253.704 181.744 253.724 181.504 253.724 181.216V176.98C253.724 176.692 253.7 176.46 253.652 176.284C253.612 176.108 253.52 175.98 253.376 175.9C253.232 175.82 253 175.78 252.68 175.78H252.356V182.512ZM259.412 184.12C258.916 184.12 258.484 184.036 258.116 183.868C257.756 183.7 257.476 183.448 257.276 183.112C257.084 182.776 256.988 182.356 256.988 181.852V179.212C256.988 178.708 257.084 178.288 257.276 177.952C257.476 177.616 257.756 177.364 258.116 177.196C258.484 177.028 258.916 176.944 259.412 176.944C259.908 176.944 260.336 177.028 260.696 177.196C261.064 177.364 261.348 177.616 261.548 177.952C261.748 178.288 261.848 178.708 261.848 179.212V181.852C261.848 182.356 261.748 182.776 261.548 183.112C261.348 183.448 261.064 183.7 260.696 183.868C260.336 184.036 259.908 184.12 259.412 184.12ZM259.424 182.824C259.552 182.824 259.652 182.792 259.724 182.728C259.796 182.656 259.844 182.56 259.868 182.44C259.9 182.312 259.916 182.16 259.916 181.984V179.08C259.916 178.904 259.9 178.756 259.868 178.636C259.844 178.508 259.796 178.412 259.724 178.348C259.652 178.276 259.552 178.24 259.424 178.24C259.296 178.24 259.196 178.276 259.124 178.348C259.052 178.412 259 178.508 258.968 178.636C258.936 178.756 258.92 178.904 258.92 179.08V181.984C258.92 182.16 258.936 182.312 258.968 182.44C259 182.56 259.052 182.656 259.124 182.728C259.196 182.792 259.296 182.824 259.424 182.824ZM266.195 186.016V184.66C266.443 184.66 266.647 184.644 266.807 184.612C266.975 184.58 267.099 184.52 267.179 184.432C267.267 184.344 267.311 184.224 267.311 184.072C267.311 183.936 267.287 183.772 267.239 183.58C267.191 183.38 267.131 183.156 267.059 182.908L265.427 177.064H267.263L268.139 181.072L268.799 177.064H270.647L269.051 184.168C268.947 184.648 268.783 185.02 268.559 185.284C268.335 185.556 268.059 185.744 267.731 185.848C267.411 185.96 267.047 186.016 266.639 186.016H266.195ZM273.662 184.12C273.166 184.12 272.734 184.036 272.366 183.868C272.006 183.7 271.726 183.448 271.526 183.112C271.334 182.776 271.238 182.356 271.238 181.852V179.212C271.238 178.708 271.334 178.288 271.526 177.952C271.726 177.616 272.006 177.364 272.366 177.196C272.734 177.028 273.166 176.944 273.662 176.944C274.158 176.944 274.586 177.028 274.946 177.196C275.314 177.364 275.598 177.616 275.798 177.952C275.998 178.288 276.098 178.708 276.098 179.212V181.852C276.098 182.356 275.998 182.776 275.798 183.112C275.598 183.448 275.314 183.7 274.946 183.868C274.586 184.036 274.158 184.12 273.662 184.12ZM273.674 182.824C273.802 182.824 273.902 182.792 273.974 182.728C274.046 182.656 274.094 182.56 274.118 182.44C274.15 182.312 274.166 182.16 274.166 181.984V179.08C274.166 178.904 274.15 178.756 274.118 178.636C274.094 178.508 274.046 178.412 273.974 178.348C273.902 178.276 273.802 178.24 273.674 178.24C273.546 178.24 273.446 178.276 273.374 178.348C273.302 178.412 273.25 178.508 273.218 178.636C273.186 178.756 273.17 178.904 273.17 179.08V181.984C273.17 182.16 273.186 182.312 273.218 182.44C273.25 182.56 273.302 182.656 273.374 182.728C273.446 182.792 273.546 182.824 273.674 182.824ZM278.406 184.12C278.126 184.12 277.886 184.052 277.686 183.916C277.494 183.772 277.35 183.576 277.254 183.328C277.158 183.08 277.11 182.804 277.11 182.5V177.064H279.066V182.272C279.066 182.44 279.094 182.572 279.15 182.668C279.214 182.756 279.322 182.8 279.474 182.8C279.562 182.8 279.654 182.78 279.75 182.74C279.846 182.692 279.946 182.64 280.05 182.584V177.064H281.994V184H280.05V183.364C279.802 183.596 279.538 183.78 279.258 183.916C278.986 184.052 278.702 184.12 278.406 184.12ZM286.96 184L285.94 177.064H287.572L288.076 181L288.616 177.064H290.032L290.5 181.096L291.088 177.064H292.6L291.568 184H289.888L289.288 180.1L288.616 184H286.96ZM294.888 184.12C294.536 184.12 294.24 184.036 294 183.868C293.76 183.7 293.58 183.488 293.46 183.232C293.34 182.968 293.28 182.7 293.28 182.428C293.28 181.996 293.364 181.632 293.532 181.336C293.708 181.04 293.936 180.792 294.216 180.592C294.496 180.392 294.804 180.224 295.14 180.088C295.476 179.944 295.808 179.816 296.136 179.704V179.008C296.136 178.888 296.124 178.784 296.1 178.696C296.076 178.6 296.036 178.528 295.98 178.48C295.924 178.424 295.84 178.396 295.728 178.396C295.616 178.396 295.528 178.42 295.464 178.468C295.408 178.516 295.368 178.584 295.344 178.672C295.32 178.752 295.304 178.844 295.296 178.948L295.248 179.452L293.424 179.38C293.464 178.548 293.684 177.936 294.084 177.544C294.492 177.144 295.1 176.944 295.908 176.944C296.612 176.944 297.136 177.14 297.48 177.532C297.832 177.916 298.008 178.416 298.008 179.032V182.272C298.008 182.56 298.012 182.812 298.02 183.028C298.036 183.244 298.052 183.432 298.068 183.592C298.092 183.752 298.112 183.888 298.128 184H296.376C296.352 183.816 296.324 183.616 296.292 183.4C296.26 183.184 296.236 183.056 296.22 183.016C296.14 183.304 295.988 183.56 295.764 183.784C295.548 184.008 295.256 184.12 294.888 184.12ZM295.584 182.8C295.664 182.8 295.736 182.784 295.8 182.752C295.872 182.72 295.936 182.676 295.992 182.62C296.048 182.564 296.096 182.508 296.136 182.452V180.556C295.976 180.652 295.828 180.752 295.692 180.856C295.556 180.952 295.44 181.06 295.344 181.18C295.248 181.3 295.172 181.432 295.116 181.576C295.068 181.712 295.044 181.868 295.044 182.044C295.044 182.276 295.092 182.46 295.188 182.596C295.284 182.732 295.416 182.8 295.584 182.8ZM299.167 184V177.064H301.123V177.76C301.379 177.504 301.643 177.304 301.915 177.16C302.195 177.016 302.487 176.944 302.791 176.944C303.079 176.944 303.315 177.016 303.499 177.16C303.691 177.296 303.835 177.488 303.931 177.736C304.027 177.976 304.075 178.252 304.075 178.564V184H302.131V178.84C302.131 178.672 302.103 178.544 302.047 178.456C301.991 178.368 301.887 178.324 301.735 178.324C301.655 178.324 301.559 178.348 301.447 178.396C301.343 178.436 301.235 178.496 301.123 178.576V184H299.167ZM307.397 184.072C306.877 184.072 306.473 183.996 306.185 183.844C305.905 183.692 305.713 183.472 305.609 183.184C305.505 182.888 305.453 182.532 305.453 182.116V178.348H304.781V177.064H305.453V174.952H307.433V177.064H308.417V178.348H307.433V181.924C307.433 182.124 307.489 182.268 307.601 182.356C307.721 182.444 307.869 182.488 308.045 182.488C308.149 182.488 308.245 182.484 308.333 182.476C308.421 182.46 308.501 182.448 308.573 182.44V183.976C308.469 183.992 308.305 184.012 308.081 184.036C307.857 184.06 307.629 184.072 307.397 184.072ZM314.709 184.072C314.189 184.072 313.785 183.996 313.497 183.844C313.217 183.692 313.025 183.472 312.921 183.184C312.817 182.888 312.765 182.532 312.765 182.116V178.348H312.093V177.064H312.765V174.952H314.745V177.064H315.729V178.348H314.745V181.924C314.745 182.124 314.801 182.268 314.913 182.356C315.033 182.444 315.181 182.488 315.357 182.488C315.461 182.488 315.557 182.484 315.645 182.476C315.733 182.46 315.813 182.448 315.885 182.44V183.976C315.781 183.992 315.617 184.012 315.393 184.036C315.169 184.06 314.941 184.072 314.709 184.072ZM319.083 184.12C318.587 184.12 318.155 184.036 317.787 183.868C317.427 183.7 317.147 183.448 316.947 183.112C316.755 182.776 316.659 182.356 316.659 181.852V179.212C316.659 178.708 316.755 178.288 316.947 177.952C317.147 177.616 317.427 177.364 317.787 177.196C318.155 177.028 318.587 176.944 319.083 176.944C319.579 176.944 320.007 177.028 320.367 177.196C320.735 177.364 321.019 177.616 321.219 177.952C321.419 178.288 321.519 178.708 321.519 179.212V181.852C321.519 182.356 321.419 182.776 321.219 183.112C321.019 183.448 320.735 183.7 320.367 183.868C320.007 184.036 319.579 184.12 319.083 184.12ZM319.095 182.824C319.223 182.824 319.323 182.792 319.395 182.728C319.467 182.656 319.515 182.56 319.539 182.44C319.571 182.312 319.587 182.16 319.587 181.984V179.08C319.587 178.904 319.571 178.756 319.539 178.636C319.515 178.508 319.467 178.412 319.395 178.348C319.323 178.276 319.223 178.24 319.095 178.24C318.967 178.24 318.867 178.276 318.795 178.348C318.723 178.412 318.671 178.508 318.639 178.636C318.607 178.756 318.591 178.904 318.591 179.08V181.984C318.591 182.16 318.607 182.312 318.639 182.44C318.671 182.56 318.723 182.656 318.795 182.728C318.867 182.792 318.967 182.824 319.095 182.824ZM325.759 184V174.28H327.703V184H325.759ZM331.247 184.12C330.751 184.12 330.319 184.036 329.951 183.868C329.591 183.7 329.311 183.448 329.111 183.112C328.919 182.776 328.823 182.356 328.823 181.852V179.212C328.823 178.708 328.919 178.288 329.111 177.952C329.311 177.616 329.591 177.364 329.951 177.196C330.319 177.028 330.751 176.944 331.247 176.944C331.743 176.944 332.171 177.028 332.531 177.196C332.899 177.364 333.183 177.616 333.383 177.952C333.583 178.288 333.683 178.708 333.683 179.212V181.852C333.683 182.356 333.583 182.776 333.383 183.112C333.183 183.448 332.899 183.7 332.531 183.868C332.171 184.036 331.743 184.12 331.247 184.12ZM331.259 182.824C331.387 182.824 331.487 182.792 331.559 182.728C331.631 182.656 331.679 182.56 331.703 182.44C331.735 182.312 331.751 182.16 331.751 181.984V179.08C331.751 178.904 331.735 178.756 331.703 178.636C331.679 178.508 331.631 178.412 331.559 178.348C331.487 178.276 331.387 178.24 331.259 178.24C331.131 178.24 331.031 178.276 330.959 178.348C330.887 178.412 330.835 178.508 330.803 178.636C330.771 178.756 330.755 178.904 330.755 179.08V181.984C330.755 182.16 330.771 182.312 330.803 182.44C330.835 182.56 330.887 182.656 330.959 182.728C331.031 182.792 331.131 182.824 331.259 182.824ZM336.904 184.12C336.296 184.12 335.788 183.984 335.38 183.712C334.98 183.44 334.652 182.996 334.396 182.38L335.728 181.792C335.856 182.104 336.004 182.352 336.172 182.536C336.348 182.712 336.54 182.8 336.748 182.8C336.9 182.8 337.012 182.768 337.084 182.704C337.164 182.64 337.204 182.552 337.204 182.44C337.204 182.256 337.132 182.088 336.988 181.936C336.852 181.784 336.604 181.56 336.244 181.264L335.74 180.844C335.372 180.532 335.08 180.232 334.864 179.944C334.656 179.648 334.552 179.284 334.552 178.852C334.552 178.476 334.648 178.144 334.84 177.856C335.04 177.568 335.304 177.344 335.632 177.184C335.96 177.024 336.312 176.944 336.688 176.944C337.256 176.944 337.732 177.1 338.116 177.412C338.5 177.724 338.768 178.164 338.92 178.732L337.66 179.308C337.612 179.156 337.544 179.004 337.456 178.852C337.368 178.7 337.26 178.572 337.132 178.468C337.012 178.364 336.88 178.312 336.736 178.312C336.608 178.312 336.504 178.348 336.424 178.42C336.352 178.492 336.316 178.588 336.316 178.708C336.316 178.86 336.4 179.024 336.568 179.2C336.744 179.376 336.984 179.588 337.288 179.836L337.78 180.268C337.98 180.436 338.176 180.616 338.368 180.808C338.56 181 338.716 181.212 338.836 181.444C338.964 181.676 339.028 181.94 339.028 182.236C339.028 182.636 338.928 182.98 338.728 183.268C338.528 183.548 338.264 183.76 337.936 183.904C337.616 184.048 337.272 184.12 336.904 184.12ZM342.122 184.12C341.618 184.12 341.186 184.032 340.826 183.856C340.466 183.672 340.19 183.408 339.998 183.064C339.806 182.712 339.71 182.292 339.71 181.804V179.26C339.71 178.764 339.806 178.344 339.998 178C340.19 177.656 340.466 177.396 340.826 177.22C341.194 177.036 341.626 176.944 342.122 176.944C342.634 176.944 343.058 177.032 343.394 177.208C343.738 177.384 343.994 177.644 344.162 177.988C344.338 178.332 344.426 178.756 344.426 179.26V180.652H341.642V181.984C341.642 182.16 341.662 182.304 341.702 182.416C341.742 182.528 341.798 182.608 341.87 182.656C341.942 182.704 342.026 182.728 342.122 182.728C342.218 182.728 342.302 182.708 342.374 182.668C342.454 182.62 342.514 182.548 342.554 182.452C342.602 182.356 342.626 182.224 342.626 182.056V181.324H344.426V181.996C344.426 182.7 344.222 183.232 343.814 183.592C343.406 183.944 342.842 184.12 342.122 184.12ZM341.642 179.74H342.626V179.044C342.626 178.86 342.602 178.716 342.554 178.612C342.514 178.508 342.454 178.436 342.374 178.396C342.302 178.356 342.214 178.336 342.11 178.336C342.014 178.336 341.93 178.36 341.858 178.408C341.794 178.456 341.742 178.54 341.702 178.66C341.662 178.772 341.642 178.936 341.642 179.152V179.74ZM346.427 181.444V179.896C346.787 179.616 347.111 179.304 347.399 178.96C347.687 178.616 347.915 178.252 348.083 177.868C348.251 177.476 348.335 177.072 348.335 176.656C348.335 176.36 348.279 176.148 348.167 176.02C348.063 175.884 347.907 175.816 347.699 175.816C347.507 175.816 347.355 175.872 347.243 175.984C347.139 176.096 347.087 176.252 347.087 176.452C347.087 176.58 347.099 176.696 347.123 176.8C347.155 176.896 347.191 177 347.231 177.112L345.467 177.52C345.403 177.328 345.351 177.144 345.311 176.968C345.279 176.784 345.263 176.592 345.263 176.392C345.263 175.688 345.475 175.14 345.899 174.748C346.331 174.348 346.947 174.148 347.747 174.148C348.555 174.148 349.175 174.36 349.607 174.784C350.047 175.208 350.267 175.812 350.267 176.596C350.267 177.076 350.187 177.532 350.027 177.964C349.867 178.396 349.631 178.804 349.319 179.188C349.015 179.572 348.643 179.932 348.203 180.268V181.444H346.427ZM346.367 184V182.14H348.275V184H346.367Z"></path>
</svg>
