<svg xmlns="http://www.w3.org/2000/svg" fill="none" viewBox="0 0 44 22" height="22" width="44">
<rect stroke="#0D0E12" fill="white" height="21" width="43" y="0.5" x="0.5"></rect>
<path fill="#0D0E12" d="M16.8676 15V6.9H18.1276L19.7876 10.8V6.9H21.2676V15H20.0576L18.3976 10.8V15H16.8676ZM24.793 15.12C24.1864 15.12 23.7064 15.0133 23.353 14.8C22.9997 14.5867 22.7464 14.28 22.593 13.88C22.4397 13.48 22.363 13.0033 22.363 12.45V9.44C22.363 8.88 22.4397 8.40333 22.593 8.01C22.7464 7.61667 22.9997 7.31667 23.353 7.11C23.7064 6.89667 24.1864 6.79 24.793 6.79C25.4064 6.79 25.8897 6.89667 26.243 7.11C26.603 7.31667 26.8597 7.61667 27.013 8.01C27.1664 8.40333 27.243 8.88 27.243 9.44V12.45C27.243 13.0033 27.1664 13.48 27.013 13.88C26.8597 14.28 26.603 14.5867 26.243 14.8C25.8897 15.0133 25.4064 15.12 24.793 15.12ZM24.793 13.85C24.9797 13.85 25.1164 13.8033 25.203 13.71C25.2897 13.6167 25.3464 13.4967 25.373 13.35C25.3997 13.2033 25.413 13.0533 25.413 12.9V9C25.413 8.84 25.3997 8.69 25.373 8.55C25.3464 8.40333 25.2897 8.28333 25.203 8.19C25.1164 8.09667 24.9797 8.05 24.793 8.05C24.6197 8.05 24.4897 8.09667 24.403 8.19C24.3164 8.28333 24.2597 8.40333 24.233 8.55C24.2064 8.69 24.193 8.84 24.193 9V12.9C24.193 13.0533 24.203 13.2033 24.223 13.35C24.2497 13.4967 24.303 13.6167 24.383 13.71C24.4697 13.8033 24.6064 13.85 24.793 13.85Z"></path>
</svg>
