<svg xmlns="http://www.w3.org/2000/svg" fill="none" viewBox="0 0 67 52" height="52" width="67">
<rect stroke="#0D0E12" fill="white" height="51" width="66" y="0.5" x="0.5"></rect>
<path fill="#0D0E12" d="M18.6604 32V26.22H20.7104C21.2904 26.22 21.7271 26.2833 22.0204 26.41C22.3137 26.53 22.5104 26.6967 22.6104 26.91C22.7104 27.1233 22.7604 27.3733 22.7604 27.66C22.7604 28.04 22.6771 28.32 22.5104 28.5C22.3504 28.6733 22.1371 28.7967 21.8704 28.87C22.1504 28.9367 22.3637 29.0367 22.5104 29.17C22.6571 29.3033 22.7571 29.4667 22.8104 29.66C22.8704 29.8533 22.9004 30.0767 22.9004 30.33C22.9004 30.7033 22.8304 31.0167 22.6904 31.27C22.5504 31.5167 22.3137 31.7 21.9804 31.82C21.6471 31.94 21.1937 32 20.6204 32H18.6604ZM20.2804 31.1H20.5504C20.6971 31.1 20.8271 31.0867 20.9404 31.06C21.0537 31.0333 21.1437 30.9633 21.2104 30.85C21.2837 30.73 21.3204 30.54 21.3204 30.28C21.3204 29.9867 21.2871 29.7767 21.2204 29.65C21.1604 29.5233 21.0737 29.4467 20.9604 29.42C20.8471 29.3933 20.7137 29.38 20.5604 29.38H20.2804V31.1ZM20.2804 28.5H20.6904C20.8837 28.5 21.0171 28.44 21.0904 28.32C21.1637 28.1933 21.2004 28.02 21.2004 27.8C21.2004 27.5867 21.1604 27.41 21.0804 27.27C21.0071 27.13 20.8371 27.06 20.5704 27.06H20.2804V28.5ZM25.6092 32.1C25.1959 32.1 24.8359 32.03 24.5292 31.89C24.2292 31.75 23.9959 31.54 23.8292 31.26C23.6692 30.98 23.5892 30.63 23.5892 30.21V28.01C23.5892 27.59 23.6692 27.24 23.8292 26.96C23.9959 26.68 24.2292 26.47 24.5292 26.33C24.8359 26.19 25.1959 26.12 25.6092 26.12C26.0226 26.12 26.3792 26.19 26.6792 26.33C26.9859 26.47 27.2226 26.68 27.3892 26.96C27.5559 27.24 27.6392 27.59 27.6392 28.01V30.21C27.6392 30.63 27.5559 30.98 27.3892 31.26C27.2226 31.54 26.9859 31.75 26.6792 31.89C26.3792 32.03 26.0226 32.1 25.6092 32.1ZM25.6192 31.02C25.7259 31.02 25.8092 30.9933 25.8692 30.94C25.9292 30.88 25.9692 30.8 25.9892 30.7C26.0159 30.5933 26.0292 30.4667 26.0292 30.32V27.9C26.0292 27.7533 26.0159 27.63 25.9892 27.53C25.9692 27.4233 25.9292 27.3433 25.8692 27.29C25.8092 27.23 25.7259 27.2 25.6192 27.2C25.5126 27.2 25.4292 27.23 25.3692 27.29C25.3092 27.3433 25.2659 27.4233 25.2392 27.53C25.2126 27.63 25.1992 27.7533 25.1992 27.9V30.32C25.1992 30.4667 25.2126 30.5933 25.2392 30.7C25.2659 30.8 25.3092 30.88 25.3692 30.94C25.4292 30.9933 25.5126 31.02 25.6192 31.02ZM28.5432 32V26.22H29.8332V29.31L31.3432 26.22H32.6132V32H31.2932V28.94L29.8232 32H28.5432ZM30.5932 25.57C30.1199 25.57 29.7399 25.4367 29.4532 25.17C29.1665 24.9033 29.0232 24.5167 29.0232 24.01H29.9432C29.9432 24.2567 29.9899 24.44 30.0832 24.56C30.1832 24.68 30.3532 24.74 30.5932 24.74C30.8265 24.74 30.9932 24.68 31.0932 24.56C31.1932 24.4333 31.2432 24.25 31.2432 24.01H32.1632C32.1632 24.5167 32.0199 24.9033 31.7332 25.17C31.4465 25.4367 31.0665 25.57 30.5932 25.57ZM34.3213 32V27.32H33.2713V26.22H36.9913V27.32H35.9413V32H34.3213ZM37.6741 32V26.22H38.9641V29.31L40.4741 26.22H41.7441V32H40.4241V28.94L38.9541 32H37.6741ZM45.3108 32V26.22H47.3608C47.9408 26.22 48.3774 26.2833 48.6708 26.41C48.9641 26.53 49.1608 26.6967 49.2608 26.91C49.3608 27.1233 49.4108 27.3733 49.4108 27.66C49.4108 28.04 49.3274 28.32 49.1608 28.5C49.0008 28.6733 48.7874 28.7967 48.5208 28.87C48.8008 28.9367 49.0141 29.0367 49.1608 29.17C49.3074 29.3033 49.4074 29.4667 49.4608 29.66C49.5208 29.8533 49.5508 30.0767 49.5508 30.33C49.5508 30.7033 49.4808 31.0167 49.3408 31.27C49.2008 31.5167 48.9641 31.7 48.6308 31.82C48.2974 31.94 47.8441 32 47.2708 32H45.3108ZM46.9308 31.1H47.2008C47.3474 31.1 47.4774 31.0867 47.5908 31.06C47.7041 31.0333 47.7941 30.9633 47.8608 30.85C47.9341 30.73 47.9708 30.54 47.9708 30.28C47.9708 29.9867 47.9374 29.7767 47.8708 29.65C47.8108 29.5233 47.7241 29.4467 47.6108 29.42C47.4974 29.3933 47.3641 29.38 47.2108 29.38H46.9308V31.1ZM46.9308 28.5H47.3408C47.5341 28.5 47.6674 28.44 47.7408 28.32C47.8141 28.1933 47.8508 28.02 47.8508 27.8C47.8508 27.5867 47.8108 27.41 47.7308 27.27C47.6574 27.13 47.4874 27.06 47.2208 27.06H46.9308V28.5Z"></path>
<path fill="#0D0E12" d="M15.6916 43V37.22H19.7916V43H18.1616V38.33H17.3216V43H15.6916ZM20.7991 44.9V37.22H22.4291V37.64C22.6224 37.4667 22.8291 37.3367 23.0491 37.25C23.2691 37.1633 23.4791 37.12 23.6791 37.12C23.8991 37.12 24.0857 37.1633 24.2391 37.25C24.3991 37.3367 24.5291 37.46 24.6291 37.62C24.7291 37.7733 24.8024 37.9533 24.8491 38.16C24.8957 38.3667 24.9191 38.5867 24.9191 38.82V41.31C24.9191 41.67 24.8691 41.9833 24.7691 42.25C24.6757 42.5167 24.5357 42.7267 24.3491 42.88C24.1624 43.0267 23.9324 43.1 23.6591 43.1C23.4524 43.1 23.2424 43.0533 23.0291 42.96C22.8224 42.86 22.6224 42.7267 22.4291 42.56V44.9H20.7991ZM22.8591 42.05C22.9657 42.05 23.0491 42.02 23.1091 41.96C23.1691 41.9 23.2124 41.8233 23.2391 41.73C23.2724 41.63 23.2891 41.52 23.2891 41.4V38.7C23.2891 38.5867 23.2757 38.4867 23.2491 38.4C23.2224 38.3067 23.1791 38.2333 23.1191 38.18C23.0591 38.1267 22.9824 38.1 22.8891 38.1C22.8024 38.1 22.7191 38.12 22.6391 38.16C22.5657 38.1933 22.4957 38.24 22.4291 38.3V41.9C22.5024 41.9467 22.5724 41.9833 22.6391 42.01C22.7124 42.0367 22.7857 42.05 22.8591 42.05ZM27.7479 43.1C27.3346 43.1 26.9746 43.03 26.6679 42.89C26.3679 42.75 26.1346 42.54 25.9679 42.26C25.8079 41.98 25.7279 41.63 25.7279 41.21V39.01C25.7279 38.59 25.8079 38.24 25.9679 37.96C26.1346 37.68 26.3679 37.47 26.6679 37.33C26.9746 37.19 27.3346 37.12 27.7479 37.12C28.1612 37.12 28.5179 37.19 28.8179 37.33C29.1246 37.47 29.3612 37.68 29.5279 37.96C29.6946 38.24 29.7779 38.59 29.7779 39.01V41.21C29.7779 41.63 29.6946 41.98 29.5279 42.26C29.3612 42.54 29.1246 42.75 28.8179 42.89C28.5179 43.03 28.1612 43.1 27.7479 43.1ZM27.7579 42.02C27.8646 42.02 27.9479 41.9933 28.0079 41.94C28.0679 41.88 28.1079 41.8 28.1279 41.7C28.1546 41.5933 28.1679 41.4667 28.1679 41.32V38.9C28.1679 38.7533 28.1546 38.63 28.1279 38.53C28.1079 38.4233 28.0679 38.3433 28.0079 38.29C27.9479 38.23 27.8646 38.2 27.7579 38.2C27.6512 38.2 27.5679 38.23 27.5079 38.29C27.4479 38.3433 27.4046 38.4233 27.3779 38.53C27.3512 38.63 27.3379 38.7533 27.3379 38.9V41.32C27.3379 41.4667 27.3512 41.5933 27.3779 41.7C27.4046 41.8 27.4479 41.88 27.5079 41.94C27.5679 41.9933 27.6512 42.02 27.7579 42.02ZM32.9419 44.72V42.92H32.7719C32.5585 42.92 32.3252 42.89 32.0719 42.83C31.8252 42.7633 31.5885 42.6533 31.3619 42.5C31.1352 42.34 30.9485 42.13 30.8019 41.87C30.6552 41.6033 30.5819 41.27 30.5819 40.87V39.24C30.5819 38.8867 30.6452 38.5833 30.7719 38.33C30.9052 38.0767 31.0785 37.87 31.2919 37.71C31.5052 37.55 31.7419 37.4333 32.0019 37.36C32.2619 37.28 32.5185 37.24 32.7719 37.24H32.9419V34.91H34.3519V37.24H34.5519C34.8985 37.24 35.2385 37.31 35.5719 37.45C35.9052 37.5833 36.1785 37.7967 36.3919 38.09C36.6119 38.3833 36.7219 38.7667 36.7219 39.24V40.87C36.7219 41.27 36.6485 41.6033 36.5019 41.87C36.3552 42.13 36.1685 42.34 35.9419 42.5C35.7152 42.6533 35.4785 42.7633 35.2319 42.83C34.9852 42.89 34.7585 42.92 34.5519 42.92H34.3519V44.72H32.9419ZM32.8119 41.95H32.9419V38.15H32.8019C32.6752 38.15 32.5585 38.1867 32.4519 38.26C32.3452 38.3267 32.2585 38.43 32.1919 38.57C32.1319 38.71 32.1019 38.8867 32.1019 39.1V40.98C32.1019 41.1867 32.1319 41.3633 32.1919 41.51C32.2519 41.6567 32.3352 41.7667 32.4419 41.84C32.5485 41.9133 32.6719 41.95 32.8119 41.95ZM34.3519 41.95H34.4619C34.5952 41.95 34.7152 41.9133 34.8219 41.84C34.9352 41.7667 35.0252 41.6567 35.0919 41.51C35.1652 41.3633 35.2019 41.1867 35.2019 40.98V39.1C35.2019 38.8867 35.1685 38.71 35.1019 38.57C35.0352 38.43 34.9452 38.3267 34.8319 38.26C34.7252 38.1867 34.6052 38.15 34.4719 38.15H34.3519V41.95ZM37.6545 43V37.22H38.9445V40.31L40.4545 37.22H41.7245V43H40.4045V39.94L38.9345 43H37.6545ZM42.3527 43.06V41.91C42.566 41.91 42.7393 41.8767 42.8727 41.81C43.0127 41.7433 43.1227 41.63 43.2027 41.47C43.2893 41.3033 43.356 41.08 43.4027 40.8C43.4493 40.5133 43.4893 40.15 43.5227 39.71L43.7127 37.22H47.3827V43H45.7527V38.32H45.0927L44.9527 40.03C44.906 40.63 44.8393 41.1267 44.7527 41.52C44.666 41.9133 44.5393 42.2233 44.3727 42.45C44.206 42.67 43.9827 42.8267 43.7027 42.92C43.4227 43.0133 43.066 43.06 42.6327 43.06H42.3527ZM48.4065 43V37.22H50.0365V39.54C50.0432 39.54 50.0465 39.54 50.0465 39.54C50.0532 39.54 50.0598 39.54 50.0665 39.54C50.0732 39.54 50.0798 39.54 50.0865 39.54C50.4865 39.54 50.8398 39.5667 51.1465 39.62C51.4532 39.6733 51.7065 39.7667 51.9065 39.9C52.1132 40.0267 52.2698 40.2 52.3765 40.42C52.4832 40.6333 52.5365 40.9067 52.5365 41.24C52.5365 41.5533 52.4898 41.8233 52.3965 42.05C52.3098 42.27 52.1665 42.45 51.9665 42.59C51.7732 42.73 51.5198 42.8333 51.2065 42.9C50.8998 42.9667 50.5298 43 50.0965 43H48.4065ZM50.0365 42.07H50.0665C50.3132 42.07 50.5065 42.0467 50.6465 42C50.7932 41.9467 50.8965 41.8633 50.9565 41.75C51.0232 41.63 51.0565 41.4733 51.0565 41.28C51.0565 41.0733 51.0232 40.9167 50.9565 40.81C50.8965 40.6967 50.7932 40.6167 50.6465 40.57C50.5065 40.5233 50.3198 40.5 50.0865 40.5C50.0798 40.5 50.0698 40.5 50.0565 40.5C50.0498 40.5 50.0432 40.5 50.0365 40.5V42.07Z"></path>
<rect fill="#0D0E12" height="2" width="12" y="5" x="30"></rect>
<rect fill="#0D0E12" height="2" width="12" y="18" x="30"></rect>
<rect fill="#0D0E12" transform="rotate(-90 40 20)" height="2" width="15" y="20" x="40"></rect>
<path fill="#0D0E12" d="M26 12.2427C26 11.6904 26.4477 11.2427 27 11.2427L35.9999 11.2427C36.5522 11.2427 36.9999 11.6904 36.9999 12.2427V12.2427C36.9999 12.795 36.5522 13.2427 35.9999 13.2427L27 13.2427C26.4477 13.2427 26 12.795 26 12.2427V12.2427Z"></path>
<path fill="#0D0E12" d="M32.707 8.70714C33.0975 8.31662 33.7307 8.31662 34.1212 8.70714L36.9497 11.5356C37.3402 11.9261 37.3402 12.5593 36.9497 12.9498V12.9498C36.5591 13.3403 35.926 13.3403 35.5354 12.9498L32.707 10.1214C32.3165 9.73083 32.3165 9.09767 32.707 8.70714V8.70714Z"></path>
<path fill="#0D0E12" d="M36.9497 11.5356C37.3402 11.9261 37.3402 12.5593 36.9497 12.9498L34.1213 15.7782C33.7307 16.1687 33.0976 16.1687 32.7071 15.7782V15.7782C32.3165 15.3877 32.3165 14.7545 32.7071 14.364L35.5355 11.5356C35.926 11.145 36.5592 11.145 36.9497 11.5356V11.5356Z"></path>
</svg>
