<svg xmlns="http://www.w3.org/2000/svg" fill="none" viewBox="0 0 13 18" height="18" width="13">
<rect fill-opacity="0.01" fill="#0D0E12" height="18" width="13"></rect>
<path fill="white" d="M3.132 14.18C2.452 14.18 1.916 14.052 1.524 13.796C1.14 13.54 0.864 13.184 0.696 12.728C0.536 12.264 0.456 11.732 0.456 11.132V10.784H2.46C2.46 10.792 2.46 10.836 2.46 10.916C2.46 10.996 2.46 11.068 2.46 11.132C2.46 11.452 2.48 11.712 2.52 11.912C2.56 12.112 2.632 12.26 2.736 12.356C2.84 12.444 2.984 12.488 3.168 12.488C3.352 12.488 3.488 12.44 3.576 12.344C3.672 12.248 3.736 12.104 3.768 11.912C3.8 11.72 3.816 11.48 3.816 11.192C3.816 10.712 3.748 10.348 3.612 10.1C3.484 9.844 3.212 9.712 2.796 9.704C2.788 9.704 2.744 9.704 2.664 9.704C2.584 9.704 2.504 9.704 2.424 9.704V8.324C2.48 8.324 2.536 8.324 2.592 8.324C2.648 8.324 2.7 8.324 2.748 8.324C3.172 8.324 3.456 8.208 3.6 7.976C3.744 7.744 3.816 7.384 3.816 6.896C3.816 6.52 3.764 6.232 3.66 6.032C3.564 5.832 3.38 5.732 3.108 5.732C2.844 5.732 2.668 5.844 2.58 6.068C2.5 6.292 2.46 6.58 2.46 6.932C2.46 7.012 2.46 7.096 2.46 7.184C2.46 7.264 2.46 7.348 2.46 7.436H0.456V6.848C0.456 6.264 0.56 5.772 0.768 5.372C0.984 4.964 1.288 4.656 1.68 4.448C2.08 4.24 2.556 4.136 3.108 4.136C3.668 4.136 4.148 4.236 4.548 4.436C4.948 4.636 5.256 4.932 5.472 5.324C5.688 5.708 5.796 6.188 5.796 6.764C5.796 7.332 5.68 7.808 5.448 8.192C5.216 8.576 4.936 8.812 4.608 8.9C4.832 8.98 5.032 9.108 5.208 9.284C5.392 9.46 5.536 9.7 5.64 10.004C5.744 10.3 5.796 10.68 5.796 11.144C5.796 11.736 5.708 12.26 5.532 12.716C5.364 13.172 5.084 13.532 4.692 13.796C4.3 14.052 3.78 14.18 3.132 14.18ZM9.29606 14.144C8.67206 14.144 8.18006 14.048 7.82006 13.856C7.46006 13.664 7.20406 13.384 7.05206 13.016C6.90006 12.64 6.82406 12.18 6.82406 11.636C6.82406 11.612 6.82406 11.588 6.82406 11.564C6.82406 11.532 6.82406 11.504 6.82406 11.48H8.69606C8.69606 11.872 8.72806 12.164 8.79206 12.356C8.86406 12.54 9.03606 12.632 9.30806 12.632C9.49206 12.632 9.62806 12.576 9.71606 12.464C9.80406 12.352 9.86006 12.156 9.88406 11.876C9.91606 11.588 9.93206 11.196 9.93206 10.7V9.836C9.82806 10.004 9.66806 10.132 9.45206 10.22C9.24406 10.308 9.00806 10.36 8.74406 10.376C8.23206 10.384 7.82006 10.256 7.50806 9.992C7.19606 9.728 6.97206 9.372 6.83606 8.924C6.70006 8.476 6.63206 7.988 6.63206 7.46C6.63206 6.78 6.71606 6.196 6.88406 5.708C7.06006 5.212 7.34406 4.828 7.73606 4.556C8.12806 4.284 8.64806 4.148 9.29606 4.148C9.93606 4.148 10.4521 4.276 10.8441 4.532C11.2361 4.788 11.5201 5.148 11.6961 5.612C11.8801 6.068 11.9721 6.608 11.9721 7.232V10.856C11.9721 11.488 11.8961 12.052 11.7441 12.548C11.6001 13.044 11.3361 13.436 10.9521 13.724C10.5681 14.004 10.0161 14.144 9.29606 14.144ZM9.32006 8.84C9.48006 8.84 9.60806 8.796 9.70406 8.708C9.80006 8.62 9.87606 8.536 9.93206 8.456V6.872C9.93206 6.648 9.91606 6.444 9.88406 6.26C9.85206 6.068 9.79206 5.916 9.70406 5.804C9.61606 5.684 9.48006 5.624 9.29606 5.624C9.12006 5.624 8.98806 5.688 8.90006 5.816C8.81206 5.936 8.75206 6.12 8.72006 6.368C8.69606 6.608 8.68406 6.908 8.68406 7.268C8.68406 7.58 8.69206 7.856 8.70806 8.096C8.73206 8.328 8.78806 8.512 8.87606 8.648C8.96406 8.776 9.11206 8.84 9.32006 8.84Z"></path>
</svg>
