<svg xmlns="http://www.w3.org/2000/svg" fill="none" viewBox="0 0 6 19" height="19" width="6">
<path fill-opacity="0.01" fill="white" d="M0 0H5.5V19H0V0Z"></path>
<path fill="#45D2FF" d="M0.680297 7.592C0.680297 7.352 0.680297 7.12 0.680297 6.896C0.688297 6.664 0.696297 6.452 0.704297 6.26C0.728297 5.572 0.836297 5.056 1.0283 4.712C1.2283 4.36 1.6043 4.184 2.1563 4.184L2.3003 4.796C1.9883 4.804 1.7883 4.908 1.7003 5.108C1.6123 5.308 1.5683 5.564 1.5683 5.876H2.4083V7.592H0.680297ZM3.1403 7.592C3.1403 7.352 3.1403 7.12 3.1403 6.896C3.1483 6.664 3.1563 6.452 3.1643 6.26C3.1883 5.572 3.2963 5.056 3.4883 4.712C3.6883 4.36 4.0643 4.184 4.6163 4.184L4.7603 4.796C4.4483 4.804 4.2483 4.908 4.1603 5.108C4.0723 5.308 4.0283 5.564 4.0283 5.876H4.8683V7.592H3.1403Z"></path>
</svg>
