<svg xmlns="http://www.w3.org/2000/svg" fill="none" viewBox="0 0 13 19" height="19" width="13">
<path fill-opacity="0.01" fill="white" d="M0.5 0H12.5V19H0.5V0Z"></path>
<path fill="#45D2FF" d="M4.44884 14L7.43684 4.28H8.51684L5.54084 14H4.44884ZM3.27284 9.8C2.44884 9.8 1.86484 9.588 1.52084 9.164C1.17684 8.732 1.00484 8.084 1.00484 7.22V6.788C1.00484 5.908 1.17284 5.268 1.50884 4.868C1.84484 4.468 2.43284 4.268 3.27284 4.268C4.11284 4.268 4.70084 4.464 5.03684 4.856C5.38084 5.248 5.55284 5.884 5.55284 6.764V7.244C5.55284 8.1 5.38084 8.74 5.03684 9.164C4.69284 9.588 4.10484 9.8 3.27284 9.8ZM3.27284 8.552C3.48084 8.552 3.62884 8.5 3.71684 8.396C3.81284 8.284 3.87284 8.124 3.89684 7.916C3.92084 7.7 3.93284 7.444 3.93284 7.148V6.848C3.93284 6.392 3.90484 6.06 3.84884 5.852C3.79284 5.636 3.60084 5.528 3.27284 5.528C2.95284 5.528 2.76084 5.632 2.69684 5.84C2.64084 6.048 2.61284 6.38 2.61284 6.836V7.16C2.61284 7.456 2.62484 7.708 2.64884 7.916C2.67284 8.124 2.73284 8.284 2.82884 8.396C2.92484 8.5 3.07284 8.552 3.27284 8.552ZM9.70484 14.012C8.88084 14.012 8.29684 13.8 7.95284 13.376C7.61684 12.944 7.44884 12.296 7.44884 11.432V11C7.44884 10.12 7.61284 9.48 7.94084 9.08C8.27684 8.68 8.86484 8.48 9.70484 8.48C10.5448 8.48 11.1328 8.676 11.4688 9.068C11.8128 9.46 11.9848 10.096 11.9848 10.976V11.444C11.9848 12.308 11.8128 12.952 11.4688 13.376C11.1248 13.8 10.5368 14.012 9.70484 14.012ZM9.70484 12.764C9.91284 12.764 10.0608 12.712 10.1488 12.608C10.2448 12.496 10.3048 12.336 10.3288 12.128C10.3528 11.92 10.3648 11.668 10.3648 11.372V11.048C10.3648 10.592 10.3368 10.26 10.2808 10.052C10.2248 9.844 10.0328 9.74 9.70484 9.74C9.38484 9.74 9.19284 9.844 9.12884 10.052C9.07284 10.26 9.04484 10.592 9.04484 11.048V11.372C9.04484 11.668 9.05684 11.92 9.08084 12.128C9.10484 12.336 9.16484 12.496 9.26084 12.608C9.35684 12.712 9.50484 12.764 9.70484 12.764Z"></path>
</svg>
