<svg xmlns="http://www.w3.org/2000/svg" fill="none" viewBox="0 0 22 22" height="22" width="22">
<circle stroke="#0D0E12" fill="#FDCD4D" r="10" cy="11" cx="11"></circle>
<path fill="#0D0E12" d="M5.88201 16.9768C5.66925 16.8096 5.63112 16.5002 5.81283 16.2997C6.40671 15.6443 7.12046 15.1063 7.91715 14.7155C8.86074 14.2526 9.89645 14.0081 10.9474 14.0002C11.9984 13.9924 13.0377 14.2212 13.9881 14.6699C14.7906 15.0487 15.5123 15.5759 16.116 16.2223C16.3007 16.4201 16.2672 16.73 16.057 16.9004V16.9004C15.8468 17.0708 15.5396 17.037 15.3526 16.8413C14.8432 16.3081 14.2391 15.8721 13.5698 15.5561C12.7524 15.1703 11.9038 14.9932 11 15C10.0962 15.0068 9.16024 15.1972 8.34875 15.5953C7.6842 15.9213 7.08675 16.3664 6.58539 16.9072C6.4014 17.1056 6.09476 17.1441 5.88201 16.9768V16.9768Z"></path>
<path fill="white" d="M11 8.5C11 9.60457 10.1046 10.5 9 10.5C7.89543 10.5 7 9.60457 7 8.5C7 7.39543 7.89543 6.5 9 6.5C10.1046 6.5 11 7.39543 11 8.5Z"></path>
<path fill="#0D0E12" d="M10.0001 8.5C10.0001 9.05228 9.55235 9.5 9.00006 9.5C8.44778 9.5 8.00006 9.05228 8.00006 8.5C8.00006 7.94772 8.44778 7.5 9.00006 7.5C9.55235 7.5 10.0001 7.94772 10.0001 8.5Z"></path>
<path fill="white" d="M9 7.5C9 7.77614 8.77614 8 8.5 8C8.22386 8 8 7.77614 8 7.5C8 7.22386 8.22386 7 8.5 7C8.77614 7 9 7.22386 9 7.5Z"></path>
<path fill="white" d="M15.0001 8.5C15.0001 9.60457 14.1046 10.5 13.0001 10.5C11.8955 10.5 11.0001 9.60457 11.0001 8.5C11.0001 7.39543 11.8955 6.5 13.0001 6.5C14.1046 6.5 15.0001 7.39543 15.0001 8.5Z"></path>
<path fill="#0D0E12" d="M13.9999 8.5C13.9999 9.05228 13.5522 9.5 12.9999 9.5C12.4477 9.5 11.9999 9.05228 11.9999 8.5C11.9999 7.94772 12.4477 7.5 12.9999 7.5C13.5522 7.5 13.9999 7.94772 13.9999 8.5Z"></path>
<path fill="white" d="M13.0001 7.5C13.0001 7.77614 12.7762 8 12.5001 8C12.2239 8 12.0001 7.77614 12.0001 7.5C12.0001 7.22386 12.2239 7 12.5001 7C12.7762 7 13.0001 7.22386 13.0001 7.5Z"></path>
</svg>
