<svg xmlns="http://www.w3.org/2000/svg" fill="none" viewBox="0 0 58 18" height="18" width="58">
<path fill="#0D0E12" d="M0.72 14V4.28H3.252C3.668 4.28 4.06 4.312 4.428 4.376C4.804 4.44 5.136 4.564 5.424 4.748C5.712 4.924 5.936 5.18 6.096 5.516C6.264 5.844 6.348 6.28 6.348 6.824C6.348 7.216 6.288 7.548 6.168 7.82C6.056 8.084 5.892 8.296 5.676 8.456C5.468 8.616 5.216 8.724 4.92 8.78C5.296 8.828 5.612 8.952 5.868 9.152C6.124 9.344 6.316 9.604 6.444 9.932C6.58 10.26 6.648 10.656 6.648 11.12C6.648 11.624 6.58 12.06 6.444 12.428C6.316 12.788 6.128 13.084 5.88 13.316C5.632 13.548 5.324 13.72 4.956 13.832C4.596 13.944 4.18 14 3.708 14H0.72ZM2.868 12.5H3.324C3.796 12.5 4.12 12.38 4.296 12.14C4.48 11.9 4.572 11.548 4.572 11.084C4.572 10.716 4.532 10.424 4.452 10.208C4.372 9.992 4.24 9.836 4.056 9.74C3.872 9.636 3.624 9.584 3.312 9.584H2.868V12.5ZM2.868 8.168H3.288C3.616 8.168 3.864 8.12 4.032 8.024C4.2 7.92 4.312 7.772 4.368 7.58C4.432 7.388 4.464 7.156 4.464 6.884C4.464 6.628 4.416 6.416 4.32 6.248C4.232 6.072 4.096 5.94 3.912 5.852C3.736 5.764 3.512 5.72 3.24 5.72H2.868V8.168ZM10.5587 14.144C9.82269 14.144 9.23869 14.012 8.80669 13.748C8.38269 13.476 8.08269 13.1 7.90669 12.62C7.73069 12.132 7.64269 11.56 7.64269 10.904V7.4C7.64269 6.728 7.73069 6.152 7.90669 5.672C8.08269 5.184 8.38269 4.808 8.80669 4.544C9.23869 4.28 9.82269 4.148 10.5587 4.148C11.2787 4.148 11.8387 4.268 12.2387 4.508C12.6467 4.74 12.9347 5.068 13.1027 5.492C13.2707 5.916 13.3547 6.404 13.3547 6.956V7.796H11.2547V6.824C11.2547 6.632 11.2427 6.448 11.2187 6.272C11.2027 6.096 11.1467 5.952 11.0507 5.84C10.9547 5.72 10.7907 5.66 10.5587 5.66C10.3347 5.66 10.1667 5.72 10.0547 5.84C9.95069 5.96 9.88269 6.112 9.85069 6.296C9.82669 6.472 9.81469 6.66 9.81469 6.86V11.432C9.81469 11.648 9.83069 11.848 9.86269 12.032C9.90269 12.208 9.97469 12.352 10.0787 12.464C10.1907 12.568 10.3507 12.62 10.5587 12.62C10.7827 12.62 10.9427 12.564 11.0387 12.452C11.1347 12.332 11.1947 12.18 11.2187 11.996C11.2427 11.812 11.2547 11.624 11.2547 11.432V10.412H13.3547V11.252C13.3547 11.804 13.2707 12.3 13.1027 12.74C12.9427 13.172 12.6587 13.516 12.2507 13.772C11.8507 14.02 11.2867 14.144 10.5587 14.144ZM14.5364 14V4.28H18.9044V5.744H16.6844V8.156H18.3764V9.644H16.6844V12.548H18.9284V14H14.5364ZM19.9396 14V4.28H24.4396V5.876H22.0876V14H19.9396ZM28.2423 14.144C27.5143 14.144 26.9383 14.016 26.5143 13.76C26.0903 13.504 25.7863 13.136 25.6023 12.656C25.4183 12.176 25.3263 11.604 25.3263 10.94V7.328C25.3263 6.656 25.4183 6.084 25.6023 5.612C25.7863 5.14 26.0903 4.78 26.5143 4.532C26.9383 4.276 27.5143 4.148 28.2423 4.148C28.9783 4.148 29.5583 4.276 29.9823 4.532C30.4143 4.78 30.7223 5.14 30.9063 5.612C31.0903 6.084 31.1823 6.656 31.1823 7.328V10.94C31.1823 11.604 31.0903 12.176 30.9063 12.656C30.7223 13.136 30.4143 13.504 29.9823 13.76C29.5583 14.016 28.9783 14.144 28.2423 14.144ZM28.2423 12.62C28.4663 12.62 28.6303 12.564 28.7343 12.452C28.8383 12.34 28.9063 12.196 28.9383 12.02C28.9703 11.844 28.9863 11.664 28.9863 11.48V6.8C28.9863 6.608 28.9703 6.428 28.9383 6.26C28.9063 6.084 28.8383 5.94 28.7343 5.828C28.6303 5.716 28.4663 5.66 28.2423 5.66C28.0343 5.66 27.8783 5.716 27.7743 5.828C27.6703 5.94 27.6023 6.084 27.5703 6.26C27.5383 6.428 27.5223 6.608 27.5223 6.8V11.48C27.5223 11.664 27.5343 11.844 27.5583 12.02C27.5903 12.196 27.6543 12.34 27.7503 12.452C27.8543 12.564 28.0183 12.62 28.2423 12.62ZM35.5958 14V4.28H37.2878V9.848L39.7718 4.28H41.1638V14H39.4358V8.336L36.9038 14H35.5958ZM42.674 14V4.28H47.174V5.876H44.822V14H42.674ZM48.1927 14V4.28H51.4567C52.0407 4.28 52.5207 4.392 52.8967 4.616C53.2727 4.832 53.5527 5.152 53.7367 5.576C53.9207 5.992 54.0127 6.5 54.0127 7.1C54.0127 7.852 53.8887 8.428 53.6407 8.828C53.3927 9.22 53.0567 9.492 52.6327 9.644C52.2087 9.796 51.7327 9.872 51.2047 9.872H50.3407V14H48.1927ZM50.3407 8.372H51.0607C51.3247 8.372 51.5247 8.324 51.6607 8.228C51.7967 8.132 51.8847 7.988 51.9247 7.796C51.9727 7.604 51.9967 7.36 51.9967 7.064C51.9967 6.816 51.9767 6.6 51.9367 6.416C51.9047 6.224 51.8207 6.072 51.6847 5.96C51.5487 5.848 51.3367 5.792 51.0487 5.792H50.3407V8.372ZM55.1321 9.056V7.232H56.9561V9.056H55.1321ZM55.1321 13.328V11.504H56.9561V13.328H55.1321Z"></path>
<rect fill-opacity="0.01" fill="white" height="18" width="58"></rect>
</svg>
