<svg xmlns="http://www.w3.org/2000/svg" fill="none" viewBox="0 0 6 19" height="19" width="6">
<path fill-opacity="0.01" fill="white" d="M0 0H6V19H0V0Z"></path>
<path fill="#45D2FF" d="M1.64175 11.444V9.896C2.00175 9.616 2.32575 9.304 2.61375 8.96C2.90175 8.616 3.12975 8.252 3.29775 7.868C3.46575 7.476 3.54975 7.072 3.54975 6.656C3.54975 6.36 3.49375 6.148 3.38175 6.02C3.27775 5.884 3.12175 5.816 2.91375 5.816C2.72175 5.816 2.56975 5.872 2.45775 5.984C2.35375 6.096 2.30175 6.252 2.30175 6.452C2.30175 6.58 2.31375 6.696 2.33775 6.8C2.36975 6.896 2.40575 7 2.44575 7.112L0.68175 7.52C0.61775 7.328 0.56575 7.144 0.52575 6.968C0.49375 6.784 0.47775 6.592 0.47775 6.392C0.47775 5.688 0.68975 5.14 1.11375 4.748C1.54575 4.348 2.16175 4.148 2.96175 4.148C3.76975 4.148 4.38975 4.36 4.82175 4.784C5.26175 5.208 5.48175 5.812 5.48175 6.596C5.48175 7.076 5.40175 7.532 5.24175 7.964C5.08175 8.396 4.84575 8.804 4.53375 9.188C4.22975 9.572 3.85775 9.932 3.41775 10.268V11.444H1.64175ZM1.58175 14V12.14H3.48975V14H1.58175Z"></path>
</svg>
