<svg xmlns="http://www.w3.org/2000/svg" fill="none" viewBox="0 0 13 18" height="18" width="13">
<rect fill-opacity="0.01" fill="#0D0E12" height="18" width="13"></rect>
<path fill="white" d="M1.596 14V6.26C1.508 6.308 1.408 6.356 1.296 6.404C1.184 6.452 1.064 6.504 0.936 6.56C0.816 6.608 0.696 6.656 0.576 6.704C0.464 6.752 0.36 6.8 0.264 6.848V5.36C0.352 5.312 0.476 5.248 0.636 5.168C0.796 5.08 0.968 4.984 1.152 4.88C1.336 4.776 1.508 4.672 1.668 4.568C1.828 4.456 1.948 4.36 2.028 4.28H3.6V14H1.596ZM5.15606 14V12.584L7.48406 9.008C7.66006 8.744 7.82406 8.488 7.97606 8.24C8.13606 7.992 8.26406 7.74 8.36006 7.484C8.46406 7.228 8.51606 6.96 8.51606 6.68C8.51606 6.4 8.46006 6.192 8.34806 6.056C8.23606 5.92 8.08406 5.852 7.89206 5.852C7.67606 5.852 7.50806 5.912 7.38806 6.032C7.26806 6.152 7.18406 6.312 7.13606 6.512C7.09606 6.712 7.07606 6.936 7.07606 7.184V7.664H5.13206V7.148C5.13206 6.572 5.22406 6.06 5.40806 5.612C5.59206 5.156 5.88406 4.8 6.28406 4.544C6.68406 4.28 7.20806 4.148 7.85606 4.148C8.72806 4.148 9.38406 4.376 9.82406 4.832C10.2721 5.28 10.4961 5.908 10.4961 6.716C10.4961 7.108 10.4321 7.472 10.3041 7.808C10.1841 8.144 10.0201 8.472 9.81206 8.792C9.61206 9.104 9.39606 9.432 9.16406 9.776L7.38806 12.428H10.2321V14H5.15606Z"></path>
</svg>
