<svg xmlns="http://www.w3.org/2000/svg" fill="none" viewBox="0 0 214 84" height="84" width="214">
<mask fill="white" id="path-1-inside-1_1632_6">
<path d="M0 0H214V84H0V0Z"></path>
</mask>
<path fill="#0D0E12" d="M0 0H214V84H0V0Z"></path>
<path mask="url(#path-1-inside-1_1632_6)" fill="white" d="M0 0V-1H-1V0H0ZM0 84H-1V85H0V84ZM0 1H214V-1H0V1ZM214 83H0V85H214V83ZM1 84V0H-1V84H1Z"></path>
<path fill="#FF0000" d="M17.944 38V34.028L16.096 28.28H18.124L19.048 31.352L19.876 28.28H21.82L20.008 34.028V38H17.944ZM25.2345 38.144C24.5065 38.144 23.9305 38.016 23.5065 37.76C23.0825 37.504 22.7785 37.136 22.5945 36.656C22.4105 36.176 22.3185 35.604 22.3185 34.94V31.328C22.3185 30.656 22.4105 30.084 22.5945 29.612C22.7785 29.14 23.0825 28.78 23.5065 28.532C23.9305 28.276 24.5065 28.148 25.2345 28.148C25.9705 28.148 26.5505 28.276 26.9745 28.532C27.4065 28.78 27.7145 29.14 27.8985 29.612C28.0825 30.084 28.1745 30.656 28.1745 31.328V34.94C28.1745 35.604 28.0825 36.176 27.8985 36.656C27.7145 37.136 27.4065 37.504 26.9745 37.76C26.5505 38.016 25.9705 38.144 25.2345 38.144ZM25.2345 36.62C25.4585 36.62 25.6225 36.564 25.7265 36.452C25.8305 36.34 25.8985 36.196 25.9305 36.02C25.9625 35.844 25.9785 35.664 25.9785 35.48V30.8C25.9785 30.608 25.9625 30.428 25.9305 30.26C25.8985 30.084 25.8305 29.94 25.7265 29.828C25.6225 29.716 25.4585 29.66 25.2345 29.66C25.0265 29.66 24.8705 29.716 24.7665 29.828C24.6625 29.94 24.5945 30.084 24.5625 30.26C24.5305 30.428 24.5145 30.608 24.5145 30.8V35.48C24.5145 35.664 24.5265 35.844 24.5505 36.02C24.5825 36.196 24.6465 36.34 24.7425 36.452C24.8465 36.564 25.0105 36.62 25.2345 36.62ZM32.2897 38.144C31.5457 38.144 30.9617 38.024 30.5377 37.784C30.1217 37.536 29.8297 37.18 29.6617 36.716C29.4937 36.244 29.4097 35.668 29.4097 34.988V28.28H31.5337V35.312C31.5337 35.512 31.5497 35.712 31.5817 35.912C31.6137 36.112 31.6817 36.276 31.7857 36.404C31.8977 36.532 32.0657 36.596 32.2897 36.596C32.5217 36.596 32.6897 36.532 32.7937 36.404C32.8977 36.276 32.9617 36.112 32.9857 35.912C33.0177 35.712 33.0337 35.512 33.0337 35.312V28.28H35.1697V34.988C35.1697 35.668 35.0817 36.244 34.9057 36.716C34.7377 37.18 34.4457 37.536 34.0297 37.784C33.6137 38.024 33.0337 38.144 32.2897 38.144ZM39.1387 38L40.9747 28.28H43.4227L45.2347 38H43.2547L42.9307 35.948H41.5027L41.1667 38H39.1387ZM41.6947 34.664H42.7267L42.2107 30.872L41.6947 34.664ZM46.2161 38V28.28H48.8921C49.5481 28.28 50.1161 28.352 50.5961 28.496C51.0761 28.64 51.4481 28.9 51.7121 29.276C51.9841 29.644 52.1201 30.168 52.1201 30.848C52.1201 31.248 52.0881 31.604 52.0241 31.916C51.9601 32.228 51.8401 32.5 51.6641 32.732C51.4961 32.956 51.2521 33.144 50.9321 33.296L52.2641 38H50.0441L48.9761 33.644H48.3641V38H46.2161ZM48.3641 32.408H48.9641C49.2681 32.408 49.5041 32.356 49.6721 32.252C49.8401 32.14 49.9561 31.984 50.0201 31.784C50.0921 31.576 50.1281 31.328 50.1281 31.04C50.1281 30.624 50.0521 30.3 49.9001 30.068C49.7481 29.836 49.4681 29.72 49.0601 29.72H48.3641V32.408ZM53.4114 38V28.28H57.7794V29.744H55.5594V32.156H57.2514V33.644H55.5594V36.548H57.8034V38H53.4114ZM61.8489 38V28.28H64.3809C64.7969 28.28 65.1889 28.312 65.5569 28.376C65.9329 28.44 66.2649 28.564 66.5529 28.748C66.8409 28.924 67.0649 29.18 67.2249 29.516C67.3929 29.844 67.4769 30.28 67.4769 30.824C67.4769 31.216 67.4169 31.548 67.2969 31.82C67.1849 32.084 67.0209 32.296 66.8049 32.456C66.5969 32.616 66.3449 32.724 66.0489 32.78C66.4249 32.828 66.7409 32.952 66.9969 33.152C67.2529 33.344 67.4449 33.604 67.5729 33.932C67.7089 34.26 67.7769 34.656 67.7769 35.12C67.7769 35.624 67.7089 36.06 67.5729 36.428C67.4449 36.788 67.2569 37.084 67.0089 37.316C66.7609 37.548 66.4529 37.72 66.0849 37.832C65.7249 37.944 65.3089 38 64.8369 38H61.8489ZM63.9969 36.5H64.4529C64.9249 36.5 65.2489 36.38 65.4249 36.14C65.6089 35.9 65.7009 35.548 65.7009 35.084C65.7009 34.716 65.6609 34.424 65.5809 34.208C65.5009 33.992 65.3689 33.836 65.1849 33.74C65.0009 33.636 64.7529 33.584 64.4409 33.584H63.9969V36.5ZM63.9969 32.168H64.4169C64.7449 32.168 64.9929 32.12 65.1609 32.024C65.3289 31.92 65.4409 31.772 65.4969 31.58C65.5609 31.388 65.5929 31.156 65.5929 30.884C65.5929 30.628 65.5449 30.416 65.4489 30.248C65.3609 30.072 65.2249 29.94 65.0409 29.852C64.8649 29.764 64.6409 29.72 64.3689 29.72H63.9969V32.168ZM68.4122 38L70.2482 28.28H72.6962L74.5082 38H72.5282L72.2042 35.948H70.7762L70.4402 38H68.4122ZM70.9682 34.664H72.0002L71.4842 30.872L70.9682 34.664ZM75.4895 38V28.28H77.0015L78.9935 32.96V28.28H80.7695V38H79.3175L77.3255 32.96V38H75.4895ZM82.2161 38V28.28H83.7281L85.7201 32.96V28.28H87.4961V38H86.0441L84.0521 32.96V38H82.2161ZM88.9427 38V28.28H93.3107V29.744H91.0907V32.156H92.7827V33.644H91.0907V36.548H93.3347V38H88.9427ZM94.3098 38V28.28H96.7698C97.6178 28.28 98.2778 28.388 98.7498 28.604C99.2218 28.812 99.5538 29.144 99.7458 29.6C99.9378 30.048 100.034 30.632 100.034 31.352V34.88C100.034 35.608 99.9378 36.204 99.7458 36.668C99.5538 37.124 99.2218 37.46 98.7498 37.676C98.2858 37.892 97.6338 38 96.7938 38H94.3098ZM96.4578 36.512H96.7938C97.1218 36.512 97.3578 36.464 97.5018 36.368C97.6458 36.272 97.7338 36.128 97.7658 35.936C97.8058 35.744 97.8258 35.504 97.8258 35.216V30.98C97.8258 30.692 97.8018 30.46 97.7538 30.284C97.7138 30.108 97.6218 29.98 97.4778 29.9C97.3338 29.82 97.1018 29.78 96.7818 29.78H96.4578V36.512Z"></path>
<path fill="white" d="M17.87 56V53.14L16.12 47.9H17.17L18.41 51.81L19.63 47.9H20.69L18.95 53.14V56H17.87ZM22.7491 56.08C22.3225 56.08 21.9858 55.9933 21.7391 55.82C21.4925 55.6467 21.3158 55.4 21.2091 55.08C21.1091 54.76 21.0591 54.3833 21.0591 53.95V52.27C21.0591 51.8367 21.1091 51.46 21.2091 51.14C21.3158 50.82 21.4925 50.5733 21.7391 50.4C21.9858 50.2267 22.3225 50.14 22.7491 50.14C23.1758 50.14 23.5091 50.2267 23.7491 50.4C23.9958 50.5733 24.1691 50.82 24.2691 51.14C24.3758 51.46 24.4291 51.8367 24.4291 52.27V53.95C24.4291 54.3833 24.3758 54.76 24.2691 55.08C24.1691 55.4 23.9958 55.6467 23.7491 55.82C23.5091 55.9933 23.1758 56.08 22.7491 56.08ZM22.7491 55.29C22.9558 55.29 23.0991 55.23 23.1791 55.11C23.2658 54.99 23.3158 54.8333 23.3291 54.64C23.3491 54.44 23.3591 54.2333 23.3591 54.02V52.21C23.3591 51.99 23.3491 51.7833 23.3291 51.59C23.3158 51.3967 23.2658 51.24 23.1791 51.12C23.0991 50.9933 22.9558 50.93 22.7491 50.93C22.5425 50.93 22.3958 50.9933 22.3091 51.12C22.2225 51.24 22.1691 51.3967 22.1491 51.59C22.1358 51.7833 22.1291 51.99 22.1291 52.21V54.02C22.1291 54.2333 22.1358 54.44 22.1491 54.64C22.1691 54.8333 22.2225 54.99 22.3091 55.11C22.3958 55.23 22.5425 55.29 22.7491 55.29ZM26.2372 56.08C26.0105 56.08 25.8339 56.02 25.7072 55.9C25.5805 55.78 25.4905 55.63 25.4372 55.45C25.3905 55.27 25.3672 55.0867 25.3672 54.9V50.22H26.4372V54.58C26.4372 54.7867 26.4672 54.95 26.5272 55.07C26.5872 55.1833 26.7105 55.24 26.8972 55.24C27.0172 55.24 27.1405 55.2067 27.2672 55.14C27.4005 55.0667 27.5272 54.98 27.6472 54.88V50.22H28.7172V56H27.6472V55.43C27.4605 55.61 27.2472 55.7633 27.0072 55.89C26.7739 56.0167 26.5172 56.08 26.2372 56.08ZM33.6766 56.08C33.2033 56.08 32.8433 55.9867 32.5966 55.8C32.3566 55.6067 32.1933 55.3367 32.1066 54.99C32.0266 54.6433 31.9866 54.24 31.9866 53.78V52.45C31.9866 51.9633 32.03 51.55 32.1166 51.21C32.2033 50.8633 32.3666 50.6 32.6066 50.42C32.8533 50.2333 33.21 50.14 33.6766 50.14C34.0966 50.14 34.42 50.21 34.6466 50.35C34.88 50.4833 35.04 50.6867 35.1266 50.96C35.2133 51.2267 35.2566 51.56 35.2566 51.96V52.3H34.2866V51.95C34.2866 51.6967 34.27 51.4967 34.2366 51.35C34.2033 51.2033 34.1433 51.0967 34.0566 51.03C33.97 50.9633 33.8466 50.93 33.6866 50.93C33.5133 50.93 33.38 50.97 33.2866 51.05C33.1933 51.13 33.13 51.2667 33.0966 51.46C33.07 51.6467 33.0566 51.9033 33.0566 52.23V54.05C33.0566 54.5433 33.1033 54.8733 33.1966 55.04C33.29 55.2067 33.4566 55.29 33.6966 55.29C33.8766 55.29 34.0066 55.25 34.0866 55.17C34.1733 55.0833 34.2266 54.9633 34.2466 54.81C34.2733 54.6567 34.2866 54.4833 34.2866 54.29V53.82H35.2566V54.22C35.2566 54.6067 35.21 54.94 35.1166 55.22C35.03 55.5 34.87 55.7133 34.6366 55.86C34.41 56.0067 34.09 56.08 33.6766 56.08ZM37.248 56.08C37.0213 56.08 36.8213 56.0167 36.648 55.89C36.4746 55.7567 36.338 55.59 36.238 55.39C36.138 55.1833 36.088 54.9667 36.088 54.74C36.088 54.38 36.148 54.0767 36.268 53.83C36.388 53.5833 36.5513 53.3767 36.758 53.21C36.9713 53.0367 37.2146 52.8867 37.488 52.76C37.768 52.6333 38.0613 52.51 38.368 52.39V51.98C38.368 51.7467 38.3546 51.5533 38.328 51.4C38.3013 51.2467 38.2446 51.1333 38.158 51.06C38.078 50.98 37.9546 50.94 37.788 50.94C37.6413 50.94 37.5213 50.9733 37.428 51.04C37.3413 51.1067 37.278 51.2033 37.238 51.33C37.198 51.45 37.178 51.5933 37.178 51.76V52.05L36.118 52.01C36.1313 51.37 36.278 50.9 36.558 50.6C36.838 50.2933 37.2713 50.14 37.858 50.14C38.4313 50.14 38.838 50.2967 39.078 50.61C39.318 50.9233 39.438 51.3767 39.438 51.97V54.61C39.438 54.79 39.4413 54.9633 39.448 55.13C39.4613 55.2967 39.4746 55.4533 39.488 55.6C39.508 55.74 39.5246 55.8733 39.538 56H38.558C38.538 55.8933 38.5113 55.76 38.478 55.6C38.4513 55.4333 38.4313 55.2833 38.418 55.15C38.3513 55.3767 38.2213 55.59 38.028 55.79C37.8413 55.9833 37.5813 56.08 37.248 56.08ZM37.668 55.16C37.7746 55.16 37.8746 55.13 37.968 55.07C38.0613 55.01 38.1446 54.9433 38.218 54.87C38.2913 54.79 38.3413 54.7267 38.368 54.68V53.04C38.2013 53.1333 38.0446 53.2267 37.898 53.32C37.7513 53.4133 37.6213 53.5133 37.508 53.62C37.4013 53.72 37.3146 53.8367 37.248 53.97C37.188 54.0967 37.158 54.2433 37.158 54.41C37.158 54.6433 37.2013 54.8267 37.288 54.96C37.3746 55.0933 37.5013 55.16 37.668 55.16ZM40.4658 56V50.22H41.5358V50.79C41.7291 50.61 41.9424 50.4567 42.1758 50.33C42.4091 50.2033 42.6658 50.14 42.9458 50.14C43.1791 50.14 43.3558 50.2 43.4758 50.32C43.6024 50.44 43.6891 50.59 43.7358 50.77C43.7891 50.95 43.8158 51.1333 43.8158 51.32V56H42.7458V51.63C42.7458 51.4233 42.7158 51.2633 42.6558 51.15C42.5958 51.0367 42.4724 50.98 42.2858 50.98C42.1658 50.98 42.0391 51.0167 41.9058 51.09C41.7791 51.1567 41.6558 51.24 41.5358 51.34V56H40.4658ZM44.8603 56V50.22H45.9303V50.79C46.1236 50.61 46.337 50.4567 46.5703 50.33C46.8036 50.2033 47.0603 50.14 47.3403 50.14C47.5736 50.14 47.7503 50.2 47.8703 50.32C47.997 50.44 48.0836 50.59 48.1303 50.77C48.1836 50.95 48.2103 51.1333 48.2103 51.32V56H47.1403V51.63C47.1403 51.4233 47.1103 51.2633 47.0503 51.15C46.9903 51.0367 46.867 50.98 46.6803 50.98C46.5603 50.98 46.4336 51.0167 46.3003 51.09C46.1736 51.1567 46.0503 51.24 45.9303 51.34V56H44.8603ZM50.8448 56.08C50.4182 56.08 50.0815 55.9933 49.8348 55.82C49.5882 55.6467 49.4115 55.4 49.3048 55.08C49.2048 54.76 49.1548 54.3833 49.1548 53.95V52.27C49.1548 51.8367 49.2048 51.46 49.3048 51.14C49.4115 50.82 49.5882 50.5733 49.8348 50.4C50.0815 50.2267 50.4182 50.14 50.8448 50.14C51.2715 50.14 51.6048 50.2267 51.8448 50.4C52.0915 50.5733 52.2648 50.82 52.3648 51.14C52.4715 51.46 52.5248 51.8367 52.5248 52.27V53.95C52.5248 54.3833 52.4715 54.76 52.3648 55.08C52.2648 55.4 52.0915 55.6467 51.8448 55.82C51.6048 55.9933 51.2715 56.08 50.8448 56.08ZM50.8448 55.29C51.0515 55.29 51.1948 55.23 51.2748 55.11C51.3615 54.99 51.4115 54.8333 51.4248 54.64C51.4448 54.44 51.4548 54.2333 51.4548 54.02V52.21C51.4548 51.99 51.4448 51.7833 51.4248 51.59C51.4115 51.3967 51.3615 51.24 51.2748 51.12C51.1948 50.9933 51.0515 50.93 50.8448 50.93C50.6382 50.93 50.4915 50.9933 50.4048 51.12C50.3182 51.24 50.2648 51.3967 50.2448 51.59C50.2315 51.7833 50.2248 51.99 50.2248 52.21V54.02C50.2248 54.2333 50.2315 54.44 50.2448 54.64C50.2648 54.8333 50.3182 54.99 50.4048 55.11C50.4915 55.23 50.6382 55.29 50.8448 55.29ZM55.0429 56.08C54.7429 56.08 54.4996 56.0233 54.3129 55.91C54.1329 55.7967 53.9996 55.6367 53.9129 55.43C53.8329 55.2233 53.7929 54.98 53.7929 54.7V50.93H53.1829V50.22H53.7929V48.53H54.8629V50.22H55.7929V50.93H54.8629V54.63C54.8629 54.8567 54.8996 55.02 54.9729 55.12C55.0462 55.2133 55.1862 55.26 55.3929 55.26C55.4462 55.26 55.5062 55.2567 55.5729 55.25C55.6462 55.2433 55.7162 55.2367 55.7829 55.23V56.02C55.6496 56.04 55.5262 56.0533 55.4129 56.06C55.2996 56.0733 55.1762 56.08 55.0429 56.08ZM59.6942 56.08C59.4676 56.08 59.2909 56.02 59.1642 55.9C59.0376 55.78 58.9476 55.63 58.8942 55.45C58.8476 55.27 58.8242 55.0867 58.8242 54.9V50.22H59.8942V54.58C59.8942 54.7867 59.9242 54.95 59.9842 55.07C60.0442 55.1833 60.1676 55.24 60.3542 55.24C60.4742 55.24 60.5976 55.2067 60.7242 55.14C60.8576 55.0667 60.9842 54.98 61.1042 54.88V50.22H62.1742V56H61.1042V55.43C60.9176 55.61 60.7042 55.7633 60.4642 55.89C60.2309 56.0167 59.9742 56.08 59.6942 56.08ZM64.6085 56.08C64.1352 56.08 63.7552 55.9333 63.4685 55.64C63.1818 55.34 63.0185 54.9467 62.9785 54.46L63.8685 54.19C63.9218 54.5567 64.0118 54.8333 64.1385 55.02C64.2652 55.2 64.4518 55.29 64.6985 55.29C64.8918 55.29 65.0385 55.2367 65.1385 55.13C65.2385 55.0167 65.2885 54.8667 65.2885 54.68C65.2885 54.5133 65.2518 54.3633 65.1785 54.23C65.1052 54.0967 64.9852 53.96 64.8185 53.82L63.8285 52.97C63.6285 52.7967 63.4585 52.6033 63.3185 52.39C63.1852 52.1767 63.1185 51.9 63.1185 51.56C63.1185 51.2533 63.1785 50.9967 63.2985 50.79C63.4252 50.5767 63.5985 50.4167 63.8185 50.31C64.0452 50.1967 64.3085 50.14 64.6085 50.14C65.0685 50.14 65.4185 50.29 65.6585 50.59C65.9052 50.8833 66.0452 51.24 66.0785 51.66L65.3585 51.93C65.3318 51.73 65.2918 51.5567 65.2385 51.41C65.1852 51.2567 65.1118 51.14 65.0185 51.06C64.9252 50.9733 64.8018 50.93 64.6485 50.93C64.4752 50.93 64.3352 50.99 64.2285 51.11C64.1285 51.2233 64.0785 51.36 64.0785 51.52C64.0785 51.62 64.0985 51.72 64.1385 51.82C64.1852 51.9133 64.2618 52.0067 64.3685 52.1L65.3885 53.04C65.5285 53.1667 65.6585 53.3033 65.7785 53.45C65.9052 53.5967 66.0085 53.7633 66.0885 53.95C66.1685 54.1367 66.2085 54.3533 66.2085 54.6C66.2085 54.9267 66.1418 55.2 66.0085 55.42C65.8752 55.64 65.6885 55.8067 65.4485 55.92C65.2085 56.0267 64.9285 56.08 64.6085 56.08ZM68.6088 56.08C68.1554 56.08 67.8054 55.9933 67.5588 55.82C67.3121 55.64 67.1388 55.38 67.0388 55.04C66.9454 54.6933 66.8988 54.27 66.8988 53.77V52.45C66.8988 51.9367 66.9488 51.51 67.0488 51.17C67.1488 50.83 67.3221 50.5733 67.5688 50.4C67.8221 50.2267 68.1688 50.14 68.6088 50.14C69.0954 50.14 69.4521 50.24 69.6788 50.44C69.9121 50.64 70.0654 50.93 70.1388 51.31C70.2121 51.6833 70.2488 52.1333 70.2488 52.66V53.13H67.9688V54.29C67.9688 54.5233 67.9888 54.7133 68.0288 54.86C68.0754 55.0067 68.1454 55.1167 68.2388 55.19C68.3388 55.2567 68.4654 55.29 68.6188 55.29C68.7788 55.29 68.8988 55.2533 68.9788 55.18C69.0654 55.1 69.1221 54.99 69.1488 54.85C69.1821 54.7033 69.1988 54.5333 69.1988 54.34V53.99H70.2388V54.21C70.2388 54.79 70.1154 55.2467 69.8688 55.58C69.6221 55.9133 69.2021 56.08 68.6088 56.08ZM67.9688 52.55H69.1988V52.03C69.1988 51.79 69.1854 51.59 69.1588 51.43C69.1321 51.2633 69.0754 51.14 68.9888 51.06C68.9088 50.9733 68.7788 50.93 68.5988 50.93C68.4254 50.93 68.2921 50.97 68.1988 51.05C68.1121 51.13 68.0521 51.2667 68.0188 51.46C67.9854 51.6467 67.9688 51.9067 67.9688 52.24V52.55ZM73.5729 56L73.7229 47.9H74.8329L76.2629 54.47L77.7029 47.9H78.8029L78.9529 56H78.0429L77.9529 50.12L76.5829 56H75.9429L74.5829 50.12L74.4929 56H73.5729ZM81.6945 56.08C81.2678 56.08 80.9311 55.9933 80.6845 55.82C80.4378 55.6467 80.2611 55.4 80.1545 55.08C80.0545 54.76 80.0045 54.3833 80.0045 53.95V52.27C80.0045 51.8367 80.0545 51.46 80.1545 51.14C80.2611 50.82 80.4378 50.5733 80.6845 50.4C80.9311 50.2267 81.2678 50.14 81.6945 50.14C82.1211 50.14 82.4545 50.2267 82.6945 50.4C82.9411 50.5733 83.1145 50.82 83.2145 51.14C83.3211 51.46 83.3745 51.8367 83.3745 52.27V53.95C83.3745 54.3833 83.3211 54.76 83.2145 55.08C83.1145 55.4 82.9411 55.6467 82.6945 55.82C82.4545 55.9933 82.1211 56.08 81.6945 56.08ZM81.6945 55.29C81.9011 55.29 82.0445 55.23 82.1245 55.11C82.2111 54.99 82.2611 54.8333 82.2745 54.64C82.2945 54.44 82.3045 54.2333 82.3045 54.02V52.21C82.3045 51.99 82.2945 51.7833 82.2745 51.59C82.2611 51.3967 82.2111 51.24 82.1245 51.12C82.0445 50.9933 81.9011 50.93 81.6945 50.93C81.4878 50.93 81.3411 50.9933 81.2545 51.12C81.1678 51.24 81.1145 51.3967 81.0945 51.59C81.0811 51.7833 81.0745 51.99 81.0745 52.21V54.02C81.0745 54.2333 81.0811 54.44 81.0945 54.64C81.1145 54.8333 81.1678 54.99 81.2545 55.11C81.3411 55.23 81.4878 55.29 81.6945 55.29ZM85.6925 56.08C85.2192 56.08 84.8392 55.9333 84.5525 55.64C84.2658 55.34 84.1025 54.9467 84.0625 54.46L84.9525 54.19C85.0058 54.5567 85.0958 54.8333 85.2225 55.02C85.3492 55.2 85.5358 55.29 85.7825 55.29C85.9758 55.29 86.1225 55.2367 86.2225 55.13C86.3225 55.0167 86.3725 54.8667 86.3725 54.68C86.3725 54.5133 86.3358 54.3633 86.2625 54.23C86.1892 54.0967 86.0692 53.96 85.9025 53.82L84.9125 52.97C84.7125 52.7967 84.5425 52.6033 84.4025 52.39C84.2692 52.1767 84.2025 51.9 84.2025 51.56C84.2025 51.2533 84.2625 50.9967 84.3825 50.79C84.5092 50.5767 84.6825 50.4167 84.9025 50.31C85.1292 50.1967 85.3925 50.14 85.6925 50.14C86.1525 50.14 86.5025 50.29 86.7425 50.59C86.9892 50.8833 87.1292 51.24 87.1625 51.66L86.4425 51.93C86.4158 51.73 86.3758 51.5567 86.3225 51.41C86.2692 51.2567 86.1958 51.14 86.1025 51.06C86.0092 50.9733 85.8858 50.93 85.7325 50.93C85.5592 50.93 85.4192 50.99 85.3125 51.11C85.2125 51.2233 85.1625 51.36 85.1625 51.52C85.1625 51.62 85.1825 51.72 85.2225 51.82C85.2692 51.9133 85.3458 52.0067 85.4525 52.1L86.4725 53.04C86.6125 53.1667 86.7425 53.3033 86.8625 53.45C86.9892 53.5967 87.0925 53.7633 87.1725 53.95C87.2525 54.1367 87.2925 54.3533 87.2925 54.6C87.2925 54.9267 87.2258 55.2 87.0925 55.42C86.9592 55.64 86.7725 55.8067 86.5325 55.92C86.2925 56.0267 86.0125 56.08 85.6925 56.08ZM90.2127 56.09C89.6394 56.09 89.1927 55.97 88.8727 55.73C88.5594 55.49 88.3394 55.1667 88.2127 54.76C88.0927 54.3533 88.0327 53.9 88.0327 53.4V50.54C88.0327 49.9933 88.0927 49.5167 88.2127 49.11C88.3394 48.7033 88.5594 48.39 88.8727 48.17C89.1927 47.9433 89.6394 47.83 90.2127 47.83C90.7194 47.83 91.1194 47.9233 91.4127 48.11C91.7127 48.2967 91.9261 48.5633 92.0527 48.91C92.1861 49.2567 92.2527 49.6733 92.2527 50.16V50.8H91.1827V50.23C91.1827 49.93 91.1661 49.6667 91.1327 49.44C91.1061 49.2067 91.0261 49.0267 90.8927 48.9C90.7594 48.7733 90.5361 48.71 90.2227 48.71C89.9027 48.71 89.6694 48.78 89.5227 48.92C89.3761 49.0533 89.2794 49.2467 89.2327 49.5C89.1927 49.7467 89.1727 50.0367 89.1727 50.37V53.58C89.1727 53.9867 89.2061 54.31 89.2727 54.55C89.3394 54.7833 89.4494 54.95 89.6027 55.05C89.7561 55.15 89.9627 55.2 90.2227 55.2C90.5294 55.2 90.7494 55.1333 90.8827 55C91.0161 54.86 91.0994 54.67 91.1327 54.43C91.1661 54.19 91.1827 53.91 91.1827 53.59V52.99H92.2527V53.59C92.2527 54.0833 92.1927 54.52 92.0727 54.9C91.9527 55.2733 91.7461 55.5667 91.4527 55.78C91.1594 55.9867 90.7461 56.09 90.2127 56.09ZM93.2692 56V47.9H94.3392V50.82C94.5326 50.6333 94.7492 50.4733 94.9892 50.34C95.2292 50.2067 95.4959 50.14 95.7892 50.14C96.0159 50.14 96.1892 50.2 96.3092 50.32C96.4359 50.44 96.5226 50.59 96.5692 50.77C96.6226 50.95 96.6492 51.1333 96.6492 51.32V56H95.5792V51.63C95.5792 51.4233 95.5492 51.2633 95.4892 51.15C95.4292 51.0367 95.3059 50.98 95.1192 50.98C94.9926 50.98 94.8592 51.0167 94.7192 51.09C94.5859 51.1633 94.4592 51.2533 94.3392 51.36V56H93.2692ZM99.2923 56.08C98.839 56.08 98.489 55.9933 98.2423 55.82C97.9957 55.64 97.8223 55.38 97.7223 55.04C97.629 54.6933 97.5823 54.27 97.5823 53.77V52.45C97.5823 51.9367 97.6323 51.51 97.7323 51.17C97.8323 50.83 98.0057 50.5733 98.2523 50.4C98.5057 50.2267 98.8523 50.14 99.2923 50.14C99.779 50.14 100.136 50.24 100.362 50.44C100.596 50.64 100.749 50.93 100.822 51.31C100.896 51.6833 100.932 52.1333 100.932 52.66V53.13H98.6523V54.29C98.6523 54.5233 98.6723 54.7133 98.7123 54.86C98.759 55.0067 98.829 55.1167 98.9223 55.19C99.0223 55.2567 99.149 55.29 99.3023 55.29C99.4623 55.29 99.5823 55.2533 99.6623 55.18C99.749 55.1 99.8057 54.99 99.8323 54.85C99.8657 54.7033 99.8823 54.5333 99.8823 54.34V53.99H100.922V54.21C100.922 54.79 100.799 55.2467 100.552 55.58C100.306 55.9133 99.8857 56.08 99.2923 56.08ZM98.6523 52.55H99.8823V52.03C99.8823 51.79 99.869 51.59 99.8423 51.43C99.8157 51.2633 99.759 51.14 99.6723 51.06C99.5923 50.9733 99.4623 50.93 99.2823 50.93C99.109 50.93 98.9757 50.97 98.8823 51.05C98.7957 51.13 98.7357 51.2667 98.7023 51.46C98.669 51.6467 98.6523 51.9067 98.6523 52.24V52.55ZM103.241 56.08C102.768 56.08 102.388 55.9333 102.101 55.64C101.815 55.34 101.651 54.9467 101.611 54.46L102.501 54.19C102.555 54.5567 102.645 54.8333 102.771 55.02C102.898 55.2 103.085 55.29 103.331 55.29C103.525 55.29 103.671 55.2367 103.771 55.13C103.871 55.0167 103.921 54.8667 103.921 54.68C103.921 54.5133 103.885 54.3633 103.811 54.23C103.738 54.0967 103.618 53.96 103.451 53.82L102.461 52.97C102.261 52.7967 102.091 52.6033 101.951 52.39C101.818 52.1767 101.751 51.9 101.751 51.56C101.751 51.2533 101.811 50.9967 101.931 50.79C102.058 50.5767 102.231 50.4167 102.451 50.31C102.678 50.1967 102.941 50.14 103.241 50.14C103.701 50.14 104.051 50.29 104.291 50.59C104.538 50.8833 104.678 51.24 104.711 51.66L103.991 51.93C103.965 51.73 103.925 51.5567 103.871 51.41C103.818 51.2567 103.745 51.14 103.651 51.06C103.558 50.9733 103.435 50.93 103.281 50.93C103.108 50.93 102.968 50.99 102.861 51.11C102.761 51.2233 102.711 51.36 102.711 51.52C102.711 51.62 102.731 51.72 102.771 51.82C102.818 51.9133 102.895 52.0067 103.001 52.1L104.021 53.04C104.161 53.1667 104.291 53.3033 104.411 53.45C104.538 53.5967 104.641 53.7633 104.721 53.95C104.801 54.1367 104.841 54.3533 104.841 54.6C104.841 54.9267 104.775 55.2 104.641 55.42C104.508 55.64 104.321 55.8067 104.081 55.92C103.841 56.0267 103.561 56.08 103.241 56.08ZM106.982 56.08C106.508 56.08 106.128 55.9333 105.842 55.64C105.555 55.34 105.392 54.9467 105.352 54.46L106.242 54.19C106.295 54.5567 106.385 54.8333 106.512 55.02C106.638 55.2 106.825 55.29 107.072 55.29C107.265 55.29 107.412 55.2367 107.512 55.13C107.612 55.0167 107.662 54.8667 107.662 54.68C107.662 54.5133 107.625 54.3633 107.552 54.23C107.478 54.0967 107.358 53.96 107.192 53.82L106.202 52.97C106.002 52.7967 105.832 52.6033 105.692 52.39C105.558 52.1767 105.492 51.9 105.492 51.56C105.492 51.2533 105.552 50.9967 105.672 50.79C105.798 50.5767 105.972 50.4167 106.192 50.31C106.418 50.1967 106.682 50.14 106.982 50.14C107.442 50.14 107.792 50.29 108.032 50.59C108.278 50.8833 108.418 51.24 108.452 51.66L107.732 51.93C107.705 51.73 107.665 51.5567 107.612 51.41C107.558 51.2567 107.485 51.14 107.392 51.06C107.298 50.9733 107.175 50.93 107.022 50.93C106.848 50.93 106.708 50.99 106.602 51.11C106.502 51.2233 106.452 51.36 106.452 51.52C106.452 51.62 106.472 51.72 106.512 51.82C106.558 51.9133 106.635 52.0067 106.742 52.1L107.762 53.04C107.902 53.1667 108.032 53.3033 108.152 53.45C108.278 53.5967 108.382 53.7633 108.462 53.95C108.542 54.1367 108.582 54.3533 108.582 54.6C108.582 54.9267 108.515 55.2 108.382 55.42C108.248 55.64 108.062 55.8067 107.822 55.92C107.582 56.0267 107.302 56.08 106.982 56.08Z"></path>
</svg>
