<svg xmlns="http://www.w3.org/2000/svg" fill="none" viewBox="0 0 480 360" height="360" width="480">
<rect fill-opacity="0.01" fill="white" height="30" width="480"></rect>
<rect fill-opacity="0.9" fill="#0D0E12" height="330" width="480" y="30"></rect>
<path fill="white" d="M214.089 148V138.28H216.621C217.037 138.28 217.429 138.312 217.797 138.376C218.173 138.44 218.505 138.564 218.793 138.748C219.081 138.924 219.305 139.18 219.465 139.516C219.633 139.844 219.717 140.28 219.717 140.824C219.717 141.216 219.657 141.548 219.537 141.82C219.425 142.084 219.261 142.296 219.045 142.456C218.837 142.616 218.585 142.724 218.289 142.78C218.665 142.828 218.981 142.952 219.237 143.152C219.493 143.344 219.685 143.604 219.813 143.932C219.949 144.26 220.017 144.656 220.017 145.12C220.017 145.624 219.949 146.06 219.813 146.428C219.685 146.788 219.497 147.084 219.249 147.316C219.001 147.548 218.693 147.72 218.325 147.832C217.965 147.944 217.549 148 217.077 148H214.089ZM216.237 146.5H216.693C217.165 146.5 217.489 146.38 217.665 146.14C217.849 145.9 217.941 145.548 217.941 145.084C217.941 144.716 217.901 144.424 217.821 144.208C217.741 143.992 217.609 143.836 217.425 143.74C217.241 143.636 216.993 143.584 216.681 143.584H216.237V146.5ZM216.237 142.168H216.657C216.985 142.168 217.233 142.12 217.401 142.024C217.569 141.92 217.681 141.772 217.737 141.58C217.801 141.388 217.833 141.156 217.833 140.884C217.833 140.628 217.785 140.416 217.689 140.248C217.601 140.072 217.465 139.94 217.281 139.852C217.105 139.764 216.881 139.72 216.609 139.72H216.237V142.168ZM221.036 148V141.064H222.992V143.752H224.156V141.064H226.124V148H224.156V145.096H222.992V148H221.036ZM227.341 148V141.064H228.889V144.772L230.701 141.064H232.225V148H230.641V144.328L228.877 148H227.341ZM233.422 148L233.446 141.064H234.886L236.302 144.388L237.73 141.064H239.17L239.194 148H237.67V144.352L236.602 146.92H236.026L234.946 144.34V148H233.422ZM241.847 148.12C241.495 148.12 241.199 148.036 240.959 147.868C240.719 147.7 240.539 147.488 240.419 147.232C240.299 146.968 240.239 146.7 240.239 146.428C240.239 145.996 240.323 145.632 240.491 145.336C240.667 145.04 240.895 144.792 241.175 144.592C241.455 144.392 241.763 144.224 242.099 144.088C242.435 143.944 242.767 143.816 243.095 143.704V143.008C243.095 142.888 243.083 142.784 243.059 142.696C243.035 142.6 242.995 142.528 242.939 142.48C242.883 142.424 242.799 142.396 242.687 142.396C242.575 142.396 242.487 142.42 242.423 142.468C242.367 142.516 242.327 142.584 242.303 142.672C242.279 142.752 242.263 142.844 242.255 142.948L242.207 143.452L240.383 143.38C240.423 142.548 240.643 141.936 241.043 141.544C241.451 141.144 242.059 140.944 242.867 140.944C243.571 140.944 244.095 141.14 244.439 141.532C244.791 141.916 244.967 142.416 244.967 143.032V146.272C244.967 146.56 244.971 146.812 244.979 147.028C244.995 147.244 245.011 147.432 245.027 147.592C245.051 147.752 245.071 147.888 245.087 148H243.335C243.311 147.816 243.283 147.616 243.251 147.4C243.219 147.184 243.195 147.056 243.179 147.016C243.099 147.304 242.947 147.56 242.723 147.784C242.507 148.008 242.215 148.12 241.847 148.12ZM242.543 146.8C242.623 146.8 242.695 146.784 242.759 146.752C242.831 146.72 242.895 146.676 242.951 146.62C243.007 146.564 243.055 146.508 243.095 146.452V144.556C242.935 144.652 242.787 144.752 242.651 144.856C242.515 144.952 242.399 145.06 242.303 145.18C242.207 145.3 242.131 145.432 242.075 145.576C242.027 145.712 242.003 145.868 242.003 146.044C242.003 146.276 242.051 146.46 242.147 146.596C242.243 146.732 242.375 146.8 242.543 146.8ZM246.126 148V141.064H248.082V143.752H249.246V141.064H251.214V148H249.246V145.096H248.082V148H246.126ZM252.43 148V141.064H253.978V144.772L255.79 141.064H257.314V148H255.73V144.328L253.966 148H252.43ZM260.792 148.12C260.288 148.12 259.856 148.032 259.496 147.856C259.136 147.672 258.86 147.408 258.668 147.064C258.476 146.712 258.38 146.292 258.38 145.804V143.26C258.38 142.764 258.476 142.344 258.668 142C258.86 141.656 259.136 141.396 259.496 141.22C259.864 141.036 260.296 140.944 260.792 140.944C261.304 140.944 261.728 141.032 262.064 141.208C262.408 141.384 262.664 141.644 262.832 141.988C263.008 142.332 263.096 142.756 263.096 143.26V144.652H260.312V145.984C260.312 146.16 260.332 146.304 260.372 146.416C260.412 146.528 260.468 146.608 260.54 146.656C260.612 146.704 260.696 146.728 260.792 146.728C260.888 146.728 260.972 146.708 261.044 146.668C261.124 146.62 261.184 146.548 261.224 146.452C261.272 146.356 261.296 146.224 261.296 146.056V145.324H263.096V145.996C263.096 146.7 262.892 147.232 262.484 147.592C262.076 147.944 261.512 148.12 260.792 148.12ZM260.312 143.74H261.296V143.044C261.296 142.86 261.272 142.716 261.224 142.612C261.184 142.508 261.124 142.436 261.044 142.396C260.972 142.356 260.884 142.336 260.78 142.336C260.684 142.336 260.6 142.36 260.528 142.408C260.464 142.456 260.412 142.54 260.372 142.66C260.332 142.772 260.312 142.936 260.312 143.152V143.74ZM264.701 145.528L264.137 138.304H266.081L265.373 145.528H264.701ZM264.101 148V146.176H265.949V148H264.101ZM128.173 166V156.28H130.705C131.121 156.28 131.513 156.312 131.881 156.376C132.257 156.44 132.589 156.564 132.877 156.748C133.165 156.924 133.389 157.18 133.549 157.516C133.717 157.844 133.801 158.28 133.801 158.824C133.801 159.216 133.741 159.548 133.621 159.82C133.509 160.084 133.345 160.296 133.129 160.456C132.921 160.616 132.669 160.724 132.373 160.78C132.749 160.828 133.065 160.952 133.321 161.152C133.577 161.344 133.769 161.604 133.897 161.932C134.033 162.26 134.101 162.656 134.101 163.12C134.101 163.624 134.033 164.06 133.897 164.428C133.769 164.788 133.581 165.084 133.333 165.316C133.085 165.548 132.777 165.72 132.409 165.832C132.049 165.944 131.633 166 131.161 166H128.173ZM130.321 164.5H130.777C131.249 164.5 131.573 164.38 131.749 164.14C131.933 163.9 132.025 163.548 132.025 163.084C132.025 162.716 131.985 162.424 131.905 162.208C131.825 161.992 131.693 161.836 131.509 161.74C131.325 161.636 131.077 161.584 130.765 161.584H130.321V164.5ZM130.321 160.168H130.741C131.069 160.168 131.317 160.12 131.485 160.024C131.653 159.92 131.765 159.772 131.821 159.58C131.885 159.388 131.917 159.156 131.917 158.884C131.917 158.628 131.869 158.416 131.773 158.248C131.685 158.072 131.549 157.94 131.365 157.852C131.189 157.764 130.965 157.72 130.693 157.72H130.321V160.168ZM137.962 167.884V164.812C138.226 164.692 138.454 164.536 138.646 164.344C138.838 164.144 139.002 163.904 139.138 163.624C139.274 163.336 139.382 163.004 139.462 162.628C139.542 162.244 139.598 161.808 139.63 161.32L139.834 159.064H143.65V164.8H144.658V167.884H143.254L143.122 166H139.498L139.39 167.884H137.962ZM140.074 164.8H141.862V160.228H141.286L141.142 161.788C141.118 162.228 141.074 162.612 141.01 162.94C140.946 163.26 140.866 163.54 140.77 163.78C140.682 164.012 140.578 164.212 140.458 164.38C140.338 164.54 140.21 164.68 140.074 164.8ZM146.907 166.12C146.555 166.12 146.259 166.036 146.019 165.868C145.779 165.7 145.599 165.488 145.479 165.232C145.359 164.968 145.299 164.7 145.299 164.428C145.299 163.996 145.383 163.632 145.551 163.336C145.727 163.04 145.955 162.792 146.235 162.592C146.515 162.392 146.823 162.224 147.159 162.088C147.495 161.944 147.827 161.816 148.155 161.704V161.008C148.155 160.888 148.143 160.784 148.119 160.696C148.095 160.6 148.055 160.528 147.999 160.48C147.943 160.424 147.859 160.396 147.747 160.396C147.635 160.396 147.547 160.42 147.483 160.468C147.427 160.516 147.387 160.584 147.363 160.672C147.339 160.752 147.323 160.844 147.315 160.948L147.267 161.452L145.443 161.38C145.483 160.548 145.703 159.936 146.103 159.544C146.511 159.144 147.119 158.944 147.927 158.944C148.631 158.944 149.155 159.14 149.499 159.532C149.851 159.916 150.027 160.416 150.027 161.032V164.272C150.027 164.56 150.031 164.812 150.039 165.028C150.055 165.244 150.071 165.432 150.087 165.592C150.111 165.752 150.131 165.888 150.147 166H148.395C148.371 165.816 148.343 165.616 148.311 165.4C148.279 165.184 148.255 165.056 148.239 165.016C148.159 165.304 148.007 165.56 147.783 165.784C147.567 166.008 147.275 166.12 146.907 166.12ZM147.603 164.8C147.683 164.8 147.755 164.784 147.819 164.752C147.891 164.72 147.955 164.676 148.011 164.62C148.067 164.564 148.115 164.508 148.155 164.452V162.556C147.995 162.652 147.847 162.752 147.711 162.856C147.575 162.952 147.459 163.06 147.363 163.18C147.267 163.3 147.191 163.432 147.135 163.576C147.087 163.712 147.063 163.868 147.063 164.044C147.063 164.276 147.111 164.46 147.207 164.596C147.303 164.732 147.435 164.8 147.603 164.8ZM151.186 166V159.064H153.142V161.752H154.306V159.064H156.274V166H154.306V163.096H153.142V166H151.186ZM157.491 166V159.064H159.447V161.752H160.611V159.064H162.579V166H160.611V163.096H159.447V166H157.491ZM163.796 166V159.064H165.752V161.848C165.76 161.848 165.764 161.848 165.764 161.848C165.772 161.848 165.78 161.848 165.788 161.848C165.796 161.848 165.804 161.848 165.812 161.848C166.292 161.848 166.716 161.884 167.084 161.956C167.452 162.02 167.756 162.132 167.996 162.292C168.244 162.444 168.432 162.652 168.56 162.916C168.688 163.18 168.752 163.512 168.752 163.912C168.752 164.288 168.696 164.608 168.584 164.872C168.48 165.136 168.308 165.352 168.068 165.52C167.836 165.688 167.532 165.812 167.156 165.892C166.788 165.964 166.344 166 165.824 166H163.796ZM165.752 164.884H165.788C166.084 164.884 166.316 164.856 166.484 164.8C166.66 164.736 166.784 164.636 166.856 164.5C166.936 164.356 166.976 164.168 166.976 163.936C166.976 163.688 166.936 163.5 166.856 163.372C166.784 163.236 166.66 163.14 166.484 163.084C166.316 163.028 166.092 163 165.812 163C165.804 163 165.792 163 165.776 163C165.768 163 165.76 163 165.752 163V164.884ZM169.496 166V159.064H171.452V166H169.496ZM172.678 166V159.064H174.226V162.772L176.038 159.064H177.562V166H175.978V162.328L174.214 166H172.678ZM175.138 158.284C174.57 158.284 174.114 158.124 173.77 157.804C173.426 157.484 173.254 157.02 173.254 156.412H174.358C174.358 156.708 174.414 156.928 174.526 157.072C174.646 157.216 174.85 157.288 175.138 157.288C175.418 157.288 175.618 157.216 175.738 157.072C175.858 156.92 175.918 156.7 175.918 156.412H177.022C177.022 157.02 176.85 157.484 176.506 157.804C176.162 158.124 175.706 158.284 175.138 158.284ZM181.83 166L181.854 159.064H183.294L184.71 162.388L186.138 159.064H187.578L187.602 166H186.078V162.352L185.01 164.92H184.434L183.354 162.34V166H181.83ZM191.107 166.12C190.611 166.12 190.179 166.036 189.811 165.868C189.451 165.7 189.171 165.448 188.971 165.112C188.779 164.776 188.683 164.356 188.683 163.852V161.212C188.683 160.708 188.779 160.288 188.971 159.952C189.171 159.616 189.451 159.364 189.811 159.196C190.179 159.028 190.611 158.944 191.107 158.944C191.603 158.944 192.031 159.028 192.391 159.196C192.759 159.364 193.043 159.616 193.243 159.952C193.443 160.288 193.543 160.708 193.543 161.212V163.852C193.543 164.356 193.443 164.776 193.243 165.112C193.043 165.448 192.759 165.7 192.391 165.868C192.031 166.036 191.603 166.12 191.107 166.12ZM191.119 164.824C191.247 164.824 191.347 164.792 191.419 164.728C191.491 164.656 191.539 164.56 191.563 164.44C191.595 164.312 191.611 164.16 191.611 163.984V161.08C191.611 160.904 191.595 160.756 191.563 160.636C191.539 160.508 191.491 160.412 191.419 160.348C191.347 160.276 191.247 160.24 191.119 160.24C190.991 160.24 190.891 160.276 190.819 160.348C190.747 160.412 190.695 160.508 190.663 160.636C190.631 160.756 190.615 160.904 190.615 161.08V163.984C190.615 164.16 190.631 164.312 190.663 164.44C190.695 164.56 190.747 164.656 190.819 164.728C190.891 164.792 190.991 164.824 191.119 164.824ZM194.616 166L194.64 159.064H196.08L197.496 162.388L198.924 159.064H200.364L200.388 166H198.864V162.352L197.796 164.92H197.22L196.14 162.34V166H194.616ZM203.88 166.12C203.376 166.12 202.944 166.032 202.584 165.856C202.224 165.672 201.948 165.408 201.756 165.064C201.564 164.712 201.468 164.292 201.468 163.804V161.26C201.468 160.764 201.564 160.344 201.756 160C201.948 159.656 202.224 159.396 202.584 159.22C202.952 159.036 203.384 158.944 203.88 158.944C204.392 158.944 204.816 159.032 205.152 159.208C205.496 159.384 205.752 159.644 205.92 159.988C206.096 160.332 206.184 160.756 206.184 161.26V162.652H203.4V163.984C203.4 164.16 203.42 164.304 203.46 164.416C203.5 164.528 203.556 164.608 203.628 164.656C203.7 164.704 203.784 164.728 203.88 164.728C203.976 164.728 204.06 164.708 204.132 164.668C204.212 164.62 204.272 164.548 204.312 164.452C204.36 164.356 204.384 164.224 204.384 164.056V163.324H206.184V163.996C206.184 164.7 205.98 165.232 205.572 165.592C205.164 165.944 204.6 166.12 203.88 166.12ZM203.4 161.74H204.384V161.044C204.384 160.86 204.36 160.716 204.312 160.612C204.272 160.508 204.212 160.436 204.132 160.396C204.06 160.356 203.972 160.336 203.868 160.336C203.772 160.336 203.688 160.36 203.616 160.408C203.552 160.456 203.5 160.54 203.46 160.66C203.42 160.772 203.4 160.936 203.4 161.152V161.74ZM207.249 166V159.064H209.205V161.752H210.369V159.064H212.337V166H210.369V163.096H209.205V166H207.249ZM214.393 166V160.384H213.133V159.064H217.597V160.384H216.337V166H214.393ZM221.487 166V159.064H223.947C224.643 159.064 225.167 159.14 225.519 159.292C225.871 159.436 226.107 159.636 226.227 159.892C226.347 160.148 226.407 160.448 226.407 160.792C226.407 161.248 226.307 161.584 226.107 161.8C225.915 162.008 225.659 162.156 225.339 162.244C225.675 162.324 225.931 162.444 226.107 162.604C226.283 162.764 226.403 162.96 226.467 163.192C226.539 163.424 226.575 163.692 226.575 163.996C226.575 164.444 226.491 164.82 226.323 165.124C226.155 165.42 225.871 165.64 225.471 165.784C225.071 165.928 224.527 166 223.839 166H221.487ZM223.431 164.92H223.755C223.931 164.92 224.087 164.904 224.223 164.872C224.359 164.84 224.467 164.756 224.547 164.62C224.635 164.476 224.679 164.248 224.679 163.936C224.679 163.584 224.639 163.332 224.559 163.18C224.487 163.028 224.383 162.936 224.247 162.904C224.111 162.872 223.951 162.856 223.767 162.856H223.431V164.92ZM223.431 161.8H223.923C224.155 161.8 224.315 161.728 224.403 161.584C224.491 161.432 224.535 161.224 224.535 160.96C224.535 160.704 224.487 160.492 224.391 160.324C224.303 160.156 224.099 160.072 223.779 160.072H223.431V161.8ZM227.546 166V159.064H229.502V161.848C229.51 161.848 229.514 161.848 229.514 161.848C229.522 161.848 229.53 161.848 229.538 161.848C229.546 161.848 229.554 161.848 229.562 161.848C230.042 161.848 230.466 161.884 230.834 161.956C231.202 162.02 231.506 162.132 231.746 162.292C231.994 162.444 232.182 162.652 232.31 162.916C232.438 163.18 232.502 163.512 232.502 163.912C232.502 164.288 232.446 164.608 232.334 164.872C232.23 165.136 232.058 165.352 231.818 165.52C231.586 165.688 231.282 165.812 230.906 165.892C230.538 165.964 230.094 166 229.574 166H227.546ZM229.502 164.884H229.538C229.834 164.884 230.066 164.856 230.234 164.8C230.41 164.736 230.534 164.636 230.606 164.5C230.686 164.356 230.726 164.168 230.726 163.936C230.726 163.688 230.686 163.5 230.606 163.372C230.534 163.236 230.41 163.14 230.234 163.084C230.066 163.028 229.842 163 229.562 163C229.554 163 229.542 163 229.526 163C229.518 163 229.51 163 229.502 163V164.884ZM233.246 166V159.064H235.202V166H233.246ZM239.499 166V159.064H241.047V162.772L242.859 159.064H244.383V166H242.799V162.328L241.035 166H239.499ZM245.592 166V159.064H249.048V160.384H247.548V166H245.592ZM249.811 168.28V159.064H251.767V159.568C251.999 159.36 252.247 159.204 252.511 159.1C252.775 158.996 253.027 158.944 253.267 158.944C253.531 158.944 253.755 158.996 253.939 159.1C254.131 159.204 254.287 159.352 254.407 159.544C254.527 159.728 254.615 159.944 254.671 160.192C254.727 160.44 254.755 160.704 254.755 160.984V163.972C254.755 164.404 254.695 164.78 254.575 165.1C254.463 165.42 254.295 165.672 254.071 165.856C253.847 166.032 253.571 166.12 253.243 166.12C252.995 166.12 252.743 166.064 252.487 165.952C252.239 165.832 251.999 165.672 251.767 165.472V168.28H249.811ZM252.283 164.86C252.411 164.86 252.511 164.824 252.583 164.752C252.655 164.68 252.707 164.588 252.739 164.476C252.779 164.356 252.799 164.224 252.799 164.08V160.84C252.799 160.704 252.783 160.584 252.751 160.48C252.719 160.368 252.667 160.28 252.595 160.216C252.523 160.152 252.431 160.12 252.319 160.12C252.215 160.12 252.115 160.144 252.019 160.192C251.931 160.232 251.847 160.288 251.767 160.36V164.68C251.855 164.736 251.939 164.78 252.019 164.812C252.107 164.844 252.195 164.86 252.283 164.86ZM257.298 166.12C256.946 166.12 256.65 166.036 256.41 165.868C256.17 165.7 255.99 165.488 255.87 165.232C255.75 164.968 255.69 164.7 255.69 164.428C255.69 163.996 255.774 163.632 255.942 163.336C256.118 163.04 256.346 162.792 256.626 162.592C256.906 162.392 257.214 162.224 257.55 162.088C257.886 161.944 258.218 161.816 258.546 161.704V161.008C258.546 160.888 258.534 160.784 258.51 160.696C258.486 160.6 258.446 160.528 258.39 160.48C258.334 160.424 258.25 160.396 258.138 160.396C258.026 160.396 257.938 160.42 257.874 160.468C257.818 160.516 257.778 160.584 257.754 160.672C257.73 160.752 257.714 160.844 257.706 160.948L257.658 161.452L255.834 161.38C255.874 160.548 256.094 159.936 256.494 159.544C256.902 159.144 257.51 158.944 258.318 158.944C259.022 158.944 259.546 159.14 259.89 159.532C260.242 159.916 260.418 160.416 260.418 161.032V164.272C260.418 164.56 260.422 164.812 260.43 165.028C260.446 165.244 260.462 165.432 260.478 165.592C260.502 165.752 260.522 165.888 260.538 166H258.786C258.762 165.816 258.734 165.616 258.702 165.4C258.67 165.184 258.646 165.056 258.63 165.016C258.55 165.304 258.398 165.56 258.174 165.784C257.958 166.008 257.666 166.12 257.298 166.12ZM257.994 164.8C258.074 164.8 258.146 164.784 258.21 164.752C258.282 164.72 258.346 164.676 258.402 164.62C258.458 164.564 258.506 164.508 258.546 164.452V162.556C258.386 162.652 258.238 162.752 258.102 162.856C257.966 162.952 257.85 163.06 257.754 163.18C257.658 163.3 257.582 163.432 257.526 163.576C257.478 163.712 257.454 163.868 257.454 164.044C257.454 164.276 257.502 164.46 257.598 164.596C257.694 164.732 257.826 164.8 257.994 164.8ZM263.845 166.12C263.341 166.12 262.909 166.032 262.549 165.856C262.189 165.672 261.913 165.408 261.721 165.064C261.529 164.712 261.433 164.292 261.433 163.804V161.26C261.433 160.764 261.529 160.344 261.721 160C261.913 159.656 262.189 159.396 262.549 159.22C262.917 159.036 263.349 158.944 263.845 158.944C264.357 158.944 264.781 159.032 265.117 159.208C265.461 159.384 265.717 159.644 265.885 159.988C266.061 160.332 266.149 160.756 266.149 161.26V162.652H263.365V163.984C263.365 164.16 263.385 164.304 263.425 164.416C263.465 164.528 263.521 164.608 263.593 164.656C263.665 164.704 263.749 164.728 263.845 164.728C263.941 164.728 264.025 164.708 264.097 164.668C264.177 164.62 264.237 164.548 264.277 164.452C264.325 164.356 264.349 164.224 264.349 164.056V163.324H266.149V163.996C266.149 164.7 265.945 165.232 265.537 165.592C265.129 165.944 264.565 166.12 263.845 166.12ZM263.365 161.74H264.349V161.044C264.349 160.86 264.325 160.716 264.277 160.612C264.237 160.508 264.177 160.436 264.097 160.396C264.025 160.356 263.937 160.336 263.833 160.336C263.737 160.336 263.653 160.36 263.581 160.408C263.517 160.456 263.465 160.54 263.425 160.66C263.385 160.772 263.365 160.936 263.365 161.152V161.74ZM268.007 166V160.384H266.747V159.064H271.211V160.384H269.951V166H268.007ZM274.157 166.12C273.653 166.12 273.221 166.032 272.861 165.856C272.501 165.672 272.225 165.408 272.033 165.064C271.841 164.712 271.745 164.292 271.745 163.804V161.26C271.745 160.764 271.841 160.344 272.033 160C272.225 159.656 272.501 159.396 272.861 159.22C273.229 159.036 273.661 158.944 274.157 158.944C274.669 158.944 275.093 159.032 275.429 159.208C275.773 159.384 276.029 159.644 276.197 159.988C276.373 160.332 276.461 160.756 276.461 161.26V162.652H273.677V163.984C273.677 164.16 273.697 164.304 273.737 164.416C273.777 164.528 273.833 164.608 273.905 164.656C273.977 164.704 274.061 164.728 274.157 164.728C274.253 164.728 274.337 164.708 274.409 164.668C274.489 164.62 274.549 164.548 274.589 164.452C274.637 164.356 274.661 164.224 274.661 164.056V163.324H276.461V163.996C276.461 164.7 276.257 165.232 275.849 165.592C275.441 165.944 274.877 166.12 274.157 166.12ZM273.677 161.74H274.661V161.044C274.661 160.86 274.637 160.716 274.589 160.612C274.549 160.508 274.489 160.436 274.409 160.396C274.337 160.356 274.249 160.336 274.145 160.336C274.049 160.336 273.965 160.36 273.893 160.408C273.829 160.456 273.777 160.54 273.737 160.66C273.697 160.772 273.677 160.936 273.677 161.152V161.74ZM277.73 167.68L277.61 167.044C277.818 166.988 278.01 166.884 278.186 166.732C278.37 166.588 278.462 166.344 278.462 166H277.43V164.152H279.29V165.748C279.282 166.34 279.15 166.8 278.894 167.128C278.638 167.456 278.25 167.64 277.73 167.68ZM285.688 166.12C285.2 166.12 284.78 166.044 284.428 165.892C284.084 165.74 283.816 165.512 283.624 165.208C283.44 164.896 283.348 164.508 283.348 164.044V163.684H285.232V164.056C285.232 164.328 285.272 164.512 285.352 164.608C285.432 164.696 285.544 164.74 285.688 164.74C285.792 164.74 285.876 164.716 285.94 164.668C286.004 164.62 286.052 164.536 286.084 164.416C286.116 164.296 286.132 164.132 286.132 163.924V162.988H284.536V162.16H286.132V161.128C286.132 160.92 286.112 160.76 286.072 160.648C286.04 160.528 285.992 160.448 285.928 160.408C285.864 160.36 285.784 160.336 285.688 160.336C285.536 160.336 285.42 160.388 285.34 160.492C285.268 160.588 285.232 160.764 285.232 161.02V161.512H283.348V161.044C283.348 160.58 283.44 160.192 283.624 159.88C283.816 159.568 284.088 159.336 284.44 159.184C284.792 159.024 285.208 158.944 285.688 158.944C286.2 158.944 286.632 159.036 286.984 159.22C287.344 159.404 287.616 159.668 287.8 160.012C287.992 160.356 288.088 160.772 288.088 161.26V163.816C288.088 164.304 287.992 164.72 287.8 165.064C287.616 165.408 287.344 165.672 286.984 165.856C286.624 166.032 286.192 166.12 285.688 166.12ZM290.003 166V160.384H288.743V159.064H293.207V160.384H291.947V166H290.003ZM296.212 166.12C295.716 166.12 295.284 166.036 294.916 165.868C294.556 165.7 294.276 165.448 294.076 165.112C293.884 164.776 293.788 164.356 293.788 163.852V161.212C293.788 160.708 293.884 160.288 294.076 159.952C294.276 159.616 294.556 159.364 294.916 159.196C295.284 159.028 295.716 158.944 296.212 158.944C296.708 158.944 297.136 159.028 297.496 159.196C297.864 159.364 298.148 159.616 298.348 159.952C298.548 160.288 298.648 160.708 298.648 161.212V163.852C298.648 164.356 298.548 164.776 298.348 165.112C298.148 165.448 297.864 165.7 297.496 165.868C297.136 166.036 296.708 166.12 296.212 166.12ZM296.224 164.824C296.352 164.824 296.452 164.792 296.524 164.728C296.596 164.656 296.644 164.56 296.668 164.44C296.7 164.312 296.716 164.16 296.716 163.984V161.08C296.716 160.904 296.7 160.756 296.668 160.636C296.644 160.508 296.596 160.412 296.524 160.348C296.452 160.276 296.352 160.24 296.224 160.24C296.096 160.24 295.996 160.276 295.924 160.348C295.852 160.412 295.8 160.508 295.768 160.636C295.736 160.756 295.72 160.904 295.72 161.08V163.984C295.72 164.16 295.736 164.312 295.768 164.44C295.8 164.56 295.852 164.656 295.924 164.728C295.996 164.792 296.096 164.824 296.224 164.824ZM302.575 167.884V164.812C302.839 164.692 303.067 164.536 303.259 164.344C303.451 164.144 303.615 163.904 303.751 163.624C303.887 163.336 303.995 163.004 304.075 162.628C304.155 162.244 304.211 161.808 304.243 161.32L304.447 159.064H308.263V164.8H309.271V167.884H307.867L307.735 166H304.111L304.003 167.884H302.575ZM304.687 164.8H306.475V160.228H305.899L305.755 161.788C305.731 162.228 305.687 162.612 305.623 162.94C305.559 163.26 305.479 163.54 305.383 163.78C305.295 164.012 305.191 164.212 305.071 164.38C304.951 164.54 304.823 164.68 304.687 164.8ZM312.36 166.12C311.856 166.12 311.424 166.032 311.064 165.856C310.704 165.672 310.428 165.408 310.236 165.064C310.044 164.712 309.948 164.292 309.948 163.804V161.26C309.948 160.764 310.044 160.344 310.236 160C310.428 159.656 310.704 159.396 311.064 159.22C311.432 159.036 311.864 158.944 312.36 158.944C312.872 158.944 313.296 159.032 313.632 159.208C313.976 159.384 314.232 159.644 314.4 159.988C314.576 160.332 314.664 160.756 314.664 161.26V162.652H311.88V163.984C311.88 164.16 311.9 164.304 311.94 164.416C311.98 164.528 312.036 164.608 312.108 164.656C312.18 164.704 312.264 164.728 312.36 164.728C312.456 164.728 312.54 164.708 312.612 164.668C312.692 164.62 312.752 164.548 312.792 164.452C312.84 164.356 312.864 164.224 312.864 164.056V163.324H314.664V163.996C314.664 164.7 314.46 165.232 314.052 165.592C313.644 165.944 313.08 166.12 312.36 166.12ZM311.88 161.74H312.864V161.044C312.864 160.86 312.84 160.716 312.792 160.612C312.752 160.508 312.692 160.436 312.612 160.396C312.54 160.356 312.452 160.336 312.348 160.336C312.252 160.336 312.168 160.36 312.096 160.408C312.032 160.456 311.98 160.54 311.94 160.66C311.9 160.772 311.88 160.936 311.88 161.152V161.74ZM315.729 166V159.064H317.277V162.772L319.089 159.064H320.613V166H319.029V162.328L317.265 166H315.729ZM318.189 158.284C317.621 158.284 317.165 158.124 316.821 157.804C316.477 157.484 316.305 157.02 316.305 156.412H317.409C317.409 156.708 317.465 156.928 317.577 157.072C317.697 157.216 317.901 157.288 318.189 157.288C318.469 157.288 318.669 157.216 318.789 157.072C318.909 156.92 318.969 156.7 318.969 156.412H320.073C320.073 157.02 319.901 157.484 319.557 157.804C319.213 158.124 318.757 158.284 318.189 158.284ZM324.079 166.12C323.575 166.12 323.143 166.028 322.783 165.844C322.431 165.66 322.159 165.396 321.967 165.052C321.775 164.708 321.679 164.292 321.679 163.804V161.26C321.679 160.764 321.775 160.344 321.967 160C322.159 159.656 322.431 159.396 322.783 159.22C323.143 159.036 323.575 158.944 324.079 158.944C324.575 158.944 324.995 159.02 325.339 159.172C325.691 159.324 325.959 159.556 326.143 159.868C326.327 160.172 326.419 160.56 326.419 161.032V161.764H324.535V160.972C324.535 160.788 324.515 160.648 324.475 160.552C324.443 160.448 324.391 160.376 324.319 160.336C324.255 160.296 324.175 160.276 324.079 160.276C323.983 160.276 323.903 160.304 323.839 160.36C323.775 160.408 323.727 160.492 323.695 160.612C323.663 160.724 323.647 160.884 323.647 161.092V163.972C323.647 164.284 323.683 164.496 323.755 164.608C323.835 164.72 323.947 164.776 324.091 164.776C324.195 164.776 324.279 164.756 324.343 164.716C324.407 164.668 324.455 164.596 324.487 164.5C324.519 164.396 324.535 164.26 324.535 164.092V163.168H326.419V164.008C326.419 164.472 326.323 164.864 326.131 165.184C325.947 165.496 325.679 165.732 325.327 165.892C324.983 166.044 324.567 166.12 324.079 166.12ZM328.276 166V160.384H327.016V159.064H331.48V160.384H330.22V166H328.276ZM332.3 166V159.064H334.76C335.456 159.064 335.98 159.14 336.332 159.292C336.684 159.436 336.92 159.636 337.04 159.892C337.16 160.148 337.22 160.448 337.22 160.792C337.22 161.248 337.12 161.584 336.92 161.8C336.728 162.008 336.472 162.156 336.152 162.244C336.488 162.324 336.744 162.444 336.92 162.604C337.096 162.764 337.216 162.96 337.28 163.192C337.352 163.424 337.388 163.692 337.388 163.996C337.388 164.444 337.304 164.82 337.136 165.124C336.968 165.42 336.684 165.64 336.284 165.784C335.884 165.928 335.34 166 334.652 166H332.3ZM334.244 164.92H334.568C334.744 164.92 334.9 164.904 335.036 164.872C335.172 164.84 335.28 164.756 335.36 164.62C335.448 164.476 335.492 164.248 335.492 163.936C335.492 163.584 335.452 163.332 335.372 163.18C335.3 163.028 335.196 162.936 335.06 162.904C334.924 162.872 334.764 162.856 334.58 162.856H334.244V164.92ZM334.244 161.8H334.736C334.968 161.8 335.128 161.728 335.215 161.584C335.304 161.432 335.348 161.224 335.348 160.96C335.348 160.704 335.3 160.492 335.204 160.324C335.116 160.156 334.912 160.072 334.592 160.072H334.244V161.8ZM338.358 166V159.064H339.906V162.772L341.718 159.064H343.242V166H341.658V162.328L339.894 166H338.358ZM346.72 166.12C346.216 166.12 345.784 166.032 345.424 165.856C345.064 165.672 344.788 165.408 344.596 165.064C344.404 164.712 344.308 164.292 344.308 163.804V161.26C344.308 160.764 344.404 160.344 344.596 160C344.788 159.656 345.064 159.396 345.424 159.22C345.792 159.036 346.224 158.944 346.72 158.944C347.232 158.944 347.656 159.032 347.992 159.208C348.336 159.384 348.592 159.644 348.76 159.988C348.936 160.332 349.024 160.756 349.024 161.26V162.652H346.24V163.984C346.24 164.16 346.26 164.304 346.3 164.416C346.34 164.528 346.396 164.608 346.468 164.656C346.54 164.704 346.624 164.728 346.72 164.728C346.816 164.728 346.9 164.708 346.972 164.668C347.052 164.62 347.112 164.548 347.152 164.452C347.2 164.356 347.224 164.224 347.224 164.056V163.324H349.024V163.996C349.024 164.7 348.82 165.232 348.412 165.592C348.004 165.944 347.44 166.12 346.72 166.12ZM346.24 161.74H347.224V161.044C347.224 160.86 347.2 160.716 347.152 160.612C347.112 160.508 347.052 160.436 346.972 160.396C346.9 160.356 346.812 160.336 346.708 160.336C346.612 160.336 346.528 160.36 346.456 160.408C346.392 160.456 346.34 160.54 346.3 160.66C346.26 160.772 346.24 160.936 346.24 161.152V161.74ZM149.475 184V177.064H154.395V184H152.439V178.396H151.431V184H149.475ZM155.604 186.28V177.064H157.56V177.568C157.792 177.36 158.04 177.204 158.304 177.1C158.568 176.996 158.82 176.944 159.06 176.944C159.324 176.944 159.548 176.996 159.732 177.1C159.924 177.204 160.08 177.352 160.2 177.544C160.32 177.728 160.408 177.944 160.464 178.192C160.52 178.44 160.548 178.704 160.548 178.984V181.972C160.548 182.404 160.488 182.78 160.368 183.1C160.256 183.42 160.088 183.672 159.864 183.856C159.64 184.032 159.364 184.12 159.036 184.12C158.788 184.12 158.536 184.064 158.28 183.952C158.032 183.832 157.792 183.672 157.56 183.472V186.28H155.604ZM158.076 182.86C158.204 182.86 158.304 182.824 158.376 182.752C158.448 182.68 158.5 182.588 158.532 182.476C158.572 182.356 158.592 182.224 158.592 182.08V178.84C158.592 178.704 158.576 178.584 158.544 178.48C158.512 178.368 158.46 178.28 158.388 178.216C158.316 178.152 158.224 178.12 158.112 178.12C158.008 178.12 157.908 178.144 157.812 178.192C157.724 178.232 157.64 178.288 157.56 178.36V182.68C157.648 182.736 157.732 182.78 157.812 182.812C157.9 182.844 157.988 182.86 158.076 182.86ZM163.931 184.12C163.427 184.12 162.995 184.032 162.635 183.856C162.275 183.672 161.999 183.408 161.807 183.064C161.615 182.712 161.519 182.292 161.519 181.804V179.26C161.519 178.764 161.615 178.344 161.807 178C161.999 177.656 162.275 177.396 162.635 177.22C163.003 177.036 163.435 176.944 163.931 176.944C164.443 176.944 164.867 177.032 165.203 177.208C165.547 177.384 165.803 177.644 165.971 177.988C166.147 178.332 166.235 178.756 166.235 179.26V180.652H163.451V181.984C163.451 182.16 163.471 182.304 163.511 182.416C163.551 182.528 163.607 182.608 163.679 182.656C163.751 182.704 163.835 182.728 163.931 182.728C164.027 182.728 164.111 182.708 164.183 182.668C164.263 182.62 164.323 182.548 164.363 182.452C164.411 182.356 164.435 182.224 164.435 182.056V181.324H166.235V181.996C166.235 182.7 166.031 183.232 165.623 183.592C165.215 183.944 164.651 184.12 163.931 184.12ZM163.451 179.74H164.435V179.044C164.435 178.86 164.411 178.716 164.363 178.612C164.323 178.508 164.263 178.436 164.183 178.396C164.111 178.356 164.023 178.336 163.919 178.336C163.823 178.336 163.739 178.36 163.667 178.408C163.603 178.456 163.551 178.54 163.511 178.66C163.471 178.772 163.451 178.936 163.451 179.152V179.74ZM167.3 186.28V177.064H169.256V177.568C169.488 177.36 169.736 177.204 170 177.1C170.264 176.996 170.516 176.944 170.756 176.944C171.02 176.944 171.244 176.996 171.428 177.1C171.62 177.204 171.776 177.352 171.896 177.544C172.016 177.728 172.104 177.944 172.16 178.192C172.216 178.44 172.244 178.704 172.244 178.984V181.972C172.244 182.404 172.184 182.78 172.064 183.1C171.952 183.42 171.784 183.672 171.56 183.856C171.336 184.032 171.06 184.12 170.732 184.12C170.484 184.12 170.232 184.064 169.976 183.952C169.728 183.832 169.488 183.672 169.256 183.472V186.28H167.3ZM169.771 182.86C169.9 182.86 170 182.824 170.072 182.752C170.144 182.68 170.196 182.588 170.228 182.476C170.268 182.356 170.288 182.224 170.288 182.08V178.84C170.288 178.704 170.272 178.584 170.24 178.48C170.208 178.368 170.156 178.28 170.084 178.216C170.012 178.152 169.92 178.12 169.808 178.12C169.704 178.12 169.604 178.144 169.508 178.192C169.42 178.232 169.336 178.288 169.256 178.36V182.68C169.344 182.736 169.428 182.78 169.508 182.812C169.596 182.844 169.684 182.86 169.771 182.86ZM173.358 184V177.064H175.818C176.514 177.064 177.038 177.14 177.39 177.292C177.742 177.436 177.978 177.636 178.098 177.892C178.218 178.148 178.278 178.448 178.278 178.792C178.278 179.248 178.178 179.584 177.978 179.8C177.786 180.008 177.53 180.156 177.21 180.244C177.546 180.324 177.802 180.444 177.978 180.604C178.154 180.764 178.274 180.96 178.338 181.192C178.41 181.424 178.446 181.692 178.446 181.996C178.446 182.444 178.362 182.82 178.194 183.124C178.026 183.42 177.742 183.64 177.342 183.784C176.942 183.928 176.398 184 175.71 184H173.358ZM175.302 182.92H175.626C175.802 182.92 175.958 182.904 176.094 182.872C176.23 182.84 176.338 182.756 176.418 182.62C176.506 182.476 176.55 182.248 176.55 181.936C176.55 181.584 176.51 181.332 176.43 181.18C176.358 181.028 176.254 180.936 176.118 180.904C175.982 180.872 175.822 180.856 175.638 180.856H175.302V182.92ZM175.302 179.8H175.794C176.026 179.8 176.186 179.728 176.274 179.584C176.362 179.432 176.406 179.224 176.406 178.96C176.406 178.704 176.358 178.492 176.262 178.324C176.174 178.156 175.97 178.072 175.65 178.072H175.302V179.8ZM181.685 184.12C181.181 184.12 180.749 184.032 180.389 183.856C180.029 183.672 179.753 183.408 179.561 183.064C179.369 182.712 179.273 182.292 179.273 181.804V179.26C179.273 178.764 179.369 178.344 179.561 178C179.753 177.656 180.029 177.396 180.389 177.22C180.757 177.036 181.189 176.944 181.685 176.944C182.197 176.944 182.621 177.032 182.957 177.208C183.301 177.384 183.557 177.644 183.725 177.988C183.901 178.332 183.989 178.756 183.989 179.26V180.652H181.205V181.984C181.205 182.16 181.225 182.304 181.265 182.416C181.305 182.528 181.361 182.608 181.433 182.656C181.505 182.704 181.589 182.728 181.685 182.728C181.781 182.728 181.865 182.708 181.937 182.668C182.017 182.62 182.077 182.548 182.117 182.452C182.165 182.356 182.189 182.224 182.189 182.056V181.324H183.989V181.996C183.989 182.7 183.785 183.232 183.377 183.592C182.969 183.944 182.405 184.12 181.685 184.12ZM181.205 179.74H182.189V179.044C182.189 178.86 182.165 178.716 182.117 178.612C182.077 178.508 182.017 178.436 181.937 178.396C181.865 178.356 181.777 178.336 181.673 178.336C181.577 178.336 181.493 178.36 181.421 178.408C181.357 178.456 181.305 178.54 181.265 178.66C181.225 178.772 181.205 178.936 181.205 179.152V179.74ZM185.847 184V178.384H184.587V177.064H189.051V178.384H187.791V184H185.847ZM192.94 184V177.064H194.488V180.772L196.3 177.064H197.824V184H196.24V180.328L194.476 184H192.94ZM199.034 184V177.064H202.49V178.384H200.99V184H199.034ZM203.253 186.28V177.064H205.209V177.568C205.441 177.36 205.689 177.204 205.953 177.1C206.217 176.996 206.469 176.944 206.709 176.944C206.973 176.944 207.197 176.996 207.381 177.1C207.573 177.204 207.729 177.352 207.849 177.544C207.969 177.728 208.057 177.944 208.113 178.192C208.169 178.44 208.197 178.704 208.197 178.984V181.972C208.197 182.404 208.137 182.78 208.017 183.1C207.905 183.42 207.737 183.672 207.513 183.856C207.289 184.032 207.013 184.12 206.685 184.12C206.437 184.12 206.185 184.064 205.929 183.952C205.681 183.832 205.441 183.672 205.209 183.472V186.28H203.253ZM205.725 182.86C205.853 182.86 205.953 182.824 206.025 182.752C206.097 182.68 206.149 182.588 206.181 182.476C206.221 182.356 206.241 182.224 206.241 182.08V178.84C206.241 178.704 206.225 178.584 206.193 178.48C206.161 178.368 206.109 178.28 206.037 178.216C205.965 178.152 205.873 178.12 205.761 178.12C205.657 178.12 205.557 178.144 205.461 178.192C205.373 178.232 205.289 178.288 205.209 178.36V182.68C205.297 182.736 205.381 182.78 205.461 182.812C205.549 182.844 205.637 182.86 205.725 182.86ZM209.503 186.016V184.66C209.751 184.66 209.955 184.644 210.115 184.612C210.283 184.58 210.407 184.52 210.487 184.432C210.575 184.344 210.619 184.224 210.619 184.072C210.619 183.936 210.595 183.772 210.547 183.58C210.499 183.38 210.439 183.156 210.367 182.908L208.735 177.064H210.571L211.447 181.072L212.107 177.064H213.955L212.359 184.168C212.255 184.648 212.091 185.02 211.867 185.284C211.643 185.556 211.367 185.744 211.039 185.848C210.719 185.96 210.355 186.016 209.947 186.016H209.503ZM214.63 184V182.152H216.478V184H214.63ZM220.798 184V174.28H223.33C223.746 174.28 224.138 174.312 224.506 174.376C224.882 174.44 225.214 174.564 225.502 174.748C225.79 174.924 226.014 175.18 226.174 175.516C226.342 175.844 226.426 176.28 226.426 176.824C226.426 177.216 226.366 177.548 226.246 177.82C226.134 178.084 225.97 178.296 225.754 178.456C225.546 178.616 225.294 178.724 224.998 178.78C225.374 178.828 225.69 178.952 225.946 179.152C226.202 179.344 226.394 179.604 226.522 179.932C226.658 180.26 226.726 180.656 226.726 181.12C226.726 181.624 226.658 182.06 226.522 182.428C226.394 182.788 226.206 183.084 225.958 183.316C225.71 183.548 225.402 183.72 225.034 183.832C224.674 183.944 224.258 184 223.786 184H220.798ZM222.946 182.5H223.402C223.874 182.5 224.198 182.38 224.374 182.14C224.558 181.9 224.65 181.548 224.65 181.084C224.65 180.716 224.61 180.424 224.53 180.208C224.45 179.992 224.318 179.836 224.134 179.74C223.95 179.636 223.702 179.584 223.39 179.584H222.946V182.5ZM222.946 178.168H223.366C223.694 178.168 223.942 178.12 224.11 178.024C224.278 177.92 224.39 177.772 224.446 177.58C224.51 177.388 224.542 177.156 224.542 176.884C224.542 176.628 224.494 176.416 224.398 176.248C224.31 176.072 224.174 175.94 223.99 175.852C223.814 175.764 223.59 175.72 223.318 175.72H222.946V178.168ZM227.745 184V177.064H229.701V179.848C229.709 179.848 229.713 179.848 229.713 179.848C229.721 179.848 229.729 179.848 229.737 179.848C229.745 179.848 229.753 179.848 229.761 179.848C230.241 179.848 230.665 179.884 231.033 179.956C231.401 180.02 231.705 180.132 231.945 180.292C232.193 180.444 232.381 180.652 232.509 180.916C232.637 181.18 232.701 181.512 232.701 181.912C232.701 182.288 232.645 182.608 232.533 182.872C232.429 183.136 232.257 183.352 232.017 183.52C231.785 183.688 231.481 183.812 231.105 183.892C230.737 183.964 230.293 184 229.773 184H227.745ZM229.701 182.884H229.737C230.033 182.884 230.265 182.856 230.433 182.8C230.609 182.736 230.733 182.636 230.805 182.5C230.885 182.356 230.925 182.168 230.925 181.936C230.925 181.688 230.885 181.5 230.805 181.372C230.733 181.236 230.609 181.14 230.433 181.084C230.265 181.028 230.041 181 229.761 181C229.753 181 229.741 181 229.725 181C229.717 181 229.709 181 229.701 181V182.884ZM233.445 184V177.064H235.401V184H233.445ZM239.218 184L240.694 180.196L239.29 177.064H241.258L242.002 178.732L242.662 177.064H244.162L242.794 180.484L244.366 184H242.374L241.534 182.092L240.838 184H239.218ZM247.287 184.12C246.791 184.12 246.359 184.036 245.991 183.868C245.631 183.7 245.351 183.448 245.151 183.112C244.959 182.776 244.863 182.356 244.863 181.852V179.212C244.863 178.708 244.959 178.288 245.151 177.952C245.351 177.616 245.631 177.364 245.991 177.196C246.359 177.028 246.791 176.944 247.287 176.944C247.783 176.944 248.211 177.028 248.571 177.196C248.939 177.364 249.223 177.616 249.423 177.952C249.623 178.288 249.723 178.708 249.723 179.212V181.852C249.723 182.356 249.623 182.776 249.423 183.112C249.223 183.448 248.939 183.7 248.571 183.868C248.211 184.036 247.783 184.12 247.287 184.12ZM247.299 182.824C247.427 182.824 247.527 182.792 247.599 182.728C247.671 182.656 247.719 182.56 247.743 182.44C247.775 182.312 247.791 182.16 247.791 181.984V179.08C247.791 178.904 247.775 178.756 247.743 178.636C247.719 178.508 247.671 178.412 247.599 178.348C247.527 178.276 247.427 178.24 247.299 178.24C247.171 178.24 247.071 178.276 246.999 178.348C246.927 178.412 246.875 178.508 246.843 178.636C246.811 178.756 246.795 178.904 246.795 179.08V181.984C246.795 182.16 246.811 182.312 246.843 182.44C246.875 182.56 246.927 182.656 246.999 182.728C247.071 182.792 247.171 182.824 247.299 182.824ZM251.554 184V178.384H250.294V177.064H254.758V178.384H253.498V184H251.554ZM255.577 184V177.064H257.125V180.772L258.937 177.064H260.461V184H258.877V180.328L257.113 184H255.577ZM262.511 184V178.384H261.251V177.064H265.715V178.384H264.455V184H262.511ZM268.661 184.12C268.157 184.12 267.725 184.032 267.365 183.856C267.005 183.672 266.729 183.408 266.537 183.064C266.345 182.712 266.249 182.292 266.249 181.804V179.26C266.249 178.764 266.345 178.344 266.537 178C266.729 177.656 267.005 177.396 267.365 177.22C267.733 177.036 268.165 176.944 268.661 176.944C269.173 176.944 269.597 177.032 269.933 177.208C270.277 177.384 270.533 177.644 270.701 177.988C270.877 178.332 270.965 178.756 270.965 179.26V180.652H268.181V181.984C268.181 182.16 268.201 182.304 268.241 182.416C268.281 182.528 268.337 182.608 268.409 182.656C268.481 182.704 268.565 182.728 268.661 182.728C268.757 182.728 268.841 182.708 268.913 182.668C268.993 182.62 269.053 182.548 269.093 182.452C269.141 182.356 269.165 182.224 269.165 182.056V181.324H270.965V181.996C270.965 182.7 270.761 183.232 270.353 183.592C269.945 183.944 269.381 184.12 268.661 184.12ZM268.181 179.74H269.165V179.044C269.165 178.86 269.141 178.716 269.093 178.612C269.053 178.508 268.993 178.436 268.913 178.396C268.841 178.356 268.753 178.336 268.649 178.336C268.553 178.336 268.469 178.36 268.397 178.408C268.333 178.456 268.281 178.54 268.241 178.66C268.201 178.772 268.181 178.936 268.181 179.152V179.74ZM275.1 184V177.064H280.02V184H278.064V178.396H277.056V184H275.1ZM281.229 186.28V177.064H283.185V177.568C283.417 177.36 283.665 177.204 283.929 177.1C284.193 176.996 284.445 176.944 284.685 176.944C284.949 176.944 285.173 176.996 285.357 177.1C285.549 177.204 285.705 177.352 285.825 177.544C285.945 177.728 286.033 177.944 286.089 178.192C286.145 178.44 286.173 178.704 286.173 178.984V181.972C286.173 182.404 286.113 182.78 285.993 183.1C285.881 183.42 285.713 183.672 285.489 183.856C285.265 184.032 284.989 184.12 284.661 184.12C284.413 184.12 284.161 184.064 283.905 183.952C283.657 183.832 283.417 183.672 283.185 183.472V186.28H281.229ZM283.701 182.86C283.829 182.86 283.929 182.824 284.001 182.752C284.073 182.68 284.125 182.588 284.157 182.476C284.197 182.356 284.217 182.224 284.217 182.08V178.84C284.217 178.704 284.201 178.584 284.169 178.48C284.137 178.368 284.085 178.28 284.013 178.216C283.941 178.152 283.849 178.12 283.737 178.12C283.633 178.12 283.533 178.144 283.437 178.192C283.349 178.232 283.265 178.288 283.185 178.36V182.68C283.273 182.736 283.357 182.78 283.437 182.812C283.525 182.844 283.613 182.86 283.701 182.86ZM289.568 184.12C289.072 184.12 288.64 184.036 288.272 183.868C287.912 183.7 287.632 183.448 287.432 183.112C287.24 182.776 287.144 182.356 287.144 181.852V179.212C287.144 178.708 287.24 178.288 287.432 177.952C287.632 177.616 287.912 177.364 288.272 177.196C288.64 177.028 289.072 176.944 289.568 176.944C290.064 176.944 290.492 177.028 290.852 177.196C291.22 177.364 291.504 177.616 291.704 177.952C291.904 178.288 292.004 178.708 292.004 179.212V181.852C292.004 182.356 291.904 182.776 291.704 183.112C291.504 183.448 291.22 183.7 290.852 183.868C290.492 184.036 290.064 184.12 289.568 184.12ZM289.58 182.824C289.708 182.824 289.808 182.792 289.88 182.728C289.952 182.656 290 182.56 290.024 182.44C290.056 182.312 290.072 182.16 290.072 181.984V179.08C290.072 178.904 290.056 178.756 290.024 178.636C290 178.508 289.952 178.412 289.88 178.348C289.808 178.276 289.708 178.24 289.58 178.24C289.452 178.24 289.352 178.276 289.28 178.348C289.208 178.412 289.156 178.508 289.124 178.636C289.092 178.756 289.076 178.904 289.076 179.08V181.984C289.076 182.16 289.092 182.312 289.124 182.44C289.156 182.56 289.208 182.656 289.28 182.728C289.352 182.792 289.452 182.824 289.58 182.824ZM293.089 184V177.064H294.637V180.772L296.449 177.064H297.973V184H296.389V180.328L294.625 184H293.089ZM299.182 184V177.064H302.638V178.384H301.138V184H299.182ZM303.401 186.28V177.064H305.357V177.568C305.589 177.36 305.837 177.204 306.101 177.1C306.365 176.996 306.617 176.944 306.857 176.944C307.121 176.944 307.345 176.996 307.529 177.1C307.721 177.204 307.877 177.352 307.997 177.544C308.117 177.728 308.205 177.944 308.261 178.192C308.317 178.44 308.345 178.704 308.345 178.984V181.972C308.345 182.404 308.285 182.78 308.165 183.1C308.053 183.42 307.885 183.672 307.661 183.856C307.437 184.032 307.161 184.12 306.833 184.12C306.585 184.12 306.333 184.064 306.077 183.952C305.829 183.832 305.589 183.672 305.357 183.472V186.28H303.401ZM305.873 182.86C306.001 182.86 306.101 182.824 306.173 182.752C306.245 182.68 306.297 182.588 306.329 182.476C306.369 182.356 306.389 182.224 306.389 182.08V178.84C306.389 178.704 306.373 178.584 306.341 178.48C306.309 178.368 306.257 178.28 306.185 178.216C306.113 178.152 306.021 178.12 305.909 178.12C305.805 178.12 305.705 178.144 305.609 178.192C305.521 178.232 305.437 178.288 305.357 178.36V182.68C305.445 182.736 305.529 182.78 305.609 182.812C305.697 182.844 305.785 182.86 305.873 182.86ZM310.888 184.12C310.536 184.12 310.24 184.036 310 183.868C309.76 183.7 309.58 183.488 309.46 183.232C309.34 182.968 309.28 182.7 309.28 182.428C309.28 181.996 309.364 181.632 309.532 181.336C309.708 181.04 309.936 180.792 310.216 180.592C310.496 180.392 310.804 180.224 311.14 180.088C311.476 179.944 311.808 179.816 312.136 179.704V179.008C312.136 178.888 312.124 178.784 312.1 178.696C312.076 178.6 312.036 178.528 311.98 178.48C311.924 178.424 311.84 178.396 311.728 178.396C311.616 178.396 311.528 178.42 311.464 178.468C311.408 178.516 311.368 178.584 311.344 178.672C311.32 178.752 311.304 178.844 311.296 178.948L311.248 179.452L309.424 179.38C309.464 178.548 309.684 177.936 310.084 177.544C310.492 177.144 311.1 176.944 311.908 176.944C312.612 176.944 313.136 177.14 313.48 177.532C313.832 177.916 314.008 178.416 314.008 179.032V182.272C314.008 182.56 314.012 182.812 314.02 183.028C314.036 183.244 314.052 183.432 314.068 183.592C314.092 183.752 314.112 183.888 314.128 184H312.376C312.352 183.816 312.324 183.616 312.292 183.4C312.26 183.184 312.236 183.056 312.22 183.016C312.14 183.304 311.988 183.56 311.764 183.784C311.548 184.008 311.256 184.12 310.888 184.12ZM311.584 182.8C311.664 182.8 311.736 182.784 311.8 182.752C311.872 182.72 311.936 182.676 311.992 182.62C312.048 182.564 312.096 182.508 312.136 182.452V180.556C311.976 180.652 311.828 180.752 311.692 180.856C311.556 180.952 311.44 181.06 311.344 181.18C311.248 181.3 311.172 181.432 311.116 181.576C311.068 181.712 311.044 181.868 311.044 182.044C311.044 182.276 311.092 182.46 311.188 182.596C311.284 182.732 311.416 182.8 311.584 182.8ZM316.007 184V178.384H314.747V177.064H319.211V178.384H317.951V184H316.007ZM320.03 184V177.064H321.986V179.848C321.994 179.848 321.998 179.848 321.998 179.848C322.006 179.848 322.014 179.848 322.022 179.848C322.03 179.848 322.038 179.848 322.046 179.848C322.526 179.848 322.95 179.88 323.318 179.944C323.686 180.008 323.99 180.12 324.23 180.28C324.478 180.432 324.666 180.64 324.794 180.904C324.922 181.16 324.986 181.488 324.986 181.888C324.986 182.264 324.93 182.588 324.818 182.86C324.714 183.124 324.542 183.34 324.302 183.508C324.07 183.676 323.766 183.8 323.39 183.88C323.022 183.96 322.578 184 322.058 184H320.03ZM321.986 182.884H322.022C322.318 182.884 322.55 182.856 322.718 182.8C322.894 182.736 323.018 182.636 323.09 182.5C323.17 182.356 323.21 182.168 323.21 181.936C323.21 181.688 323.17 181.5 323.09 181.372C323.018 181.236 322.894 181.14 322.718 181.084C322.55 181.028 322.326 181 322.046 181C322.038 181 322.026 181 322.01 181C322.002 181 321.994 181 321.986 181V182.884ZM326.872 181.444V179.896C327.232 179.616 327.556 179.304 327.844 178.96C328.132 178.616 328.36 178.252 328.528 177.868C328.696 177.476 328.78 177.072 328.78 176.656C328.78 176.36 328.724 176.148 328.612 176.02C328.508 175.884 328.352 175.816 328.144 175.816C327.952 175.816 327.8 175.872 327.688 175.984C327.584 176.096 327.532 176.252 327.532 176.452C327.532 176.58 327.544 176.696 327.568 176.8C327.6 176.896 327.636 177 327.676 177.112L325.912 177.52C325.848 177.328 325.796 177.144 325.756 176.968C325.724 176.784 325.708 176.592 325.708 176.392C325.708 175.688 325.92 175.14 326.344 174.748C326.776 174.348 327.392 174.148 328.192 174.148C329 174.148 329.62 174.36 330.052 174.784C330.492 175.208 330.712 175.812 330.712 176.596C330.712 177.076 330.632 177.532 330.472 177.964C330.312 178.396 330.076 178.804 329.764 179.188C329.46 179.572 329.088 179.932 328.648 180.268V181.444H326.872ZM326.812 184V182.14H328.72V184H326.812Z"></path>
</svg>
