<svg xmlns="http://www.w3.org/2000/svg" fill="none" viewBox="0 0 214 84" height="84" width="214">
<mask fill="white" id="path-1-inside-1_1505_6">
<path d="M0 0H214V84H0V0Z"></path>
</mask>
<path fill="#0D0E12" d="M0 0H214V84H0V0Z"></path>
<path mask="url(#path-1-inside-1_1505_6)" fill="white" d="M0 0V-1H-1V0H0ZM0 84H-1V85H0V84ZM0 1H214V-1H0V1ZM214 83H0V85H214V83ZM1 84V0H-1V84H1Z"></path>
<path fill="#FF0000" d="M19.504 38.144C18.776 38.144 18.2 38.016 17.776 37.76C17.352 37.504 17.048 37.136 16.864 36.656C16.68 36.176 16.588 35.604 16.588 34.94V31.328C16.588 30.656 16.68 30.084 16.864 29.612C17.048 29.14 17.352 28.78 17.776 28.532C18.2 28.276 18.776 28.148 19.504 28.148C20.24 28.148 20.82 28.276 21.244 28.532C21.676 28.78 21.984 29.14 22.168 29.612C22.352 30.084 22.444 30.656 22.444 31.328V34.94C22.444 35.604 22.352 36.176 22.168 36.656C21.984 37.136 21.676 37.504 21.244 37.76C20.82 38.016 20.24 38.144 19.504 38.144ZM19.504 36.62C19.728 36.62 19.892 36.564 19.996 36.452C20.1 36.34 20.168 36.196 20.2 36.02C20.232 35.844 20.248 35.664 20.248 35.48V30.8C20.248 30.608 20.232 30.428 20.2 30.26C20.168 30.084 20.1 29.94 19.996 29.828C19.892 29.716 19.728 29.66 19.504 29.66C19.296 29.66 19.14 29.716 19.036 29.828C18.932 29.94 18.864 30.084 18.832 30.26C18.8 30.428 18.784 30.608 18.784 30.8V35.48C18.784 35.664 18.796 35.844 18.82 36.02C18.852 36.196 18.916 36.34 19.012 36.452C19.116 36.564 19.28 36.62 19.504 36.62ZM23.7873 38V28.28H25.8153V36.464H27.0033V28.28H29.0193V36.464H30.1593V28.28H32.1753V38H23.7873ZM33.6896 38V28.28H35.3816V33.848L37.8656 28.28H39.2576V38H37.5296V32.336L34.9976 38H33.6896ZM40.7677 38V28.28H45.5917V29.912H42.9157V32.384H43.3717C43.9877 32.384 44.5077 32.484 44.9317 32.684C45.3637 32.884 45.6917 33.192 45.9157 33.608C46.1397 34.016 46.2517 34.544 46.2517 35.192C46.2517 35.784 46.1717 36.264 46.0117 36.632C45.8597 37 45.6437 37.284 45.3637 37.484C45.0837 37.684 44.7557 37.82 44.3797 37.892C44.0117 37.964 43.6117 38 43.1797 38H40.7677ZM42.9157 36.596H43.1917C43.4637 36.596 43.6797 36.544 43.8397 36.44C43.9997 36.336 44.1117 36.176 44.1757 35.96C44.2397 35.744 44.2677 35.472 44.2597 35.144C44.2517 34.784 44.1757 34.484 44.0317 34.244C43.8877 33.996 43.5997 33.872 43.1677 33.872H42.9157V36.596ZM47.4123 38V28.28H49.5603V32.132H49.7763L51.2043 28.28H53.3403L51.5643 32.84L53.4003 38H51.1923L49.7763 33.764H49.5603V38H47.4123ZM53.7754 38L55.6114 28.28H58.0594L59.8714 38H57.8914L57.5674 35.948H56.1394L55.8034 38H53.7754ZM56.3314 34.664H57.3634L56.8474 30.872L56.3314 34.664Z"></path>
<path fill="white" d="M16.63 56V47.9H17.76V51.5H18.18L19.63 47.9H20.76L19.16 51.75L20.96 56H19.83L18.19 52.05H17.76V56H16.63ZM22.2681 56V51.02H21.1881V50.22H24.4281V51.02H23.3381V56H22.2681ZM26.6066 56.08C26.1799 56.08 25.8432 55.9933 25.5966 55.82C25.3499 55.6467 25.1732 55.4 25.0666 55.08C24.9666 54.76 24.9166 54.3833 24.9166 53.95V52.27C24.9166 51.8367 24.9666 51.46 25.0666 51.14C25.1732 50.82 25.3499 50.5733 25.5966 50.4C25.8432 50.2267 26.1799 50.14 26.6066 50.14C27.0332 50.14 27.3666 50.2267 27.6066 50.4C27.8532 50.5733 28.0266 50.82 28.1266 51.14C28.2332 51.46 28.2866 51.8367 28.2866 52.27V53.95C28.2866 54.3833 28.2332 54.76 28.1266 55.08C28.0266 55.4 27.8532 55.6467 27.6066 55.82C27.3666 55.9933 27.0332 56.08 26.6066 56.08ZM26.6066 55.29C26.8132 55.29 26.9566 55.23 27.0366 55.11C27.1232 54.99 27.1732 54.8333 27.1866 54.64C27.2066 54.44 27.2166 54.2333 27.2166 54.02V52.21C27.2166 51.99 27.2066 51.7833 27.1866 51.59C27.1732 51.3967 27.1232 51.24 27.0366 51.12C26.9566 50.9933 26.8132 50.93 26.6066 50.93C26.3999 50.93 26.2532 50.9933 26.1666 51.12C26.0799 51.24 26.0266 51.3967 26.0066 51.59C25.9932 51.7833 25.9866 51.99 25.9866 52.21V54.02C25.9866 54.2333 25.9932 54.44 26.0066 54.64C26.0266 54.8333 26.0799 54.99 26.1666 55.11C26.2532 55.23 26.3999 55.29 26.6066 55.29ZM29.2146 53.39V52.58H31.4446V53.39H29.2146ZM33.1275 56V51.02H32.0475V50.22H35.2875V51.02H34.1975V56H33.1275ZM37.4659 56.08C37.0393 56.08 36.7026 55.9933 36.4559 55.82C36.2093 55.6467 36.0326 55.4 35.9259 55.08C35.8259 54.76 35.7759 54.3833 35.7759 53.95V52.27C35.7759 51.8367 35.8259 51.46 35.9259 51.14C36.0326 50.82 36.2093 50.5733 36.4559 50.4C36.7026 50.2267 37.0393 50.14 37.4659 50.14C37.8926 50.14 38.2259 50.2267 38.4659 50.4C38.7126 50.5733 38.8859 50.82 38.9859 51.14C39.0926 51.46 39.1459 51.8367 39.1459 52.27V53.95C39.1459 54.3833 39.0926 54.76 38.9859 55.08C38.8859 55.4 38.7126 55.6467 38.4659 55.82C38.2259 55.9933 37.8926 56.08 37.4659 56.08ZM37.4659 55.29C37.6726 55.29 37.8159 55.23 37.8959 55.11C37.9826 54.99 38.0326 54.8333 38.0459 54.64C38.0659 54.44 38.0759 54.2333 38.0759 54.02V52.21C38.0759 51.99 38.0659 51.7833 38.0459 51.59C38.0326 51.3967 37.9826 51.24 37.8959 51.12C37.8159 50.9933 37.6726 50.93 37.4659 50.93C37.2593 50.93 37.1126 50.9933 37.0259 51.12C36.9393 51.24 36.8859 51.3967 36.8659 51.59C36.8526 51.7833 36.8459 51.99 36.8459 52.21V54.02C36.8459 54.2333 36.8526 54.44 36.8659 54.64C36.8859 54.8333 36.9393 54.99 37.0259 55.11C37.1126 55.23 37.2593 55.29 37.4659 55.29ZM42.4091 56V50.22H45.7691V56H44.6991V51.03H43.4791V56H42.4091ZM48.4425 56.08C48.0158 56.08 47.6792 55.9933 47.4325 55.82C47.1858 55.6467 47.0092 55.4 46.9025 55.08C46.8025 54.76 46.7525 54.3833 46.7525 53.95V52.27C46.7525 51.8367 46.8025 51.46 46.9025 51.14C47.0092 50.82 47.1858 50.5733 47.4325 50.4C47.6792 50.2267 48.0158 50.14 48.4425 50.14C48.8692 50.14 49.2025 50.2267 49.4425 50.4C49.6892 50.5733 49.8625 50.82 49.9625 51.14C50.0692 51.46 50.1225 51.8367 50.1225 52.27V53.95C50.1225 54.3833 50.0692 54.76 49.9625 55.08C49.8625 55.4 49.6892 55.6467 49.4425 55.82C49.2025 55.9933 48.8692 56.08 48.4425 56.08ZM48.4425 55.29C48.6492 55.29 48.7925 55.23 48.8725 55.11C48.9592 54.99 49.0092 54.8333 49.0225 54.64C49.0425 54.44 49.0525 54.2333 49.0525 54.02V52.21C49.0525 51.99 49.0425 51.7833 49.0225 51.59C49.0092 51.3967 48.9592 51.24 48.8725 51.12C48.7925 50.9933 48.6492 50.93 48.4425 50.93C48.2358 50.93 48.0892 50.9933 48.0025 51.12C47.9158 51.24 47.8625 51.3967 47.8425 51.59C47.8292 51.7833 47.8225 51.99 47.8225 52.21V54.02C47.8225 54.2333 47.8292 54.44 47.8425 54.64C47.8625 54.8333 47.9158 54.99 48.0025 55.11C48.0892 55.23 48.2358 55.29 48.4425 55.29ZM51.1005 56V50.22H54.4605V56H53.3905V51.03H52.1705V56H51.1005ZM55.5439 56V50.22H56.6139V52.61C56.6272 52.61 56.6439 52.61 56.6639 52.61C56.6906 52.61 56.7139 52.61 56.7339 52.61C56.7539 52.61 56.7706 52.61 56.7839 52.61C57.1772 52.6167 57.5106 52.6467 57.7839 52.7C58.0639 52.7467 58.2906 52.8333 58.4639 52.96C58.6372 53.08 58.7639 53.25 58.8439 53.47C58.9239 53.6833 58.9639 53.96 58.9639 54.3C58.9639 54.6133 58.9239 54.88 58.8439 55.1C58.7639 55.3133 58.6339 55.4867 58.4539 55.62C58.2739 55.7533 58.0372 55.85 57.7439 55.91C57.4506 55.97 57.0939 56 56.6739 56H55.5439ZM56.6139 55.37H56.6739C57.0139 55.37 57.2806 55.34 57.4739 55.28C57.6672 55.22 57.8039 55.1133 57.8839 54.96C57.9639 54.8 58.0039 54.5767 58.0039 54.29C58.0039 54.03 57.9672 53.8267 57.8939 53.68C57.8272 53.5267 57.7006 53.4167 57.5139 53.35C57.3339 53.2767 57.0706 53.24 56.7239 53.24C56.7172 53.24 56.7006 53.24 56.6739 53.24C56.6472 53.24 56.6272 53.24 56.6139 53.24V55.37ZM59.6239 56V50.22H60.6939V56H59.6239ZM62.4244 56V51.02H61.3444V50.22H64.5844V51.02H63.4944V56H62.4244ZM66.2714 56.08C66.0447 56.08 65.8447 56.0167 65.6714 55.89C65.4981 55.7567 65.3614 55.59 65.2614 55.39C65.1614 55.1833 65.1114 54.9667 65.1114 54.74C65.1114 54.38 65.1714 54.0767 65.2914 53.83C65.4114 53.5833 65.5747 53.3767 65.7814 53.21C65.9947 53.0367 66.2381 52.8867 66.5114 52.76C66.7914 52.6333 67.0847 52.51 67.3914 52.39V51.98C67.3914 51.7467 67.3781 51.5533 67.3514 51.4C67.3247 51.2467 67.2681 51.1333 67.1814 51.06C67.1014 50.98 66.9781 50.94 66.8114 50.94C66.6647 50.94 66.5447 50.9733 66.4514 51.04C66.3647 51.1067 66.3014 51.2033 66.2614 51.33C66.2214 51.45 66.2014 51.5933 66.2014 51.76V52.05L65.1414 52.01C65.1547 51.37 65.3014 50.9 65.5814 50.6C65.8614 50.2933 66.2947 50.14 66.8814 50.14C67.4547 50.14 67.8614 50.2967 68.1014 50.61C68.3414 50.9233 68.4614 51.3767 68.4614 51.97V54.61C68.4614 54.79 68.4647 54.9633 68.4714 55.13C68.4847 55.2967 68.4981 55.4533 68.5114 55.6C68.5314 55.74 68.5481 55.8733 68.5614 56H67.5814C67.5614 55.8933 67.5347 55.76 67.5014 55.6C67.4747 55.4333 67.4547 55.2833 67.4414 55.15C67.3747 55.3767 67.2447 55.59 67.0514 55.79C66.8647 55.9833 66.6047 56.08 66.2714 56.08ZM66.6914 55.16C66.7981 55.16 66.8981 55.13 66.9914 55.07C67.0847 55.01 67.1681 54.9433 67.2414 54.87C67.3147 54.79 67.3647 54.7267 67.3914 54.68V53.04C67.2247 53.1333 67.0681 53.2267 66.9214 53.32C66.7747 53.4133 66.6447 53.5133 66.5314 53.62C66.4247 53.72 66.3381 53.8367 66.2714 53.97C66.2114 54.0967 66.1814 54.2433 66.1814 54.41C66.1814 54.6433 66.2247 54.8267 66.3114 54.96C66.3981 55.0933 66.5247 55.16 66.6914 55.16ZM69.1192 56.05V55.24C69.3192 55.24 69.4759 55.2 69.5892 55.12C69.7092 55.04 69.7992 54.9067 69.8592 54.72C69.9259 54.5267 69.9759 54.27 70.0092 53.95C70.0426 53.6233 70.0726 53.2167 70.0992 52.73L70.2292 50.22H73.2592V56H72.1892V51.03H71.1692L71.0792 52.73C71.0459 53.39 70.9959 53.9367 70.9292 54.37C70.8692 54.8033 70.7726 55.1433 70.6392 55.39C70.5059 55.63 70.3259 55.8 70.0992 55.9C69.8792 56 69.5926 56.05 69.2392 56.05H69.1192ZM75.9227 56.08C75.4494 56.08 75.0894 55.9867 74.8427 55.8C74.6027 55.6067 74.4394 55.3367 74.3527 54.99C74.2727 54.6433 74.2327 54.24 74.2327 53.78V52.45C74.2327 51.9633 74.2761 51.55 74.3627 51.21C74.4494 50.8633 74.6127 50.6 74.8527 50.42C75.0994 50.2333 75.4561 50.14 75.9227 50.14C76.3427 50.14 76.6661 50.21 76.8927 50.35C77.1261 50.4833 77.2861 50.6867 77.3727 50.96C77.4594 51.2267 77.5027 51.56 77.5027 51.96V52.3H76.5327V51.95C76.5327 51.6967 76.5161 51.4967 76.4827 51.35C76.4494 51.2033 76.3894 51.0967 76.3027 51.03C76.2161 50.9633 76.0927 50.93 75.9327 50.93C75.7594 50.93 75.6261 50.97 75.5327 51.05C75.4394 51.13 75.3761 51.2667 75.3427 51.46C75.3161 51.6467 75.3027 51.9033 75.3027 52.23V54.05C75.3027 54.5433 75.3494 54.8733 75.4427 55.04C75.5361 55.2067 75.7027 55.29 75.9427 55.29C76.1227 55.29 76.2527 55.25 76.3327 55.17C76.4194 55.0833 76.4727 54.9633 76.4927 54.81C76.5194 54.6567 76.5327 54.4833 76.5327 54.29V53.82H77.5027V54.22C77.5027 54.6067 77.4561 54.94 77.3627 55.22C77.2761 55.5 77.1161 55.7133 76.8827 55.86C76.6561 56.0067 76.3361 56.08 75.9227 56.08ZM78.0141 56L79.1041 53.55C78.9174 53.4767 78.7641 53.3667 78.6441 53.22C78.5307 53.0733 78.4474 52.8933 78.3941 52.68C78.3407 52.4667 78.3141 52.2267 78.3141 51.96C78.3141 51.6533 78.3541 51.39 78.4341 51.17C78.5141 50.95 78.6407 50.77 78.8141 50.63C78.9874 50.49 79.2174 50.3867 79.5041 50.32C79.7907 50.2533 80.1441 50.22 80.5641 50.22H81.6841V56H80.6241V53.72C80.5174 53.72 80.4274 53.72 80.3541 53.72C80.2807 53.7133 80.2007 53.7067 80.1141 53.7L79.1641 56H78.0141ZM80.5041 53.1C80.5174 53.1 80.5374 53.1 80.5641 53.1C80.5974 53.1 80.6174 53.1 80.6241 53.1V50.83C80.6174 50.83 80.5974 50.83 80.5641 50.83C80.5374 50.83 80.5207 50.83 80.5141 50.83C80.2007 50.83 79.9507 50.87 79.7641 50.95C79.5841 51.0233 79.4574 51.1433 79.3841 51.31C79.3107 51.47 79.2741 51.6867 79.2741 51.96C79.2741 52.34 79.3574 52.6233 79.5241 52.81C79.6974 52.9967 80.0241 53.0933 80.5041 53.1ZM85.0556 56V50.22H86.6756C87.069 50.22 87.3756 50.2867 87.5956 50.42C87.8223 50.5467 87.9823 50.7167 88.0756 50.93C88.1756 51.1367 88.229 51.36 88.2356 51.6C88.2423 51.8867 88.1956 52.1433 88.0956 52.37C87.9956 52.5967 87.789 52.7567 87.4756 52.85C87.7156 52.8967 87.899 52.9967 88.0256 53.15C88.159 53.2967 88.249 53.4733 88.2956 53.68C88.349 53.8867 88.3756 54.1 88.3756 54.32C88.3756 54.6533 88.3256 54.9467 88.2256 55.2C88.1323 55.4533 87.9656 55.65 87.7256 55.79C87.4923 55.93 87.159 56 86.7256 56H85.0556ZM86.1056 55.19H86.4856C86.639 55.19 86.779 55.17 86.9056 55.13C87.0323 55.0833 87.1323 54.9933 87.2056 54.86C87.2856 54.7267 87.3256 54.5333 87.3256 54.28C87.3256 53.98 87.289 53.7633 87.2156 53.63C87.149 53.49 87.0556 53.4033 86.9356 53.37C86.8223 53.3367 86.689 53.32 86.5356 53.32H86.1056V55.19ZM86.1056 52.55H86.6256C86.8323 52.55 86.9956 52.49 87.1156 52.37C87.2356 52.25 87.2956 52.0367 87.2956 51.73C87.2956 51.4567 87.2256 51.2667 87.0856 51.16C86.9456 51.0533 86.7556 51 86.5156 51H86.1056V52.55ZM90.566 56.1C90.2993 56.1 90.0693 56.0633 89.876 55.99C89.6827 55.9167 89.5227 55.8033 89.396 55.65C89.2693 55.49 89.176 55.2933 89.116 55.06C89.056 54.8267 89.026 54.55 89.026 54.23H89.936C89.936 54.6233 89.9927 54.9067 90.106 55.08C90.2193 55.2533 90.3793 55.34 90.586 55.34C90.766 55.34 90.896 55.2933 90.976 55.2C91.056 55.1067 91.106 54.98 91.126 54.82C91.146 54.6533 91.156 54.47 91.156 54.27C91.156 54.0167 91.1193 53.83 91.046 53.71C90.9793 53.5833 90.8593 53.5 90.686 53.46C90.5193 53.42 90.286 53.4 89.986 53.4V52.64C90.4527 52.64 90.7627 52.57 90.916 52.43C91.076 52.29 91.156 52.06 91.156 51.74C91.156 51.4533 91.096 51.2467 90.976 51.12C90.856 50.9933 90.706 50.93 90.526 50.93C90.326 50.93 90.166 50.9933 90.046 51.12C89.926 51.2467 89.866 51.5 89.866 51.88H88.956C88.956 51.4467 89.0193 51.1033 89.146 50.85C89.2793 50.5967 89.466 50.4167 89.706 50.31C89.9527 50.1967 90.2393 50.14 90.566 50.14C90.926 50.14 91.216 50.2133 91.436 50.36C91.6627 50.5067 91.826 50.7 91.926 50.94C92.0327 51.1733 92.086 51.42 92.086 51.68C92.086 52.0133 92.0327 52.2733 91.926 52.46C91.826 52.6467 91.6993 52.78 91.546 52.86C91.3993 52.94 91.256 52.9867 91.116 53C91.2627 53.0267 91.4093 53.0767 91.556 53.15C91.7093 53.2167 91.836 53.3467 91.936 53.54C92.0427 53.7267 92.096 54.02 92.096 54.42C92.096 54.9667 91.9693 55.3833 91.716 55.67C91.4627 55.9567 91.0793 56.1 90.566 56.1ZM92.586 56.05V55.24C92.786 55.24 92.9427 55.2 93.056 55.12C93.176 55.04 93.266 54.9067 93.326 54.72C93.3927 54.5267 93.4427 54.27 93.476 53.95C93.5093 53.6233 93.5393 53.2167 93.566 52.73L93.696 50.22H96.726V56H95.656V51.03H94.636L94.546 52.73C94.5127 53.39 94.4627 53.9367 94.396 54.37C94.336 54.8033 94.2393 55.1433 94.106 55.39C93.9727 55.63 93.7927 55.8 93.566 55.9C93.346 56 93.0593 56.05 92.706 56.05H92.586ZM99.3995 56.08C98.9729 56.08 98.6362 55.9933 98.3895 55.82C98.1429 55.6467 97.9662 55.4 97.8595 55.08C97.7595 54.76 97.7095 54.3833 97.7095 53.95V52.27C97.7095 51.8367 97.7595 51.46 97.8595 51.14C97.9662 50.82 98.1429 50.5733 98.3895 50.4C98.6362 50.2267 98.9729 50.14 99.3995 50.14C99.8262 50.14 100.16 50.2267 100.4 50.4C100.646 50.5733 100.82 50.82 100.92 51.14C101.026 51.46 101.08 51.8367 101.08 52.27V53.95C101.08 54.3833 101.026 54.76 100.92 55.08C100.82 55.4 100.646 55.6467 100.4 55.82C100.16 55.9933 99.8262 56.08 99.3995 56.08ZM99.3995 55.29C99.6062 55.29 99.7495 55.23 99.8295 55.11C99.9162 54.99 99.9662 54.8333 99.9795 54.64C99.9995 54.44 100.01 54.2333 100.01 54.02V52.21C100.01 51.99 99.9995 51.7833 99.9795 51.59C99.9662 51.3967 99.9162 51.24 99.8295 51.12C99.7495 50.9933 99.6062 50.93 99.3995 50.93C99.1929 50.93 99.0462 50.9933 98.9595 51.12C98.8729 51.24 98.8195 51.3967 98.7995 51.59C98.7862 51.7833 98.7795 51.99 98.7795 52.21V54.02C98.7795 54.2333 98.7862 54.44 98.7995 54.64C98.8195 54.8333 98.8729 54.99 98.9595 55.11C99.0462 55.23 99.1929 55.29 99.3995 55.29ZM102.028 56L102.088 50.22H102.878L104.158 53.77L105.448 50.22H106.238L106.298 56H105.398V52.55L104.328 55.43H103.998L102.928 52.57V56H102.028ZM108.391 56.08C108.164 56.08 107.964 56.0167 107.791 55.89C107.617 55.7567 107.481 55.59 107.381 55.39C107.281 55.1833 107.231 54.9667 107.231 54.74C107.231 54.38 107.291 54.0767 107.411 53.83C107.531 53.5833 107.694 53.3767 107.901 53.21C108.114 53.0367 108.357 52.8867 108.631 52.76C108.911 52.6333 109.204 52.51 109.511 52.39V51.98C109.511 51.7467 109.497 51.5533 109.471 51.4C109.444 51.2467 109.387 51.1333 109.301 51.06C109.221 50.98 109.097 50.94 108.931 50.94C108.784 50.94 108.664 50.9733 108.571 51.04C108.484 51.1067 108.421 51.2033 108.381 51.33C108.341 51.45 108.321 51.5933 108.321 51.76V52.05L107.261 52.01C107.274 51.37 107.421 50.9 107.701 50.6C107.981 50.2933 108.414 50.14 109.001 50.14C109.574 50.14 109.981 50.2967 110.221 50.61C110.461 50.9233 110.581 51.3767 110.581 51.97V54.61C110.581 54.79 110.584 54.9633 110.591 55.13C110.604 55.2967 110.617 55.4533 110.631 55.6C110.651 55.74 110.667 55.8733 110.681 56H109.701C109.681 55.8933 109.654 55.76 109.621 55.6C109.594 55.4333 109.574 55.2833 109.561 55.15C109.494 55.3767 109.364 55.59 109.171 55.79C108.984 55.9833 108.724 56.08 108.391 56.08ZM108.811 55.16C108.917 55.16 109.017 55.13 109.111 55.07C109.204 55.01 109.287 54.9433 109.361 54.87C109.434 54.79 109.484 54.7267 109.511 54.68V53.04C109.344 53.1333 109.187 53.2267 109.041 53.32C108.894 53.4133 108.764 53.5133 108.651 53.62C108.544 53.72 108.457 53.8367 108.391 53.97C108.331 54.0967 108.301 54.2433 108.301 54.41C108.301 54.6433 108.344 54.8267 108.431 54.96C108.517 55.0933 108.644 55.16 108.811 55.16ZM112.258 56V51.02H111.178V50.22H114.418V51.02H113.328V56H112.258ZM115.065 56V50.22H116.135V52.61C116.149 52.61 116.165 52.61 116.185 52.61C116.212 52.61 116.235 52.61 116.255 52.61C116.275 52.61 116.292 52.61 116.305 52.61C116.699 52.6167 117.032 52.6467 117.305 52.7C117.585 52.7467 117.812 52.8333 117.985 52.96C118.159 53.08 118.285 53.25 118.365 53.47C118.445 53.6833 118.485 53.96 118.485 54.3C118.485 54.6133 118.445 54.88 118.365 55.1C118.285 55.3133 118.155 55.4867 117.975 55.62C117.795 55.7533 117.559 55.85 117.265 55.91C116.972 55.97 116.615 56 116.195 56H115.065ZM116.135 55.37H116.195C116.535 55.37 116.802 55.34 116.995 55.28C117.189 55.22 117.325 55.1133 117.405 54.96C117.485 54.8 117.525 54.5767 117.525 54.29C117.525 54.03 117.489 53.8267 117.415 53.68C117.349 53.5267 117.222 53.4167 117.035 53.35C116.855 53.2767 116.592 53.24 116.245 53.24C116.239 53.24 116.222 53.24 116.195 53.24C116.169 53.24 116.149 53.24 116.135 53.24V55.37ZM121.571 56L121.721 47.9H122.831L124.261 54.47L125.701 47.9H126.801L126.951 56H126.041L125.951 50.12L124.581 56H123.941L122.581 50.12L122.491 56H121.571ZM129.693 56.08C129.266 56.08 128.929 55.9933 128.683 55.82C128.436 55.6467 128.259 55.4 128.153 55.08C128.053 54.76 128.003 54.3833 128.003 53.95V52.27C128.003 51.8367 128.053 51.46 128.153 51.14C128.259 50.82 128.436 50.5733 128.683 50.4C128.929 50.2267 129.266 50.14 129.693 50.14C130.119 50.14 130.453 50.2267 130.693 50.4C130.939 50.5733 131.113 50.82 131.213 51.14C131.319 51.46 131.373 51.8367 131.373 52.27V53.95C131.373 54.3833 131.319 54.76 131.213 55.08C131.113 55.4 130.939 55.6467 130.693 55.82C130.453 55.9933 130.119 56.08 129.693 56.08ZM129.693 55.29C129.899 55.29 130.043 55.23 130.123 55.11C130.209 54.99 130.259 54.8333 130.273 54.64C130.293 54.44 130.303 54.2333 130.303 54.02V52.21C130.303 51.99 130.293 51.7833 130.273 51.59C130.259 51.3967 130.209 51.24 130.123 51.12C130.043 50.9933 129.899 50.93 129.693 50.93C129.486 50.93 129.339 50.9933 129.253 51.12C129.166 51.24 129.113 51.3967 129.093 51.59C129.079 51.7833 129.073 51.99 129.073 52.21V54.02C129.073 54.2333 129.079 54.44 129.093 54.64C129.113 54.8333 129.166 54.99 129.253 55.11C129.339 55.23 129.486 55.29 129.693 55.29ZM133.691 56.08C133.217 56.08 132.837 55.9333 132.551 55.64C132.264 55.34 132.101 54.9467 132.061 54.46L132.951 54.19C133.004 54.5567 133.094 54.8333 133.221 55.02C133.347 55.2 133.534 55.29 133.781 55.29C133.974 55.29 134.121 55.2367 134.221 55.13C134.321 55.0167 134.371 54.8667 134.371 54.68C134.371 54.5133 134.334 54.3633 134.261 54.23C134.187 54.0967 134.067 53.96 133.901 53.82L132.911 52.97C132.711 52.7967 132.541 52.6033 132.401 52.39C132.267 52.1767 132.201 51.9 132.201 51.56C132.201 51.2533 132.261 50.9967 132.381 50.79C132.507 50.5767 132.681 50.4167 132.901 50.31C133.127 50.1967 133.391 50.14 133.691 50.14C134.151 50.14 134.501 50.29 134.741 50.59C134.987 50.8833 135.127 51.24 135.161 51.66L134.441 51.93C134.414 51.73 134.374 51.5567 134.321 51.41C134.267 51.2567 134.194 51.14 134.101 51.06C134.007 50.9733 133.884 50.93 133.731 50.93C133.557 50.93 133.417 50.99 133.311 51.11C133.211 51.2233 133.161 51.36 133.161 51.52C133.161 51.62 133.181 51.72 133.221 51.82C133.267 51.9133 133.344 52.0067 133.451 52.1L134.471 53.04C134.611 53.1667 134.741 53.3033 134.861 53.45C134.987 53.5967 135.091 53.7633 135.171 53.95C135.251 54.1367 135.291 54.3533 135.291 54.6C135.291 54.9267 135.224 55.2 135.091 55.42C134.957 55.64 134.771 55.8067 134.531 55.92C134.291 56.0267 134.011 56.08 133.691 56.08ZM138.211 56.09C137.637 56.09 137.191 55.97 136.871 55.73C136.557 55.49 136.337 55.1667 136.211 54.76C136.091 54.3533 136.031 53.9 136.031 53.4V50.54C136.031 49.9933 136.091 49.5167 136.211 49.11C136.337 48.7033 136.557 48.39 136.871 48.17C137.191 47.9433 137.637 47.83 138.211 47.83C138.717 47.83 139.117 47.9233 139.411 48.11C139.711 48.2967 139.924 48.5633 140.051 48.91C140.184 49.2567 140.251 49.6733 140.251 50.16V50.8H139.181V50.23C139.181 49.93 139.164 49.6667 139.131 49.44C139.104 49.2067 139.024 49.0267 138.891 48.9C138.757 48.7733 138.534 48.71 138.221 48.71C137.901 48.71 137.667 48.78 137.521 48.92C137.374 49.0533 137.277 49.2467 137.231 49.5C137.191 49.7467 137.171 50.0367 137.171 50.37V53.58C137.171 53.9867 137.204 54.31 137.271 54.55C137.337 54.7833 137.447 54.95 137.601 55.05C137.754 55.15 137.961 55.2 138.221 55.2C138.527 55.2 138.747 55.1333 138.881 55C139.014 54.86 139.097 54.67 139.131 54.43C139.164 54.19 139.181 53.91 139.181 53.59V52.99H140.251V53.59C140.251 54.0833 140.191 54.52 140.071 54.9C139.951 55.2733 139.744 55.5667 139.451 55.78C139.157 55.9867 138.744 56.09 138.211 56.09ZM141.267 56V47.9H142.337V50.82C142.531 50.6333 142.747 50.4733 142.987 50.34C143.227 50.2067 143.494 50.14 143.787 50.14C144.014 50.14 144.187 50.2 144.307 50.32C144.434 50.44 144.521 50.59 144.567 50.77C144.621 50.95 144.647 51.1333 144.647 51.32V56H143.577V51.63C143.577 51.4233 143.547 51.2633 143.487 51.15C143.427 51.0367 143.304 50.98 143.117 50.98C142.991 50.98 142.857 51.0167 142.717 51.09C142.584 51.1633 142.457 51.2533 142.337 51.36V56H141.267ZM147.29 56.08C146.837 56.08 146.487 55.9933 146.24 55.82C145.994 55.64 145.82 55.38 145.72 55.04C145.627 54.6933 145.58 54.27 145.58 53.77V52.45C145.58 51.9367 145.63 51.51 145.73 51.17C145.83 50.83 146.004 50.5733 146.25 50.4C146.504 50.2267 146.85 50.14 147.29 50.14C147.777 50.14 148.134 50.24 148.36 50.44C148.594 50.64 148.747 50.93 148.82 51.31C148.894 51.6833 148.93 52.1333 148.93 52.66V53.13H146.65V54.29C146.65 54.5233 146.67 54.7133 146.71 54.86C146.757 55.0067 146.827 55.1167 146.92 55.19C147.02 55.2567 147.147 55.29 147.3 55.29C147.46 55.29 147.58 55.2533 147.66 55.18C147.747 55.1 147.804 54.99 147.83 54.85C147.864 54.7033 147.88 54.5333 147.88 54.34V53.99H148.92V54.21C148.92 54.79 148.797 55.2467 148.55 55.58C148.304 55.9133 147.884 56.08 147.29 56.08ZM146.65 52.55H147.88V52.03C147.88 51.79 147.867 51.59 147.84 51.43C147.814 51.2633 147.757 51.14 147.67 51.06C147.59 50.9733 147.46 50.93 147.28 50.93C147.107 50.93 146.974 50.97 146.88 51.05C146.794 51.13 146.734 51.2667 146.7 51.46C146.667 51.6467 146.65 51.9067 146.65 52.24V52.55ZM151.239 56.08C150.766 56.08 150.386 55.9333 150.099 55.64C149.813 55.34 149.649 54.9467 149.609 54.46L150.499 54.19C150.553 54.5567 150.643 54.8333 150.769 55.02C150.896 55.2 151.083 55.29 151.329 55.29C151.523 55.29 151.669 55.2367 151.769 55.13C151.869 55.0167 151.919 54.8667 151.919 54.68C151.919 54.5133 151.883 54.3633 151.809 54.23C151.736 54.0967 151.616 53.96 151.449 53.82L150.459 52.97C150.259 52.7967 150.089 52.6033 149.949 52.39C149.816 52.1767 149.749 51.9 149.749 51.56C149.749 51.2533 149.809 50.9967 149.929 50.79C150.056 50.5767 150.229 50.4167 150.449 50.31C150.676 50.1967 150.939 50.14 151.239 50.14C151.699 50.14 152.049 50.29 152.289 50.59C152.536 50.8833 152.676 51.24 152.709 51.66L151.989 51.93C151.963 51.73 151.923 51.5567 151.869 51.41C151.816 51.2567 151.743 51.14 151.649 51.06C151.556 50.9733 151.433 50.93 151.279 50.93C151.106 50.93 150.966 50.99 150.859 51.11C150.759 51.2233 150.709 51.36 150.709 51.52C150.709 51.62 150.729 51.72 150.769 51.82C150.816 51.9133 150.893 52.0067 150.999 52.1L152.019 53.04C152.159 53.1667 152.289 53.3033 152.409 53.45C152.536 53.5967 152.639 53.7633 152.719 53.95C152.799 54.1367 152.839 54.3533 152.839 54.6C152.839 54.9267 152.773 55.2 152.639 55.42C152.506 55.64 152.319 55.8067 152.079 55.92C151.839 56.0267 151.559 56.08 151.239 56.08ZM154.98 56.08C154.506 56.08 154.126 55.9333 153.84 55.64C153.553 55.34 153.39 54.9467 153.35 54.46L154.24 54.19C154.293 54.5567 154.383 54.8333 154.51 55.02C154.636 55.2 154.823 55.29 155.07 55.29C155.263 55.29 155.41 55.2367 155.51 55.13C155.61 55.0167 155.66 54.8667 155.66 54.68C155.66 54.5133 155.623 54.3633 155.55 54.23C155.476 54.0967 155.356 53.96 155.19 53.82L154.2 52.97C154 52.7967 153.83 52.6033 153.69 52.39C153.556 52.1767 153.49 51.9 153.49 51.56C153.49 51.2533 153.55 50.9967 153.67 50.79C153.796 50.5767 153.97 50.4167 154.19 50.31C154.416 50.1967 154.68 50.14 154.98 50.14C155.44 50.14 155.79 50.29 156.03 50.59C156.276 50.8833 156.416 51.24 156.45 51.66L155.73 51.93C155.703 51.73 155.663 51.5567 155.61 51.41C155.556 51.2567 155.483 51.14 155.39 51.06C155.296 50.9733 155.173 50.93 155.02 50.93C154.846 50.93 154.706 50.99 154.6 51.11C154.5 51.2233 154.45 51.36 154.45 51.52C154.45 51.62 154.47 51.72 154.51 51.82C154.556 51.9133 154.633 52.0067 154.74 52.1L155.76 53.04C155.9 53.1667 156.03 53.3033 156.15 53.45C156.276 53.5967 156.38 53.7633 156.46 53.95C156.54 54.1367 156.58 54.3533 156.58 54.6C156.58 54.9267 156.513 55.2 156.38 55.42C156.246 55.64 156.06 55.8067 155.82 55.92C155.58 56.0267 155.3 56.08 154.98 56.08ZM157.33 56V54.81H158.4V56H157.33ZM159.215 56V54.81H160.285V56H159.215ZM161.099 56V54.81H162.169V56H161.099Z"></path>
</svg>
