<svg xmlns="http://www.w3.org/2000/svg" fill="none" viewBox="0 0 12 12" height="12" width="12">
<circle stroke-width="0.5" stroke="#0D0E12" fill="#FDCD4D" r="5" cy="6" cx="6"></circle>
<path fill="#0D0E12" d="M5.71113 9.24815C5.71991 9.38317 5.61748 9.50064 5.48217 9.49996C4.89903 9.49699 4.32574 9.34832 3.81466 9.06751C3.69607 9.00236 3.66364 8.84991 3.73693 8.73617V8.73617C3.81022 8.62242 3.96143 8.5906 4.08076 8.6544C4.50255 8.87993 4.97214 9.00171 5.45037 9.00959C5.58567 9.01182 5.70236 9.11312 5.71113 9.24815V9.24815Z"></path>
<path fill="white" d="M9 4C9 4.55228 8.55228 5 8 5C7.44772 5 7 4.55228 7 4C7 3.44772 7.44772 3 8 3C8.55228 3 9 3.44772 9 4Z"></path>
<mask height="2" width="2" y="3" x="7" maskUnits="userSpaceOnUse" style="mask-type:alpha" id="mask0_1175_191">
<path fill="white" d="M9 4C9 4.55228 8.55228 5 8 5C7.44772 5 7 4.55228 7 4C7 3.44772 7.44772 3 8 3C8.55228 3 9 3.44772 9 4Z"></path>
</mask>
<g mask="url(#mask0_1175_191)">
<path fill="#0D0E12" d="M8.75 3.5C8.75 3.77614 8.52614 4 8.25 4C7.97386 4 7.75 3.77614 7.75 3.5C7.75 3.22386 7.97386 3 8.25 3C8.52614 3 8.75 3.22386 8.75 3.5Z"></path>
</g>
<path fill="white" d="M6.5 4C6.5 4.55228 6.05228 5 5.5 5C4.94772 5 4.5 4.55228 4.5 4C4.5 3.44772 4.94772 3 5.5 3C6.05228 3 6.5 3.44772 6.5 4Z"></path>
<mask height="2" width="3" y="3" x="4" maskUnits="userSpaceOnUse" style="mask-type:alpha" id="mask1_1175_191">
<path fill="white" d="M6.5 4C6.5 4.55228 6.05228 5 5.5 5C4.94772 5 4.5 4.55228 4.5 4C4.5 3.44772 4.94772 3 5.5 3C6.05228 3 6.5 3.44772 6.5 4Z"></path>
</mask>
<g mask="url(#mask1_1175_191)">
<path fill="#0D0E12" d="M6.25 3.5C6.25 3.77614 6.02614 4 5.75 4C5.47386 4 5.25 3.77614 5.25 3.5C5.25 3.22386 5.47386 3 5.75 3C6.02614 3 6.25 3.22386 6.25 3.5Z"></path>
</g>
<path stroke-linecap="round" stroke-width="0.5" stroke="#D29B09" d="M8.5 2.5C8.25 2.25 8 2 7.25 2"></path>
<path stroke-linecap="round" stroke-width="0.5" stroke="#D29B09" d="M5 2.5C5.25 2.25 5.5 2 6.25 2"></path>
</svg>
