<svg xmlns="http://www.w3.org/2000/svg" fill="none" viewBox="0 0 90 22" height="22" width="90">
<rect fill="#0D0E12" height="22" width="90"></rect>
<path fill="white" d="M41.21 15L42.74 6.9H44.78L46.29 15H44.64L44.37 13.29H43.18L42.9 15H41.21ZM43.34 12.22H44.2L43.77 9.06L43.34 12.22ZM47.1078 15V6.9H49.8278C50.3145 6.9 50.7145 6.99333 51.0278 7.18C51.3411 7.36 51.5745 7.62667 51.7278 7.98C51.8811 8.32667 51.9578 8.75 51.9578 9.25C51.9578 9.87667 51.8545 10.3567 51.6478 10.69C51.4411 11.0167 51.1611 11.2433 50.8078 11.37C50.4545 11.4967 50.0578 11.56 49.6178 11.56H48.8978V15H47.1078ZM48.8978 10.31H49.4978C49.7178 10.31 49.8845 10.27 49.9978 10.19C50.1111 10.11 50.1845 9.99 50.2178 9.83C50.2578 9.67 50.2778 9.46667 50.2778 9.22C50.2778 9.01333 50.2611 8.83333 50.2278 8.68C50.2011 8.52 50.1311 8.39333 50.0178 8.3C49.9045 8.20667 49.7278 8.16 49.4878 8.16H48.8978V10.31ZM52.8207 15V6.9H55.5407C56.0274 6.9 56.4274 6.99333 56.7407 7.18C57.054 7.36 57.2874 7.62667 57.4407 7.98C57.594 8.32667 57.6707 8.75 57.6707 9.25C57.6707 9.87667 57.5674 10.3567 57.3607 10.69C57.154 11.0167 56.874 11.2433 56.5207 11.37C56.1674 11.4967 55.7707 11.56 55.3307 11.56H54.6107V15H52.8207ZM54.6107 10.31H55.2107C55.4307 10.31 55.5974 10.27 55.7107 10.19C55.824 10.11 55.8974 9.99 55.9307 9.83C55.9707 9.67 55.9907 9.46667 55.9907 9.22C55.9907 9.01333 55.974 8.83333 55.9407 8.68C55.914 8.52 55.844 8.39333 55.7307 8.3C55.6174 8.20667 55.4407 8.16 55.2007 8.16H54.6107V10.31ZM58.5336 15V6.9H60.3236V13.79H62.1836V15H58.5336ZM63.2841 15V11.69L61.7441 6.9H63.4341L64.2041 9.46L64.8941 6.9H66.5141L65.0041 11.69V15H63.2841Z"></path>
<path fill="white" d="M26.9497 14.9496C26.5592 15.3402 25.926 15.3402 25.5355 14.9496L22.7071 12.1212C22.3166 11.7307 22.3166 11.0975 22.7071 10.707C23.0976 10.3165 23.7308 10.3165 24.1213 10.707L26.9497 13.5354C27.3403 13.926 27.3403 14.5591 26.9497 14.9496Z"></path>
<path fill="white" d="M34.1924 6.70718C34.5829 7.0977 34.5829 7.73086 34.1924 8.12139L27.1213 15.1925C26.7308 15.583 26.0976 15.583 25.7071 15.1925C25.3166 14.8019 25.3166 14.1688 25.7071 13.7782L32.7782 6.70717C33.1687 6.31665 33.8019 6.31665 34.1924 6.70718Z"></path>
</svg>
