<svg xmlns="http://www.w3.org/2000/svg" fill="none" viewBox="0 0 90 40" height="40" width="90">
<rect fill="#0D0E12" height="40" width="90"></rect>
<path fill="white" d="M8.93975 25V17.26C8.85175 17.308 8.75175 17.356 8.63975 17.404C8.52775 17.452 8.40775 17.504 8.27975 17.56C8.15975 17.608 8.03975 17.656 7.91975 17.704C7.80775 17.752 7.70375 17.8 7.60775 17.848V16.36C7.69575 16.312 7.81975 16.248 7.97975 16.168C8.13975 16.08 8.31175 15.984 8.49575 15.88C8.67975 15.776 8.85175 15.672 9.01175 15.568C9.17175 15.456 9.29175 15.36 9.37175 15.28H10.9438V25H8.93975ZM15.3078 25.18C14.7238 25.18 14.2358 25.064 13.8438 24.832C13.4518 24.592 13.1558 24.264 12.9558 23.848C12.7558 23.432 12.6558 22.948 12.6558 22.396V17.992C12.6558 17.424 12.7478 16.928 12.9318 16.504C13.1238 16.072 13.4158 15.736 13.8078 15.496C14.1998 15.256 14.6998 15.136 15.3078 15.136C15.9158 15.136 16.4118 15.256 16.7958 15.496C17.1878 15.736 17.4758 16.072 17.6598 16.504C17.8518 16.928 17.9478 17.424 17.9478 17.992V22.396C17.9478 22.94 17.8478 23.424 17.6478 23.848C17.4478 24.264 17.1518 24.592 16.7598 24.832C16.3678 25.064 15.8838 25.18 15.3078 25.18ZM15.3078 23.392C15.4998 23.392 15.6358 23.332 15.7158 23.212C15.8038 23.084 15.8558 22.94 15.8718 22.78C15.8958 22.612 15.9078 22.468 15.9078 22.348V18.04C15.9078 17.904 15.8998 17.752 15.8838 17.584C15.8678 17.408 15.8158 17.256 15.7278 17.128C15.6478 16.992 15.5078 16.924 15.3078 16.924C15.1078 16.924 14.9638 16.992 14.8758 17.128C14.7958 17.256 14.7478 17.408 14.7318 17.584C14.7158 17.752 14.7078 17.904 14.7078 18.04V22.348C14.7078 22.468 14.7198 22.612 14.7438 22.78C14.7678 22.94 14.8198 23.084 14.8998 23.212C14.9878 23.332 15.1238 23.392 15.3078 23.392ZM22.2758 25L22.2998 18.064H23.7398L25.1558 21.388L26.5838 18.064H28.0238L28.0478 25H26.5238V21.352L25.4558 23.92H24.8798L23.7998 21.34V25H22.2758ZM29.2722 25V18.064H30.8202V21.772L32.6322 18.064H34.1562V25H32.5722V21.328L30.8082 25H29.2722ZM35.3659 25V18.064H37.3219V20.752H38.4859V18.064H40.4539V25H38.4859V22.096H37.3219V25H35.3659ZM41.6106 25V23.152H43.4586V25H41.6106ZM50.3586 25.18C49.7746 25.18 49.2866 25.064 48.8946 24.832C48.5026 24.592 48.2066 24.264 48.0066 23.848C47.8066 23.432 47.7066 22.948 47.7066 22.396V17.992C47.7066 17.424 47.7986 16.928 47.9826 16.504C48.1746 16.072 48.4666 15.736 48.8586 15.496C49.2506 15.256 49.7506 15.136 50.3586 15.136C50.9666 15.136 51.4626 15.256 51.8466 15.496C52.2386 15.736 52.5266 16.072 52.7106 16.504C52.9026 16.928 52.9986 17.424 52.9986 17.992V22.396C52.9986 22.94 52.8986 23.424 52.6986 23.848C52.4986 24.264 52.2026 24.592 51.8106 24.832C51.4186 25.064 50.9346 25.18 50.3586 25.18ZM50.3586 23.392C50.5506 23.392 50.6866 23.332 50.7666 23.212C50.8546 23.084 50.9066 22.94 50.9226 22.78C50.9466 22.612 50.9586 22.468 50.9586 22.348V18.04C50.9586 17.904 50.9506 17.752 50.9346 17.584C50.9186 17.408 50.8666 17.256 50.7786 17.128C50.6986 16.992 50.5586 16.924 50.3586 16.924C50.1586 16.924 50.0146 16.992 49.9266 17.128C49.8466 17.256 49.7986 17.408 49.7826 17.584C49.7666 17.752 49.7586 17.904 49.7586 18.04V22.348C49.7586 22.468 49.7706 22.612 49.7946 22.78C49.8186 22.94 49.8706 23.084 49.9506 23.212C50.0386 23.332 50.1746 23.392 50.3586 23.392ZM56.9563 25.18C56.3723 25.18 55.8843 25.064 55.4923 24.832C55.1003 24.592 54.8043 24.264 54.6043 23.848C54.4043 23.432 54.3043 22.948 54.3043 22.396V17.992C54.3043 17.424 54.3963 16.928 54.5803 16.504C54.7723 16.072 55.0643 15.736 55.4563 15.496C55.8483 15.256 56.3483 15.136 56.9563 15.136C57.5643 15.136 58.0603 15.256 58.4443 15.496C58.8363 15.736 59.1243 16.072 59.3083 16.504C59.5003 16.928 59.5963 17.424 59.5963 17.992V22.396C59.5963 22.94 59.4963 23.424 59.2963 23.848C59.0963 24.264 58.8003 24.592 58.4083 24.832C58.0163 25.064 57.5323 25.18 56.9563 25.18ZM56.9563 23.392C57.1483 23.392 57.2843 23.332 57.3643 23.212C57.4523 23.084 57.5043 22.94 57.5203 22.78C57.5443 22.612 57.5563 22.468 57.5563 22.348V18.04C57.5563 17.904 57.5483 17.752 57.5323 17.584C57.5163 17.408 57.4643 17.256 57.3763 17.128C57.2963 16.992 57.1563 16.924 56.9563 16.924C56.7563 16.924 56.6123 16.992 56.5243 17.128C56.4443 17.256 56.3963 17.408 56.3803 17.584C56.3643 17.752 56.3563 17.904 56.3563 18.04V22.348C56.3563 22.468 56.3683 22.612 56.3923 22.78C56.4163 22.94 56.4683 23.084 56.5483 23.212C56.6363 23.332 56.7723 23.392 56.9563 23.392ZM66.1922 25.12C65.6882 25.12 65.2562 25.028 64.8962 24.844C64.5442 24.66 64.2722 24.396 64.0802 24.052C63.8882 23.708 63.7922 23.292 63.7922 22.804V20.26C63.7922 19.764 63.8882 19.344 64.0802 19C64.2722 18.656 64.5442 18.396 64.8962 18.22C65.2562 18.036 65.6882 17.944 66.1922 17.944C66.6882 17.944 67.1082 18.02 67.4522 18.172C67.8042 18.324 68.0722 18.556 68.2562 18.868C68.4402 19.172 68.5322 19.56 68.5322 20.032V20.764H66.6482V19.972C66.6482 19.788 66.6282 19.648 66.5882 19.552C66.5562 19.448 66.5042 19.376 66.4322 19.336C66.3682 19.296 66.2882 19.276 66.1922 19.276C66.0962 19.276 66.0162 19.304 65.9522 19.36C65.8882 19.408 65.8402 19.492 65.8082 19.612C65.7762 19.724 65.7602 19.884 65.7602 20.092V22.972C65.7602 23.284 65.7962 23.496 65.8682 23.608C65.9482 23.72 66.0602 23.776 66.2042 23.776C66.3082 23.776 66.3922 23.756 66.4562 23.716C66.5202 23.668 66.5682 23.596 66.6002 23.5C66.6322 23.396 66.6482 23.26 66.6482 23.092V22.168H68.5322V23.008C68.5322 23.472 68.4362 23.864 68.2442 24.184C68.0602 24.496 67.7922 24.732 67.4402 24.892C67.0962 25.044 66.6802 25.12 66.1922 25.12ZM71.8175 25.12C71.3135 25.12 70.8815 25.032 70.5215 24.856C70.1615 24.672 69.8855 24.408 69.6935 24.064C69.5015 23.712 69.4055 23.292 69.4055 22.804V20.26C69.4055 19.764 69.5015 19.344 69.6935 19C69.8855 18.656 70.1615 18.396 70.5215 18.22C70.8895 18.036 71.3215 17.944 71.8175 17.944C72.3295 17.944 72.7535 18.032 73.0895 18.208C73.4335 18.384 73.6895 18.644 73.8575 18.988C74.0335 19.332 74.1215 19.756 74.1215 20.26V21.652H71.3375V22.984C71.3375 23.16 71.3575 23.304 71.3975 23.416C71.4375 23.528 71.4935 23.608 71.5655 23.656C71.6375 23.704 71.7215 23.728 71.8175 23.728C71.9135 23.728 71.9975 23.708 72.0695 23.668C72.1495 23.62 72.2095 23.548 72.2495 23.452C72.2975 23.356 72.3215 23.224 72.3215 23.056V22.324H74.1215V22.996C74.1215 23.7 73.9175 24.232 73.5095 24.592C73.1015 24.944 72.5375 25.12 71.8175 25.12ZM71.3375 20.74H72.3215V20.044C72.3215 19.86 72.2975 19.716 72.2495 19.612C72.2095 19.508 72.1495 19.436 72.0695 19.396C71.9975 19.356 71.9095 19.336 71.8055 19.336C71.7095 19.336 71.6255 19.36 71.5535 19.408C71.4895 19.456 71.4375 19.54 71.3975 19.66C71.3575 19.772 71.3375 19.936 71.3375 20.152V20.74ZM75.1862 25V18.064H77.1422V20.8H77.4302L78.4862 18.064H80.5862L79.2182 21.34L80.6222 25H78.5582L77.4302 21.928H77.1422V25H75.1862ZM81.2786 25V23.152H83.1266V25H81.2786Z"></path>
<circle fill="#33FF00" r="3" cy="6" cx="84"></circle>
</svg>
