<svg xmlns="http://www.w3.org/2000/svg" fill="none" viewBox="0 0 104 22" height="22" width="104">
<rect stroke="#0D0E12" fill="#0D0E12" height="21" width="103" y="0.5" x="0.5"></rect>
<path fill="white" d="M28.83 15.1C28.2367 15.1 27.77 15 27.43 14.8C27.09 14.6 26.85 14.3233 26.71 13.97C26.57 13.6167 26.5 13.2133 26.5 12.76V12.33H28.25V12.86C28.25 13.02 28.2567 13.1767 28.27 13.33C28.29 13.4767 28.34 13.5967 28.42 13.69C28.5067 13.7833 28.6433 13.83 28.83 13.83C29.0167 13.83 29.1533 13.7833 29.24 13.69C29.3267 13.59 29.38 13.4633 29.4 13.31C29.4267 13.15 29.44 12.9867 29.44 12.82V11.4H28.1V10.5H29.44V9.02C29.44 8.83333 29.4233 8.66667 29.39 8.52C29.3633 8.36667 29.3067 8.24667 29.22 8.16C29.1333 8.07333 29.0033 8.03 28.83 8.03C28.6433 8.03 28.51 8.08 28.43 8.18C28.35 8.27333 28.3 8.39667 28.28 8.55C28.26 8.69667 28.25 8.85333 28.25 9.02V9.58H26.5V9.18C26.5 8.72 26.5667 8.30667 26.7 7.94C26.84 7.57333 27.08 7.28667 27.42 7.08C27.76 6.86667 28.23 6.76 28.83 6.76C29.45 6.76 29.9367 6.87333 30.29 7.1C30.6433 7.32 30.8933 7.63333 31.04 8.04C31.1867 8.44 31.26 8.91667 31.26 9.47V12.38C31.26 12.94 31.1867 13.4233 31.04 13.83C30.8933 14.2367 30.6433 14.55 30.29 14.77C29.9367 14.99 29.45 15.1 28.83 15.1ZM32.382 15V6.9H34.172V10.11H34.352L35.542 6.9H37.322L35.842 10.7L37.372 15H35.532L34.352 11.47H34.172V15H32.382ZM40.3946 15.12C39.7813 15.12 39.2946 15.01 38.9346 14.79C38.5813 14.5633 38.3313 14.25 38.1846 13.85C38.0379 13.4433 37.9646 12.9667 37.9646 12.42V9.5C37.9646 8.94 38.0379 8.46 38.1846 8.06C38.3313 7.65333 38.5813 7.34 38.9346 7.12C39.2946 6.9 39.7813 6.79 40.3946 6.79C40.9946 6.79 41.4613 6.89 41.7946 7.09C42.1346 7.28333 42.3746 7.55667 42.5146 7.91C42.6546 8.26333 42.7246 8.67 42.7246 9.13V9.83H40.9746V9.02C40.9746 8.86 40.9646 8.70667 40.9446 8.56C40.9313 8.41333 40.8846 8.29333 40.8046 8.2C40.7246 8.1 40.5879 8.05 40.3946 8.05C40.2079 8.05 40.0679 8.1 39.9746 8.2C39.8879 8.3 39.8313 8.42667 39.8046 8.58C39.7846 8.72667 39.7746 8.88333 39.7746 9.05V12.86C39.7746 13.04 39.7879 13.2067 39.8146 13.36C39.8479 13.5067 39.9079 13.6267 39.9946 13.72C40.0879 13.8067 40.2213 13.85 40.3946 13.85C40.5813 13.85 40.7146 13.8033 40.7946 13.71C40.8746 13.61 40.9246 13.4833 40.9446 13.33C40.9646 13.1767 40.9746 13.02 40.9746 12.86V12.01H42.7246V12.71C42.7246 13.17 42.6546 13.5833 42.5146 13.95C42.3813 14.31 42.1446 14.5967 41.8046 14.81C41.4713 15.0167 41.0013 15.12 40.3946 15.12ZM43.7094 15V6.9H48.5594V15H46.7994V8.18H45.4694V15H43.7094ZM52.0841 15.12C51.4774 15.12 50.9974 15.0133 50.6441 14.8C50.2907 14.5867 50.0374 14.28 49.8841 13.88C49.7307 13.48 49.6541 13.0033 49.6541 12.45V9.44C49.6541 8.88 49.7307 8.40333 49.8841 8.01C50.0374 7.61667 50.2907 7.31667 50.6441 7.11C50.9974 6.89667 51.4774 6.79 52.0841 6.79C52.6974 6.79 53.1807 6.89667 53.5341 7.11C53.8941 7.31667 54.1507 7.61667 54.3041 8.01C54.4574 8.40333 54.5341 8.88 54.5341 9.44V12.45C54.5341 13.0033 54.4574 13.48 54.3041 13.88C54.1507 14.28 53.8941 14.5867 53.5341 14.8C53.1807 15.0133 52.6974 15.12 52.0841 15.12ZM52.0841 13.85C52.2707 13.85 52.4074 13.8033 52.4941 13.71C52.5807 13.6167 52.6374 13.4967 52.6641 13.35C52.6907 13.2033 52.7041 13.0533 52.7041 12.9V9C52.7041 8.84 52.6907 8.69 52.6641 8.55C52.6374 8.40333 52.5807 8.28333 52.4941 8.19C52.4074 8.09667 52.2707 8.05 52.0841 8.05C51.9107 8.05 51.7807 8.09667 51.6941 8.19C51.6074 8.28333 51.5507 8.40333 51.5241 8.55C51.4974 8.69 51.4841 8.84 51.4841 9V12.9C51.4841 13.0533 51.4941 13.2033 51.5141 13.35C51.5407 13.4967 51.5941 13.6167 51.6741 13.71C51.7607 13.8033 51.8974 13.85 52.0841 13.85ZM55.6234 15V6.9H58.3434C58.8301 6.9 59.2301 6.99333 59.5434 7.18C59.8568 7.36 60.0901 7.62667 60.2434 7.98C60.3968 8.32667 60.4734 8.75 60.4734 9.25C60.4734 9.87667 60.3701 10.3567 60.1634 10.69C59.9568 11.0167 59.6768 11.2433 59.3234 11.37C58.9701 11.4967 58.5734 11.56 58.1334 11.56H57.4134V15H55.6234ZM57.4134 10.31H58.0134C58.2334 10.31 58.4001 10.27 58.5134 10.19C58.6268 10.11 58.7001 9.99 58.7334 9.83C58.7734 9.67 58.7934 9.46667 58.7934 9.22C58.7934 9.01333 58.7768 8.83333 58.7434 8.68C58.7168 8.52 58.6468 8.39333 58.5334 8.3C58.4201 8.20667 58.2434 8.16 58.0034 8.16H57.4134V10.31ZM62.0663 15V8.23H60.8463V6.9H65.0763V8.23H63.8663V15H62.0663ZM68.378 15V6.9H69.788V11.54L71.858 6.9H73.018V15H71.578V10.28L69.468 15H68.378ZM74.2765 15V6.9H78.0265V8.23H76.0665V15H74.2765ZM78.8754 15V6.9H81.5954C82.0821 6.9 82.4821 6.99333 82.7954 7.18C83.1087 7.36 83.3421 7.62667 83.4954 7.98C83.6487 8.32667 83.7254 8.75 83.7254 9.25C83.7254 9.87667 83.6221 10.3567 83.4154 10.69C83.2087 11.0167 82.9287 11.2433 82.5754 11.37C82.2221 11.4967 81.8254 11.56 81.3854 11.56H80.6654V15H78.8754ZM80.6654 10.31H81.2654C81.4854 10.31 81.6521 10.27 81.7654 10.19C81.8787 10.11 81.9521 9.99 81.9854 9.83C82.0254 9.67 82.0454 9.46667 82.0454 9.22C82.0454 9.01333 82.0287 8.83333 81.9954 8.68C81.9687 8.52 81.8987 8.39333 81.7854 8.3C81.6721 8.20667 81.4954 8.16 81.2554 8.16H80.6654V10.31ZM84.6183 15V6.9H86.4083V10.32H86.8083C87.3216 10.32 87.7549 10.4033 88.1083 10.57C88.4683 10.7367 88.7383 10.9933 88.9183 11.34C89.1049 11.68 89.1983 12.12 89.1983 12.66C89.1983 13.1533 89.1316 13.5533 88.9983 13.86C88.8716 14.1667 88.6916 14.4033 88.4583 14.57C88.2249 14.7367 87.9549 14.85 87.6483 14.91C87.3416 14.97 87.0083 15 86.6483 15H84.6183ZM86.4083 13.83H86.6583C86.8849 13.83 87.0616 13.7867 87.1883 13.7C87.3216 13.6133 87.4149 13.48 87.4683 13.3C87.5283 13.12 87.5549 12.8933 87.5483 12.62C87.5416 12.32 87.4783 12.07 87.3583 11.87C87.2383 11.6633 86.9983 11.56 86.6383 11.56H86.4083V13.83ZM89.8783 15V6.9H91.6683V15H89.8783Z"></path>
<rect fill="white" rx="0.454271" height="0.908543" width="9.08543" y="15.0916" x="12"></rect>
<rect fill="white" transform="rotate(-45 12.9427 9.61523)" rx="0.479838" height="0.959676" width="5.1115" y="9.61523" x="12.9427"></rect>
<rect fill="white" transform="rotate(-135 19.4751 10.2737)" rx="0.47776" height="0.955519" width="5.0884" y="10.2737" x="19.4751"></rect>
<rect fill="white" transform="rotate(-90 16.0884 13.7285)" rx="0.454272" height="0.908543" width="7.26834" y="13.7285" x="16.0884"></rect>
<rect fill="white" transform="rotate(-90 12 16)" rx="0.454271" height="0.908543" width="4.08844" y="16" x="12"></rect>
<rect fill="white" transform="rotate(-90 20.1769 16)" rx="0.454271" height="0.908543" width="4.08844" y="16" x="20.1769"></rect>
</svg>
