<svg xmlns="http://www.w3.org/2000/svg" fill="none" viewBox="0 0 214 84" height="84" width="214">
<mask fill="white" id="path-1-inside-1_1461_18">
<path d="M0 0H214V84H0V0Z"></path>
</mask>
<path fill="#0D0E12" d="M0 0H214V84H0V0Z"></path>
<path mask="url(#path-1-inside-1_1461_18)" fill="white" d="M0 0V-1H-1V0H0ZM0 84H-1V85H0V84ZM0 1H214V-1H0V1ZM214 83H0V85H214V83ZM1 84V0H-1V84H1Z"></path>
<path fill="white" d="M19.504 38.144C18.768 38.144 18.184 38.012 17.752 37.748C17.328 37.476 17.028 37.1 16.852 36.62C16.676 36.132 16.588 35.56 16.588 34.904V31.4C16.588 30.728 16.676 30.152 16.852 29.672C17.028 29.184 17.328 28.808 17.752 28.544C18.184 28.28 18.768 28.148 19.504 28.148C20.224 28.148 20.784 28.268 21.184 28.508C21.592 28.74 21.88 29.068 22.048 29.492C22.216 29.916 22.3 30.404 22.3 30.956V31.796H20.2V30.824C20.2 30.632 20.188 30.448 20.164 30.272C20.148 30.096 20.092 29.952 19.996 29.84C19.9 29.72 19.736 29.66 19.504 29.66C19.28 29.66 19.112 29.72 19 29.84C18.896 29.96 18.828 30.112 18.796 30.296C18.772 30.472 18.76 30.66 18.76 30.86V35.432C18.76 35.648 18.776 35.848 18.808 36.032C18.848 36.208 18.92 36.352 19.024 36.464C19.136 36.568 19.296 36.62 19.504 36.62C19.728 36.62 19.888 36.564 19.984 36.452C20.08 36.332 20.14 36.18 20.164 35.996C20.188 35.812 20.2 35.624 20.2 35.432V34.412H22.3V35.252C22.3 35.804 22.216 36.3 22.048 36.74C21.888 37.172 21.604 37.516 21.196 37.772C20.796 38.02 20.232 38.144 19.504 38.144ZM26.2657 38.144C25.5377 38.144 24.9617 38.016 24.5377 37.76C24.1137 37.504 23.8097 37.136 23.6257 36.656C23.4417 36.176 23.3497 35.604 23.3497 34.94V31.328C23.3497 30.656 23.4417 30.084 23.6257 29.612C23.8097 29.14 24.1137 28.78 24.5377 28.532C24.9617 28.276 25.5377 28.148 26.2657 28.148C27.0017 28.148 27.5817 28.276 28.0057 28.532C28.4377 28.78 28.7457 29.14 28.9297 29.612C29.1137 30.084 29.2057 30.656 29.2057 31.328V34.94C29.2057 35.604 29.1137 36.176 28.9297 36.656C28.7457 37.136 28.4377 37.504 28.0057 37.76C27.5817 38.016 27.0017 38.144 26.2657 38.144ZM26.2657 36.62C26.4897 36.62 26.6537 36.564 26.7577 36.452C26.8617 36.34 26.9297 36.196 26.9617 36.02C26.9937 35.844 27.0097 35.664 27.0097 35.48V30.8C27.0097 30.608 26.9937 30.428 26.9617 30.26C26.9297 30.084 26.8617 29.94 26.7577 29.828C26.6537 29.716 26.4897 29.66 26.2657 29.66C26.0577 29.66 25.9017 29.716 25.7977 29.828C25.6937 29.94 25.6257 30.084 25.5937 30.26C25.5617 30.428 25.5457 30.608 25.5457 30.8V35.48C25.5457 35.664 25.5577 35.844 25.5817 36.02C25.6137 36.196 25.6777 36.34 25.7737 36.452C25.8777 36.564 26.0417 36.62 26.2657 36.62ZM33.297 38.144C32.569 38.144 31.993 38.016 31.569 37.76C31.145 37.504 30.841 37.136 30.657 36.656C30.473 36.176 30.381 35.604 30.381 34.94V31.328C30.381 30.656 30.473 30.084 30.657 29.612C30.841 29.14 31.145 28.78 31.569 28.532C31.993 28.276 32.569 28.148 33.297 28.148C34.033 28.148 34.613 28.276 35.037 28.532C35.469 28.78 35.777 29.14 35.961 29.612C36.145 30.084 36.237 30.656 36.237 31.328V34.94C36.237 35.604 36.145 36.176 35.961 36.656C35.777 37.136 35.469 37.504 35.037 37.76C34.613 38.016 34.033 38.144 33.297 38.144ZM33.297 36.62C33.521 36.62 33.685 36.564 33.789 36.452C33.893 36.34 33.961 36.196 33.993 36.02C34.025 35.844 34.041 35.664 34.041 35.48V30.8C34.041 30.608 34.025 30.428 33.993 30.26C33.961 30.084 33.893 29.94 33.789 29.828C33.685 29.716 33.521 29.66 33.297 29.66C33.089 29.66 32.933 29.716 32.829 29.828C32.725 29.94 32.657 30.084 32.625 30.26C32.593 30.428 32.577 30.608 32.577 30.8V35.48C32.577 35.664 32.589 35.844 32.613 36.02C32.645 36.196 32.709 36.34 32.805 36.452C32.909 36.564 33.073 36.62 33.297 36.62ZM37.5802 38V28.28H42.4042V29.912H39.7282V32.384H40.1842C40.8002 32.384 41.3202 32.484 41.7442 32.684C42.1762 32.884 42.5042 33.192 42.7282 33.608C42.9522 34.016 43.0642 34.544 43.0642 35.192C43.0642 35.784 42.9842 36.264 42.8242 36.632C42.6722 37 42.4562 37.284 42.1762 37.484C41.8962 37.684 41.5682 37.82 41.1922 37.892C40.8242 37.964 40.4242 38 39.9922 38H37.5802ZM39.7282 36.596H40.0042C40.2762 36.596 40.4922 36.544 40.6522 36.44C40.8122 36.336 40.9242 36.176 40.9882 35.96C41.0522 35.744 41.0802 35.472 41.0722 35.144C41.0642 34.784 40.9882 34.484 40.8442 34.244C40.7002 33.996 40.4122 33.872 39.9802 33.872H39.7282V36.596ZM52.3728 40.1L52.1208 38H44.2248V28.28H46.2528V36.548H47.4408V28.28H49.4568V36.548H50.5968V28.28H52.6248V36.548H53.9448V40.1H52.3728ZM55.1809 38V28.28H59.5489V29.744H57.3289V32.156H59.0209V33.644H57.3289V36.548H59.5729V38H55.1809ZM60.5841 38V28.28H62.7321V32.216H64.2321V28.28H66.3921V38H64.2321V33.752H62.7321V38H60.5841ZM67.9083 38V28.28H69.6003V33.848L72.0843 28.28H73.4763V38H71.7483V32.336L69.2163 38H67.9083ZM74.9505 38V28.28H79.3185V29.744H77.0985V32.156H78.7905V33.644H77.0985V36.548H79.3425V38H74.9505Z"></path>
<path fill="white" d="M16.53 57.23V56.36C16.8767 56.3933 17.1433 56.3933 17.33 56.36C17.5233 56.3267 17.6567 56.2567 17.73 56.15C17.81 56.05 17.85 55.9133 17.85 55.74C17.85 55.56 17.83 55.3467 17.79 55.1L16.19 47.9H17.26L17.94 51.35L18.35 53.92L18.71 51.37L19.32 47.9H20.4L18.95 55.12C18.8833 55.4467 18.8267 55.7333 18.78 55.98C18.74 56.2267 18.68 56.4367 18.6 56.61C18.5267 56.7833 18.4133 56.92 18.26 57.02C18.1067 57.12 17.89 57.1867 17.61 57.22C17.3367 57.2533 16.9767 57.2567 16.53 57.23ZM23.4366 56V47.9H25.2966C25.6633 47.9 25.98 47.94 26.2466 48.02C26.52 48.1 26.7466 48.2233 26.9266 48.39C27.1066 48.5567 27.24 48.77 27.3266 49.03C27.4133 49.2833 27.4566 49.5833 27.4566 49.93C27.4566 50.2633 27.4133 50.5533 27.3266 50.8C27.2466 51.04 27.12 51.23 26.9466 51.37C26.78 51.51 26.5633 51.6 26.2966 51.64C26.6233 51.7133 26.8866 51.84 27.0866 52.02C27.2866 52.1933 27.4333 52.42 27.5266 52.7C27.6266 52.9733 27.6766 53.3033 27.6766 53.69C27.6766 54.0367 27.6366 54.3533 27.5566 54.64C27.4766 54.9267 27.35 55.17 27.1766 55.37C27.01 55.57 26.7933 55.7267 26.5266 55.84C26.2666 55.9467 25.9566 56 25.5966 56H23.4366ZM24.5666 55.19H25.3266C25.8333 55.19 26.17 55.0733 26.3366 54.84C26.51 54.6 26.5966 54.2167 26.5966 53.69C26.5966 53.35 26.55 53.0667 26.4566 52.84C26.37 52.6067 26.2266 52.4333 26.0266 52.32C25.8333 52.2 25.57 52.14 25.2366 52.14H24.5666V55.19ZM24.5666 51.28H25.2366C25.5566 51.28 25.8066 51.2367 25.9866 51.15C26.1666 51.0567 26.2933 50.91 26.3666 50.71C26.44 50.51 26.4766 50.25 26.4766 49.93C26.4766 49.5567 26.42 49.2867 26.3066 49.12C26.1933 48.9533 26.0166 48.85 25.7766 48.81C25.5366 48.7633 25.2233 48.74 24.8366 48.74H24.5666V51.28ZM29.6308 56.08C29.4041 56.08 29.2041 56.0167 29.0308 55.89C28.8574 55.7567 28.7208 55.59 28.6208 55.39C28.5208 55.1833 28.4708 54.9667 28.4708 54.74C28.4708 54.38 28.5308 54.0767 28.6508 53.83C28.7708 53.5833 28.9341 53.3767 29.1408 53.21C29.3541 53.0367 29.5974 52.8867 29.8708 52.76C30.1508 52.6333 30.4441 52.51 30.7508 52.39V51.98C30.7508 51.7467 30.7374 51.5533 30.7108 51.4C30.6841 51.2467 30.6274 51.1333 30.5408 51.06C30.4608 50.98 30.3374 50.94 30.1708 50.94C30.0241 50.94 29.9041 50.9733 29.8108 51.04C29.7241 51.1067 29.6608 51.2033 29.6208 51.33C29.5808 51.45 29.5608 51.5933 29.5608 51.76V52.05L28.5008 52.01C28.5141 51.37 28.6608 50.9 28.9408 50.6C29.2208 50.2933 29.6541 50.14 30.2408 50.14C30.8141 50.14 31.2208 50.2967 31.4608 50.61C31.7008 50.9233 31.8208 51.3767 31.8208 51.97V54.61C31.8208 54.79 31.8241 54.9633 31.8308 55.13C31.8441 55.2967 31.8574 55.4533 31.8708 55.6C31.8908 55.74 31.9074 55.8733 31.9208 56H30.9408C30.9208 55.8933 30.8941 55.76 30.8608 55.6C30.8341 55.4333 30.8141 55.2833 30.8008 55.15C30.7341 55.3767 30.6041 55.59 30.4108 55.79C30.2241 55.9833 29.9641 56.08 29.6308 56.08ZM30.0508 55.16C30.1574 55.16 30.2574 55.13 30.3508 55.07C30.4441 55.01 30.5274 54.9433 30.6008 54.87C30.6741 54.79 30.7241 54.7267 30.7508 54.68V53.04C30.5841 53.1333 30.4274 53.2267 30.2808 53.32C30.1341 53.4133 30.0041 53.5133 29.8908 53.62C29.7841 53.72 29.6974 53.8367 29.6308 53.97C29.5708 54.0967 29.5408 54.2433 29.5408 54.41C29.5408 54.6433 29.5841 54.8267 29.6708 54.96C29.7574 55.0933 29.8841 55.16 30.0508 55.16ZM34.4286 56.08C33.9553 56.08 33.5953 55.9867 33.3486 55.8C33.1086 55.6067 32.9453 55.3367 32.8586 54.99C32.7786 54.6433 32.7386 54.24 32.7386 53.78V52.45C32.7386 51.9633 32.7819 51.55 32.8686 51.21C32.9553 50.8633 33.1186 50.6 33.3586 50.42C33.6053 50.2333 33.9619 50.14 34.4286 50.14C34.8486 50.14 35.1719 50.21 35.3986 50.35C35.6319 50.4833 35.7919 50.6867 35.8786 50.96C35.9653 51.2267 36.0086 51.56 36.0086 51.96V52.3H35.0386V51.95C35.0386 51.6967 35.0219 51.4967 34.9886 51.35C34.9553 51.2033 34.8953 51.0967 34.8086 51.03C34.7219 50.9633 34.5986 50.93 34.4386 50.93C34.2653 50.93 34.1319 50.97 34.0386 51.05C33.9453 51.13 33.8819 51.2667 33.8486 51.46C33.8219 51.6467 33.8086 51.9033 33.8086 52.23V54.05C33.8086 54.5433 33.8553 54.8733 33.9486 55.04C34.0419 55.2067 34.2086 55.29 34.4486 55.29C34.6286 55.29 34.7586 55.25 34.8386 55.17C34.9253 55.0833 34.9786 54.9633 34.9986 54.81C35.0253 54.6567 35.0386 54.4833 35.0386 54.29V53.82H36.0086V54.22C36.0086 54.6067 35.9619 54.94 35.8686 55.22C35.7819 55.5 35.6219 55.7133 35.3886 55.86C35.1619 56.0067 34.8419 56.08 34.4286 56.08ZM39.2451 56V50.22H40.1451V54.11L41.8851 50.22H42.7251V56H41.8451V52.08L40.1151 56H39.2451ZM43.4454 56.05V55.24C43.6454 55.24 43.8021 55.2 43.9154 55.12C44.0354 55.04 44.1254 54.9067 44.1854 54.72C44.2521 54.5267 44.3021 54.27 44.3354 53.95C44.3687 53.6233 44.3987 53.2167 44.4254 52.73L44.5554 50.22H47.5854V56H46.5154V51.03H45.4954L45.4054 52.73C45.3721 53.39 45.3221 53.9367 45.2554 54.37C45.1954 54.8033 45.0987 55.1433 44.9654 55.39C44.8321 55.63 44.6521 55.8 44.4254 55.9C44.2054 56 43.9187 56.05 43.5654 56.05H43.4454ZM48.6689 56V50.22H49.5689V54.11L51.3089 50.22H52.1489V56H51.2689V52.08L49.5389 56H48.6689ZM55.6144 56V47.9H57.4744C57.841 47.9 58.1577 47.94 58.4244 48.02C58.6977 48.1 58.9244 48.2233 59.1044 48.39C59.2844 48.5567 59.4177 48.77 59.5044 49.03C59.591 49.2833 59.6344 49.5833 59.6344 49.93C59.6344 50.2633 59.591 50.5533 59.5044 50.8C59.4244 51.04 59.2977 51.23 59.1244 51.37C58.9577 51.51 58.741 51.6 58.4744 51.64C58.801 51.7133 59.0644 51.84 59.2644 52.02C59.4644 52.1933 59.611 52.42 59.7044 52.7C59.8044 52.9733 59.8544 53.3033 59.8544 53.69C59.8544 54.0367 59.8144 54.3533 59.7344 54.64C59.6544 54.9267 59.5277 55.17 59.3544 55.37C59.1877 55.57 58.971 55.7267 58.7044 55.84C58.4444 55.9467 58.1344 56 57.7744 56H55.6144ZM56.7444 55.19H57.5044C58.011 55.19 58.3477 55.0733 58.5144 54.84C58.6877 54.6 58.7744 54.2167 58.7744 53.69C58.7744 53.35 58.7277 53.0667 58.6344 52.84C58.5477 52.6067 58.4044 52.4333 58.2044 52.32C58.011 52.2 57.7477 52.14 57.4144 52.14H56.7444V55.19ZM56.7444 51.28H57.4144C57.7344 51.28 57.9844 51.2367 58.1644 51.15C58.3444 51.0567 58.471 50.91 58.5444 50.71C58.6177 50.51 58.6544 50.25 58.6544 49.93C58.6544 49.5567 58.5977 49.2867 58.4844 49.12C58.371 48.9533 58.1944 48.85 57.9544 48.81C57.7144 48.7633 57.401 48.74 57.0144 48.74H56.7444V51.28ZM61.8085 56.08C61.5818 56.08 61.3818 56.0167 61.2085 55.89C61.0352 55.7567 60.8985 55.59 60.7985 55.39C60.6985 55.1833 60.6485 54.9667 60.6485 54.74C60.6485 54.38 60.7085 54.0767 60.8285 53.83C60.9485 53.5833 61.1118 53.3767 61.3185 53.21C61.5318 53.0367 61.7752 52.8867 62.0485 52.76C62.3285 52.6333 62.6218 52.51 62.9285 52.39V51.98C62.9285 51.7467 62.9152 51.5533 62.8885 51.4C62.8618 51.2467 62.8052 51.1333 62.7185 51.06C62.6385 50.98 62.5152 50.94 62.3485 50.94C62.2018 50.94 62.0818 50.9733 61.9885 51.04C61.9018 51.1067 61.8385 51.2033 61.7985 51.33C61.7585 51.45 61.7385 51.5933 61.7385 51.76V52.05L60.6785 52.01C60.6918 51.37 60.8385 50.9 61.1185 50.6C61.3985 50.2933 61.8318 50.14 62.4185 50.14C62.9918 50.14 63.3985 50.2967 63.6385 50.61C63.8785 50.9233 63.9985 51.3767 63.9985 51.97V54.61C63.9985 54.79 64.0018 54.9633 64.0085 55.13C64.0218 55.2967 64.0352 55.4533 64.0485 55.6C64.0685 55.74 64.0852 55.8733 64.0985 56H63.1185C63.0985 55.8933 63.0718 55.76 63.0385 55.6C63.0118 55.4333 62.9918 55.2833 62.9785 55.15C62.9118 55.3767 62.7818 55.59 62.5885 55.79C62.4018 55.9833 62.1418 56.08 61.8085 56.08ZM62.2285 55.16C62.3352 55.16 62.4352 55.13 62.5285 55.07C62.6218 55.01 62.7052 54.9433 62.7785 54.87C62.8518 54.79 62.9018 54.7267 62.9285 54.68V53.04C62.7618 53.1333 62.6052 53.2267 62.4585 53.32C62.3118 53.4133 62.1818 53.5133 62.0685 53.62C61.9618 53.72 61.8752 53.8367 61.8085 53.97C61.7485 54.0967 61.7185 54.2433 61.7185 54.41C61.7185 54.6433 61.7618 54.8267 61.8485 54.96C61.9352 55.0933 62.0618 55.16 62.2285 55.16ZM65.0263 56V50.22H66.0563V55.24H67.0763V50.22H68.1063V55.24H69.1263V50.22H70.1563V56H65.0263ZM72.8763 56.08C72.423 56.08 72.073 55.9933 71.8263 55.82C71.5797 55.64 71.4063 55.38 71.3063 55.04C71.213 54.6933 71.1663 54.27 71.1663 53.77V52.45C71.1663 51.9367 71.2163 51.51 71.3163 51.17C71.4163 50.83 71.5897 50.5733 71.8363 50.4C72.0897 50.2267 72.4363 50.14 72.8763 50.14C73.363 50.14 73.7197 50.24 73.9463 50.44C74.1797 50.64 74.333 50.93 74.4063 51.31C74.4797 51.6833 74.5163 52.1333 74.5163 52.66V53.13H72.2363V54.29C72.2363 54.5233 72.2563 54.7133 72.2963 54.86C72.343 55.0067 72.413 55.1167 72.5063 55.19C72.6063 55.2567 72.733 55.29 72.8863 55.29C73.0463 55.29 73.1663 55.2533 73.2463 55.18C73.333 55.1 73.3897 54.99 73.4163 54.85C73.4497 54.7033 73.4663 54.5333 73.4663 54.34V53.99H74.5063V54.21C74.5063 54.79 74.383 55.2467 74.1363 55.58C73.8897 55.9133 73.4697 56.08 72.8763 56.08ZM72.2363 52.55H73.4663V52.03C73.4663 51.79 73.453 51.59 73.4263 51.43C73.3997 51.2633 73.343 51.14 73.2563 51.06C73.1763 50.9733 73.0463 50.93 72.8663 50.93C72.693 50.93 72.5597 50.97 72.4663 51.05C72.3797 51.13 72.3197 51.2667 72.2863 51.46C72.253 51.6467 72.2363 51.9067 72.2363 52.24V52.55ZM75.4853 56V50.22H77.8153V50.99H76.5553V56H75.4853ZM79.9562 56.08C79.5295 56.08 79.1928 55.9933 78.9462 55.82C78.6995 55.6467 78.5228 55.4 78.4162 55.08C78.3162 54.76 78.2662 54.3833 78.2662 53.95V52.27C78.2662 51.8367 78.3162 51.46 78.4162 51.14C78.5228 50.82 78.6995 50.5733 78.9462 50.4C79.1928 50.2267 79.5295 50.14 79.9562 50.14C80.3828 50.14 80.7162 50.2267 80.9562 50.4C81.2028 50.5733 81.3762 50.82 81.4762 51.14C81.5828 51.46 81.6362 51.8367 81.6362 52.27V53.95C81.6362 54.3833 81.5828 54.76 81.4762 55.08C81.3762 55.4 81.2028 55.6467 80.9562 55.82C80.7162 55.9933 80.3828 56.08 79.9562 56.08ZM79.9562 55.29C80.1628 55.29 80.3062 55.23 80.3862 55.11C80.4728 54.99 80.5228 54.8333 80.5362 54.64C80.5562 54.44 80.5662 54.2333 80.5662 54.02V52.21C80.5662 51.99 80.5562 51.7833 80.5362 51.59C80.5228 51.3967 80.4728 51.24 80.3862 51.12C80.3062 50.9933 80.1628 50.93 79.9562 50.93C79.7495 50.93 79.6028 50.9933 79.5162 51.12C79.4295 51.24 79.3762 51.3967 79.3562 51.59C79.3428 51.7833 79.3362 51.99 79.3362 52.21V54.02C79.3362 54.2333 79.3428 54.44 79.3562 54.64C79.3762 54.8333 79.4295 54.99 79.5162 55.11C79.6028 55.23 79.7495 55.29 79.9562 55.29ZM86.4794 56.08C86.006 56.08 85.646 55.9867 85.3994 55.8C85.1594 55.6067 84.996 55.3367 84.9094 54.99C84.8294 54.6433 84.7894 54.24 84.7894 53.78V52.45C84.7894 51.9633 84.8327 51.55 84.9194 51.21C85.006 50.8633 85.1694 50.6 85.4094 50.42C85.656 50.2333 86.0127 50.14 86.4794 50.14C86.8994 50.14 87.2227 50.21 87.4494 50.35C87.6827 50.4833 87.8427 50.6867 87.9294 50.96C88.016 51.2267 88.0594 51.56 88.0594 51.96V52.3H87.0894V51.95C87.0894 51.6967 87.0727 51.4967 87.0394 51.35C87.006 51.2033 86.946 51.0967 86.8594 51.03C86.7727 50.9633 86.6494 50.93 86.4894 50.93C86.316 50.93 86.1827 50.97 86.0894 51.05C85.996 51.13 85.9327 51.2667 85.8994 51.46C85.8727 51.6467 85.8594 51.9033 85.8594 52.23V54.05C85.8594 54.5433 85.906 54.8733 85.9994 55.04C86.0927 55.2067 86.2594 55.29 86.4994 55.29C86.6794 55.29 86.8094 55.25 86.8894 55.17C86.976 55.0833 87.0294 54.9633 87.0494 54.81C87.076 54.6567 87.0894 54.4833 87.0894 54.29V53.82H88.0594V54.22C88.0594 54.6067 88.0127 54.94 87.9194 55.22C87.8327 55.5 87.6727 55.7133 87.4394 55.86C87.2127 56.0067 86.8927 56.08 86.4794 56.08ZM90.6007 56.08C90.174 56.08 89.8374 55.9933 89.5907 55.82C89.344 55.6467 89.1674 55.4 89.0607 55.08C88.9607 54.76 88.9107 54.3833 88.9107 53.95V52.27C88.9107 51.8367 88.9607 51.46 89.0607 51.14C89.1674 50.82 89.344 50.5733 89.5907 50.4C89.8374 50.2267 90.174 50.14 90.6007 50.14C91.0274 50.14 91.3607 50.2267 91.6007 50.4C91.8474 50.5733 92.0207 50.82 92.1207 51.14C92.2274 51.46 92.2807 51.8367 92.2807 52.27V53.95C92.2807 54.3833 92.2274 54.76 92.1207 55.08C92.0207 55.4 91.8474 55.6467 91.6007 55.82C91.3607 55.9933 91.0274 56.08 90.6007 56.08ZM90.6007 55.29C90.8074 55.29 90.9507 55.23 91.0307 55.11C91.1174 54.99 91.1674 54.8333 91.1807 54.64C91.2007 54.44 91.2107 54.2333 91.2107 54.02V52.21C91.2107 51.99 91.2007 51.7833 91.1807 51.59C91.1674 51.3967 91.1174 51.24 91.0307 51.12C90.9507 50.9933 90.8074 50.93 90.6007 50.93C90.394 50.93 90.2474 50.9933 90.1607 51.12C90.074 51.24 90.0207 51.3967 90.0007 51.59C89.9874 51.7833 89.9807 51.99 89.9807 52.21V54.02C89.9807 54.2333 89.9874 54.44 90.0007 54.64C90.0207 54.8333 90.074 54.99 90.1607 55.11C90.2474 55.23 90.394 55.29 90.6007 55.29ZM93.2588 56V50.22H96.6188V56H95.5488V51.03H94.3288V56H93.2588ZM99.3021 56.08C98.8488 56.08 98.4988 55.9933 98.2521 55.82C98.0054 55.64 97.8321 55.38 97.7321 55.04C97.6388 54.6933 97.5921 54.27 97.5921 53.77V52.45C97.5921 51.9367 97.6421 51.51 97.7421 51.17C97.8421 50.83 98.0154 50.5733 98.2621 50.4C98.5154 50.2267 98.8621 50.14 99.3021 50.14C99.7888 50.14 100.145 50.24 100.372 50.44C100.605 50.64 100.759 50.93 100.832 51.31C100.905 51.6833 100.942 52.1333 100.942 52.66V53.13H98.6621V54.29C98.6621 54.5233 98.6821 54.7133 98.7221 54.86C98.7688 55.0067 98.8388 55.1167 98.9321 55.19C99.0321 55.2567 99.1588 55.29 99.3121 55.29C99.4721 55.29 99.5921 55.2533 99.6721 55.18C99.7588 55.1 99.8154 54.99 99.8421 54.85C99.8754 54.7033 99.8921 54.5333 99.8921 54.34V53.99H100.932V54.21C100.932 54.79 100.809 55.2467 100.562 55.58C100.315 55.9133 99.8954 56.08 99.3021 56.08ZM98.6621 52.55H99.8921V52.03C99.8921 51.79 99.8788 51.59 99.8521 51.43C99.8254 51.2633 99.7688 51.14 99.6821 51.06C99.6021 50.9733 99.4721 50.93 99.2921 50.93C99.1188 50.93 98.9854 50.97 98.8921 51.05C98.8054 51.13 98.7454 51.2667 98.7121 51.46C98.6788 51.6467 98.6621 51.9067 98.6621 52.24V52.55ZM101.911 57.9V50.22H102.981V50.68C103.108 50.5333 103.261 50.4067 103.441 50.3C103.621 50.1933 103.834 50.14 104.081 50.14C104.381 50.14 104.618 50.22 104.791 50.38C104.971 50.5333 105.104 50.73 105.191 50.97C105.278 51.2033 105.334 51.4433 105.361 51.69C105.388 51.93 105.401 52.1367 105.401 52.31V53.71C105.401 54.1167 105.361 54.5033 105.281 54.87C105.201 55.23 105.054 55.5233 104.841 55.75C104.634 55.97 104.341 56.08 103.961 56.08C103.754 56.08 103.571 56.03 103.411 55.93C103.251 55.8233 103.108 55.7033 102.981 55.57V57.9H101.911ZM103.751 55.24C103.938 55.24 104.071 55.1733 104.151 55.04C104.231 54.9 104.281 54.7133 104.301 54.48C104.321 54.2467 104.331 53.99 104.331 53.71V52.31C104.331 52.07 104.318 51.85 104.291 51.65C104.264 51.4433 104.208 51.28 104.121 51.16C104.034 51.04 103.898 50.98 103.711 50.98C103.571 50.98 103.438 51.01 103.311 51.07C103.184 51.13 103.074 51.2 102.981 51.28V54.98C103.081 55.0533 103.194 55.1167 103.321 55.17C103.448 55.2167 103.591 55.24 103.751 55.24ZM106.374 56V50.22H107.444V52.65H108.814V50.22H109.884V56H108.814V53.43H107.444V56H106.374ZM110.964 56V50.22H111.864V54.11L113.604 50.22H114.444V56H113.564V52.08L111.834 56H110.964ZM115.534 56V50.22H116.604V52.66H116.904L117.994 50.22H119.094L117.884 53.02L119.114 56H117.994L116.904 53.3H116.604V56H115.534ZM120.725 56.08C120.498 56.08 120.298 56.0167 120.125 55.89C119.951 55.7567 119.815 55.59 119.715 55.39C119.615 55.1833 119.565 54.9667 119.565 54.74C119.565 54.38 119.625 54.0767 119.745 53.83C119.865 53.5833 120.028 53.3767 120.235 53.21C120.448 53.0367 120.691 52.8867 120.965 52.76C121.245 52.6333 121.538 52.51 121.845 52.39V51.98C121.845 51.7467 121.831 51.5533 121.805 51.4C121.778 51.2467 121.721 51.1333 121.635 51.06C121.555 50.98 121.431 50.94 121.265 50.94C121.118 50.94 120.998 50.9733 120.905 51.04C120.818 51.1067 120.755 51.2033 120.715 51.33C120.675 51.45 120.655 51.5933 120.655 51.76V52.05L119.595 52.01C119.608 51.37 119.755 50.9 120.035 50.6C120.315 50.2933 120.748 50.14 121.335 50.14C121.908 50.14 122.315 50.2967 122.555 50.61C122.795 50.9233 122.915 51.3767 122.915 51.97V54.61C122.915 54.79 122.918 54.9633 122.925 55.13C122.938 55.2967 122.951 55.4533 122.965 55.6C122.985 55.74 123.001 55.8733 123.015 56H122.035C122.015 55.8933 121.988 55.76 121.955 55.6C121.928 55.4333 121.908 55.2833 121.895 55.15C121.828 55.3767 121.698 55.59 121.505 55.79C121.318 55.9833 121.058 56.08 120.725 56.08ZM121.145 55.16C121.251 55.16 121.351 55.13 121.445 55.07C121.538 55.01 121.621 54.9433 121.695 54.87C121.768 54.79 121.818 54.7267 121.845 54.68V53.04C121.678 53.1333 121.521 53.2267 121.375 53.32C121.228 53.4133 121.098 53.5133 120.985 53.62C120.878 53.72 120.791 53.8367 120.725 53.97C120.665 54.0967 120.635 54.2433 120.635 54.41C120.635 54.6433 120.678 54.8267 120.765 54.96C120.851 55.0933 120.978 55.16 121.145 55.16ZM126.228 56V50.22H129.588V56H128.518V51.03H127.298V56H126.228ZM130.671 57.9V50.22H131.741V50.68C131.868 50.5333 132.021 50.4067 132.201 50.3C132.381 50.1933 132.594 50.14 132.841 50.14C133.141 50.14 133.378 50.22 133.551 50.38C133.731 50.5333 133.864 50.73 133.951 50.97C134.038 51.2033 134.094 51.4433 134.121 51.69C134.148 51.93 134.161 52.1367 134.161 52.31V53.71C134.161 54.1167 134.121 54.5033 134.041 54.87C133.961 55.23 133.814 55.5233 133.601 55.75C133.394 55.97 133.101 56.08 132.721 56.08C132.514 56.08 132.331 56.03 132.171 55.93C132.011 55.8233 131.868 55.7033 131.741 55.57V57.9H130.671ZM132.511 55.24C132.698 55.24 132.831 55.1733 132.911 55.04C132.991 54.9 133.041 54.7133 133.061 54.48C133.081 54.2467 133.091 53.99 133.091 53.71V52.31C133.091 52.07 133.078 51.85 133.051 51.65C133.024 51.4433 132.968 51.28 132.881 51.16C132.794 51.04 132.658 50.98 132.471 50.98C132.331 50.98 132.198 51.01 132.071 51.07C131.944 51.13 131.834 51.2 131.741 51.28V54.98C131.841 55.0533 131.954 55.1167 132.081 55.17C132.208 55.2167 132.351 55.24 132.511 55.24ZM136.724 56.08C136.297 56.08 135.96 55.9933 135.714 55.82C135.467 55.6467 135.29 55.4 135.184 55.08C135.084 54.76 135.034 54.3833 135.034 53.95V52.27C135.034 51.8367 135.084 51.46 135.184 51.14C135.29 50.82 135.467 50.5733 135.714 50.4C135.96 50.2267 136.297 50.14 136.724 50.14C137.15 50.14 137.484 50.2267 137.724 50.4C137.97 50.5733 138.144 50.82 138.244 51.14C138.35 51.46 138.404 51.8367 138.404 52.27V53.95C138.404 54.3833 138.35 54.76 138.244 55.08C138.144 55.4 137.97 55.6467 137.724 55.82C137.484 55.9933 137.15 56.08 136.724 56.08ZM136.724 55.29C136.93 55.29 137.074 55.23 137.154 55.11C137.24 54.99 137.29 54.8333 137.304 54.64C137.324 54.44 137.334 54.2333 137.334 54.02V52.21C137.334 51.99 137.324 51.7833 137.304 51.59C137.29 51.3967 137.24 51.24 137.154 51.12C137.074 50.9933 136.93 50.93 136.724 50.93C136.517 50.93 136.37 50.9933 136.284 51.12C136.197 51.24 136.144 51.3967 136.124 51.59C136.11 51.7833 136.104 51.99 136.104 52.21V54.02C136.104 54.2333 136.11 54.44 136.124 54.64C136.144 54.8333 136.197 54.99 136.284 55.11C136.37 55.23 136.517 55.29 136.724 55.29ZM139.382 56V50.22H142.742V56H141.672V51.03H140.452V56H139.382ZM144.865 56.08C144.638 56.08 144.438 56.0167 144.265 55.89C144.092 55.7567 143.955 55.59 143.855 55.39C143.755 55.1833 143.705 54.9667 143.705 54.74C143.705 54.38 143.765 54.0767 143.885 53.83C144.005 53.5833 144.168 53.3767 144.375 53.21C144.588 53.0367 144.832 52.8867 145.105 52.76C145.385 52.6333 145.678 52.51 145.985 52.39V51.98C145.985 51.7467 145.972 51.5533 145.945 51.4C145.918 51.2467 145.862 51.1333 145.775 51.06C145.695 50.98 145.572 50.94 145.405 50.94C145.258 50.94 145.138 50.9733 145.045 51.04C144.958 51.1067 144.895 51.2033 144.855 51.33C144.815 51.45 144.795 51.5933 144.795 51.76V52.05L143.735 52.01C143.748 51.37 143.895 50.9 144.175 50.6C144.455 50.2933 144.888 50.14 145.475 50.14C146.048 50.14 146.455 50.2967 146.695 50.61C146.935 50.9233 147.055 51.3767 147.055 51.97V54.61C147.055 54.79 147.058 54.9633 147.065 55.13C147.078 55.2967 147.092 55.4533 147.105 55.6C147.125 55.74 147.142 55.8733 147.155 56H146.175C146.155 55.8933 146.128 55.76 146.095 55.6C146.068 55.4333 146.048 55.2833 146.035 55.15C145.968 55.3767 145.838 55.59 145.645 55.79C145.458 55.9833 145.198 56.08 144.865 56.08ZM145.285 55.16C145.392 55.16 145.492 55.13 145.585 55.07C145.678 55.01 145.762 54.9433 145.835 54.87C145.908 54.79 145.958 54.7267 145.985 54.68V53.04C145.818 53.1333 145.662 53.2267 145.515 53.32C145.368 53.4133 145.238 53.5133 145.125 53.62C145.018 53.72 144.932 53.8367 144.865 53.97C144.805 54.0967 144.775 54.2433 144.775 54.41C144.775 54.6433 144.818 54.8267 144.905 54.96C144.992 55.0933 145.118 55.16 145.285 55.16ZM147.713 56.05V55.24C147.913 55.24 148.07 55.2 148.183 55.12C148.303 55.04 148.393 54.9067 148.453 54.72C148.52 54.5267 148.57 54.27 148.603 53.95C148.636 53.6233 148.666 53.2167 148.693 52.73L148.823 50.22H151.853V56H150.783V51.03H149.763L149.673 52.73C149.64 53.39 149.59 53.9367 149.523 54.37C149.463 54.8033 149.366 55.1433 149.233 55.39C149.1 55.63 148.92 55.8 148.693 55.9C148.473 56 148.186 56.05 147.833 56.05H147.713ZM155.312 56V47.9H156.312V53.51L158.682 47.9H159.492V56H158.502V50.3L156.152 56H155.312ZM160.671 56V50.22H161.741V52.65H163.111V50.22H164.181V56H163.111V53.43H161.741V56H160.671ZM165.911 56V51.02H164.831V50.22H168.071V51.02H166.981V56H165.911ZM170.259 56.08C169.806 56.08 169.456 55.9933 169.209 55.82C168.962 55.64 168.789 55.38 168.689 55.04C168.596 54.6933 168.549 54.27 168.549 53.77V52.45C168.549 51.9367 168.599 51.51 168.699 51.17C168.799 50.83 168.972 50.5733 169.219 50.4C169.472 50.2267 169.819 50.14 170.259 50.14C170.746 50.14 171.102 50.24 171.329 50.44C171.562 50.64 171.716 50.93 171.789 51.31C171.862 51.6833 171.899 52.1333 171.899 52.66V53.13H169.619V54.29C169.619 54.5233 169.639 54.7133 169.679 54.86C169.726 55.0067 169.796 55.1167 169.889 55.19C169.989 55.2567 170.116 55.29 170.269 55.29C170.429 55.29 170.549 55.2533 170.629 55.18C170.716 55.1 170.772 54.99 170.799 54.85C170.832 54.7033 170.849 54.5333 170.849 54.34V53.99H171.889V54.21C171.889 54.79 171.766 55.2467 171.519 55.58C171.272 55.9133 170.852 56.08 170.259 56.08ZM169.619 52.55H170.849V52.03C170.849 51.79 170.836 51.59 170.809 51.43C170.782 51.2633 170.726 51.14 170.639 51.06C170.559 50.9733 170.429 50.93 170.249 50.93C170.076 50.93 169.942 50.97 169.849 51.05C169.762 51.13 169.702 51.2667 169.669 51.46C169.636 51.6467 169.619 51.9067 169.619 52.24V52.55ZM172.868 57.9V50.22H173.938V50.68C174.065 50.5333 174.218 50.4067 174.398 50.3C174.578 50.1933 174.791 50.14 175.038 50.14C175.338 50.14 175.575 50.22 175.748 50.38C175.928 50.5333 176.061 50.73 176.148 50.97C176.235 51.2033 176.291 51.4433 176.318 51.69C176.345 51.93 176.358 52.1367 176.358 52.31V53.71C176.358 54.1167 176.318 54.5033 176.238 54.87C176.158 55.23 176.011 55.5233 175.798 55.75C175.591 55.97 175.298 56.08 174.918 56.08C174.711 56.08 174.528 56.03 174.368 55.93C174.208 55.8233 174.065 55.7033 173.938 55.57V57.9H172.868ZM174.708 55.24C174.895 55.24 175.028 55.1733 175.108 55.04C175.188 54.9 175.238 54.7133 175.258 54.48C175.278 54.2467 175.288 53.99 175.288 53.71V52.31C175.288 52.07 175.275 51.85 175.248 51.65C175.221 51.4433 175.165 51.28 175.078 51.16C174.991 51.04 174.855 50.98 174.668 50.98C174.528 50.98 174.395 51.01 174.268 51.07C174.141 51.13 174.031 51.2 173.938 51.28V54.98C174.038 55.0533 174.151 55.1167 174.278 55.17C174.405 55.2167 174.548 55.24 174.708 55.24ZM177.331 56V50.22H178.401V52.65H179.771V50.22H180.841V56H179.771V53.43H178.401V56H177.331ZM183.521 56.08C183.068 56.08 182.718 55.9933 182.471 55.82C182.224 55.64 182.051 55.38 181.951 55.04C181.858 54.6933 181.811 54.27 181.811 53.77V52.45C181.811 51.9367 181.861 51.51 181.961 51.17C182.061 50.83 182.234 50.5733 182.481 50.4C182.734 50.2267 183.081 50.14 183.521 50.14C184.008 50.14 184.364 50.24 184.591 50.44C184.824 50.64 184.978 50.93 185.051 51.31C185.124 51.6833 185.161 52.1333 185.161 52.66V53.13H182.881V54.29C182.881 54.5233 182.901 54.7133 182.941 54.86C182.988 55.0067 183.058 55.1167 183.151 55.19C183.251 55.2567 183.378 55.29 183.531 55.29C183.691 55.29 183.811 55.2533 183.891 55.18C183.978 55.1 184.034 54.99 184.061 54.85C184.094 54.7033 184.111 54.5333 184.111 54.34V53.99H185.151V54.21C185.151 54.79 185.028 55.2467 184.781 55.58C184.534 55.9133 184.114 56.08 183.521 56.08ZM182.881 52.55H184.111V52.03C184.111 51.79 184.098 51.59 184.071 51.43C184.044 51.2633 183.988 51.14 183.901 51.06C183.821 50.9733 183.691 50.93 183.511 50.93C183.338 50.93 183.204 50.97 183.111 51.05C183.024 51.13 182.964 51.2667 182.931 51.46C182.898 51.6467 182.881 51.9067 182.881 52.24V52.55ZM186.741 56V51.02H185.661V50.22H188.901V51.02H187.811V56H186.741ZM189.498 56V54.81H190.568V56H189.498ZM191.383 56V54.81H192.453V56H191.383ZM193.267 56V54.81H194.337V56H193.267Z"></path>
</svg>
