<svg xmlns="http://www.w3.org/2000/svg" fill="none" viewBox="0 0 90 22" height="22" width="90">
<rect stroke="#0D0E12" fill="white" height="21" width="89" y="0.5" x="0.5"></rect>
<path fill="#0D0E12" d="M38.92 15.12C38.3133 15.12 37.8333 15.0133 37.48 14.8C37.1267 14.5867 36.8733 14.28 36.72 13.88C36.5667 13.48 36.49 13.0033 36.49 12.45V9.44C36.49 8.88 36.5667 8.40333 36.72 8.01C36.8733 7.61667 37.1267 7.31667 37.48 7.11C37.8333 6.89667 38.3133 6.79 38.92 6.79C39.5333 6.79 40.0167 6.89667 40.37 7.11C40.73 7.31667 40.9867 7.61667 41.14 8.01C41.2933 8.40333 41.37 8.88 41.37 9.44V12.45C41.37 13.0033 41.2933 13.48 41.14 13.88C40.9867 14.28 40.73 14.5867 40.37 14.8C40.0167 15.0133 39.5333 15.12 38.92 15.12ZM38.92 13.85C39.1067 13.85 39.2433 13.8033 39.33 13.71C39.4167 13.6167 39.4733 13.4967 39.5 13.35C39.5267 13.2033 39.54 13.0533 39.54 12.9V9C39.54 8.84 39.5267 8.69 39.5 8.55C39.4733 8.40333 39.4167 8.28333 39.33 8.19C39.2433 8.09667 39.1067 8.05 38.92 8.05C38.7467 8.05 38.6167 8.09667 38.53 8.19C38.4433 8.28333 38.3867 8.40333 38.36 8.55C38.3333 8.69 38.32 8.84 38.32 9V12.9C38.32 13.0533 38.33 13.2033 38.35 13.35C38.3767 13.4967 38.43 13.6167 38.51 13.71C38.5967 13.8033 38.7333 13.85 38.92 13.85ZM43.1894 15V8.23H41.9694V6.9H46.1994V8.23H44.9894V15H43.1894ZM46.8825 15L47.0225 6.9H48.9425L49.8325 11.61L50.7925 6.9H52.6425L52.7825 15H51.5125L51.3625 9.61L50.4225 15H49.2925L48.2925 9.57L48.1725 15H46.8825ZM53.9535 15V6.9H57.5935V8.12H55.7435V10.13H57.1535V11.37H55.7435V13.79H57.6135V15H53.9535ZM58.4562 15V6.9H60.2462V10.18H61.4962V6.9H63.2962V15H61.4962V11.46H60.2462V15H58.4562ZM64.1397 15L65.6697 6.9H67.7097L69.2197 15H67.5697L67.2997 13.29H66.1097L65.8297 15H64.1397ZM66.2697 12.22H67.1297L66.6997 9.06L66.2697 12.22Z"></path>
<path fill="#0D0E12" d="M20.7071 6.70708C21.0976 6.31656 21.7308 6.31656 22.1213 6.70708L29.1924 13.7782C29.5829 14.1687 29.5829 14.8018 29.1924 15.1924V15.1924C28.8018 15.5829 28.1687 15.5829 27.7782 15.1924L20.7071 8.1213C20.3166 7.73077 20.3166 7.09761 20.7071 6.70708V6.70708Z"></path>
<path fill="#0D0E12" d="M20.7071 15.2428C20.3166 14.8523 20.3166 14.2191 20.7071 13.8286L27.7782 6.75749C28.1687 6.36697 28.8019 6.36697 29.1924 6.75749V6.75749C29.5829 7.14802 29.5829 7.78118 29.1924 8.17171L22.1213 15.2428C21.7308 15.6333 21.0976 15.6333 20.7071 15.2428V15.2428Z"></path>
</svg>
