<svg xmlns="http://www.w3.org/2000/svg" fill="none" viewBox="0 0 27 34" height="34" width="27">
<path stroke="#0D0E12" fill="white" d="M14.0111 3.42031C18.3192 3.49696 22.4815 3.88666 25.5 4.86001V9.0001H1.5V4.86068C4.58773 3.87614 9.71803 3.34392 14.0111 3.42031Z"></path>
<path stroke="#0D0E12" fill="white" d="M1.53999 29.1864C2.16399 24.0261 6.21999 28.2433 6.21999 19.5766V15.8934C6.21999 14.1877 5.19443 12.6493 3.61999 11.9933L3.04179 11.7524C1.81748 11.2422 1.01999 10.046 1.01999 8.71962C1.01999 8.0306 1.26795 7.35748 1.91596 7.12335C5.93278 5.67207 21.0671 5.67212 25.084 7.12337C25.732 7.35749 25.98 8.03062 25.98 8.71964C25.98 10.046 25.1825 11.2422 23.9582 11.7524L23.38 11.9933C21.8056 12.6493 20.78 14.1877 20.78 15.8934V19.5766C20.78 28.2433 24.836 24.1663 25.46 29.3266V30.4253C25.46 31.1293 25.2646 31.8408 24.6096 32.0991C20.835 33.5876 6.15406 33.4828 2.38665 31.9491C1.73455 31.6836 1.53999 30.9726 1.53999 30.2685V29.1864Z"></path>
<path stroke-linecap="round" stroke="#0D0E12" d="M5.18002 28.2433C6.74002 29.8683 20.26 29.8683 21.82 28.2433"></path>
<path stroke-linecap="round" stroke="#0D0E12" d="M20.78 11.4517C18.7 10.91 8.30002 10.91 6.22002 11.4517"></path>
<path fill="white" d="M4 6.81386C2.64285 7.20012 1.61948 7.75946 1 8.562V3.09211C1.6818 2.62755 2.68787 2.22304 4 1.89676V6.81386ZM24.5 7.21705V2.35163C23.163 1.85594 21.3172 1.47464 19 1.24531V6.16006C21.299 6.32679 23.1765 6.64602 24.5 7.21705ZM14 6.00089V1.00172C13.8348 1.00058 13.6681 1 13.5 1C11.4475 1 9.61 1.08597 8 1.24531V6.17199C9.63582 6.04143 11.4851 6 13.5 6C13.6678 6 13.8345 6.00029 14 6.00089Z" clip-rule="evenodd" fill-rule="evenodd"></path>
<path fill="black" d="M1 8.562H0.5V10.028L1.3958 8.86751L1 8.562ZM4 6.81386L4.13687 7.29477L4.5 7.19142V6.81386H4ZM1 3.09211L0.718459 2.6789L0.5 2.82776V3.09211H1ZM4 1.89676H4.5V1.2572L3.87934 1.41153L4 1.89676ZM24.5 2.35163H25V2.00376L24.6738 1.88282L24.5 2.35163ZM24.5 7.21705L24.3019 7.67614L25 7.97733V7.21705H24.5ZM19 1.24531L19.0492 0.747742L18.5 0.693384V1.24531H19ZM19 6.16006H18.5V6.62512L18.9638 6.65875L19 6.16006ZM14 1.00172H14.5V0.505181L14.0035 0.501735L14 1.00172ZM14 6.00089L13.9982 6.50088L14.5 6.50269V6.00089H14ZM8 1.24531L7.95076 0.747742L7.5 0.792352V1.24531H8ZM8 6.17199H7.5V6.71348L8.03978 6.6704L8 6.17199ZM1.3958 8.86751C1.92159 8.18635 2.82652 7.6677 4.13687 7.29477L3.86313 6.33296C2.45919 6.73254 1.31737 7.33256 0.604199 8.25648L1.3958 8.86751ZM0.5 3.09211V8.562H1.5V3.09211H0.5ZM3.87934 1.41153C2.53973 1.74464 1.4695 2.16717 0.718459 2.6789L1.28154 3.50531C1.89411 3.08793 2.836 2.70143 4.12066 2.38198L3.87934 1.41153ZM4.5 6.81386V1.89676H3.5V6.81386H4.5ZM24 2.35163V7.21705H25V2.35163H24ZM18.9508 1.74288C21.2453 1.96997 23.0446 2.34528 24.3262 2.82045L24.6738 1.88282C23.2815 1.36659 21.389 0.979305 19.0492 0.747742L18.9508 1.74288ZM19.5 6.16006V1.24531H18.5V6.16006H19.5ZM24.6981 6.75796C23.2944 6.15235 21.3475 5.829 19.0362 5.66137L18.9638 6.65875C21.2505 6.82459 23.0585 7.13968 24.3019 7.67614L24.6981 6.75796ZM13.5 1.00172V6.00089H14.5V1.00172H13.5ZM13.5 1.5C13.667 1.5 13.8325 1.50057 13.9965 1.50171L14.0035 0.501735C13.8371 0.500581 13.6693 0.5 13.5 0.5V1.5ZM8.04924 1.74288C9.64021 1.58542 11.4611 1.5 13.5 1.5V0.5C11.434 0.5 9.5798 0.586518 7.95076 0.747742L8.04924 1.74288ZM8.5 6.17199V1.24531H7.5V6.17199H8.5ZM13.5 5.5C11.48 5.5 9.61548 5.54146 7.96022 5.67357L8.03978 6.6704C9.65616 6.5414 11.4902 6.5 13.5 6.5V5.5ZM14.0018 5.50089C13.8357 5.50029 13.6684 5.5 13.5 5.5V6.5C13.6673 6.5 13.8333 6.50029 13.9982 6.50088L14.0018 5.50089Z"></path>
</svg>
