<svg xmlns="http://www.w3.org/2000/svg" fill="none" viewBox="0 0 12 12" height="12" width="12">
<circle stroke-width="0.5" stroke="#0D0E12" fill="#FDCD4D" r="5" cy="6" cx="6"></circle>
<path fill="white" d="M5.75 5.25C5.75 5.80228 5.30228 6.25 4.75 6.25C4.19772 6.25 3.75 5.80228 3.75 5.25C3.75 4.69772 4.19772 4.25 4.75 4.25C5.30228 4.25 5.75 4.69772 5.75 5.25Z"></path>
<path fill="#0D0E12" d="M5.25 5.25C5.25 5.52614 5.02614 5.75 4.75 5.75C4.47386 5.75 4.25 5.52614 4.25 5.25C4.25 4.97386 4.47386 4.75 4.75 4.75C5.02614 4.75 5.25 4.97386 5.25 5.25Z"></path>
<path fill="white" d="M4.75 4.75C4.75 4.88807 4.63807 5 4.5 5C4.36193 5 4.25 4.88807 4.25 4.75C4.25 4.61193 4.36193 4.5 4.5 4.5C4.63807 4.5 4.75 4.61193 4.75 4.75Z"></path>
<path fill="white" d="M8.25 5.25C8.25 5.80228 7.80228 6.25 7.25 6.25C6.69772 6.25 6.25 5.80228 6.25 5.25C6.25 4.69772 6.69772 4.25 7.25 4.25C7.80228 4.25 8.25 4.69772 8.25 5.25Z"></path>
<path fill="#0D0E12" d="M7.75 5.25C7.75 5.52614 7.52614 5.75 7.25 5.75C6.97386 5.75 6.75 5.52614 6.75 5.25C6.75 4.97386 6.97386 4.75 7.25 4.75C7.52614 4.75 7.75 4.97386 7.75 5.25Z"></path>
<path fill="white" d="M7.25 4.75C7.25 4.88807 7.13807 5 7 5C6.86193 5 6.75 4.88807 6.75 4.75C6.75 4.61193 6.86193 4.5 7 4.5C7.13807 4.5 7.25 4.61193 7.25 4.75Z"></path>
<path stroke-linecap="round" stroke-width="0.5" stroke="#D29B09" d="M3.5 3.99999C4.12519 3.53707 4.75 3.5 5.5 3.5"></path>
<path stroke-linecap="round" stroke-width="0.5" stroke="#D29B09" d="M8.5 4C7.87481 3.53707 7.25 3.5 6.5 3.5"></path>
<rect stroke-width="0.5" stroke="#0D0E12" fill="white" rx="1" height="2" width="6" y="7.5" x="3"></rect>
</svg>
