<svg xmlns="http://www.w3.org/2000/svg" fill="none" viewBox="0 0 214 84" height="84" width="214">
<mask fill="white" id="path-1-inside-1_1359_2">
<path d="M0 0H214V84H0V0Z"></path>
</mask>
<path fill="#0D0E12" d="M0 0H214V84H0V0Z"></path>
<path mask="url(#path-1-inside-1_1359_2)" fill="white" d="M0 0V-1H-1V0H0ZM0 84H-1V85H0V84ZM0 1H214V-1H0V1ZM214 83H0V85H214V83ZM1 84V0H-1V84H1Z"></path>
<path fill="#FF0000" d="M16.72 38V28.28H18.868V36.548H21.1V38H16.72ZM24.672 38.144C23.944 38.144 23.368 38.016 22.944 37.76C22.52 37.504 22.216 37.136 22.032 36.656C21.848 36.176 21.756 35.604 21.756 34.94V31.328C21.756 30.656 21.848 30.084 22.032 29.612C22.216 29.14 22.52 28.78 22.944 28.532C23.368 28.276 23.944 28.148 24.672 28.148C25.408 28.148 25.988 28.276 26.412 28.532C26.844 28.78 27.152 29.14 27.336 29.612C27.52 30.084 27.612 30.656 27.612 31.328V34.94C27.612 35.604 27.52 36.176 27.336 36.656C27.152 37.136 26.844 37.504 26.412 37.76C25.988 38.016 25.408 38.144 24.672 38.144ZM24.672 36.62C24.896 36.62 25.06 36.564 25.164 36.452C25.268 36.34 25.336 36.196 25.368 36.02C25.4 35.844 25.416 35.664 25.416 35.48V30.8C25.416 30.608 25.4 30.428 25.368 30.26C25.336 30.084 25.268 29.94 25.164 29.828C25.06 29.716 24.896 29.66 24.672 29.66C24.464 29.66 24.308 29.716 24.204 29.828C24.1 29.94 24.032 30.084 24 30.26C23.968 30.428 23.952 30.608 23.952 30.8V35.48C23.952 35.664 23.964 35.844 23.988 36.02C24.02 36.196 24.084 36.34 24.18 36.452C24.284 36.564 24.448 36.62 24.672 36.62ZM31.4992 38.144C30.8912 38.144 30.3832 38.036 29.9752 37.82C29.5672 37.604 29.2592 37.272 29.0512 36.824C28.8432 36.368 28.7272 35.78 28.7032 35.06L30.5392 34.784C30.5472 35.2 30.5832 35.536 30.6472 35.792C30.7192 36.048 30.8152 36.232 30.9352 36.344C31.0632 36.456 31.2152 36.512 31.3912 36.512C31.6152 36.512 31.7592 36.436 31.8232 36.284C31.8952 36.132 31.9312 35.972 31.9312 35.804C31.9312 35.404 31.8352 35.068 31.6432 34.796C31.4512 34.516 31.1912 34.236 30.8632 33.956L30.0232 33.224C29.6552 32.912 29.3432 32.56 29.0872 32.168C28.8392 31.768 28.7152 31.276 28.7152 30.692C28.7152 29.868 28.9592 29.24 29.4472 28.808C29.9352 28.368 30.5992 28.148 31.4392 28.148C31.9592 28.148 32.3752 28.236 32.6872 28.412C33.0072 28.588 33.2472 28.82 33.4072 29.108C33.5752 29.388 33.6872 29.688 33.7432 30.008C33.8072 30.32 33.8432 30.62 33.8512 30.908L32.0032 31.136C31.9952 30.848 31.9752 30.6 31.9432 30.392C31.9192 30.176 31.8632 30.012 31.7752 29.9C31.6872 29.78 31.5512 29.72 31.3672 29.72C31.1672 29.72 31.0192 29.804 30.9232 29.972C30.8352 30.14 30.7912 30.308 30.7912 30.476C30.7912 30.836 30.8752 31.132 31.0432 31.364C31.2192 31.588 31.4472 31.824 31.7272 32.072L32.5312 32.78C32.9552 33.14 33.3112 33.548 33.5992 34.004C33.8952 34.46 34.0432 35.024 34.0432 35.696C34.0432 36.152 33.9392 36.568 33.7312 36.944C33.5232 37.312 33.2272 37.604 32.8432 37.82C32.4672 38.036 32.0192 38.144 31.4992 38.144ZM37.4758 38.144C36.8678 38.144 36.3598 38.036 35.9518 37.82C35.5438 37.604 35.2358 37.272 35.0278 36.824C34.8198 36.368 34.7038 35.78 34.6798 35.06L36.5158 34.784C36.5238 35.2 36.5598 35.536 36.6238 35.792C36.6958 36.048 36.7918 36.232 36.9118 36.344C37.0398 36.456 37.1918 36.512 37.3678 36.512C37.5918 36.512 37.7358 36.436 37.7998 36.284C37.8718 36.132 37.9078 35.972 37.9078 35.804C37.9078 35.404 37.8118 35.068 37.6198 34.796C37.4278 34.516 37.1678 34.236 36.8398 33.956L35.9998 33.224C35.6318 32.912 35.3198 32.56 35.0638 32.168C34.8158 31.768 34.6918 31.276 34.6918 30.692C34.6918 29.868 34.9358 29.24 35.4238 28.808C35.9118 28.368 36.5758 28.148 37.4158 28.148C37.9358 28.148 38.3518 28.236 38.6638 28.412C38.9838 28.588 39.2238 28.82 39.3838 29.108C39.5518 29.388 39.6638 29.688 39.7198 30.008C39.7838 30.32 39.8198 30.62 39.8278 30.908L37.9798 31.136C37.9718 30.848 37.9518 30.6 37.9198 30.392C37.8958 30.176 37.8398 30.012 37.7518 29.9C37.6638 29.78 37.5278 29.72 37.3438 29.72C37.1438 29.72 36.9958 29.804 36.8998 29.972C36.8118 30.14 36.7678 30.308 36.7678 30.476C36.7678 30.836 36.8518 31.132 37.0198 31.364C37.1958 31.588 37.4238 31.824 37.7038 32.072L38.5078 32.78C38.9318 33.14 39.2878 33.548 39.5758 34.004C39.8718 34.46 40.0198 35.024 40.0198 35.696C40.0198 36.152 39.9158 36.568 39.7078 36.944C39.4998 37.312 39.2038 37.604 38.8198 37.82C38.4438 38.036 37.9958 38.144 37.4758 38.144Z"></path>
<path fill="white" d="M17.87 56V53.14L16.12 47.9H17.17L18.41 51.81L19.63 47.9H20.69L18.95 53.14V56H17.87ZM22.7491 56.08C22.3225 56.08 21.9858 55.9933 21.7391 55.82C21.4925 55.6467 21.3158 55.4 21.2091 55.08C21.1091 54.76 21.0591 54.3833 21.0591 53.95V52.27C21.0591 51.8367 21.1091 51.46 21.2091 51.14C21.3158 50.82 21.4925 50.5733 21.7391 50.4C21.9858 50.2267 22.3225 50.14 22.7491 50.14C23.1758 50.14 23.5091 50.2267 23.7491 50.4C23.9958 50.5733 24.1691 50.82 24.2691 51.14C24.3758 51.46 24.4291 51.8367 24.4291 52.27V53.95C24.4291 54.3833 24.3758 54.76 24.2691 55.08C24.1691 55.4 23.9958 55.6467 23.7491 55.82C23.5091 55.9933 23.1758 56.08 22.7491 56.08ZM22.7491 55.29C22.9558 55.29 23.0991 55.23 23.1791 55.11C23.2658 54.99 23.3158 54.8333 23.3291 54.64C23.3491 54.44 23.3591 54.2333 23.3591 54.02V52.21C23.3591 51.99 23.3491 51.7833 23.3291 51.59C23.3158 51.3967 23.2658 51.24 23.1791 51.12C23.0991 50.9933 22.9558 50.93 22.7491 50.93C22.5425 50.93 22.3958 50.9933 22.3091 51.12C22.2225 51.24 22.1691 51.3967 22.1491 51.59C22.1358 51.7833 22.1291 51.99 22.1291 52.21V54.02C22.1291 54.2333 22.1358 54.44 22.1491 54.64C22.1691 54.8333 22.2225 54.99 22.3091 55.11C22.3958 55.23 22.5425 55.29 22.7491 55.29ZM26.2372 56.08C26.0105 56.08 25.8339 56.02 25.7072 55.9C25.5805 55.78 25.4905 55.63 25.4372 55.45C25.3905 55.27 25.3672 55.0867 25.3672 54.9V50.22H26.4372V54.58C26.4372 54.7867 26.4672 54.95 26.5272 55.07C26.5872 55.1833 26.7105 55.24 26.8972 55.24C27.0172 55.24 27.1405 55.2067 27.2672 55.14C27.4005 55.0667 27.5272 54.98 27.6472 54.88V50.22H28.7172V56H27.6472V55.43C27.4605 55.61 27.2472 55.7633 27.0072 55.89C26.7739 56.0167 26.5172 56.08 26.2372 56.08ZM32.1266 56V50.22H33.1966V51.04C33.41 50.6867 33.6233 50.45 33.8366 50.33C34.05 50.21 34.2633 50.15 34.4766 50.15C34.5033 50.15 34.5266 50.15 34.5466 50.15C34.5733 50.15 34.6066 50.1533 34.6466 50.16V51.34C34.5666 51.3067 34.4733 51.28 34.3666 51.26C34.2666 51.2333 34.1633 51.22 34.0566 51.22C33.89 51.22 33.7366 51.26 33.5966 51.34C33.4633 51.4133 33.33 51.56 33.1966 51.78V56H32.1266ZM36.9095 56.08C36.4562 56.08 36.1062 55.9933 35.8595 55.82C35.6129 55.64 35.4395 55.38 35.3395 55.04C35.2462 54.6933 35.1995 54.27 35.1995 53.77V52.45C35.1995 51.9367 35.2495 51.51 35.3495 51.17C35.4495 50.83 35.6229 50.5733 35.8695 50.4C36.1229 50.2267 36.4695 50.14 36.9095 50.14C37.3962 50.14 37.7529 50.24 37.9795 50.44C38.2129 50.64 38.3662 50.93 38.4395 51.31C38.5129 51.6833 38.5495 52.1333 38.5495 52.66V53.13H36.2695V54.29C36.2695 54.5233 36.2895 54.7133 36.3295 54.86C36.3762 55.0067 36.4462 55.1167 36.5395 55.19C36.6395 55.2567 36.7662 55.29 36.9195 55.29C37.0795 55.29 37.1995 55.2533 37.2795 55.18C37.3662 55.1 37.4229 54.99 37.4495 54.85C37.4829 54.7033 37.4995 54.5333 37.4995 54.34V53.99H38.5395V54.21C38.5395 54.79 38.4162 55.2467 38.1695 55.58C37.9229 55.9133 37.5029 56.08 36.9095 56.08ZM36.2695 52.55H37.4995V52.03C37.4995 51.79 37.4862 51.59 37.4595 51.43C37.4329 51.2633 37.3762 51.14 37.2895 51.06C37.2095 50.9733 37.0795 50.93 36.8995 50.93C36.7262 50.93 36.5929 50.97 36.4995 51.05C36.4129 51.13 36.3529 51.2667 36.3195 51.46C36.2862 51.6467 36.2695 51.9067 36.2695 52.24V52.55ZM40.8585 56.08C40.3852 56.08 40.0052 55.9333 39.7185 55.64C39.4318 55.34 39.2685 54.9467 39.2285 54.46L40.1185 54.19C40.1718 54.5567 40.2618 54.8333 40.3885 55.02C40.5152 55.2 40.7018 55.29 40.9485 55.29C41.1418 55.29 41.2885 55.2367 41.3885 55.13C41.4885 55.0167 41.5385 54.8667 41.5385 54.68C41.5385 54.5133 41.5018 54.3633 41.4285 54.23C41.3552 54.0967 41.2352 53.96 41.0685 53.82L40.0785 52.97C39.8785 52.7967 39.7085 52.6033 39.5685 52.39C39.4352 52.1767 39.3685 51.9 39.3685 51.56C39.3685 51.2533 39.4285 50.9967 39.5485 50.79C39.6752 50.5767 39.8485 50.4167 40.0685 50.31C40.2952 50.1967 40.5585 50.14 40.8585 50.14C41.3185 50.14 41.6685 50.29 41.9085 50.59C42.1552 50.8833 42.2952 51.24 42.3285 51.66L41.6085 51.93C41.5818 51.73 41.5418 51.5567 41.4885 51.41C41.4352 51.2567 41.3618 51.14 41.2685 51.06C41.1752 50.9733 41.0518 50.93 40.8985 50.93C40.7252 50.93 40.5852 50.99 40.4785 51.11C40.3785 51.2233 40.3285 51.36 40.3285 51.52C40.3285 51.62 40.3485 51.72 40.3885 51.82C40.4352 51.9133 40.5118 52.0067 40.6185 52.1L41.6385 53.04C41.7785 53.1667 41.9085 53.3033 42.0285 53.45C42.1552 53.5967 42.2585 53.7633 42.3385 53.95C42.4185 54.1367 42.4585 54.3533 42.4585 54.6C42.4585 54.9267 42.3918 55.2 42.2585 55.42C42.1252 55.64 41.9385 55.8067 41.6985 55.92C41.4585 56.0267 41.1785 56.08 40.8585 56.08ZM43.3288 56V50.22H44.3988V56H43.3288ZM43.3288 49.36V48.24H44.3988V49.36H43.3288ZM47.0439 57.79C46.6972 57.79 46.3839 57.7533 46.1039 57.68C45.8239 57.6067 45.6039 57.49 45.4439 57.33C45.2839 57.17 45.2039 56.96 45.2039 56.7C45.2039 56.5133 45.2439 56.35 45.3239 56.21C45.4039 56.07 45.5072 55.95 45.6339 55.85C45.7606 55.7433 45.8939 55.6567 46.0339 55.59C45.8472 55.5367 45.7072 55.4533 45.6139 55.34C45.5206 55.22 45.4739 55.0967 45.4739 54.97C45.4739 54.7567 45.5306 54.5733 45.6439 54.42C45.7572 54.2667 45.9139 54.1 46.1139 53.92C45.8939 53.7533 45.7272 53.54 45.6139 53.28C45.5006 53.02 45.4439 52.66 45.4439 52.2C45.4439 51.7467 45.5039 51.37 45.6239 51.07C45.7506 50.7633 45.9339 50.5333 46.1739 50.38C46.4206 50.22 46.7206 50.14 47.0739 50.14C47.3872 50.14 47.6372 50.1933 47.8239 50.3C48.0172 50.4067 48.1639 50.5667 48.2639 50.78C48.2972 50.7267 48.3872 50.6367 48.5339 50.51C48.6806 50.3767 48.8506 50.2667 49.0439 50.18L49.2039 50.11L49.4739 50.8C49.3872 50.8133 49.2706 50.8467 49.1239 50.9C48.9839 50.9467 48.8506 50.9967 48.7239 51.05C48.6039 51.0967 48.5272 51.1367 48.4939 51.17C48.5406 51.2833 48.5806 51.4467 48.6139 51.66C48.6539 51.8733 48.6739 52.0633 48.6739 52.23C48.6739 52.6233 48.6239 52.97 48.5239 53.27C48.4239 53.57 48.2572 53.8067 48.0239 53.98C47.7972 54.1467 47.4806 54.23 47.0739 54.23C46.9872 54.23 46.8939 54.2233 46.7939 54.21C46.6939 54.1967 46.6039 54.18 46.5239 54.16C46.4839 54.22 46.4406 54.29 46.3939 54.37C46.3539 54.45 46.3339 54.5267 46.3339 54.6C46.3339 54.6733 46.3706 54.7333 46.4439 54.78C46.5239 54.82 46.6472 54.8467 46.8139 54.86L47.7139 54.94C48.1672 54.98 48.5039 55.1167 48.7239 55.35C48.9439 55.5833 49.0539 55.9167 49.0539 56.35C49.0539 56.6633 48.9806 56.9267 48.8339 57.14C48.6872 57.36 48.4639 57.5233 48.1639 57.63C47.8706 57.7367 47.4972 57.79 47.0439 57.79ZM47.1239 56.95C47.5039 56.95 47.7839 56.9033 47.9639 56.81C48.1439 56.7233 48.2339 56.58 48.2339 56.38C48.2339 56.26 48.2106 56.16 48.1639 56.08C48.1239 56 48.0472 55.9367 47.9339 55.89C47.8206 55.8433 47.6572 55.81 47.4439 55.79L46.5339 55.71C46.4606 55.7833 46.3906 55.8567 46.3239 55.93C46.2572 56.0033 46.2039 56.08 46.1639 56.16C46.1239 56.2467 46.1039 56.3367 46.1039 56.43C46.1039 56.6033 46.1772 56.7333 46.3239 56.82C46.4706 56.9067 46.7372 56.95 47.1239 56.95ZM47.0739 53.48C47.2272 53.48 47.3472 53.4533 47.4339 53.4C47.5272 53.34 47.5972 53.2567 47.6439 53.15C47.6906 53.0367 47.7206 52.9 47.7339 52.74C47.7539 52.58 47.7639 52.4 47.7639 52.2C47.7639 52 47.7539 51.82 47.7339 51.66C47.7206 51.4933 47.6906 51.3533 47.6439 51.24C47.6039 51.12 47.5372 51.03 47.4439 50.97C47.3572 50.91 47.2372 50.88 47.0839 50.88C46.9372 50.88 46.8139 50.91 46.7139 50.97C46.6206 51.03 46.5506 51.1167 46.5039 51.23C46.4572 51.3367 46.4239 51.4733 46.4039 51.64C46.3839 51.8 46.3739 51.9867 46.3739 52.2C46.3739 52.38 46.3806 52.55 46.3939 52.71C46.4139 52.8633 46.4472 52.9967 46.4939 53.11C46.5472 53.2233 46.6206 53.3133 46.7139 53.38C46.8072 53.4467 46.9272 53.48 47.0739 53.48ZM49.8896 56V50.22H50.9596V50.79C51.1529 50.61 51.3663 50.4567 51.5996 50.33C51.8329 50.2033 52.0896 50.14 52.3696 50.14C52.6029 50.14 52.7796 50.2 52.8996 50.32C53.0263 50.44 53.1129 50.59 53.1596 50.77C53.2129 50.95 53.2396 51.1333 53.2396 51.32V56H52.1696V51.63C52.1696 51.4233 52.1396 51.2633 52.0796 51.15C52.0196 51.0367 51.8963 50.98 51.7096 50.98C51.5896 50.98 51.4629 51.0167 51.3296 51.09C51.2029 51.1567 51.0796 51.24 50.9596 51.34V56H49.8896ZM55.8841 56.08C55.4308 56.08 55.0808 55.9933 54.8341 55.82C54.5875 55.64 54.4141 55.38 54.3141 55.04C54.2208 54.6933 54.1741 54.27 54.1741 53.77V52.45C54.1741 51.9367 54.2241 51.51 54.3241 51.17C54.4241 50.83 54.5975 50.5733 54.8441 50.4C55.0975 50.2267 55.4441 50.14 55.8841 50.14C56.3708 50.14 56.7275 50.24 56.9541 50.44C57.1875 50.64 57.3408 50.93 57.4141 51.31C57.4875 51.6833 57.5241 52.1333 57.5241 52.66V53.13H55.2441V54.29C55.2441 54.5233 55.2641 54.7133 55.3041 54.86C55.3508 55.0067 55.4208 55.1167 55.5141 55.19C55.6141 55.2567 55.7408 55.29 55.8941 55.29C56.0541 55.29 56.1741 55.2533 56.2541 55.18C56.3408 55.1 56.3975 54.99 56.4241 54.85C56.4575 54.7033 56.4741 54.5333 56.4741 54.34V53.99H57.5141V54.21C57.5141 54.79 57.3908 55.2467 57.1441 55.58C56.8975 55.9133 56.4775 56.08 55.8841 56.08ZM55.2441 52.55H56.4741V52.03C56.4741 51.79 56.4608 51.59 56.4341 51.43C56.4075 51.2633 56.3508 51.14 56.2641 51.06C56.1841 50.9733 56.0541 50.93 55.8741 50.93C55.7008 50.93 55.5675 50.97 55.4741 51.05C55.3875 51.13 55.3275 51.2667 55.2941 51.46C55.2608 51.6467 55.2441 51.9067 55.2441 52.24V52.55ZM59.8331 56.08C59.3465 56.08 58.9831 55.9033 58.7431 55.55C58.5031 55.19 58.3831 54.5833 58.3831 53.73V52.61C58.3831 52.17 58.4198 51.7633 58.4931 51.39C58.5665 51.01 58.7031 50.7067 58.9031 50.48C59.1098 50.2533 59.4098 50.14 59.8031 50.14C59.9965 50.14 60.1731 50.1833 60.3331 50.27C60.4931 50.3567 60.6365 50.4633 60.7631 50.59V47.9H61.8331V56H60.7631V55.63C60.6365 55.7633 60.4965 55.8733 60.3431 55.96C60.1965 56.04 60.0265 56.08 59.8331 56.08ZM60.1031 55.24C60.2031 55.24 60.3098 55.2233 60.4231 55.19C60.5365 55.15 60.6498 55.0933 60.7631 55.02V51.23C60.6698 51.1633 60.5665 51.1067 60.4531 51.06C60.3398 51.0067 60.2165 50.98 60.0831 50.98C59.8365 50.98 59.6698 51.1 59.5831 51.34C59.4965 51.5733 59.4531 51.8567 59.4531 52.19V53.82C59.4531 54.0867 59.4665 54.33 59.4931 54.55C59.5265 54.7633 59.5898 54.9333 59.6831 55.06C59.7765 55.18 59.9165 55.24 60.1031 55.24ZM62.947 57.31L62.777 56.85C62.957 56.79 63.097 56.6833 63.197 56.53C63.3036 56.3833 63.357 56.2067 63.357 56H62.787V54.85H63.887V55.98C63.887 56.3333 63.8103 56.6133 63.657 56.82C63.5036 57.0333 63.267 57.1967 62.947 57.31ZM66.9773 57.45V56.63C67.2373 56.63 67.444 56.6167 67.5973 56.59C67.7507 56.57 67.8607 56.5267 67.9273 56.46C67.994 56.4 68.0273 56.3133 68.0273 56.2C68.0273 56.14 68.004 56.0067 67.9573 55.8C67.9107 55.5933 67.8607 55.3733 67.8073 55.14L66.6473 50.22H67.7273L68.5073 54.54L69.2573 50.22H70.3373L68.9573 56.32C68.8973 56.6 68.7873 56.82 68.6273 56.98C68.4673 57.1467 68.2607 57.2667 68.0073 57.34C67.7607 57.4133 67.4607 57.45 67.1073 57.45H66.9773ZM72.5734 56.08C72.1467 56.08 71.81 55.9933 71.5634 55.82C71.3167 55.6467 71.14 55.4 71.0334 55.08C70.9334 54.76 70.8834 54.3833 70.8834 53.95V52.27C70.8834 51.8367 70.9334 51.46 71.0334 51.14C71.14 50.82 71.3167 50.5733 71.5634 50.4C71.81 50.2267 72.1467 50.14 72.5734 50.14C73 50.14 73.3334 50.2267 73.5734 50.4C73.82 50.5733 73.9934 50.82 74.0934 51.14C74.2 51.46 74.2534 51.8367 74.2534 52.27V53.95C74.2534 54.3833 74.2 54.76 74.0934 55.08C73.9934 55.4 73.82 55.6467 73.5734 55.82C73.3334 55.9933 73 56.08 72.5734 56.08ZM72.5734 55.29C72.78 55.29 72.9234 55.23 73.0034 55.11C73.09 54.99 73.14 54.8333 73.1534 54.64C73.1734 54.44 73.1834 54.2333 73.1834 54.02V52.21C73.1834 51.99 73.1734 51.7833 73.1534 51.59C73.14 51.3967 73.09 51.24 73.0034 51.12C72.9234 50.9933 72.78 50.93 72.5734 50.93C72.3667 50.93 72.22 50.9933 72.1334 51.12C72.0467 51.24 71.9934 51.3967 71.9734 51.59C71.96 51.7833 71.9534 51.99 71.9534 52.21V54.02C71.9534 54.2333 71.96 54.44 71.9734 54.64C71.9934 54.8333 72.0467 54.99 72.1334 55.11C72.22 55.23 72.3667 55.29 72.5734 55.29ZM76.0614 56.08C75.8347 56.08 75.6581 56.02 75.5314 55.9C75.4047 55.78 75.3147 55.63 75.2614 55.45C75.2147 55.27 75.1914 55.0867 75.1914 54.9V50.22H76.2614V54.58C76.2614 54.7867 76.2914 54.95 76.3514 55.07C76.4114 55.1833 76.5347 55.24 76.7214 55.24C76.8414 55.24 76.9647 55.2067 77.0914 55.14C77.2247 55.0667 77.3514 54.98 77.4714 54.88V50.22H78.5414V56H77.4714V55.43C77.2847 55.61 77.0714 55.7633 76.8314 55.89C76.5981 56.0167 76.3414 56.08 76.0614 56.08ZM79.6657 56V50.22H80.7357V51.04C80.949 50.6867 81.1624 50.45 81.3757 50.33C81.589 50.21 81.8024 50.15 82.0157 50.15C82.0424 50.15 82.0657 50.15 82.0857 50.15C82.1124 50.15 82.1457 50.1533 82.1857 50.16V51.34C82.1057 51.3067 82.0124 51.28 81.9057 51.26C81.8057 51.2333 81.7024 51.22 81.5957 51.22C81.429 51.22 81.2757 51.26 81.1357 51.34C81.0024 51.4133 80.869 51.56 80.7357 51.78V56H79.6657ZM86.7238 56.08C86.2971 56.08 85.9604 55.9933 85.7138 55.82C85.4671 55.6467 85.2904 55.4 85.1838 55.08C85.0838 54.76 85.0338 54.3833 85.0338 53.95V52.27C85.0338 51.8367 85.0838 51.46 85.1838 51.14C85.2904 50.82 85.4671 50.5733 85.7138 50.4C85.9604 50.2267 86.2971 50.14 86.7238 50.14C87.1504 50.14 87.4838 50.2267 87.7238 50.4C87.9704 50.5733 88.1438 50.82 88.2438 51.14C88.3504 51.46 88.4038 51.8367 88.4038 52.27V53.95C88.4038 54.3833 88.3504 54.76 88.2438 55.08C88.1438 55.4 87.9704 55.6467 87.7238 55.82C87.4838 55.9933 87.1504 56.08 86.7238 56.08ZM86.7238 55.29C86.9304 55.29 87.0738 55.23 87.1538 55.11C87.2404 54.99 87.2904 54.8333 87.3038 54.64C87.3238 54.44 87.3338 54.2333 87.3338 54.02V52.21C87.3338 51.99 87.3238 51.7833 87.3038 51.59C87.2904 51.3967 87.2404 51.24 87.1538 51.12C87.0738 50.9933 86.9304 50.93 86.7238 50.93C86.5171 50.93 86.3704 50.9933 86.2838 51.12C86.1971 51.24 86.1438 51.3967 86.1238 51.59C86.1104 51.7833 86.1038 51.99 86.1038 52.21V54.02C86.1038 54.2333 86.1104 54.44 86.1238 54.64C86.1438 54.8333 86.1971 54.99 86.2838 55.11C86.3704 55.23 86.5171 55.29 86.7238 55.29ZM89.3818 57.9V50.22H90.4518V50.68C90.5785 50.5333 90.7318 50.4067 90.9118 50.3C91.0918 50.1933 91.3051 50.14 91.5518 50.14C91.8518 50.14 92.0885 50.22 92.2618 50.38C92.4418 50.5333 92.5751 50.73 92.6618 50.97C92.7485 51.2033 92.8051 51.4433 92.8318 51.69C92.8585 51.93 92.8718 52.1367 92.8718 52.31V53.71C92.8718 54.1167 92.8318 54.5033 92.7518 54.87C92.6718 55.23 92.5251 55.5233 92.3118 55.75C92.1051 55.97 91.8118 56.08 91.4318 56.08C91.2251 56.08 91.0418 56.03 90.8818 55.93C90.7218 55.8233 90.5785 55.7033 90.4518 55.57V57.9H89.3818ZM91.2218 55.24C91.4085 55.24 91.5418 55.1733 91.6218 55.04C91.7018 54.9 91.7518 54.7133 91.7718 54.48C91.7918 54.2467 91.8018 53.99 91.8018 53.71V52.31C91.8018 52.07 91.7885 51.85 91.7618 51.65C91.7351 51.4433 91.6785 51.28 91.5918 51.16C91.5051 51.04 91.3685 50.98 91.1818 50.98C91.0418 50.98 90.9085 51.01 90.7818 51.07C90.6551 51.13 90.5451 51.2 90.4518 51.28V54.98C90.5518 55.0533 90.6651 55.1167 90.7918 55.17C90.9185 55.2167 91.0618 55.24 91.2218 55.24ZM93.8447 57.9V50.22H94.9147V50.68C95.0414 50.5333 95.1947 50.4067 95.3747 50.3C95.5547 50.1933 95.768 50.14 96.0147 50.14C96.3147 50.14 96.5514 50.22 96.7247 50.38C96.9047 50.5333 97.038 50.73 97.1247 50.97C97.2114 51.2033 97.268 51.4433 97.2947 51.69C97.3214 51.93 97.3347 52.1367 97.3347 52.31V53.71C97.3347 54.1167 97.2947 54.5033 97.2147 54.87C97.1347 55.23 96.988 55.5233 96.7747 55.75C96.568 55.97 96.2747 56.08 95.8947 56.08C95.688 56.08 95.5047 56.03 95.3447 55.93C95.1847 55.8233 95.0414 55.7033 94.9147 55.57V57.9H93.8447ZM95.6847 55.24C95.8714 55.24 96.0047 55.1733 96.0847 55.04C96.1647 54.9 96.2147 54.7133 96.2347 54.48C96.2547 54.2467 96.2647 53.99 96.2647 53.71V52.31C96.2647 52.07 96.2514 51.85 96.2247 51.65C96.198 51.4433 96.1414 51.28 96.0547 51.16C95.968 51.04 95.8314 50.98 95.6447 50.98C95.5047 50.98 95.3714 51.01 95.2447 51.07C95.118 51.13 95.008 51.2 94.9147 51.28V54.98C95.0147 55.0533 95.128 55.1167 95.2547 55.17C95.3814 55.2167 95.5247 55.24 95.6847 55.24ZM99.8976 56.08C99.4709 56.08 99.1342 55.9933 98.8876 55.82C98.6409 55.6467 98.4642 55.4 98.3576 55.08C98.2576 54.76 98.2076 54.3833 98.2076 53.95V52.27C98.2076 51.8367 98.2576 51.46 98.3576 51.14C98.4642 50.82 98.6409 50.5733 98.8876 50.4C99.1342 50.2267 99.4709 50.14 99.8976 50.14C100.324 50.14 100.658 50.2267 100.898 50.4C101.144 50.5733 101.318 50.82 101.418 51.14C101.524 51.46 101.578 51.8367 101.578 52.27V53.95C101.578 54.3833 101.524 54.76 101.418 55.08C101.318 55.4 101.144 55.6467 100.898 55.82C100.658 55.9933 100.324 56.08 99.8976 56.08ZM99.8976 55.29C100.104 55.29 100.248 55.23 100.328 55.11C100.414 54.99 100.464 54.8333 100.478 54.64C100.498 54.44 100.508 54.2333 100.508 54.02V52.21C100.508 51.99 100.498 51.7833 100.478 51.59C100.464 51.3967 100.414 51.24 100.328 51.12C100.248 50.9933 100.104 50.93 99.8976 50.93C99.6909 50.93 99.5442 50.9933 99.4576 51.12C99.3709 51.24 99.3176 51.3967 99.2976 51.59C99.2842 51.7833 99.2776 51.99 99.2776 52.21V54.02C99.2776 54.2333 99.2842 54.44 99.2976 54.64C99.3176 54.8333 99.3709 54.99 99.4576 55.11C99.5442 55.23 99.6909 55.29 99.8976 55.29ZM102.556 56V50.22H103.626V50.79C103.819 50.61 104.032 50.4567 104.266 50.33C104.499 50.2033 104.756 50.14 105.036 50.14C105.269 50.14 105.446 50.2 105.566 50.32C105.692 50.44 105.779 50.59 105.826 50.77C105.879 50.95 105.906 51.1333 105.906 51.32V56H104.836V51.63C104.836 51.4233 104.806 51.2633 104.746 51.15C104.686 51.0367 104.562 50.98 104.376 50.98C104.256 50.98 104.129 51.0167 103.996 51.09C103.869 51.1567 103.746 51.24 103.626 51.34V56H102.556ZM108.55 56.08C108.097 56.08 107.747 55.9933 107.5 55.82C107.253 55.64 107.08 55.38 106.98 55.04C106.887 54.6933 106.84 54.27 106.84 53.77V52.45C106.84 51.9367 106.89 51.51 106.99 51.17C107.09 50.83 107.263 50.5733 107.51 50.4C107.763 50.2267 108.11 50.14 108.55 50.14C109.037 50.14 109.393 50.24 109.62 50.44C109.853 50.64 110.007 50.93 110.08 51.31C110.153 51.6833 110.19 52.1333 110.19 52.66V53.13H107.91V54.29C107.91 54.5233 107.93 54.7133 107.97 54.86C108.017 55.0067 108.087 55.1167 108.18 55.19C108.28 55.2567 108.407 55.29 108.56 55.29C108.72 55.29 108.84 55.2533 108.92 55.18C109.007 55.1 109.063 54.99 109.09 54.85C109.123 54.7033 109.14 54.5333 109.14 54.34V53.99H110.18V54.21C110.18 54.79 110.057 55.2467 109.81 55.58C109.563 55.9133 109.143 56.08 108.55 56.08ZM107.91 52.55H109.14V52.03C109.14 51.79 109.127 51.59 109.1 51.43C109.073 51.2633 109.017 51.14 108.93 51.06C108.85 50.9733 108.72 50.93 108.54 50.93C108.367 50.93 108.233 50.97 108.14 51.05C108.053 51.13 107.993 51.2667 107.96 51.46C107.927 51.6467 107.91 51.9067 107.91 52.24V52.55ZM111.159 56V50.22H112.229V50.79C112.422 50.61 112.636 50.4567 112.869 50.33C113.102 50.2033 113.359 50.14 113.639 50.14C113.872 50.14 114.049 50.2 114.169 50.32C114.296 50.44 114.382 50.59 114.429 50.77C114.482 50.95 114.509 51.1333 114.509 51.32V56H113.439V51.63C113.439 51.4233 113.409 51.2633 113.349 51.15C113.289 51.0367 113.166 50.98 112.979 50.98C112.859 50.98 112.732 51.0167 112.599 51.09C112.472 51.1567 112.349 51.24 112.229 51.34V56H111.159ZM117.094 56.08C116.794 56.08 116.55 56.0233 116.364 55.91C116.184 55.7967 116.05 55.6367 115.964 55.43C115.884 55.2233 115.844 54.98 115.844 54.7V50.93H115.234V50.22H115.844V48.53H116.914V50.22H117.844V50.93H116.914V54.63C116.914 54.8567 116.95 55.02 117.024 55.12C117.097 55.2133 117.237 55.26 117.444 55.26C117.497 55.26 117.557 55.2567 117.624 55.25C117.697 55.2433 117.767 55.2367 117.834 55.23V56.02C117.7 56.04 117.577 56.0533 117.464 56.06C117.35 56.0733 117.227 56.08 117.094 56.08ZM121.585 56L120.655 50.22H121.535L122.135 54.48L122.905 50.22H123.725L124.495 54.46L125.095 50.22H125.975L125.015 56H124.115L123.325 51.92L122.545 56H121.585ZM128.384 56.08C127.957 56.08 127.621 55.9933 127.374 55.82C127.127 55.6467 126.951 55.4 126.844 55.08C126.744 54.76 126.694 54.3833 126.694 53.95V52.27C126.694 51.8367 126.744 51.46 126.844 51.14C126.951 50.82 127.127 50.5733 127.374 50.4C127.621 50.2267 127.957 50.14 128.384 50.14C128.811 50.14 129.144 50.2267 129.384 50.4C129.631 50.5733 129.804 50.82 129.904 51.14C130.011 51.46 130.064 51.8367 130.064 52.27V53.95C130.064 54.3833 130.011 54.76 129.904 55.08C129.804 55.4 129.631 55.6467 129.384 55.82C129.144 55.9933 128.811 56.08 128.384 56.08ZM128.384 55.29C128.591 55.29 128.734 55.23 128.814 55.11C128.901 54.99 128.951 54.8333 128.964 54.64C128.984 54.44 128.994 54.2333 128.994 54.02V52.21C128.994 51.99 128.984 51.7833 128.964 51.59C128.951 51.3967 128.901 51.24 128.814 51.12C128.734 50.9933 128.591 50.93 128.384 50.93C128.177 50.93 128.031 50.9933 127.944 51.12C127.857 51.24 127.804 51.3967 127.784 51.59C127.771 51.7833 127.764 51.99 127.764 52.21V54.02C127.764 54.2333 127.771 54.44 127.784 54.64C127.804 54.8333 127.857 54.99 127.944 55.11C128.031 55.23 128.177 55.29 128.384 55.29ZM131.042 56V50.22H132.112V50.79C132.305 50.61 132.519 50.4567 132.752 50.33C132.985 50.2033 133.242 50.14 133.522 50.14C133.755 50.14 133.932 50.2 134.052 50.32C134.179 50.44 134.265 50.59 134.312 50.77C134.365 50.95 134.392 51.1333 134.392 51.32V56H133.322V51.63C133.322 51.4233 133.292 51.2633 133.232 51.15C133.172 51.0367 133.049 50.98 132.862 50.98C132.742 50.98 132.615 51.0167 132.482 51.09C132.355 51.1567 132.232 51.24 132.112 51.34V56H131.042Z"></path>
</svg>
