<svg xmlns="http://www.w3.org/2000/svg" fill="none" viewBox="0 0 38 38" height="38" width="38">
<rect fill-opacity="0.01" fill="white" height="38" width="38"></rect>
<path stroke="#0D0E12" fill="#7F899B" d="M25.8398 23.3677C25.8398 23.3677 28.2825 16.5601 26.8169 13.6426C25.3512 10.7251 22.9084 10.725 22.9084 10.725L20.4657 12.1838C20.4657 12.1838 22.9084 11.6976 23.397 16.0739C23.8855 20.4502 22.9084 22.3952 22.9084 22.3952C23.8855 24.3402 25.8398 23.3677 25.8398 23.3677Z"></path>
<path stroke="#0D0E12" fill="#7F899B" d="M12.1602 23.3677C12.1602 23.3677 9.71747 16.5601 11.1831 13.6426C12.6488 10.7251 15.0829 10.7251 15.0829 10.7251L17.5343 12.1839C17.5343 12.1839 15.0916 11.6976 14.603 16.0739C14.1145 20.4502 15.0916 22.3952 15.0916 22.3952C14.1145 24.3402 12.1602 23.3677 12.1602 23.3677Z"></path>
<path fill="#7F899B" d="M3.36627 11.2113C8.14568 5.15709 13.7104 8.71766 14.8834 9.57981C15.0371 9.69277 15.1609 9.83324 15.2665 9.99211L17.0458 12.6701C17.0458 12.6701 9.71748 11.6976 9.22892 16.0739C8.74037 20.4502 10.6946 23.854 13.6259 23.3677C16.5572 22.8814 17.0458 12.6701 17.0458 12.6701C17.0458 12.6701 13.6377 8.78007 14.603 6.3488C15.1141 5.06148 16.1797 5.00107 17.0693 5.22921C17.7256 5.39752 18.5114 4.95904 18.5114 4.28151V4.1641C18.5114 3.75937 18.1833 3.43127 17.7786 3.43127H17.532C17.2635 3.43127 17.0458 3.21357 17.0458 2.94502V2.94502C17.0458 2.67647 17.2635 2.45876 17.532 2.45876H17.7821C18.1849 2.45876 18.5114 2.13221 18.5114 1.72938L18.5114 1.48856C18.5114 1.21874 18.7302 1 19 1V1C19.2698 1 19.4886 1.21873 19.4886 1.48856V1.72938C19.4886 2.13221 19.8151 2.45876 20.2179 2.45876H20.468C20.7365 2.45876 20.9542 2.67646 20.9542 2.94501V2.94501C20.9542 3.21357 20.7365 3.43127 20.468 3.43127H20.2214C19.8166 3.43127 19.4885 3.75937 19.4885 4.1641L19.4885 4.25968C19.4885 4.93217 20.2889 5.36501 20.9428 5.2084C21.7875 5.00613 22.7996 5.10232 23.397 6.3488C24.5621 8.78007 20.9542 12.6701 20.9542 12.6701C20.9542 12.6701 21.4428 22.8814 24.3741 23.3677C27.3054 23.854 29.2596 20.4502 28.7711 16.0739C28.2825 11.6976 20.9542 12.6701 20.9542 12.6701L22.8293 9.96663C22.9279 9.82453 23.0408 9.69822 23.1791 9.59449C24.2933 8.75915 29.8267 5.12209 34.6337 11.2113C40.0078 18.0189 27.794 24.3402 27.794 26.7715C27.794 29.2028 31.2139 27.2577 31.2139 32.1203V33.5195C31.2139 34.167 30.9056 34.7839 30.3041 35.0236C25.7813 36.8255 12.2187 36.8255 7.69585 35.0236C7.09435 34.7839 6.78614 34.167 6.78614 33.5195L6.78614 32.1203C6.78614 27.744 10.206 29.2028 10.206 26.7715C10.206 24.3402 -2.00783 18.0189 3.36627 11.2113Z"></path>
<path stroke="#0D0E12" d="M17.0458 12.6701L15.2665 9.99211C15.1609 9.83324 15.0371 9.69277 14.8834 9.57981C13.7104 8.71766 8.14568 5.15709 3.36627 11.2113C-2.00783 18.0189 10.206 24.3402 10.206 26.7715C10.206 29.2028 6.78614 27.744 6.78614 32.1203L6.78614 33.5195C6.78614 34.167 7.09435 34.7839 7.69585 35.0236C12.2187 36.8255 25.7813 36.8255 30.3041 35.0236C30.9056 34.7839 31.2139 34.167 31.2139 33.5195V32.1203C31.2139 27.2577 27.794 29.2028 27.794 26.7715C27.794 24.3402 40.0078 18.0189 34.6337 11.2113C29.8267 5.12209 24.2933 8.75915 23.1791 9.59449C23.0408 9.69822 22.9279 9.82453 22.8293 9.96663L20.9542 12.6701M17.0458 12.6701C17.0458 12.6701 9.71748 11.6976 9.22892 16.0739C8.74037 20.4502 10.6946 23.854 13.6259 23.3677C16.5572 22.8814 17.0458 12.6701 17.0458 12.6701ZM17.0458 12.6701C17.0458 12.6701 13.6377 8.78007 14.603 6.3488C15.1141 5.06148 16.1797 5.00107 17.0693 5.22921C17.7256 5.39752 18.5114 4.95904 18.5114 4.28151V4.1641C18.5114 3.75937 18.1833 3.43127 17.7786 3.43127H17.532C17.2635 3.43127 17.0458 3.21357 17.0458 2.94502V2.94502C17.0458 2.67647 17.2635 2.45876 17.532 2.45876H17.7821C18.1849 2.45876 18.5114 2.13221 18.5114 1.72938L18.5114 1.48856C18.5114 1.21874 18.7302 1 19 1V1C19.2698 1 19.4886 1.21873 19.4886 1.48856V1.72938C19.4886 2.13221 19.8151 2.45876 20.2179 2.45876H20.468C20.7365 2.45876 20.9542 2.67646 20.9542 2.94501V2.94501C20.9542 3.21357 20.7365 3.43127 20.468 3.43127H20.2214C19.8166 3.43127 19.4885 3.75937 19.4885 4.1641L19.4885 4.25968C19.4885 4.93217 20.2889 5.36501 20.9428 5.2084C21.7875 5.00613 22.7996 5.10232 23.397 6.3488C24.5621 8.78007 20.9542 12.6701 20.9542 12.6701M20.9542 12.6701C20.9542 12.6701 28.2825 11.6976 28.7711 16.0739C29.2596 20.4502 27.3054 23.854 24.3741 23.3677C21.4428 22.8814 20.9542 12.6701 20.9542 12.6701Z"></path>
<path stroke-linecap="round" stroke="#0D0E12" d="M9.22891 31.1477C11.061 32.4444 26.939 32.4444 28.7711 31.1477"></path>
</svg>
