<svg xmlns="http://www.w3.org/2000/svg" fill="none" viewBox="0 0 13 18" height="18" width="13">
<rect fill-opacity="0.01" fill="#0D0E12" height="18" width="13"></rect>
<path fill="white" d="M3.12 14.156C2.464 14.156 1.94 14.028 1.548 13.772C1.156 13.508 0.876 13.148 0.708 12.692C0.54 12.228 0.456 11.7 0.456 11.108C0.464 10.868 0.488 10.636 0.528 10.412C0.576 10.18 0.644 9.968 0.732 9.776C0.828 9.576 0.944 9.404 1.08 9.26C1.224 9.108 1.392 8.984 1.584 8.888C1.336 8.704 1.116 8.44 0.924 8.096C0.732 7.744 0.628 7.3 0.612 6.764C0.604 6.22 0.692 5.752 0.876 5.36C1.068 4.968 1.352 4.668 1.728 4.46C2.104 4.252 2.568 4.148 3.12 4.148C3.68 4.148 4.144 4.256 4.512 4.472C4.888 4.68 5.168 4.98 5.352 5.372C5.536 5.756 5.62 6.22 5.604 6.764C5.596 7.308 5.5 7.756 5.316 8.108C5.132 8.452 4.912 8.712 4.656 8.888C4.848 8.984 5.012 9.108 5.148 9.26C5.292 9.404 5.408 9.576 5.496 9.776C5.592 9.968 5.664 10.18 5.712 10.412C5.76 10.636 5.784 10.868 5.784 11.108C5.8 11.7 5.72 12.228 5.544 12.692C5.376 13.148 5.096 13.508 4.704 13.772C4.312 14.028 3.784 14.156 3.12 14.156ZM3.12 12.68C3.336 12.68 3.492 12.6 3.588 12.44C3.684 12.28 3.744 12.092 3.768 11.876C3.792 11.652 3.804 11.448 3.804 11.264C3.812 11.016 3.8 10.776 3.768 10.544C3.744 10.312 3.684 10.124 3.588 9.98C3.492 9.828 3.336 9.752 3.12 9.752C2.912 9.752 2.76 9.828 2.664 9.98C2.568 10.124 2.504 10.312 2.472 10.544C2.448 10.768 2.436 11.008 2.436 11.264C2.436 11.448 2.448 11.652 2.472 11.876C2.496 12.1 2.556 12.292 2.652 12.452C2.756 12.604 2.912 12.68 3.12 12.68ZM3.12 8.168C3.256 8.168 3.368 8.116 3.456 8.012C3.544 7.9 3.608 7.736 3.648 7.52C3.696 7.304 3.72 7.036 3.72 6.716C3.72 6.388 3.668 6.128 3.564 5.936C3.468 5.744 3.32 5.648 3.12 5.648C2.92 5.648 2.764 5.744 2.652 5.936C2.548 6.128 2.496 6.384 2.496 6.704C2.496 7.024 2.516 7.296 2.556 7.52C2.604 7.736 2.676 7.9 2.772 8.012C2.868 8.116 2.984 8.168 3.12 8.168ZM9.56981 14.144C8.93781 14.144 8.42181 14.008 8.02181 13.736C7.62981 13.456 7.34181 13.076 7.15781 12.596C6.97381 12.116 6.88181 11.568 6.88181 10.952V7.436C6.88181 6.804 6.95381 6.24 7.09781 5.744C7.24981 5.248 7.51781 4.86 7.90181 4.58C8.28581 4.292 8.83781 4.148 9.55781 4.148C10.1818 4.148 10.6738 4.244 11.0338 4.436C11.3938 4.628 11.6498 4.908 11.8018 5.276C11.9538 5.644 12.0298 6.1 12.0298 6.644C12.0298 6.676 12.0298 6.708 12.0298 6.74C12.0378 6.764 12.0418 6.788 12.0418 6.812H10.1578C10.1578 6.42 10.1258 6.132 10.0618 5.948C10.0058 5.756 9.84181 5.66 9.56981 5.66C9.38581 5.66 9.24581 5.716 9.14981 5.828C9.06181 5.94 9.00181 6.136 8.96981 6.416C8.93781 6.696 8.92181 7.088 8.92181 7.592V8.456C9.01781 8.288 9.17381 8.16 9.38981 8.072C9.60581 7.976 9.84981 7.924 10.1218 7.916C10.6338 7.9 11.0418 8.016 11.3458 8.264C11.6578 8.512 11.8818 8.852 12.0178 9.284C12.1538 9.708 12.2218 10.184 12.2218 10.712C12.2218 11.392 12.1418 11.992 11.9818 12.512C11.8218 13.024 11.5498 13.424 11.1658 13.712C10.7818 14 10.2498 14.144 9.56981 14.144ZM9.59381 12.668C9.77781 12.668 9.90981 12.608 9.98981 12.488C10.0778 12.36 10.1338 12.176 10.1578 11.936C10.1898 11.688 10.2058 11.384 10.2058 11.024C10.2058 10.704 10.1938 10.428 10.1698 10.196C10.1538 9.964 10.1018 9.784 10.0138 9.656C9.92581 9.52 9.77781 9.452 9.56981 9.452C9.47381 9.452 9.38181 9.472 9.29381 9.512C9.20581 9.552 9.12981 9.604 9.06581 9.668C9.00181 9.724 8.95381 9.78 8.92181 9.836V11.42C8.92181 11.636 8.93781 11.84 8.96981 12.032C9.00981 12.224 9.07781 12.38 9.17381 12.5C9.27781 12.612 9.41781 12.668 9.59381 12.668Z"></path>
</svg>
