<svg xmlns="http://www.w3.org/2000/svg" fill="none" viewBox="0 0 29 39" height="39" width="29">
<rect fill="white" height="39" width="29"></rect>
<path stroke="#0D0E12" fill="#0D0E12" d="M22.3954 34.5L22.5 34.5458V38.5H6.5V34.5458L6.60459 34.5H22.3954Z"></path>
<path stroke="#0D0E12" fill="#FFA800" d="M7.59375 24.125H21.4062L18.2188 31.5625L21.4062 33.6875H7.59375L10.7812 31.5625L7.59375 24.125Z"></path>
<mask height="10" width="15" y="24" x="7" maskUnits="userSpaceOnUse" style="mask-type:alpha" id="mask0_1477_424">
<path fill-opacity="0.6" fill="black" d="M7.59375 24.125H21.4062L18.2188 31.5625L21.4062 33.6875H7.59375L10.7812 31.5625L7.59375 24.125Z"></path>
</mask>
<g mask="url(#mask0_1477_424)">
<path fill-opacity="0.6" fill="black" d="M17.6875 26.25L19.2812 22L30.4375 34.2188L18.2188 42.7188L0.6875 36.875L3.34375 31.5625C4.40625 31.7396 7.4875 31.775 11.3125 30.5C15.1375 29.225 17.1562 27.1354 17.6875 26.25Z"></path>
</g>
<rect fill="white" height="3.1875" width="9.5625" y="34.75" x="9.71875"></rect>
<rect fill="black" height="1" width="7" y="36" x="11"></rect>
<path stroke-width="0.673351" stroke="#0D0E12" fill="#FFA800" d="M19.0525 16.0613C19.0525 16.0613 20.6973 11.4775 19.7104 9.51294C18.7235 7.54842 17.0787 7.54834 17.0787 7.54834L15.4338 8.53066C15.4338 8.53066 17.0787 8.20326 17.4076 11.15C17.7366 14.0968 17.0787 15.4065 17.0787 15.4065C17.7366 16.7162 19.0525 16.0613 19.0525 16.0613Z"></path>
<path stroke-width="0.673351" stroke="#0D0E12" fill="#FFA800" d="M9.84155 16.0613C9.84155 16.0613 8.19671 11.4774 9.18362 9.51286C10.1705 7.54834 11.8095 7.54834 11.8095 7.54834L13.4602 8.5306C13.4602 8.5306 11.8154 8.20318 11.4864 11.15C11.1574 14.0967 11.8154 15.4064 11.8154 15.4064C11.1574 16.7161 9.84155 16.0613 9.84155 16.0613Z"></path>
<path fill="#FFD600" d="M3.91998 7.87582C7.1382 3.79918 10.8852 6.1967 11.675 6.77722C11.7785 6.85329 11.8619 6.94787 11.933 7.05485L13.1311 8.85808C13.1311 8.85808 8.19657 8.20324 7.8676 11.15C7.53863 14.0968 8.8545 16.3887 10.8283 16.0613C12.8021 15.7339 13.1311 8.85808 13.1311 8.85808C13.1311 8.85808 10.8363 6.23872 11.4863 4.60162C11.8304 3.7348 12.5479 3.69412 13.147 3.84774C13.5889 3.96107 14.118 3.66583 14.118 3.20961V3.13055C14.118 2.85802 13.8971 2.6371 13.6245 2.6371H13.4585C13.2777 2.6371 13.1311 2.49051 13.1311 2.30968V2.30968C13.1311 2.12885 13.2777 1.98226 13.4585 1.98226H13.6269C13.8981 1.98226 14.118 1.76237 14.118 1.49113L14.118 1.32897C14.118 1.14729 14.2653 1 14.447 1V1C14.6286 1 14.7759 1.14728 14.7759 1.32897V1.49113C14.7759 1.76237 14.9958 1.98226 15.2671 1.98226H15.4354C15.6162 1.98226 15.7628 2.12885 15.7628 2.30968V2.30968C15.7628 2.49051 15.6162 2.6371 15.4354 2.6371H15.2694C14.9969 2.6371 14.7759 2.85802 14.7759 3.13055L14.7759 3.45565V3.45565C14.7759 3.79907 15.1812 4.02116 15.5053 3.90766C16.1105 3.69572 16.9444 3.63486 17.4077 4.60162C18.1922 6.23872 15.7628 8.85808 15.7628 8.85808C15.7628 8.85808 16.0918 15.7339 18.0656 16.0613C20.0394 16.3887 21.3553 14.0968 21.0263 11.15C20.6974 8.20324 15.7628 8.85808 15.7628 8.85808L17.0254 7.03769C17.0918 6.94201 17.1678 6.85696 17.261 6.78711C18.0112 6.22463 21.7371 3.77561 24.974 7.87582C28.5926 12.4597 20.3684 16.7162 20.3684 18.3533C20.3684 19.9904 22.6712 18.6807 22.6712 21.9549V22.897C22.6712 23.333 22.4637 23.7485 22.0586 23.9098C19.0131 25.1231 9.88078 25.1231 6.83531 23.9098C6.43029 23.7485 6.22275 23.333 6.22275 22.897L6.22275 21.9549C6.22275 19.0081 8.52554 19.9904 8.52554 18.3533C8.52554 16.7162 0.301326 12.4597 3.91998 7.87582Z"></path>
<path stroke-width="0.995389" stroke="#0D0E12" d="M13.1311 8.85808L11.933 7.05485C11.8619 6.94787 11.7785 6.85329 11.675 6.77722C10.8852 6.1967 7.1382 3.79918 3.91998 7.87582C0.301326 12.4597 8.52554 16.7162 8.52554 18.3533C8.52554 19.9904 6.22275 19.0081 6.22275 21.9549L6.22275 22.897C6.22275 23.333 6.43029 23.7485 6.83531 23.9098C9.88078 25.1231 19.0131 25.1231 22.0586 23.9098C22.4637 23.7485 22.6712 23.333 22.6712 22.897V21.9549C22.6712 18.6807 20.3684 19.9904 20.3684 18.3533C20.3684 16.7162 28.5926 12.4597 24.974 7.87582C21.7371 3.77561 18.0112 6.22463 17.261 6.78711C17.1678 6.85696 17.0918 6.94201 17.0254 7.03769L15.7628 8.85808M13.1311 8.85808C13.1311 8.85808 8.19657 8.20324 7.8676 11.15C7.53863 14.0968 8.8545 16.3887 10.8283 16.0613C12.8021 15.7339 13.1311 8.85808 13.1311 8.85808ZM13.1311 8.85808C13.1311 8.85808 10.8363 6.23872 11.4863 4.60162C11.8304 3.7348 12.5479 3.69412 13.147 3.84774C13.5889 3.96107 14.118 3.66583 14.118 3.20961V3.13055C14.118 2.85802 13.8971 2.6371 13.6245 2.6371H13.4585C13.2777 2.6371 13.1311 2.49051 13.1311 2.30968V2.30968C13.1311 2.12885 13.2777 1.98226 13.4585 1.98226H13.6269C13.8981 1.98226 14.118 1.76237 14.118 1.49113L14.118 1.32897C14.118 1.14729 14.2653 1 14.447 1V1C14.6286 1 14.7759 1.14728 14.7759 1.32897V1.49113C14.7759 1.76237 14.9958 1.98226 15.2671 1.98226H15.4354C15.6162 1.98226 15.7628 2.12885 15.7628 2.30968V2.30968C15.7628 2.49051 15.6162 2.6371 15.4354 2.6371H15.2694C14.9969 2.6371 14.7759 2.85802 14.7759 3.13055L14.7759 3.45565V3.45565C14.7759 3.79907 15.1812 4.02116 15.5053 3.90766C16.1105 3.69572 16.9444 3.63486 17.4077 4.60162C18.1922 6.23872 15.7628 8.85808 15.7628 8.85808M15.7628 8.85808C15.7628 8.85808 20.6974 8.20324 21.0263 11.15C21.3553 14.0968 20.0394 16.3887 18.0656 16.0613C16.0918 15.7339 15.7628 8.85808 15.7628 8.85808Z"></path>
<path stroke-linecap="round" stroke-width="0.995389" stroke="#0D0E12" d="M7.86768 21.3C9.10131 22.1732 19.7928 22.1732 21.0264 21.3"></path>
</svg>
