<svg xmlns="http://www.w3.org/2000/svg" fill="none" viewBox="0 0 26 34" height="34" width="26">
<path stroke="#0D0E12" fill="white" d="M13.5111 3.42031C17.8192 3.49696 21.9815 3.88666 25 4.86001V9.0001H1V4.86068C4.08773 3.87614 9.21803 3.34392 13.5111 3.42031Z"></path>
<path stroke="#0D0E12" fill="white" d="M1.03999 29.1864C1.66399 24.0261 5.71999 28.2433 5.71999 19.5766V15.8934C5.71999 14.1877 4.69443 12.6493 3.11999 11.9933L2.54179 11.7524C1.31748 11.2422 0.519989 10.046 0.519989 8.71962C0.519989 8.0306 0.767951 7.35748 1.41596 7.12335C5.43278 5.67207 20.5671 5.67212 24.584 7.12337C25.232 7.35749 25.48 8.03062 25.48 8.71964C25.48 10.046 24.6825 11.2422 23.4582 11.7524L22.88 11.9933C21.3056 12.6493 20.28 14.1877 20.28 15.8934V19.5766C20.28 28.2433 24.336 24.1663 24.96 29.3266V30.4253C24.96 31.1293 24.7646 31.8408 24.1096 32.0991C20.335 33.5876 5.65406 33.4828 1.88665 31.9491C1.23455 31.6836 1.03999 30.9726 1.03999 30.2685V29.1864Z"></path>
<path stroke-linecap="round" stroke="#0D0E12" d="M4.68002 28.2433C6.24002 29.8683 19.76 29.8683 21.32 28.2433"></path>
<path stroke-linecap="round" stroke="#0D0E12" d="M20.28 11.4517C18.2 10.91 7.80002 10.91 5.72002 11.4517"></path>
<path fill="white" d="M25.5 3.0921C24.505 2.41417 22.8195 1.8641 20.5 1.49844V6.36036C22.8682 6.67591 24.6053 7.2414 25.5 8.21527V3.0921ZM5.5 6.39544C3.13174 6.75119 1.39466 7.40296 0.5 8.562V3.09211C1.49496 2.41417 3.18047 1.8641 5.5 1.49844V6.39544ZM16 6.03858V1.06676C15.0582 1.02283 14.0576 1 13 1C11.7531 1 10.5855 1.03173 9.5 1.09237V6.0574C10.5974 6.0155 11.7677 6 13 6C14.047 6 15.0492 6.01119 16 6.03858Z" clip-rule="evenodd" fill-rule="evenodd"></path>
<path fill="black" d="M20.5 1.49844L20.5779 1.00454L20 0.913443V1.49844H20.5ZM25.5 3.0921H26V2.82774L25.7815 2.67889L25.5 3.0921ZM20.5 6.36036H20V6.79816L20.434 6.85598L20.5 6.36036ZM25.5 8.21527L25.1318 8.55353L26 9.4986V8.21527H25.5ZM0.5 8.562H0V10.028L0.895801 8.86752L0.5 8.562ZM5.5 6.39544L5.57427 6.88989L6 6.82594V6.39544H5.5ZM0.5 3.09211L0.218459 2.6789L0 2.82776V3.09211H0.5ZM5.5 1.49844H6V0.913443L5.42214 1.00454L5.5 1.49844ZM16 1.06676H16.5V0.589543L16.0233 0.567305L16 1.06676ZM16 6.03858L15.9856 6.53837L16.5 6.55319V6.03858H16ZM9.5 1.09237L9.47211 0.593147L9 0.619521V1.09237H9.5ZM9.5 6.0574H9V6.57685L9.51908 6.55703L9.5 6.0574ZM20.4221 1.99234C22.7205 2.35467 24.3167 2.89089 25.2184 3.5053L25.7815 2.67889C24.6933 1.93744 22.9185 1.37354 20.5779 1.00454L20.4221 1.99234ZM21 6.36036V1.49844H20V6.36036H21ZM25.8682 7.877C25.3464 7.30901 24.6066 6.88832 23.7216 6.57039C22.8341 6.25151 21.7697 6.02512 20.566 5.86474L20.434 6.85598C21.5985 7.01115 22.5869 7.22528 23.3835 7.5115C24.1829 7.79867 24.7589 8.14766 25.1318 8.55353L25.8682 7.877ZM26 8.21527V3.0921H25V8.21527H26ZM0.895801 8.86752C1.66249 7.87426 3.22177 7.24327 5.57427 6.88989L5.42573 5.90098C3.0417 6.2591 1.12682 6.93166 0.104199 8.25648L0.895801 8.86752ZM0 3.09211V8.562H1V3.09211H0ZM5.42214 1.00454C3.08147 1.37354 1.30665 1.93745 0.218459 2.6789L0.781541 3.50531C1.68327 2.8909 3.27948 2.35467 5.57786 1.99234L5.42214 1.00454ZM6 6.39544V1.49844H5V6.39544H6ZM15.5 1.06676V6.03858H16.5V1.06676H15.5ZM13 1.5C14.0505 1.5 15.0433 1.52268 15.9767 1.56622L16.0233 0.567305C15.0732 0.522982 14.0648 0.5 13 0.5V1.5ZM9.52789 1.59159C10.6032 1.53152 11.7615 1.5 13 1.5V0.5C11.7447 0.5 10.5677 0.531943 9.47211 0.593147L9.52789 1.59159ZM10 6.0574V1.09237H9V6.0574H10ZM13 5.5C11.7639 5.5 10.5868 5.51554 9.48092 5.55776L9.51908 6.55703C10.608 6.51546 11.7715 6.5 13 6.5V5.5ZM16.0144 5.53878C15.0576 5.51122 14.0504 5.5 13 5.5V6.5C14.0436 6.5 15.0408 6.51115 15.9856 6.53837L16.0144 5.53878Z"></path>
</svg>
