<svg xmlns="http://www.w3.org/2000/svg" fill="none" viewBox="0 0 108 22" height="22" width="108">
<rect stroke="#0D0E12" fill="white" height="21" width="107" y="0.5" x="0.5"></rect>
<path fill="#0D0E12" d="M39.63 16V7.9H41.42V11.18H42.67V7.9H44.47V16H42.67V12.46H41.42V16H39.63ZM45.7135 16V7.9H47.5035V16H45.7135ZM48.7113 16V7.9H50.7613C51.468 7.9 52.018 7.99 52.4113 8.17C52.8047 8.34333 53.0813 8.62 53.2413 9C53.4013 9.37333 53.4813 9.86 53.4813 10.46V13.4C53.4813 14.0067 53.4013 14.5033 53.2413 14.89C53.0813 15.27 52.8047 15.55 52.4113 15.73C52.0247 15.91 51.4813 16 50.7813 16H48.7113ZM50.5013 14.76H50.7813C51.0547 14.76 51.2513 14.72 51.3713 14.64C51.4913 14.56 51.5647 14.44 51.5913 14.28C51.6247 14.12 51.6413 13.92 51.6413 13.68V10.15C51.6413 9.91 51.6213 9.71667 51.5813 9.57C51.548 9.42333 51.4713 9.31667 51.3513 9.25C51.2313 9.18333 51.038 9.15 50.7713 9.15H50.5013V14.76ZM54.5707 16V7.9H58.2107V9.12H56.3607V11.13H57.7707V12.37H56.3607V14.79H58.2307V16H54.5707ZM63.712 16.12C63.152 16.12 62.7086 16.0033 62.382 15.77C62.062 15.5367 61.832 15.21 61.692 14.79C61.5586 14.3633 61.492 13.8733 61.492 13.32V10.6C61.492 10.0267 61.5653 9.53 61.712 9.11C61.8586 8.69 62.1086 8.36667 62.462 8.14C62.822 7.90667 63.3086 7.79 63.922 7.79C64.522 7.79 64.992 7.89 65.332 8.09C65.6786 8.29 65.9253 8.56667 66.072 8.92C66.2186 9.27333 66.292 9.68667 66.292 10.16V10.68H64.542V10.02C64.542 9.84667 64.5286 9.68667 64.502 9.54C64.482 9.39333 64.4286 9.27667 64.342 9.19C64.262 9.09667 64.1286 9.05 63.942 9.05C63.7486 9.05 63.6086 9.10333 63.522 9.21C63.4353 9.31 63.3786 9.43667 63.352 9.59C63.332 9.74333 63.322 9.90333 63.322 10.07V13.82C63.322 14 63.3386 14.17 63.372 14.33C63.412 14.4833 63.4786 14.61 63.572 14.71C63.672 14.8033 63.812 14.85 63.992 14.85C64.1786 14.85 64.322 14.8 64.422 14.7C64.522 14.6 64.592 14.47 64.632 14.31C64.672 14.15 64.692 13.98 64.692 13.8V12.85H63.962V11.8H66.302V16H65.122L65.022 15.33C64.9153 15.5567 64.7586 15.7467 64.552 15.9C64.3453 16.0467 64.0653 16.12 63.712 16.12ZM67.4223 16V7.9H69.6523C70.1989 7.9 70.6723 7.96 71.0723 8.08C71.4723 8.2 71.7823 8.41667 72.0023 8.73C72.2289 9.03667 72.3423 9.47333 72.3423 10.04C72.3423 10.3733 72.3156 10.67 72.2623 10.93C72.2089 11.19 72.1089 11.4167 71.9623 11.61C71.8223 11.7967 71.6189 11.9533 71.3523 12.08L72.4623 16H70.6123L69.7223 12.37H69.2123V16H67.4223ZM69.2123 11.34H69.7123C69.9656 11.34 70.1623 11.2967 70.3023 11.21C70.4423 11.1167 70.5389 10.9867 70.5923 10.82C70.6523 10.6467 70.6823 10.44 70.6823 10.2C70.6823 9.85333 70.6189 9.58333 70.4923 9.39C70.3656 9.19667 70.1323 9.1 69.7923 9.1H69.2123V11.34ZM73.4284 16V7.9H75.2184V16H73.4284ZM76.4262 16V7.9H78.4762C79.1828 7.9 79.7328 7.99 80.1262 8.17C80.5195 8.34333 80.7962 8.62 80.9562 9C81.1162 9.37333 81.1962 9.86 81.1962 10.46V13.4C81.1962 14.0067 81.1162 14.5033 80.9562 14.89C80.7962 15.27 80.5195 15.55 80.1262 15.73C79.7395 15.91 79.1962 16 78.4962 16H76.4262ZM78.2162 14.76H78.4962C78.7695 14.76 78.9662 14.72 79.0862 14.64C79.2062 14.56 79.2795 14.44 79.3062 14.28C79.3395 14.12 79.3562 13.92 79.3562 13.68V10.15C79.3562 9.91 79.3362 9.71667 79.2962 9.57C79.2628 9.42333 79.1862 9.31667 79.0662 9.25C78.9462 9.18333 78.7528 9.15 78.4862 9.15H78.2162V14.76Z"></path>
<rect fill="#0D0E12" height="9" width="1" y="7" x="32"></rect>
<rect fill="#0D0E12" height="9" width="1" y="7" x="28"></rect>
<rect fill="#0D0E12" transform="rotate(-90 26 10)" height="9" width="1" y="10" x="26"></rect>
<rect fill="#0D0E12" transform="rotate(-90 26 14)" height="9" width="1" y="14" x="26"></rect>
</svg>
