<svg xmlns="http://www.w3.org/2000/svg" fill="none" viewBox="0 0 27 34" height="34" width="27">
<path stroke="#0D0E12" fill="white" d="M14.0111 3.4186C18.3192 3.49525 22.4815 3.88495 25.5 4.8583V8.99839H1.5V4.85897C4.58773 3.87444 9.71803 3.34221 14.0111 3.4186Z"></path>
<path stroke="#0D0E12" fill="white" d="M1.53999 29.1847C2.16399 24.0243 6.21999 28.2416 6.21999 19.5749V15.8917C6.21999 14.186 5.19443 12.6476 3.61999 11.9916L3.04179 11.7507C1.81748 11.2405 1.01999 10.0442 1.01999 8.71791C1.01999 8.0289 1.26795 7.35577 1.91596 7.12164C5.93278 5.67037 21.0671 5.67041 25.084 7.12166C25.732 7.35578 25.98 8.02891 25.98 8.71793C25.98 10.0443 25.1825 11.2405 23.9582 11.7507L23.38 11.9916C21.8056 12.6476 20.78 14.186 20.78 15.8917V19.5749C20.78 28.2416 24.836 24.1646 25.46 29.3249V30.4236C25.46 31.1276 25.2646 31.8391 24.6096 32.0974C20.835 33.5859 6.15406 33.4811 2.38665 31.9474C1.73455 31.6819 1.53999 30.9708 1.53999 30.2668V29.1847Z"></path>
<path stroke-linecap="round" stroke="#0D0E12" d="M5.18002 28.2416C6.74002 29.8666 20.26 29.8666 21.82 28.2416"></path>
<path stroke-linecap="round" stroke="#0D0E12" d="M20.78 11.4499C18.7 10.9083 8.30002 10.9083 6.22002 11.45"></path>
<path fill="white" d="M26 3.09039C25.234 2.56847 24.0587 2.12234 22.5 1.7778V6.61135C24.1071 6.94928 25.3066 7.45877 26 8.21356V3.09039ZM2 7.66558V2.55092C3.27279 1.99527 5.12096 1.5622 7.5 1.29625V6.21364C5.12955 6.43632 3.24365 6.86774 2 7.66558ZM18 6.0965V1.15639C16.6414 1.05313 15.1392 0.998291 13.5 0.998291C12.8088 0.998291 12.142 1.00804 11.5 1.02706V6.01461C12.1462 6.0031 12.8135 5.99829 13.5 5.99829C15.1146 5.99829 16.6228 6.02489 18 6.0965Z" clip-rule="evenodd" fill-rule="evenodd"></path>
<path fill="black" d="M22.5 1.7778L22.6079 1.28958L22 1.15521V1.7778H22.5ZM26 3.09039H26.5V2.82603L26.2815 2.67718L26 3.09039ZM22.5 6.61135H22V7.01715L22.3971 7.10065L22.5 6.61135ZM26 8.21356L25.6318 8.55182L26.5 9.4969V8.21356H26ZM2 2.55092L1.79995 2.09268L1.5 2.22363V2.55092H2ZM2 7.66558H1.5V8.5804L2.26999 8.08642L2 7.66558ZM7.5 1.29625H8V0.737241L7.44445 0.799346L7.5 1.29625ZM7.5 6.21364L7.54676 6.71145L8 6.66887V6.21364H7.5ZM18 1.15639H18.5V0.692944L18.0379 0.657823L18 1.15639ZM18 6.0965L17.974 6.59583L18.5 6.62317V6.0965H18ZM11.5 1.02706L11.4852 0.52728L11 0.541654V1.02706H11.5ZM11.5 6.01461H11V6.52359L11.5089 6.51453L11.5 6.01461ZM22.3921 2.26601C23.9245 2.60474 25.0286 3.03356 25.7185 3.50359L26.2815 2.67718C25.4394 2.10339 24.193 1.63995 22.6079 1.28958L22.3921 2.26601ZM23 6.61135V1.7778H22V6.61135H23ZM26.3682 7.8753C25.5659 7.002 24.2373 6.46571 22.6029 6.12205L22.3971 7.10065C23.977 7.43286 25.0472 7.91553 25.6318 8.55182L26.3682 7.8753ZM26.5 8.21356V3.09039H25.5V8.21356H26.5ZM1.5 2.55092V7.66558H2.5V2.55092H1.5ZM7.44445 0.799346C5.04233 1.06788 3.13815 1.50847 1.79995 2.09268L2.20005 3.00915C3.40742 2.48206 5.1996 2.05653 7.55555 1.79316L7.44445 0.799346ZM8 6.21364V1.29625H7V6.21364H8ZM2.26999 8.08642C3.40699 7.357 5.19007 6.93284 7.54676 6.71145L7.45324 5.71583C5.06902 5.93981 3.08031 6.37848 1.73001 7.24474L2.26999 8.08642ZM17.5 1.15639V6.0965H18.5V1.15639H17.5ZM13.5 1.49829C15.1283 1.49829 16.6177 1.55277 17.9621 1.65495L18.0379 0.657823C16.6651 0.553488 15.1502 0.498291 13.5 0.498291V1.49829ZM11.5148 1.52684C12.1516 1.50798 12.8135 1.49829 13.5 1.49829V0.498291C12.8041 0.498291 12.1323 0.508107 11.4852 0.52728L11.5148 1.52684ZM12 6.01461V1.02706H11V6.01461H12ZM13.5 5.49829C12.8112 5.49829 12.1409 5.50312 11.4911 5.51469L11.5089 6.51453C12.1515 6.50309 12.8157 6.49829 13.5 6.49829V5.49829ZM18.026 5.59718C16.637 5.52496 15.1194 5.49829 13.5 5.49829V6.49829C15.1098 6.49829 16.6086 6.52483 17.974 6.59583L18.026 5.59718Z"></path>
</svg>
