<svg xmlns="http://www.w3.org/2000/svg" fill="none" viewBox="0 0 214 84" height="84" width="214">
<mask fill="white" id="path-1-inside-1_1433_45">
<path d="M0 0H214V84H0V0Z"></path>
</mask>
<path fill="#0D0E12" d="M0 0H214V84H0V0Z"></path>
<path mask="url(#path-1-inside-1_1433_45)" fill="white" d="M0 0V-1H-1V0H0ZM0 84H-1V85H0V84ZM0 1H214V-1H0V1ZM214 83H0V85H214V83ZM1 84V0H-1V84H1Z"></path>
<path fill="#05FF00" d="M16.72 38V28.28H22.54V38H20.428V29.816H18.832V38H16.72ZM26.7696 38.144C26.0416 38.144 25.4656 38.016 25.0416 37.76C24.6176 37.504 24.3136 37.136 24.1296 36.656C23.9456 36.176 23.8536 35.604 23.8536 34.94V31.328C23.8536 30.656 23.9456 30.084 24.1296 29.612C24.3136 29.14 24.6176 28.78 25.0416 28.532C25.4656 28.276 26.0416 28.148 26.7696 28.148C27.5056 28.148 28.0856 28.276 28.5096 28.532C28.9416 28.78 29.2496 29.14 29.4336 29.612C29.6176 30.084 29.7096 30.656 29.7096 31.328V34.94C29.7096 35.604 29.6176 36.176 29.4336 36.656C29.2496 37.136 28.9416 37.504 28.5096 37.76C28.0856 38.016 27.5056 38.144 26.7696 38.144ZM26.7696 36.62C26.9936 36.62 27.1576 36.564 27.2616 36.452C27.3656 36.34 27.4336 36.196 27.4656 36.02C27.4976 35.844 27.5136 35.664 27.5136 35.48V30.8C27.5136 30.608 27.4976 30.428 27.4656 30.26C27.4336 30.084 27.3656 29.94 27.2616 29.828C27.1576 29.716 26.9936 29.66 26.7696 29.66C26.5616 29.66 26.4056 29.716 26.3016 29.828C26.1976 29.94 26.1296 30.084 26.0976 30.26C26.0656 30.428 26.0496 30.608 26.0496 30.8V35.48C26.0496 35.664 26.0616 35.844 26.0856 36.02C26.1176 36.196 26.1816 36.34 26.2776 36.452C26.3816 36.564 26.5456 36.62 26.7696 36.62ZM31.0529 38V28.28H35.8769V29.912H33.2009V32.384H33.6569C34.2729 32.384 34.7929 32.484 35.2169 32.684C35.6489 32.884 35.9769 33.192 36.2009 33.608C36.4249 34.016 36.5369 34.544 36.5369 35.192C36.5369 35.784 36.4569 36.264 36.2969 36.632C36.1449 37 35.9289 37.284 35.6489 37.484C35.3689 37.684 35.0409 37.82 34.6649 37.892C34.2969 37.964 33.8969 38 33.4649 38H31.0529ZM33.2009 36.596H33.4769C33.7489 36.596 33.9649 36.544 34.1249 36.44C34.2849 36.336 34.3969 36.176 34.4609 35.96C34.5249 35.744 34.5529 35.472 34.5449 35.144C34.5369 34.784 34.4609 34.484 34.3169 34.244C34.1729 33.996 33.8849 33.872 33.4529 33.872H33.2009V36.596ZM37.6614 38V28.28H42.0294V29.744H39.8094V32.156H41.5014V33.644H39.8094V36.548H42.0534V38H37.6614ZM42.5246 40.1V36.464H42.8006C42.9846 36.408 43.1526 36.312 43.3046 36.176C43.4646 36.032 43.6086 35.84 43.7366 35.6C43.8646 35.36 43.9806 35.06 44.0846 34.7C44.1886 34.34 44.2766 33.912 44.3486 33.416C44.4206 32.912 44.4806 32.332 44.5286 31.676L44.7926 28.28H49.3166V36.464H50.4086V40.1H48.9926L48.8846 38H44.1206L44.0006 40.1H42.5246ZM44.8286 36.464H47.3126V29.804H46.4126L46.3046 31.892C46.2646 32.58 46.2046 33.164 46.1246 33.644C46.0526 34.124 45.9646 34.524 45.8606 34.844C45.7646 35.156 45.6606 35.412 45.5486 35.612C45.4366 35.812 45.3166 35.976 45.1886 36.104C45.0686 36.232 44.9486 36.352 44.8286 36.464ZM50.8809 38L52.7169 28.28H55.1649L56.9769 38H54.9969L54.6729 35.948H53.2449L52.9089 38H50.8809ZM53.4369 34.664H54.4689L53.9529 30.872L53.4369 34.664Z"></path>
<path fill="white" d="M16.63 56V47.9H18.49C18.8567 47.9 19.1733 47.94 19.44 48.02C19.7133 48.1 19.94 48.2233 20.12 48.39C20.3 48.5567 20.4333 48.77 20.52 49.03C20.6067 49.2833 20.65 49.5833 20.65 49.93C20.65 50.2633 20.6067 50.5533 20.52 50.8C20.44 51.04 20.3133 51.23 20.14 51.37C19.9733 51.51 19.7567 51.6 19.49 51.64C19.8167 51.7133 20.08 51.84 20.28 52.02C20.48 52.1933 20.6267 52.42 20.72 52.7C20.82 52.9733 20.87 53.3033 20.87 53.69C20.87 54.0367 20.83 54.3533 20.75 54.64C20.67 54.9267 20.5433 55.17 20.37 55.37C20.2033 55.57 19.9867 55.7267 19.72 55.84C19.46 55.9467 19.15 56 18.79 56H16.63ZM17.76 55.19H18.52C19.0267 55.19 19.3633 55.0733 19.53 54.84C19.7033 54.6 19.79 54.2167 19.79 53.69C19.79 53.35 19.7433 53.0667 19.65 52.84C19.5633 52.6067 19.42 52.4333 19.22 52.32C19.0267 52.2 18.7633 52.14 18.43 52.14H17.76V55.19ZM17.76 51.28H18.43C18.75 51.28 19 51.2367 19.18 51.15C19.36 51.0567 19.4867 50.91 19.56 50.71C19.6333 50.51 19.67 50.25 19.67 49.93C19.67 49.5567 19.6133 49.2867 19.5 49.12C19.3867 48.9533 19.21 48.85 18.97 48.81C18.73 48.7633 18.4167 48.74 18.03 48.74H17.76V51.28ZM21.7841 56V50.22H22.8541V52.61C22.8675 52.61 22.8841 52.61 22.9041 52.61C22.9308 52.61 22.9541 52.61 22.9741 52.61C22.9941 52.61 23.0108 52.61 23.0241 52.61C23.4175 52.6167 23.7508 52.6467 24.0241 52.7C24.3041 52.7467 24.5308 52.8333 24.7041 52.96C24.8775 53.08 25.0041 53.25 25.0841 53.47C25.1641 53.6833 25.2041 53.96 25.2041 54.3C25.2041 54.6133 25.1641 54.88 25.0841 55.1C25.0041 55.3133 24.8741 55.4867 24.6941 55.62C24.5141 55.7533 24.2775 55.85 23.9841 55.91C23.6908 55.97 23.3341 56 22.9141 56H21.7841ZM22.8541 55.37H22.9141C23.2541 55.37 23.5208 55.34 23.7141 55.28C23.9075 55.22 24.0441 55.1133 24.1241 54.96C24.2041 54.8 24.2441 54.5767 24.2441 54.29C24.2441 54.03 24.2075 53.8267 24.1341 53.68C24.0675 53.5267 23.9408 53.4167 23.7541 53.35C23.5741 53.2767 23.3108 53.24 22.9641 53.24C22.9575 53.24 22.9408 53.24 22.9141 53.24C22.8875 53.24 22.8675 53.24 22.8541 53.24V55.37ZM25.8641 56V50.22H26.9341V56H25.8641ZM30.2998 56V50.22H33.6598V56H32.5898V51.03H31.3698V56H30.2998ZM36.3331 56.08C35.9065 56.08 35.5698 55.9933 35.3231 55.82C35.0765 55.6467 34.8998 55.4 34.7931 55.08C34.6931 54.76 34.6431 54.3833 34.6431 53.95V52.27C34.6431 51.8367 34.6931 51.46 34.7931 51.14C34.8998 50.82 35.0765 50.5733 35.3231 50.4C35.5698 50.2267 35.9065 50.14 36.3331 50.14C36.7598 50.14 37.0931 50.2267 37.3331 50.4C37.5798 50.5733 37.7531 50.82 37.8531 51.14C37.9598 51.46 38.0131 51.8367 38.0131 52.27V53.95C38.0131 54.3833 37.9598 54.76 37.8531 55.08C37.7531 55.4 37.5798 55.6467 37.3331 55.82C37.0931 55.9933 36.7598 56.08 36.3331 56.08ZM36.3331 55.29C36.5398 55.29 36.6831 55.23 36.7631 55.11C36.8498 54.99 36.8998 54.8333 36.9131 54.64C36.9331 54.44 36.9431 54.2333 36.9431 54.02V52.21C36.9431 51.99 36.9331 51.7833 36.9131 51.59C36.8998 51.3967 36.8498 51.24 36.7631 51.12C36.6831 50.9933 36.5398 50.93 36.3331 50.93C36.1265 50.93 35.9798 50.9933 35.8931 51.12C35.8065 51.24 35.7531 51.3967 35.7331 51.59C35.7198 51.7833 35.7131 51.99 35.7131 52.21V54.02C35.7131 54.2333 35.7198 54.44 35.7331 54.64C35.7531 54.8333 35.8065 54.99 35.8931 55.11C35.9798 55.23 36.1265 55.29 36.3331 55.29ZM40.5712 56.08C40.0978 56.08 39.7378 55.9867 39.4912 55.8C39.2512 55.6067 39.0878 55.3367 39.0012 54.99C38.9212 54.6433 38.8812 54.24 38.8812 53.78V52.45C38.8812 51.9633 38.9245 51.55 39.0112 51.21C39.0978 50.8633 39.2612 50.6 39.5012 50.42C39.7478 50.2333 40.1045 50.14 40.5712 50.14C40.9912 50.14 41.3145 50.21 41.5412 50.35C41.7745 50.4833 41.9345 50.6867 42.0212 50.96C42.1078 51.2267 42.1512 51.56 42.1512 51.96V52.3H41.1812V51.95C41.1812 51.6967 41.1645 51.4967 41.1312 51.35C41.0978 51.2033 41.0378 51.0967 40.9512 51.03C40.8645 50.9633 40.7412 50.93 40.5812 50.93C40.4078 50.93 40.2745 50.97 40.1812 51.05C40.0878 51.13 40.0245 51.2667 39.9912 51.46C39.9645 51.6467 39.9512 51.9033 39.9512 52.23V54.05C39.9512 54.5433 39.9978 54.8733 40.0912 55.04C40.1845 55.2067 40.3512 55.29 40.5912 55.29C40.7712 55.29 40.9012 55.25 40.9812 55.17C41.0678 55.0833 41.1212 54.9633 41.1412 54.81C41.1678 54.6567 41.1812 54.4833 41.1812 54.29V53.82H42.1512V54.22C42.1512 54.6067 42.1045 54.94 42.0112 55.22C41.9245 55.5 41.7645 55.7133 41.5312 55.86C41.3045 56.0067 40.9845 56.08 40.5712 56.08ZM43.7525 56V51.02H42.6725V50.22H45.9125V51.02H44.8225V56H43.7525ZM47.5995 56.08C47.3729 56.08 47.1729 56.0167 46.9995 55.89C46.8262 55.7567 46.6895 55.59 46.5895 55.39C46.4895 55.1833 46.4395 54.9667 46.4395 54.74C46.4395 54.38 46.4995 54.0767 46.6195 53.83C46.7395 53.5833 46.9029 53.3767 47.1095 53.21C47.3229 53.0367 47.5662 52.8867 47.8395 52.76C48.1195 52.6333 48.4129 52.51 48.7195 52.39V51.98C48.7195 51.7467 48.7062 51.5533 48.6795 51.4C48.6529 51.2467 48.5962 51.1333 48.5095 51.06C48.4295 50.98 48.3062 50.94 48.1395 50.94C47.9929 50.94 47.8729 50.9733 47.7795 51.04C47.6929 51.1067 47.6295 51.2033 47.5895 51.33C47.5495 51.45 47.5295 51.5933 47.5295 51.76V52.05L46.4695 52.01C46.4829 51.37 46.6295 50.9 46.9095 50.6C47.1895 50.2933 47.6229 50.14 48.2095 50.14C48.7829 50.14 49.1895 50.2967 49.4295 50.61C49.6695 50.9233 49.7895 51.3767 49.7895 51.97V54.61C49.7895 54.79 49.7929 54.9633 49.7995 55.13C49.8129 55.2967 49.8262 55.4533 49.8395 55.6C49.8595 55.74 49.8762 55.8733 49.8895 56H48.9095C48.8895 55.8933 48.8629 55.76 48.8295 55.6C48.8029 55.4333 48.7829 55.2833 48.7695 55.15C48.7029 55.3767 48.5729 55.59 48.3795 55.79C48.1929 55.9833 47.9329 56.08 47.5995 56.08ZM48.0195 55.16C48.1262 55.16 48.2262 55.13 48.3195 55.07C48.4129 55.01 48.4962 54.9433 48.5695 54.87C48.6429 54.79 48.6929 54.7267 48.7195 54.68V53.04C48.5529 53.1333 48.3962 53.2267 48.2495 53.32C48.1029 53.4133 47.9729 53.5133 47.8595 53.62C47.7529 53.72 47.6662 53.8367 47.5995 53.97C47.5395 54.0967 47.5095 54.2433 47.5095 54.41C47.5095 54.6433 47.5529 54.8267 47.6395 54.96C47.7262 55.0933 47.8529 55.16 48.0195 55.16ZM50.8173 56V50.22H52.4373C52.8307 50.22 53.1373 50.2867 53.3573 50.42C53.584 50.5467 53.744 50.7167 53.8373 50.93C53.9373 51.1367 53.9907 51.36 53.9973 51.6C54.004 51.8867 53.9573 52.1433 53.8573 52.37C53.7573 52.5967 53.5507 52.7567 53.2373 52.85C53.4773 52.8967 53.6607 52.9967 53.7873 53.15C53.9207 53.2967 54.0107 53.4733 54.0573 53.68C54.1107 53.8867 54.1373 54.1 54.1373 54.32C54.1373 54.6533 54.0873 54.9467 53.9873 55.2C53.894 55.4533 53.7273 55.65 53.4873 55.79C53.254 55.93 52.9207 56 52.4873 56H50.8173ZM51.8673 55.19H52.2473C52.4007 55.19 52.5407 55.17 52.6673 55.13C52.794 55.0833 52.894 54.9933 52.9673 54.86C53.0473 54.7267 53.0873 54.5333 53.0873 54.28C53.0873 53.98 53.0507 53.7633 52.9773 53.63C52.9107 53.49 52.8173 53.4033 52.6973 53.37C52.584 53.3367 52.4507 53.32 52.2973 53.32H51.8673V55.19ZM51.8673 52.55H52.3873C52.594 52.55 52.7573 52.49 52.8773 52.37C52.9973 52.25 53.0573 52.0367 53.0573 51.73C53.0573 51.4567 52.9873 51.2667 52.8473 51.16C52.7073 51.0533 52.5173 51 52.2773 51H51.8673V52.55ZM54.9677 56V50.22H55.8677V54.11L57.6077 50.22H58.4477V56H57.5677V52.08L55.8377 56H54.9677ZM59.168 56.05V55.24C59.368 55.24 59.5247 55.2 59.638 55.12C59.758 55.04 59.848 54.9067 59.908 54.72C59.9747 54.5267 60.0247 54.27 60.058 53.95C60.0914 53.6233 60.1214 53.2167 60.148 52.73L60.278 50.22H63.308V56H62.238V51.03H61.218L61.128 52.73C61.0947 53.39 61.0447 53.9367 60.978 54.37C60.918 54.8033 60.8214 55.1433 60.688 55.39C60.5547 55.63 60.3747 55.8 60.148 55.9C59.928 56 59.6414 56.05 59.288 56.05H59.168ZM64.3916 56V50.22H65.2916V54.11L67.0316 50.22H67.8716V56H66.9916V52.08L65.2616 56H64.3916ZM71.217 56L71.277 50.22H72.067L73.347 53.77L74.637 50.22H75.427L75.487 56H74.587V52.55L73.517 55.43H73.187L72.117 52.57V56H71.217ZM77.58 56.08C77.3533 56.08 77.1533 56.0167 76.98 55.89C76.8067 55.7567 76.67 55.59 76.57 55.39C76.47 55.1833 76.42 54.9667 76.42 54.74C76.42 54.38 76.48 54.0767 76.6 53.83C76.72 53.5833 76.8833 53.3767 77.09 53.21C77.3033 53.0367 77.5467 52.8867 77.82 52.76C78.1 52.6333 78.3933 52.51 78.7 52.39V51.98C78.7 51.7467 78.6867 51.5533 78.66 51.4C78.6333 51.2467 78.5767 51.1333 78.49 51.06C78.41 50.98 78.2867 50.94 78.12 50.94C77.9733 50.94 77.8533 50.9733 77.76 51.04C77.6733 51.1067 77.61 51.2033 77.57 51.33C77.53 51.45 77.51 51.5933 77.51 51.76V52.05L76.45 52.01C76.4633 51.37 76.61 50.9 76.89 50.6C77.17 50.2933 77.6033 50.14 78.19 50.14C78.7633 50.14 79.17 50.2967 79.41 50.61C79.65 50.9233 79.77 51.3767 79.77 51.97V54.61C79.77 54.79 79.7733 54.9633 79.78 55.13C79.7933 55.2967 79.8067 55.4533 79.82 55.6C79.84 55.74 79.8567 55.8733 79.87 56H78.89C78.87 55.8933 78.8433 55.76 78.81 55.6C78.7833 55.4333 78.7633 55.2833 78.75 55.15C78.6833 55.3767 78.5533 55.59 78.36 55.79C78.1733 55.9833 77.9133 56.08 77.58 56.08ZM78 55.16C78.1067 55.16 78.2067 55.13 78.3 55.07C78.3933 55.01 78.4767 54.9433 78.55 54.87C78.6233 54.79 78.6733 54.7267 78.7 54.68V53.04C78.5333 53.1333 78.3767 53.2267 78.23 53.32C78.0833 53.4133 77.9533 53.5133 77.84 53.62C77.7333 53.72 77.6467 53.8367 77.58 53.97C77.52 54.0967 77.49 54.2433 77.49 54.41C77.49 54.6433 77.5333 54.8267 77.62 54.96C77.7067 55.0933 77.8333 55.16 78 55.16ZM81.4478 56V51.02H80.3678V50.22H83.6078V51.02H82.5178V56H81.4478Z"></path>
</svg>
