<svg xmlns="http://www.w3.org/2000/svg" fill="none" viewBox="0 0 103 24" height="24" width="103">
<path fill="white" d="M28.912 19L29.136 6.04H32.208L33.632 13.576L35.168 6.04H38.128L38.352 19H36.32L36.08 10.376L34.576 19H32.768L31.168 10.312L30.976 19H28.912ZM43.1216 19.16C42.4603 19.16 41.8843 19.048 41.3936 18.824C40.9136 18.6 40.5403 18.264 40.2736 17.816C40.0176 17.368 39.8896 16.808 39.8896 16.136V12.616C39.8896 11.944 40.0176 11.384 40.2736 10.936C40.5403 10.488 40.9136 10.152 41.3936 9.928C41.8843 9.704 42.4603 9.592 43.1216 9.592C43.783 9.592 44.3536 9.704 44.8336 9.928C45.3243 10.152 45.703 10.488 45.9696 10.936C46.2363 11.384 46.3696 11.944 46.3696 12.616V16.136C46.3696 16.808 46.2363 17.368 45.9696 17.816C45.703 18.264 45.3243 18.6 44.8336 18.824C44.3536 19.048 43.783 19.16 43.1216 19.16ZM43.1376 17.432C43.3083 17.432 43.4416 17.3893 43.5376 17.304C43.6336 17.208 43.6976 17.08 43.7296 16.92C43.7723 16.7493 43.7936 16.5467 43.7936 16.312V12.44C43.7936 12.2053 43.7723 12.008 43.7296 11.848C43.6976 11.6773 43.6336 11.5493 43.5376 11.464C43.4416 11.368 43.3083 11.32 43.1376 11.32C42.967 11.32 42.8336 11.368 42.7376 11.464C42.6416 11.5493 42.5723 11.6773 42.5296 11.848C42.487 12.008 42.4656 12.2053 42.4656 12.44V16.312C42.4656 16.5467 42.487 16.7493 42.5296 16.92C42.5723 17.08 42.6416 17.208 42.7376 17.304C42.8336 17.3893 42.967 17.432 43.1376 17.432ZM50.664 19.16C49.8533 19.16 49.176 18.9787 48.632 18.616C48.0987 18.2533 47.6613 17.6613 47.32 16.84L49.096 16.056C49.2667 16.472 49.464 16.8027 49.688 17.048C49.9227 17.2827 50.1787 17.4 50.456 17.4C50.6587 17.4 50.808 17.3573 50.904 17.272C51.0107 17.1867 51.064 17.0693 51.064 16.92C51.064 16.6747 50.968 16.4507 50.776 16.248C50.5947 16.0453 50.264 15.7467 49.784 15.352L49.112 14.792C48.6213 14.376 48.232 13.976 47.944 13.592C47.6667 13.1973 47.528 12.712 47.528 12.136C47.528 11.6347 47.656 11.192 47.912 10.808C48.1787 10.424 48.5307 10.1253 48.968 9.912C49.4053 9.69867 49.8747 9.592 50.376 9.592C51.1333 9.592 51.768 9.8 52.28 10.216C52.792 10.632 53.1493 11.2187 53.352 11.976L51.672 12.744C51.608 12.5413 51.5173 12.3387 51.4 12.136C51.2827 11.9333 51.1387 11.7627 50.968 11.624C50.808 11.4853 50.632 11.416 50.44 11.416C50.2693 11.416 50.1307 11.464 50.024 11.56C49.928 11.656 49.88 11.784 49.88 11.944C49.88 12.1467 49.992 12.3653 50.216 12.6C50.4507 12.8347 50.7707 13.1173 51.176 13.448L51.832 14.024C52.0987 14.248 52.36 14.488 52.616 14.744C52.872 15 53.08 15.2827 53.24 15.592C53.4107 15.9013 53.496 16.2533 53.496 16.648C53.496 17.1813 53.3627 17.64 53.096 18.024C52.8293 18.3973 52.4773 18.68 52.04 18.872C51.6133 19.064 51.1547 19.16 50.664 19.16ZM58.4533 19.192C57.4719 19.192 56.6933 19.016 56.1173 18.664C55.5519 18.3013 55.1519 17.8 54.9173 17.16C54.6826 16.5093 54.5653 15.7467 54.5653 14.872V10.2C54.5653 9.304 54.6826 8.536 54.9173 7.896C55.1519 7.24533 55.5519 6.744 56.1173 6.392C56.6933 6.04 57.4719 5.864 58.4533 5.864C59.4133 5.864 60.1599 6.024 60.6933 6.344C61.2373 6.65333 61.6213 7.09067 61.8453 7.656C62.0693 8.22133 62.1813 8.872 62.1813 9.608V10.728H59.3813V9.432C59.3813 9.176 59.3653 8.93067 59.3333 8.696C59.3119 8.46133 59.2373 8.26933 59.1093 8.12C58.9813 7.96 58.7626 7.88 58.4533 7.88C58.1546 7.88 57.9306 7.96 57.7812 8.12C57.6426 8.28 57.5519 8.48267 57.5093 8.728C57.4773 8.96267 57.4613 9.21333 57.4613 9.48V15.576C57.4613 15.864 57.4826 16.1307 57.5253 16.376C57.5786 16.6107 57.6746 16.8027 57.8133 16.952C57.9626 17.0907 58.1759 17.16 58.4533 17.16C58.7519 17.16 58.9653 17.0853 59.0933 16.936C59.2213 16.776 59.3013 16.5733 59.3333 16.328C59.3653 16.0827 59.3813 15.832 59.3813 15.576V14.216H62.1813V15.336C62.1813 16.072 62.0693 16.7333 61.8453 17.32C61.6319 17.896 61.2533 18.3547 60.7093 18.696C60.1759 19.0267 59.4239 19.192 58.4533 19.192ZM63.6289 19V6.04H66.2209V10.568C66.5622 10.2267 66.9195 9.98133 67.2929 9.832C67.6662 9.672 68.0662 9.592 68.4929 9.592C68.8662 9.592 69.1755 9.688 69.4209 9.88C69.6769 10.0613 69.8689 10.3173 69.9969 10.648C70.1249 10.968 70.1889 11.336 70.1889 11.752V19H67.5969V12.12C67.5969 11.896 67.5595 11.7253 67.4849 11.608C67.4102 11.4907 67.2715 11.432 67.0689 11.432C66.9622 11.432 66.8342 11.464 66.6849 11.528C66.5355 11.5813 66.3809 11.6613 66.2209 11.768V19H63.6289ZM74.7775 19.16C74.1055 19.16 73.5295 19.0427 73.0495 18.808C72.5695 18.5627 72.2015 18.2107 71.9455 17.752C71.6895 17.2827 71.5615 16.7227 71.5615 16.072V12.68C71.5615 12.0187 71.6895 11.4587 71.9455 11C72.2015 10.5413 72.5695 10.1947 73.0495 9.96C73.5402 9.71467 74.1162 9.592 74.7775 9.592C75.4602 9.592 76.0255 9.70933 76.4735 9.944C76.9322 10.1787 77.2735 10.5253 77.4975 10.984C77.7322 11.4427 77.8495 12.008 77.8495 12.68V14.536H74.1375V16.312C74.1375 16.5467 74.1642 16.7387 74.2175 16.888C74.2708 17.0373 74.3455 17.144 74.4415 17.208C74.5375 17.272 74.6495 17.304 74.7775 17.304C74.9055 17.304 75.0175 17.2773 75.1135 17.224C75.2202 17.16 75.3002 17.064 75.3535 16.936C75.4175 16.808 75.4495 16.632 75.4495 16.408V15.432H77.8495V16.328C77.8495 17.2667 77.5775 17.976 77.0335 18.456C76.4895 18.9253 75.7375 19.16 74.7775 19.16ZM74.1375 13.32H75.4495V12.392C75.4495 12.1467 75.4175 11.9547 75.3535 11.816C75.3002 11.6773 75.2202 11.5813 75.1135 11.528C75.0175 11.4747 74.9002 11.448 74.7615 11.448C74.6335 11.448 74.5215 11.48 74.4255 11.544C74.3402 11.608 74.2708 11.72 74.2175 11.88C74.1642 12.0293 74.1375 12.248 74.1375 12.536V13.32ZM82.1171 19.16C81.3065 19.16 80.6291 18.9787 80.0851 18.616C79.5518 18.2533 79.1145 17.6613 78.7731 16.84L80.5491 16.056C80.7198 16.472 80.9171 16.8027 81.1411 17.048C81.3758 17.2827 81.6318 17.4 81.9091 17.4C82.1118 17.4 82.2611 17.3573 82.3571 17.272C82.4638 17.1867 82.5171 17.0693 82.5171 16.92C82.5171 16.6747 82.4211 16.4507 82.2291 16.248C82.0478 16.0453 81.7171 15.7467 81.2371 15.352L80.5651 14.792C80.0745 14.376 79.6851 13.976 79.3971 13.592C79.1198 13.1973 78.9811 12.712 78.9811 12.136C78.9811 11.6347 79.1091 11.192 79.3651 10.808C79.6318 10.424 79.9838 10.1253 80.4211 9.912C80.8585 9.69867 81.3278 9.592 81.8291 9.592C82.5865 9.592 83.2211 9.8 83.7331 10.216C84.2451 10.632 84.6025 11.2187 84.8051 11.976L83.1251 12.744C83.0611 12.5413 82.9705 12.3387 82.8531 12.136C82.7358 11.9333 82.5918 11.7627 82.4211 11.624C82.2611 11.4853 82.0851 11.416 81.8931 11.416C81.7225 11.416 81.5838 11.464 81.4771 11.56C81.3811 11.656 81.3331 11.784 81.3331 11.944C81.3331 12.1467 81.4451 12.3653 81.6691 12.6C81.9038 12.8347 82.2238 13.1173 82.6291 13.448L83.2851 14.024C83.5518 14.248 83.8131 14.488 84.0691 14.744C84.3251 15 84.5331 15.2827 84.6931 15.592C84.8638 15.9013 84.9491 16.2533 84.9491 16.648C84.9491 17.1813 84.8158 17.64 84.5491 18.024C84.2825 18.3973 83.9305 18.68 83.4931 18.872C83.0665 19.064 82.6078 19.16 82.1171 19.16ZM88.8984 19.16C88.0877 19.16 87.4104 18.9787 86.8664 18.616C86.333 18.2533 85.8957 17.6613 85.5544 16.84L87.3304 16.056C87.501 16.472 87.6984 16.8027 87.9224 17.048C88.157 17.2827 88.413 17.4 88.6904 17.4C88.893 17.4 89.0424 17.3573 89.1384 17.272C89.245 17.1867 89.2984 17.0693 89.2984 16.92C89.2984 16.6747 89.2024 16.4507 89.0104 16.248C88.829 16.0453 88.4984 15.7467 88.0184 15.352L87.3464 14.792C86.8557 14.376 86.4664 13.976 86.1784 13.592C85.901 13.1973 85.7624 12.712 85.7624 12.136C85.7624 11.6347 85.8904 11.192 86.1464 10.808C86.413 10.424 86.765 10.1253 87.2024 9.912C87.6397 9.69867 88.109 9.592 88.6104 9.592C89.3677 9.592 90.0024 9.8 90.5144 10.216C91.0264 10.632 91.3837 11.2187 91.5864 11.976L89.9064 12.744C89.8424 12.5413 89.7517 12.3387 89.6344 12.136C89.517 11.9333 89.373 11.7627 89.2024 11.624C89.0424 11.4853 88.8664 11.416 88.6744 11.416C88.5037 11.416 88.365 11.464 88.2584 11.56C88.1624 11.656 88.1144 11.784 88.1144 11.944C88.1144 12.1467 88.2264 12.3653 88.4504 12.6C88.685 12.8347 89.005 13.1173 89.4104 13.448L90.0664 14.024C90.333 14.248 90.5944 14.488 90.8504 14.744C91.1064 15 91.3144 15.2827 91.4744 15.592C91.645 15.9013 91.7304 16.2533 91.7304 16.648C91.7304 17.1813 91.597 17.64 91.3304 18.024C91.0637 18.3973 90.7117 18.68 90.2744 18.872C89.8477 19.064 89.389 19.16 88.8984 19.16Z"></path>
<rect fill-opacity="0.01" fill="white" height="15" width="15" y="5" x="8"></rect>
<path stroke-width="0.395" stroke="#0D0E12" fill="white" d="M18.792 7.5132V9.31067H12.6186V7.5132C13.1929 7.3363 13.9253 7.24203 14.5408 7.19271C14.8705 7.16629 15.1623 7.15307 15.3716 7.14647C15.4761 7.14316 15.56 7.14152 15.6175 7.1407L15.6833 7.13998L15.7 7.13989L15.7041 7.13988L15.7051 7.13988L15.7053 7.13988L15.7053 7.13988H15.7053L15.7053 7.13988L15.7055 7.13988L15.7065 7.13988L15.7106 7.13989L15.7273 7.13998L15.7931 7.1407C15.8506 7.14152 15.9344 7.14316 16.039 7.14647C16.2483 7.15307 16.5401 7.16629 16.8698 7.19271C17.4853 7.24203 18.2177 7.3363 18.792 7.5132Z"></path>
<path stroke-width="0.395" stroke="#0D0E12" fill="white" d="M14.2607 8.18796V6.4093C15.136 6.24279 15.864 6.24279 16.7394 6.4093V8.18796H14.2607Z"></path>
<path stroke-width="0.395" stroke="#0D0E12" fill="white" d="M10.5659 7.2209C10.5659 7.15191 10.5752 7.12036 10.5859 7.10382C10.6622 6.98581 10.9724 6.63575 12.0635 6.4995C12.4756 6.44804 12.8393 6.79485 12.8393 7.24731V7.75668C12.8393 8.06513 12.6625 8.34628 12.3845 8.47993L11.7161 8.80129C11.1834 9.05743 10.5659 8.66917 10.5659 8.07803V7.2209Z"></path>
<path stroke-width="0.395" stroke="#0D0E12" fill="white" d="M20.4347 7.11678C20.4347 7.11667 20.4347 7.11655 20.4347 7.11642C20.4347 7.11654 20.4347 7.11666 20.4347 7.11678C20.4348 7.11798 20.4349 7.11795 20.4347 7.11678ZM20.4341 7.11354C20.4296 7.09315 20.4011 6.9996 20.2518 6.88704C20.0673 6.74791 19.6916 6.57518 18.9414 6.49282C18.5248 6.4471 18.1607 6.79643 18.1607 7.24731V7.75668C18.1607 8.06513 18.3375 8.34628 18.6155 8.47993L19.2839 8.80129C19.8166 9.05743 20.4341 8.66917 20.4341 8.07803V7.11354Z"></path>
<path stroke-width="0.395" stroke="#0D0E12" fill="white" d="M10.7789 17.3104C11.0252 15.2734 12.6263 16.9381 12.6263 13.517L12.6263 12.0631C12.6263 11.3898 12.2215 10.7826 11.6 10.5236L11.3717 10.4285C10.8885 10.2271 10.5737 9.75494 10.5737 9.23138C10.5737 8.9594 10.6715 8.6937 10.9273 8.60128C12.5129 8.02841 18.487 8.02842 20.0726 8.60128C20.3284 8.6937 20.4263 8.95941 20.4263 9.23139C20.4263 9.75494 20.1115 10.2271 19.6282 10.4285L19.4 10.5236C18.7785 10.7826 18.3737 11.3898 18.3737 12.0631V13.517C18.3737 16.9381 19.9747 15.3288 20.221 17.3657C20.221 17.9295 20.0188 18.456 19.4698 18.5844C17.6896 19.0008 13.2926 18.9691 11.5213 18.5287C10.9783 18.3937 10.7789 17.8699 10.7789 17.3104Z"></path>
<path stroke-linecap="round" stroke-width="0.395" stroke="#0D0E12" d="M12.2158 16.9382C12.8315 17.5797 18.1684 17.5797 18.7842 16.9382"></path>
<path stroke-linecap="round" stroke-width="0.395" stroke="#0D0E12" d="M18.3737 10.3098C17.5526 10.096 13.4473 10.096 12.6263 10.3098"></path>
<path fill-opacity="0.01" fill="black" d="M0 2H103V22H0V2Z"></path>
<circle fill="#33FF00" r="3" cy="8" cx="97"></circle>
</svg>
