<svg xmlns="http://www.w3.org/2000/svg" fill="none" viewBox="0 0 32 22" height="22" width="32">
<rect fill="#F1F1F1" transform="rotate(-180 32 22)" height="22" width="32" y="22" x="32"></rect>
<path fill="white" d="M11.9791 11.364C11.5886 10.9734 11.5886 10.3403 11.9791 9.94975L17.6359 4.29289C18.0265 3.90237 18.6596 3.90237 19.0501 4.29289V4.29289C19.4407 4.68342 19.4407 5.31658 19.0501 5.70711L13.3933 11.364C13.0028 11.7545 12.3696 11.7545 11.9791 11.364V11.364Z"></path>
<path fill="white" d="M12.2216 10.2218C12.6121 9.83123 13.2453 9.83123 13.6358 10.2218L19.2927 15.8786C19.6832 16.2691 19.6832 16.9023 19.2927 17.2928V17.2928C18.9021 17.6833 18.269 17.6833 17.8785 17.2928L12.2216 11.636C11.8311 11.2454 11.8311 10.6123 12.2216 10.2218V10.2218Z"></path>
</svg>
