<svg xmlns="http://www.w3.org/2000/svg" fill="none" viewBox="0 0 8 19" height="19" width="8">
<path fill-opacity="0.01" fill="white" d="M0.5 -0.00012207L7.5 1.02818e-06V19L0.5 18.9999V-0.00012207Z"></path>
<path fill="#45D2FF" d="M3.98838 14.1439C3.26038 14.1439 2.68438 14.0159 2.26038 13.7599C1.83638 13.5039 1.53238 13.1359 1.34838 12.6559C1.16438 12.1759 1.07238 11.6039 1.07238 10.9399V7.32788C1.07238 6.65588 1.16438 6.08388 1.34838 5.61188C1.53238 5.13988 1.83638 4.77988 2.26038 4.53188C2.68438 4.27588 3.26038 4.14788 3.98838 4.14788C4.72438 4.14788 5.30438 4.27588 5.72838 4.53188C6.16038 4.77988 6.46838 5.13988 6.65237 5.61188C6.83637 6.08388 6.92838 6.65588 6.92838 7.32788V10.9399C6.92838 11.6039 6.83637 12.1759 6.65237 12.6559C6.46838 13.1359 6.16038 13.5039 5.72838 13.7599C5.30438 14.0159 4.72438 14.1439 3.98838 14.1439ZM3.98838 12.6199C4.21238 12.6199 4.37638 12.5639 4.48038 12.4519C4.58438 12.3399 4.65238 12.1959 4.68438 12.0199C4.71638 11.8439 4.73238 11.6639 4.73238 11.4799V6.79988C4.73238 6.60788 4.71638 6.42788 4.68438 6.25988C4.65238 6.08388 4.58438 5.93988 4.48038 5.82788C4.37638 5.71588 4.21238 5.65988 3.98838 5.65988C3.78038 5.65988 3.62438 5.71588 3.52038 5.82788C3.41638 5.93988 3.34838 6.08388 3.31638 6.25988C3.28438 6.42788 3.26838 6.60788 3.26838 6.79988V11.4799C3.26838 11.6639 3.28038 11.8439 3.30438 12.0199C3.33638 12.1959 3.40038 12.3399 3.49638 12.4519C3.60038 12.5639 3.76438 12.6199 3.98838 12.6199Z"></path>
</svg>
