<svg xmlns="http://www.w3.org/2000/svg" fill="none" viewBox="0 0 10 19" height="19" width="10">
<path fill-opacity="0.01" fill="white" d="M0.5 -0.00012207L9.5 0V19L0.5 18.9999V-0.00012207Z"></path>
<path fill="#45D2FF" d="M4.13127 14.3479V12.8959C4.01127 12.9039 3.88727 12.9119 3.75927 12.9199C3.63927 12.9279 3.51527 12.9319 3.38727 12.9319C2.94727 12.9319 2.54327 12.8399 2.17527 12.6559C1.81527 12.4719 1.52727 12.2039 1.31127 11.8519C1.10327 11.4919 0.999266 11.0559 0.999266 10.5439V7.61588C0.999266 7.15188 1.10727 6.73988 1.32327 6.37988C1.54727 6.01988 1.85527 5.73988 2.24727 5.53988C2.64727 5.33188 3.10327 5.22788 3.61527 5.22788C3.70327 5.22788 3.79127 5.23188 3.87927 5.23988C3.97527 5.23988 4.05927 5.24388 4.13127 5.25188V3.71588H5.85927V5.25188C5.93127 5.24388 6.00727 5.23988 6.08727 5.23988C6.16727 5.23188 6.25127 5.22788 6.33927 5.22788C6.87527 5.22788 7.33927 5.33188 7.73127 5.53988C8.13127 5.73988 8.43927 6.01988 8.65527 6.37988C8.87927 6.73988 8.99127 7.15188 8.99127 7.61588V10.5559C8.99127 11.0679 8.88327 11.5039 8.66727 11.8639C8.45927 12.2159 8.17927 12.4839 7.82727 12.6679C7.48327 12.8519 7.09927 12.9439 6.67527 12.9439C6.53927 12.9439 6.40327 12.9399 6.26727 12.9319C6.13927 12.9239 6.00327 12.9159 5.85927 12.9079V14.3479H4.13127ZM3.89127 11.5999C3.93127 11.5999 3.97527 11.5999 4.02327 11.5999C4.07127 11.5919 4.10727 11.5839 4.13127 11.5759V6.53588C4.09927 6.52788 4.05527 6.52388 3.99927 6.52388C3.95127 6.51588 3.90727 6.51188 3.86727 6.51188C3.66727 6.51188 3.49527 6.55588 3.35127 6.64388C3.20727 6.73188 3.09527 6.85588 3.01527 7.01588C2.93527 7.17588 2.89527 7.36788 2.89527 7.59188V10.5799C2.89527 10.7719 2.92727 10.9439 2.99127 11.0959C3.05527 11.2479 3.15927 11.3719 3.30327 11.4679C3.44727 11.5559 3.64327 11.5999 3.89127 11.5999ZM6.11127 11.5879C6.34327 11.5879 6.53127 11.5479 6.67527 11.4679C6.81927 11.3799 6.92327 11.2599 6.98727 11.1079C7.05927 10.9559 7.09527 10.7799 7.09527 10.5799V7.59188C7.09527 7.35188 7.05927 7.15188 6.98727 6.99188C6.91527 6.83188 6.81127 6.71188 6.67527 6.63188C6.54727 6.55188 6.39127 6.51188 6.20727 6.51188C6.14327 6.51188 6.08327 6.51588 6.02727 6.52388C5.97127 6.52388 5.91527 6.52788 5.85927 6.53588V11.5639C5.89927 11.5719 5.93927 11.5799 5.97927 11.5879C6.02727 11.5879 6.07127 11.5879 6.11127 11.5879Z"></path>
</svg>
