<svg xmlns="http://www.w3.org/2000/svg" fill="none" viewBox="0 0 22 22" height="22" width="22">
<circle stroke="#0D0E12" fill="#FDCD4D" r="10" cy="11" cx="11"></circle>
<path stroke="#0D0E12" fill="white" d="M10 9.5C10 11.433 8.433 13 6.5 13C4.567 13 3 11.433 3 9.5C3 7.567 4.567 6 6.5 6C8.433 6 10 7.567 10 9.5Z"></path>
<path stroke="#0D0E12" fill="#0D0E12" d="M7.50006 9.5C7.50006 10.0523 7.05235 10.5 6.50006 10.5C5.94778 10.5 5.50006 10.0523 5.50006 9.5C5.50006 8.94772 5.94778 8.5 6.50006 8.5C7.05235 8.5 7.50006 8.94772 7.50006 9.5Z"></path>
<path stroke="#0D0E12" fill="white" d="M19 9.5C19 11.433 17.433 13 15.5 13C13.567 13 12 11.433 12 9.5C12 7.567 13.567 6 15.5 6C17.433 6 19 7.567 19 9.5Z"></path>
<path stroke="#0D0E12" fill="#0D0E12" d="M16.4999 9.5C16.4999 10.0523 16.0522 10.5 15.4999 10.5C14.9477 10.5 14.4999 10.0523 14.4999 9.5C14.4999 8.94772 14.9477 8.5 15.4999 8.5C16.0522 8.5 16.4999 8.94772 16.4999 9.5Z"></path>
<path stroke-linecap="round" stroke="#0D0E12" d="M8 17H14"></path>
<path stroke-linecap="round" stroke="#0D0E12" d="M10 9L10.9553 8.52236C10.9834 8.50828 11.0166 8.50828 11.0447 8.52236L12 9"></path>
<path stroke-linecap="round" stroke="#0D0E12" d="M19 8L20 7"></path>
<path stroke-linecap="round" stroke="#D29B09" d="M14.5 4H18"></path>
<path stroke-linecap="round" stroke="#D29B09" d="M4 4H7.5"></path>
<path stroke-linecap="round" stroke="#0D0E12" d="M2 7L3 8"></path>
</svg>
