<svg xmlns="http://www.w3.org/2000/svg" fill="none" viewBox="0 0 85 15" height="15" width="85">
<rect fill="#0D0E12" height="14" width="85" y="1"></rect>
<path fill="white" d="M44.4 12.1C43.98 12.1 43.62 12.0267 43.32 11.88C43.02 11.7267 42.79 11.5067 42.63 11.22C42.47 10.9267 42.39 10.5767 42.39 10.17V8.05C42.39 7.63667 42.47 7.28667 42.63 7C42.79 6.71333 43.02 6.49667 43.32 6.35C43.6267 6.19667 43.9867 6.12 44.4 6.12C44.8267 6.12 45.18 6.19333 45.46 6.34C45.7467 6.48667 45.96 6.70333 46.1 6.99C46.2467 7.27667 46.32 7.63 46.32 8.05V9.21H44V10.32C44 10.4667 44.0167 10.5867 44.05 10.68C44.0833 10.7733 44.13 10.84 44.19 10.88C44.25 10.92 44.32 10.94 44.4 10.94C44.48 10.94 44.55 10.9233 44.61 10.89C44.6767 10.85 44.7267 10.79 44.76 10.71C44.8 10.63 44.82 10.52 44.82 10.38V9.77H46.32V10.33C46.32 10.9167 46.15 11.36 45.81 11.66C45.47 11.9533 45 12.1 44.4 12.1ZM44 8.45H44.82V7.87C44.82 7.71667 44.8 7.59667 44.76 7.51C44.7267 7.42333 44.6767 7.36333 44.61 7.33C44.55 7.29667 44.4767 7.28 44.39 7.28C44.31 7.28 44.24 7.3 44.18 7.34C44.1267 7.38 44.0833 7.45 44.05 7.55C44.0167 7.64333 44 7.78 44 7.96V8.45ZM48.4573 12.1C48.0306 12.1 47.7006 11.95 47.4673 11.65C47.2339 11.35 47.1173 10.9067 47.1173 10.32V7.93C47.1173 7.57 47.1673 7.25667 47.2673 6.99C47.3673 6.71667 47.5173 6.50333 47.7173 6.35C47.9173 6.19667 48.1639 6.12 48.4573 6.12C48.6706 6.12 48.8739 6.16333 49.0673 6.25C49.2606 6.33 49.4373 6.44 49.5973 6.58V3.9H51.2273V12H49.5973V11.55C49.4173 11.7233 49.2306 11.86 49.0373 11.96C48.8439 12.0533 48.6506 12.1 48.4573 12.1ZM49.1673 11.06C49.2206 11.06 49.2839 11.0467 49.3573 11.02C49.4373 10.9933 49.5173 10.9567 49.5973 10.91V7.26C49.5306 7.22667 49.4606 7.19667 49.3873 7.17C49.3139 7.14333 49.2439 7.13 49.1773 7.13C49.0306 7.13 48.9239 7.19333 48.8573 7.32C48.7906 7.44 48.7573 7.58667 48.7573 7.76V10.42C48.7573 10.54 48.7706 10.65 48.7973 10.75C48.8239 10.8433 48.8673 10.92 48.9273 10.98C48.9873 11.0333 49.0673 11.06 49.1673 11.06ZM52.2466 12V6.22H53.8766V12H52.2466ZM52.2366 5.24V4.11H53.8766V5.24H52.2366ZM56.673 12.06C56.2397 12.06 55.903 11.9967 55.663 11.87C55.4297 11.7433 55.2697 11.56 55.183 11.32C55.0964 11.0733 55.053 10.7767 55.053 10.43V7.29H54.493V6.22H55.053V4.46H56.703V6.22H57.523V7.29H56.703V10.27C56.703 10.4367 56.7497 10.5567 56.843 10.63C56.943 10.7033 57.0664 10.74 57.213 10.74C57.2997 10.74 57.3797 10.7367 57.453 10.73C57.5264 10.7167 57.593 10.7067 57.653 10.7V11.98C57.5664 11.9933 57.4297 12.01 57.243 12.03C57.0564 12.05 56.8664 12.06 56.673 12.06Z"></path>
<rect fill="white" transform="rotate(45 33.364 5.12134)" height="6" width="3" y="5.12134" x="33.364"></rect>
<path fill="white" d="M35.4853 3L37.6066 5.12132L36.1924 6.53553L34.0711 4.41421L35.4853 3Z"></path>
<path fill="white" d="M28.4142 10.071L30.5356 12.1924L28.0607 12.5459L28.4142 10.071Z"></path>
</svg>
