<svg xmlns="http://www.w3.org/2000/svg" fill="none" viewBox="0 0 214 84" height="84" width="214">
<mask fill="white" id="path-1-inside-1_1434_57">
<path d="M0 0H214V84H0V0Z"></path>
</mask>
<path fill="#0D0E12" d="M0 0H214V84H0V0Z"></path>
<path mask="url(#path-1-inside-1_1434_57)" fill="white" d="M0 0V-1H-1V0H0ZM0 84H-1V85H0V84ZM0 1H214V-1H0V1ZM214 83H0V85H214V83ZM1 84V0H-1V84H1Z"></path>
<path fill="#FFF500" d="M16.72 38V28.28H19.18C20.028 28.28 20.688 28.388 21.16 28.604C21.632 28.812 21.964 29.144 22.156 29.6C22.348 30.048 22.444 30.632 22.444 31.352V34.88C22.444 35.608 22.348 36.204 22.156 36.668C21.964 37.124 21.632 37.46 21.16 37.676C20.696 37.892 20.044 38 19.204 38H16.72ZM18.868 36.512H19.204C19.532 36.512 19.768 36.464 19.912 36.368C20.056 36.272 20.144 36.128 20.176 35.936C20.216 35.744 20.236 35.504 20.236 35.216V30.98C20.236 30.692 20.212 30.46 20.164 30.284C20.124 30.108 20.032 29.98 19.888 29.9C19.744 29.82 19.512 29.78 19.192 29.78H18.868V36.512ZM23.7513 38V28.28H26.4273C27.0833 28.28 27.6513 28.352 28.1313 28.496C28.6113 28.64 28.9833 28.9 29.2473 29.276C29.5193 29.644 29.6553 30.168 29.6553 30.848C29.6553 31.248 29.6233 31.604 29.5593 31.916C29.4953 32.228 29.3753 32.5 29.1992 32.732C29.0313 32.956 28.7873 33.144 28.4673 33.296L29.7993 38H27.5793L26.5113 33.644H25.8993V38H23.7513ZM25.8993 32.408H26.4993C26.8033 32.408 27.0393 32.356 27.2073 32.252C27.3753 32.14 27.4913 31.984 27.5553 31.784C27.6273 31.576 27.6633 31.328 27.6633 31.04C27.6633 30.624 27.5873 30.3 27.4353 30.068C27.2833 29.836 27.0033 29.72 26.5953 29.72H25.8993V32.408ZM30.4786 38L32.3146 28.28H34.7626L36.5746 38H34.5946L34.2706 35.948H32.8426L32.5066 38H30.4786ZM33.0346 34.664H34.0666L33.5506 30.872L33.0346 34.664ZM38.125 38L36.949 28.28H38.773L39.349 33.944L40.081 28.292H41.509L42.277 33.908L42.865 28.28H44.665L43.501 38H41.629L40.801 32.132L40.021 38H38.125Z"></path>
<path fill="white" d="M16.63 56V47.9H18.39C18.99 47.9 19.4633 47.9933 19.81 48.18C20.1633 48.36 20.4133 48.6333 20.56 49C20.7133 49.3667 20.79 49.8233 20.79 50.37V53.35C20.79 53.9233 20.7133 54.4067 20.56 54.8C20.4133 55.1933 20.17 55.4933 19.83 55.7C19.4967 55.9 19.0467 56 18.48 56H16.63ZM17.76 55.19H18.4C18.8133 55.19 19.1067 55.11 19.28 54.95C19.4533 54.79 19.5567 54.5567 19.59 54.25C19.63 53.9433 19.65 53.5733 19.65 53.14V50.51C19.65 50.09 19.6233 49.75 19.57 49.49C19.5167 49.23 19.4 49.04 19.22 48.92C19.04 48.8 18.7567 48.74 18.37 48.74H17.76V55.19ZM21.8434 56V50.22H22.9134V51.04C23.1268 50.6867 23.3401 50.45 23.5534 50.33C23.7668 50.21 23.9801 50.15 24.1934 50.15C24.2201 50.15 24.2434 50.15 24.2634 50.15C24.2901 50.15 24.3234 50.1533 24.3634 50.16V51.34C24.2834 51.3067 24.1901 51.28 24.0834 51.26C23.9834 51.2333 23.8801 51.22 23.7734 51.22C23.6068 51.22 23.4534 51.26 23.3134 51.34C23.1801 51.4133 23.0468 51.56 22.9134 51.78V56H21.8434ZM26.0663 56.08C25.8397 56.08 25.6397 56.0167 25.4663 55.89C25.293 55.7567 25.1563 55.59 25.0563 55.39C24.9563 55.1833 24.9063 54.9667 24.9063 54.74C24.9063 54.38 24.9663 54.0767 25.0863 53.83C25.2063 53.5833 25.3697 53.3767 25.5763 53.21C25.7897 53.0367 26.033 52.8867 26.3063 52.76C26.5863 52.6333 26.8797 52.51 27.1863 52.39V51.98C27.1863 51.7467 27.173 51.5533 27.1463 51.4C27.1197 51.2467 27.063 51.1333 26.9763 51.06C26.8963 50.98 26.773 50.94 26.6063 50.94C26.4597 50.94 26.3397 50.9733 26.2463 51.04C26.1597 51.1067 26.0963 51.2033 26.0563 51.33C26.0163 51.45 25.9963 51.5933 25.9963 51.76V52.05L24.9363 52.01C24.9497 51.37 25.0963 50.9 25.3763 50.6C25.6563 50.2933 26.0897 50.14 26.6763 50.14C27.2497 50.14 27.6563 50.2967 27.8963 50.61C28.1363 50.9233 28.2563 51.3767 28.2563 51.97V54.61C28.2563 54.79 28.2597 54.9633 28.2663 55.13C28.2797 55.2967 28.293 55.4533 28.3063 55.6C28.3263 55.74 28.343 55.8733 28.3563 56H27.3763C27.3563 55.8933 27.3297 55.76 27.2963 55.6C27.2697 55.4333 27.2497 55.2833 27.2363 55.15C27.1697 55.3767 27.0397 55.59 26.8463 55.79C26.6597 55.9833 26.3997 56.08 26.0663 56.08ZM26.4863 55.16C26.593 55.16 26.693 55.13 26.7863 55.07C26.8797 55.01 26.963 54.9433 27.0363 54.87C27.1097 54.79 27.1597 54.7267 27.1863 54.68V53.04C27.0197 53.1333 26.863 53.2267 26.7163 53.32C26.5697 53.4133 26.4397 53.5133 26.3263 53.62C26.2197 53.72 26.133 53.8367 26.0663 53.97C26.0063 54.0967 25.9763 54.2433 25.9763 54.41C25.9763 54.6433 26.0197 54.8267 26.1063 54.96C26.193 55.0933 26.3197 55.16 26.4863 55.16ZM29.9541 56L29.0241 50.22H29.9041L30.5041 54.48L31.2741 50.22H32.0941L32.8641 54.46L33.4641 50.22H34.3441L33.3841 56H32.4841L31.6941 51.92L30.9141 56H29.9541ZM35.1735 57.31L35.0035 56.85C35.1835 56.79 35.3235 56.6833 35.4235 56.53C35.5302 56.3833 35.5835 56.2067 35.5835 56H35.0135V54.85H36.1135V55.98C36.1135 56.3333 36.0368 56.6133 35.8835 56.82C35.7302 57.0333 35.4935 57.1967 35.1735 57.31ZM40.8339 56.08C40.5339 56.08 40.2906 56.0233 40.1039 55.91C39.9239 55.7967 39.7906 55.6367 39.7039 55.43C39.6239 55.2233 39.5839 54.98 39.5839 54.7V50.93H38.9739V50.22H39.5839V48.53H40.6539V50.22H41.5839V50.93H40.6539V54.63C40.6539 54.8567 40.6906 55.02 40.7639 55.12C40.8372 55.2133 40.9772 55.26 41.1839 55.26C41.2372 55.26 41.2972 55.2567 41.3639 55.25C41.4372 55.2433 41.5072 55.2367 41.5739 55.23V56.02C41.4406 56.04 41.3172 56.0533 41.2039 56.06C41.0906 56.0733 40.9672 56.08 40.8339 56.08ZM42.4001 56V47.9H43.4701V50.82C43.6634 50.6333 43.8801 50.4733 44.1201 50.34C44.3601 50.2067 44.6267 50.14 44.9201 50.14C45.1467 50.14 45.3201 50.2 45.4401 50.32C45.5667 50.44 45.6534 50.59 45.7001 50.77C45.7534 50.95 45.7801 51.1333 45.7801 51.32V56H44.7101V51.63C44.7101 51.4233 44.6801 51.2633 44.6201 51.15C44.5601 51.0367 44.4367 50.98 44.2501 50.98C44.1234 50.98 43.9901 51.0167 43.8501 51.09C43.7167 51.1633 43.5901 51.2533 43.4701 51.36V56H42.4001ZM48.4232 56.08C47.9699 56.08 47.6199 55.9933 47.3732 55.82C47.1265 55.64 46.9532 55.38 46.8532 55.04C46.7599 54.6933 46.7132 54.27 46.7132 53.77V52.45C46.7132 51.9367 46.7632 51.51 46.8632 51.17C46.9632 50.83 47.1365 50.5733 47.3832 50.4C47.6365 50.2267 47.9832 50.14 48.4232 50.14C48.9099 50.14 49.2665 50.24 49.4932 50.44C49.7265 50.64 49.8799 50.93 49.9532 51.31C50.0265 51.6833 50.0632 52.1333 50.0632 52.66V53.13H47.7832V54.29C47.7832 54.5233 47.8032 54.7133 47.8432 54.86C47.8899 55.0067 47.9599 55.1167 48.0532 55.19C48.1532 55.2567 48.2799 55.29 48.4332 55.29C48.5932 55.29 48.7132 55.2533 48.7932 55.18C48.8799 55.1 48.9365 54.99 48.9632 54.85C48.9965 54.7033 49.0132 54.5333 49.0132 54.34V53.99H50.0532V54.21C50.0532 54.79 49.9299 55.2467 49.6832 55.58C49.4365 55.9133 49.0165 56.08 48.4232 56.08ZM47.7832 52.55H49.0132V52.03C49.0132 51.79 48.9999 51.59 48.9732 51.43C48.9465 51.2633 48.8899 51.14 48.8032 51.06C48.7232 50.9733 48.5932 50.93 48.4132 50.93C48.2399 50.93 48.1065 50.97 48.0132 51.05C47.9265 51.13 47.8665 51.2667 47.8332 51.46C47.7999 51.6467 47.7832 51.9067 47.7832 52.24V52.55ZM51.0622 56V50.22H52.1322V51.04C52.3455 50.6867 52.5589 50.45 52.7722 50.33C52.9855 50.21 53.1989 50.15 53.4122 50.15C53.4389 50.15 53.4622 50.15 53.4822 50.15C53.5089 50.15 53.5422 50.1533 53.5822 50.16V51.34C53.5022 51.3067 53.4089 51.28 53.3022 51.26C53.2022 51.2333 53.0989 51.22 52.9922 51.22C52.8255 51.22 52.6722 51.26 52.5322 51.34C52.3989 51.4133 52.2655 51.56 52.1322 51.78V56H51.0622ZM55.8451 56.08C55.3917 56.08 55.0417 55.9933 54.7951 55.82C54.5484 55.64 54.3751 55.38 54.2751 55.04C54.1817 54.6933 54.1351 54.27 54.1351 53.77V52.45C54.1351 51.9367 54.1851 51.51 54.2851 51.17C54.3851 50.83 54.5584 50.5733 54.8051 50.4C55.0584 50.2267 55.4051 50.14 55.8451 50.14C56.3317 50.14 56.6884 50.24 56.9151 50.44C57.1484 50.64 57.3017 50.93 57.3751 51.31C57.4484 51.6833 57.4851 52.1333 57.4851 52.66V53.13H55.2051V54.29C55.2051 54.5233 55.2251 54.7133 55.2651 54.86C55.3117 55.0067 55.3817 55.1167 55.4751 55.19C55.5751 55.2567 55.7017 55.29 55.8551 55.29C56.0151 55.29 56.1351 55.2533 56.2151 55.18C56.3017 55.1 56.3584 54.99 56.3851 54.85C56.4184 54.7033 56.4351 54.5333 56.4351 54.34V53.99H57.4751V54.21C57.4751 54.79 57.3517 55.2467 57.1051 55.58C56.8584 55.9133 56.4384 56.08 55.8451 56.08ZM55.2051 52.55H56.4351V52.03C56.4351 51.79 56.4217 51.59 56.3951 51.43C56.3684 51.2633 56.3117 51.14 56.2251 51.06C56.1451 50.9733 56.0151 50.93 55.8351 50.93C55.6617 50.93 55.5284 50.97 55.4351 51.05C55.3484 51.13 55.2884 51.2667 55.2551 51.46C55.2217 51.6467 55.2051 51.9067 55.2051 52.24V52.55ZM60.8092 56V50.22H61.8792V56H60.8092ZM60.8092 49.36V48.24H61.8792V49.36H60.8092ZM64.3644 56.08C63.891 56.08 63.511 55.9333 63.2244 55.64C62.9377 55.34 62.7744 54.9467 62.7344 54.46L63.6244 54.19C63.6777 54.5567 63.7677 54.8333 63.8944 55.02C64.021 55.2 64.2077 55.29 64.4544 55.29C64.6477 55.29 64.7944 55.2367 64.8944 55.13C64.9944 55.0167 65.0444 54.8667 65.0444 54.68C65.0444 54.5133 65.0077 54.3633 64.9344 54.23C64.861 54.0967 64.741 53.96 64.5744 53.82L63.5844 52.97C63.3844 52.7967 63.2144 52.6033 63.0744 52.39C62.941 52.1767 62.8744 51.9 62.8744 51.56C62.8744 51.2533 62.9344 50.9967 63.0544 50.79C63.181 50.5767 63.3544 50.4167 63.5744 50.31C63.801 50.1967 64.0644 50.14 64.3644 50.14C64.8244 50.14 65.1744 50.29 65.4144 50.59C65.661 50.8833 65.801 51.24 65.8344 51.66L65.1144 51.93C65.0877 51.73 65.0477 51.5567 64.9944 51.41C64.941 51.2567 64.8677 51.14 64.7744 51.06C64.681 50.9733 64.5577 50.93 64.4044 50.93C64.231 50.93 64.091 50.99 63.9844 51.11C63.8844 51.2233 63.8344 51.36 63.8344 51.52C63.8344 51.62 63.8544 51.72 63.8944 51.82C63.941 51.9133 64.0177 52.0067 64.1244 52.1L65.1444 53.04C65.2844 53.1667 65.4144 53.3033 65.5344 53.45C65.661 53.5967 65.7644 53.7633 65.8444 53.95C65.9244 54.1367 65.9644 54.3533 65.9644 54.6C65.9644 54.9267 65.8977 55.2 65.7644 55.42C65.631 55.64 65.4444 55.8067 65.2044 55.92C64.9644 56.0267 64.6844 56.08 64.3644 56.08ZM69.0498 56V50.22H70.1198V50.79C70.3131 50.61 70.5264 50.4567 70.7598 50.33C70.9931 50.2033 71.2498 50.14 71.5298 50.14C71.7631 50.14 71.9398 50.2 72.0598 50.32C72.1864 50.44 72.2731 50.59 72.3198 50.77C72.3731 50.95 72.3998 51.1333 72.3998 51.32V56H71.3298V51.63C71.3298 51.4233 71.2998 51.2633 71.2398 51.15C71.1798 51.0367 71.0564 50.98 70.8698 50.98C70.7498 50.98 70.6231 51.0167 70.4898 51.09C70.3631 51.1567 70.2398 51.24 70.1198 51.34V56H69.0498ZM75.0343 56.08C74.6076 56.08 74.271 55.9933 74.0243 55.82C73.7776 55.6467 73.601 55.4 73.4943 55.08C73.3943 54.76 73.3443 54.3833 73.3443 53.95V52.27C73.3443 51.8367 73.3943 51.46 73.4943 51.14C73.601 50.82 73.7776 50.5733 74.0243 50.4C74.271 50.2267 74.6076 50.14 75.0343 50.14C75.461 50.14 75.7943 50.2267 76.0343 50.4C76.281 50.5733 76.4543 50.82 76.5543 51.14C76.661 51.46 76.7143 51.8367 76.7143 52.27V53.95C76.7143 54.3833 76.661 54.76 76.5543 55.08C76.4543 55.4 76.281 55.6467 76.0343 55.82C75.7943 55.9933 75.461 56.08 75.0343 56.08ZM75.0343 55.29C75.241 55.29 75.3843 55.23 75.4643 55.11C75.551 54.99 75.601 54.8333 75.6143 54.64C75.6343 54.44 75.6443 54.2333 75.6443 54.02V52.21C75.6443 51.99 75.6343 51.7833 75.6143 51.59C75.601 51.3967 75.551 51.24 75.4643 51.12C75.3843 50.9933 75.241 50.93 75.0343 50.93C74.8276 50.93 74.681 50.9933 74.5943 51.12C74.5076 51.24 74.4543 51.3967 74.4343 51.59C74.421 51.7833 74.4143 51.99 74.4143 52.21V54.02C74.4143 54.2333 74.421 54.44 74.4343 54.64C74.4543 54.8333 74.5076 54.99 74.5943 55.11C74.681 55.23 74.8276 55.29 75.0343 55.29ZM79.9775 57.9V50.22H81.0475V50.68C81.1742 50.5333 81.3275 50.4067 81.5075 50.3C81.6875 50.1933 81.9008 50.14 82.1475 50.14C82.4475 50.14 82.6842 50.22 82.8575 50.38C83.0375 50.5333 83.1708 50.73 83.2575 50.97C83.3442 51.2033 83.4008 51.4433 83.4275 51.69C83.4542 51.93 83.4675 52.1367 83.4675 52.31V53.71C83.4675 54.1167 83.4275 54.5033 83.3475 54.87C83.2675 55.23 83.1208 55.5233 82.9075 55.75C82.7008 55.97 82.4075 56.08 82.0275 56.08C81.8208 56.08 81.6375 56.03 81.4775 55.93C81.3175 55.8233 81.1742 55.7033 81.0475 55.57V57.9H79.9775ZM81.8175 55.24C82.0042 55.24 82.1375 55.1733 82.2175 55.04C82.2975 54.9 82.3475 54.7133 82.3675 54.48C82.3875 54.2467 82.3975 53.99 82.3975 53.71V52.31C82.3975 52.07 82.3842 51.85 82.3575 51.65C82.3308 51.4433 82.2742 51.28 82.1875 51.16C82.1008 51.04 81.9642 50.98 81.7775 50.98C81.6375 50.98 81.5042 51.01 81.3775 51.07C81.2508 51.13 81.1408 51.2 81.0475 51.28V54.98C81.1475 55.0533 81.2608 55.1167 81.3875 55.17C81.5142 55.2167 81.6575 55.24 81.8175 55.24ZM86.0304 56.08C85.6037 56.08 85.2671 55.9933 85.0204 55.82C84.7737 55.6467 84.5971 55.4 84.4904 55.08C84.3904 54.76 84.3404 54.3833 84.3404 53.95V52.27C84.3404 51.8367 84.3904 51.46 84.4904 51.14C84.5971 50.82 84.7737 50.5733 85.0204 50.4C85.2671 50.2267 85.6037 50.14 86.0304 50.14C86.4571 50.14 86.7904 50.2267 87.0304 50.4C87.2771 50.5733 87.4504 50.82 87.5504 51.14C87.6571 51.46 87.7104 51.8367 87.7104 52.27V53.95C87.7104 54.3833 87.6571 54.76 87.5504 55.08C87.4504 55.4 87.2771 55.6467 87.0304 55.82C86.7904 55.9933 86.4571 56.08 86.0304 56.08ZM86.0304 55.29C86.2371 55.29 86.3804 55.23 86.4604 55.11C86.5471 54.99 86.5971 54.8333 86.6104 54.64C86.6304 54.44 86.6404 54.2333 86.6404 54.02V52.21C86.6404 51.99 86.6304 51.7833 86.6104 51.59C86.5971 51.3967 86.5471 51.24 86.4604 51.12C86.3804 50.9933 86.2371 50.93 86.0304 50.93C85.8237 50.93 85.6771 50.9933 85.5904 51.12C85.5037 51.24 85.4504 51.3967 85.4304 51.59C85.4171 51.7833 85.4104 51.99 85.4104 52.21V54.02C85.4104 54.2333 85.4171 54.44 85.4304 54.64C85.4504 54.8333 85.5037 54.99 85.5904 55.11C85.6771 55.23 85.8237 55.29 86.0304 55.29ZM90.0284 56.08C89.5551 56.08 89.1751 55.9333 88.8884 55.64C88.6018 55.34 88.4384 54.9467 88.3984 54.46L89.2884 54.19C89.3418 54.5567 89.4318 54.8333 89.5584 55.02C89.6851 55.2 89.8718 55.29 90.1184 55.29C90.3118 55.29 90.4584 55.2367 90.5584 55.13C90.6584 55.0167 90.7084 54.8667 90.7084 54.68C90.7084 54.5133 90.6718 54.3633 90.5984 54.23C90.5251 54.0967 90.4051 53.96 90.2384 53.82L89.2484 52.97C89.0484 52.7967 88.8784 52.6033 88.7384 52.39C88.6051 52.1767 88.5384 51.9 88.5384 51.56C88.5384 51.2533 88.5984 50.9967 88.7184 50.79C88.8451 50.5767 89.0184 50.4167 89.2384 50.31C89.4651 50.1967 89.7284 50.14 90.0284 50.14C90.4884 50.14 90.8384 50.29 91.0784 50.59C91.3251 50.8833 91.4651 51.24 91.4984 51.66L90.7784 51.93C90.7518 51.73 90.7118 51.5567 90.6584 51.41C90.6051 51.2567 90.5318 51.14 90.4384 51.06C90.3451 50.9733 90.2218 50.93 90.0684 50.93C89.8951 50.93 89.7551 50.99 89.6484 51.11C89.5484 51.2233 89.4984 51.36 89.4984 51.52C89.4984 51.62 89.5184 51.72 89.5584 51.82C89.6051 51.9133 89.6818 52.0067 89.7884 52.1L90.8084 53.04C90.9484 53.1667 91.0784 53.3033 91.1984 53.45C91.3251 53.5967 91.4284 53.7633 91.5084 53.95C91.5884 54.1367 91.6284 54.3533 91.6284 54.6C91.6284 54.9267 91.5618 55.2 91.4284 55.42C91.2951 55.64 91.1084 55.8067 90.8684 55.92C90.6284 56.0267 90.3484 56.08 90.0284 56.08ZM93.7687 56.08C93.2953 56.08 92.9153 55.9333 92.6287 55.64C92.342 55.34 92.1787 54.9467 92.1387 54.46L93.0287 54.19C93.082 54.5567 93.172 54.8333 93.2987 55.02C93.4253 55.2 93.612 55.29 93.8587 55.29C94.052 55.29 94.1987 55.2367 94.2987 55.13C94.3987 55.0167 94.4487 54.8667 94.4487 54.68C94.4487 54.5133 94.412 54.3633 94.3387 54.23C94.2653 54.0967 94.1453 53.96 93.9787 53.82L92.9887 52.97C92.7887 52.7967 92.6187 52.6033 92.4787 52.39C92.3453 52.1767 92.2787 51.9 92.2787 51.56C92.2787 51.2533 92.3387 50.9967 92.4587 50.79C92.5853 50.5767 92.7587 50.4167 92.9787 50.31C93.2053 50.1967 93.4687 50.14 93.7687 50.14C94.2287 50.14 94.5787 50.29 94.8187 50.59C95.0653 50.8833 95.2053 51.24 95.2387 51.66L94.5187 51.93C94.492 51.73 94.452 51.5567 94.3987 51.41C94.3453 51.2567 94.272 51.14 94.1787 51.06C94.0853 50.9733 93.962 50.93 93.8087 50.93C93.6353 50.93 93.4953 50.99 93.3887 51.11C93.2887 51.2233 93.2387 51.36 93.2387 51.52C93.2387 51.62 93.2587 51.72 93.2987 51.82C93.3453 51.9133 93.422 52.0067 93.5287 52.1L94.5487 53.04C94.6887 53.1667 94.8187 53.3033 94.9387 53.45C95.0653 53.5967 95.1687 53.7633 95.2487 53.95C95.3287 54.1367 95.3687 54.3533 95.3687 54.6C95.3687 54.9267 95.302 55.2 95.1687 55.42C95.0353 55.64 94.8487 55.8067 94.6087 55.92C94.3687 56.0267 94.0887 56.08 93.7687 56.08ZM96.2389 56V50.22H97.3089V56H96.2389ZM96.2389 49.36V48.24H97.3089V49.36H96.2389ZM100.524 56.08C100.317 56.08 100.131 56.03 99.9641 55.93C99.8041 55.8233 99.6641 55.7067 99.5441 55.58V56H98.4741V47.9H99.5441V50.68C99.6707 50.5333 99.8207 50.4067 99.9941 50.3C100.174 50.1933 100.387 50.14 100.634 50.14C100.934 50.14 101.171 50.22 101.344 50.38C101.524 50.5333 101.657 50.73 101.744 50.97C101.831 51.2033 101.887 51.4433 101.914 51.69C101.941 51.93 101.954 52.1367 101.954 52.31V53.71C101.954 54.1167 101.914 54.5033 101.834 54.87C101.754 55.23 101.611 55.5233 101.404 55.75C101.197 55.97 100.904 56.08 100.524 56.08ZM100.304 55.24C100.491 55.24 100.624 55.1733 100.704 55.04C100.784 54.9 100.834 54.7133 100.854 54.48C100.874 54.2467 100.884 53.99 100.884 53.71V52.31C100.884 52.07 100.871 51.85 100.844 51.65C100.817 51.4433 100.761 51.28 100.674 51.16C100.587 51.04 100.451 50.98 100.264 50.98C100.124 50.98 99.9907 51.01 99.8641 51.07C99.7441 51.13 99.6374 51.1967 99.5441 51.27V54.98C99.6374 55.0533 99.7474 55.1167 99.8741 55.17C100.007 55.2167 100.151 55.24 100.304 55.24ZM103.027 56V47.9H104.097V56H103.027ZM106.812 56.08C106.359 56.08 106.009 55.9933 105.762 55.82C105.515 55.64 105.342 55.38 105.242 55.04C105.149 54.6933 105.102 54.27 105.102 53.77V52.45C105.102 51.9367 105.152 51.51 105.252 51.17C105.352 50.83 105.525 50.5733 105.772 50.4C106.025 50.2267 106.372 50.14 106.812 50.14C107.299 50.14 107.655 50.24 107.882 50.44C108.115 50.64 108.269 50.93 108.342 51.31C108.415 51.6833 108.452 52.1333 108.452 52.66V53.13H106.172V54.29C106.172 54.5233 106.192 54.7133 106.232 54.86C106.279 55.0067 106.349 55.1167 106.442 55.19C106.542 55.2567 106.669 55.29 106.822 55.29C106.982 55.29 107.102 55.2533 107.182 55.18C107.269 55.1 107.325 54.99 107.352 54.85C107.385 54.7033 107.402 54.5333 107.402 54.34V53.99H108.442V54.21C108.442 54.79 108.319 55.2467 108.072 55.58C107.825 55.9133 107.405 56.08 106.812 56.08ZM106.172 52.55H107.402V52.03C107.402 51.79 107.389 51.59 107.362 51.43C107.335 51.2633 107.279 51.14 107.192 51.06C107.112 50.9733 106.982 50.93 106.802 50.93C106.629 50.93 106.495 50.97 106.402 51.05C106.315 51.13 106.255 51.2667 106.222 51.46C106.189 51.6467 106.172 51.9067 106.172 52.24V52.55ZM111.706 56V50.22H112.696V50.77C112.889 50.55 113.103 50.3867 113.336 50.28C113.569 50.1733 113.809 50.12 114.056 50.12C114.269 50.12 114.459 50.1733 114.626 50.28C114.799 50.3867 114.923 50.5767 114.996 50.85C115.203 50.5967 115.426 50.4133 115.666 50.3C115.913 50.18 116.169 50.12 116.436 50.12C116.623 50.12 116.793 50.1667 116.946 50.26C117.099 50.3467 117.223 50.49 117.316 50.69C117.409 50.8833 117.456 51.14 117.456 51.46V56H116.476V51.53C116.476 51.25 116.429 51.0633 116.336 50.97C116.249 50.87 116.129 50.82 115.976 50.82C115.829 50.82 115.676 50.8633 115.516 50.95C115.356 51.03 115.209 51.1433 115.076 51.29C115.076 51.3167 115.076 51.3433 115.076 51.37C115.076 51.3967 115.076 51.4267 115.076 51.46V56H114.096V51.53C114.096 51.25 114.049 51.0633 113.956 50.97C113.869 50.87 113.749 50.82 113.596 50.82C113.449 50.82 113.296 50.8633 113.136 50.95C112.983 51.03 112.836 51.1433 112.696 51.29V56H111.706ZM120.093 56.08C119.666 56.08 119.33 55.9933 119.083 55.82C118.836 55.6467 118.66 55.4 118.553 55.08C118.453 54.76 118.403 54.3833 118.403 53.95V52.27C118.403 51.8367 118.453 51.46 118.553 51.14C118.66 50.82 118.836 50.5733 119.083 50.4C119.33 50.2267 119.666 50.14 120.093 50.14C120.52 50.14 120.853 50.2267 121.093 50.4C121.34 50.5733 121.513 50.82 121.613 51.14C121.72 51.46 121.773 51.8367 121.773 52.27V53.95C121.773 54.3833 121.72 54.76 121.613 55.08C121.513 55.4 121.34 55.6467 121.093 55.82C120.853 55.9933 120.52 56.08 120.093 56.08ZM120.093 55.29C120.3 55.29 120.443 55.23 120.523 55.11C120.61 54.99 120.66 54.8333 120.673 54.64C120.693 54.44 120.703 54.2333 120.703 54.02V52.21C120.703 51.99 120.693 51.7833 120.673 51.59C120.66 51.3967 120.61 51.24 120.523 51.12C120.443 50.9933 120.3 50.93 120.093 50.93C119.886 50.93 119.74 50.9933 119.653 51.12C119.566 51.24 119.513 51.3967 119.493 51.59C119.48 51.7833 119.473 51.99 119.473 52.21V54.02C119.473 54.2333 119.48 54.44 119.493 54.64C119.513 54.8333 119.566 54.99 119.653 55.11C119.74 55.23 119.886 55.29 120.093 55.29ZM123.501 56L122.361 50.22H123.441L124.151 54.87L124.871 50.22H125.911L124.811 56H123.501ZM128.199 56.08C127.745 56.08 127.395 55.9933 127.149 55.82C126.902 55.64 126.729 55.38 126.629 55.04C126.535 54.6933 126.489 54.27 126.489 53.77V52.45C126.489 51.9367 126.539 51.51 126.639 51.17C126.739 50.83 126.912 50.5733 127.159 50.4C127.412 50.2267 127.759 50.14 128.199 50.14C128.685 50.14 129.042 50.24 129.269 50.44C129.502 50.64 129.655 50.93 129.729 51.31C129.802 51.6833 129.839 52.1333 129.839 52.66V53.13H127.559V54.29C127.559 54.5233 127.579 54.7133 127.619 54.86C127.665 55.0067 127.735 55.1167 127.829 55.19C127.929 55.2567 128.055 55.29 128.209 55.29C128.369 55.29 128.489 55.2533 128.569 55.18C128.655 55.1 128.712 54.99 128.739 54.85C128.772 54.7033 128.789 54.5333 128.789 54.34V53.99H129.829V54.21C129.829 54.79 129.705 55.2467 129.459 55.58C129.212 55.9133 128.792 56.08 128.199 56.08ZM127.559 52.55H128.789V52.03C128.789 51.79 128.775 51.59 128.749 51.43C128.722 51.2633 128.665 51.14 128.579 51.06C128.499 50.9733 128.369 50.93 128.189 50.93C128.015 50.93 127.882 50.97 127.789 51.05C127.702 51.13 127.642 51.2667 127.609 51.46C127.575 51.6467 127.559 51.9067 127.559 52.24V52.55Z"></path>
</svg>
