<svg xmlns="http://www.w3.org/2000/svg" fill="none" viewBox="0 0 214 84" height="84" width="214">
<mask fill="white" id="path-1-inside-1_1461_2">
<path d="M0 0H214V84H0V0Z"></path>
</mask>
<path fill="#0D0E12" d="M0 0H214V84H0V0Z"></path>
<path mask="url(#path-1-inside-1_1461_2)" fill="white" d="M0 0V-1H-1V0H0ZM0 84H-1V85H0V84ZM0 1H214V-1H0V1ZM214 83H0V85H214V83ZM1 84V0H-1V84H1Z"></path>
<path fill="#05FF00" d="M18.016 38L16.264 28.28H18.1L19.144 34.88L20.116 28.28H22.06L20.284 38H18.016ZM23.0484 38V28.28H25.1964V38H23.0484ZM29.4298 38.144C28.6938 38.144 28.1098 38.012 27.6778 37.748C27.2538 37.476 26.9538 37.1 26.7778 36.62C26.6018 36.132 26.5138 35.56 26.5138 34.904V31.4C26.5138 30.728 26.6018 30.152 26.7778 29.672C26.9538 29.184 27.2538 28.808 27.6778 28.544C28.1098 28.28 28.6938 28.148 29.4298 28.148C30.1498 28.148 30.7098 28.268 31.1098 28.508C31.5178 28.74 31.8058 29.068 31.9738 29.492C32.1418 29.916 32.2258 30.404 32.2258 30.956V31.796H30.1258V30.824C30.1258 30.632 30.1138 30.448 30.0898 30.272C30.0738 30.096 30.0178 29.952 29.9218 29.84C29.8258 29.72 29.6618 29.66 29.4298 29.66C29.2058 29.66 29.0378 29.72 28.9258 29.84C28.8218 29.96 28.7538 30.112 28.7218 30.296C28.6978 30.472 28.6858 30.66 28.6858 30.86V35.432C28.6858 35.648 28.7018 35.848 28.7338 36.032C28.7738 36.208 28.8458 36.352 28.9498 36.464C29.0618 36.568 29.2218 36.62 29.4298 36.62C29.6538 36.62 29.8138 36.564 29.9098 36.452C30.0058 36.332 30.0658 36.18 30.0898 35.996C30.1138 35.812 30.1258 35.624 30.1258 35.432V34.412H32.2258V35.252C32.2258 35.804 32.1418 36.3 31.9738 36.74C31.8138 37.172 31.5298 37.516 31.1218 37.772C30.7218 38.02 30.1578 38.144 29.4298 38.144ZM34.2835 38V29.876H32.8195V28.28H37.8955V29.876H36.4435V38H34.2835ZM41.4415 38.144C40.7135 38.144 40.1375 38.016 39.7135 37.76C39.2895 37.504 38.9855 37.136 38.8015 36.656C38.6175 36.176 38.5255 35.604 38.5255 34.94V31.328C38.5255 30.656 38.6175 30.084 38.8015 29.612C38.9855 29.14 39.2895 28.78 39.7135 28.532C40.1375 28.276 40.7135 28.148 41.4415 28.148C42.1775 28.148 42.7575 28.276 43.1815 28.532C43.6135 28.78 43.9215 29.14 44.1055 29.612C44.2895 30.084 44.3815 30.656 44.3815 31.328V34.94C44.3815 35.604 44.2895 36.176 44.1055 36.656C43.9215 37.136 43.6135 37.504 43.1815 37.76C42.7575 38.016 42.1775 38.144 41.4415 38.144ZM41.4415 36.62C41.6655 36.62 41.8295 36.564 41.9335 36.452C42.0375 36.34 42.1055 36.196 42.1375 36.02C42.1695 35.844 42.1855 35.664 42.1855 35.48V30.8C42.1855 30.608 42.1695 30.428 42.1375 30.26C42.1055 30.084 42.0375 29.94 41.9335 29.828C41.8295 29.716 41.6655 29.66 41.4415 29.66C41.2335 29.66 41.0775 29.716 40.9735 29.828C40.8695 29.94 40.8015 30.084 40.7695 30.26C40.7375 30.428 40.7215 30.608 40.7215 30.8V35.48C40.7215 35.664 40.7335 35.844 40.7575 36.02C40.7895 36.196 40.8535 36.34 40.9495 36.452C41.0535 36.564 41.2175 36.62 41.4415 36.62ZM45.6888 38V28.28H48.3648C49.0208 28.28 49.5888 28.352 50.0688 28.496C50.5488 28.64 50.9208 28.9 51.1848 29.276C51.4568 29.644 51.5928 30.168 51.5928 30.848C51.5928 31.248 51.5608 31.604 51.4968 31.916C51.4328 32.228 51.3128 32.5 51.1367 32.732C50.9688 32.956 50.7248 33.144 50.4048 33.296L51.7368 38H49.5168L48.4488 33.644H47.8368V38H45.6888ZM47.8368 32.408H48.4368C48.7408 32.408 48.9768 32.356 49.1448 32.252C49.3128 32.14 49.4288 31.984 49.4928 31.784C49.5648 31.576 49.6008 31.328 49.6008 31.04C49.6008 30.624 49.5248 30.3 49.3728 30.068C49.2208 29.836 48.9408 29.72 48.5328 29.72H47.8368V32.408ZM53.8854 38V34.028L52.0374 28.28H54.0654L54.9894 31.352L55.8174 28.28H57.7614L55.9494 34.028V38H53.8854Z"></path>
<path fill="white" d="M18.7 56.09C18.1533 56.09 17.7167 55.9833 17.39 55.77C17.0633 55.5567 16.83 55.2533 16.69 54.86C16.55 54.46 16.48 53.9933 16.48 53.46V50.39C16.48 49.8567 16.55 49.4 16.69 49.02C16.8367 48.6333 17.07 48.34 17.39 48.14C17.7167 47.9333 18.1533 47.83 18.7 47.83C19.2467 47.83 19.68 47.9333 20 48.14C20.32 48.3467 20.55 48.64 20.69 49.02C20.8367 49.4 20.91 49.8567 20.91 50.39V53.47C20.91 53.9967 20.8367 54.4567 20.69 54.85C20.55 55.2433 20.32 55.55 20 55.77C19.68 55.9833 19.2467 56.09 18.7 56.09ZM18.7 55.2C19 55.2 19.2267 55.14 19.38 55.02C19.5333 54.8933 19.6367 54.72 19.69 54.5C19.7433 54.2733 19.77 54.01 19.77 53.71V50.16C19.77 49.86 19.7433 49.6033 19.69 49.39C19.6367 49.17 19.5333 49.0033 19.38 48.89C19.2267 48.77 19 48.71 18.7 48.71C18.4 48.71 18.17 48.77 18.01 48.89C17.8567 49.0033 17.7533 49.17 17.7 49.39C17.6467 49.6033 17.62 49.86 17.62 50.16V53.71C17.62 54.01 17.6467 54.2733 17.7 54.5C17.7533 54.72 17.8567 54.8933 18.01 55.02C18.17 55.14 18.4 55.2 18.7 55.2ZM21.9306 57.9V50.22H23.0006V50.68C23.1273 50.5333 23.2806 50.4067 23.4606 50.3C23.6406 50.1933 23.854 50.14 24.1006 50.14C24.4006 50.14 24.6373 50.22 24.8106 50.38C24.9906 50.5333 25.124 50.73 25.2106 50.97C25.2973 51.2033 25.354 51.4433 25.3806 51.69C25.4073 51.93 25.4206 52.1367 25.4206 52.31V53.71C25.4206 54.1167 25.3806 54.5033 25.3006 54.87C25.2206 55.23 25.074 55.5233 24.8606 55.75C24.654 55.97 24.3606 56.08 23.9806 56.08C23.774 56.08 23.5906 56.03 23.4306 55.93C23.2706 55.8233 23.1273 55.7033 23.0006 55.57V57.9H21.9306ZM23.7706 55.24C23.9573 55.24 24.0906 55.1733 24.1706 55.04C24.2506 54.9 24.3006 54.7133 24.3206 54.48C24.3406 54.2467 24.3506 53.99 24.3506 53.71V52.31C24.3506 52.07 24.3373 51.85 24.3106 51.65C24.284 51.4433 24.2273 51.28 24.1406 51.16C24.054 51.04 23.9173 50.98 23.7306 50.98C23.5906 50.98 23.4573 51.01 23.3306 51.07C23.204 51.13 23.094 51.2 23.0006 51.28V54.98C23.1006 55.0533 23.214 55.1167 23.3406 55.17C23.4673 55.2167 23.6106 55.24 23.7706 55.24ZM26.3935 57.9V50.22H27.4635V50.68C27.5902 50.5333 27.7435 50.4067 27.9235 50.3C28.1035 50.1933 28.3168 50.14 28.5635 50.14C28.8635 50.14 29.1002 50.22 29.2735 50.38C29.4535 50.5333 29.5868 50.73 29.6735 50.97C29.7602 51.2033 29.8168 51.4433 29.8435 51.69C29.8702 51.93 29.8835 52.1367 29.8835 52.31V53.71C29.8835 54.1167 29.8435 54.5033 29.7635 54.87C29.6835 55.23 29.5368 55.5233 29.3235 55.75C29.1168 55.97 28.8235 56.08 28.4435 56.08C28.2368 56.08 28.0535 56.03 27.8935 55.93C27.7335 55.8233 27.5902 55.7033 27.4635 55.57V57.9H26.3935ZM28.2335 55.24C28.4202 55.24 28.5535 55.1733 28.6335 55.04C28.7135 54.9 28.7635 54.7133 28.7835 54.48C28.8035 54.2467 28.8135 53.99 28.8135 53.71V52.31C28.8135 52.07 28.8002 51.85 28.7735 51.65C28.7468 51.4433 28.6902 51.28 28.6035 51.16C28.5168 51.04 28.3802 50.98 28.1935 50.98C28.0535 50.98 27.9202 51.01 27.7935 51.07C27.6668 51.13 27.5568 51.2 27.4635 51.28V54.98C27.5635 55.0533 27.6768 55.1167 27.8035 55.17C27.9302 55.2167 28.0735 55.24 28.2335 55.24ZM32.4464 56.08C32.0197 56.08 31.6831 55.9933 31.4364 55.82C31.1897 55.6467 31.0131 55.4 30.9064 55.08C30.8064 54.76 30.7564 54.3833 30.7564 53.95V52.27C30.7564 51.8367 30.8064 51.46 30.9064 51.14C31.0131 50.82 31.1897 50.5733 31.4364 50.4C31.6831 50.2267 32.0197 50.14 32.4464 50.14C32.8731 50.14 33.2064 50.2267 33.4464 50.4C33.6931 50.5733 33.8664 50.82 33.9664 51.14C34.0731 51.46 34.1264 51.8367 34.1264 52.27V53.95C34.1264 54.3833 34.0731 54.76 33.9664 55.08C33.8664 55.4 33.6931 55.6467 33.4464 55.82C33.2064 55.9933 32.8731 56.08 32.4464 56.08ZM32.4464 55.29C32.6531 55.29 32.7964 55.23 32.8764 55.11C32.9631 54.99 33.0131 54.8333 33.0264 54.64C33.0464 54.44 33.0564 54.2333 33.0564 54.02V52.21C33.0564 51.99 33.0464 51.7833 33.0264 51.59C33.0131 51.3967 32.9631 51.24 32.8764 51.12C32.7964 50.9933 32.6531 50.93 32.4464 50.93C32.2397 50.93 32.0931 50.9933 32.0064 51.12C31.9197 51.24 31.8664 51.3967 31.8464 51.59C31.8331 51.7833 31.8264 51.99 31.8264 52.21V54.02C31.8264 54.2333 31.8331 54.44 31.8464 54.64C31.8664 54.8333 31.9197 54.99 32.0064 55.11C32.0931 55.23 32.2397 55.29 32.4464 55.29ZM35.1045 56V50.22H36.1745V50.79C36.3678 50.61 36.5811 50.4567 36.8145 50.33C37.0478 50.2033 37.3045 50.14 37.5845 50.14C37.8178 50.14 37.9945 50.2 38.1145 50.32C38.2411 50.44 38.3278 50.59 38.3745 50.77C38.4278 50.95 38.4545 51.1333 38.4545 51.32V56H37.3845V51.63C37.3845 51.4233 37.3545 51.2633 37.2945 51.15C37.2345 51.0367 37.1111 50.98 36.9245 50.98C36.8045 50.98 36.6778 51.0167 36.5445 51.09C36.4178 51.1567 36.2945 51.24 36.1745 51.34V56H35.1045ZM41.099 56.08C40.6457 56.08 40.2957 55.9933 40.049 55.82C39.8023 55.64 39.629 55.38 39.529 55.04C39.4357 54.6933 39.389 54.27 39.389 53.77V52.45C39.389 51.9367 39.439 51.51 39.539 51.17C39.639 50.83 39.8123 50.5733 40.059 50.4C40.3123 50.2267 40.659 50.14 41.099 50.14C41.5857 50.14 41.9423 50.24 42.169 50.44C42.4023 50.64 42.5557 50.93 42.629 51.31C42.7023 51.6833 42.739 52.1333 42.739 52.66V53.13H40.459V54.29C40.459 54.5233 40.479 54.7133 40.519 54.86C40.5657 55.0067 40.6357 55.1167 40.729 55.19C40.829 55.2567 40.9557 55.29 41.109 55.29C41.269 55.29 41.389 55.2533 41.469 55.18C41.5557 55.1 41.6123 54.99 41.639 54.85C41.6723 54.7033 41.689 54.5333 41.689 54.34V53.99H42.729V54.21C42.729 54.79 42.6057 55.2467 42.359 55.58C42.1123 55.9133 41.6923 56.08 41.099 56.08ZM40.459 52.55H41.689V52.03C41.689 51.79 41.6757 51.59 41.649 51.43C41.6223 51.2633 41.5657 51.14 41.479 51.06C41.399 50.9733 41.269 50.93 41.089 50.93C40.9157 50.93 40.7823 50.97 40.689 51.05C40.6023 51.13 40.5423 51.2667 40.509 51.46C40.4757 51.6467 40.459 51.9067 40.459 52.24V52.55ZM43.708 56V50.22H44.778V50.79C44.9713 50.61 45.1846 50.4567 45.418 50.33C45.6513 50.2033 45.908 50.14 46.188 50.14C46.4213 50.14 46.598 50.2 46.718 50.32C46.8446 50.44 46.9313 50.59 46.978 50.77C47.0313 50.95 47.058 51.1333 47.058 51.32V56H45.988V51.63C45.988 51.4233 45.958 51.2633 45.898 51.15C45.838 51.0367 45.7146 50.98 45.528 50.98C45.408 50.98 45.2813 51.0167 45.148 51.09C45.0213 51.1567 44.898 51.24 44.778 51.34V56H43.708ZM49.6425 56.08C49.3425 56.08 49.0992 56.0233 48.9125 55.91C48.7325 55.7967 48.5992 55.6367 48.5125 55.43C48.4325 55.2233 48.3925 54.98 48.3925 54.7V50.93H47.7825V50.22H48.3925V48.53H49.4625V50.22H50.3925V50.93H49.4625V54.63C49.4625 54.8567 49.4992 55.02 49.5725 55.12C49.6458 55.2133 49.7858 55.26 49.9925 55.26C50.0458 55.26 50.1058 55.2567 50.1725 55.25C50.2458 55.2433 50.3158 55.2367 50.3825 55.23V56.02C50.2492 56.04 50.1258 56.0533 50.0125 56.06C49.8992 56.0733 49.7758 56.08 49.6425 56.08ZM53.5638 56V47.9H54.6338V56H53.5638ZM57.349 56.08C56.8957 56.08 56.5457 55.9933 56.299 55.82C56.0523 55.64 55.879 55.38 55.779 55.04C55.6857 54.6933 55.639 54.27 55.639 53.77V52.45C55.639 51.9367 55.689 51.51 55.789 51.17C55.889 50.83 56.0623 50.5733 56.309 50.4C56.5623 50.2267 56.909 50.14 57.349 50.14C57.8357 50.14 58.1923 50.24 58.419 50.44C58.6523 50.64 58.8057 50.93 58.879 51.31C58.9523 51.6833 58.989 52.1333 58.989 52.66V53.13H56.709V54.29C56.709 54.5233 56.729 54.7133 56.769 54.86C56.8157 55.0067 56.8857 55.1167 56.979 55.19C57.079 55.2567 57.2057 55.29 57.359 55.29C57.519 55.29 57.639 55.2533 57.719 55.18C57.8057 55.1 57.8623 54.99 57.889 54.85C57.9223 54.7033 57.939 54.5333 57.939 54.34V53.99H58.979V54.21C58.979 54.79 58.8557 55.2467 58.609 55.58C58.3623 55.9133 57.9423 56.08 57.349 56.08ZM56.709 52.55H57.939V52.03C57.939 51.79 57.9257 51.59 57.899 51.43C57.8723 51.2633 57.8157 51.14 57.729 51.06C57.649 50.9733 57.519 50.93 57.339 50.93C57.1657 50.93 57.0323 50.97 56.939 51.05C56.8523 51.13 56.7923 51.2667 56.759 51.46C56.7257 51.6467 56.709 51.9067 56.709 52.24V52.55ZM60.298 56V51.01H59.608V50.22H60.298V49.92C60.298 49.56 60.3246 49.2533 60.378 49C60.438 48.74 60.558 48.54 60.738 48.4C60.918 48.26 61.188 48.19 61.548 48.19C61.6813 48.19 61.798 48.1967 61.898 48.21C62.0046 48.2167 62.1213 48.2333 62.248 48.26V49.04C62.188 49.0267 62.1213 49.0167 62.048 49.01C61.9746 48.9967 61.908 48.99 61.848 48.99C61.6413 48.99 61.508 49.06 61.448 49.2C61.3946 49.3333 61.368 49.5133 61.368 49.74V50.22H62.248V51.01H61.368V56H60.298ZM64.3691 56.08C64.0691 56.08 63.8257 56.0233 63.6391 55.91C63.4591 55.7967 63.3257 55.6367 63.2391 55.43C63.1591 55.2233 63.1191 54.98 63.1191 54.7V50.93H62.5091V50.22H63.1191V48.53H64.1891V50.22H65.1191V50.93H64.1891V54.63C64.1891 54.8567 64.2257 55.02 64.2991 55.12C64.3724 55.2133 64.5124 55.26 64.7191 55.26C64.7724 55.26 64.8324 55.2567 64.8991 55.25C64.9724 55.2433 65.0424 55.2367 65.1091 55.23V56.02C64.9757 56.04 64.8524 56.0533 64.7391 56.06C64.6257 56.0733 64.5024 56.08 64.3691 56.08ZM69.7304 56.08C69.4304 56.08 69.1871 56.0233 69.0004 55.91C68.8204 55.7967 68.6871 55.6367 68.6004 55.43C68.5204 55.2233 68.4804 54.98 68.4804 54.7V50.93H67.8704V50.22H68.4804V48.53H69.5504V50.22H70.4804V50.93H69.5504V54.63C69.5504 54.8567 69.5871 55.02 69.6604 55.12C69.7337 55.2133 69.8737 55.26 70.0804 55.26C70.1337 55.26 70.1937 55.2567 70.2604 55.25C70.3337 55.2433 70.4037 55.2367 70.4704 55.23V56.02C70.3371 56.04 70.2137 56.0533 70.1004 56.06C69.9871 56.0733 69.8637 56.08 69.7304 56.08ZM71.2966 56V47.9H72.3666V50.82C72.5599 50.6333 72.7766 50.4733 73.0166 50.34C73.2566 50.2067 73.5232 50.14 73.8166 50.14C74.0432 50.14 74.2166 50.2 74.3366 50.32C74.4632 50.44 74.5499 50.59 74.5966 50.77C74.6499 50.95 74.6766 51.1333 74.6766 51.32V56H73.6066V51.63C73.6066 51.4233 73.5766 51.2633 73.5166 51.15C73.4566 51.0367 73.3332 50.98 73.1466 50.98C73.0199 50.98 72.8866 51.0167 72.7466 51.09C72.6132 51.1633 72.4866 51.2533 72.3666 51.36V56H71.2966ZM77.3197 56.08C76.8664 56.08 76.5164 55.9933 76.2697 55.82C76.023 55.64 75.8497 55.38 75.7497 55.04C75.6564 54.6933 75.6097 54.27 75.6097 53.77V52.45C75.6097 51.9367 75.6597 51.51 75.7597 51.17C75.8597 50.83 76.033 50.5733 76.2797 50.4C76.533 50.2267 76.8797 50.14 77.3197 50.14C77.8064 50.14 78.163 50.24 78.3897 50.44C78.623 50.64 78.7764 50.93 78.8497 51.31C78.923 51.6833 78.9597 52.1333 78.9597 52.66V53.13H76.6797V54.29C76.6797 54.5233 76.6997 54.7133 76.7397 54.86C76.7864 55.0067 76.8564 55.1167 76.9497 55.19C77.0497 55.2567 77.1764 55.29 77.3297 55.29C77.4897 55.29 77.6097 55.2533 77.6897 55.18C77.7764 55.1 77.833 54.99 77.8597 54.85C77.893 54.7033 77.9097 54.5333 77.9097 54.34V53.99H78.9497V54.21C78.9497 54.79 78.8264 55.2467 78.5797 55.58C78.333 55.9133 77.913 56.08 77.3197 56.08ZM76.6797 52.55H77.9097V52.03C77.9097 51.79 77.8964 51.59 77.8697 51.43C77.843 51.2633 77.7864 51.14 77.6997 51.06C77.6197 50.9733 77.4897 50.93 77.3097 50.93C77.1364 50.93 77.003 50.97 76.9097 51.05C76.823 51.13 76.763 51.2667 76.7297 51.46C76.6964 51.6467 76.6797 51.9067 76.6797 52.24V52.55ZM83.7138 57.79C83.3672 57.79 83.0538 57.7533 82.7738 57.68C82.4938 57.6067 82.2738 57.49 82.1138 57.33C81.9538 57.17 81.8738 56.96 81.8738 56.7C81.8738 56.5133 81.9138 56.35 81.9938 56.21C82.0738 56.07 82.1772 55.95 82.3038 55.85C82.4305 55.7433 82.5638 55.6567 82.7038 55.59C82.5172 55.5367 82.3772 55.4533 82.2838 55.34C82.1905 55.22 82.1438 55.0967 82.1438 54.97C82.1438 54.7567 82.2005 54.5733 82.3138 54.42C82.4272 54.2667 82.5838 54.1 82.7838 53.92C82.5638 53.7533 82.3972 53.54 82.2838 53.28C82.1705 53.02 82.1138 52.66 82.1138 52.2C82.1138 51.7467 82.1738 51.37 82.2938 51.07C82.4205 50.7633 82.6038 50.5333 82.8438 50.38C83.0905 50.22 83.3905 50.14 83.7438 50.14C84.0572 50.14 84.3072 50.1933 84.4938 50.3C84.6872 50.4067 84.8338 50.5667 84.9338 50.78C84.9672 50.7267 85.0572 50.6367 85.2038 50.51C85.3505 50.3767 85.5205 50.2667 85.7138 50.18L85.8738 50.11L86.1438 50.8C86.0572 50.8133 85.9405 50.8467 85.7938 50.9C85.6538 50.9467 85.5205 50.9967 85.3938 51.05C85.2738 51.0967 85.1972 51.1367 85.1638 51.17C85.2105 51.2833 85.2505 51.4467 85.2838 51.66C85.3238 51.8733 85.3438 52.0633 85.3438 52.23C85.3438 52.6233 85.2938 52.97 85.1938 53.27C85.0938 53.57 84.9272 53.8067 84.6938 53.98C84.4672 54.1467 84.1505 54.23 83.7438 54.23C83.6572 54.23 83.5638 54.2233 83.4638 54.21C83.3638 54.1967 83.2738 54.18 83.1938 54.16C83.1538 54.22 83.1105 54.29 83.0638 54.37C83.0238 54.45 83.0038 54.5267 83.0038 54.6C83.0038 54.6733 83.0405 54.7333 83.1138 54.78C83.1938 54.82 83.3172 54.8467 83.4838 54.86L84.3838 54.94C84.8372 54.98 85.1738 55.1167 85.3938 55.35C85.6138 55.5833 85.7238 55.9167 85.7238 56.35C85.7238 56.6633 85.6505 56.9267 85.5038 57.14C85.3572 57.36 85.1338 57.5233 84.8338 57.63C84.5405 57.7367 84.1672 57.79 83.7138 57.79ZM83.7938 56.95C84.1738 56.95 84.4538 56.9033 84.6338 56.81C84.8138 56.7233 84.9038 56.58 84.9038 56.38C84.9038 56.26 84.8805 56.16 84.8338 56.08C84.7938 56 84.7172 55.9367 84.6038 55.89C84.4905 55.8433 84.3272 55.81 84.1138 55.79L83.2038 55.71C83.1305 55.7833 83.0605 55.8567 82.9938 55.93C82.9272 56.0033 82.8738 56.08 82.8338 56.16C82.7938 56.2467 82.7738 56.3367 82.7738 56.43C82.7738 56.6033 82.8472 56.7333 82.9938 56.82C83.1405 56.9067 83.4072 56.95 83.7938 56.95ZM83.7438 53.48C83.8972 53.48 84.0172 53.4533 84.1038 53.4C84.1972 53.34 84.2672 53.2567 84.3138 53.15C84.3605 53.0367 84.3905 52.9 84.4038 52.74C84.4238 52.58 84.4338 52.4 84.4338 52.2C84.4338 52 84.4238 51.82 84.4038 51.66C84.3905 51.4933 84.3605 51.3533 84.3138 51.24C84.2738 51.12 84.2072 51.03 84.1138 50.97C84.0272 50.91 83.9072 50.88 83.7538 50.88C83.6072 50.88 83.4838 50.91 83.3838 50.97C83.2905 51.03 83.2205 51.1167 83.1738 51.23C83.1272 51.3367 83.0938 51.4733 83.0738 51.64C83.0538 51.8 83.0438 51.9867 83.0438 52.2C83.0438 52.38 83.0505 52.55 83.0638 52.71C83.0838 52.8633 83.1172 52.9967 83.1638 53.11C83.2172 53.2233 83.2905 53.3133 83.3838 53.38C83.4772 53.4467 83.5972 53.48 83.7438 53.48ZM87.5995 56.08C87.3729 56.08 87.1729 56.0167 86.9995 55.89C86.8262 55.7567 86.6895 55.59 86.5895 55.39C86.4895 55.1833 86.4395 54.9667 86.4395 54.74C86.4395 54.38 86.4995 54.0767 86.6195 53.83C86.7395 53.5833 86.9029 53.3767 87.1095 53.21C87.3229 53.0367 87.5662 52.8867 87.8395 52.76C88.1195 52.6333 88.4129 52.51 88.7195 52.39V51.98C88.7195 51.7467 88.7062 51.5533 88.6795 51.4C88.6529 51.2467 88.5962 51.1333 88.5095 51.06C88.4295 50.98 88.3062 50.94 88.1395 50.94C87.9929 50.94 87.8729 50.9733 87.7795 51.04C87.6929 51.1067 87.6295 51.2033 87.5895 51.33C87.5495 51.45 87.5295 51.5933 87.5295 51.76V52.05L86.4695 52.01C86.4829 51.37 86.6295 50.9 86.9095 50.6C87.1895 50.2933 87.6229 50.14 88.2095 50.14C88.7829 50.14 89.1895 50.2967 89.4295 50.61C89.6695 50.9233 89.7895 51.3767 89.7895 51.97V54.61C89.7895 54.79 89.7929 54.9633 89.7995 55.13C89.8129 55.2967 89.8262 55.4533 89.8395 55.6C89.8595 55.74 89.8762 55.8733 89.8895 56H88.9095C88.8895 55.8933 88.8629 55.76 88.8295 55.6C88.8029 55.4333 88.7829 55.2833 88.7695 55.15C88.7029 55.3767 88.5729 55.59 88.3795 55.79C88.1929 55.9833 87.9329 56.08 87.5995 56.08ZM88.0195 55.16C88.1262 55.16 88.2262 55.13 88.3195 55.07C88.4129 55.01 88.4962 54.9433 88.5695 54.87C88.6429 54.79 88.6929 54.7267 88.7195 54.68V53.04C88.5529 53.1333 88.3962 53.2267 88.2495 53.32C88.1029 53.4133 87.9729 53.5133 87.8595 53.62C87.7529 53.72 87.6662 53.8367 87.5995 53.97C87.5395 54.0967 87.5095 54.2433 87.5095 54.41C87.5095 54.6433 87.5529 54.8267 87.6395 54.96C87.7262 55.0933 87.8529 55.16 88.0195 55.16ZM90.8173 56V50.22H91.8073V50.77C92.0007 50.55 92.214 50.3867 92.4473 50.28C92.6807 50.1733 92.9207 50.12 93.1673 50.12C93.3807 50.12 93.5707 50.1733 93.7373 50.28C93.9107 50.3867 94.034 50.5767 94.1073 50.85C94.314 50.5967 94.5373 50.4133 94.7773 50.3C95.024 50.18 95.2807 50.12 95.5473 50.12C95.734 50.12 95.904 50.1667 96.0573 50.26C96.2107 50.3467 96.334 50.49 96.4273 50.69C96.5207 50.8833 96.5673 51.14 96.5673 51.46V56H95.5873V51.53C95.5873 51.25 95.5407 51.0633 95.4473 50.97C95.3607 50.87 95.2407 50.82 95.0873 50.82C94.9407 50.82 94.7873 50.8633 94.6273 50.95C94.4673 51.03 94.3207 51.1433 94.1873 51.29C94.1873 51.3167 94.1873 51.3433 94.1873 51.37C94.1873 51.3967 94.1873 51.4267 94.1873 51.46V56H93.2073V51.53C93.2073 51.25 93.1607 51.0633 93.0673 50.97C92.9807 50.87 92.8607 50.82 92.7073 50.82C92.5607 50.82 92.4073 50.8633 92.2473 50.95C92.094 51.03 91.9473 51.1433 91.8073 51.29V56H90.8173ZM99.2142 56.08C98.7609 56.08 98.4109 55.9933 98.1642 55.82C97.9176 55.64 97.7442 55.38 97.6442 55.04C97.5509 54.6933 97.5042 54.27 97.5042 53.77V52.45C97.5042 51.9367 97.5542 51.51 97.6542 51.17C97.7542 50.83 97.9276 50.5733 98.1742 50.4C98.4276 50.2267 98.7742 50.14 99.2142 50.14C99.7009 50.14 100.058 50.24 100.284 50.44C100.518 50.64 100.671 50.93 100.744 51.31C100.818 51.6833 100.854 52.1333 100.854 52.66V53.13H98.5742V54.29C98.5742 54.5233 98.5942 54.7133 98.6342 54.86C98.6809 55.0067 98.7509 55.1167 98.8442 55.19C98.9442 55.2567 99.0709 55.29 99.2242 55.29C99.3842 55.29 99.5042 55.2533 99.5842 55.18C99.6709 55.1 99.7276 54.99 99.7542 54.85C99.7876 54.7033 99.8042 54.5333 99.8042 54.34V53.99H100.844V54.21C100.844 54.79 100.721 55.2467 100.474 55.58C100.228 55.9133 99.8076 56.08 99.2142 56.08ZM98.5742 52.55H99.8042V52.03C99.8042 51.79 99.7909 51.59 99.7642 51.43C99.7376 51.2633 99.6809 51.14 99.5942 51.06C99.5142 50.9733 99.3842 50.93 99.2042 50.93C99.0309 50.93 98.8976 50.97 98.8042 51.05C98.7176 51.13 98.6576 51.2667 98.6242 51.46C98.5909 51.6467 98.5742 51.9067 98.5742 52.24V52.55Z"></path>
</svg>
