<svg xmlns="http://www.w3.org/2000/svg" fill="none" viewBox="0 0 8 19" height="19" width="8">
<path fill-opacity="0.01" fill="white" d="M0.5 0H7.5V19L0.5 19V0Z"></path>
<path fill="#45D2FF" d="M4.00066 14.1441C3.25666 14.1441 2.67266 14.0241 2.24866 13.7841C1.83266 13.5361 1.54066 13.1801 1.37266 12.7161C1.20466 12.2441 1.12066 11.6681 1.12066 10.9881V4.28012H3.24466V11.3121C3.24466 11.5121 3.26066 11.7121 3.29266 11.9121C3.32466 12.1121 3.39266 12.2761 3.49666 12.4041C3.60866 12.5321 3.77666 12.5961 4.00066 12.5961C4.23266 12.5961 4.40066 12.5321 4.50466 12.4041C4.60866 12.2761 4.67266 12.1121 4.69666 11.9121C4.72866 11.7121 4.74466 11.5121 4.74466 11.3121V4.28012H6.88066V10.9881C6.88066 11.6681 6.79266 12.2441 6.61666 12.7161C6.44866 13.1801 6.15666 13.5361 5.74066 13.7841C5.32466 14.0241 4.74466 14.1441 4.00066 14.1441Z"></path>
</svg>
