<svg xmlns="http://www.w3.org/2000/svg" fill="none" viewBox="0 0 140 22" height="22" width="140">
<rect stroke="#0D0E12" fill="white" height="21" width="139" y="0.5" x="0.5"></rect>
<path fill="#0D0E12" d="M51.92 15.12C51.3133 15.12 50.8333 15.0133 50.48 14.8C50.1267 14.5867 49.8733 14.28 49.72 13.88C49.5667 13.48 49.49 13.0033 49.49 12.45V9.44C49.49 8.88 49.5667 8.40333 49.72 8.01C49.8733 7.61667 50.1267 7.31667 50.48 7.11C50.8333 6.89667 51.3133 6.79 51.92 6.79C52.5333 6.79 53.0167 6.89667 53.37 7.11C53.73 7.31667 53.9867 7.61667 54.14 8.01C54.2933 8.40333 54.37 8.88 54.37 9.44V12.45C54.37 13.0033 54.2933 13.48 54.14 13.88C53.9867 14.28 53.73 14.5867 53.37 14.8C53.0167 15.0133 52.5333 15.12 51.92 15.12ZM51.92 13.85C52.1067 13.85 52.2433 13.8033 52.33 13.71C52.4167 13.6167 52.4733 13.4967 52.5 13.35C52.5267 13.2033 52.54 13.0533 52.54 12.9V9C52.54 8.84 52.5267 8.69 52.5 8.55C52.4733 8.40333 52.4167 8.28333 52.33 8.19C52.2433 8.09667 52.1067 8.05 51.92 8.05C51.7467 8.05 51.6167 8.09667 51.53 8.19C51.4433 8.28333 51.3867 8.40333 51.36 8.55C51.3333 8.69 51.32 8.84 51.32 9V12.9C51.32 13.0533 51.33 13.2033 51.35 13.35C51.3767 13.4967 51.43 13.6167 51.51 13.71C51.5967 13.8033 51.7333 13.85 51.92 13.85ZM58.018 15V6.9H62.868V15H61.108V8.18H59.778V15H58.018ZM64.0727 15V6.9H66.7927C67.2793 6.9 67.6793 6.99333 67.9927 7.18C68.306 7.36 68.5393 7.62667 68.6927 7.98C68.846 8.32667 68.9227 8.75 68.9227 9.25C68.9227 9.87667 68.8193 10.3567 68.6127 10.69C68.406 11.0167 68.126 11.2433 67.7727 11.37C67.4193 11.4967 67.0227 11.56 66.5827 11.56H65.8627V15H64.0727ZM65.8627 10.31H66.4627C66.6827 10.31 66.8493 10.27 66.9627 10.19C67.076 10.11 67.1493 9.99 67.1827 9.83C67.2227 9.67 67.2427 9.46667 67.2427 9.22C67.2427 9.01333 67.226 8.83333 67.1927 8.68C67.166 8.52 67.096 8.39333 66.9827 8.3C66.8693 8.20667 66.6927 8.16 66.4527 8.16H65.8627V10.31ZM72.1055 15.12C71.4989 15.12 71.0189 15.0133 70.6655 14.8C70.3122 14.5867 70.0589 14.28 69.9055 13.88C69.7522 13.48 69.6755 13.0033 69.6755 12.45V9.44C69.6755 8.88 69.7522 8.40333 69.9055 8.01C70.0589 7.61667 70.3122 7.31667 70.6655 7.11C71.0189 6.89667 71.4989 6.79 72.1055 6.79C72.7189 6.79 73.2022 6.89667 73.5555 7.11C73.9155 7.31667 74.1722 7.61667 74.3255 8.01C74.4789 8.40333 74.5555 8.88 74.5555 9.44V12.45C74.5555 13.0033 74.4789 13.48 74.3255 13.88C74.1722 14.28 73.9155 14.5867 73.5555 14.8C73.2022 15.0133 72.7189 15.12 72.1055 15.12ZM72.1055 13.85C72.2922 13.85 72.4289 13.8033 72.5155 13.71C72.6022 13.6167 72.6589 13.4967 72.6855 13.35C72.7122 13.2033 72.7255 13.0533 72.7255 12.9V9C72.7255 8.84 72.7122 8.69 72.6855 8.55C72.6589 8.40333 72.6022 8.28333 72.5155 8.19C72.4289 8.09667 72.2922 8.05 72.1055 8.05C71.9322 8.05 71.8022 8.09667 71.7155 8.19C71.6289 8.28333 71.5722 8.40333 71.5455 8.55C71.5189 8.69 71.5055 8.84 71.5055 9V12.9C71.5055 13.0533 71.5155 13.2033 71.5355 13.35C71.5622 13.4967 71.6155 13.6167 71.6955 13.71C71.7822 13.8033 71.9189 13.85 72.1055 13.85ZM75.6749 15V6.9H79.4249V8.23H77.4649V15H75.6749ZM80.2738 15V6.9H82.9938C83.4805 6.9 83.8805 6.99333 84.1938 7.18C84.5072 7.36 84.7405 7.62667 84.8938 7.98C85.0472 8.32667 85.1238 8.75 85.1238 9.25C85.1238 9.87667 85.0205 10.3567 84.8138 10.69C84.6072 11.0167 84.3272 11.2433 83.9738 11.37C83.6205 11.4967 83.2238 11.56 82.7838 11.56H82.0638V15H80.2738ZM82.0638 10.31H82.6638C82.8838 10.31 83.0505 10.27 83.1638 10.19C83.2772 10.11 83.3505 9.99 83.3838 9.83C83.4238 9.67 83.4438 9.46667 83.4438 9.22C83.4438 9.01333 83.4272 8.83333 83.3938 8.68C83.3672 8.52 83.2972 8.39333 83.1838 8.3C83.0705 8.20667 82.8938 8.16 82.6538 8.16H82.0638V10.31ZM85.4307 15L86.9607 6.9H89.0007L90.5107 15H88.8607L88.5907 13.29H87.4007L87.1207 15H85.4307ZM87.5607 12.22H88.4207L87.9907 9.06L87.5607 12.22ZM91.2985 15L91.4385 6.9H93.3585L94.2485 11.61L95.2085 6.9H97.0585L97.1985 15H95.9285L95.7785 9.61L94.8385 15H93.7085L92.7085 9.57L92.5885 15H91.2985ZM98.3395 15L98.4795 6.9H100.4L101.29 11.61L102.25 6.9H104.1L104.24 15H102.97L102.82 9.61L101.88 15H100.75L99.7495 9.57L99.6295 15H98.3395ZM105.411 15V6.9H109.051V8.12H107.201V10.13H108.611V11.37H107.201V13.79H109.071V15H105.411Z"></path>
<circle stroke-width="1.5" stroke="#0D0E12" fill="white" r="6" cy="11" cx="36"></circle>
<rect fill="#0D0E12" height="5" width="2" y="10" x="35"></rect>
<rect fill="#0D0E12" height="2" width="2" y="7" x="35"></rect>
</svg>
