<svg xmlns="http://www.w3.org/2000/svg" fill="none" viewBox="0 0 13 18" height="18" width="13">
<rect fill-opacity="0.01" fill="#0D0E12" height="18" width="13"></rect>
<path fill="white" d="M0.492 14V12.584L2.82 9.008C2.996 8.744 3.16 8.488 3.312 8.24C3.472 7.992 3.6 7.74 3.696 7.484C3.8 7.228 3.852 6.96 3.852 6.68C3.852 6.4 3.796 6.192 3.684 6.056C3.572 5.92 3.42 5.852 3.228 5.852C3.012 5.852 2.844 5.912 2.724 6.032C2.604 6.152 2.52 6.312 2.472 6.512C2.432 6.712 2.412 6.936 2.412 7.184V7.664H0.468V7.148C0.468 6.572 0.56 6.06 0.744 5.612C0.928 5.156 1.22 4.8 1.62 4.544C2.02 4.28 2.544 4.148 3.192 4.148C4.064 4.148 4.72 4.376 5.16 4.832C5.608 5.28 5.832 5.908 5.832 6.716C5.832 7.108 5.768 7.472 5.64 7.808C5.52 8.144 5.356 8.472 5.148 8.792C4.948 9.104 4.732 9.432 4.5 9.776L2.724 12.428H5.568V14H0.492ZM6.65606 14V12.584L8.98406 9.008C9.16006 8.744 9.32406 8.488 9.47606 8.24C9.63606 7.992 9.76406 7.74 9.86006 7.484C9.96406 7.228 10.0161 6.96 10.0161 6.68C10.0161 6.4 9.96006 6.192 9.84806 6.056C9.73606 5.92 9.58406 5.852 9.39206 5.852C9.17606 5.852 9.00806 5.912 8.88806 6.032C8.76806 6.152 8.68406 6.312 8.63606 6.512C8.59606 6.712 8.57606 6.936 8.57606 7.184V7.664H6.63206V7.148C6.63206 6.572 6.72406 6.06 6.90806 5.612C7.09206 5.156 7.38406 4.8 7.78406 4.544C8.18406 4.28 8.70806 4.148 9.35606 4.148C10.2281 4.148 10.8841 4.376 11.3241 4.832C11.7721 5.28 11.9961 5.908 11.9961 6.716C11.9961 7.108 11.9321 7.472 11.8041 7.808C11.6841 8.144 11.5201 8.472 11.3121 8.792C11.1121 9.104 10.8961 9.432 10.6641 9.776L8.88806 12.428H11.7321V14H6.65606Z"></path>
</svg>
