<svg xmlns="http://www.w3.org/2000/svg" fill="none" viewBox="0 0 156 56" height="56" width="156">
<rect stroke="white" fill="#0D0E12" height="55" width="155" y="0.5" x="0.5"></rect>
<path fill="white" d="M43.7834 16V10.22H45.8334C46.4134 10.22 46.8501 10.2833 47.1434 10.41C47.4368 10.53 47.6334 10.6967 47.7334 10.91C47.8334 11.1233 47.8834 11.3733 47.8834 11.66C47.8834 12.04 47.8001 12.32 47.6334 12.5C47.4734 12.6733 47.2601 12.7967 46.9934 12.87C47.2734 12.9367 47.4868 13.0367 47.6334 13.17C47.7801 13.3033 47.8801 13.4667 47.9334 13.66C47.9934 13.8533 48.0234 14.0767 48.0234 14.33C48.0234 14.7033 47.9534 15.0167 47.8134 15.27C47.6734 15.5167 47.4368 15.7 47.1034 15.82C46.7701 15.94 46.3168 16 45.7434 16H43.7834ZM45.4034 15.1H45.6734C45.8201 15.1 45.9501 15.0867 46.0634 15.06C46.1768 15.0333 46.2668 14.9633 46.3334 14.85C46.4068 14.73 46.4434 14.54 46.4434 14.28C46.4434 13.9867 46.4101 13.7767 46.3434 13.65C46.2834 13.5233 46.1968 13.4467 46.0834 13.42C45.9701 13.3933 45.8368 13.38 45.6834 13.38H45.4034V15.1ZM45.4034 12.5H45.8134C46.0068 12.5 46.1401 12.44 46.2134 12.32C46.2868 12.1933 46.3234 12.02 46.3234 11.8C46.3234 11.5867 46.2834 11.41 46.2034 11.27C46.1301 11.13 45.9601 11.06 45.6934 11.06H45.4034V12.5ZM48.8323 17.9V10.22H50.4623V10.64C50.6556 10.4667 50.8623 10.3367 51.0823 10.25C51.3023 10.1633 51.5123 10.12 51.7123 10.12C51.9323 10.12 52.1189 10.1633 52.2723 10.25C52.4323 10.3367 52.5623 10.46 52.6623 10.62C52.7623 10.7733 52.8356 10.9533 52.8823 11.16C52.9289 11.3667 52.9523 11.5867 52.9523 11.82V14.31C52.9523 14.67 52.9023 14.9833 52.8023 15.25C52.7089 15.5167 52.5689 15.7267 52.3823 15.88C52.1956 16.0267 51.9656 16.1 51.6923 16.1C51.4856 16.1 51.2756 16.0533 51.0623 15.96C50.8556 15.86 50.6556 15.7267 50.4623 15.56V17.9H48.8323ZM50.8923 15.05C50.9989 15.05 51.0823 15.02 51.1423 14.96C51.2023 14.9 51.2456 14.8233 51.2723 14.73C51.3056 14.63 51.3223 14.52 51.3223 14.4V11.7C51.3223 11.5867 51.3089 11.4867 51.2823 11.4C51.2556 11.3067 51.2123 11.2333 51.1523 11.18C51.0923 11.1267 51.0156 11.1 50.9223 11.1C50.8356 11.1 50.7523 11.12 50.6723 11.16C50.5989 11.1933 50.5289 11.24 50.4623 11.3V14.9C50.5356 14.9467 50.6056 14.9833 50.6723 15.01C50.7456 15.0367 50.8189 15.05 50.8923 15.05ZM54.0411 17.68V16.55C54.2478 16.55 54.4178 16.5367 54.5511 16.51C54.6911 16.4833 54.7944 16.4333 54.8611 16.36C54.9344 16.2867 54.9711 16.1867 54.9711 16.06C54.9711 15.9467 54.9511 15.81 54.9111 15.65C54.8711 15.4833 54.8211 15.2967 54.7611 15.09L53.4011 10.22H54.9311L55.6611 13.56L56.2111 10.22H57.7511L56.4211 16.14C56.3344 16.54 56.1978 16.85 56.0111 17.07C55.8244 17.2967 55.5944 17.4533 55.3211 17.54C55.0544 17.6333 54.7511 17.68 54.4111 17.68H54.0411ZM60.6735 16V13.67C60.5868 13.6767 60.4968 13.6833 60.4035 13.69C60.3168 13.6967 60.2302 13.7 60.1435 13.7C59.6502 13.7 59.2635 13.6433 58.9835 13.53C58.7102 13.41 58.5168 13.2433 58.4035 13.03C58.2968 12.81 58.2435 12.55 58.2435 12.25V10.22H59.8635V12.15C59.8635 12.3567 59.9035 12.51 59.9835 12.61C60.0635 12.71 60.2268 12.7667 60.4735 12.78C60.5068 12.78 60.5368 12.78 60.5635 12.78C60.5968 12.7733 60.6335 12.77 60.6735 12.77V10.22H62.3035V16H60.6735ZM64.5145 16.1C64.2211 16.1 63.9745 16.03 63.7745 15.89C63.5745 15.75 63.4245 15.5733 63.3245 15.36C63.2245 15.14 63.1745 14.9167 63.1745 14.69C63.1745 14.33 63.2445 14.0267 63.3845 13.78C63.5311 13.5333 63.7211 13.3267 63.9545 13.16C64.1878 12.9933 64.4445 12.8533 64.7245 12.74C65.0045 12.62 65.2811 12.5133 65.5545 12.42V11.84C65.5545 11.74 65.5445 11.6533 65.5245 11.58C65.5045 11.5 65.4711 11.44 65.4245 11.4C65.3778 11.3533 65.3078 11.33 65.2145 11.33C65.1211 11.33 65.0478 11.35 64.9945 11.39C64.9478 11.43 64.9145 11.4867 64.8945 11.56C64.8745 11.6267 64.8611 11.7033 64.8545 11.79L64.8145 12.21L63.2945 12.15C63.3278 11.4567 63.5111 10.9467 63.8445 10.62C64.1845 10.2867 64.6911 10.12 65.3645 10.12C65.9511 10.12 66.3878 10.2833 66.6745 10.61C66.9678 10.93 67.1145 11.3467 67.1145 11.86V14.56C67.1145 14.8 67.1178 15.01 67.1245 15.19C67.1378 15.37 67.1511 15.5267 67.1645 15.66C67.1845 15.7933 67.2011 15.9067 67.2145 16H65.7545C65.7345 15.8467 65.7111 15.68 65.6845 15.5C65.6578 15.32 65.6378 15.2133 65.6245 15.18C65.5578 15.42 65.4311 15.6333 65.2445 15.82C65.0645 16.0067 64.8211 16.1 64.5145 16.1ZM65.0945 15C65.1611 15 65.2211 14.9867 65.2745 14.96C65.3345 14.9333 65.3878 14.8967 65.4345 14.85C65.4811 14.8033 65.5211 14.7567 65.5545 14.71V13.13C65.4211 13.21 65.2978 13.2933 65.1845 13.38C65.0711 13.46 64.9745 13.55 64.8945 13.65C64.8145 13.75 64.7511 13.86 64.7045 13.98C64.6645 14.0933 64.6445 14.2233 64.6445 14.37C64.6445 14.5633 64.6845 14.7167 64.7645 14.83C64.8445 14.9433 64.9545 15 65.0945 15ZM69.9703 16.1C69.5503 16.1 69.1903 16.0267 68.8903 15.88C68.5903 15.7267 68.3603 15.5067 68.2003 15.22C68.0403 14.9267 67.9603 14.5767 67.9603 14.17V12.05C67.9603 11.6367 68.0403 11.2867 68.2003 11C68.3603 10.7133 68.5903 10.4967 68.8903 10.35C69.197 10.1967 69.557 10.12 69.9703 10.12C70.397 10.12 70.7503 10.1933 71.0303 10.34C71.317 10.4867 71.5303 10.7033 71.6703 10.99C71.817 11.2767 71.8903 11.63 71.8903 12.05V13.21H69.5703V14.32C69.5703 14.4667 69.587 14.5867 69.6203 14.68C69.6536 14.7733 69.7003 14.84 69.7603 14.88C69.8203 14.92 69.8903 14.94 69.9703 14.94C70.0503 14.94 70.1203 14.9233 70.1803 14.89C70.247 14.85 70.297 14.79 70.3303 14.71C70.3703 14.63 70.3903 14.52 70.3903 14.38V13.77H71.8903V14.33C71.8903 14.9167 71.7203 15.36 71.3803 15.66C71.0403 15.9533 70.5703 16.1 69.9703 16.1ZM69.5703 12.45H70.3903V11.87C70.3903 11.7167 70.3703 11.5967 70.3303 11.51C70.297 11.4233 70.247 11.3633 70.1803 11.33C70.1203 11.2967 70.047 11.28 69.9603 11.28C69.8803 11.28 69.8103 11.3 69.7503 11.34C69.697 11.38 69.6536 11.45 69.6203 11.55C69.587 11.6433 69.5703 11.78 69.5703 11.96V12.45ZM73.4385 16V11.32H72.3885V10.22H76.1085V11.32H75.0585V16H73.4385ZM78.6713 16.1C78.2513 16.1 77.8913 16.0233 77.5913 15.87C77.2979 15.7167 77.0713 15.4967 76.9113 15.21C76.7513 14.9233 76.6713 14.5767 76.6713 14.17V12.05C76.6713 11.6367 76.7513 11.2867 76.9113 11C77.0713 10.7133 77.2979 10.4967 77.5913 10.35C77.8913 10.1967 78.2513 10.12 78.6713 10.12C79.0846 10.12 79.4346 10.1833 79.7213 10.31C80.0146 10.4367 80.2379 10.63 80.3913 10.89C80.5446 11.1433 80.6213 11.4667 80.6213 11.86V12.47H79.0513V11.81C79.0513 11.6567 79.0346 11.54 79.0013 11.46C78.9746 11.3733 78.9313 11.3133 78.8713 11.28C78.8179 11.2467 78.7513 11.23 78.6713 11.23C78.5913 11.23 78.5246 11.2533 78.4713 11.3C78.4179 11.34 78.3779 11.41 78.3513 11.51C78.3246 11.6033 78.3113 11.7367 78.3113 11.91V14.31C78.3113 14.57 78.3413 14.7467 78.4013 14.84C78.4679 14.9333 78.5613 14.98 78.6813 14.98C78.7679 14.98 78.8379 14.9633 78.8913 14.93C78.9446 14.89 78.9846 14.83 79.0113 14.75C79.0379 14.6633 79.0513 14.55 79.0513 14.41V13.64H80.6213V14.34C80.6213 14.7267 80.5413 15.0533 80.3813 15.32C80.2279 15.58 80.0046 15.7767 79.7113 15.91C79.4246 16.0367 79.0779 16.1 78.6713 16.1ZM81.129 16L82.029 13.6C81.8757 13.5133 81.7457 13.3933 81.639 13.24C81.5323 13.0867 81.4523 12.9067 81.399 12.7C81.3457 12.4933 81.319 12.27 81.319 12.03C81.319 11.7633 81.3557 11.52 81.429 11.3C81.509 11.08 81.6323 10.89 81.799 10.73C81.9723 10.57 82.1957 10.4467 82.469 10.36C82.7423 10.2667 83.0723 10.22 83.459 10.22H85.609V16H83.989V13.94C83.9623 13.94 83.889 13.94 83.769 13.94C83.649 13.9333 83.559 13.9267 83.499 13.92L82.849 16H81.129ZM83.919 12.98C83.9323 12.98 83.9457 12.98 83.959 12.98C83.9723 12.98 83.9823 12.98 83.989 12.98V11.14C83.9823 11.14 83.9723 11.14 83.959 11.14C83.9457 11.14 83.9323 11.14 83.919 11.14C83.6723 11.14 83.4657 11.1733 83.299 11.24C83.1323 11.3067 83.0057 11.4067 82.919 11.54C82.839 11.6667 82.799 11.8267 82.799 12.02C82.799 12.3467 82.8957 12.5867 83.089 12.74C83.289 12.8933 83.5657 12.9733 83.919 12.98ZM89.8838 16V11.32H88.8338V10.22H92.5538V11.32H91.5038V16H89.8838ZM95.0584 16.1C94.6451 16.1 94.2851 16.03 93.9784 15.89C93.6784 15.75 93.4451 15.54 93.2784 15.26C93.1184 14.98 93.0384 14.63 93.0384 14.21V12.01C93.0384 11.59 93.1184 11.24 93.2784 10.96C93.4451 10.68 93.6784 10.47 93.9784 10.33C94.2851 10.19 94.6451 10.12 95.0584 10.12C95.4718 10.12 95.8284 10.19 96.1284 10.33C96.4351 10.47 96.6718 10.68 96.8384 10.96C97.0051 11.24 97.0884 11.59 97.0884 12.01V14.21C97.0884 14.63 97.0051 14.98 96.8384 15.26C96.6718 15.54 96.4351 15.75 96.1284 15.89C95.8284 16.03 95.4718 16.1 95.0584 16.1ZM95.0684 15.02C95.1751 15.02 95.2584 14.9933 95.3184 14.94C95.3784 14.88 95.4184 14.8 95.4384 14.7C95.4651 14.5933 95.4784 14.4667 95.4784 14.32V11.9C95.4784 11.7533 95.4651 11.63 95.4384 11.53C95.4184 11.4233 95.3784 11.3433 95.3184 11.29C95.2584 11.23 95.1751 11.2 95.0684 11.2C94.9618 11.2 94.8784 11.23 94.8184 11.29C94.7584 11.3433 94.7151 11.4233 94.6884 11.53C94.6618 11.63 94.6484 11.7533 94.6484 11.9V14.32C94.6484 14.4667 94.6618 14.5933 94.6884 14.7C94.7151 14.8 94.7584 14.88 94.8184 14.94C94.8784 14.9933 94.9618 15.02 95.0684 15.02ZM97.9824 16L98.0024 10.22H99.2024L100.382 12.99L101.572 10.22H102.772L102.792 16H101.522V12.96L100.632 15.1H100.152L99.2524 12.95V16H97.9824ZM103.973 17.68V16.55C104.179 16.55 104.349 16.5367 104.483 16.51C104.623 16.4833 104.726 16.4333 104.793 16.36C104.866 16.2867 104.903 16.1867 104.903 16.06C104.903 15.9467 104.883 15.81 104.843 15.65C104.803 15.4833 104.753 15.2967 104.693 15.09L103.333 10.22H104.863L105.593 13.56L106.143 10.22H107.683L106.353 16.14C106.266 16.54 106.129 16.85 105.943 17.07C105.756 17.2967 105.526 17.4533 105.253 17.54C104.986 17.6333 104.683 17.68 104.343 17.68H103.973ZM108.465 17.4L108.365 16.87C108.538 16.8233 108.698 16.7367 108.845 16.61C108.998 16.49 109.075 16.2867 109.075 16H108.215V14.46H109.765V15.79C109.758 16.2833 109.648 16.6667 109.435 16.94C109.222 17.2133 108.898 17.3667 108.465 17.4ZM21.8352 31V25.22H23.4652V27.5H23.7052L24.5852 25.22H26.3352L25.1952 27.95L26.3652 31H24.6452L23.7052 28.44H23.4652V31H21.8352ZM27.6621 31V26.32H26.6121V25.22H30.3321V26.32H29.2821V31H27.6621ZM32.8368 31.1C32.4234 31.1 32.0634 31.03 31.7568 30.89C31.4568 30.75 31.2234 30.54 31.0568 30.26C30.8968 29.98 30.8168 29.63 30.8168 29.21V27.01C30.8168 26.59 30.8968 26.24 31.0568 25.96C31.2234 25.68 31.4568 25.47 31.7568 25.33C32.0634 25.19 32.4234 25.12 32.8368 25.12C33.2501 25.12 33.6068 25.19 33.9068 25.33C34.2134 25.47 34.4501 25.68 34.6168 25.96C34.7834 26.24 34.8668 26.59 34.8668 27.01V29.21C34.8668 29.63 34.7834 29.98 34.6168 30.26C34.4501 30.54 34.2134 30.75 33.9068 30.89C33.6068 31.03 33.2501 31.1 32.8368 31.1ZM32.8468 30.02C32.9534 30.02 33.0368 29.9933 33.0968 29.94C33.1568 29.88 33.1968 29.8 33.2168 29.7C33.2434 29.5933 33.2568 29.4667 33.2568 29.32V26.9C33.2568 26.7533 33.2434 26.63 33.2168 26.53C33.1968 26.4233 33.1568 26.3433 33.0968 26.29C33.0368 26.23 32.9534 26.2 32.8468 26.2C32.7401 26.2 32.6568 26.23 32.5968 26.29C32.5368 26.3433 32.4934 26.4233 32.4668 26.53C32.4401 26.63 32.4268 26.7533 32.4268 26.9V29.32C32.4268 29.4667 32.4401 29.5933 32.4668 29.7C32.4934 29.8 32.5368 29.88 32.5968 29.94C32.6568 29.9933 32.7401 30.02 32.8468 30.02ZM38.3293 31V25.22H42.4293V31H40.7993V26.33H39.9593V31H38.3293ZM45.3368 31.1C44.9234 31.1 44.5634 31.03 44.2568 30.89C43.9568 30.75 43.7234 30.54 43.5568 30.26C43.3968 29.98 43.3168 29.63 43.3168 29.21V27.01C43.3168 26.59 43.3968 26.24 43.5568 25.96C43.7234 25.68 43.9568 25.47 44.2568 25.33C44.5634 25.19 44.9234 25.12 45.3368 25.12C45.7501 25.12 46.1068 25.19 46.4068 25.33C46.7134 25.47 46.9501 25.68 47.1168 25.96C47.2834 26.24 47.3668 26.59 47.3668 27.01V29.21C47.3668 29.63 47.2834 29.98 47.1168 30.26C46.9501 30.54 46.7134 30.75 46.4068 30.89C46.1068 31.03 45.7501 31.1 45.3368 31.1ZM45.3468 30.02C45.4534 30.02 45.5368 29.9933 45.5968 29.94C45.6568 29.88 45.6968 29.8 45.7168 29.7C45.7434 29.5933 45.7568 29.4667 45.7568 29.32V26.9C45.7568 26.7533 45.7434 26.63 45.7168 26.53C45.6968 26.4233 45.6568 26.3433 45.5968 26.29C45.5368 26.23 45.4534 26.2 45.3468 26.2C45.2401 26.2 45.1568 26.23 45.0968 26.29C45.0368 26.3433 44.9934 26.4233 44.9668 26.53C44.9401 26.63 44.9268 26.7533 44.9268 26.9V29.32C44.9268 29.4667 44.9401 29.5933 44.9668 29.7C44.9934 29.8 45.0368 29.88 45.0968 29.94C45.1568 29.9933 45.2401 30.02 45.3468 30.02ZM50.1607 31.1C49.6274 31.0867 49.2174 30.99 48.9307 30.81C48.6507 30.63 48.4607 30.37 48.3607 30.03C48.2607 29.6833 48.2107 29.27 48.2107 28.79V25.56C48.2107 25.0267 48.2641 24.6 48.3707 24.28C48.4841 23.96 48.6374 23.7133 48.8307 23.54C49.0307 23.3667 49.2607 23.2333 49.5207 23.14C49.7807 23.0467 50.0407 22.9733 50.3007 22.92C50.5674 22.8667 50.8241 22.8067 51.0707 22.74C51.3241 22.6667 51.5574 22.56 51.7707 22.42L51.8307 23.73C51.6107 23.8433 51.3774 23.9267 51.1307 23.98C50.8907 24.0267 50.6541 24.07 50.4207 24.11C50.1941 24.1433 49.9841 24.2 49.7907 24.28C49.6174 24.3467 49.4941 24.4733 49.4207 24.66C49.3474 24.84 49.3107 25.09 49.3107 25.41V25.85C49.3974 25.75 49.5041 25.6667 49.6307 25.6C49.7641 25.5333 49.9174 25.4833 50.0907 25.45C50.2707 25.4167 50.4674 25.4 50.6807 25.4C51.0341 25.4 51.3207 25.4667 51.5407 25.6C51.7607 25.7333 51.9207 25.9533 52.0207 26.26C52.1274 26.5667 52.1807 26.9833 52.1807 27.51V28.92C52.1807 29.5133 52.0941 29.97 51.9207 30.29C51.7541 30.6033 51.5174 30.8167 51.2107 30.93C50.9107 31.0433 50.5607 31.1 50.1607 31.1ZM50.2307 30.05C50.3574 30.05 50.4474 30.0167 50.5007 29.95C50.5607 29.8833 50.6007 29.76 50.6207 29.58C50.6407 29.3933 50.6507 29.12 50.6507 28.76V27.22C50.6507 27 50.6407 26.8267 50.6207 26.7C50.6007 26.5667 50.5607 26.4733 50.5007 26.42C50.4407 26.3667 50.3541 26.34 50.2407 26.34C50.1674 26.34 50.0974 26.3633 50.0307 26.41C49.9707 26.45 49.9207 26.52 49.8807 26.62C49.8407 26.7133 49.8074 26.8467 49.7807 27.02V28.75C49.7807 29.1033 49.7907 29.3733 49.8107 29.56C49.8307 29.7467 49.8741 29.8767 49.9407 29.95C50.0074 30.0167 50.1041 30.05 50.2307 30.05ZM54.9947 31.1C54.5747 31.1 54.2147 31.0267 53.9147 30.88C53.6147 30.7267 53.3847 30.5067 53.2247 30.22C53.0647 29.9267 52.9847 29.5767 52.9847 29.17V27.05C52.9847 26.6367 53.0647 26.2867 53.2247 26C53.3847 25.7133 53.6147 25.4967 53.9147 25.35C54.2214 25.1967 54.5814 25.12 54.9947 25.12C55.4214 25.12 55.7747 25.1933 56.0547 25.34C56.3414 25.4867 56.5547 25.7033 56.6947 25.99C56.8414 26.2767 56.9147 26.63 56.9147 27.05V28.21H54.5947V29.32C54.5947 29.4667 54.6114 29.5867 54.6447 29.68C54.6781 29.7733 54.7247 29.84 54.7847 29.88C54.8447 29.92 54.9147 29.94 54.9947 29.94C55.0747 29.94 55.1447 29.9233 55.2047 29.89C55.2714 29.85 55.3214 29.79 55.3547 29.71C55.3947 29.63 55.4147 29.52 55.4147 29.38V28.77H56.9147V29.33C56.9147 29.9167 56.7447 30.36 56.4047 30.66C56.0647 30.9533 55.5947 31.1 54.9947 31.1ZM54.5947 27.45H55.4147V26.87C55.4147 26.7167 55.3947 26.5967 55.3547 26.51C55.3214 26.4233 55.2714 26.3633 55.2047 26.33C55.1447 26.2967 55.0714 26.28 54.9847 26.28C54.9047 26.28 54.8347 26.3 54.7747 26.34C54.7214 26.38 54.6781 26.45 54.6447 26.55C54.6114 26.6433 54.5947 26.78 54.5947 26.96V27.45ZM57.612 32.57V30.01C57.832 29.91 58.022 29.78 58.182 29.62C58.342 29.4533 58.4787 29.2533 58.592 29.02C58.7053 28.78 58.7953 28.5033 58.862 28.19C58.9287 27.87 58.9753 27.5067 59.002 27.1L59.172 25.22H62.352V30H63.192V32.57H62.022L61.912 31H58.892L58.802 32.57H57.612ZM59.372 30H60.862V26.19H60.382L60.262 27.49C60.242 27.8567 60.2053 28.1767 60.152 28.45C60.0987 28.7167 60.032 28.95 59.952 29.15C59.8787 29.3433 59.792 29.51 59.692 29.65C59.592 29.7833 59.4853 29.9 59.372 30ZM63.8762 31V25.22H65.1662V28.31L66.6762 25.22H67.9462V31H66.6262V27.94L65.1562 31H63.8762ZM69.6543 31V26.32H68.6043V25.22H72.3243V26.32H71.2743V31H69.6543ZM75.4657 31V29.82L77.4057 26.84C77.5523 26.62 77.689 26.4067 77.8157 26.2C77.949 25.9933 78.0557 25.7833 78.1357 25.57C78.2223 25.3567 78.2657 25.1333 78.2657 24.9C78.2657 24.6667 78.219 24.4933 78.1257 24.38C78.0323 24.2667 77.9057 24.21 77.7457 24.21C77.5657 24.21 77.4257 24.26 77.3257 24.36C77.2257 24.46 77.1557 24.5933 77.1157 24.76C77.0823 24.9267 77.0657 25.1133 77.0657 25.32V25.72H75.4457V25.29C75.4457 24.81 75.5223 24.3833 75.6757 24.01C75.829 23.63 76.0723 23.3333 76.4057 23.12C76.739 22.9 77.1757 22.79 77.7157 22.79C78.4423 22.79 78.989 22.98 79.3557 23.36C79.729 23.7333 79.9157 24.2567 79.9157 24.93C79.9157 25.2567 79.8623 25.56 79.7557 25.84C79.6557 26.12 79.519 26.3933 79.3457 26.66C79.179 26.92 78.999 27.1933 78.8057 27.48L77.3257 29.69H79.6957V31H75.4657ZM82.9424 31.15C82.4557 31.15 82.049 31.0533 81.7224 30.86C81.3957 30.66 81.149 30.3867 80.9824 30.04C80.8157 29.6933 80.7324 29.29 80.7324 28.83V25.16C80.7324 24.6867 80.809 24.2733 80.9624 23.92C81.1224 23.56 81.3657 23.28 81.6924 23.08C82.019 22.88 82.4357 22.78 82.9424 22.78C83.449 22.78 83.8624 22.88 84.1824 23.08C84.509 23.28 84.749 23.56 84.9024 23.92C85.0624 24.2733 85.1424 24.6867 85.1424 25.16V28.83C85.1424 29.2833 85.059 29.6867 84.8924 30.04C84.7257 30.3867 84.479 30.66 84.1524 30.86C83.8257 31.0533 83.4224 31.15 82.9424 31.15ZM82.9424 29.66C83.1024 29.66 83.2157 29.61 83.2824 29.51C83.3557 29.4033 83.399 29.2833 83.4124 29.15C83.4324 29.01 83.4424 28.89 83.4424 28.79V25.2C83.4424 25.0867 83.4357 24.96 83.4224 24.82C83.409 24.6733 83.3657 24.5467 83.2924 24.44C83.2257 24.3267 83.109 24.27 82.9424 24.27C82.7757 24.27 82.6557 24.3267 82.5824 24.44C82.5157 24.5467 82.4757 24.6733 82.4624 24.82C82.449 24.96 82.4424 25.0867 82.4424 25.2V28.79C82.4424 28.89 82.4524 29.01 82.4724 29.15C82.4924 29.2833 82.5357 29.4033 82.6024 29.51C82.6757 29.61 82.789 29.66 82.9424 29.66ZM88.4404 31.15C87.9538 31.15 87.5471 31.0533 87.2204 30.86C86.8938 30.66 86.6471 30.3867 86.4804 30.04C86.3138 29.6933 86.2304 29.29 86.2304 28.83V25.16C86.2304 24.6867 86.3071 24.2733 86.4604 23.92C86.6204 23.56 86.8638 23.28 87.1904 23.08C87.5171 22.88 87.9338 22.78 88.4404 22.78C88.9471 22.78 89.3604 22.88 89.6804 23.08C90.0071 23.28 90.2471 23.56 90.4004 23.92C90.5604 24.2733 90.6404 24.6867 90.6404 25.16V28.83C90.6404 29.2833 90.5571 29.6867 90.3904 30.04C90.2238 30.3867 89.9771 30.66 89.6504 30.86C89.3238 31.0533 88.9204 31.15 88.4404 31.15ZM88.4404 29.66C88.6004 29.66 88.7138 29.61 88.7804 29.51C88.8538 29.4033 88.8971 29.2833 88.9104 29.15C88.9304 29.01 88.9404 28.89 88.9404 28.79V25.2C88.9404 25.0867 88.9338 24.96 88.9204 24.82C88.9071 24.6733 88.8638 24.5467 88.7904 24.44C88.7238 24.3267 88.6071 24.27 88.4404 24.27C88.2738 24.27 88.1538 24.3267 88.0804 24.44C88.0138 24.5467 87.9738 24.6733 87.9604 24.82C87.9471 24.96 87.9404 25.0867 87.9404 25.2V28.79C87.9404 28.89 87.9504 29.01 87.9704 29.15C87.9904 29.2833 88.0338 29.4033 88.1004 29.51C88.1738 29.61 88.2871 29.66 88.4404 29.66ZM94.2571 32.9V25.22H95.8871V25.64C96.0804 25.4667 96.2871 25.3367 96.5071 25.25C96.7271 25.1633 96.9371 25.12 97.1371 25.12C97.3571 25.12 97.5437 25.1633 97.6971 25.25C97.8571 25.3367 97.9871 25.46 98.0871 25.62C98.1871 25.7733 98.2604 25.9533 98.3071 26.16C98.3537 26.3667 98.3771 26.5867 98.3771 26.82V29.31C98.3771 29.67 98.3271 29.9833 98.2271 30.25C98.1337 30.5167 97.9937 30.7267 97.8071 30.88C97.6204 31.0267 97.3904 31.1 97.1171 31.1C96.9104 31.1 96.7004 31.0533 96.4871 30.96C96.2804 30.86 96.0804 30.7267 95.8871 30.56V32.9H94.2571ZM96.3171 30.05C96.4237 30.05 96.5071 30.02 96.5671 29.96C96.6271 29.9 96.6704 29.8233 96.6971 29.73C96.7304 29.63 96.7471 29.52 96.7471 29.4V26.7C96.7471 26.5867 96.7337 26.4867 96.7071 26.4C96.6804 26.3067 96.6371 26.2333 96.5771 26.18C96.5171 26.1267 96.4404 26.1 96.3471 26.1C96.2604 26.1 96.1771 26.12 96.0971 26.16C96.0237 26.1933 95.9537 26.24 95.8871 26.3V29.9C95.9604 29.9467 96.0304 29.9833 96.0971 30.01C96.1704 30.0367 96.2437 30.05 96.3171 30.05ZM100.496 31.1C100.203 31.1 99.9559 31.03 99.7559 30.89C99.5559 30.75 99.4059 30.5733 99.3059 30.36C99.2059 30.14 99.1559 29.9167 99.1559 29.69C99.1559 29.33 99.2259 29.0267 99.3659 28.78C99.5126 28.5333 99.7026 28.3267 99.9359 28.16C100.169 27.9933 100.426 27.8533 100.706 27.74C100.986 27.62 101.263 27.5133 101.536 27.42V26.84C101.536 26.74 101.526 26.6533 101.506 26.58C101.486 26.5 101.453 26.44 101.406 26.4C101.359 26.3533 101.289 26.33 101.196 26.33C101.103 26.33 101.029 26.35 100.976 26.39C100.929 26.43 100.896 26.4867 100.876 26.56C100.856 26.6267 100.843 26.7033 100.836 26.79L100.796 27.21L99.2759 27.15C99.3092 26.4567 99.4926 25.9467 99.8259 25.62C100.166 25.2867 100.673 25.12 101.346 25.12C101.933 25.12 102.369 25.2833 102.656 25.61C102.949 25.93 103.096 26.3467 103.096 26.86V29.56C103.096 29.8 103.099 30.01 103.106 30.19C103.119 30.37 103.133 30.5267 103.146 30.66C103.166 30.7933 103.183 30.9067 103.196 31H101.736C101.716 30.8467 101.693 30.68 101.666 30.5C101.639 30.32 101.619 30.2133 101.606 30.18C101.539 30.42 101.413 30.6333 101.226 30.82C101.046 31.0067 100.803 31.1 100.496 31.1ZM101.076 30C101.143 30 101.203 29.9867 101.256 29.96C101.316 29.9333 101.369 29.8967 101.416 29.85C101.463 29.8033 101.503 29.7567 101.536 29.71V28.13C101.403 28.21 101.279 28.2933 101.166 28.38C101.053 28.46 100.956 28.55 100.876 28.65C100.796 28.75 100.733 28.86 100.686 28.98C100.646 29.0933 100.626 29.2233 100.626 29.37C100.626 29.5633 100.666 29.7167 100.746 29.83C100.826 29.9433 100.936 30 101.076 30ZM105.782 31.11C105.382 31.11 105.058 31.0567 104.812 30.95C104.572 30.8367 104.385 30.6867 104.252 30.5C104.125 30.3067 104.038 30.09 103.992 29.85C103.952 29.6033 103.932 29.3467 103.932 29.08H105.222C105.222 29.3867 105.268 29.6167 105.362 29.77C105.462 29.9167 105.615 29.99 105.822 29.99C105.975 29.99 106.092 29.9567 106.172 29.89C106.252 29.8233 106.305 29.73 106.332 29.61C106.365 29.49 106.382 29.3567 106.382 29.21C106.382 29.0167 106.345 28.8633 106.272 28.75C106.205 28.6367 106.092 28.5567 105.932 28.51C105.778 28.4567 105.568 28.43 105.302 28.43V27.59C105.702 27.59 105.962 27.5367 106.082 27.43C106.208 27.3233 106.272 27.1367 106.272 26.87C106.272 26.6767 106.232 26.5233 106.152 26.41C106.078 26.2967 105.945 26.24 105.752 26.24C105.545 26.24 105.398 26.3 105.312 26.42C105.232 26.5333 105.192 26.7367 105.192 27.03H103.912C103.912 26.6833 103.965 26.3667 104.072 26.08C104.178 25.7867 104.368 25.5533 104.642 25.38C104.922 25.2067 105.318 25.12 105.832 25.12C106.285 25.12 106.652 25.1933 106.932 25.34C107.218 25.48 107.425 25.6733 107.552 25.92C107.685 26.16 107.752 26.4333 107.752 26.74C107.752 26.9933 107.712 27.2067 107.632 27.38C107.552 27.5533 107.448 27.69 107.322 27.79C107.195 27.8833 107.055 27.9533 106.902 28C107.068 28.06 107.215 28.14 107.342 28.24C107.475 28.34 107.582 28.4833 107.662 28.67C107.742 28.85 107.782 29.0967 107.782 29.41C107.782 29.8967 107.625 30.3033 107.312 30.63C106.998 30.95 106.488 31.11 105.782 31.11ZM113.002 31.1C112.582 31.1 112.222 31.0233 111.922 30.87C111.629 30.7167 111.402 30.4967 111.242 30.21C111.082 29.9233 111.002 29.5767 111.002 29.17V27.05C111.002 26.6367 111.082 26.2867 111.242 26C111.402 25.7133 111.629 25.4967 111.922 25.35C112.222 25.1967 112.582 25.12 113.002 25.12C113.416 25.12 113.766 25.1833 114.052 25.31C114.346 25.4367 114.569 25.63 114.722 25.89C114.876 26.1433 114.952 26.4667 114.952 26.86V27.47H113.382V26.81C113.382 26.6567 113.366 26.54 113.332 26.46C113.306 26.3733 113.262 26.3133 113.202 26.28C113.149 26.2467 113.082 26.23 113.002 26.23C112.922 26.23 112.856 26.2533 112.802 26.3C112.749 26.34 112.709 26.41 112.682 26.51C112.656 26.6033 112.642 26.7367 112.642 26.91V29.31C112.642 29.57 112.672 29.7467 112.732 29.84C112.799 29.9333 112.892 29.98 113.012 29.98C113.099 29.98 113.169 29.9633 113.222 29.93C113.276 29.89 113.316 29.83 113.342 29.75C113.369 29.6633 113.382 29.55 113.382 29.41V28.64H114.952V29.34C114.952 29.7267 114.872 30.0533 114.712 30.32C114.559 30.58 114.336 30.7767 114.042 30.91C113.756 31.0367 113.409 31.1 113.002 31.1ZM115.8 31V25.22H117.85C118.43 25.22 118.867 25.2833 119.16 25.41C119.453 25.53 119.65 25.6967 119.75 25.91C119.85 26.1233 119.9 26.3733 119.9 26.66C119.9 27.04 119.817 27.32 119.65 27.5C119.49 27.6733 119.277 27.7967 119.01 27.87C119.29 27.9367 119.503 28.0367 119.65 28.17C119.797 28.3033 119.897 28.4667 119.95 28.66C120.01 28.8533 120.04 29.0767 120.04 29.33C120.04 29.7033 119.97 30.0167 119.83 30.27C119.69 30.5167 119.453 30.7 119.12 30.82C118.787 30.94 118.333 31 117.76 31H115.8ZM117.42 30.1H117.69C117.837 30.1 117.967 30.0867 118.08 30.06C118.193 30.0333 118.283 29.9633 118.35 29.85C118.423 29.73 118.46 29.54 118.46 29.28C118.46 28.9867 118.427 28.7767 118.36 28.65C118.3 28.5233 118.213 28.4467 118.1 28.42C117.987 28.3933 117.853 28.38 117.7 28.38H117.42V30.1ZM117.42 27.5H117.83C118.023 27.5 118.157 27.44 118.23 27.32C118.303 27.1933 118.34 27.02 118.34 26.8C118.34 26.5867 118.3 26.41 118.22 26.27C118.147 26.13 117.977 26.06 117.71 26.06H117.42V27.5ZM122.749 31.1C122.336 31.1 121.976 31.03 121.669 30.89C121.369 30.75 121.136 30.54 120.969 30.26C120.809 29.98 120.729 29.63 120.729 29.21V27.01C120.729 26.59 120.809 26.24 120.969 25.96C121.136 25.68 121.369 25.47 121.669 25.33C121.976 25.19 122.336 25.12 122.749 25.12C123.162 25.12 123.519 25.19 123.819 25.33C124.126 25.47 124.362 25.68 124.529 25.96C124.696 26.24 124.779 26.59 124.779 27.01V29.21C124.779 29.63 124.696 29.98 124.529 30.26C124.362 30.54 124.126 30.75 123.819 30.89C123.519 31.03 123.162 31.1 122.749 31.1ZM122.759 30.02C122.866 30.02 122.949 29.9933 123.009 29.94C123.069 29.88 123.109 29.8 123.129 29.7C123.156 29.5933 123.169 29.4667 123.169 29.32V26.9C123.169 26.7533 123.156 26.63 123.129 26.53C123.109 26.4233 123.069 26.3433 123.009 26.29C122.949 26.23 122.866 26.2 122.759 26.2C122.652 26.2 122.569 26.23 122.509 26.29C122.449 26.3433 122.406 26.4233 122.379 26.53C122.352 26.63 122.339 26.7533 122.339 26.9V29.32C122.339 29.4667 122.352 29.5933 122.379 29.7C122.406 29.8 122.449 29.88 122.509 29.94C122.569 29.9933 122.652 30.02 122.759 30.02ZM125.683 31V25.22H126.973V28.31L128.483 25.22H129.753V31H128.433V27.94L126.963 31H125.683ZM130.361 31L131.591 27.83L130.421 25.22H132.061L132.681 26.61L133.231 25.22H134.481L133.341 28.07L134.651 31H132.991L132.291 29.41L131.711 31H130.361ZM55.5463 46.1C55.1263 46.1 54.7663 46.0233 54.4663 45.87C54.1729 45.7167 53.9463 45.4967 53.7863 45.21C53.6263 44.9233 53.5463 44.5767 53.5463 44.17V42.05C53.5463 41.6367 53.6263 41.2867 53.7863 41C53.9463 40.7133 54.1729 40.4967 54.4663 40.35C54.7663 40.1967 55.1263 40.12 55.5463 40.12C55.9596 40.12 56.3096 40.1833 56.5963 40.31C56.8896 40.4367 57.1129 40.63 57.2663 40.89C57.4196 41.1433 57.4963 41.4667 57.4963 41.86V42.47H55.9263V41.81C55.9263 41.6567 55.9096 41.54 55.8763 41.46C55.8496 41.3733 55.8063 41.3133 55.7463 41.28C55.6929 41.2467 55.6263 41.23 55.5463 41.23C55.4663 41.23 55.3996 41.2533 55.3463 41.3C55.2929 41.34 55.2529 41.41 55.2263 41.51C55.1996 41.6033 55.1863 41.7367 55.1863 41.91V44.31C55.1863 44.57 55.2163 44.7467 55.2763 44.84C55.3429 44.9333 55.4363 44.98 55.5563 44.98C55.6429 44.98 55.7129 44.9633 55.7663 44.93C55.8196 44.89 55.8596 44.83 55.8863 44.75C55.9129 44.6633 55.9263 44.55 55.9263 44.41V43.64H57.4963V44.34C57.4963 44.7267 57.4163 45.0533 57.2563 45.32C57.1029 45.58 56.8796 45.7767 56.5863 45.91C56.2996 46.0367 55.9529 46.1 55.5463 46.1ZM60.244 46.1C59.8307 46.1 59.4707 46.03 59.164 45.89C58.864 45.75 58.6307 45.54 58.464 45.26C58.304 44.98 58.224 44.63 58.224 44.21V42.01C58.224 41.59 58.304 41.24 58.464 40.96C58.6307 40.68 58.864 40.47 59.164 40.33C59.4707 40.19 59.8307 40.12 60.244 40.12C60.6573 40.12 61.014 40.19 61.314 40.33C61.6207 40.47 61.8573 40.68 62.024 40.96C62.1907 41.24 62.274 41.59 62.274 42.01V44.21C62.274 44.63 62.1907 44.98 62.024 45.26C61.8573 45.54 61.6207 45.75 61.314 45.89C61.014 46.03 60.6573 46.1 60.244 46.1ZM60.254 45.02C60.3607 45.02 60.444 44.9933 60.504 44.94C60.564 44.88 60.604 44.8 60.624 44.7C60.6507 44.5933 60.664 44.4667 60.664 44.32V41.9C60.664 41.7533 60.6507 41.63 60.624 41.53C60.604 41.4233 60.564 41.3433 60.504 41.29C60.444 41.23 60.3607 41.2 60.254 41.2C60.1473 41.2 60.064 41.23 60.004 41.29C59.944 41.3433 59.9007 41.4233 59.874 41.53C59.8473 41.63 59.834 41.7533 59.834 41.9V44.32C59.834 44.4667 59.8473 44.5933 59.874 44.7C59.9007 44.8 59.944 44.88 60.004 44.94C60.064 44.9933 60.1473 45.02 60.254 45.02ZM63.178 46V40.22H67.278V46H65.648V41.33H64.808V46H63.178ZM70.1754 46.1C69.7554 46.1 69.3954 46.0267 69.0954 45.88C68.7954 45.7267 68.5654 45.5067 68.4054 45.22C68.2454 44.9267 68.1654 44.5767 68.1654 44.17V42.05C68.1654 41.6367 68.2454 41.2867 68.4054 41C68.5654 40.7133 68.7954 40.4967 69.0954 40.35C69.4021 40.1967 69.7621 40.12 70.1754 40.12C70.6021 40.12 70.9554 40.1933 71.2354 40.34C71.5221 40.4867 71.7354 40.7033 71.8754 40.99C72.0221 41.2767 72.0954 41.63 72.0954 42.05V43.21H69.7754V44.32C69.7754 44.4667 69.7921 44.5867 69.8254 44.68C69.8587 44.7733 69.9054 44.84 69.9654 44.88C70.0254 44.92 70.0954 44.94 70.1754 44.94C70.2554 44.94 70.3254 44.9233 70.3854 44.89C70.4521 44.85 70.5021 44.79 70.5354 44.71C70.5754 44.63 70.5954 44.52 70.5954 44.38V43.77H72.0954V44.33C72.0954 44.9167 71.9254 45.36 71.5854 45.66C71.2454 45.9533 70.7754 46.1 70.1754 46.1ZM69.7754 42.45H70.5954V41.87C70.5954 41.7167 70.5754 41.5967 70.5354 41.51C70.5021 41.4233 70.4521 41.3633 70.3854 41.33C70.3254 41.2967 70.2521 41.28 70.1654 41.28C70.0854 41.28 70.0154 41.3 69.9554 41.34C69.9021 41.38 69.8587 41.45 69.8254 41.55C69.7921 41.6433 69.7754 41.78 69.7754 41.96V42.45ZM72.9827 47.9V40.22H74.6127V40.64C74.806 40.4667 75.0127 40.3367 75.2327 40.25C75.4527 40.1633 75.6627 40.12 75.8627 40.12C76.0827 40.12 76.2693 40.1633 76.4227 40.25C76.5827 40.3367 76.7127 40.46 76.8127 40.62C76.9127 40.7733 76.986 40.9533 77.0327 41.16C77.0793 41.3667 77.1027 41.5867 77.1027 41.82V44.31C77.1027 44.67 77.0527 44.9833 76.9527 45.25C76.8593 45.5167 76.7193 45.7267 76.5327 45.88C76.346 46.0267 76.116 46.1 75.8427 46.1C75.636 46.1 75.426 46.0533 75.2127 45.96C75.006 45.86 74.806 45.7267 74.6127 45.56V47.9H72.9827ZM75.0427 45.05C75.1493 45.05 75.2327 45.02 75.2927 44.96C75.3527 44.9 75.396 44.8233 75.4227 44.73C75.456 44.63 75.4727 44.52 75.4727 44.4V41.7C75.4727 41.5867 75.4593 41.4867 75.4327 41.4C75.406 41.3067 75.3627 41.2333 75.3027 41.18C75.2427 41.1267 75.166 41.1 75.0727 41.1C74.986 41.1 74.9027 41.12 74.8227 41.16C74.7493 41.1933 74.6793 41.24 74.6127 41.3V44.9C74.686 44.9467 74.756 44.9833 74.8227 45.01C74.896 45.0367 74.9693 45.05 75.0427 45.05ZM78.0315 46V40.22H79.6615V42.46H80.6315V40.22H82.2715V46H80.6315V43.58H79.6615V46H78.0315ZM83.2854 46V40.22H84.5754V43.31L86.0854 40.22H87.3554V46H86.0354V42.94L84.5654 46H83.2854ZM88.3635 46V40.22H89.9935V42.5H90.2335L91.1135 40.22H92.8635L91.7235 42.95L92.8935 46H91.1735L90.2335 43.44H89.9935V46H88.3635ZM95.3709 46.1C94.9576 46.1 94.5976 46.03 94.2909 45.89C93.9909 45.75 93.7576 45.54 93.5909 45.26C93.4309 44.98 93.3509 44.63 93.3509 44.21V42.01C93.3509 41.59 93.4309 41.24 93.5909 40.96C93.7576 40.68 93.9909 40.47 94.2909 40.33C94.5976 40.19 94.9576 40.12 95.3709 40.12C95.7843 40.12 96.1409 40.19 96.4409 40.33C96.7476 40.47 96.9843 40.68 97.1509 40.96C97.3176 41.24 97.4009 41.59 97.4009 42.01V44.21C97.4009 44.63 97.3176 44.98 97.1509 45.26C96.9843 45.54 96.7476 45.75 96.4409 45.89C96.1409 46.03 95.7843 46.1 95.3709 46.1ZM95.3809 45.02C95.4876 45.02 95.5709 44.9933 95.6309 44.94C95.6909 44.88 95.7309 44.8 95.7509 44.7C95.7776 44.5933 95.7909 44.4667 95.7909 44.32V41.9C95.7909 41.7533 95.7776 41.63 95.7509 41.53C95.7309 41.4233 95.6909 41.3433 95.6309 41.29C95.5709 41.23 95.4876 41.2 95.3809 41.2C95.2743 41.2 95.1909 41.23 95.1309 41.29C95.0709 41.3433 95.0276 41.4233 95.0009 41.53C94.9743 41.63 94.9609 41.7533 94.9609 41.9V44.32C94.9609 44.4667 94.9743 44.5933 95.0009 44.7C95.0276 44.8 95.0709 44.88 95.1309 44.94C95.1909 44.9933 95.2743 45.02 95.3809 45.02ZM98.3049 46V40.22H100.355C100.935 40.22 101.372 40.2833 101.665 40.41C101.958 40.53 102.155 40.6967 102.255 40.91C102.355 41.1233 102.405 41.3733 102.405 41.66C102.405 42.04 102.322 42.32 102.155 42.5C101.995 42.6733 101.782 42.7967 101.515 42.87C101.795 42.9367 102.008 43.0367 102.155 43.17C102.302 43.3033 102.402 43.4667 102.455 43.66C102.515 43.8533 102.545 44.0767 102.545 44.33C102.545 44.7033 102.475 45.0167 102.335 45.27C102.195 45.5167 101.958 45.7 101.625 45.82C101.292 45.94 100.838 46 100.265 46H98.3049ZM99.9249 45.1H100.195C100.342 45.1 100.472 45.0867 100.585 45.06C100.698 45.0333 100.788 44.9633 100.855 44.85C100.928 44.73 100.965 44.54 100.965 44.28C100.965 43.9867 100.932 43.7767 100.865 43.65C100.805 43.5233 100.718 43.4467 100.605 43.42C100.492 43.3933 100.358 43.38 100.205 43.38H99.9249V45.1ZM99.9249 42.5H100.335C100.528 42.5 100.662 42.44 100.735 42.32C100.808 42.1933 100.845 42.02 100.845 41.8C100.845 41.5867 100.805 41.41 100.725 41.27C100.652 41.13 100.482 41.06 100.215 41.06H99.9249V42.5Z"></path>
</svg>
