<svg xmlns="http://www.w3.org/2000/svg" fill="none" viewBox="0 0 7 19" height="19" width="7">
<path fill-opacity="0.01" fill="white" d="M0 0H7V19H0V0Z"></path>
<path fill="#45D2FF" d="M3.25981 14.144C2.58781 14.144 2.05581 14.004 1.66381 13.724C1.27981 13.444 1.00381 13.052 0.835813 12.548C0.675813 12.036 0.595813 11.448 0.595813 10.784V7.52C0.595813 6.832 0.683813 6.236 0.859813 5.732C1.03581 5.228 1.33581 4.84 1.75981 4.568C2.19181 4.288 2.77581 4.148 3.51181 4.148C4.23181 4.148 4.79581 4.268 5.20381 4.508C5.61981 4.748 5.91581 5.08 6.09181 5.504C6.26781 5.928 6.35581 6.424 6.35581 6.992V7.616H4.25581V6.824C4.25581 6.616 4.23981 6.424 4.20781 6.248C4.18381 6.072 4.11981 5.932 4.01581 5.828C3.91981 5.716 3.75981 5.66 3.53581 5.66C3.30381 5.66 3.13581 5.724 3.03181 5.852C2.92781 5.972 2.85981 6.124 2.82781 6.308C2.80381 6.492 2.79181 6.684 2.79181 6.884V11.384C2.79181 11.6 2.81181 11.804 2.85181 11.996C2.89981 12.18 2.97981 12.332 3.09181 12.452C3.21181 12.564 3.37981 12.62 3.59581 12.62C3.81981 12.62 3.99181 12.56 4.11181 12.44C4.23181 12.32 4.31581 12.164 4.36381 11.972C4.41181 11.78 4.43581 11.576 4.43581 11.36V10.22H3.55981V8.96H6.36781V14H4.95181L4.83181 13.196C4.70381 13.468 4.51581 13.696 4.26781 13.88C4.01981 14.056 3.68381 14.144 3.25981 14.144Z"></path>
</svg>
