<svg xmlns="http://www.w3.org/2000/svg" fill="none" viewBox="0 0 7 19" height="19" width="7">
<path fill-opacity="0.01" fill="white" d="M0 0.000205351L7 -1.675e-05V19L0 19.0002V0.000205351Z"></path>
<path fill="#45D2FF" d="M3.44483 14.1199C2.73283 14.1199 2.17283 13.9999 1.76483 13.7599C1.35683 13.5199 1.06883 13.1879 0.900828 12.7639C0.732828 12.3399 0.648828 11.8559 0.648828 11.3119V10.7959H2.74883V11.4319C2.74883 11.6239 2.75683 11.8119 2.77283 11.9959C2.79683 12.1719 2.85683 12.3159 2.95283 12.4279C3.05683 12.5399 3.22083 12.5959 3.44483 12.5959C3.66883 12.5959 3.83283 12.5399 3.93683 12.4279C4.04083 12.3079 4.10483 12.1559 4.12883 11.9719C4.16083 11.7799 4.17683 11.5839 4.17683 11.3839V9.67988H2.56883V8.59988H4.17683V6.82388C4.17683 6.59988 4.15683 6.39988 4.11683 6.22388C4.08483 6.03988 4.01683 5.89588 3.91283 5.79188C3.80883 5.68788 3.65283 5.63588 3.44483 5.63588C3.22083 5.63588 3.06083 5.69588 2.96483 5.81588C2.86883 5.92788 2.80883 6.07588 2.78483 6.25988C2.76083 6.43588 2.74883 6.62388 2.74883 6.82388V7.49588H0.648828V7.01588C0.648828 6.46388 0.728828 5.96788 0.888828 5.52788C1.05683 5.08788 1.34483 4.74388 1.75283 4.49588C2.16083 4.23988 2.72483 4.11188 3.44483 4.11188C4.18883 4.11188 4.77283 4.24788 5.19683 4.51988C5.62083 4.78388 5.92083 5.15988 6.09683 5.64788C6.27283 6.12788 6.36083 6.69988 6.36083 7.36388V10.8559C6.36083 11.5279 6.27283 12.1079 6.09683 12.5959C5.92083 13.0839 5.62083 13.4599 5.19683 13.7239C4.77283 13.9879 4.18883 14.1199 3.44483 14.1199Z"></path>
</svg>
