<svg xmlns="http://www.w3.org/2000/svg" fill="none" viewBox="0 0 7 19" height="19" width="7">
<path fill-opacity="0.01" fill="white" d="M0.5 0H7V19H0.5V0Z"></path>
<path fill="#45D2FF" d="M0.933734 14V4.28H5.75773V5.912H3.08173V8.384H3.53773C4.15373 8.384 4.67373 8.484 5.09773 8.684C5.52973 8.884 5.85773 9.192 6.08173 9.608C6.30573 10.016 6.41773 10.544 6.41773 11.192C6.41773 11.784 6.33773 12.264 6.17773 12.632C6.02573 13 5.80973 13.284 5.52973 13.484C5.24973 13.684 4.92173 13.82 4.54573 13.892C4.17773 13.964 3.77773 14 3.34573 14H0.933734ZM3.08173 12.596H3.35773C3.62973 12.596 3.84573 12.544 4.00573 12.44C4.16573 12.336 4.27773 12.176 4.34173 11.96C4.40573 11.744 4.43373 11.472 4.42573 11.144C4.41773 10.784 4.34173 10.484 4.19773 10.244C4.05373 9.996 3.76573 9.872 3.33373 9.872H3.08173V12.596Z"></path>
</svg>
