<svg xmlns="http://www.w3.org/2000/svg" fill="none" viewBox="0 0 67 52" height="52" width="67">
<rect stroke="#0D0E12" fill="white" height="51" width="66" y="0.5" x="0.5"></rect>
<path fill="#0D0E12" d="M15.0651 33L15.2051 24.9H17.1251L18.0151 29.61L18.9751 24.9H20.8251L20.9651 33H19.6951L19.5451 27.61L18.6051 33H17.4751L16.4751 27.57L16.3551 33H15.0651ZM23.9461 33.1C23.5328 33.1 23.1728 33.03 22.8661 32.89C22.5661 32.75 22.3328 32.54 22.1661 32.26C22.0061 31.98 21.9261 31.63 21.9261 31.21V29.01C21.9261 28.59 22.0061 28.24 22.1661 27.96C22.3328 27.68 22.5661 27.47 22.8661 27.33C23.1728 27.19 23.5328 27.12 23.9461 27.12C24.3595 27.12 24.7161 27.19 25.0161 27.33C25.3228 27.47 25.5595 27.68 25.7261 27.96C25.8928 28.24 25.9761 28.59 25.9761 29.01V31.21C25.9761 31.63 25.8928 31.98 25.7261 32.26C25.5595 32.54 25.3228 32.75 25.0161 32.89C24.7161 33.03 24.3595 33.1 23.9461 33.1ZM23.9561 32.02C24.0628 32.02 24.1461 31.9933 24.2061 31.94C24.2661 31.88 24.3061 31.8 24.3261 31.7C24.3528 31.5933 24.3661 31.4667 24.3661 31.32V28.9C24.3661 28.7533 24.3528 28.63 24.3261 28.53C24.3061 28.4233 24.2661 28.3433 24.2061 28.29C24.1461 28.23 24.0628 28.2 23.9561 28.2C23.8495 28.2 23.7661 28.23 23.7061 28.29C23.6461 28.3433 23.6028 28.4233 23.5761 28.53C23.5495 28.63 23.5361 28.7533 23.5361 28.9V31.32C23.5361 31.4667 23.5495 31.5933 23.5761 31.7C23.6028 31.8 23.6461 31.88 23.7061 31.94C23.7661 31.9933 23.8495 32.02 23.9561 32.02ZM28.6601 33.1C28.1535 33.1 27.7301 32.9867 27.3901 32.76C27.0568 32.5333 26.7835 32.1633 26.5701 31.65L27.6801 31.16C27.7868 31.42 27.9101 31.6267 28.0501 31.78C28.1968 31.9267 28.3568 32 28.5301 32C28.6568 32 28.7501 31.9733 28.8101 31.92C28.8768 31.8667 28.9101 31.7933 28.9101 31.7C28.9101 31.5467 28.8501 31.4067 28.7301 31.28C28.6168 31.1533 28.4101 30.9667 28.1101 30.72L27.6901 30.37C27.3835 30.11 27.1401 29.86 26.9601 29.62C26.7868 29.3733 26.7001 29.07 26.7001 28.71C26.7001 28.3967 26.7801 28.12 26.9401 27.88C27.1068 27.64 27.3268 27.4533 27.6001 27.32C27.8735 27.1867 28.1668 27.12 28.4801 27.12C28.9535 27.12 29.3501 27.25 29.6701 27.51C29.9901 27.77 30.2135 28.1367 30.3401 28.61L29.2901 29.09C29.2501 28.9633 29.1935 28.8367 29.1201 28.71C29.0468 28.5833 28.9568 28.4767 28.8501 28.39C28.7501 28.3033 28.6401 28.26 28.5201 28.26C28.4135 28.26 28.3268 28.29 28.2601 28.35C28.2001 28.41 28.1701 28.49 28.1701 28.59C28.1701 28.7167 28.2401 28.8533 28.3801 29C28.5268 29.1467 28.7268 29.3233 28.9801 29.53L29.3901 29.89C29.5568 30.03 29.7201 30.18 29.8801 30.34C30.0401 30.5 30.1701 30.6767 30.2701 30.87C30.3768 31.0633 30.4301 31.2833 30.4301 31.53C30.4301 31.8633 30.3468 32.15 30.1801 32.39C30.0135 32.6233 29.7935 32.8 29.5201 32.92C29.2535 33.04 28.9668 33.1 28.6601 33.1ZM33.5284 33.12C32.9151 33.12 32.4284 33.01 32.0684 32.79C31.7151 32.5633 31.4651 32.25 31.3184 31.85C31.1717 31.4433 31.0984 30.9667 31.0984 30.42V27.5C31.0984 26.94 31.1717 26.46 31.3184 26.06C31.4651 25.6533 31.7151 25.34 32.0684 25.12C32.4284 24.9 32.9151 24.79 33.5284 24.79C34.1284 24.79 34.5951 24.89 34.9284 25.09C35.2684 25.2833 35.5084 25.5567 35.6484 25.91C35.7884 26.2633 35.8584 26.67 35.8584 27.13V27.83H34.1084V27.02C34.1084 26.86 34.0984 26.7067 34.0784 26.56C34.0651 26.4133 34.0184 26.2933 33.9384 26.2C33.8584 26.1 33.7217 26.05 33.5284 26.05C33.3417 26.05 33.2017 26.1 33.1084 26.2C33.0217 26.3 32.9651 26.4267 32.9384 26.58C32.9184 26.7267 32.9084 26.8833 32.9084 27.05V30.86C32.9084 31.04 32.9217 31.2067 32.9484 31.36C32.9817 31.5067 33.0417 31.6267 33.1284 31.72C33.2217 31.8067 33.3551 31.85 33.5284 31.85C33.7151 31.85 33.8484 31.8033 33.9284 31.71C34.0084 31.61 34.0584 31.4833 34.0784 31.33C34.0984 31.1767 34.1084 31.02 34.1084 30.86V30.01H35.8584V30.71C35.8584 31.17 35.7884 31.5833 35.6484 31.95C35.5151 32.31 35.2784 32.5967 34.9384 32.81C34.6051 33.0167 34.1351 33.12 33.5284 33.12ZM36.7632 33V24.9H38.3832V27.73C38.5965 27.5167 38.8198 27.3633 39.0532 27.27C39.2865 27.17 39.5365 27.12 39.8032 27.12C40.0365 27.12 40.2298 27.18 40.3832 27.3C40.5432 27.4133 40.6632 27.5733 40.7432 27.78C40.8232 27.98 40.8632 28.21 40.8632 28.47V33H39.2432V28.7C39.2432 28.56 39.2198 28.4533 39.1732 28.38C39.1265 28.3067 39.0398 28.27 38.9132 28.27C38.8465 28.27 38.7665 28.29 38.6732 28.33C38.5798 28.3633 38.4832 28.4133 38.3832 28.48V33H36.7632ZM43.7311 33.1C43.3111 33.1 42.9511 33.0267 42.6511 32.88C42.3511 32.7267 42.1211 32.5067 41.9611 32.22C41.8011 31.9267 41.7211 31.5767 41.7211 31.17V29.05C41.7211 28.6367 41.8011 28.2867 41.9611 28C42.1211 27.7133 42.3511 27.4967 42.6511 27.35C42.9577 27.1967 43.3177 27.12 43.7311 27.12C44.1577 27.12 44.5111 27.1933 44.7911 27.34C45.0777 27.4867 45.2911 27.7033 45.4311 27.99C45.5777 28.2767 45.6511 28.63 45.6511 29.05V30.21H43.3311V31.32C43.3311 31.4667 43.3477 31.5867 43.3811 31.68C43.4144 31.7733 43.4611 31.84 43.5211 31.88C43.5811 31.92 43.6511 31.94 43.7311 31.94C43.8111 31.94 43.8811 31.9233 43.9411 31.89C44.0077 31.85 44.0577 31.79 44.0911 31.71C44.1311 31.63 44.1511 31.52 44.1511 31.38V30.77H45.6511V31.33C45.6511 31.9167 45.4811 32.36 45.1411 32.66C44.8011 32.9533 44.3311 33.1 43.7311 33.1ZM43.3311 29.45H44.1511V28.87C44.1511 28.7167 44.1311 28.5967 44.0911 28.51C44.0577 28.4233 44.0077 28.3633 43.9411 28.33C43.8811 28.2967 43.8077 28.28 43.7211 28.28C43.6411 28.28 43.5711 28.3 43.5111 28.34C43.4577 28.38 43.4144 28.45 43.3811 28.55C43.3477 28.6433 43.3311 28.78 43.3311 28.96V29.45ZM48.3183 33.1C47.8117 33.1 47.3883 32.9867 47.0483 32.76C46.715 32.5333 46.4417 32.1633 46.2283 31.65L47.3383 31.16C47.445 31.42 47.5683 31.6267 47.7083 31.78C47.855 31.9267 48.015 32 48.1883 32C48.315 32 48.4083 31.9733 48.4683 31.92C48.535 31.8667 48.5683 31.7933 48.5683 31.7C48.5683 31.5467 48.5083 31.4067 48.3883 31.28C48.275 31.1533 48.0683 30.9667 47.7683 30.72L47.3483 30.37C47.0417 30.11 46.7983 29.86 46.6183 29.62C46.445 29.3733 46.3583 29.07 46.3583 28.71C46.3583 28.3967 46.4383 28.12 46.5983 27.88C46.765 27.64 46.985 27.4533 47.2583 27.32C47.5317 27.1867 47.825 27.12 48.1383 27.12C48.6117 27.12 49.0083 27.25 49.3283 27.51C49.6483 27.77 49.8717 28.1367 49.9983 28.61L48.9483 29.09C48.9083 28.9633 48.8517 28.8367 48.7783 28.71C48.705 28.5833 48.615 28.4767 48.5083 28.39C48.4083 28.3033 48.2983 28.26 48.1783 28.26C48.0717 28.26 47.985 28.29 47.9183 28.35C47.8583 28.41 47.8283 28.49 47.8283 28.59C47.8283 28.7167 47.8983 28.8533 48.0383 29C48.185 29.1467 48.385 29.3233 48.6383 29.53L49.0483 29.89C49.215 30.03 49.3783 30.18 49.5383 30.34C49.6983 30.5 49.8283 30.6767 49.9283 30.87C50.035 31.0633 50.0883 31.2833 50.0883 31.53C50.0883 31.8633 50.005 32.15 49.8383 32.39C49.6717 32.6233 49.4517 32.8 49.1783 32.92C48.9117 33.04 48.625 33.1 48.3183 33.1ZM52.5566 33.1C52.0499 33.1 51.6266 32.9867 51.2866 32.76C50.9533 32.5333 50.6799 32.1633 50.4666 31.65L51.5766 31.16C51.6833 31.42 51.8066 31.6267 51.9466 31.78C52.0933 31.9267 52.2533 32 52.4266 32C52.5533 32 52.6466 31.9733 52.7066 31.92C52.7733 31.8667 52.8066 31.7933 52.8066 31.7C52.8066 31.5467 52.7466 31.4067 52.6266 31.28C52.5133 31.1533 52.3066 30.9667 52.0066 30.72L51.5866 30.37C51.2799 30.11 51.0366 29.86 50.8566 29.62C50.6833 29.3733 50.5966 29.07 50.5966 28.71C50.5966 28.3967 50.6766 28.12 50.8366 27.88C51.0033 27.64 51.2233 27.4533 51.4966 27.32C51.7699 27.1867 52.0633 27.12 52.3766 27.12C52.8499 27.12 53.2466 27.25 53.5666 27.51C53.8866 27.77 54.1099 28.1367 54.2366 28.61L53.1866 29.09C53.1466 28.9633 53.0899 28.8367 53.0166 28.71C52.9433 28.5833 52.8533 28.4767 52.7466 28.39C52.6466 28.3033 52.5366 28.26 52.4166 28.26C52.3099 28.26 52.2233 28.29 52.1566 28.35C52.0966 28.41 52.0666 28.49 52.0666 28.59C52.0666 28.7167 52.1366 28.8533 52.2766 29C52.4233 29.1467 52.6233 29.3233 52.8766 29.53L53.2866 29.89C53.4533 30.03 53.6166 30.18 53.7766 30.34C53.9366 30.5 54.0666 30.6767 54.1666 30.87C54.2733 31.0633 54.3266 31.2833 54.3266 31.53C54.3266 31.8633 54.2433 32.15 54.0766 32.39C53.9099 32.6233 53.6899 32.8 53.4166 32.92C53.1499 33.04 52.8633 33.1 52.5566 33.1Z"></path>
<path fill="#0D0E12" d="M24.5246 44V38.22H26.1546V38.8C26.368 38.5867 26.588 38.42 26.8146 38.3C27.048 38.18 27.2913 38.12 27.5446 38.12C27.7846 38.12 27.9813 38.18 28.1346 38.3C28.2946 38.4133 28.4146 38.5733 28.4946 38.78C28.5746 38.98 28.6146 39.21 28.6146 39.47V44H26.9946V39.7C26.9946 39.56 26.9713 39.4533 26.9246 39.38C26.878 39.3067 26.7913 39.27 26.6646 39.27C26.598 39.27 26.518 39.29 26.4246 39.33C26.338 39.3633 26.248 39.4133 26.1546 39.48V44H24.5246ZM31.483 44.1C31.063 44.1 30.703 44.0267 30.403 43.88C30.103 43.7267 29.873 43.5067 29.713 43.22C29.553 42.9267 29.473 42.5767 29.473 42.17V40.05C29.473 39.6367 29.553 39.2867 29.713 39C29.873 38.7133 30.103 38.4967 30.403 38.35C30.7097 38.1967 31.0697 38.12 31.483 38.12C31.9097 38.12 32.263 38.1933 32.543 38.34C32.8297 38.4867 33.043 38.7033 33.183 38.99C33.3297 39.2767 33.403 39.63 33.403 40.05V41.21H31.083V42.32C31.083 42.4667 31.0997 42.5867 31.133 42.68C31.1663 42.7733 31.213 42.84 31.273 42.88C31.333 42.92 31.403 42.94 31.483 42.94C31.563 42.94 31.633 42.9233 31.693 42.89C31.7597 42.85 31.8097 42.79 31.843 42.71C31.883 42.63 31.903 42.52 31.903 42.38V41.77H33.403V42.33C33.403 42.9167 33.233 43.36 32.893 43.66C32.553 43.9533 32.083 44.1 31.483 44.1ZM31.083 40.45H31.903V39.87C31.903 39.7167 31.883 39.5967 31.843 39.51C31.8097 39.4233 31.7597 39.3633 31.693 39.33C31.633 39.2967 31.5597 39.28 31.473 39.28C31.393 39.28 31.323 39.3 31.263 39.34C31.2097 39.38 31.1663 39.45 31.133 39.55C31.0997 39.6433 31.083 39.78 31.083 39.96V40.45ZM34.8403 44L33.9903 38.22H35.3503L35.7703 41.5L36.2203 38.22H37.4003L37.7903 41.58L38.2803 38.22H39.5403L38.6803 44H37.2803L36.7803 40.75L36.2203 44H34.8403ZM42.0371 44.1C41.5304 44.1 41.1071 43.9867 40.7671 43.76C40.4337 43.5333 40.1604 43.1633 39.9471 42.65L41.0571 42.16C41.1637 42.42 41.2871 42.6267 41.4271 42.78C41.5737 42.9267 41.7337 43 41.9071 43C42.0337 43 42.1271 42.9733 42.1871 42.92C42.2537 42.8667 42.2871 42.7933 42.2871 42.7C42.2871 42.5467 42.2271 42.4067 42.1071 42.28C41.9937 42.1533 41.7871 41.9667 41.4871 41.72L41.0671 41.37C40.7604 41.11 40.5171 40.86 40.3371 40.62C40.1637 40.3733 40.0771 40.07 40.0771 39.71C40.0771 39.3967 40.1571 39.12 40.3171 38.88C40.4837 38.64 40.7037 38.4533 40.9771 38.32C41.2504 38.1867 41.5437 38.12 41.8571 38.12C42.3304 38.12 42.7271 38.25 43.0471 38.51C43.3671 38.77 43.5904 39.1367 43.7171 39.61L42.6671 40.09C42.6271 39.9633 42.5704 39.8367 42.4971 39.71C42.4237 39.5833 42.3337 39.4767 42.2271 39.39C42.1271 39.3033 42.0171 39.26 41.8971 39.26C41.7904 39.26 41.7037 39.29 41.6371 39.35C41.5771 39.41 41.5471 39.49 41.5471 39.59C41.5471 39.7167 41.6171 39.8533 41.7571 40C41.9037 40.1467 42.1037 40.3233 42.3571 40.53L42.7671 40.89C42.9337 41.03 43.0971 41.18 43.2571 41.34C43.4171 41.5 43.5471 41.6767 43.6471 41.87C43.7537 42.0633 43.8071 42.2833 43.8071 42.53C43.8071 42.8633 43.7237 43.15 43.5571 43.39C43.3904 43.6233 43.1704 43.8 42.8971 43.92C42.6304 44.04 42.3437 44.1 42.0371 44.1Z"></path>
<rect stroke="black" fill="white" height="15" width="15" y="5.5" x="26.5"></rect>
<rect fill="#0D0E12" height="6" width="6" y="7" x="28"></rect>
<rect fill="#0D0E12" height="2" width="5" y="7" x="35"></rect>
<rect fill="#0D0E12" height="1" width="5" y="10" x="35"></rect>
<rect fill="#0D0E12" height="1" width="5" y="12" x="35"></rect>
<rect fill="#0D0E12" height="1" width="12" y="14" x="28"></rect>
<rect fill="#0D0E12" height="1" width="12" y="16" x="28"></rect>
<rect fill="#0D0E12" height="1" width="12" y="18" x="28"></rect>
</svg>
