<svg xmlns="http://www.w3.org/2000/svg" fill="none" viewBox="0 0 7 19" height="19" width="7">
<path fill-opacity="0.01" fill="white" d="M0.5 0H6.5V19H0.5V0Z"></path>
<path fill="#45D2FF" d="M3.50117 14.18C2.91717 14.18 2.42917 14.064 2.03717 13.832C1.64517 13.592 1.34917 13.264 1.14917 12.848C0.949172 12.432 0.849172 11.948 0.849172 11.396V6.992C0.849172 6.424 0.941172 5.928 1.12517 5.504C1.31717 5.072 1.60917 4.736 2.00117 4.496C2.39317 4.256 2.89317 4.136 3.50117 4.136C4.10917 4.136 4.60517 4.256 4.98917 4.496C5.38117 4.736 5.66917 5.072 5.85317 5.504C6.04517 5.928 6.14117 6.424 6.14117 6.992V11.396C6.14117 11.94 6.04117 12.424 5.84117 12.848C5.64117 13.264 5.34517 13.592 4.95317 13.832C4.56117 14.064 4.07717 14.18 3.50117 14.18ZM3.50117 12.392C3.69317 12.392 3.82917 12.332 3.90917 12.212C3.99717 12.084 4.04917 11.94 4.06517 11.78C4.08917 11.612 4.10117 11.468 4.10117 11.348V7.04C4.10117 6.904 4.09317 6.752 4.07717 6.584C4.06117 6.408 4.00917 6.256 3.92117 6.128C3.84117 5.992 3.70117 5.924 3.50117 5.924C3.30117 5.924 3.15717 5.992 3.06917 6.128C2.98917 6.256 2.94117 6.408 2.92517 6.584C2.90917 6.752 2.90117 6.904 2.90117 7.04V11.348C2.90117 11.468 2.91317 11.612 2.93717 11.78C2.96117 11.94 3.01317 12.084 3.09317 12.212C3.18117 12.332 3.31717 12.392 3.50117 12.392Z"></path>
</svg>
