<svg xmlns="http://www.w3.org/2000/svg" fill="none" viewBox="0 0 214 84" height="84" width="214">
<mask fill="white" id="path-1-inside-1_1521_10">
<path d="M0 0H214V84H0V0Z"></path>
</mask>
<path fill="#0D0E12" d="M0 0H214V84H0V0Z"></path>
<path mask="url(#path-1-inside-1_1521_10)" fill="white" d="M0 0V-1H-1V0H0ZM0 84H-1V85H0V84ZM0 1H214V-1H0V1ZM214 83H0V85H214V83ZM1 84V0H-1V84H1Z"></path>
<path fill="#FF0000" d="M16.72 38V28.28H21.088V29.744H18.868V32.156H20.56V33.644H18.868V36.548H21.112V38H16.72ZM22.0872 38V28.28H24.7632C25.4192 28.28 25.9872 28.352 26.4672 28.496C26.9472 28.64 27.3192 28.9 27.5832 29.276C27.8552 29.644 27.9912 30.168 27.9912 30.848C27.9912 31.248 27.9592 31.604 27.8952 31.916C27.8312 32.228 27.7112 32.5 27.5352 32.732C27.3672 32.956 27.1232 33.144 26.8032 33.296L28.1352 38H25.9152L24.8472 33.644H24.2352V38H22.0872ZM24.2352 32.408H24.8352C25.1392 32.408 25.3752 32.356 25.5432 32.252C25.7112 32.14 25.8272 31.984 25.8912 31.784C25.9632 31.576 25.9992 31.328 25.9992 31.04C25.9992 30.624 25.9232 30.3 25.7712 30.068C25.6192 29.836 25.3392 29.72 24.9312 29.72H24.2352V32.408ZM29.2825 38V28.28H31.9585C32.6145 28.28 33.1825 28.352 33.6625 28.496C34.1425 28.64 34.5145 28.9 34.7785 29.276C35.0505 29.644 35.1865 30.168 35.1865 30.848C35.1865 31.248 35.1545 31.604 35.0905 31.916C35.0265 32.228 34.9065 32.5 34.7305 32.732C34.5625 32.956 34.3185 33.144 33.9985 33.296L35.3305 38H33.1105L32.0425 33.644H31.4305V38H29.2825ZM31.4305 32.408H32.0305C32.3345 32.408 32.5705 32.356 32.7385 32.252C32.9065 32.14 33.0225 31.984 33.0865 31.784C33.1585 31.576 33.1945 31.328 33.1945 31.04C33.1945 30.624 33.1185 30.3 32.9665 30.068C32.8145 29.836 32.5345 29.72 32.1265 29.72H31.4305V32.408ZM39.1681 38.144C38.4401 38.144 37.8641 38.016 37.4401 37.76C37.0161 37.504 36.7121 37.136 36.5281 36.656C36.3441 36.176 36.2521 35.604 36.2521 34.94V31.328C36.2521 30.656 36.3441 30.084 36.5281 29.612C36.7121 29.14 37.0161 28.78 37.4401 28.532C37.8641 28.276 38.4401 28.148 39.1681 28.148C39.9041 28.148 40.4841 28.276 40.9081 28.532C41.3401 28.78 41.6481 29.14 41.8321 29.612C42.0161 30.084 42.1081 30.656 42.1081 31.328V34.94C42.1081 35.604 42.0161 36.176 41.8321 36.656C41.6481 37.136 41.3401 37.504 40.9081 37.76C40.4841 38.016 39.9041 38.144 39.1681 38.144ZM39.1681 36.62C39.3921 36.62 39.5561 36.564 39.6601 36.452C39.7641 36.34 39.8321 36.196 39.8641 36.02C39.8961 35.844 39.9121 35.664 39.9121 35.48V30.8C39.9121 30.608 39.8961 30.428 39.8641 30.26C39.8321 30.084 39.7641 29.94 39.6601 29.828C39.5561 29.716 39.3921 29.66 39.1681 29.66C38.9601 29.66 38.8041 29.716 38.7001 29.828C38.5961 29.94 38.5281 30.084 38.4961 30.26C38.4641 30.428 38.4481 30.608 38.4481 30.8V35.48C38.4481 35.664 38.4601 35.844 38.4841 36.02C38.5161 36.196 38.5801 36.34 38.6761 36.452C38.7801 36.564 38.9441 36.62 39.1681 36.62ZM43.4153 38V28.28H46.0913C46.7473 28.28 47.3153 28.352 47.7953 28.496C48.2753 28.64 48.6473 28.9 48.9113 29.276C49.1833 29.644 49.3193 30.168 49.3193 30.848C49.3193 31.248 49.2873 31.604 49.2233 31.916C49.1593 32.228 49.0393 32.5 48.8633 32.732C48.6953 32.956 48.4513 33.144 48.1313 33.296L49.4633 38H47.2433L46.1753 33.644H45.5633V38H43.4153ZM45.5633 32.408H46.1633C46.4673 32.408 46.7033 32.356 46.8713 32.252C47.0393 32.14 47.1553 31.984 47.2193 31.784C47.2913 31.576 47.3273 31.328 47.3273 31.04C47.3273 30.624 47.2513 30.3 47.0993 30.068C46.9473 29.836 46.6673 29.72 46.2593 29.72H45.5633V32.408Z"></path>
<path fill="white" d="M17.52 56V48.74H16.15V47.9H19.98V48.74H18.65V56H17.52ZM20.7009 56V47.9H21.7709V50.82C21.9642 50.6333 22.1809 50.4733 22.4209 50.34C22.6609 50.2067 22.9275 50.14 23.2209 50.14C23.4475 50.14 23.6209 50.2 23.7409 50.32C23.8675 50.44 23.9542 50.59 24.0009 50.77C24.0542 50.95 24.0809 51.1333 24.0809 51.32V56H23.0109V51.63C23.0109 51.4233 22.9809 51.2633 22.9209 51.15C22.8609 51.0367 22.7375 50.98 22.5509 50.98C22.4242 50.98 22.2909 51.0167 22.1509 51.09C22.0175 51.1633 21.8909 51.2533 21.7709 51.36V56H20.7009ZM26.724 56.08C26.2707 56.08 25.9207 55.9933 25.674 55.82C25.4273 55.64 25.254 55.38 25.154 55.04C25.0607 54.6933 25.014 54.27 25.014 53.77V52.45C25.014 51.9367 25.064 51.51 25.164 51.17C25.264 50.83 25.4373 50.5733 25.684 50.4C25.9373 50.2267 26.284 50.14 26.724 50.14C27.2107 50.14 27.5673 50.24 27.794 50.44C28.0273 50.64 28.1807 50.93 28.254 51.31C28.3273 51.6833 28.364 52.1333 28.364 52.66V53.13H26.084V54.29C26.084 54.5233 26.104 54.7133 26.144 54.86C26.1907 55.0067 26.2607 55.1167 26.354 55.19C26.454 55.2567 26.5807 55.29 26.734 55.29C26.894 55.29 27.014 55.2533 27.094 55.18C27.1807 55.1 27.2373 54.99 27.264 54.85C27.2973 54.7033 27.314 54.5333 27.314 54.34V53.99H28.354V54.21C28.354 54.79 28.2307 55.2467 27.984 55.58C27.7373 55.9133 27.3173 56.08 26.724 56.08ZM26.084 52.55H27.314V52.03C27.314 51.79 27.3007 51.59 27.274 51.43C27.2473 51.2633 27.1907 51.14 27.104 51.06C27.024 50.9733 26.894 50.93 26.714 50.93C26.5407 50.93 26.4073 50.97 26.314 51.05C26.2273 51.13 26.1673 51.2667 26.134 51.46C26.1007 51.6467 26.084 51.9067 26.084 52.24V52.55ZM29.363 56V50.22H30.433V51.04C30.6463 50.6867 30.8596 50.45 31.073 50.33C31.2863 50.21 31.4996 50.15 31.713 50.15C31.7396 50.15 31.763 50.15 31.783 50.15C31.8096 50.15 31.843 50.1533 31.883 50.16V51.34C31.803 51.3067 31.7096 51.28 31.603 51.26C31.503 51.2333 31.3996 51.22 31.293 51.22C31.1263 51.22 30.973 51.26 30.833 51.34C30.6996 51.4133 30.5663 51.56 30.433 51.78V56H29.363ZM34.1459 56.08C33.6925 56.08 33.3425 55.9933 33.0959 55.82C32.8492 55.64 32.6759 55.38 32.5759 55.04C32.4825 54.6933 32.4359 54.27 32.4359 53.77V52.45C32.4359 51.9367 32.4859 51.51 32.5859 51.17C32.6859 50.83 32.8592 50.5733 33.1059 50.4C33.3592 50.2267 33.7059 50.14 34.1459 50.14C34.6325 50.14 34.9892 50.24 35.2159 50.44C35.4492 50.64 35.6025 50.93 35.6759 51.31C35.7492 51.6833 35.7859 52.1333 35.7859 52.66V53.13H33.5059V54.29C33.5059 54.5233 33.5259 54.7133 33.5659 54.86C33.6125 55.0067 33.6825 55.1167 33.7759 55.19C33.8759 55.2567 34.0025 55.29 34.1559 55.29C34.3159 55.29 34.4359 55.2533 34.5159 55.18C34.6025 55.1 34.6592 54.99 34.6859 54.85C34.7192 54.7033 34.7359 54.5333 34.7359 54.34V53.99H35.7759V54.21C35.7759 54.79 35.6525 55.2467 35.4059 55.58C35.1592 55.9133 34.7392 56.08 34.1459 56.08ZM33.5059 52.55H34.7359V52.03C34.7359 51.79 34.7225 51.59 34.6959 51.43C34.6692 51.2633 34.6125 51.14 34.5259 51.06C34.4459 50.9733 34.3159 50.93 34.1359 50.93C33.9625 50.93 33.8292 50.97 33.7359 51.05C33.6492 51.13 33.5892 51.2667 33.5559 51.46C33.5225 51.6467 33.5059 51.9067 33.5059 52.24V52.55ZM39.71 56L38.78 50.22H39.66L40.26 54.48L41.03 50.22H41.85L42.62 54.46L43.22 50.22H44.1L43.14 56H42.24L41.45 51.92L40.67 56H39.71ZM45.9589 56.08C45.7322 56.08 45.5322 56.0167 45.3589 55.89C45.1856 55.7567 45.0489 55.59 44.9489 55.39C44.8489 55.1833 44.7989 54.9667 44.7989 54.74C44.7989 54.38 44.8589 54.0767 44.9789 53.83C45.0989 53.5833 45.2622 53.3767 45.4689 53.21C45.6822 53.0367 45.9256 52.8867 46.1989 52.76C46.4789 52.6333 46.7722 52.51 47.0789 52.39V51.98C47.0789 51.7467 47.0656 51.5533 47.0389 51.4C47.0122 51.2467 46.9556 51.1333 46.8689 51.06C46.7889 50.98 46.6656 50.94 46.4989 50.94C46.3522 50.94 46.2322 50.9733 46.1389 51.04C46.0522 51.1067 45.9889 51.2033 45.9489 51.33C45.9089 51.45 45.8889 51.5933 45.8889 51.76V52.05L44.8289 52.01C44.8422 51.37 44.9889 50.9 45.2689 50.6C45.5489 50.2933 45.9822 50.14 46.5689 50.14C47.1422 50.14 47.5489 50.2967 47.7889 50.61C48.0289 50.9233 48.1489 51.3767 48.1489 51.97V54.61C48.1489 54.79 48.1522 54.9633 48.1589 55.13C48.1722 55.2967 48.1856 55.4533 48.1989 55.6C48.2189 55.74 48.2356 55.8733 48.2489 56H47.2689C47.2489 55.8933 47.2222 55.76 47.1889 55.6C47.1622 55.4333 47.1422 55.2833 47.1289 55.15C47.0622 55.3767 46.9322 55.59 46.7389 55.79C46.5522 55.9833 46.2922 56.08 45.9589 56.08ZM46.3789 55.16C46.4856 55.16 46.5856 55.13 46.6789 55.07C46.7722 55.01 46.8556 54.9433 46.9289 54.87C47.0022 54.79 47.0522 54.7267 47.0789 54.68V53.04C46.9122 53.1333 46.7556 53.2267 46.6089 53.32C46.4622 53.4133 46.3322 53.5133 46.2189 53.62C46.1122 53.72 46.0256 53.8367 45.9589 53.97C45.8989 54.0967 45.8689 54.2433 45.8689 54.41C45.8689 54.6433 45.9122 54.8267 45.9989 54.96C46.0856 55.0933 46.2122 55.16 46.3789 55.16ZM50.5167 56.08C50.0434 56.08 49.6634 55.9333 49.3767 55.64C49.0901 55.34 48.9267 54.9467 48.8867 54.46L49.7767 54.19C49.8301 54.5567 49.9201 54.8333 50.0467 55.02C50.1734 55.2 50.3601 55.29 50.6067 55.29C50.8001 55.29 50.9467 55.2367 51.0467 55.13C51.1467 55.0167 51.1967 54.8667 51.1967 54.68C51.1967 54.5133 51.1601 54.3633 51.0867 54.23C51.0134 54.0967 50.8934 53.96 50.7267 53.82L49.7367 52.97C49.5367 52.7967 49.3667 52.6033 49.2267 52.39C49.0934 52.1767 49.0267 51.9 49.0267 51.56C49.0267 51.2533 49.0867 50.9967 49.2067 50.79C49.3334 50.5767 49.5067 50.4167 49.7267 50.31C49.9534 50.1967 50.2167 50.14 50.5167 50.14C50.9767 50.14 51.3267 50.29 51.5667 50.59C51.8134 50.8833 51.9534 51.24 51.9867 51.66L51.2667 51.93C51.2401 51.73 51.2001 51.5567 51.1467 51.41C51.0934 51.2567 51.0201 51.14 50.9267 51.06C50.8334 50.9733 50.7101 50.93 50.5567 50.93C50.3834 50.93 50.2434 50.99 50.1367 51.11C50.0367 51.2233 49.9867 51.36 49.9867 51.52C49.9867 51.62 50.0067 51.72 50.0467 51.82C50.0934 51.9133 50.1701 52.0067 50.2767 52.1L51.2967 53.04C51.4367 53.1667 51.5667 53.3033 51.6867 53.45C51.8134 53.5967 51.9167 53.7633 51.9967 53.95C52.0767 54.1367 52.1167 54.3533 52.1167 54.6C52.1167 54.9267 52.0501 55.2 51.9167 55.42C51.7834 55.64 51.5967 55.8067 51.3567 55.92C51.1167 56.0267 50.8367 56.08 50.5167 56.08ZM56.2421 56.08C56.0154 56.08 55.8154 56.0167 55.6421 55.89C55.4688 55.7567 55.3321 55.59 55.2321 55.39C55.1321 55.1833 55.0821 54.9667 55.0821 54.74C55.0821 54.38 55.1421 54.0767 55.2621 53.83C55.3821 53.5833 55.5454 53.3767 55.7521 53.21C55.9654 53.0367 56.2088 52.8867 56.4821 52.76C56.7621 52.6333 57.0554 52.51 57.3621 52.39V51.98C57.3621 51.7467 57.3488 51.5533 57.3221 51.4C57.2954 51.2467 57.2388 51.1333 57.1521 51.06C57.0721 50.98 56.9488 50.94 56.7821 50.94C56.6354 50.94 56.5154 50.9733 56.4221 51.04C56.3354 51.1067 56.2721 51.2033 56.2321 51.33C56.1921 51.45 56.1721 51.5933 56.1721 51.76V52.05L55.1121 52.01C55.1254 51.37 55.2721 50.9 55.5521 50.6C55.8321 50.2933 56.2654 50.14 56.8521 50.14C57.4254 50.14 57.8321 50.2967 58.0721 50.61C58.3121 50.9233 58.4321 51.3767 58.4321 51.97V54.61C58.4321 54.79 58.4354 54.9633 58.4421 55.13C58.4554 55.2967 58.4688 55.4533 58.4821 55.6C58.5021 55.74 58.5188 55.8733 58.5321 56H57.5521C57.5321 55.8933 57.5054 55.76 57.4721 55.6C57.4454 55.4333 57.4254 55.2833 57.4121 55.15C57.3454 55.3767 57.2154 55.59 57.0221 55.79C56.8354 55.9833 56.5754 56.08 56.2421 56.08ZM56.6621 55.16C56.7688 55.16 56.8688 55.13 56.9621 55.07C57.0554 55.01 57.1388 54.9433 57.2121 54.87C57.2854 54.79 57.3354 54.7267 57.3621 54.68V53.04C57.1954 53.1333 57.0388 53.2267 56.8921 53.32C56.7454 53.4133 56.6154 53.5133 56.5021 53.62C56.3954 53.72 56.3088 53.8367 56.2421 53.97C56.1821 54.0967 56.1521 54.2433 56.1521 54.41C56.1521 54.6433 56.1954 54.8267 56.2821 54.96C56.3688 55.0933 56.4954 55.16 56.6621 55.16ZM59.4599 56V50.22H60.5299V50.79C60.7233 50.61 60.9366 50.4567 61.1699 50.33C61.4033 50.2033 61.6599 50.14 61.9399 50.14C62.1733 50.14 62.3499 50.2 62.4699 50.32C62.5966 50.44 62.6833 50.59 62.7299 50.77C62.7833 50.95 62.8099 51.1333 62.8099 51.32V56H61.7399V51.63C61.7399 51.4233 61.7099 51.2633 61.6499 51.15C61.5899 51.0367 61.4666 50.98 61.2799 50.98C61.1599 50.98 61.0333 51.0167 60.8999 51.09C60.7733 51.1567 60.6499 51.24 60.5299 51.34V56H59.4599ZM67.7396 56.08C67.2863 56.08 66.9363 55.9933 66.6896 55.82C66.4429 55.64 66.2696 55.38 66.1696 55.04C66.0763 54.6933 66.0296 54.27 66.0296 53.77V52.45C66.0296 51.9367 66.0796 51.51 66.1796 51.17C66.2796 50.83 66.4529 50.5733 66.6996 50.4C66.9529 50.2267 67.2996 50.14 67.7396 50.14C68.2263 50.14 68.5829 50.24 68.8096 50.44C69.0429 50.64 69.1963 50.93 69.2696 51.31C69.3429 51.6833 69.3796 52.1333 69.3796 52.66V53.13H67.0996V54.29C67.0996 54.5233 67.1196 54.7133 67.1596 54.86C67.2063 55.0067 67.2763 55.1167 67.3696 55.19C67.4696 55.2567 67.5963 55.29 67.7496 55.29C67.9096 55.29 68.0296 55.2533 68.1096 55.18C68.1963 55.1 68.2529 54.99 68.2796 54.85C68.3129 54.7033 68.3296 54.5333 68.3296 54.34V53.99H69.3696V54.21C69.3696 54.79 69.2463 55.2467 68.9996 55.58C68.7529 55.9133 68.3329 56.08 67.7396 56.08ZM67.0996 52.55H68.3296V52.03C68.3296 51.79 68.3163 51.59 68.2896 51.43C68.2629 51.2633 68.2063 51.14 68.1196 51.06C68.0396 50.9733 67.9096 50.93 67.7296 50.93C67.5563 50.93 67.4229 50.97 67.3296 51.05C67.2429 51.13 67.1829 51.2667 67.1496 51.46C67.1163 51.6467 67.0996 51.9067 67.0996 52.24V52.55ZM70.3786 56V50.22H71.4486V51.04C71.6619 50.6867 71.8753 50.45 72.0886 50.33C72.3019 50.21 72.5153 50.15 72.7286 50.15C72.7553 50.15 72.7786 50.15 72.7986 50.15C72.8253 50.15 72.8586 50.1533 72.8986 50.16V51.34C72.8186 51.3067 72.7253 51.28 72.6186 51.26C72.5186 51.2333 72.4153 51.22 72.3086 51.22C72.1419 51.22 71.9886 51.26 71.8486 51.34C71.7153 51.4133 71.5819 51.56 71.4486 51.78V56H70.3786ZM73.5915 56V50.22H74.6615V51.04C74.8748 50.6867 75.0882 50.45 75.3015 50.33C75.5148 50.21 75.7282 50.15 75.9415 50.15C75.9682 50.15 75.9915 50.15 76.0115 50.15C76.0382 50.15 76.0715 50.1533 76.1115 50.16V51.34C76.0315 51.3067 75.9382 51.28 75.8315 51.26C75.7315 51.2333 75.6282 51.22 75.5215 51.22C75.3548 51.22 75.2015 51.26 75.0615 51.34C74.9282 51.4133 74.7948 51.56 74.6615 51.78V56H73.5915ZM78.3644 56.08C77.9377 56.08 77.601 55.9933 77.3544 55.82C77.1077 55.6467 76.931 55.4 76.8244 55.08C76.7244 54.76 76.6744 54.3833 76.6744 53.95V52.27C76.6744 51.8367 76.7244 51.46 76.8244 51.14C76.931 50.82 77.1077 50.5733 77.3544 50.4C77.601 50.2267 77.9377 50.14 78.3644 50.14C78.791 50.14 79.1244 50.2267 79.3644 50.4C79.611 50.5733 79.7844 50.82 79.8844 51.14C79.991 51.46 80.0444 51.8367 80.0444 52.27V53.95C80.0444 54.3833 79.991 54.76 79.8844 55.08C79.7844 55.4 79.611 55.6467 79.3644 55.82C79.1244 55.9933 78.791 56.08 78.3644 56.08ZM78.3644 55.29C78.571 55.29 78.7144 55.23 78.7944 55.11C78.881 54.99 78.931 54.8333 78.9444 54.64C78.9644 54.44 78.9744 54.2333 78.9744 54.02V52.21C78.9744 51.99 78.9644 51.7833 78.9444 51.59C78.931 51.3967 78.881 51.24 78.7944 51.12C78.7144 50.9933 78.571 50.93 78.3644 50.93C78.1577 50.93 78.011 50.9933 77.9244 51.12C77.8377 51.24 77.7844 51.3967 77.7644 51.59C77.751 51.7833 77.7444 51.99 77.7444 52.21V54.02C77.7444 54.2333 77.751 54.44 77.7644 54.64C77.7844 54.8333 77.8377 54.99 77.9244 55.11C78.011 55.23 78.1577 55.29 78.3644 55.29ZM81.0524 56V50.22H82.1224V51.04C82.3358 50.6867 82.5491 50.45 82.7624 50.33C82.9758 50.21 83.1891 50.15 83.4024 50.15C83.4291 50.15 83.4524 50.15 83.4724 50.15C83.4991 50.15 83.5324 50.1533 83.5724 50.16V51.34C83.4924 51.3067 83.3991 51.28 83.2924 51.26C83.1924 51.2333 83.0891 51.22 82.9824 51.22C82.8158 51.22 82.6624 51.26 82.5224 51.34C82.3891 51.4133 82.2558 51.56 82.1224 51.78V56H81.0524ZM86.5905 56V50.22H87.6605V56H86.5905ZM86.5905 49.36V48.24H87.6605V49.36H86.5905ZM88.8056 56V50.22H89.8756V50.79C90.069 50.61 90.2823 50.4567 90.5156 50.33C90.749 50.2033 91.0056 50.14 91.2856 50.14C91.519 50.14 91.6956 50.2 91.8156 50.32C91.9423 50.44 92.029 50.59 92.0756 50.77C92.129 50.95 92.1556 51.1333 92.1556 51.32V56H91.0856V51.63C91.0856 51.4233 91.0556 51.2633 90.9956 51.15C90.9356 51.0367 90.8123 50.98 90.6256 50.98C90.5056 50.98 90.379 51.0167 90.2456 51.09C90.119 51.1567 89.9956 51.24 89.8756 51.34V56H88.8056ZM97.0253 56.08C96.7253 56.08 96.482 56.0233 96.2953 55.91C96.1153 55.7967 95.982 55.6367 95.8953 55.43C95.8153 55.2233 95.7753 54.98 95.7753 54.7V50.93H95.1653V50.22H95.7753V48.53H96.8453V50.22H97.7753V50.93H96.8453V54.63C96.8453 54.8567 96.882 55.02 96.9553 55.12C97.0286 55.2133 97.1686 55.26 97.3753 55.26C97.4286 55.26 97.4886 55.2567 97.5553 55.25C97.6286 55.2433 97.6986 55.2367 97.7653 55.23V56.02C97.632 56.04 97.5086 56.0533 97.3953 56.06C97.282 56.0733 97.1586 56.08 97.0253 56.08ZM98.5915 56V47.9H99.6615V50.82C99.8548 50.6333 100.071 50.4733 100.311 50.34C100.551 50.2067 100.818 50.14 101.111 50.14C101.338 50.14 101.511 50.2 101.631 50.32C101.758 50.44 101.845 50.59 101.891 50.77C101.945 50.95 101.971 51.1333 101.971 51.32V56H100.901V51.63C100.901 51.4233 100.871 51.2633 100.811 51.15C100.751 51.0367 100.628 50.98 100.441 50.98C100.315 50.98 100.181 51.0167 100.041 51.09C99.9082 51.1633 99.7815 51.2533 99.6615 51.36V56H98.5915ZM104.615 56.08C104.161 56.08 103.811 55.9933 103.565 55.82C103.318 55.64 103.145 55.38 103.045 55.04C102.951 54.6933 102.905 54.27 102.905 53.77V52.45C102.905 51.9367 102.955 51.51 103.055 51.17C103.155 50.83 103.328 50.5733 103.575 50.4C103.828 50.2267 104.175 50.14 104.615 50.14C105.101 50.14 105.458 50.24 105.685 50.44C105.918 50.64 106.071 50.93 106.145 51.31C106.218 51.6833 106.255 52.1333 106.255 52.66V53.13H103.975V54.29C103.975 54.5233 103.995 54.7133 104.035 54.86C104.081 55.0067 104.151 55.1167 104.245 55.19C104.345 55.2567 104.471 55.29 104.625 55.29C104.785 55.29 104.905 55.2533 104.985 55.18C105.071 55.1 105.128 54.99 105.155 54.85C105.188 54.7033 105.205 54.5333 105.205 54.34V53.99H106.245V54.21C106.245 54.79 106.121 55.2467 105.875 55.58C105.628 55.9133 105.208 56.08 104.615 56.08ZM103.975 52.55H105.205V52.03C105.205 51.79 105.191 51.59 105.165 51.43C105.138 51.2633 105.081 51.14 104.995 51.06C104.915 50.9733 104.785 50.93 104.605 50.93C104.431 50.93 104.298 50.97 104.205 51.05C104.118 51.13 104.058 51.2667 104.025 51.46C103.991 51.6467 103.975 51.9067 103.975 52.24V52.55ZM111.089 56.08C110.615 56.08 110.255 55.9867 110.009 55.8C109.769 55.6067 109.605 55.3367 109.519 54.99C109.439 54.6433 109.399 54.24 109.399 53.78V52.45C109.399 51.9633 109.442 51.55 109.529 51.21C109.615 50.8633 109.779 50.6 110.019 50.42C110.265 50.2333 110.622 50.14 111.089 50.14C111.509 50.14 111.832 50.21 112.059 50.35C112.292 50.4833 112.452 50.6867 112.539 50.96C112.625 51.2267 112.669 51.56 112.669 51.96V52.3H111.699V51.95C111.699 51.6967 111.682 51.4967 111.649 51.35C111.615 51.2033 111.555 51.0967 111.469 51.03C111.382 50.9633 111.259 50.93 111.099 50.93C110.925 50.93 110.792 50.97 110.699 51.05C110.605 51.13 110.542 51.2667 110.509 51.46C110.482 51.6467 110.469 51.9033 110.469 52.23V54.05C110.469 54.5433 110.515 54.8733 110.609 55.04C110.702 55.2067 110.869 55.29 111.109 55.29C111.289 55.29 111.419 55.25 111.499 55.17C111.585 55.0833 111.639 54.9633 111.659 54.81C111.685 54.6567 111.699 54.4833 111.699 54.29V53.82H112.669V54.22C112.669 54.6067 112.622 54.94 112.529 55.22C112.442 55.5 112.282 55.7133 112.049 55.86C111.822 56.0067 111.502 56.08 111.089 56.08ZM115.21 56.08C114.783 56.08 114.447 55.9933 114.2 55.82C113.953 55.6467 113.777 55.4 113.67 55.08C113.57 54.76 113.52 54.3833 113.52 53.95V52.27C113.52 51.8367 113.57 51.46 113.67 51.14C113.777 50.82 113.953 50.5733 114.2 50.4C114.447 50.2267 114.783 50.14 115.21 50.14C115.637 50.14 115.97 50.2267 116.21 50.4C116.457 50.5733 116.63 50.82 116.73 51.14C116.837 51.46 116.89 51.8367 116.89 52.27V53.95C116.89 54.3833 116.837 54.76 116.73 55.08C116.63 55.4 116.457 55.6467 116.21 55.82C115.97 55.9933 115.637 56.08 115.21 56.08ZM115.21 55.29C115.417 55.29 115.56 55.23 115.64 55.11C115.727 54.99 115.777 54.8333 115.79 54.64C115.81 54.44 115.82 54.2333 115.82 54.02V52.21C115.82 51.99 115.81 51.7833 115.79 51.59C115.777 51.3967 115.727 51.24 115.64 51.12C115.56 50.9933 115.417 50.93 115.21 50.93C115.003 50.93 114.857 50.9933 114.77 51.12C114.683 51.24 114.63 51.3967 114.61 51.59C114.597 51.7833 114.59 51.99 114.59 52.21V54.02C114.59 54.2333 114.597 54.44 114.61 54.64C114.63 54.8333 114.683 54.99 114.77 55.11C114.857 55.23 115.003 55.29 115.21 55.29ZM119.208 56.08C118.721 56.08 118.358 55.9033 118.118 55.55C117.878 55.19 117.758 54.5833 117.758 53.73V52.61C117.758 52.17 117.795 51.7633 117.868 51.39C117.941 51.01 118.078 50.7067 118.278 50.48C118.485 50.2533 118.785 50.14 119.178 50.14C119.371 50.14 119.548 50.1833 119.708 50.27C119.868 50.3567 120.011 50.4633 120.138 50.59V47.9H121.208V56H120.138V55.63C120.011 55.7633 119.871 55.8733 119.718 55.96C119.571 56.04 119.401 56.08 119.208 56.08ZM119.478 55.24C119.578 55.24 119.685 55.2233 119.798 55.19C119.911 55.15 120.025 55.0933 120.138 55.02V51.23C120.045 51.1633 119.941 51.1067 119.828 51.06C119.715 51.0067 119.591 50.98 119.458 50.98C119.211 50.98 119.045 51.1 118.958 51.34C118.871 51.5733 118.828 51.8567 118.828 52.19V53.82C118.828 54.0867 118.841 54.33 118.868 54.55C118.901 54.7633 118.965 54.9333 119.058 55.06C119.151 55.18 119.291 55.24 119.478 55.24ZM123.892 56.08C123.439 56.08 123.089 55.9933 122.842 55.82C122.595 55.64 122.422 55.38 122.322 55.04C122.229 54.6933 122.182 54.27 122.182 53.77V52.45C122.182 51.9367 122.232 51.51 122.332 51.17C122.432 50.83 122.605 50.5733 122.852 50.4C123.105 50.2267 123.452 50.14 123.892 50.14C124.379 50.14 124.735 50.24 124.962 50.44C125.195 50.64 125.349 50.93 125.422 51.31C125.495 51.6833 125.532 52.1333 125.532 52.66V53.13H123.252V54.29C123.252 54.5233 123.272 54.7133 123.312 54.86C123.359 55.0067 123.429 55.1167 123.522 55.19C123.622 55.2567 123.749 55.29 123.902 55.29C124.062 55.29 124.182 55.2533 124.262 55.18C124.349 55.1 124.405 54.99 124.432 54.85C124.465 54.7033 124.482 54.5333 124.482 54.34V53.99H125.522V54.21C125.522 54.79 125.399 55.2467 125.152 55.58C124.905 55.9133 124.485 56.08 123.892 56.08ZM123.252 52.55H124.482V52.03C124.482 51.79 124.469 51.59 124.442 51.43C124.415 51.2633 124.359 51.14 124.272 51.06C124.192 50.9733 124.062 50.93 123.882 50.93C123.709 50.93 123.575 50.97 123.482 51.05C123.395 51.13 123.335 51.2667 123.302 51.46C123.269 51.6467 123.252 51.9067 123.252 52.24V52.55ZM126.451 56V54.81H127.521V56H126.451ZM128.336 56V54.81H129.406V56H128.336ZM130.22 56V54.81H131.29V56H130.22Z"></path>
</svg>
