<svg xmlns="http://www.w3.org/2000/svg" fill="none" viewBox="0 0 8 19" height="19" width="8">
<path fill-opacity="0.01" fill="white" d="M0.5 0H7.5V19H0.5V0Z"></path>
<path fill="#45D2FF" d="M1.19266 14V4.28H3.72466C4.14066 4.28 4.53266 4.312 4.90066 4.376C5.27666 4.44 5.60866 4.564 5.89666 4.748C6.18466 4.924 6.40866 5.18 6.56866 5.516C6.73666 5.844 6.82066 6.28 6.82066 6.824C6.82066 7.216 6.76066 7.548 6.64066 7.82C6.52866 8.084 6.36466 8.296 6.14866 8.456C5.94066 8.616 5.68866 8.724 5.39266 8.78C5.76866 8.828 6.08466 8.952 6.34066 9.152C6.59666 9.344 6.78866 9.604 6.91666 9.932C7.05266 10.26 7.12066 10.656 7.12066 11.12C7.12066 11.624 7.05266 12.06 6.91666 12.428C6.78866 12.788 6.60066 13.084 6.35266 13.316C6.10466 13.548 5.79666 13.72 5.42866 13.832C5.06866 13.944 4.65266 14 4.18066 14H1.19266ZM3.34066 12.5H3.79666C4.26866 12.5 4.59266 12.38 4.76866 12.14C4.95266 11.9 5.04466 11.548 5.04466 11.084C5.04466 10.716 5.00466 10.424 4.92466 10.208C4.84466 9.992 4.71266 9.836 4.52866 9.74C4.34466 9.636 4.09666 9.584 3.78466 9.584H3.34066V12.5ZM3.34066 8.168H3.76066C4.08866 8.168 4.33666 8.12 4.50466 8.024C4.67266 7.92 4.78466 7.772 4.84066 7.58C4.90466 7.388 4.93666 7.156 4.93666 6.884C4.93666 6.628 4.88866 6.416 4.79266 6.248C4.70466 6.072 4.56866 5.94 4.38466 5.852C4.20866 5.764 3.98466 5.72 3.71266 5.72H3.34066V8.168Z"></path>
</svg>
