<svg xmlns="http://www.w3.org/2000/svg" fill="none" viewBox="0 0 140 22" height="22" width="140">
<rect fill="#0D0E12" height="22" width="140"></rect>
<path fill="white" d="M44.63 15V6.9H46.04V11.54L48.11 6.9H49.27V15H47.83V10.28L45.72 15H44.63ZM50.5284 15V6.9H54.2784V8.23H52.3184V15H50.5284ZM55.1273 15V6.9H57.8473C58.334 6.9 58.734 6.99333 59.0473 7.18C59.3607 7.36 59.594 7.62667 59.7473 7.98C59.9007 8.32667 59.9773 8.75 59.9773 9.25C59.9773 9.87667 59.874 10.3567 59.6673 10.69C59.4607 11.0167 59.1807 11.2433 58.8273 11.37C58.474 11.4967 58.0773 11.56 57.6373 11.56H56.9173V15H55.1273ZM56.9173 10.31H57.5173C57.7373 10.31 57.904 10.27 58.0173 10.19C58.1307 10.11 58.204 9.99 58.2373 9.83C58.2773 9.67 58.2973 9.46667 58.2973 9.22C58.2973 9.01333 58.2807 8.83333 58.2473 8.68C58.2207 8.52 58.1507 8.39333 58.0373 8.3C57.924 8.20667 57.7473 8.16 57.5073 8.16H56.9173V10.31ZM60.2842 15L61.8142 6.9H63.8542L65.3642 15H63.7142L63.4442 13.29H62.2542L61.9742 15H60.2842ZM62.4142 12.22H63.2742L62.8442 9.06L62.4142 12.22ZM66.7851 15V8.23H65.5651V6.9H69.7951V8.23H68.5851V15H66.7851ZM70.5382 15V6.9H72.3282V10.32H72.7282C73.2349 10.32 73.6649 10.4033 74.0182 10.57C74.3715 10.7367 74.6415 10.9933 74.8282 11.34C75.0149 11.68 75.1082 12.12 75.1082 12.66C75.1082 13.1533 75.0415 13.5533 74.9082 13.86C74.7815 14.1667 74.6015 14.4033 74.3682 14.57C74.1349 14.7367 73.8615 14.85 73.5482 14.91C73.2415 14.97 72.9115 15 72.5582 15H70.5382ZM72.3282 13.83H72.5682C72.7949 13.83 72.9715 13.7867 73.0982 13.7C73.2315 13.6133 73.3249 13.48 73.3782 13.3C73.4382 13.12 73.4649 12.8933 73.4582 12.62C73.4515 12.32 73.3882 12.07 73.2682 11.87C73.1549 11.6633 72.9149 11.56 72.5482 11.56H72.3282V13.83ZM80.9434 15.12C80.3301 15.12 79.8434 15.01 79.4834 14.79C79.1301 14.5633 78.8801 14.25 78.7334 13.85C78.5868 13.4433 78.5134 12.9667 78.5134 12.42V9.5C78.5134 8.94 78.5868 8.46 78.7334 8.06C78.8801 7.65333 79.1301 7.34 79.4834 7.12C79.8434 6.9 80.3301 6.79 80.9434 6.79C81.5434 6.79 82.0101 6.89 82.3434 7.09C82.6834 7.28333 82.9234 7.55667 83.0634 7.91C83.2034 8.26333 83.2734 8.67 83.2734 9.13V9.83H81.5234V9.02C81.5234 8.86 81.5134 8.70667 81.4934 8.56C81.4801 8.41333 81.4334 8.29333 81.3534 8.2C81.2734 8.1 81.1368 8.05 80.9434 8.05C80.7568 8.05 80.6168 8.1 80.5234 8.2C80.4368 8.3 80.3801 8.42667 80.3534 8.58C80.3334 8.72667 80.3234 8.88333 80.3234 9.05V12.86C80.3234 13.04 80.3368 13.2067 80.3634 13.36C80.3968 13.5067 80.4568 13.6267 80.5434 13.72C80.6368 13.8067 80.7701 13.85 80.9434 13.85C81.1301 13.85 81.2634 13.8033 81.3434 13.71C81.4234 13.61 81.4734 13.4833 81.4934 13.33C81.5134 13.1767 81.5234 13.02 81.5234 12.86V12.01H83.2734V12.71C83.2734 13.17 83.2034 13.5833 83.0634 13.95C82.9301 14.31 82.6934 14.5967 82.3534 14.81C82.0201 15.0167 81.5501 15.12 80.9434 15.12ZM86.8468 15V6.9H90.8668V8.26H88.6368V10.32H89.0168C89.5301 10.32 89.9635 10.4033 90.3168 10.57C90.6768 10.7367 90.9501 10.9933 91.1368 11.34C91.3235 11.68 91.4168 12.12 91.4168 12.66C91.4168 13.1533 91.3501 13.5533 91.2168 13.86C91.0901 14.1667 90.9101 14.4033 90.6768 14.57C90.4435 14.7367 90.1701 14.85 89.8568 14.91C89.5501 14.97 89.2168 15 88.8568 15H86.8468ZM88.6368 13.83H88.8668C89.0935 13.83 89.2735 13.7867 89.4068 13.7C89.5401 13.6133 89.6335 13.48 89.6868 13.3C89.7401 13.12 89.7635 12.8933 89.7568 12.62C89.7501 12.32 89.6868 12.07 89.5668 11.87C89.4468 11.6633 89.2068 11.56 88.8468 11.56H88.6368V13.83ZM94.6739 15.12C94.0672 15.12 93.5872 15.0133 93.2339 14.8C92.8806 14.5867 92.6272 14.28 92.4739 13.88C92.3206 13.48 92.2439 13.0033 92.2439 12.45V9.44C92.2439 8.88 92.3206 8.40333 92.4739 8.01C92.6272 7.61667 92.8806 7.31667 93.2339 7.11C93.5872 6.89667 94.0672 6.79 94.6739 6.79C95.2872 6.79 95.7706 6.89667 96.1239 7.11C96.4839 7.31667 96.7406 7.61667 96.8939 8.01C97.0472 8.40333 97.1239 8.88 97.1239 9.44V12.45C97.1239 13.0033 97.0472 13.48 96.8939 13.88C96.7406 14.28 96.4839 14.5867 96.1239 14.8C95.7706 15.0133 95.2872 15.12 94.6739 15.12ZM94.6739 13.85C94.8606 13.85 94.9972 13.8033 95.0839 13.71C95.1706 13.6167 95.2272 13.4967 95.2539 13.35C95.2806 13.2033 95.2939 13.0533 95.2939 12.9V9C95.2939 8.84 95.2806 8.69 95.2539 8.55C95.2272 8.40333 95.1706 8.28333 95.0839 8.19C94.9972 8.09667 94.8606 8.05 94.6739 8.05C94.5006 8.05 94.3706 8.09667 94.2839 8.19C94.1972 8.28333 94.1406 8.40333 94.1139 8.55C94.0872 8.69 94.0739 8.84 94.0739 9V12.9C94.0739 13.0533 94.0839 13.2033 94.1039 13.35C94.1306 13.4967 94.1839 13.6167 94.2639 13.71C94.3506 13.8033 94.4872 13.85 94.6739 13.85ZM98.9433 15V8.23H97.7233V6.9H101.953V8.23H100.743V15H98.9433ZM102.276 15L103.806 6.9H105.846L107.356 15H105.706L105.436 13.29H104.246L103.966 15H102.276ZM104.406 12.22H105.266L104.836 9.06L104.406 12.22ZM108.144 15L108.284 6.9H110.204L111.094 11.61L112.054 6.9H113.904L114.044 15H112.774L112.624 9.61L111.684 15H110.554L109.554 9.57L109.434 15H108.144ZM115.245 15V6.9H116.655V11.54L118.725 6.9H119.885V15H118.445V10.28L116.335 15H115.245Z"></path>
<rect stroke="#0D0E12" fill="white" rx="1.60526" height="4.6" width="3.21053" y="11.3999" x="31.2895"></rect>
<rect stroke="#0D0E12" fill="white" rx="1.60526" height="4.6" width="3.21053" y="11.3999" x="19.5"></rect>
<rect stroke="#0D0E12" fill="white" rx="2.5" height="9.4" width="11.6316" y="7.3999" x="21.1842"></rect>
<line stroke="#0D0E12" y2="4.49995" x2="26.9211" y1="7.69995" x1="26.9211"></line>
<line stroke="#0D0E12" y2="15.2" x2="30.7894" y1="15.2" x1="28.2631"></line>
<circle stroke="#0D0E12" fill="white" r="1.5" cy="5" cx="27"></circle>
<path stroke="#0D0E12" fill="white" d="M25.2369 12.0999C25.2369 12.4626 24.9197 12.7999 24.4737 12.7999C24.0277 12.7999 23.7105 12.4626 23.7105 12.0999C23.7105 11.7372 24.0277 11.3999 24.4737 11.3999C24.9197 11.3999 25.2369 11.7372 25.2369 12.0999Z"></path>
<path stroke="#0D0E12" fill="white" d="M31.1316 12.0999C31.1316 12.4626 30.8144 12.7999 30.3684 12.7999C29.9225 12.7999 29.6053 12.4626 29.6053 12.0999C29.6053 11.7372 29.9225 11.3999 30.3684 11.3999C30.8144 11.3999 31.1316 11.7372 31.1316 12.0999Z"></path>
</svg>
