<svg xmlns="http://www.w3.org/2000/svg" fill="none" viewBox="0 0 13 18" height="18" width="13">
<rect fill-opacity="0.01" fill="#0D0E12" height="18" width="13"></rect>
<path fill="white" d="M3.06 14.18C2.348 14.18 1.808 14.056 1.44 13.808C1.08 13.552 0.836 13.196 0.708 12.74C0.58 12.284 0.516 11.756 0.516 11.156H2.448C2.448 11.524 2.468 11.824 2.508 12.056C2.548 12.288 2.62 12.456 2.724 12.56C2.836 12.656 2.992 12.7 3.192 12.692C3.4 12.684 3.548 12.6 3.636 12.44C3.724 12.28 3.776 12.052 3.792 11.756C3.816 11.452 3.828 11.088 3.828 10.664C3.828 10.344 3.808 10.06 3.768 9.812C3.736 9.564 3.664 9.368 3.552 9.224C3.448 9.072 3.288 8.996 3.072 8.996C2.872 8.996 2.708 9.068 2.58 9.212C2.452 9.356 2.36 9.58 2.304 9.884H0.576L0.756 4.28H5.292V5.96H2.364L2.256 7.964C2.336 7.852 2.488 7.756 2.712 7.676C2.936 7.588 3.176 7.532 3.432 7.508C3.928 7.452 4.344 7.544 4.68 7.784C5.024 8.016 5.28 8.372 5.448 8.852C5.624 9.332 5.712 9.92 5.712 10.616C5.712 11.136 5.68 11.616 5.616 12.056C5.552 12.488 5.428 12.864 5.244 13.184C5.06 13.496 4.792 13.74 4.44 13.916C4.088 14.092 3.628 14.18 3.06 14.18ZM9.23747 14.18C8.55747 14.18 8.02147 14.052 7.62947 13.796C7.24547 13.54 6.96947 13.184 6.80147 12.728C6.64147 12.264 6.56147 11.732 6.56147 11.132V10.784H8.56547C8.56547 10.792 8.56547 10.836 8.56547 10.916C8.56547 10.996 8.56547 11.068 8.56547 11.132C8.56547 11.452 8.58547 11.712 8.62547 11.912C8.66547 12.112 8.73747 12.26 8.84147 12.356C8.94547 12.444 9.08947 12.488 9.27347 12.488C9.45747 12.488 9.59347 12.44 9.68147 12.344C9.77747 12.248 9.84147 12.104 9.87347 11.912C9.90547 11.72 9.92147 11.48 9.92147 11.192C9.92147 10.712 9.85347 10.348 9.71747 10.1C9.58947 9.844 9.31747 9.712 8.90147 9.704C8.89347 9.704 8.84947 9.704 8.76947 9.704C8.68947 9.704 8.60947 9.704 8.52947 9.704V8.324C8.58547 8.324 8.64147 8.324 8.69747 8.324C8.75347 8.324 8.80547 8.324 8.85347 8.324C9.27747 8.324 9.56147 8.208 9.70547 7.976C9.84947 7.744 9.92147 7.384 9.92147 6.896C9.92147 6.52 9.86947 6.232 9.76547 6.032C9.66947 5.832 9.48547 5.732 9.21347 5.732C8.94947 5.732 8.77347 5.844 8.68547 6.068C8.60547 6.292 8.56547 6.58 8.56547 6.932C8.56547 7.012 8.56547 7.096 8.56547 7.184C8.56547 7.264 8.56547 7.348 8.56547 7.436H6.56147V6.848C6.56147 6.264 6.66547 5.772 6.87347 5.372C7.08947 4.964 7.39347 4.656 7.78547 4.448C8.18547 4.24 8.66147 4.136 9.21347 4.136C9.77347 4.136 10.2535 4.236 10.6535 4.436C11.0535 4.636 11.3615 4.932 11.5775 5.324C11.7935 5.708 11.9015 6.188 11.9015 6.764C11.9015 7.332 11.7855 7.808 11.5535 8.192C11.3215 8.576 11.0415 8.812 10.7135 8.9C10.9375 8.98 11.1375 9.108 11.3135 9.284C11.4975 9.46 11.6415 9.7 11.7455 10.004C11.8495 10.3 11.9015 10.68 11.9015 11.144C11.9015 11.736 11.8135 12.26 11.6375 12.716C11.4695 13.172 11.1895 13.532 10.7975 13.796C10.4055 14.052 9.88547 14.18 9.23747 14.18Z"></path>
</svg>
