<svg xmlns="http://www.w3.org/2000/svg" fill="none" viewBox="0 0 67 52" height="52" width="67">
<rect fill="#0D0E12" height="52" width="67"></rect>
<path fill="white" d="M13.8666 32.1C13.4466 32.1 13.0866 32.0233 12.7866 31.87C12.4932 31.7167 12.2666 31.4967 12.1066 31.21C11.9466 30.9233 11.8666 30.5767 11.8666 30.17V28.05C11.8666 27.6367 11.9466 27.2867 12.1066 27C12.2666 26.7133 12.4932 26.4967 12.7866 26.35C13.0866 26.1967 13.4466 26.12 13.8666 26.12C14.2799 26.12 14.6299 26.1833 14.9166 26.31C15.2099 26.4367 15.4332 26.63 15.5866 26.89C15.7399 27.1433 15.8166 27.4667 15.8166 27.86V28.47H14.2466V27.81C14.2466 27.6567 14.2299 27.54 14.1966 27.46C14.1699 27.3733 14.1266 27.3133 14.0666 27.28C14.0132 27.2467 13.9466 27.23 13.8666 27.23C13.7866 27.23 13.7199 27.2533 13.6666 27.3C13.6132 27.34 13.5732 27.41 13.5466 27.51C13.5199 27.6033 13.5066 27.7367 13.5066 27.91V30.31C13.5066 30.57 13.5366 30.7467 13.5966 30.84C13.6632 30.9333 13.7566 30.98 13.8766 30.98C13.9632 30.98 14.0332 30.9633 14.0866 30.93C14.1399 30.89 14.1799 30.83 14.2066 30.75C14.2332 30.6633 14.2466 30.55 14.2466 30.41V29.64H15.8166V30.34C15.8166 30.7267 15.7366 31.0533 15.5766 31.32C15.4232 31.58 15.1999 31.7767 14.9066 31.91C14.6199 32.0367 14.2732 32.1 13.8666 32.1ZM18.5643 32.1C18.151 32.1 17.791 32.03 17.4843 31.89C17.1843 31.75 16.951 31.54 16.7843 31.26C16.6243 30.98 16.5443 30.63 16.5443 30.21V28.01C16.5443 27.59 16.6243 27.24 16.7843 26.96C16.951 26.68 17.1843 26.47 17.4843 26.33C17.791 26.19 18.151 26.12 18.5643 26.12C18.9776 26.12 19.3343 26.19 19.6343 26.33C19.941 26.47 20.1776 26.68 20.3443 26.96C20.511 27.24 20.5943 27.59 20.5943 28.01V30.21C20.5943 30.63 20.511 30.98 20.3443 31.26C20.1776 31.54 19.941 31.75 19.6343 31.89C19.3343 32.03 18.9776 32.1 18.5643 32.1ZM18.5743 31.02C18.681 31.02 18.7643 30.9933 18.8243 30.94C18.8843 30.88 18.9243 30.8 18.9443 30.7C18.971 30.5933 18.9843 30.4667 18.9843 30.32V27.9C18.9843 27.7533 18.971 27.63 18.9443 27.53C18.9243 27.4233 18.8843 27.3433 18.8243 27.29C18.7643 27.23 18.681 27.2 18.5743 27.2C18.4676 27.2 18.3843 27.23 18.3243 27.29C18.2643 27.3433 18.221 27.4233 18.1943 27.53C18.1676 27.63 18.1543 27.7533 18.1543 27.9V30.32C18.1543 30.4667 18.1676 30.5933 18.1943 30.7C18.221 30.8 18.2643 30.88 18.3243 30.94C18.3843 30.9933 18.4676 31.02 18.5743 31.02ZM21.0983 32L22.3283 28.83L21.1583 26.22H22.7983L23.4183 27.61L23.9683 26.22H25.2183L24.0783 29.07L25.3883 32H23.7283L23.0283 30.41L22.4483 32H21.0983ZM25.9221 33.9V26.22H27.5521V26.64C27.7454 26.4667 27.9521 26.3367 28.1721 26.25C28.3921 26.1633 28.6021 26.12 28.8021 26.12C29.0221 26.12 29.2088 26.1633 29.3621 26.25C29.5221 26.3367 29.6521 26.46 29.7521 26.62C29.8521 26.7733 29.9254 26.9533 29.9721 27.16C30.0188 27.3667 30.0421 27.5867 30.0421 27.82V30.31C30.0421 30.67 29.9921 30.9833 29.8921 31.25C29.7988 31.5167 29.6588 31.7267 29.4721 31.88C29.2854 32.0267 29.0554 32.1 28.7821 32.1C28.5754 32.1 28.3654 32.0533 28.1521 31.96C27.9454 31.86 27.7454 31.7267 27.5521 31.56V33.9H25.9221ZM27.9821 31.05C28.0888 31.05 28.1721 31.02 28.2321 30.96C28.2921 30.9 28.3354 30.8233 28.3621 30.73C28.3954 30.63 28.4121 30.52 28.4121 30.4V27.7C28.4121 27.5867 28.3988 27.4867 28.3721 27.4C28.3454 27.3067 28.3021 27.2333 28.2421 27.18C28.1821 27.1267 28.1054 27.1 28.0121 27.1C27.9254 27.1 27.8421 27.12 27.7621 27.16C27.6888 27.1933 27.6188 27.24 27.5521 27.3V30.9C27.6254 30.9467 27.6954 30.9833 27.7621 31.01C27.8354 31.0367 27.9088 31.05 27.9821 31.05ZM32.1609 32.1C31.8676 32.1 31.6209 32.03 31.4209 31.89C31.2209 31.75 31.0709 31.5733 30.9709 31.36C30.8709 31.14 30.8209 30.9167 30.8209 30.69C30.8209 30.33 30.8909 30.0267 31.0309 29.78C31.1776 29.5333 31.3676 29.3267 31.6009 29.16C31.8343 28.9933 32.0909 28.8533 32.3709 28.74C32.6509 28.62 32.9276 28.5133 33.2009 28.42V27.84C33.2009 27.74 33.1909 27.6533 33.1709 27.58C33.1509 27.5 33.1176 27.44 33.0709 27.4C33.0243 27.3533 32.9543 27.33 32.8609 27.33C32.7676 27.33 32.6943 27.35 32.6409 27.39C32.5943 27.43 32.5609 27.4867 32.5409 27.56C32.5209 27.6267 32.5076 27.7033 32.5009 27.79L32.4609 28.21L30.9409 28.15C30.9743 27.4567 31.1576 26.9467 31.4909 26.62C31.8309 26.2867 32.3376 26.12 33.0109 26.12C33.5976 26.12 34.0343 26.2833 34.3209 26.61C34.6143 26.93 34.7609 27.3467 34.7609 27.86V30.56C34.7609 30.8 34.7643 31.01 34.7709 31.19C34.7843 31.37 34.7976 31.5267 34.8109 31.66C34.8309 31.7933 34.8476 31.9067 34.8609 32H33.4009C33.3809 31.8467 33.3576 31.68 33.3309 31.5C33.3043 31.32 33.2843 31.2133 33.2709 31.18C33.2043 31.42 33.0776 31.6333 32.8909 31.82C32.7109 32.0067 32.4676 32.1 32.1609 32.1ZM32.7409 31C32.8076 31 32.8676 30.9867 32.9209 30.96C32.9809 30.9333 33.0343 30.8967 33.0809 30.85C33.1276 30.8033 33.1676 30.7567 33.2009 30.71V29.13C33.0676 29.21 32.9443 29.2933 32.8309 29.38C32.7176 29.46 32.6209 29.55 32.5409 29.65C32.4609 29.75 32.3976 29.86 32.3509 29.98C32.3109 30.0933 32.2909 30.2233 32.2909 30.37C32.2909 30.5633 32.3309 30.7167 32.4109 30.83C32.4909 30.9433 32.6009 31 32.7409 31ZM35.7268 32V26.22H37.3568V28.46H38.3268V26.22H39.9668V32H38.3268V29.58H37.3568V32H35.7268ZM40.9807 32V26.22H42.2707V29.31L43.7807 26.22H45.0507V32H43.7307V28.94L42.2607 32H40.9807ZM46.7588 32V27.32H45.7088V26.22H49.4288V27.32H48.3788V32H46.7588ZM50.1116 32V26.22H51.7416V28.54C51.7482 28.54 51.7516 28.54 51.7516 28.54C51.7582 28.54 51.7649 28.54 51.7716 28.54C51.7782 28.54 51.7849 28.54 51.7916 28.54C52.1916 28.54 52.5449 28.5667 52.8516 28.62C53.1582 28.6733 53.4116 28.7667 53.6116 28.9C53.8182 29.0267 53.9749 29.2 54.0816 29.42C54.1882 29.6333 54.2416 29.9067 54.2416 30.24C54.2416 30.5533 54.1949 30.8233 54.1016 31.05C54.0149 31.27 53.8716 31.45 53.6716 31.59C53.4782 31.73 53.2249 31.8333 52.9116 31.9C52.6049 31.9667 52.2349 32 51.8016 32H50.1116ZM51.7416 31.07H51.7716C52.0182 31.07 52.2116 31.0467 52.3516 31C52.4982 30.9467 52.6016 30.8633 52.6616 30.75C52.7282 30.63 52.7616 30.4733 52.7616 30.28C52.7616 30.0733 52.7282 29.9167 52.6616 29.81C52.6016 29.6967 52.4982 29.6167 52.3516 29.57C52.2116 29.5233 52.0249 29.5 51.7916 29.5C51.7849 29.5 51.7749 29.5 51.7616 29.5C51.7549 29.5 51.7482 29.5 51.7416 29.5V31.07Z"></path>
<path fill="white" d="M14.6916 43V37.22H18.7916V43H17.1616V38.33H16.3216V43H14.6916ZM19.7991 44.9V37.22H21.4291V37.64C21.6224 37.4667 21.8291 37.3367 22.0491 37.25C22.2691 37.1633 22.4791 37.12 22.6791 37.12C22.8991 37.12 23.0857 37.1633 23.2391 37.25C23.3991 37.3367 23.5291 37.46 23.6291 37.62C23.7291 37.7733 23.8024 37.9533 23.8491 38.16C23.8957 38.3667 23.9191 38.5867 23.9191 38.82V41.31C23.9191 41.67 23.8691 41.9833 23.7691 42.25C23.6757 42.5167 23.5357 42.7267 23.3491 42.88C23.1624 43.0267 22.9324 43.1 22.6591 43.1C22.4524 43.1 22.2424 43.0533 22.0291 42.96C21.8224 42.86 21.6224 42.7267 21.4291 42.56V44.9H19.7991ZM21.8591 42.05C21.9657 42.05 22.0491 42.02 22.1091 41.96C22.1691 41.9 22.2124 41.8233 22.2391 41.73C22.2724 41.63 22.2891 41.52 22.2891 41.4V38.7C22.2891 38.5867 22.2757 38.4867 22.2491 38.4C22.2224 38.3067 22.1791 38.2333 22.1191 38.18C22.0591 38.1267 21.9824 38.1 21.8891 38.1C21.8024 38.1 21.7191 38.12 21.6391 38.16C21.5657 38.1933 21.4957 38.24 21.4291 38.3V41.9C21.5024 41.9467 21.5724 41.9833 21.6391 42.01C21.7124 42.0367 21.7857 42.05 21.8591 42.05ZM26.7479 43.1C26.3346 43.1 25.9746 43.03 25.6679 42.89C25.3679 42.75 25.1346 42.54 24.9679 42.26C24.8079 41.98 24.7279 41.63 24.7279 41.21V39.01C24.7279 38.59 24.8079 38.24 24.9679 37.96C25.1346 37.68 25.3679 37.47 25.6679 37.33C25.9746 37.19 26.3346 37.12 26.7479 37.12C27.1612 37.12 27.5179 37.19 27.8179 37.33C28.1246 37.47 28.3612 37.68 28.5279 37.96C28.6946 38.24 28.7779 38.59 28.7779 39.01V41.21C28.7779 41.63 28.6946 41.98 28.5279 42.26C28.3612 42.54 28.1246 42.75 27.8179 42.89C27.5179 43.03 27.1612 43.1 26.7479 43.1ZM26.7579 42.02C26.8646 42.02 26.9479 41.9933 27.0079 41.94C27.0679 41.88 27.1079 41.8 27.1279 41.7C27.1546 41.5933 27.1679 41.4667 27.1679 41.32V38.9C27.1679 38.7533 27.1546 38.63 27.1279 38.53C27.1079 38.4233 27.0679 38.3433 27.0079 38.29C26.9479 38.23 26.8646 38.2 26.7579 38.2C26.6512 38.2 26.5679 38.23 26.5079 38.29C26.4479 38.3433 26.4046 38.4233 26.3779 38.53C26.3512 38.63 26.3379 38.7533 26.3379 38.9V41.32C26.3379 41.4667 26.3512 41.5933 26.3779 41.7C26.4046 41.8 26.4479 41.88 26.5079 41.94C26.5679 41.9933 26.6512 42.02 26.7579 42.02ZM31.9419 44.72V42.92H31.7719C31.5585 42.92 31.3252 42.89 31.0719 42.83C30.8252 42.7633 30.5885 42.6533 30.3619 42.5C30.1352 42.34 29.9485 42.13 29.8019 41.87C29.6552 41.6033 29.5819 41.27 29.5819 40.87V39.24C29.5819 38.8867 29.6452 38.5833 29.7719 38.33C29.9052 38.0767 30.0785 37.87 30.2919 37.71C30.5052 37.55 30.7419 37.4333 31.0019 37.36C31.2619 37.28 31.5185 37.24 31.7719 37.24H31.9419V34.91H33.3519V37.24H33.5519C33.8985 37.24 34.2385 37.31 34.5719 37.45C34.9052 37.5833 35.1785 37.7967 35.3919 38.09C35.6119 38.3833 35.7219 38.7667 35.7219 39.24V40.87C35.7219 41.27 35.6485 41.6033 35.5019 41.87C35.3552 42.13 35.1685 42.34 34.9419 42.5C34.7152 42.6533 34.4785 42.7633 34.2319 42.83C33.9852 42.89 33.7585 42.92 33.5519 42.92H33.3519V44.72H31.9419ZM31.8119 41.95H31.9419V38.15H31.8019C31.6752 38.15 31.5585 38.1867 31.4519 38.26C31.3452 38.3267 31.2585 38.43 31.1919 38.57C31.1319 38.71 31.1019 38.8867 31.1019 39.1V40.98C31.1019 41.1867 31.1319 41.3633 31.1919 41.51C31.2519 41.6567 31.3352 41.7667 31.4419 41.84C31.5485 41.9133 31.6719 41.95 31.8119 41.95ZM33.3519 41.95H33.4619C33.5952 41.95 33.7152 41.9133 33.8219 41.84C33.9352 41.7667 34.0252 41.6567 34.0919 41.51C34.1652 41.3633 34.2019 41.1867 34.2019 40.98V39.1C34.2019 38.8867 34.1685 38.71 34.1019 38.57C34.0352 38.43 33.9452 38.3267 33.8319 38.26C33.7252 38.1867 33.6052 38.15 33.4719 38.15H33.3519V41.95ZM36.6545 43V37.22H37.9445V40.31L39.4545 37.22H40.7245V43H39.4045V39.94L37.9345 43H36.6545ZM41.3527 43.06V41.91C41.566 41.91 41.7393 41.8767 41.8727 41.81C42.0127 41.7433 42.1227 41.63 42.2027 41.47C42.2893 41.3033 42.356 41.08 42.4027 40.8C42.4493 40.5133 42.4893 40.15 42.5227 39.71L42.7127 37.22H46.3827V43H44.7527V38.32H44.0927L43.9527 40.03C43.906 40.63 43.8393 41.1267 43.7527 41.52C43.666 41.9133 43.5393 42.2233 43.3727 42.45C43.206 42.67 42.9827 42.8267 42.7027 42.92C42.4227 43.0133 42.066 43.06 41.6327 43.06H41.3527ZM47.4065 43V37.22H49.0365V39.54C49.0432 39.54 49.0465 39.54 49.0465 39.54C49.0532 39.54 49.0598 39.54 49.0665 39.54C49.0732 39.54 49.0798 39.54 49.0865 39.54C49.4865 39.54 49.8398 39.5667 50.1465 39.62C50.4532 39.6733 50.7065 39.7667 50.9065 39.9C51.1132 40.0267 51.2698 40.2 51.3765 40.42C51.4832 40.6333 51.5365 40.9067 51.5365 41.24C51.5365 41.5533 51.4898 41.8233 51.3965 42.05C51.3098 42.27 51.1665 42.45 50.9665 42.59C50.7732 42.73 50.5198 42.8333 50.2065 42.9C49.8998 42.9667 49.5298 43 49.0965 43H47.4065ZM49.0365 42.07H49.0665C49.3132 42.07 49.5065 42.0467 49.6465 42C49.7932 41.9467 49.8965 41.8633 49.9565 41.75C50.0232 41.63 50.0565 41.4733 50.0565 41.28C50.0565 41.0733 50.0232 40.9167 49.9565 40.81C49.8965 40.6967 49.7932 40.6167 49.6465 40.57C49.5065 40.5233 49.3198 40.5 49.0865 40.5C49.0798 40.5 49.0698 40.5 49.0565 40.5C49.0498 40.5 49.0432 40.5 49.0365 40.5V42.07Z"></path>
<path fill="white" d="M40 11.3824C40 11.2069 39.9538 11.0344 39.866 10.8824L37.2572 6.36377C37.0785 6.05437 36.7484 5.86377 36.3912 5.86377H27C26.4477 5.86377 26 6.31149 26 6.86377V18.8638C26 19.4161 26.4477 19.8638 27 19.8638H39C39.5523 19.8638 40 19.4161 40 18.8638V11.3824Z" clip-rule="evenodd" fill-rule="evenodd"></path>
<rect fill="black" rx="1" height="5.09091" width="7.63636" y="5.22729" x="28.5454"></rect>
<rect fill="white" rx="0.954546" height="3.18182" width="1.90909" y="5.86377" x="29.8182"></rect>
<path fill="black" d="M27.9091 15.1365C27.9091 14.5842 28.3568 14.1365 28.9091 14.1365H37.0909C37.6432 14.1365 38.0909 14.5842 38.0909 15.1365V18.591H27.9091V15.1365Z"></path>
<rect fill="white" height="0.636364" width="7.63636" y="15.4092" x="29.1818"></rect>
<rect fill="white" height="0.636364" width="7.63636" y="16.6819" x="29.1818"></rect>
<rect fill-opacity="0.01" fill="black" height="20" width="20" y="3" x="23"></rect>
</svg>
