<svg xmlns="http://www.w3.org/2000/svg" fill="none" viewBox="0 0 8 19" height="19" width="8">
<path fill-opacity="0.01" fill="white" d="M0.5 0H7.50002V19H0.5V0Z"></path>
<path fill="#45D2FF" d="M1.12234 14V4.28H3.79834C4.45434 4.28 5.02234 4.352 5.50234 4.496C5.98234 4.64 6.35434 4.9 6.61834 5.276C6.89034 5.644 7.02634 6.168 7.02634 6.848C7.02634 7.248 6.99434 7.604 6.93034 7.916C6.86634 8.228 6.74634 8.5 6.57034 8.732C6.40234 8.956 6.15834 9.144 5.83834 9.296L7.17034 14H4.95034L3.88234 9.644H3.27034V14H1.12234ZM3.27034 8.408H3.87034C4.17434 8.408 4.41034 8.356 4.57834 8.252C4.74634 8.14 4.86234 7.984 4.92634 7.784C4.99834 7.576 5.03434 7.328 5.03434 7.04C5.03434 6.624 4.95834 6.3 4.80634 6.068C4.65434 5.836 4.37434 5.72 3.96634 5.72H3.27034V8.408Z"></path>
</svg>
