<svg xmlns="http://www.w3.org/2000/svg" fill="none" viewBox="0 0 104 22" height="22" width="104">
<rect stroke="#0D0E12" fill="white" height="21" width="103" y="0.5" x="0.5"></rect>
<path fill="#0D0E12" d="M41.6654 16V7.9H43.8954C44.4421 7.9 44.9154 7.96 45.3154 8.08C45.7154 8.2 46.0254 8.41667 46.2454 8.73C46.4721 9.03667 46.5854 9.47333 46.5854 10.04C46.5854 10.3733 46.5588 10.67 46.5054 10.93C46.4521 11.19 46.3521 11.4167 46.2054 11.61C46.0654 11.7967 45.8621 11.9533 45.5954 12.08L46.7054 16H44.8554L43.9654 12.37H43.4554V16H41.6654ZM43.4554 11.34H43.9554C44.2088 11.34 44.4054 11.2967 44.5454 11.21C44.6854 11.1167 44.7821 10.9867 44.8354 10.82C44.8954 10.6467 44.9254 10.44 44.9254 10.2C44.9254 9.85333 44.8621 9.58333 44.7354 9.39C44.6088 9.19667 44.3754 9.1 44.0354 9.1H43.4554V11.34ZM47.2715 16L48.8015 7.9H50.8415L52.3515 16H50.7015L50.4315 14.29H49.2415L48.9615 16H47.2715ZM49.4015 13.22H50.2615L49.8315 10.06L49.4015 13.22ZM53.1693 16V7.9H54.4293L56.0893 11.8V7.9H57.5693V16H56.3593L54.6993 11.8V16H53.1693ZM58.7748 16V7.9H60.8248C61.5315 7.9 62.0815 7.99 62.4748 8.17C62.8681 8.34333 63.1448 8.62 63.3048 9C63.4648 9.37333 63.5448 9.86 63.5448 10.46V13.4C63.5448 14.0067 63.4648 14.5033 63.3048 14.89C63.1448 15.27 62.8681 15.55 62.4748 15.73C62.0881 15.91 61.5448 16 60.8448 16H58.7748ZM60.5648 14.76H60.8448C61.1181 14.76 61.3148 14.72 61.4348 14.64C61.5548 14.56 61.6281 14.44 61.6548 14.28C61.6881 14.12 61.7048 13.92 61.7048 13.68V10.15C61.7048 9.91 61.6848 9.71667 61.6448 9.57C61.6115 9.42333 61.5348 9.31667 61.4148 9.25C61.2948 9.18333 61.1015 9.15 60.8348 9.15H60.5648V14.76ZM66.9542 16.12C66.3475 16.12 65.8675 16.0133 65.5142 15.8C65.1608 15.5867 64.9075 15.28 64.7542 14.88C64.6008 14.48 64.5242 14.0033 64.5242 13.45V10.44C64.5242 9.88 64.6008 9.40333 64.7542 9.01C64.9075 8.61667 65.1608 8.31667 65.5142 8.11C65.8675 7.89667 66.3475 7.79 66.9542 7.79C67.5675 7.79 68.0508 7.89667 68.4042 8.11C68.7642 8.31667 69.0208 8.61667 69.1742 9.01C69.3275 9.40333 69.4042 9.88 69.4042 10.44V13.45C69.4042 14.0033 69.3275 14.48 69.1742 14.88C69.0208 15.28 68.7642 15.5867 68.4042 15.8C68.0508 16.0133 67.5675 16.12 66.9542 16.12ZM66.9542 14.85C67.1408 14.85 67.2775 14.8033 67.3642 14.71C67.4508 14.6167 67.5075 14.4967 67.5342 14.35C67.5608 14.2033 67.5742 14.0533 67.5742 13.9V10C67.5742 9.84 67.5608 9.69 67.5342 9.55C67.5075 9.40333 67.4508 9.28333 67.3642 9.19C67.2775 9.09667 67.1408 9.05 66.9542 9.05C66.7808 9.05 66.6508 9.09667 66.5642 9.19C66.4775 9.28333 66.4208 9.40333 66.3942 9.55C66.3675 9.69 66.3542 9.84 66.3542 10V13.9C66.3542 14.0533 66.3642 14.2033 66.3842 14.35C66.4108 14.4967 66.4642 14.6167 66.5442 14.71C66.6308 14.8033 66.7675 14.85 66.9542 14.85ZM70.4636 16L70.6036 7.9H72.5236L73.4136 12.61L74.3736 7.9H76.2236L76.3636 16H75.0936L74.9436 10.61L74.0036 16H72.8736L71.8736 10.57L71.7536 16H70.4636Z"></path>
<rect fill="#0D0E12" height="1.66667" width="1.66667" y="7" x="27"></rect>
<rect fill="#0D0E12" height="1.66667" width="1.66667" y="8.66675" x="28.6667"></rect>
<rect fill="#0D0E12" height="1.66667" width="1.66667" y="12" x="28.6667"></rect>
<rect fill="#0D0E12" height="1.66667" width="1.66667" y="10.3333" x="32"></rect>
<rect fill="#0D0E12" height="1.66667" width="1.66667" y="12" x="33.6667"></rect>
<rect fill="#0D0E12" height="1.66667" width="1.66667" y="13.6667" x="30.3333"></rect>
<rect fill="#0D0E12" height="1.66667" width="1.66667" y="13.6667" x="27"></rect>
<rect fill="#0D0E12" height="1.66667" width="1.66667" y="13.6667" x="32"></rect>
<rect fill="#0D0E12" height="1.66667" width="1.66667" y="15.3333" x="28.6667"></rect>
<rect fill="#0D0E12" height="1.66667" width="1.66667" y="15.3333" x="35.3333"></rect>
<rect fill="#0D0E12" height="1.66667" width="1.66667" y="7" x="33.6667"></rect>
<rect fill="#0D0E12" height="1.66667" width="1.66667" y="10.3333" x="35.3333"></rect>
<rect fill="#0D0E12" height="1.66667" width="1.66667" y="8.66675" x="35.3333"></rect>
<rect fill="#0D0E12" height="1.66667" width="1.66667" y="7" x="30.3333"></rect>
</svg>
