<svg xmlns="http://www.w3.org/2000/svg" fill="none" viewBox="0 0 214 84" height="84" width="214">
<mask fill="white" id="path-1-inside-1_1450_29">
<path d="M0 0H214V84H0V0Z"></path>
</mask>
<path fill="#0D0E12" d="M0 0H214V84H0V0Z"></path>
<path mask="url(#path-1-inside-1_1450_29)" fill="white" d="M0 0V-1H-1V0H0ZM0 84H-1V85H0V84ZM0 1H214V-1H0V1ZM214 83H0V85H214V83ZM1 84V0H-1V84H1Z"></path>
<path fill="#FF0000" d="M16.72 38V28.28H22.54V38H20.428V29.816H18.832V38H16.72ZM23.9856 38V28.28H27.2496C27.8336 28.28 28.3136 28.392 28.6896 28.616C29.0656 28.832 29.3456 29.152 29.5296 29.576C29.7136 29.992 29.8056 30.5 29.8056 31.1C29.8056 31.852 29.6816 32.428 29.4336 32.828C29.1856 33.22 28.8496 33.492 28.4256 33.644C28.0016 33.796 27.5256 33.872 26.9976 33.872H26.1336V38H23.9856ZM26.1336 32.372H26.8536C27.1176 32.372 27.3176 32.324 27.4536 32.228C27.5896 32.132 27.6776 31.988 27.7176 31.796C27.7656 31.604 27.7896 31.36 27.7896 31.064C27.7896 30.816 27.7696 30.6 27.7296 30.416C27.6976 30.224 27.6136 30.072 27.4776 29.96C27.3416 29.848 27.1296 29.792 26.8416 29.792H26.1336V32.372ZM33.6251 38.144C32.8971 38.144 32.3211 38.016 31.8971 37.76C31.4731 37.504 31.1691 37.136 30.9851 36.656C30.8011 36.176 30.7091 35.604 30.7091 34.94V31.328C30.7091 30.656 30.8011 30.084 30.9851 29.612C31.1691 29.14 31.4731 28.78 31.8971 28.532C32.3211 28.276 32.8971 28.148 33.6251 28.148C34.3611 28.148 34.9411 28.276 35.3651 28.532C35.7971 28.78 36.1051 29.14 36.2891 29.612C36.4731 30.084 36.5651 30.656 36.5651 31.328V34.94C36.5651 35.604 36.4731 36.176 36.2891 36.656C36.1051 37.136 35.7971 37.504 35.3651 37.76C34.9411 38.016 34.3611 38.144 33.6251 38.144ZM33.6251 36.62C33.8491 36.62 34.0131 36.564 34.1171 36.452C34.2211 36.34 34.2891 36.196 34.3211 36.02C34.3531 35.844 34.3691 35.664 34.3691 35.48V30.8C34.3691 30.608 34.3531 30.428 34.3211 30.26C34.2891 30.084 34.2211 29.94 34.1171 29.828C34.0131 29.716 33.8491 29.66 33.6251 29.66C33.4171 29.66 33.2611 29.716 33.1571 29.828C33.0531 29.94 32.9851 30.084 32.9531 30.26C32.9211 30.428 32.9051 30.608 32.9051 30.8V35.48C32.9051 35.664 32.9171 35.844 32.9411 36.02C32.9731 36.196 33.0371 36.34 33.1331 36.452C33.2371 36.564 33.4011 36.62 33.6251 36.62ZM37.9083 38V28.28H39.6003V33.848L42.0843 28.28H43.4763V38H41.7483V32.336L39.2163 38H37.9083ZM44.9865 38V28.28H49.4865V29.876H47.1345V38H44.9865ZM50.5052 38V28.28H53.7692C54.3532 28.28 54.8332 28.392 55.2092 28.616C55.5852 28.832 55.8652 29.152 56.0492 29.576C56.2332 29.992 56.3252 30.5 56.3252 31.1C56.3252 31.852 56.2012 32.428 55.9532 32.828C55.7052 33.22 55.3692 33.492 54.9452 33.644C54.5212 33.796 54.0452 33.872 53.5172 33.872H52.6532V38H50.5052ZM52.6532 32.372H53.3732C53.6372 32.372 53.8372 32.324 53.9732 32.228C54.1092 32.132 54.1972 31.988 54.2372 31.796C54.2852 31.604 54.3092 31.36 54.3092 31.064C54.3092 30.816 54.2892 30.6 54.2492 30.416C54.2172 30.224 54.1332 30.072 53.9972 29.96C53.8612 29.848 53.6492 29.792 53.3612 29.792H52.6532V32.372ZM57.3966 38V28.28H59.5446V32.384H60.0246C60.6406 32.384 61.1606 32.484 61.5846 32.684C62.0166 32.884 62.3406 33.192 62.5566 33.608C62.7806 34.016 62.8926 34.544 62.8926 35.192C62.8926 35.784 62.8126 36.264 62.6526 36.632C62.5006 37 62.2846 37.284 62.0046 37.484C61.7246 37.684 61.4006 37.82 61.0326 37.892C60.6646 37.964 60.2646 38 59.8326 38H57.3966ZM59.5446 36.596H59.8446C60.1166 36.596 60.3286 36.544 60.4806 36.44C60.6406 36.336 60.7526 36.176 60.8166 35.96C60.8886 35.744 60.9206 35.472 60.9126 35.144C60.9046 34.784 60.8286 34.484 60.6846 34.244C60.5406 33.996 60.2526 33.872 59.8206 33.872H59.5446V36.596ZM63.7086 38V28.28H65.8566V38H63.7086ZM67.3693 38V28.28H69.3973V36.464H70.5853V28.28H72.6013V36.464H73.7413V28.28H75.7573V38H67.3693Z"></path>
<path fill="white" d="M16.53 57.23V56.36C16.8767 56.3933 17.1433 56.3933 17.33 56.36C17.5233 56.3267 17.6567 56.2567 17.73 56.15C17.81 56.05 17.85 55.9133 17.85 55.74C17.85 55.56 17.83 55.3467 17.79 55.1L16.19 47.9H17.26L17.94 51.35L18.35 53.92L18.71 51.37L19.32 47.9H20.4L18.95 55.12C18.8833 55.4467 18.8267 55.7333 18.78 55.98C18.74 56.2267 18.68 56.4367 18.6 56.61C18.5267 56.7833 18.4133 56.92 18.26 57.02C18.1067 57.12 17.89 57.1867 17.61 57.22C17.3367 57.2533 16.9767 57.2567 16.53 57.23ZM23.4366 56V47.9H25.2966C25.6633 47.9 25.98 47.94 26.2466 48.02C26.52 48.1 26.7466 48.2233 26.9266 48.39C27.1066 48.5567 27.24 48.77 27.3266 49.03C27.4133 49.2833 27.4566 49.5833 27.4566 49.93C27.4566 50.2633 27.4133 50.5533 27.3266 50.8C27.2466 51.04 27.12 51.23 26.9466 51.37C26.78 51.51 26.5633 51.6 26.2966 51.64C26.6233 51.7133 26.8866 51.84 27.0866 52.02C27.2866 52.1933 27.4333 52.42 27.5266 52.7C27.6266 52.9733 27.6766 53.3033 27.6766 53.69C27.6766 54.0367 27.6366 54.3533 27.5566 54.64C27.4766 54.9267 27.35 55.17 27.1766 55.37C27.01 55.57 26.7933 55.7267 26.5266 55.84C26.2666 55.9467 25.9566 56 25.5966 56H23.4366ZM24.5666 55.19H25.3266C25.8333 55.19 26.17 55.0733 26.3366 54.84C26.51 54.6 26.5966 54.2167 26.5966 53.69C26.5966 53.35 26.55 53.0667 26.4566 52.84C26.37 52.6067 26.2266 52.4333 26.0266 52.32C25.8333 52.2 25.57 52.14 25.2366 52.14H24.5666V55.19ZM24.5666 51.28H25.2366C25.5566 51.28 25.8066 51.2367 25.9866 51.15C26.1666 51.0567 26.2933 50.91 26.3666 50.71C26.44 50.51 26.4766 50.25 26.4766 49.93C26.4766 49.5567 26.42 49.2867 26.3066 49.12C26.1933 48.9533 26.0166 48.85 25.7766 48.81C25.5366 48.7633 25.2233 48.74 24.8366 48.74H24.5666V51.28ZM29.6308 56.08C29.4041 56.08 29.2041 56.0167 29.0308 55.89C28.8574 55.7567 28.7208 55.59 28.6208 55.39C28.5208 55.1833 28.4708 54.9667 28.4708 54.74C28.4708 54.38 28.5308 54.0767 28.6508 53.83C28.7708 53.5833 28.9341 53.3767 29.1408 53.21C29.3541 53.0367 29.5974 52.8867 29.8708 52.76C30.1508 52.6333 30.4441 52.51 30.7508 52.39V51.98C30.7508 51.7467 30.7374 51.5533 30.7108 51.4C30.6841 51.2467 30.6274 51.1333 30.5408 51.06C30.4608 50.98 30.3374 50.94 30.1708 50.94C30.0241 50.94 29.9041 50.9733 29.8108 51.04C29.7241 51.1067 29.6608 51.2033 29.6208 51.33C29.5808 51.45 29.5608 51.5933 29.5608 51.76V52.05L28.5008 52.01C28.5141 51.37 28.6608 50.9 28.9408 50.6C29.2208 50.2933 29.6541 50.14 30.2408 50.14C30.8141 50.14 31.2208 50.2967 31.4608 50.61C31.7008 50.9233 31.8208 51.3767 31.8208 51.97V54.61C31.8208 54.79 31.8241 54.9633 31.8308 55.13C31.8441 55.2967 31.8574 55.4533 31.8708 55.6C31.8908 55.74 31.9074 55.8733 31.9208 56H30.9408C30.9208 55.8933 30.8941 55.76 30.8608 55.6C30.8341 55.4333 30.8141 55.2833 30.8008 55.15C30.7341 55.3767 30.6041 55.59 30.4108 55.79C30.2241 55.9833 29.9641 56.08 29.6308 56.08ZM30.0508 55.16C30.1574 55.16 30.2574 55.13 30.3508 55.07C30.4441 55.01 30.5274 54.9433 30.6008 54.87C30.6741 54.79 30.7241 54.7267 30.7508 54.68V53.04C30.5841 53.1333 30.4274 53.2267 30.2808 53.32C30.1341 53.4133 30.0041 53.5133 29.8908 53.62C29.7841 53.72 29.6974 53.8367 29.6308 53.97C29.5708 54.0967 29.5408 54.2433 29.5408 54.41C29.5408 54.6433 29.5841 54.8267 29.6708 54.96C29.7574 55.0933 29.8841 55.16 30.0508 55.16ZM34.4286 56.08C33.9553 56.08 33.5953 55.9867 33.3486 55.8C33.1086 55.6067 32.9453 55.3367 32.8586 54.99C32.7786 54.6433 32.7386 54.24 32.7386 53.78V52.45C32.7386 51.9633 32.7819 51.55 32.8686 51.21C32.9553 50.8633 33.1186 50.6 33.3586 50.42C33.6053 50.2333 33.9619 50.14 34.4286 50.14C34.8486 50.14 35.1719 50.21 35.3986 50.35C35.6319 50.4833 35.7919 50.6867 35.8786 50.96C35.9653 51.2267 36.0086 51.56 36.0086 51.96V52.3H35.0386V51.95C35.0386 51.6967 35.0219 51.4967 34.9886 51.35C34.9553 51.2033 34.8953 51.0967 34.8086 51.03C34.7219 50.9633 34.5986 50.93 34.4386 50.93C34.2653 50.93 34.1319 50.97 34.0386 51.05C33.9453 51.13 33.8819 51.2667 33.8486 51.46C33.8219 51.6467 33.8086 51.9033 33.8086 52.23V54.05C33.8086 54.5433 33.8553 54.8733 33.9486 55.04C34.0419 55.2067 34.2086 55.29 34.4486 55.29C34.6286 55.29 34.7586 55.25 34.8386 55.17C34.9253 55.0833 34.9786 54.9633 34.9986 54.81C35.0253 54.6567 35.0386 54.4833 35.0386 54.29V53.82H36.0086V54.22C36.0086 54.6067 35.9619 54.94 35.8686 55.22C35.7819 55.5 35.6219 55.7133 35.3886 55.86C35.1619 56.0067 34.8419 56.08 34.4286 56.08ZM40.6051 56.1C40.3384 56.1 40.1084 56.0633 39.9151 55.99C39.7217 55.9167 39.5617 55.8033 39.4351 55.65C39.3084 55.49 39.2151 55.2933 39.1551 55.06C39.0951 54.8267 39.0651 54.55 39.0651 54.23H39.9751C39.9751 54.6233 40.0317 54.9067 40.1451 55.08C40.2584 55.2533 40.4184 55.34 40.6251 55.34C40.8051 55.34 40.9351 55.2933 41.0151 55.2C41.0951 55.1067 41.1451 54.98 41.1651 54.82C41.1851 54.6533 41.1951 54.47 41.1951 54.27C41.1951 54.0167 41.1584 53.83 41.0851 53.71C41.0184 53.5833 40.8984 53.5 40.7251 53.46C40.5584 53.42 40.3251 53.4 40.0251 53.4V52.64C40.4917 52.64 40.8017 52.57 40.9551 52.43C41.1151 52.29 41.1951 52.06 41.1951 51.74C41.1951 51.4533 41.1351 51.2467 41.0151 51.12C40.8951 50.9933 40.7451 50.93 40.5651 50.93C40.3651 50.93 40.2051 50.9933 40.0851 51.12C39.9651 51.2467 39.9051 51.5 39.9051 51.88H38.9951C38.9951 51.4467 39.0584 51.1033 39.1851 50.85C39.3184 50.5967 39.5051 50.4167 39.7451 50.31C39.9917 50.1967 40.2784 50.14 40.6051 50.14C40.9651 50.14 41.2551 50.2133 41.4751 50.36C41.7017 50.5067 41.8651 50.7 41.9651 50.94C42.0717 51.1733 42.1251 51.42 42.1251 51.68C42.1251 52.0133 42.0717 52.2733 41.9651 52.46C41.8651 52.6467 41.7384 52.78 41.5851 52.86C41.4384 52.94 41.2951 52.9867 41.1551 53C41.3017 53.0267 41.4484 53.0767 41.5951 53.15C41.7484 53.2167 41.8751 53.3467 41.9751 53.54C42.0817 53.7267 42.1351 54.02 42.1351 54.42C42.1351 54.9667 42.0084 55.3833 41.7551 55.67C41.5017 55.9567 41.1184 56.1 40.6051 56.1ZM44.0351 56.08C43.8084 56.08 43.6084 56.0167 43.4351 55.89C43.2617 55.7567 43.1251 55.59 43.0251 55.39C42.9251 55.1833 42.8751 54.9667 42.8751 54.74C42.8751 54.38 42.9351 54.0767 43.0551 53.83C43.1751 53.5833 43.3384 53.3767 43.5451 53.21C43.7584 53.0367 44.0017 52.8867 44.2751 52.76C44.5551 52.6333 44.8484 52.51 45.1551 52.39V51.98C45.1551 51.7467 45.1417 51.5533 45.1151 51.4C45.0884 51.2467 45.0317 51.1333 44.9451 51.06C44.8651 50.98 44.7417 50.94 44.5751 50.94C44.4284 50.94 44.3084 50.9733 44.2151 51.04C44.1284 51.1067 44.0651 51.2033 44.0251 51.33C43.9851 51.45 43.9651 51.5933 43.9651 51.76V52.05L42.9051 52.01C42.9184 51.37 43.0651 50.9 43.3451 50.6C43.6251 50.2933 44.0584 50.14 44.6451 50.14C45.2184 50.14 45.6251 50.2967 45.8651 50.61C46.1051 50.9233 46.2251 51.3767 46.2251 51.97V54.61C46.2251 54.79 46.2284 54.9633 46.2351 55.13C46.2484 55.2967 46.2617 55.4533 46.2751 55.6C46.2951 55.74 46.3117 55.8733 46.3251 56H45.3451C45.3251 55.8933 45.2984 55.76 45.2651 55.6C45.2384 55.4333 45.2184 55.2833 45.2051 55.15C45.1384 55.3767 45.0084 55.59 44.8151 55.79C44.6284 55.9833 44.3684 56.08 44.0351 56.08ZM44.4551 55.16C44.5617 55.16 44.6617 55.13 44.7551 55.07C44.8484 55.01 44.9317 54.9433 45.0051 54.87C45.0784 54.79 45.1284 54.7267 45.1551 54.68V53.04C44.9884 53.1333 44.8317 53.2267 44.6851 53.32C44.5384 53.4133 44.4084 53.5133 44.2951 53.62C44.1884 53.72 44.1017 53.8367 44.0351 53.97C43.9751 54.0967 43.9451 54.2433 43.9451 54.41C43.9451 54.6433 43.9884 54.8267 44.0751 54.96C44.1617 55.0933 44.2884 55.16 44.4551 55.16ZM47.2529 56V50.22H48.3229V52.66H48.6229L49.7129 50.22H50.8129L49.6029 53.02L50.8329 56H49.7129L48.6229 53.3H48.3229V56H47.2529ZM52.9933 56.08C52.5666 56.08 52.2299 55.9933 51.9833 55.82C51.7366 55.6467 51.5599 55.4 51.4533 55.08C51.3533 54.76 51.3033 54.3833 51.3033 53.95V52.27C51.3033 51.8367 51.3533 51.46 51.4533 51.14C51.5599 50.82 51.7366 50.5733 51.9833 50.4C52.2299 50.2267 52.5666 50.14 52.9933 50.14C53.4199 50.14 53.7533 50.2267 53.9933 50.4C54.2399 50.5733 54.4133 50.82 54.5133 51.14C54.6199 51.46 54.6733 51.8367 54.6733 52.27V53.95C54.6733 54.3833 54.6199 54.76 54.5133 55.08C54.4133 55.4 54.2399 55.6467 53.9933 55.82C53.7533 55.9933 53.4199 56.08 52.9933 56.08ZM52.9933 55.29C53.1999 55.29 53.3433 55.23 53.4233 55.11C53.5099 54.99 53.5599 54.8333 53.5733 54.64C53.5933 54.44 53.6033 54.2333 53.6033 54.02V52.21C53.6033 51.99 53.5933 51.7833 53.5733 51.59C53.5599 51.3967 53.5099 51.24 53.4233 51.12C53.3433 50.9933 53.1999 50.93 52.9933 50.93C52.7866 50.93 52.6399 50.9933 52.5533 51.12C52.4666 51.24 52.4133 51.3967 52.3933 51.59C52.3799 51.7833 52.3733 51.99 52.3733 52.21V54.02C52.3733 54.2333 52.3799 54.44 52.3933 54.64C52.4133 54.8333 52.4666 54.99 52.5533 55.11C52.6399 55.23 52.7866 55.29 52.9933 55.29ZM55.6513 56V50.22H56.7213V52.65H58.0913V50.22H59.1613V56H58.0913V53.43H56.7213V56H55.6513ZM62.4112 56V53.71C62.2845 53.7233 62.1578 53.7367 62.0312 53.75C61.9045 53.7633 61.7745 53.77 61.6412 53.77C61.3545 53.77 61.0912 53.73 60.8512 53.65C60.6112 53.57 60.4212 53.4267 60.2812 53.22C60.1412 53.0067 60.0712 52.71 60.0712 52.33V50.22H61.1412V52.34C61.1412 52.5467 61.1878 52.71 61.2812 52.83C61.3812 52.95 61.5845 53.01 61.8912 53.01C61.9712 53.01 62.0545 53.0067 62.1412 53C62.2278 52.9867 62.3178 52.9733 62.4112 52.96V50.22H63.4812V56H62.4112ZM64.5673 56V50.22H65.4673V54.11L67.2073 50.22H68.0473V56H67.1673V52.08L65.4373 56H64.5673ZM68.7677 56.05V55.24C68.9677 55.24 69.1243 55.2 69.2377 55.12C69.3577 55.04 69.4477 54.9067 69.5077 54.72C69.5743 54.5267 69.6243 54.27 69.6577 53.95C69.691 53.6233 69.721 53.2167 69.7477 52.73L69.8777 50.22H72.9077V56H71.8377V51.03H70.8177L70.7277 52.73C70.6943 53.39 70.6443 53.9367 70.5777 54.37C70.5177 54.8033 70.421 55.1433 70.2877 55.39C70.1543 55.63 69.9743 55.8 69.7477 55.9C69.5277 56 69.241 56.05 68.8877 56.05H68.7677ZM75.5812 56.08C75.1545 56.08 74.8178 55.9933 74.5712 55.82C74.3245 55.6467 74.1478 55.4 74.0412 55.08C73.9412 54.76 73.8912 54.3833 73.8912 53.95V52.27C73.8912 51.8367 73.9412 51.46 74.0412 51.14C74.1478 50.82 74.3245 50.5733 74.5712 50.4C74.8178 50.2267 75.1545 50.14 75.5812 50.14C76.0078 50.14 76.3412 50.2267 76.5812 50.4C76.8278 50.5733 77.0012 50.82 77.1012 51.14C77.2078 51.46 77.2612 51.8367 77.2612 52.27V53.95C77.2612 54.3833 77.2078 54.76 77.1012 55.08C77.0012 55.4 76.8278 55.6467 76.5812 55.82C76.3412 55.9933 76.0078 56.08 75.5812 56.08ZM75.5812 55.29C75.7878 55.29 75.9312 55.23 76.0112 55.11C76.0978 54.99 76.1478 54.8333 76.1612 54.64C76.1812 54.44 76.1912 54.2333 76.1912 54.02V52.21C76.1912 51.99 76.1812 51.7833 76.1612 51.59C76.1478 51.3967 76.0978 51.24 76.0112 51.12C75.9312 50.9933 75.7878 50.93 75.5812 50.93C75.3745 50.93 75.2278 50.9933 75.1412 51.12C75.0545 51.24 75.0012 51.3967 74.9812 51.59C74.9678 51.7833 74.9612 51.99 74.9612 52.21V54.02C74.9612 54.2333 74.9678 54.44 74.9812 54.64C75.0012 54.8333 75.0545 54.99 75.1412 55.11C75.2278 55.23 75.3745 55.29 75.5812 55.29ZM79.8192 56.08C79.3459 56.08 78.9859 55.9867 78.7392 55.8C78.4992 55.6067 78.3359 55.3367 78.2492 54.99C78.1692 54.6433 78.1292 54.24 78.1292 53.78V52.45C78.1292 51.9633 78.1726 51.55 78.2592 51.21C78.3459 50.8633 78.5092 50.6 78.7492 50.42C78.9959 50.2333 79.3526 50.14 79.8192 50.14C80.2392 50.14 80.5626 50.21 80.7892 50.35C81.0226 50.4833 81.1826 50.6867 81.2692 50.96C81.3559 51.2267 81.3992 51.56 81.3992 51.96V52.3H80.4292V51.95C80.4292 51.6967 80.4126 51.4967 80.3792 51.35C80.3459 51.2033 80.2859 51.0967 80.1992 51.03C80.1126 50.9633 79.9892 50.93 79.8292 50.93C79.6559 50.93 79.5226 50.97 79.4292 51.05C79.3359 51.13 79.2726 51.2667 79.2392 51.46C79.2126 51.6467 79.1992 51.9033 79.1992 52.23V54.05C79.1992 54.5433 79.2459 54.8733 79.3392 55.04C79.4326 55.2067 79.5992 55.29 79.8392 55.29C80.0192 55.29 80.1492 55.25 80.2292 55.17C80.3159 55.0833 80.3692 54.9633 80.3892 54.81C80.4159 54.6567 80.4292 54.4833 80.4292 54.29V53.82H81.3992V54.22C81.3992 54.6067 81.3526 54.94 81.2592 55.22C81.1726 55.5 81.0126 55.7133 80.7792 55.86C80.5526 56.0067 80.2326 56.08 79.8192 56.08ZM82.3505 56V50.22H83.4205V52.61C83.4339 52.61 83.4505 52.61 83.4705 52.61C83.4972 52.61 83.5205 52.61 83.5405 52.61C83.5605 52.61 83.5772 52.61 83.5905 52.61C83.9839 52.6167 84.3172 52.6467 84.5905 52.7C84.8705 52.7467 85.0972 52.8333 85.2705 52.96C85.4439 53.08 85.5705 53.25 85.6505 53.47C85.7305 53.6833 85.7705 53.96 85.7705 54.3C85.7705 54.6133 85.7305 54.88 85.6505 55.1C85.5705 55.3133 85.4405 55.4867 85.2605 55.62C85.0805 55.7533 84.8439 55.85 84.5505 55.91C84.2572 55.97 83.9005 56 83.4805 56H82.3505ZM83.4205 55.37H83.4805C83.8205 55.37 84.0872 55.34 84.2805 55.28C84.4739 55.22 84.6105 55.1133 84.6905 54.96C84.7705 54.8 84.8105 54.5767 84.8105 54.29C84.8105 54.03 84.7739 53.8267 84.7005 53.68C84.6339 53.5267 84.5072 53.4167 84.3205 53.35C84.1405 53.2767 83.8772 53.24 83.5305 53.24C83.5239 53.24 83.5072 53.24 83.4805 53.24C83.4539 53.24 83.4339 53.24 83.4205 53.24V55.37ZM88.7861 56V50.22H90.4061C90.7994 50.22 91.1061 50.2867 91.3261 50.42C91.5528 50.5467 91.7128 50.7167 91.8061 50.93C91.9061 51.1367 91.9594 51.36 91.9661 51.6C91.9728 51.8867 91.9261 52.1433 91.8261 52.37C91.7261 52.5967 91.5194 52.7567 91.2061 52.85C91.4461 52.8967 91.6294 52.9967 91.7561 53.15C91.8894 53.2967 91.9794 53.4733 92.0261 53.68C92.0794 53.8867 92.1061 54.1 92.1061 54.32C92.1061 54.6533 92.0561 54.9467 91.9561 55.2C91.8628 55.4533 91.6961 55.65 91.4561 55.79C91.2228 55.93 90.8894 56 90.4561 56H88.7861ZM89.8361 55.19H90.2161C90.3694 55.19 90.5094 55.17 90.6361 55.13C90.7628 55.0833 90.8628 54.9933 90.9361 54.86C91.0161 54.7267 91.0561 54.5333 91.0561 54.28C91.0561 53.98 91.0194 53.7633 90.9461 53.63C90.8794 53.49 90.7861 53.4033 90.6661 53.37C90.5528 53.3367 90.4194 53.32 90.2661 53.32H89.8361V55.19ZM89.8361 52.55H90.3561C90.5628 52.55 90.7261 52.49 90.8461 52.37C90.9661 52.25 91.0261 52.0367 91.0261 51.73C91.0261 51.4567 90.9561 51.2667 90.8161 51.16C90.6761 51.0533 90.4861 51 90.2461 51H89.8361V52.55ZM92.9365 57.9V50.22H94.0065V50.68C94.1332 50.5333 94.2865 50.4067 94.4665 50.3C94.6465 50.1933 94.8598 50.14 95.1065 50.14C95.4065 50.14 95.6432 50.22 95.8165 50.38C95.9965 50.5333 96.1298 50.73 96.2165 50.97C96.3032 51.2033 96.3598 51.4433 96.3865 51.69C96.4132 51.93 96.4265 52.1367 96.4265 52.31V53.71C96.4265 54.1167 96.3865 54.5033 96.3065 54.87C96.2265 55.23 96.0798 55.5233 95.8665 55.75C95.6598 55.97 95.3665 56.08 94.9865 56.08C94.7798 56.08 94.5965 56.03 94.4365 55.93C94.2765 55.8233 94.1332 55.7033 94.0065 55.57V57.9H92.9365ZM94.7765 55.24C94.9632 55.24 95.0965 55.1733 95.1765 55.04C95.2565 54.9 95.3065 54.7133 95.3265 54.48C95.3465 54.2467 95.3565 53.99 95.3565 53.71V52.31C95.3565 52.07 95.3432 51.85 95.3165 51.65C95.2898 51.4433 95.2332 51.28 95.1465 51.16C95.0598 51.04 94.9232 50.98 94.7365 50.98C94.5965 50.98 94.4632 51.01 94.3365 51.07C94.2098 51.13 94.0998 51.2 94.0065 51.28V54.98C94.1065 55.0533 94.2198 55.1167 94.3465 55.17C94.4732 55.2167 94.6165 55.24 94.7765 55.24ZM98.9994 56.08C98.546 56.08 98.196 55.9933 97.9494 55.82C97.7027 55.64 97.5294 55.38 97.4294 55.04C97.336 54.6933 97.2894 54.27 97.2894 53.77V52.45C97.2894 51.9367 97.3394 51.51 97.4394 51.17C97.5394 50.83 97.7127 50.5733 97.9594 50.4C98.2127 50.2267 98.5594 50.14 98.9994 50.14C99.486 50.14 99.8427 50.24 100.069 50.44C100.303 50.64 100.456 50.93 100.529 51.31C100.603 51.6833 100.639 52.1333 100.639 52.66V53.13H98.3594V54.29C98.3594 54.5233 98.3794 54.7133 98.4194 54.86C98.466 55.0067 98.536 55.1167 98.6294 55.19C98.7294 55.2567 98.856 55.29 99.0094 55.29C99.1694 55.29 99.2894 55.2533 99.3694 55.18C99.456 55.1 99.5127 54.99 99.5394 54.85C99.5727 54.7033 99.5894 54.5333 99.5894 54.34V53.99H100.629V54.21C100.629 54.79 100.506 55.2467 100.259 55.58C100.013 55.9133 99.5927 56.08 98.9994 56.08ZM98.3594 52.55H99.5894V52.03C99.5894 51.79 99.576 51.59 99.5494 51.43C99.5227 51.2633 99.466 51.14 99.3794 51.06C99.2994 50.9733 99.1694 50.93 98.9894 50.93C98.816 50.93 98.6827 50.97 98.5894 51.05C98.5027 51.13 98.4427 51.2667 98.4094 51.46C98.376 51.6467 98.3594 51.9067 98.3594 52.24V52.55ZM101.578 56L101.638 50.22H102.428L103.708 53.77L104.998 50.22H105.788L105.848 56H104.948V52.55L103.878 55.43H103.548L102.478 52.57V56H101.578ZM106.461 56L107.551 53.55C107.365 53.4767 107.211 53.3667 107.091 53.22C106.978 53.0733 106.895 52.8933 106.841 52.68C106.788 52.4667 106.761 52.2267 106.761 51.96C106.761 51.6533 106.801 51.39 106.881 51.17C106.961 50.95 107.088 50.77 107.261 50.63C107.435 50.49 107.665 50.3867 107.951 50.32C108.238 50.2533 108.591 50.22 109.011 50.22H110.131V56H109.071V53.72C108.965 53.72 108.875 53.72 108.801 53.72C108.728 53.7133 108.648 53.7067 108.561 53.7L107.611 56H106.461ZM108.951 53.1C108.965 53.1 108.985 53.1 109.011 53.1C109.045 53.1 109.065 53.1 109.071 53.1V50.83C109.065 50.83 109.045 50.83 109.011 50.83C108.985 50.83 108.968 50.83 108.961 50.83C108.648 50.83 108.398 50.87 108.211 50.95C108.031 51.0233 107.905 51.1433 107.831 51.31C107.758 51.47 107.721 51.6867 107.721 51.96C107.721 52.34 107.805 52.6233 107.971 52.81C108.145 52.9967 108.471 53.0933 108.951 53.1Z"></path>
</svg>
