<svg xmlns="http://www.w3.org/2000/svg" fill="none" viewBox="0 0 13 18" height="18" width="13">
<rect fill-opacity="0.01" fill="#0D0E12" height="18" width="13"></rect>
<path fill="white" d="M0.492 14V12.584L2.82 9.008C2.996 8.744 3.16 8.488 3.312 8.24C3.472 7.992 3.6 7.74 3.696 7.484C3.8 7.228 3.852 6.96 3.852 6.68C3.852 6.4 3.796 6.192 3.684 6.056C3.572 5.92 3.42 5.852 3.228 5.852C3.012 5.852 2.844 5.912 2.724 6.032C2.604 6.152 2.52 6.312 2.472 6.512C2.432 6.712 2.412 6.936 2.412 7.184V7.664H0.468V7.148C0.468 6.572 0.56 6.06 0.744 5.612C0.928 5.156 1.22 4.8 1.62 4.544C2.02 4.28 2.544 4.148 3.192 4.148C4.064 4.148 4.72 4.376 5.16 4.832C5.608 5.28 5.832 5.908 5.832 6.716C5.832 7.108 5.768 7.472 5.64 7.808C5.52 8.144 5.356 8.472 5.148 8.792C4.948 9.104 4.732 9.432 4.5 9.776L2.724 12.428H5.568V14H0.492ZM9.22406 14.18C8.51206 14.18 7.97206 14.056 7.60406 13.808C7.24406 13.552 7.00006 13.196 6.87206 12.74C6.74406 12.284 6.68006 11.756 6.68006 11.156H8.61206C8.61206 11.524 8.63206 11.824 8.67206 12.056C8.71206 12.288 8.78406 12.456 8.88806 12.56C9.00006 12.656 9.15606 12.7 9.35606 12.692C9.56406 12.684 9.71206 12.6 9.80006 12.44C9.88806 12.28 9.94006 12.052 9.95606 11.756C9.98006 11.452 9.99206 11.088 9.99206 10.664C9.99206 10.344 9.97206 10.06 9.93206 9.812C9.90006 9.564 9.82806 9.368 9.71606 9.224C9.61206 9.072 9.45206 8.996 9.23606 8.996C9.03606 8.996 8.87206 9.068 8.74406 9.212C8.61606 9.356 8.52406 9.58 8.46806 9.884H6.74006L6.92006 4.28H11.4561V5.96H8.52806L8.42006 7.964C8.50006 7.852 8.65206 7.756 8.87606 7.676C9.10006 7.588 9.34006 7.532 9.59606 7.508C10.0921 7.452 10.5081 7.544 10.8441 7.784C11.1881 8.016 11.4441 8.372 11.6121 8.852C11.7881 9.332 11.8761 9.92 11.8761 10.616C11.8761 11.136 11.8441 11.616 11.7801 12.056C11.7161 12.488 11.5921 12.864 11.4081 13.184C11.2241 13.496 10.9561 13.74 10.6041 13.916C10.2521 14.092 9.79206 14.18 9.22406 14.18Z"></path>
</svg>
