<svg xmlns="http://www.w3.org/2000/svg" fill="none" viewBox="0 0 214 84" height="84" width="214">
<mask fill="white" id="path-1-inside-1_1612_2">
<path d="M0 0H214V84H0V0Z"></path>
</mask>
<path fill="#0D0E12" d="M0 0H214V84H0V0Z"></path>
<path mask="url(#path-1-inside-1_1612_2)" fill="white" d="M0 0V-1H-1V0H0ZM0 84H-1V85H0V84ZM0 1H214V-1H0V1ZM214 83H0V85H214V83ZM1 84V0H-1V84H1Z"></path>
<path fill="white" d="M19.504 38.144C18.768 38.144 18.184 38.012 17.752 37.748C17.328 37.476 17.028 37.1 16.852 36.62C16.676 36.132 16.588 35.56 16.588 34.904V31.4C16.588 30.728 16.676 30.152 16.852 29.672C17.028 29.184 17.328 28.808 17.752 28.544C18.184 28.28 18.768 28.148 19.504 28.148C20.224 28.148 20.784 28.268 21.184 28.508C21.592 28.74 21.88 29.068 22.048 29.492C22.216 29.916 22.3 30.404 22.3 30.956V31.796H20.2V30.824C20.2 30.632 20.188 30.448 20.164 30.272C20.148 30.096 20.092 29.952 19.996 29.84C19.9 29.72 19.736 29.66 19.504 29.66C19.28 29.66 19.112 29.72 19 29.84C18.896 29.96 18.828 30.112 18.796 30.296C18.772 30.472 18.76 30.66 18.76 30.86V35.432C18.76 35.648 18.776 35.848 18.808 36.032C18.848 36.208 18.92 36.352 19.024 36.464C19.136 36.568 19.296 36.62 19.504 36.62C19.728 36.62 19.888 36.564 19.984 36.452C20.08 36.332 20.14 36.18 20.164 35.996C20.188 35.812 20.2 35.624 20.2 35.432V34.412H22.3V35.252C22.3 35.804 22.216 36.3 22.048 36.74C21.888 37.172 21.604 37.516 21.196 37.772C20.796 38.02 20.232 38.144 19.504 38.144ZM26.2657 38.144C25.5377 38.144 24.9617 38.016 24.5377 37.76C24.1137 37.504 23.8097 37.136 23.6257 36.656C23.4417 36.176 23.3497 35.604 23.3497 34.94V31.328C23.3497 30.656 23.4417 30.084 23.6257 29.612C23.8097 29.14 24.1137 28.78 24.5377 28.532C24.9617 28.276 25.5377 28.148 26.2657 28.148C27.0017 28.148 27.5817 28.276 28.0057 28.532C28.4377 28.78 28.7457 29.14 28.9297 29.612C29.1137 30.084 29.2057 30.656 29.2057 31.328V34.94C29.2057 35.604 29.1137 36.176 28.9297 36.656C28.7457 37.136 28.4377 37.504 28.0057 37.76C27.5817 38.016 27.0017 38.144 26.2657 38.144ZM26.2657 36.62C26.4897 36.62 26.6537 36.564 26.7577 36.452C26.8617 36.34 26.9297 36.196 26.9617 36.02C26.9937 35.844 27.0097 35.664 27.0097 35.48V30.8C27.0097 30.608 26.9937 30.428 26.9617 30.26C26.9297 30.084 26.8617 29.94 26.7577 29.828C26.6537 29.716 26.4897 29.66 26.2657 29.66C26.0577 29.66 25.9017 29.716 25.7977 29.828C25.6937 29.94 25.6257 30.084 25.5937 30.26C25.5617 30.428 25.5457 30.608 25.5457 30.8V35.48C25.5457 35.664 25.5577 35.844 25.5817 36.02C25.6137 36.196 25.6777 36.34 25.7737 36.452C25.8777 36.564 26.0417 36.62 26.2657 36.62ZM33.297 38.144C32.569 38.144 31.993 38.016 31.569 37.76C31.145 37.504 30.841 37.136 30.657 36.656C30.473 36.176 30.381 35.604 30.381 34.94V31.328C30.381 30.656 30.473 30.084 30.657 29.612C30.841 29.14 31.145 28.78 31.569 28.532C31.993 28.276 32.569 28.148 33.297 28.148C34.033 28.148 34.613 28.276 35.037 28.532C35.469 28.78 35.777 29.14 35.961 29.612C36.145 30.084 36.237 30.656 36.237 31.328V34.94C36.237 35.604 36.145 36.176 35.961 36.656C35.777 37.136 35.469 37.504 35.037 37.76C34.613 38.016 34.033 38.144 33.297 38.144ZM33.297 36.62C33.521 36.62 33.685 36.564 33.789 36.452C33.893 36.34 33.961 36.196 33.993 36.02C34.025 35.844 34.041 35.664 34.041 35.48V30.8C34.041 30.608 34.025 30.428 33.993 30.26C33.961 30.084 33.893 29.94 33.789 29.828C33.685 29.716 33.521 29.66 33.297 29.66C33.089 29.66 32.933 29.716 32.829 29.828C32.725 29.94 32.657 30.084 32.625 30.26C32.593 30.428 32.577 30.608 32.577 30.8V35.48C32.577 35.664 32.589 35.844 32.613 36.02C32.645 36.196 32.709 36.34 32.805 36.452C32.909 36.564 33.073 36.62 33.297 36.62ZM37.5802 38V28.28H42.4042V29.912H39.7282V32.384H40.1842C40.8002 32.384 41.3202 32.484 41.7442 32.684C42.1762 32.884 42.5042 33.192 42.7282 33.608C42.9522 34.016 43.0642 34.544 43.0642 35.192C43.0642 35.784 42.9842 36.264 42.8242 36.632C42.6722 37 42.4562 37.284 42.1762 37.484C41.8962 37.684 41.5682 37.82 41.1922 37.892C40.8242 37.964 40.4242 38 39.9922 38H37.5802ZM39.7282 36.596H40.0042C40.2762 36.596 40.4922 36.544 40.6522 36.44C40.8122 36.336 40.9242 36.176 40.9882 35.96C41.0522 35.744 41.0802 35.472 41.0722 35.144C41.0642 34.784 40.9882 34.484 40.8442 34.244C40.7002 33.996 40.4122 33.872 39.9802 33.872H39.7282V36.596ZM52.3728 40.1L52.1208 38H44.2248V28.28H46.2528V36.548H47.4408V28.28H49.4568V36.548H50.5968V28.28H52.6248V36.548H53.9448V40.1H52.3728ZM55.1809 38V28.28H59.5489V29.744H57.3289V32.156H59.0209V33.644H57.3289V36.548H59.5729V38H55.1809ZM60.5841 38V28.28H62.7321V32.216H64.2321V28.28H66.3921V38H64.2321V33.752H62.7321V38H60.5841ZM67.9083 38V28.28H69.6003V33.848L72.0843 28.28H73.4763V38H71.7483V32.336L69.2163 38H67.9083ZM74.9505 38V28.28H79.3185V29.744H77.0985V32.156H78.7905V33.644H77.0985V36.548H79.3425V38H74.9505Z"></path>
<path fill="white" d="M16.63 56V47.9H18.49C18.8567 47.9 19.1733 47.94 19.44 48.02C19.7133 48.1 19.94 48.2233 20.12 48.39C20.3 48.5567 20.4333 48.77 20.52 49.03C20.6067 49.2833 20.65 49.5833 20.65 49.93C20.65 50.2633 20.6067 50.5533 20.52 50.8C20.44 51.04 20.3133 51.23 20.14 51.37C19.9733 51.51 19.7567 51.6 19.49 51.64C19.8167 51.7133 20.08 51.84 20.28 52.02C20.48 52.1933 20.6267 52.42 20.72 52.7C20.82 52.9733 20.87 53.3033 20.87 53.69C20.87 54.0367 20.83 54.3533 20.75 54.64C20.67 54.9267 20.5433 55.17 20.37 55.37C20.2033 55.57 19.9867 55.7267 19.72 55.84C19.46 55.9467 19.15 56 18.79 56H16.63ZM17.76 55.19H18.52C19.0267 55.19 19.3633 55.0733 19.53 54.84C19.7033 54.6 19.79 54.2167 19.79 53.69C19.79 53.35 19.7433 53.0667 19.65 52.84C19.5633 52.6067 19.42 52.4333 19.22 52.32C19.0267 52.2 18.7633 52.14 18.43 52.14H17.76V55.19ZM17.76 51.28H18.43C18.75 51.28 19 51.2367 19.18 51.15C19.36 51.0567 19.4867 50.91 19.56 50.71C19.6333 50.51 19.67 50.25 19.67 49.93C19.67 49.5567 19.6133 49.2867 19.5 49.12C19.3867 48.9533 19.21 48.85 18.97 48.81C18.73 48.7633 18.4167 48.74 18.03 48.74H17.76V51.28ZM23.3741 56.08C22.9475 56.08 22.6108 55.9933 22.3641 55.82C22.1175 55.6467 21.9408 55.4 21.8341 55.08C21.7341 54.76 21.6841 54.3833 21.6841 53.95V52.27C21.6841 51.8367 21.7341 51.46 21.8341 51.14C21.9408 50.82 22.1175 50.5733 22.3641 50.4C22.6108 50.2267 22.9475 50.14 23.3741 50.14C23.8008 50.14 24.1341 50.2267 24.3741 50.4C24.6208 50.5733 24.7941 50.82 24.8941 51.14C25.0008 51.46 25.0541 51.8367 25.0541 52.27V53.95C25.0541 54.3833 25.0008 54.76 24.8941 55.08C24.7941 55.4 24.6208 55.6467 24.3741 55.82C24.1341 55.9933 23.8008 56.08 23.3741 56.08ZM23.3741 55.29C23.5808 55.29 23.7241 55.23 23.8041 55.11C23.8908 54.99 23.9408 54.8333 23.9541 54.64C23.9741 54.44 23.9841 54.2333 23.9841 54.02V52.21C23.9841 51.99 23.9741 51.7833 23.9541 51.59C23.9408 51.3967 23.8908 51.24 23.8041 51.12C23.7241 50.9933 23.5808 50.93 23.3741 50.93C23.1675 50.93 23.0208 50.9933 22.9341 51.12C22.8475 51.24 22.7941 51.3967 22.7741 51.59C22.7608 51.7833 22.7541 51.99 22.7541 52.21V54.02C22.7541 54.2333 22.7608 54.44 22.7741 54.64C22.7941 54.8333 22.8475 54.99 22.9341 55.11C23.0208 55.23 23.1675 55.29 23.3741 55.29ZM27.3922 56.1C27.1255 56.1 26.8955 56.0633 26.7022 55.99C26.5089 55.9167 26.3489 55.8033 26.2222 55.65C26.0955 55.49 26.0022 55.2933 25.9422 55.06C25.8822 54.8267 25.8522 54.55 25.8522 54.23H26.7622C26.7622 54.6233 26.8189 54.9067 26.9322 55.08C27.0455 55.2533 27.2055 55.34 27.4122 55.34C27.5922 55.34 27.7222 55.2933 27.8022 55.2C27.8822 55.1067 27.9322 54.98 27.9522 54.82C27.9722 54.6533 27.9822 54.47 27.9822 54.27C27.9822 54.0167 27.9455 53.83 27.8722 53.71C27.8055 53.5833 27.6855 53.5 27.5122 53.46C27.3455 53.42 27.1122 53.4 26.8122 53.4V52.64C27.2789 52.64 27.5889 52.57 27.7422 52.43C27.9022 52.29 27.9822 52.06 27.9822 51.74C27.9822 51.4533 27.9222 51.2467 27.8022 51.12C27.6822 50.9933 27.5322 50.93 27.3522 50.93C27.1522 50.93 26.9922 50.9933 26.8722 51.12C26.7522 51.2467 26.6922 51.5 26.6922 51.88H25.7822C25.7822 51.4467 25.8455 51.1033 25.9722 50.85C26.1055 50.5967 26.2922 50.4167 26.5322 50.31C26.7789 50.1967 27.0655 50.14 27.3922 50.14C27.7522 50.14 28.0422 50.2133 28.2622 50.36C28.4889 50.5067 28.6522 50.7 28.7522 50.94C28.8589 51.1733 28.9122 51.42 28.9122 51.68C28.9122 52.0133 28.8589 52.2733 28.7522 52.46C28.6522 52.6467 28.5255 52.78 28.3722 52.86C28.2255 52.94 28.0822 52.9867 27.9422 53C28.0889 53.0267 28.2355 53.0767 28.3822 53.15C28.5355 53.2167 28.6622 53.3467 28.7622 53.54C28.8689 53.7267 28.9222 54.02 28.9222 54.42C28.9222 54.9667 28.7955 55.3833 28.5422 55.67C28.2889 55.9567 27.9055 56.1 27.3922 56.1ZM29.7522 56L29.8122 50.22H30.6022L31.8822 53.77L33.1722 50.22H33.9622L34.0222 56H33.1222V52.55L32.0522 55.43H31.7222L30.6522 52.57V56H29.7522ZM36.6652 56.08C36.2385 56.08 35.9018 55.9933 35.6552 55.82C35.4085 55.6467 35.2318 55.4 35.1252 55.08C35.0252 54.76 34.9752 54.3833 34.9752 53.95V52.27C34.9752 51.8367 35.0252 51.46 35.1252 51.14C35.2318 50.82 35.4085 50.5733 35.6552 50.4C35.9018 50.2267 36.2385 50.14 36.6652 50.14C37.0918 50.14 37.4252 50.2267 37.6652 50.4C37.9118 50.5733 38.0852 50.82 38.1852 51.14C38.2918 51.46 38.3452 51.8367 38.3452 52.27V53.95C38.3452 54.3833 38.2918 54.76 38.1852 55.08C38.0852 55.4 37.9118 55.6467 37.6652 55.82C37.4252 55.9933 37.0918 56.08 36.6652 56.08ZM36.6652 55.29C36.8718 55.29 37.0152 55.23 37.0952 55.11C37.1818 54.99 37.2318 54.8333 37.2452 54.64C37.2652 54.44 37.2752 54.2333 37.2752 54.02V52.21C37.2752 51.99 37.2652 51.7833 37.2452 51.59C37.2318 51.3967 37.1818 51.24 37.0952 51.12C37.0152 50.9933 36.8718 50.93 36.6652 50.93C36.4585 50.93 36.3118 50.9933 36.2252 51.12C36.1385 51.24 36.0852 51.3967 36.0652 51.59C36.0518 51.7833 36.0452 51.99 36.0452 52.21V54.02C36.0452 54.2333 36.0518 54.44 36.0652 54.64C36.0852 54.8333 36.1385 54.99 36.2252 55.11C36.3118 55.23 36.4585 55.29 36.6652 55.29ZM38.7841 56L40.2341 53.05L38.8741 50.22H39.8941L41.1241 53H41.2041V50.22H42.0841V53H42.1641L43.3841 50.22H44.4041L43.0441 53.05L44.4941 56H43.5041L42.1641 53.16H42.0841V56H41.2041V53.16H41.1141L39.7741 56H38.7841ZM45.0752 56V50.22H46.1452V52.65H47.5152V50.22H48.5852V56H47.5152V53.43H46.1452V56H45.0752ZM51.255 56.08C50.8283 56.08 50.4917 55.9933 50.245 55.82C49.9983 55.6467 49.8217 55.4 49.715 55.08C49.615 54.76 49.565 54.3833 49.565 53.95V52.27C49.565 51.8367 49.615 51.46 49.715 51.14C49.8217 50.82 49.9983 50.5733 50.245 50.4C50.4917 50.2267 50.8283 50.14 51.255 50.14C51.6817 50.14 52.015 50.2267 52.255 50.4C52.5017 50.5733 52.675 50.82 52.775 51.14C52.8817 51.46 52.935 51.8367 52.935 52.27V53.95C52.935 54.3833 52.8817 54.76 52.775 55.08C52.675 55.4 52.5017 55.6467 52.255 55.82C52.015 55.9933 51.6817 56.08 51.255 56.08ZM51.255 55.29C51.4617 55.29 51.605 55.23 51.685 55.11C51.7717 54.99 51.8217 54.8333 51.835 54.64C51.855 54.44 51.865 54.2333 51.865 54.02V52.21C51.865 51.99 51.855 51.7833 51.835 51.59C51.8217 51.3967 51.7717 51.24 51.685 51.12C51.605 50.9933 51.4617 50.93 51.255 50.93C51.0483 50.93 50.9017 50.9933 50.815 51.12C50.7283 51.24 50.675 51.3967 50.655 51.59C50.6417 51.7833 50.635 51.99 50.635 52.21V54.02C50.635 54.2333 50.6417 54.44 50.655 54.64C50.675 54.8333 50.7283 54.99 50.815 55.11C50.9017 55.23 51.0483 55.29 51.255 55.29ZM53.943 57.31L53.773 56.85C53.953 56.79 54.093 56.6833 54.193 56.53C54.2997 56.3833 54.353 56.2067 54.353 56H53.783V54.85H54.883V55.98C54.883 56.3333 54.8064 56.6133 54.653 56.82C54.4997 57.0333 54.263 57.1967 53.943 57.31ZM59.5234 56.08C59.1034 56.08 58.7801 56.0133 58.5534 55.88C58.3268 55.7467 58.1668 55.5467 58.0734 55.28C57.9868 55.0133 57.9434 54.6833 57.9434 54.29V54.12H58.9134V54.29C58.9134 54.6567 58.9568 54.9167 59.0434 55.07C59.1301 55.2233 59.2868 55.3 59.5134 55.3C59.6934 55.3 59.8268 55.26 59.9134 55.18C60.0068 55.0933 60.0668 54.9567 60.0934 54.77C60.1268 54.5767 60.1434 54.32 60.1434 54V53.41H58.7634V52.81H60.1434V52.18C60.1434 51.8467 60.1234 51.5933 60.0834 51.42C60.0501 51.24 59.9868 51.1167 59.8934 51.05C59.8001 50.9767 59.6734 50.94 59.5134 50.94C59.2468 50.94 59.0801 51.0333 59.0134 51.22C58.9468 51.4 58.9134 51.6333 58.9134 51.92V52.2H57.9434V51.99C57.9434 51.6033 57.9901 51.2733 58.0834 51C58.1768 50.7267 58.3368 50.5167 58.5634 50.37C58.7968 50.2233 59.1201 50.15 59.5334 50.15C60.0068 50.15 60.3634 50.2467 60.6034 50.44C60.8434 50.6267 61.0034 50.8933 61.0834 51.24C61.1701 51.58 61.2134 51.9833 61.2134 52.45V53.78C61.2134 54.26 61.1701 54.6733 61.0834 55.02C60.9968 55.36 60.8301 55.6233 60.5834 55.81C60.3434 55.99 59.9901 56.08 59.5234 56.08ZM62.8345 56V51.02H61.7545V50.22H64.9945V51.02H63.9045V56H62.8345ZM67.173 56.08C66.7463 56.08 66.4096 55.9933 66.163 55.82C65.9163 55.6467 65.7396 55.4 65.633 55.08C65.533 54.76 65.483 54.3833 65.483 53.95V52.27C65.483 51.8367 65.533 51.46 65.633 51.14C65.7396 50.82 65.9163 50.5733 66.163 50.4C66.4096 50.2267 66.7463 50.14 67.173 50.14C67.5996 50.14 67.933 50.2267 68.173 50.4C68.4196 50.5733 68.593 50.82 68.693 51.14C68.7996 51.46 68.853 51.8367 68.853 52.27V53.95C68.853 54.3833 68.7996 54.76 68.693 55.08C68.593 55.4 68.4196 55.6467 68.173 55.82C67.933 55.9933 67.5996 56.08 67.173 56.08ZM67.173 55.29C67.3796 55.29 67.523 55.23 67.603 55.11C67.6896 54.99 67.7396 54.8333 67.753 54.64C67.773 54.44 67.783 54.2333 67.783 54.02V52.21C67.783 51.99 67.773 51.7833 67.753 51.59C67.7396 51.3967 67.6896 51.24 67.603 51.12C67.523 50.9933 67.3796 50.93 67.173 50.93C66.9663 50.93 66.8196 50.9933 66.733 51.12C66.6463 51.24 66.593 51.3967 66.573 51.59C66.5596 51.7833 66.553 51.99 66.553 52.21V54.02C66.553 54.2333 66.5596 54.44 66.573 54.64C66.593 54.8333 66.6463 54.99 66.733 55.11C66.8196 55.23 66.9663 55.29 67.173 55.29ZM72.1162 56V50.22H73.1862V52.66H73.4862L74.5762 50.22H75.6762L74.4662 53.02L75.6962 56H74.5762L73.4862 53.3H73.1862V56H72.1162ZM77.8566 56.08C77.4299 56.08 77.0932 55.9933 76.8466 55.82C76.5999 55.6467 76.4232 55.4 76.3166 55.08C76.2166 54.76 76.1666 54.3833 76.1666 53.95V52.27C76.1666 51.8367 76.2166 51.46 76.3166 51.14C76.4232 50.82 76.5999 50.5733 76.8466 50.4C77.0932 50.2267 77.4299 50.14 77.8566 50.14C78.2832 50.14 78.6166 50.2267 78.8566 50.4C79.1032 50.5733 79.2766 50.82 79.3766 51.14C79.4832 51.46 79.5366 51.8367 79.5366 52.27V53.95C79.5366 54.3833 79.4832 54.76 79.3766 55.08C79.2766 55.4 79.1032 55.6467 78.8566 55.82C78.6166 55.9933 78.2832 56.08 77.8566 56.08ZM77.8566 55.29C78.0632 55.29 78.2066 55.23 78.2866 55.11C78.3732 54.99 78.4232 54.8333 78.4366 54.64C78.4566 54.44 78.4666 54.2333 78.4666 54.02V52.21C78.4666 51.99 78.4566 51.7833 78.4366 51.59C78.4232 51.3967 78.3732 51.24 78.2866 51.12C78.2066 50.9933 78.0632 50.93 77.8566 50.93C77.6499 50.93 77.5032 50.9933 77.4166 51.12C77.3299 51.24 77.2766 51.3967 77.2566 51.59C77.2432 51.7833 77.2366 51.99 77.2366 52.21V54.02C77.2366 54.2333 77.2432 54.44 77.2566 54.64C77.2766 54.8333 77.3299 54.99 77.4166 55.11C77.5032 55.23 77.6499 55.29 77.8566 55.29ZM79.9946 57.47V55.29C80.1946 55.1367 80.3779 54.9533 80.5446 54.74C80.7113 54.5267 80.8579 54.2567 80.9846 53.93C81.1113 53.6033 81.2113 53.2 81.2846 52.72C81.3579 52.24 81.3979 51.66 81.4046 50.98L81.4246 50.22H84.0346V55.24H84.7346V57.47H83.9546L83.8646 56H80.8646L80.7746 57.47H79.9946ZM81.0346 55.24H83.0046V50.99H82.2546L82.2346 51.2C82.2279 51.9067 82.1913 52.4967 82.1246 52.97C82.0646 53.4367 81.9779 53.82 81.8646 54.12C81.7579 54.4133 81.6313 54.6467 81.4846 54.82C81.3446 54.9933 81.1946 55.1333 81.0346 55.24ZM87.7607 56V50.22H88.8307V52.66H89.1307L90.2207 50.22H91.3207L90.1107 53.02L91.3407 56H90.2207L89.1307 53.3H88.8307V56H87.7607ZM92.9511 56.08C92.7244 56.08 92.5244 56.0167 92.3511 55.89C92.1778 55.7567 92.0411 55.59 91.9411 55.39C91.8411 55.1833 91.7911 54.9667 91.7911 54.74C91.7911 54.38 91.8511 54.0767 91.9711 53.83C92.0911 53.5833 92.2544 53.3767 92.4611 53.21C92.6744 53.0367 92.9178 52.8867 93.1911 52.76C93.4711 52.6333 93.7644 52.51 94.0711 52.39V51.98C94.0711 51.7467 94.0578 51.5533 94.0311 51.4C94.0044 51.2467 93.9478 51.1333 93.8611 51.06C93.7811 50.98 93.6578 50.94 93.4911 50.94C93.3444 50.94 93.2244 50.9733 93.1311 51.04C93.0444 51.1067 92.9811 51.2033 92.9411 51.33C92.9011 51.45 92.8811 51.5933 92.8811 51.76V52.05L91.8211 52.01C91.8344 51.37 91.9811 50.9 92.2611 50.6C92.5411 50.2933 92.9744 50.14 93.5611 50.14C94.1344 50.14 94.5411 50.2967 94.7811 50.61C95.0211 50.9233 95.1411 51.3767 95.1411 51.97V54.61C95.1411 54.79 95.1444 54.9633 95.1511 55.13C95.1644 55.2967 95.1778 55.4533 95.1911 55.6C95.2111 55.74 95.2278 55.8733 95.2411 56H94.2611C94.2411 55.8933 94.2144 55.76 94.1811 55.6C94.1544 55.4333 94.1344 55.2833 94.1211 55.15C94.0544 55.3767 93.9244 55.59 93.7311 55.79C93.5444 55.9833 93.2844 56.08 92.9511 56.08ZM93.3711 55.16C93.4778 55.16 93.5778 55.13 93.6711 55.07C93.7644 55.01 93.8478 54.9433 93.9211 54.87C93.9944 54.79 94.0444 54.7267 94.0711 54.68V53.04C93.9044 53.1333 93.7478 53.2267 93.6011 53.32C93.4544 53.4133 93.3244 53.5133 93.2111 53.62C93.1044 53.72 93.0178 53.8367 92.9511 53.97C92.8911 54.0967 92.8611 54.2433 92.8611 54.41C92.8611 54.6433 92.9044 54.8267 92.9911 54.96C93.0778 55.0933 93.2044 55.16 93.3711 55.16ZM96.1689 57.9V50.22H97.2389V50.68C97.3656 50.5333 97.5189 50.4067 97.6989 50.3C97.8789 50.1933 98.0922 50.14 98.3389 50.14C98.6389 50.14 98.8756 50.22 99.0489 50.38C99.2289 50.5333 99.3622 50.73 99.4489 50.97C99.5356 51.2033 99.5922 51.4433 99.6189 51.69C99.6456 51.93 99.6589 52.1367 99.6589 52.31V53.71C99.6589 54.1167 99.6189 54.5033 99.5389 54.87C99.4589 55.23 99.3122 55.5233 99.0989 55.75C98.8922 55.97 98.5989 56.08 98.2189 56.08C98.0122 56.08 97.8289 56.03 97.6689 55.93C97.5089 55.8233 97.3656 55.7033 97.2389 55.57V57.9H96.1689ZM98.0089 55.24C98.1956 55.24 98.3289 55.1733 98.4089 55.04C98.4889 54.9 98.5389 54.7133 98.5589 54.48C98.5789 54.2467 98.5889 53.99 98.5889 53.71V52.31C98.5889 52.07 98.5756 51.85 98.5489 51.65C98.5222 51.4433 98.4656 51.28 98.3789 51.16C98.2922 51.04 98.1556 50.98 97.9689 50.98C97.8289 50.98 97.6956 51.01 97.5689 51.07C97.4422 51.13 97.3322 51.2 97.2389 51.28V54.98C97.3389 55.0533 97.4522 55.1167 97.5789 55.17C97.7056 55.2167 97.8489 55.24 98.0089 55.24ZM101.282 56V51.02H100.202V50.22H103.442V51.02H102.352V56H101.282ZM104.089 56V50.22H104.989V54.11L106.729 50.22H107.569V56H106.689V52.08L104.959 56H104.089ZM108.659 56V50.22H109.729V52.65H111.099V50.22H112.169V56H111.099V53.43H109.729V56H108.659ZM113.249 56V50.22H114.319V52.66H114.619L115.709 50.22H116.809L115.599 53.02L116.829 56H115.709L114.619 53.3H114.319V56H113.249ZM117.399 56V50.22H118.299V54.11L120.039 50.22H120.879V56H119.999V52.08L118.269 56H117.399ZM124.255 56V50.22H127.615V56H126.545V51.03H125.325V56H124.255ZM128.698 57.9V50.22H129.768V50.68C129.895 50.5333 130.048 50.4067 130.228 50.3C130.408 50.1933 130.622 50.14 130.868 50.14C131.168 50.14 131.405 50.22 131.578 50.38C131.758 50.5333 131.892 50.73 131.978 50.97C132.065 51.2033 132.122 51.4433 132.148 51.69C132.175 51.93 132.188 52.1367 132.188 52.31V53.71C132.188 54.1167 132.148 54.5033 132.068 54.87C131.988 55.23 131.842 55.5233 131.628 55.75C131.422 55.97 131.128 56.08 130.748 56.08C130.542 56.08 130.358 56.03 130.198 55.93C130.038 55.8233 129.895 55.7033 129.768 55.57V57.9H128.698ZM130.538 55.24C130.725 55.24 130.858 55.1733 130.938 55.04C131.018 54.9 131.068 54.7133 131.088 54.48C131.108 54.2467 131.118 53.99 131.118 53.71V52.31C131.118 52.07 131.105 51.85 131.078 51.65C131.052 51.4433 130.995 51.28 130.908 51.16C130.822 51.04 130.685 50.98 130.498 50.98C130.358 50.98 130.225 51.01 130.098 51.07C129.972 51.13 129.862 51.2 129.768 51.28V54.98C129.868 55.0533 129.982 55.1167 130.108 55.17C130.235 55.2167 130.378 55.24 130.538 55.24ZM134.751 56.08C134.324 56.08 133.988 55.9933 133.741 55.82C133.494 55.6467 133.318 55.4 133.211 55.08C133.111 54.76 133.061 54.3833 133.061 53.95V52.27C133.061 51.8367 133.111 51.46 133.211 51.14C133.318 50.82 133.494 50.5733 133.741 50.4C133.988 50.2267 134.324 50.14 134.751 50.14C135.178 50.14 135.511 50.2267 135.751 50.4C135.998 50.5733 136.171 50.82 136.271 51.14C136.378 51.46 136.431 51.8367 136.431 52.27V53.95C136.431 54.3833 136.378 54.76 136.271 55.08C136.171 55.4 135.998 55.6467 135.751 55.82C135.511 55.9933 135.178 56.08 134.751 56.08ZM134.751 55.29C134.958 55.29 135.101 55.23 135.181 55.11C135.268 54.99 135.318 54.8333 135.331 54.64C135.351 54.44 135.361 54.2333 135.361 54.02V52.21C135.361 51.99 135.351 51.7833 135.331 51.59C135.318 51.3967 135.268 51.24 135.181 51.12C135.101 50.9933 134.958 50.93 134.751 50.93C134.544 50.93 134.398 50.9933 134.311 51.12C134.224 51.24 134.171 51.3967 134.151 51.59C134.138 51.7833 134.131 51.99 134.131 52.21V54.02C134.131 54.2333 134.138 54.44 134.151 54.64C134.171 54.8333 134.224 54.99 134.311 55.11C134.398 55.23 134.544 55.29 134.751 55.29ZM139.399 57.9V55.68H139.299C139.079 55.68 138.852 55.6533 138.619 55.6C138.386 55.54 138.169 55.4333 137.969 55.28C137.769 55.1267 137.606 54.9033 137.479 54.61C137.359 54.3167 137.299 53.9367 137.299 53.47V52.43C137.299 52.0567 137.349 51.7367 137.449 51.47C137.556 51.2033 137.699 50.9867 137.879 50.82C138.066 50.6467 138.276 50.52 138.509 50.44C138.749 50.36 139.002 50.32 139.269 50.32H139.399V47.9H140.389V50.32H140.559C140.912 50.32 141.236 50.3933 141.529 50.54C141.822 50.68 142.056 50.9067 142.229 51.22C142.409 51.5267 142.499 51.93 142.499 52.43V53.47C142.499 53.9367 142.439 54.3167 142.319 54.61C142.199 54.9033 142.039 55.1267 141.839 55.28C141.646 55.4333 141.432 55.54 141.199 55.6C140.972 55.6533 140.749 55.68 140.529 55.68H140.389V57.9H139.399ZM139.329 54.92H139.399V51.02H139.299C139.092 51.02 138.912 51.0533 138.759 51.12C138.606 51.1867 138.486 51.31 138.399 51.49C138.312 51.67 138.269 51.93 138.269 52.27V53.46C138.269 53.8467 138.309 54.1467 138.389 54.36C138.469 54.5667 138.589 54.7133 138.749 54.8C138.909 54.88 139.102 54.92 139.329 54.92ZM140.389 54.92H140.449C140.682 54.92 140.879 54.88 141.039 54.8C141.199 54.7133 141.319 54.5667 141.399 54.36C141.486 54.1467 141.529 53.8467 141.529 53.46V52.27C141.529 51.93 141.486 51.67 141.399 51.49C141.312 51.31 141.189 51.1867 141.029 51.12C140.876 51.0533 140.692 51.02 140.479 51.02H140.389V54.92ZM143.474 56V50.22H144.374V54.11L146.114 50.22H146.954V56H146.074V52.08L144.344 56H143.474ZM147.674 56.05V55.24C147.874 55.24 148.031 55.2 148.144 55.12C148.264 55.04 148.354 54.9067 148.414 54.72C148.481 54.5267 148.531 54.27 148.564 53.95C148.597 53.6233 148.627 53.2167 148.654 52.73L148.784 50.22H151.814V56H150.744V51.03H149.724L149.634 52.73C149.601 53.39 149.551 53.9367 149.484 54.37C149.424 54.8033 149.327 55.1433 149.194 55.39C149.061 55.63 148.881 55.8 148.654 55.9C148.434 56 148.147 56.05 147.794 56.05H147.674ZM152.457 56L153.547 53.55C153.361 53.4767 153.207 53.3667 153.087 53.22C152.974 53.0733 152.891 52.8933 152.837 52.68C152.784 52.4667 152.757 52.2267 152.757 51.96C152.757 51.6533 152.797 51.39 152.877 51.17C152.957 50.95 153.084 50.77 153.257 50.63C153.431 50.49 153.661 50.3867 153.947 50.32C154.234 50.2533 154.587 50.22 155.007 50.22H156.127V56H155.067V53.72C154.961 53.72 154.871 53.72 154.797 53.72C154.724 53.7133 154.644 53.7067 154.557 53.7L153.607 56H152.457ZM154.947 53.1C154.961 53.1 154.981 53.1 155.007 53.1C155.041 53.1 155.061 53.1 155.067 53.1V50.83C155.061 50.83 155.041 50.83 155.007 50.83C154.981 50.83 154.964 50.83 154.957 50.83C154.644 50.83 154.394 50.87 154.207 50.95C154.027 51.0233 153.901 51.1433 153.827 51.31C153.754 51.47 153.717 51.6867 153.717 51.96C153.717 52.34 153.801 52.6233 153.967 52.81C154.141 52.9967 154.467 53.0933 154.947 53.1Z"></path>
</svg>
