<svg xmlns="http://www.w3.org/2000/svg" fill="none" viewBox="0 0 13 18" height="18" width="13">
<rect fill-opacity="0.01" fill="#0D0E12" height="18" width="13"></rect>
<path fill="white" d="M3.132 14.18C2.452 14.18 1.916 14.052 1.524 13.796C1.14 13.54 0.864 13.184 0.696 12.728C0.536 12.264 0.456 11.732 0.456 11.132V10.784H2.46C2.46 10.792 2.46 10.836 2.46 10.916C2.46 10.996 2.46 11.068 2.46 11.132C2.46 11.452 2.48 11.712 2.52 11.912C2.56 12.112 2.632 12.26 2.736 12.356C2.84 12.444 2.984 12.488 3.168 12.488C3.352 12.488 3.488 12.44 3.576 12.344C3.672 12.248 3.736 12.104 3.768 11.912C3.8 11.72 3.816 11.48 3.816 11.192C3.816 10.712 3.748 10.348 3.612 10.1C3.484 9.844 3.212 9.712 2.796 9.704C2.788 9.704 2.744 9.704 2.664 9.704C2.584 9.704 2.504 9.704 2.424 9.704V8.324C2.48 8.324 2.536 8.324 2.592 8.324C2.648 8.324 2.7 8.324 2.748 8.324C3.172 8.324 3.456 8.208 3.6 7.976C3.744 7.744 3.816 7.384 3.816 6.896C3.816 6.52 3.764 6.232 3.66 6.032C3.564 5.832 3.38 5.732 3.108 5.732C2.844 5.732 2.668 5.844 2.58 6.068C2.5 6.292 2.46 6.58 2.46 6.932C2.46 7.012 2.46 7.096 2.46 7.184C2.46 7.264 2.46 7.348 2.46 7.436H0.456V6.848C0.456 6.264 0.56 5.772 0.768 5.372C0.984 4.964 1.288 4.656 1.68 4.448C2.08 4.24 2.556 4.136 3.108 4.136C3.668 4.136 4.148 4.236 4.548 4.436C4.948 4.636 5.256 4.932 5.472 5.324C5.688 5.708 5.796 6.188 5.796 6.764C5.796 7.332 5.68 7.808 5.448 8.192C5.216 8.576 4.936 8.812 4.608 8.9C4.832 8.98 5.032 9.108 5.208 9.284C5.392 9.46 5.536 9.7 5.64 10.004C5.744 10.3 5.796 10.68 5.796 11.144C5.796 11.736 5.708 12.26 5.532 12.716C5.364 13.172 5.084 13.532 4.692 13.796C4.3 14.052 3.78 14.18 3.132 14.18ZM9.29606 14.18C8.61606 14.18 8.08006 14.052 7.68806 13.796C7.30406 13.54 7.02806 13.184 6.86006 12.728C6.70006 12.264 6.62006 11.732 6.62006 11.132V10.784H8.62406C8.62406 10.792 8.62406 10.836 8.62406 10.916C8.62406 10.996 8.62406 11.068 8.62406 11.132C8.62406 11.452 8.64406 11.712 8.68406 11.912C8.72406 12.112 8.79606 12.26 8.90006 12.356C9.00406 12.444 9.14806 12.488 9.33206 12.488C9.51606 12.488 9.65206 12.44 9.74006 12.344C9.83606 12.248 9.90006 12.104 9.93206 11.912C9.96406 11.72 9.98006 11.48 9.98006 11.192C9.98006 10.712 9.91206 10.348 9.77606 10.1C9.64806 9.844 9.37606 9.712 8.96006 9.704C8.95206 9.704 8.90806 9.704 8.82806 9.704C8.74806 9.704 8.66806 9.704 8.58806 9.704V8.324C8.64406 8.324 8.70006 8.324 8.75606 8.324C8.81206 8.324 8.86406 8.324 8.91206 8.324C9.33606 8.324 9.62006 8.208 9.76406 7.976C9.90806 7.744 9.98006 7.384 9.98006 6.896C9.98006 6.52 9.92806 6.232 9.82406 6.032C9.72806 5.832 9.54406 5.732 9.27206 5.732C9.00806 5.732 8.83206 5.844 8.74406 6.068C8.66406 6.292 8.62406 6.58 8.62406 6.932C8.62406 7.012 8.62406 7.096 8.62406 7.184C8.62406 7.264 8.62406 7.348 8.62406 7.436H6.62006V6.848C6.62006 6.264 6.72406 5.772 6.93206 5.372C7.14806 4.964 7.45206 4.656 7.84406 4.448C8.24406 4.24 8.72006 4.136 9.27206 4.136C9.83206 4.136 10.3121 4.236 10.7121 4.436C11.1121 4.636 11.4201 4.932 11.6361 5.324C11.8521 5.708 11.9601 6.188 11.9601 6.764C11.9601 7.332 11.8441 7.808 11.6121 8.192C11.3801 8.576 11.1001 8.812 10.7721 8.9C10.9961 8.98 11.1961 9.108 11.3721 9.284C11.5561 9.46 11.7001 9.7 11.8041 10.004C11.9081 10.3 11.9601 10.68 11.9601 11.144C11.9601 11.736 11.8721 12.26 11.6961 12.716C11.5281 13.172 11.2481 13.532 10.8561 13.796C10.4641 14.052 9.94406 14.18 9.29606 14.18Z"></path>
</svg>
