<svg xmlns="http://www.w3.org/2000/svg" fill="none" viewBox="0 0 7 19" height="19" width="7">
<path fill-opacity="0.01" fill="white" d="M0.5 0H6.49999V19H0.5V0Z"></path>
<path fill="#45D2FF" d="M3.54997 14.18C2.86997 14.18 2.33397 14.052 1.94197 13.796C1.55797 13.54 1.28197 13.184 1.11397 12.728C0.953969 12.264 0.873969 11.732 0.873969 11.132V10.784H2.87797C2.87797 10.792 2.87797 10.836 2.87797 10.916C2.87797 10.996 2.87797 11.068 2.87797 11.132C2.87797 11.452 2.89797 11.712 2.93797 11.912C2.97797 12.112 3.04997 12.26 3.15397 12.356C3.25797 12.444 3.40197 12.488 3.58597 12.488C3.76997 12.488 3.90597 12.44 3.99397 12.344C4.08997 12.248 4.15397 12.104 4.18597 11.912C4.21797 11.72 4.23397 11.48 4.23397 11.192C4.23397 10.712 4.16597 10.348 4.02997 10.1C3.90197 9.844 3.62997 9.712 3.21397 9.704C3.20597 9.704 3.16197 9.704 3.08197 9.704C3.00197 9.704 2.92197 9.704 2.84197 9.704V8.324C2.89797 8.324 2.95397 8.324 3.00997 8.324C3.06597 8.324 3.11797 8.324 3.16597 8.324C3.58997 8.324 3.87397 8.208 4.01797 7.976C4.16197 7.744 4.23397 7.384 4.23397 6.896C4.23397 6.52 4.18197 6.232 4.07797 6.032C3.98197 5.832 3.79797 5.732 3.52597 5.732C3.26197 5.732 3.08597 5.844 2.99797 6.068C2.91797 6.292 2.87797 6.58 2.87797 6.932C2.87797 7.012 2.87797 7.096 2.87797 7.184C2.87797 7.264 2.87797 7.348 2.87797 7.436H0.873969V6.848C0.873969 6.264 0.977969 5.772 1.18597 5.372C1.40197 4.964 1.70597 4.656 2.09797 4.448C2.49797 4.24 2.97397 4.136 3.52597 4.136C4.08597 4.136 4.56597 4.236 4.96597 4.436C5.36597 4.636 5.67397 4.932 5.88997 5.324C6.10597 5.708 6.21397 6.188 6.21397 6.764C6.21397 7.332 6.09797 7.808 5.86597 8.192C5.63397 8.576 5.35397 8.812 5.02597 8.9C5.24997 8.98 5.44997 9.108 5.62597 9.284C5.80997 9.46 5.95397 9.7 6.05797 10.004C6.16197 10.3 6.21397 10.68 6.21397 11.144C6.21397 11.736 6.12597 12.26 5.94997 12.716C5.78197 13.172 5.50197 13.532 5.10997 13.796C4.71797 14.052 4.19797 14.18 3.54997 14.18Z"></path>
</svg>
