<svg xmlns="http://www.w3.org/2000/svg" fill="none" viewBox="0 0 7 19" height="19" width="7">
<path fill-opacity="0.01" fill="white" d="M0.5 0H6.5V19H0.5V0Z"></path>
<path fill="#45D2FF" d="M1.14692 14L1.51892 10.772H0.858922L0.894922 9.56H1.68692L1.85492 8.168H0.906922L0.930922 6.92H2.07092L2.37092 4.28H3.64292L3.33092 6.92H4.26692L4.56692 4.28H5.82692L5.51492 6.92H6.15092L6.11492 8.168H5.29892L5.14292 9.56H6.09092L6.05492 10.772H4.97492L4.57892 14H3.33092L3.71492 10.772H2.77892L2.39492 14H1.14692ZM2.93492 9.56H3.88292L4.05092 8.168H3.11492L2.93492 9.56Z"></path>
</svg>
