<svg xmlns="http://www.w3.org/2000/svg" fill="none" viewBox="0 0 214 84" height="84" width="214">
<mask fill="white" id="path-1-inside-1_1461_6">
<path d="M0 0H214V84H0V0Z"></path>
</mask>
<path fill="#0D0E12" d="M0 0H214V84H0V0Z"></path>
<path mask="url(#path-1-inside-1_1461_6)" fill="white" d="M0 0V-1H-1V0H0ZM0 84H-1V85H0V84ZM0 1H214V-1H0V1ZM214 83H0V85H214V83ZM1 84V0H-1V84H1Z"></path>
<path fill="#05FF00" d="M16.72 38V28.28H22.54V38H20.428V29.816H18.832V38H16.72ZM26.7696 38.144C26.0416 38.144 25.4656 38.016 25.0416 37.76C24.6176 37.504 24.3136 37.136 24.1296 36.656C23.9456 36.176 23.8536 35.604 23.8536 34.94V31.328C23.8536 30.656 23.9456 30.084 24.1296 29.612C24.3136 29.14 24.6176 28.78 25.0416 28.532C25.4656 28.276 26.0416 28.148 26.7696 28.148C27.5056 28.148 28.0856 28.276 28.5096 28.532C28.9416 28.78 29.2496 29.14 29.4336 29.612C29.6176 30.084 29.7096 30.656 29.7096 31.328V34.94C29.7096 35.604 29.6176 36.176 29.4336 36.656C29.2496 37.136 28.9416 37.504 28.5096 37.76C28.0856 38.016 27.5056 38.144 26.7696 38.144ZM26.7696 36.62C26.9936 36.62 27.1576 36.564 27.2616 36.452C27.3656 36.34 27.4336 36.196 27.4656 36.02C27.4976 35.844 27.5136 35.664 27.5136 35.48V30.8C27.5136 30.608 27.4976 30.428 27.4656 30.26C27.4336 30.084 27.3656 29.94 27.2616 29.828C27.1576 29.716 26.9936 29.66 26.7696 29.66C26.5616 29.66 26.4056 29.716 26.3016 29.828C26.1976 29.94 26.1296 30.084 26.0976 30.26C26.0656 30.428 26.0496 30.608 26.0496 30.8V35.48C26.0496 35.664 26.0616 35.844 26.0856 36.02C26.1176 36.196 26.1816 36.34 26.2776 36.452C26.3816 36.564 26.5456 36.62 26.7696 36.62ZM31.0529 38V28.28H35.8769V29.912H33.2009V32.384H33.6569C34.2729 32.384 34.7929 32.484 35.2169 32.684C35.6489 32.884 35.9769 33.192 36.2009 33.608C36.4249 34.016 36.5369 34.544 36.5369 35.192C36.5369 35.784 36.4569 36.264 36.2969 36.632C36.1449 37 35.9289 37.284 35.6489 37.484C35.3689 37.684 35.0409 37.82 34.6649 37.892C34.2969 37.964 33.8969 38 33.4649 38H31.0529ZM33.2009 36.596H33.4769C33.7489 36.596 33.9649 36.544 34.1249 36.44C34.2849 36.336 34.3969 36.176 34.4609 35.96C34.5249 35.744 34.5529 35.472 34.5449 35.144C34.5369 34.784 34.4609 34.484 34.3169 34.244C34.1729 33.996 33.8849 33.872 33.4529 33.872H33.2009V36.596ZM37.6614 38V28.28H42.0294V29.744H39.8094V32.156H41.5014V33.644H39.8094V36.548H42.0534V38H37.6614ZM42.5246 40.1V36.464H42.8006C42.9846 36.408 43.1526 36.312 43.3046 36.176C43.4646 36.032 43.6086 35.84 43.7366 35.6C43.8646 35.36 43.9806 35.06 44.0846 34.7C44.1886 34.34 44.2766 33.912 44.3486 33.416C44.4206 32.912 44.4806 32.332 44.5286 31.676L44.7926 28.28H49.3166V36.464H50.4086V40.1H48.9926L48.8846 38H44.1206L44.0006 40.1H42.5246ZM44.8286 36.464H47.3126V29.804H46.4126L46.3046 31.892C46.2646 32.58 46.2046 33.164 46.1246 33.644C46.0526 34.124 45.9646 34.524 45.8606 34.844C45.7646 35.156 45.6606 35.412 45.5486 35.612C45.4366 35.812 45.3166 35.976 45.1886 36.104C45.0686 36.232 44.9486 36.352 44.8286 36.464ZM50.8809 38L52.7169 28.28H55.1649L56.9769 38H54.9969L54.6729 35.948H53.2449L52.9089 38H50.8809ZM53.4369 34.664H54.4689L53.9529 30.872L53.4369 34.664Z"></path>
<path fill="white" d="M18.66 56.09C18.0867 56.09 17.64 55.97 17.32 55.73C17.0067 55.49 16.7867 55.1667 16.66 54.76C16.54 54.3533 16.48 53.9 16.48 53.4V50.54C16.48 49.9933 16.54 49.5167 16.66 49.11C16.7867 48.7033 17.0067 48.39 17.32 48.17C17.64 47.9433 18.0867 47.83 18.66 47.83C19.1667 47.83 19.5667 47.9233 19.86 48.11C20.16 48.2967 20.3733 48.5633 20.5 48.91C20.6333 49.2567 20.7 49.6733 20.7 50.16V50.8H19.63V50.23C19.63 49.93 19.6133 49.6667 19.58 49.44C19.5533 49.2067 19.4733 49.0267 19.34 48.9C19.2067 48.7733 18.9833 48.71 18.67 48.71C18.35 48.71 18.1167 48.78 17.97 48.92C17.8233 49.0533 17.7267 49.2467 17.68 49.5C17.64 49.7467 17.62 50.0367 17.62 50.37V53.58C17.62 53.9867 17.6533 54.31 17.72 54.55C17.7867 54.7833 17.8967 54.95 18.05 55.05C18.2033 55.15 18.41 55.2 18.67 55.2C18.9767 55.2 19.1967 55.1333 19.33 55C19.4633 54.86 19.5467 54.67 19.58 54.43C19.6133 54.19 19.63 53.91 19.63 53.59V52.99H20.7V53.59C20.7 54.0833 20.64 54.52 20.52 54.9C20.4 55.2733 20.1933 55.5667 19.9 55.78C19.6067 55.9867 19.1933 56.09 18.66 56.09ZM23.2765 56.08C22.8498 56.08 22.5132 55.9933 22.2665 55.82C22.0198 55.6467 21.8432 55.4 21.7365 55.08C21.6365 54.76 21.5865 54.3833 21.5865 53.95V52.27C21.5865 51.8367 21.6365 51.46 21.7365 51.14C21.8432 50.82 22.0198 50.5733 22.2665 50.4C22.5132 50.2267 22.8498 50.14 23.2765 50.14C23.7032 50.14 24.0365 50.2267 24.2765 50.4C24.5232 50.5733 24.6965 50.82 24.7965 51.14C24.9032 51.46 24.9565 51.8367 24.9565 52.27V53.95C24.9565 54.3833 24.9032 54.76 24.7965 55.08C24.6965 55.4 24.5232 55.6467 24.2765 55.82C24.0365 55.9933 23.7032 56.08 23.2765 56.08ZM23.2765 55.29C23.4832 55.29 23.6265 55.23 23.7065 55.11C23.7932 54.99 23.8432 54.8333 23.8565 54.64C23.8765 54.44 23.8865 54.2333 23.8865 54.02V52.21C23.8865 51.99 23.8765 51.7833 23.8565 51.59C23.8432 51.3967 23.7932 51.24 23.7065 51.12C23.6265 50.9933 23.4832 50.93 23.2765 50.93C23.0698 50.93 22.9232 50.9933 22.8365 51.12C22.7498 51.24 22.6965 51.3967 22.6765 51.59C22.6632 51.7833 22.6565 51.99 22.6565 52.21V54.02C22.6565 54.2333 22.6632 54.44 22.6765 54.64C22.6965 54.8333 22.7498 54.99 22.8365 55.11C22.9232 55.23 23.0698 55.29 23.2765 55.29ZM25.9345 56V50.22H29.2945V56H28.2245V51.03H27.0045V56H25.9345ZM31.9779 56.08C31.5246 56.08 31.1746 55.9933 30.9279 55.82C30.6812 55.64 30.5079 55.38 30.4079 55.04C30.3146 54.6933 30.2679 54.27 30.2679 53.77V52.45C30.2679 51.9367 30.3179 51.51 30.4179 51.17C30.5179 50.83 30.6912 50.5733 30.9379 50.4C31.1912 50.2267 31.5379 50.14 31.9779 50.14C32.4646 50.14 32.8212 50.24 33.0479 50.44C33.2812 50.64 33.4346 50.93 33.5079 51.31C33.5812 51.6833 33.6179 52.1333 33.6179 52.66V53.13H31.3379V54.29C31.3379 54.5233 31.3579 54.7133 31.3979 54.86C31.4446 55.0067 31.5146 55.1167 31.6079 55.19C31.7079 55.2567 31.8346 55.29 31.9879 55.29C32.1479 55.29 32.2679 55.2533 32.3479 55.18C32.4346 55.1 32.4912 54.99 32.5179 54.85C32.5512 54.7033 32.5679 54.5333 32.5679 54.34V53.99H33.6079V54.21C33.6079 54.79 33.4846 55.2467 33.2379 55.58C32.9912 55.9133 32.5712 56.08 31.9779 56.08ZM31.3379 52.55H32.5679V52.03C32.5679 51.79 32.5546 51.59 32.5279 51.43C32.5012 51.2633 32.4446 51.14 32.3579 51.06C32.2779 50.9733 32.1479 50.93 31.9679 50.93C31.7946 50.93 31.6612 50.97 31.5679 51.05C31.4812 51.13 31.4212 51.2667 31.3879 51.46C31.3546 51.6467 31.3379 51.9067 31.3379 52.24V52.55ZM34.5869 57.9V50.22H35.6569V50.68C35.7835 50.5333 35.9369 50.4067 36.1169 50.3C36.2969 50.1933 36.5102 50.14 36.7569 50.14C37.0569 50.14 37.2935 50.22 37.4669 50.38C37.6469 50.5333 37.7802 50.73 37.8669 50.97C37.9535 51.2033 38.0102 51.4433 38.0369 51.69C38.0635 51.93 38.0769 52.1367 38.0769 52.31V53.71C38.0769 54.1167 38.0369 54.5033 37.9569 54.87C37.8769 55.23 37.7302 55.5233 37.5169 55.75C37.3102 55.97 37.0169 56.08 36.6369 56.08C36.4302 56.08 36.2469 56.03 36.0869 55.93C35.9269 55.8233 35.7835 55.7033 35.6569 55.57V57.9H34.5869ZM36.4269 55.24C36.6135 55.24 36.7469 55.1733 36.8269 55.04C36.9069 54.9 36.9569 54.7133 36.9769 54.48C36.9969 54.2467 37.0069 53.99 37.0069 53.71V52.31C37.0069 52.07 36.9935 51.85 36.9669 51.65C36.9402 51.4433 36.8835 51.28 36.7969 51.16C36.7102 51.04 36.5735 50.98 36.3869 50.98C36.2469 50.98 36.1135 51.01 35.9869 51.07C35.8602 51.13 35.7502 51.2 35.6569 51.28V54.98C35.7569 55.0533 35.8702 55.1167 35.9969 55.17C36.1235 55.2167 36.2669 55.24 36.4269 55.24ZM39.0498 56V50.22H40.1198V52.65H41.4898V50.22H42.5598V56H41.4898V53.43H40.1198V56H39.0498ZM43.6396 56V50.22H44.5396V54.11L46.2796 50.22H47.1196V56H46.2396V52.08L44.5096 56H43.6396ZM48.2099 56V50.22H49.2799V52.66H49.5799L50.6699 50.22H51.7699L50.5599 53.02L51.7899 56H50.6699L49.5799 53.3H49.2799V56H48.2099ZM54.6455 56V50.22H58.0055V56H56.9355V51.03H55.7155V56H54.6455ZM60.6788 56.08C60.2522 56.08 59.9155 55.9933 59.6688 55.82C59.4222 55.6467 59.2455 55.4 59.1388 55.08C59.0388 54.76 58.9888 54.3833 58.9888 53.95V52.27C58.9888 51.8367 59.0388 51.46 59.1388 51.14C59.2455 50.82 59.4222 50.5733 59.6688 50.4C59.9155 50.2267 60.2522 50.14 60.6788 50.14C61.1055 50.14 61.4388 50.2267 61.6788 50.4C61.9255 50.5733 62.0988 50.82 62.1988 51.14C62.3055 51.46 62.3588 51.8367 62.3588 52.27V53.95C62.3588 54.3833 62.3055 54.76 62.1988 55.08C62.0988 55.4 61.9255 55.6467 61.6788 55.82C61.4388 55.9933 61.1055 56.08 60.6788 56.08ZM60.6788 55.29C60.8855 55.29 61.0288 55.23 61.1088 55.11C61.1955 54.99 61.2455 54.8333 61.2588 54.64C61.2788 54.44 61.2888 54.2333 61.2888 54.02V52.21C61.2888 51.99 61.2788 51.7833 61.2588 51.59C61.2455 51.3967 61.1955 51.24 61.1088 51.12C61.0288 50.9933 60.8855 50.93 60.6788 50.93C60.4722 50.93 60.3255 50.9933 60.2388 51.12C60.1522 51.24 60.0988 51.3967 60.0788 51.59C60.0655 51.7833 60.0588 51.99 60.0588 52.21V54.02C60.0588 54.2333 60.0655 54.44 60.0788 54.64C60.0988 54.8333 60.1522 54.99 60.2388 55.11C60.3255 55.23 60.4722 55.29 60.6788 55.29ZM63.3369 56V50.22H64.4069V52.66H64.7069L65.7969 50.22H66.8969L65.6869 53.02L66.9169 56H65.7969L64.7069 53.3H64.4069V56H63.3369ZM67.4873 56V50.22H68.3873V54.11L70.1273 50.22H70.9673V56H70.0873V52.08L68.3573 56H67.4873ZM72.0576 56V50.22H73.1276V52.65H74.4976V50.22H75.5676V56H74.4976V53.43H73.1276V56H72.0576ZM76.5574 57.45V56.63C76.8174 56.63 77.0241 56.6167 77.1774 56.59C77.3308 56.57 77.4408 56.5267 77.5074 56.46C77.5741 56.4 77.6074 56.3133 77.6074 56.2C77.6074 56.14 77.5841 56.0067 77.5374 55.8C77.4908 55.5933 77.4408 55.3733 77.3874 55.14L76.2274 50.22H77.3074L78.0874 54.54L78.8374 50.22H79.9174L78.5374 56.32C78.4774 56.6 78.3674 56.82 78.2074 56.98C78.0474 57.1467 77.8408 57.2667 77.5874 57.34C77.3408 57.4133 77.0408 57.45 76.6874 57.45H76.5574ZM79.9688 56.05V55.24C80.1688 55.24 80.3255 55.2 80.4388 55.12C80.5588 55.04 80.6488 54.9067 80.7088 54.72C80.7755 54.5267 80.8255 54.27 80.8588 53.95C80.8922 53.6233 80.9222 53.2167 80.9488 52.73L81.0788 50.22H84.1088V56H83.0388V51.03H82.0188L81.9288 52.73C81.8955 53.39 81.8455 53.9367 81.7788 54.37C81.7188 54.8033 81.6222 55.1433 81.4888 55.39C81.3555 55.63 81.1755 55.8 80.9488 55.9C80.7288 56 80.4422 56.05 80.0888 56.05H79.9688ZM87.4775 56V50.22H88.3775V54.11L90.1175 50.22H90.9575V56H90.0775V52.08L88.3475 56H87.4775ZM92.0478 56V50.22H94.3778V50.99H93.1178V56H92.0478ZM94.9482 57.9V50.22H96.0182V50.68C96.1449 50.5333 96.2982 50.4067 96.4782 50.3C96.6582 50.1933 96.8715 50.14 97.1182 50.14C97.4182 50.14 97.6549 50.22 97.8282 50.38C98.0082 50.5333 98.1415 50.73 98.2282 50.97C98.3149 51.2033 98.3715 51.4433 98.3982 51.69C98.4249 51.93 98.4382 52.1367 98.4382 52.31V53.71C98.4382 54.1167 98.3982 54.5033 98.3182 54.87C98.2382 55.23 98.0915 55.5233 97.8782 55.75C97.6715 55.97 97.3782 56.08 96.9982 56.08C96.7915 56.08 96.6082 56.03 96.4482 55.93C96.2882 55.8233 96.1449 55.7033 96.0182 55.57V57.9H94.9482ZM96.7882 55.24C96.9749 55.24 97.1082 55.1733 97.1882 55.04C97.2682 54.9 97.3182 54.7133 97.3382 54.48C97.3582 54.2467 97.3682 53.99 97.3682 53.71V52.31C97.3682 52.07 97.3549 51.85 97.3282 51.65C97.3015 51.4433 97.2449 51.28 97.1582 51.16C97.0715 51.04 96.9349 50.98 96.7482 50.98C96.6082 50.98 96.4749 51.01 96.3482 51.07C96.2215 51.13 96.1115 51.2 96.0182 51.28V54.98C96.1182 55.0533 96.2315 55.1167 96.3582 55.17C96.4849 55.2167 96.6282 55.24 96.7882 55.24ZM99.3211 57.45V56.63C99.5811 56.63 99.7878 56.6167 99.9411 56.59C100.094 56.57 100.204 56.5267 100.271 56.46C100.338 56.4 100.371 56.3133 100.371 56.2C100.371 56.14 100.348 56.0067 100.301 55.8C100.254 55.5933 100.204 55.3733 100.151 55.14L98.9911 50.22H100.071L100.851 54.54L101.601 50.22H102.681L101.301 56.32C101.241 56.6 101.131 56.82 100.971 56.98C100.811 57.1467 100.604 57.2667 100.351 57.34C100.104 57.4133 99.8044 57.45 99.4511 57.45H99.3211Z"></path>
</svg>
