<svg xmlns="http://www.w3.org/2000/svg" fill="none" viewBox="0 0 27 34" height="34" width="27">
<path stroke="#0D0E12" fill="white" d="M14.0111 3.40444C18.3192 3.48109 22.4815 3.87079 25.5 4.84414V8.98423H1.5V4.84481C4.58773 3.86028 9.71803 3.32805 14.0111 3.40444Z"></path>
<path stroke="#0D0E12" fill="white" d="M1.53999 29.1705C2.16399 24.0102 6.21999 28.2274 6.21999 19.5607V15.8775C6.21999 14.1719 5.19443 12.6335 3.61999 11.9774L3.04179 11.7365C1.81748 11.2264 1.01999 10.0301 1.01999 8.70375C1.01999 8.01474 1.26795 7.34161 1.91596 7.10748C5.93278 5.65621 21.0671 5.65625 25.084 7.1075C25.732 7.34162 25.98 8.01475 25.98 8.70377C25.98 10.0301 25.1825 11.2263 23.9582 11.7365L23.38 11.9774C21.8056 12.6335 20.78 14.1719 20.78 15.8775V19.5607C20.78 28.2274 24.836 24.1504 25.46 29.3107V30.4094C25.46 31.1135 25.2646 31.8249 24.6096 32.0832C20.835 33.5717 6.15406 33.4669 2.38665 31.9332C1.73455 31.6677 1.53999 30.9567 1.53999 30.2526V29.1705Z"></path>
<path stroke-linecap="round" stroke="#0D0E12" d="M5.18002 28.2274C6.74002 29.8524 20.26 29.8524 21.82 28.2274"></path>
<path stroke-linecap="round" stroke="#0D0E12" d="M20.78 11.4358C18.7 10.8941 8.30002 10.8941 6.22002 11.4358"></path>
<path fill="white" d="M26 3.0762C25.7207 2.88588 25.3869 2.70563 25 2.53672V7.44348C25.4023 7.66294 25.7374 7.91357 26 8.19937V3.0762ZM4 6.79796V1.88086C5.57143 1.4901 7.58184 1.21156 10 1.07647V6.0415C7.62009 6.13237 5.58299 6.34743 4 6.79796ZM20.5 6.28257V1.40797C18.8053 1.16919 16.7988 1.02366 14.5 0.991089V5.98777C16.7546 6.00494 18.7789 6.085 20.5 6.28257Z" clip-rule="evenodd" fill-rule="evenodd"></path>
<path fill="black" d="M25 2.53672L25.2 2.07849L24.5 1.77287V2.53672H25ZM26 3.0762H26.5V2.81184L26.2815 2.66299L26 3.0762ZM25 7.44348H24.5V7.74029L24.7606 7.88242L25 7.44348ZM26 8.19937L25.6318 8.53763L26.5 9.4827V8.19937H26ZM4 1.88086L3.87934 1.39563L3.5 1.48996V1.88086H4ZM4 6.79796H3.5V7.46013L4.13687 7.27887L4 6.79796ZM10 1.07647H10.5V0.547758L9.97211 0.577248L10 1.07647ZM10 6.0415L10.0191 6.54113L10.5 6.52277V6.0415H10ZM20.5 1.40797H21V0.973487L20.5698 0.912865L20.5 1.40797ZM20.5 6.28257L20.443 6.7793L21 6.84325V6.28257H20.5ZM14.5 0.991089L14.5071 0.491139L14 0.483953V0.991089H14.5ZM14.5 5.98777H14V6.48398L14.4962 6.48776L14.5 5.98777ZM24.8 2.99496C25.1648 3.15426 25.4701 3.32017 25.7184 3.4894L26.2815 2.66299C25.9713 2.45159 25.609 2.25701 25.2 2.07849L24.8 2.99496ZM25.5 7.44348V2.53672H24.5V7.44348H25.5ZM26.3682 7.8611C26.0609 7.52663 25.6789 7.24428 25.2394 7.00454L24.7606 7.88242C25.1257 8.0816 25.4139 8.30051 25.6318 8.53763L26.3682 7.8611ZM26.5 8.19937V3.0762H25.5V8.19937H26.5ZM3.5 1.88086V6.79796H4.5V1.88086H3.5ZM9.97211 0.577248C7.53379 0.713461 5.49037 0.995031 3.87934 1.39563L4.12066 2.36608C5.65249 1.98517 7.6299 1.70965 10.0279 1.57569L9.97211 0.577248ZM10.5 6.0415V1.07647H9.5V6.0415H10.5ZM4.13687 7.27887C5.66109 6.84506 7.65002 6.63159 10.0191 6.54113L9.98092 5.54186C7.59016 5.63315 5.5049 5.8498 3.86313 6.31706L4.13687 7.27887ZM20 1.40797V6.28257H21V1.40797H20ZM14.4929 1.49104C16.7756 1.52339 18.7607 1.66784 20.4302 1.90308L20.5698 0.912865C18.85 0.670542 16.8219 0.523942 14.5071 0.491139L14.4929 1.49104ZM15 5.98777V0.991089H14V5.98777H15ZM20.557 5.78583C18.81 5.58529 16.7654 5.50501 14.5038 5.48779L14.4962 6.48776C16.7438 6.50487 18.7477 6.5847 20.443 6.7793L20.557 5.78583Z"></path>
</svg>
