<svg xmlns="http://www.w3.org/2000/svg" fill="none" viewBox="0 0 214 84" height="84" width="214">
<mask fill="white" id="path-1-inside-1_1448_17">
<path d="M0 0H214V84H0V0Z"></path>
</mask>
<path fill="#0D0E12" d="M0 0H214V84H0V0Z"></path>
<path mask="url(#path-1-inside-1_1448_17)" fill="white" d="M0 0V-1H-1V0H0ZM0 84H-1V85H0V84ZM0 1H214V-1H0V1ZM214 83H0V85H214V83ZM1 84V0H-1V84H1Z"></path>
<path fill="#FFF500" d="M16.72 38V28.28H19.18C20.028 28.28 20.688 28.388 21.16 28.604C21.632 28.812 21.964 29.144 22.156 29.6C22.348 30.048 22.444 30.632 22.444 31.352V34.88C22.444 35.608 22.348 36.204 22.156 36.668C21.964 37.124 21.632 37.46 21.16 37.676C20.696 37.892 20.044 38 19.204 38H16.72ZM18.868 36.512H19.204C19.532 36.512 19.768 36.464 19.912 36.368C20.056 36.272 20.144 36.128 20.176 35.936C20.216 35.744 20.236 35.504 20.236 35.216V30.98C20.236 30.692 20.212 30.46 20.164 30.284C20.124 30.108 20.032 29.98 19.888 29.9C19.744 29.82 19.512 29.78 19.192 29.78H18.868V36.512ZM23.7513 38V28.28H26.4273C27.0833 28.28 27.6513 28.352 28.1313 28.496C28.6113 28.64 28.9833 28.9 29.2473 29.276C29.5193 29.644 29.6553 30.168 29.6553 30.848C29.6553 31.248 29.6233 31.604 29.5593 31.916C29.4953 32.228 29.3753 32.5 29.1992 32.732C29.0313 32.956 28.7873 33.144 28.4673 33.296L29.7993 38H27.5793L26.5113 33.644H25.8993V38H23.7513ZM25.8993 32.408H26.4993C26.8033 32.408 27.0393 32.356 27.2073 32.252C27.3753 32.14 27.4913 31.984 27.5553 31.784C27.6273 31.576 27.6633 31.328 27.6633 31.04C27.6633 30.624 27.5873 30.3 27.4353 30.068C27.2833 29.836 27.0033 29.72 26.5953 29.72H25.8993V32.408ZM30.4786 38L32.3146 28.28H34.7626L36.5746 38H34.5946L34.2706 35.948H32.8426L32.5066 38H30.4786ZM33.0346 34.664H34.0666L33.5506 30.872L33.0346 34.664ZM38.125 38L36.949 28.28H38.773L39.349 33.944L40.081 28.292H41.509L42.277 33.908L42.865 28.28H44.665L43.501 38H41.629L40.801 32.132L40.021 38H38.125Z"></path>
<path fill="white" d="M16.63 56V47.9H18.39C18.99 47.9 19.4633 47.9933 19.81 48.18C20.1633 48.36 20.4133 48.6333 20.56 49C20.7133 49.3667 20.79 49.8233 20.79 50.37V53.35C20.79 53.9233 20.7133 54.4067 20.56 54.8C20.4133 55.1933 20.17 55.4933 19.83 55.7C19.4967 55.9 19.0467 56 18.48 56H16.63ZM17.76 55.19H18.4C18.8133 55.19 19.1067 55.11 19.28 54.95C19.4533 54.79 19.5567 54.5567 19.59 54.25C19.63 53.9433 19.65 53.5733 19.65 53.14V50.51C19.65 50.09 19.6233 49.75 19.57 49.49C19.5167 49.23 19.4 49.04 19.22 48.92C19.04 48.8 18.7567 48.74 18.37 48.74H17.76V55.19ZM21.8434 56V50.22H22.9134V51.04C23.1268 50.6867 23.3401 50.45 23.5534 50.33C23.7668 50.21 23.9801 50.15 24.1934 50.15C24.2201 50.15 24.2434 50.15 24.2634 50.15C24.2901 50.15 24.3234 50.1533 24.3634 50.16V51.34C24.2834 51.3067 24.1901 51.28 24.0834 51.26C23.9834 51.2333 23.8801 51.22 23.7734 51.22C23.6068 51.22 23.4534 51.26 23.3134 51.34C23.1801 51.4133 23.0468 51.56 22.9134 51.78V56H21.8434ZM26.0663 56.08C25.8397 56.08 25.6397 56.0167 25.4663 55.89C25.293 55.7567 25.1563 55.59 25.0563 55.39C24.9563 55.1833 24.9063 54.9667 24.9063 54.74C24.9063 54.38 24.9663 54.0767 25.0863 53.83C25.2063 53.5833 25.3697 53.3767 25.5763 53.21C25.7897 53.0367 26.033 52.8867 26.3063 52.76C26.5863 52.6333 26.8797 52.51 27.1863 52.39V51.98C27.1863 51.7467 27.173 51.5533 27.1463 51.4C27.1197 51.2467 27.063 51.1333 26.9763 51.06C26.8963 50.98 26.773 50.94 26.6063 50.94C26.4597 50.94 26.3397 50.9733 26.2463 51.04C26.1597 51.1067 26.0963 51.2033 26.0563 51.33C26.0163 51.45 25.9963 51.5933 25.9963 51.76V52.05L24.9363 52.01C24.9497 51.37 25.0963 50.9 25.3763 50.6C25.6563 50.2933 26.0897 50.14 26.6763 50.14C27.2497 50.14 27.6563 50.2967 27.8963 50.61C28.1363 50.9233 28.2563 51.3767 28.2563 51.97V54.61C28.2563 54.79 28.2597 54.9633 28.2663 55.13C28.2797 55.2967 28.293 55.4533 28.3063 55.6C28.3263 55.74 28.343 55.8733 28.3563 56H27.3763C27.3563 55.8933 27.3297 55.76 27.2963 55.6C27.2697 55.4333 27.2497 55.2833 27.2363 55.15C27.1697 55.3767 27.0397 55.59 26.8463 55.79C26.6597 55.9833 26.3997 56.08 26.0663 56.08ZM26.4863 55.16C26.593 55.16 26.693 55.13 26.7863 55.07C26.8797 55.01 26.963 54.9433 27.0363 54.87C27.1097 54.79 27.1597 54.7267 27.1863 54.68V53.04C27.0197 53.1333 26.863 53.2267 26.7163 53.32C26.5697 53.4133 26.4397 53.5133 26.3263 53.62C26.2197 53.72 26.133 53.8367 26.0663 53.97C26.0063 54.0967 25.9763 54.2433 25.9763 54.41C25.9763 54.6433 26.0197 54.8267 26.1063 54.96C26.193 55.0933 26.3197 55.16 26.4863 55.16ZM29.9541 56L29.0241 50.22H29.9041L30.5041 54.48L31.2741 50.22H32.0941L32.8641 54.46L33.4641 50.22H34.3441L33.3841 56H32.4841L31.6941 51.92L30.9141 56H29.9541ZM35.1735 57.31L35.0035 56.85C35.1835 56.79 35.3235 56.6833 35.4235 56.53C35.5302 56.3833 35.5835 56.2067 35.5835 56H35.0135V54.85H36.1135V55.98C36.1135 56.3333 36.0368 56.6133 35.8835 56.82C35.7302 57.0333 35.4935 57.1967 35.1735 57.31ZM39.2939 56V50.22H40.3639V50.79C40.5572 50.61 40.7706 50.4567 41.0039 50.33C41.2372 50.2033 41.4939 50.14 41.7739 50.14C42.0072 50.14 42.1839 50.2 42.3039 50.32C42.4306 50.44 42.5172 50.59 42.5639 50.77C42.6172 50.95 42.6439 51.1333 42.6439 51.32V56H41.5739V51.63C41.5739 51.4233 41.5439 51.2633 41.4839 51.15C41.4239 51.0367 41.3006 50.98 41.1139 50.98C40.9939 50.98 40.8672 51.0167 40.7339 51.09C40.6072 51.1567 40.4839 51.24 40.3639 51.34V56H39.2939ZM45.2784 56.08C44.8518 56.08 44.5151 55.9933 44.2684 55.82C44.0218 55.6467 43.8451 55.4 43.7384 55.08C43.6384 54.76 43.5884 54.3833 43.5884 53.95V52.27C43.5884 51.8367 43.6384 51.46 43.7384 51.14C43.8451 50.82 44.0218 50.5733 44.2684 50.4C44.5151 50.2267 44.8518 50.14 45.2784 50.14C45.7051 50.14 46.0384 50.2267 46.2784 50.4C46.5251 50.5733 46.6984 50.82 46.7984 51.14C46.9051 51.46 46.9584 51.8367 46.9584 52.27V53.95C46.9584 54.3833 46.9051 54.76 46.7984 55.08C46.6984 55.4 46.5251 55.6467 46.2784 55.82C46.0384 55.9933 45.7051 56.08 45.2784 56.08ZM45.2784 55.29C45.4851 55.29 45.6284 55.23 45.7084 55.11C45.7951 54.99 45.8451 54.8333 45.8584 54.64C45.8784 54.44 45.8884 54.2333 45.8884 54.02V52.21C45.8884 51.99 45.8784 51.7833 45.8584 51.59C45.8451 51.3967 45.7951 51.24 45.7084 51.12C45.6284 50.9933 45.4851 50.93 45.2784 50.93C45.0718 50.93 44.9251 50.9933 44.8384 51.12C44.7518 51.24 44.6984 51.3967 44.6784 51.59C44.6651 51.7833 44.6584 51.99 44.6584 52.21V54.02C44.6584 54.2333 44.6651 54.44 44.6784 54.64C44.6984 54.8333 44.7518 54.99 44.8384 55.11C44.9251 55.23 45.0718 55.29 45.2784 55.29ZM49.4765 56.08C49.1765 56.08 48.9332 56.0233 48.7465 55.91C48.5665 55.7967 48.4332 55.6367 48.3465 55.43C48.2665 55.2233 48.2265 54.98 48.2265 54.7V50.93H47.6165V50.22H48.2265V48.53H49.2965V50.22H50.2265V50.93H49.2965V54.63C49.2965 54.8567 49.3332 55.02 49.4065 55.12C49.4798 55.2133 49.6198 55.26 49.8265 55.26C49.8798 55.26 49.9398 55.2567 50.0065 55.25C50.0798 55.2433 50.1498 55.2367 50.2165 55.23V56.02C50.0832 56.04 49.9598 56.0533 49.8465 56.06C49.7332 56.0733 49.6098 56.08 49.4765 56.08ZM54.8978 56.08C54.4445 56.08 54.0945 55.9933 53.8478 55.82C53.6011 55.64 53.4278 55.38 53.3278 55.04C53.2345 54.6933 53.1878 54.27 53.1878 53.77V52.45C53.1878 51.9367 53.2378 51.51 53.3378 51.17C53.4378 50.83 53.6111 50.5733 53.8578 50.4C54.1111 50.2267 54.4578 50.14 54.8978 50.14C55.3845 50.14 55.7411 50.24 55.9678 50.44C56.2011 50.64 56.3545 50.93 56.4278 51.31C56.5011 51.6833 56.5378 52.1333 56.5378 52.66V53.13H54.2578V54.29C54.2578 54.5233 54.2778 54.7133 54.3178 54.86C54.3645 55.0067 54.4345 55.1167 54.5278 55.19C54.6278 55.2567 54.7545 55.29 54.9078 55.29C55.0678 55.29 55.1878 55.2533 55.2678 55.18C55.3545 55.1 55.4111 54.99 55.4378 54.85C55.4711 54.7033 55.4878 54.5333 55.4878 54.34V53.99H56.5278V54.21C56.5278 54.79 56.4045 55.2467 56.1578 55.58C55.9111 55.9133 55.4911 56.08 54.8978 56.08ZM54.2578 52.55H55.4878V52.03C55.4878 51.79 55.4745 51.59 55.4478 51.43C55.4211 51.2633 55.3645 51.14 55.2778 51.06C55.1978 50.9733 55.0678 50.93 54.8878 50.93C54.7145 50.93 54.5811 50.97 54.4878 51.05C54.4011 51.13 54.3411 51.2667 54.3078 51.46C54.2745 51.6467 54.2578 51.9067 54.2578 52.24V52.55ZM57.5068 56V50.22H58.5768V50.79C58.7701 50.61 58.9835 50.4567 59.2168 50.33C59.4501 50.2033 59.7068 50.14 59.9868 50.14C60.2201 50.14 60.3968 50.2 60.5168 50.32C60.6435 50.44 60.7301 50.59 60.7768 50.77C60.8301 50.95 60.8568 51.1333 60.8568 51.32V56H59.7868V51.63C59.7868 51.4233 59.7568 51.2633 59.6968 51.15C59.6368 51.0367 59.5135 50.98 59.3268 50.98C59.2068 50.98 59.0801 51.0167 58.9468 51.09C58.8201 51.1567 58.6968 51.24 58.5768 51.34V56H57.5068ZM63.4913 56.08C63.0647 56.08 62.728 55.9933 62.4813 55.82C62.2347 55.6467 62.058 55.4 61.9513 55.08C61.8513 54.76 61.8013 54.3833 61.8013 53.95V52.27C61.8013 51.8367 61.8513 51.46 61.9513 51.14C62.058 50.82 62.2347 50.5733 62.4813 50.4C62.728 50.2267 63.0647 50.14 63.4913 50.14C63.918 50.14 64.2513 50.2267 64.4913 50.4C64.738 50.5733 64.9113 50.82 65.0113 51.14C65.118 51.46 65.1713 51.8367 65.1713 52.27V53.95C65.1713 54.3833 65.118 54.76 65.0113 55.08C64.9113 55.4 64.738 55.6467 64.4913 55.82C64.2513 55.9933 63.918 56.08 63.4913 56.08ZM63.4913 55.29C63.698 55.29 63.8413 55.23 63.9213 55.11C64.008 54.99 64.058 54.8333 64.0713 54.64C64.0913 54.44 64.1013 54.2333 64.1013 54.02V52.21C64.1013 51.99 64.0913 51.7833 64.0713 51.59C64.058 51.3967 64.008 51.24 63.9213 51.12C63.8413 50.9933 63.698 50.93 63.4913 50.93C63.2847 50.93 63.138 50.9933 63.0513 51.12C62.9647 51.24 62.9113 51.3967 62.8913 51.59C62.878 51.7833 62.8713 51.99 62.8713 52.21V54.02C62.8713 54.2333 62.878 54.44 62.8913 54.64C62.9113 54.8333 62.9647 54.99 63.0513 55.11C63.138 55.23 63.2847 55.29 63.4913 55.29ZM66.9794 56.08C66.7527 56.08 66.576 56.02 66.4494 55.9C66.3227 55.78 66.2327 55.63 66.1794 55.45C66.1327 55.27 66.1094 55.0867 66.1094 54.9V50.22H67.1794V54.58C67.1794 54.7867 67.2094 54.95 67.2694 55.07C67.3294 55.1833 67.4527 55.24 67.6394 55.24C67.7594 55.24 67.8827 55.2067 68.0094 55.14C68.1427 55.0667 68.2694 54.98 68.3894 54.88V50.22H69.4594V56H68.3894V55.43C68.2027 55.61 67.9894 55.7633 67.7494 55.89C67.516 56.0167 67.2594 56.08 66.9794 56.08ZM72.0537 57.79C71.707 57.79 71.3937 57.7533 71.1137 57.68C70.8337 57.6067 70.6137 57.49 70.4537 57.33C70.2937 57.17 70.2137 56.96 70.2137 56.7C70.2137 56.5133 70.2537 56.35 70.3337 56.21C70.4137 56.07 70.517 55.95 70.6437 55.85C70.7703 55.7433 70.9037 55.6567 71.0437 55.59C70.857 55.5367 70.717 55.4533 70.6237 55.34C70.5303 55.22 70.4837 55.0967 70.4837 54.97C70.4837 54.7567 70.5403 54.5733 70.6537 54.42C70.767 54.2667 70.9237 54.1 71.1237 53.92C70.9037 53.7533 70.737 53.54 70.6237 53.28C70.5103 53.02 70.4537 52.66 70.4537 52.2C70.4537 51.7467 70.5137 51.37 70.6337 51.07C70.7603 50.7633 70.9437 50.5333 71.1837 50.38C71.4303 50.22 71.7303 50.14 72.0837 50.14C72.397 50.14 72.647 50.1933 72.8337 50.3C73.027 50.4067 73.1737 50.5667 73.2737 50.78C73.307 50.7267 73.397 50.6367 73.5437 50.51C73.6903 50.3767 73.8603 50.2667 74.0537 50.18L74.2137 50.11L74.4837 50.8C74.397 50.8133 74.2803 50.8467 74.1337 50.9C73.9937 50.9467 73.8603 50.9967 73.7337 51.05C73.6137 51.0967 73.537 51.1367 73.5037 51.17C73.5503 51.2833 73.5903 51.4467 73.6237 51.66C73.6637 51.8733 73.6837 52.0633 73.6837 52.23C73.6837 52.6233 73.6337 52.97 73.5337 53.27C73.4337 53.57 73.267 53.8067 73.0337 53.98C72.807 54.1467 72.4903 54.23 72.0837 54.23C71.997 54.23 71.9037 54.2233 71.8037 54.21C71.7037 54.1967 71.6137 54.18 71.5337 54.16C71.4937 54.22 71.4503 54.29 71.4037 54.37C71.3637 54.45 71.3437 54.5267 71.3437 54.6C71.3437 54.6733 71.3803 54.7333 71.4537 54.78C71.5337 54.82 71.657 54.8467 71.8237 54.86L72.7237 54.94C73.177 54.98 73.5137 55.1167 73.7337 55.35C73.9537 55.5833 74.0637 55.9167 74.0637 56.35C74.0637 56.6633 73.9903 56.9267 73.8437 57.14C73.697 57.36 73.4737 57.5233 73.1737 57.63C72.8803 57.7367 72.507 57.79 72.0537 57.79ZM72.1337 56.95C72.5137 56.95 72.7937 56.9033 72.9737 56.81C73.1537 56.7233 73.2437 56.58 73.2437 56.38C73.2437 56.26 73.2203 56.16 73.1737 56.08C73.1337 56 73.057 55.9367 72.9437 55.89C72.8303 55.8433 72.667 55.81 72.4537 55.79L71.5437 55.71C71.4703 55.7833 71.4003 55.8567 71.3337 55.93C71.267 56.0033 71.2137 56.08 71.1737 56.16C71.1337 56.2467 71.1137 56.3367 71.1137 56.43C71.1137 56.6033 71.187 56.7333 71.3337 56.82C71.4803 56.9067 71.747 56.95 72.1337 56.95ZM72.0837 53.48C72.237 53.48 72.357 53.4533 72.4437 53.4C72.537 53.34 72.607 53.2567 72.6537 53.15C72.7003 53.0367 72.7303 52.9 72.7437 52.74C72.7637 52.58 72.7737 52.4 72.7737 52.2C72.7737 52 72.7637 51.82 72.7437 51.66C72.7303 51.4933 72.7003 51.3533 72.6537 51.24C72.6137 51.12 72.547 51.03 72.4537 50.97C72.367 50.91 72.247 50.88 72.0937 50.88C71.947 50.88 71.8237 50.91 71.7237 50.97C71.6303 51.03 71.5603 51.1167 71.5137 51.23C71.467 51.3367 71.4337 51.4733 71.4137 51.64C71.3937 51.8 71.3837 51.9867 71.3837 52.2C71.3837 52.38 71.3903 52.55 71.4037 52.71C71.4237 52.8633 71.457 52.9967 71.5037 53.11C71.557 53.2233 71.6303 53.3133 71.7237 53.38C71.817 53.4467 71.937 53.48 72.0837 53.48ZM74.9294 56V47.9H75.9994V50.82C76.1927 50.6333 76.4094 50.4733 76.6494 50.34C76.8894 50.2067 77.156 50.14 77.4494 50.14C77.676 50.14 77.8494 50.2 77.9694 50.32C78.096 50.44 78.1827 50.59 78.2294 50.77C78.2827 50.95 78.3094 51.1333 78.3094 51.32V56H77.2394V51.63C77.2394 51.4233 77.2094 51.2633 77.1494 51.15C77.0894 51.0367 76.966 50.98 76.7794 50.98C76.6527 50.98 76.5194 51.0167 76.3794 51.09C76.246 51.1633 76.1194 51.2533 75.9994 51.36V56H74.9294ZM81.6377 57.9V50.22H82.7077V50.68C82.8343 50.5333 82.9877 50.4067 83.1677 50.3C83.3477 50.1933 83.561 50.14 83.8077 50.14C84.1077 50.14 84.3443 50.22 84.5177 50.38C84.6977 50.5333 84.831 50.73 84.9177 50.97C85.0043 51.2033 85.061 51.4433 85.0877 51.69C85.1143 51.93 85.1277 52.1367 85.1277 52.31V53.71C85.1277 54.1167 85.0877 54.5033 85.0077 54.87C84.9277 55.23 84.781 55.5233 84.5677 55.75C84.361 55.97 84.0677 56.08 83.6877 56.08C83.481 56.08 83.2977 56.03 83.1377 55.93C82.9777 55.8233 82.8343 55.7033 82.7077 55.57V57.9H81.6377ZM83.4777 55.24C83.6643 55.24 83.7977 55.1733 83.8777 55.04C83.9577 54.9 84.0077 54.7133 84.0277 54.48C84.0477 54.2467 84.0577 53.99 84.0577 53.71V52.31C84.0577 52.07 84.0443 51.85 84.0177 51.65C83.991 51.4433 83.9343 51.28 83.8477 51.16C83.761 51.04 83.6243 50.98 83.4377 50.98C83.2977 50.98 83.1643 51.01 83.0377 51.07C82.911 51.13 82.801 51.2 82.7077 51.28V54.98C82.8077 55.0533 82.921 55.1167 83.0477 55.17C83.1743 55.2167 83.3177 55.24 83.4777 55.24ZM86.1705 56V50.22H87.2405V56H86.1705ZM86.1705 49.36V48.24H87.2405V49.36H86.1705ZM89.9857 56.08C89.5324 56.08 89.1824 55.9933 88.9357 55.82C88.689 55.64 88.5157 55.38 88.4157 55.04C88.3224 54.6933 88.2757 54.27 88.2757 53.77V52.45C88.2757 51.9367 88.3257 51.51 88.4257 51.17C88.5257 50.83 88.699 50.5733 88.9457 50.4C89.199 50.2267 89.5457 50.14 89.9857 50.14C90.4724 50.14 90.829 50.24 91.0557 50.44C91.289 50.64 91.4424 50.93 91.5157 51.31C91.589 51.6833 91.6257 52.1333 91.6257 52.66V53.13H89.3457V54.29C89.3457 54.5233 89.3657 54.7133 89.4057 54.86C89.4524 55.0067 89.5224 55.1167 89.6157 55.19C89.7157 55.2567 89.8424 55.29 89.9957 55.29C90.1557 55.29 90.2757 55.2533 90.3557 55.18C90.4424 55.1 90.499 54.99 90.5257 54.85C90.559 54.7033 90.5757 54.5333 90.5757 54.34V53.99H91.6157V54.21C91.6157 54.79 91.4924 55.2467 91.2457 55.58C90.999 55.9133 90.579 56.08 89.9857 56.08ZM89.3457 52.55H90.5757V52.03C90.5757 51.79 90.5624 51.59 90.5357 51.43C90.509 51.2633 90.4524 51.14 90.3657 51.06C90.2857 50.9733 90.1557 50.93 89.9757 50.93C89.8024 50.93 89.669 50.97 89.5757 51.05C89.489 51.13 89.429 51.2667 89.3957 51.46C89.3624 51.6467 89.3457 51.9067 89.3457 52.24V52.55ZM94.1747 56.08C93.7014 56.08 93.3414 55.9867 93.0947 55.8C92.8547 55.6067 92.6914 55.3367 92.6047 54.99C92.5247 54.6433 92.4847 54.24 92.4847 53.78V52.45C92.4847 51.9633 92.528 51.55 92.6147 51.21C92.7014 50.8633 92.8647 50.6 93.1047 50.42C93.3514 50.2333 93.708 50.14 94.1747 50.14C94.5947 50.14 94.918 50.21 95.1447 50.35C95.378 50.4833 95.538 50.6867 95.6247 50.96C95.7114 51.2267 95.7547 51.56 95.7547 51.96V52.3H94.7847V51.95C94.7847 51.6967 94.768 51.4967 94.7347 51.35C94.7014 51.2033 94.6414 51.0967 94.5547 51.03C94.468 50.9633 94.3447 50.93 94.1847 50.93C94.0114 50.93 93.878 50.97 93.7847 51.05C93.6914 51.13 93.628 51.2667 93.5947 51.46C93.568 51.6467 93.5547 51.9033 93.5547 52.23V54.05C93.5547 54.5433 93.6014 54.8733 93.6947 55.04C93.788 55.2067 93.9547 55.29 94.1947 55.29C94.3747 55.29 94.5047 55.25 94.5847 55.17C94.6714 55.0833 94.7247 54.9633 94.7447 54.81C94.7714 54.6567 94.7847 54.4833 94.7847 54.29V53.82H95.7547V54.22C95.7547 54.6067 95.708 54.94 95.6147 55.22C95.528 55.5 95.368 55.7133 95.1347 55.86C94.908 56.0067 94.588 56.08 94.1747 56.08ZM98.306 56.08C97.8527 56.08 97.5027 55.9933 97.256 55.82C97.0093 55.64 96.836 55.38 96.736 55.04C96.6427 54.6933 96.596 54.27 96.596 53.77V52.45C96.596 51.9367 96.646 51.51 96.746 51.17C96.846 50.83 97.0193 50.5733 97.266 50.4C97.5193 50.2267 97.866 50.14 98.306 50.14C98.7927 50.14 99.1493 50.24 99.376 50.44C99.6093 50.64 99.7627 50.93 99.836 51.31C99.9093 51.6833 99.946 52.1333 99.946 52.66V53.13H97.666V54.29C97.666 54.5233 97.686 54.7133 97.726 54.86C97.7727 55.0067 97.8427 55.1167 97.936 55.19C98.036 55.2567 98.1627 55.29 98.316 55.29C98.476 55.29 98.596 55.2533 98.676 55.18C98.7627 55.1 98.8193 54.99 98.846 54.85C98.8793 54.7033 98.896 54.5333 98.896 54.34V53.99H99.936V54.21C99.936 54.79 99.8127 55.2467 99.566 55.58C99.3193 55.9133 98.8993 56.08 98.306 56.08ZM97.666 52.55H98.896V52.03C98.896 51.79 98.8827 51.59 98.856 51.43C98.8293 51.2633 98.7727 51.14 98.686 51.06C98.606 50.9733 98.476 50.93 98.296 50.93C98.1227 50.93 97.9893 50.97 97.896 51.05C97.8093 51.13 97.7493 51.2667 97.716 51.46C97.6827 51.6467 97.666 51.9067 97.666 52.24V52.55ZM102.255 56.08C101.782 56.08 101.402 55.9333 101.115 55.64C100.828 55.34 100.665 54.9467 100.625 54.46L101.515 54.19C101.568 54.5567 101.658 54.8333 101.785 55.02C101.912 55.2 102.098 55.29 102.345 55.29C102.538 55.29 102.685 55.2367 102.785 55.13C102.885 55.0167 102.935 54.8667 102.935 54.68C102.935 54.5133 102.898 54.3633 102.825 54.23C102.752 54.0967 102.632 53.96 102.465 53.82L101.475 52.97C101.275 52.7967 101.105 52.6033 100.965 52.39C100.832 52.1767 100.765 51.9 100.765 51.56C100.765 51.2533 100.825 50.9967 100.945 50.79C101.072 50.5767 101.245 50.4167 101.465 50.31C101.692 50.1967 101.955 50.14 102.255 50.14C102.715 50.14 103.065 50.29 103.305 50.59C103.552 50.8833 103.692 51.24 103.725 51.66L103.005 51.93C102.978 51.73 102.938 51.5567 102.885 51.41C102.832 51.2567 102.758 51.14 102.665 51.06C102.572 50.9733 102.448 50.93 102.295 50.93C102.122 50.93 101.982 50.99 101.875 51.11C101.775 51.2233 101.725 51.36 101.725 51.52C101.725 51.62 101.745 51.72 101.785 51.82C101.832 51.9133 101.908 52.0067 102.015 52.1L103.035 53.04C103.175 53.1667 103.305 53.3033 103.425 53.45C103.552 53.5967 103.655 53.7633 103.735 53.95C103.815 54.1367 103.855 54.3533 103.855 54.6C103.855 54.9267 103.788 55.2 103.655 55.42C103.522 55.64 103.335 55.8067 103.095 55.92C102.855 56.0267 102.575 56.08 102.255 56.08Z"></path>
</svg>
