<svg xmlns="http://www.w3.org/2000/svg" fill="none" viewBox="0 0 214 84" height="84" width="214">
<mask fill="white" id="path-1-inside-1_1507_12">
<path d="M0 0H214V84H0V0Z"></path>
</mask>
<path fill="#0D0E12" d="M0 0H214V84H0V0Z"></path>
<path mask="url(#path-1-inside-1_1507_12)" fill="white" d="M0 0V-1H-1V0H0ZM0 84H-1V85H0V84ZM0 1H214V-1H0V1ZM214 83H0V85H214V83ZM1 84V0H-1V84H1Z"></path>
<path fill="white" d="M16.72 31V21.28H19.252C19.668 21.28 20.06 21.312 20.428 21.376C20.804 21.44 21.136 21.564 21.424 21.748C21.712 21.924 21.936 22.18 22.096 22.516C22.264 22.844 22.348 23.28 22.348 23.824C22.348 24.216 22.288 24.548 22.168 24.82C22.056 25.084 21.892 25.296 21.676 25.456C21.468 25.616 21.216 25.724 20.92 25.78C21.296 25.828 21.612 25.952 21.868 26.152C22.124 26.344 22.316 26.604 22.444 26.932C22.58 27.26 22.648 27.656 22.648 28.12C22.648 28.624 22.58 29.06 22.444 29.428C22.316 29.788 22.128 30.084 21.88 30.316C21.632 30.548 21.324 30.72 20.956 30.832C20.596 30.944 20.18 31 19.708 31H16.72ZM18.868 29.5H19.324C19.796 29.5 20.12 29.38 20.296 29.14C20.48 28.9 20.572 28.548 20.572 28.084C20.572 27.716 20.532 27.424 20.452 27.208C20.372 26.992 20.24 26.836 20.056 26.74C19.872 26.636 19.624 26.584 19.312 26.584H18.868V29.5ZM18.868 25.168H19.288C19.616 25.168 19.864 25.12 20.032 25.024C20.2 24.92 20.312 24.772 20.368 24.58C20.432 24.388 20.464 24.156 20.464 23.884C20.464 23.628 20.416 23.416 20.32 23.248C20.232 23.072 20.096 22.94 19.912 22.852C19.736 22.764 19.512 22.72 19.24 22.72H18.868V25.168ZM23.8107 31V21.28H25.9587V25.384H26.4387C27.0547 25.384 27.5747 25.484 27.9987 25.684C28.4307 25.884 28.7547 26.192 28.9707 26.608C29.1947 27.016 29.3067 27.544 29.3067 28.192C29.3067 28.784 29.2267 29.264 29.0667 29.632C28.9147 30 28.6987 30.284 28.4187 30.484C28.1387 30.684 27.8147 30.82 27.4467 30.892C27.0787 30.964 26.6787 31 26.2467 31H23.8107ZM25.9587 29.596H26.2587C26.5307 29.596 26.7427 29.544 26.8947 29.44C27.0547 29.336 27.1667 29.176 27.2307 28.96C27.3027 28.744 27.3347 28.472 27.3267 28.144C27.3187 27.784 27.2427 27.484 27.0987 27.244C26.9547 26.996 26.6667 26.872 26.2347 26.872H25.9587V29.596ZM30.1227 31V21.28H32.2707V31H30.1227ZM36.7337 32.908V31.492C37.0777 31.5 37.3777 31.484 37.6337 31.444C37.8897 31.404 38.0977 31.328 38.2577 31.216C38.4177 31.104 38.5217 30.952 38.5697 30.76C38.6257 30.56 38.6177 30.312 38.5457 30.016L36.3617 21.28H38.3537L39.1937 25.276L39.5897 27.88L39.8777 25.264L40.5857 21.28H42.6017L40.5857 30.34C40.4897 30.78 40.3777 31.152 40.2497 31.456C40.1217 31.76 39.9617 32.008 39.7697 32.2C39.5857 32.4 39.3577 32.552 39.0857 32.656C38.8137 32.76 38.4817 32.828 38.0897 32.86C37.7057 32.9 37.2537 32.916 36.7337 32.908ZM42.8262 31L44.7102 25.768L42.9102 21.28H44.9382L46.0062 23.908L46.8702 21.28H48.6582L46.9542 26.332L48.8502 31H46.8342L45.6462 28.096L44.6022 31H42.8262ZM52.422 31.144C51.694 31.144 51.118 31.016 50.694 30.76C50.27 30.504 49.966 30.136 49.782 29.656C49.598 29.176 49.506 28.604 49.506 27.94V24.328C49.506 23.656 49.598 23.084 49.782 22.612C49.966 22.14 50.27 21.78 50.694 21.532C51.118 21.276 51.694 21.148 52.422 21.148C53.158 21.148 53.738 21.276 54.162 21.532C54.594 21.78 54.902 22.14 55.086 22.612C55.27 23.084 55.362 23.656 55.362 24.328V27.94C55.362 28.604 55.27 29.176 55.086 29.656C54.902 30.136 54.594 30.504 54.162 30.76C53.738 31.016 53.158 31.144 52.422 31.144ZM52.422 29.62C52.646 29.62 52.81 29.564 52.914 29.452C53.018 29.34 53.086 29.196 53.118 29.02C53.15 28.844 53.166 28.664 53.166 28.48V23.8C53.166 23.608 53.15 23.428 53.118 23.26C53.086 23.084 53.018 22.94 52.914 22.828C52.81 22.716 52.646 22.66 52.422 22.66C52.214 22.66 52.058 22.716 51.954 22.828C51.85 22.94 51.782 23.084 51.75 23.26C51.718 23.428 51.702 23.608 51.702 23.8V28.48C51.702 28.664 51.714 28.844 51.738 29.02C51.77 29.196 51.834 29.34 51.93 29.452C52.034 29.564 52.198 29.62 52.422 29.62ZM56.1652 33.1V29.464H56.4412C56.6252 29.408 56.7932 29.312 56.9452 29.176C57.1052 29.032 57.2492 28.84 57.3772 28.6C57.5052 28.36 57.6212 28.06 57.7252 27.7C57.8292 27.34 57.9172 26.912 57.9892 26.416C58.0612 25.912 58.1212 25.332 58.1692 24.676L58.4332 21.28H62.9572V29.464H64.0492V33.1H62.6332L62.5252 31H57.7612L57.6412 33.1H56.1652ZM58.4692 29.464H60.9532V22.804H60.0532L59.9452 24.892C59.9052 25.58 59.8452 26.164 59.7652 26.644C59.6932 27.124 59.6052 27.524 59.5012 27.844C59.4052 28.156 59.3012 28.412 59.1892 28.612C59.0772 28.812 58.9572 28.976 58.8292 29.104C58.7092 29.232 58.5892 29.352 58.4692 29.464ZM65.0255 31V21.28H66.7175V26.848L69.2015 21.28H70.5935V31H68.8655V25.336L66.3335 31H65.0255ZM72.9437 31V22.876H71.4797V21.28H76.5557V22.876H75.1037V31H72.9437ZM77.4114 31V21.28H81.7794V22.744H79.5594V25.156H81.2514V26.644H79.5594V29.548H81.8034V31H77.4114ZM83.6066 28.444V26.896C83.9666 26.616 84.2906 26.304 84.5786 25.96C84.8666 25.616 85.0946 25.252 85.2626 24.868C85.4306 24.476 85.5146 24.072 85.5146 23.656C85.5146 23.36 85.4586 23.148 85.3466 23.02C85.2426 22.884 85.0866 22.816 84.8786 22.816C84.6866 22.816 84.5346 22.872 84.4226 22.984C84.3186 23.096 84.2666 23.252 84.2666 23.452C84.2666 23.58 84.2786 23.696 84.3026 23.8C84.3346 23.896 84.3706 24 84.4106 24.112L82.6466 24.52C82.5826 24.328 82.5306 24.144 82.4906 23.968C82.4586 23.784 82.4426 23.592 82.4426 23.392C82.4426 22.688 82.6546 22.14 83.0786 21.748C83.5106 21.348 84.1266 21.148 84.9266 21.148C85.7346 21.148 86.3546 21.36 86.7866 21.784C87.2266 22.208 87.4466 22.812 87.4466 23.596C87.4466 24.076 87.3666 24.532 87.2066 24.964C87.0466 25.396 86.8106 25.804 86.4986 26.188C86.1946 26.572 85.8226 26.932 85.3826 27.268V28.444H83.6066ZM83.5466 31V29.14H85.4546V31H83.5466Z"></path>
<path fill="white" d="M16.63 49V40.9H17.76V44.4H19.84V40.9H20.97V49H19.84V45.21H17.76V49H16.63ZM23.7455 49.08C23.2921 49.08 22.9421 48.9933 22.6955 48.82C22.4488 48.64 22.2755 48.38 22.1755 48.04C22.0821 47.6933 22.0355 47.27 22.0355 46.77V45.45C22.0355 44.9367 22.0855 44.51 22.1855 44.17C22.2855 43.83 22.4588 43.5733 22.7055 43.4C22.9588 43.2267 23.3055 43.14 23.7455 43.14C24.2321 43.14 24.5888 43.24 24.8155 43.44C25.0488 43.64 25.2021 43.93 25.2755 44.31C25.3488 44.6833 25.3855 45.1333 25.3855 45.66V46.13H23.1055V47.29C23.1055 47.5233 23.1255 47.7133 23.1655 47.86C23.2121 48.0067 23.2821 48.1167 23.3755 48.19C23.4755 48.2567 23.6021 48.29 23.7555 48.29C23.9155 48.29 24.0355 48.2533 24.1155 48.18C24.2021 48.1 24.2588 47.99 24.2855 47.85C24.3188 47.7033 24.3355 47.5333 24.3355 47.34V46.99H25.3755V47.21C25.3755 47.79 25.2521 48.2467 25.0055 48.58C24.7588 48.9133 24.3388 49.08 23.7455 49.08ZM23.1055 45.55H24.3355V45.03C24.3355 44.79 24.3221 44.59 24.2955 44.43C24.2688 44.2633 24.2121 44.14 24.1255 44.06C24.0455 43.9733 23.9155 43.93 23.7355 43.93C23.5621 43.93 23.4288 43.97 23.3355 44.05C23.2488 44.13 23.1888 44.2667 23.1555 44.46C23.1221 44.6467 23.1055 44.9067 23.1055 45.24V45.55ZM29.9996 49.1C29.7329 49.1 29.5029 49.0633 29.3096 48.99C29.1163 48.9167 28.9563 48.8033 28.8296 48.65C28.7029 48.49 28.6096 48.2933 28.5496 48.06C28.4896 47.8267 28.4596 47.55 28.4596 47.23H29.3696C29.3696 47.6233 29.4263 47.9067 29.5396 48.08C29.6529 48.2533 29.8129 48.34 30.0196 48.34C30.1996 48.34 30.3296 48.2933 30.4096 48.2C30.4896 48.1067 30.5396 47.98 30.5596 47.82C30.5796 47.6533 30.5896 47.47 30.5896 47.27C30.5896 47.0167 30.5529 46.83 30.4796 46.71C30.4129 46.5833 30.2929 46.5 30.1196 46.46C29.9529 46.42 29.7196 46.4 29.4196 46.4V45.64C29.8863 45.64 30.1963 45.57 30.3496 45.43C30.5096 45.29 30.5896 45.06 30.5896 44.74C30.5896 44.4533 30.5296 44.2467 30.4096 44.12C30.2896 43.9933 30.1396 43.93 29.9596 43.93C29.7596 43.93 29.5996 43.9933 29.4796 44.12C29.3596 44.2467 29.2996 44.5 29.2996 44.88H28.3896C28.3896 44.4467 28.4529 44.1033 28.5796 43.85C28.7129 43.5967 28.8996 43.4167 29.1396 43.31C29.3863 43.1967 29.6729 43.14 29.9996 43.14C30.3596 43.14 30.6496 43.2133 30.8696 43.36C31.0963 43.5067 31.2596 43.7 31.3596 43.94C31.4663 44.1733 31.5196 44.42 31.5196 44.68C31.5196 45.0133 31.4663 45.2733 31.3596 45.46C31.2596 45.6467 31.1329 45.78 30.9796 45.86C30.8329 45.94 30.6896 45.9867 30.5496 46C30.6963 46.0267 30.8429 46.0767 30.9896 46.15C31.1429 46.2167 31.2696 46.3467 31.3696 46.54C31.4763 46.7267 31.5296 47.02 31.5296 47.42C31.5296 47.9667 31.4029 48.3833 31.1496 48.67C30.8963 48.9567 30.5129 49.1 29.9996 49.1ZM33.4296 49.08C33.2029 49.08 33.0029 49.0167 32.8296 48.89C32.6563 48.7567 32.5196 48.59 32.4196 48.39C32.3196 48.1833 32.2696 47.9667 32.2696 47.74C32.2696 47.38 32.3296 47.0767 32.4496 46.83C32.5696 46.5833 32.7329 46.3767 32.9396 46.21C33.1529 46.0367 33.3963 45.8867 33.6696 45.76C33.9496 45.6333 34.2429 45.51 34.5496 45.39V44.98C34.5496 44.7467 34.5363 44.5533 34.5096 44.4C34.4829 44.2467 34.4263 44.1333 34.3396 44.06C34.2596 43.98 34.1363 43.94 33.9696 43.94C33.8229 43.94 33.7029 43.9733 33.6096 44.04C33.5229 44.1067 33.4596 44.2033 33.4196 44.33C33.3796 44.45 33.3596 44.5933 33.3596 44.76V45.05L32.2996 45.01C32.3129 44.37 32.4596 43.9 32.7396 43.6C33.0196 43.2933 33.4529 43.14 34.0396 43.14C34.6129 43.14 35.0196 43.2967 35.2596 43.61C35.4996 43.9233 35.6196 44.3767 35.6196 44.97V47.61C35.6196 47.79 35.6229 47.9633 35.6296 48.13C35.6429 48.2967 35.6563 48.4533 35.6696 48.6C35.6896 48.74 35.7063 48.8733 35.7196 49H34.7396C34.7196 48.8933 34.6929 48.76 34.6596 48.6C34.6329 48.4333 34.6129 48.2833 34.5996 48.15C34.5329 48.3767 34.4029 48.59 34.2096 48.79C34.0229 48.9833 33.7629 49.08 33.4296 49.08ZM33.8496 48.16C33.9563 48.16 34.0563 48.13 34.1496 48.07C34.2429 48.01 34.3263 47.9433 34.3996 47.87C34.4729 47.79 34.5229 47.7267 34.5496 47.68V46.04C34.3829 46.1333 34.2263 46.2267 34.0796 46.32C33.9329 46.4133 33.8029 46.5133 33.6896 46.62C33.5829 46.72 33.4963 46.8367 33.4296 46.97C33.3696 47.0967 33.3396 47.2433 33.3396 47.41C33.3396 47.6433 33.3829 47.8267 33.4696 47.96C33.5563 48.0933 33.6829 48.16 33.8496 48.16ZM38.2574 49.08C37.9241 49.08 37.6341 49.0067 37.3874 48.86C37.1408 48.7067 36.9508 48.4833 36.8174 48.19C36.6908 47.89 36.6274 47.52 36.6274 47.08V43.68C36.6274 43.1733 36.6641 42.76 36.7374 42.44C36.8174 42.12 36.9408 41.8667 37.1074 41.68C37.2741 41.4933 37.4908 41.3467 37.7574 41.24C38.0374 41.1267 38.2874 41.0467 38.5074 41C38.7274 40.9533 38.9374 40.9033 39.1374 40.85C39.3441 40.79 39.5541 40.6967 39.7674 40.57L39.9874 41.46C39.8008 41.58 39.5941 41.67 39.3674 41.73C39.1474 41.7833 38.9274 41.8333 38.7074 41.88C38.4874 41.92 38.2808 41.9867 38.0874 42.08C37.8941 42.1733 37.7441 42.3167 37.6374 42.51C37.5308 42.6967 37.4774 42.9567 37.4774 43.29V44.22C37.5641 44.1333 37.6774 44.0533 37.8174 43.98C37.9574 43.9 38.1074 43.8333 38.2674 43.78C38.4341 43.7267 38.5908 43.7 38.7374 43.7C38.9774 43.7 39.1974 43.7633 39.3974 43.89C39.5974 44.0167 39.7574 44.2333 39.8774 44.54C39.9974 44.84 40.0574 45.25 40.0574 45.77V46.87C40.0574 47.4767 39.9808 47.94 39.8274 48.26C39.6741 48.5733 39.4608 48.79 39.1874 48.91C38.9208 49.0233 38.6108 49.08 38.2574 49.08ZM38.3574 48.29C38.5041 48.29 38.6208 48.2567 38.7074 48.19C38.8008 48.1167 38.8674 48 38.9074 47.84C38.9541 47.68 38.9774 47.4667 38.9774 47.2V45.45C38.9774 45.2033 38.9608 45.0067 38.9274 44.86C38.8941 44.7133 38.8408 44.6067 38.7674 44.54C38.6941 44.4667 38.5941 44.43 38.4674 44.43C38.4008 44.43 38.3241 44.4433 38.2374 44.47C38.1574 44.49 38.0708 44.5233 37.9774 44.57C37.8908 44.61 37.7974 44.6633 37.6974 44.73V47.11C37.6974 47.39 37.7174 47.6167 37.7574 47.79C37.8041 47.9633 37.8741 48.09 37.9674 48.17C38.0674 48.25 38.1974 48.29 38.3574 48.29ZM40.9422 50.45V49.63C41.2022 49.63 41.4089 49.6167 41.5622 49.59C41.7155 49.57 41.8255 49.5267 41.8922 49.46C41.9589 49.4 41.9922 49.3133 41.9922 49.2C41.9922 49.14 41.9689 49.0067 41.9222 48.8C41.8755 48.5933 41.8255 48.3733 41.7722 48.14L40.6122 43.22H41.6922L42.4722 47.54L43.2222 43.22H44.3022L42.9222 49.32C42.8622 49.6 42.7522 49.82 42.5922 49.98C42.4322 50.1467 42.2255 50.2667 41.9722 50.34C41.7255 50.4133 41.4255 50.45 41.0722 50.45H40.9422ZM44.2329 50.47V48.29C44.4329 48.1367 44.6162 47.9533 44.7829 47.74C44.9496 47.5267 45.0962 47.2567 45.2229 46.93C45.3496 46.6033 45.4496 46.2 45.5229 45.72C45.5962 45.24 45.6362 44.66 45.6429 43.98L45.6629 43.22H48.2729V48.24H48.9729V50.47H48.1929L48.1029 49H45.1029L45.0129 50.47H44.2329ZM45.2729 48.24H47.2429V43.99H46.4929L46.4729 44.2C46.4662 44.9067 46.4296 45.4967 46.3629 45.97C46.3029 46.4367 46.2162 46.82 46.1029 47.12C45.9962 47.4133 45.8696 47.6467 45.7229 47.82C45.5829 47.9933 45.4329 48.1333 45.2729 48.24ZM49.7138 49V43.22H50.7838V45.61C50.7972 45.61 50.8138 45.61 50.8338 45.61C50.8605 45.61 50.8838 45.61 50.9038 45.61C50.9238 45.61 50.9405 45.61 50.9538 45.61C51.3472 45.6167 51.6805 45.6467 51.9538 45.7C52.2338 45.7467 52.4605 45.8333 52.6338 45.96C52.8072 46.08 52.9338 46.25 53.0138 46.47C53.0938 46.6833 53.1338 46.96 53.1338 47.3C53.1338 47.6133 53.0938 47.88 53.0138 48.1C52.9338 48.3133 52.8038 48.4867 52.6238 48.62C52.4438 48.7533 52.2072 48.85 51.9138 48.91C51.6205 48.97 51.2638 49 50.8438 49H49.7138ZM50.7838 48.37H50.8438C51.1838 48.37 51.4505 48.34 51.6438 48.28C51.8372 48.22 51.9738 48.1133 52.0538 47.96C52.1338 47.8 52.1738 47.5767 52.1738 47.29C52.1738 47.03 52.1372 46.8267 52.0638 46.68C51.9972 46.5267 51.8705 46.4167 51.6838 46.35C51.5038 46.2767 51.2405 46.24 50.8938 46.24C50.8872 46.24 50.8705 46.24 50.8438 46.24C50.8172 46.24 50.7972 46.24 50.7838 46.24V48.37ZM54.1138 49V44.02H53.0338V43.22H56.2738V44.02H55.1838V49H54.1138ZM58.4623 49.08C58.0089 49.08 57.6589 48.9933 57.4123 48.82C57.1656 48.64 56.9923 48.38 56.8923 48.04C56.7989 47.6933 56.7523 47.27 56.7523 46.77V45.45C56.7523 44.9367 56.8023 44.51 56.9023 44.17C57.0023 43.83 57.1756 43.5733 57.4223 43.4C57.6756 43.2267 58.0223 43.14 58.4623 43.14C58.9489 43.14 59.3056 43.24 59.5323 43.44C59.7656 43.64 59.9189 43.93 59.9923 44.31C60.0656 44.6833 60.1023 45.1333 60.1023 45.66V46.13H57.8223V47.29C57.8223 47.5233 57.8423 47.7133 57.8823 47.86C57.9289 48.0067 57.9989 48.1167 58.0923 48.19C58.1923 48.2567 58.3189 48.29 58.4723 48.29C58.6323 48.29 58.7523 48.2533 58.8323 48.18C58.9189 48.1 58.9756 47.99 59.0023 47.85C59.0356 47.7033 59.0523 47.5333 59.0523 47.34V46.99H60.0923V47.21C60.0923 47.79 59.9689 48.2467 59.7223 48.58C59.4756 48.9133 59.0556 49.08 58.4623 49.08ZM57.8223 45.55H59.0523V45.03C59.0523 44.79 59.0389 44.59 59.0123 44.43C58.9856 44.2633 58.9289 44.14 58.8423 44.06C58.7623 43.9733 58.6323 43.93 58.4523 43.93C58.2789 43.93 58.1456 43.97 58.0523 44.05C57.9656 44.13 57.9056 44.2667 57.8723 44.46C57.8389 44.6467 57.8223 44.9067 57.8223 45.24V45.55ZM64.9364 49.08C64.4631 49.08 64.1031 48.9867 63.8564 48.8C63.6164 48.6067 63.4531 48.3367 63.3664 47.99C63.2864 47.6433 63.2464 47.24 63.2464 46.78V45.45C63.2464 44.9633 63.2897 44.55 63.3764 44.21C63.4631 43.8633 63.6264 43.6 63.8664 43.42C64.1131 43.2333 64.4697 43.14 64.9364 43.14C65.3564 43.14 65.6797 43.21 65.9064 43.35C66.1397 43.4833 66.2997 43.6867 66.3864 43.96C66.4731 44.2267 66.5164 44.56 66.5164 44.96V45.3H65.5464V44.95C65.5464 44.6967 65.5297 44.4967 65.4964 44.35C65.4631 44.2033 65.4031 44.0967 65.3164 44.03C65.2297 43.9633 65.1064 43.93 64.9464 43.93C64.7731 43.93 64.6397 43.97 64.5464 44.05C64.4531 44.13 64.3897 44.2667 64.3564 44.46C64.3297 44.6467 64.3164 44.9033 64.3164 45.23V47.05C64.3164 47.5433 64.3631 47.8733 64.4564 48.04C64.5497 48.2067 64.7164 48.29 64.9564 48.29C65.1364 48.29 65.2664 48.25 65.3464 48.17C65.4331 48.0833 65.4864 47.9633 65.5064 47.81C65.5331 47.6567 65.5464 47.4833 65.5464 47.29V46.82H66.5164V47.22C66.5164 47.6067 66.4697 47.94 66.3764 48.22C66.2897 48.5 66.1297 48.7133 65.8964 48.86C65.6697 49.0067 65.3497 49.08 64.9364 49.08ZM69.0577 49.08C68.6311 49.08 68.2944 48.9933 68.0477 48.82C67.8011 48.6467 67.6244 48.4 67.5177 48.08C67.4177 47.76 67.3677 47.3833 67.3677 46.95V45.27C67.3677 44.8367 67.4177 44.46 67.5177 44.14C67.6244 43.82 67.8011 43.5733 68.0477 43.4C68.2944 43.2267 68.6311 43.14 69.0577 43.14C69.4844 43.14 69.8177 43.2267 70.0577 43.4C70.3044 43.5733 70.4777 43.82 70.5777 44.14C70.6844 44.46 70.7377 44.8367 70.7377 45.27V46.95C70.7377 47.3833 70.6844 47.76 70.5777 48.08C70.4777 48.4 70.3044 48.6467 70.0577 48.82C69.8177 48.9933 69.4844 49.08 69.0577 49.08ZM69.0577 48.29C69.2644 48.29 69.4077 48.23 69.4877 48.11C69.5744 47.99 69.6244 47.8333 69.6377 47.64C69.6577 47.44 69.6677 47.2333 69.6677 47.02V45.21C69.6677 44.99 69.6577 44.7833 69.6377 44.59C69.6244 44.3967 69.5744 44.24 69.4877 44.12C69.4077 43.9933 69.2644 43.93 69.0577 43.93C68.8511 43.93 68.7044 43.9933 68.6177 44.12C68.5311 44.24 68.4777 44.3967 68.4577 44.59C68.4444 44.7833 68.4377 44.99 68.4377 45.21V47.02C68.4377 47.2333 68.4444 47.44 68.4577 47.64C68.4777 47.8333 68.5311 47.99 68.6177 48.11C68.7044 48.23 68.8511 48.29 69.0577 48.29ZM71.2658 49L72.5658 45.96L71.2958 43.22H72.3158L73.1658 45.05L73.9158 43.22H74.9658L73.6458 46.09L74.9858 49H73.9658L73.0558 47.04L72.2758 49H71.2658ZM75.6025 50.9V43.22H76.6725V43.68C76.7992 43.5333 76.9525 43.4067 77.1325 43.3C77.3125 43.1933 77.5258 43.14 77.7725 43.14C78.0725 43.14 78.3092 43.22 78.4825 43.38C78.6625 43.5333 78.7958 43.73 78.8825 43.97C78.9692 44.2033 79.0258 44.4433 79.0525 44.69C79.0792 44.93 79.0925 45.1367 79.0925 45.31V46.71C79.0925 47.1167 79.0525 47.5033 78.9725 47.87C78.8925 48.23 78.7458 48.5233 78.5325 48.75C78.3258 48.97 78.0325 49.08 77.6525 49.08C77.4458 49.08 77.2625 49.03 77.1025 48.93C76.9425 48.8233 76.7992 48.7033 76.6725 48.57V50.9H75.6025ZM77.4425 48.24C77.6292 48.24 77.7625 48.1733 77.8425 48.04C77.9225 47.9 77.9725 47.7133 77.9925 47.48C78.0125 47.2467 78.0225 46.99 78.0225 46.71V45.31C78.0225 45.07 78.0092 44.85 77.9825 44.65C77.9558 44.4433 77.8992 44.28 77.8125 44.16C77.7258 44.04 77.5892 43.98 77.4025 43.98C77.2625 43.98 77.1292 44.01 77.0025 44.07C76.8758 44.13 76.7658 44.2 76.6725 44.28V47.98C76.7725 48.0533 76.8858 48.1167 77.0125 48.17C77.1392 48.2167 77.2825 48.24 77.4425 48.24ZM81.1054 49.08C80.8787 49.08 80.6787 49.0167 80.5054 48.89C80.3321 48.7567 80.1954 48.59 80.0954 48.39C79.9954 48.1833 79.9454 47.9667 79.9454 47.74C79.9454 47.38 80.0054 47.0767 80.1254 46.83C80.2454 46.5833 80.4087 46.3767 80.6154 46.21C80.8287 46.0367 81.0721 45.8867 81.3454 45.76C81.6254 45.6333 81.9187 45.51 82.2254 45.39V44.98C82.2254 44.7467 82.2121 44.5533 82.1854 44.4C82.1587 44.2467 82.1021 44.1333 82.0154 44.06C81.9354 43.98 81.8121 43.94 81.6454 43.94C81.4987 43.94 81.3787 43.9733 81.2854 44.04C81.1987 44.1067 81.1354 44.2033 81.0954 44.33C81.0554 44.45 81.0354 44.5933 81.0354 44.76V45.05L79.9754 45.01C79.9887 44.37 80.1354 43.9 80.4154 43.6C80.6954 43.2933 81.1287 43.14 81.7154 43.14C82.2887 43.14 82.6954 43.2967 82.9354 43.61C83.1754 43.9233 83.2954 44.3767 83.2954 44.97V47.61C83.2954 47.79 83.2987 47.9633 83.3054 48.13C83.3187 48.2967 83.3321 48.4533 83.3454 48.6C83.3654 48.74 83.3821 48.8733 83.3954 49H82.4154C82.3954 48.8933 82.3687 48.76 82.3354 48.6C82.3087 48.4333 82.2887 48.2833 82.2754 48.15C82.2087 48.3767 82.0787 48.59 81.8854 48.79C81.6987 48.9833 81.4387 49.08 81.1054 49.08ZM81.5254 48.16C81.6321 48.16 81.7321 48.13 81.8254 48.07C81.9187 48.01 82.0021 47.9433 82.0754 47.87C82.1487 47.79 82.1987 47.7267 82.2254 47.68V46.04C82.0587 46.1333 81.9021 46.2267 81.7554 46.32C81.6087 46.4133 81.4787 46.5133 81.3654 46.62C81.2587 46.72 81.1721 46.8367 81.1054 46.97C81.0454 47.0967 81.0154 47.2433 81.0154 47.41C81.0154 47.6433 81.0587 47.8267 81.1454 47.96C81.2321 48.0933 81.3587 48.16 81.5254 48.16ZM84.3232 49V43.22H85.3932V45.65H86.7632V43.22H87.8332V49H86.7632V46.43H85.3932V49H84.3232ZM88.913 49V43.22H89.813V47.11L91.553 43.22H92.393V49H91.513V45.08L89.783 49H88.913ZM94.1334 49V44.02H93.0534V43.22H96.2934V44.02H95.2034V49H94.1334ZM96.9404 49V43.22H98.0104V45.61C98.0237 45.61 98.0404 45.61 98.0604 45.61C98.0871 45.61 98.1104 45.61 98.1304 45.61C98.1504 45.61 98.1671 45.61 98.1804 45.61C98.5737 45.6167 98.9071 45.6467 99.1804 45.7C99.4604 45.7467 99.6871 45.8333 99.8604 45.96C100.034 46.08 100.16 46.25 100.24 46.47C100.32 46.6833 100.36 46.96 100.36 47.3C100.36 47.6133 100.32 47.88 100.24 48.1C100.16 48.3133 100.03 48.4867 99.8504 48.62C99.6704 48.7533 99.4337 48.85 99.1404 48.91C98.8471 48.97 98.4904 49 98.0704 49H96.9404ZM98.0104 48.37H98.0704C98.4104 48.37 98.6771 48.34 98.8704 48.28C99.0637 48.22 99.2004 48.1133 99.2804 47.96C99.3604 47.8 99.4004 47.5767 99.4004 47.29C99.4004 47.03 99.3637 46.8267 99.2904 46.68C99.2237 46.5267 99.0971 46.4167 98.9104 46.35C98.7304 46.2767 98.4671 46.24 98.1204 46.24C98.1137 46.24 98.0971 46.24 98.0704 46.24C98.0437 46.24 98.0237 46.24 98.0104 46.24V48.37ZM104.956 49.08C104.483 49.08 104.123 48.9867 103.876 48.8C103.636 48.6067 103.473 48.3367 103.386 47.99C103.306 47.6433 103.266 47.24 103.266 46.78V45.45C103.266 44.9633 103.309 44.55 103.396 44.21C103.483 43.8633 103.646 43.6 103.886 43.42C104.133 43.2333 104.489 43.14 104.956 43.14C105.376 43.14 105.699 43.21 105.926 43.35C106.159 43.4833 106.319 43.6867 106.406 43.96C106.493 44.2267 106.536 44.56 106.536 44.96V45.3H105.566V44.95C105.566 44.6967 105.549 44.4967 105.516 44.35C105.483 44.2033 105.423 44.0967 105.336 44.03C105.249 43.9633 105.126 43.93 104.966 43.93C104.793 43.93 104.659 43.97 104.566 44.05C104.473 44.13 104.409 44.2667 104.376 44.46C104.349 44.6467 104.336 44.9033 104.336 45.23V47.05C104.336 47.5433 104.383 47.8733 104.476 48.04C104.569 48.2067 104.736 48.29 104.976 48.29C105.156 48.29 105.286 48.25 105.366 48.17C105.453 48.0833 105.506 47.9633 105.526 47.81C105.553 47.6567 105.566 47.4833 105.566 47.29V46.82H106.536V47.22C106.536 47.6067 106.489 47.94 106.396 48.22C106.309 48.5 106.149 48.7133 105.916 48.86C105.689 49.0067 105.369 49.08 104.956 49.08ZM107.487 49V43.22H109.107C109.501 43.22 109.807 43.2867 110.027 43.42C110.254 43.5467 110.414 43.7167 110.507 43.93C110.607 44.1367 110.661 44.36 110.667 44.6C110.674 44.8867 110.627 45.1433 110.527 45.37C110.427 45.5967 110.221 45.7567 109.907 45.85C110.147 45.8967 110.331 45.9967 110.457 46.15C110.591 46.2967 110.681 46.4733 110.727 46.68C110.781 46.8867 110.807 47.1 110.807 47.32C110.807 47.6533 110.757 47.9467 110.657 48.2C110.564 48.4533 110.397 48.65 110.157 48.79C109.924 48.93 109.591 49 109.157 49H107.487ZM108.537 48.19H108.917C109.071 48.19 109.211 48.17 109.337 48.13C109.464 48.0833 109.564 47.9933 109.637 47.86C109.717 47.7267 109.757 47.5333 109.757 47.28C109.757 46.98 109.721 46.7633 109.647 46.63C109.581 46.49 109.487 46.4033 109.367 46.37C109.254 46.3367 109.121 46.32 108.967 46.32H108.537V48.19ZM108.537 45.55H109.057C109.264 45.55 109.427 45.49 109.547 45.37C109.667 45.25 109.727 45.0367 109.727 44.73C109.727 44.4567 109.657 44.2667 109.517 44.16C109.377 44.0533 109.187 44 108.947 44H108.537V45.55ZM113.228 49.08C112.801 49.08 112.464 48.9933 112.218 48.82C111.971 48.6467 111.794 48.4 111.688 48.08C111.588 47.76 111.538 47.3833 111.538 46.95V45.27C111.538 44.8367 111.588 44.46 111.688 44.14C111.794 43.82 111.971 43.5733 112.218 43.4C112.464 43.2267 112.801 43.14 113.228 43.14C113.654 43.14 113.988 43.2267 114.228 43.4C114.474 43.5733 114.648 43.82 114.748 44.14C114.854 44.46 114.908 44.8367 114.908 45.27V46.95C114.908 47.3833 114.854 47.76 114.748 48.08C114.648 48.4 114.474 48.6467 114.228 48.82C113.988 48.9933 113.654 49.08 113.228 49.08ZM113.228 48.29C113.434 48.29 113.578 48.23 113.658 48.11C113.744 47.99 113.794 47.8333 113.808 47.64C113.828 47.44 113.838 47.2333 113.838 47.02V45.21C113.838 44.99 113.828 44.7833 113.808 44.59C113.794 44.3967 113.744 44.24 113.658 44.12C113.578 43.9933 113.434 43.93 113.228 43.93C113.021 43.93 112.874 43.9933 112.788 44.12C112.701 44.24 112.648 44.3967 112.628 44.59C112.614 44.7833 112.608 44.99 112.608 45.21V47.02C112.608 47.2333 112.614 47.44 112.628 47.64C112.648 47.8333 112.701 47.99 112.788 48.11C112.874 48.23 113.021 48.29 113.228 48.29ZM115.886 49V43.22H116.786V47.11L118.526 43.22H119.366V49H118.486V45.08L116.756 49H115.886ZM117.656 42.59C117.176 42.59 116.836 42.46 116.636 42.2C116.442 41.94 116.346 41.6167 116.346 41.23H116.966C116.972 41.47 117.026 41.6567 117.126 41.79C117.232 41.9167 117.409 41.98 117.656 41.98C117.909 41.98 118.086 41.9133 118.186 41.78C118.292 41.6467 118.346 41.4633 118.346 41.23H118.976C118.976 41.6167 118.876 41.94 118.676 42.2C118.482 42.46 118.142 42.59 117.656 42.59ZM122.741 49V43.22H126.101V49H125.031V44.03H123.811V49H122.741ZM127.185 50.9V43.22H128.255V43.68C128.381 43.5333 128.535 43.4067 128.715 43.3C128.895 43.1933 129.108 43.14 129.355 43.14C129.655 43.14 129.891 43.22 130.065 43.38C130.245 43.5333 130.378 43.73 130.465 43.97C130.551 44.2033 130.608 44.4433 130.635 44.69C130.661 44.93 130.675 45.1367 130.675 45.31V46.71C130.675 47.1167 130.635 47.5033 130.555 47.87C130.475 48.23 130.328 48.5233 130.115 48.75C129.908 48.97 129.615 49.08 129.235 49.08C129.028 49.08 128.845 49.03 128.685 48.93C128.525 48.8233 128.381 48.7033 128.255 48.57V50.9H127.185ZM129.025 48.24C129.211 48.24 129.345 48.1733 129.425 48.04C129.505 47.9 129.555 47.7133 129.575 47.48C129.595 47.2467 129.605 46.99 129.605 46.71V45.31C129.605 45.07 129.591 44.85 129.565 44.65C129.538 44.4433 129.481 44.28 129.395 44.16C129.308 44.04 129.171 43.98 128.985 43.98C128.845 43.98 128.711 44.01 128.585 44.07C128.458 44.13 128.348 44.2 128.255 44.28V47.98C128.355 48.0533 128.468 48.1167 128.595 48.17C128.721 48.2167 128.865 48.24 129.025 48.24ZM133.237 49.08C132.811 49.08 132.474 48.9933 132.227 48.82C131.981 48.6467 131.804 48.4 131.697 48.08C131.597 47.76 131.547 47.3833 131.547 46.95V45.27C131.547 44.8367 131.597 44.46 131.697 44.14C131.804 43.82 131.981 43.5733 132.227 43.4C132.474 43.2267 132.811 43.14 133.237 43.14C133.664 43.14 133.997 43.2267 134.237 43.4C134.484 43.5733 134.657 43.82 134.757 44.14C134.864 44.46 134.917 44.8367 134.917 45.27V46.95C134.917 47.3833 134.864 47.76 134.757 48.08C134.657 48.4 134.484 48.6467 134.237 48.82C133.997 48.9933 133.664 49.08 133.237 49.08ZM133.237 48.29C133.444 48.29 133.587 48.23 133.667 48.11C133.754 47.99 133.804 47.8333 133.817 47.64C133.837 47.44 133.847 47.2333 133.847 47.02V45.21C133.847 44.99 133.837 44.7833 133.817 44.59C133.804 44.3967 133.754 44.24 133.667 44.12C133.587 43.9933 133.444 43.93 133.237 43.93C133.031 43.93 132.884 43.9933 132.797 44.12C132.711 44.24 132.657 44.3967 132.637 44.59C132.624 44.7833 132.617 44.99 132.617 45.21V47.02C132.617 47.2333 132.624 47.44 132.637 47.64C132.657 47.8333 132.711 47.99 132.797 48.11C132.884 48.23 133.031 48.29 133.237 48.29ZM137.885 50.9V48.68H137.785C137.565 48.68 137.339 48.6533 137.105 48.6C136.872 48.54 136.655 48.4333 136.455 48.28C136.255 48.1267 136.092 47.9033 135.965 47.61C135.845 47.3167 135.785 46.9367 135.785 46.47V45.43C135.785 45.0567 135.835 44.7367 135.935 44.47C136.042 44.2033 136.185 43.9867 136.365 43.82C136.552 43.6467 136.762 43.52 136.995 43.44C137.235 43.36 137.489 43.32 137.755 43.32H137.885V40.9H138.875V43.32H139.045C139.399 43.32 139.722 43.3933 140.015 43.54C140.309 43.68 140.542 43.9067 140.715 44.22C140.895 44.5267 140.985 44.93 140.985 45.43V46.47C140.985 46.9367 140.925 47.3167 140.805 47.61C140.685 47.9033 140.525 48.1267 140.325 48.28C140.132 48.4333 139.919 48.54 139.685 48.6C139.459 48.6533 139.235 48.68 139.015 48.68H138.875V50.9H137.885ZM137.815 47.92H137.885V44.02H137.785C137.579 44.02 137.399 44.0533 137.245 44.12C137.092 44.1867 136.972 44.31 136.885 44.49C136.799 44.67 136.755 44.93 136.755 45.27V46.46C136.755 46.8467 136.795 47.1467 136.875 47.36C136.955 47.5667 137.075 47.7133 137.235 47.8C137.395 47.88 137.589 47.92 137.815 47.92ZM138.875 47.92H138.935C139.169 47.92 139.365 47.88 139.525 47.8C139.685 47.7133 139.805 47.5667 139.885 47.36C139.972 47.1467 140.015 46.8467 140.015 46.46V45.27C140.015 44.93 139.972 44.67 139.885 44.49C139.799 44.31 139.675 44.1867 139.515 44.12C139.362 44.0533 139.179 44.02 138.965 44.02H138.875V47.92ZM141.96 49V43.22H142.86V47.11L144.6 43.22H145.44V49H144.56V45.08L142.83 49H141.96ZM146.16 49.05V48.24C146.36 48.24 146.517 48.2 146.63 48.12C146.75 48.04 146.84 47.9067 146.9 47.72C146.967 47.5267 147.017 47.27 147.05 46.95C147.084 46.6233 147.114 46.2167 147.14 45.73L147.27 43.22H150.3V49H149.23V44.03H148.21L148.12 45.73C148.087 46.39 148.037 46.9367 147.97 47.37C147.91 47.8033 147.814 48.1433 147.68 48.39C147.547 48.63 147.367 48.8 147.14 48.9C146.92 49 146.634 49.05 146.28 49.05H146.16ZM151.384 49V43.22H152.454V45.61C152.467 45.61 152.484 45.61 152.504 45.61C152.53 45.61 152.554 45.61 152.574 45.61C152.594 45.61 152.61 45.61 152.624 45.61C153.017 45.6167 153.35 45.6467 153.624 45.7C153.904 45.7467 154.13 45.8333 154.304 45.96C154.477 46.08 154.604 46.25 154.684 46.47C154.764 46.6833 154.804 46.96 154.804 47.3C154.804 47.6133 154.764 47.88 154.684 48.1C154.604 48.3133 154.474 48.4867 154.294 48.62C154.114 48.7533 153.877 48.85 153.584 48.91C153.29 48.97 152.934 49 152.514 49H151.384ZM152.454 48.37H152.514C152.854 48.37 153.12 48.34 153.314 48.28C153.507 48.22 153.644 48.1133 153.724 47.96C153.804 47.8 153.844 47.5767 153.844 47.29C153.844 47.03 153.807 46.8267 153.734 46.68C153.667 46.5267 153.54 46.4167 153.354 46.35C153.174 46.2767 152.91 46.24 152.564 46.24C152.557 46.24 152.54 46.24 152.514 46.24C152.487 46.24 152.467 46.24 152.454 46.24V48.37ZM155.564 50.31L155.394 49.85C155.574 49.79 155.714 49.6833 155.814 49.53C155.921 49.3833 155.974 49.2067 155.974 49H155.404V47.85H156.504V48.98C156.504 49.3333 156.427 49.6133 156.274 49.82C156.121 50.0333 155.884 50.1967 155.564 50.31ZM16.54 64V58.22H19.9V64H18.83V59.03H17.61V64H16.54ZM22.5734 64.08C22.1467 64.08 21.81 63.9933 21.5634 63.82C21.3167 63.6467 21.14 63.4 21.0334 63.08C20.9334 62.76 20.8834 62.3833 20.8834 61.95V60.27C20.8834 59.8367 20.9334 59.46 21.0334 59.14C21.14 58.82 21.3167 58.5733 21.5634 58.4C21.81 58.2267 22.1467 58.14 22.5734 58.14C23 58.14 23.3334 58.2267 23.5734 58.4C23.82 58.5733 23.9934 58.82 24.0934 59.14C24.2 59.46 24.2534 59.8367 24.2534 60.27V61.95C24.2534 62.3833 24.2 62.76 24.0934 63.08C23.9934 63.4 23.82 63.6467 23.5734 63.82C23.3334 63.9933 23 64.08 22.5734 64.08ZM22.5734 63.29C22.78 63.29 22.9234 63.23 23.0034 63.11C23.09 62.99 23.14 62.8333 23.1534 62.64C23.1734 62.44 23.1834 62.2333 23.1834 62.02V60.21C23.1834 59.99 23.1734 59.7833 23.1534 59.59C23.14 59.3967 23.09 59.24 23.0034 59.12C22.9234 58.9933 22.78 58.93 22.5734 58.93C22.3667 58.93 22.22 58.9933 22.1334 59.12C22.0467 59.24 21.9934 59.3967 21.9734 59.59C21.96 59.7833 21.9534 59.99 21.9534 60.21V62.02C21.9534 62.2333 21.96 62.44 21.9734 62.64C21.9934 62.8333 22.0467 62.99 22.1334 63.11C22.22 63.23 22.3667 63.29 22.5734 63.29ZM24.7114 65.47V63.29C24.9114 63.1367 25.0947 62.9533 25.2614 62.74C25.4281 62.5267 25.5747 62.2567 25.7014 61.93C25.8281 61.6033 25.9281 61.2 26.0014 60.72C26.0747 60.24 26.1147 59.66 26.1214 58.98L26.1414 58.22H28.7514V63.24H29.4514V65.47H28.6714L28.5814 64H25.5814L25.4914 65.47H24.7114ZM25.7514 63.24H27.7214V58.99H26.9714L26.9514 59.2C26.9447 59.9067 26.9081 60.4967 26.8414 60.97C26.7814 61.4367 26.6947 61.82 26.5814 62.12C26.4747 62.4133 26.3481 62.6467 26.2014 62.82C26.0614 62.9933 25.9114 63.1333 25.7514 63.24ZM30.1923 65.9V58.22H31.2623V58.68C31.389 58.5333 31.5423 58.4067 31.7223 58.3C31.9023 58.1933 32.1157 58.14 32.3623 58.14C32.6623 58.14 32.899 58.22 33.0723 58.38C33.2523 58.5333 33.3857 58.73 33.4723 58.97C33.559 59.2033 33.6157 59.4433 33.6423 59.69C33.669 59.93 33.6823 60.1367 33.6823 60.31V61.71C33.6823 62.1167 33.6423 62.5033 33.5623 62.87C33.4823 63.23 33.3357 63.5233 33.1223 63.75C32.9157 63.97 32.6223 64.08 32.2423 64.08C32.0357 64.08 31.8523 64.03 31.6923 63.93C31.5323 63.8233 31.389 63.7033 31.2623 63.57V65.9H30.1923ZM32.0323 63.24C32.219 63.24 32.3523 63.1733 32.4323 63.04C32.5123 62.9 32.5623 62.7133 32.5823 62.48C32.6023 62.2467 32.6123 61.99 32.6123 61.71V60.31C32.6123 60.07 32.599 59.85 32.5723 59.65C32.5457 59.4433 32.489 59.28 32.4023 59.16C32.3157 59.04 32.179 58.98 31.9923 58.98C31.8523 58.98 31.719 59.01 31.5923 59.07C31.4657 59.13 31.3557 59.2 31.2623 59.28V62.98C31.3623 63.0533 31.4757 63.1167 31.6023 63.17C31.729 63.2167 31.8723 63.24 32.0323 63.24ZM36.2452 64.08C35.8186 64.08 35.4819 63.9933 35.2352 63.82C34.9886 63.6467 34.8119 63.4 34.7052 63.08C34.6052 62.76 34.5552 62.3833 34.5552 61.95V60.27C34.5552 59.8367 34.6052 59.46 34.7052 59.14C34.8119 58.82 34.9886 58.5733 35.2352 58.4C35.4819 58.2267 35.8186 58.14 36.2452 58.14C36.6719 58.14 37.0052 58.2267 37.2452 58.4C37.4919 58.5733 37.6652 58.82 37.7652 59.14C37.8719 59.46 37.9252 59.8367 37.9252 60.27V61.95C37.9252 62.3833 37.8719 62.76 37.7652 63.08C37.6652 63.4 37.4919 63.6467 37.2452 63.82C37.0052 63.9933 36.6719 64.08 36.2452 64.08ZM36.2452 63.29C36.4519 63.29 36.5952 63.23 36.6752 63.11C36.7619 62.99 36.8119 62.8333 36.8252 62.64C36.8452 62.44 36.8552 62.2333 36.8552 62.02V60.21C36.8552 59.99 36.8452 59.7833 36.8252 59.59C36.8119 59.3967 36.7619 59.24 36.6752 59.12C36.5952 58.9933 36.4519 58.93 36.2452 58.93C36.0386 58.93 35.8919 58.9933 35.8052 59.12C35.7186 59.24 35.6652 59.3967 35.6452 59.59C35.6319 59.7833 35.6252 59.99 35.6252 60.21V62.02C35.6252 62.2333 35.6319 62.44 35.6452 62.64C35.6652 62.8333 35.7186 62.99 35.8052 63.11C35.8919 63.23 36.0386 63.29 36.2452 63.29ZM40.5133 64.08C40.1799 64.08 39.8899 64.0067 39.6433 63.86C39.3966 63.7067 39.2066 63.4833 39.0733 63.19C38.9466 62.89 38.8833 62.52 38.8833 62.08V58.68C38.8833 58.1733 38.9199 57.76 38.9933 57.44C39.0733 57.12 39.1966 56.8667 39.3633 56.68C39.5299 56.4933 39.7466 56.3467 40.0133 56.24C40.2933 56.1267 40.5433 56.0467 40.7633 56C40.9833 55.9533 41.1933 55.9033 41.3933 55.85C41.5999 55.79 41.8099 55.6967 42.0233 55.57L42.2433 56.46C42.0566 56.58 41.8499 56.67 41.6233 56.73C41.4033 56.7833 41.1833 56.8333 40.9633 56.88C40.7433 56.92 40.5366 56.9867 40.3433 57.08C40.1499 57.1733 39.9999 57.3167 39.8933 57.51C39.7866 57.6967 39.7333 57.9567 39.7333 58.29V59.22C39.8199 59.1333 39.9333 59.0533 40.0733 58.98C40.2133 58.9 40.3633 58.8333 40.5233 58.78C40.6899 58.7267 40.8466 58.7 40.9933 58.7C41.2333 58.7 41.4533 58.7633 41.6533 58.89C41.8533 59.0167 42.0133 59.2333 42.1333 59.54C42.2533 59.84 42.3133 60.25 42.3133 60.77V61.87C42.3133 62.4767 42.2366 62.94 42.0833 63.26C41.9299 63.5733 41.7166 63.79 41.4433 63.91C41.1766 64.0233 40.8666 64.08 40.5133 64.08ZM40.6133 63.29C40.7599 63.29 40.8766 63.2567 40.9633 63.19C41.0566 63.1167 41.1233 63 41.1633 62.84C41.2099 62.68 41.2333 62.4667 41.2333 62.2V60.45C41.2333 60.2033 41.2166 60.0067 41.1833 59.86C41.1499 59.7133 41.0966 59.6067 41.0233 59.54C40.9499 59.4667 40.8499 59.43 40.7233 59.43C40.6566 59.43 40.5799 59.4433 40.4933 59.47C40.4133 59.49 40.3266 59.5233 40.2333 59.57C40.1466 59.61 40.0533 59.6633 39.9533 59.73V62.11C39.9533 62.39 39.9733 62.6167 40.0133 62.79C40.0599 62.9633 40.1299 63.09 40.2233 63.17C40.3233 63.25 40.4533 63.29 40.6133 63.29ZM43.288 64V58.22H44.358V60.65H45.728V58.22H46.798V64H45.728V61.43H44.358V64H43.288ZM49.4779 64.08C49.0246 64.08 48.6746 63.9933 48.4279 63.82C48.1812 63.64 48.0079 63.38 47.9079 63.04C47.8146 62.6933 47.7679 62.27 47.7679 61.77V60.45C47.7679 59.9367 47.8179 59.51 47.9179 59.17C48.0179 58.83 48.1912 58.5733 48.4379 58.4C48.6912 58.2267 49.0379 58.14 49.4779 58.14C49.9646 58.14 50.3212 58.24 50.5479 58.44C50.7812 58.64 50.9346 58.93 51.0079 59.31C51.0812 59.6833 51.1179 60.1333 51.1179 60.66V61.13H48.8379V62.29C48.8379 62.5233 48.8579 62.7133 48.8979 62.86C48.9446 63.0067 49.0146 63.1167 49.1079 63.19C49.2079 63.2567 49.3346 63.29 49.4879 63.29C49.6479 63.29 49.7679 63.2533 49.8479 63.18C49.9346 63.1 49.9912 62.99 50.0179 62.85C50.0512 62.7033 50.0679 62.5333 50.0679 62.34V61.99H51.1079V62.21C51.1079 62.79 50.9846 63.2467 50.7379 63.58C50.4912 63.9133 50.0712 64.08 49.4779 64.08ZM48.8379 60.55H50.0679V60.03C50.0679 59.79 50.0546 59.59 50.0279 59.43C50.0012 59.2633 49.9446 59.14 49.8579 59.06C49.7779 58.9733 49.6479 58.93 49.4679 58.93C49.2946 58.93 49.1612 58.97 49.0679 59.05C48.9812 59.13 48.9212 59.2667 48.8879 59.46C48.8546 59.6467 48.8379 59.9067 48.8379 60.24V60.55ZM53.6869 64.08C53.2335 64.08 52.8835 63.9933 52.6369 63.82C52.3902 63.64 52.2169 63.38 52.1169 63.04C52.0235 62.6933 51.9769 62.27 51.9769 61.77V60.45C51.9769 59.9367 52.0269 59.51 52.1269 59.17C52.2269 58.83 52.4002 58.5733 52.6469 58.4C52.9002 58.2267 53.2469 58.14 53.6869 58.14C54.1735 58.14 54.5302 58.24 54.7569 58.44C54.9902 58.64 55.1435 58.93 55.2169 59.31C55.2902 59.6833 55.3269 60.1333 55.3269 60.66V61.13H53.0469V62.29C53.0469 62.5233 53.0669 62.7133 53.1069 62.86C53.1535 63.0067 53.2235 63.1167 53.3169 63.19C53.4169 63.2567 53.5435 63.29 53.6969 63.29C53.8569 63.29 53.9769 63.2533 54.0569 63.18C54.1435 63.1 54.2002 62.99 54.2269 62.85C54.2602 62.7033 54.2769 62.5333 54.2769 62.34V61.99H55.3169V62.21C55.3169 62.79 55.1935 63.2467 54.9469 63.58C54.7002 63.9133 54.2802 64.08 53.6869 64.08ZM53.0469 60.55H54.2769V60.03C54.2769 59.79 54.2635 59.59 54.2369 59.43C54.2102 59.2633 54.1535 59.14 54.0669 59.06C53.9869 58.9733 53.8569 58.93 53.6769 58.93C53.5035 58.93 53.3702 58.97 53.2769 59.05C53.1902 59.13 53.1302 59.2667 53.0969 59.46C53.0635 59.6467 53.0469 59.9067 53.0469 60.24V60.55ZM58.581 64V58.22H60.201C60.5943 58.22 60.901 58.2867 61.121 58.42C61.3477 58.5467 61.5077 58.7167 61.601 58.93C61.701 59.1367 61.7543 59.36 61.761 59.6C61.7677 59.8867 61.721 60.1433 61.621 60.37C61.521 60.5967 61.3143 60.7567 61.001 60.85C61.241 60.8967 61.4243 60.9967 61.551 61.15C61.6843 61.2967 61.7743 61.4733 61.821 61.68C61.8743 61.8867 61.901 62.1 61.901 62.32C61.901 62.6533 61.851 62.9467 61.751 63.2C61.6577 63.4533 61.491 63.65 61.251 63.79C61.0177 63.93 60.6843 64 60.251 64H58.581ZM59.631 63.19H60.011C60.1643 63.19 60.3043 63.17 60.431 63.13C60.5577 63.0833 60.6577 62.9933 60.731 62.86C60.811 62.7267 60.851 62.5333 60.851 62.28C60.851 61.98 60.8143 61.7633 60.741 61.63C60.6743 61.49 60.581 61.4033 60.461 61.37C60.3477 61.3367 60.2143 61.32 60.061 61.32H59.631V63.19ZM59.631 60.55H60.151C60.3577 60.55 60.521 60.49 60.641 60.37C60.761 60.25 60.821 60.0367 60.821 59.73C60.821 59.4567 60.751 59.2667 60.611 59.16C60.471 59.0533 60.281 59 60.041 59H59.631V60.55ZM66.5966 64.08C66.1232 64.08 65.7632 63.9867 65.5166 63.8C65.2766 63.6067 65.1132 63.3367 65.0266 62.99C64.9466 62.6433 64.9066 62.24 64.9066 61.78V60.45C64.9066 59.9633 64.9499 59.55 65.0366 59.21C65.1232 58.8633 65.2866 58.6 65.5266 58.42C65.7732 58.2333 66.1299 58.14 66.5966 58.14C67.0166 58.14 67.3399 58.21 67.5666 58.35C67.7999 58.4833 67.9599 58.6867 68.0466 58.96C68.1332 59.2267 68.1766 59.56 68.1766 59.96V60.3H67.2066V59.95C67.2066 59.6967 67.1899 59.4967 67.1566 59.35C67.1232 59.2033 67.0632 59.0967 66.9766 59.03C66.8899 58.9633 66.7666 58.93 66.6066 58.93C66.4332 58.93 66.2999 58.97 66.2066 59.05C66.1132 59.13 66.0499 59.2667 66.0166 59.46C65.9899 59.6467 65.9766 59.9033 65.9766 60.23V62.05C65.9766 62.5433 66.0232 62.8733 66.1166 63.04C66.2099 63.2067 66.3766 63.29 66.6166 63.29C66.7966 63.29 66.9266 63.25 67.0066 63.17C67.0932 63.0833 67.1466 62.9633 67.1666 62.81C67.1932 62.6567 67.2066 62.4833 67.2066 62.29V61.82H68.1766V62.22C68.1766 62.6067 68.1299 62.94 68.0366 63.22C67.9499 63.5 67.7899 63.7133 67.5566 63.86C67.3299 64.0067 67.0099 64.08 66.5966 64.08ZM69.1279 64V58.22H72.4879V64H71.4179V59.03H70.1979V64H69.1279ZM73.5713 65.9V58.22H74.6413V58.68C74.7679 58.5333 74.9213 58.4067 75.1013 58.3C75.2813 58.1933 75.4946 58.14 75.7413 58.14C76.0413 58.14 76.2779 58.22 76.4513 58.38C76.6313 58.5333 76.7646 58.73 76.8513 58.97C76.9379 59.2033 76.9946 59.4433 77.0213 59.69C77.0479 59.93 77.0613 60.1367 77.0613 60.31V61.71C77.0613 62.1167 77.0213 62.5033 76.9413 62.87C76.8613 63.23 76.7146 63.5233 76.5013 63.75C76.2946 63.97 76.0013 64.08 75.6213 64.08C75.4146 64.08 75.2313 64.03 75.0713 63.93C74.9113 63.8233 74.7679 63.7033 74.6413 63.57V65.9H73.5713ZM75.4113 63.24C75.5979 63.24 75.7313 63.1733 75.8113 63.04C75.8913 62.9 75.9413 62.7133 75.9613 62.48C75.9813 62.2467 75.9913 61.99 75.9913 61.71V60.31C75.9913 60.07 75.9779 59.85 75.9513 59.65C75.9246 59.4433 75.8679 59.28 75.7813 59.16C75.6946 59.04 75.5579 58.98 75.3713 58.98C75.2313 58.98 75.0979 59.01 74.9713 59.07C74.8446 59.13 74.7346 59.2 74.6413 59.28V62.98C74.7413 63.0533 74.8546 63.1167 74.9813 63.17C75.1079 63.2167 75.2513 63.24 75.4113 63.24ZM79.0741 64.08C78.8475 64.08 78.6475 64.0167 78.4741 63.89C78.3008 63.7567 78.1641 63.59 78.0641 63.39C77.9641 63.1833 77.9141 62.9667 77.9141 62.74C77.9141 62.38 77.9741 62.0767 78.0941 61.83C78.2141 61.5833 78.3775 61.3767 78.5841 61.21C78.7975 61.0367 79.0408 60.8867 79.3141 60.76C79.5941 60.6333 79.8875 60.51 80.1941 60.39V59.98C80.1941 59.7467 80.1808 59.5533 80.1541 59.4C80.1275 59.2467 80.0708 59.1333 79.9841 59.06C79.9041 58.98 79.7808 58.94 79.6141 58.94C79.4675 58.94 79.3475 58.9733 79.2541 59.04C79.1675 59.1067 79.1041 59.2033 79.0641 59.33C79.0241 59.45 79.0041 59.5933 79.0041 59.76V60.05L77.9441 60.01C77.9575 59.37 78.1041 58.9 78.3841 58.6C78.6641 58.2933 79.0975 58.14 79.6841 58.14C80.2575 58.14 80.6641 58.2967 80.9041 58.61C81.1441 58.9233 81.2641 59.3767 81.2641 59.97V62.61C81.2641 62.79 81.2675 62.9633 81.2741 63.13C81.2875 63.2967 81.3008 63.4533 81.3141 63.6C81.3341 63.74 81.3508 63.8733 81.3641 64H80.3841C80.3641 63.8933 80.3375 63.76 80.3041 63.6C80.2775 63.4333 80.2575 63.2833 80.2441 63.15C80.1775 63.3767 80.0475 63.59 79.8541 63.79C79.6675 63.9833 79.4075 64.08 79.0741 64.08ZM79.4941 63.16C79.6008 63.16 79.7008 63.13 79.7941 63.07C79.8875 63.01 79.9708 62.9433 80.0441 62.87C80.1175 62.79 80.1675 62.7267 80.1941 62.68V61.04C80.0275 61.1333 79.8708 61.2267 79.7241 61.32C79.5775 61.4133 79.4475 61.5133 79.3341 61.62C79.2275 61.72 79.1408 61.8367 79.0741 61.97C79.0141 62.0967 78.9841 62.2433 78.9841 62.41C78.9841 62.6433 79.0275 62.8267 79.1141 62.96C79.2008 63.0933 79.3275 63.16 79.4941 63.16ZM82.292 64V58.22H83.912C84.3053 58.22 84.612 58.2867 84.832 58.42C85.0586 58.5467 85.2186 58.7167 85.312 58.93C85.412 59.1367 85.4653 59.36 85.472 59.6C85.4786 59.8867 85.432 60.1433 85.332 60.37C85.232 60.5967 85.0253 60.7567 84.712 60.85C84.952 60.8967 85.1353 60.9967 85.262 61.15C85.3953 61.2967 85.4853 61.4733 85.532 61.68C85.5853 61.8867 85.612 62.1 85.612 62.32C85.612 62.6533 85.562 62.9467 85.462 63.2C85.3686 63.4533 85.202 63.65 84.962 63.79C84.7286 63.93 84.3953 64 83.962 64H82.292ZM83.342 63.19H83.722C83.8753 63.19 84.0153 63.17 84.142 63.13C84.2686 63.0833 84.3686 62.9933 84.442 62.86C84.522 62.7267 84.562 62.5333 84.562 62.28C84.562 61.98 84.5253 61.7633 84.452 61.63C84.3853 61.49 84.292 61.4033 84.172 61.37C84.0586 61.3367 83.9253 61.32 83.772 61.32H83.342V63.19ZM83.342 60.55H83.862C84.0686 60.55 84.232 60.49 84.352 60.37C84.472 60.25 84.532 60.0367 84.532 59.73C84.532 59.4567 84.462 59.2667 84.322 59.16C84.182 59.0533 83.992 59 83.752 59H83.342V60.55ZM86.4423 64V58.22H87.5123V60.66H87.8123L88.9023 58.22H90.0023L88.7923 61.02L90.0223 64H88.9023L87.8123 61.3H87.5123V64H86.4423ZM92.1927 64.08C91.7394 64.08 91.3894 63.9933 91.1427 63.82C90.8961 63.64 90.7227 63.38 90.6227 63.04C90.5294 62.6933 90.4827 62.27 90.4827 61.77V60.45C90.4827 59.9367 90.5327 59.51 90.6327 59.17C90.7327 58.83 90.9061 58.5733 91.1527 58.4C91.4061 58.2267 91.7527 58.14 92.1927 58.14C92.6794 58.14 93.0361 58.24 93.2627 58.44C93.4961 58.64 93.6494 58.93 93.7227 59.31C93.7961 59.6833 93.8327 60.1333 93.8327 60.66V61.13H91.5527V62.29C91.5527 62.5233 91.5727 62.7133 91.6127 62.86C91.6594 63.0067 91.7294 63.1167 91.8227 63.19C91.9227 63.2567 92.0494 63.29 92.2027 63.29C92.3627 63.29 92.4827 63.2533 92.5627 63.18C92.6494 63.1 92.7061 62.99 92.7327 62.85C92.7661 62.7033 92.7827 62.5333 92.7827 62.34V61.99H93.8227V62.21C93.8227 62.79 93.6994 63.2467 93.4527 63.58C93.2061 63.9133 92.7861 64.08 92.1927 64.08ZM91.5527 60.55H92.7827V60.03C92.7827 59.79 92.7694 59.59 92.7427 59.43C92.7161 59.2633 92.6594 59.14 92.5727 59.06C92.4927 58.9733 92.3627 58.93 92.1827 58.93C92.0094 58.93 91.8761 58.97 91.7827 59.05C91.6961 59.13 91.6361 59.2667 91.6027 59.46C91.5694 59.6467 91.5527 59.9067 91.5527 60.24V60.55Z"></path>
</svg>
