<svg xmlns="http://www.w3.org/2000/svg" fill="none" viewBox="0 0 140 22" height="22" width="140">
<rect stroke="#0D0E12" fill="white" height="21" width="139" y="0.5" x="0.5"></rect>
<path fill="#0D0E12" d="M67.21 15L68.74 6.9H70.78L72.29 15H70.64L70.37 13.29H69.18L68.9 15H67.21ZM69.34 12.22H70.2L69.77 9.06L69.34 12.22ZM73.1078 15V6.9H75.2178C75.5645 6.9 75.8911 6.92667 76.1978 6.98C76.5111 7.03333 76.7878 7.13667 77.0278 7.29C77.2678 7.43667 77.4545 7.65 77.5878 7.93C77.7278 8.20333 77.7978 8.56667 77.7978 9.02C77.7978 9.34667 77.7478 9.62333 77.6478 9.85C77.5545 10.07 77.4178 10.2467 77.2378 10.38C77.0645 10.5133 76.8545 10.6033 76.6078 10.65C76.9211 10.69 77.1845 10.7933 77.3978 10.96C77.6111 11.12 77.7711 11.3367 77.8778 11.61C77.9911 11.8833 78.0478 12.2133 78.0478 12.6C78.0478 13.02 77.9911 13.3833 77.8778 13.69C77.7711 13.99 77.6145 14.2367 77.4078 14.43C77.2011 14.6233 76.9445 14.7667 76.6378 14.86C76.3378 14.9533 75.9911 15 75.5978 15H73.1078ZM74.8978 13.75H75.2778C75.6711 13.75 75.9411 13.65 76.0878 13.45C76.2411 13.25 76.3178 12.9567 76.3178 12.57C76.3178 12.2633 76.2845 12.02 76.2178 11.84C76.1511 11.66 76.0411 11.53 75.8878 11.45C75.7345 11.3633 75.5278 11.32 75.2678 11.32H74.8978V13.75ZM74.8978 10.14H75.2478C75.5211 10.14 75.7278 10.1 75.8678 10.02C76.0078 9.93333 76.1011 9.81 76.1478 9.65C76.2011 9.49 76.2278 9.29667 76.2278 9.07C76.2278 8.85667 76.1878 8.68 76.1078 8.54C76.0345 8.39333 75.9211 8.28333 75.7678 8.21C75.6211 8.13667 75.4345 8.1 75.2078 8.1H74.8978V10.14ZM81.3067 15.12C80.7001 15.12 80.2201 15.0133 79.8667 14.8C79.5134 14.5867 79.2601 14.28 79.1067 13.88C78.9534 13.48 78.8767 13.0033 78.8767 12.45V9.44C78.8767 8.88 78.9534 8.40333 79.1067 8.01C79.2601 7.61667 79.5134 7.31667 79.8667 7.11C80.2201 6.89667 80.7001 6.79 81.3067 6.79C81.9201 6.79 82.4034 6.89667 82.7567 7.11C83.1167 7.31667 83.3734 7.61667 83.5267 8.01C83.6801 8.40333 83.7567 8.88 83.7567 9.44V12.45C83.7567 13.0033 83.6801 13.48 83.5267 13.88C83.3734 14.28 83.1167 14.5867 82.7567 14.8C82.4034 15.0133 81.9201 15.12 81.3067 15.12ZM81.3067 13.85C81.4934 13.85 81.6301 13.8033 81.7167 13.71C81.8034 13.6167 81.8601 13.4967 81.8867 13.35C81.9134 13.2033 81.9267 13.0533 81.9267 12.9V9C81.9267 8.84 81.9134 8.69 81.8867 8.55C81.8601 8.40333 81.8034 8.28333 81.7167 8.19C81.6301 8.09667 81.4934 8.05 81.3067 8.05C81.1334 8.05 81.0034 8.09667 80.9167 8.19C80.8301 8.28333 80.7734 8.40333 80.7467 8.55C80.7201 8.69 80.7067 8.84 80.7067 9V12.9C80.7067 13.0533 80.7167 13.2033 80.7367 13.35C80.7634 13.4967 80.8167 13.6167 80.8967 13.71C80.9834 13.8033 81.1201 13.85 81.3067 13.85ZM87.1861 15.12C86.5661 15.12 86.0794 15.02 85.7261 14.82C85.3794 14.6133 85.1361 14.3167 84.9961 13.93C84.8561 13.5367 84.7861 13.0567 84.7861 12.49V6.9H86.5561V12.76C86.5561 12.9267 86.5694 13.0933 86.5961 13.26C86.6228 13.4267 86.6794 13.5633 86.7661 13.67C86.8594 13.7767 86.9994 13.83 87.1861 13.83C87.3794 13.83 87.5194 13.7767 87.6061 13.67C87.6928 13.5633 87.7461 13.4267 87.7661 13.26C87.7928 13.0933 87.8061 12.9267 87.8061 12.76V6.9H89.5861V12.49C89.5861 13.0567 89.5128 13.5367 89.3661 13.93C89.2261 14.3167 88.9828 14.6133 88.6361 14.82C88.2894 15.02 87.8061 15.12 87.1861 15.12ZM91.455 15V8.23H90.235V6.9H94.465V8.23H93.255V15H91.455Z"></path>
<circle stroke-width="1.5" stroke="#0D0E12" fill="white" r="6" cy="11" cx="54"></circle>
<rect fill="#0D0E12" height="5" width="2" y="10" x="53"></rect>
<rect fill="#0D0E12" height="2" width="2" y="7" x="53"></rect>
</svg>
