<svg xmlns="http://www.w3.org/2000/svg" fill="none" viewBox="0 0 38 38" height="38" width="38">
<rect fill="#FF0000" height="38" width="38"></rect>
<mask height="38" width="38" y="0" x="0" maskUnits="userSpaceOnUse" style="mask-type:alpha" id="mask0_1197_29">
<rect fill="#FF0000" height="38" width="38"></rect>
</mask>
<g mask="url(#mask0_1197_29)">
<rect fill="#D20000" transform="rotate(45 21.4037 -18)" height="55.7253" width="1" y="-18" x="21.4037"></rect>
<rect fill="#D20000" transform="rotate(45 38.3743 -1.02942)" height="55.7253" width="1" y="-1.02942" x="38.3743"></rect>
<rect fill="#D20000" transform="rotate(45 29.889 -9.51477)" height="55.7253" width="1" y="-9.51477" x="29.889"></rect>
<rect fill="#D20000" transform="rotate(45 46.8596 7.45581)" height="55.7253" width="1" y="7.45581" x="46.8596"></rect>
<rect fill="#D20000" transform="rotate(45 25.6464 -13.7573)" height="55.7253" width="1" y="-13.7573" x="25.6464"></rect>
<rect fill="#D20000" transform="rotate(45 42.6169 3.21326)" height="55.7253" width="1" y="3.21326" x="42.6169"></rect>
<rect fill="#D20000" transform="rotate(45 34.1317 -5.27209)" height="55.7253" width="1" y="-5.27209" x="34.1317"></rect>
<rect fill="#D20000" transform="rotate(45 51.1022 11.6985)" height="55.7253" width="1" y="11.6985" x="51.1022"></rect>
<rect fill="#D20000" transform="rotate(45 23.5251 -15.8787)" height="55.7253" width="1" y="-15.8787" x="23.5251"></rect>
<rect fill="#D20000" transform="rotate(45 40.4956 1.09192)" height="55.7253" width="1" y="1.09192" x="40.4956"></rect>
<rect fill="#D20000" transform="rotate(45 32.0104 -7.39343)" height="55.7253" width="1" y="-7.39343" x="32.0104"></rect>
<rect fill="#D20000" transform="rotate(45 48.9809 9.57715)" height="55.7253" width="1" y="9.57715" x="48.9809"></rect>
<rect fill="#D20000" transform="rotate(45 27.7677 -11.636)" height="55.7253" width="1" y="-11.636" x="27.7677"></rect>
<rect fill="#D20000" transform="rotate(45 44.7383 5.33447)" height="55.7253" width="1" y="5.33447" x="44.7383"></rect>
<rect fill="#D20000" transform="rotate(45 36.253 -3.15076)" height="55.7253" width="1" y="-3.15076" x="36.253"></rect>
<rect fill="#D20000" transform="rotate(45 53.2236 13.8198)" height="55.7253" width="1" y="13.8198" x="53.2236"></rect>
<rect fill="#D20000" transform="rotate(45 55.3448 15.9412)" height="55.7253" width="1" y="15.9412" x="55.3448"></rect>
<rect fill="#D20000" transform="rotate(45 57.4662 18.0625)" height="55.7253" width="1" y="18.0625" x="57.4662"></rect>
<rect fill="#D20000" transform="rotate(45 59.5875 20.1837)" height="55.7253" width="1" y="20.1837" x="59.5875"></rect>
</g>
</svg>
