<svg xmlns="http://www.w3.org/2000/svg" fill="none" viewBox="0 0 13 18" height="18" width="13">
<rect fill-opacity="0.01" fill="#0D0E12" height="18" width="13"></rect>
<path fill="white" d="M3.132 14.144C2.508 14.144 2.016 14.048 1.656 13.856C1.296 13.664 1.04 13.384 0.888 13.016C0.736 12.64 0.66 12.18 0.66 11.636C0.66 11.612 0.66 11.588 0.66 11.564C0.66 11.532 0.66 11.504 0.66 11.48H2.532C2.532 11.872 2.564 12.164 2.628 12.356C2.7 12.54 2.872 12.632 3.144 12.632C3.328 12.632 3.464 12.576 3.552 12.464C3.64 12.352 3.696 12.156 3.72 11.876C3.752 11.588 3.768 11.196 3.768 10.7V9.836C3.664 10.004 3.504 10.132 3.288 10.22C3.08 10.308 2.844 10.36 2.58 10.376C2.068 10.384 1.656 10.256 1.344 9.992C1.032 9.728 0.808 9.372 0.672 8.924C0.536 8.476 0.468 7.988 0.468 7.46C0.468 6.78 0.552 6.196 0.72 5.708C0.896 5.212 1.18 4.828 1.572 4.556C1.964 4.284 2.484 4.148 3.132 4.148C3.772 4.148 4.288 4.276 4.68 4.532C5.072 4.788 5.356 5.148 5.532 5.612C5.716 6.068 5.808 6.608 5.808 7.232V10.856C5.808 11.488 5.732 12.052 5.58 12.548C5.436 13.044 5.172 13.436 4.788 13.724C4.404 14.004 3.852 14.144 3.132 14.144ZM3.156 8.84C3.316 8.84 3.444 8.796 3.54 8.708C3.636 8.62 3.712 8.536 3.768 8.456V6.872C3.768 6.648 3.752 6.444 3.72 6.26C3.688 6.068 3.628 5.916 3.54 5.804C3.452 5.684 3.316 5.624 3.132 5.624C2.956 5.624 2.824 5.688 2.736 5.816C2.648 5.936 2.588 6.12 2.556 6.368C2.532 6.608 2.52 6.908 2.52 7.268C2.52 7.58 2.528 7.856 2.544 8.096C2.568 8.328 2.624 8.512 2.712 8.648C2.8 8.776 2.948 8.84 3.156 8.84ZM9.76903 14.144C9.13703 14.144 8.62103 14.008 8.22103 13.736C7.82903 13.456 7.54103 13.076 7.35703 12.596C7.17303 12.116 7.08103 11.568 7.08103 10.952V7.436C7.08103 6.804 7.15303 6.24 7.29703 5.744C7.44903 5.248 7.71703 4.86 8.10103 4.58C8.48503 4.292 9.03703 4.148 9.75703 4.148C10.381 4.148 10.873 4.244 11.233 4.436C11.593 4.628 11.849 4.908 12.001 5.276C12.153 5.644 12.229 6.1 12.229 6.644C12.229 6.676 12.229 6.708 12.229 6.74C12.237 6.764 12.241 6.788 12.241 6.812H10.357C10.357 6.42 10.325 6.132 10.261 5.948C10.205 5.756 10.041 5.66 9.76903 5.66C9.58503 5.66 9.44503 5.716 9.34903 5.828C9.26103 5.94 9.20103 6.136 9.16903 6.416C9.13703 6.696 9.12103 7.088 9.12103 7.592V8.456C9.21703 8.288 9.37303 8.16 9.58903 8.072C9.80503 7.976 10.049 7.924 10.321 7.916C10.833 7.9 11.241 8.016 11.545 8.264C11.857 8.512 12.081 8.852 12.217 9.284C12.353 9.708 12.421 10.184 12.421 10.712C12.421 11.392 12.341 11.992 12.181 12.512C12.021 13.024 11.749 13.424 11.365 13.712C10.981 14 10.449 14.144 9.76903 14.144ZM9.79303 12.668C9.97703 12.668 10.109 12.608 10.189 12.488C10.277 12.36 10.333 12.176 10.357 11.936C10.389 11.688 10.405 11.384 10.405 11.024C10.405 10.704 10.393 10.428 10.369 10.196C10.353 9.964 10.301 9.784 10.213 9.656C10.125 9.52 9.97703 9.452 9.76903 9.452C9.67303 9.452 9.58103 9.472 9.49303 9.512C9.40503 9.552 9.32903 9.604 9.26503 9.668C9.20103 9.724 9.15303 9.78 9.12103 9.836V11.42C9.12103 11.636 9.13703 11.84 9.16903 12.032C9.20903 12.224 9.27703 12.38 9.37303 12.5C9.47703 12.612 9.61703 12.668 9.79303 12.668Z"></path>
</svg>
