<svg xmlns="http://www.w3.org/2000/svg" fill="none" viewBox="0 0 13 18" height="18" width="13">
<rect fill-opacity="0.01" fill="#0D0E12" height="18" width="13"></rect>
<path fill="white" d="M1.596 14V6.26C1.508 6.308 1.408 6.356 1.296 6.404C1.184 6.452 1.064 6.504 0.936 6.56C0.816 6.608 0.696 6.656 0.576 6.704C0.464 6.752 0.36 6.8 0.264 6.848V5.36C0.352 5.312 0.476 5.248 0.636 5.168C0.796 5.08 0.968 4.984 1.152 4.88C1.336 4.776 1.508 4.672 1.668 4.568C1.828 4.456 1.948 4.36 2.028 4.28H3.6V14H1.596ZM7.97606 14.144C7.34406 14.144 6.82806 14.008 6.42806 13.736C6.03606 13.456 5.74806 13.076 5.56406 12.596C5.38006 12.116 5.28806 11.568 5.28806 10.952V7.436C5.28806 6.804 5.36006 6.24 5.50406 5.744C5.65606 5.248 5.92406 4.86 6.30806 4.58C6.69206 4.292 7.24406 4.148 7.96406 4.148C8.58806 4.148 9.08006 4.244 9.44006 4.436C9.80006 4.628 10.0561 4.908 10.2081 5.276C10.3601 5.644 10.4361 6.1 10.4361 6.644C10.4361 6.676 10.4361 6.708 10.4361 6.74C10.4441 6.764 10.4481 6.788 10.4481 6.812H8.56406C8.56406 6.42 8.53206 6.132 8.46806 5.948C8.41206 5.756 8.24806 5.66 7.97606 5.66C7.79206 5.66 7.65206 5.716 7.55606 5.828C7.46806 5.94 7.40806 6.136 7.37606 6.416C7.34406 6.696 7.32806 7.088 7.32806 7.592V8.456C7.42406 8.288 7.58006 8.16 7.79606 8.072C8.01206 7.976 8.25606 7.924 8.52806 7.916C9.04006 7.9 9.44806 8.016 9.75206 8.264C10.0641 8.512 10.2881 8.852 10.4241 9.284C10.5601 9.708 10.6281 10.184 10.6281 10.712C10.6281 11.392 10.5481 11.992 10.3881 12.512C10.2281 13.024 9.95606 13.424 9.57206 13.712C9.18806 14 8.65606 14.144 7.97606 14.144ZM8.00006 12.668C8.18406 12.668 8.31606 12.608 8.39606 12.488C8.48406 12.36 8.54006 12.176 8.56406 11.936C8.59606 11.688 8.61206 11.384 8.61206 11.024C8.61206 10.704 8.60006 10.428 8.57606 10.196C8.56006 9.964 8.50806 9.784 8.42006 9.656C8.33206 9.52 8.18406 9.452 7.97606 9.452C7.88006 9.452 7.78806 9.472 7.70006 9.512C7.61206 9.552 7.53606 9.604 7.47206 9.668C7.40806 9.724 7.36006 9.78 7.32806 9.836V11.42C7.32806 11.636 7.34406 11.84 7.37606 12.032C7.41606 12.224 7.48406 12.38 7.58006 12.5C7.68406 12.612 7.82406 12.668 8.00006 12.668Z"></path>
</svg>
