<svg xmlns="http://www.w3.org/2000/svg" fill="none" viewBox="0 0 214 84" height="84" width="214">
<mask fill="white" id="path-1-inside-1_1435_73">
<path d="M0 0H214V84H0V0Z"></path>
</mask>
<path fill="#0D0E12" d="M0 0H214V84H0V0Z"></path>
<path mask="url(#path-1-inside-1_1435_73)" fill="white" d="M0 0V-1H-1V0H0ZM0 84H-1V85H0V84ZM0 1H214V-1H0V1ZM214 83H0V85H214V83ZM1 84V0H-1V84H1Z"></path>
<path fill="#FFF500" d="M16.756 38V28.28H18.904V32.216H20.404V28.28H22.564V38H20.404V33.752H18.904V38H16.756ZM24.0802 38V28.28H25.7722V33.848L28.2562 28.28H29.6482V38H27.9202V32.336L25.3882 38H24.0802ZM34.8063 38V34.004C34.4063 34.06 34.0143 34.088 33.6303 34.088C33.1663 34.088 32.7263 34 32.3103 33.824C31.9023 33.64 31.5703 33.376 31.3143 33.032C31.0583 32.68 30.9303 32.252 30.9303 31.748V28.28H33.0783V31.736C33.0783 31.936 33.0983 32.116 33.1383 32.276C33.1863 32.428 33.2903 32.548 33.4503 32.636C33.6183 32.724 33.8783 32.768 34.2303 32.768C34.3183 32.768 34.4103 32.764 34.5063 32.756C34.6023 32.748 34.7023 32.736 34.8063 32.72V28.28H36.9543V38H34.8063ZM38.4708 38V28.28H40.6188V32.384H41.0988C41.7068 32.384 42.2228 32.484 42.6468 32.684C43.0708 32.884 43.3948 33.192 43.6188 33.608C43.8428 34.016 43.9548 34.544 43.9548 35.192C43.9548 35.784 43.8748 36.264 43.7148 36.632C43.5628 37 43.3468 37.284 43.0668 37.484C42.7868 37.684 42.4588 37.82 42.0828 37.892C41.7148 37.964 41.3188 38 40.8948 38H38.4708ZM40.6188 36.596H40.9068C41.1788 36.596 41.3908 36.544 41.5428 36.44C41.7028 36.336 41.8148 36.176 41.8788 35.96C41.9508 35.744 41.9828 35.472 41.9748 35.144C41.9668 34.784 41.8908 34.484 41.7468 34.244C41.6108 33.996 41.3228 33.872 40.8828 33.872H40.6188V36.596ZM44.5028 38L46.3508 33.68C45.9828 33.456 45.6788 33.128 45.4388 32.696C45.2068 32.264 45.0908 31.76 45.0908 31.184C45.0908 30.432 45.2228 29.848 45.4868 29.432C45.7508 29.008 46.1268 28.712 46.6148 28.544C47.1108 28.368 47.7028 28.28 48.3908 28.28H50.8868V38H48.7508V34.16H48.3668C48.3588 34.16 48.3388 34.16 48.3068 34.16C48.2748 34.16 48.2508 34.16 48.2348 34.16L46.8188 38H44.5028ZM48.4388 32.648H48.7508V29.756H48.4148C47.9748 29.756 47.6428 29.88 47.4188 30.128C47.2028 30.368 47.0948 30.724 47.0948 31.196C47.0948 31.612 47.1908 31.96 47.3828 32.24C47.5748 32.512 47.9268 32.648 48.4388 32.648Z"></path>
<path fill="white" d="M16.63 56V47.9H17.76V51.4H19.84V47.9H20.97V56H19.84V52.21H17.76V56H16.63ZM22.1455 56V50.22H23.0455V54.11L24.7855 50.22H25.6255V56H24.7455V52.08L23.0155 56H22.1455ZM28.8858 56V53.71C28.7591 53.7233 28.6324 53.7367 28.5058 53.75C28.3791 53.7633 28.2491 53.77 28.1158 53.77C27.8291 53.77 27.5658 53.73 27.3258 53.65C27.0858 53.57 26.8958 53.4267 26.7558 53.22C26.6158 53.0067 26.5458 52.71 26.5458 52.33V50.22H27.6158V52.34C27.6158 52.5467 27.6624 52.71 27.7558 52.83C27.8558 52.95 28.0591 53.01 28.3658 53.01C28.4458 53.01 28.5291 53.0067 28.6158 53C28.7024 52.9867 28.7924 52.9733 28.8858 52.96V50.22H29.9558V56H28.8858ZM31.042 56V50.22H32.112V52.61C32.1253 52.61 32.142 52.61 32.162 52.61C32.1886 52.61 32.212 52.61 32.232 52.61C32.252 52.61 32.2686 52.61 32.282 52.61C32.6753 52.6167 33.0086 52.6467 33.282 52.7C33.562 52.7467 33.7886 52.8333 33.962 52.96C34.1353 53.08 34.262 53.25 34.342 53.47C34.422 53.6833 34.462 53.96 34.462 54.3C34.462 54.6133 34.422 54.88 34.342 55.1C34.262 55.3133 34.132 55.4867 33.952 55.62C33.772 55.7533 33.5353 55.85 33.242 55.91C32.9486 55.97 32.592 56 32.172 56H31.042ZM32.112 55.37H32.172C32.512 55.37 32.7786 55.34 32.972 55.28C33.1653 55.22 33.302 55.1133 33.382 54.96C33.462 54.8 33.502 54.5767 33.502 54.29C33.502 54.03 33.4653 53.8267 33.392 53.68C33.3253 53.5267 33.1986 53.4167 33.012 53.35C32.832 53.2767 32.5686 53.24 32.222 53.24C32.2153 53.24 32.1986 53.24 32.172 53.24C32.1453 53.24 32.1253 53.24 32.112 53.24V55.37ZM34.7523 56L35.8423 53.55C35.6557 53.4767 35.5023 53.3667 35.3823 53.22C35.269 53.0733 35.1857 52.8933 35.1323 52.68C35.079 52.4667 35.0523 52.2267 35.0523 51.96C35.0523 51.6533 35.0923 51.39 35.1723 51.17C35.2523 50.95 35.379 50.77 35.5523 50.63C35.7257 50.49 35.9557 50.3867 36.2423 50.32C36.529 50.2533 36.8823 50.22 37.3023 50.22H38.4223V56H37.3623V53.72C37.2557 53.72 37.1657 53.72 37.0923 53.72C37.019 53.7133 36.939 53.7067 36.8523 53.7L35.9023 56H34.7523ZM37.2423 53.1C37.2557 53.1 37.2757 53.1 37.3023 53.1C37.3357 53.1 37.3557 53.1 37.3623 53.1V50.83C37.3557 50.83 37.3357 50.83 37.3023 50.83C37.2757 50.83 37.259 50.83 37.2523 50.83C36.939 50.83 36.689 50.87 36.5023 50.95C36.3223 51.0233 36.1957 51.1433 36.1223 51.31C36.049 51.47 36.0123 51.6867 36.0123 51.96C36.0123 52.34 36.0957 52.6233 36.2623 52.81C36.4357 52.9967 36.7623 53.0933 37.2423 53.1ZM39.5388 57.31L39.3688 56.85C39.5488 56.79 39.6888 56.6833 39.7888 56.53C39.8954 56.3833 39.9488 56.2067 39.9488 56H39.3788V54.85H40.4788V55.98C40.4788 56.3333 40.4021 56.6133 40.2488 56.82C40.0954 57.0333 39.8588 57.1967 39.5388 57.31ZM44.3091 56V51.02H43.2291V50.22H46.4691V51.02H45.3791V56H44.3091ZM47.1162 57.9V50.22H48.1862V50.68C48.3128 50.5333 48.4662 50.4067 48.6462 50.3C48.8262 50.1933 49.0395 50.14 49.2862 50.14C49.5862 50.14 49.8228 50.22 49.9962 50.38C50.1762 50.5333 50.3095 50.73 50.3962 50.97C50.4828 51.2033 50.5395 51.4433 50.5662 51.69C50.5928 51.93 50.6062 52.1367 50.6062 52.31V53.71C50.6062 54.1167 50.5662 54.5033 50.4862 54.87C50.4062 55.23 50.2595 55.5233 50.0462 55.75C49.8395 55.97 49.5462 56.08 49.1662 56.08C48.9595 56.08 48.7762 56.03 48.6162 55.93C48.4562 55.8233 48.3128 55.7033 48.1862 55.57V57.9H47.1162ZM48.9562 55.24C49.1428 55.24 49.2762 55.1733 49.3562 55.04C49.4362 54.9 49.4862 54.7133 49.5062 54.48C49.5262 54.2467 49.5362 53.99 49.5362 53.71V52.31C49.5362 52.07 49.5228 51.85 49.4962 51.65C49.4695 51.4433 49.4128 51.28 49.3262 51.16C49.2395 51.04 49.1028 50.98 48.9162 50.98C48.7762 50.98 48.6428 51.01 48.5162 51.07C48.3895 51.13 48.2795 51.2 48.1862 51.28V54.98C48.2862 55.0533 48.3995 55.1167 48.5262 55.17C48.6528 55.2167 48.7962 55.24 48.9562 55.24ZM53.1691 56.08C52.7424 56.08 52.4057 55.9933 52.1591 55.82C51.9124 55.6467 51.7357 55.4 51.6291 55.08C51.5291 54.76 51.4791 54.3833 51.4791 53.95V52.27C51.4791 51.8367 51.5291 51.46 51.6291 51.14C51.7357 50.82 51.9124 50.5733 52.1591 50.4C52.4057 50.2267 52.7424 50.14 53.1691 50.14C53.5957 50.14 53.9291 50.2267 54.1691 50.4C54.4157 50.5733 54.5891 50.82 54.6891 51.14C54.7957 51.46 54.8491 51.8367 54.8491 52.27V53.95C54.8491 54.3833 54.7957 54.76 54.6891 55.08C54.5891 55.4 54.4157 55.6467 54.1691 55.82C53.9291 55.9933 53.5957 56.08 53.1691 56.08ZM53.1691 55.29C53.3757 55.29 53.5191 55.23 53.5991 55.11C53.6857 54.99 53.7357 54.8333 53.7491 54.64C53.7691 54.44 53.7791 54.2333 53.7791 54.02V52.21C53.7791 51.99 53.7691 51.7833 53.7491 51.59C53.7357 51.3967 53.6857 51.24 53.5991 51.12C53.5191 50.9933 53.3757 50.93 53.1691 50.93C52.9624 50.93 52.8157 50.9933 52.7291 51.12C52.6424 51.24 52.5891 51.3967 52.5691 51.59C52.5557 51.7833 52.5491 51.99 52.5491 52.21V54.02C52.5491 54.2333 52.5557 54.44 52.5691 54.64C52.5891 54.8333 52.6424 54.99 52.7291 55.11C52.8157 55.23 52.9624 55.29 53.1691 55.29ZM57.4271 56.08C56.9738 56.08 56.6238 55.9933 56.3771 55.82C56.1304 55.64 55.9571 55.38 55.8571 55.04C55.7638 54.6933 55.7171 54.27 55.7171 53.77V52.45C55.7171 51.9367 55.7671 51.51 55.8671 51.17C55.9671 50.83 56.1404 50.5733 56.3871 50.4C56.6404 50.2267 56.9871 50.14 57.4271 50.14C57.9138 50.14 58.2704 50.24 58.4971 50.44C58.7304 50.64 58.8838 50.93 58.9571 51.31C59.0304 51.6833 59.0671 52.1333 59.0671 52.66V53.13H56.7871V54.29C56.7871 54.5233 56.8071 54.7133 56.8471 54.86C56.8938 55.0067 56.9638 55.1167 57.0571 55.19C57.1571 55.2567 57.2838 55.29 57.4371 55.29C57.5971 55.29 57.7171 55.2533 57.7971 55.18C57.8838 55.1 57.9404 54.99 57.9671 54.85C58.0004 54.7033 58.0171 54.5333 58.0171 54.34V53.99H59.0571V54.21C59.0571 54.79 58.9338 55.2467 58.6871 55.58C58.4404 55.9133 58.0204 56.08 57.4271 56.08ZM56.7871 52.55H58.0171V52.03C58.0171 51.79 58.0038 51.59 57.9771 51.43C57.9504 51.2633 57.8938 51.14 57.8071 51.06C57.7271 50.9733 57.5971 50.93 57.4171 50.93C57.2438 50.93 57.1104 50.97 57.0171 51.05C56.9304 51.13 56.8704 51.2667 56.8371 51.46C56.8038 51.6467 56.7871 51.9067 56.7871 52.24V52.55ZM60.0361 56V50.22H61.1061V52.66H61.4061L62.4961 50.22H63.5961L62.3861 53.02L63.6161 56H62.4961L61.4061 53.3H61.1061V56H60.0361ZM64.1865 57.9V50.22H65.2565V50.68C65.3832 50.5333 65.5365 50.4067 65.7165 50.3C65.8965 50.1933 66.1098 50.14 66.3565 50.14C66.6565 50.14 66.8932 50.22 67.0665 50.38C67.2465 50.5333 67.3798 50.73 67.4665 50.97C67.5532 51.2033 67.6098 51.4433 67.6365 51.69C67.6632 51.93 67.6765 52.1367 67.6765 52.31V53.71C67.6765 54.1167 67.6365 54.5033 67.5565 54.87C67.4765 55.23 67.3298 55.5233 67.1165 55.75C66.9098 55.97 66.6165 56.08 66.2365 56.08C66.0298 56.08 65.8465 56.03 65.6865 55.93C65.5265 55.8233 65.3832 55.7033 65.2565 55.57V57.9H64.1865ZM66.0265 55.24C66.2132 55.24 66.3465 55.1733 66.4265 55.04C66.5065 54.9 66.5565 54.7133 66.5765 54.48C66.5965 54.2467 66.6065 53.99 66.6065 53.71V52.31C66.6065 52.07 66.5932 51.85 66.5665 51.65C66.5398 51.4433 66.4832 51.28 66.3965 51.16C66.3098 51.04 66.1732 50.98 65.9865 50.98C65.8465 50.98 65.7132 51.01 65.5865 51.07C65.4598 51.13 65.3498 51.2 65.2565 51.28V54.98C65.3565 55.0533 65.4698 55.1167 65.5965 55.17C65.7232 55.2167 65.8665 55.24 66.0265 55.24ZM69.6894 56.08C69.4627 56.08 69.2627 56.0167 69.0894 55.89C68.916 55.7567 68.7794 55.59 68.6794 55.39C68.5794 55.1833 68.5294 54.9667 68.5294 54.74C68.5294 54.38 68.5894 54.0767 68.7094 53.83C68.8294 53.5833 68.9927 53.3767 69.1994 53.21C69.4127 53.0367 69.656 52.8867 69.9294 52.76C70.2094 52.6333 70.5027 52.51 70.8094 52.39V51.98C70.8094 51.7467 70.796 51.5533 70.7694 51.4C70.7427 51.2467 70.686 51.1333 70.5994 51.06C70.5194 50.98 70.396 50.94 70.2294 50.94C70.0827 50.94 69.9627 50.9733 69.8694 51.04C69.7827 51.1067 69.7194 51.2033 69.6794 51.33C69.6394 51.45 69.6194 51.5933 69.6194 51.76V52.05L68.5594 52.01C68.5727 51.37 68.7194 50.9 68.9994 50.6C69.2794 50.2933 69.7127 50.14 70.2994 50.14C70.8727 50.14 71.2794 50.2967 71.5194 50.61C71.7594 50.9233 71.8794 51.3767 71.8794 51.97V54.61C71.8794 54.79 71.8827 54.9633 71.8894 55.13C71.9027 55.2967 71.916 55.4533 71.9294 55.6C71.9494 55.74 71.966 55.8733 71.9794 56H70.9994C70.9794 55.8933 70.9527 55.76 70.9194 55.6C70.8927 55.4333 70.8727 55.2833 70.8594 55.15C70.7927 55.3767 70.6627 55.59 70.4694 55.79C70.2827 55.9833 70.0227 56.08 69.6894 56.08ZM70.1094 55.16C70.216 55.16 70.316 55.13 70.4094 55.07C70.5027 55.01 70.586 54.9433 70.6594 54.87C70.7327 54.79 70.7827 54.7267 70.8094 54.68V53.04C70.6427 53.1333 70.486 53.2267 70.3394 53.32C70.1927 53.4133 70.0627 53.5133 69.9494 53.62C69.8427 53.72 69.756 53.8367 69.6894 53.97C69.6294 54.0967 69.5994 54.2433 69.5994 54.41C69.5994 54.6433 69.6427 54.8267 69.7294 54.96C69.816 55.0933 69.9427 55.16 70.1094 55.16ZM73.5572 56V51.02H72.4772V50.22H75.7172V51.02H74.6272V56H73.5572ZM76.3642 56V50.22H77.4342V52.65H78.8042V50.22H79.8742V56H78.8042V53.43H77.4342V56H76.3642ZM82.5441 56.08C82.1174 56.08 81.7807 55.9933 81.5341 55.82C81.2874 55.6467 81.1107 55.4 81.0041 55.08C80.9041 54.76 80.8541 54.3833 80.8541 53.95V52.27C80.8541 51.8367 80.9041 51.46 81.0041 51.14C81.1107 50.82 81.2874 50.5733 81.5341 50.4C81.7807 50.2267 82.1174 50.14 82.5441 50.14C82.9707 50.14 83.3041 50.2267 83.5441 50.4C83.7907 50.5733 83.9641 50.82 84.0641 51.14C84.1707 51.46 84.2241 51.8367 84.2241 52.27V53.95C84.2241 54.3833 84.1707 54.76 84.0641 55.08C83.9641 55.4 83.7907 55.6467 83.5441 55.82C83.3041 55.9933 82.9707 56.08 82.5441 56.08ZM82.5441 55.29C82.7507 55.29 82.8941 55.23 82.9741 55.11C83.0607 54.99 83.1107 54.8333 83.1241 54.64C83.1441 54.44 83.1541 54.2333 83.1541 54.02V52.21C83.1541 51.99 83.1441 51.7833 83.1241 51.59C83.1107 51.3967 83.0607 51.24 82.9741 51.12C82.8941 50.9933 82.7507 50.93 82.5441 50.93C82.3374 50.93 82.1907 50.9933 82.1041 51.12C82.0174 51.24 81.9641 51.3967 81.9441 51.59C81.9307 51.7833 81.9241 51.99 81.9241 52.21V54.02C81.9241 54.2333 81.9307 54.44 81.9441 54.64C81.9641 54.8333 82.0174 54.99 82.1041 55.11C82.1907 55.23 82.3374 55.29 82.5441 55.29ZM86.8021 56.08C86.3488 56.08 85.9988 55.9933 85.7521 55.82C85.5054 55.64 85.3321 55.38 85.2321 55.04C85.1388 54.6933 85.0921 54.27 85.0921 53.77V52.45C85.0921 51.9367 85.1421 51.51 85.2421 51.17C85.3421 50.83 85.5154 50.5733 85.7621 50.4C86.0154 50.2267 86.3621 50.14 86.8021 50.14C87.2888 50.14 87.6454 50.24 87.8721 50.44C88.1054 50.64 88.2588 50.93 88.3321 51.31C88.4054 51.6833 88.4421 52.1333 88.4421 52.66V53.13H86.1621V54.29C86.1621 54.5233 86.1821 54.7133 86.2221 54.86C86.2688 55.0067 86.3388 55.1167 86.4321 55.19C86.5321 55.2567 86.6588 55.29 86.8121 55.29C86.9721 55.29 87.0921 55.2533 87.1721 55.18C87.2588 55.1 87.3154 54.99 87.3421 54.85C87.3754 54.7033 87.3921 54.5333 87.3921 54.34V53.99H88.4321V54.21C88.4321 54.79 88.3088 55.2467 88.0621 55.58C87.8154 55.9133 87.3954 56.08 86.8021 56.08ZM86.1621 52.55H87.3921V52.03C87.3921 51.79 87.3788 51.59 87.3521 51.43C87.3254 51.2633 87.2688 51.14 87.1821 51.06C87.1021 50.9733 86.9721 50.93 86.7921 50.93C86.6188 50.93 86.4854 50.97 86.3921 51.05C86.3054 51.13 86.2454 51.2667 86.2121 51.46C86.1788 51.6467 86.1621 51.9067 86.1621 52.24V52.55ZM91.6963 56V50.22H95.0563V56H93.9863V51.03H92.7663V56H91.6963ZM97.7296 56.08C97.3029 56.08 96.9663 55.9933 96.7196 55.82C96.4729 55.6467 96.2963 55.4 96.1896 55.08C96.0896 54.76 96.0396 54.3833 96.0396 53.95V52.27C96.0396 51.8367 96.0896 51.46 96.1896 51.14C96.2963 50.82 96.4729 50.5733 96.7196 50.4C96.9663 50.2267 97.3029 50.14 97.7296 50.14C98.1563 50.14 98.4896 50.2267 98.7296 50.4C98.9763 50.5733 99.1496 50.82 99.2496 51.14C99.3563 51.46 99.4096 51.8367 99.4096 52.27V53.95C99.4096 54.3833 99.3563 54.76 99.2496 55.08C99.1496 55.4 98.9763 55.6467 98.7296 55.82C98.4896 55.9933 98.1563 56.08 97.7296 56.08ZM97.7296 55.29C97.9363 55.29 98.0796 55.23 98.1596 55.11C98.2463 54.99 98.2963 54.8333 98.3096 54.64C98.3296 54.44 98.3396 54.2333 98.3396 54.02V52.21C98.3396 51.99 98.3296 51.7833 98.3096 51.59C98.2963 51.3967 98.2463 51.24 98.1596 51.12C98.0796 50.9933 97.9363 50.93 97.7296 50.93C97.5229 50.93 97.3763 50.9933 97.2896 51.12C97.2029 51.24 97.1496 51.3967 97.1296 51.59C97.1163 51.7833 97.1096 51.99 97.1096 52.21V54.02C97.1096 54.2333 97.1163 54.44 97.1296 54.64C97.1496 54.8333 97.2029 54.99 97.2896 55.11C97.3763 55.23 97.5229 55.29 97.7296 55.29ZM100.388 56V50.22H102.008C102.401 50.22 102.708 50.2867 102.928 50.42C103.154 50.5467 103.314 50.7167 103.408 50.93C103.508 51.1367 103.561 51.36 103.568 51.6C103.574 51.8867 103.528 52.1433 103.428 52.37C103.328 52.5967 103.121 52.7567 102.808 52.85C103.048 52.8967 103.231 52.9967 103.358 53.15C103.491 53.2967 103.581 53.4733 103.628 53.68C103.681 53.8867 103.708 54.1 103.708 54.32C103.708 54.6533 103.658 54.9467 103.558 55.2C103.464 55.4533 103.298 55.65 103.058 55.79C102.824 55.93 102.491 56 102.058 56H100.388ZM101.438 55.19H101.818C101.971 55.19 102.111 55.17 102.238 55.13C102.364 55.0833 102.464 54.9933 102.538 54.86C102.618 54.7267 102.658 54.5333 102.658 54.28C102.658 53.98 102.621 53.7633 102.548 53.63C102.481 53.49 102.388 53.4033 102.268 53.37C102.154 53.3367 102.021 53.32 101.868 53.32H101.438V55.19ZM101.438 52.55H101.958C102.164 52.55 102.328 52.49 102.448 52.37C102.568 52.25 102.628 52.0367 102.628 51.73C102.628 51.4567 102.558 51.2667 102.418 51.16C102.278 51.0533 102.088 51 101.848 51H101.438V52.55ZM105.188 56V51.02H104.108V50.22H107.348V51.02H106.258V56H105.188ZM109.526 56.08C109.1 56.08 108.763 55.9933 108.516 55.82C108.27 55.6467 108.093 55.4 107.986 55.08C107.886 54.76 107.836 54.3833 107.836 53.95V52.27C107.836 51.8367 107.886 51.46 107.986 51.14C108.093 50.82 108.27 50.5733 108.516 50.4C108.763 50.2267 109.1 50.14 109.526 50.14C109.953 50.14 110.286 50.2267 110.526 50.4C110.773 50.5733 110.946 50.82 111.046 51.14C111.153 51.46 111.206 51.8367 111.206 52.27V53.95C111.206 54.3833 111.153 54.76 111.046 55.08C110.946 55.4 110.773 55.6467 110.526 55.82C110.286 55.9933 109.953 56.08 109.526 56.08ZM109.526 55.29C109.733 55.29 109.876 55.23 109.956 55.11C110.043 54.99 110.093 54.8333 110.106 54.64C110.126 54.44 110.136 54.2333 110.136 54.02V52.21C110.136 51.99 110.126 51.7833 110.106 51.59C110.093 51.3967 110.043 51.24 109.956 51.12C109.876 50.9933 109.733 50.93 109.526 50.93C109.32 50.93 109.173 50.9933 109.086 51.12C109 51.24 108.946 51.3967 108.926 51.59C108.913 51.7833 108.906 51.99 108.906 52.21V54.02C108.906 54.2333 108.913 54.44 108.926 54.64C108.946 54.8333 109 54.99 109.086 55.11C109.173 55.23 109.32 55.29 109.526 55.29ZM112.185 57.9V50.22H113.255V50.68C113.381 50.5333 113.535 50.4067 113.715 50.3C113.895 50.1933 114.108 50.14 114.355 50.14C114.655 50.14 114.891 50.22 115.065 50.38C115.245 50.5333 115.378 50.73 115.465 50.97C115.551 51.2033 115.608 51.4433 115.635 51.69C115.661 51.93 115.675 52.1367 115.675 52.31V53.71C115.675 54.1167 115.635 54.5033 115.555 54.87C115.475 55.23 115.328 55.5233 115.115 55.75C114.908 55.97 114.615 56.08 114.235 56.08C114.028 56.08 113.845 56.03 113.685 55.93C113.525 55.8233 113.381 55.7033 113.255 55.57V57.9H112.185ZM114.025 55.24C114.211 55.24 114.345 55.1733 114.425 55.04C114.505 54.9 114.555 54.7133 114.575 54.48C114.595 54.2467 114.605 53.99 114.605 53.71V52.31C114.605 52.07 114.591 51.85 114.565 51.65C114.538 51.4433 114.481 51.28 114.395 51.16C114.308 51.04 114.171 50.98 113.985 50.98C113.845 50.98 113.711 51.01 113.585 51.07C113.458 51.13 113.348 51.2 113.255 51.28V54.98C113.355 55.0533 113.468 55.1167 113.595 55.17C113.721 55.2167 113.865 55.24 114.025 55.24ZM118.247 56.08C117.794 56.08 117.444 55.9933 117.197 55.82C116.951 55.64 116.777 55.38 116.677 55.04C116.584 54.6933 116.537 54.27 116.537 53.77V52.45C116.537 51.9367 116.587 51.51 116.687 51.17C116.787 50.83 116.961 50.5733 117.207 50.4C117.461 50.2267 117.807 50.14 118.247 50.14C118.734 50.14 119.091 50.24 119.317 50.44C119.551 50.64 119.704 50.93 119.777 51.31C119.851 51.6833 119.887 52.1333 119.887 52.66V53.13H117.607V54.29C117.607 54.5233 117.627 54.7133 117.667 54.86C117.714 55.0067 117.784 55.1167 117.877 55.19C117.977 55.2567 118.104 55.29 118.257 55.29C118.417 55.29 118.537 55.2533 118.617 55.18C118.704 55.1 118.761 54.99 118.787 54.85C118.821 54.7033 118.837 54.5333 118.837 54.34V53.99H119.877V54.21C119.877 54.79 119.754 55.2467 119.507 55.58C119.261 55.9133 118.841 56.08 118.247 56.08ZM117.607 52.55H118.837V52.03C118.837 51.79 118.824 51.59 118.797 51.43C118.771 51.2633 118.714 51.14 118.627 51.06C118.547 50.9733 118.417 50.93 118.237 50.93C118.064 50.93 117.931 50.97 117.837 51.05C117.751 51.13 117.691 51.2667 117.657 51.46C117.624 51.6467 117.607 51.9067 117.607 52.24V52.55ZM120.856 56V50.22H121.926V52.65H123.296V50.22H124.366V56H123.296V53.43H121.926V56H120.856ZM125.446 56V50.22H126.346V54.11L128.086 50.22H128.926V56H128.046V52.08L126.316 56H125.446ZM131.617 56.08C131.163 56.08 130.813 55.9933 130.567 55.82C130.32 55.64 130.147 55.38 130.047 55.04C129.953 54.6933 129.907 54.27 129.907 53.77V52.45C129.907 51.9367 129.957 51.51 130.057 51.17C130.157 50.83 130.33 50.5733 130.577 50.4C130.83 50.2267 131.177 50.14 131.617 50.14C132.103 50.14 132.46 50.24 132.687 50.44C132.92 50.64 133.073 50.93 133.147 51.31C133.22 51.6833 133.257 52.1333 133.257 52.66V53.13H130.977V54.29C130.977 54.5233 130.997 54.7133 131.037 54.86C131.083 55.0067 131.153 55.1167 131.247 55.19C131.347 55.2567 131.473 55.29 131.627 55.29C131.787 55.29 131.907 55.2533 131.987 55.18C132.073 55.1 132.13 54.99 132.157 54.85C132.19 54.7033 132.207 54.5333 132.207 54.34V53.99H133.247V54.21C133.247 54.79 133.123 55.2467 132.877 55.58C132.63 55.9133 132.21 56.08 131.617 56.08ZM130.977 52.55H132.207V52.03C132.207 51.79 132.193 51.59 132.167 51.43C132.14 51.2633 132.083 51.14 131.997 51.06C131.917 50.9733 131.787 50.93 131.607 50.93C131.433 50.93 131.3 50.97 131.207 51.05C131.12 51.13 131.06 51.2667 131.027 51.46C130.993 51.6467 130.977 51.9067 130.977 52.24V52.55ZM136.061 56L137.361 52.96L136.091 50.22H137.111L137.961 52.05L138.711 50.22H139.761L138.441 53.09L139.781 56H138.761L137.851 54.04L137.071 56H136.061ZM141.987 56.08C141.561 56.08 141.224 55.9933 140.977 55.82C140.731 55.6467 140.554 55.4 140.447 55.08C140.347 54.76 140.297 54.3833 140.297 53.95V52.27C140.297 51.8367 140.347 51.46 140.447 51.14C140.554 50.82 140.731 50.5733 140.977 50.4C141.224 50.2267 141.561 50.14 141.987 50.14C142.414 50.14 142.747 50.2267 142.987 50.4C143.234 50.5733 143.407 50.82 143.507 51.14C143.614 51.46 143.667 51.8367 143.667 52.27V53.95C143.667 54.3833 143.614 54.76 143.507 55.08C143.407 55.4 143.234 55.6467 142.987 55.82C142.747 55.9933 142.414 56.08 141.987 56.08ZM141.987 55.29C142.194 55.29 142.337 55.23 142.417 55.11C142.504 54.99 142.554 54.8333 142.567 54.64C142.587 54.44 142.597 54.2333 142.597 54.02V52.21C142.597 51.99 142.587 51.7833 142.567 51.59C142.554 51.3967 142.504 51.24 142.417 51.12C142.337 50.9933 142.194 50.93 141.987 50.93C141.781 50.93 141.634 50.9933 141.547 51.12C141.461 51.24 141.407 51.3967 141.387 51.59C141.374 51.7833 141.367 51.99 141.367 52.21V54.02C141.367 54.2333 141.374 54.44 141.387 54.64C141.407 54.8333 141.461 54.99 141.547 55.11C141.634 55.23 141.781 55.29 141.987 55.29ZM144.125 57.47V55.29C144.325 55.1367 144.509 54.9533 144.675 54.74C144.842 54.5267 144.989 54.2567 145.115 53.93C145.242 53.6033 145.342 53.2 145.415 52.72C145.489 52.24 145.529 51.66 145.535 50.98L145.555 50.22H148.165V55.24H148.865V57.47H148.085L147.995 56H144.995L144.905 57.47H144.125ZM145.165 55.24H147.135V50.99H146.385L146.365 51.2C146.359 51.9067 146.322 52.4967 146.255 52.97C146.195 53.4367 146.109 53.82 145.995 54.12C145.889 54.4133 145.762 54.6467 145.615 54.82C145.475 54.9933 145.325 55.1333 145.165 55.24ZM151.06 56.08C150.633 56.08 150.296 55.9933 150.05 55.82C149.803 55.6467 149.626 55.4 149.52 55.08C149.42 54.76 149.37 54.3833 149.37 53.95V52.27C149.37 51.8367 149.42 51.46 149.52 51.14C149.626 50.82 149.803 50.5733 150.05 50.4C150.296 50.2267 150.633 50.14 151.06 50.14C151.486 50.14 151.82 50.2267 152.06 50.4C152.306 50.5733 152.48 50.82 152.58 51.14C152.686 51.46 152.74 51.8367 152.74 52.27V53.95C152.74 54.3833 152.686 54.76 152.58 55.08C152.48 55.4 152.306 55.6467 152.06 55.82C151.82 55.9933 151.486 56.08 151.06 56.08ZM151.06 55.29C151.266 55.29 151.41 55.23 151.49 55.11C151.576 54.99 151.626 54.8333 151.64 54.64C151.66 54.44 151.67 54.2333 151.67 54.02V52.21C151.67 51.99 151.66 51.7833 151.64 51.59C151.626 51.3967 151.576 51.24 151.49 51.12C151.41 50.9933 151.266 50.93 151.06 50.93C150.853 50.93 150.706 50.9933 150.62 51.12C150.533 51.24 150.48 51.3967 150.46 51.59C150.446 51.7833 150.44 51.99 150.44 52.21V54.02C150.44 54.2333 150.446 54.44 150.46 54.64C150.48 54.8333 150.533 54.99 150.62 55.11C150.706 55.23 150.853 55.29 151.06 55.29ZM153.718 56V50.22H155.338C155.731 50.22 156.038 50.2867 156.258 50.42C156.484 50.5467 156.644 50.7167 156.738 50.93C156.838 51.1367 156.891 51.36 156.898 51.6C156.904 51.8867 156.858 52.1433 156.758 52.37C156.658 52.5967 156.451 52.7567 156.138 52.85C156.378 52.8967 156.561 52.9967 156.688 53.15C156.821 53.2967 156.911 53.4733 156.958 53.68C157.011 53.8867 157.038 54.1 157.038 54.32C157.038 54.6533 156.988 54.9467 156.888 55.2C156.794 55.4533 156.628 55.65 156.388 55.79C156.154 55.93 155.821 56 155.388 56H153.718ZM154.768 55.19H155.148C155.301 55.19 155.441 55.17 155.568 55.13C155.694 55.0833 155.794 54.9933 155.868 54.86C155.948 54.7267 155.988 54.5333 155.988 54.28C155.988 53.98 155.951 53.7633 155.878 53.63C155.811 53.49 155.718 53.4033 155.598 53.37C155.484 53.3367 155.351 53.32 155.198 53.32H154.768V55.19ZM154.768 52.55H155.288C155.494 52.55 155.658 52.49 155.778 52.37C155.898 52.25 155.958 52.0367 155.958 51.73C155.958 51.4567 155.888 51.2667 155.748 51.16C155.608 51.0533 155.418 51 155.178 51H154.768V52.55Z"></path>
</svg>
