<svg xmlns="http://www.w3.org/2000/svg" fill="none" viewBox="0 0 22 22" height="22" width="22">
<circle stroke="#0D0E12" fill="#FDCD4D" r="10" cy="11" cx="11"></circle>
<circle fill-opacity="0.26" fill="#FF0000" r="2.5" cy="14.5" cx="15.5"></circle>
<circle fill-opacity="0.26" fill="#FF0000" r="2.5" cy="14.5" cx="6.5"></circle>
<path stroke-linecap="round" stroke="#0D0E12" d="M10 9.74999C9.5 8.75 7.5 8.75 7 9.75002"></path>
<path stroke-linecap="round" stroke="#0D0E12" d="M15 9.74999C14.5 8.75 12.5 8.75 12 9.75002"></path>
<path fill="#0D0E12" d="M14.255 15.6378C14.3903 15.8722 14.3107 16.1736 14.0674 16.2921C13.1139 16.757 12.0651 17 11 17C9.93493 17 8.88612 16.757 7.93259 16.2921C7.68934 16.1736 7.60969 15.8722 7.745 15.6378C7.88031 15.4035 8.17927 15.3251 8.42385 15.4409C9.2273 15.8214 10.107 16.02 11 16.02C11.893 16.02 12.7727 15.8214 13.5761 15.4409C13.8207 15.3251 14.1197 15.4035 14.255 15.6378Z"></path>
</svg>
