<svg xmlns="http://www.w3.org/2000/svg" fill="none" viewBox="0 0 5 19" height="19" width="5">
<path fill-opacity="0.01" fill="white" d="M0 0H4.5V19H0V0Z"></path>
<path fill="#45D2FF" d="M1.76391 14V6.26C1.67591 6.308 1.57591 6.356 1.46391 6.404C1.35191 6.452 1.23191 6.504 1.10391 6.56C0.983908 6.608 0.863908 6.656 0.743908 6.704C0.631908 6.752 0.527908 6.8 0.431908 6.848V5.36C0.519908 5.312 0.643908 5.248 0.803908 5.168C0.963908 5.08 1.13591 4.984 1.31991 4.88C1.50391 4.776 1.67591 4.672 1.83591 4.568C1.99591 4.456 2.11591 4.36 2.19591 4.28H3.76791V14H1.76391Z"></path>
</svg>
