<svg xmlns="http://www.w3.org/2000/svg" fill="none" viewBox="0 0 104 22" height="22" width="104">
<rect stroke="#0D0E12" fill="#0D0E12" height="21" width="103" y="0.5" x="0.5"></rect>
<path fill="white" d="M43.8188 15V6.9H47.4588V8.12H45.6088V10.13H47.0188V11.37H45.6088V13.79H47.4788V15H43.8188ZM47.7614 15L49.3314 10.64L47.8314 6.9H49.5214L50.4114 9.09L51.1314 6.9H52.6214L51.2014 11.11L52.7814 15H51.1014L50.1114 12.58L49.2414 15H47.7614ZM53.4379 15V6.9H56.1579C56.6446 6.9 57.0446 6.99333 57.3579 7.18C57.6712 7.36 57.9046 7.62667 58.0579 7.98C58.2112 8.32667 58.2879 8.75 58.2879 9.25C58.2879 9.87667 58.1846 10.3567 57.9779 10.69C57.7712 11.0167 57.4912 11.2433 57.1379 11.37C56.7846 11.4967 56.3879 11.56 55.9479 11.56H55.2279V15H53.4379ZM55.2279 10.31H55.8279C56.0479 10.31 56.2146 10.27 56.3279 10.19C56.4412 10.11 56.5146 9.99 56.5479 9.83C56.5879 9.67 56.6079 9.46667 56.6079 9.22C56.6079 9.01333 56.5912 8.83333 56.5579 8.68C56.5312 8.52 56.4612 8.39333 56.3479 8.3C56.2346 8.20667 56.0579 8.16 55.8179 8.16H55.2279V10.31ZM61.4708 15.12C60.8641 15.12 60.3841 15.0133 60.0308 14.8C59.6774 14.5867 59.4241 14.28 59.2708 13.88C59.1174 13.48 59.0408 13.0033 59.0408 12.45V9.44C59.0408 8.88 59.1174 8.40333 59.2708 8.01C59.4241 7.61667 59.6774 7.31667 60.0308 7.11C60.3841 6.89667 60.8641 6.79 61.4708 6.79C62.0841 6.79 62.5674 6.89667 62.9208 7.11C63.2808 7.31667 63.5374 7.61667 63.6908 8.01C63.8441 8.40333 63.9208 8.88 63.9208 9.44V12.45C63.9208 13.0033 63.8441 13.48 63.6908 13.88C63.5374 14.28 63.2808 14.5867 62.9208 14.8C62.5674 15.0133 62.0841 15.12 61.4708 15.12ZM61.4708 13.85C61.6574 13.85 61.7941 13.8033 61.8808 13.71C61.9674 13.6167 62.0241 13.4967 62.0508 13.35C62.0774 13.2033 62.0908 13.0533 62.0908 12.9V9C62.0908 8.84 62.0774 8.69 62.0508 8.55C62.0241 8.40333 61.9674 8.28333 61.8808 8.19C61.7941 8.09667 61.6574 8.05 61.4708 8.05C61.2974 8.05 61.1674 8.09667 61.0808 8.19C60.9941 8.28333 60.9374 8.40333 60.9108 8.55C60.8841 8.69 60.8708 8.84 60.8708 9V12.9C60.8708 13.0533 60.8808 13.2033 60.9008 13.35C60.9274 13.4967 60.9808 13.6167 61.0608 13.71C61.1474 13.8033 61.2841 13.85 61.4708 13.85ZM65.0102 15V6.9H67.2402C67.7868 6.9 68.2602 6.96 68.6602 7.08C69.0602 7.2 69.3702 7.41667 69.5902 7.73C69.8168 8.03667 69.9302 8.47333 69.9302 9.04C69.9302 9.37333 69.9035 9.67 69.8502 9.93C69.7968 10.19 69.6968 10.4167 69.5502 10.61C69.4102 10.7967 69.2068 10.9533 68.9402 11.08L70.0502 15H68.2002L67.3102 11.37H66.8002V15H65.0102ZM66.8002 10.34H67.3002C67.5535 10.34 67.7502 10.2967 67.8902 10.21C68.0302 10.1167 68.1268 9.98667 68.1802 9.82C68.2402 9.64667 68.2702 9.44 68.2702 9.2C68.2702 8.85333 68.2068 8.58333 68.0802 8.39C67.9535 8.19667 67.7202 8.1 67.3802 8.1H66.8002V10.34ZM71.6581 15V8.23H70.4381V6.9H74.6681V8.23H73.4581V15H71.6581Z"></path>
<rect fill="white" rx="0.454271" height="0.908543" width="9.08543" y="15.0916" x="29"></rect>
<rect fill="white" transform="rotate(-45 29.9427 9.61523)" rx="0.479838" height="0.959676" width="5.1115" y="9.61523" x="29.9427"></rect>
<rect fill="white" transform="rotate(-135 36.4751 10.2737)" rx="0.47776" height="0.955519" width="5.0884" y="10.2737" x="36.4751"></rect>
<rect fill="white" transform="rotate(-90 33.0884 13.7285)" rx="0.454272" height="0.908543" width="7.26834" y="13.7285" x="33.0884"></rect>
<rect fill="white" transform="rotate(-90 29 16)" rx="0.454271" height="0.908543" width="4.08844" y="16" x="29"></rect>
<rect fill="white" transform="rotate(-90 37.1769 16)" rx="0.454271" height="0.908543" width="4.08844" y="16" x="37.1769"></rect>
</svg>
