<svg xmlns="http://www.w3.org/2000/svg" fill="none" viewBox="0 0 8 19" height="19" width="8">
<path fill-opacity="0.01" fill="white" d="M0.5 0H7.5V19H0.5V0Z"></path>
<path fill="#45D2FF" d="M1.20438 14V4.28H3.66438C4.51238 4.28 5.17238 4.388 5.64438 4.604C6.11638 4.812 6.44838 5.144 6.64038 5.6C6.83238 6.048 6.92838 6.632 6.92838 7.352V10.88C6.92838 11.608 6.83238 12.204 6.64038 12.668C6.44838 13.124 6.11638 13.46 5.64438 13.676C5.18038 13.892 4.52838 14 3.68838 14H1.20438ZM3.35238 12.512H3.68838C4.01638 12.512 4.25238 12.464 4.39638 12.368C4.54038 12.272 4.62838 12.128 4.66038 11.936C4.70038 11.744 4.72038 11.504 4.72038 11.216V6.98C4.72038 6.692 4.69638 6.46 4.64838 6.284C4.60838 6.108 4.51638 5.98 4.37238 5.9C4.22838 5.82 3.99638 5.78 3.67638 5.78H3.35238V12.512Z"></path>
</svg>
