<svg xmlns="http://www.w3.org/2000/svg" fill="none" viewBox="0 0 27 34" height="34" width="27">
<path stroke="#0D0E12" fill="white" d="M14.0111 3.40432C18.3192 3.48097 22.4815 3.87067 25.5 4.84402V8.98411H1.5V4.84469C4.58773 3.86015 9.71803 3.32793 14.0111 3.40432Z"></path>
<path stroke="#0D0E12" fill="white" d="M1.53999 29.1704C2.16399 24.0101 6.21999 28.2273 6.21999 19.5606V15.8774C6.21999 14.1717 5.19443 12.6334 3.61999 11.9773L3.04179 11.7364C1.81748 11.2262 1.01999 10.03 1.01999 8.70362C1.01999 8.01461 1.26795 7.34149 1.91596 7.10736C5.93278 5.65608 21.0671 5.65613 25.084 7.10737C25.732 7.3415 25.98 8.01463 25.98 8.70365C25.98 10.03 25.1825 11.2262 23.9582 11.7364L23.38 11.9773C21.8056 12.6334 20.78 14.1717 20.78 15.8774V19.5606C20.78 28.2273 24.836 24.1503 25.46 29.3106V30.4093C25.46 31.1133 25.2646 31.8248 24.6096 32.0831C20.835 33.5716 6.15406 33.4668 2.38665 31.9331C1.73455 31.6676 1.53999 30.9566 1.53999 30.2525V29.1704Z"></path>
<path stroke-linecap="round" stroke="#0D0E12" d="M5.18002 28.2273C6.74002 29.8523 20.26 29.8523 21.82 28.2273"></path>
<path stroke-linecap="round" stroke="#0D0E12" d="M20.78 11.4357C18.7 10.894 8.30002 10.894 6.22002 11.4357"></path>
<path fill="white" d="M5.5 6.46072V1.56588C7.15504 1.27416 9.16279 1.08206 11.5 1.01282V6.00037C9.20547 6.04122 7.17731 6.16651 5.5 6.46072ZM22 6.49977V1.65914C20.4853 1.36045 18.6452 1.15088 16.5 1.05081V6.02262C18.6114 6.08345 20.4691 6.22417 22 6.49977Z" clip-rule="evenodd" fill-rule="evenodd"></path>
<path fill="black" d="M5.5 1.56588L5.41321 1.07347L5 1.1463V1.56588H5.5ZM5.5 6.46072H5V7.05605L5.58638 6.9532L5.5 6.46072ZM11.5 1.01282H12V0.497785L11.4852 0.513037L11.5 1.01282ZM11.5 6.00037L11.5089 6.50029L12 6.49154V6.00037H11.5ZM22 1.65914H22.5V1.2481L22.0967 1.16858L22 1.65914ZM22 6.49977L21.9114 6.99186L22.5 7.09782V6.49977H22ZM16.5 1.05081L16.5233 0.551353L16 0.526942V1.05081H16.5ZM16.5 6.02262H16V6.50843L16.4856 6.52242L16.5 6.02262ZM5 1.56588V6.46072H6V1.56588H5ZM11.4852 0.513037C9.13042 0.582799 7.09774 0.77655 5.41321 1.07347L5.58679 2.05829C7.21235 1.77176 9.19516 1.58132 11.5148 1.5126L11.4852 0.513037ZM12 6.00037V1.01282H11V6.00037H12ZM5.58638 6.9532C7.22523 6.66574 9.2228 6.54099 11.5089 6.50029L11.4911 5.50044C9.18814 5.54145 7.12939 5.66728 5.41362 5.96824L5.58638 6.9532ZM21.5 1.65914V6.49977H22.5V1.65914H21.5ZM16.4767 1.55027C18.6041 1.64951 20.4187 1.85695 21.9033 2.14969L22.0967 1.16858C20.5519 0.86395 18.6863 0.652254 16.5233 0.551353L16.4767 1.55027ZM17 6.02262V1.05081H16V6.02262H17ZM22.0886 6.00768C20.522 5.72565 18.6358 5.58394 16.5144 5.52283L16.4856 6.52242C18.587 6.58295 20.4163 6.7227 21.9114 6.99186L22.0886 6.00768Z"></path>
</svg>
