<svg xmlns="http://www.w3.org/2000/svg" fill="none" viewBox="0 0 4 19" height="19" width="4">
<path fill-opacity="0.01" fill="white" d="M0 0H4V19H0V0Z"></path>
<path fill="#45D2FF" d="M0.45125 16.148V14.768C0.66725 14.768 0.84325 14.672 0.97925 14.48C1.12325 14.288 1.23525 14 1.31525 13.616C1.39525 13.232 1.45125 12.756 1.48325 12.188C1.51525 11.62 1.53125 10.956 1.53125 10.196C1.53125 9.444 1.51525 8.78 1.48325 8.204C1.45925 7.628 1.40725 7.144 1.32725 6.752C1.25525 6.352 1.14725 6.052 1.00325 5.852C0.86725 5.644 0.68325 5.54 0.45125 5.54V4.172C0.97925 4.172 1.41925 4.272 1.77125 4.472C2.12325 4.672 2.40325 4.96 2.61125 5.336C2.82725 5.704 2.98725 6.14 3.09125 6.644C3.19525 7.148 3.26325 7.7 3.29525 8.3C3.32725 8.9 3.34325 9.532 3.34325 10.196C3.34325 10.812 3.32725 11.412 3.29525 11.996C3.26325 12.58 3.19525 13.124 3.09125 13.628C2.98725 14.132 2.82725 14.572 2.61125 14.948C2.40325 15.324 2.12325 15.616 1.77125 15.824C1.41925 16.04 0.97925 16.148 0.45125 16.148Z"></path>
</svg>
