<svg xmlns="http://www.w3.org/2000/svg" fill="none" viewBox="0 0 13 18" height="18" width="13">
<rect fill-opacity="0.01" fill="#0D0E12" height="18" width="13"></rect>
<path fill="white" d="M1.596 14V6.26C1.508 6.308 1.408 6.356 1.296 6.404C1.184 6.452 1.064 6.504 0.936 6.56C0.816 6.608 0.696 6.656 0.576 6.704C0.464 6.752 0.36 6.8 0.264 6.848V5.36C0.352 5.312 0.476 5.248 0.636 5.168C0.796 5.08 0.968 4.984 1.152 4.88C1.336 4.776 1.508 4.672 1.668 4.568C1.828 4.456 1.948 4.36 2.028 4.28H3.6V14H1.596ZM7.78406 14.156C7.12806 14.156 6.60406 14.028 6.21206 13.772C5.82006 13.508 5.54006 13.148 5.37206 12.692C5.20406 12.228 5.12006 11.7 5.12006 11.108C5.12806 10.868 5.15206 10.636 5.19206 10.412C5.24006 10.18 5.30806 9.968 5.39606 9.776C5.49206 9.576 5.60806 9.404 5.74406 9.26C5.88806 9.108 6.05606 8.984 6.24806 8.888C6.00006 8.704 5.78006 8.44 5.58806 8.096C5.39606 7.744 5.29206 7.3 5.27606 6.764C5.26806 6.22 5.35606 5.752 5.54006 5.36C5.73206 4.968 6.01606 4.668 6.39206 4.46C6.76806 4.252 7.23206 4.148 7.78406 4.148C8.34406 4.148 8.80806 4.256 9.17606 4.472C9.55206 4.68 9.83206 4.98 10.0161 5.372C10.2001 5.756 10.2841 6.22 10.2681 6.764C10.2601 7.308 10.1641 7.756 9.98006 8.108C9.79606 8.452 9.57606 8.712 9.32006 8.888C9.51206 8.984 9.67606 9.108 9.81206 9.26C9.95606 9.404 10.0721 9.576 10.1601 9.776C10.2561 9.968 10.3281 10.18 10.3761 10.412C10.4241 10.636 10.4481 10.868 10.4481 11.108C10.4641 11.7 10.3841 12.228 10.2081 12.692C10.0401 13.148 9.76006 13.508 9.36806 13.772C8.97606 14.028 8.44806 14.156 7.78406 14.156ZM7.78406 12.68C8.00006 12.68 8.15606 12.6 8.25206 12.44C8.34806 12.28 8.40806 12.092 8.43206 11.876C8.45606 11.652 8.46806 11.448 8.46806 11.264C8.47606 11.016 8.46406 10.776 8.43206 10.544C8.40806 10.312 8.34806 10.124 8.25206 9.98C8.15606 9.828 8.00006 9.752 7.78406 9.752C7.57606 9.752 7.42406 9.828 7.32806 9.98C7.23206 10.124 7.16806 10.312 7.13606 10.544C7.11206 10.768 7.10006 11.008 7.10006 11.264C7.10006 11.448 7.11206 11.652 7.13606 11.876C7.16006 12.1 7.22006 12.292 7.31606 12.452C7.42006 12.604 7.57606 12.68 7.78406 12.68ZM7.78406 8.168C7.92006 8.168 8.03206 8.116 8.12006 8.012C8.20806 7.9 8.27206 7.736 8.31206 7.52C8.36006 7.304 8.38406 7.036 8.38406 6.716C8.38406 6.388 8.33206 6.128 8.22806 5.936C8.13206 5.744 7.98406 5.648 7.78406 5.648C7.58406 5.648 7.42806 5.744 7.31606 5.936C7.21206 6.128 7.16006 6.384 7.16006 6.704C7.16006 7.024 7.18006 7.296 7.22006 7.52C7.26806 7.736 7.34006 7.9 7.43606 8.012C7.53206 8.116 7.64806 8.168 7.78406 8.168Z"></path>
</svg>
