<svg xmlns="http://www.w3.org/2000/svg" fill="none" viewBox="0 0 22 22" height="22" width="22">
<circle stroke="#0D0E12" fill="#FDCD4D" r="10" cy="11" cx="11"></circle>
<path fill="#0D0E12" d="M10.4223 17.4963C10.4398 17.7663 10.235 18.0013 9.96434 17.9999C8.79806 17.994 7.65149 17.6966 6.62932 17.135C6.39214 17.0047 6.32728 16.6998 6.47386 16.4723C6.62044 16.2448 6.92286 16.1812 7.16151 16.3088C8.0051 16.7599 8.94427 17.0034 9.90075 17.0192C10.1713 17.0236 10.4047 17.2262 10.4223 17.4963Z"></path>
<path fill="white" d="M17 7C17 8.10457 16.1046 9 15 9C13.8954 9 13 8.10457 13 7C13 5.89543 13.8954 5 15 5C16.1046 5 17 5.89543 17 7Z"></path>
<mask height="4" width="4" y="5" x="13" maskUnits="userSpaceOnUse" style="mask-type:alpha" id="mask0_1145_121">
<path fill="white" d="M17 7C17 8.10457 16.1046 9 15 9C13.8954 9 13 8.10457 13 7C13 5.89543 13.8954 5 15 5C16.1046 5 17 5.89543 17 7Z"></path>
</mask>
<g mask="url(#mask0_1145_121)">
<path fill="#0D0E12" d="M16.5 6C16.5 6.55228 16.0523 7 15.5 7C14.9477 7 14.5 6.55228 14.5 6C14.5 5.44772 14.9477 5 15.5 5C16.0523 5 16.5 5.44772 16.5 6Z"></path>
</g>
<path fill="white" d="M12 7C12 8.10457 11.1046 9 10 9C8.89543 9 8 8.10457 8 7C8 5.89543 8.89543 5 10 5C11.1046 5 12 5.89543 12 7Z"></path>
<mask height="4" width="4" y="5" x="8" maskUnits="userSpaceOnUse" style="mask-type:alpha" id="mask1_1145_121">
<path fill="white" d="M12 7C12 8.10457 11.1046 9 10 9C8.89543 9 8 8.10457 8 7C8 5.89543 8.89543 5 10 5C11.1046 5 12 5.89543 12 7Z"></path>
</mask>
<g mask="url(#mask1_1145_121)">
<path fill="#0D0E12" d="M11.5 6C11.5 6.55228 11.0523 7 10.5 7C9.94771 7 9.5 6.55228 9.5 6C9.5 5.44772 9.94771 5 10.5 5C11.0523 5 11.5 5.44772 11.5 6Z"></path>
</g>
<path stroke-linecap="round" stroke="#D29B09" d="M16 4C15.5 3.5 15 3 13.5 3"></path>
<path stroke-linecap="round" stroke="#D29B09" d="M9 4C9.5 3.5 10 3 11.5 3"></path>
</svg>
