<svg xmlns="http://www.w3.org/2000/svg" fill="none" viewBox="0 0 8 19" height="19" width="8">
<path fill-opacity="0.01" fill="white" d="M0 0H8V19H0V0Z"></path>
<path fill="#45D2FF" d="M0.1465 14V12.488C0.4185 12.488 0.6385 12.472 0.8065 12.44C0.9745 12.4 1.1065 12.312 1.2025 12.176C1.2985 12.04 1.3745 11.832 1.4305 11.552C1.4865 11.272 1.5305 10.896 1.5625 10.424C1.6025 9.952 1.6505 9.352 1.7065 8.624L2.0185 4.28H7.1665V14H5.0305V5.924H3.9625L3.7705 9.032C3.7145 9.832 3.6585 10.524 3.6025 11.108C3.5465 11.684 3.4545 12.168 3.3265 12.56C3.2065 12.952 3.0225 13.26 2.7745 13.484C2.5345 13.7 2.2025 13.848 1.7785 13.928C1.3545 14.008 0.8105 14.032 0.1465 14Z"></path>
</svg>
