<svg version="1.1" xmlns="http://www.w3.org/2000/svg" xmlns:xlink="http://www.w3.org/1999/xlink" width="7.5" height="19.00005" viewBox="0,0,7.5,19.00005"><g transform="translate(-236,-170.50005)"><g data-paper-data="{&quot;isPaintingLayer&quot;:true}" fill-rule="nonzero" stroke="none" stroke-width="1" stroke-linecap="butt" stroke-linejoin="miter" stroke-miterlimit="10" stroke-dasharray="" stroke-dashoffset="0" style="mix-blend-mode: normal"><path d="M236,170.50015l7.5,-0.0001v18.99995l-7.5,0.0001z" fill-opacity="0.01" fill="#ffffff"/><path d="M236.48133,184.4999l1.848,-4.32002c-0.368,-0.224 -0.672,-0.552 -0.912,-0.984c-0.232,-0.432 -0.348,-0.936 -0.348,-1.512c0,-0.752 0.132,-1.336 0.396,-1.752c0.264,-0.424 0.64,-0.72 1.128,-0.888c0.496,-0.176 1.088,-0.264 1.776,-0.264h2.496v9.72002h-2.136v-3.84h-0.384c-0.008,0 -0.028,0 -0.06,0c-0.032,0 -0.056,0 -0.072,0l-1.416,3.84zM240.41733,179.14788h0.312v-2.892h-0.336c-0.44,0 -0.772,0.124 -0.996,0.372c-0.216,0.24 -0.324,0.596 -0.324,1.068c0,0.416 0.096,0.764 0.288,1.044c0.192,0.272 0.544,0.408 1.056,0.408z" fill="#45d2ff"/></g></g></svg>