<svg xmlns="http://www.w3.org/2000/svg" fill="none" viewBox="0 0 214 84" height="84" width="214">
<mask fill="white" id="path-1-inside-1_1450_25">
<path d="M0 0H214V84H0V0Z"></path>
</mask>
<path fill="#0D0E12" d="M0 0H214V84H0V0Z"></path>
<path mask="url(#path-1-inside-1_1450_25)" fill="white" d="M0 0V-1H-1V0H0ZM0 84H-1V85H0V84ZM0 1H214V-1H0V1ZM214 83H0V85H214V83ZM1 84V0H-1V84H1Z"></path>
<path fill="#FF0000" d="M16.72 38V28.28H18.868V36.548H21.1V38H16.72ZM24.672 38.144C23.944 38.144 23.368 38.016 22.944 37.76C22.52 37.504 22.216 37.136 22.032 36.656C21.848 36.176 21.756 35.604 21.756 34.94V31.328C21.756 30.656 21.848 30.084 22.032 29.612C22.216 29.14 22.52 28.78 22.944 28.532C23.368 28.276 23.944 28.148 24.672 28.148C25.408 28.148 25.988 28.276 26.412 28.532C26.844 28.78 27.152 29.14 27.336 29.612C27.52 30.084 27.612 30.656 27.612 31.328V34.94C27.612 35.604 27.52 36.176 27.336 36.656C27.152 37.136 26.844 37.504 26.412 37.76C25.988 38.016 25.408 38.144 24.672 38.144ZM24.672 36.62C24.896 36.62 25.06 36.564 25.164 36.452C25.268 36.34 25.336 36.196 25.368 36.02C25.4 35.844 25.416 35.664 25.416 35.48V30.8C25.416 30.608 25.4 30.428 25.368 30.26C25.336 30.084 25.268 29.94 25.164 29.828C25.06 29.716 24.896 29.66 24.672 29.66C24.464 29.66 24.308 29.716 24.204 29.828C24.1 29.94 24.032 30.084 24 30.26C23.968 30.428 23.952 30.608 23.952 30.8V35.48C23.952 35.664 23.964 35.844 23.988 36.02C24.02 36.196 24.084 36.34 24.18 36.452C24.284 36.564 24.448 36.62 24.672 36.62ZM31.4992 38.144C30.8912 38.144 30.3832 38.036 29.9752 37.82C29.5672 37.604 29.2592 37.272 29.0512 36.824C28.8432 36.368 28.7272 35.78 28.7032 35.06L30.5392 34.784C30.5472 35.2 30.5832 35.536 30.6472 35.792C30.7192 36.048 30.8152 36.232 30.9352 36.344C31.0632 36.456 31.2152 36.512 31.3912 36.512C31.6152 36.512 31.7592 36.436 31.8232 36.284C31.8952 36.132 31.9312 35.972 31.9312 35.804C31.9312 35.404 31.8352 35.068 31.6432 34.796C31.4512 34.516 31.1912 34.236 30.8632 33.956L30.0232 33.224C29.6552 32.912 29.3432 32.56 29.0872 32.168C28.8392 31.768 28.7152 31.276 28.7152 30.692C28.7152 29.868 28.9592 29.24 29.4472 28.808C29.9352 28.368 30.5992 28.148 31.4392 28.148C31.9592 28.148 32.3752 28.236 32.6872 28.412C33.0072 28.588 33.2472 28.82 33.4072 29.108C33.5752 29.388 33.6872 29.688 33.7432 30.008C33.8072 30.32 33.8432 30.62 33.8512 30.908L32.0032 31.136C31.9952 30.848 31.9752 30.6 31.9432 30.392C31.9192 30.176 31.8632 30.012 31.7752 29.9C31.6872 29.78 31.5512 29.72 31.3672 29.72C31.1672 29.72 31.0192 29.804 30.9232 29.972C30.8352 30.14 30.7912 30.308 30.7912 30.476C30.7912 30.836 30.8752 31.132 31.0432 31.364C31.2192 31.588 31.4472 31.824 31.7272 32.072L32.5312 32.78C32.9552 33.14 33.3112 33.548 33.5992 34.004C33.8952 34.46 34.0432 35.024 34.0432 35.696C34.0432 36.152 33.9392 36.568 33.7312 36.944C33.5232 37.312 33.2272 37.604 32.8432 37.82C32.4672 38.036 32.0192 38.144 31.4992 38.144ZM37.4758 38.144C36.8678 38.144 36.3598 38.036 35.9518 37.82C35.5438 37.604 35.2358 37.272 35.0278 36.824C34.8198 36.368 34.7038 35.78 34.6798 35.06L36.5158 34.784C36.5238 35.2 36.5598 35.536 36.6238 35.792C36.6958 36.048 36.7918 36.232 36.9118 36.344C37.0398 36.456 37.1918 36.512 37.3678 36.512C37.5918 36.512 37.7358 36.436 37.7998 36.284C37.8718 36.132 37.9078 35.972 37.9078 35.804C37.9078 35.404 37.8118 35.068 37.6198 34.796C37.4278 34.516 37.1678 34.236 36.8398 33.956L35.9998 33.224C35.6318 32.912 35.3198 32.56 35.0638 32.168C34.8158 31.768 34.6918 31.276 34.6918 30.692C34.6918 29.868 34.9358 29.24 35.4238 28.808C35.9118 28.368 36.5758 28.148 37.4158 28.148C37.9358 28.148 38.3518 28.236 38.6638 28.412C38.9838 28.588 39.2238 28.82 39.3838 29.108C39.5518 29.388 39.6638 29.688 39.7198 30.008C39.7838 30.32 39.8198 30.62 39.8278 30.908L37.9798 31.136C37.9718 30.848 37.9518 30.6 37.9198 30.392C37.8958 30.176 37.8398 30.012 37.7518 29.9C37.6638 29.78 37.5278 29.72 37.3438 29.72C37.1438 29.72 36.9958 29.804 36.8998 29.972C36.8118 30.14 36.7678 30.308 36.7678 30.476C36.7678 30.836 36.8518 31.132 37.0198 31.364C37.1958 31.588 37.4238 31.824 37.7038 32.072L38.5078 32.78C38.9318 33.14 39.2878 33.548 39.5758 34.004C39.8718 34.46 40.0198 35.024 40.0198 35.696C40.0198 36.152 39.9158 36.568 39.7078 36.944C39.4998 37.312 39.2038 37.604 38.8198 37.82C38.4438 38.036 37.9958 38.144 37.4758 38.144Z"></path>
<path fill="white" d="M17.87 56V53.14L16.12 47.9H17.17L18.41 51.81L19.63 47.9H20.69L18.95 53.14V56H17.87ZM22.7491 56.08C22.3225 56.08 21.9858 55.9933 21.7391 55.82C21.4925 55.6467 21.3158 55.4 21.2091 55.08C21.1091 54.76 21.0591 54.3833 21.0591 53.95V52.27C21.0591 51.8367 21.1091 51.46 21.2091 51.14C21.3158 50.82 21.4925 50.5733 21.7391 50.4C21.9858 50.2267 22.3225 50.14 22.7491 50.14C23.1758 50.14 23.5091 50.2267 23.7491 50.4C23.9958 50.5733 24.1691 50.82 24.2691 51.14C24.3758 51.46 24.4291 51.8367 24.4291 52.27V53.95C24.4291 54.3833 24.3758 54.76 24.2691 55.08C24.1691 55.4 23.9958 55.6467 23.7491 55.82C23.5091 55.9933 23.1758 56.08 22.7491 56.08ZM22.7491 55.29C22.9558 55.29 23.0991 55.23 23.1791 55.11C23.2658 54.99 23.3158 54.8333 23.3291 54.64C23.3491 54.44 23.3591 54.2333 23.3591 54.02V52.21C23.3591 51.99 23.3491 51.7833 23.3291 51.59C23.3158 51.3967 23.2658 51.24 23.1791 51.12C23.0991 50.9933 22.9558 50.93 22.7491 50.93C22.5425 50.93 22.3958 50.9933 22.3091 51.12C22.2225 51.24 22.1691 51.3967 22.1491 51.59C22.1358 51.7833 22.1291 51.99 22.1291 52.21V54.02C22.1291 54.2333 22.1358 54.44 22.1491 54.64C22.1691 54.8333 22.2225 54.99 22.3091 55.11C22.3958 55.23 22.5425 55.29 22.7491 55.29ZM26.2372 56.08C26.0105 56.08 25.8339 56.02 25.7072 55.9C25.5805 55.78 25.4905 55.63 25.4372 55.45C25.3905 55.27 25.3672 55.0867 25.3672 54.9V50.22H26.4372V54.58C26.4372 54.7867 26.4672 54.95 26.5272 55.07C26.5872 55.1833 26.7105 55.24 26.8972 55.24C27.0172 55.24 27.1405 55.2067 27.2672 55.14C27.4005 55.0667 27.5272 54.98 27.6472 54.88V50.22H28.7172V56H27.6472V55.43C27.4605 55.61 27.2472 55.7633 27.0072 55.89C26.7739 56.0167 26.5172 56.08 26.2372 56.08ZM29.4715 50.38V47.9H30.4415L30.0515 50.38H29.4715ZM31.831 56L30.691 50.22H31.771L32.481 54.87L33.201 50.22H34.241L33.141 56H31.831ZM36.5287 56.08C36.0753 56.08 35.7253 55.9933 35.4787 55.82C35.232 55.64 35.0587 55.38 34.9587 55.04C34.8653 54.6933 34.8187 54.27 34.8187 53.77V52.45C34.8187 51.9367 34.8687 51.51 34.9687 51.17C35.0687 50.83 35.242 50.5733 35.4887 50.4C35.742 50.2267 36.0887 50.14 36.5287 50.14C37.0153 50.14 37.372 50.24 37.5987 50.44C37.832 50.64 37.9853 50.93 38.0587 51.31C38.132 51.6833 38.1687 52.1333 38.1687 52.66V53.13H35.8887V54.29C35.8887 54.5233 35.9087 54.7133 35.9487 54.86C35.9953 55.0067 36.0653 55.1167 36.1587 55.19C36.2587 55.2567 36.3853 55.29 36.5387 55.29C36.6987 55.29 36.8187 55.2533 36.8987 55.18C36.9853 55.1 37.042 54.99 37.0687 54.85C37.102 54.7033 37.1187 54.5333 37.1187 54.34V53.99H38.1587V54.21C38.1587 54.79 38.0353 55.2467 37.7887 55.58C37.542 55.9133 37.122 56.08 36.5287 56.08ZM35.8887 52.55H37.1187V52.03C37.1187 51.79 37.1053 51.59 37.0787 51.43C37.052 51.2633 36.9953 51.14 36.9087 51.06C36.8287 50.9733 36.6987 50.93 36.5187 50.93C36.3453 50.93 36.212 50.97 36.1187 51.05C36.032 51.13 35.972 51.2667 35.9387 51.46C35.9053 51.6467 35.8887 51.9067 35.8887 52.24V52.55ZM41.4528 56V50.22H42.5228V51.04C42.7361 50.6867 42.9495 50.45 43.1628 50.33C43.3761 50.21 43.5895 50.15 43.8028 50.15C43.8295 50.15 43.8528 50.15 43.8728 50.15C43.8995 50.15 43.9328 50.1533 43.9728 50.16V51.34C43.8928 51.3067 43.7995 51.28 43.6928 51.26C43.5928 51.2333 43.4895 51.22 43.3828 51.22C43.2161 51.22 43.0628 51.26 42.9228 51.34C42.7895 51.4133 42.6561 51.56 42.5228 51.78V56H41.4528ZM45.4657 56.08C45.239 56.08 45.0624 56.02 44.9357 55.9C44.809 55.78 44.719 55.63 44.6657 55.45C44.619 55.27 44.5957 55.0867 44.5957 54.9V50.22H45.6657V54.58C45.6657 54.7867 45.6957 54.95 45.7557 55.07C45.8157 55.1833 45.939 55.24 46.1257 55.24C46.2457 55.24 46.369 55.2067 46.4957 55.14C46.629 55.0667 46.7557 54.98 46.8757 54.88V50.22H47.9457V56H46.8757V55.43C46.689 55.61 46.4757 55.7633 46.2357 55.89C46.0024 56.0167 45.7457 56.08 45.4657 56.08ZM49.04 56V50.22H50.11V50.79C50.3033 50.61 50.5167 50.4567 50.75 50.33C50.9833 50.2033 51.24 50.14 51.52 50.14C51.7533 50.14 51.93 50.2 52.05 50.32C52.1767 50.44 52.2633 50.59 52.31 50.77C52.3633 50.95 52.39 51.1333 52.39 51.32V56H51.32V51.63C51.32 51.4233 51.29 51.2633 51.23 51.15C51.17 51.0367 51.0467 50.98 50.86 50.98C50.74 50.98 50.6133 51.0167 50.48 51.09C50.3533 51.1567 50.23 51.24 50.11 51.34V56H49.04ZM57.3097 56.08C56.883 56.08 56.5464 55.9933 56.2997 55.82C56.053 55.6467 55.8764 55.4 55.7697 55.08C55.6697 54.76 55.6197 54.3833 55.6197 53.95V52.27C55.6197 51.8367 55.6697 51.46 55.7697 51.14C55.8764 50.82 56.053 50.5733 56.2997 50.4C56.5464 50.2267 56.883 50.14 57.3097 50.14C57.7364 50.14 58.0697 50.2267 58.3097 50.4C58.5564 50.5733 58.7297 50.82 58.8297 51.14C58.9364 51.46 58.9897 51.8367 58.9897 52.27V53.95C58.9897 54.3833 58.9364 54.76 58.8297 55.08C58.7297 55.4 58.5564 55.6467 58.3097 55.82C58.0697 55.9933 57.7364 56.08 57.3097 56.08ZM57.3097 55.29C57.5164 55.29 57.6597 55.23 57.7397 55.11C57.8264 54.99 57.8764 54.8333 57.8897 54.64C57.9097 54.44 57.9197 54.2333 57.9197 54.02V52.21C57.9197 51.99 57.9097 51.7833 57.8897 51.59C57.8764 51.3967 57.8264 51.24 57.7397 51.12C57.6597 50.9933 57.5164 50.93 57.3097 50.93C57.103 50.93 56.9564 50.9933 56.8697 51.12C56.783 51.24 56.7297 51.3967 56.7097 51.59C56.6964 51.7833 56.6897 51.99 56.6897 52.21V54.02C56.6897 54.2333 56.6964 54.44 56.7097 54.64C56.7297 54.8333 56.783 54.99 56.8697 55.11C56.9564 55.23 57.103 55.29 57.3097 55.29ZM60.7977 56.08C60.5711 56.08 60.3944 56.02 60.2677 55.9C60.1411 55.78 60.0511 55.63 59.9977 55.45C59.9511 55.27 59.9277 55.0867 59.9277 54.9V50.22H60.9977V54.58C60.9977 54.7867 61.0277 54.95 61.0877 55.07C61.1477 55.1833 61.2711 55.24 61.4577 55.24C61.5777 55.24 61.7011 55.2067 61.8277 55.14C61.9611 55.0667 62.0877 54.98 62.2077 54.88V50.22H63.2777V56H62.2077V55.43C62.0211 55.61 61.8077 55.7633 61.5677 55.89C61.3344 56.0167 61.0777 56.08 60.7977 56.08ZM65.912 56.08C65.612 56.08 65.3687 56.0233 65.182 55.91C65.002 55.7967 64.8687 55.6367 64.782 55.43C64.702 55.2233 64.662 54.98 64.662 54.7V50.93H64.052V50.22H64.662V48.53H65.732V50.22H66.662V50.93H65.732V54.63C65.732 54.8567 65.7687 55.02 65.842 55.12C65.9154 55.2133 66.0554 55.26 66.262 55.26C66.3154 55.26 66.3754 55.2567 66.442 55.25C66.5154 55.2433 66.5854 55.2367 66.652 55.23V56.02C66.5187 56.04 66.3954 56.0533 66.282 56.06C66.1687 56.0733 66.0454 56.08 65.912 56.08ZM71.3234 56.08C70.8967 56.08 70.56 55.9933 70.3134 55.82C70.0667 55.6467 69.89 55.4 69.7834 55.08C69.6834 54.76 69.6334 54.3833 69.6334 53.95V52.27C69.6334 51.8367 69.6834 51.46 69.7834 51.14C69.89 50.82 70.0667 50.5733 70.3134 50.4C70.56 50.2267 70.8967 50.14 71.3234 50.14C71.75 50.14 72.0834 50.2267 72.3234 50.4C72.57 50.5733 72.7434 50.82 72.8434 51.14C72.95 51.46 73.0034 51.8367 73.0034 52.27V53.95C73.0034 54.3833 72.95 54.76 72.8434 55.08C72.7434 55.4 72.57 55.6467 72.3234 55.82C72.0834 55.9933 71.75 56.08 71.3234 56.08ZM71.3234 55.29C71.53 55.29 71.6734 55.23 71.7534 55.11C71.84 54.99 71.89 54.8333 71.9034 54.64C71.9234 54.44 71.9334 54.2333 71.9334 54.02V52.21C71.9334 51.99 71.9234 51.7833 71.9034 51.59C71.89 51.3967 71.84 51.24 71.7534 51.12C71.6734 50.9933 71.53 50.93 71.3234 50.93C71.1167 50.93 70.97 50.9933 70.8834 51.12C70.7967 51.24 70.7434 51.3967 70.7234 51.59C70.71 51.7833 70.7034 51.99 70.7034 52.21V54.02C70.7034 54.2333 70.71 54.44 70.7234 54.64C70.7434 54.8333 70.7967 54.99 70.8834 55.11C70.97 55.23 71.1167 55.29 71.3234 55.29ZM74.3214 56V51.01H73.6314V50.22H74.3214V49.92C74.3214 49.56 74.3481 49.2533 74.4014 49C74.4614 48.74 74.5814 48.54 74.7614 48.4C74.9414 48.26 75.2114 48.19 75.5714 48.19C75.7047 48.19 75.8214 48.1967 75.9214 48.21C76.0281 48.2167 76.1447 48.2333 76.2714 48.26V49.04C76.2114 49.0267 76.1447 49.0167 76.0714 49.01C75.9981 48.9967 75.9314 48.99 75.8714 48.99C75.6647 48.99 75.5314 49.06 75.4714 49.2C75.4181 49.3333 75.3914 49.5133 75.3914 49.74V50.22H76.2714V51.01H75.3914V56H74.3214ZM80.6777 56.08C80.3777 56.08 80.1343 56.0233 79.9477 55.91C79.7677 55.7967 79.6343 55.6367 79.5477 55.43C79.4677 55.2233 79.4277 54.98 79.4277 54.7V50.93H78.8177V50.22H79.4277V48.53H80.4977V50.22H81.4277V50.93H80.4977V54.63C80.4977 54.8567 80.5343 55.02 80.6077 55.12C80.681 55.2133 80.821 55.26 81.0277 55.26C81.081 55.26 81.141 55.2567 81.2077 55.25C81.281 55.2433 81.351 55.2367 81.4177 55.23V56.02C81.2843 56.04 81.161 56.0533 81.0477 56.06C80.9343 56.0733 80.811 56.08 80.6777 56.08ZM82.2838 56V50.22H83.3538V56H82.2838ZM82.2838 49.36V48.24H83.3538V49.36H82.2838ZM84.499 56V50.22H85.489V50.77C85.6823 50.55 85.8957 50.3867 86.129 50.28C86.3623 50.1733 86.6023 50.12 86.849 50.12C87.0623 50.12 87.2523 50.1733 87.419 50.28C87.5923 50.3867 87.7157 50.5767 87.789 50.85C87.9957 50.5967 88.219 50.4133 88.459 50.3C88.7057 50.18 88.9623 50.12 89.229 50.12C89.4157 50.12 89.5857 50.1667 89.739 50.26C89.8923 50.3467 90.0157 50.49 90.109 50.69C90.2023 50.8833 90.249 51.14 90.249 51.46V56H89.269V51.53C89.269 51.25 89.2223 51.0633 89.129 50.97C89.0423 50.87 88.9223 50.82 88.769 50.82C88.6223 50.82 88.469 50.8633 88.309 50.95C88.149 51.03 88.0023 51.1433 87.869 51.29C87.869 51.3167 87.869 51.3433 87.869 51.37C87.869 51.3967 87.869 51.4267 87.869 51.46V56H86.889V51.53C86.889 51.25 86.8423 51.0633 86.749 50.97C86.6623 50.87 86.5423 50.82 86.389 50.82C86.2423 50.82 86.089 50.8633 85.929 50.95C85.7757 51.03 85.629 51.1433 85.489 51.29V56H84.499ZM92.8959 56.08C92.4425 56.08 92.0925 55.9933 91.8459 55.82C91.5992 55.64 91.4259 55.38 91.3259 55.04C91.2325 54.6933 91.1859 54.27 91.1859 53.77V52.45C91.1859 51.9367 91.2359 51.51 91.3359 51.17C91.4359 50.83 91.6092 50.5733 91.8559 50.4C92.1092 50.2267 92.4559 50.14 92.8959 50.14C93.3825 50.14 93.7392 50.24 93.9659 50.44C94.1992 50.64 94.3525 50.93 94.4259 51.31C94.4992 51.6833 94.5359 52.1333 94.5359 52.66V53.13H92.2559V54.29C92.2559 54.5233 92.2759 54.7133 92.3159 54.86C92.3625 55.0067 92.4325 55.1167 92.5259 55.19C92.6259 55.2567 92.7525 55.29 92.9059 55.29C93.0659 55.29 93.1859 55.2533 93.2659 55.18C93.3525 55.1 93.4092 54.99 93.4359 54.85C93.4692 54.7033 93.4859 54.5333 93.4859 54.34V53.99H94.5259V54.21C94.5259 54.79 94.4025 55.2467 94.1559 55.58C93.9092 55.9133 93.4892 56.08 92.8959 56.08ZM92.2559 52.55H93.4859V52.03C93.4859 51.79 93.4725 51.59 93.4459 51.43C93.4192 51.2633 93.3625 51.14 93.2759 51.06C93.1959 50.9733 93.0659 50.93 92.8859 50.93C92.7125 50.93 92.5792 50.97 92.4859 51.05C92.3992 51.13 92.3392 51.2667 92.3059 51.46C92.2725 51.6467 92.2559 51.9067 92.2559 52.24V52.55Z"></path>
</svg>
