<svg xmlns="http://www.w3.org/2000/svg" fill="none" viewBox="0 0 108 22" height="22" width="108">
<rect stroke="#0D0E12" fill="white" height="21" width="107" y="0.5" x="0.5"></rect>
<path fill="#0D0E12" d="M26.92 16.12C26.3067 16.12 25.82 16.01 25.46 15.79C25.1067 15.5633 24.8567 15.25 24.71 14.85C24.5633 14.4433 24.49 13.9667 24.49 13.42V10.5C24.49 9.94 24.5633 9.46 24.71 9.06C24.8567 8.65333 25.1067 8.34 25.46 8.12C25.82 7.9 26.3067 7.79 26.92 7.79C27.52 7.79 27.9867 7.89 28.32 8.09C28.66 8.28333 28.9 8.55667 29.04 8.91C29.18 9.26333 29.25 9.67 29.25 10.13V10.83H27.5V10.02C27.5 9.86 27.49 9.70667 27.47 9.56C27.4567 9.41333 27.41 9.29333 27.33 9.2C27.25 9.1 27.1133 9.05 26.92 9.05C26.7333 9.05 26.5933 9.1 26.5 9.2C26.4133 9.3 26.3567 9.42667 26.33 9.58C26.31 9.72667 26.3 9.88333 26.3 10.05V13.86C26.3 14.04 26.3133 14.2067 26.34 14.36C26.3733 14.5067 26.4333 14.6267 26.52 14.72C26.6133 14.8067 26.7467 14.85 26.92 14.85C27.1067 14.85 27.24 14.8033 27.32 14.71C27.4 14.61 27.45 14.4833 27.47 14.33C27.49 14.1767 27.5 14.02 27.5 13.86V13.01H29.25V13.71C29.25 14.17 29.18 14.5833 29.04 14.95C28.9067 15.31 28.67 15.5967 28.33 15.81C27.9967 16.0167 27.5267 16.12 26.92 16.12ZM30.2348 16V7.9H35.0848V16H33.3248V9.18H31.9948V16H30.2348ZM36.2895 16V7.9H39.0095C39.4961 7.9 39.8961 7.99333 40.2095 8.18C40.5228 8.36 40.7561 8.62667 40.9095 8.98C41.0628 9.32667 41.1395 9.75 41.1395 10.25C41.1395 10.8767 41.0361 11.3567 40.8295 11.69C40.6228 12.0167 40.3428 12.2433 39.9895 12.37C39.6361 12.4967 39.2395 12.56 38.7995 12.56H38.0795V16H36.2895ZM38.0795 11.31H38.6795C38.8995 11.31 39.0661 11.27 39.1795 11.19C39.2928 11.11 39.3661 10.99 39.3995 10.83C39.4395 10.67 39.4595 10.4667 39.4595 10.22C39.4595 10.0133 39.4428 9.83333 39.4095 9.68C39.3828 9.52 39.3128 9.39333 39.1995 9.3C39.0861 9.20667 38.9095 9.16 38.6695 9.16H38.0795V11.31ZM41.5023 16L43.0423 12.4C42.7357 12.2133 42.4823 11.94 42.2823 11.58C42.089 11.22 41.9923 10.8 41.9923 10.32C41.9923 9.69333 42.1023 9.20667 42.3223 8.86C42.5423 8.50667 42.8557 8.26 43.2623 8.12C43.6757 7.97333 44.169 7.9 44.7423 7.9H46.8223V16H45.0423V12.8H44.7223C44.7157 12.8 44.699 12.8 44.6723 12.8C44.6457 12.8 44.6257 12.8 44.6123 12.8L43.4323 16H41.5023ZM44.7823 11.54H45.0423V9.13H44.7623C44.3957 9.13 44.119 9.23333 43.9323 9.44C43.7523 9.64 43.6623 9.93667 43.6623 10.33C43.6623 10.6767 43.7423 10.9667 43.9023 11.2C44.0623 11.4267 44.3557 11.54 44.7823 11.54ZM48.7968 16V9.23H47.5768V7.9H51.8068V9.23H50.5968V16H48.7968ZM52.1299 16L53.6599 7.9H55.6999L57.2099 16H55.5599L55.2899 14.29H54.0999L53.8199 16H52.1299ZM54.2599 13.22H55.1199L54.6899 10.06L54.2599 13.22ZM58.6308 16V9.23H57.4108V7.9H61.6408V9.23H60.4308V16H58.6308ZM62.3839 16V7.9H64.1739V11.32H64.5739C65.0806 11.32 65.5106 11.4033 65.8639 11.57C66.2172 11.7367 66.4872 11.9933 66.6739 12.34C66.8606 12.68 66.9539 13.12 66.9539 13.66C66.9539 14.1533 66.8872 14.5533 66.7539 14.86C66.6272 15.1667 66.4472 15.4033 66.2139 15.57C65.9806 15.7367 65.7072 15.85 65.3939 15.91C65.0872 15.97 64.7572 16 64.4039 16H62.3839ZM64.1739 14.83H64.4139C64.6406 14.83 64.8172 14.7867 64.9439 14.7C65.0772 14.6133 65.1706 14.48 65.2239 14.3C65.2839 14.12 65.3106 13.8933 65.3039 13.62C65.2972 13.32 65.2339 13.07 65.1139 12.87C65.0006 12.6633 64.7606 12.56 64.3939 12.56H64.1739V14.83ZM72.7891 16.12C72.1758 16.12 71.6891 16.01 71.3291 15.79C70.9758 15.5633 70.7258 15.25 70.5791 14.85C70.4325 14.4433 70.3591 13.9667 70.3591 13.42V10.5C70.3591 9.94 70.4325 9.46 70.5791 9.06C70.7258 8.65333 70.9758 8.34 71.3291 8.12C71.6891 7.9 72.1758 7.79 72.7891 7.79C73.3891 7.79 73.8558 7.89 74.1891 8.09C74.5291 8.28333 74.7691 8.55667 74.9091 8.91C75.0491 9.26333 75.1191 9.67 75.1191 10.13V10.83H73.3691V10.02C73.3691 9.86 73.3591 9.70667 73.3391 9.56C73.3258 9.41333 73.2791 9.29333 73.1991 9.2C73.1191 9.1 72.9825 9.05 72.7891 9.05C72.6025 9.05 72.4625 9.1 72.3691 9.2C72.2825 9.3 72.2258 9.42667 72.1991 9.58C72.1791 9.72667 72.1691 9.88333 72.1691 10.05V13.86C72.1691 14.04 72.1825 14.2067 72.2091 14.36C72.2425 14.5067 72.3025 14.6267 72.3891 14.72C72.4825 14.8067 72.6158 14.85 72.7891 14.85C72.9758 14.85 73.1091 14.8033 73.1891 14.71C73.2691 14.61 73.3191 14.4833 73.3391 14.33C73.3591 14.1767 73.3691 14.02 73.3691 13.86V13.01H75.1191V13.71C75.1191 14.17 75.0491 14.5833 74.9091 14.95C74.7758 15.31 74.5391 15.5967 74.1991 15.81C73.8658 16.0167 73.3958 16.12 72.7891 16.12ZM76.1039 16V7.9H79.7439V9.12H77.8939V11.13H79.3039V12.37H77.8939V14.79H79.7639V16H76.1039ZM81.3066 16V9.23H80.0866V7.9H84.3166V9.23H83.1066V16H81.3066ZM85.0597 16V7.9H86.8497V11.11H87.0297L88.2197 7.9H89.9997L88.5197 11.7L90.0497 16H88.2097L87.0297 12.47H86.8497V16H85.0597ZM90.6823 17.59V16.41C90.969 16.4167 91.219 16.4033 91.4323 16.37C91.6457 16.3367 91.819 16.2733 91.9523 16.18C92.0857 16.0867 92.1723 15.96 92.2123 15.8C92.259 15.6333 92.2523 15.4267 92.1923 15.18L90.3723 7.9H92.0323L92.7323 11.23L93.0623 13.4L93.3023 11.22L93.8923 7.9H95.5723L93.8923 15.45C93.8123 15.8167 93.719 16.1267 93.6123 16.38C93.5057 16.6333 93.3723 16.84 93.2123 17C93.059 17.1667 92.869 17.2933 92.6423 17.38C92.4157 17.4667 92.139 17.5233 91.8123 17.55C91.4923 17.5833 91.1157 17.5967 90.6823 17.59Z"></path>
<rect fill="#0D0E12" height="9" width="1" y="7" x="17"></rect>
<rect fill="#0D0E12" height="9" width="1" y="7" x="13"></rect>
<rect fill="#0D0E12" transform="rotate(-90 11 10)" height="9" width="1" y="10" x="11"></rect>
<rect fill="#0D0E12" transform="rotate(-90 11 14)" height="9" width="1" y="14" x="11"></rect>
</svg>
