<svg xmlns="http://www.w3.org/2000/svg" fill="none" viewBox="0 0 90 40" height="40" width="90">
<rect fill="#0D0E12" height="40" width="90"></rect>
<path fill="white" d="M10.5012 25.18C9.91717 25.18 9.42917 25.064 9.03717 24.832C8.64517 24.592 8.34917 24.264 8.14917 23.848C7.94917 23.432 7.84917 22.948 7.84917 22.396V17.992C7.84917 17.424 7.94117 16.928 8.12517 16.504C8.31717 16.072 8.60917 15.736 9.00117 15.496C9.39317 15.256 9.89317 15.136 10.5012 15.136C11.1092 15.136 11.6052 15.256 11.9892 15.496C12.3812 15.736 12.6692 16.072 12.8532 16.504C13.0452 16.928 13.1412 17.424 13.1412 17.992V22.396C13.1412 22.94 13.0412 23.424 12.8412 23.848C12.6412 24.264 12.3452 24.592 11.9532 24.832C11.5612 25.064 11.0772 25.18 10.5012 25.18ZM10.5012 23.392C10.6932 23.392 10.8292 23.332 10.9092 23.212C10.9972 23.084 11.0492 22.94 11.0652 22.78C11.0892 22.612 11.1012 22.468 11.1012 22.348V18.04C11.1012 17.904 11.0932 17.752 11.0772 17.584C11.0612 17.408 11.0092 17.256 10.9212 17.128C10.8412 16.992 10.7012 16.924 10.5012 16.924C10.3012 16.924 10.1572 16.992 10.0692 17.128C9.98917 17.256 9.94117 17.408 9.92517 17.584C9.90917 17.752 9.90117 17.904 9.90117 18.04V22.348C9.90117 22.468 9.91317 22.612 9.93717 22.78C9.96117 22.94 10.0132 23.084 10.0932 23.212C10.1812 23.332 10.3172 23.392 10.5012 23.392ZM16.8588 25.18C16.1468 25.18 15.6068 25.056 15.2388 24.808C14.8788 24.552 14.6348 24.196 14.5068 23.74C14.3788 23.284 14.3148 22.756 14.3148 22.156H16.2468C16.2468 22.524 16.2668 22.824 16.3068 23.056C16.3468 23.288 16.4188 23.456 16.5228 23.56C16.6348 23.656 16.7908 23.7 16.9908 23.692C17.1988 23.684 17.3468 23.6 17.4348 23.44C17.5228 23.28 17.5748 23.052 17.5908 22.756C17.6148 22.452 17.6268 22.088 17.6268 21.664C17.6268 21.344 17.6068 21.06 17.5668 20.812C17.5348 20.564 17.4628 20.368 17.3508 20.224C17.2468 20.072 17.0868 19.996 16.8708 19.996C16.6708 19.996 16.5068 20.068 16.3788 20.212C16.2508 20.356 16.1588 20.58 16.1028 20.884H14.3748L14.5548 15.28H19.0908V16.96H16.1628L16.0548 18.964C16.1348 18.852 16.2868 18.756 16.5108 18.676C16.7348 18.588 16.9748 18.532 17.2308 18.508C17.7268 18.452 18.1428 18.544 18.4788 18.784C18.8228 19.016 19.0788 19.372 19.2468 19.852C19.4228 20.332 19.5108 20.92 19.5108 21.616C19.5108 22.136 19.4788 22.616 19.4148 23.056C19.3508 23.488 19.2268 23.864 19.0428 24.184C18.8588 24.496 18.5908 24.74 18.2388 24.916C17.8868 25.092 17.4268 25.18 16.8588 25.18ZM23.5866 25V18.064H25.5066V18.616C25.7626 18.368 26.0266 18.192 26.2986 18.088C26.5786 17.984 26.8626 17.932 27.1506 17.932C27.4306 17.932 27.6706 18.004 27.8706 18.148C28.0786 18.284 28.2346 18.488 28.3386 18.76C28.6106 18.456 28.8946 18.244 29.1906 18.124C29.4946 17.996 29.7986 17.932 30.1026 17.932C30.3746 17.932 30.6106 18 30.8106 18.136C31.0106 18.264 31.1666 18.456 31.2786 18.712C31.3906 18.96 31.4466 19.26 31.4466 19.612V25H29.5266V19.816C29.5266 19.624 29.4906 19.488 29.4186 19.408C29.3546 19.32 29.2546 19.276 29.1186 19.276C29.0386 19.276 28.9386 19.3 28.8186 19.348C28.6986 19.388 28.5826 19.448 28.4706 19.528C28.4706 19.544 28.4706 19.56 28.4706 19.576C28.4706 19.584 28.4706 19.596 28.4706 19.612V25H26.5746V19.816C26.5746 19.624 26.5386 19.488 26.4666 19.408C26.3946 19.32 26.2906 19.276 26.1546 19.276C26.0666 19.276 25.9626 19.3 25.8426 19.348C25.7306 19.388 25.6186 19.448 25.5066 19.528V25H23.5866ZM32.6338 25V18.064H34.5898V25H32.6338ZM32.6218 16.888V15.532H34.5898V16.888H32.6218ZM35.7975 25V18.064H37.7535V18.76C38.0095 18.504 38.2735 18.304 38.5455 18.16C38.8255 18.016 39.1175 17.944 39.4215 17.944C39.7095 17.944 39.9455 18.016 40.1295 18.16C40.3215 18.296 40.4655 18.488 40.5615 18.736C40.6575 18.976 40.7055 19.252 40.7055 19.564V25H38.7615V19.84C38.7615 19.672 38.7335 19.544 38.6775 19.456C38.6215 19.368 38.5175 19.324 38.3655 19.324C38.2855 19.324 38.1895 19.348 38.0775 19.396C37.9735 19.436 37.8655 19.496 37.7535 19.576V25H35.7975ZM41.8196 25V23.152H43.6676V25H41.8196ZM50.5676 25.18C49.9836 25.18 49.4956 25.064 49.1036 24.832C48.7116 24.592 48.4156 24.264 48.2156 23.848C48.0156 23.432 47.9156 22.948 47.9156 22.396V17.992C47.9156 17.424 48.0076 16.928 48.1916 16.504C48.3836 16.072 48.6756 15.736 49.0676 15.496C49.4596 15.256 49.9596 15.136 50.5676 15.136C51.1756 15.136 51.6716 15.256 52.0556 15.496C52.4476 15.736 52.7356 16.072 52.9196 16.504C53.1116 16.928 53.2076 17.424 53.2076 17.992V22.396C53.2076 22.94 53.1076 23.424 52.9076 23.848C52.7076 24.264 52.4116 24.592 52.0196 24.832C51.6276 25.064 51.1436 25.18 50.5676 25.18ZM50.5676 23.392C50.7596 23.392 50.8956 23.332 50.9756 23.212C51.0636 23.084 51.1156 22.94 51.1316 22.78C51.1556 22.612 51.1676 22.468 51.1676 22.348V18.04C51.1676 17.904 51.1596 17.752 51.1436 17.584C51.1276 17.408 51.0756 17.256 50.9876 17.128C50.9076 16.992 50.7676 16.924 50.5676 16.924C50.3676 16.924 50.2236 16.992 50.1356 17.128C50.0556 17.256 50.0076 17.408 49.9916 17.584C49.9756 17.752 49.9676 17.904 49.9676 18.04V22.348C49.9676 22.468 49.9796 22.612 50.0036 22.78C50.0276 22.94 50.0796 23.084 50.1596 23.212C50.2476 23.332 50.3836 23.392 50.5676 23.392ZM57.1652 25.18C56.5812 25.18 56.0932 25.064 55.7012 24.832C55.3092 24.592 55.0132 24.264 54.8132 23.848C54.6132 23.432 54.5132 22.948 54.5132 22.396V17.992C54.5132 17.424 54.6052 16.928 54.7892 16.504C54.9812 16.072 55.2732 15.736 55.6652 15.496C56.0572 15.256 56.5572 15.136 57.1652 15.136C57.7732 15.136 58.2692 15.256 58.6532 15.496C59.0452 15.736 59.3332 16.072 59.5172 16.504C59.7092 16.928 59.8052 17.424 59.8052 17.992V22.396C59.8052 22.94 59.7052 23.424 59.5052 23.848C59.3052 24.264 59.0092 24.592 58.6172 24.832C58.2252 25.064 57.7412 25.18 57.1652 25.18ZM57.1652 23.392C57.3572 23.392 57.4932 23.332 57.5732 23.212C57.6612 23.084 57.7132 22.94 57.7292 22.78C57.7532 22.612 57.7652 22.468 57.7652 22.348V18.04C57.7652 17.904 57.7572 17.752 57.7412 17.584C57.7252 17.408 57.6732 17.256 57.5852 17.128C57.5052 16.992 57.3652 16.924 57.1652 16.924C56.9652 16.924 56.8212 16.992 56.7332 17.128C56.6532 17.256 56.6052 17.408 56.5892 17.584C56.5732 17.752 56.5652 17.904 56.5652 18.04V22.348C56.5652 22.468 56.5772 22.612 56.6012 22.78C56.6252 22.94 56.6772 23.084 56.7572 23.212C56.8452 23.332 56.9812 23.392 57.1652 23.392ZM66.2812 25.12C65.6732 25.12 65.1652 24.984 64.7572 24.712C64.3572 24.44 64.0292 23.996 63.7732 23.38L65.1052 22.792C65.2332 23.104 65.3812 23.352 65.5492 23.536C65.7252 23.712 65.9172 23.8 66.1252 23.8C66.2772 23.8 66.3892 23.768 66.4612 23.704C66.5412 23.64 66.5812 23.552 66.5812 23.44C66.5812 23.256 66.5092 23.088 66.3652 22.936C66.2292 22.784 65.9812 22.56 65.6212 22.264L65.1172 21.844C64.7492 21.532 64.4572 21.232 64.2412 20.944C64.0332 20.648 63.9292 20.284 63.9292 19.852C63.9292 19.476 64.0252 19.144 64.2172 18.856C64.4172 18.568 64.6812 18.344 65.0092 18.184C65.3372 18.024 65.6892 17.944 66.0652 17.944C66.6332 17.944 67.1092 18.1 67.4932 18.412C67.8772 18.724 68.1452 19.164 68.2972 19.732L67.0372 20.308C66.9892 20.156 66.9212 20.004 66.8332 19.852C66.7452 19.7 66.6372 19.572 66.5092 19.468C66.3892 19.364 66.2572 19.312 66.1132 19.312C65.9852 19.312 65.8812 19.348 65.8012 19.42C65.7292 19.492 65.6932 19.588 65.6932 19.708C65.6932 19.86 65.7772 20.024 65.9452 20.2C66.1212 20.376 66.3612 20.588 66.6652 20.836L67.1572 21.268C67.3572 21.436 67.5532 21.616 67.7452 21.808C67.9372 22 68.0932 22.212 68.2132 22.444C68.3412 22.676 68.4052 22.94 68.4052 23.236C68.4052 23.636 68.3052 23.98 68.1052 24.268C67.9052 24.548 67.6412 24.76 67.3132 24.904C66.9932 25.048 66.6492 25.12 66.2812 25.12ZM71.4991 25.12C70.9951 25.12 70.5631 25.032 70.2031 24.856C69.8431 24.672 69.5671 24.408 69.3751 24.064C69.1831 23.712 69.0871 23.292 69.0871 22.804V20.26C69.0871 19.764 69.1831 19.344 69.3751 19C69.5671 18.656 69.8431 18.396 70.2031 18.22C70.5711 18.036 71.0031 17.944 71.4991 17.944C72.0111 17.944 72.4351 18.032 72.7711 18.208C73.1151 18.384 73.3711 18.644 73.5391 18.988C73.7151 19.332 73.8031 19.756 73.8031 20.26V21.652H71.0191V22.984C71.0191 23.16 71.0391 23.304 71.0791 23.416C71.1191 23.528 71.1751 23.608 71.2471 23.656C71.3191 23.704 71.4031 23.728 71.4991 23.728C71.5951 23.728 71.6791 23.708 71.7511 23.668C71.8311 23.62 71.8911 23.548 71.9311 23.452C71.9791 23.356 72.0031 23.224 72.0031 23.056V22.324H73.8031V22.996C73.8031 23.7 73.5991 24.232 73.1911 24.592C72.7831 24.944 72.2191 25.12 71.4991 25.12ZM71.0191 20.74H72.0031V20.044C72.0031 19.86 71.9791 19.716 71.9311 19.612C71.8911 19.508 71.8311 19.436 71.7511 19.396C71.6791 19.356 71.5911 19.336 71.4871 19.336C71.3911 19.336 71.3071 19.36 71.2351 19.408C71.1711 19.456 71.1191 19.54 71.0791 19.66C71.0391 19.772 71.0191 19.936 71.0191 20.152V20.74ZM77.1239 25.12C76.6199 25.12 76.1879 25.028 75.8279 24.844C75.4759 24.66 75.2039 24.396 75.0119 24.052C74.8199 23.708 74.7239 23.292 74.7239 22.804V20.26C74.7239 19.764 74.8199 19.344 75.0119 19C75.2039 18.656 75.4759 18.396 75.8279 18.22C76.1879 18.036 76.6199 17.944 77.1239 17.944C77.6199 17.944 78.0399 18.02 78.3839 18.172C78.7359 18.324 79.0039 18.556 79.1879 18.868C79.3719 19.172 79.4639 19.56 79.4639 20.032V20.764H77.5799V19.972C77.5799 19.788 77.5599 19.648 77.5199 19.552C77.4879 19.448 77.4359 19.376 77.3639 19.336C77.2999 19.296 77.2199 19.276 77.1239 19.276C77.0279 19.276 76.9479 19.304 76.8839 19.36C76.8199 19.408 76.7719 19.492 76.7399 19.612C76.7079 19.724 76.6919 19.884 76.6919 20.092V22.972C76.6919 23.284 76.7279 23.496 76.7999 23.608C76.8799 23.72 76.9919 23.776 77.1359 23.776C77.2399 23.776 77.3239 23.756 77.3879 23.716C77.4519 23.668 77.4999 23.596 77.5319 23.5C77.5639 23.396 77.5799 23.26 77.5799 23.092V22.168H79.4639V23.008C79.4639 23.472 79.3679 23.864 79.1759 24.184C78.9919 24.496 78.7239 24.732 78.3719 24.892C78.0279 25.044 77.6119 25.12 77.1239 25.12ZM80.4211 25V23.152H82.2691V25H80.4211Z"></path>
</svg>
