<svg xmlns="http://www.w3.org/2000/svg" fill="none" viewBox="0 0 27 34" height="34" width="27">
<path stroke="#0D0E12" fill="white" d="M14.0111 3.42031C18.3192 3.49696 22.4815 3.88666 25.5 4.86001V9.0001H1.5V4.86068C4.58773 3.87614 9.71803 3.34392 14.0111 3.42031Z"></path>
<path stroke="#0D0E12" fill="white" d="M1.53999 29.1864C2.16399 24.0261 6.21999 28.2433 6.21999 19.5766V15.8934C6.21999 14.1877 5.19443 12.6493 3.61999 11.9933L3.04179 11.7524C1.81748 11.2422 1.01999 10.046 1.01999 8.71962C1.01999 8.0306 1.26795 7.35748 1.91596 7.12335C5.93278 5.67207 21.0671 5.67212 25.084 7.12337C25.732 7.35749 25.98 8.03062 25.98 8.71964C25.98 10.046 25.1825 11.2422 23.9582 11.7524L23.38 11.9933C21.8056 12.6493 20.78 14.1877 20.78 15.8934V19.5766C20.78 28.2433 24.836 24.1663 25.46 29.3266V30.4253C25.46 31.1293 25.2646 31.8408 24.6096 32.0991C20.835 33.5876 6.15406 33.4828 2.38665 31.9491C1.73455 31.6836 1.53999 30.9726 1.53999 30.2685V29.1864Z"></path>
<path stroke-linecap="round" stroke="#0D0E12" d="M5.18002 28.2433C6.74002 29.8683 20.26 29.8683 21.82 28.2433"></path>
<path stroke-linecap="round" stroke="#0D0E12" d="M20.78 11.4517C18.7 10.91 8.30002 10.91 6.22002 11.4517"></path>
<path fill="white" d="M3 7.15569C2.13263 7.51105 1.4566 7.97045 1 8.56198V3.09209C1.49683 2.75357 2.16584 2.44693 3 2.17921V7.15569ZM23.5 6.86164V2.02899C22.0719 1.62725 20.2291 1.3275 18 1.15808V6.0982C20.2013 6.21265 22.068 6.44208 23.5 6.86164ZM13 6.00088V1.00171C10.7174 1.01755 8.71128 1.14216 7 1.35727V6.26625C8.73931 6.07476 10.762 6.00902 13 6.00088Z" clip-rule="evenodd" fill-rule="evenodd"></path>
<path fill="black" d="M1 8.56198H0.5V10.028L1.3958 8.8675L1 8.56198ZM3 7.15569L3.18956 7.61837L3.5 7.49118V7.15569H3ZM1 3.09209L0.718459 2.67889L0.5 2.82774V3.09209H1ZM3 2.17921H3.5V1.49362L2.84721 1.70313L3 2.17921ZM23.5 2.02899H24V1.65024L23.6354 1.54768L23.5 2.02899ZM23.5 6.86164L23.3594 7.34147L24 7.52915V6.86164H23.5ZM18 1.15808L18.0379 0.659519L17.5 0.618638V1.15808H18ZM18 6.0982H17.5V6.57288L17.974 6.59752L18 6.0982ZM13 1.00171H13.5V0.498227L12.9965 0.501721L13 1.00171ZM13 6.00088L13.0018 6.50087L13.5 6.49906V6.00088H13ZM7 1.35727L6.93764 0.861171L6.5 0.916183V1.35727H7ZM7 6.26625H6.5V6.82432L7.05472 6.76325L7 6.26625ZM1.3958 8.8675C1.78224 8.36687 2.37442 7.95233 3.18956 7.61837L2.81044 6.69302C1.89084 7.06978 1.13096 7.57404 0.604199 8.25646L1.3958 8.8675ZM0.5 3.09209V8.56198H1.5V3.09209H0.5ZM2.84721 1.70313C1.98531 1.97975 1.26802 2.30444 0.718459 2.67889L1.28154 3.50529C1.72564 3.2027 2.34637 2.91411 3.15279 2.65529L2.84721 1.70313ZM3.5 7.15569V2.17921H2.5V7.15569H3.5ZM23 2.02899V6.86164H24V2.02899H23ZM17.9621 1.65664C20.1705 1.82449 21.9784 2.12034 23.3646 2.51031L23.6354 1.54768C22.1655 1.13417 20.2877 0.830509 18.0379 0.659519L17.9621 1.65664ZM18.5 6.0982V1.15808H17.5V6.0982H18.5ZM23.6406 6.38181C22.1523 5.94576 20.2395 5.71396 18.026 5.59887L17.974 6.59752C20.163 6.71134 21.9837 6.93839 23.3594 7.34147L23.6406 6.38181ZM12.5 1.00171V6.00088H13.5V1.00171H12.5ZM7.06236 1.85336C8.75028 1.64119 10.7363 1.51743 13.0035 1.5017L12.9965 0.501721C10.6985 0.517669 8.67229 0.643124 6.93764 0.861171L7.06236 1.85336ZM7.5 6.26625V1.35727H6.5V6.26625H7.5ZM12.9982 5.50088C10.7543 5.50905 8.71089 5.57487 6.94528 5.76925L7.05472 6.76325C8.76772 6.57466 10.7697 6.509 13.0018 6.50087L12.9982 5.50088Z"></path>
</svg>
