<svg xmlns="http://www.w3.org/2000/svg" fill="none" viewBox="0 0 156 56" height="56" width="156">
<rect stroke="white" fill="#0D0E12" height="55" width="155" y="0.5" x="0.5"></rect>
<path fill="white" d="M43.7834 16V10.22H45.8334C46.4134 10.22 46.8501 10.2833 47.1434 10.41C47.4368 10.53 47.6334 10.6967 47.7334 10.91C47.8334 11.1233 47.8834 11.3733 47.8834 11.66C47.8834 12.04 47.8001 12.32 47.6334 12.5C47.4734 12.6733 47.2601 12.7967 46.9934 12.87C47.2734 12.9367 47.4868 13.0367 47.6334 13.17C47.7801 13.3033 47.8801 13.4667 47.9334 13.66C47.9934 13.8533 48.0234 14.0767 48.0234 14.33C48.0234 14.7033 47.9534 15.0167 47.8134 15.27C47.6734 15.5167 47.4368 15.7 47.1034 15.82C46.7701 15.94 46.3168 16 45.7434 16H43.7834ZM45.4034 15.1H45.6734C45.8201 15.1 45.9501 15.0867 46.0634 15.06C46.1768 15.0333 46.2668 14.9633 46.3334 14.85C46.4068 14.73 46.4434 14.54 46.4434 14.28C46.4434 13.9867 46.4101 13.7767 46.3434 13.65C46.2834 13.5233 46.1968 13.4467 46.0834 13.42C45.9701 13.3933 45.8368 13.38 45.6834 13.38H45.4034V15.1ZM45.4034 12.5H45.8134C46.0068 12.5 46.1401 12.44 46.2134 12.32C46.2868 12.1933 46.3234 12.02 46.3234 11.8C46.3234 11.5867 46.2834 11.41 46.2034 11.27C46.1301 11.13 45.9601 11.06 45.6934 11.06H45.4034V12.5ZM48.8323 17.9V10.22H50.4623V10.64C50.6556 10.4667 50.8623 10.3367 51.0823 10.25C51.3023 10.1633 51.5123 10.12 51.7123 10.12C51.9323 10.12 52.1189 10.1633 52.2723 10.25C52.4323 10.3367 52.5623 10.46 52.6623 10.62C52.7623 10.7733 52.8356 10.9533 52.8823 11.16C52.9289 11.3667 52.9523 11.5867 52.9523 11.82V14.31C52.9523 14.67 52.9023 14.9833 52.8023 15.25C52.7089 15.5167 52.5689 15.7267 52.3823 15.88C52.1956 16.0267 51.9656 16.1 51.6923 16.1C51.4856 16.1 51.2756 16.0533 51.0623 15.96C50.8556 15.86 50.6556 15.7267 50.4623 15.56V17.9H48.8323ZM50.8923 15.05C50.9989 15.05 51.0823 15.02 51.1423 14.96C51.2023 14.9 51.2456 14.8233 51.2723 14.73C51.3056 14.63 51.3223 14.52 51.3223 14.4V11.7C51.3223 11.5867 51.3089 11.4867 51.2823 11.4C51.2556 11.3067 51.2123 11.2333 51.1523 11.18C51.0923 11.1267 51.0156 11.1 50.9223 11.1C50.8356 11.1 50.7523 11.12 50.6723 11.16C50.5989 11.1933 50.5289 11.24 50.4623 11.3V14.9C50.5356 14.9467 50.6056 14.9833 50.6723 15.01C50.7456 15.0367 50.8189 15.05 50.8923 15.05ZM54.0411 17.68V16.55C54.2478 16.55 54.4178 16.5367 54.5511 16.51C54.6911 16.4833 54.7944 16.4333 54.8611 16.36C54.9344 16.2867 54.9711 16.1867 54.9711 16.06C54.9711 15.9467 54.9511 15.81 54.9111 15.65C54.8711 15.4833 54.8211 15.2967 54.7611 15.09L53.4011 10.22H54.9311L55.6611 13.56L56.2111 10.22H57.7511L56.4211 16.14C56.3344 16.54 56.1978 16.85 56.0111 17.07C55.8244 17.2967 55.5944 17.4533 55.3211 17.54C55.0544 17.6333 54.7511 17.68 54.4111 17.68H54.0411ZM60.6735 16V13.67C60.5868 13.6767 60.4968 13.6833 60.4035 13.69C60.3168 13.6967 60.2302 13.7 60.1435 13.7C59.6502 13.7 59.2635 13.6433 58.9835 13.53C58.7102 13.41 58.5168 13.2433 58.4035 13.03C58.2968 12.81 58.2435 12.55 58.2435 12.25V10.22H59.8635V12.15C59.8635 12.3567 59.9035 12.51 59.9835 12.61C60.0635 12.71 60.2268 12.7667 60.4735 12.78C60.5068 12.78 60.5368 12.78 60.5635 12.78C60.5968 12.7733 60.6335 12.77 60.6735 12.77V10.22H62.3035V16H60.6735ZM64.5145 16.1C64.2211 16.1 63.9745 16.03 63.7745 15.89C63.5745 15.75 63.4245 15.5733 63.3245 15.36C63.2245 15.14 63.1745 14.9167 63.1745 14.69C63.1745 14.33 63.2445 14.0267 63.3845 13.78C63.5311 13.5333 63.7211 13.3267 63.9545 13.16C64.1878 12.9933 64.4445 12.8533 64.7245 12.74C65.0045 12.62 65.2811 12.5133 65.5545 12.42V11.84C65.5545 11.74 65.5445 11.6533 65.5245 11.58C65.5045 11.5 65.4711 11.44 65.4245 11.4C65.3778 11.3533 65.3078 11.33 65.2145 11.33C65.1211 11.33 65.0478 11.35 64.9945 11.39C64.9478 11.43 64.9145 11.4867 64.8945 11.56C64.8745 11.6267 64.8611 11.7033 64.8545 11.79L64.8145 12.21L63.2945 12.15C63.3278 11.4567 63.5111 10.9467 63.8445 10.62C64.1845 10.2867 64.6911 10.12 65.3645 10.12C65.9511 10.12 66.3878 10.2833 66.6745 10.61C66.9678 10.93 67.1145 11.3467 67.1145 11.86V14.56C67.1145 14.8 67.1178 15.01 67.1245 15.19C67.1378 15.37 67.1511 15.5267 67.1645 15.66C67.1845 15.7933 67.2011 15.9067 67.2145 16H65.7545C65.7345 15.8467 65.7111 15.68 65.6845 15.5C65.6578 15.32 65.6378 15.2133 65.6245 15.18C65.5578 15.42 65.4311 15.6333 65.2445 15.82C65.0645 16.0067 64.8211 16.1 64.5145 16.1ZM65.0945 15C65.1611 15 65.2211 14.9867 65.2745 14.96C65.3345 14.9333 65.3878 14.8967 65.4345 14.85C65.4811 14.8033 65.5211 14.7567 65.5545 14.71V13.13C65.4211 13.21 65.2978 13.2933 65.1845 13.38C65.0711 13.46 64.9745 13.55 64.8945 13.65C64.8145 13.75 64.7511 13.86 64.7045 13.98C64.6645 14.0933 64.6445 14.2233 64.6445 14.37C64.6445 14.5633 64.6845 14.7167 64.7645 14.83C64.8445 14.9433 64.9545 15 65.0945 15ZM69.9703 16.1C69.5503 16.1 69.1903 16.0267 68.8903 15.88C68.5903 15.7267 68.3603 15.5067 68.2003 15.22C68.0403 14.9267 67.9603 14.5767 67.9603 14.17V12.05C67.9603 11.6367 68.0403 11.2867 68.2003 11C68.3603 10.7133 68.5903 10.4967 68.8903 10.35C69.197 10.1967 69.557 10.12 69.9703 10.12C70.397 10.12 70.7503 10.1933 71.0303 10.34C71.317 10.4867 71.5303 10.7033 71.6703 10.99C71.817 11.2767 71.8903 11.63 71.8903 12.05V13.21H69.5703V14.32C69.5703 14.4667 69.587 14.5867 69.6203 14.68C69.6536 14.7733 69.7003 14.84 69.7603 14.88C69.8203 14.92 69.8903 14.94 69.9703 14.94C70.0503 14.94 70.1203 14.9233 70.1803 14.89C70.247 14.85 70.297 14.79 70.3303 14.71C70.3703 14.63 70.3903 14.52 70.3903 14.38V13.77H71.8903V14.33C71.8903 14.9167 71.7203 15.36 71.3803 15.66C71.0403 15.9533 70.5703 16.1 69.9703 16.1ZM69.5703 12.45H70.3903V11.87C70.3903 11.7167 70.3703 11.5967 70.3303 11.51C70.297 11.4233 70.247 11.3633 70.1803 11.33C70.1203 11.2967 70.047 11.28 69.9603 11.28C69.8803 11.28 69.8103 11.3 69.7503 11.34C69.697 11.38 69.6536 11.45 69.6203 11.55C69.587 11.6433 69.5703 11.78 69.5703 11.96V12.45ZM73.4385 16V11.32H72.3885V10.22H76.1085V11.32H75.0585V16H73.4385ZM78.6713 16.1C78.2513 16.1 77.8913 16.0233 77.5913 15.87C77.2979 15.7167 77.0713 15.4967 76.9113 15.21C76.7513 14.9233 76.6713 14.5767 76.6713 14.17V12.05C76.6713 11.6367 76.7513 11.2867 76.9113 11C77.0713 10.7133 77.2979 10.4967 77.5913 10.35C77.8913 10.1967 78.2513 10.12 78.6713 10.12C79.0846 10.12 79.4346 10.1833 79.7213 10.31C80.0146 10.4367 80.2379 10.63 80.3913 10.89C80.5446 11.1433 80.6213 11.4667 80.6213 11.86V12.47H79.0513V11.81C79.0513 11.6567 79.0346 11.54 79.0013 11.46C78.9746 11.3733 78.9313 11.3133 78.8713 11.28C78.8179 11.2467 78.7513 11.23 78.6713 11.23C78.5913 11.23 78.5246 11.2533 78.4713 11.3C78.4179 11.34 78.3779 11.41 78.3513 11.51C78.3246 11.6033 78.3113 11.7367 78.3113 11.91V14.31C78.3113 14.57 78.3413 14.7467 78.4013 14.84C78.4679 14.9333 78.5613 14.98 78.6813 14.98C78.7679 14.98 78.8379 14.9633 78.8913 14.93C78.9446 14.89 78.9846 14.83 79.0113 14.75C79.0379 14.6633 79.0513 14.55 79.0513 14.41V13.64H80.6213V14.34C80.6213 14.7267 80.5413 15.0533 80.3813 15.32C80.2279 15.58 80.0046 15.7767 79.7113 15.91C79.4246 16.0367 79.0779 16.1 78.6713 16.1ZM81.129 16L82.029 13.6C81.8757 13.5133 81.7457 13.3933 81.639 13.24C81.5323 13.0867 81.4523 12.9067 81.399 12.7C81.3457 12.4933 81.319 12.27 81.319 12.03C81.319 11.7633 81.3557 11.52 81.429 11.3C81.509 11.08 81.6323 10.89 81.799 10.73C81.9723 10.57 82.1957 10.4467 82.469 10.36C82.7423 10.2667 83.0723 10.22 83.459 10.22H85.609V16H83.989V13.94C83.9623 13.94 83.889 13.94 83.769 13.94C83.649 13.9333 83.559 13.9267 83.499 13.92L82.849 16H81.129ZM83.919 12.98C83.9323 12.98 83.9457 12.98 83.959 12.98C83.9723 12.98 83.9823 12.98 83.989 12.98V11.14C83.9823 11.14 83.9723 11.14 83.959 11.14C83.9457 11.14 83.9323 11.14 83.919 11.14C83.6723 11.14 83.4657 11.1733 83.299 11.24C83.1323 11.3067 83.0057 11.4067 82.919 11.54C82.839 11.6667 82.799 11.8267 82.799 12.02C82.799 12.3467 82.8957 12.5867 83.089 12.74C83.289 12.8933 83.5657 12.9733 83.919 12.98ZM89.8838 16V11.32H88.8338V10.22H92.5538V11.32H91.5038V16H89.8838ZM95.0584 16.1C94.6451 16.1 94.2851 16.03 93.9784 15.89C93.6784 15.75 93.4451 15.54 93.2784 15.26C93.1184 14.98 93.0384 14.63 93.0384 14.21V12.01C93.0384 11.59 93.1184 11.24 93.2784 10.96C93.4451 10.68 93.6784 10.47 93.9784 10.33C94.2851 10.19 94.6451 10.12 95.0584 10.12C95.4718 10.12 95.8284 10.19 96.1284 10.33C96.4351 10.47 96.6718 10.68 96.8384 10.96C97.0051 11.24 97.0884 11.59 97.0884 12.01V14.21C97.0884 14.63 97.0051 14.98 96.8384 15.26C96.6718 15.54 96.4351 15.75 96.1284 15.89C95.8284 16.03 95.4718 16.1 95.0584 16.1ZM95.0684 15.02C95.1751 15.02 95.2584 14.9933 95.3184 14.94C95.3784 14.88 95.4184 14.8 95.4384 14.7C95.4651 14.5933 95.4784 14.4667 95.4784 14.32V11.9C95.4784 11.7533 95.4651 11.63 95.4384 11.53C95.4184 11.4233 95.3784 11.3433 95.3184 11.29C95.2584 11.23 95.1751 11.2 95.0684 11.2C94.9618 11.2 94.8784 11.23 94.8184 11.29C94.7584 11.3433 94.7151 11.4233 94.6884 11.53C94.6618 11.63 94.6484 11.7533 94.6484 11.9V14.32C94.6484 14.4667 94.6618 14.5933 94.6884 14.7C94.7151 14.8 94.7584 14.88 94.8184 14.94C94.8784 14.9933 94.9618 15.02 95.0684 15.02ZM97.9824 16L98.0024 10.22H99.2024L100.382 12.99L101.572 10.22H102.772L102.792 16H101.522V12.96L100.632 15.1H100.152L99.2524 12.95V16H97.9824ZM103.973 17.68V16.55C104.179 16.55 104.349 16.5367 104.483 16.51C104.623 16.4833 104.726 16.4333 104.793 16.36C104.866 16.2867 104.903 16.1867 104.903 16.06C104.903 15.9467 104.883 15.81 104.843 15.65C104.803 15.4833 104.753 15.2967 104.693 15.09L103.333 10.22H104.863L105.593 13.56L106.143 10.22H107.683L106.353 16.14C106.266 16.54 106.129 16.85 105.943 17.07C105.756 17.2967 105.526 17.4533 105.253 17.54C104.986 17.6333 104.683 17.68 104.343 17.68H103.973ZM108.465 17.4L108.365 16.87C108.538 16.8233 108.698 16.7367 108.845 16.61C108.998 16.49 109.075 16.2867 109.075 16H108.215V14.46H109.765V15.79C109.758 16.2833 109.648 16.6667 109.435 16.94C109.222 17.2133 108.898 17.3667 108.465 17.4ZM24.6086 31V25.22H26.2386V27.5H26.4786L27.3586 25.22H29.1086L27.9686 27.95L29.1386 31H27.4186L26.4786 28.44H26.2386V31H24.6086ZM30.4356 31V26.32H29.3856V25.22H33.1056V26.32H32.0556V31H30.4356ZM35.6102 31.1C35.1969 31.1 34.8369 31.03 34.5302 30.89C34.2302 30.75 33.9969 30.54 33.8302 30.26C33.6702 29.98 33.5902 29.63 33.5902 29.21V27.01C33.5902 26.59 33.6702 26.24 33.8302 25.96C33.9969 25.68 34.2302 25.47 34.5302 25.33C34.8369 25.19 35.1969 25.12 35.6102 25.12C36.0235 25.12 36.3802 25.19 36.6802 25.33C36.9869 25.47 37.2235 25.68 37.3902 25.96C37.5569 26.24 37.6402 26.59 37.6402 27.01V29.21C37.6402 29.63 37.5569 29.98 37.3902 30.26C37.2235 30.54 36.9869 30.75 36.6802 30.89C36.3802 31.03 36.0235 31.1 35.6102 31.1ZM35.6202 30.02C35.7269 30.02 35.8102 29.9933 35.8702 29.94C35.9302 29.88 35.9702 29.8 35.9902 29.7C36.0169 29.5933 36.0302 29.4667 36.0302 29.32V26.9C36.0302 26.7533 36.0169 26.63 35.9902 26.53C35.9702 26.4233 35.9302 26.3433 35.8702 26.29C35.8102 26.23 35.7269 26.2 35.6202 26.2C35.5135 26.2 35.4302 26.23 35.3702 26.29C35.3102 26.3433 35.2669 26.4233 35.2402 26.53C35.2135 26.63 35.2002 26.7533 35.2002 26.9V29.32C35.2002 29.4667 35.2135 29.5933 35.2402 29.7C35.2669 29.8 35.3102 29.88 35.3702 29.94C35.4302 29.9933 35.5135 30.02 35.6202 30.02ZM41.1028 31V25.22H45.2028V31H43.5728V26.33H42.7328V31H41.1028ZM48.1102 31.1C47.6969 31.1 47.3369 31.03 47.0302 30.89C46.7302 30.75 46.4969 30.54 46.3302 30.26C46.1702 29.98 46.0902 29.63 46.0902 29.21V27.01C46.0902 26.59 46.1702 26.24 46.3302 25.96C46.4969 25.68 46.7302 25.47 47.0302 25.33C47.3369 25.19 47.6969 25.12 48.1102 25.12C48.5235 25.12 48.8802 25.19 49.1802 25.33C49.4869 25.47 49.7235 25.68 49.8902 25.96C50.0569 26.24 50.1402 26.59 50.1402 27.01V29.21C50.1402 29.63 50.0569 29.98 49.8902 30.26C49.7235 30.54 49.4869 30.75 49.1802 30.89C48.8802 31.03 48.5235 31.1 48.1102 31.1ZM48.1202 30.02C48.2269 30.02 48.3102 29.9933 48.3702 29.94C48.4302 29.88 48.4702 29.8 48.4902 29.7C48.5169 29.5933 48.5302 29.4667 48.5302 29.32V26.9C48.5302 26.7533 48.5169 26.63 48.4902 26.53C48.4702 26.4233 48.4302 26.3433 48.3702 26.29C48.3102 26.23 48.2269 26.2 48.1202 26.2C48.0135 26.2 47.9302 26.23 47.8702 26.29C47.8102 26.3433 47.7669 26.4233 47.7402 26.53C47.7135 26.63 47.7002 26.7533 47.7002 26.9V29.32C47.7002 29.4667 47.7135 29.5933 47.7402 29.7C47.7669 29.8 47.8102 29.88 47.8702 29.94C47.9302 29.9933 48.0135 30.02 48.1202 30.02ZM52.9342 31.1C52.4008 31.0867 51.9908 30.99 51.7042 30.81C51.4242 30.63 51.2342 30.37 51.1342 30.03C51.0342 29.6833 50.9842 29.27 50.9842 28.79V25.56C50.9842 25.0267 51.0375 24.6 51.1442 24.28C51.2575 23.96 51.4108 23.7133 51.6042 23.54C51.8042 23.3667 52.0342 23.2333 52.2942 23.14C52.5542 23.0467 52.8142 22.9733 53.0742 22.92C53.3408 22.8667 53.5975 22.8067 53.8442 22.74C54.0975 22.6667 54.3308 22.56 54.5442 22.42L54.6042 23.73C54.3842 23.8433 54.1508 23.9267 53.9042 23.98C53.6642 24.0267 53.4275 24.07 53.1942 24.11C52.9675 24.1433 52.7575 24.2 52.5642 24.28C52.3908 24.3467 52.2675 24.4733 52.1942 24.66C52.1208 24.84 52.0842 25.09 52.0842 25.41V25.85C52.1708 25.75 52.2775 25.6667 52.4042 25.6C52.5375 25.5333 52.6908 25.4833 52.8642 25.45C53.0442 25.4167 53.2408 25.4 53.4542 25.4C53.8075 25.4 54.0942 25.4667 54.3142 25.6C54.5342 25.7333 54.6942 25.9533 54.7942 26.26C54.9008 26.5667 54.9542 26.9833 54.9542 27.51V28.92C54.9542 29.5133 54.8675 29.97 54.6942 30.29C54.5275 30.6033 54.2908 30.8167 53.9842 30.93C53.6842 31.0433 53.3342 31.1 52.9342 31.1ZM53.0042 30.05C53.1308 30.05 53.2208 30.0167 53.2742 29.95C53.3342 29.8833 53.3742 29.76 53.3942 29.58C53.4142 29.3933 53.4242 29.12 53.4242 28.76V27.22C53.4242 27 53.4142 26.8267 53.3942 26.7C53.3742 26.5667 53.3342 26.4733 53.2742 26.42C53.2142 26.3667 53.1275 26.34 53.0142 26.34C52.9408 26.34 52.8708 26.3633 52.8042 26.41C52.7442 26.45 52.6942 26.52 52.6542 26.62C52.6142 26.7133 52.5808 26.8467 52.5542 27.02V28.75C52.5542 29.1033 52.5642 29.3733 52.5842 29.56C52.6042 29.7467 52.6475 29.8767 52.7142 29.95C52.7808 30.0167 52.8775 30.05 53.0042 30.05ZM57.7682 31.1C57.3482 31.1 56.9882 31.0267 56.6882 30.88C56.3882 30.7267 56.1582 30.5067 55.9982 30.22C55.8382 29.9267 55.7582 29.5767 55.7582 29.17V27.05C55.7582 26.6367 55.8382 26.2867 55.9982 26C56.1582 25.7133 56.3882 25.4967 56.6882 25.35C56.9948 25.1967 57.3548 25.12 57.7682 25.12C58.1948 25.12 58.5482 25.1933 58.8282 25.34C59.1148 25.4867 59.3282 25.7033 59.4682 25.99C59.6148 26.2767 59.6882 26.63 59.6882 27.05V28.21H57.3682V29.32C57.3682 29.4667 57.3848 29.5867 57.4182 29.68C57.4515 29.7733 57.4982 29.84 57.5582 29.88C57.6182 29.92 57.6882 29.94 57.7682 29.94C57.8482 29.94 57.9182 29.9233 57.9782 29.89C58.0448 29.85 58.0948 29.79 58.1282 29.71C58.1682 29.63 58.1882 29.52 58.1882 29.38V28.77H59.6882V29.33C59.6882 29.9167 59.5182 30.36 59.1782 30.66C58.8382 30.9533 58.3682 31.1 57.7682 31.1ZM57.3682 27.45H58.1882V26.87C58.1882 26.7167 58.1682 26.5967 58.1282 26.51C58.0948 26.4233 58.0448 26.3633 57.9782 26.33C57.9182 26.2967 57.8448 26.28 57.7582 26.28C57.6782 26.28 57.6082 26.3 57.5482 26.34C57.4948 26.38 57.4515 26.45 57.4182 26.55C57.3848 26.6433 57.3682 26.78 57.3682 26.96V27.45ZM60.3854 32.57V30.01C60.6054 29.91 60.7954 29.78 60.9554 29.62C61.1154 29.4533 61.2521 29.2533 61.3654 29.02C61.4788 28.78 61.5688 28.5033 61.6354 28.19C61.7021 27.87 61.7488 27.5067 61.7754 27.1L61.9454 25.22H65.1254V30H65.9654V32.57H64.7954L64.6854 31H61.6654L61.5754 32.57H60.3854ZM62.1454 30H63.6354V26.19H63.1554L63.0354 27.49C63.0154 27.8567 62.9788 28.1767 62.9254 28.45C62.8721 28.7167 62.8054 28.95 62.7254 29.15C62.6521 29.3433 62.5654 29.51 62.4654 29.65C62.3654 29.7833 62.2588 29.9 62.1454 30ZM66.6496 31V25.22H67.9396V28.31L69.4496 25.22H70.7196V31H69.3996V27.94L67.9296 31H66.6496ZM72.4278 31V26.32H71.3778V25.22H75.0978V26.32H74.0478V31H72.4278ZM80.3791 31.15C79.7858 31.15 79.3358 31.0467 79.0291 30.84C78.7291 30.6267 78.5258 30.33 78.4191 29.95C78.3124 29.57 78.2591 29.13 78.2591 28.63H79.8691C79.8691 28.9367 79.8858 29.1867 79.9191 29.38C79.9524 29.5733 80.0124 29.7133 80.0991 29.8C80.1924 29.88 80.3224 29.9167 80.4891 29.91C80.6624 29.9033 80.7858 29.8333 80.8591 29.7C80.9324 29.5667 80.9758 29.3767 80.9891 29.13C81.0091 28.8767 81.0191 28.5733 81.0191 28.22C81.0191 27.9533 81.0024 27.7167 80.9691 27.51C80.9424 27.3033 80.8824 27.14 80.7891 27.02C80.7024 26.8933 80.5691 26.83 80.3891 26.83C80.2224 26.83 80.0858 26.89 79.9791 27.01C79.8724 27.13 79.7958 27.3167 79.7491 27.57H78.3091L78.4591 22.9H82.2391V24.3H79.7991L79.7091 25.97C79.7758 25.8767 79.9024 25.7967 80.0891 25.73C80.2758 25.6567 80.4758 25.61 80.6891 25.59C81.1024 25.5433 81.4491 25.62 81.7291 25.82C82.0158 26.0133 82.2291 26.31 82.3691 26.71C82.5158 27.11 82.5891 27.6 82.5891 28.18C82.5891 28.6133 82.5624 29.0133 82.5091 29.38C82.4558 29.74 82.3524 30.0533 82.1991 30.32C82.0458 30.58 81.8224 30.7833 81.5291 30.93C81.2358 31.0767 80.8524 31.15 80.3791 31.15ZM85.667 31.15C85.1803 31.15 84.7737 31.0533 84.447 30.86C84.1203 30.66 83.8737 30.3867 83.707 30.04C83.5403 29.6933 83.457 29.29 83.457 28.83V25.16C83.457 24.6867 83.5337 24.2733 83.687 23.92C83.847 23.56 84.0903 23.28 84.417 23.08C84.7437 22.88 85.1603 22.78 85.667 22.78C86.1737 22.78 86.587 22.88 86.907 23.08C87.2337 23.28 87.4737 23.56 87.627 23.92C87.787 24.2733 87.867 24.6867 87.867 25.16V28.83C87.867 29.2833 87.7837 29.6867 87.617 30.04C87.4503 30.3867 87.2037 30.66 86.877 30.86C86.5503 31.0533 86.147 31.15 85.667 31.15ZM85.667 29.66C85.827 29.66 85.9403 29.61 86.007 29.51C86.0803 29.4033 86.1237 29.2833 86.137 29.15C86.157 29.01 86.167 28.89 86.167 28.79V25.2C86.167 25.0867 86.1603 24.96 86.147 24.82C86.1337 24.6733 86.0903 24.5467 86.017 24.44C85.9503 24.3267 85.8337 24.27 85.667 24.27C85.5003 24.27 85.3803 24.3267 85.307 24.44C85.2403 24.5467 85.2003 24.6733 85.187 24.82C85.1737 24.96 85.167 25.0867 85.167 25.2V28.79C85.167 28.89 85.177 29.01 85.197 29.15C85.217 29.2833 85.2603 29.4033 85.327 29.51C85.4003 29.61 85.5137 29.66 85.667 29.66ZM91.4836 32.9V25.22H93.1136V25.64C93.307 25.4667 93.5136 25.3367 93.7336 25.25C93.9536 25.1633 94.1636 25.12 94.3636 25.12C94.5836 25.12 94.7703 25.1633 94.9236 25.25C95.0836 25.3367 95.2136 25.46 95.3136 25.62C95.4136 25.7733 95.487 25.9533 95.5336 26.16C95.5803 26.3667 95.6036 26.5867 95.6036 26.82V29.31C95.6036 29.67 95.5536 29.9833 95.4536 30.25C95.3603 30.5167 95.2203 30.7267 95.0336 30.88C94.847 31.0267 94.617 31.1 94.3436 31.1C94.137 31.1 93.927 31.0533 93.7136 30.96C93.507 30.86 93.307 30.7267 93.1136 30.56V32.9H91.4836ZM93.5436 30.05C93.6503 30.05 93.7336 30.02 93.7936 29.96C93.8536 29.9 93.897 29.8233 93.9236 29.73C93.957 29.63 93.9736 29.52 93.9736 29.4V26.7C93.9736 26.5867 93.9603 26.4867 93.9336 26.4C93.907 26.3067 93.8636 26.2333 93.8036 26.18C93.7436 26.1267 93.667 26.1 93.5736 26.1C93.487 26.1 93.4036 26.12 93.3236 26.16C93.2503 26.1933 93.1803 26.24 93.1136 26.3V29.9C93.187 29.9467 93.257 29.9833 93.3236 30.01C93.397 30.0367 93.4703 30.05 93.5436 30.05ZM97.7225 31.1C97.4291 31.1 97.1825 31.03 96.9825 30.89C96.7825 30.75 96.6325 30.5733 96.5325 30.36C96.4325 30.14 96.3825 29.9167 96.3825 29.69C96.3825 29.33 96.4525 29.0267 96.5925 28.78C96.7391 28.5333 96.9291 28.3267 97.1625 28.16C97.3958 27.9933 97.6525 27.8533 97.9325 27.74C98.2125 27.62 98.4891 27.5133 98.7625 27.42V26.84C98.7625 26.74 98.7525 26.6533 98.7325 26.58C98.7125 26.5 98.6791 26.44 98.6325 26.4C98.5858 26.3533 98.5158 26.33 98.4225 26.33C98.3291 26.33 98.2558 26.35 98.2025 26.39C98.1558 26.43 98.1225 26.4867 98.1025 26.56C98.0825 26.6267 98.0691 26.7033 98.0625 26.79L98.0225 27.21L96.5025 27.15C96.5358 26.4567 96.7191 25.9467 97.0525 25.62C97.3925 25.2867 97.8991 25.12 98.5725 25.12C99.1591 25.12 99.5958 25.2833 99.8825 25.61C100.176 25.93 100.322 26.3467 100.322 26.86V29.56C100.322 29.8 100.326 30.01 100.332 30.19C100.346 30.37 100.359 30.5267 100.372 30.66C100.392 30.7933 100.409 30.9067 100.422 31H98.9625C98.9425 30.8467 98.9191 30.68 98.8925 30.5C98.8658 30.32 98.8458 30.2133 98.8325 30.18C98.7658 30.42 98.6391 30.6333 98.4525 30.82C98.2725 31.0067 98.0291 31.1 97.7225 31.1ZM98.3025 30C98.3691 30 98.4291 29.9867 98.4825 29.96C98.5425 29.9333 98.5958 29.8967 98.6425 29.85C98.6891 29.8033 98.7291 29.7567 98.7625 29.71V28.13C98.6291 28.21 98.5058 28.2933 98.3925 28.38C98.2791 28.46 98.1825 28.55 98.1025 28.65C98.0225 28.75 97.9591 28.86 97.9125 28.98C97.8725 29.0933 97.8525 29.2233 97.8525 29.37C97.8525 29.5633 97.8925 29.7167 97.9725 29.83C98.0525 29.9433 98.1625 30 98.3025 30ZM103.008 31.11C102.608 31.11 102.285 31.0567 102.038 30.95C101.798 30.8367 101.612 30.6867 101.478 30.5C101.352 30.3067 101.265 30.09 101.218 29.85C101.178 29.6033 101.158 29.3467 101.158 29.08H102.448C102.448 29.3867 102.495 29.6167 102.588 29.77C102.688 29.9167 102.842 29.99 103.048 29.99C103.202 29.99 103.318 29.9567 103.398 29.89C103.478 29.8233 103.532 29.73 103.558 29.61C103.592 29.49 103.608 29.3567 103.608 29.21C103.608 29.0167 103.572 28.8633 103.498 28.75C103.432 28.6367 103.318 28.5567 103.158 28.51C103.005 28.4567 102.795 28.43 102.528 28.43V27.59C102.928 27.59 103.188 27.5367 103.308 27.43C103.435 27.3233 103.498 27.1367 103.498 26.87C103.498 26.6767 103.458 26.5233 103.378 26.41C103.305 26.2967 103.172 26.24 102.978 26.24C102.772 26.24 102.625 26.3 102.538 26.42C102.458 26.5333 102.418 26.7367 102.418 27.03H101.138C101.138 26.6833 101.192 26.3667 101.298 26.08C101.405 25.7867 101.595 25.5533 101.868 25.38C102.148 25.2067 102.545 25.12 103.058 25.12C103.512 25.12 103.878 25.1933 104.158 25.34C104.445 25.48 104.652 25.6733 104.778 25.92C104.912 26.16 104.978 26.4333 104.978 26.74C104.978 26.9933 104.938 27.2067 104.858 27.38C104.778 27.5533 104.675 27.69 104.548 27.79C104.422 27.8833 104.282 27.9533 104.128 28C104.295 28.06 104.442 28.14 104.568 28.24C104.702 28.34 104.808 28.4833 104.888 28.67C104.968 28.85 105.008 29.0967 105.008 29.41C105.008 29.8967 104.852 30.3033 104.538 30.63C104.225 30.95 103.715 31.11 103.008 31.11ZM110.229 31.1C109.809 31.1 109.449 31.0233 109.149 30.87C108.856 30.7167 108.629 30.4967 108.469 30.21C108.309 29.9233 108.229 29.5767 108.229 29.17V27.05C108.229 26.6367 108.309 26.2867 108.469 26C108.629 25.7133 108.856 25.4967 109.149 25.35C109.449 25.1967 109.809 25.12 110.229 25.12C110.642 25.12 110.992 25.1833 111.279 25.31C111.572 25.4367 111.796 25.63 111.949 25.89C112.102 26.1433 112.179 26.4667 112.179 26.86V27.47H110.609V26.81C110.609 26.6567 110.592 26.54 110.559 26.46C110.532 26.3733 110.489 26.3133 110.429 26.28C110.376 26.2467 110.309 26.23 110.229 26.23C110.149 26.23 110.082 26.2533 110.029 26.3C109.976 26.34 109.936 26.41 109.909 26.51C109.882 26.6033 109.869 26.7367 109.869 26.91V29.31C109.869 29.57 109.899 29.7467 109.959 29.84C110.026 29.9333 110.119 29.98 110.239 29.98C110.326 29.98 110.396 29.9633 110.449 29.93C110.502 29.89 110.542 29.83 110.569 29.75C110.596 29.6633 110.609 29.55 110.609 29.41V28.64H112.179V29.34C112.179 29.7267 112.099 30.0533 111.939 30.32C111.786 30.58 111.562 30.7767 111.269 30.91C110.982 31.0367 110.636 31.1 110.229 31.1ZM113.027 31V25.22H115.077C115.657 25.22 116.093 25.2833 116.387 25.41C116.68 25.53 116.877 25.6967 116.977 25.91C117.077 26.1233 117.127 26.3733 117.127 26.66C117.127 27.04 117.043 27.32 116.877 27.5C116.717 27.6733 116.503 27.7967 116.237 27.87C116.517 27.9367 116.73 28.0367 116.877 28.17C117.023 28.3033 117.123 28.4667 117.177 28.66C117.237 28.8533 117.267 29.0767 117.267 29.33C117.267 29.7033 117.197 30.0167 117.057 30.27C116.917 30.5167 116.68 30.7 116.347 30.82C116.013 30.94 115.56 31 114.987 31H113.027ZM114.647 30.1H114.917C115.063 30.1 115.193 30.0867 115.307 30.06C115.42 30.0333 115.51 29.9633 115.577 29.85C115.65 29.73 115.687 29.54 115.687 29.28C115.687 28.9867 115.653 28.7767 115.587 28.65C115.527 28.5233 115.44 28.4467 115.327 28.42C115.213 28.3933 115.08 28.38 114.927 28.38H114.647V30.1ZM114.647 27.5H115.057C115.25 27.5 115.383 27.44 115.457 27.32C115.53 27.1933 115.567 27.02 115.567 26.8C115.567 26.5867 115.527 26.41 115.447 26.27C115.373 26.13 115.203 26.06 114.937 26.06H114.647V27.5ZM119.975 31.1C119.562 31.1 119.202 31.03 118.895 30.89C118.595 30.75 118.362 30.54 118.195 30.26C118.035 29.98 117.955 29.63 117.955 29.21V27.01C117.955 26.59 118.035 26.24 118.195 25.96C118.362 25.68 118.595 25.47 118.895 25.33C119.202 25.19 119.562 25.12 119.975 25.12C120.389 25.12 120.745 25.19 121.045 25.33C121.352 25.47 121.589 25.68 121.755 25.96C121.922 26.24 122.005 26.59 122.005 27.01V29.21C122.005 29.63 121.922 29.98 121.755 30.26C121.589 30.54 121.352 30.75 121.045 30.89C120.745 31.03 120.389 31.1 119.975 31.1ZM119.985 30.02C120.092 30.02 120.175 29.9933 120.235 29.94C120.295 29.88 120.335 29.8 120.355 29.7C120.382 29.5933 120.395 29.4667 120.395 29.32V26.9C120.395 26.7533 120.382 26.63 120.355 26.53C120.335 26.4233 120.295 26.3433 120.235 26.29C120.175 26.23 120.092 26.2 119.985 26.2C119.879 26.2 119.795 26.23 119.735 26.29C119.675 26.3433 119.632 26.4233 119.605 26.53C119.579 26.63 119.565 26.7533 119.565 26.9V29.32C119.565 29.4667 119.579 29.5933 119.605 29.7C119.632 29.8 119.675 29.88 119.735 29.94C119.795 29.9933 119.879 30.02 119.985 30.02ZM122.909 31V25.22H124.199V28.31L125.709 25.22H126.979V31H125.659V27.94L124.189 31H122.909ZM127.588 31L128.818 27.83L127.648 25.22H129.288L129.908 26.61L130.458 25.22H131.708L130.568 28.07L131.878 31H130.218L129.518 29.41L128.938 31H127.588ZM55.5463 46.1C55.1263 46.1 54.7663 46.0233 54.4663 45.87C54.1729 45.7167 53.9463 45.4967 53.7863 45.21C53.6263 44.9233 53.5463 44.5767 53.5463 44.17V42.05C53.5463 41.6367 53.6263 41.2867 53.7863 41C53.9463 40.7133 54.1729 40.4967 54.4663 40.35C54.7663 40.1967 55.1263 40.12 55.5463 40.12C55.9596 40.12 56.3096 40.1833 56.5963 40.31C56.8896 40.4367 57.1129 40.63 57.2663 40.89C57.4196 41.1433 57.4963 41.4667 57.4963 41.86V42.47H55.9263V41.81C55.9263 41.6567 55.9096 41.54 55.8763 41.46C55.8496 41.3733 55.8063 41.3133 55.7463 41.28C55.6929 41.2467 55.6263 41.23 55.5463 41.23C55.4663 41.23 55.3996 41.2533 55.3463 41.3C55.2929 41.34 55.2529 41.41 55.2263 41.51C55.1996 41.6033 55.1863 41.7367 55.1863 41.91V44.31C55.1863 44.57 55.2163 44.7467 55.2763 44.84C55.3429 44.9333 55.4363 44.98 55.5563 44.98C55.6429 44.98 55.7129 44.9633 55.7663 44.93C55.8196 44.89 55.8596 44.83 55.8863 44.75C55.9129 44.6633 55.9263 44.55 55.9263 44.41V43.64H57.4963V44.34C57.4963 44.7267 57.4163 45.0533 57.2563 45.32C57.1029 45.58 56.8796 45.7767 56.5863 45.91C56.2996 46.0367 55.9529 46.1 55.5463 46.1ZM60.244 46.1C59.8307 46.1 59.4707 46.03 59.164 45.89C58.864 45.75 58.6307 45.54 58.464 45.26C58.304 44.98 58.224 44.63 58.224 44.21V42.01C58.224 41.59 58.304 41.24 58.464 40.96C58.6307 40.68 58.864 40.47 59.164 40.33C59.4707 40.19 59.8307 40.12 60.244 40.12C60.6573 40.12 61.014 40.19 61.314 40.33C61.6207 40.47 61.8573 40.68 62.024 40.96C62.1907 41.24 62.274 41.59 62.274 42.01V44.21C62.274 44.63 62.1907 44.98 62.024 45.26C61.8573 45.54 61.6207 45.75 61.314 45.89C61.014 46.03 60.6573 46.1 60.244 46.1ZM60.254 45.02C60.3607 45.02 60.444 44.9933 60.504 44.94C60.564 44.88 60.604 44.8 60.624 44.7C60.6507 44.5933 60.664 44.4667 60.664 44.32V41.9C60.664 41.7533 60.6507 41.63 60.624 41.53C60.604 41.4233 60.564 41.3433 60.504 41.29C60.444 41.23 60.3607 41.2 60.254 41.2C60.1473 41.2 60.064 41.23 60.004 41.29C59.944 41.3433 59.9007 41.4233 59.874 41.53C59.8473 41.63 59.834 41.7533 59.834 41.9V44.32C59.834 44.4667 59.8473 44.5933 59.874 44.7C59.9007 44.8 59.944 44.88 60.004 44.94C60.064 44.9933 60.1473 45.02 60.254 45.02ZM63.178 46V40.22H67.278V46H65.648V41.33H64.808V46H63.178ZM70.1754 46.1C69.7554 46.1 69.3954 46.0267 69.0954 45.88C68.7954 45.7267 68.5654 45.5067 68.4054 45.22C68.2454 44.9267 68.1654 44.5767 68.1654 44.17V42.05C68.1654 41.6367 68.2454 41.2867 68.4054 41C68.5654 40.7133 68.7954 40.4967 69.0954 40.35C69.4021 40.1967 69.7621 40.12 70.1754 40.12C70.6021 40.12 70.9554 40.1933 71.2354 40.34C71.5221 40.4867 71.7354 40.7033 71.8754 40.99C72.0221 41.2767 72.0954 41.63 72.0954 42.05V43.21H69.7754V44.32C69.7754 44.4667 69.7921 44.5867 69.8254 44.68C69.8587 44.7733 69.9054 44.84 69.9654 44.88C70.0254 44.92 70.0954 44.94 70.1754 44.94C70.2554 44.94 70.3254 44.9233 70.3854 44.89C70.4521 44.85 70.5021 44.79 70.5354 44.71C70.5754 44.63 70.5954 44.52 70.5954 44.38V43.77H72.0954V44.33C72.0954 44.9167 71.9254 45.36 71.5854 45.66C71.2454 45.9533 70.7754 46.1 70.1754 46.1ZM69.7754 42.45H70.5954V41.87C70.5954 41.7167 70.5754 41.5967 70.5354 41.51C70.5021 41.4233 70.4521 41.3633 70.3854 41.33C70.3254 41.2967 70.2521 41.28 70.1654 41.28C70.0854 41.28 70.0154 41.3 69.9554 41.34C69.9021 41.38 69.8587 41.45 69.8254 41.55C69.7921 41.6433 69.7754 41.78 69.7754 41.96V42.45ZM72.9827 47.9V40.22H74.6127V40.64C74.806 40.4667 75.0127 40.3367 75.2327 40.25C75.4527 40.1633 75.6627 40.12 75.8627 40.12C76.0827 40.12 76.2693 40.1633 76.4227 40.25C76.5827 40.3367 76.7127 40.46 76.8127 40.62C76.9127 40.7733 76.986 40.9533 77.0327 41.16C77.0793 41.3667 77.1027 41.5867 77.1027 41.82V44.31C77.1027 44.67 77.0527 44.9833 76.9527 45.25C76.8593 45.5167 76.7193 45.7267 76.5327 45.88C76.346 46.0267 76.116 46.1 75.8427 46.1C75.636 46.1 75.426 46.0533 75.2127 45.96C75.006 45.86 74.806 45.7267 74.6127 45.56V47.9H72.9827ZM75.0427 45.05C75.1493 45.05 75.2327 45.02 75.2927 44.96C75.3527 44.9 75.396 44.8233 75.4227 44.73C75.456 44.63 75.4727 44.52 75.4727 44.4V41.7C75.4727 41.5867 75.4593 41.4867 75.4327 41.4C75.406 41.3067 75.3627 41.2333 75.3027 41.18C75.2427 41.1267 75.166 41.1 75.0727 41.1C74.986 41.1 74.9027 41.12 74.8227 41.16C74.7493 41.1933 74.6793 41.24 74.6127 41.3V44.9C74.686 44.9467 74.756 44.9833 74.8227 45.01C74.896 45.0367 74.9693 45.05 75.0427 45.05ZM78.0315 46V40.22H79.6615V42.46H80.6315V40.22H82.2715V46H80.6315V43.58H79.6615V46H78.0315ZM83.2854 46V40.22H84.5754V43.31L86.0854 40.22H87.3554V46H86.0354V42.94L84.5654 46H83.2854ZM88.3635 46V40.22H89.9935V42.5H90.2335L91.1135 40.22H92.8635L91.7235 42.95L92.8935 46H91.1735L90.2335 43.44H89.9935V46H88.3635ZM95.3709 46.1C94.9576 46.1 94.5976 46.03 94.2909 45.89C93.9909 45.75 93.7576 45.54 93.5909 45.26C93.4309 44.98 93.3509 44.63 93.3509 44.21V42.01C93.3509 41.59 93.4309 41.24 93.5909 40.96C93.7576 40.68 93.9909 40.47 94.2909 40.33C94.5976 40.19 94.9576 40.12 95.3709 40.12C95.7843 40.12 96.1409 40.19 96.4409 40.33C96.7476 40.47 96.9843 40.68 97.1509 40.96C97.3176 41.24 97.4009 41.59 97.4009 42.01V44.21C97.4009 44.63 97.3176 44.98 97.1509 45.26C96.9843 45.54 96.7476 45.75 96.4409 45.89C96.1409 46.03 95.7843 46.1 95.3709 46.1ZM95.3809 45.02C95.4876 45.02 95.5709 44.9933 95.6309 44.94C95.6909 44.88 95.7309 44.8 95.7509 44.7C95.7776 44.5933 95.7909 44.4667 95.7909 44.32V41.9C95.7909 41.7533 95.7776 41.63 95.7509 41.53C95.7309 41.4233 95.6909 41.3433 95.6309 41.29C95.5709 41.23 95.4876 41.2 95.3809 41.2C95.2743 41.2 95.1909 41.23 95.1309 41.29C95.0709 41.3433 95.0276 41.4233 95.0009 41.53C94.9743 41.63 94.9609 41.7533 94.9609 41.9V44.32C94.9609 44.4667 94.9743 44.5933 95.0009 44.7C95.0276 44.8 95.0709 44.88 95.1309 44.94C95.1909 44.9933 95.2743 45.02 95.3809 45.02ZM98.3049 46V40.22H100.355C100.935 40.22 101.372 40.2833 101.665 40.41C101.958 40.53 102.155 40.6967 102.255 40.91C102.355 41.1233 102.405 41.3733 102.405 41.66C102.405 42.04 102.322 42.32 102.155 42.5C101.995 42.6733 101.782 42.7967 101.515 42.87C101.795 42.9367 102.008 43.0367 102.155 43.17C102.302 43.3033 102.402 43.4667 102.455 43.66C102.515 43.8533 102.545 44.0767 102.545 44.33C102.545 44.7033 102.475 45.0167 102.335 45.27C102.195 45.5167 101.958 45.7 101.625 45.82C101.292 45.94 100.838 46 100.265 46H98.3049ZM99.9249 45.1H100.195C100.342 45.1 100.472 45.0867 100.585 45.06C100.698 45.0333 100.788 44.9633 100.855 44.85C100.928 44.73 100.965 44.54 100.965 44.28C100.965 43.9867 100.932 43.7767 100.865 43.65C100.805 43.5233 100.718 43.4467 100.605 43.42C100.492 43.3933 100.358 43.38 100.205 43.38H99.9249V45.1ZM99.9249 42.5H100.335C100.528 42.5 100.662 42.44 100.735 42.32C100.808 42.1933 100.845 42.02 100.845 41.8C100.845 41.5867 100.805 41.41 100.725 41.27C100.652 41.13 100.482 41.06 100.215 41.06H99.9249V42.5Z"></path>
</svg>
