<svg xmlns="http://www.w3.org/2000/svg" fill="none" viewBox="0 0 424 27" height="27" width="424">
<path fill="#FF0000" d="M4.13086 6.37305H1.93359L1.92188 5.02539H3.70312C4.02344 5.02539 4.2793 4.99023 4.4707 4.91992C4.66211 4.8457 4.80078 4.73828 4.88672 4.59766C4.97656 4.45703 5.02148 4.28125 5.02148 4.07031C5.02148 3.82812 4.97656 3.63281 4.88672 3.48438C4.79688 3.33594 4.6543 3.22852 4.45898 3.16211C4.26758 3.0918 4.01953 3.05664 3.71484 3.05664H2.70703V10H0.650391V1.46875H3.71484C4.24219 1.46875 4.71289 1.51758 5.12695 1.61523C5.54102 1.70898 5.89258 1.85352 6.18164 2.04883C6.47461 2.24414 6.69727 2.49023 6.84961 2.78711C7.00195 3.08008 7.07812 3.42578 7.07812 3.82422C7.07812 4.17188 7.00391 4.49805 6.85547 4.80273C6.70703 5.10742 6.45898 5.35547 6.11133 5.54688C5.76758 5.73438 5.29688 5.83203 4.69922 5.83984L4.13086 6.37305ZM4.04883 10H1.43555L2.13867 8.41797H4.04883C4.33008 8.41797 4.55469 8.375 4.72266 8.28906C4.89453 8.19922 5.01758 8.08203 5.0918 7.9375C5.16992 7.78906 5.20898 7.625 5.20898 7.44531C5.20898 7.22656 5.17188 7.03711 5.09766 6.87695C5.02734 6.7168 4.91406 6.59375 4.75781 6.50781C4.60156 6.41797 4.39258 6.37305 4.13086 6.37305H2.40234L2.41406 5.02539H4.48242L4.96289 5.56445C5.5332 5.54102 5.98438 5.62109 6.31641 5.80469C6.65234 5.98828 6.89258 6.23047 7.03711 6.53125C7.18164 6.83203 7.25391 7.14648 7.25391 7.47461C7.25391 8.0332 7.13281 8.5 6.89062 8.875C6.65234 9.25 6.29492 9.53125 5.81836 9.71875C5.3418 9.90625 4.75195 10 4.04883 10ZM14.1445 4.85547V6.4375H9.76758V4.85547H14.1445ZM10.4531 1.46875V10H8.39648V1.46875H10.4531ZM15.5273 1.46875V10H13.4766V1.46875H15.5273ZM18.7734 6.85352L21.8379 1.46875H23.8945V10H21.8379V4.62109L18.7734 10H16.7168V1.46875H18.7734V6.85352ZM26.1738 1.46875H27.8496L29.7539 7.4043L31.6582 1.46875H33.334L30.4336 10H29.0742L26.1738 1.46875ZM25.1543 1.46875H26.8887L27.2109 8.00781V10H25.1543V1.46875ZM32.6191 1.46875H34.3594V10H32.2969V8.00781L32.6191 1.46875ZM39.3984 3.26172L37.3184 10H35.1094L38.2441 1.46875H39.6445L39.3984 3.26172ZM41.1211 10L39.0352 3.26172L38.7656 1.46875H40.1836L43.3359 10H41.1211ZM41.0391 6.81836V8.40625H36.6621V6.81836H41.0391ZM49.7109 4.85547V6.4375H45.334V4.85547H49.7109ZM46.0195 1.46875V10H43.9629V1.46875H46.0195ZM51.0938 1.46875V10H49.043V1.46875H51.0938ZM54.3398 6.85352L57.4043 1.46875H59.4609V10H57.4043V4.62109L54.3398 10H52.2832V1.46875H54.3398V6.85352ZM66.5918 8.41797V10H62.0449V8.41797H66.5918ZM62.7773 1.46875V10H60.7207V1.46875H62.7773ZM66.0059 4.85547V6.38477H62.0449V4.85547H66.0059ZM66.6094 1.46875V3.05664H62.0449V1.46875H66.6094ZM69.5566 1.46875L69.3047 7.29883H67.6992L67.4473 1.46875H69.5566ZM67.3945 9.11523C67.3945 8.83398 67.4961 8.59961 67.6992 8.41211C67.9023 8.2207 68.166 8.125 68.4902 8.125C68.8145 8.125 69.0762 8.2207 69.2754 8.41211C69.4785 8.59961 69.5801 8.83398 69.5801 9.11523C69.5801 9.39648 69.4785 9.63281 69.2754 9.82422C69.0762 10.0117 68.8145 10.1055 68.4902 10.1055C68.166 10.1055 67.9023 10.0117 67.6992 9.82422C67.4961 9.63281 67.3945 9.39648 67.3945 9.11523Z"></path>
<path fill="#0D0E12" d="M77.2148 6.6543H74.9355V5.73438H77.2148C77.6562 5.73438 78.0137 5.66406 78.2871 5.52344C78.5605 5.38281 78.7598 5.1875 78.8848 4.9375C79.0137 4.6875 79.0781 4.40234 79.0781 4.08203C79.0781 3.78906 79.0137 3.51367 78.8848 3.25586C78.7598 2.99805 78.5605 2.79102 78.2871 2.63477C78.0137 2.47461 77.6562 2.39453 77.2148 2.39453H75.1992V10H74.0684V1.46875H77.2148C77.8594 1.46875 78.4043 1.58008 78.8496 1.80273C79.2949 2.02539 79.6328 2.33398 79.8633 2.72852C80.0938 3.11914 80.209 3.56641 80.209 4.07031C80.209 4.61719 80.0938 5.08398 79.8633 5.4707C79.6328 5.85742 79.2949 6.15234 78.8496 6.35547C78.4043 6.55469 77.8594 6.6543 77.2148 6.6543ZM84.0234 10.1172C83.582 10.1172 83.1816 10.043 82.8223 9.89453C82.4668 9.74219 82.1602 9.5293 81.9023 9.25586C81.6484 8.98242 81.4531 8.6582 81.3164 8.2832C81.1797 7.9082 81.1113 7.49805 81.1113 7.05273V6.80664C81.1113 6.29102 81.1875 5.83203 81.3398 5.42969C81.4922 5.02344 81.6992 4.67969 81.9609 4.39844C82.2227 4.11719 82.5195 3.9043 82.8516 3.75977C83.1836 3.61523 83.5273 3.54297 83.8828 3.54297C84.3359 3.54297 84.7266 3.62109 85.0547 3.77734C85.3867 3.93359 85.6582 4.15234 85.8691 4.43359C86.0801 4.71094 86.2363 5.03906 86.3379 5.41797C86.4395 5.79297 86.4902 6.20312 86.4902 6.64844V7.13477H81.7559V6.25H85.4062V6.16797C85.3906 5.88672 85.332 5.61328 85.2305 5.34766C85.1328 5.08203 84.9766 4.86328 84.7617 4.69141C84.5469 4.51953 84.2539 4.43359 83.8828 4.43359C83.6367 4.43359 83.4102 4.48633 83.2031 4.5918C82.9961 4.69336 82.8184 4.8457 82.6699 5.04883C82.5215 5.25195 82.4062 5.5 82.3242 5.79297C82.2422 6.08594 82.2012 6.42383 82.2012 6.80664V7.05273C82.2012 7.35352 82.2422 7.63672 82.3242 7.90234C82.4102 8.16406 82.5332 8.39453 82.6934 8.59375C82.8574 8.79297 83.0547 8.94922 83.2852 9.0625C83.5195 9.17578 83.7852 9.23242 84.082 9.23242C84.4648 9.23242 84.7891 9.1543 85.0547 8.99805C85.3203 8.8418 85.5527 8.63281 85.752 8.37109L86.4082 8.89258C86.2715 9.09961 86.0977 9.29688 85.8867 9.48438C85.6758 9.67188 85.416 9.82422 85.1074 9.94141C84.8027 10.0586 84.4414 10.1172 84.0234 10.1172ZM90.123 6.9707H88.957V6.30273H90.0352C90.3359 6.30273 90.5742 6.26562 90.75 6.19141C90.9258 6.11328 91.0508 6.00586 91.125 5.86914C91.1992 5.73242 91.2363 5.57227 91.2363 5.38867C91.2363 5.22461 91.1934 5.07031 91.1074 4.92578C91.0254 4.77734 90.8926 4.6582 90.709 4.56836C90.5254 4.47461 90.2793 4.42773 89.9707 4.42773C89.7207 4.42773 89.4941 4.47266 89.291 4.5625C89.0879 4.64844 88.9258 4.76758 88.8047 4.91992C88.6875 5.06836 88.6289 5.23633 88.6289 5.42383H87.5449C87.5449 5.03711 87.6543 4.70508 87.873 4.42773C88.0957 4.14648 88.3906 3.92969 88.7578 3.77734C89.1289 3.625 89.5332 3.54883 89.9707 3.54883C90.3379 3.54883 90.666 3.58984 90.9551 3.67188C91.248 3.75 91.4961 3.86719 91.6992 4.02344C91.9023 4.17578 92.0566 4.36719 92.1621 4.59766C92.2715 4.82422 92.3262 5.08789 92.3262 5.38867C92.3262 5.60352 92.2754 5.80664 92.1738 5.99805C92.0723 6.18945 91.9258 6.35938 91.7344 6.50781C91.543 6.65234 91.3105 6.76562 91.0371 6.84766C90.7676 6.92969 90.4629 6.9707 90.123 6.9707ZM88.957 6.56055H90.123C90.502 6.56055 90.8359 6.59766 91.125 6.67188C91.4141 6.74219 91.6562 6.84766 91.8516 6.98828C92.0469 7.12891 92.1934 7.30273 92.291 7.50977C92.3926 7.71289 92.4434 7.94727 92.4434 8.21289C92.4434 8.50977 92.3828 8.77734 92.2617 9.01562C92.1445 9.25 91.9766 9.44922 91.7578 9.61328C91.5391 9.77734 91.2773 9.90234 90.9727 9.98828C90.6719 10.0742 90.3379 10.1172 89.9707 10.1172C89.5605 10.1172 89.1621 10.0469 88.7754 9.90625C88.3887 9.76562 88.0703 9.54883 87.8203 9.25586C87.5703 8.95898 87.4453 8.58203 87.4453 8.125H88.5293C88.5293 8.31641 88.5898 8.49805 88.7109 8.66992C88.832 8.8418 89 8.98047 89.2148 9.08594C89.4336 9.19141 89.6855 9.24414 89.9707 9.24414C90.2754 9.24414 90.5293 9.19727 90.7324 9.10352C90.9355 9.00977 91.0879 8.88477 91.1895 8.72852C91.2949 8.57227 91.3477 8.40234 91.3477 8.21875C91.3477 7.98047 91.3008 7.78906 91.207 7.64453C91.1133 7.5 90.9688 7.39453 90.7734 7.32812C90.582 7.25781 90.3359 7.22266 90.0352 7.22266H88.957V6.56055ZM95.6309 9.34375L97.3945 3.66016H98.5547L96.0117 10.9785C95.9531 11.1348 95.875 11.3027 95.7773 11.4824C95.6836 11.666 95.5625 11.8398 95.4141 12.0039C95.2656 12.168 95.0859 12.3008 94.875 12.4023C94.668 12.5078 94.4199 12.5605 94.1309 12.5605C94.0449 12.5605 93.9355 12.5488 93.8027 12.5254C93.6699 12.502 93.5762 12.4824 93.5215 12.4668L93.5156 11.5879C93.5469 11.5918 93.5957 11.5957 93.6621 11.5996C93.7324 11.6074 93.7812 11.6113 93.8086 11.6113C94.0547 11.6113 94.2637 11.5781 94.4355 11.5117C94.6074 11.4492 94.752 11.3418 94.8691 11.1895C94.9902 11.041 95.0938 10.8359 95.1797 10.5742L95.6309 9.34375ZM94.3359 3.66016L95.9824 8.58203L96.2637 9.72461L95.4844 10.123L93.1523 3.66016H94.3359ZM103.523 3.66016V4.55664H100.459V3.66016H103.523ZM104.479 3.66016V10H103.395V3.66016H104.479ZM100.195 3.66016H101.285L101.121 6.71875C101.094 7.19141 101.049 7.60938 100.986 7.97266C100.928 8.33203 100.846 8.64062 100.74 8.89844C100.639 9.15625 100.51 9.36719 100.354 9.53125C100.201 9.69141 100.018 9.81055 99.8027 9.88867C99.5879 9.96289 99.3398 10 99.0586 10H98.7188V9.04492L98.9531 9.02734C99.1211 9.01562 99.2637 8.97656 99.3809 8.91016C99.502 8.84375 99.6035 8.74609 99.6855 8.61719C99.7676 8.48438 99.834 8.31445 99.8848 8.10742C99.9395 7.90039 99.9805 7.6543 100.008 7.36914C100.039 7.08398 100.062 6.75195 100.078 6.37305L100.195 3.66016ZM107.115 5.83984H109.02C109.531 5.83984 109.963 5.92969 110.314 6.10938C110.666 6.28516 110.932 6.5293 111.111 6.8418C111.295 7.15039 111.387 7.50195 111.387 7.89648C111.387 8.18945 111.336 8.46484 111.234 8.72266C111.133 8.97656 110.98 9.19922 110.777 9.39062C110.578 9.58203 110.33 9.73242 110.033 9.8418C109.74 9.94727 109.402 10 109.02 10H106.324V3.66016H107.408V9.10938H109.02C109.332 9.10938 109.582 9.05273 109.77 8.93945C109.957 8.82617 110.092 8.67969 110.174 8.5C110.256 8.32031 110.297 8.13281 110.297 7.9375C110.297 7.74609 110.256 7.55859 110.174 7.375C110.092 7.19141 109.957 7.03906 109.77 6.91797C109.582 6.79297 109.332 6.73047 109.02 6.73047H107.115V5.83984ZM114.914 3.66016V10H113.824V3.66016H114.914ZM117.041 3.66016V4.53906H111.738V3.66016H117.041ZM121.752 8.91602V5.65234C121.752 5.40234 121.701 5.18555 121.6 5.00195C121.502 4.81445 121.354 4.66992 121.154 4.56836C120.955 4.4668 120.709 4.41602 120.416 4.41602C120.143 4.41602 119.902 4.46289 119.695 4.55664C119.492 4.65039 119.332 4.77344 119.215 4.92578C119.102 5.07812 119.045 5.24219 119.045 5.41797H117.961C117.961 5.19141 118.02 4.9668 118.137 4.74414C118.254 4.52148 118.422 4.32031 118.641 4.14062C118.863 3.95703 119.129 3.8125 119.438 3.70703C119.75 3.59766 120.098 3.54297 120.48 3.54297C120.941 3.54297 121.348 3.62109 121.699 3.77734C122.055 3.93359 122.332 4.16992 122.531 4.48633C122.734 4.79883 122.836 5.19141 122.836 5.66406V8.61719C122.836 8.82812 122.854 9.05273 122.889 9.29102C122.928 9.5293 122.984 9.73438 123.059 9.90625V10H121.928C121.873 9.875 121.83 9.70898 121.799 9.50195C121.768 9.29102 121.752 9.0957 121.752 8.91602ZM121.939 6.15625L121.951 6.91797H120.855C120.547 6.91797 120.271 6.94336 120.029 6.99414C119.787 7.04102 119.584 7.11328 119.42 7.21094C119.256 7.30859 119.131 7.43164 119.045 7.58008C118.959 7.72461 118.916 7.89453 118.916 8.08984C118.916 8.28906 118.961 8.4707 119.051 8.63477C119.141 8.79883 119.275 8.92969 119.455 9.02734C119.639 9.12109 119.863 9.16797 120.129 9.16797C120.461 9.16797 120.754 9.09766 121.008 8.95703C121.262 8.81641 121.463 8.64453 121.611 8.44141C121.764 8.23828 121.846 8.04102 121.857 7.84961L122.32 8.37109C122.293 8.53516 122.219 8.7168 122.098 8.91602C121.977 9.11523 121.814 9.30664 121.611 9.49023C121.412 9.66992 121.174 9.82031 120.896 9.94141C120.623 10.0586 120.314 10.1172 119.971 10.1172C119.541 10.1172 119.164 10.0332 118.84 9.86523C118.52 9.69727 118.27 9.47266 118.09 9.19141C117.914 8.90625 117.826 8.58789 117.826 8.23633C117.826 7.89648 117.893 7.59766 118.025 7.33984C118.158 7.07812 118.35 6.86133 118.6 6.68945C118.85 6.51367 119.15 6.38086 119.502 6.29102C119.854 6.20117 120.246 6.15625 120.68 6.15625H121.939ZM127.031 3.66016V10H125.941V3.66016H127.031ZM129.158 3.66016V4.53906H123.855V3.66016H129.158ZM131.115 5.83984H133.02C133.531 5.83984 133.963 5.92969 134.314 6.10938C134.666 6.28516 134.932 6.5293 135.111 6.8418C135.295 7.15039 135.387 7.50195 135.387 7.89648C135.387 8.18945 135.336 8.46484 135.234 8.72266C135.133 8.97656 134.98 9.19922 134.777 9.39062C134.578 9.58203 134.33 9.73242 134.033 9.8418C133.74 9.94727 133.402 10 133.02 10H130.324V3.66016H131.408V9.10938H133.02C133.332 9.10938 133.582 9.05273 133.77 8.93945C133.957 8.82617 134.092 8.67969 134.174 8.5C134.256 8.32031 134.297 8.13281 134.297 7.9375C134.297 7.74609 134.256 7.55859 134.174 7.375C134.092 7.19141 133.957 7.03906 133.77 6.91797C133.582 6.79297 133.332 6.73047 133.02 6.73047H131.115V5.83984ZM137.643 3.66016V10H136.559V3.66016H137.643ZM143.689 8.2832L146.613 3.66016H147.703V10H146.613V5.37695L143.689 10H142.611V3.66016H143.689V8.2832ZM153.539 3.66016V4.55664H150.609V10H149.525V3.66016H153.539ZM155.566 4.87891V12.4375H154.477V3.66016H155.473L155.566 4.87891ZM159.838 6.77734V6.90039C159.838 7.36133 159.783 7.78906 159.674 8.18359C159.564 8.57422 159.404 8.91406 159.193 9.20312C158.986 9.49219 158.73 9.7168 158.426 9.87695C158.121 10.0371 157.771 10.1172 157.377 10.1172C156.975 10.1172 156.619 10.0508 156.311 9.91797C156.002 9.78516 155.74 9.5918 155.525 9.33789C155.311 9.08398 155.139 8.7793 155.01 8.42383C154.885 8.06836 154.799 7.66797 154.752 7.22266V6.56641C154.799 6.09766 154.887 5.67773 155.016 5.30664C155.145 4.93555 155.314 4.61914 155.525 4.35742C155.74 4.0918 156 3.89062 156.305 3.75391C156.609 3.61328 156.961 3.54297 157.359 3.54297C157.758 3.54297 158.111 3.62109 158.42 3.77734C158.729 3.92969 158.988 4.14844 159.199 4.43359C159.41 4.71875 159.568 5.06055 159.674 5.45898C159.783 5.85352 159.838 6.29297 159.838 6.77734ZM158.748 6.90039V6.77734C158.748 6.46094 158.715 6.16406 158.648 5.88672C158.582 5.60547 158.479 5.35938 158.338 5.14844C158.201 4.93359 158.025 4.76562 157.811 4.64453C157.596 4.51953 157.34 4.45703 157.043 4.45703C156.77 4.45703 156.531 4.50391 156.328 4.59766C156.129 4.69141 155.959 4.81836 155.818 4.97852C155.678 5.13477 155.562 5.31445 155.473 5.51758C155.387 5.7168 155.322 5.92383 155.279 6.13867V7.65625C155.357 7.92969 155.467 8.1875 155.607 8.42969C155.748 8.66797 155.936 8.86133 156.17 9.00977C156.404 9.1543 156.699 9.22656 157.055 9.22656C157.348 9.22656 157.6 9.16602 157.811 9.04492C158.025 8.91992 158.201 8.75 158.338 8.53516C158.479 8.32031 158.582 8.07422 158.648 7.79688C158.715 7.51562 158.748 7.2168 158.748 6.90039ZM166.734 9.22656C166.992 9.22656 167.23 9.17383 167.449 9.06836C167.668 8.96289 167.848 8.81836 167.988 8.63477C168.129 8.44727 168.209 8.23438 168.229 7.99609H169.26C169.24 8.37109 169.113 8.7207 168.879 9.04492C168.648 9.36523 168.346 9.625 167.971 9.82422C167.596 10.0195 167.184 10.1172 166.734 10.1172C166.258 10.1172 165.842 10.0332 165.486 9.86523C165.135 9.69727 164.842 9.4668 164.607 9.17383C164.377 8.88086 164.203 8.54492 164.086 8.16602C163.973 7.7832 163.916 7.37891 163.916 6.95312V6.70703C163.916 6.28125 163.973 5.87891 164.086 5.5C164.203 5.11719 164.377 4.7793 164.607 4.48633C164.842 4.19336 165.135 3.96289 165.486 3.79492C165.842 3.62695 166.258 3.54297 166.734 3.54297C167.23 3.54297 167.664 3.64453 168.035 3.84766C168.406 4.04688 168.697 4.32031 168.908 4.66797C169.123 5.01172 169.24 5.40234 169.26 5.83984H168.229C168.209 5.57812 168.135 5.3418 168.006 5.13086C167.881 4.91992 167.709 4.75195 167.49 4.62695C167.275 4.49805 167.023 4.43359 166.734 4.43359C166.402 4.43359 166.123 4.5 165.896 4.63281C165.674 4.76172 165.496 4.9375 165.363 5.16016C165.234 5.37891 165.141 5.62305 165.082 5.89258C165.027 6.1582 165 6.42969 165 6.70703V6.95312C165 7.23047 165.027 7.50391 165.082 7.77344C165.137 8.04297 165.229 8.28711 165.357 8.50586C165.49 8.72461 165.668 8.90039 165.891 9.0332C166.117 9.16211 166.398 9.22656 166.734 9.22656ZM177.521 0.900391H178.412C178.412 1.2832 178.354 1.58789 178.236 1.81445C178.119 2.03711 177.959 2.20898 177.756 2.33008C177.557 2.45117 177.33 2.54297 177.076 2.60547C176.826 2.66797 176.566 2.72852 176.297 2.78711C175.961 2.85742 175.648 2.96875 175.359 3.12109C175.074 3.26953 174.828 3.48047 174.621 3.75391C174.418 4.02734 174.268 4.38281 174.17 4.82031C174.076 5.25781 174.051 5.79883 174.094 6.44336V6.98242H173.203V6.44336C173.203 5.7207 173.271 5.08984 173.408 4.55078C173.549 4.01172 173.746 3.55664 174 3.18555C174.254 2.81445 174.555 2.51953 174.902 2.30078C175.254 2.08203 175.641 1.93164 176.062 1.84961C176.367 1.79102 176.629 1.72852 176.848 1.66211C177.066 1.5918 177.232 1.49805 177.346 1.38086C177.463 1.26367 177.521 1.10352 177.521 0.900391ZM176.238 4.02344C176.652 4.02344 177.021 4.0957 177.346 4.24023C177.67 4.38477 177.945 4.58594 178.172 4.84375C178.398 5.10156 178.57 5.40625 178.688 5.75781C178.809 6.10547 178.869 6.48438 178.869 6.89453V7.02344C178.869 7.46484 178.805 7.875 178.676 8.25391C178.551 8.62891 178.365 8.95703 178.119 9.23828C177.877 9.51562 177.58 9.73242 177.229 9.88867C176.881 10.0449 176.484 10.123 176.039 10.123C175.594 10.123 175.195 10.0449 174.844 9.88867C174.496 9.73242 174.199 9.51562 173.953 9.23828C173.707 8.95703 173.52 8.62891 173.391 8.25391C173.266 7.875 173.203 7.46484 173.203 7.02344V6.89453C173.203 6.79688 173.221 6.70117 173.256 6.60742C173.291 6.51367 173.334 6.41797 173.385 6.32031C173.439 6.22266 173.488 6.11914 173.531 6.00977C173.676 5.6582 173.873 5.33203 174.123 5.03125C174.377 4.73047 174.68 4.48828 175.031 4.30469C175.387 4.11719 175.789 4.02344 176.238 4.02344ZM176.027 4.9082C175.629 4.9082 175.301 5 175.043 5.18359C174.789 5.36719 174.6 5.61133 174.475 5.91602C174.35 6.2168 174.287 6.54297 174.287 6.89453V7.02344C174.287 7.32031 174.322 7.60156 174.393 7.86719C174.463 8.13281 174.568 8.36914 174.709 8.57617C174.854 8.7793 175.035 8.93945 175.254 9.05664C175.477 9.17383 175.738 9.23242 176.039 9.23242C176.34 9.23242 176.6 9.17383 176.818 9.05664C177.037 8.93945 177.217 8.7793 177.357 8.57617C177.498 8.36914 177.604 8.13281 177.674 7.86719C177.744 7.60156 177.779 7.32031 177.779 7.02344V6.89453C177.779 6.62891 177.744 6.37695 177.674 6.13867C177.604 5.90039 177.496 5.68945 177.352 5.50586C177.211 5.32227 177.029 5.17773 176.807 5.07227C176.588 4.96289 176.328 4.9082 176.027 4.9082ZM179.812 6.90039V6.76562C179.812 6.30859 179.879 5.88477 180.012 5.49414C180.145 5.09961 180.336 4.75781 180.586 4.46875C180.836 4.17578 181.139 3.94922 181.494 3.78906C181.85 3.625 182.248 3.54297 182.689 3.54297C183.135 3.54297 183.535 3.625 183.891 3.78906C184.25 3.94922 184.555 4.17578 184.805 4.46875C185.059 4.75781 185.252 5.09961 185.385 5.49414C185.518 5.88477 185.584 6.30859 185.584 6.76562V6.90039C185.584 7.35742 185.518 7.78125 185.385 8.17188C185.252 8.5625 185.059 8.9043 184.805 9.19727C184.555 9.48633 184.252 9.71289 183.896 9.87695C183.545 10.0371 183.146 10.1172 182.701 10.1172C182.256 10.1172 181.855 10.0371 181.5 9.87695C181.145 9.71289 180.84 9.48633 180.586 9.19727C180.336 8.9043 180.145 8.5625 180.012 8.17188C179.879 7.78125 179.812 7.35742 179.812 6.90039ZM180.896 6.76562V6.90039C180.896 7.2168 180.934 7.51562 181.008 7.79688C181.082 8.07422 181.193 8.32031 181.342 8.53516C181.494 8.75 181.684 8.91992 181.91 9.04492C182.137 9.16602 182.4 9.22656 182.701 9.22656C182.998 9.22656 183.258 9.16602 183.48 9.04492C183.707 8.91992 183.895 8.75 184.043 8.53516C184.191 8.32031 184.303 8.07422 184.377 7.79688C184.455 7.51562 184.494 7.2168 184.494 6.90039V6.76562C184.494 6.45312 184.455 6.1582 184.377 5.88086C184.303 5.59961 184.189 5.35156 184.037 5.13672C183.889 4.91797 183.701 4.74609 183.475 4.62109C183.252 4.49609 182.99 4.43359 182.689 4.43359C182.393 4.43359 182.131 4.49609 181.904 4.62109C181.682 4.74609 181.494 4.91797 181.342 5.13672C181.193 5.35156 181.082 5.59961 181.008 5.88086C180.934 6.1582 180.896 6.45312 180.896 6.76562ZM189.398 3.66016V10H188.309V3.66016H189.398ZM191.525 3.66016V4.53906H186.223V3.66016H191.525ZM196.236 8.91602V5.65234C196.236 5.40234 196.186 5.18555 196.084 5.00195C195.986 4.81445 195.838 4.66992 195.639 4.56836C195.439 4.4668 195.193 4.41602 194.9 4.41602C194.627 4.41602 194.387 4.46289 194.18 4.55664C193.977 4.65039 193.816 4.77344 193.699 4.92578C193.586 5.07812 193.529 5.24219 193.529 5.41797H192.445C192.445 5.19141 192.504 4.9668 192.621 4.74414C192.738 4.52148 192.906 4.32031 193.125 4.14062C193.348 3.95703 193.613 3.8125 193.922 3.70703C194.234 3.59766 194.582 3.54297 194.965 3.54297C195.426 3.54297 195.832 3.62109 196.184 3.77734C196.539 3.93359 196.816 4.16992 197.016 4.48633C197.219 4.79883 197.32 5.19141 197.32 5.66406V8.61719C197.32 8.82812 197.338 9.05273 197.373 9.29102C197.412 9.5293 197.469 9.73438 197.543 9.90625V10H196.412C196.357 9.875 196.314 9.70898 196.283 9.50195C196.252 9.29102 196.236 9.0957 196.236 8.91602ZM196.424 6.15625L196.436 6.91797H195.34C195.031 6.91797 194.756 6.94336 194.514 6.99414C194.271 7.04102 194.068 7.11328 193.904 7.21094C193.74 7.30859 193.615 7.43164 193.529 7.58008C193.443 7.72461 193.4 7.89453 193.4 8.08984C193.4 8.28906 193.445 8.4707 193.535 8.63477C193.625 8.79883 193.76 8.92969 193.939 9.02734C194.123 9.12109 194.348 9.16797 194.613 9.16797C194.945 9.16797 195.238 9.09766 195.492 8.95703C195.746 8.81641 195.947 8.64453 196.096 8.44141C196.248 8.23828 196.33 8.04102 196.342 7.84961L196.805 8.37109C196.777 8.53516 196.703 8.7168 196.582 8.91602C196.461 9.11523 196.299 9.30664 196.096 9.49023C195.896 9.66992 195.658 9.82031 195.381 9.94141C195.107 10.0586 194.799 10.1172 194.455 10.1172C194.025 10.1172 193.648 10.0332 193.324 9.86523C193.004 9.69727 192.754 9.47266 192.574 9.19141C192.398 8.90625 192.311 8.58789 192.311 8.23633C192.311 7.89648 192.377 7.59766 192.51 7.33984C192.643 7.07812 192.834 6.86133 193.084 6.68945C193.334 6.51367 193.635 6.38086 193.986 6.29102C194.338 6.20117 194.73 6.15625 195.164 6.15625H196.424ZM202.67 8.55859L204.826 3.66016H205.869L203.045 10H202.295L199.482 3.66016H200.525L202.67 8.55859ZM200.209 3.66016V10H199.125V3.66016H200.209ZM205.096 10V3.66016H206.186V10H205.096ZM209.104 8.2832L212.027 3.66016H213.117V10H212.027V5.37695L209.104 10H208.025V3.66016H209.104V8.2832ZM220.811 7.21094H218.73L218.719 6.34375H220.418C220.754 6.34375 221.033 6.31055 221.256 6.24414C221.482 6.17773 221.652 6.07812 221.766 5.94531C221.879 5.8125 221.936 5.64844 221.936 5.45312C221.936 5.30078 221.902 5.16797 221.836 5.05469C221.773 4.9375 221.678 4.8418 221.549 4.76758C221.42 4.68945 221.26 4.63281 221.068 4.59766C220.881 4.55859 220.66 4.53906 220.406 4.53906H219.018V10H217.934V3.66016H220.406C220.809 3.66016 221.17 3.69531 221.49 3.76562C221.814 3.83594 222.09 3.94336 222.316 4.08789C222.547 4.22852 222.723 4.4082 222.844 4.62695C222.965 4.8457 223.025 5.10352 223.025 5.40039C223.025 5.5918 222.986 5.77344 222.908 5.94531C222.83 6.11719 222.715 6.26953 222.562 6.40234C222.41 6.53516 222.223 6.64453 222 6.73047C221.777 6.8125 221.521 6.86523 221.232 6.88867L220.811 7.21094ZM220.811 10H218.338L218.877 9.12109H220.811C221.111 9.12109 221.361 9.08398 221.561 9.00977C221.76 8.93164 221.908 8.82227 222.006 8.68164C222.107 8.53711 222.158 8.36523 222.158 8.16602C222.158 7.9668 222.107 7.79688 222.006 7.65625C221.908 7.51172 221.76 7.40234 221.561 7.32812C221.361 7.25 221.111 7.21094 220.811 7.21094H219.164L219.176 6.34375H221.232L221.625 6.67188C221.973 6.69922 222.268 6.78516 222.51 6.92969C222.752 7.07422 222.936 7.25781 223.061 7.48047C223.186 7.69922 223.248 7.9375 223.248 8.19531C223.248 8.49219 223.191 8.75391 223.078 8.98047C222.969 9.20703 222.809 9.39648 222.598 9.54883C222.387 9.69727 222.131 9.81055 221.83 9.88867C221.529 9.96289 221.189 10 220.811 10ZM230.215 9.22656C230.473 9.22656 230.711 9.17383 230.93 9.06836C231.148 8.96289 231.328 8.81836 231.469 8.63477C231.609 8.44727 231.689 8.23438 231.709 7.99609H232.74C232.721 8.37109 232.594 8.7207 232.359 9.04492C232.129 9.36523 231.826 9.625 231.451 9.82422C231.076 10.0195 230.664 10.1172 230.215 10.1172C229.738 10.1172 229.322 10.0332 228.967 9.86523C228.615 9.69727 228.322 9.4668 228.088 9.17383C227.857 8.88086 227.684 8.54492 227.566 8.16602C227.453 7.7832 227.396 7.37891 227.396 6.95312V6.70703C227.396 6.28125 227.453 5.87891 227.566 5.5C227.684 5.11719 227.857 4.7793 228.088 4.48633C228.322 4.19336 228.615 3.96289 228.967 3.79492C229.322 3.62695 229.738 3.54297 230.215 3.54297C230.711 3.54297 231.145 3.64453 231.516 3.84766C231.887 4.04688 232.178 4.32031 232.389 4.66797C232.604 5.01172 232.721 5.40234 232.74 5.83984H231.709C231.689 5.57812 231.615 5.3418 231.486 5.13086C231.361 4.91992 231.189 4.75195 230.971 4.62695C230.756 4.49805 230.504 4.43359 230.215 4.43359C229.883 4.43359 229.604 4.5 229.377 4.63281C229.154 4.76172 228.977 4.9375 228.844 5.16016C228.715 5.37891 228.621 5.62305 228.562 5.89258C228.508 6.1582 228.48 6.42969 228.48 6.70703V6.95312C228.48 7.23047 228.508 7.50391 228.562 7.77344C228.617 8.04297 228.709 8.28711 228.838 8.50586C228.971 8.72461 229.148 8.90039 229.371 9.0332C229.598 9.16211 229.879 9.22656 230.215 9.22656ZM236.543 3.66016V10H235.453V3.66016H236.543ZM238.67 3.66016V4.53906H233.367V3.66016H238.67ZM243.381 8.91602V5.65234C243.381 5.40234 243.33 5.18555 243.229 5.00195C243.131 4.81445 242.982 4.66992 242.783 4.56836C242.584 4.4668 242.338 4.41602 242.045 4.41602C241.771 4.41602 241.531 4.46289 241.324 4.55664C241.121 4.65039 240.961 4.77344 240.844 4.92578C240.73 5.07812 240.674 5.24219 240.674 5.41797H239.59C239.59 5.19141 239.648 4.9668 239.766 4.74414C239.883 4.52148 240.051 4.32031 240.27 4.14062C240.492 3.95703 240.758 3.8125 241.066 3.70703C241.379 3.59766 241.727 3.54297 242.109 3.54297C242.57 3.54297 242.977 3.62109 243.328 3.77734C243.684 3.93359 243.961 4.16992 244.16 4.48633C244.363 4.79883 244.465 5.19141 244.465 5.66406V8.61719C244.465 8.82812 244.482 9.05273 244.518 9.29102C244.557 9.5293 244.613 9.73438 244.688 9.90625V10H243.557C243.502 9.875 243.459 9.70898 243.428 9.50195C243.396 9.29102 243.381 9.0957 243.381 8.91602ZM243.568 6.15625L243.58 6.91797H242.484C242.176 6.91797 241.9 6.94336 241.658 6.99414C241.416 7.04102 241.213 7.11328 241.049 7.21094C240.885 7.30859 240.76 7.43164 240.674 7.58008C240.588 7.72461 240.545 7.89453 240.545 8.08984C240.545 8.28906 240.59 8.4707 240.68 8.63477C240.77 8.79883 240.904 8.92969 241.084 9.02734C241.268 9.12109 241.492 9.16797 241.758 9.16797C242.09 9.16797 242.383 9.09766 242.637 8.95703C242.891 8.81641 243.092 8.64453 243.24 8.44141C243.393 8.23828 243.475 8.04102 243.486 7.84961L243.949 8.37109C243.922 8.53516 243.848 8.7168 243.727 8.91602C243.605 9.11523 243.443 9.30664 243.24 9.49023C243.041 9.66992 242.803 9.82031 242.525 9.94141C242.252 10.0586 241.943 10.1172 241.6 10.1172C241.17 10.1172 240.793 10.0332 240.469 9.86523C240.148 9.69727 239.898 9.47266 239.719 9.19141C239.543 8.90625 239.455 8.58789 239.455 8.23633C239.455 7.89648 239.521 7.59766 239.654 7.33984C239.787 7.07812 239.979 6.86133 240.229 6.68945C240.479 6.51367 240.779 6.38086 241.131 6.29102C241.482 6.20117 241.875 6.15625 242.309 6.15625H243.568ZM248.66 3.66016V10H247.57V3.66016H248.66ZM250.787 3.66016V4.53906H245.484V3.66016H250.787ZM253.025 8.2832L255.949 3.66016H257.039V10H255.949V5.37695L253.025 10H251.947V3.66016H253.025V8.2832ZM261.316 9.22656C261.574 9.22656 261.812 9.17383 262.031 9.06836C262.25 8.96289 262.43 8.81836 262.57 8.63477C262.711 8.44727 262.791 8.23438 262.811 7.99609H263.842C263.822 8.37109 263.695 8.7207 263.461 9.04492C263.23 9.36523 262.928 9.625 262.553 9.82422C262.178 10.0195 261.766 10.1172 261.316 10.1172C260.84 10.1172 260.424 10.0332 260.068 9.86523C259.717 9.69727 259.424 9.4668 259.189 9.17383C258.959 8.88086 258.785 8.54492 258.668 8.16602C258.555 7.7832 258.498 7.37891 258.498 6.95312V6.70703C258.498 6.28125 258.555 5.87891 258.668 5.5C258.785 5.11719 258.959 4.7793 259.189 4.48633C259.424 4.19336 259.717 3.96289 260.068 3.79492C260.424 3.62695 260.84 3.54297 261.316 3.54297C261.812 3.54297 262.246 3.64453 262.617 3.84766C262.988 4.04688 263.279 4.32031 263.49 4.66797C263.705 5.01172 263.822 5.40234 263.842 5.83984H262.811C262.791 5.57812 262.717 5.3418 262.588 5.13086C262.463 4.91992 262.291 4.75195 262.072 4.62695C261.857 4.49805 261.605 4.43359 261.316 4.43359C260.984 4.43359 260.705 4.5 260.479 4.63281C260.256 4.76172 260.078 4.9375 259.945 5.16016C259.816 5.37891 259.723 5.62305 259.664 5.89258C259.609 6.1582 259.582 6.42969 259.582 6.70703V6.95312C259.582 7.23047 259.609 7.50391 259.664 7.77344C259.719 8.04297 259.811 8.28711 259.939 8.50586C260.072 8.72461 260.25 8.90039 260.473 9.0332C260.699 9.16211 260.98 9.22656 261.316 9.22656ZM267.645 3.66016V10H266.555V3.66016H267.645ZM269.771 3.66016V4.53906H264.469V3.66016H269.771ZM272.01 8.2832L274.934 3.66016H276.023V10H274.934V5.37695L272.01 10H270.932V3.66016H272.01V8.2832ZM278.941 3.66016V10H277.857V3.66016H278.941ZM283.102 3.66016L280.096 7.29297H278.578L278.414 6.34375H279.656L281.783 3.66016H283.102ZM281.936 10L279.604 7.12891L280.301 6.34375L283.312 10H281.936ZM286.037 9.34375L287.801 3.66016H288.961L286.418 10.9785C286.359 11.1348 286.281 11.3027 286.184 11.4824C286.09 11.666 285.969 11.8398 285.82 12.0039C285.672 12.168 285.492 12.3008 285.281 12.4023C285.074 12.5078 284.826 12.5605 284.537 12.5605C284.451 12.5605 284.342 12.5488 284.209 12.5254C284.076 12.502 283.982 12.4824 283.928 12.4668L283.922 11.5879C283.953 11.5918 284.002 11.5957 284.068 11.5996C284.139 11.6074 284.188 11.6113 284.215 11.6113C284.461 11.6113 284.67 11.5781 284.842 11.5117C285.014 11.4492 285.158 11.3418 285.275 11.1895C285.396 11.041 285.5 10.8359 285.586 10.5742L286.037 9.34375ZM284.742 3.66016L286.389 8.58203L286.67 9.72461L285.891 10.123L283.559 3.66016H284.742ZM297.217 6.4082V7.28711H293.865V6.4082H297.217ZM294.094 3.66016V10H293.01V3.66016H294.094ZM298.096 3.66016V10H297.006V3.66016H298.096ZM302.473 10.1172C302.031 10.1172 301.631 10.043 301.271 9.89453C300.916 9.74219 300.609 9.5293 300.352 9.25586C300.098 8.98242 299.902 8.6582 299.766 8.2832C299.629 7.9082 299.561 7.49805 299.561 7.05273V6.80664C299.561 6.29102 299.637 5.83203 299.789 5.42969C299.941 5.02344 300.148 4.67969 300.41 4.39844C300.672 4.11719 300.969 3.9043 301.301 3.75977C301.633 3.61523 301.977 3.54297 302.332 3.54297C302.785 3.54297 303.176 3.62109 303.504 3.77734C303.836 3.93359 304.107 4.15234 304.318 4.43359C304.529 4.71094 304.686 5.03906 304.787 5.41797C304.889 5.79297 304.939 6.20312 304.939 6.64844V7.13477H300.205V6.25H303.855V6.16797C303.84 5.88672 303.781 5.61328 303.68 5.34766C303.582 5.08203 303.426 4.86328 303.211 4.69141C302.996 4.51953 302.703 4.43359 302.332 4.43359C302.086 4.43359 301.859 4.48633 301.652 4.5918C301.445 4.69336 301.268 4.8457 301.119 5.04883C300.971 5.25195 300.855 5.5 300.773 5.79297C300.691 6.08594 300.65 6.42383 300.65 6.80664V7.05273C300.65 7.35352 300.691 7.63672 300.773 7.90234C300.859 8.16406 300.982 8.39453 301.143 8.59375C301.307 8.79297 301.504 8.94922 301.734 9.0625C301.969 9.17578 302.234 9.23242 302.531 9.23242C302.914 9.23242 303.238 9.1543 303.504 8.99805C303.77 8.8418 304.002 8.63281 304.201 8.37109L304.857 8.89258C304.721 9.09961 304.547 9.29688 304.336 9.48438C304.125 9.67188 303.865 9.82422 303.557 9.94141C303.252 10.0586 302.891 10.1172 302.473 10.1172ZM310.354 8.2832L313.277 3.66016H314.367V10H313.277V5.37695L310.354 10H309.275V3.66016H310.354V8.2832ZM317.25 3.66016H318.334L318.24 6.0332C318.217 6.63477 318.148 7.1543 318.035 7.5918C317.922 8.0293 317.777 8.40234 317.602 8.71094C317.426 9.01562 317.229 9.27148 317.01 9.47852C316.795 9.68555 316.572 9.85938 316.342 10H315.803L315.832 9.11523L316.055 9.10938C316.184 8.95703 316.309 8.80078 316.43 8.64062C316.551 8.47656 316.662 8.2832 316.764 8.06055C316.865 7.83398 316.949 7.55859 317.016 7.23438C317.086 6.90625 317.131 6.50586 317.15 6.0332L317.25 3.66016ZM317.52 3.66016H321.334V10H320.25V4.66211H317.52V3.66016ZM315.557 9.10938H322.148V11.8691H321.064V10H316.641V11.8691H315.551L315.557 9.10938ZM325.131 9.34375L326.895 3.66016H328.055L325.512 10.9785C325.453 11.1348 325.375 11.3027 325.277 11.4824C325.184 11.666 325.062 11.8398 324.914 12.0039C324.766 12.168 324.586 12.3008 324.375 12.4023C324.168 12.5078 323.92 12.5605 323.631 12.5605C323.545 12.5605 323.436 12.5488 323.303 12.5254C323.17 12.502 323.076 12.4824 323.021 12.4668L323.016 11.5879C323.047 11.5918 323.096 11.5957 323.162 11.5996C323.232 11.6074 323.281 11.6113 323.309 11.6113C323.555 11.6113 323.764 11.5781 323.936 11.5117C324.107 11.4492 324.252 11.3418 324.369 11.1895C324.49 11.041 324.594 10.8359 324.68 10.5742L325.131 9.34375ZM323.836 3.66016L325.482 8.58203L325.764 9.72461L324.984 10.123L322.652 3.66016H323.836ZM331.617 3.66016V10H330.527V3.66016H331.617ZM333.744 3.66016V4.53906H328.441V3.66016H333.744ZM334.828 9.42578C334.828 9.24219 334.885 9.08789 334.998 8.96289C335.115 8.83398 335.283 8.76953 335.502 8.76953C335.721 8.76953 335.887 8.83398 336 8.96289C336.117 9.08789 336.176 9.24219 336.176 9.42578C336.176 9.60547 336.117 9.75781 336 9.88281C335.887 10.0078 335.721 10.0703 335.502 10.0703C335.283 10.0703 335.115 10.0078 334.998 9.88281C334.885 9.75781 334.828 9.60547 334.828 9.42578ZM344.156 6.00977H341.994L341.982 5.10156H343.945C344.27 5.10156 344.553 5.04688 344.795 4.9375C345.037 4.82812 345.225 4.67188 345.357 4.46875C345.494 4.26172 345.562 4.01562 345.562 3.73047C345.562 3.41797 345.502 3.16406 345.381 2.96875C345.264 2.76953 345.082 2.625 344.836 2.53516C344.594 2.44141 344.285 2.39453 343.91 2.39453H342.246V10H341.115V1.46875H343.91C344.348 1.46875 344.738 1.51367 345.082 1.60352C345.426 1.68945 345.717 1.82617 345.955 2.01367C346.197 2.19727 346.381 2.43164 346.506 2.7168C346.631 3.00195 346.693 3.34375 346.693 3.74219C346.693 4.09375 346.604 4.41211 346.424 4.69727C346.244 4.97852 345.994 5.20898 345.674 5.38867C345.357 5.56836 344.986 5.68359 344.561 5.73438L344.156 6.00977ZM344.104 10H341.549L342.188 9.08008H344.104C344.463 9.08008 344.768 9.01758 345.018 8.89258C345.271 8.76758 345.465 8.5918 345.598 8.36523C345.73 8.13477 345.797 7.86328 345.797 7.55078C345.797 7.23438 345.74 6.96094 345.627 6.73047C345.514 6.5 345.336 6.32227 345.094 6.19727C344.852 6.07227 344.539 6.00977 344.156 6.00977H342.545L342.557 5.10156H344.76L345 5.42969C345.41 5.46484 345.758 5.58203 346.043 5.78125C346.328 5.97656 346.545 6.22656 346.693 6.53125C346.846 6.83594 346.922 7.17188 346.922 7.53906C346.922 8.07031 346.805 8.51953 346.57 8.88672C346.34 9.25 346.014 9.52734 345.592 9.71875C345.17 9.90625 344.674 10 344.104 10ZM349.318 5.83984H351.223C351.734 5.83984 352.166 5.92969 352.518 6.10938C352.869 6.28516 353.135 6.5293 353.314 6.8418C353.498 7.15039 353.59 7.50195 353.59 7.89648C353.59 8.18945 353.539 8.46484 353.438 8.72266C353.336 8.97656 353.184 9.19922 352.98 9.39062C352.781 9.58203 352.533 9.73242 352.236 9.8418C351.943 9.94727 351.605 10 351.223 10H348.527V3.66016H349.611V9.10938H351.223C351.535 9.10938 351.785 9.05273 351.973 8.93945C352.16 8.82617 352.295 8.67969 352.377 8.5C352.459 8.32031 352.5 8.13281 352.5 7.9375C352.5 7.74609 352.459 7.55859 352.377 7.375C352.295 7.19141 352.16 7.03906 351.973 6.91797C351.785 6.79297 351.535 6.73047 351.223 6.73047H349.318V5.83984ZM355.846 3.66016V10H354.762V3.66016H355.846ZM364.365 8.55859L366.521 3.66016H367.564L364.74 10H363.99L361.178 3.66016H362.221L364.365 8.55859ZM361.904 3.66016V10H360.82V3.66016H361.904ZM366.791 10V3.66016H367.881V10H366.791ZM369.34 6.90039V6.76562C369.34 6.30859 369.406 5.88477 369.539 5.49414C369.672 5.09961 369.863 4.75781 370.113 4.46875C370.363 4.17578 370.666 3.94922 371.021 3.78906C371.377 3.625 371.775 3.54297 372.217 3.54297C372.662 3.54297 373.062 3.625 373.418 3.78906C373.777 3.94922 374.082 4.17578 374.332 4.46875C374.586 4.75781 374.779 5.09961 374.912 5.49414C375.045 5.88477 375.111 6.30859 375.111 6.76562V6.90039C375.111 7.35742 375.045 7.78125 374.912 8.17188C374.779 8.5625 374.586 8.9043 374.332 9.19727C374.082 9.48633 373.779 9.71289 373.424 9.87695C373.072 10.0371 372.674 10.1172 372.229 10.1172C371.783 10.1172 371.383 10.0371 371.027 9.87695C370.672 9.71289 370.367 9.48633 370.113 9.19727C369.863 8.9043 369.672 8.5625 369.539 8.17188C369.406 7.78125 369.34 7.35742 369.34 6.90039ZM370.424 6.76562V6.90039C370.424 7.2168 370.461 7.51562 370.535 7.79688C370.609 8.07422 370.721 8.32031 370.869 8.53516C371.021 8.75 371.211 8.91992 371.438 9.04492C371.664 9.16602 371.928 9.22656 372.229 9.22656C372.525 9.22656 372.785 9.16602 373.008 9.04492C373.234 8.91992 373.422 8.75 373.57 8.53516C373.719 8.32031 373.83 8.07422 373.904 7.79688C373.982 7.51562 374.021 7.2168 374.021 6.90039V6.76562C374.021 6.45312 373.982 6.1582 373.904 5.88086C373.83 5.59961 373.717 5.35156 373.564 5.13672C373.416 4.91797 373.229 4.74609 373.002 4.62109C372.779 4.49609 372.518 4.43359 372.217 4.43359C371.92 4.43359 371.658 4.49609 371.432 4.62109C371.209 4.74609 371.021 4.91797 370.869 5.13672C370.721 5.35156 370.609 5.59961 370.535 5.88086C370.461 6.1582 370.424 6.45312 370.424 6.76562ZM378.264 7.24023L375.861 3.66016H377.168L378.809 6.28516H380.074L379.916 7.24023H378.264ZM378.855 7.12891L377.016 10H375.645L378.17 6.34375L378.855 7.12891ZM380.631 3.66016V10H379.547V3.66016H380.631ZM384.328 3.66016L381.926 7.24023H380.273L380.104 6.28516H381.375L383.016 3.66016H384.328ZM383.168 10L381.322 7.12891L382.02 6.34375L384.539 10H383.168ZM388.055 10.1172C387.613 10.1172 387.213 10.043 386.854 9.89453C386.498 9.74219 386.191 9.5293 385.934 9.25586C385.68 8.98242 385.484 8.6582 385.348 8.2832C385.211 7.9082 385.143 7.49805 385.143 7.05273V6.80664C385.143 6.29102 385.219 5.83203 385.371 5.42969C385.523 5.02344 385.73 4.67969 385.992 4.39844C386.254 4.11719 386.551 3.9043 386.883 3.75977C387.215 3.61523 387.559 3.54297 387.914 3.54297C388.367 3.54297 388.758 3.62109 389.086 3.77734C389.418 3.93359 389.689 4.15234 389.9 4.43359C390.111 4.71094 390.268 5.03906 390.369 5.41797C390.471 5.79297 390.521 6.20312 390.521 6.64844V7.13477H385.787V6.25H389.438V6.16797C389.422 5.88672 389.363 5.61328 389.262 5.34766C389.164 5.08203 389.008 4.86328 388.793 4.69141C388.578 4.51953 388.285 4.43359 387.914 4.43359C387.668 4.43359 387.441 4.48633 387.234 4.5918C387.027 4.69336 386.85 4.8457 386.701 5.04883C386.553 5.25195 386.438 5.5 386.355 5.79297C386.273 6.08594 386.232 6.42383 386.232 6.80664V7.05273C386.232 7.35352 386.273 7.63672 386.355 7.90234C386.441 8.16406 386.564 8.39453 386.725 8.59375C386.889 8.79297 387.086 8.94922 387.316 9.0625C387.551 9.17578 387.816 9.23242 388.113 9.23242C388.496 9.23242 388.82 9.1543 389.086 8.99805C389.352 8.8418 389.584 8.63281 389.783 8.37109L390.439 8.89258C390.303 9.09961 390.129 9.29688 389.918 9.48438C389.707 9.67188 389.447 9.82422 389.139 9.94141C388.834 10.0586 388.473 10.1172 388.055 10.1172ZM394.301 3.66016V10H393.211V3.66016H394.301ZM396.428 3.66016V4.53906H391.125V3.66016H396.428ZM399.656 10.1172C399.215 10.1172 398.814 10.043 398.455 9.89453C398.1 9.74219 397.793 9.5293 397.535 9.25586C397.281 8.98242 397.086 8.6582 396.949 8.2832C396.812 7.9082 396.744 7.49805 396.744 7.05273V6.80664C396.744 6.29102 396.82 5.83203 396.973 5.42969C397.125 5.02344 397.332 4.67969 397.594 4.39844C397.855 4.11719 398.152 3.9043 398.484 3.75977C398.816 3.61523 399.16 3.54297 399.516 3.54297C399.969 3.54297 400.359 3.62109 400.688 3.77734C401.02 3.93359 401.291 4.15234 401.502 4.43359C401.713 4.71094 401.869 5.03906 401.971 5.41797C402.072 5.79297 402.123 6.20312 402.123 6.64844V7.13477H397.389V6.25H401.039V6.16797C401.023 5.88672 400.965 5.61328 400.863 5.34766C400.766 5.08203 400.609 4.86328 400.395 4.69141C400.18 4.51953 399.887 4.43359 399.516 4.43359C399.27 4.43359 399.043 4.48633 398.836 4.5918C398.629 4.69336 398.451 4.8457 398.303 5.04883C398.154 5.25195 398.039 5.5 397.957 5.79297C397.875 6.08594 397.834 6.42383 397.834 6.80664V7.05273C397.834 7.35352 397.875 7.63672 397.957 7.90234C398.043 8.16406 398.166 8.39453 398.326 8.59375C398.49 8.79297 398.688 8.94922 398.918 9.0625C399.152 9.17578 399.418 9.23242 399.715 9.23242C400.098 9.23242 400.422 9.1543 400.688 8.99805C400.953 8.8418 401.186 8.63281 401.385 8.37109L402.041 8.89258C401.904 9.09961 401.73 9.29688 401.52 9.48438C401.309 9.67188 401.049 9.82422 400.74 9.94141C400.436 10.0586 400.074 10.1172 399.656 10.1172ZM1.99805 22.2832L4.92188 17.6602H6.01172V24H4.92188V19.377L1.99805 24H0.919922V17.6602H1.99805V22.2832ZM11.8477 17.6602V18.5566H8.91797V24H7.83398V17.6602H11.8477ZM13.875 18.8789V26.4375H12.7852V17.6602H13.7812L13.875 18.8789ZM18.1465 20.7773V20.9004C18.1465 21.3613 18.0918 21.7891 17.9824 22.1836C17.873 22.5742 17.7129 22.9141 17.502 23.2031C17.2949 23.4922 17.0391 23.7168 16.7344 23.877C16.4297 24.0371 16.0801 24.1172 15.6855 24.1172C15.2832 24.1172 14.9277 24.0508 14.6191 23.918C14.3105 23.7852 14.0488 23.5918 13.834 23.3379C13.6191 23.084 13.4473 22.7793 13.3184 22.4238C13.1934 22.0684 13.1074 21.668 13.0605 21.2227V20.5664C13.1074 20.0977 13.1953 19.6777 13.3242 19.3066C13.4531 18.9355 13.623 18.6191 13.834 18.3574C14.0488 18.0918 14.3086 17.8906 14.6133 17.7539C14.918 17.6133 15.2695 17.543 15.668 17.543C16.0664 17.543 16.4199 17.6211 16.7285 17.7773C17.0371 17.9297 17.2969 18.1484 17.5078 18.4336C17.7188 18.7188 17.877 19.0605 17.9824 19.459C18.0918 19.8535 18.1465 20.293 18.1465 20.7773ZM17.0566 20.9004V20.7773C17.0566 20.4609 17.0234 20.1641 16.957 19.8867C16.8906 19.6055 16.7871 19.3594 16.6465 19.1484C16.5098 18.9336 16.334 18.7656 16.1191 18.6445C15.9043 18.5195 15.6484 18.457 15.3516 18.457C15.0781 18.457 14.8398 18.5039 14.6367 18.5977C14.4375 18.6914 14.2676 18.8184 14.127 18.9785C13.9863 19.1348 13.8711 19.3145 13.7812 19.5176C13.6953 19.7168 13.6309 19.9238 13.5879 20.1387V21.6562C13.666 21.9297 13.7754 22.1875 13.916 22.4297C14.0566 22.668 14.2441 22.8613 14.4785 23.0098C14.7129 23.1543 15.0078 23.2266 15.3633 23.2266C15.6562 23.2266 15.9082 23.166 16.1191 23.0449C16.334 22.9199 16.5098 22.75 16.6465 22.5352C16.7871 22.3203 16.8906 22.0742 16.957 21.7969C17.0234 21.5156 17.0566 21.2168 17.0566 20.9004ZM23.2676 22.916V19.6523C23.2676 19.4023 23.2168 19.1855 23.1152 19.002C23.0176 18.8145 22.8691 18.6699 22.6699 18.5684C22.4707 18.4668 22.2246 18.416 21.9316 18.416C21.6582 18.416 21.418 18.4629 21.2109 18.5566C21.0078 18.6504 20.8477 18.7734 20.7305 18.9258C20.6172 19.0781 20.5605 19.2422 20.5605 19.418H19.4766C19.4766 19.1914 19.5352 18.9668 19.6523 18.7441C19.7695 18.5215 19.9375 18.3203 20.1562 18.1406C20.3789 17.957 20.6445 17.8125 20.9531 17.707C21.2656 17.5977 21.6133 17.543 21.9961 17.543C22.457 17.543 22.8633 17.6211 23.2148 17.7773C23.5703 17.9336 23.8477 18.1699 24.0469 18.4863C24.25 18.7988 24.3516 19.1914 24.3516 19.6641V22.6172C24.3516 22.8281 24.3691 23.0527 24.4043 23.291C24.4434 23.5293 24.5 23.7344 24.5742 23.9062V24H23.4434C23.3887 23.875 23.3457 23.709 23.3145 23.502C23.2832 23.291 23.2676 23.0957 23.2676 22.916ZM23.4551 20.1562L23.4668 20.918H22.3711C22.0625 20.918 21.7871 20.9434 21.5449 20.9941C21.3027 21.041 21.0996 21.1133 20.9355 21.2109C20.7715 21.3086 20.6465 21.4316 20.5605 21.5801C20.4746 21.7246 20.4316 21.8945 20.4316 22.0898C20.4316 22.2891 20.4766 22.4707 20.5664 22.6348C20.6562 22.7988 20.791 22.9297 20.9707 23.0273C21.1543 23.1211 21.3789 23.168 21.6445 23.168C21.9766 23.168 22.2695 23.0977 22.5234 22.957C22.7773 22.8164 22.9785 22.6445 23.127 22.4414C23.2793 22.2383 23.3613 22.041 23.373 21.8496L23.8359 22.3711C23.8086 22.5352 23.7344 22.7168 23.6133 22.916C23.4922 23.1152 23.3301 23.3066 23.127 23.4902C22.9277 23.6699 22.6895 23.8203 22.4121 23.9414C22.1387 24.0586 21.8301 24.1172 21.4863 24.1172C21.0566 24.1172 20.6797 24.0332 20.3555 23.8652C20.0352 23.6973 19.7852 23.4727 19.6055 23.1914C19.4297 22.9062 19.3418 22.5879 19.3418 22.2363C19.3418 21.8965 19.4082 21.5977 19.541 21.3398C19.6738 21.0781 19.8652 20.8613 20.1152 20.6895C20.3652 20.5137 20.666 20.3809 21.0176 20.291C21.3691 20.2012 21.7617 20.1562 22.1953 20.1562H23.4551ZM28.5469 17.6602V24H27.457V17.6602H28.5469ZM30.6738 17.6602V18.5391H25.3711V17.6602H30.6738ZM32.6309 19.8398H34.5352C35.0469 19.8398 35.4785 19.9297 35.8301 20.1094C36.1816 20.2852 36.4473 20.5293 36.627 20.8418C36.8105 21.1504 36.9023 21.502 36.9023 21.8965C36.9023 22.1895 36.8516 22.4648 36.75 22.7227C36.6484 22.9766 36.4961 23.1992 36.293 23.3906C36.0938 23.582 35.8457 23.7324 35.5488 23.8418C35.2559 23.9473 34.918 24 34.5352 24H31.8398V17.6602H32.9238V23.1094H34.5352C34.8477 23.1094 35.0977 23.0527 35.2852 22.9395C35.4727 22.8262 35.6074 22.6797 35.6895 22.5C35.7715 22.3203 35.8125 22.1328 35.8125 21.9375C35.8125 21.7461 35.7715 21.5586 35.6895 21.375C35.6074 21.1914 35.4727 21.0391 35.2852 20.918C35.0977 20.793 34.8477 20.7305 34.5352 20.7305H32.6309V19.8398ZM43.7695 23.2266C44.0273 23.2266 44.2656 23.1738 44.4844 23.0684C44.7031 22.9629 44.8828 22.8184 45.0234 22.6348C45.1641 22.4473 45.2441 22.2344 45.2637 21.9961H46.2949C46.2754 22.3711 46.1484 22.7207 45.9141 23.0449C45.6836 23.3652 45.3809 23.625 45.0059 23.8242C44.6309 24.0195 44.2188 24.1172 43.7695 24.1172C43.293 24.1172 42.877 24.0332 42.5215 23.8652C42.1699 23.6973 41.877 23.4668 41.6426 23.1738C41.4121 22.8809 41.2383 22.5449 41.1211 22.166C41.0078 21.7832 40.9512 21.3789 40.9512 20.9531V20.707C40.9512 20.2812 41.0078 19.8789 41.1211 19.5C41.2383 19.1172 41.4121 18.7793 41.6426 18.4863C41.877 18.1934 42.1699 17.9629 42.5215 17.7949C42.877 17.627 43.293 17.543 43.7695 17.543C44.2656 17.543 44.6992 17.6445 45.0703 17.8477C45.4414 18.0469 45.7324 18.3203 45.9434 18.668C46.1582 19.0117 46.2754 19.4023 46.2949 19.8398H45.2637C45.2441 19.5781 45.1699 19.3418 45.041 19.1309C44.916 18.9199 44.7441 18.752 44.5254 18.627C44.3105 18.498 44.0586 18.4336 43.7695 18.4336C43.4375 18.4336 43.1582 18.5 42.9316 18.6328C42.709 18.7617 42.5312 18.9375 42.3984 19.1602C42.2695 19.3789 42.1758 19.623 42.1172 19.8926C42.0625 20.1582 42.0352 20.4297 42.0352 20.707V20.9531C42.0352 21.2305 42.0625 21.5039 42.1172 21.7734C42.1719 22.043 42.2637 22.2871 42.3926 22.5059C42.5254 22.7246 42.7031 22.9004 42.9258 23.0332C43.1523 23.1621 43.4336 23.2266 43.7695 23.2266ZM54.5566 14.9004H55.4473C55.4473 15.2832 55.3887 15.5879 55.2715 15.8145C55.1543 16.0371 54.9941 16.209 54.791 16.3301C54.5918 16.4512 54.3652 16.543 54.1113 16.6055C53.8613 16.668 53.6016 16.7285 53.332 16.7871C52.9961 16.8574 52.6836 16.9688 52.3945 17.1211C52.1094 17.2695 51.8633 17.4805 51.6562 17.7539C51.4531 18.0273 51.3027 18.3828 51.2051 18.8203C51.1113 19.2578 51.0859 19.7988 51.1289 20.4434V20.9824H50.2383V20.4434C50.2383 19.7207 50.3066 19.0898 50.4434 18.5508C50.584 18.0117 50.7812 17.5566 51.0352 17.1855C51.2891 16.8145 51.5898 16.5195 51.9375 16.3008C52.2891 16.082 52.6758 15.9316 53.0977 15.8496C53.4023 15.791 53.6641 15.7285 53.8828 15.6621C54.1016 15.5918 54.2676 15.498 54.3809 15.3809C54.498 15.2637 54.5566 15.1035 54.5566 14.9004ZM53.2734 18.0234C53.6875 18.0234 54.0566 18.0957 54.3809 18.2402C54.7051 18.3848 54.9805 18.5859 55.207 18.8438C55.4336 19.1016 55.6055 19.4062 55.7227 19.7578C55.8438 20.1055 55.9043 20.4844 55.9043 20.8945V21.0234C55.9043 21.4648 55.8398 21.875 55.7109 22.2539C55.5859 22.6289 55.4004 22.957 55.1543 23.2383C54.9121 23.5156 54.6152 23.7324 54.2637 23.8887C53.916 24.0449 53.5195 24.123 53.0742 24.123C52.6289 24.123 52.2305 24.0449 51.8789 23.8887C51.5312 23.7324 51.2344 23.5156 50.9883 23.2383C50.7422 22.957 50.5547 22.6289 50.4258 22.2539C50.3008 21.875 50.2383 21.4648 50.2383 21.0234V20.8945C50.2383 20.7969 50.2559 20.7012 50.291 20.6074C50.3262 20.5137 50.3691 20.418 50.4199 20.3203C50.4746 20.2227 50.5234 20.1191 50.5664 20.0098C50.7109 19.6582 50.9082 19.332 51.1582 19.0312C51.4121 18.7305 51.7148 18.4883 52.0664 18.3047C52.4219 18.1172 52.8242 18.0234 53.2734 18.0234ZM53.0625 18.9082C52.6641 18.9082 52.3359 19 52.0781 19.1836C51.8242 19.3672 51.6348 19.6113 51.5098 19.916C51.3848 20.2168 51.3223 20.543 51.3223 20.8945V21.0234C51.3223 21.3203 51.3574 21.6016 51.4277 21.8672C51.498 22.1328 51.6035 22.3691 51.7441 22.5762C51.8887 22.7793 52.0703 22.9395 52.2891 23.0566C52.5117 23.1738 52.7734 23.2324 53.0742 23.2324C53.375 23.2324 53.6348 23.1738 53.8535 23.0566C54.0723 22.9395 54.252 22.7793 54.3926 22.5762C54.5332 22.3691 54.6387 22.1328 54.709 21.8672C54.7793 21.6016 54.8145 21.3203 54.8145 21.0234V20.8945C54.8145 20.6289 54.7793 20.377 54.709 20.1387C54.6387 19.9004 54.5312 19.6895 54.3867 19.5059C54.2461 19.3223 54.0645 19.1777 53.8418 19.0723C53.623 18.9629 53.3633 18.9082 53.0625 18.9082ZM56.8477 20.9004V20.7656C56.8477 20.3086 56.9141 19.8848 57.0469 19.4941C57.1797 19.0996 57.3711 18.7578 57.6211 18.4688C57.8711 18.1758 58.1738 17.9492 58.5293 17.7891C58.8848 17.625 59.2832 17.543 59.7246 17.543C60.1699 17.543 60.5703 17.625 60.9258 17.7891C61.2852 17.9492 61.5898 18.1758 61.8398 18.4688C62.0938 18.7578 62.2871 19.0996 62.4199 19.4941C62.5527 19.8848 62.6191 20.3086 62.6191 20.7656V20.9004C62.6191 21.3574 62.5527 21.7812 62.4199 22.1719C62.2871 22.5625 62.0938 22.9043 61.8398 23.1973C61.5898 23.4863 61.2871 23.7129 60.9316 23.877C60.5801 24.0371 60.1816 24.1172 59.7363 24.1172C59.291 24.1172 58.8906 24.0371 58.5352 23.877C58.1797 23.7129 57.875 23.4863 57.6211 23.1973C57.3711 22.9043 57.1797 22.5625 57.0469 22.1719C56.9141 21.7812 56.8477 21.3574 56.8477 20.9004ZM57.9316 20.7656V20.9004C57.9316 21.2168 57.9688 21.5156 58.043 21.7969C58.1172 22.0742 58.2285 22.3203 58.377 22.5352C58.5293 22.75 58.7188 22.9199 58.9453 23.0449C59.1719 23.166 59.4355 23.2266 59.7363 23.2266C60.0332 23.2266 60.293 23.166 60.5156 23.0449C60.7422 22.9199 60.9297 22.75 61.0781 22.5352C61.2266 22.3203 61.3379 22.0742 61.4121 21.7969C61.4902 21.5156 61.5293 21.2168 61.5293 20.9004V20.7656C61.5293 20.4531 61.4902 20.1582 61.4121 19.8809C61.3379 19.5996 61.2246 19.3516 61.0723 19.1367C60.9238 18.918 60.7363 18.7461 60.5098 18.6211C60.2871 18.4961 60.0254 18.4336 59.7246 18.4336C59.4277 18.4336 59.166 18.4961 58.9395 18.6211C58.7168 18.7461 58.5293 18.918 58.377 19.1367C58.2285 19.3516 58.1172 19.5996 58.043 19.8809C57.9688 20.1582 57.9316 20.4531 57.9316 20.7656ZM66.4336 17.6602V24H65.3438V17.6602H66.4336ZM68.5605 17.6602V18.5391H63.2578V17.6602H68.5605ZM73.2715 22.916V19.6523C73.2715 19.4023 73.2207 19.1855 73.1191 19.002C73.0215 18.8145 72.873 18.6699 72.6738 18.5684C72.4746 18.4668 72.2285 18.416 71.9355 18.416C71.6621 18.416 71.4219 18.4629 71.2148 18.5566C71.0117 18.6504 70.8516 18.7734 70.7344 18.9258C70.6211 19.0781 70.5645 19.2422 70.5645 19.418H69.4805C69.4805 19.1914 69.5391 18.9668 69.6562 18.7441C69.7734 18.5215 69.9414 18.3203 70.1602 18.1406C70.3828 17.957 70.6484 17.8125 70.957 17.707C71.2695 17.5977 71.6172 17.543 72 17.543C72.4609 17.543 72.8672 17.6211 73.2188 17.7773C73.5742 17.9336 73.8516 18.1699 74.0508 18.4863C74.2539 18.7988 74.3555 19.1914 74.3555 19.6641V22.6172C74.3555 22.8281 74.373 23.0527 74.4082 23.291C74.4473 23.5293 74.5039 23.7344 74.5781 23.9062V24H73.4473C73.3926 23.875 73.3496 23.709 73.3184 23.502C73.2871 23.291 73.2715 23.0957 73.2715 22.916ZM73.459 20.1562L73.4707 20.918H72.375C72.0664 20.918 71.791 20.9434 71.5488 20.9941C71.3066 21.041 71.1035 21.1133 70.9395 21.2109C70.7754 21.3086 70.6504 21.4316 70.5645 21.5801C70.4785 21.7246 70.4355 21.8945 70.4355 22.0898C70.4355 22.2891 70.4805 22.4707 70.5703 22.6348C70.6602 22.7988 70.7949 22.9297 70.9746 23.0273C71.1582 23.1211 71.3828 23.168 71.6484 23.168C71.9805 23.168 72.2734 23.0977 72.5273 22.957C72.7812 22.8164 72.9824 22.6445 73.1309 22.4414C73.2832 22.2383 73.3652 22.041 73.377 21.8496L73.8398 22.3711C73.8125 22.5352 73.7383 22.7168 73.6172 22.916C73.4961 23.1152 73.334 23.3066 73.1309 23.4902C72.9316 23.6699 72.6934 23.8203 72.416 23.9414C72.1426 24.0586 71.834 24.1172 71.4902 24.1172C71.0605 24.1172 70.6836 24.0332 70.3594 23.8652C70.0391 23.6973 69.7891 23.4727 69.6094 23.1914C69.4336 22.9062 69.3457 22.5879 69.3457 22.2363C69.3457 21.8965 69.4121 21.5977 69.5449 21.3398C69.6777 21.0781 69.8691 20.8613 70.1191 20.6895C70.3691 20.5137 70.6699 20.3809 71.0215 20.291C71.373 20.2012 71.7656 20.1562 72.1992 20.1562H73.459ZM79.7051 22.5586L81.8613 17.6602H82.9043L80.0801 24H79.3301L76.5176 17.6602H77.5605L79.7051 22.5586ZM77.2441 17.6602V24H76.1602V17.6602H77.2441ZM82.1309 24V17.6602H83.2207V24H82.1309ZM86.1387 22.2832L89.0625 17.6602H90.1523V24H89.0625V19.377L86.1387 24H85.0605V17.6602H86.1387V22.2832ZM97.4531 17.6602V24H96.3633V17.6602H97.4531ZM99.5801 17.6602V18.5391H94.2773V17.6602H99.5801ZM100.113 20.9004V20.7656C100.113 20.3086 100.18 19.8848 100.312 19.4941C100.445 19.0996 100.637 18.7578 100.887 18.4688C101.137 18.1758 101.439 17.9492 101.795 17.7891C102.15 17.625 102.549 17.543 102.99 17.543C103.436 17.543 103.836 17.625 104.191 17.7891C104.551 17.9492 104.855 18.1758 105.105 18.4688C105.359 18.7578 105.553 19.0996 105.686 19.4941C105.818 19.8848 105.885 20.3086 105.885 20.7656V20.9004C105.885 21.3574 105.818 21.7812 105.686 22.1719C105.553 22.5625 105.359 22.9043 105.105 23.1973C104.855 23.4863 104.553 23.7129 104.197 23.877C103.846 24.0371 103.447 24.1172 103.002 24.1172C102.557 24.1172 102.156 24.0371 101.801 23.877C101.445 23.7129 101.141 23.4863 100.887 23.1973C100.637 22.9043 100.445 22.5625 100.312 22.1719C100.18 21.7812 100.113 21.3574 100.113 20.9004ZM101.197 20.7656V20.9004C101.197 21.2168 101.234 21.5156 101.309 21.7969C101.383 22.0742 101.494 22.3203 101.643 22.5352C101.795 22.75 101.984 22.9199 102.211 23.0449C102.438 23.166 102.701 23.2266 103.002 23.2266C103.299 23.2266 103.559 23.166 103.781 23.0449C104.008 22.9199 104.195 22.75 104.344 22.5352C104.492 22.3203 104.604 22.0742 104.678 21.7969C104.756 21.5156 104.795 21.2168 104.795 20.9004V20.7656C104.795 20.4531 104.756 20.1582 104.678 19.8809C104.604 19.5996 104.49 19.3516 104.338 19.1367C104.189 18.918 104.002 18.7461 103.775 18.6211C103.553 18.4961 103.291 18.4336 102.99 18.4336C102.693 18.4336 102.432 18.4961 102.205 18.6211C101.982 18.7461 101.795 18.918 101.643 19.1367C101.494 19.3516 101.383 19.5996 101.309 19.8809C101.234 20.1582 101.197 20.4531 101.197 20.7656ZM111.387 17.6602V18.5566H108.322V17.6602H111.387ZM112.342 17.6602V24H111.258V17.6602H112.342ZM108.059 17.6602H109.148L108.984 20.7188C108.957 21.1914 108.912 21.6094 108.85 21.9727C108.791 22.332 108.709 22.6406 108.604 22.8984C108.502 23.1562 108.373 23.3672 108.217 23.5312C108.064 23.6914 107.881 23.8105 107.666 23.8887C107.451 23.9629 107.203 24 106.922 24H106.582V23.0449L106.816 23.0273C106.984 23.0156 107.127 22.9766 107.244 22.9102C107.365 22.8438 107.467 22.7461 107.549 22.6172C107.631 22.4844 107.697 22.3145 107.748 22.1074C107.803 21.9004 107.844 21.6543 107.871 21.3691C107.902 21.084 107.926 20.752 107.941 20.373L108.059 17.6602ZM114.979 19.8398H116.883C117.395 19.8398 117.826 19.9297 118.178 20.1094C118.529 20.2852 118.795 20.5293 118.975 20.8418C119.158 21.1504 119.25 21.502 119.25 21.8965C119.25 22.1895 119.199 22.4648 119.098 22.7227C118.996 22.9766 118.844 23.1992 118.641 23.3906C118.441 23.582 118.193 23.7324 117.896 23.8418C117.604 23.9473 117.266 24 116.883 24H114.188V17.6602H115.271V23.1094H116.883C117.195 23.1094 117.445 23.0527 117.633 22.9395C117.82 22.8262 117.955 22.6797 118.037 22.5C118.119 22.3203 118.16 22.1328 118.16 21.9375C118.16 21.7461 118.119 21.5586 118.037 21.375C117.955 21.1914 117.82 21.0391 117.633 20.918C117.445 20.793 117.195 20.7305 116.883 20.7305H114.979V19.8398ZM121.781 17.6602V24H120.697V17.6602H121.781ZM125.941 17.6602L122.936 21.293H121.418L121.254 20.3438H122.496L124.623 17.6602H125.941ZM124.775 24L122.443 21.1289L123.141 20.3438L126.152 24H124.775ZM126.68 20.9004V20.7656C126.68 20.3086 126.746 19.8848 126.879 19.4941C127.012 19.0996 127.203 18.7578 127.453 18.4688C127.703 18.1758 128.006 17.9492 128.361 17.7891C128.717 17.625 129.115 17.543 129.557 17.543C130.002 17.543 130.402 17.625 130.758 17.7891C131.117 17.9492 131.422 18.1758 131.672 18.4688C131.926 18.7578 132.119 19.0996 132.252 19.4941C132.385 19.8848 132.451 20.3086 132.451 20.7656V20.9004C132.451 21.3574 132.385 21.7812 132.252 22.1719C132.119 22.5625 131.926 22.9043 131.672 23.1973C131.422 23.4863 131.119 23.7129 130.764 23.877C130.412 24.0371 130.014 24.1172 129.568 24.1172C129.123 24.1172 128.723 24.0371 128.367 23.877C128.012 23.7129 127.707 23.4863 127.453 23.1973C127.203 22.9043 127.012 22.5625 126.879 22.1719C126.746 21.7812 126.68 21.3574 126.68 20.9004ZM127.764 20.7656V20.9004C127.764 21.2168 127.801 21.5156 127.875 21.7969C127.949 22.0742 128.061 22.3203 128.209 22.5352C128.361 22.75 128.551 22.9199 128.777 23.0449C129.004 23.166 129.268 23.2266 129.568 23.2266C129.865 23.2266 130.125 23.166 130.348 23.0449C130.574 22.9199 130.762 22.75 130.91 22.5352C131.059 22.3203 131.17 22.0742 131.244 21.7969C131.322 21.5156 131.361 21.2168 131.361 20.9004V20.7656C131.361 20.4531 131.322 20.1582 131.244 19.8809C131.17 19.5996 131.057 19.3516 130.904 19.1367C130.756 18.918 130.568 18.7461 130.342 18.6211C130.119 18.4961 129.857 18.4336 129.557 18.4336C129.26 18.4336 128.998 18.4961 128.771 18.6211C128.549 18.7461 128.361 18.918 128.209 19.1367C128.061 19.3516 127.949 19.5996 127.875 19.8809C127.801 20.1582 127.764 20.4531 127.764 20.7656ZM137.93 17.6602H139.014L138.92 20.0332C138.896 20.6348 138.828 21.1543 138.715 21.5918C138.602 22.0293 138.457 22.4023 138.281 22.7109C138.105 23.0156 137.908 23.2715 137.689 23.4785C137.475 23.6855 137.252 23.8594 137.021 24H136.482L136.512 23.1152L136.734 23.1094C136.863 22.957 136.988 22.8008 137.109 22.6406C137.23 22.4766 137.342 22.2832 137.443 22.0605C137.545 21.834 137.629 21.5586 137.695 21.2344C137.766 20.9062 137.811 20.5059 137.83 20.0332L137.93 17.6602ZM138.199 17.6602H142.014V24H140.93V18.6621H138.199V17.6602ZM136.236 23.1094H142.828V25.8691H141.744V24H137.32V25.8691H136.23L136.236 23.1094ZM148.266 17.6602V18.5566H145.201V17.6602H148.266ZM149.221 17.6602V24H148.137V17.6602H149.221ZM144.938 17.6602H146.027L145.863 20.7188C145.836 21.1914 145.791 21.6094 145.729 21.9727C145.67 22.332 145.588 22.6406 145.482 22.8984C145.381 23.1562 145.252 23.3672 145.096 23.5312C144.943 23.6914 144.76 23.8105 144.545 23.8887C144.33 23.9629 144.082 24 143.801 24H143.461V23.0449L143.695 23.0273C143.863 23.0156 144.006 22.9766 144.123 22.9102C144.244 22.8438 144.346 22.7461 144.428 22.6172C144.51 22.4844 144.576 22.3145 144.627 22.1074C144.682 21.9004 144.723 21.6543 144.75 21.3691C144.781 21.084 144.805 20.752 144.82 20.373L144.938 17.6602ZM152.25 20.9766H153.422L151.588 24H150.416L152.25 20.9766ZM153.158 17.6602H155.807V24H154.723V18.5391H153.158C152.85 18.5391 152.598 18.5918 152.402 18.6973C152.207 18.7988 152.064 18.9316 151.975 19.0957C151.885 19.2598 151.84 19.4297 151.84 19.6055C151.84 19.7773 151.881 19.9434 151.963 20.1035C152.045 20.2598 152.174 20.3887 152.35 20.4902C152.525 20.5918 152.752 20.6426 153.029 20.6426H155.016V21.5332H153.029C152.666 21.5332 152.344 21.4844 152.062 21.3867C151.781 21.2891 151.543 21.1543 151.348 20.9824C151.152 20.8066 151.004 20.6016 150.902 20.3672C150.801 20.1289 150.75 19.8711 150.75 19.5938C150.75 19.3164 150.803 19.0605 150.908 18.8262C151.018 18.5918 151.174 18.3867 151.377 18.2109C151.584 18.0352 151.836 17.9004 152.133 17.8066C152.434 17.709 152.775 17.6602 153.158 17.6602ZM161.672 17.6602H162.756L162.662 20.0332C162.639 20.6348 162.57 21.1543 162.457 21.5918C162.344 22.0293 162.199 22.4023 162.023 22.7109C161.848 23.0156 161.65 23.2715 161.432 23.4785C161.217 23.6855 160.994 23.8594 160.764 24H160.225L160.254 23.1152L160.477 23.1094C160.605 22.957 160.73 22.8008 160.852 22.6406C160.973 22.4766 161.084 22.2832 161.186 22.0605C161.287 21.834 161.371 21.5586 161.438 21.2344C161.508 20.9062 161.553 20.5059 161.572 20.0332L161.672 17.6602ZM161.941 17.6602H165.756V24H164.672V18.6621H161.941V17.6602ZM159.979 23.1094H166.57V25.8691H165.486V24H161.062V25.8691H159.973L159.979 23.1094ZM169.553 23.3438L171.316 17.6602H172.477L169.934 24.9785C169.875 25.1348 169.797 25.3027 169.699 25.4824C169.605 25.666 169.484 25.8398 169.336 26.0039C169.188 26.168 169.008 26.3008 168.797 26.4023C168.59 26.5078 168.342 26.5605 168.053 26.5605C167.967 26.5605 167.857 26.5488 167.725 26.5254C167.592 26.502 167.498 26.4824 167.443 26.4668L167.438 25.5879C167.469 25.5918 167.518 25.5957 167.584 25.5996C167.654 25.6074 167.703 25.6113 167.73 25.6113C167.977 25.6113 168.186 25.5781 168.357 25.5117C168.529 25.4492 168.674 25.3418 168.791 25.1895C168.912 25.041 169.016 24.8359 169.102 24.5742L169.553 23.3438ZM168.258 17.6602L169.904 22.582L170.186 23.7246L169.406 24.123L167.074 17.6602H168.258ZM173.549 17.6602H174.633V23.1094H176.953V17.6602H178.043V23.1094H180.357V17.6602H181.441V24H173.549V17.6602ZM184.342 22.2832L187.266 17.6602H188.355V24H187.266V19.377L184.342 24H183.264V17.6602H184.342V22.2832ZM194.244 22.2832L197.168 17.6602H198.258V24H197.168V19.377L194.244 24H193.166V17.6602H194.244V22.2832ZM204.234 17.6602V18.5566H201.17V17.6602H204.234ZM205.189 17.6602V24H204.105V17.6602H205.189ZM200.906 17.6602H201.996L201.832 20.7188C201.805 21.1914 201.76 21.6094 201.697 21.9727C201.639 22.332 201.557 22.6406 201.451 22.8984C201.35 23.1562 201.221 23.3672 201.064 23.5312C200.912 23.6914 200.729 23.8105 200.514 23.8887C200.299 23.9629 200.051 24 199.77 24H199.43V23.0449L199.664 23.0273C199.832 23.0156 199.975 22.9766 200.092 22.9102C200.213 22.8438 200.314 22.7461 200.396 22.6172C200.479 22.4844 200.545 22.3145 200.596 22.1074C200.65 21.9004 200.691 21.6543 200.719 21.3691C200.75 21.084 200.773 20.752 200.789 20.373L200.906 17.6602ZM208.107 22.2832L211.031 17.6602H212.121V24H211.031V19.377L208.107 24H207.029V17.6602H208.107V22.2832ZM214.846 22.7109V23.584C214.846 23.9395 214.756 24.3145 214.576 24.709C214.396 25.1074 214.145 25.4395 213.82 25.7051L213.205 25.2773C213.33 25.1055 213.436 24.9297 213.521 24.75C213.607 24.5742 213.672 24.3906 213.715 24.1992C213.762 24.0117 213.785 23.8125 213.785 23.6016V22.7109H214.846ZM221.836 24.1172C221.395 24.1172 220.994 24.043 220.635 23.8945C220.279 23.7422 219.973 23.5293 219.715 23.2559C219.461 22.9824 219.266 22.6582 219.129 22.2832C218.992 21.9082 218.924 21.498 218.924 21.0527V20.8066C218.924 20.291 219 19.832 219.152 19.4297C219.305 19.0234 219.512 18.6797 219.773 18.3984C220.035 18.1172 220.332 17.9043 220.664 17.7598C220.996 17.6152 221.34 17.543 221.695 17.543C222.148 17.543 222.539 17.6211 222.867 17.7773C223.199 17.9336 223.471 18.1523 223.682 18.4336C223.893 18.7109 224.049 19.0391 224.15 19.418C224.252 19.793 224.303 20.2031 224.303 20.6484V21.1348H219.568V20.25H223.219V20.168C223.203 19.8867 223.145 19.6133 223.043 19.3477C222.945 19.082 222.789 18.8633 222.574 18.6914C222.359 18.5195 222.066 18.4336 221.695 18.4336C221.449 18.4336 221.223 18.4863 221.016 18.5918C220.809 18.6934 220.631 18.8457 220.482 19.0488C220.334 19.252 220.219 19.5 220.137 19.793C220.055 20.0859 220.014 20.4238 220.014 20.8066V21.0527C220.014 21.3535 220.055 21.6367 220.137 21.9023C220.223 22.1641 220.346 22.3945 220.506 22.5938C220.67 22.793 220.867 22.9492 221.098 23.0625C221.332 23.1758 221.598 23.2324 221.895 23.2324C222.277 23.2324 222.602 23.1543 222.867 22.998C223.133 22.8418 223.365 22.6328 223.564 22.3711L224.221 22.8926C224.084 23.0996 223.91 23.2969 223.699 23.4844C223.488 23.6719 223.229 23.8242 222.92 23.9414C222.615 24.0586 222.254 24.1172 221.836 24.1172ZM228.105 23.2266C228.363 23.2266 228.602 23.1738 228.82 23.0684C229.039 22.9629 229.219 22.8184 229.359 22.6348C229.5 22.4473 229.58 22.2344 229.6 21.9961H230.631C230.611 22.3711 230.484 22.7207 230.25 23.0449C230.02 23.3652 229.717 23.625 229.342 23.8242C228.967 24.0195 228.555 24.1172 228.105 24.1172C227.629 24.1172 227.213 24.0332 226.857 23.8652C226.506 23.6973 226.213 23.4668 225.979 23.1738C225.748 22.8809 225.574 22.5449 225.457 22.166C225.344 21.7832 225.287 21.3789 225.287 20.9531V20.707C225.287 20.2812 225.344 19.8789 225.457 19.5C225.574 19.1172 225.748 18.7793 225.979 18.4863C226.213 18.1934 226.506 17.9629 226.857 17.7949C227.213 17.627 227.629 17.543 228.105 17.543C228.602 17.543 229.035 17.6445 229.406 17.8477C229.777 18.0469 230.068 18.3203 230.279 18.668C230.494 19.0117 230.611 19.4023 230.631 19.8398H229.6C229.58 19.5781 229.506 19.3418 229.377 19.1309C229.252 18.9199 229.08 18.752 228.861 18.627C228.646 18.498 228.395 18.4336 228.105 18.4336C227.773 18.4336 227.494 18.5 227.268 18.6328C227.045 18.7617 226.867 18.9375 226.734 19.1602C226.605 19.3789 226.512 19.623 226.453 19.8926C226.398 20.1582 226.371 20.4297 226.371 20.707V20.9531C226.371 21.2305 226.398 21.5039 226.453 21.7734C226.508 22.043 226.6 22.2871 226.729 22.5059C226.861 22.7246 227.039 22.9004 227.262 23.0332C227.488 23.1621 227.77 23.2266 228.105 23.2266ZM236.086 17.6602V18.5566H233.021V17.6602H236.086ZM237.041 17.6602V24H235.957V17.6602H237.041ZM232.758 17.6602H233.848L233.684 20.7188C233.656 21.1914 233.611 21.6094 233.549 21.9727C233.49 22.332 233.408 22.6406 233.303 22.8984C233.201 23.1562 233.072 23.3672 232.916 23.5312C232.764 23.6914 232.58 23.8105 232.365 23.8887C232.15 23.9629 231.902 24 231.621 24H231.281V23.0449L231.516 23.0273C231.684 23.0156 231.826 22.9766 231.943 22.9102C232.064 22.8438 232.166 22.7461 232.248 22.6172C232.33 22.4844 232.396 22.3145 232.447 22.1074C232.502 21.9004 232.543 21.6543 232.57 21.3691C232.602 21.084 232.625 20.752 232.641 20.373L232.758 17.6602ZM239.959 22.2832L242.883 17.6602H243.973V24H242.883V19.377L239.959 24H238.881V17.6602H239.959V22.2832ZM249.422 17.6602L250.811 19.9688L252.217 17.6602H253.488L251.414 20.7891L253.553 24H252.299L250.834 21.6211L249.369 24H248.109L250.242 20.7891L248.174 17.6602H249.422ZM254.238 20.9004V20.7656C254.238 20.3086 254.305 19.8848 254.438 19.4941C254.57 19.0996 254.762 18.7578 255.012 18.4688C255.262 18.1758 255.564 17.9492 255.92 17.7891C256.275 17.625 256.674 17.543 257.115 17.543C257.561 17.543 257.961 17.625 258.316 17.7891C258.676 17.9492 258.98 18.1758 259.23 18.4688C259.484 18.7578 259.678 19.0996 259.811 19.4941C259.943 19.8848 260.01 20.3086 260.01 20.7656V20.9004C260.01 21.3574 259.943 21.7812 259.811 22.1719C259.678 22.5625 259.484 22.9043 259.23 23.1973C258.98 23.4863 258.678 23.7129 258.322 23.877C257.971 24.0371 257.572 24.1172 257.127 24.1172C256.682 24.1172 256.281 24.0371 255.926 23.877C255.57 23.7129 255.266 23.4863 255.012 23.1973C254.762 22.9043 254.57 22.5625 254.438 22.1719C254.305 21.7812 254.238 21.3574 254.238 20.9004ZM255.322 20.7656V20.9004C255.322 21.2168 255.359 21.5156 255.434 21.7969C255.508 22.0742 255.619 22.3203 255.768 22.5352C255.92 22.75 256.109 22.9199 256.336 23.0449C256.562 23.166 256.826 23.2266 257.127 23.2266C257.424 23.2266 257.684 23.166 257.906 23.0449C258.133 22.9199 258.32 22.75 258.469 22.5352C258.617 22.3203 258.729 22.0742 258.803 21.7969C258.881 21.5156 258.92 21.2168 258.92 20.9004V20.7656C258.92 20.4531 258.881 20.1582 258.803 19.8809C258.729 19.5996 258.615 19.3516 258.463 19.1367C258.314 18.918 258.127 18.7461 257.9 18.6211C257.678 18.4961 257.416 18.4336 257.115 18.4336C256.818 18.4336 256.557 18.4961 256.33 18.6211C256.107 18.7461 255.92 18.918 255.768 19.1367C255.619 19.3516 255.508 19.5996 255.434 19.8809C255.359 20.1582 255.322 20.4531 255.322 20.7656ZM263.824 17.6602V24H262.734V17.6602H263.824ZM265.951 17.6602V18.5391H260.648V17.6602H265.951ZM268.189 22.2832L271.113 17.6602H272.203V24H271.113V19.377L268.189 24H267.111V17.6602H268.189V22.2832ZM276.527 17.6602V24H275.438V17.6602H276.527ZM278.654 17.6602V18.5391H273.352V17.6602H278.654ZM281.883 24.1172C281.441 24.1172 281.041 24.043 280.682 23.8945C280.326 23.7422 280.02 23.5293 279.762 23.2559C279.508 22.9824 279.312 22.6582 279.176 22.2832C279.039 21.9082 278.971 21.498 278.971 21.0527V20.8066C278.971 20.291 279.047 19.832 279.199 19.4297C279.352 19.0234 279.559 18.6797 279.82 18.3984C280.082 18.1172 280.379 17.9043 280.711 17.7598C281.043 17.6152 281.387 17.543 281.742 17.543C282.195 17.543 282.586 17.6211 282.914 17.7773C283.246 17.9336 283.518 18.1523 283.729 18.4336C283.939 18.7109 284.096 19.0391 284.197 19.418C284.299 19.793 284.35 20.2031 284.35 20.6484V21.1348H279.615V20.25H283.266V20.168C283.25 19.8867 283.191 19.6133 283.09 19.3477C282.992 19.082 282.836 18.8633 282.621 18.6914C282.406 18.5195 282.113 18.4336 281.742 18.4336C281.496 18.4336 281.27 18.4863 281.062 18.5918C280.855 18.6934 280.678 18.8457 280.529 19.0488C280.381 19.252 280.266 19.5 280.184 19.793C280.102 20.0859 280.061 20.4238 280.061 20.8066V21.0527C280.061 21.3535 280.102 21.6367 280.184 21.9023C280.27 22.1641 280.393 22.3945 280.553 22.5938C280.717 22.793 280.914 22.9492 281.145 23.0625C281.379 23.1758 281.645 23.2324 281.941 23.2324C282.324 23.2324 282.648 23.1543 282.914 22.998C283.18 22.8418 283.412 22.6328 283.611 22.3711L284.268 22.8926C284.131 23.0996 283.957 23.2969 283.746 23.4844C283.535 23.6719 283.275 23.8242 282.967 23.9414C282.662 24.0586 282.301 24.1172 281.883 24.1172ZM292.816 17.6602V18.5566H289.611V17.6602H292.816ZM289.77 17.6602V24H288.686V17.6602H289.77ZM293.777 17.6602V24H292.688V17.6602H293.777ZM295.23 20.9004V20.7656C295.23 20.3086 295.297 19.8848 295.43 19.4941C295.562 19.0996 295.754 18.7578 296.004 18.4688C296.254 18.1758 296.557 17.9492 296.912 17.7891C297.268 17.625 297.666 17.543 298.107 17.543C298.553 17.543 298.953 17.625 299.309 17.7891C299.668 17.9492 299.973 18.1758 300.223 18.4688C300.477 18.7578 300.67 19.0996 300.803 19.4941C300.936 19.8848 301.002 20.3086 301.002 20.7656V20.9004C301.002 21.3574 300.936 21.7812 300.803 22.1719C300.67 22.5625 300.477 22.9043 300.223 23.1973C299.973 23.4863 299.67 23.7129 299.314 23.877C298.963 24.0371 298.564 24.1172 298.119 24.1172C297.674 24.1172 297.273 24.0371 296.918 23.877C296.562 23.7129 296.258 23.4863 296.004 23.1973C295.754 22.9043 295.562 22.5625 295.43 22.1719C295.297 21.7812 295.23 21.3574 295.23 20.9004ZM296.314 20.7656V20.9004C296.314 21.2168 296.352 21.5156 296.426 21.7969C296.5 22.0742 296.611 22.3203 296.76 22.5352C296.912 22.75 297.102 22.9199 297.328 23.0449C297.555 23.166 297.818 23.2266 298.119 23.2266C298.416 23.2266 298.676 23.166 298.898 23.0449C299.125 22.9199 299.312 22.75 299.461 22.5352C299.609 22.3203 299.721 22.0742 299.795 21.7969C299.873 21.5156 299.912 21.2168 299.912 20.9004V20.7656C299.912 20.4531 299.873 20.1582 299.795 19.8809C299.721 19.5996 299.607 19.3516 299.455 19.1367C299.307 18.918 299.119 18.7461 298.893 18.6211C298.67 18.4961 298.408 18.4336 298.107 18.4336C297.811 18.4336 297.549 18.4961 297.322 18.6211C297.1 18.7461 296.912 18.918 296.76 19.1367C296.611 19.3516 296.5 19.5996 296.426 19.8809C296.352 20.1582 296.314 20.4531 296.314 20.7656ZM306.504 17.6602V18.5566H303.439V17.6602H306.504ZM307.459 17.6602V24H306.375V17.6602H307.459ZM303.176 17.6602H304.266L304.102 20.7188C304.074 21.1914 304.029 21.6094 303.967 21.9727C303.908 22.332 303.826 22.6406 303.721 22.8984C303.619 23.1562 303.49 23.3672 303.334 23.5312C303.182 23.6914 302.998 23.8105 302.783 23.8887C302.568 23.9629 302.32 24 302.039 24H301.699V23.0449L301.934 23.0273C302.102 23.0156 302.244 22.9766 302.361 22.9102C302.482 22.8438 302.584 22.7461 302.666 22.6172C302.748 22.4844 302.814 22.3145 302.865 22.1074C302.92 21.9004 302.961 21.6543 302.988 21.3691C303.02 21.084 303.043 20.752 303.059 20.373L303.176 17.6602ZM310.986 23.3438L312.75 17.6602H313.91L311.367 24.9785C311.309 25.1348 311.23 25.3027 311.133 25.4824C311.039 25.666 310.918 25.8398 310.77 26.0039C310.621 26.168 310.441 26.3008 310.23 26.4023C310.023 26.5078 309.775 26.5605 309.486 26.5605C309.4 26.5605 309.291 26.5488 309.158 26.5254C309.025 26.502 308.932 26.4824 308.877 26.4668L308.871 25.5879C308.902 25.5918 308.951 25.5957 309.018 25.5996C309.088 25.6074 309.137 25.6113 309.164 25.6113C309.41 25.6113 309.619 25.5781 309.791 25.5117C309.963 25.4492 310.107 25.3418 310.225 25.1895C310.346 25.041 310.449 24.8359 310.535 24.5742L310.986 23.3438ZM309.691 17.6602L311.338 22.582L311.619 23.7246L310.84 24.123L308.508 17.6602H309.691ZM319.67 17.6602V24H318.586V17.6602H319.67ZM319.301 20.5723V21.4629C319.082 21.5449 318.859 21.6191 318.633 21.6855C318.41 21.748 318.174 21.7988 317.924 21.8379C317.678 21.873 317.41 21.8906 317.121 21.8906C316.621 21.8906 316.188 21.8047 315.82 21.6328C315.453 21.457 315.17 21.1934 314.971 20.8418C314.771 20.4863 314.672 20.0391 314.672 19.5V17.6484H315.756V19.5C315.756 19.8516 315.809 20.1367 315.914 20.3555C316.02 20.5742 316.174 20.7363 316.377 20.8418C316.58 20.9434 316.828 20.9941 317.121 20.9941C317.402 20.9941 317.666 20.9766 317.912 20.9414C318.162 20.9023 318.4 20.8516 318.627 20.7891C318.857 20.7266 319.082 20.6543 319.301 20.5723ZM322.588 22.2832L325.512 17.6602H326.602V24H325.512V19.377L322.588 24H321.51V17.6602H322.588V22.2832ZM330.926 17.6602V24H329.836V17.6602H330.926ZM333.053 17.6602V18.5391H327.75V17.6602H333.053ZM335.01 19.8398H336.914C337.426 19.8398 337.857 19.9297 338.209 20.1094C338.561 20.2852 338.826 20.5293 339.006 20.8418C339.189 21.1504 339.281 21.502 339.281 21.8965C339.281 22.1895 339.23 22.4648 339.129 22.7227C339.027 22.9766 338.875 23.1992 338.672 23.3906C338.473 23.582 338.225 23.7324 337.928 23.8418C337.635 23.9473 337.297 24 336.914 24H334.219V17.6602H335.303V23.1094H336.914C337.227 23.1094 337.477 23.0527 337.664 22.9395C337.852 22.8262 337.986 22.6797 338.068 22.5C338.15 22.3203 338.191 22.1328 338.191 21.9375C338.191 21.7461 338.15 21.5586 338.068 21.375C337.986 21.1914 337.852 21.0391 337.664 20.918C337.477 20.793 337.227 20.7305 336.914 20.7305H335.01V19.8398ZM347.836 17.6602V18.5566H344.631V17.6602H347.836ZM344.789 17.6602V24H343.705V17.6602H344.789ZM348.797 17.6602V24H347.707V17.6602H348.797ZM353.168 24.1172C352.727 24.1172 352.326 24.043 351.967 23.8945C351.611 23.7422 351.305 23.5293 351.047 23.2559C350.793 22.9824 350.598 22.6582 350.461 22.2832C350.324 21.9082 350.256 21.498 350.256 21.0527V20.8066C350.256 20.291 350.332 19.832 350.484 19.4297C350.637 19.0234 350.844 18.6797 351.105 18.3984C351.367 18.1172 351.664 17.9043 351.996 17.7598C352.328 17.6152 352.672 17.543 353.027 17.543C353.48 17.543 353.871 17.6211 354.199 17.7773C354.531 17.9336 354.803 18.1523 355.014 18.4336C355.225 18.7109 355.381 19.0391 355.482 19.418C355.584 19.793 355.635 20.2031 355.635 20.6484V21.1348H350.9V20.25H354.551V20.168C354.535 19.8867 354.477 19.6133 354.375 19.3477C354.277 19.082 354.121 18.8633 353.906 18.6914C353.691 18.5195 353.398 18.4336 353.027 18.4336C352.781 18.4336 352.555 18.4863 352.348 18.5918C352.141 18.6934 351.963 18.8457 351.814 19.0488C351.666 19.252 351.551 19.5 351.469 19.793C351.387 20.0859 351.346 20.4238 351.346 20.8066V21.0527C351.346 21.3535 351.387 21.6367 351.469 21.9023C351.555 22.1641 351.678 22.3945 351.838 22.5938C352.002 22.793 352.199 22.9492 352.43 23.0625C352.664 23.1758 352.93 23.2324 353.227 23.2324C353.609 23.2324 353.934 23.1543 354.199 22.998C354.465 22.8418 354.697 22.6328 354.896 22.3711L355.553 22.8926C355.416 23.0996 355.242 23.2969 355.031 23.4844C354.82 23.6719 354.561 23.8242 354.252 23.9414C353.947 24.0586 353.586 24.1172 353.168 24.1172ZM357.984 18.8789V26.4375H356.895V17.6602H357.891L357.984 18.8789ZM362.256 20.7773V20.9004C362.256 21.3613 362.201 21.7891 362.092 22.1836C361.982 22.5742 361.822 22.9141 361.611 23.2031C361.404 23.4922 361.148 23.7168 360.844 23.877C360.539 24.0371 360.189 24.1172 359.795 24.1172C359.393 24.1172 359.037 24.0508 358.729 23.918C358.42 23.7852 358.158 23.5918 357.943 23.3379C357.729 23.084 357.557 22.7793 357.428 22.4238C357.303 22.0684 357.217 21.668 357.17 21.2227V20.5664C357.217 20.0977 357.305 19.6777 357.434 19.3066C357.562 18.9355 357.732 18.6191 357.943 18.3574C358.158 18.0918 358.418 17.8906 358.723 17.7539C359.027 17.6133 359.379 17.543 359.777 17.543C360.176 17.543 360.529 17.6211 360.838 17.7773C361.146 17.9297 361.406 18.1484 361.617 18.4336C361.828 18.7188 361.986 19.0605 362.092 19.459C362.201 19.8535 362.256 20.293 362.256 20.7773ZM361.166 20.9004V20.7773C361.166 20.4609 361.133 20.1641 361.066 19.8867C361 19.6055 360.896 19.3594 360.756 19.1484C360.619 18.9336 360.443 18.7656 360.229 18.6445C360.014 18.5195 359.758 18.457 359.461 18.457C359.188 18.457 358.949 18.5039 358.746 18.5977C358.547 18.6914 358.377 18.8184 358.236 18.9785C358.096 19.1348 357.98 19.3145 357.891 19.5176C357.805 19.7168 357.74 19.9238 357.697 20.1387V21.6562C357.775 21.9297 357.885 22.1875 358.025 22.4297C358.166 22.668 358.354 22.8613 358.588 23.0098C358.822 23.1543 359.117 23.2266 359.473 23.2266C359.766 23.2266 360.018 23.166 360.229 23.0449C360.443 22.9199 360.619 22.75 360.756 22.5352C360.896 22.3203 361 22.0742 361.066 21.7969C361.133 21.5156 361.166 21.2168 361.166 20.9004ZM366.615 21.2109H364.535L364.523 20.3438H366.223C366.559 20.3438 366.838 20.3105 367.061 20.2441C367.287 20.1777 367.457 20.0781 367.57 19.9453C367.684 19.8125 367.74 19.6484 367.74 19.4531C367.74 19.3008 367.707 19.168 367.641 19.0547C367.578 18.9375 367.482 18.8418 367.354 18.7676C367.225 18.6895 367.064 18.6328 366.873 18.5977C366.686 18.5586 366.465 18.5391 366.211 18.5391H364.822V24H363.738V17.6602H366.211C366.613 17.6602 366.975 17.6953 367.295 17.7656C367.619 17.8359 367.895 17.9434 368.121 18.0879C368.352 18.2285 368.527 18.4082 368.648 18.627C368.77 18.8457 368.83 19.1035 368.83 19.4004C368.83 19.5918 368.791 19.7734 368.713 19.9453C368.635 20.1172 368.52 20.2695 368.367 20.4023C368.215 20.5352 368.027 20.6445 367.805 20.7305C367.582 20.8125 367.326 20.8652 367.037 20.8887L366.615 21.2109ZM366.615 24H364.143L364.682 23.1211H366.615C366.916 23.1211 367.166 23.084 367.365 23.0098C367.564 22.9316 367.713 22.8223 367.811 22.6816C367.912 22.5371 367.963 22.3652 367.963 22.166C367.963 21.9668 367.912 21.7969 367.811 21.6562C367.713 21.5117 367.564 21.4023 367.365 21.3281C367.166 21.25 366.916 21.2109 366.615 21.2109H364.969L364.98 20.3438H367.037L367.43 20.6719C367.777 20.6992 368.072 20.7852 368.314 20.9297C368.557 21.0742 368.74 21.2578 368.865 21.4805C368.99 21.6992 369.053 21.9375 369.053 22.1953C369.053 22.4922 368.996 22.7539 368.883 22.9805C368.773 23.207 368.613 23.3965 368.402 23.5488C368.191 23.6973 367.936 23.8105 367.635 23.8887C367.334 23.9629 366.994 24 366.615 24ZM371.396 19.8398H373.301C373.812 19.8398 374.244 19.9297 374.596 20.1094C374.947 20.2852 375.213 20.5293 375.393 20.8418C375.576 21.1504 375.668 21.502 375.668 21.8965C375.668 22.1895 375.617 22.4648 375.516 22.7227C375.414 22.9766 375.262 23.1992 375.059 23.3906C374.859 23.582 374.611 23.7324 374.314 23.8418C374.021 23.9473 373.684 24 373.301 24H370.605V17.6602H371.689V23.1094H373.301C373.613 23.1094 373.863 23.0527 374.051 22.9395C374.238 22.8262 374.373 22.6797 374.455 22.5C374.537 22.3203 374.578 22.1328 374.578 21.9375C374.578 21.7461 374.537 21.5586 374.455 21.375C374.373 21.1914 374.238 21.0391 374.051 20.918C373.863 20.793 373.613 20.7305 373.301 20.7305H371.396V19.8398ZM377.924 17.6602V24H376.84V17.6602H377.924ZM380.994 22.2832L383.918 17.6602H385.008V24H383.918V19.377L380.994 24H379.916V17.6602H380.994V22.2832ZM383.326 15.3633H384.205C384.205 15.668 384.135 15.9395 383.994 16.1777C383.854 16.4121 383.652 16.5957 383.391 16.7285C383.129 16.8613 382.818 16.9277 382.459 16.9277C381.916 16.9277 381.486 16.7832 381.17 16.4941C380.857 16.2012 380.701 15.8242 380.701 15.3633H381.58C381.58 15.5938 381.646 15.7969 381.779 15.9727C381.912 16.1484 382.139 16.2363 382.459 16.2363C382.771 16.2363 382.994 16.1484 383.127 15.9727C383.26 15.7969 383.326 15.5938 383.326 15.3633ZM390.902 17.6602V24H389.818V17.6602H390.902ZM395.062 17.6602L392.057 21.293H390.539L390.375 20.3438H391.617L393.744 17.6602H395.062ZM393.896 24L391.564 21.1289L392.262 20.3438L395.273 24H393.896ZM397.998 23.3438L399.762 17.6602H400.922L398.379 24.9785C398.32 25.1348 398.242 25.3027 398.145 25.4824C398.051 25.666 397.93 25.8398 397.781 26.0039C397.633 26.168 397.453 26.3008 397.242 26.4023C397.035 26.5078 396.787 26.5605 396.498 26.5605C396.412 26.5605 396.303 26.5488 396.17 26.5254C396.037 26.502 395.943 26.4824 395.889 26.4668L395.883 25.5879C395.914 25.5918 395.963 25.5957 396.029 25.5996C396.1 25.6074 396.148 25.6113 396.176 25.6113C396.422 25.6113 396.631 25.5781 396.803 25.5117C396.975 25.4492 397.119 25.3418 397.236 25.1895C397.357 25.041 397.461 24.8359 397.547 24.5742L397.998 23.3438ZM396.703 17.6602L398.35 22.582L398.631 23.7246L397.852 24.123L395.52 17.6602H396.703ZM405.967 14.9004H406.857C406.857 15.2832 406.799 15.5879 406.682 15.8145C406.564 16.0371 406.404 16.209 406.201 16.3301C406.002 16.4512 405.775 16.543 405.521 16.6055C405.271 16.668 405.012 16.7285 404.742 16.7871C404.406 16.8574 404.094 16.9688 403.805 17.1211C403.52 17.2695 403.273 17.4805 403.066 17.7539C402.863 18.0273 402.713 18.3828 402.615 18.8203C402.521 19.2578 402.496 19.7988 402.539 20.4434V20.9824H401.648V20.4434C401.648 19.7207 401.717 19.0898 401.854 18.5508C401.994 18.0117 402.191 17.5566 402.445 17.1855C402.699 16.8145 403 16.5195 403.348 16.3008C403.699 16.082 404.086 15.9316 404.508 15.8496C404.812 15.791 405.074 15.7285 405.293 15.6621C405.512 15.5918 405.678 15.498 405.791 15.3809C405.908 15.2637 405.967 15.1035 405.967 14.9004ZM404.684 18.0234C405.098 18.0234 405.467 18.0957 405.791 18.2402C406.115 18.3848 406.391 18.5859 406.617 18.8438C406.844 19.1016 407.016 19.4062 407.133 19.7578C407.254 20.1055 407.314 20.4844 407.314 20.8945V21.0234C407.314 21.4648 407.25 21.875 407.121 22.2539C406.996 22.6289 406.811 22.957 406.564 23.2383C406.322 23.5156 406.025 23.7324 405.674 23.8887C405.326 24.0449 404.93 24.123 404.484 24.123C404.039 24.123 403.641 24.0449 403.289 23.8887C402.941 23.7324 402.645 23.5156 402.398 23.2383C402.152 22.957 401.965 22.6289 401.836 22.2539C401.711 21.875 401.648 21.4648 401.648 21.0234V20.8945C401.648 20.7969 401.666 20.7012 401.701 20.6074C401.736 20.5137 401.779 20.418 401.83 20.3203C401.885 20.2227 401.934 20.1191 401.977 20.0098C402.121 19.6582 402.318 19.332 402.568 19.0312C402.822 18.7305 403.125 18.4883 403.477 18.3047C403.832 18.1172 404.234 18.0234 404.684 18.0234ZM404.473 18.9082C404.074 18.9082 403.746 19 403.488 19.1836C403.234 19.3672 403.045 19.6113 402.92 19.916C402.795 20.2168 402.732 20.543 402.732 20.8945V21.0234C402.732 21.3203 402.768 21.6016 402.838 21.8672C402.908 22.1328 403.014 22.3691 403.154 22.5762C403.299 22.7793 403.48 22.9395 403.699 23.0566C403.922 23.1738 404.184 23.2324 404.484 23.2324C404.785 23.2324 405.045 23.1738 405.264 23.0566C405.482 22.9395 405.662 22.7793 405.803 22.5762C405.943 22.3691 406.049 22.1328 406.119 21.8672C406.189 21.6016 406.225 21.3203 406.225 21.0234V20.8945C406.225 20.6289 406.189 20.377 406.119 20.1387C406.049 19.9004 405.941 19.6895 405.797 19.5059C405.656 19.3223 405.475 19.1777 405.252 19.0723C405.033 18.9629 404.773 18.9082 404.473 18.9082ZM408.258 20.9004V20.7656C408.258 20.3086 408.324 19.8848 408.457 19.4941C408.59 19.0996 408.781 18.7578 409.031 18.4688C409.281 18.1758 409.584 17.9492 409.939 17.7891C410.295 17.625 410.693 17.543 411.135 17.543C411.58 17.543 411.98 17.625 412.336 17.7891C412.695 17.9492 413 18.1758 413.25 18.4688C413.504 18.7578 413.697 19.0996 413.83 19.4941C413.963 19.8848 414.029 20.3086 414.029 20.7656V20.9004C414.029 21.3574 413.963 21.7812 413.83 22.1719C413.697 22.5625 413.504 22.9043 413.25 23.1973C413 23.4863 412.697 23.7129 412.342 23.877C411.99 24.0371 411.592 24.1172 411.146 24.1172C410.701 24.1172 410.301 24.0371 409.945 23.877C409.59 23.7129 409.285 23.4863 409.031 23.1973C408.781 22.9043 408.59 22.5625 408.457 22.1719C408.324 21.7812 408.258 21.3574 408.258 20.9004ZM409.342 20.7656V20.9004C409.342 21.2168 409.379 21.5156 409.453 21.7969C409.527 22.0742 409.639 22.3203 409.787 22.5352C409.939 22.75 410.129 22.9199 410.355 23.0449C410.582 23.166 410.846 23.2266 411.146 23.2266C411.443 23.2266 411.703 23.166 411.926 23.0449C412.152 22.9199 412.34 22.75 412.488 22.5352C412.637 22.3203 412.748 22.0742 412.822 21.7969C412.9 21.5156 412.939 21.2168 412.939 20.9004V20.7656C412.939 20.4531 412.9 20.1582 412.822 19.8809C412.748 19.5996 412.635 19.3516 412.482 19.1367C412.334 18.918 412.146 18.7461 411.92 18.6211C411.697 18.4961 411.436 18.4336 411.135 18.4336C410.838 18.4336 410.576 18.4961 410.35 18.6211C410.127 18.7461 409.939 18.918 409.787 19.1367C409.639 19.3516 409.527 19.5996 409.453 19.8809C409.379 20.1582 409.342 20.4531 409.342 20.7656ZM416.566 17.6602V24H415.482V17.6602H416.566ZM420.727 17.6602L417.721 21.293H416.203L416.039 20.3438H417.281L419.408 17.6602H420.727ZM419.561 24L417.229 21.1289L417.926 20.3438L420.938 24H419.561ZM421.898 23.4258C421.898 23.2422 421.955 23.0879 422.068 22.9629C422.186 22.834 422.354 22.7695 422.572 22.7695C422.791 22.7695 422.957 22.834 423.07 22.9629C423.188 23.0879 423.246 23.2422 423.246 23.4258C423.246 23.6055 423.188 23.7578 423.07 23.8828C422.957 24.0078 422.791 24.0703 422.572 24.0703C422.354 24.0703 422.186 24.0078 422.068 23.8828C421.955 23.7578 421.898 23.6055 421.898 23.4258Z"></path>
</svg>
