<svg xmlns="http://www.w3.org/2000/svg" fill="none" viewBox="0 0 10 19" height="19" width="10">
<path fill-opacity="0.01" fill="white" d="M0 0.000248612L10 -1.675e-05V19L0 19.0002V0.000248612Z"></path>
<path fill="#45D2FF" d="M6.67283 14.1439C5.98483 14.1439 5.44483 14.0079 5.05283 13.7359C4.66083 13.4559 4.38483 13.0679 4.22483 12.5719C4.06483 12.0679 3.98483 11.4839 3.98483 10.8199V9.87188H2.92883V13.9999H0.804828V4.27988H2.92883V8.28788H3.98483V7.44788C3.98483 6.77588 4.06483 6.19588 4.22483 5.70788C4.38483 5.21188 4.66083 4.82788 5.05283 4.55588C5.44483 4.28388 5.98483 4.14788 6.67283 4.14788C7.36083 4.14788 7.90083 4.28388 8.29283 4.55588C8.68483 4.82788 8.96083 5.21188 9.12083 5.70788C9.28083 6.20388 9.36083 6.78388 9.36083 7.44788V10.8199C9.36083 11.4839 9.28083 12.0679 9.12083 12.5719C8.96083 13.0679 8.68483 13.4559 8.29283 13.7359C7.90083 14.0079 7.36083 14.1439 6.67283 14.1439ZM6.67283 12.6199C6.88883 12.6199 7.04483 12.5639 7.14083 12.4519C7.23683 12.3399 7.29683 12.1959 7.32083 12.0199C7.34483 11.8439 7.35683 11.6639 7.35683 11.4799V6.79988C7.35683 6.60788 7.34483 6.42788 7.32083 6.25988C7.29683 6.08388 7.23683 5.93988 7.14083 5.82788C7.04483 5.71588 6.88883 5.65988 6.67283 5.65988C6.46483 5.65988 6.30883 5.71588 6.20483 5.82788C6.10883 5.93988 6.04883 6.08388 6.02483 6.25988C6.00083 6.42788 5.98883 6.60788 5.98883 6.79988V11.4799C5.98883 11.6639 6.00083 11.8439 6.02483 12.0199C6.04883 12.1959 6.10883 12.3399 6.20483 12.4519C6.30883 12.5639 6.46483 12.6199 6.67283 12.6199Z"></path>
</svg>
