<svg xmlns="http://www.w3.org/2000/svg" fill="none" viewBox="0 0 140 22" height="22" width="140">
<rect fill="#0D0E12" height="22" width="140"></rect>
<path fill="white" d="M48.6 15V6.9H51.32C51.8067 6.9 52.2067 6.99333 52.52 7.18C52.8333 7.36 53.0667 7.62667 53.22 7.98C53.3733 8.32667 53.45 8.75 53.45 9.25C53.45 9.87667 53.3467 10.3567 53.14 10.69C52.9333 11.0167 52.6533 11.2433 52.3 11.37C51.9467 11.4967 51.55 11.56 51.11 11.56H50.39V15H48.6ZM50.39 10.31H50.99C51.21 10.31 51.3767 10.27 51.49 10.19C51.6033 10.11 51.6767 9.99 51.71 9.83C51.75 9.67 51.77 9.46667 51.77 9.22C51.77 9.01333 51.7533 8.83333 51.72 8.68C51.6933 8.52 51.6233 8.39333 51.51 8.3C51.3967 8.20667 51.22 8.16 50.98 8.16H50.39V10.31ZM54.3129 15V6.9H56.1029V13.79H57.9629V15H54.3129ZM58.3565 15L59.8865 6.9H61.9265L63.4365 15H61.7865L61.5165 13.29H60.3265L60.0465 15H58.3565ZM60.4865 12.22H61.3465L60.9165 9.06L60.4865 12.22ZM64.8739 15V11.69L63.3339 6.9H65.0239L65.7939 9.46L66.4839 6.9H68.1039L66.5939 11.69V15H64.8739ZM71.9941 15L71.0141 6.9H72.5341L73.0141 11.62L73.6241 6.91H74.8141L75.4541 11.59L75.9441 6.9H77.4441L76.4741 15H74.9141L74.2241 10.11L73.5741 15H71.9941ZM78.3268 15V6.9H80.1168V15H78.3268ZM82.0546 15V8.23H80.8346V6.9H85.0646V8.23H83.8546V15H82.0546ZM85.8077 15V6.9H87.5977V10.18H88.8477V6.9H90.6477V15H88.8477V11.46H87.5977V15H85.8077ZM94.4398 15V6.9H96.5498C96.8965 6.9 97.2232 6.92667 97.5298 6.98C97.8432 7.03333 98.1198 7.13667 98.3598 7.29C98.5998 7.43667 98.7865 7.65 98.9198 7.93C99.0598 8.20333 99.1298 8.56667 99.1298 9.02C99.1298 9.34667 99.0798 9.62333 98.9798 9.85C98.8865 10.07 98.7498 10.2467 98.5698 10.38C98.3965 10.5133 98.1865 10.6033 97.9398 10.65C98.2532 10.69 98.5165 10.7933 98.7298 10.96C98.9432 11.12 99.1032 11.3367 99.2098 11.61C99.3232 11.8833 99.3798 12.2133 99.3798 12.6C99.3798 13.02 99.3232 13.3833 99.2098 13.69C99.1032 13.99 98.9465 14.2367 98.7398 14.43C98.5332 14.6233 98.2765 14.7667 97.9698 14.86C97.6698 14.9533 97.3232 15 96.9298 15H94.4398ZM96.2298 13.75H96.6098C97.0032 13.75 97.2732 13.65 97.4198 13.45C97.5732 13.25 97.6498 12.9567 97.6498 12.57C97.6498 12.2633 97.6165 12.02 97.5498 11.84C97.4832 11.66 97.3732 11.53 97.2198 11.45C97.0665 11.3633 96.8598 11.32 96.5998 11.32H96.2298V13.75ZM96.2298 10.14H96.5798C96.8532 10.14 97.0598 10.1 97.1998 10.02C97.3398 9.93333 97.4332 9.81 97.4798 9.65C97.5332 9.49 97.5598 9.29667 97.5598 9.07C97.5598 8.85667 97.5198 8.68 97.4398 8.54C97.3665 8.39333 97.2532 8.28333 97.0998 8.21C96.9532 8.13667 96.7665 8.1 96.5398 8.1H96.2298V10.14ZM102.639 15.12C102.032 15.12 101.552 15.0133 101.199 14.8C100.845 14.5867 100.592 14.28 100.439 13.88C100.285 13.48 100.209 13.0033 100.209 12.45V9.44C100.209 8.88 100.285 8.40333 100.439 8.01C100.592 7.61667 100.845 7.31667 101.199 7.11C101.552 6.89667 102.032 6.79 102.639 6.79C103.252 6.79 103.735 6.89667 104.089 7.11C104.449 7.31667 104.705 7.61667 104.859 8.01C105.012 8.40333 105.089 8.88 105.089 9.44V12.45C105.089 13.0033 105.012 13.48 104.859 13.88C104.705 14.28 104.449 14.5867 104.089 14.8C103.735 15.0133 103.252 15.12 102.639 15.12ZM102.639 13.85C102.825 13.85 102.962 13.8033 103.049 13.71C103.135 13.6167 103.192 13.4967 103.219 13.35C103.245 13.2033 103.259 13.0533 103.259 12.9V9C103.259 8.84 103.245 8.69 103.219 8.55C103.192 8.40333 103.135 8.28333 103.049 8.19C102.962 8.09667 102.825 8.05 102.639 8.05C102.465 8.05 102.335 8.09667 102.249 8.19C102.162 8.28333 102.105 8.40333 102.079 8.55C102.052 8.69 102.039 8.84 102.039 9V12.9C102.039 13.0533 102.049 13.2033 102.069 13.35C102.095 13.4967 102.149 13.6167 102.229 13.71C102.315 13.8033 102.452 13.85 102.639 13.85ZM106.83 15V8.23H105.61V6.9H109.84V8.23H108.63V15H106.83ZM112.703 15.12C112.196 15.12 111.773 15.03 111.433 14.85C111.093 14.67 110.836 14.3933 110.663 14.02C110.49 13.64 110.393 13.15 110.373 12.55L111.903 12.32C111.91 12.6667 111.94 12.9467 111.993 13.16C112.053 13.3733 112.133 13.5267 112.233 13.62C112.34 13.7133 112.466 13.76 112.613 13.76C112.8 13.76 112.92 13.6967 112.973 13.57C113.033 13.4433 113.063 13.31 113.063 13.17C113.063 12.8367 112.983 12.5567 112.823 12.33C112.663 12.0967 112.446 11.8633 112.173 11.63L111.473 11.02C111.166 10.76 110.906 10.4667 110.693 10.14C110.486 9.80667 110.383 9.39667 110.383 8.91C110.383 8.22333 110.586 7.7 110.993 7.34C111.4 6.97333 111.953 6.79 112.653 6.79C113.086 6.79 113.433 6.86333 113.693 7.01C113.96 7.15667 114.16 7.35 114.293 7.59C114.433 7.82333 114.526 8.07333 114.573 8.34C114.626 8.6 114.656 8.85 114.663 9.09L113.123 9.28C113.116 9.04 113.1 8.83333 113.073 8.66C113.053 8.48 113.006 8.34333 112.933 8.25C112.86 8.15 112.746 8.1 112.593 8.1C112.426 8.1 112.303 8.17 112.223 8.31C112.15 8.45 112.113 8.59 112.113 8.73C112.113 9.03 112.183 9.27667 112.323 9.47C112.47 9.65667 112.66 9.85333 112.893 10.06L113.563 10.65C113.916 10.95 114.213 11.29 114.453 11.67C114.7 12.05 114.823 12.52 114.823 13.08C114.823 13.46 114.736 13.8067 114.563 14.12C114.39 14.4267 114.143 14.67 113.823 14.85C113.51 15.03 113.136 15.12 112.703 15.12Z"></path>
<rect stroke="#0D0E12" fill="white" rx="1.60526" height="4.6" width="3.21053" y="11.3999" x="35.2894"></rect>
<rect stroke="#0D0E12" fill="white" rx="1.60526" height="4.6" width="3.21053" y="11.3999" x="23.5"></rect>
<rect stroke="#0D0E12" fill="white" rx="2.5" height="9.4" width="11.6316" y="7.3999" x="25.1842"></rect>
<line stroke="#0D0E12" y2="4.49995" x2="30.921" y1="7.69995" x1="30.921"></line>
<line stroke="#0D0E12" y2="15.2" x2="34.7894" y1="15.2" x1="32.2631"></line>
<circle stroke="#0D0E12" fill="white" r="1.5" cy="5" cx="31"></circle>
<path stroke="#0D0E12" fill="white" d="M29.2369 12.0999C29.2369 12.4626 28.9197 12.7999 28.4737 12.7999C28.0278 12.7999 27.7106 12.4626 27.7106 12.0999C27.7106 11.7372 28.0278 11.3999 28.4737 11.3999C28.9197 11.3999 29.2369 11.7372 29.2369 12.0999Z"></path>
<path stroke="#0D0E12" fill="white" d="M35.1316 12.0999C35.1316 12.4626 34.8144 12.7999 34.3684 12.7999C33.9225 12.7999 33.6053 12.4626 33.6053 12.0999C33.6053 11.7372 33.9225 11.3999 34.3684 11.3999C34.8144 11.3999 35.1316 11.7372 35.1316 12.0999Z"></path>
</svg>
