<svg xmlns="http://www.w3.org/2000/svg" fill="none" viewBox="0 0 13 18" height="18" width="13">
<rect fill-opacity="0.01" fill="#0D0E12" height="18" width="13"></rect>
<path fill="white" d="M0.78 14L2.892 5.804H0.24V4.28H4.848V5.66L2.736 14H0.78ZM8.58544 14.144C7.95344 14.144 7.43744 14.008 7.03744 13.736C6.64544 13.456 6.35744 13.076 6.17344 12.596C5.98944 12.116 5.89744 11.568 5.89744 10.952V7.436C5.89744 6.804 5.96944 6.24 6.11344 5.744C6.26544 5.248 6.53344 4.86 6.91744 4.58C7.30144 4.292 7.85344 4.148 8.57344 4.148C9.19744 4.148 9.68944 4.244 10.0494 4.436C10.4094 4.628 10.6654 4.908 10.8174 5.276C10.9694 5.644 11.0454 6.1 11.0454 6.644C11.0454 6.676 11.0454 6.708 11.0454 6.74C11.0534 6.764 11.0574 6.788 11.0574 6.812H9.17344C9.17344 6.42 9.14144 6.132 9.07744 5.948C9.02144 5.756 8.85744 5.66 8.58544 5.66C8.40144 5.66 8.26144 5.716 8.16544 5.828C8.07744 5.94 8.01744 6.136 7.98544 6.416C7.95344 6.696 7.93744 7.088 7.93744 7.592V8.456C8.03344 8.288 8.18944 8.16 8.40544 8.072C8.62144 7.976 8.86544 7.924 9.13744 7.916C9.64944 7.9 10.0574 8.016 10.3614 8.264C10.6734 8.512 10.8974 8.852 11.0334 9.284C11.1694 9.708 11.2374 10.184 11.2374 10.712C11.2374 11.392 11.1574 11.992 10.9974 12.512C10.8374 13.024 10.5654 13.424 10.1814 13.712C9.79744 14 9.26544 14.144 8.58544 14.144ZM8.60944 12.668C8.79344 12.668 8.92544 12.608 9.00544 12.488C9.09344 12.36 9.14944 12.176 9.17344 11.936C9.20544 11.688 9.22144 11.384 9.22144 11.024C9.22144 10.704 9.20944 10.428 9.18544 10.196C9.16944 9.964 9.11744 9.784 9.02944 9.656C8.94144 9.52 8.79344 9.452 8.58544 9.452C8.48944 9.452 8.39744 9.472 8.30944 9.512C8.22144 9.552 8.14544 9.604 8.08144 9.668C8.01744 9.724 7.96944 9.78 7.93744 9.836V11.42C7.93744 11.636 7.95344 11.84 7.98544 12.032C8.02544 12.224 8.09344 12.38 8.18944 12.5C8.29344 12.612 8.43344 12.668 8.60944 12.668Z"></path>
</svg>
