<svg xmlns="http://www.w3.org/2000/svg" fill="none" viewBox="0 0 12 12" height="12" width="12">
<circle stroke-width="0.5" stroke="#0D0E12" fill="#FDCD4D" r="5" cy="6" cx="6"></circle>
<path stroke-linecap="round" stroke-width="0.5" stroke="#0D0E12" d="M5.5 4.375C5.25 3.875 4.25 3.875 4 4.37501"></path>
<path stroke-linecap="round" stroke-width="0.5" stroke="#0D0E12" d="M8 4.375C7.75 3.875 6.75 3.875 6.5 4.37501"></path>
<path fill="#E60000" d="M8 10C7.26186 10.246 6.52372 9.76563 6.26223 8.79706C6.2552 8.77103 6.27057 8.74412 6.2965 8.73671L7.96491 8.26003C7.98581 8.25405 8.00826 8.26235 8.02021 8.28052C8.5066 9.02026 8.73983 9.75339 8 10Z"></path>
<path stroke-linecap="round" stroke-width="0.25" stroke="#C40000" d="M7.5 9.25C7.25 8.75 7.25 8.5 7.25 8.5"></path>
<path fill="#0D0E12" d="M8.559 7.5116C8.66538 7.59523 8.68444 7.74991 8.59358 7.85017C8.29665 8.17787 7.93977 8.44689 7.54143 8.64229C7.06963 8.87373 6.55178 8.99595 6.02629 8.9999C5.5008 9.00385 4.98117 8.88942 4.50595 8.66509C4.10471 8.47569 3.74384 8.21206 3.44201 7.88887C3.34966 7.78998 3.3664 7.63503 3.47151 7.54982V7.54982C3.57662 7.46461 3.73021 7.48153 3.82368 7.57936C4.0784 7.84595 4.38043 8.06399 4.71512 8.22198C5.1238 8.4149 5.57069 8.51331 6.02261 8.50992C6.47453 8.50652 6.91988 8.40141 7.32563 8.20237C7.6579 8.03938 7.95663 7.81682 8.20731 7.54644C8.2993 7.44721 8.45262 7.42798 8.559 7.5116V7.5116Z"></path>
</svg>
