<svg xmlns="http://www.w3.org/2000/svg" fill="none" viewBox="0 0 12 12" height="12" width="12">
<circle stroke-width="0.5" stroke="#0D0E12" fill="#FDCD4D" r="5" cy="6" cx="6"></circle>
<path fill="white" d="M3 7H9V8L7.75 9.25L6 9.75L4.25 9.25L3 8V7Z"></path>
<path fill="#0D0E12" d="M9.255 6.5C9.39031 6.5 9.50089 6.60984 9.49143 6.74482C9.43265 7.58362 9.07331 8.37644 8.47487 8.97487C7.8185 9.63125 6.92826 10 6 10C5.07174 10 4.1815 9.63125 3.52513 8.97487C2.92669 8.37644 2.56735 7.58362 2.50857 6.74482C2.49911 6.60984 2.60969 6.5 2.745 6.5V6.5C2.88031 6.5 2.98896 6.60989 2.99996 6.74475C3.05775 7.45344 3.3651 8.12188 3.87161 8.62839C4.43609 9.19288 5.2017 9.51 6 9.51C6.7983 9.51 7.56391 9.19288 8.12839 8.62839C8.6349 8.12188 8.94225 7.45344 9.00004 6.74475C9.01104 6.60989 9.11969 6.5 9.255 6.5V6.5Z"></path>
<path stroke-linecap="round" stroke-width="0.5" stroke="#0D0E12" d="M2.75 6.75H9.25"></path>
<path stroke-linecap="round" stroke-width="0.5" stroke="#0D0E12" d="M8 3.5L6.58377 4.6802C6.55091 4.70758 6.56537 4.76089 6.60756 4.76793L8 5"></path>
<path stroke-linecap="round" stroke-width="0.5" stroke="#0D0E12" d="M4 3.5L5.41623 4.6802C5.44909 4.70758 5.43463 4.76089 5.39244 4.76793L4 5"></path>
</svg>
