<svg xmlns="http://www.w3.org/2000/svg" fill="none" viewBox="0 0 12 12" height="12" width="12">
<circle stroke-width="0.5" stroke="#0D0E12" fill="#FDCD4D" r="5" cy="6" cx="6"></circle>
<path stroke-linecap="round" stroke-width="0.5" stroke="#0D0E12" d="M4.5 8.5C6 8.5 7.5 9 7.5 9"></path>
<path fill="#0D0E12" d="M2.44442 3.5C3.60446 3.5 5.55556 4.01282 5.55556 4.01282H6V4.52564C6 4.52564 5.77778 4.52564 5.55556 4.78205C5.33333 5.03846 5.25 6 4.75 6C4.25 6 3.5 6 3 5.75C2.5 5.5 2.26011 4.01166 2.25 4C2.0278 4 2 4.00641 2 3.75C2 3.49359 2.22222 3.5 2.44442 3.5Z"></path>
<path fill="#0D0E12" d="M9.55558 3.5C8.39554 3.5 6.44444 4.01282 6.44444 4.01282H6V4.52564C6 4.52564 6.22222 4.52564 6.44444 4.78205C6.66667 5.03846 6.75 6 7.25 6C7.75 6 8.5 6 9 5.75C9.5 5.5 9.73989 4.01166 9.75 4C9.9722 4 10 4.00641 10 3.75C10 3.49359 9.77778 3.5 9.55558 3.5Z"></path>
</svg>
