<svg xmlns="http://www.w3.org/2000/svg" fill="none" viewBox="0 0 20 20" height="20" width="20">
<path fill="white" d="M8.66667 3.66667C8.66667 3.29848 8.96514 3 9.33333 3H10.6667C11.0349 3 11.3333 3.29848 11.3333 3.66667V4.49109C11.9128 4.63083 12.4575 4.85962 12.9522 5.16216L13.5355 4.57885C13.7959 4.3185 14.218 4.3185 14.4783 4.57885L15.4212 5.52166C15.6815 5.78201 15.6815 6.20412 15.4212 6.46447L14.8378 7.04778C15.1404 7.5425 15.3692 8.08722 15.5089 8.66667H16.3333C16.7015 8.66667 17 8.96514 17 9.33333V10.6667C17 11.0349 16.7015 11.3333 16.3333 11.3333H15.5089C15.3692 11.9128 15.1404 12.4575 14.8378 12.9522L15.4212 13.5355C15.6815 13.7959 15.6815 14.218 15.4212 14.4783L14.4783 15.4212C14.218 15.6815 13.7959 15.6815 13.5355 15.4212L12.9522 14.8378C12.4575 15.1404 11.9128 15.3692 11.3333 15.5089V16.3333C11.3333 16.7015 11.0349 17 10.6667 17H9.33333C8.96514 17 8.66667 16.7015 8.66667 16.3333V15.5089C8.08722 15.3692 7.5425 15.1404 7.04778 14.8378L6.46447 15.4212C6.20412 15.6815 5.78201 15.6815 5.52166 15.4212L4.57885 14.4783C4.3185 14.218 4.3185 13.7959 4.57885 13.5355L5.16216 12.9522C4.85962 12.4575 4.63083 11.9128 4.49109 11.3333H3.66667C3.29848 11.3333 3 11.0349 3 10.6667V9.33333C3 8.96514 3.29848 8.66667 3.66667 8.66667H4.49109C4.63083 8.08722 4.85962 7.54249 5.16216 7.04778L4.57885 6.46447C4.3185 6.20412 4.3185 5.78201 4.57885 5.52166L5.52166 4.57885C5.78201 4.3185 6.20412 4.3185 6.46447 4.57885L7.04778 5.16216C7.5425 4.85962 8.08722 4.63083 8.66667 4.49109V3.66667ZM10 13.6666C12.025 13.6666 13.6667 12.025 13.6667 9.99998C13.6667 7.97493 12.025 6.33331 10 6.33331C7.97496 6.33331 6.33333 7.97493 6.33333 9.99998C6.33333 12.025 7.97496 13.6666 10 13.6666Z" clip-rule="evenodd" fill-rule="evenodd"></path>
<rect fill-opacity="0.01" fill="black" height="20" width="20"></rect>
</svg>
