<svg xmlns="http://www.w3.org/2000/svg" fill="none" viewBox="0 0 13 18" height="18" width="13">
<rect fill-opacity="0.01" fill="#0D0E12" height="18" width="13"></rect>
<path fill="white" d="M1.596 14V6.26C1.508 6.308 1.408 6.356 1.296 6.404C1.184 6.452 1.064 6.504 0.936 6.56C0.816 6.608 0.696 6.656 0.576 6.704C0.464 6.752 0.36 6.8 0.264 6.848V5.36C0.352 5.312 0.476 5.248 0.636 5.168C0.796 5.08 0.968 4.984 1.152 4.88C1.336 4.776 1.508 4.672 1.668 4.568C1.828 4.456 1.948 4.36 2.028 4.28H3.6V14H1.596ZM7.72406 14.18C7.01206 14.18 6.47206 14.056 6.10406 13.808C5.74406 13.552 5.50006 13.196 5.37206 12.74C5.24406 12.284 5.18006 11.756 5.18006 11.156H7.11206C7.11206 11.524 7.13206 11.824 7.17206 12.056C7.21206 12.288 7.28406 12.456 7.38806 12.56C7.50006 12.656 7.65606 12.7 7.85606 12.692C8.06406 12.684 8.21206 12.6 8.30006 12.44C8.38806 12.28 8.44006 12.052 8.45606 11.756C8.48006 11.452 8.49206 11.088 8.49206 10.664C8.49206 10.344 8.47206 10.06 8.43206 9.812C8.40006 9.564 8.32806 9.368 8.21606 9.224C8.11206 9.072 7.95206 8.996 7.73606 8.996C7.53606 8.996 7.37206 9.068 7.24406 9.212C7.11606 9.356 7.02406 9.58 6.96806 9.884H5.24006L5.42006 4.28H9.95606V5.96H7.02806L6.92006 7.964C7.00006 7.852 7.15206 7.756 7.37606 7.676C7.60006 7.588 7.84006 7.532 8.09606 7.508C8.59206 7.452 9.00806 7.544 9.34406 7.784C9.68806 8.016 9.94406 8.372 10.1121 8.852C10.2881 9.332 10.3761 9.92 10.3761 10.616C10.3761 11.136 10.3441 11.616 10.2801 12.056C10.2161 12.488 10.0921 12.864 9.90806 13.184C9.72406 13.496 9.45606 13.74 9.10406 13.916C8.75206 14.092 8.29206 14.18 7.72406 14.18Z"></path>
</svg>
