<svg xmlns="http://www.w3.org/2000/svg" fill="none" viewBox="0 0 13 18" height="18" width="13">
<rect fill-opacity="0.01" fill="#0D0E12" height="18" width="13"></rect>
<path fill="white" d="M3.06 14.18C2.348 14.18 1.808 14.056 1.44 13.808C1.08 13.552 0.836 13.196 0.708 12.74C0.58 12.284 0.516 11.756 0.516 11.156H2.448C2.448 11.524 2.468 11.824 2.508 12.056C2.548 12.288 2.62 12.456 2.724 12.56C2.836 12.656 2.992 12.7 3.192 12.692C3.4 12.684 3.548 12.6 3.636 12.44C3.724 12.28 3.776 12.052 3.792 11.756C3.816 11.452 3.828 11.088 3.828 10.664C3.828 10.344 3.808 10.06 3.768 9.812C3.736 9.564 3.664 9.368 3.552 9.224C3.448 9.072 3.288 8.996 3.072 8.996C2.872 8.996 2.708 9.068 2.58 9.212C2.452 9.356 2.36 9.58 2.304 9.884H0.576L0.756 4.28H5.292V5.96H2.364L2.256 7.964C2.336 7.852 2.488 7.756 2.712 7.676C2.936 7.588 3.176 7.532 3.432 7.508C3.928 7.452 4.344 7.544 4.68 7.784C5.024 8.016 5.28 8.372 5.448 8.852C5.624 9.332 5.712 9.92 5.712 10.616C5.712 11.136 5.68 11.616 5.616 12.056C5.552 12.488 5.428 12.864 5.244 13.184C5.06 13.496 4.792 13.74 4.44 13.916C4.088 14.092 3.628 14.18 3.06 14.18ZM9.40547 14.18C8.82147 14.18 8.33347 14.064 7.94147 13.832C7.54947 13.592 7.25347 13.264 7.05347 12.848C6.85347 12.432 6.75347 11.948 6.75347 11.396V6.992C6.75347 6.424 6.84547 5.928 7.02947 5.504C7.22147 5.072 7.51347 4.736 7.90547 4.496C8.29747 4.256 8.79747 4.136 9.40547 4.136C10.0135 4.136 10.5095 4.256 10.8935 4.496C11.2855 4.736 11.5735 5.072 11.7575 5.504C11.9495 5.928 12.0455 6.424 12.0455 6.992V11.396C12.0455 11.94 11.9455 12.424 11.7455 12.848C11.5455 13.264 11.2495 13.592 10.8575 13.832C10.4655 14.064 9.98147 14.18 9.40547 14.18ZM9.40547 12.392C9.59747 12.392 9.73347 12.332 9.81347 12.212C9.90147 12.084 9.95347 11.94 9.96947 11.78C9.99347 11.612 10.0055 11.468 10.0055 11.348V7.04C10.0055 6.904 9.99747 6.752 9.98147 6.584C9.96547 6.408 9.91347 6.256 9.82547 6.128C9.74547 5.992 9.60547 5.924 9.40547 5.924C9.20547 5.924 9.06147 5.992 8.97347 6.128C8.89347 6.256 8.84547 6.408 8.82947 6.584C8.81347 6.752 8.80547 6.904 8.80547 7.04V11.348C8.80547 11.468 8.81747 11.612 8.84147 11.78C8.86547 11.94 8.91747 12.084 8.99747 12.212C9.08547 12.332 9.22147 12.392 9.40547 12.392Z"></path>
</svg>
