<svg xmlns="http://www.w3.org/2000/svg" fill="none" viewBox="0 0 480 360" height="360" width="480">
<rect fill-opacity="0.01" fill="white" height="360" width="480"></rect>
<rect fill-opacity="0.8" fill="#0D0E12" height="304" width="304" y="40" x="18"></rect>
<path fill="white" d="M94.177 174V164.28H96.637C97.485 164.28 98.145 164.388 98.617 164.604C99.089 164.812 99.421 165.144 99.613 165.6C99.805 166.048 99.901 166.632 99.901 167.352V170.88C99.901 171.608 99.805 172.204 99.613 172.668C99.421 173.124 99.089 173.46 98.617 173.676C98.153 173.892 97.501 174 96.661 174H94.177ZM96.325 172.512H96.661C96.989 172.512 97.225 172.464 97.369 172.368C97.513 172.272 97.601 172.128 97.633 171.936C97.673 171.744 97.693 171.504 97.693 171.216V166.98C97.693 166.692 97.669 166.46 97.621 166.284C97.581 166.108 97.489 165.98 97.345 165.9C97.201 165.82 96.969 165.78 96.649 165.78H96.325V172.512ZM103.992 174.144C103.264 174.144 102.688 174.016 102.264 173.76C101.84 173.504 101.536 173.136 101.352 172.656C101.168 172.176 101.076 171.604 101.076 170.94V167.328C101.076 166.656 101.168 166.084 101.352 165.612C101.536 165.14 101.84 164.78 102.264 164.532C102.688 164.276 103.264 164.148 103.992 164.148C104.728 164.148 105.308 164.276 105.732 164.532C106.164 164.78 106.472 165.14 106.656 165.612C106.84 166.084 106.932 166.656 106.932 167.328V170.94C106.932 171.604 106.84 172.176 106.656 172.656C106.472 173.136 106.164 173.504 105.732 173.76C105.308 174.016 104.728 174.144 103.992 174.144ZM103.992 172.62C104.216 172.62 104.38 172.564 104.484 172.452C104.588 172.34 104.656 172.196 104.688 172.02C104.72 171.844 104.736 171.664 104.736 171.48V166.8C104.736 166.608 104.72 166.428 104.688 166.26C104.656 166.084 104.588 165.94 104.484 165.828C104.38 165.716 104.216 165.66 103.992 165.66C103.784 165.66 103.628 165.716 103.524 165.828C103.42 165.94 103.352 166.084 103.32 166.26C103.288 166.428 103.272 166.608 103.272 166.8V171.48C103.272 171.664 103.284 171.844 103.308 172.02C103.34 172.196 103.404 172.34 103.5 172.452C103.604 172.564 103.768 172.62 103.992 172.62ZM112.534 174V170.028L110.686 164.28H112.714L113.638 167.352L114.466 164.28H116.41L114.598 170.028V174H112.534ZM119.824 174.144C119.096 174.144 118.52 174.016 118.096 173.76C117.672 173.504 117.368 173.136 117.184 172.656C117 172.176 116.908 171.604 116.908 170.94V167.328C116.908 166.656 117 166.084 117.184 165.612C117.368 165.14 117.672 164.78 118.096 164.532C118.52 164.276 119.096 164.148 119.824 164.148C120.56 164.148 121.14 164.276 121.564 164.532C121.996 164.78 122.304 165.14 122.488 165.612C122.672 166.084 122.764 166.656 122.764 167.328V170.94C122.764 171.604 122.672 172.176 122.488 172.656C122.304 173.136 121.996 173.504 121.564 173.76C121.14 174.016 120.56 174.144 119.824 174.144ZM119.824 172.62C120.048 172.62 120.212 172.564 120.316 172.452C120.42 172.34 120.488 172.196 120.52 172.02C120.552 171.844 120.568 171.664 120.568 171.48V166.8C120.568 166.608 120.552 166.428 120.52 166.26C120.488 166.084 120.42 165.94 120.316 165.828C120.212 165.716 120.048 165.66 119.824 165.66C119.616 165.66 119.46 165.716 119.356 165.828C119.252 165.94 119.184 166.084 119.152 166.26C119.12 166.428 119.104 166.608 119.104 166.8V171.48C119.104 171.664 119.116 171.844 119.14 172.02C119.172 172.196 119.236 172.34 119.332 172.452C119.436 172.564 119.6 172.62 119.824 172.62ZM126.88 174.144C126.136 174.144 125.552 174.024 125.128 173.784C124.712 173.536 124.42 173.18 124.252 172.716C124.084 172.244 124 171.668 124 170.988V164.28H126.124V171.312C126.124 171.512 126.14 171.712 126.172 171.912C126.204 172.112 126.272 172.276 126.376 172.404C126.488 172.532 126.656 172.596 126.88 172.596C127.112 172.596 127.28 172.532 127.384 172.404C127.488 172.276 127.552 172.112 127.576 171.912C127.608 171.712 127.624 171.512 127.624 171.312V164.28H129.76V170.988C129.76 171.668 129.672 172.244 129.496 172.716C129.328 173.18 129.036 173.536 128.62 173.784C128.204 174.024 127.624 174.144 126.88 174.144ZM133.729 174L135.565 164.28H138.013L139.825 174H137.845L137.521 171.948H136.093L135.757 174H133.729ZM136.285 170.664H137.317L136.801 166.872L136.285 170.664ZM143.186 174.144C142.514 174.144 141.982 174.004 141.59 173.724C141.206 173.444 140.93 173.052 140.762 172.548C140.602 172.036 140.522 171.448 140.522 170.784V167.52C140.522 166.832 140.61 166.236 140.786 165.732C140.962 165.228 141.262 164.84 141.686 164.568C142.118 164.288 142.702 164.148 143.438 164.148C144.158 164.148 144.722 164.268 145.13 164.508C145.546 164.748 145.842 165.08 146.018 165.504C146.194 165.928 146.282 166.424 146.282 166.992V167.616H144.182V166.824C144.182 166.616 144.166 166.424 144.134 166.248C144.11 166.072 144.046 165.932 143.942 165.828C143.846 165.716 143.686 165.66 143.462 165.66C143.23 165.66 143.062 165.724 142.958 165.852C142.854 165.972 142.786 166.124 142.754 166.308C142.73 166.492 142.718 166.684 142.718 166.884V171.384C142.718 171.6 142.738 171.804 142.778 171.996C142.826 172.18 142.906 172.332 143.018 172.452C143.138 172.564 143.306 172.62 143.522 172.62C143.746 172.62 143.918 172.56 144.038 172.44C144.158 172.32 144.242 172.164 144.29 171.972C144.338 171.78 144.362 171.576 144.362 171.36V170.22H143.486V168.96H146.294V174H144.878L144.758 173.196C144.63 173.468 144.442 173.696 144.194 173.88C143.946 174.056 143.61 174.144 143.186 174.144ZM147.638 174V164.28H150.314C150.97 164.28 151.538 164.352 152.018 164.496C152.498 164.64 152.87 164.9 153.134 165.276C153.406 165.644 153.542 166.168 153.542 166.848C153.542 167.248 153.51 167.604 153.446 167.916C153.382 168.228 153.262 168.5 153.086 168.732C152.918 168.956 152.674 169.144 152.354 169.296L153.686 174H151.466L150.398 169.644H149.786V174H147.638ZM149.786 168.408H150.386C150.69 168.408 150.926 168.356 151.094 168.252C151.262 168.14 151.378 167.984 151.442 167.784C151.514 167.576 151.55 167.328 151.55 167.04C151.55 166.624 151.474 166.3 151.322 166.068C151.17 165.836 150.89 165.72 150.482 165.72H149.786V168.408ZM154.833 174V164.28H159.201V165.744H156.981V168.156H158.673V169.644H156.981V172.548H159.225V174H154.833ZM160.2 174V164.28H164.568V165.744H162.348V168.156H164.04V169.644H162.348V172.548H164.592V174H160.2ZM169.418 174L168.242 164.28H170.066L170.642 169.944L171.374 164.292H172.802L173.57 169.908L174.158 164.28H175.958L174.794 174H172.922L172.094 168.132L171.314 174H169.418ZM177.017 174V164.28H179.165V174H177.017ZM181.491 174V165.876H180.027V164.28H185.103V165.876H183.651V174H181.491ZM185.994 174V164.28H188.142V168.216H189.642V164.28H191.802V174H189.642V169.752H188.142V174H185.994ZM197.229 174V165.876H195.765V164.28H200.841V165.876H199.389V174H197.229ZM201.733 174V164.28H203.881V168.216H205.381V164.28H207.541V174H205.381V169.752H203.881V174H201.733ZM209.021 174V164.28H213.389V165.744H211.169V168.156H212.861V169.644H211.169V172.548H213.413V174H209.021ZM217.458 174V164.28H219.918C220.766 164.28 221.426 164.388 221.898 164.604C222.37 164.812 222.702 165.144 222.894 165.6C223.086 166.048 223.182 166.632 223.182 167.352V170.88C223.182 171.608 223.086 172.204 222.894 172.668C222.702 173.124 222.37 173.46 221.898 173.676C221.434 173.892 220.782 174 219.942 174H217.458ZM219.606 172.512H219.942C220.27 172.512 220.506 172.464 220.65 172.368C220.794 172.272 220.882 172.128 220.914 171.936C220.954 171.744 220.974 171.504 220.974 171.216V166.98C220.974 166.692 220.95 166.46 220.902 166.284C220.862 166.108 220.77 165.98 220.626 165.9C220.482 165.82 220.25 165.78 219.93 165.78H219.606V172.512ZM224.49 174V164.28H227.166C227.822 164.28 228.39 164.352 228.87 164.496C229.35 164.64 229.722 164.9 229.986 165.276C230.258 165.644 230.394 166.168 230.394 166.848C230.394 167.248 230.362 167.604 230.298 167.916C230.234 168.228 230.114 168.5 229.938 168.732C229.77 168.956 229.526 169.144 229.206 169.296L230.538 174H228.318L227.25 169.644H226.638V174H224.49ZM226.638 168.408H227.238C227.542 168.408 227.778 168.356 227.946 168.252C228.114 168.14 228.23 167.984 228.294 167.784C228.366 167.576 228.402 167.328 228.402 167.04C228.402 166.624 228.326 166.3 228.174 166.068C228.022 165.836 227.742 165.72 227.334 165.72H226.638V168.408ZM231.217 174L233.053 164.28H235.501L237.313 174H235.333L235.009 171.948H233.581L233.245 174H231.217ZM233.773 170.664H234.805L234.289 166.872L233.773 170.664ZM238.863 174L237.687 164.28H239.511L240.087 169.944L240.819 164.292H242.247L243.015 169.908L243.603 164.28H245.403L244.239 174H242.367L241.539 168.132L240.759 174H238.863ZM247.278 171.444V169.896C247.638 169.616 247.962 169.304 248.25 168.96C248.538 168.616 248.766 168.252 248.934 167.868C249.102 167.476 249.186 167.072 249.186 166.656C249.186 166.36 249.13 166.148 249.018 166.02C248.914 165.884 248.758 165.816 248.55 165.816C248.358 165.816 248.206 165.872 248.094 165.984C247.99 166.096 247.938 166.252 247.938 166.452C247.938 166.58 247.95 166.696 247.974 166.8C248.006 166.896 248.042 167 248.082 167.112L246.318 167.52C246.254 167.328 246.202 167.144 246.162 166.968C246.13 166.784 246.114 166.592 246.114 166.392C246.114 165.688 246.326 165.14 246.75 164.748C247.182 164.348 247.798 164.148 248.598 164.148C249.406 164.148 250.026 164.36 250.458 164.784C250.898 165.208 251.118 165.812 251.118 166.596C251.118 167.076 251.038 167.532 250.878 167.964C250.718 168.396 250.482 168.804 250.17 169.188C249.866 169.572 249.494 169.932 249.054 170.268V171.444H247.278ZM247.218 174V172.14H249.126V174H247.218Z"></path>
</svg>
