<svg xmlns="http://www.w3.org/2000/svg" fill="none" viewBox="0 0 22 22" height="22" width="22">
<circle stroke="#0D0E12" fill="#FDCD4D" r="10" cy="11" cx="11"></circle>
<path fill="#0D0E12" d="M6.39669 16.3967C6.20534 16.2053 6.20429 15.8936 6.40855 15.7161C7.67793 14.613 9.30734 13.9999 11 13.9999C12.6926 13.9999 14.322 14.613 15.5914 15.7161C15.7956 15.8936 15.7946 16.2053 15.6032 16.3967V16.3967C15.4119 16.588 15.1028 16.5862 14.8962 16.4115C13.8123 15.4944 12.4324 15 11 15C9.56747 15 8.18762 15.4944 7.1037 16.4115C6.8971 16.5862 6.58805 16.588 6.39669 16.3967V16.3967Z"></path>
<path fill="white" d="M10 10C10 11.1046 9.10457 12 8 12C6.89543 12 6 11.1046 6 10C6 8.89543 6.89543 8 8 8C9.10457 8 10 8.89543 10 10Z"></path>
<path fill="#0D0E12" d="M9 10C9 10.5523 8.55228 11 8 11C7.44772 11 7 10.5523 7 10C7 9.44772 7.44772 9 8 9C8.55228 9 9 9.44772 9 10Z"></path>
<path fill="white" d="M16 10C16 11.1046 15.1046 12 14 12C12.8954 12 12 11.1046 12 10C12 8.89543 12.8954 8 14 8C15.1046 8 16 8.89543 16 10Z"></path>
<path fill="#0D0E12" d="M14.9999 10C14.9999 10.5523 14.5522 11 13.9999 11C13.4476 11 12.9999 10.5523 12.9999 10C12.9999 9.44772 13.4476 9 13.9999 9C14.5522 9 14.9999 9.44772 14.9999 10Z"></path>
<path fill="#FDCD4D" d="M6.6424 4.9756L11.8386 7.9756L10.3386 10.5737L5.1424 7.57367L6.6424 4.9756Z"></path>
<path fill="#FDCD4D" d="M10 8.00004L15.1962 5.00004L16.6962 7.59812L11.5 10.5981L10 8.00004Z"></path>
<path stroke-linecap="round" stroke="#D29B09" d="M14.5 6.5L12 9"></path>
<path stroke-linecap="round" stroke="#D29B09" d="M7.5 6.5L10 9"></path>
</svg>
