<svg xmlns="http://www.w3.org/2000/svg" fill="none" viewBox="0 0 480 360" height="360" width="480">
<rect fill-opacity="0.01" fill="white" height="360" width="480"></rect>
<rect fill-opacity="0.8" fill="#0D0E12" height="304" width="304" y="40" x="18"></rect>
<path fill="white" d="M70.9844 174L69.8084 164.28H71.6324L72.2084 169.944L72.9404 164.292H74.3684L75.1364 169.908L75.7244 164.28H77.5244L76.3604 174H74.4884L73.6604 168.132L72.8804 174H70.9844ZM78.6076 174V164.28H80.7556V168.216H82.2556V164.28H84.4156V174H82.2556V169.752H80.7556V174H78.6076ZM85.4278 174L87.2638 164.28H89.7118L91.5238 174H89.5438L89.2198 171.948H87.7918L87.4558 174H85.4278ZM87.9838 170.664H89.0158L88.4998 166.872L87.9838 170.664ZM92.8655 174V165.876H91.4015V164.28H96.4775V165.876H95.0255V174H92.8655ZM100.404 174V164.28H103.668C104.252 164.28 104.732 164.392 105.108 164.616C105.484 164.832 105.764 165.152 105.948 165.576C106.132 165.992 106.224 166.5 106.224 167.1C106.224 167.852 106.1 168.428 105.852 168.828C105.604 169.22 105.268 169.492 104.844 169.644C104.42 169.796 103.944 169.872 103.416 169.872H102.552V174H100.404ZM102.552 168.372H103.272C103.536 168.372 103.736 168.324 103.872 168.228C104.008 168.132 104.096 167.988 104.136 167.796C104.184 167.604 104.208 167.36 104.208 167.064C104.208 166.816 104.188 166.6 104.148 166.416C104.116 166.224 104.032 166.072 103.896 165.96C103.76 165.848 103.548 165.792 103.26 165.792H102.552V168.372ZM107.271 174V164.28H109.419V174H107.271ZM110.868 174V164.28H115.236V165.744H113.016V168.156H114.708V169.644H113.016V172.548H115.26V174H110.868ZM119.02 174.144C118.284 174.144 117.7 174.012 117.268 173.748C116.844 173.476 116.544 173.1 116.368 172.62C116.192 172.132 116.104 171.56 116.104 170.904V167.4C116.104 166.728 116.192 166.152 116.368 165.672C116.544 165.184 116.844 164.808 117.268 164.544C117.7 164.28 118.284 164.148 119.02 164.148C119.74 164.148 120.3 164.268 120.7 164.508C121.108 164.74 121.396 165.068 121.564 165.492C121.732 165.916 121.816 166.404 121.816 166.956V167.796H119.716V166.824C119.716 166.632 119.704 166.448 119.68 166.272C119.664 166.096 119.608 165.952 119.512 165.84C119.416 165.72 119.252 165.66 119.02 165.66C118.796 165.66 118.628 165.72 118.516 165.84C118.412 165.96 118.344 166.112 118.312 166.296C118.288 166.472 118.276 166.66 118.276 166.86V171.432C118.276 171.648 118.292 171.848 118.324 172.032C118.364 172.208 118.436 172.352 118.54 172.464C118.652 172.568 118.812 172.62 119.02 172.62C119.244 172.62 119.404 172.564 119.5 172.452C119.596 172.332 119.656 172.18 119.68 171.996C119.704 171.812 119.716 171.624 119.716 171.432V170.412H121.816V171.252C121.816 171.804 121.732 172.3 121.564 172.74C121.404 173.172 121.12 173.516 120.712 173.772C120.312 174.02 119.748 174.144 119.02 174.144ZM122.997 174V164.28H127.365V165.744H125.145V168.156H126.837V169.644H125.145V172.548H127.389V174H122.997ZM134.015 174.144C133.407 174.144 132.899 174.036 132.491 173.82C132.083 173.604 131.775 173.272 131.567 172.824C131.359 172.368 131.243 171.78 131.219 171.06L133.055 170.784C133.063 171.2 133.099 171.536 133.163 171.792C133.235 172.048 133.331 172.232 133.451 172.344C133.579 172.456 133.731 172.512 133.907 172.512C134.131 172.512 134.275 172.436 134.339 172.284C134.411 172.132 134.447 171.972 134.447 171.804C134.447 171.404 134.351 171.068 134.159 170.796C133.967 170.516 133.707 170.236 133.379 169.956L132.539 169.224C132.171 168.912 131.859 168.56 131.603 168.168C131.355 167.768 131.231 167.276 131.231 166.692C131.231 165.868 131.475 165.24 131.963 164.808C132.451 164.368 133.115 164.148 133.955 164.148C134.475 164.148 134.891 164.236 135.203 164.412C135.523 164.588 135.763 164.82 135.923 165.108C136.091 165.388 136.203 165.688 136.259 166.008C136.323 166.32 136.359 166.62 136.367 166.908L134.519 167.136C134.511 166.848 134.491 166.6 134.459 166.392C134.435 166.176 134.379 166.012 134.291 165.9C134.203 165.78 134.067 165.72 133.883 165.72C133.683 165.72 133.535 165.804 133.439 165.972C133.351 166.14 133.307 166.308 133.307 166.476C133.307 166.836 133.391 167.132 133.559 167.364C133.735 167.588 133.963 167.824 134.243 168.072L135.047 168.78C135.471 169.14 135.827 169.548 136.115 170.004C136.411 170.46 136.559 171.024 136.559 171.696C136.559 172.152 136.455 172.568 136.247 172.944C136.039 173.312 135.743 173.604 135.359 173.82C134.983 174.036 134.535 174.144 134.015 174.144ZM137.635 174V164.28H139.783V168.216H141.283V164.28H143.443V174H141.283V169.752H139.783V174H137.635ZM147.707 174.144C146.979 174.144 146.403 174.016 145.979 173.76C145.555 173.504 145.251 173.136 145.067 172.656C144.883 172.176 144.791 171.604 144.791 170.94V167.328C144.791 166.656 144.883 166.084 145.067 165.612C145.251 165.14 145.555 164.78 145.979 164.532C146.403 164.276 146.979 164.148 147.707 164.148C148.443 164.148 149.023 164.276 149.447 164.532C149.879 164.78 150.187 165.14 150.371 165.612C150.555 166.084 150.647 166.656 150.647 167.328V170.94C150.647 171.604 150.555 172.176 150.371 172.656C150.187 173.136 149.879 173.504 149.447 173.76C149.023 174.016 148.443 174.144 147.707 174.144ZM147.707 172.62C147.931 172.62 148.095 172.564 148.199 172.452C148.303 172.34 148.371 172.196 148.403 172.02C148.435 171.844 148.451 171.664 148.451 171.48V166.8C148.451 166.608 148.435 166.428 148.403 166.26C148.371 166.084 148.303 165.94 148.199 165.828C148.095 165.716 147.931 165.66 147.707 165.66C147.499 165.66 147.343 165.716 147.239 165.828C147.135 165.94 147.067 166.084 147.035 166.26C147.003 166.428 146.987 166.608 146.987 166.8V171.48C146.987 171.664 146.999 171.844 147.023 172.02C147.055 172.196 147.119 172.34 147.215 172.452C147.319 172.564 147.483 172.62 147.707 172.62ZM154.762 174.144C154.018 174.144 153.434 174.024 153.01 173.784C152.594 173.536 152.302 173.18 152.134 172.716C151.966 172.244 151.882 171.668 151.882 170.988V164.28H154.006V171.312C154.006 171.512 154.022 171.712 154.054 171.912C154.086 172.112 154.154 172.276 154.258 172.404C154.37 172.532 154.538 172.596 154.762 172.596C154.994 172.596 155.162 172.532 155.266 172.404C155.37 172.276 155.434 172.112 155.458 171.912C155.49 171.712 155.506 171.512 155.506 171.312V164.28H157.642V170.988C157.642 171.668 157.554 172.244 157.378 172.716C157.21 173.18 156.918 173.536 156.502 173.784C156.086 174.024 155.506 174.144 154.762 174.144ZM159.009 174V164.28H161.157V172.548H163.389V174H159.009ZM164.329 174V164.28H166.789C167.637 164.28 168.297 164.388 168.769 164.604C169.241 164.812 169.573 165.144 169.765 165.6C169.957 166.048 170.053 166.632 170.053 167.352V170.88C170.053 171.608 169.957 172.204 169.765 172.668C169.573 173.124 169.241 173.46 168.769 173.676C168.305 173.892 167.653 174 166.813 174H164.329ZM166.477 172.512H166.813C167.141 172.512 167.377 172.464 167.521 172.368C167.665 172.272 167.753 172.128 167.785 171.936C167.825 171.744 167.845 171.504 167.845 171.216V166.98C167.845 166.692 167.821 166.46 167.773 166.284C167.733 166.108 167.641 165.98 167.497 165.9C167.353 165.82 167.121 165.78 166.801 165.78H166.477V172.512ZM175.307 174V165.876H173.843V164.28H178.919V165.876H177.467V174H175.307ZM179.811 174V164.28H181.959V168.216H183.459V164.28H185.619V174H183.459V169.752H181.959V174H179.811ZM187.099 174V164.28H191.467V165.744H189.247V168.156H190.939V169.644H189.247V172.548H191.491V174H187.099ZM195.536 174V164.28H198.8C199.384 164.28 199.864 164.392 200.24 164.616C200.616 164.832 200.896 165.152 201.08 165.576C201.264 165.992 201.356 166.5 201.356 167.1C201.356 167.852 201.232 168.428 200.984 168.828C200.736 169.22 200.4 169.492 199.976 169.644C199.552 169.796 199.076 169.872 198.548 169.872H197.684V174H195.536ZM197.684 168.372H198.404C198.668 168.372 198.868 168.324 199.004 168.228C199.14 168.132 199.228 167.988 199.268 167.796C199.316 167.604 199.34 167.36 199.34 167.064C199.34 166.816 199.32 166.6 199.28 166.416C199.248 166.224 199.164 166.072 199.028 165.96C198.892 165.848 198.68 165.792 198.392 165.792H197.684V168.372ZM201.361 174L203.197 164.28H205.645L207.457 174H205.477L205.153 171.948H203.725L203.389 174H201.361ZM203.917 170.664H204.949L204.433 166.872L203.917 170.664ZM209.008 174L207.832 164.28H209.656L210.232 169.944L210.964 164.292H212.392L213.16 169.908L213.748 164.28H215.548L214.384 174H212.512L211.684 168.132L210.904 174H209.008ZM216.595 174V164.28H218.107L220.099 168.96V164.28H221.875V174H220.423L218.431 168.96V174H216.595ZM226.392 174V164.28H228.924C229.34 164.28 229.732 164.312 230.1 164.376C230.476 164.44 230.808 164.564 231.096 164.748C231.384 164.924 231.608 165.18 231.768 165.516C231.936 165.844 232.02 166.28 232.02 166.824C232.02 167.216 231.96 167.548 231.84 167.82C231.728 168.084 231.564 168.296 231.348 168.456C231.14 168.616 230.888 168.724 230.592 168.78C230.968 168.828 231.284 168.952 231.54 169.152C231.796 169.344 231.988 169.604 232.116 169.932C232.252 170.26 232.32 170.656 232.32 171.12C232.32 171.624 232.252 172.06 232.116 172.428C231.988 172.788 231.8 173.084 231.552 173.316C231.304 173.548 230.996 173.72 230.628 173.832C230.268 173.944 229.852 174 229.38 174H226.392ZM228.54 172.5H228.996C229.468 172.5 229.792 172.38 229.968 172.14C230.152 171.9 230.244 171.548 230.244 171.084C230.244 170.716 230.204 170.424 230.124 170.208C230.044 169.992 229.912 169.836 229.728 169.74C229.544 169.636 229.296 169.584 228.984 169.584H228.54V172.5ZM228.54 168.168H228.96C229.288 168.168 229.536 168.12 229.704 168.024C229.872 167.92 229.984 167.772 230.04 167.58C230.104 167.388 230.136 167.156 230.136 166.884C230.136 166.628 230.088 166.416 229.992 166.248C229.904 166.072 229.768 165.94 229.584 165.852C229.408 165.764 229.184 165.72 228.912 165.72H228.54V168.168ZM233.447 174V164.28H237.815V165.744H235.595V168.156H237.287V169.644H235.595V172.548H237.839V174H233.447ZM241.598 174.144C240.862 174.144 240.278 174.012 239.846 173.748C239.422 173.476 239.122 173.1 238.946 172.62C238.77 172.132 238.682 171.56 238.682 170.904V167.4C238.682 166.728 238.77 166.152 238.946 165.672C239.122 165.184 239.422 164.808 239.846 164.544C240.278 164.28 240.862 164.148 241.598 164.148C242.318 164.148 242.878 164.268 243.278 164.508C243.686 164.74 243.974 165.068 244.142 165.492C244.31 165.916 244.394 166.404 244.394 166.956V167.796H242.294V166.824C242.294 166.632 242.282 166.448 242.258 166.272C242.242 166.096 242.186 165.952 242.09 165.84C241.994 165.72 241.83 165.66 241.598 165.66C241.374 165.66 241.206 165.72 241.094 165.84C240.99 165.96 240.922 166.112 240.89 166.296C240.866 166.472 240.854 166.66 240.854 166.86V171.432C240.854 171.648 240.87 171.848 240.902 172.032C240.942 172.208 241.014 172.352 241.118 172.464C241.23 172.568 241.39 172.62 241.598 172.62C241.822 172.62 241.982 172.564 242.078 172.452C242.174 172.332 242.234 172.18 242.258 171.996C242.282 171.812 242.294 171.624 242.294 171.432V170.412H244.394V171.252C244.394 171.804 244.31 172.3 244.142 172.74C243.982 173.172 243.698 173.516 243.29 173.772C242.89 174.02 242.326 174.144 241.598 174.144ZM248.359 174.144C247.631 174.144 247.055 174.016 246.631 173.76C246.207 173.504 245.903 173.136 245.719 172.656C245.535 172.176 245.443 171.604 245.443 170.94V167.328C245.443 166.656 245.535 166.084 245.719 165.612C245.903 165.14 246.207 164.78 246.631 164.532C247.055 164.276 247.631 164.148 248.359 164.148C249.095 164.148 249.675 164.276 250.099 164.532C250.531 164.78 250.839 165.14 251.023 165.612C251.207 166.084 251.299 166.656 251.299 167.328V170.94C251.299 171.604 251.207 172.176 251.023 172.656C250.839 173.136 250.531 173.504 250.099 173.76C249.675 174.016 249.095 174.144 248.359 174.144ZM248.359 172.62C248.583 172.62 248.747 172.564 248.851 172.452C248.955 172.34 249.023 172.196 249.055 172.02C249.087 171.844 249.103 171.664 249.103 171.48V166.8C249.103 166.608 249.087 166.428 249.055 166.26C249.023 166.084 248.955 165.94 248.851 165.828C248.747 165.716 248.583 165.66 248.359 165.66C248.151 165.66 247.995 165.716 247.891 165.828C247.787 165.94 247.719 166.084 247.687 166.26C247.655 166.428 247.639 166.608 247.639 166.8V171.48C247.639 171.664 247.651 171.844 247.675 172.02C247.707 172.196 247.771 172.34 247.867 172.452C247.971 172.564 248.135 172.62 248.359 172.62ZM252.571 174L252.739 164.28H255.043L256.111 169.932L257.263 164.28H259.483L259.651 174H258.127L257.947 167.532L256.819 174H255.463L254.263 167.484L254.119 174H252.571ZM261.056 174V164.28H265.424V165.744H263.204V168.156H264.896V169.644H263.204V172.548H265.448V174H261.056ZM267.251 171.444V169.896C267.611 169.616 267.935 169.304 268.223 168.96C268.511 168.616 268.739 168.252 268.907 167.868C269.075 167.476 269.159 167.072 269.159 166.656C269.159 166.36 269.103 166.148 268.991 166.02C268.887 165.884 268.731 165.816 268.523 165.816C268.331 165.816 268.179 165.872 268.067 165.984C267.963 166.096 267.911 166.252 267.911 166.452C267.911 166.58 267.923 166.696 267.947 166.8C267.979 166.896 268.015 167 268.055 167.112L266.291 167.52C266.227 167.328 266.175 167.144 266.135 166.968C266.103 166.784 266.087 166.592 266.087 166.392C266.087 165.688 266.299 165.14 266.723 164.748C267.155 164.348 267.771 164.148 268.571 164.148C269.379 164.148 269.999 164.36 270.431 164.784C270.871 165.208 271.091 165.812 271.091 166.596C271.091 167.076 271.011 167.532 270.851 167.964C270.691 168.396 270.455 168.804 270.143 169.188C269.839 169.572 269.467 169.932 269.027 170.268V171.444H267.251ZM267.191 174V172.14H269.099V174H267.191Z"></path>
<rect fill="white" height="46" width="178" y="182" x="81"></rect>
</svg>
