<svg xmlns="http://www.w3.org/2000/svg" fill="none" viewBox="0 0 214 84" height="84" width="214">
<mask fill="white" id="path-1-inside-1_1461_30">
<path d="M0 0H214V84H0V0Z"></path>
</mask>
<path fill="#0D0E12" d="M0 0H214V84H0V0Z"></path>
<path mask="url(#path-1-inside-1_1461_30)" fill="white" d="M0 0V-1H-1V0H0ZM0 84H-1V85H0V84ZM0 1H214V-1H0V1ZM214 83H0V85H214V83ZM1 84V0H-1V84H1Z"></path>
<path fill="#05FF00" d="M16.72 38V28.28H22.54V38H20.428V29.816H18.832V38H16.72ZM26.7696 38.144C26.0416 38.144 25.4656 38.016 25.0416 37.76C24.6176 37.504 24.3136 37.136 24.1296 36.656C23.9456 36.176 23.8536 35.604 23.8536 34.94V31.328C23.8536 30.656 23.9456 30.084 24.1296 29.612C24.3136 29.14 24.6176 28.78 25.0416 28.532C25.4656 28.276 26.0416 28.148 26.7696 28.148C27.5056 28.148 28.0856 28.276 28.5096 28.532C28.9416 28.78 29.2496 29.14 29.4336 29.612C29.6176 30.084 29.7096 30.656 29.7096 31.328V34.94C29.7096 35.604 29.6176 36.176 29.4336 36.656C29.2496 37.136 28.9416 37.504 28.5096 37.76C28.0856 38.016 27.5056 38.144 26.7696 38.144ZM26.7696 36.62C26.9936 36.62 27.1576 36.564 27.2616 36.452C27.3656 36.34 27.4336 36.196 27.4656 36.02C27.4976 35.844 27.5136 35.664 27.5136 35.48V30.8C27.5136 30.608 27.4976 30.428 27.4656 30.26C27.4336 30.084 27.3656 29.94 27.2616 29.828C27.1576 29.716 26.9936 29.66 26.7696 29.66C26.5616 29.66 26.4056 29.716 26.3016 29.828C26.1976 29.94 26.1296 30.084 26.0976 30.26C26.0656 30.428 26.0496 30.608 26.0496 30.8V35.48C26.0496 35.664 26.0616 35.844 26.0856 36.02C26.1176 36.196 26.1816 36.34 26.2776 36.452C26.3816 36.564 26.5456 36.62 26.7696 36.62ZM31.0529 38V28.28H35.8769V29.912H33.2009V32.384H33.6569C34.2729 32.384 34.7929 32.484 35.2169 32.684C35.6489 32.884 35.9769 33.192 36.2009 33.608C36.4249 34.016 36.5369 34.544 36.5369 35.192C36.5369 35.784 36.4569 36.264 36.2969 36.632C36.1449 37 35.9289 37.284 35.6489 37.484C35.3689 37.684 35.0409 37.82 34.6649 37.892C34.2969 37.964 33.8969 38 33.4649 38H31.0529ZM33.2009 36.596H33.4769C33.7489 36.596 33.9649 36.544 34.1249 36.44C34.2849 36.336 34.3969 36.176 34.4609 35.96C34.5249 35.744 34.5529 35.472 34.5449 35.144C34.5369 34.784 34.4609 34.484 34.3169 34.244C34.1729 33.996 33.8849 33.872 33.4529 33.872H33.2009V36.596ZM37.6614 38V28.28H42.0294V29.744H39.8094V32.156H41.5014V33.644H39.8094V36.548H42.0534V38H37.6614ZM42.5246 40.1V36.464H42.8006C42.9846 36.408 43.1526 36.312 43.3046 36.176C43.4646 36.032 43.6086 35.84 43.7366 35.6C43.8646 35.36 43.9806 35.06 44.0846 34.7C44.1886 34.34 44.2766 33.912 44.3486 33.416C44.4206 32.912 44.4806 32.332 44.5286 31.676L44.7926 28.28H49.3166V36.464H50.4086V40.1H48.9926L48.8846 38H44.1206L44.0006 40.1H42.5246ZM44.8286 36.464H47.3126V29.804H46.4126L46.3046 31.892C46.2646 32.58 46.2046 33.164 46.1246 33.644C46.0526 34.124 45.9646 34.524 45.8606 34.844C45.7646 35.156 45.6606 35.412 45.5486 35.612C45.4366 35.812 45.3166 35.976 45.1886 36.104C45.0686 36.232 44.9486 36.352 44.8286 36.464ZM50.8809 38L52.7169 28.28H55.1649L56.9769 38H54.9969L54.6729 35.948H53.2449L52.9089 38H50.8809ZM53.4369 34.664H54.4689L53.9529 30.872L53.4369 34.664Z"></path>
<path fill="white" d="M18.66 56.09C18.0867 56.09 17.64 55.97 17.32 55.73C17.0067 55.49 16.7867 55.1667 16.66 54.76C16.54 54.3533 16.48 53.9 16.48 53.4V50.54C16.48 49.9933 16.54 49.5167 16.66 49.11C16.7867 48.7033 17.0067 48.39 17.32 48.17C17.64 47.9433 18.0867 47.83 18.66 47.83C19.1667 47.83 19.5667 47.9233 19.86 48.11C20.16 48.2967 20.3733 48.5633 20.5 48.91C20.6333 49.2567 20.7 49.6733 20.7 50.16V50.8H19.63V50.23C19.63 49.93 19.6133 49.6667 19.58 49.44C19.5533 49.2067 19.4733 49.0267 19.34 48.9C19.2067 48.7733 18.9833 48.71 18.67 48.71C18.35 48.71 18.1167 48.78 17.97 48.92C17.8233 49.0533 17.7267 49.2467 17.68 49.5C17.64 49.7467 17.62 50.0367 17.62 50.37V53.58C17.62 53.9867 17.6533 54.31 17.72 54.55C17.7867 54.7833 17.8967 54.95 18.05 55.05C18.2033 55.15 18.41 55.2 18.67 55.2C18.9767 55.2 19.1967 55.1333 19.33 55C19.4633 54.86 19.5467 54.67 19.58 54.43C19.6133 54.19 19.63 53.91 19.63 53.59V52.99H20.7V53.59C20.7 54.0833 20.64 54.52 20.52 54.9C20.4 55.2733 20.1933 55.5667 19.9 55.78C19.6067 55.9867 19.1933 56.09 18.66 56.09ZM23.2765 56.08C22.8498 56.08 22.5132 55.9933 22.2665 55.82C22.0198 55.6467 21.8432 55.4 21.7365 55.08C21.6365 54.76 21.5865 54.3833 21.5865 53.95V52.27C21.5865 51.8367 21.6365 51.46 21.7365 51.14C21.8432 50.82 22.0198 50.5733 22.2665 50.4C22.5132 50.2267 22.8498 50.14 23.2765 50.14C23.7032 50.14 24.0365 50.2267 24.2765 50.4C24.5232 50.5733 24.6965 50.82 24.7965 51.14C24.9032 51.46 24.9565 51.8367 24.9565 52.27V53.95C24.9565 54.3833 24.9032 54.76 24.7965 55.08C24.6965 55.4 24.5232 55.6467 24.2765 55.82C24.0365 55.9933 23.7032 56.08 23.2765 56.08ZM23.2765 55.29C23.4832 55.29 23.6265 55.23 23.7065 55.11C23.7932 54.99 23.8432 54.8333 23.8565 54.64C23.8765 54.44 23.8865 54.2333 23.8865 54.02V52.21C23.8865 51.99 23.8765 51.7833 23.8565 51.59C23.8432 51.3967 23.7932 51.24 23.7065 51.12C23.6265 50.9933 23.4832 50.93 23.2765 50.93C23.0698 50.93 22.9232 50.9933 22.8365 51.12C22.7498 51.24 22.6965 51.3967 22.6765 51.59C22.6632 51.7833 22.6565 51.99 22.6565 52.21V54.02C22.6565 54.2333 22.6632 54.44 22.6765 54.64C22.6965 54.8333 22.7498 54.99 22.8365 55.11C22.9232 55.23 23.0698 55.29 23.2765 55.29ZM25.9345 56V50.22H29.2945V56H28.2245V51.03H27.0045V56H25.9345ZM31.9779 56.08C31.5246 56.08 31.1746 55.9933 30.9279 55.82C30.6812 55.64 30.5079 55.38 30.4079 55.04C30.3146 54.6933 30.2679 54.27 30.2679 53.77V52.45C30.2679 51.9367 30.3179 51.51 30.4179 51.17C30.5179 50.83 30.6912 50.5733 30.9379 50.4C31.1912 50.2267 31.5379 50.14 31.9779 50.14C32.4646 50.14 32.8212 50.24 33.0479 50.44C33.2812 50.64 33.4346 50.93 33.5079 51.31C33.5812 51.6833 33.6179 52.1333 33.6179 52.66V53.13H31.3379V54.29C31.3379 54.5233 31.3579 54.7133 31.3979 54.86C31.4446 55.0067 31.5146 55.1167 31.6079 55.19C31.7079 55.2567 31.8346 55.29 31.9879 55.29C32.1479 55.29 32.2679 55.2533 32.3479 55.18C32.4346 55.1 32.4912 54.99 32.5179 54.85C32.5512 54.7033 32.5679 54.5333 32.5679 54.34V53.99H33.6079V54.21C33.6079 54.79 33.4846 55.2467 33.2379 55.58C32.9912 55.9133 32.5712 56.08 31.9779 56.08ZM31.3379 52.55H32.5679V52.03C32.5679 51.79 32.5546 51.59 32.5279 51.43C32.5012 51.2633 32.4446 51.14 32.3579 51.06C32.2779 50.9733 32.1479 50.93 31.9679 50.93C31.7946 50.93 31.6612 50.97 31.5679 51.05C31.4812 51.13 31.4212 51.2667 31.3879 51.46C31.3546 51.6467 31.3379 51.9067 31.3379 52.24V52.55ZM34.5869 57.9V50.22H35.6569V50.68C35.7835 50.5333 35.9369 50.4067 36.1169 50.3C36.2969 50.1933 36.5102 50.14 36.7569 50.14C37.0569 50.14 37.2935 50.22 37.4669 50.38C37.6469 50.5333 37.7802 50.73 37.8669 50.97C37.9535 51.2033 38.0102 51.4433 38.0369 51.69C38.0635 51.93 38.0769 52.1367 38.0769 52.31V53.71C38.0769 54.1167 38.0369 54.5033 37.9569 54.87C37.8769 55.23 37.7302 55.5233 37.5169 55.75C37.3102 55.97 37.0169 56.08 36.6369 56.08C36.4302 56.08 36.2469 56.03 36.0869 55.93C35.9269 55.8233 35.7835 55.7033 35.6569 55.57V57.9H34.5869ZM36.4269 55.24C36.6135 55.24 36.7469 55.1733 36.8269 55.04C36.9069 54.9 36.9569 54.7133 36.9769 54.48C36.9969 54.2467 37.0069 53.99 37.0069 53.71V52.31C37.0069 52.07 36.9935 51.85 36.9669 51.65C36.9402 51.4433 36.8835 51.28 36.7969 51.16C36.7102 51.04 36.5735 50.98 36.3869 50.98C36.2469 50.98 36.1135 51.01 35.9869 51.07C35.8602 51.13 35.7502 51.2 35.6569 51.28V54.98C35.7569 55.0533 35.8702 55.1167 35.9969 55.17C36.1235 55.2167 36.2669 55.24 36.4269 55.24ZM39.0498 56V50.22H40.1198V52.65H41.4898V50.22H42.5598V56H41.4898V53.43H40.1198V56H39.0498ZM43.6396 56V50.22H44.5396V54.11L46.2796 50.22H47.1196V56H46.2396V52.08L44.5096 56H43.6396ZM48.2099 56V50.22H49.2799V52.66H49.5799L50.6699 50.22H51.7699L50.5599 53.02L51.7899 56H50.6699L49.5799 53.3H49.2799V56H48.2099ZM54.6455 56V50.22H55.7155V52.65H57.0855V50.22H58.1555V56H57.0855V53.43H55.7155V56H54.6455ZM60.8353 56.08C60.382 56.08 60.032 55.9933 59.7853 55.82C59.5386 55.64 59.3653 55.38 59.2653 55.04C59.172 54.6933 59.1253 54.27 59.1253 53.77V52.45C59.1253 51.9367 59.1753 51.51 59.2753 51.17C59.3753 50.83 59.5486 50.5733 59.7953 50.4C60.0486 50.2267 60.3953 50.14 60.8353 50.14C61.322 50.14 61.6786 50.24 61.9053 50.44C62.1386 50.64 62.292 50.93 62.3653 51.31C62.4386 51.6833 62.4753 52.1333 62.4753 52.66V53.13H60.1953V54.29C60.1953 54.5233 60.2153 54.7133 60.2553 54.86C60.302 55.0067 60.372 55.1167 60.4653 55.19C60.5653 55.2567 60.692 55.29 60.8453 55.29C61.0053 55.29 61.1253 55.2533 61.2053 55.18C61.292 55.1 61.3486 54.99 61.3753 54.85C61.4086 54.7033 61.4253 54.5333 61.4253 54.34V53.99H62.4653V54.21C62.4653 54.79 62.342 55.2467 62.0953 55.58C61.8486 55.9133 61.4286 56.08 60.8353 56.08ZM60.1953 52.55H61.4253V52.03C61.4253 51.79 61.412 51.59 61.3853 51.43C61.3586 51.2633 61.302 51.14 61.2153 51.06C61.1353 50.9733 61.0053 50.93 60.8253 50.93C60.652 50.93 60.5186 50.97 60.4253 51.05C60.3386 51.13 60.2786 51.2667 60.2453 51.46C60.212 51.6467 60.1953 51.9067 60.1953 52.24V52.55ZM65.7295 56V50.22H67.3495C67.7428 50.22 68.0495 50.2867 68.2695 50.42C68.4961 50.5467 68.6561 50.7167 68.7495 50.93C68.8495 51.1367 68.9028 51.36 68.9095 51.6C68.9161 51.8867 68.8695 52.1433 68.7695 52.37C68.6695 52.5967 68.4628 52.7567 68.1495 52.85C68.3895 52.8967 68.5728 52.9967 68.6995 53.15C68.8328 53.2967 68.9228 53.4733 68.9695 53.68C69.0228 53.8867 69.0495 54.1 69.0495 54.32C69.0495 54.6533 68.9995 54.9467 68.8995 55.2C68.8061 55.4533 68.6395 55.65 68.3995 55.79C68.1661 55.93 67.8328 56 67.3995 56H65.7295ZM66.7795 55.19H67.1595C67.3128 55.19 67.4528 55.17 67.5795 55.13C67.7061 55.0833 67.8061 54.9933 67.8795 54.86C67.9595 54.7267 67.9995 54.5333 67.9995 54.28C67.9995 53.98 67.9628 53.7633 67.8895 53.63C67.8228 53.49 67.7295 53.4033 67.6095 53.37C67.4961 53.3367 67.3628 53.32 67.2095 53.32H66.7795V55.19ZM66.7795 52.55H67.2995C67.5061 52.55 67.6695 52.49 67.7895 52.37C67.9095 52.25 67.9695 52.0367 67.9695 51.73C67.9695 51.4567 67.8995 51.2667 67.7595 51.16C67.6195 51.0533 67.4295 51 67.1895 51H66.7795V52.55ZM69.8798 56V50.22H70.9498V52.61C70.9632 52.61 70.9798 52.61 70.9998 52.61C71.0265 52.61 71.0498 52.61 71.0698 52.61C71.0898 52.61 71.1065 52.61 71.1198 52.61C71.5132 52.6167 71.8465 52.6467 72.1198 52.7C72.3998 52.7467 72.6265 52.8333 72.7998 52.96C72.9732 53.08 73.0998 53.25 73.1798 53.47C73.2598 53.6833 73.2998 53.96 73.2998 54.3C73.2998 54.6133 73.2598 54.88 73.1798 55.1C73.0998 55.3133 72.9698 55.4867 72.7898 55.62C72.6098 55.7533 72.3732 55.85 72.0798 55.91C71.7865 55.97 71.4298 56 71.0098 56H69.8798ZM70.9498 55.37H71.0098C71.3498 55.37 71.6165 55.34 71.8098 55.28C72.0032 55.22 72.1398 55.1133 72.2198 54.96C72.2998 54.8 72.3398 54.5767 72.3398 54.29C72.3398 54.03 72.3032 53.8267 72.2298 53.68C72.1632 53.5267 72.0365 53.4167 71.8498 53.35C71.6698 53.2767 71.4065 53.24 71.0598 53.24C71.0532 53.24 71.0365 53.24 71.0098 53.24C70.9832 53.24 70.9632 53.24 70.9498 53.24V55.37ZM73.9598 56V50.22H75.0298V56H73.9598ZM75.6603 56L76.9603 52.96L75.6903 50.22H76.7103L77.5603 52.05L78.3103 50.22H79.3603L78.0403 53.09L79.3803 56H78.3603L77.4503 54.04L76.6703 56H75.6603ZM81.587 56.08C81.1604 56.08 80.8237 55.9933 80.577 55.82C80.3304 55.6467 80.1537 55.4 80.047 55.08C79.947 54.76 79.897 54.3833 79.897 53.95V52.27C79.897 51.8367 79.947 51.46 80.047 51.14C80.1537 50.82 80.3304 50.5733 80.577 50.4C80.8237 50.2267 81.1604 50.14 81.587 50.14C82.0137 50.14 82.347 50.2267 82.587 50.4C82.8337 50.5733 83.007 50.82 83.107 51.14C83.2137 51.46 83.267 51.8367 83.267 52.27V53.95C83.267 54.3833 83.2137 54.76 83.107 55.08C83.007 55.4 82.8337 55.6467 82.587 55.82C82.347 55.9933 82.0137 56.08 81.587 56.08ZM81.587 55.29C81.7937 55.29 81.937 55.23 82.017 55.11C82.1037 54.99 82.1537 54.8333 82.167 54.64C82.187 54.44 82.197 54.2333 82.197 54.02V52.21C82.197 51.99 82.187 51.7833 82.167 51.59C82.1537 51.3967 82.1037 51.24 82.017 51.12C81.937 50.9933 81.7937 50.93 81.587 50.93C81.3804 50.93 81.2337 50.9933 81.147 51.12C81.0604 51.24 81.007 51.3967 80.987 51.59C80.9737 51.7833 80.967 51.99 80.967 52.21V54.02C80.967 54.2333 80.9737 54.44 80.987 54.64C81.007 54.8333 81.0604 54.99 81.147 55.11C81.2337 55.23 81.3804 55.29 81.587 55.29ZM83.7251 57.47V55.29C83.9251 55.1367 84.1084 54.9533 84.2751 54.74C84.4417 54.5267 84.5884 54.2567 84.7151 53.93C84.8417 53.6033 84.9417 53.2 85.0151 52.72C85.0884 52.24 85.1284 51.66 85.1351 50.98L85.1551 50.22H87.7651V55.24H88.4651V57.47H87.6851L87.5951 56H84.5951L84.5051 57.47H83.7251ZM84.7651 55.24H86.7351V50.99H85.9851L85.9651 51.2C85.9584 51.9067 85.9217 52.4967 85.8551 52.97C85.7951 53.4367 85.7084 53.82 85.5951 54.12C85.4884 54.4133 85.3617 54.6467 85.2151 54.82C85.0751 54.9933 84.9251 55.1333 84.7651 55.24ZM89.206 56V50.22H90.106V54.11L91.846 50.22H92.686V56H91.806V52.08L90.076 56H89.206ZM94.4263 56V51.02H93.3463V50.22H96.5863V51.02H95.4963V56H94.4263ZM99.5185 56V50.22H100.589V52.65H101.959V50.22H103.029V56H101.959V53.43H100.589V56H99.5185ZM105.148 56.08C104.922 56.08 104.722 56.0167 104.548 55.89C104.375 55.7567 104.238 55.59 104.138 55.39C104.038 55.1833 103.988 54.9667 103.988 54.74C103.988 54.38 104.048 54.0767 104.168 53.83C104.288 53.5833 104.452 53.3767 104.658 53.21C104.872 53.0367 105.115 52.8867 105.388 52.76C105.668 52.6333 105.962 52.51 106.268 52.39V51.98C106.268 51.7467 106.255 51.5533 106.228 51.4C106.202 51.2467 106.145 51.1333 106.058 51.06C105.978 50.98 105.855 50.94 105.688 50.94C105.542 50.94 105.422 50.9733 105.328 51.04C105.242 51.1067 105.178 51.2033 105.138 51.33C105.098 51.45 105.078 51.5933 105.078 51.76V52.05L104.018 52.01C104.032 51.37 104.178 50.9 104.458 50.6C104.738 50.2933 105.172 50.14 105.758 50.14C106.332 50.14 106.738 50.2967 106.978 50.61C107.218 50.9233 107.338 51.3767 107.338 51.97V54.61C107.338 54.79 107.342 54.9633 107.348 55.13C107.362 55.2967 107.375 55.4533 107.388 55.6C107.408 55.74 107.425 55.8733 107.438 56H106.458C106.438 55.8933 106.412 55.76 106.378 55.6C106.352 55.4333 106.332 55.2833 106.318 55.15C106.252 55.3767 106.122 55.59 105.928 55.79C105.742 55.9833 105.482 56.08 105.148 56.08ZM105.568 55.16C105.675 55.16 105.775 55.13 105.868 55.07C105.962 55.01 106.045 54.9433 106.118 54.87C106.192 54.79 106.242 54.7267 106.268 54.68V53.04C106.102 53.1333 105.945 53.2267 105.798 53.32C105.652 53.4133 105.522 53.5133 105.408 53.62C105.302 53.72 105.215 53.8367 105.148 53.97C105.088 54.0967 105.058 54.2433 105.058 54.41C105.058 54.6433 105.102 54.8267 105.188 54.96C105.275 55.0933 105.402 55.16 105.568 55.16ZM112.231 56.08C111.758 56.08 111.398 55.9867 111.151 55.8C110.911 55.6067 110.748 55.3367 110.661 54.99C110.581 54.6433 110.541 54.24 110.541 53.78V52.45C110.541 51.9633 110.585 51.55 110.671 51.21C110.758 50.8633 110.921 50.6 111.161 50.42C111.408 50.2333 111.765 50.14 112.231 50.14C112.651 50.14 112.975 50.21 113.201 50.35C113.435 50.4833 113.595 50.6867 113.681 50.96C113.768 51.2267 113.811 51.56 113.811 51.96V52.3H112.841V51.95C112.841 51.6967 112.825 51.4967 112.791 51.35C112.758 51.2033 112.698 51.0967 112.611 51.03C112.525 50.9633 112.401 50.93 112.241 50.93C112.068 50.93 111.935 50.97 111.841 51.05C111.748 51.13 111.685 51.2667 111.651 51.46C111.625 51.6467 111.611 51.9033 111.611 52.23V54.05C111.611 54.5433 111.658 54.8733 111.751 55.04C111.845 55.2067 112.011 55.29 112.251 55.29C112.431 55.29 112.561 55.25 112.641 55.17C112.728 55.0833 112.781 54.9633 112.801 54.81C112.828 54.6567 112.841 54.4833 112.841 54.29V53.82H113.811V54.22C113.811 54.6067 113.765 54.94 113.671 55.22C113.585 55.5 113.425 55.7133 113.191 55.86C112.965 56.0067 112.645 56.08 112.231 56.08ZM114.763 56V50.22H116.383C116.776 50.22 117.083 50.2867 117.303 50.42C117.529 50.5467 117.689 50.7167 117.783 50.93C117.883 51.1367 117.936 51.36 117.943 51.6C117.949 51.8867 117.903 52.1433 117.803 52.37C117.703 52.5967 117.496 52.7567 117.183 52.85C117.423 52.8967 117.606 52.9967 117.733 53.15C117.866 53.2967 117.956 53.4733 118.003 53.68C118.056 53.8867 118.083 54.1 118.083 54.32C118.083 54.6533 118.033 54.9467 117.933 55.2C117.839 55.4533 117.673 55.65 117.433 55.79C117.199 55.93 116.866 56 116.433 56H114.763ZM115.813 55.19H116.193C116.346 55.19 116.486 55.17 116.613 55.13C116.739 55.0833 116.839 54.9933 116.913 54.86C116.993 54.7267 117.033 54.5333 117.033 54.28C117.033 53.98 116.996 53.7633 116.923 53.63C116.856 53.49 116.763 53.4033 116.643 53.37C116.529 53.3367 116.396 53.32 116.243 53.32H115.813V55.19ZM115.813 52.55H116.333C116.539 52.55 116.703 52.49 116.823 52.37C116.943 52.25 117.003 52.0367 117.003 51.73C117.003 51.4567 116.933 51.2667 116.793 51.16C116.653 51.0533 116.463 51 116.223 51H115.813V52.55ZM118.473 56L119.563 53.55C119.376 53.4767 119.223 53.3667 119.103 53.22C118.99 53.0733 118.906 52.8933 118.853 52.68C118.8 52.4667 118.773 52.2267 118.773 51.96C118.773 51.6533 118.813 51.39 118.893 51.17C118.973 50.95 119.1 50.77 119.273 50.63C119.446 50.49 119.676 50.3867 119.963 50.32C120.25 50.2533 120.603 50.22 121.023 50.22H122.143V56H121.083V53.72C120.976 53.72 120.886 53.72 120.813 53.72C120.74 53.7133 120.66 53.7067 120.573 53.7L119.623 56H118.473ZM120.963 53.1C120.976 53.1 120.996 53.1 121.023 53.1C121.056 53.1 121.076 53.1 121.083 53.1V50.83C121.076 50.83 121.056 50.83 121.023 50.83C120.996 50.83 120.98 50.83 120.973 50.83C120.66 50.83 120.41 50.87 120.223 50.95C120.043 51.0233 119.916 51.1433 119.843 51.31C119.77 51.47 119.733 51.6867 119.733 51.96C119.733 52.34 119.816 52.6233 119.983 52.81C120.156 52.9967 120.483 53.0933 120.963 53.1ZM124.589 56.1C124.323 56.1 124.093 56.0633 123.899 55.99C123.706 55.9167 123.546 55.8033 123.419 55.65C123.293 55.49 123.199 55.2933 123.139 55.06C123.079 54.8267 123.049 54.55 123.049 54.23H123.959C123.959 54.6233 124.016 54.9067 124.129 55.08C124.243 55.2533 124.403 55.34 124.609 55.34C124.789 55.34 124.919 55.2933 124.999 55.2C125.079 55.1067 125.129 54.98 125.149 54.82C125.169 54.6533 125.179 54.47 125.179 54.27C125.179 54.0167 125.143 53.83 125.069 53.71C125.003 53.5833 124.883 53.5 124.709 53.46C124.543 53.42 124.309 53.4 124.009 53.4V52.64C124.476 52.64 124.786 52.57 124.939 52.43C125.099 52.29 125.179 52.06 125.179 51.74C125.179 51.4533 125.119 51.2467 124.999 51.12C124.879 50.9933 124.729 50.93 124.549 50.93C124.349 50.93 124.189 50.9933 124.069 51.12C123.949 51.2467 123.889 51.5 123.889 51.88H122.979C122.979 51.4467 123.043 51.1033 123.169 50.85C123.303 50.5967 123.489 50.4167 123.729 50.31C123.976 50.1967 124.263 50.14 124.589 50.14C124.949 50.14 125.239 50.2133 125.459 50.36C125.686 50.5067 125.849 50.7 125.949 50.94C126.056 51.1733 126.109 51.42 126.109 51.68C126.109 52.0133 126.056 52.2733 125.949 52.46C125.849 52.6467 125.723 52.78 125.569 52.86C125.423 52.94 125.279 52.9867 125.139 53C125.286 53.0267 125.433 53.0767 125.579 53.15C125.733 53.2167 125.859 53.3467 125.959 53.54C126.066 53.7267 126.119 54.02 126.119 54.42C126.119 54.9667 125.993 55.3833 125.739 55.67C125.486 55.9567 125.103 56.1 124.589 56.1ZM126.979 56V50.22H128.049V52.61C128.063 52.61 128.079 52.61 128.099 52.61C128.126 52.61 128.149 52.61 128.169 52.61C128.189 52.61 128.206 52.61 128.219 52.61C128.613 52.6167 128.946 52.6467 129.219 52.7C129.499 52.7467 129.726 52.8333 129.899 52.96C130.073 53.08 130.199 53.25 130.279 53.47C130.359 53.6833 130.399 53.96 130.399 54.3C130.399 54.6133 130.359 54.88 130.279 55.1C130.199 55.3133 130.069 55.4867 129.889 55.62C129.709 55.7533 129.473 55.85 129.179 55.91C128.886 55.97 128.529 56 128.109 56H126.979ZM128.049 55.37H128.109C128.449 55.37 128.716 55.34 128.909 55.28C129.103 55.22 129.239 55.1133 129.319 54.96C129.399 54.8 129.439 54.5767 129.439 54.29C129.439 54.03 129.403 53.8267 129.329 53.68C129.263 53.5267 129.136 53.4167 128.949 53.35C128.769 53.2767 128.506 53.24 128.159 53.24C128.153 53.24 128.136 53.24 128.109 53.24C128.083 53.24 128.063 53.24 128.049 53.24V55.37Z"></path>
</svg>
