<svg xmlns="http://www.w3.org/2000/svg" fill="none" viewBox="0 0 156 56" height="56" width="156">
<rect stroke="white" fill="#0D0E12" height="55" width="155" y="0.5" x="0.5"></rect>
<path fill="white" d="M43.7834 16V10.22H45.8334C46.4134 10.22 46.8501 10.2833 47.1434 10.41C47.4368 10.53 47.6334 10.6967 47.7334 10.91C47.8334 11.1233 47.8834 11.3733 47.8834 11.66C47.8834 12.04 47.8001 12.32 47.6334 12.5C47.4734 12.6733 47.2601 12.7967 46.9934 12.87C47.2734 12.9367 47.4868 13.0367 47.6334 13.17C47.7801 13.3033 47.8801 13.4667 47.9334 13.66C47.9934 13.8533 48.0234 14.0767 48.0234 14.33C48.0234 14.7033 47.9534 15.0167 47.8134 15.27C47.6734 15.5167 47.4368 15.7 47.1034 15.82C46.7701 15.94 46.3168 16 45.7434 16H43.7834ZM45.4034 15.1H45.6734C45.8201 15.1 45.9501 15.0867 46.0634 15.06C46.1768 15.0333 46.2668 14.9633 46.3334 14.85C46.4068 14.73 46.4434 14.54 46.4434 14.28C46.4434 13.9867 46.4101 13.7767 46.3434 13.65C46.2834 13.5233 46.1968 13.4467 46.0834 13.42C45.9701 13.3933 45.8368 13.38 45.6834 13.38H45.4034V15.1ZM45.4034 12.5H45.8134C46.0068 12.5 46.1401 12.44 46.2134 12.32C46.2868 12.1933 46.3234 12.02 46.3234 11.8C46.3234 11.5867 46.2834 11.41 46.2034 11.27C46.1301 11.13 45.9601 11.06 45.6934 11.06H45.4034V12.5ZM48.8323 17.9V10.22H50.4623V10.64C50.6556 10.4667 50.8623 10.3367 51.0823 10.25C51.3023 10.1633 51.5123 10.12 51.7123 10.12C51.9323 10.12 52.1189 10.1633 52.2723 10.25C52.4323 10.3367 52.5623 10.46 52.6623 10.62C52.7623 10.7733 52.8356 10.9533 52.8823 11.16C52.9289 11.3667 52.9523 11.5867 52.9523 11.82V14.31C52.9523 14.67 52.9023 14.9833 52.8023 15.25C52.7089 15.5167 52.5689 15.7267 52.3823 15.88C52.1956 16.0267 51.9656 16.1 51.6923 16.1C51.4856 16.1 51.2756 16.0533 51.0623 15.96C50.8556 15.86 50.6556 15.7267 50.4623 15.56V17.9H48.8323ZM50.8923 15.05C50.9989 15.05 51.0823 15.02 51.1423 14.96C51.2023 14.9 51.2456 14.8233 51.2723 14.73C51.3056 14.63 51.3223 14.52 51.3223 14.4V11.7C51.3223 11.5867 51.3089 11.4867 51.2823 11.4C51.2556 11.3067 51.2123 11.2333 51.1523 11.18C51.0923 11.1267 51.0156 11.1 50.9223 11.1C50.8356 11.1 50.7523 11.12 50.6723 11.16C50.5989 11.1933 50.5289 11.24 50.4623 11.3V14.9C50.5356 14.9467 50.6056 14.9833 50.6723 15.01C50.7456 15.0367 50.8189 15.05 50.8923 15.05ZM54.0411 17.68V16.55C54.2478 16.55 54.4178 16.5367 54.5511 16.51C54.6911 16.4833 54.7944 16.4333 54.8611 16.36C54.9344 16.2867 54.9711 16.1867 54.9711 16.06C54.9711 15.9467 54.9511 15.81 54.9111 15.65C54.8711 15.4833 54.8211 15.2967 54.7611 15.09L53.4011 10.22H54.9311L55.6611 13.56L56.2111 10.22H57.7511L56.4211 16.14C56.3344 16.54 56.1978 16.85 56.0111 17.07C55.8244 17.2967 55.5944 17.4533 55.3211 17.54C55.0544 17.6333 54.7511 17.68 54.4111 17.68H54.0411ZM60.6735 16V13.67C60.5868 13.6767 60.4968 13.6833 60.4035 13.69C60.3168 13.6967 60.2302 13.7 60.1435 13.7C59.6502 13.7 59.2635 13.6433 58.9835 13.53C58.7102 13.41 58.5168 13.2433 58.4035 13.03C58.2968 12.81 58.2435 12.55 58.2435 12.25V10.22H59.8635V12.15C59.8635 12.3567 59.9035 12.51 59.9835 12.61C60.0635 12.71 60.2268 12.7667 60.4735 12.78C60.5068 12.78 60.5368 12.78 60.5635 12.78C60.5968 12.7733 60.6335 12.77 60.6735 12.77V10.22H62.3035V16H60.6735ZM64.5145 16.1C64.2211 16.1 63.9745 16.03 63.7745 15.89C63.5745 15.75 63.4245 15.5733 63.3245 15.36C63.2245 15.14 63.1745 14.9167 63.1745 14.69C63.1745 14.33 63.2445 14.0267 63.3845 13.78C63.5311 13.5333 63.7211 13.3267 63.9545 13.16C64.1878 12.9933 64.4445 12.8533 64.7245 12.74C65.0045 12.62 65.2811 12.5133 65.5545 12.42V11.84C65.5545 11.74 65.5445 11.6533 65.5245 11.58C65.5045 11.5 65.4711 11.44 65.4245 11.4C65.3778 11.3533 65.3078 11.33 65.2145 11.33C65.1211 11.33 65.0478 11.35 64.9945 11.39C64.9478 11.43 64.9145 11.4867 64.8945 11.56C64.8745 11.6267 64.8611 11.7033 64.8545 11.79L64.8145 12.21L63.2945 12.15C63.3278 11.4567 63.5111 10.9467 63.8445 10.62C64.1845 10.2867 64.6911 10.12 65.3645 10.12C65.9511 10.12 66.3878 10.2833 66.6745 10.61C66.9678 10.93 67.1145 11.3467 67.1145 11.86V14.56C67.1145 14.8 67.1178 15.01 67.1245 15.19C67.1378 15.37 67.1511 15.5267 67.1645 15.66C67.1845 15.7933 67.2011 15.9067 67.2145 16H65.7545C65.7345 15.8467 65.7111 15.68 65.6845 15.5C65.6578 15.32 65.6378 15.2133 65.6245 15.18C65.5578 15.42 65.4311 15.6333 65.2445 15.82C65.0645 16.0067 64.8211 16.1 64.5145 16.1ZM65.0945 15C65.1611 15 65.2211 14.9867 65.2745 14.96C65.3345 14.9333 65.3878 14.8967 65.4345 14.85C65.4811 14.8033 65.5211 14.7567 65.5545 14.71V13.13C65.4211 13.21 65.2978 13.2933 65.1845 13.38C65.0711 13.46 64.9745 13.55 64.8945 13.65C64.8145 13.75 64.7511 13.86 64.7045 13.98C64.6645 14.0933 64.6445 14.2233 64.6445 14.37C64.6445 14.5633 64.6845 14.7167 64.7645 14.83C64.8445 14.9433 64.9545 15 65.0945 15ZM69.9703 16.1C69.5503 16.1 69.1903 16.0267 68.8903 15.88C68.5903 15.7267 68.3603 15.5067 68.2003 15.22C68.0403 14.9267 67.9603 14.5767 67.9603 14.17V12.05C67.9603 11.6367 68.0403 11.2867 68.2003 11C68.3603 10.7133 68.5903 10.4967 68.8903 10.35C69.197 10.1967 69.557 10.12 69.9703 10.12C70.397 10.12 70.7503 10.1933 71.0303 10.34C71.317 10.4867 71.5303 10.7033 71.6703 10.99C71.817 11.2767 71.8903 11.63 71.8903 12.05V13.21H69.5703V14.32C69.5703 14.4667 69.587 14.5867 69.6203 14.68C69.6536 14.7733 69.7003 14.84 69.7603 14.88C69.8203 14.92 69.8903 14.94 69.9703 14.94C70.0503 14.94 70.1203 14.9233 70.1803 14.89C70.247 14.85 70.297 14.79 70.3303 14.71C70.3703 14.63 70.3903 14.52 70.3903 14.38V13.77H71.8903V14.33C71.8903 14.9167 71.7203 15.36 71.3803 15.66C71.0403 15.9533 70.5703 16.1 69.9703 16.1ZM69.5703 12.45H70.3903V11.87C70.3903 11.7167 70.3703 11.5967 70.3303 11.51C70.297 11.4233 70.247 11.3633 70.1803 11.33C70.1203 11.2967 70.047 11.28 69.9603 11.28C69.8803 11.28 69.8103 11.3 69.7503 11.34C69.697 11.38 69.6536 11.45 69.6203 11.55C69.587 11.6433 69.5703 11.78 69.5703 11.96V12.45ZM73.4385 16V11.32H72.3885V10.22H76.1085V11.32H75.0585V16H73.4385ZM78.6713 16.1C78.2513 16.1 77.8913 16.0233 77.5913 15.87C77.2979 15.7167 77.0713 15.4967 76.9113 15.21C76.7513 14.9233 76.6713 14.5767 76.6713 14.17V12.05C76.6713 11.6367 76.7513 11.2867 76.9113 11C77.0713 10.7133 77.2979 10.4967 77.5913 10.35C77.8913 10.1967 78.2513 10.12 78.6713 10.12C79.0846 10.12 79.4346 10.1833 79.7213 10.31C80.0146 10.4367 80.2379 10.63 80.3913 10.89C80.5446 11.1433 80.6213 11.4667 80.6213 11.86V12.47H79.0513V11.81C79.0513 11.6567 79.0346 11.54 79.0013 11.46C78.9746 11.3733 78.9313 11.3133 78.8713 11.28C78.8179 11.2467 78.7513 11.23 78.6713 11.23C78.5913 11.23 78.5246 11.2533 78.4713 11.3C78.4179 11.34 78.3779 11.41 78.3513 11.51C78.3246 11.6033 78.3113 11.7367 78.3113 11.91V14.31C78.3113 14.57 78.3413 14.7467 78.4013 14.84C78.4679 14.9333 78.5613 14.98 78.6813 14.98C78.7679 14.98 78.8379 14.9633 78.8913 14.93C78.9446 14.89 78.9846 14.83 79.0113 14.75C79.0379 14.6633 79.0513 14.55 79.0513 14.41V13.64H80.6213V14.34C80.6213 14.7267 80.5413 15.0533 80.3813 15.32C80.2279 15.58 80.0046 15.7767 79.7113 15.91C79.4246 16.0367 79.0779 16.1 78.6713 16.1ZM81.129 16L82.029 13.6C81.8757 13.5133 81.7457 13.3933 81.639 13.24C81.5323 13.0867 81.4523 12.9067 81.399 12.7C81.3457 12.4933 81.319 12.27 81.319 12.03C81.319 11.7633 81.3557 11.52 81.429 11.3C81.509 11.08 81.6323 10.89 81.799 10.73C81.9723 10.57 82.1957 10.4467 82.469 10.36C82.7423 10.2667 83.0723 10.22 83.459 10.22H85.609V16H83.989V13.94C83.9623 13.94 83.889 13.94 83.769 13.94C83.649 13.9333 83.559 13.9267 83.499 13.92L82.849 16H81.129ZM83.919 12.98C83.9323 12.98 83.9457 12.98 83.959 12.98C83.9723 12.98 83.9823 12.98 83.989 12.98V11.14C83.9823 11.14 83.9723 11.14 83.959 11.14C83.9457 11.14 83.9323 11.14 83.919 11.14C83.6723 11.14 83.4657 11.1733 83.299 11.24C83.1323 11.3067 83.0057 11.4067 82.919 11.54C82.839 11.6667 82.799 11.8267 82.799 12.02C82.799 12.3467 82.8957 12.5867 83.089 12.74C83.289 12.8933 83.5657 12.9733 83.919 12.98ZM89.8838 16V11.32H88.8338V10.22H92.5538V11.32H91.5038V16H89.8838ZM95.0584 16.1C94.6451 16.1 94.2851 16.03 93.9784 15.89C93.6784 15.75 93.4451 15.54 93.2784 15.26C93.1184 14.98 93.0384 14.63 93.0384 14.21V12.01C93.0384 11.59 93.1184 11.24 93.2784 10.96C93.4451 10.68 93.6784 10.47 93.9784 10.33C94.2851 10.19 94.6451 10.12 95.0584 10.12C95.4718 10.12 95.8284 10.19 96.1284 10.33C96.4351 10.47 96.6718 10.68 96.8384 10.96C97.0051 11.24 97.0884 11.59 97.0884 12.01V14.21C97.0884 14.63 97.0051 14.98 96.8384 15.26C96.6718 15.54 96.4351 15.75 96.1284 15.89C95.8284 16.03 95.4718 16.1 95.0584 16.1ZM95.0684 15.02C95.1751 15.02 95.2584 14.9933 95.3184 14.94C95.3784 14.88 95.4184 14.8 95.4384 14.7C95.4651 14.5933 95.4784 14.4667 95.4784 14.32V11.9C95.4784 11.7533 95.4651 11.63 95.4384 11.53C95.4184 11.4233 95.3784 11.3433 95.3184 11.29C95.2584 11.23 95.1751 11.2 95.0684 11.2C94.9618 11.2 94.8784 11.23 94.8184 11.29C94.7584 11.3433 94.7151 11.4233 94.6884 11.53C94.6618 11.63 94.6484 11.7533 94.6484 11.9V14.32C94.6484 14.4667 94.6618 14.5933 94.6884 14.7C94.7151 14.8 94.7584 14.88 94.8184 14.94C94.8784 14.9933 94.9618 15.02 95.0684 15.02ZM97.9824 16L98.0024 10.22H99.2024L100.382 12.99L101.572 10.22H102.772L102.792 16H101.522V12.96L100.632 15.1H100.152L99.2524 12.95V16H97.9824ZM103.973 17.68V16.55C104.179 16.55 104.349 16.5367 104.483 16.51C104.623 16.4833 104.726 16.4333 104.793 16.36C104.866 16.2867 104.903 16.1867 104.903 16.06C104.903 15.9467 104.883 15.81 104.843 15.65C104.803 15.4833 104.753 15.2967 104.693 15.09L103.333 10.22H104.863L105.593 13.56L106.143 10.22H107.683L106.353 16.14C106.266 16.54 106.129 16.85 105.943 17.07C105.756 17.2967 105.526 17.4533 105.253 17.54C104.986 17.6333 104.683 17.68 104.343 17.68H103.973ZM108.465 17.4L108.365 16.87C108.538 16.8233 108.698 16.7367 108.845 16.61C108.998 16.49 109.075 16.2867 109.075 16H108.215V14.46H109.765V15.79C109.758 16.2833 109.648 16.6667 109.435 16.94C109.222 17.2133 108.898 17.3667 108.465 17.4ZM37.5192 31V28.67C37.4326 28.6767 37.3426 28.6833 37.2492 28.69C37.1626 28.6967 37.0759 28.7 36.9892 28.7C36.4959 28.7 36.1092 28.6433 35.8292 28.53C35.5559 28.41 35.3626 28.2433 35.2492 28.03C35.1426 27.81 35.0892 27.55 35.0892 27.25V25.22H36.7092V27.15C36.7092 27.3567 36.7492 27.51 36.8292 27.61C36.9092 27.71 37.0726 27.7667 37.3192 27.78C37.3526 27.78 37.3826 27.78 37.4092 27.78C37.4426 27.7733 37.4792 27.77 37.5192 27.77V25.22H39.1492V31H37.5192ZM40.1702 31V25.22H41.8002V27.54C41.8068 27.54 41.8102 27.54 41.8102 27.54C41.8168 27.54 41.8235 27.54 41.8302 27.54C41.8368 27.54 41.8435 27.54 41.8502 27.54C42.2502 27.54 42.6035 27.5667 42.9102 27.62C43.2168 27.6733 43.4702 27.7667 43.6702 27.9C43.8768 28.0267 44.0335 28.2 44.1402 28.42C44.2468 28.6333 44.3002 28.9067 44.3002 29.24C44.3002 29.5533 44.2535 29.8233 44.1602 30.05C44.0735 30.27 43.9302 30.45 43.7302 30.59C43.5368 30.73 43.2835 30.8333 42.9702 30.9C42.6635 30.9667 42.2935 31 41.8602 31H40.1702ZM41.8002 30.07H41.8302C42.0768 30.07 42.2702 30.0467 42.4102 30C42.5568 29.9467 42.6602 29.8633 42.7202 29.75C42.7868 29.63 42.8202 29.4733 42.8202 29.28C42.8202 29.0733 42.7868 28.9167 42.7202 28.81C42.6602 28.6967 42.5568 28.6167 42.4102 28.57C42.2702 28.5233 42.0835 28.5 41.8502 28.5C41.8435 28.5 41.8335 28.5 41.8202 28.5C41.8135 28.5 41.8068 28.5 41.8002 28.5V30.07ZM44.752 31L45.652 28.6C45.4987 28.5133 45.3687 28.3933 45.262 28.24C45.1554 28.0867 45.0754 27.9067 45.022 27.7C44.9687 27.4933 44.942 27.27 44.942 27.03C44.942 26.7633 44.9787 26.52 45.052 26.3C45.132 26.08 45.2554 25.89 45.422 25.73C45.5954 25.57 45.8187 25.4467 46.092 25.36C46.3654 25.2667 46.6954 25.22 47.082 25.22H49.232V31H47.612V28.94C47.5854 28.94 47.512 28.94 47.392 28.94C47.272 28.9333 47.182 28.9267 47.122 28.92L46.472 31H44.752ZM47.542 27.98C47.5554 27.98 47.5687 27.98 47.582 27.98C47.5954 27.98 47.6054 27.98 47.612 27.98V26.14C47.6054 26.14 47.5954 26.14 47.582 26.14C47.5687 26.14 47.5554 26.14 47.542 26.14C47.2954 26.14 47.0887 26.1733 46.922 26.24C46.7554 26.3067 46.6287 26.4067 46.542 26.54C46.462 26.6667 46.422 26.8267 46.422 27.02C46.422 27.3467 46.5187 27.5867 46.712 27.74C46.912 27.8933 47.1887 27.9733 47.542 27.98ZM54.6669 31.1C54.2602 31.1 53.9102 31.0367 53.6169 30.91C53.3302 30.7833 53.1069 30.5933 52.9469 30.34C52.7935 30.08 52.7169 29.7567 52.7169 29.37V29.07H54.2869V29.38C54.2869 29.6067 54.3202 29.76 54.3869 29.84C54.4535 29.9133 54.5469 29.95 54.6669 29.95C54.7535 29.95 54.8235 29.93 54.8769 29.89C54.9302 29.85 54.9702 29.78 54.9969 29.68C55.0235 29.58 55.0369 29.4433 55.0369 29.27V28.49H53.7069V27.8H55.0369V26.94C55.0369 26.7667 55.0202 26.6333 54.9869 26.54C54.9602 26.44 54.9202 26.3733 54.8669 26.34C54.8135 26.3 54.7469 26.28 54.6669 26.28C54.5402 26.28 54.4435 26.3233 54.3769 26.41C54.3169 26.49 54.2869 26.6367 54.2869 26.85V27.26H52.7169V26.87C52.7169 26.4833 52.7935 26.16 52.9469 25.9C53.1069 25.64 53.3335 25.4467 53.6269 25.32C53.9202 25.1867 54.2669 25.12 54.6669 25.12C55.0935 25.12 55.4535 25.1967 55.7469 25.35C56.0469 25.5033 56.2735 25.7233 56.4269 26.01C56.5869 26.2967 56.6669 26.6433 56.6669 27.05V29.18C56.6669 29.5867 56.5869 29.9333 56.4269 30.22C56.2735 30.5067 56.0469 30.7267 55.7469 30.88C55.4469 31.0267 55.0869 31.1 54.6669 31.1ZM59.8227 32.72V30.92H59.6527C59.4394 30.92 59.2061 30.89 58.9527 30.83C58.7061 30.7633 58.4694 30.6533 58.2427 30.5C58.0161 30.34 57.8294 30.13 57.6827 29.87C57.5361 29.6033 57.4627 29.27 57.4627 28.87V27.24C57.4627 26.8867 57.5261 26.5833 57.6527 26.33C57.7861 26.0767 57.9594 25.87 58.1727 25.71C58.3861 25.55 58.6227 25.4333 58.8827 25.36C59.1427 25.28 59.3994 25.24 59.6527 25.24H59.8227V22.91H61.2327V25.24H61.4327C61.7794 25.24 62.1194 25.31 62.4527 25.45C62.7861 25.5833 63.0594 25.7967 63.2727 26.09C63.4927 26.3833 63.6027 26.7667 63.6027 27.24V28.87C63.6027 29.27 63.5294 29.6033 63.3827 29.87C63.2361 30.13 63.0494 30.34 62.8227 30.5C62.5961 30.6533 62.3594 30.7633 62.1127 30.83C61.8661 30.89 61.6394 30.92 61.4327 30.92H61.2327V32.72H59.8227ZM59.6927 29.95H59.8227V26.15H59.6827C59.5561 26.15 59.4394 26.1867 59.3327 26.26C59.2261 26.3267 59.1394 26.43 59.0727 26.57C59.0127 26.71 58.9827 26.8867 58.9827 27.1V28.98C58.9827 29.1867 59.0127 29.3633 59.0727 29.51C59.1327 29.6567 59.2161 29.7667 59.3227 29.84C59.4294 29.9133 59.5527 29.95 59.6927 29.95ZM61.2327 29.95H61.3427C61.4761 29.95 61.5961 29.9133 61.7027 29.84C61.8161 29.7667 61.9061 29.6567 61.9727 29.51C62.0461 29.3633 62.0827 29.1867 62.0827 28.98V27.1C62.0827 26.8867 62.0494 26.71 61.9827 26.57C61.9161 26.43 61.8261 26.3267 61.7127 26.26C61.6061 26.1867 61.4861 26.15 61.3527 26.15H61.2327V29.95ZM66.7954 32.72V30.92H66.6254C66.4121 30.92 66.1787 30.89 65.9254 30.83C65.6787 30.7633 65.4421 30.6533 65.2154 30.5C64.9887 30.34 64.8021 30.13 64.6554 29.87C64.5087 29.6033 64.4354 29.27 64.4354 28.87V27.24C64.4354 26.8867 64.4987 26.5833 64.6254 26.33C64.7587 26.0767 64.9321 25.87 65.1454 25.71C65.3587 25.55 65.5954 25.4333 65.8554 25.36C66.1154 25.28 66.3721 25.24 66.6254 25.24H66.7954V22.91H68.2054V25.24H68.4054C68.7521 25.24 69.0921 25.31 69.4254 25.45C69.7587 25.5833 70.0321 25.7967 70.2454 26.09C70.4654 26.3833 70.5754 26.7667 70.5754 27.24V28.87C70.5754 29.27 70.5021 29.6033 70.3554 29.87C70.2087 30.13 70.0221 30.34 69.7954 30.5C69.5687 30.6533 69.3321 30.7633 69.0854 30.83C68.8387 30.89 68.6121 30.92 68.4054 30.92H68.2054V32.72H66.7954ZM66.6654 29.95H66.7954V26.15H66.6554C66.5287 26.15 66.4121 26.1867 66.3054 26.26C66.1987 26.3267 66.1121 26.43 66.0454 26.57C65.9854 26.71 65.9554 26.8867 65.9554 27.1V28.98C65.9554 29.1867 65.9854 29.3633 66.0454 29.51C66.1054 29.6567 66.1887 29.7667 66.2954 29.84C66.4021 29.9133 66.5254 29.95 66.6654 29.95ZM68.2054 29.95H68.3154C68.4487 29.95 68.5687 29.9133 68.6754 29.84C68.7887 29.7667 68.8787 29.6567 68.9454 29.51C69.0187 29.3633 69.0554 29.1867 69.0554 28.98V27.1C69.0554 26.8867 69.0221 26.71 68.9554 26.57C68.8887 26.43 68.7987 26.3267 68.6854 26.26C68.5787 26.1867 68.4587 26.15 68.3254 26.15H68.2054V29.95ZM73.398 31.1C72.978 31.1 72.618 31.0267 72.318 30.88C72.018 30.7267 71.788 30.5067 71.628 30.22C71.468 29.9267 71.388 29.5767 71.388 29.17V27.05C71.388 26.6367 71.468 26.2867 71.628 26C71.788 25.7133 72.018 25.4967 72.318 25.35C72.6247 25.1967 72.9847 25.12 73.398 25.12C73.8247 25.12 74.178 25.1933 74.458 25.34C74.7447 25.4867 74.958 25.7033 75.098 25.99C75.2447 26.2767 75.318 26.63 75.318 27.05V28.21H72.998V29.32C72.998 29.4667 73.0147 29.5867 73.048 29.68C73.0814 29.7733 73.128 29.84 73.188 29.88C73.248 29.92 73.318 29.94 73.398 29.94C73.478 29.94 73.548 29.9233 73.608 29.89C73.6747 29.85 73.7247 29.79 73.758 29.71C73.798 29.63 73.818 29.52 73.818 29.38V28.77H75.318V29.33C75.318 29.9167 75.148 30.36 74.808 30.66C74.468 30.9533 73.998 31.1 73.398 31.1ZM72.998 27.45H73.818V26.87C73.818 26.7167 73.798 26.5967 73.758 26.51C73.7247 26.4233 73.6747 26.3633 73.608 26.33C73.548 26.2967 73.4747 26.28 73.388 26.28C73.308 26.28 73.238 26.3 73.178 26.34C73.1247 26.38 73.0814 26.45 73.048 26.55C73.0147 26.6433 72.998 26.78 72.998 26.96V27.45ZM76.2053 31V25.22H77.8353V27.5H78.0753L78.9553 25.22H80.7053L79.5653 27.95L80.7353 31H79.0153L78.0753 28.44H77.8353V31H76.2053ZM82.0323 31V26.32H80.9823V25.22H84.7023V26.32H83.6523V31H82.0323ZM85.385 31V25.22H86.675V28.31L88.185 25.22H89.455V31H88.135V27.94L86.665 31H85.385ZM90.4631 31V25.22H92.5131C93.0931 25.22 93.5298 25.2833 93.8231 25.41C94.1165 25.53 94.3131 25.6967 94.4131 25.91C94.5131 26.1233 94.5631 26.3733 94.5631 26.66C94.5631 27.04 94.4798 27.32 94.3131 27.5C94.1531 27.6733 93.9398 27.7967 93.6731 27.87C93.9531 27.9367 94.1665 28.0367 94.3131 28.17C94.4598 28.3033 94.5598 28.4667 94.6131 28.66C94.6731 28.8533 94.7031 29.0767 94.7031 29.33C94.7031 29.7033 94.6331 30.0167 94.4931 30.27C94.3531 30.5167 94.1165 30.7 93.7831 30.82C93.4498 30.94 92.9965 31 92.4231 31H90.4631ZM92.0831 30.1H92.3531C92.4998 30.1 92.6298 30.0867 92.7431 30.06C92.8565 30.0333 92.9465 29.9633 93.0131 29.85C93.0865 29.73 93.1231 29.54 93.1231 29.28C93.1231 28.9867 93.0898 28.7767 93.0231 28.65C92.9631 28.5233 92.8765 28.4467 92.7631 28.42C92.6498 28.3933 92.5165 28.38 92.3631 28.38H92.0831V30.1ZM92.0831 27.5H92.4931C92.6865 27.5 92.8198 27.44 92.8931 27.32C92.9665 27.1933 93.0031 27.02 93.0031 26.8C93.0031 26.5867 92.9631 26.41 92.8831 26.27C92.8098 26.13 92.6398 26.06 92.3731 26.06H92.0831V27.5ZM95.512 31V25.22H97.142V27.46H98.112V25.22H99.752V31H98.112V28.58H97.142V31H95.512ZM102.666 31.1C102.253 31.1 101.893 31.03 101.586 30.89C101.286 30.75 101.053 30.54 100.886 30.26C100.726 29.98 100.646 29.63 100.646 29.21V27.01C100.646 26.59 100.726 26.24 100.886 25.96C101.053 25.68 101.286 25.47 101.586 25.33C101.893 25.19 102.253 25.12 102.666 25.12C103.079 25.12 103.436 25.19 103.736 25.33C104.043 25.47 104.279 25.68 104.446 25.96C104.613 26.24 104.696 26.59 104.696 27.01V29.21C104.696 29.63 104.613 29.98 104.446 30.26C104.279 30.54 104.043 30.75 103.736 30.89C103.436 31.03 103.079 31.1 102.666 31.1ZM102.676 30.02C102.783 30.02 102.866 29.9933 102.926 29.94C102.986 29.88 103.026 29.8 103.046 29.7C103.073 29.5933 103.086 29.4667 103.086 29.32V26.9C103.086 26.7533 103.073 26.63 103.046 26.53C103.026 26.4233 102.986 26.3433 102.926 26.29C102.866 26.23 102.783 26.2 102.676 26.2C102.569 26.2 102.486 26.23 102.426 26.29C102.366 26.3433 102.323 26.4233 102.296 26.53C102.269 26.63 102.256 26.7533 102.256 26.9V29.32C102.256 29.4667 102.269 29.5933 102.296 29.7C102.323 29.8 102.366 29.88 102.426 29.94C102.486 29.9933 102.569 30.02 102.676 30.02ZM107.48 31.1C107.06 31.1 106.7 31.0233 106.4 30.87C106.107 30.7167 105.88 30.4967 105.72 30.21C105.56 29.9233 105.48 29.5767 105.48 29.17V27.05C105.48 26.6367 105.56 26.2867 105.72 26C105.88 25.7133 106.107 25.4967 106.4 25.35C106.7 25.1967 107.06 25.12 107.48 25.12C107.893 25.12 108.243 25.1833 108.53 25.31C108.823 25.4367 109.047 25.63 109.2 25.89C109.353 26.1433 109.43 26.4667 109.43 26.86V27.47H107.86V26.81C107.86 26.6567 107.843 26.54 107.81 26.46C107.783 26.3733 107.74 26.3133 107.68 26.28C107.627 26.2467 107.56 26.23 107.48 26.23C107.4 26.23 107.333 26.2533 107.28 26.3C107.227 26.34 107.187 26.41 107.16 26.51C107.133 26.6033 107.12 26.7367 107.12 26.91V29.31C107.12 29.57 107.15 29.7467 107.21 29.84C107.277 29.9333 107.37 29.98 107.49 29.98C107.577 29.98 107.647 29.9633 107.7 29.93C107.753 29.89 107.793 29.83 107.82 29.75C107.847 29.6633 107.86 29.55 107.86 29.41V28.64H109.43V29.34C109.43 29.7267 109.35 30.0533 109.19 30.32C109.037 30.58 108.813 30.7767 108.52 30.91C108.233 31.0367 107.887 31.1 107.48 31.1ZM110.978 31V26.32H109.928V25.22H113.648V26.32H112.598V31H110.978ZM114.33 31V25.22H115.96V27.54C115.967 27.54 115.97 27.54 115.97 27.54C115.977 27.54 115.984 27.54 115.99 27.54C115.997 27.54 116.004 27.54 116.01 27.54C116.41 27.54 116.764 27.5667 117.07 27.62C117.377 27.6733 117.63 27.7667 117.83 27.9C118.037 28.0267 118.194 28.2 118.3 28.42C118.407 28.6333 118.46 28.9067 118.46 29.24C118.46 29.5533 118.414 29.8233 118.32 30.05C118.234 30.27 118.09 30.45 117.89 30.59C117.697 30.73 117.444 30.8333 117.13 30.9C116.824 30.9667 116.454 31 116.02 31H114.33ZM115.96 30.07H115.99C116.237 30.07 116.43 30.0467 116.57 30C116.717 29.9467 116.82 29.8633 116.88 29.75C116.947 29.63 116.98 29.4733 116.98 29.28C116.98 29.0733 116.947 28.9167 116.88 28.81C116.82 28.6967 116.717 28.6167 116.57 28.57C116.43 28.5233 116.244 28.5 116.01 28.5C116.004 28.5 115.994 28.5 115.98 28.5C115.974 28.5 115.967 28.5 115.96 28.5V30.07ZM52.7096 46.1C52.1762 46.0867 51.7662 45.99 51.4796 45.81C51.1996 45.63 51.0096 45.37 50.9096 45.03C50.8096 44.6833 50.7596 44.27 50.7596 43.79V40.56C50.7596 40.0267 50.8129 39.6 50.9196 39.28C51.0329 38.96 51.1862 38.7133 51.3796 38.54C51.5796 38.3667 51.8096 38.2333 52.0696 38.14C52.3296 38.0467 52.5896 37.9733 52.8496 37.92C53.1162 37.8667 53.3729 37.8067 53.6196 37.74C53.8729 37.6667 54.1062 37.56 54.3196 37.42L54.3796 38.73C54.1596 38.8433 53.9262 38.9267 53.6796 38.98C53.4396 39.0267 53.2029 39.07 52.9696 39.11C52.7429 39.1433 52.5329 39.2 52.3396 39.28C52.1662 39.3467 52.0429 39.4733 51.9696 39.66C51.8962 39.84 51.8596 40.09 51.8596 40.41V40.85C51.9462 40.75 52.0529 40.6667 52.1796 40.6C52.3129 40.5333 52.4662 40.4833 52.6396 40.45C52.8196 40.4167 53.0162 40.4 53.2296 40.4C53.5829 40.4 53.8696 40.4667 54.0896 40.6C54.3096 40.7333 54.4696 40.9533 54.5696 41.26C54.6762 41.5667 54.7296 41.9833 54.7296 42.51V43.92C54.7296 44.5133 54.6429 44.97 54.4696 45.29C54.3029 45.6033 54.0662 45.8167 53.7596 45.93C53.4596 46.0433 53.1096 46.1 52.7096 46.1ZM52.7796 45.05C52.9062 45.05 52.9962 45.0167 53.0496 44.95C53.1096 44.8833 53.1496 44.76 53.1696 44.58C53.1896 44.3933 53.1996 44.12 53.1996 43.76V42.22C53.1996 42 53.1896 41.8267 53.1696 41.7C53.1496 41.5667 53.1096 41.4733 53.0496 41.42C52.9896 41.3667 52.9029 41.34 52.7896 41.34C52.7162 41.34 52.6462 41.3633 52.5796 41.41C52.5196 41.45 52.4696 41.52 52.4296 41.62C52.3896 41.7133 52.3562 41.8467 52.3296 42.02V43.75C52.3296 44.1033 52.3396 44.3733 52.3596 44.56C52.3796 44.7467 52.4229 44.8767 52.4896 44.95C52.5562 45.0167 52.6529 45.05 52.7796 45.05ZM57.5536 46.1C57.1402 46.1 56.7802 46.03 56.4736 45.89C56.1736 45.75 55.9402 45.54 55.7736 45.26C55.6136 44.98 55.5336 44.63 55.5336 44.21V42.01C55.5336 41.59 55.6136 41.24 55.7736 40.96C55.9402 40.68 56.1736 40.47 56.4736 40.33C56.7802 40.19 57.1402 40.12 57.5536 40.12C57.9669 40.12 58.3236 40.19 58.6236 40.33C58.9302 40.47 59.1669 40.68 59.3336 40.96C59.5002 41.24 59.5836 41.59 59.5836 42.01V44.21C59.5836 44.63 59.5002 44.98 59.3336 45.26C59.1669 45.54 58.9302 45.75 58.6236 45.89C58.3236 46.03 57.9669 46.1 57.5536 46.1ZM57.5636 45.02C57.6702 45.02 57.7536 44.9933 57.8136 44.94C57.8736 44.88 57.9136 44.8 57.9336 44.7C57.9602 44.5933 57.9736 44.4667 57.9736 44.32V41.9C57.9736 41.7533 57.9602 41.63 57.9336 41.53C57.9136 41.4233 57.8736 41.3433 57.8136 41.29C57.7536 41.23 57.6702 41.2 57.5636 41.2C57.4569 41.2 57.3736 41.23 57.3136 41.29C57.2536 41.3433 57.2102 41.4233 57.1836 41.53C57.1569 41.63 57.1436 41.7533 57.1436 41.9V44.32C57.1436 44.4667 57.1569 44.5933 57.1836 44.7C57.2102 44.8 57.2536 44.88 57.3136 44.94C57.3736 44.9933 57.4569 45.02 57.5636 45.02ZM60.0782 46.06V44.91C60.2916 44.91 60.4649 44.8767 60.5982 44.81C60.7382 44.7433 60.8482 44.63 60.9282 44.47C61.0149 44.3033 61.0816 44.08 61.1282 43.8C61.1749 43.5133 61.2149 43.15 61.2482 42.71L61.4382 40.22H65.1082V46H63.4782V41.32H62.8182L62.6782 43.03C62.6316 43.63 62.5649 44.1267 62.4782 44.52C62.3916 44.9133 62.2649 45.2233 62.0982 45.45C61.9316 45.67 61.7082 45.8267 61.4282 45.92C61.1482 46.0133 60.7916 46.06 60.3582 46.06H60.0782ZM66.1321 46V40.22H67.7621V42.54C67.7687 42.54 67.7721 42.54 67.7721 42.54C67.7787 42.54 67.7854 42.54 67.7921 42.54C67.7987 42.54 67.8054 42.54 67.8121 42.54C68.2121 42.54 68.5654 42.5667 68.8721 42.62C69.1787 42.6733 69.4321 42.7667 69.6321 42.9C69.8387 43.0267 69.9954 43.2 70.1021 43.42C70.2087 43.6333 70.2621 43.9067 70.2621 44.24C70.2621 44.5533 70.2154 44.8233 70.1221 45.05C70.0354 45.27 69.8921 45.45 69.6921 45.59C69.4987 45.73 69.2454 45.8333 68.9321 45.9C68.6254 45.9667 68.2554 46 67.8221 46H66.1321ZM67.7621 45.07H67.7921C68.0387 45.07 68.2321 45.0467 68.3721 45C68.5187 44.9467 68.6221 44.8633 68.6821 44.75C68.7487 44.63 68.7821 44.4733 68.7821 44.28C68.7821 44.0733 68.7487 43.9167 68.6821 43.81C68.6221 43.6967 68.5187 43.6167 68.3721 43.57C68.2321 43.5233 68.0454 43.5 67.8121 43.5C67.8054 43.5 67.7954 43.5 67.7821 43.5C67.7754 43.5 67.7687 43.5 67.7621 43.5V45.07ZM71.0439 46V40.22H72.5639V44.9H73.3339V40.22H74.8539V44.9H75.6239V40.22H77.1439V46H71.0439ZM80.0631 46.1C79.6431 46.1 79.2831 46.0267 78.9831 45.88C78.6831 45.7267 78.4531 45.5067 78.2931 45.22C78.1331 44.9267 78.0531 44.5767 78.0531 44.17V42.05C78.0531 41.6367 78.1331 41.2867 78.2931 41C78.4531 40.7133 78.6831 40.4967 78.9831 40.35C79.2898 40.1967 79.6498 40.12 80.0631 40.12C80.4898 40.12 80.8431 40.1933 81.1231 40.34C81.4098 40.4867 81.6231 40.7033 81.7631 40.99C81.9098 41.2767 81.9831 41.63 81.9831 42.05V43.21H79.6631V44.32C79.6631 44.4667 79.6798 44.5867 79.7131 44.68C79.7464 44.7733 79.7931 44.84 79.8531 44.88C79.9131 44.92 79.9831 44.94 80.0631 44.94C80.1431 44.94 80.2131 44.9233 80.2731 44.89C80.3398 44.85 80.3898 44.79 80.4231 44.71C80.4631 44.63 80.4831 44.52 80.4831 44.38V43.77H81.9831V44.33C81.9831 44.9167 81.8131 45.36 81.4731 45.66C81.1331 45.9533 80.6631 46.1 80.0631 46.1ZM79.6631 42.45H80.4831V41.87C80.4831 41.7167 80.4631 41.5967 80.4231 41.51C80.3898 41.4233 80.3398 41.3633 80.2731 41.33C80.2131 41.2967 80.1398 41.28 80.0531 41.28C79.9731 41.28 79.9031 41.3 79.8431 41.34C79.7898 41.38 79.7464 41.45 79.7131 41.55C79.6798 41.6433 79.6631 41.78 79.6631 41.96V42.45ZM87.5189 46.13C86.9723 46.13 86.5356 46.0233 86.2089 45.81C85.8823 45.59 85.6489 45.29 85.5089 44.91C85.3689 44.5233 85.2989 44.0833 85.2989 43.59C85.3056 43.39 85.3256 43.1967 85.3589 43.01C85.3989 42.8167 85.4556 42.64 85.5289 42.48C85.6089 42.3133 85.7056 42.17 85.8189 42.05C85.9389 41.9233 86.0789 41.82 86.2389 41.74C86.0323 41.5867 85.8489 41.3667 85.6889 41.08C85.5289 40.7867 85.4423 40.4167 85.4289 39.97C85.4223 39.5167 85.4956 39.1267 85.6489 38.8C85.8089 38.4733 86.0456 38.2233 86.3589 38.05C86.6723 37.8767 87.0589 37.79 87.5189 37.79C87.9856 37.79 88.3723 37.88 88.6789 38.06C88.9923 38.2333 89.2256 38.4833 89.3789 38.81C89.5323 39.13 89.6023 39.5167 89.5889 39.97C89.5823 40.4233 89.5023 40.7967 89.3489 41.09C89.1956 41.3767 89.0123 41.5933 88.7989 41.74C88.9589 41.82 89.0956 41.9233 89.2089 42.05C89.3289 42.17 89.4256 42.3133 89.4989 42.48C89.5789 42.64 89.6389 42.8167 89.6789 43.01C89.7189 43.1967 89.7389 43.39 89.7389 43.59C89.7523 44.0833 89.6856 44.5233 89.5389 44.91C89.3989 45.29 89.1656 45.59 88.8389 45.81C88.5123 46.0233 88.0723 46.13 87.5189 46.13ZM87.5189 44.9C87.6989 44.9 87.8289 44.8333 87.9089 44.7C87.9889 44.5667 88.0389 44.41 88.0589 44.23C88.0789 44.0433 88.0889 43.8733 88.0889 43.72C88.0956 43.5133 88.0856 43.3133 88.0589 43.12C88.0389 42.9267 87.9889 42.77 87.9089 42.65C87.8289 42.5233 87.6989 42.46 87.5189 42.46C87.3456 42.46 87.2189 42.5233 87.1389 42.65C87.0589 42.77 87.0056 42.9267 86.9789 43.12C86.9589 43.3067 86.9489 43.5067 86.9489 43.72C86.9489 43.8733 86.9589 44.0433 86.9789 44.23C86.9989 44.4167 87.0489 44.5767 87.1289 44.71C87.2156 44.8367 87.3456 44.9 87.5189 44.9ZM87.5189 41.14C87.6323 41.14 87.7256 41.0967 87.7989 41.01C87.8723 40.9167 87.9256 40.78 87.9589 40.6C87.9989 40.42 88.0189 40.1967 88.0189 39.93C88.0189 39.6567 87.9756 39.44 87.8889 39.28C87.8089 39.12 87.6856 39.04 87.5189 39.04C87.3523 39.04 87.2223 39.12 87.1289 39.28C87.0423 39.44 86.9989 39.6533 86.9989 39.92C86.9989 40.1867 87.0156 40.4133 87.0489 40.6C87.0889 40.78 87.1489 40.9167 87.2289 41.01C87.3089 41.0967 87.4056 41.14 87.5189 41.14ZM92.8838 46.15C92.3971 46.15 91.9905 46.0533 91.6638 45.86C91.3371 45.66 91.0905 45.3867 90.9238 45.04C90.7571 44.6933 90.6738 44.29 90.6738 43.83V40.16C90.6738 39.6867 90.7505 39.2733 90.9038 38.92C91.0638 38.56 91.3071 38.28 91.6338 38.08C91.9605 37.88 92.3771 37.78 92.8838 37.78C93.3905 37.78 93.8038 37.88 94.1238 38.08C94.4505 38.28 94.6905 38.56 94.8438 38.92C95.0038 39.2733 95.0838 39.6867 95.0838 40.16V43.83C95.0838 44.2833 95.0005 44.6867 94.8338 45.04C94.6671 45.3867 94.4205 45.66 94.0938 45.86C93.7671 46.0533 93.3638 46.15 92.8838 46.15ZM92.8838 44.66C93.0438 44.66 93.1571 44.61 93.2238 44.51C93.2971 44.4033 93.3405 44.2833 93.3538 44.15C93.3738 44.01 93.3838 43.89 93.3838 43.79V40.2C93.3838 40.0867 93.3771 39.96 93.3638 39.82C93.3505 39.6733 93.3071 39.5467 93.2338 39.44C93.1671 39.3267 93.0505 39.27 92.8838 39.27C92.7171 39.27 92.5971 39.3267 92.5238 39.44C92.4571 39.5467 92.4171 39.6733 92.4038 39.82C92.3905 39.96 92.3838 40.0867 92.3838 40.2V43.79C92.3838 43.89 92.3938 44.01 92.4138 44.15C92.4338 44.2833 92.4771 44.4033 92.5438 44.51C92.6171 44.61 92.7305 44.66 92.8838 44.66ZM98.9518 46L101.442 37.9H102.342L99.8618 46H98.9518ZM97.9718 42.5C97.2852 42.5 96.7985 42.3233 96.5118 41.97C96.2252 41.61 96.0818 41.07 96.0818 40.35V39.99C96.0818 39.2567 96.2218 38.7233 96.5018 38.39C96.7818 38.0567 97.2718 37.89 97.9718 37.89C98.6718 37.89 99.1618 38.0533 99.4418 38.38C99.7285 38.7067 99.8718 39.2367 99.8718 39.97V40.37C99.8718 41.0833 99.7285 41.6167 99.4418 41.97C99.1552 42.3233 98.6652 42.5 97.9718 42.5ZM97.9718 41.46C98.1452 41.46 98.2685 41.4167 98.3418 41.33C98.4218 41.2367 98.4718 41.1033 98.4918 40.93C98.5118 40.75 98.5218 40.5367 98.5218 40.29V40.04C98.5218 39.66 98.4985 39.3833 98.4518 39.21C98.4052 39.03 98.2452 38.94 97.9718 38.94C97.7052 38.94 97.5452 39.0267 97.4918 39.2C97.4452 39.3733 97.4218 39.65 97.4218 40.03V40.3C97.4218 40.5467 97.4318 40.7567 97.4518 40.93C97.4718 41.1033 97.5218 41.2367 97.6018 41.33C97.6818 41.4167 97.8052 41.46 97.9718 41.46ZM103.332 46.01C102.645 46.01 102.159 45.8333 101.872 45.48C101.592 45.12 101.452 44.58 101.452 43.86V43.5C101.452 42.7667 101.589 42.2333 101.862 41.9C102.142 41.5667 102.632 41.4 103.332 41.4C104.032 41.4 104.522 41.5633 104.802 41.89C105.089 42.2167 105.232 42.7467 105.232 43.48V43.87C105.232 44.59 105.089 45.1267 104.802 45.48C104.515 45.8333 104.025 46.01 103.332 46.01ZM103.332 44.97C103.505 44.97 103.629 44.9267 103.702 44.84C103.782 44.7467 103.832 44.6133 103.852 44.44C103.872 44.2667 103.882 44.0567 103.882 43.81V43.54C103.882 43.16 103.859 42.8833 103.812 42.71C103.765 42.5367 103.605 42.45 103.332 42.45C103.065 42.45 102.905 42.5367 102.852 42.71C102.805 42.8833 102.782 43.16 102.782 43.54V43.81C102.782 44.0567 102.792 44.2667 102.812 44.44C102.832 44.6133 102.882 44.7467 102.962 44.84C103.042 44.9267 103.165 44.97 103.332 44.97Z"></path>
</svg>
