<svg xmlns="http://www.w3.org/2000/svg" fill="none" viewBox="0 0 38 38" height="38" width="38">
<rect fill-opacity="0.01" fill="white" height="38" width="38"></rect>
<path fill="#FFFEE8" d="M3.54562 19.3864C2.83031 19.2076 2.54791 18.3425 3.01993 17.7761L3.39921 17.321C3.89023 16.7317 4.83444 16.8919 5.10376 17.61L6 20L10.9205 22.8117C11.6917 23.2524 12.6117 22.544 12.3829 21.6858L9 9L6.63675 7.64957C6.06425 7.32243 5.95953 6.54047 6.42578 6.07422L7.00783 5.49217C7.60437 4.89563 8.62603 5.26033 8.70998 6.09977L9 9L15.5005 18.7508C16.0155 19.5232 17.2136 19.238 17.3253 18.3164L19 4.5L17.6295 2.58124C17.1567 1.91937 17.6298 1 18.4432 1H19.5568C20.3702 1 20.8433 1.91937 20.3705 2.58124L19 4.5L21.0953 18.3287C21.2343 19.2464 22.44 19.496 22.932 18.7089L29 9L29.29 6.09977C29.374 5.26033 30.3956 4.89563 30.9922 5.49217L31.5742 6.07422C32.0405 6.54047 31.9357 7.32243 31.3633 7.64957L29 9L25.6171 21.6858C25.3883 22.544 26.3083 23.2524 27.0795 22.8117L32 20L32.8962 17.61C33.1656 16.8919 34.1098 16.7317 34.6008 17.321L34.9801 17.7761C35.4521 18.3425 35.1697 19.2076 34.4544 19.3864L32 20L28 26.75L27.7774 27.2509C27.3093 28.3041 29.2313 29.2115 30.3414 29.5214C30.7455 29.6343 31 30.0732 31 31V33.7059C31 33.9009 30.9818 34.1056 30.8466 34.2462C28.7518 36.4243 8.19275 36.3884 7.04536 34.1384C7.00015 34.0497 7 33.95 7 33.8505V31C7 30.2579 7.19035 29.8286 7.50827 29.629C8.49201 29.0114 10.5921 27.7492 10 26.75V26.75L6 20L3.54562 19.3864Z"></path>
<path stroke="#0D0E12" d="M32 20L27.0795 22.8117C26.3083 23.2524 25.3883 22.544 25.6171 21.6858L29 9M32 20L32.8962 17.61C33.1656 16.8919 34.1098 16.7317 34.6008 17.321L34.9801 17.7761C35.4521 18.3425 35.1697 19.2076 34.4544 19.3864L32 20ZM32 20L28 26.75L27.7774 27.2509C27.3093 28.3041 29.2313 29.2115 30.3414 29.5214C30.7455 29.6343 31 30.0732 31 31V33.7059C31 33.9009 30.9818 34.1056 30.8466 34.2462C28.7518 36.4243 8.19275 36.3884 7.04536 34.1384C7.00015 34.0497 7 33.95 7 33.8505V31C7 30.2579 7.19035 29.8286 7.50827 29.629C8.49201 29.0114 10.5921 27.7492 10 26.75V26.75L6 20M29 9L31.3633 7.64957C31.9357 7.32243 32.0405 6.54047 31.5742 6.07422L30.9922 5.49217C30.3956 4.89563 29.374 5.26033 29.29 6.09977L29 9ZM29 9L22.932 18.7089C22.44 19.496 21.2343 19.2464 21.0953 18.3287L19 4.5M19 4.5L20.3705 2.58124C20.8433 1.91937 20.3702 1 19.5568 1H18.4432C17.6298 1 17.1567 1.91937 17.6295 2.58124L19 4.5ZM19 4.5L17.3253 18.3164C17.2136 19.238 16.0155 19.5232 15.5005 18.7508L9 9M9 9L8.70998 6.09977C8.62603 5.26033 7.60437 4.89563 7.00783 5.49217L6.42578 6.07422C5.95953 6.54047 6.06425 7.32243 6.63675 7.64957L9 9ZM9 9L12.3829 21.6858C12.6117 22.544 11.6917 23.2524 10.9205 22.8117L6 20M6 20L5.10376 17.61C4.83444 16.8919 3.89023 16.7317 3.39921 17.321L3.01993 17.7761C2.54791 18.3425 2.83031 19.2076 3.54562 19.3864L6 20Z"></path>
<circle stroke="#0D0E12" fill="#FFFEE8" r="1.5" cy="5" cx="19"></circle>
<path stroke="#0D0E12" fill="#FFFEE8" d="M33.5 20C33.5 20.8284 32.8284 21.5 32 21.5C31.1716 21.5 30.5 20.8284 30.5 20C30.5 19.1716 31.1716 18.5 32 18.5C32.8284 18.5 33.5 19.1716 33.5 20Z"></path>
<path stroke="#0D0E12" fill="#FFFEE8" d="M30.4887 9C30.4887 9.82843 29.8172 10.5 28.9887 10.5C28.1603 10.5 27.4887 9.82843 27.4887 9C27.4887 8.17157 28.1603 7.5 28.9887 7.5C29.8172 7.5 30.4887 8.17157 30.4887 9Z"></path>
<path stroke="#0D0E12" fill="#FFFEE8" d="M10.5055 9C10.5055 9.82843 9.83395 10.5 9.00552 10.5C8.17709 10.5 7.50552 9.82843 7.50552 9C7.50552 8.17157 8.17709 7.5 9.00552 7.5C9.83395 7.5 10.5055 8.17157 10.5055 9Z"></path>
<circle stroke="#0D0E12" fill="#FFFEE8" r="1.5" cy="20" cx="6"></circle>
<path stroke-linecap="round" stroke="#0D0E12" d="M11 30C12.5 31.3333 25.5 31.3333 27 30"></path>
</svg>
