<svg xmlns="http://www.w3.org/2000/svg" fill="none" viewBox="0 0 32 22" height="22" width="32">
<rect fill="#0D0E12" transform="rotate(-180 32 22)" height="22" width="32" y="22" x="32"></rect>
<path fill="white" d="M11.9791 11.364C11.5886 10.9734 11.5886 10.3403 11.9791 9.94975L17.636 4.29289C18.0265 3.90237 18.6597 3.90237 19.0502 4.29289V4.29289C19.4407 4.68342 19.4407 5.31658 19.0502 5.70711L13.3934 11.364C13.0028 11.7545 12.3697 11.7545 11.9791 11.364V11.364Z"></path>
<path fill="white" d="M12.2218 10.2218C12.6123 9.83123 13.2455 9.83123 13.636 10.2218L19.2929 15.8786C19.6834 16.2691 19.6834 16.9023 19.2929 17.2928V17.2928C18.9024 17.6833 18.2692 17.6833 17.8787 17.2928L12.2218 11.636C11.8313 11.2454 11.8313 10.6123 12.2218 10.2218V10.2218Z"></path>
</svg>
