<svg xmlns="http://www.w3.org/2000/svg" fill="none" viewBox="0 0 67 52" height="52" width="67">
<rect stroke="#0D0E12" fill="white" height="51" width="66" y="0.5" x="0.5"></rect>
<path fill="#0D0E12" d="M18.9648 32V23.9H20.5848V32H18.9648ZM23.5389 32.1C23.1256 32.1 22.7656 32.03 22.4589 31.89C22.1589 31.75 21.9256 31.54 21.7589 31.26C21.5989 30.98 21.5189 30.63 21.5189 30.21V28.01C21.5189 27.59 21.5989 27.24 21.7589 26.96C21.9256 26.68 22.1589 26.47 22.4589 26.33C22.7656 26.19 23.1256 26.12 23.5389 26.12C23.9522 26.12 24.3089 26.19 24.6089 26.33C24.9156 26.47 25.1522 26.68 25.3189 26.96C25.4856 27.24 25.5689 27.59 25.5689 28.01V30.21C25.5689 30.63 25.4856 30.98 25.3189 31.26C25.1522 31.54 24.9156 31.75 24.6089 31.89C24.3089 32.03 23.9522 32.1 23.5389 32.1ZM23.5489 31.02C23.6556 31.02 23.7389 30.9933 23.7989 30.94C23.8589 30.88 23.8989 30.8 23.9189 30.7C23.9456 30.5933 23.9589 30.4667 23.9589 30.32V27.9C23.9589 27.7533 23.9456 27.63 23.9189 27.53C23.8989 27.4233 23.8589 27.3433 23.7989 27.29C23.7389 27.23 23.6556 27.2 23.5489 27.2C23.4422 27.2 23.3589 27.23 23.2989 27.29C23.2389 27.3433 23.1956 27.4233 23.1689 27.53C23.1422 27.63 23.1289 27.7533 23.1289 27.9V30.32C23.1289 30.4667 23.1422 30.5933 23.1689 30.7C23.1956 30.8 23.2389 30.88 23.2989 30.94C23.3589 30.9933 23.4422 31.02 23.5489 31.02ZM28.3529 34C27.9196 34 27.5429 33.9567 27.2229 33.87C26.9029 33.7833 26.6529 33.6533 26.4729 33.48C26.2996 33.3067 26.2129 33.0867 26.2129 32.82C26.2129 32.64 26.2496 32.4767 26.3229 32.33C26.4029 32.19 26.5096 32.0667 26.6429 31.96C26.7829 31.8467 26.9396 31.75 27.1129 31.67C26.8596 31.5967 26.6629 31.4867 26.5229 31.34C26.3829 31.1933 26.3129 30.9967 26.3129 30.75C26.3129 30.5167 26.3696 30.3167 26.4829 30.15C26.5962 29.9767 26.7529 29.8033 26.9529 29.63C26.7662 29.4633 26.6229 29.26 26.5229 29.02C26.4296 28.7733 26.3829 28.4767 26.3829 28.13C26.3829 27.6967 26.4629 27.33 26.6229 27.03C26.7829 26.73 27.0162 26.5033 27.3229 26.35C27.6362 26.1967 28.0129 26.12 28.4529 26.12C28.7529 26.12 29.0162 26.1567 29.2429 26.23C29.4696 26.3033 29.6629 26.4167 29.8229 26.57C29.8962 26.4567 29.9929 26.3467 30.1129 26.24C30.2329 26.1333 30.3696 26.0433 30.5229 25.97L30.7329 25.87L31.1129 26.65C31.0529 26.67 30.9696 26.7033 30.8629 26.75C30.7562 26.7967 30.6429 26.8467 30.5229 26.9C30.4096 26.9533 30.3062 27.0067 30.2129 27.06C30.2862 27.2067 30.3429 27.3733 30.3829 27.56C30.4229 27.7467 30.4429 27.94 30.4429 28.14C30.4429 28.5533 30.3662 28.91 30.2129 29.21C30.0662 29.51 29.8462 29.74 29.5529 29.9C29.2596 30.0533 28.8929 30.13 28.4529 30.13C28.2662 30.13 28.0896 30.1167 27.9229 30.09C27.7562 30.0567 27.6029 30.0167 27.4629 29.97C27.4229 30.0233 27.3862 30.08 27.3529 30.14C27.3262 30.1933 27.3129 30.2533 27.3129 30.32C27.3129 30.4 27.3529 30.4633 27.4329 30.51C27.5129 30.5567 27.6562 30.5933 27.8629 30.62L29.3829 30.79C29.8762 30.8433 30.2396 31.0033 30.4729 31.27C30.7062 31.53 30.8229 31.8733 30.8229 32.3C30.8229 32.6667 30.7396 32.9767 30.5729 33.23C30.4129 33.4833 30.1496 33.6733 29.7829 33.8C29.4229 33.9333 28.9462 34 28.3529 34ZM28.5629 32.82C28.9296 32.82 29.2096 32.79 29.4029 32.73C29.6029 32.67 29.7029 32.5467 29.7029 32.36C29.7029 32.2667 29.6762 32.19 29.6229 32.13C29.5696 32.0767 29.4796 32.0333 29.3529 32C29.2329 31.96 29.0596 31.93 28.8329 31.91L27.7629 31.8C27.6962 31.8467 27.6362 31.9 27.5829 31.96C27.5362 32.0133 27.4962 32.07 27.4629 32.13C27.4362 32.1967 27.4229 32.2667 27.4229 32.34C27.4229 32.5 27.5096 32.62 27.6829 32.7C27.8562 32.78 28.1496 32.82 28.5629 32.82ZM28.4529 29.16C28.5462 29.16 28.6229 29.1433 28.6829 29.11C28.7429 29.07 28.7862 29.01 28.8129 28.93C28.8462 28.85 28.8696 28.7433 28.8829 28.61C28.8962 28.4767 28.9029 28.3167 28.9029 28.13C28.9029 27.9367 28.8962 27.7767 28.8829 27.65C28.8696 27.5167 28.8462 27.41 28.8129 27.33C28.7862 27.2433 28.7429 27.1833 28.6829 27.15C28.6229 27.11 28.5462 27.09 28.4529 27.09C28.3596 27.09 28.2829 27.11 28.2229 27.15C28.1629 27.1833 28.1162 27.24 28.0829 27.32C28.0562 27.4 28.0362 27.5067 28.0229 27.64C28.0096 27.7733 28.0029 27.9367 28.0029 28.13C28.0029 28.3167 28.0096 28.4767 28.0229 28.61C28.0362 28.7367 28.0562 28.8433 28.0829 28.93C28.1162 29.01 28.1629 29.07 28.2229 29.11C28.2829 29.1433 28.3596 29.16 28.4529 29.16ZM31.4927 32V26.22H33.1227V32H31.4927ZM31.4827 25.24V24.11H33.1227V25.24H31.4827ZM34.1291 32V26.22H35.7591V26.8C35.9725 26.5867 36.1925 26.42 36.4191 26.3C36.6525 26.18 36.8958 26.12 37.1491 26.12C37.3891 26.12 37.5858 26.18 37.7391 26.3C37.8991 26.4133 38.0191 26.5733 38.0991 26.78C38.1791 26.98 38.2191 27.21 38.2191 27.47V32H36.5991V27.7C36.5991 27.56 36.5758 27.4533 36.5291 27.38C36.4825 27.3067 36.3958 27.27 36.2691 27.27C36.2025 27.27 36.1225 27.29 36.0291 27.33C35.9425 27.3633 35.8525 27.4133 35.7591 27.48V32H34.1291ZM43.5461 32.06C43.1128 32.06 42.7761 31.9967 42.5361 31.87C42.3028 31.7433 42.1428 31.56 42.0561 31.32C41.9694 31.0733 41.9261 30.7767 41.9261 30.43V27.29H41.3661V26.22H41.9261V24.46H43.5761V26.22H44.3961V27.29H43.5761V30.27C43.5761 30.4367 43.6228 30.5567 43.7161 30.63C43.8161 30.7033 43.9394 30.74 44.0861 30.74C44.1728 30.74 44.2528 30.7367 44.3261 30.73C44.3994 30.7167 44.4661 30.7067 44.5261 30.7V31.98C44.4394 31.9933 44.3028 32.01 44.1161 32.03C43.9294 32.05 43.7394 32.06 43.5461 32.06ZM47.1913 32.1C46.7779 32.1 46.4179 32.03 46.1113 31.89C45.8113 31.75 45.5779 31.54 45.4113 31.26C45.2513 30.98 45.1713 30.63 45.1713 30.21V28.01C45.1713 27.59 45.2513 27.24 45.4113 26.96C45.5779 26.68 45.8113 26.47 46.1113 26.33C46.4179 26.19 46.7779 26.12 47.1913 26.12C47.6046 26.12 47.9613 26.19 48.2613 26.33C48.5679 26.47 48.8046 26.68 48.9713 26.96C49.1379 27.24 49.2213 27.59 49.2213 28.01V30.21C49.2213 30.63 49.1379 30.98 48.9713 31.26C48.8046 31.54 48.5679 31.75 48.2613 31.89C47.9613 32.03 47.6046 32.1 47.1913 32.1ZM47.2013 31.02C47.3079 31.02 47.3913 30.9933 47.4513 30.94C47.5113 30.88 47.5513 30.8 47.5713 30.7C47.5979 30.5933 47.6113 30.4667 47.6113 30.32V27.9C47.6113 27.7533 47.5979 27.63 47.5713 27.53C47.5513 27.4233 47.5113 27.3433 47.4513 27.29C47.3913 27.23 47.3079 27.2 47.2013 27.2C47.0946 27.2 47.0113 27.23 46.9513 27.29C46.8913 27.3433 46.8479 27.4233 46.8213 27.53C46.7946 27.63 46.7813 27.7533 46.7813 27.9V30.32C46.7813 30.4667 46.7946 30.5933 46.8213 30.7C46.8479 30.8 46.8913 30.88 46.9513 30.94C47.0113 30.9933 47.0946 31.02 47.2013 31.02Z"></path>
<path fill="#0D0E12" d="M21.6799 44.9V37.22H23.3099V37.64C23.5033 37.4667 23.7099 37.3367 23.9299 37.25C24.1499 37.1633 24.3599 37.12 24.5599 37.12C24.7799 37.12 24.9666 37.1633 25.1199 37.25C25.2799 37.3367 25.4099 37.46 25.5099 37.62C25.6099 37.7733 25.6833 37.9533 25.7299 38.16C25.7766 38.3667 25.7999 38.5867 25.7999 38.82V41.31C25.7999 41.67 25.7499 41.9833 25.6499 42.25C25.5566 42.5167 25.4166 42.7267 25.2299 42.88C25.0433 43.0267 24.8133 43.1 24.5399 43.1C24.3333 43.1 24.1233 43.0533 23.9099 42.96C23.7033 42.86 23.5033 42.7267 23.3099 42.56V44.9H21.6799ZM23.7399 42.05C23.8466 42.05 23.9299 42.02 23.9899 41.96C24.0499 41.9 24.0933 41.8233 24.1199 41.73C24.1533 41.63 24.1699 41.52 24.1699 41.4V38.7C24.1699 38.5867 24.1566 38.4867 24.1299 38.4C24.1033 38.3067 24.0599 38.2333 23.9999 38.18C23.9399 38.1267 23.8633 38.1 23.7699 38.1C23.6833 38.1 23.5999 38.12 23.5199 38.16C23.4466 38.1933 23.3766 38.24 23.3099 38.3V41.9C23.3833 41.9467 23.4533 41.9833 23.5199 42.01C23.5933 42.0367 23.6666 42.05 23.7399 42.05ZM26.7488 43V37.22H28.3788V38.18C28.5654 37.8467 28.7521 37.5933 28.9388 37.42C29.1254 37.24 29.3521 37.15 29.6188 37.15C29.6721 37.15 29.7188 37.1533 29.7588 37.16C29.7988 37.16 29.8354 37.1667 29.8688 37.18V38.8C29.7954 38.7667 29.7121 38.74 29.6188 38.72C29.5321 38.6933 29.4388 38.68 29.3388 38.68C29.1521 38.68 28.9788 38.73 28.8188 38.83C28.6588 38.93 28.5121 39.0667 28.3788 39.24V43H26.7488ZM32.4569 43.1C32.0435 43.1 31.6835 43.03 31.3769 42.89C31.0769 42.75 30.8435 42.54 30.6769 42.26C30.5169 41.98 30.4369 41.63 30.4369 41.21V39.01C30.4369 38.59 30.5169 38.24 30.6769 37.96C30.8435 37.68 31.0769 37.47 31.3769 37.33C31.6835 37.19 32.0435 37.12 32.4569 37.12C32.8702 37.12 33.2269 37.19 33.5269 37.33C33.8335 37.47 34.0702 37.68 34.2369 37.96C34.4035 38.24 34.4869 38.59 34.4869 39.01V41.21C34.4869 41.63 34.4035 41.98 34.2369 42.26C34.0702 42.54 33.8335 42.75 33.5269 42.89C33.2269 43.03 32.8702 43.1 32.4569 43.1ZM32.4669 42.02C32.5735 42.02 32.6569 41.9933 32.7169 41.94C32.7769 41.88 32.8169 41.8 32.8369 41.7C32.8635 41.5933 32.8769 41.4667 32.8769 41.32V38.9C32.8769 38.7533 32.8635 38.63 32.8369 38.53C32.8169 38.4233 32.7769 38.3433 32.7169 38.29C32.6569 38.23 32.5735 38.2 32.4669 38.2C32.3602 38.2 32.2769 38.23 32.2169 38.29C32.1569 38.3433 32.1135 38.4233 32.0869 38.53C32.0602 38.63 32.0469 38.7533 32.0469 38.9V41.32C32.0469 41.4667 32.0602 41.5933 32.0869 41.7C32.1135 41.8 32.1569 41.88 32.2169 41.94C32.2769 41.9933 32.3602 42.02 32.4669 42.02ZM35.5709 43V38.32H35.0209V37.22H35.5709V36.79C35.5709 36.4433 35.6142 36.1433 35.7009 35.89C35.7942 35.6367 35.9509 35.44 36.1709 35.3C36.3975 35.16 36.7109 35.09 37.1109 35.09C37.2175 35.09 37.3275 35.0967 37.4409 35.11C37.5609 35.1167 37.6842 35.13 37.8109 35.15V36.26C37.7775 36.2533 37.7409 36.25 37.7009 36.25C37.6609 36.2433 37.6209 36.24 37.5809 36.24C37.4675 36.24 37.3742 36.2733 37.3009 36.34C37.2342 36.4067 37.2009 36.5367 37.2009 36.73V37.22H39.8909V43H38.2809V38.32H37.2009V43H35.5709ZM38.3809 36.24V35.11H39.8909V36.24H38.3809ZM40.9687 43V34.9H42.5887V43H40.9687ZM45.5328 43.1C45.1128 43.1 44.7528 43.0267 44.4528 42.88C44.1528 42.7267 43.9228 42.5067 43.7628 42.22C43.6028 41.9267 43.5228 41.5767 43.5228 41.17V39.05C43.5228 38.6367 43.6028 38.2867 43.7628 38C43.9228 37.7133 44.1528 37.4967 44.4528 37.35C44.7595 37.1967 45.1195 37.12 45.5328 37.12C45.9595 37.12 46.3128 37.1933 46.5928 37.34C46.8795 37.4867 47.0928 37.7033 47.2328 37.99C47.3795 38.2767 47.4528 38.63 47.4528 39.05V40.21H45.1328V41.32C45.1328 41.4667 45.1495 41.5867 45.1828 41.68C45.2161 41.7733 45.2628 41.84 45.3228 41.88C45.3828 41.92 45.4528 41.94 45.5328 41.94C45.6128 41.94 45.6828 41.9233 45.7428 41.89C45.8095 41.85 45.8595 41.79 45.8928 41.71C45.9328 41.63 45.9528 41.52 45.9528 41.38V40.77H47.4528V41.33C47.4528 41.9167 47.2828 42.36 46.9428 42.66C46.6028 42.9533 46.1328 43.1 45.5328 43.1ZM45.1328 39.45H45.9528V38.87C45.9528 38.7167 45.9328 38.5967 45.8928 38.51C45.8595 38.4233 45.8095 38.3633 45.7428 38.33C45.6828 38.2967 45.6095 38.28 45.5228 38.28C45.4428 38.28 45.3728 38.3 45.3128 38.34C45.2595 38.38 45.2161 38.45 45.1828 38.55C45.1495 38.6433 45.1328 38.78 45.1328 38.96V39.45Z"></path>
<rect fill="#0D0E12" height="2" width="12" y="5" x="30"></rect>
<rect fill="#0D0E12" height="2" width="12" y="18" x="30"></rect>
<rect fill="#0D0E12" transform="rotate(-90 40 20)" height="2" width="15" y="20" x="40"></rect>
<path fill="#0D0E12" d="M26 12.2427C26 11.6904 26.4477 11.2427 27 11.2427L35.9999 11.2427C36.5522 11.2427 36.9999 11.6904 36.9999 12.2427C36.9999 12.795 36.5522 13.2427 35.9999 13.2427L27 13.2427C26.4477 13.2427 26 12.795 26 12.2427Z"></path>
<path fill="#0D0E12" d="M32.707 8.70714C33.0975 8.31662 33.7307 8.31662 34.1212 8.70714L36.9497 11.5356C37.3402 11.9261 37.3402 12.5593 36.9497 12.9498C36.5591 13.3403 35.926 13.3403 35.5354 12.9498L32.707 10.1214C32.3165 9.73083 32.3165 9.09767 32.707 8.70714Z"></path>
<path fill="#0D0E12" d="M36.9497 11.5356C37.3402 11.9261 37.3402 12.5593 36.9497 12.9498L34.1213 15.7782C33.7307 16.1687 33.0976 16.1687 32.7071 15.7782C32.3165 15.3877 32.3165 14.7545 32.7071 14.364L35.5355 11.5356C35.926 11.145 36.5592 11.145 36.9497 11.5356Z"></path>
</svg>
