<svg xmlns="http://www.w3.org/2000/svg" fill="none" viewBox="0 0 16 28" height="28" width="16">
<rect fill-opacity="0.01" fill="black" height="28" width="16"></rect>
<path fill="white" d="M3.54195 24.26L5.60195 22.1H10.542L12.482 24.26H3.54195ZM2.94195 14.44L5.10195 16.52V21.42L2.94195 23.38V14.44ZM13.122 23.38L10.962 21.32V16.4L13.122 14.44V23.38ZM5.26195 15.16C4.79529 14.7867 4.32195 14.42 3.84195 14.06L5.26195 13H10.722L12.122 14.06L10.722 15.16H5.26195ZM3.52195 3.94H12.462L10.482 6.1H5.58195L3.52195 3.94ZM2.88195 13.74V4.8L5.04195 6.74V11.7L2.88195 13.74ZM13.062 4.8V13.74L10.902 11.8V6.86L13.062 4.8Z"></path>
</svg>
