<svg xmlns="http://www.w3.org/2000/svg" fill="none" viewBox="0 0 90 40" height="40" width="90">
<rect fill="#0D0E12" height="40" width="90"></rect>
<path fill="white" d="M9.39375 25.18C8.80975 25.18 8.32175 25.064 7.92975 24.832C7.53775 24.592 7.24175 24.264 7.04175 23.848C6.84175 23.432 6.74175 22.948 6.74175 22.396V17.992C6.74175 17.424 6.83375 16.928 7.01775 16.504C7.20975 16.072 7.50175 15.736 7.89375 15.496C8.28575 15.256 8.78575 15.136 9.39375 15.136C10.0018 15.136 10.4978 15.256 10.8818 15.496C11.2738 15.736 11.5618 16.072 11.7458 16.504C11.9378 16.928 12.0338 17.424 12.0338 17.992V22.396C12.0338 22.94 11.9338 23.424 11.7338 23.848C11.5338 24.264 11.2378 24.592 10.8458 24.832C10.4538 25.064 9.96975 25.18 9.39375 25.18ZM9.39375 23.392C9.58575 23.392 9.72175 23.332 9.80175 23.212C9.88975 23.084 9.94175 22.94 9.95775 22.78C9.98175 22.612 9.99375 22.468 9.99375 22.348V18.04C9.99375 17.904 9.98575 17.752 9.96975 17.584C9.95375 17.408 9.90175 17.256 9.81375 17.128C9.73375 16.992 9.59375 16.924 9.39375 16.924C9.19375 16.924 9.04975 16.992 8.96175 17.128C8.88175 17.256 8.83375 17.408 8.81775 17.584C8.80175 17.752 8.79375 17.904 8.79375 18.04V22.348C8.79375 22.468 8.80575 22.612 8.82975 22.78C8.85375 22.94 8.90575 23.084 8.98575 23.212C9.07375 23.332 9.20975 23.392 9.39375 23.392ZM15.9914 25.18C15.4074 25.18 14.9194 25.064 14.5274 24.832C14.1354 24.592 13.8394 24.264 13.6394 23.848C13.4394 23.432 13.3394 22.948 13.3394 22.396V17.992C13.3394 17.424 13.4314 16.928 13.6154 16.504C13.8074 16.072 14.0994 15.736 14.4914 15.496C14.8834 15.256 15.3834 15.136 15.9914 15.136C16.5994 15.136 17.0954 15.256 17.4794 15.496C17.8714 15.736 18.1594 16.072 18.3434 16.504C18.5354 16.928 18.6314 17.424 18.6314 17.992V22.396C18.6314 22.94 18.5314 23.424 18.3314 23.848C18.1314 24.264 17.8354 24.592 17.4434 24.832C17.0514 25.064 16.5674 25.18 15.9914 25.18ZM15.9914 23.392C16.1834 23.392 16.3194 23.332 16.3994 23.212C16.4874 23.084 16.5394 22.94 16.5554 22.78C16.5794 22.612 16.5914 22.468 16.5914 22.348V18.04C16.5914 17.904 16.5834 17.752 16.5674 17.584C16.5514 17.408 16.4994 17.256 16.4114 17.128C16.3314 16.992 16.1914 16.924 15.9914 16.924C15.7914 16.924 15.6474 16.992 15.5594 17.128C15.4794 17.256 15.4314 17.408 15.4154 17.584C15.3994 17.752 15.3914 17.904 15.3914 18.04V22.348C15.3914 22.468 15.4034 22.612 15.4274 22.78C15.4514 22.94 15.5034 23.084 15.5834 23.212C15.6714 23.332 15.8074 23.392 15.9914 23.392ZM22.9594 25L22.9834 18.064H24.4234L25.8394 21.388L27.2674 18.064H28.7074L28.7314 25H27.2074V21.352L26.1394 23.92H25.5634L24.4834 21.34V25H22.9594ZM29.9558 25V18.064H31.5038V21.772L33.3158 18.064H34.8398V25H33.2558V21.328L31.4918 25H29.9558ZM36.0495 25V18.064H38.0055V20.752H39.1695V18.064H41.1375V25H39.1695V22.096H38.0055V25H36.0495ZM42.2942 25V23.152H44.1422V25H42.2942ZM50.8742 25.18C50.1942 25.18 49.6582 25.052 49.2662 24.796C48.8822 24.54 48.6062 24.184 48.4382 23.728C48.2782 23.264 48.1982 22.732 48.1982 22.132V21.784H50.2022C50.2022 21.792 50.2022 21.836 50.2022 21.916C50.2022 21.996 50.2022 22.068 50.2022 22.132C50.2022 22.452 50.2222 22.712 50.2622 22.912C50.3022 23.112 50.3742 23.26 50.4782 23.356C50.5822 23.444 50.7262 23.488 50.9102 23.488C51.0942 23.488 51.2302 23.44 51.3182 23.344C51.4142 23.248 51.4782 23.104 51.5102 22.912C51.5422 22.72 51.5582 22.48 51.5582 22.192C51.5582 21.712 51.4902 21.348 51.3542 21.1C51.2262 20.844 50.9542 20.712 50.5382 20.704C50.5302 20.704 50.4862 20.704 50.4062 20.704C50.3262 20.704 50.2462 20.704 50.1662 20.704V19.324C50.2222 19.324 50.2782 19.324 50.3342 19.324C50.3902 19.324 50.4422 19.324 50.4902 19.324C50.9142 19.324 51.1982 19.208 51.3422 18.976C51.4862 18.744 51.5582 18.384 51.5582 17.896C51.5582 17.52 51.5062 17.232 51.4022 17.032C51.3062 16.832 51.1222 16.732 50.8502 16.732C50.5862 16.732 50.4102 16.844 50.3222 17.068C50.2422 17.292 50.2022 17.58 50.2022 17.932C50.2022 18.012 50.2022 18.096 50.2022 18.184C50.2022 18.264 50.2022 18.348 50.2022 18.436H48.1982V17.848C48.1982 17.264 48.3022 16.772 48.5102 16.372C48.7262 15.964 49.0302 15.656 49.4222 15.448C49.8222 15.24 50.2982 15.136 50.8502 15.136C51.4102 15.136 51.8902 15.236 52.2902 15.436C52.6902 15.636 52.9982 15.932 53.2142 16.324C53.4302 16.708 53.5382 17.188 53.5382 17.764C53.5382 18.332 53.4222 18.808 53.1902 19.192C52.9582 19.576 52.6782 19.812 52.3502 19.9C52.5742 19.98 52.7742 20.108 52.9502 20.284C53.1342 20.46 53.2782 20.7 53.3822 21.004C53.4862 21.3 53.5382 21.68 53.5382 22.144C53.5382 22.736 53.4502 23.26 53.2742 23.716C53.1062 24.172 52.8262 24.532 52.4342 24.796C52.0422 25.052 51.5222 25.18 50.8742 25.18ZM57.2063 25.18C56.6223 25.18 56.1343 25.064 55.7423 24.832C55.3503 24.592 55.0543 24.264 54.8543 23.848C54.6543 23.432 54.5543 22.948 54.5543 22.396V17.992C54.5543 17.424 54.6463 16.928 54.8303 16.504C55.0223 16.072 55.3143 15.736 55.7063 15.496C56.0983 15.256 56.5983 15.136 57.2063 15.136C57.8143 15.136 58.3103 15.256 58.6943 15.496C59.0863 15.736 59.3743 16.072 59.5583 16.504C59.7503 16.928 59.8463 17.424 59.8463 17.992V22.396C59.8463 22.94 59.7463 23.424 59.5463 23.848C59.3463 24.264 59.0503 24.592 58.6583 24.832C58.2663 25.064 57.7823 25.18 57.2063 25.18ZM57.2063 23.392C57.3983 23.392 57.5343 23.332 57.6143 23.212C57.7023 23.084 57.7543 22.94 57.7703 22.78C57.7943 22.612 57.8063 22.468 57.8063 22.348V18.04C57.8063 17.904 57.7983 17.752 57.7823 17.584C57.7663 17.408 57.7143 17.256 57.6263 17.128C57.5463 16.992 57.4063 16.924 57.2063 16.924C57.0063 16.924 56.8623 16.992 56.7743 17.128C56.6943 17.256 56.6463 17.408 56.6303 17.584C56.6143 17.752 56.6063 17.904 56.6063 18.04V22.348C56.6063 22.468 56.6183 22.612 56.6423 22.78C56.6663 22.94 56.7183 23.084 56.7983 23.212C56.8863 23.332 57.0223 23.392 57.2063 23.392ZM66.4422 25.12C65.9382 25.12 65.5062 25.028 65.1462 24.844C64.7942 24.66 64.5222 24.396 64.3302 24.052C64.1382 23.708 64.0422 23.292 64.0422 22.804V20.26C64.0422 19.764 64.1382 19.344 64.3302 19C64.5222 18.656 64.7942 18.396 65.1462 18.22C65.5062 18.036 65.9382 17.944 66.4422 17.944C66.9382 17.944 67.3582 18.02 67.7022 18.172C68.0542 18.324 68.3222 18.556 68.5062 18.868C68.6902 19.172 68.7822 19.56 68.7822 20.032V20.764H66.8982V19.972C66.8982 19.788 66.8782 19.648 66.8382 19.552C66.8062 19.448 66.7542 19.376 66.6822 19.336C66.6182 19.296 66.5382 19.276 66.4422 19.276C66.3462 19.276 66.2662 19.304 66.2022 19.36C66.1382 19.408 66.0902 19.492 66.0582 19.612C66.0262 19.724 66.0102 19.884 66.0102 20.092V22.972C66.0102 23.284 66.0462 23.496 66.1182 23.608C66.1982 23.72 66.3102 23.776 66.4542 23.776C66.5582 23.776 66.6422 23.756 66.7062 23.716C66.7702 23.668 66.8182 23.596 66.8502 23.5C66.8822 23.396 66.8982 23.26 66.8982 23.092V22.168H68.7822V23.008C68.7822 23.472 68.6862 23.864 68.4942 24.184C68.3102 24.496 68.0422 24.732 67.6902 24.892C67.3462 25.044 66.9302 25.12 66.4422 25.12ZM72.0675 25.12C71.5635 25.12 71.1315 25.032 70.7715 24.856C70.4115 24.672 70.1355 24.408 69.9435 24.064C69.7515 23.712 69.6555 23.292 69.6555 22.804V20.26C69.6555 19.764 69.7515 19.344 69.9435 19C70.1355 18.656 70.4115 18.396 70.7715 18.22C71.1395 18.036 71.5715 17.944 72.0675 17.944C72.5795 17.944 73.0035 18.032 73.3395 18.208C73.6835 18.384 73.9395 18.644 74.1075 18.988C74.2835 19.332 74.3715 19.756 74.3715 20.26V21.652H71.5875V22.984C71.5875 23.16 71.6075 23.304 71.6475 23.416C71.6875 23.528 71.7435 23.608 71.8155 23.656C71.8875 23.704 71.9715 23.728 72.0675 23.728C72.1635 23.728 72.2475 23.708 72.3195 23.668C72.3995 23.62 72.4595 23.548 72.4995 23.452C72.5475 23.356 72.5715 23.224 72.5715 23.056V22.324H74.3715V22.996C74.3715 23.7 74.1675 24.232 73.7595 24.592C73.3515 24.944 72.7875 25.12 72.0675 25.12ZM71.5875 20.74H72.5715V20.044C72.5715 19.86 72.5475 19.716 72.4995 19.612C72.4595 19.508 72.3995 19.436 72.3195 19.396C72.2475 19.356 72.1595 19.336 72.0555 19.336C71.9595 19.336 71.8755 19.36 71.8035 19.408C71.7395 19.456 71.6875 19.54 71.6475 19.66C71.6075 19.772 71.5875 19.936 71.5875 20.152V20.74ZM75.4362 25V18.064H77.3922V20.8H77.6802L78.7362 18.064H80.8362L79.4682 21.34L80.8722 25H78.8082L77.6802 21.928H77.3922V25H75.4362ZM81.5286 25V23.152H83.3766V25H81.5286Z"></path>
</svg>
