<svg xmlns="http://www.w3.org/2000/svg" fill="none" viewBox="0 0 90 40" height="40" width="90">
<rect fill="#0D0E12" height="40" width="90"></rect>
<path fill="white" d="M11.7219 25.18C11.1379 25.18 10.6499 25.064 10.2579 24.832C9.86588 24.592 9.56988 24.264 9.36988 23.848C9.16988 23.432 9.06988 22.948 9.06988 22.396V17.992C9.06988 17.424 9.16188 16.928 9.34588 16.504C9.53788 16.072 9.82988 15.736 10.2219 15.496C10.6139 15.256 11.1139 15.136 11.7219 15.136C12.3299 15.136 12.8259 15.256 13.2099 15.496C13.6019 15.736 13.8899 16.072 14.0739 16.504C14.2659 16.928 14.3619 17.424 14.3619 17.992V22.396C14.3619 22.94 14.2619 23.424 14.0619 23.848C13.8619 24.264 13.5659 24.592 13.1739 24.832C12.7819 25.064 12.2979 25.18 11.7219 25.18ZM11.7219 23.392C11.9139 23.392 12.0499 23.332 12.1299 23.212C12.2179 23.084 12.2699 22.94 12.2859 22.78C12.3099 22.612 12.3219 22.468 12.3219 22.348V18.04C12.3219 17.904 12.3139 17.752 12.2979 17.584C12.2819 17.408 12.2299 17.256 12.1419 17.128C12.0619 16.992 11.9219 16.924 11.7219 16.924C11.5219 16.924 11.3779 16.992 11.2899 17.128C11.2099 17.256 11.1619 17.408 11.1459 17.584C11.1299 17.752 11.1219 17.904 11.1219 18.04V22.348C11.1219 22.468 11.1339 22.612 11.1579 22.78C11.1819 22.94 11.2339 23.084 11.3139 23.212C11.4019 23.332 11.5379 23.392 11.7219 23.392ZM16.6155 25V17.26C16.5275 17.308 16.4275 17.356 16.3155 17.404C16.2035 17.452 16.0835 17.504 15.9555 17.56C15.8355 17.608 15.7155 17.656 15.5955 17.704C15.4835 17.752 15.3795 17.8 15.2835 17.848V16.36C15.3715 16.312 15.4955 16.248 15.6555 16.168C15.8155 16.08 15.9875 15.984 16.1715 15.88C16.3555 15.776 16.5275 15.672 16.6875 15.568C16.8475 15.456 16.9675 15.36 17.0475 15.28H18.6195V25H16.6155ZM23.3659 25V18.064H25.2859V18.616C25.5419 18.368 25.8059 18.192 26.0779 18.088C26.3579 17.984 26.6419 17.932 26.9299 17.932C27.2099 17.932 27.4499 18.004 27.6499 18.148C27.8579 18.284 28.0139 18.488 28.1179 18.76C28.3899 18.456 28.6739 18.244 28.9699 18.124C29.2739 17.996 29.5779 17.932 29.8819 17.932C30.1539 17.932 30.3899 18 30.5899 18.136C30.7899 18.264 30.9459 18.456 31.0579 18.712C31.1699 18.96 31.2259 19.26 31.2259 19.612V25H29.3059V19.816C29.3059 19.624 29.2699 19.488 29.1979 19.408C29.1339 19.32 29.0339 19.276 28.8979 19.276C28.8179 19.276 28.7179 19.3 28.5979 19.348C28.4779 19.388 28.3619 19.448 28.2499 19.528C28.2499 19.544 28.2499 19.56 28.2499 19.576C28.2499 19.584 28.2499 19.596 28.2499 19.612V25H26.3539V19.816C26.3539 19.624 26.3179 19.488 26.2459 19.408C26.1739 19.32 26.0699 19.276 25.9339 19.276C25.8459 19.276 25.7419 19.3 25.6219 19.348C25.5099 19.388 25.3979 19.448 25.2859 19.528V25H23.3659ZM32.4131 25V18.064H34.3691V25H32.4131ZM32.4011 16.888V15.532H34.3691V16.888H32.4011ZM35.5768 25V18.064H37.5328V18.76C37.7888 18.504 38.0528 18.304 38.3248 18.16C38.6048 18.016 38.8968 17.944 39.2008 17.944C39.4888 17.944 39.7248 18.016 39.9088 18.16C40.1008 18.296 40.2448 18.488 40.3408 18.736C40.4368 18.976 40.4848 19.252 40.4848 19.564V25H38.5408V19.84C38.5408 19.672 38.5128 19.544 38.4568 19.456C38.4008 19.368 38.2968 19.324 38.1448 19.324C38.0648 19.324 37.9688 19.348 37.8568 19.396C37.7528 19.436 37.6448 19.496 37.5328 19.576V25H35.5768ZM41.5989 25V23.152H43.4469V25H41.5989ZM50.3469 25.18C49.7629 25.18 49.2749 25.064 48.8829 24.832C48.4909 24.592 48.1949 24.264 47.9949 23.848C47.7949 23.432 47.6949 22.948 47.6949 22.396V17.992C47.6949 17.424 47.7869 16.928 47.9709 16.504C48.1629 16.072 48.4549 15.736 48.8469 15.496C49.2389 15.256 49.7389 15.136 50.3469 15.136C50.9549 15.136 51.4509 15.256 51.8349 15.496C52.2269 15.736 52.5149 16.072 52.6989 16.504C52.8909 16.928 52.9869 17.424 52.9869 17.992V22.396C52.9869 22.94 52.8869 23.424 52.6869 23.848C52.4869 24.264 52.1909 24.592 51.7989 24.832C51.4069 25.064 50.9229 25.18 50.3469 25.18ZM50.3469 23.392C50.5389 23.392 50.6749 23.332 50.7549 23.212C50.8429 23.084 50.8949 22.94 50.9109 22.78C50.9349 22.612 50.9469 22.468 50.9469 22.348V18.04C50.9469 17.904 50.9389 17.752 50.9229 17.584C50.9069 17.408 50.8549 17.256 50.7669 17.128C50.6869 16.992 50.5469 16.924 50.3469 16.924C50.1469 16.924 50.0029 16.992 49.9149 17.128C49.8349 17.256 49.7869 17.408 49.7709 17.584C49.7549 17.752 49.7469 17.904 49.7469 18.04V22.348C49.7469 22.468 49.7589 22.612 49.7829 22.78C49.8069 22.94 49.8589 23.084 49.9389 23.212C50.0269 23.332 50.1629 23.392 50.3469 23.392ZM56.9445 25.18C56.3605 25.18 55.8725 25.064 55.4805 24.832C55.0885 24.592 54.7925 24.264 54.5925 23.848C54.3925 23.432 54.2925 22.948 54.2925 22.396V17.992C54.2925 17.424 54.3845 16.928 54.5685 16.504C54.7605 16.072 55.0525 15.736 55.4445 15.496C55.8365 15.256 56.3365 15.136 56.9445 15.136C57.5525 15.136 58.0485 15.256 58.4325 15.496C58.8245 15.736 59.1125 16.072 59.2965 16.504C59.4885 16.928 59.5845 17.424 59.5845 17.992V22.396C59.5845 22.94 59.4845 23.424 59.2845 23.848C59.0845 24.264 58.7885 24.592 58.3965 24.832C58.0045 25.064 57.5205 25.18 56.9445 25.18ZM56.9445 23.392C57.1365 23.392 57.2725 23.332 57.3525 23.212C57.4405 23.084 57.4925 22.94 57.5085 22.78C57.5325 22.612 57.5445 22.468 57.5445 22.348V18.04C57.5445 17.904 57.5365 17.752 57.5205 17.584C57.5045 17.408 57.4525 17.256 57.3645 17.128C57.2845 16.992 57.1445 16.924 56.9445 16.924C56.7445 16.924 56.6005 16.992 56.5125 17.128C56.4325 17.256 56.3845 17.408 56.3685 17.584C56.3525 17.752 56.3445 17.904 56.3445 18.04V22.348C56.3445 22.468 56.3565 22.612 56.3805 22.78C56.4045 22.94 56.4565 23.084 56.5365 23.212C56.6245 23.332 56.7605 23.392 56.9445 23.392ZM66.0605 25.12C65.4525 25.12 64.9445 24.984 64.5365 24.712C64.1365 24.44 63.8085 23.996 63.5525 23.38L64.8845 22.792C65.0125 23.104 65.1605 23.352 65.3285 23.536C65.5045 23.712 65.6965 23.8 65.9045 23.8C66.0565 23.8 66.1685 23.768 66.2405 23.704C66.3205 23.64 66.3605 23.552 66.3605 23.44C66.3605 23.256 66.2885 23.088 66.1445 22.936C66.0085 22.784 65.7605 22.56 65.4005 22.264L64.8965 21.844C64.5285 21.532 64.2365 21.232 64.0205 20.944C63.8125 20.648 63.7085 20.284 63.7085 19.852C63.7085 19.476 63.8045 19.144 63.9965 18.856C64.1965 18.568 64.4605 18.344 64.7885 18.184C65.1165 18.024 65.4685 17.944 65.8445 17.944C66.4125 17.944 66.8885 18.1 67.2725 18.412C67.6565 18.724 67.9245 19.164 68.0765 19.732L66.8165 20.308C66.7685 20.156 66.7005 20.004 66.6125 19.852C66.5245 19.7 66.4165 19.572 66.2885 19.468C66.1685 19.364 66.0365 19.312 65.8925 19.312C65.7645 19.312 65.6605 19.348 65.5805 19.42C65.5085 19.492 65.4725 19.588 65.4725 19.708C65.4725 19.86 65.5565 20.024 65.7245 20.2C65.9005 20.376 66.1405 20.588 66.4445 20.836L66.9365 21.268C67.1365 21.436 67.3325 21.616 67.5245 21.808C67.7165 22 67.8725 22.212 67.9925 22.444C68.1205 22.676 68.1845 22.94 68.1845 23.236C68.1845 23.636 68.0845 23.98 67.8845 24.268C67.6845 24.548 67.4205 24.76 67.0925 24.904C66.7725 25.048 66.4285 25.12 66.0605 25.12ZM71.2784 25.12C70.7744 25.12 70.3424 25.032 69.9824 24.856C69.6224 24.672 69.3464 24.408 69.1544 24.064C68.9624 23.712 68.8664 23.292 68.8664 22.804V20.26C68.8664 19.764 68.9624 19.344 69.1544 19C69.3464 18.656 69.6224 18.396 69.9824 18.22C70.3504 18.036 70.7824 17.944 71.2784 17.944C71.7904 17.944 72.2144 18.032 72.5504 18.208C72.8944 18.384 73.1504 18.644 73.3184 18.988C73.4944 19.332 73.5824 19.756 73.5824 20.26V21.652H70.7984V22.984C70.7984 23.16 70.8184 23.304 70.8584 23.416C70.8984 23.528 70.9544 23.608 71.0264 23.656C71.0984 23.704 71.1824 23.728 71.2784 23.728C71.3744 23.728 71.4584 23.708 71.5304 23.668C71.6104 23.62 71.6704 23.548 71.7104 23.452C71.7584 23.356 71.7824 23.224 71.7824 23.056V22.324H73.5824V22.996C73.5824 23.7 73.3784 24.232 72.9704 24.592C72.5624 24.944 71.9984 25.12 71.2784 25.12ZM70.7984 20.74H71.7824V20.044C71.7824 19.86 71.7584 19.716 71.7104 19.612C71.6704 19.508 71.6104 19.436 71.5304 19.396C71.4584 19.356 71.3704 19.336 71.2664 19.336C71.1704 19.336 71.0864 19.36 71.0144 19.408C70.9504 19.456 70.8984 19.54 70.8584 19.66C70.8184 19.772 70.7984 19.936 70.7984 20.152V20.74ZM76.9032 25.12C76.3992 25.12 75.9672 25.028 75.6072 24.844C75.2552 24.66 74.9832 24.396 74.7912 24.052C74.5992 23.708 74.5032 23.292 74.5032 22.804V20.26C74.5032 19.764 74.5992 19.344 74.7912 19C74.9832 18.656 75.2552 18.396 75.6072 18.22C75.9672 18.036 76.3992 17.944 76.9032 17.944C77.3992 17.944 77.8192 18.02 78.1632 18.172C78.5152 18.324 78.7832 18.556 78.9672 18.868C79.1512 19.172 79.2432 19.56 79.2432 20.032V20.764H77.3592V19.972C77.3592 19.788 77.3392 19.648 77.2992 19.552C77.2672 19.448 77.2152 19.376 77.1432 19.336C77.0792 19.296 76.9992 19.276 76.9032 19.276C76.8072 19.276 76.7272 19.304 76.6632 19.36C76.5992 19.408 76.5512 19.492 76.5192 19.612C76.4872 19.724 76.4712 19.884 76.4712 20.092V22.972C76.4712 23.284 76.5072 23.496 76.5792 23.608C76.6592 23.72 76.7712 23.776 76.9152 23.776C77.0192 23.776 77.1032 23.756 77.1672 23.716C77.2312 23.668 77.2792 23.596 77.3112 23.5C77.3432 23.396 77.3592 23.26 77.3592 23.092V22.168H79.2432V23.008C79.2432 23.472 79.1472 23.864 78.9552 24.184C78.7712 24.496 78.5032 24.732 78.1512 24.892C77.8072 25.044 77.3912 25.12 76.9032 25.12ZM80.2004 25V23.152H82.0484V25H80.2004Z"></path>
<circle fill="#33FF00" r="3" cy="6" cx="84"></circle>
</svg>
