<svg xmlns="http://www.w3.org/2000/svg" fill="none" viewBox="0 0 7 19" height="19" width="7">
<path fill-opacity="0.01" fill="white" d="M0.5 0H6.5V19H0.5V0Z"></path>
<path fill="#45D2FF" d="M3.49109 14.156C2.83509 14.156 2.31109 14.028 1.91909 13.772C1.52709 13.508 1.24709 13.148 1.07909 12.692C0.911094 12.228 0.827094 11.7 0.827094 11.108C0.835094 10.868 0.859094 10.636 0.899094 10.412C0.947094 10.18 1.01509 9.968 1.10309 9.776C1.19909 9.576 1.31509 9.404 1.45109 9.26C1.59509 9.108 1.76309 8.984 1.95509 8.888C1.70709 8.704 1.48709 8.44 1.29509 8.096C1.10309 7.744 0.999094 7.3 0.983094 6.764C0.975094 6.22 1.06309 5.752 1.24709 5.36C1.43909 4.968 1.72309 4.668 2.09909 4.46C2.47509 4.252 2.93909 4.148 3.49109 4.148C4.05109 4.148 4.51509 4.256 4.88309 4.472C5.25909 4.68 5.53909 4.98 5.72309 5.372C5.90709 5.756 5.99109 6.22 5.97509 6.764C5.96709 7.308 5.87109 7.756 5.68709 8.108C5.50309 8.452 5.28309 8.712 5.02709 8.888C5.21909 8.984 5.38309 9.108 5.51909 9.26C5.66309 9.404 5.77909 9.576 5.86709 9.776C5.96309 9.968 6.03509 10.18 6.08309 10.412C6.13109 10.636 6.15509 10.868 6.15509 11.108C6.17109 11.7 6.09109 12.228 5.91509 12.692C5.74709 13.148 5.46709 13.508 5.07509 13.772C4.68309 14.028 4.15509 14.156 3.49109 14.156ZM3.49109 12.68C3.70709 12.68 3.86309 12.6 3.95909 12.44C4.05509 12.28 4.11509 12.092 4.13909 11.876C4.16309 11.652 4.17509 11.448 4.17509 11.264C4.18309 11.016 4.17109 10.776 4.13909 10.544C4.11509 10.312 4.05509 10.124 3.95909 9.98C3.86309 9.828 3.70709 9.752 3.49109 9.752C3.28309 9.752 3.13109 9.828 3.03509 9.98C2.93909 10.124 2.87509 10.312 2.84309 10.544C2.81909 10.768 2.80709 11.008 2.80709 11.264C2.80709 11.448 2.81909 11.652 2.84309 11.876C2.86709 12.1 2.92709 12.292 3.02309 12.452C3.12709 12.604 3.28309 12.68 3.49109 12.68ZM3.49109 8.168C3.62709 8.168 3.73909 8.116 3.82709 8.012C3.91509 7.9 3.97909 7.736 4.01909 7.52C4.06709 7.304 4.09109 7.036 4.09109 6.716C4.09109 6.388 4.03909 6.128 3.93509 5.936C3.83909 5.744 3.69109 5.648 3.49109 5.648C3.29109 5.648 3.13509 5.744 3.02309 5.936C2.91909 6.128 2.86709 6.384 2.86709 6.704C2.86709 7.024 2.88709 7.296 2.92709 7.52C2.97509 7.736 3.04709 7.9 3.14309 8.012C3.23909 8.116 3.35509 8.168 3.49109 8.168Z"></path>
</svg>
