<svg xmlns="http://www.w3.org/2000/svg" fill="none" viewBox="0 0 480 360" height="360" width="480">
<rect fill-opacity="0.01" fill="white" height="360" width="480"></rect>
<rect fill-opacity="0.8" fill="#0D0E12" height="304" width="304" y="40" x="18"></rect>
<path fill="white" d="M84.2102 174V164.28H86.7422C87.1582 164.28 87.5502 164.312 87.9182 164.376C88.2942 164.44 88.6262 164.564 88.9142 164.748C89.2022 164.924 89.4262 165.18 89.5862 165.516C89.7542 165.844 89.8382 166.28 89.8382 166.824C89.8382 167.216 89.7782 167.548 89.6582 167.82C89.5462 168.084 89.3822 168.296 89.1662 168.456C88.9582 168.616 88.7062 168.724 88.4102 168.78C88.7862 168.828 89.1022 168.952 89.3582 169.152C89.6142 169.344 89.8062 169.604 89.9342 169.932C90.0702 170.26 90.1382 170.656 90.1382 171.12C90.1382 171.624 90.0702 172.06 89.9342 172.428C89.8062 172.788 89.6182 173.084 89.3702 173.316C89.1222 173.548 88.8142 173.72 88.4462 173.832C88.0862 173.944 87.6702 174 87.1982 174H84.2102ZM86.3582 172.5H86.8142C87.2862 172.5 87.6102 172.38 87.7862 172.14C87.9702 171.9 88.0622 171.548 88.0622 171.084C88.0622 170.716 88.0222 170.424 87.9422 170.208C87.8622 169.992 87.7302 169.836 87.5462 169.74C87.3622 169.636 87.1142 169.584 86.8022 169.584H86.3582V172.5ZM86.3582 168.168H86.7782C87.1062 168.168 87.3542 168.12 87.5222 168.024C87.6902 167.92 87.8022 167.772 87.8582 167.58C87.9222 167.388 87.9542 167.156 87.9542 166.884C87.9542 166.628 87.9062 166.416 87.8102 166.248C87.7222 166.072 87.5862 165.94 87.4022 165.852C87.2262 165.764 87.0022 165.72 86.7302 165.72H86.3582V168.168ZM91.3009 174V164.28H93.4489V168.384H93.9289C94.5449 168.384 95.0649 168.484 95.4889 168.684C95.9209 168.884 96.2449 169.192 96.4609 169.608C96.6849 170.016 96.7969 170.544 96.7969 171.192C96.7969 171.784 96.7169 172.264 96.5569 172.632C96.4049 173 96.1889 173.284 95.9089 173.484C95.6289 173.684 95.3049 173.82 94.9369 173.892C94.5689 173.964 94.1689 174 93.7369 174H91.3009ZM93.4489 172.596H93.7489C94.0209 172.596 94.2329 172.544 94.3849 172.44C94.5449 172.336 94.6569 172.176 94.7209 171.96C94.7929 171.744 94.8249 171.472 94.8169 171.144C94.8089 170.784 94.7329 170.484 94.5889 170.244C94.4449 169.996 94.1569 169.872 93.7249 169.872H93.4489V172.596ZM97.6129 174V164.28H99.7609V174H97.6129ZM103.672 174L105.556 168.768L103.756 164.28H105.784L106.852 166.908L107.716 164.28H109.504L107.8 169.332L109.696 174H107.68L106.492 171.096L105.448 174H103.672ZM113.268 174.144C112.54 174.144 111.964 174.016 111.54 173.76C111.116 173.504 110.812 173.136 110.628 172.656C110.444 172.176 110.352 171.604 110.352 170.94V167.328C110.352 166.656 110.444 166.084 110.628 165.612C110.812 165.14 111.116 164.78 111.54 164.532C111.964 164.276 112.54 164.148 113.268 164.148C114.004 164.148 114.584 164.276 115.008 164.532C115.44 164.78 115.748 165.14 115.932 165.612C116.116 166.084 116.208 166.656 116.208 167.328V170.94C116.208 171.604 116.116 172.176 115.932 172.656C115.748 173.136 115.44 173.504 115.008 173.76C114.584 174.016 114.004 174.144 113.268 174.144ZM113.268 172.62C113.492 172.62 113.656 172.564 113.76 172.452C113.864 172.34 113.932 172.196 113.964 172.02C113.996 171.844 114.012 171.664 114.012 171.48V166.8C114.012 166.608 113.996 166.428 113.964 166.26C113.932 166.084 113.864 165.94 113.76 165.828C113.656 165.716 113.492 165.66 113.268 165.66C113.06 165.66 112.904 165.716 112.8 165.828C112.696 165.94 112.628 166.084 112.596 166.26C112.564 166.428 112.548 166.608 112.548 166.8V171.48C112.548 171.664 112.56 171.844 112.584 172.02C112.616 172.196 112.68 172.34 112.776 172.452C112.88 172.564 113.044 172.62 113.268 172.62ZM118.391 174V165.876H116.927V164.28H122.003V165.876H120.551V174H118.391ZM122.895 174V164.28H124.587V169.848L127.071 164.28H128.463V174H126.735V168.336L124.203 174H122.895ZM130.813 174V165.876H129.349V164.28H134.425V165.876H132.973V174H130.813ZM135.281 174V164.28H139.649V165.744H137.429V168.156H139.121V169.644H137.429V172.548H139.673V174H135.281ZM143.718 174V164.28H149.538V174H147.426V165.816H145.83V174H143.718ZM150.984 174V164.28H154.248C154.832 164.28 155.312 164.392 155.688 164.616C156.064 164.832 156.344 165.152 156.528 165.576C156.712 165.992 156.804 166.5 156.804 167.1C156.804 167.852 156.68 168.428 156.432 168.828C156.184 169.22 155.848 169.492 155.424 169.644C155 169.796 154.524 169.872 153.996 169.872H153.132V174H150.984ZM153.132 168.372H153.852C154.116 168.372 154.316 168.324 154.452 168.228C154.588 168.132 154.676 167.988 154.716 167.796C154.764 167.604 154.788 167.36 154.788 167.064C154.788 166.816 154.768 166.6 154.728 166.416C154.696 166.224 154.612 166.072 154.476 165.96C154.34 165.848 154.128 165.792 153.84 165.792H153.132V168.372ZM157.839 174V164.28H162.207V165.744H159.987V168.156H161.679V169.644H159.987V172.548H162.231V174H157.839ZM162.702 176.1V172.464H162.978C163.162 172.408 163.33 172.312 163.482 172.176C163.642 172.032 163.786 171.84 163.914 171.6C164.042 171.36 164.158 171.06 164.262 170.7C164.366 170.34 164.454 169.912 164.526 169.416C164.598 168.912 164.658 168.332 164.706 167.676L164.97 164.28H169.494V172.464H170.586V176.1H169.17L169.062 174H164.298L164.178 176.1H162.702ZM165.006 172.464H167.49V165.804H166.59L166.482 167.892C166.442 168.58 166.382 169.164 166.302 169.644C166.23 170.124 166.142 170.524 166.038 170.844C165.942 171.156 165.838 171.412 165.726 171.612C165.614 171.812 165.494 171.976 165.366 172.104C165.246 172.232 165.126 172.352 165.006 172.464ZM170.891 174V172.488C171.163 172.488 171.383 172.472 171.551 172.44C171.719 172.4 171.851 172.312 171.947 172.176C172.043 172.04 172.119 171.832 172.175 171.552C172.231 171.272 172.275 170.896 172.307 170.424C172.347 169.952 172.395 169.352 172.451 168.624L172.763 164.28H177.911V174H175.775V165.924H174.707L174.515 169.032C174.459 169.832 174.403 170.524 174.347 171.108C174.291 171.684 174.199 172.168 174.071 172.56C173.951 172.952 173.767 173.26 173.519 173.484C173.279 173.7 172.947 173.848 172.523 173.928C172.099 174.008 171.555 174.032 170.891 174ZM182.186 174.144C181.458 174.144 180.882 174.016 180.458 173.76C180.034 173.504 179.73 173.136 179.546 172.656C179.362 172.176 179.27 171.604 179.27 170.94V167.328C179.27 166.656 179.362 166.084 179.546 165.612C179.73 165.14 180.034 164.78 180.458 164.532C180.882 164.276 181.458 164.148 182.186 164.148C182.922 164.148 183.502 164.276 183.926 164.532C184.358 164.78 184.666 165.14 184.85 165.612C185.034 166.084 185.126 166.656 185.126 167.328V170.94C185.126 171.604 185.034 172.176 184.85 172.656C184.666 173.136 184.358 173.504 183.926 173.76C183.502 174.016 182.922 174.144 182.186 174.144ZM182.186 172.62C182.41 172.62 182.574 172.564 182.678 172.452C182.782 172.34 182.85 172.196 182.882 172.02C182.914 171.844 182.93 171.664 182.93 171.48V166.8C182.93 166.608 182.914 166.428 182.882 166.26C182.85 166.084 182.782 165.94 182.678 165.828C182.574 165.716 182.41 165.66 182.186 165.66C181.978 165.66 181.822 165.716 181.718 165.828C181.614 165.94 181.546 166.084 181.514 166.26C181.482 166.428 181.466 166.608 181.466 166.8V171.48C181.466 171.664 181.478 171.844 181.502 172.02C181.534 172.196 181.598 172.34 181.694 172.452C181.798 172.564 181.962 172.62 182.186 172.62ZM185.785 174L187.825 169.116L185.833 164.28H187.837L189.529 168.828H189.625V164.28H191.329V168.828H191.437L193.129 164.28H195.133L193.141 169.116L195.181 174H193.261L191.437 169.284H191.329V174H189.625V169.284H189.529L187.705 174H185.785ZM196.008 174V164.28H197.7V169.848L200.184 164.28H201.576V174H199.848V168.336L197.316 174H196.008ZM203.926 174V165.876H202.462V164.28H207.538V165.876H206.086V174H203.926ZM208.43 174V164.28H210.578V168.384H211.058C211.666 168.384 212.182 168.484 212.606 168.684C213.03 168.884 213.354 169.192 213.578 169.608C213.802 170.016 213.914 170.544 213.914 171.192C213.914 171.784 213.834 172.264 213.674 172.632C213.522 173 213.306 173.284 213.026 173.484C212.746 173.684 212.418 173.82 212.042 173.892C211.674 173.964 211.278 174 210.854 174H208.43ZM210.578 172.596H210.866C211.138 172.596 211.35 172.544 211.502 172.44C211.662 172.336 211.774 172.176 211.838 171.96C211.91 171.744 211.942 171.472 211.934 171.144C211.926 170.784 211.85 170.484 211.706 170.244C211.57 169.996 211.282 169.872 210.842 169.872H210.578V172.596ZM218.168 174V164.28H220.316V168.216H221.816V164.28H223.976V174H221.816V169.752H220.316V174H218.168ZM225.492 174V164.28H227.184V169.848L229.668 164.28H231.06V174H229.332V168.336L226.8 174H225.492ZM236.218 174V170.004C235.818 170.06 235.426 170.088 235.042 170.088C234.578 170.088 234.138 170 233.722 169.824C233.314 169.64 232.982 169.376 232.726 169.032C232.47 168.68 232.342 168.252 232.342 167.748V164.28H234.49V167.736C234.49 167.936 234.51 168.116 234.55 168.276C234.598 168.428 234.702 168.548 234.862 168.636C235.03 168.724 235.29 168.768 235.642 168.768C235.73 168.768 235.822 168.764 235.918 168.756C236.014 168.748 236.114 168.736 236.218 168.72V164.28H238.366V174H236.218ZM239.883 174V164.28H242.031V168.384H242.511C243.119 168.384 243.635 168.484 244.059 168.684C244.483 168.884 244.807 169.192 245.031 169.608C245.255 170.016 245.367 170.544 245.367 171.192C245.367 171.784 245.287 172.264 245.127 172.632C244.975 173 244.759 173.284 244.479 173.484C244.199 173.684 243.871 173.82 243.495 173.892C243.127 173.964 242.731 174 242.307 174H239.883ZM242.031 172.596H242.319C242.591 172.596 242.803 172.544 242.955 172.44C243.115 172.336 243.227 172.176 243.291 171.96C243.363 171.744 243.395 171.472 243.387 171.144C243.379 170.784 243.303 170.484 243.159 170.244C243.023 169.996 242.735 169.872 242.295 169.872H242.031V172.596ZM252.419 174.144C251.731 174.144 251.191 174.008 250.799 173.736C250.407 173.456 250.131 173.068 249.971 172.572C249.811 172.068 249.731 171.484 249.731 170.82V169.872H248.675V174H246.551V164.28H248.675V168.288H249.731V167.448C249.731 166.776 249.811 166.196 249.971 165.708C250.131 165.212 250.407 164.828 250.799 164.556C251.191 164.284 251.731 164.148 252.419 164.148C253.107 164.148 253.647 164.284 254.039 164.556C254.431 164.828 254.707 165.212 254.867 165.708C255.027 166.204 255.107 166.784 255.107 167.448V170.82C255.107 171.484 255.027 172.068 254.867 172.572C254.707 173.068 254.431 173.456 254.039 173.736C253.647 174.008 253.107 174.144 252.419 174.144ZM252.419 172.62C252.635 172.62 252.791 172.564 252.887 172.452C252.983 172.34 253.043 172.196 253.067 172.02C253.091 171.844 253.103 171.664 253.103 171.48V166.8C253.103 166.608 253.091 166.428 253.067 166.26C253.043 166.084 252.983 165.94 252.887 165.828C252.791 165.716 252.635 165.66 252.419 165.66C252.211 165.66 252.055 165.716 251.951 165.828C251.855 165.94 251.795 166.084 251.771 166.26C251.747 166.428 251.735 166.608 251.735 166.8V171.48C251.735 171.664 251.747 171.844 251.771 172.02C251.795 172.196 251.855 172.34 251.951 172.452C252.055 172.564 252.211 172.62 252.419 172.62ZM257.245 171.444V169.896C257.605 169.616 257.929 169.304 258.217 168.96C258.505 168.616 258.733 168.252 258.901 167.868C259.069 167.476 259.153 167.072 259.153 166.656C259.153 166.36 259.097 166.148 258.985 166.02C258.881 165.884 258.725 165.816 258.517 165.816C258.325 165.816 258.173 165.872 258.061 165.984C257.957 166.096 257.905 166.252 257.905 166.452C257.905 166.58 257.917 166.696 257.941 166.8C257.973 166.896 258.009 167 258.049 167.112L256.285 167.52C256.221 167.328 256.169 167.144 256.129 166.968C256.097 166.784 256.081 166.592 256.081 166.392C256.081 165.688 256.293 165.14 256.717 164.748C257.149 164.348 257.765 164.148 258.565 164.148C259.373 164.148 259.993 164.36 260.425 164.784C260.865 165.208 261.085 165.812 261.085 166.596C261.085 167.076 261.005 167.532 260.845 167.964C260.685 168.396 260.449 168.804 260.137 169.188C259.833 169.572 259.461 169.932 259.021 170.268V171.444H257.245ZM257.185 174V172.14H259.093V174H257.185Z"></path>
</svg>
