<svg xmlns="http://www.w3.org/2000/svg" fill="none" viewBox="0 0 104 22" height="22" width="104">
<rect stroke="#0D0E12" fill="white" height="21" width="103" y="0.5" x="0.5"></rect>
<path fill="#0D0E12" d="M46.018 16V7.9H48.068C48.7746 7.9 49.3246 7.99 49.718 8.17C50.1113 8.34333 50.388 8.62 50.548 9C50.708 9.37333 50.788 9.86 50.788 10.46V13.4C50.788 14.0067 50.708 14.5033 50.548 14.89C50.388 15.27 50.1113 15.55 49.718 15.73C49.3313 15.91 48.788 16 48.088 16H46.018ZM47.808 14.76H48.088C48.3613 14.76 48.558 14.72 48.678 14.64C48.798 14.56 48.8713 14.44 48.898 14.28C48.9313 14.12 48.948 13.92 48.948 13.68V10.15C48.948 9.91 48.928 9.71667 48.888 9.57C48.8546 9.42333 48.778 9.31667 48.658 9.25C48.538 9.18333 48.3446 9.15 48.078 9.15H47.808V14.76ZM51.8773 16V7.9H55.5173V9.12H53.6673V11.13H55.0773V12.37H53.6673V14.79H55.5373V16H51.8773ZM56.35 16V7.9H58.14V14.79H60V16H56.35ZM60.7836 16V7.9H64.4236V9.12H62.5736V11.13H63.9836V12.37H62.5736V14.79H64.4436V16H60.7836ZM65.9863 16V9.23H64.7663V7.9H68.9963V9.23H67.7863V16H65.9863ZM69.7094 16V7.9H73.3494V9.12H71.4994V11.13H72.9094V12.37H71.4994V14.79H73.3694V16H69.7094Z"></path>
<rect fill="#0D0E12" rx="0.403497" height="0.806993" width="10.4909" y="7.29126" x="29"></rect>
<rect fill="#0D0E12" rx="0.403497" height="0.806993" width="2.74378" y="6" x="32.8735"></rect>
<rect fill="#0D0E12" transform="rotate(90 33.3577 6)" rx="0.403496" height="0.806993" width="1.93678" y="6" x="33.3577"></rect>
<rect fill="#0D0E12" transform="rotate(90 35.9401 6)" rx="0.403496" height="0.806993" width="1.93678" y="6" x="35.9401"></rect>
<rect fill="#0D0E12" rx="0.403497" height="0.806993" width="6.45594" y="16.0066" x="31.0175"></rect>
<rect fill="#0D0E12" transform="rotate(85 30.853 7.28564)" rx="0.403497" height="0.806993" width="9.53976" y="7.28564" x="30.853"></rect>
<rect fill="#0D0E12" transform="rotate(-85 36.7738 16.7891)" rx="0.403497" height="0.806993" width="9.53976" y="16.7891" x="36.7738"></rect>
<path fill="#0D0E12" d="M37.6349 7.69458H30.5333L31.2193 16.6119H37.191L37.6349 7.69458ZM32.1673 8.74754C32.1557 8.525 31.9658 8.35405 31.7433 8.36571C31.5207 8.37737 31.3498 8.56723 31.3614 8.78977L31.7235 15.6982C31.7351 15.9207 31.925 16.0917 32.1475 16.08C32.3701 16.0683 32.541 15.8785 32.5294 15.6559L32.1673 8.74754ZM36.3431 16.0801C36.1206 16.0684 35.9496 15.8786 35.9613 15.656L36.3233 8.74764C36.335 8.5251 36.5249 8.35416 36.7474 8.36582C36.9699 8.37748 37.1409 8.56734 37.1292 8.78988L36.7672 15.6983C36.7555 15.9208 36.5657 16.0918 36.3431 16.0801ZM33.842 15.6818C33.842 15.9047 34.0226 16.0853 34.2455 16.0853C34.4683 16.0853 34.649 15.9047 34.649 15.6818L34.649 8.76395C34.649 8.5411 34.4683 8.36045 34.2455 8.36045C34.0226 8.36045 33.842 8.5411 33.842 8.76395L33.842 15.6818Z" clip-rule="evenodd" fill-rule="evenodd"></path>
</svg>
