<svg xmlns="http://www.w3.org/2000/svg" fill="none" viewBox="0 0 13 18" height="18" width="13">
<rect fill-opacity="0.01" fill="#0D0E12" height="18" width="13"></rect>
<path fill="white" d="M0.492 14V12.584L2.82 9.008C2.996 8.744 3.16 8.488 3.312 8.24C3.472 7.992 3.6 7.74 3.696 7.484C3.8 7.228 3.852 6.96 3.852 6.68C3.852 6.4 3.796 6.192 3.684 6.056C3.572 5.92 3.42 5.852 3.228 5.852C3.012 5.852 2.844 5.912 2.724 6.032C2.604 6.152 2.52 6.312 2.472 6.512C2.432 6.712 2.412 6.936 2.412 7.184V7.664H0.468V7.148C0.468 6.572 0.56 6.06 0.744 5.612C0.928 5.156 1.22 4.8 1.62 4.544C2.02 4.28 2.544 4.148 3.192 4.148C4.064 4.148 4.72 4.376 5.16 4.832C5.608 5.28 5.832 5.908 5.832 6.716C5.832 7.108 5.768 7.472 5.64 7.808C5.52 8.144 5.356 8.472 5.148 8.792C4.948 9.104 4.732 9.432 4.5 9.776L2.724 12.428H5.568V14H0.492ZM9.46406 14.18C8.88006 14.18 8.39206 14.064 8.00006 13.832C7.60806 13.592 7.31206 13.264 7.11206 12.848C6.91206 12.432 6.81206 11.948 6.81206 11.396V6.992C6.81206 6.424 6.90406 5.928 7.08806 5.504C7.28006 5.072 7.57206 4.736 7.96406 4.496C8.35606 4.256 8.85606 4.136 9.46406 4.136C10.0721 4.136 10.5681 4.256 10.9521 4.496C11.3441 4.736 11.6321 5.072 11.8161 5.504C12.0081 5.928 12.1041 6.424 12.1041 6.992V11.396C12.1041 11.94 12.0041 12.424 11.8041 12.848C11.6041 13.264 11.3081 13.592 10.9161 13.832C10.5241 14.064 10.0401 14.18 9.46406 14.18ZM9.46406 12.392C9.65606 12.392 9.79206 12.332 9.87206 12.212C9.96006 12.084 10.0121 11.94 10.0281 11.78C10.0521 11.612 10.0641 11.468 10.0641 11.348V7.04C10.0641 6.904 10.0561 6.752 10.0401 6.584C10.0241 6.408 9.97206 6.256 9.88406 6.128C9.80406 5.992 9.66406 5.924 9.46406 5.924C9.26406 5.924 9.12006 5.992 9.03206 6.128C8.95206 6.256 8.90406 6.408 8.88806 6.584C8.87206 6.752 8.86406 6.904 8.86406 7.04V11.348C8.86406 11.468 8.87606 11.612 8.90006 11.78C8.92406 11.94 8.97606 12.084 9.05606 12.212C9.14406 12.332 9.28006 12.392 9.46406 12.392Z"></path>
</svg>
