<svg xmlns="http://www.w3.org/2000/svg" fill="none" viewBox="0 0 67 52" height="52" width="67">
<rect fill="#0D0E12" height="52" width="67"></rect>
<path fill="white" d="M26.3398 32.1C25.8331 32.1 25.4098 31.9867 25.0698 31.76C24.7365 31.5333 24.4631 31.1633 24.2498 30.65L25.3598 30.16C25.4665 30.42 25.5898 30.6267 25.7298 30.78C25.8765 30.9267 26.0365 31 26.2098 31C26.3365 31 26.4298 30.9733 26.4898 30.92C26.5565 30.8667 26.5898 30.7933 26.5898 30.7C26.5898 30.5467 26.5298 30.4067 26.4098 30.28C26.2965 30.1533 26.0898 29.9667 25.7898 29.72L25.3698 29.37C25.0631 29.11 24.8198 28.86 24.6398 28.62C24.4665 28.3733 24.3798 28.07 24.3798 27.71C24.3798 27.3967 24.4598 27.12 24.6198 26.88C24.7865 26.64 25.0065 26.4533 25.2798 26.32C25.5531 26.1867 25.8465 26.12 26.1598 26.12C26.6331 26.12 27.0298 26.25 27.3498 26.51C27.6698 26.77 27.8931 27.1367 28.0198 27.61L26.9698 28.09C26.9298 27.9633 26.8731 27.8367 26.7998 27.71C26.7265 27.5833 26.6365 27.4767 26.5298 27.39C26.4298 27.3033 26.3198 27.26 26.1998 27.26C26.0931 27.26 26.0065 27.29 25.9398 27.35C25.8798 27.41 25.8498 27.49 25.8498 27.59C25.8498 27.7167 25.9198 27.8533 26.0598 28C26.2065 28.1467 26.4065 28.3233 26.6598 28.53L27.0698 28.89C27.2365 29.03 27.3998 29.18 27.5598 29.34C27.7198 29.5 27.8498 29.6767 27.9498 29.87C28.0565 30.0633 28.1098 30.2833 28.1098 30.53C28.1098 30.8633 28.0265 31.15 27.8598 31.39C27.6931 31.6233 27.4731 31.8 27.1998 31.92C26.9331 32.04 26.6465 32.1 26.3398 32.1ZM29.9881 32.1C29.6948 32.1 29.4481 32.03 29.2481 31.89C29.0481 31.75 28.8981 31.5733 28.7981 31.36C28.6981 31.14 28.6481 30.9167 28.6481 30.69C28.6481 30.33 28.7181 30.0267 28.8581 29.78C29.0048 29.5333 29.1948 29.3267 29.4281 29.16C29.6614 28.9933 29.9181 28.8533 30.1981 28.74C30.4781 28.62 30.7548 28.5133 31.0281 28.42V27.84C31.0281 27.74 31.0181 27.6533 30.9981 27.58C30.9781 27.5 30.9448 27.44 30.8981 27.4C30.8514 27.3533 30.7814 27.33 30.6881 27.33C30.5948 27.33 30.5214 27.35 30.4681 27.39C30.4214 27.43 30.3881 27.4867 30.3681 27.56C30.3481 27.6267 30.3348 27.7033 30.3281 27.79L30.2881 28.21L28.7681 28.15C28.8014 27.4567 28.9848 26.9467 29.3181 26.62C29.6581 26.2867 30.1648 26.12 30.8381 26.12C31.4248 26.12 31.8614 26.2833 32.1481 26.61C32.4414 26.93 32.5881 27.3467 32.5881 27.86V30.56C32.5881 30.8 32.5914 31.01 32.5981 31.19C32.6114 31.37 32.6248 31.5267 32.6381 31.66C32.6581 31.7933 32.6748 31.9067 32.6881 32H31.2281C31.2081 31.8467 31.1848 31.68 31.1581 31.5C31.1314 31.32 31.1114 31.2133 31.0981 31.18C31.0314 31.42 30.9048 31.6333 30.7181 31.82C30.5381 32.0067 30.2948 32.1 29.9881 32.1ZM30.5681 31C30.6348 31 30.6948 30.9867 30.7481 30.96C30.8081 30.9333 30.8614 30.8967 30.9081 30.85C30.9548 30.8033 30.9948 30.7567 31.0281 30.71V29.13C30.8948 29.21 30.7714 29.2933 30.6581 29.38C30.5448 29.46 30.4481 29.55 30.3681 29.65C30.2881 29.75 30.2248 29.86 30.1781 29.98C30.1381 30.0933 30.1181 30.2233 30.1181 30.37C30.1181 30.5633 30.1581 30.7167 30.2381 30.83C30.3181 30.9433 30.4281 31 30.5681 31ZM34.3039 32L33.1439 26.22H34.7039L35.1839 29.91L35.6239 26.22H37.1839L35.9939 32H34.3039ZM39.6529 32.1C39.2329 32.1 38.8729 32.0267 38.5729 31.88C38.2729 31.7267 38.0429 31.5067 37.8829 31.22C37.7229 30.9267 37.6429 30.5767 37.6429 30.17V28.05C37.6429 27.6367 37.7229 27.2867 37.8829 27C38.0429 26.7133 38.2729 26.4967 38.5729 26.35C38.8796 26.1967 39.2396 26.12 39.6529 26.12C40.0796 26.12 40.4329 26.1933 40.7129 26.34C40.9996 26.4867 41.2129 26.7033 41.3529 26.99C41.4996 27.2767 41.5729 27.63 41.5729 28.05V29.21H39.2529V30.32C39.2529 30.4667 39.2696 30.5867 39.3029 30.68C39.3363 30.7733 39.3829 30.84 39.4429 30.88C39.5029 30.92 39.5729 30.94 39.6529 30.94C39.7329 30.94 39.8029 30.9233 39.8629 30.89C39.9296 30.85 39.9796 30.79 40.0129 30.71C40.0529 30.63 40.0729 30.52 40.0729 30.38V29.77H41.5729V30.33C41.5729 30.9167 41.4029 31.36 41.0629 31.66C40.7229 31.9533 40.2529 32.1 39.6529 32.1ZM39.2529 28.45H40.0729V27.87C40.0729 27.7167 40.0529 27.5967 40.0129 27.51C39.9796 27.4233 39.9296 27.3633 39.8629 27.33C39.8029 27.2967 39.7296 27.28 39.6429 27.28C39.5629 27.28 39.4929 27.3 39.4329 27.34C39.3796 27.38 39.3363 27.45 39.3029 27.55C39.2696 27.6433 39.2529 27.78 39.2529 27.96V28.45Z"></path>
<path fill="white" d="M20.6799 44.9V37.22H22.3099V37.64C22.5033 37.4667 22.7099 37.3367 22.9299 37.25C23.1499 37.1633 23.3599 37.12 23.5599 37.12C23.7799 37.12 23.9666 37.1633 24.1199 37.25C24.2799 37.3367 24.4099 37.46 24.5099 37.62C24.6099 37.7733 24.6833 37.9533 24.7299 38.16C24.7766 38.3667 24.7999 38.5867 24.7999 38.82V41.31C24.7999 41.67 24.7499 41.9833 24.6499 42.25C24.5566 42.5167 24.4166 42.7267 24.2299 42.88C24.0433 43.0267 23.8133 43.1 23.5399 43.1C23.3333 43.1 23.1233 43.0533 22.9099 42.96C22.7033 42.86 22.5033 42.7267 22.3099 42.56V44.9H20.6799ZM22.7399 42.05C22.8466 42.05 22.9299 42.02 22.9899 41.96C23.0499 41.9 23.0933 41.8233 23.1199 41.73C23.1533 41.63 23.1699 41.52 23.1699 41.4V38.7C23.1699 38.5867 23.1566 38.4867 23.1299 38.4C23.1033 38.3067 23.0599 38.2333 22.9999 38.18C22.9399 38.1267 22.8633 38.1 22.7699 38.1C22.6833 38.1 22.5999 38.12 22.5199 38.16C22.4466 38.1933 22.3766 38.24 22.3099 38.3V41.9C22.3833 41.9467 22.4533 41.9833 22.5199 42.01C22.5933 42.0367 22.6666 42.05 22.7399 42.05ZM25.7488 43V37.22H27.3788V38.18C27.5654 37.8467 27.7521 37.5933 27.9388 37.42C28.1254 37.24 28.3521 37.15 28.6188 37.15C28.6721 37.15 28.7188 37.1533 28.7588 37.16C28.7988 37.16 28.8354 37.1667 28.8688 37.18V38.8C28.7954 38.7667 28.7121 38.74 28.6188 38.72C28.5321 38.6933 28.4388 38.68 28.3388 38.68C28.1521 38.68 27.9788 38.73 27.8188 38.83C27.6588 38.93 27.5121 39.0667 27.3788 39.24V43H25.7488ZM31.4569 43.1C31.0435 43.1 30.6835 43.03 30.3769 42.89C30.0769 42.75 29.8435 42.54 29.6769 42.26C29.5169 41.98 29.4369 41.63 29.4369 41.21V39.01C29.4369 38.59 29.5169 38.24 29.6769 37.96C29.8435 37.68 30.0769 37.47 30.3769 37.33C30.6835 37.19 31.0435 37.12 31.4569 37.12C31.8702 37.12 32.2269 37.19 32.5269 37.33C32.8335 37.47 33.0702 37.68 33.2369 37.96C33.4035 38.24 33.4869 38.59 33.4869 39.01V41.21C33.4869 41.63 33.4035 41.98 33.2369 42.26C33.0702 42.54 32.8335 42.75 32.5269 42.89C32.2269 43.03 31.8702 43.1 31.4569 43.1ZM31.4669 42.02C31.5735 42.02 31.6569 41.9933 31.7169 41.94C31.7769 41.88 31.8169 41.8 31.8369 41.7C31.8635 41.5933 31.8769 41.4667 31.8769 41.32V38.9C31.8769 38.7533 31.8635 38.63 31.8369 38.53C31.8169 38.4233 31.7769 38.3433 31.7169 38.29C31.6569 38.23 31.5735 38.2 31.4669 38.2C31.3602 38.2 31.2769 38.23 31.2169 38.29C31.1569 38.3433 31.1135 38.4233 31.0869 38.53C31.0602 38.63 31.0469 38.7533 31.0469 38.9V41.32C31.0469 41.4667 31.0602 41.5933 31.0869 41.7C31.1135 41.8 31.1569 41.88 31.2169 41.94C31.2769 41.9933 31.3602 42.02 31.4669 42.02ZM34.5709 43V38.32H34.0209V37.22H34.5709V36.79C34.5709 36.4433 34.6142 36.1433 34.7009 35.89C34.7942 35.6367 34.9509 35.44 35.1709 35.3C35.3975 35.16 35.7109 35.09 36.1109 35.09C36.2175 35.09 36.3275 35.0967 36.4409 35.11C36.5609 35.1167 36.6842 35.13 36.8109 35.15V36.26C36.7775 36.2533 36.7409 36.25 36.7009 36.25C36.6609 36.2433 36.6209 36.24 36.5809 36.24C36.4675 36.24 36.3742 36.2733 36.3009 36.34C36.2342 36.4067 36.2009 36.5367 36.2009 36.73V37.22H38.8909V43H37.2809V38.32H36.2009V43H34.5709ZM37.3809 36.24V35.11H38.8909V36.24H37.3809ZM39.9687 43V34.9H41.5887V43H39.9687ZM44.5328 43.1C44.1128 43.1 43.7528 43.0267 43.4528 42.88C43.1528 42.7267 42.9228 42.5067 42.7628 42.22C42.6028 41.9267 42.5228 41.5767 42.5228 41.17V39.05C42.5228 38.6367 42.6028 38.2867 42.7628 38C42.9228 37.7133 43.1528 37.4967 43.4528 37.35C43.7595 37.1967 44.1195 37.12 44.5328 37.12C44.9595 37.12 45.3128 37.1933 45.5928 37.34C45.8795 37.4867 46.0928 37.7033 46.2328 37.99C46.3795 38.2767 46.4528 38.63 46.4528 39.05V40.21H44.1328V41.32C44.1328 41.4667 44.1495 41.5867 44.1828 41.68C44.2161 41.7733 44.2628 41.84 44.3228 41.88C44.3828 41.92 44.4528 41.94 44.5328 41.94C44.6128 41.94 44.6828 41.9233 44.7428 41.89C44.8095 41.85 44.8595 41.79 44.8928 41.71C44.9328 41.63 44.9528 41.52 44.9528 41.38V40.77H46.4528V41.33C46.4528 41.9167 46.2828 42.36 45.9428 42.66C45.6028 42.9533 45.1328 43.1 44.5328 43.1ZM44.1328 39.45H44.9528V38.87C44.9528 38.7167 44.9328 38.5967 44.8928 38.51C44.8595 38.4233 44.8095 38.3633 44.7428 38.33C44.6828 38.2967 44.6095 38.28 44.5228 38.28C44.4428 38.28 44.3728 38.3 44.3128 38.34C44.2595 38.38 44.2161 38.45 44.1828 38.55C44.1495 38.6433 44.1328 38.78 44.1328 38.96V39.45Z"></path>
<path fill="white" d="M40 11.3824C40 11.2069 39.9538 11.0344 39.866 10.8824L37.2572 6.36377C37.0785 6.05437 36.7484 5.86377 36.3912 5.86377H27C26.4477 5.86377 26 6.31149 26 6.86377V18.8638C26 19.4161 26.4477 19.8638 27 19.8638H39C39.5523 19.8638 40 19.4161 40 18.8638V11.3824Z" clip-rule="evenodd" fill-rule="evenodd"></path>
<rect fill="black" rx="1" height="5.09091" width="7.63636" y="5.22729" x="28.5455"></rect>
<rect fill="white" rx="0.954546" height="3.18182" width="1.90909" y="5.86377" x="29.8182"></rect>
<path fill="black" d="M27.9091 15.1365C27.9091 14.5842 28.3568 14.1365 28.9091 14.1365H37.0909C37.6432 14.1365 38.0909 14.5842 38.0909 15.1365V18.591H27.9091V15.1365Z"></path>
<rect fill="white" height="0.636364" width="7.63636" y="15.4092" x="29.1818"></rect>
<rect fill="white" height="0.636364" width="7.63636" y="16.6819" x="29.1818"></rect>
<rect fill-opacity="0.01" fill="black" height="20" width="20" y="3" x="23"></rect>
</svg>
