<svg xmlns="http://www.w3.org/2000/svg" fill="none" viewBox="0 0 13 18" height="18" width="13">
<rect fill-opacity="0.01" fill="#0D0E12" height="18" width="13"></rect>
<path fill="white" d="M3.06 14.18C2.348 14.18 1.808 14.056 1.44 13.808C1.08 13.552 0.836 13.196 0.708 12.74C0.58 12.284 0.516 11.756 0.516 11.156H2.448C2.448 11.524 2.468 11.824 2.508 12.056C2.548 12.288 2.62 12.456 2.724 12.56C2.836 12.656 2.992 12.7 3.192 12.692C3.4 12.684 3.548 12.6 3.636 12.44C3.724 12.28 3.776 12.052 3.792 11.756C3.816 11.452 3.828 11.088 3.828 10.664C3.828 10.344 3.808 10.06 3.768 9.812C3.736 9.564 3.664 9.368 3.552 9.224C3.448 9.072 3.288 8.996 3.072 8.996C2.872 8.996 2.708 9.068 2.58 9.212C2.452 9.356 2.36 9.58 2.304 9.884H0.576L0.756 4.28H5.292V5.96H2.364L2.256 7.964C2.336 7.852 2.488 7.756 2.712 7.676C2.936 7.588 3.176 7.532 3.432 7.508C3.928 7.452 4.344 7.544 4.68 7.784C5.024 8.016 5.28 8.372 5.448 8.852C5.624 9.332 5.712 9.92 5.712 10.616C5.712 11.136 5.68 11.616 5.616 12.056C5.552 12.488 5.428 12.864 5.244 13.184C5.06 13.496 4.792 13.74 4.44 13.916C4.088 14.092 3.628 14.18 3.06 14.18ZM9.23747 14.144C8.61347 14.144 8.12147 14.048 7.76147 13.856C7.40147 13.664 7.14547 13.384 6.99347 13.016C6.84147 12.64 6.76547 12.18 6.76547 11.636C6.76547 11.612 6.76547 11.588 6.76547 11.564C6.76547 11.532 6.76547 11.504 6.76547 11.48H8.63747C8.63747 11.872 8.66947 12.164 8.73347 12.356C8.80547 12.54 8.97747 12.632 9.24947 12.632C9.43347 12.632 9.56947 12.576 9.65747 12.464C9.74547 12.352 9.80147 12.156 9.82547 11.876C9.85747 11.588 9.87347 11.196 9.87347 10.7V9.836C9.76947 10.004 9.60947 10.132 9.39347 10.22C9.18547 10.308 8.94947 10.36 8.68547 10.376C8.17347 10.384 7.76147 10.256 7.44947 9.992C7.13747 9.728 6.91347 9.372 6.77747 8.924C6.64147 8.476 6.57347 7.988 6.57347 7.46C6.57347 6.78 6.65747 6.196 6.82547 5.708C7.00147 5.212 7.28547 4.828 7.67747 4.556C8.06947 4.284 8.58947 4.148 9.23747 4.148C9.87747 4.148 10.3935 4.276 10.7855 4.532C11.1775 4.788 11.4615 5.148 11.6375 5.612C11.8215 6.068 11.9135 6.608 11.9135 7.232V10.856C11.9135 11.488 11.8375 12.052 11.6855 12.548C11.5415 13.044 11.2775 13.436 10.8935 13.724C10.5095 14.004 9.95747 14.144 9.23747 14.144ZM9.26147 8.84C9.42147 8.84 9.54947 8.796 9.64547 8.708C9.74147 8.62 9.81747 8.536 9.87347 8.456V6.872C9.87347 6.648 9.85747 6.444 9.82547 6.26C9.79347 6.068 9.73347 5.916 9.64547 5.804C9.55747 5.684 9.42147 5.624 9.23747 5.624C9.06147 5.624 8.92947 5.688 8.84147 5.816C8.75347 5.936 8.69347 6.12 8.66147 6.368C8.63747 6.608 8.62547 6.908 8.62547 7.268C8.62547 7.58 8.63347 7.856 8.64947 8.096C8.67347 8.328 8.72947 8.512 8.81747 8.648C8.90547 8.776 9.05347 8.84 9.26147 8.84Z"></path>
</svg>
