<svg xmlns="http://www.w3.org/2000/svg" fill="none" viewBox="0 0 7 19" height="19" width="7">
<path fill-opacity="0.01" fill="white" d="M0.5 0H6.49996V19H0.5V0Z"></path>
<path fill="#45D2FF" d="M3.50727 14.18C2.79527 14.18 2.25527 14.056 1.88727 13.808C1.52727 13.552 1.28327 13.196 1.15527 12.74C1.02727 12.284 0.963266 11.756 0.963266 11.156H2.89527C2.89527 11.524 2.91527 11.824 2.95527 12.056C2.99527 12.288 3.06727 12.456 3.17127 12.56C3.28327 12.656 3.43927 12.7 3.63927 12.692C3.84727 12.684 3.99527 12.6 4.08327 12.44C4.17127 12.28 4.22327 12.052 4.23927 11.756C4.26327 11.452 4.27527 11.088 4.27527 10.664C4.27527 10.344 4.25527 10.06 4.21527 9.812C4.18327 9.564 4.11127 9.368 3.99927 9.224C3.89527 9.072 3.73527 8.996 3.51927 8.996C3.31927 8.996 3.15527 9.068 3.02727 9.212C2.89927 9.356 2.80727 9.58 2.75127 9.884H1.02327L1.20327 4.28H5.73927V5.96H2.81127L2.70327 7.964C2.78327 7.852 2.93527 7.756 3.15927 7.676C3.38327 7.588 3.62327 7.532 3.87927 7.508C4.37527 7.452 4.79127 7.544 5.12727 7.784C5.47127 8.016 5.72727 8.372 5.89527 8.852C6.07127 9.332 6.15927 9.92 6.15927 10.616C6.15927 11.136 6.12727 11.616 6.06327 12.056C5.99927 12.488 5.87527 12.864 5.69127 13.184C5.50727 13.496 5.23927 13.74 4.88727 13.916C4.53527 14.092 4.07527 14.18 3.50727 14.18Z"></path>
</svg>
