<svg xmlns="http://www.w3.org/2000/svg" fill="none" viewBox="0 0 214 84" height="84" width="214">
<mask fill="white" id="path-1-inside-1_1505_2">
<path d="M0 0H214V84H0V0Z"></path>
</mask>
<path fill="#0D0E12" d="M0 0H214V84H0V0Z"></path>
<path mask="url(#path-1-inside-1_1505_2)" fill="white" d="M0 0V-1H-1V0H0ZM0 84H-1V85H0V84ZM0 1H214V-1H0V1ZM214 83H0V85H214V83ZM1 84V0H-1V84H1Z"></path>
<path fill="#FF0000" d="M16.72 38V28.28H21.088V29.744H18.868V32.156H20.56V33.644H18.868V36.548H21.112V38H16.72ZM22.0872 38V28.28H24.7632C25.4192 28.28 25.9872 28.352 26.4672 28.496C26.9472 28.64 27.3192 28.9 27.5832 29.276C27.8552 29.644 27.9912 30.168 27.9912 30.848C27.9912 31.248 27.9592 31.604 27.8952 31.916C27.8312 32.228 27.7112 32.5 27.5352 32.732C27.3672 32.956 27.1232 33.144 26.8032 33.296L28.1352 38H25.9152L24.8472 33.644H24.2352V38H22.0872ZM24.2352 32.408H24.8352C25.1392 32.408 25.3752 32.356 25.5432 32.252C25.7112 32.14 25.8272 31.984 25.8912 31.784C25.9632 31.576 25.9992 31.328 25.9992 31.04C25.9992 30.624 25.9232 30.3 25.7712 30.068C25.6192 29.836 25.3392 29.72 24.9312 29.72H24.2352V32.408ZM29.2825 38V28.28H31.9585C32.6145 28.28 33.1825 28.352 33.6625 28.496C34.1425 28.64 34.5145 28.9 34.7785 29.276C35.0505 29.644 35.1865 30.168 35.1865 30.848C35.1865 31.248 35.1545 31.604 35.0905 31.916C35.0265 32.228 34.9065 32.5 34.7305 32.732C34.5625 32.956 34.3185 33.144 33.9985 33.296L35.3305 38H33.1105L32.0425 33.644H31.4305V38H29.2825ZM31.4305 32.408H32.0305C32.3345 32.408 32.5705 32.356 32.7385 32.252C32.9065 32.14 33.0225 31.984 33.0865 31.784C33.1585 31.576 33.1945 31.328 33.1945 31.04C33.1945 30.624 33.1185 30.3 32.9665 30.068C32.8145 29.836 32.5345 29.72 32.1265 29.72H31.4305V32.408ZM39.1681 38.144C38.4401 38.144 37.8641 38.016 37.4401 37.76C37.0161 37.504 36.7121 37.136 36.5281 36.656C36.3441 36.176 36.2521 35.604 36.2521 34.94V31.328C36.2521 30.656 36.3441 30.084 36.5281 29.612C36.7121 29.14 37.0161 28.78 37.4401 28.532C37.8641 28.276 38.4401 28.148 39.1681 28.148C39.9041 28.148 40.4841 28.276 40.9081 28.532C41.3401 28.78 41.6481 29.14 41.8321 29.612C42.0161 30.084 42.1081 30.656 42.1081 31.328V34.94C42.1081 35.604 42.0161 36.176 41.8321 36.656C41.6481 37.136 41.3401 37.504 40.9081 37.76C40.4841 38.016 39.9041 38.144 39.1681 38.144ZM39.1681 36.62C39.3921 36.62 39.5561 36.564 39.6601 36.452C39.7641 36.34 39.8321 36.196 39.8641 36.02C39.8961 35.844 39.9121 35.664 39.9121 35.48V30.8C39.9121 30.608 39.8961 30.428 39.8641 30.26C39.8321 30.084 39.7641 29.94 39.6601 29.828C39.5561 29.716 39.3921 29.66 39.1681 29.66C38.9601 29.66 38.8041 29.716 38.7001 29.828C38.5961 29.94 38.5281 30.084 38.4961 30.26C38.4641 30.428 38.4481 30.608 38.4481 30.8V35.48C38.4481 35.664 38.4601 35.844 38.4841 36.02C38.5161 36.196 38.5801 36.34 38.6761 36.452C38.7801 36.564 38.9441 36.62 39.1681 36.62ZM43.4153 38V28.28H46.0913C46.7473 28.28 47.3153 28.352 47.7953 28.496C48.2753 28.64 48.6473 28.9 48.9113 29.276C49.1833 29.644 49.3193 30.168 49.3193 30.848C49.3193 31.248 49.2873 31.604 49.2233 31.916C49.1593 32.228 49.0393 32.5 48.8633 32.732C48.6953 32.956 48.4513 33.144 48.1313 33.296L49.4633 38H47.2433L46.1753 33.644H45.5633V38H43.4153ZM45.5633 32.408H46.1633C46.4673 32.408 46.7033 32.356 46.8713 32.252C47.0393 32.14 47.1553 31.984 47.2193 31.784C47.2913 31.576 47.3273 31.328 47.3273 31.04C47.3273 30.624 47.2513 30.3 47.0993 30.068C46.9473 29.836 46.6673 29.72 46.2593 29.72H45.5633V32.408Z"></path>
<path fill="white" d="M18.54 56.09C18.0733 56.09 17.6833 55.99 17.37 55.79C17.0633 55.59 16.83 55.3133 16.67 54.96C16.51 54.6067 16.4167 54.1967 16.39 53.73L17.39 53.46C17.41 53.7467 17.4533 54.0233 17.52 54.29C17.5933 54.5567 17.71 54.7767 17.87 54.95C18.03 55.1167 18.2533 55.2 18.54 55.2C18.8333 55.2 19.0533 55.12 19.2 54.96C19.3533 54.7933 19.43 54.5567 19.43 54.25C19.43 53.8833 19.3467 53.59 19.18 53.37C19.0133 53.1433 18.8033 52.9167 18.55 52.69L17.19 51.49C16.9233 51.2567 16.7267 51.0033 16.6 50.73C16.4733 50.45 16.41 50.1067 16.41 49.7C16.41 49.1067 16.58 48.6467 16.92 48.32C17.26 47.9933 17.7233 47.83 18.31 47.83C18.63 47.83 18.91 47.8733 19.15 47.96C19.3967 48.04 19.6 48.1667 19.76 48.34C19.9267 48.5133 20.0567 48.7333 20.15 49C20.25 49.26 20.3167 49.5667 20.35 49.92L19.39 50.18C19.37 49.9133 19.33 49.67 19.27 49.45C19.21 49.2233 19.1033 49.0433 18.95 48.91C18.8033 48.77 18.59 48.7 18.31 48.7C18.03 48.7 17.81 48.7767 17.65 48.93C17.4967 49.0767 17.42 49.2967 17.42 49.59C17.42 49.8367 17.46 50.04 17.54 50.2C17.6267 50.36 17.7633 50.5233 17.95 50.69L19.32 51.89C19.6267 52.1567 19.8967 52.4767 20.13 52.85C20.3633 53.2167 20.48 53.6533 20.48 54.16C20.48 54.56 20.3967 54.9067 20.23 55.2C20.0633 55.4867 19.8333 55.7067 19.54 55.86C19.2533 56.0133 18.92 56.09 18.54 56.09ZM22.8566 56.08C22.4299 56.08 22.0932 55.9933 21.8466 55.82C21.5999 55.6467 21.4232 55.4 21.3166 55.08C21.2166 54.76 21.1666 54.3833 21.1666 53.95V52.27C21.1666 51.8367 21.2166 51.46 21.3166 51.14C21.4232 50.82 21.5999 50.5733 21.8466 50.4C22.0932 50.2267 22.4299 50.14 22.8566 50.14C23.2832 50.14 23.6166 50.2267 23.8566 50.4C24.1032 50.5733 24.2766 50.82 24.3766 51.14C24.4832 51.46 24.5366 51.8367 24.5366 52.27V53.95C24.5366 54.3833 24.4832 54.76 24.3766 55.08C24.2766 55.4 24.1032 55.6467 23.8566 55.82C23.6166 55.9933 23.2832 56.08 22.8566 56.08ZM22.8566 55.29C23.0632 55.29 23.2066 55.23 23.2866 55.11C23.3732 54.99 23.4232 54.8333 23.4366 54.64C23.4566 54.44 23.4666 54.2333 23.4666 54.02V52.21C23.4666 51.99 23.4566 51.7833 23.4366 51.59C23.4232 51.3967 23.3732 51.24 23.2866 51.12C23.2066 50.9933 23.0632 50.93 22.8566 50.93C22.6499 50.93 22.5032 50.9933 22.4166 51.12C22.3299 51.24 22.2766 51.3967 22.2566 51.59C22.2432 51.7833 22.2366 51.99 22.2366 52.21V54.02C22.2366 54.2333 22.2432 54.44 22.2566 54.64C22.2766 54.8333 22.3299 54.99 22.4166 55.11C22.5032 55.23 22.6499 55.29 22.8566 55.29ZM25.5146 56V50.22H26.5046V50.77C26.6979 50.55 26.9113 50.3867 27.1446 50.28C27.3779 50.1733 27.6179 50.12 27.8646 50.12C28.0779 50.12 28.2679 50.1733 28.4346 50.28C28.6079 50.3867 28.7313 50.5767 28.8046 50.85C29.0113 50.5967 29.2346 50.4133 29.4746 50.3C29.7213 50.18 29.9779 50.12 30.2446 50.12C30.4313 50.12 30.6013 50.1667 30.7546 50.26C30.9079 50.3467 31.0313 50.49 31.1246 50.69C31.2179 50.8833 31.2646 51.14 31.2646 51.46V56H30.2846V51.53C30.2846 51.25 30.2379 51.0633 30.1446 50.97C30.0579 50.87 29.9379 50.82 29.7846 50.82C29.6379 50.82 29.4846 50.8633 29.3246 50.95C29.1646 51.03 29.0179 51.1433 28.8846 51.29C28.8846 51.3167 28.8846 51.3433 28.8846 51.37C28.8846 51.3967 28.8846 51.4267 28.8846 51.46V56H27.9046V51.53C27.9046 51.25 27.8579 51.0633 27.7646 50.97C27.6779 50.87 27.5579 50.82 27.4046 50.82C27.2579 50.82 27.1046 50.8633 26.9446 50.95C26.7913 51.03 26.6446 51.1433 26.5046 51.29V56H25.5146ZM33.9115 56.08C33.4582 56.08 33.1082 55.9933 32.8615 55.82C32.6148 55.64 32.4415 55.38 32.3415 55.04C32.2482 54.6933 32.2015 54.27 32.2015 53.77V52.45C32.2015 51.9367 32.2515 51.51 32.3515 51.17C32.4515 50.83 32.6248 50.5733 32.8715 50.4C33.1248 50.2267 33.4715 50.14 33.9115 50.14C34.3982 50.14 34.7548 50.24 34.9815 50.44C35.2148 50.64 35.3682 50.93 35.4415 51.31C35.5148 51.6833 35.5515 52.1333 35.5515 52.66V53.13H33.2715V54.29C33.2715 54.5233 33.2915 54.7133 33.3315 54.86C33.3782 55.0067 33.4482 55.1167 33.5415 55.19C33.6415 55.2567 33.7682 55.29 33.9215 55.29C34.0815 55.29 34.2015 55.2533 34.2815 55.18C34.3682 55.1 34.4248 54.99 34.4515 54.85C34.4848 54.7033 34.5015 54.5333 34.5015 54.34V53.99H35.5415V54.21C35.5415 54.79 35.4182 55.2467 35.1715 55.58C34.9248 55.9133 34.5048 56.08 33.9115 56.08ZM33.2715 52.55H34.5015V52.03C34.5015 51.79 34.4882 51.59 34.4615 51.43C34.4348 51.2633 34.3782 51.14 34.2915 51.06C34.2115 50.9733 34.0815 50.93 33.9015 50.93C33.7282 50.93 33.5948 50.97 33.5015 51.05C33.4148 51.13 33.3548 51.2667 33.3215 51.46C33.2882 51.6467 33.2715 51.9067 33.2715 52.24V52.55ZM38.1105 56.08C37.6838 56.08 37.3471 55.9933 37.1005 55.82C36.8538 55.6467 36.6771 55.4 36.5705 55.08C36.4705 54.76 36.4205 54.3833 36.4205 53.95V52.27C36.4205 51.8367 36.4705 51.46 36.5705 51.14C36.6771 50.82 36.8538 50.5733 37.1005 50.4C37.3471 50.2267 37.6838 50.14 38.1105 50.14C38.5371 50.14 38.8705 50.2267 39.1105 50.4C39.3571 50.5733 39.5305 50.82 39.6305 51.14C39.7371 51.46 39.7905 51.8367 39.7905 52.27V53.95C39.7905 54.3833 39.7371 54.76 39.6305 55.08C39.5305 55.4 39.3571 55.6467 39.1105 55.82C38.8705 55.9933 38.5371 56.08 38.1105 56.08ZM38.1105 55.29C38.3171 55.29 38.4605 55.23 38.5405 55.11C38.6271 54.99 38.6771 54.8333 38.6905 54.64C38.7105 54.44 38.7205 54.2333 38.7205 54.02V52.21C38.7205 51.99 38.7105 51.7833 38.6905 51.59C38.6771 51.3967 38.6271 51.24 38.5405 51.12C38.4605 50.9933 38.3171 50.93 38.1105 50.93C37.9038 50.93 37.7571 50.9933 37.6705 51.12C37.5838 51.24 37.5305 51.3967 37.5105 51.59C37.4971 51.7833 37.4905 51.99 37.4905 52.21V54.02C37.4905 54.2333 37.4971 54.44 37.5105 54.64C37.5305 54.8333 37.5838 54.99 37.6705 55.11C37.7571 55.23 37.9038 55.29 38.1105 55.29ZM40.7685 56V50.22H41.8385V50.79C42.0318 50.61 42.2452 50.4567 42.4785 50.33C42.7118 50.2033 42.9685 50.14 43.2485 50.14C43.4818 50.14 43.6585 50.2 43.7785 50.32C43.9052 50.44 43.9918 50.59 44.0385 50.77C44.0918 50.95 44.1185 51.1333 44.1185 51.32V56H43.0485V51.63C43.0485 51.4233 43.0185 51.2633 42.9585 51.15C42.8985 51.0367 42.7752 50.98 42.5885 50.98C42.4685 50.98 42.3418 51.0167 42.2085 51.09C42.0818 51.1567 41.9585 51.24 41.8385 51.34V56H40.7685ZM46.763 56.08C46.3097 56.08 45.9597 55.9933 45.713 55.82C45.4664 55.64 45.293 55.38 45.193 55.04C45.0997 54.6933 45.053 54.27 45.053 53.77V52.45C45.053 51.9367 45.103 51.51 45.203 51.17C45.303 50.83 45.4764 50.5733 45.723 50.4C45.9764 50.2267 46.323 50.14 46.763 50.14C47.2497 50.14 47.6064 50.24 47.833 50.44C48.0664 50.64 48.2197 50.93 48.293 51.31C48.3664 51.6833 48.403 52.1333 48.403 52.66V53.13H46.123V54.29C46.123 54.5233 46.143 54.7133 46.183 54.86C46.2297 55.0067 46.2997 55.1167 46.393 55.19C46.493 55.2567 46.6197 55.29 46.773 55.29C46.933 55.29 47.053 55.2533 47.133 55.18C47.2197 55.1 47.2764 54.99 47.303 54.85C47.3364 54.7033 47.353 54.5333 47.353 54.34V53.99H48.393V54.21C48.393 54.79 48.2697 55.2467 48.023 55.58C47.7764 55.9133 47.3564 56.08 46.763 56.08ZM46.123 52.55H47.353V52.03C47.353 51.79 47.3397 51.59 47.313 51.43C47.2864 51.2633 47.2297 51.14 47.143 51.06C47.063 50.9733 46.933 50.93 46.753 50.93C46.5797 50.93 46.4464 50.97 46.353 51.05C46.2664 51.13 46.2064 51.2667 46.173 51.46C46.1397 51.6467 46.123 51.9067 46.123 52.24V52.55ZM53.1972 56.08C52.8972 56.08 52.6539 56.0233 52.4672 55.91C52.2872 55.7967 52.1539 55.6367 52.0672 55.43C51.9872 55.2233 51.9472 54.98 51.9472 54.7V50.93H51.3372V50.22H51.9472V48.53H53.0172V50.22H53.9472V50.93H53.0172V54.63C53.0172 54.8567 53.0539 55.02 53.1272 55.12C53.2005 55.2133 53.3405 55.26 53.5472 55.26C53.6005 55.26 53.6605 55.2567 53.7272 55.25C53.8005 55.2433 53.8705 55.2367 53.9372 55.23V56.02C53.8039 56.04 53.6805 56.0533 53.5672 56.06C53.4539 56.0733 53.3305 56.08 53.1972 56.08ZM54.7634 56V50.22H55.8334V51.04C56.0467 50.6867 56.26 50.45 56.4734 50.33C56.6867 50.21 56.9 50.15 57.1134 50.15C57.14 50.15 57.1634 50.15 57.1834 50.15C57.21 50.15 57.2434 50.1533 57.2834 50.16V51.34C57.2034 51.3067 57.11 51.28 57.0034 51.26C56.9034 51.2333 56.8 51.22 56.6934 51.22C56.5267 51.22 56.3734 51.26 56.2334 51.34C56.1 51.4133 55.9667 51.56 55.8334 51.78V56H54.7634ZM58.0163 56V50.22H59.0863V56H58.0163ZM58.0163 49.36V48.24H59.0863V49.36H58.0163ZM61.8314 56.08C61.3781 56.08 61.0281 55.9933 60.7814 55.82C60.5347 55.64 60.3614 55.38 60.2614 55.04C60.1681 54.6933 60.1214 54.27 60.1214 53.77V52.45C60.1214 51.9367 60.1714 51.51 60.2714 51.17C60.3714 50.83 60.5447 50.5733 60.7914 50.4C61.0447 50.2267 61.3914 50.14 61.8314 50.14C62.3181 50.14 62.6747 50.24 62.9014 50.44C63.1347 50.64 63.2881 50.93 63.3614 51.31C63.4347 51.6833 63.4714 52.1333 63.4714 52.66V53.13H61.1914V54.29C61.1914 54.5233 61.2114 54.7133 61.2514 54.86C61.2981 55.0067 61.3681 55.1167 61.4614 55.19C61.5614 55.2567 61.6881 55.29 61.8414 55.29C62.0014 55.29 62.1214 55.2533 62.2014 55.18C62.2881 55.1 62.3447 54.99 62.3714 54.85C62.4047 54.7033 62.4214 54.5333 62.4214 54.34V53.99H63.4614V54.21C63.4614 54.79 63.3381 55.2467 63.0914 55.58C62.8447 55.9133 62.4247 56.08 61.8314 56.08ZM61.1914 52.55H62.4214V52.03C62.4214 51.79 62.4081 51.59 62.3814 51.43C62.3547 51.2633 62.2981 51.14 62.2114 51.06C62.1314 50.9733 62.0014 50.93 61.8214 50.93C61.6481 50.93 61.5147 50.97 61.4214 51.05C61.3347 51.13 61.2747 51.2667 61.2414 51.46C61.2081 51.6467 61.1914 51.9067 61.1914 52.24V52.55ZM65.7804 56.08C65.2937 56.08 64.9304 55.9033 64.6904 55.55C64.4504 55.19 64.3304 54.5833 64.3304 53.73V52.61C64.3304 52.17 64.3671 51.7633 64.4404 51.39C64.5137 51.01 64.6504 50.7067 64.8504 50.48C65.0571 50.2533 65.3571 50.14 65.7504 50.14C65.9437 50.14 66.1204 50.1833 66.2804 50.27C66.4404 50.3567 66.5837 50.4633 66.7104 50.59V47.9H67.7804V56H66.7104V55.63C66.5837 55.7633 66.4437 55.8733 66.2904 55.96C66.1437 56.04 65.9737 56.08 65.7804 56.08ZM66.0504 55.24C66.1504 55.24 66.2571 55.2233 66.3704 55.19C66.4837 55.15 66.5971 55.0933 66.7104 55.02V51.23C66.6171 51.1633 66.5137 51.1067 66.4004 51.06C66.2871 51.0067 66.1637 50.98 66.0304 50.98C65.7837 50.98 65.6171 51.1 65.5304 51.34C65.4437 51.5733 65.4004 51.8567 65.4004 52.19V53.82C65.4004 54.0867 65.4137 54.33 65.4404 54.55C65.4737 54.7633 65.5371 54.9333 65.6304 55.06C65.7237 55.18 65.8637 55.24 66.0504 55.24ZM72.6894 56.08C72.3894 56.08 72.146 56.0233 71.9594 55.91C71.7794 55.7967 71.646 55.6367 71.5594 55.43C71.4794 55.2233 71.4394 54.98 71.4394 54.7V50.93H70.8294V50.22H71.4394V48.53H72.5094V50.22H73.4394V50.93H72.5094V54.63C72.5094 54.8567 72.546 55.02 72.6194 55.12C72.6927 55.2133 72.8327 55.26 73.0394 55.26C73.0927 55.26 73.1527 55.2567 73.2194 55.25C73.2927 55.2433 73.3627 55.2367 73.4294 55.23V56.02C73.296 56.04 73.1727 56.0533 73.0594 56.06C72.946 56.0733 72.8227 56.08 72.6894 56.08ZM75.8155 56.08C75.3889 56.08 75.0522 55.9933 74.8055 55.82C74.5589 55.6467 74.3822 55.4 74.2755 55.08C74.1755 54.76 74.1255 54.3833 74.1255 53.95V52.27C74.1255 51.8367 74.1755 51.46 74.2755 51.14C74.3822 50.82 74.5589 50.5733 74.8055 50.4C75.0522 50.2267 75.3889 50.14 75.8155 50.14C76.2422 50.14 76.5755 50.2267 76.8155 50.4C77.0622 50.5733 77.2355 50.82 77.3355 51.14C77.4422 51.46 77.4955 51.8367 77.4955 52.27V53.95C77.4955 54.3833 77.4422 54.76 77.3355 55.08C77.2355 55.4 77.0622 55.6467 76.8155 55.82C76.5755 55.9933 76.2422 56.08 75.8155 56.08ZM75.8155 55.29C76.0222 55.29 76.1655 55.23 76.2455 55.11C76.3322 54.99 76.3822 54.8333 76.3955 54.64C76.4155 54.44 76.4255 54.2333 76.4255 54.02V52.21C76.4255 51.99 76.4155 51.7833 76.3955 51.59C76.3822 51.3967 76.3322 51.24 76.2455 51.12C76.1655 50.9933 76.0222 50.93 75.8155 50.93C75.6089 50.93 75.4622 50.9933 75.3755 51.12C75.2889 51.24 75.2355 51.3967 75.2155 51.59C75.2022 51.7833 75.1955 51.99 75.1955 52.21V54.02C75.1955 54.2333 75.2022 54.44 75.2155 54.64C75.2355 54.8333 75.2889 54.99 75.3755 55.11C75.4622 55.23 75.6089 55.29 75.8155 55.29ZM80.7888 56V47.9H81.8588V50.82C82.0521 50.6333 82.2688 50.4733 82.5088 50.34C82.7488 50.2067 83.0154 50.14 83.3088 50.14C83.5354 50.14 83.7088 50.2 83.8288 50.32C83.9554 50.44 84.0421 50.59 84.0888 50.77C84.1421 50.95 84.1688 51.1333 84.1688 51.32V56H83.0988V51.63C83.0988 51.4233 83.0688 51.2633 83.0088 51.15C82.9488 51.0367 82.8254 50.98 82.6388 50.98C82.5121 50.98 82.3788 51.0167 82.2388 51.09C82.1054 51.1633 81.9788 51.2533 81.8588 51.36V56H80.7888ZM86.2519 56.08C86.0252 56.08 85.8252 56.0167 85.6519 55.89C85.4785 55.7567 85.3419 55.59 85.2419 55.39C85.1419 55.1833 85.0919 54.9667 85.0919 54.74C85.0919 54.38 85.1519 54.0767 85.2719 53.83C85.3919 53.5833 85.5552 53.3767 85.7619 53.21C85.9752 53.0367 86.2185 52.8867 86.4919 52.76C86.7719 52.6333 87.0652 52.51 87.3719 52.39V51.98C87.3719 51.7467 87.3585 51.5533 87.3319 51.4C87.3052 51.2467 87.2485 51.1333 87.1619 51.06C87.0819 50.98 86.9585 50.94 86.7919 50.94C86.6452 50.94 86.5252 50.9733 86.4319 51.04C86.3452 51.1067 86.2819 51.2033 86.2419 51.33C86.2019 51.45 86.1819 51.5933 86.1819 51.76V52.05L85.1219 52.01C85.1352 51.37 85.2819 50.9 85.5619 50.6C85.8419 50.2933 86.2752 50.14 86.8619 50.14C87.4352 50.14 87.8419 50.2967 88.0819 50.61C88.3219 50.9233 88.4419 51.3767 88.4419 51.97V54.61C88.4419 54.79 88.4452 54.9633 88.4519 55.13C88.4652 55.2967 88.4785 55.4533 88.4919 55.6C88.5119 55.74 88.5285 55.8733 88.5419 56H87.5619C87.5419 55.8933 87.5152 55.76 87.4819 55.6C87.4552 55.4333 87.4352 55.2833 87.4219 55.15C87.3552 55.3767 87.2252 55.59 87.0319 55.79C86.8452 55.9833 86.5852 56.08 86.2519 56.08ZM86.6719 55.16C86.7785 55.16 86.8785 55.13 86.9719 55.07C87.0652 55.01 87.1485 54.9433 87.2219 54.87C87.2952 54.79 87.3452 54.7267 87.3719 54.68V53.04C87.2052 53.1333 87.0485 53.2267 86.9019 53.32C86.7552 53.4133 86.6252 53.5133 86.5119 53.62C86.4052 53.72 86.3185 53.8367 86.2519 53.97C86.1919 54.0967 86.1619 54.2433 86.1619 54.41C86.1619 54.6433 86.2052 54.8267 86.2919 54.96C86.3785 55.0933 86.5052 55.16 86.6719 55.16ZM91.0497 56.08C90.5764 56.08 90.2164 55.9867 89.9697 55.8C89.7297 55.6067 89.5664 55.3367 89.4797 54.99C89.3997 54.6433 89.3597 54.24 89.3597 53.78V52.45C89.3597 51.9633 89.403 51.55 89.4897 51.21C89.5764 50.8633 89.7397 50.6 89.9797 50.42C90.2264 50.2333 90.583 50.14 91.0497 50.14C91.4697 50.14 91.793 50.21 92.0197 50.35C92.253 50.4833 92.413 50.6867 92.4997 50.96C92.5864 51.2267 92.6297 51.56 92.6297 51.96V52.3H91.6597V51.95C91.6597 51.6967 91.643 51.4967 91.6097 51.35C91.5764 51.2033 91.5164 51.0967 91.4297 51.03C91.343 50.9633 91.2197 50.93 91.0597 50.93C90.8864 50.93 90.753 50.97 90.6597 51.05C90.5664 51.13 90.503 51.2667 90.4697 51.46C90.443 51.6467 90.4297 51.9033 90.4297 52.23V54.05C90.4297 54.5433 90.4764 54.8733 90.5697 55.04C90.663 55.2067 90.8297 55.29 91.0697 55.29C91.2497 55.29 91.3797 55.25 91.4597 55.17C91.5464 55.0833 91.5997 54.9633 91.6197 54.81C91.6464 54.6567 91.6597 54.4833 91.6597 54.29V53.82H92.6297V54.22C92.6297 54.6067 92.583 54.94 92.4897 55.22C92.403 55.5 92.243 55.7133 92.0097 55.86C91.783 56.0067 91.463 56.08 91.0497 56.08ZM93.601 55.99V47.89H94.671V52.72L96.231 50.22H97.351L95.991 52.48L97.311 56H96.241L95.161 53.04L94.671 53.78V55.99H93.601ZM100.223 56L100.373 47.9H101.483L102.913 54.47L104.353 47.9H105.453L105.603 56H104.693L104.603 50.12L103.233 56H102.593L101.233 50.12L101.143 56H100.223ZM108.345 56.08C107.918 56.08 107.582 55.9933 107.335 55.82C107.088 55.6467 106.912 55.4 106.805 55.08C106.705 54.76 106.655 54.3833 106.655 53.95V52.27C106.655 51.8367 106.705 51.46 106.805 51.14C106.912 50.82 107.088 50.5733 107.335 50.4C107.582 50.2267 107.918 50.14 108.345 50.14C108.772 50.14 109.105 50.2267 109.345 50.4C109.592 50.5733 109.765 50.82 109.865 51.14C109.972 51.46 110.025 51.8367 110.025 52.27V53.95C110.025 54.3833 109.972 54.76 109.865 55.08C109.765 55.4 109.592 55.6467 109.345 55.82C109.105 55.9933 108.772 56.08 108.345 56.08ZM108.345 55.29C108.552 55.29 108.695 55.23 108.775 55.11C108.862 54.99 108.912 54.8333 108.925 54.64C108.945 54.44 108.955 54.2333 108.955 54.02V52.21C108.955 51.99 108.945 51.7833 108.925 51.59C108.912 51.3967 108.862 51.24 108.775 51.12C108.695 50.9933 108.552 50.93 108.345 50.93C108.138 50.93 107.992 50.9933 107.905 51.12C107.818 51.24 107.765 51.3967 107.745 51.59C107.732 51.7833 107.725 51.99 107.725 52.21V54.02C107.725 54.2333 107.732 54.44 107.745 54.64C107.765 54.8333 107.818 54.99 107.905 55.11C107.992 55.23 108.138 55.29 108.345 55.29ZM112.343 56.08C111.87 56.08 111.49 55.9333 111.203 55.64C110.916 55.34 110.753 54.9467 110.713 54.46L111.603 54.19C111.656 54.5567 111.746 54.8333 111.873 55.02C112 55.2 112.186 55.29 112.433 55.29C112.626 55.29 112.773 55.2367 112.873 55.13C112.973 55.0167 113.023 54.8667 113.023 54.68C113.023 54.5133 112.986 54.3633 112.913 54.23C112.84 54.0967 112.72 53.96 112.553 53.82L111.563 52.97C111.363 52.7967 111.193 52.6033 111.053 52.39C110.92 52.1767 110.853 51.9 110.853 51.56C110.853 51.2533 110.913 50.9967 111.033 50.79C111.16 50.5767 111.333 50.4167 111.553 50.31C111.78 50.1967 112.043 50.14 112.343 50.14C112.803 50.14 113.153 50.29 113.393 50.59C113.64 50.8833 113.78 51.24 113.813 51.66L113.093 51.93C113.066 51.73 113.026 51.5567 112.973 51.41C112.92 51.2567 112.846 51.14 112.753 51.06C112.66 50.9733 112.536 50.93 112.383 50.93C112.21 50.93 112.07 50.99 111.963 51.11C111.863 51.2233 111.813 51.36 111.813 51.52C111.813 51.62 111.833 51.72 111.873 51.82C111.92 51.9133 111.996 52.0067 112.103 52.1L113.123 53.04C113.263 53.1667 113.393 53.3033 113.513 53.45C113.64 53.5967 113.743 53.7633 113.823 53.95C113.903 54.1367 113.943 54.3533 113.943 54.6C113.943 54.9267 113.876 55.2 113.743 55.42C113.61 55.64 113.423 55.8067 113.183 55.92C112.943 56.0267 112.663 56.08 112.343 56.08ZM116.863 56.09C116.29 56.09 115.843 55.97 115.523 55.73C115.21 55.49 114.99 55.1667 114.863 54.76C114.743 54.3533 114.683 53.9 114.683 53.4V50.54C114.683 49.9933 114.743 49.5167 114.863 49.11C114.99 48.7033 115.21 48.39 115.523 48.17C115.843 47.9433 116.29 47.83 116.863 47.83C117.37 47.83 117.77 47.9233 118.063 48.11C118.363 48.2967 118.576 48.5633 118.703 48.91C118.836 49.2567 118.903 49.6733 118.903 50.16V50.8H117.833V50.23C117.833 49.93 117.816 49.6667 117.783 49.44C117.756 49.2067 117.676 49.0267 117.543 48.9C117.41 48.7733 117.186 48.71 116.873 48.71C116.553 48.71 116.32 48.78 116.173 48.92C116.026 49.0533 115.93 49.2467 115.883 49.5C115.843 49.7467 115.823 50.0367 115.823 50.37V53.58C115.823 53.9867 115.856 54.31 115.923 54.55C115.99 54.7833 116.1 54.95 116.253 55.05C116.406 55.15 116.613 55.2 116.873 55.2C117.18 55.2 117.4 55.1333 117.533 55C117.666 54.86 117.75 54.67 117.783 54.43C117.816 54.19 117.833 53.91 117.833 53.59V52.99H118.903V53.59C118.903 54.0833 118.843 54.52 118.723 54.9C118.603 55.2733 118.396 55.5667 118.103 55.78C117.81 55.9867 117.396 56.09 116.863 56.09ZM119.92 56V47.9H120.99V50.82C121.183 50.6333 121.4 50.4733 121.64 50.34C121.88 50.2067 122.146 50.14 122.44 50.14C122.666 50.14 122.84 50.2 122.96 50.32C123.086 50.44 123.173 50.59 123.22 50.77C123.273 50.95 123.3 51.1333 123.3 51.32V56H122.23V51.63C122.23 51.4233 122.2 51.2633 122.14 51.15C122.08 51.0367 121.956 50.98 121.77 50.98C121.643 50.98 121.51 51.0167 121.37 51.09C121.236 51.1633 121.11 51.2533 120.99 51.36V56H119.92ZM125.943 56.08C125.489 56.08 125.139 55.9933 124.893 55.82C124.646 55.64 124.473 55.38 124.373 55.04C124.279 54.6933 124.233 54.27 124.233 53.77V52.45C124.233 51.9367 124.283 51.51 124.383 51.17C124.483 50.83 124.656 50.5733 124.903 50.4C125.156 50.2267 125.503 50.14 125.943 50.14C126.429 50.14 126.786 50.24 127.013 50.44C127.246 50.64 127.399 50.93 127.473 51.31C127.546 51.6833 127.583 52.1333 127.583 52.66V53.13H125.303V54.29C125.303 54.5233 125.323 54.7133 125.363 54.86C125.409 55.0067 125.479 55.1167 125.573 55.19C125.673 55.2567 125.799 55.29 125.953 55.29C126.113 55.29 126.233 55.2533 126.313 55.18C126.399 55.1 126.456 54.99 126.483 54.85C126.516 54.7033 126.533 54.5333 126.533 54.34V53.99H127.573V54.21C127.573 54.79 127.449 55.2467 127.203 55.58C126.956 55.9133 126.536 56.08 125.943 56.08ZM125.303 52.55H126.533V52.03C126.533 51.79 126.519 51.59 126.493 51.43C126.466 51.2633 126.409 51.14 126.323 51.06C126.243 50.9733 126.113 50.93 125.933 50.93C125.759 50.93 125.626 50.97 125.533 51.05C125.446 51.13 125.386 51.2667 125.353 51.46C125.319 51.6467 125.303 51.9067 125.303 52.24V52.55ZM129.892 56.08C129.418 56.08 129.038 55.9333 128.752 55.64C128.465 55.34 128.302 54.9467 128.262 54.46L129.152 54.19C129.205 54.5567 129.295 54.8333 129.422 55.02C129.548 55.2 129.735 55.29 129.982 55.29C130.175 55.29 130.322 55.2367 130.422 55.13C130.522 55.0167 130.572 54.8667 130.572 54.68C130.572 54.5133 130.535 54.3633 130.462 54.23C130.388 54.0967 130.268 53.96 130.102 53.82L129.112 52.97C128.912 52.7967 128.742 52.6033 128.602 52.39C128.468 52.1767 128.402 51.9 128.402 51.56C128.402 51.2533 128.462 50.9967 128.582 50.79C128.708 50.5767 128.882 50.4167 129.102 50.31C129.328 50.1967 129.592 50.14 129.892 50.14C130.352 50.14 130.702 50.29 130.942 50.59C131.188 50.8833 131.328 51.24 131.362 51.66L130.642 51.93C130.615 51.73 130.575 51.5567 130.522 51.41C130.468 51.2567 130.395 51.14 130.302 51.06C130.208 50.9733 130.085 50.93 129.932 50.93C129.758 50.93 129.618 50.99 129.512 51.11C129.412 51.2233 129.362 51.36 129.362 51.52C129.362 51.62 129.382 51.72 129.422 51.82C129.468 51.9133 129.545 52.0067 129.652 52.1L130.672 53.04C130.812 53.1667 130.942 53.3033 131.062 53.45C131.188 53.5967 131.292 53.7633 131.372 53.95C131.452 54.1367 131.492 54.3533 131.492 54.6C131.492 54.9267 131.425 55.2 131.292 55.42C131.158 55.64 130.972 55.8067 130.732 55.92C130.492 56.0267 130.212 56.08 129.892 56.08ZM133.632 56.08C133.159 56.08 132.779 55.9333 132.492 55.64C132.205 55.34 132.042 54.9467 132.002 54.46L132.892 54.19C132.945 54.5567 133.035 54.8333 133.162 55.02C133.289 55.2 133.475 55.29 133.722 55.29C133.915 55.29 134.062 55.2367 134.162 55.13C134.262 55.0167 134.312 54.8667 134.312 54.68C134.312 54.5133 134.275 54.3633 134.202 54.23C134.129 54.0967 134.009 53.96 133.842 53.82L132.852 52.97C132.652 52.7967 132.482 52.6033 132.342 52.39C132.209 52.1767 132.142 51.9 132.142 51.56C132.142 51.2533 132.202 50.9967 132.322 50.79C132.449 50.5767 132.622 50.4167 132.842 50.31C133.069 50.1967 133.332 50.14 133.632 50.14C134.092 50.14 134.442 50.29 134.682 50.59C134.929 50.8833 135.069 51.24 135.102 51.66L134.382 51.93C134.355 51.73 134.315 51.5567 134.262 51.41C134.209 51.2567 134.135 51.14 134.042 51.06C133.949 50.9733 133.825 50.93 133.672 50.93C133.499 50.93 133.359 50.99 133.252 51.11C133.152 51.2233 133.102 51.36 133.102 51.52C133.102 51.62 133.122 51.72 133.162 51.82C133.209 51.9133 133.285 52.0067 133.392 52.1L134.412 53.04C134.552 53.1667 134.682 53.3033 134.802 53.45C134.929 53.5967 135.032 53.7633 135.112 53.95C135.192 54.1367 135.232 54.3533 135.232 54.6C135.232 54.9267 135.165 55.2 135.032 55.42C134.899 55.64 134.712 55.8067 134.472 55.92C134.232 56.0267 133.952 56.08 133.632 56.08ZM135.982 56V54.81H137.052V56H135.982ZM137.867 56V54.81H138.937V56H137.867ZM139.752 56V54.81H140.822V56H139.752Z"></path>
</svg>
