<svg xmlns="http://www.w3.org/2000/svg" fill="none" viewBox="0 0 156 56" height="56" width="156">
<rect stroke="white" fill="#0D0E12" height="55" width="155" y="0.5" x="0.5"></rect>
<path fill="white" d="M41.0005 16V10.22H42.6305V16H41.0005ZM40.9905 9.24V8.11H42.6305V9.24H40.9905ZM45.417 16.1C44.9103 16.1 44.487 15.9867 44.147 15.76C43.8136 15.5333 43.5403 15.1633 43.327 14.65L44.437 14.16C44.5436 14.42 44.667 14.6267 44.807 14.78C44.9536 14.9267 45.1136 15 45.287 15C45.4136 15 45.507 14.9733 45.567 14.92C45.6336 14.8667 45.667 14.7933 45.667 14.7C45.667 14.5467 45.607 14.4067 45.487 14.28C45.3736 14.1533 45.167 13.9667 44.867 13.72L44.447 13.37C44.1403 13.11 43.897 12.86 43.717 12.62C43.5436 12.3733 43.457 12.07 43.457 11.71C43.457 11.3967 43.537 11.12 43.697 10.88C43.8636 10.64 44.0836 10.4533 44.357 10.32C44.6303 10.1867 44.9236 10.12 45.237 10.12C45.7103 10.12 46.107 10.25 46.427 10.51C46.747 10.77 46.9703 11.1367 47.097 11.61L46.047 12.09C46.007 11.9633 45.9503 11.8367 45.877 11.71C45.8036 11.5833 45.7136 11.4767 45.607 11.39C45.507 11.3033 45.397 11.26 45.277 11.26C45.1703 11.26 45.0836 11.29 45.017 11.35C44.957 11.41 44.927 11.49 44.927 11.59C44.927 11.7167 44.997 11.8533 45.137 12C45.2836 12.1467 45.4836 12.3233 45.737 12.53L46.147 12.89C46.3136 13.03 46.477 13.18 46.637 13.34C46.797 13.5 46.927 13.6767 47.027 13.87C47.1336 14.0633 47.187 14.2833 47.187 14.53C47.187 14.8633 47.1036 15.15 46.937 15.39C46.7703 15.6233 46.5503 15.8 46.277 15.92C46.0103 16.04 45.7236 16.1 45.417 16.1ZM52.3138 18C51.8805 18 51.5038 17.9567 51.1838 17.87C50.8638 17.7833 50.6138 17.6533 50.4338 17.48C50.2605 17.3067 50.1738 17.0867 50.1738 16.82C50.1738 16.64 50.2105 16.4767 50.2838 16.33C50.3638 16.19 50.4705 16.0667 50.6038 15.96C50.7438 15.8467 50.9005 15.75 51.0738 15.67C50.8205 15.5967 50.6238 15.4867 50.4838 15.34C50.3438 15.1933 50.2738 14.9967 50.2738 14.75C50.2738 14.5167 50.3305 14.3167 50.4438 14.15C50.5572 13.9767 50.7138 13.8033 50.9138 13.63C50.7272 13.4633 50.5838 13.26 50.4838 13.02C50.3905 12.7733 50.3438 12.4767 50.3438 12.13C50.3438 11.6967 50.4238 11.33 50.5838 11.03C50.7438 10.73 50.9772 10.5033 51.2838 10.35C51.5972 10.1967 51.9738 10.12 52.4138 10.12C52.7138 10.12 52.9772 10.1567 53.2038 10.23C53.4305 10.3033 53.6238 10.4167 53.7838 10.57C53.8572 10.4567 53.9538 10.3467 54.0738 10.24C54.1938 10.1333 54.3305 10.0433 54.4838 9.97L54.6938 9.87L55.0738 10.65C55.0138 10.67 54.9305 10.7033 54.8238 10.75C54.7172 10.7967 54.6038 10.8467 54.4838 10.9C54.3705 10.9533 54.2672 11.0067 54.1738 11.06C54.2472 11.2067 54.3038 11.3733 54.3438 11.56C54.3838 11.7467 54.4038 11.94 54.4038 12.14C54.4038 12.5533 54.3272 12.91 54.1738 13.21C54.0272 13.51 53.8072 13.74 53.5138 13.9C53.2205 14.0533 52.8538 14.13 52.4138 14.13C52.2272 14.13 52.0505 14.1167 51.8838 14.09C51.7172 14.0567 51.5638 14.0167 51.4238 13.97C51.3838 14.0233 51.3472 14.08 51.3138 14.14C51.2872 14.1933 51.2738 14.2533 51.2738 14.32C51.2738 14.4 51.3138 14.4633 51.3938 14.51C51.4738 14.5567 51.6172 14.5933 51.8238 14.62L53.3438 14.79C53.8372 14.8433 54.2005 15.0033 54.4338 15.27C54.6672 15.53 54.7838 15.8733 54.7838 16.3C54.7838 16.6667 54.7005 16.9767 54.5338 17.23C54.3738 17.4833 54.1105 17.6733 53.7438 17.8C53.3838 17.9333 52.9072 18 52.3138 18ZM52.5238 16.82C52.8905 16.82 53.1705 16.79 53.3638 16.73C53.5638 16.67 53.6638 16.5467 53.6638 16.36C53.6638 16.2667 53.6372 16.19 53.5838 16.13C53.5305 16.0767 53.4405 16.0333 53.3138 16C53.1938 15.96 53.0205 15.93 52.7938 15.91L51.7238 15.8C51.6572 15.8467 51.5972 15.9 51.5438 15.96C51.4972 16.0133 51.4572 16.07 51.4238 16.13C51.3972 16.1967 51.3838 16.2667 51.3838 16.34C51.3838 16.5 51.4705 16.62 51.6438 16.7C51.8172 16.78 52.1105 16.82 52.5238 16.82ZM52.4138 13.16C52.5072 13.16 52.5838 13.1433 52.6438 13.11C52.7038 13.07 52.7472 13.01 52.7738 12.93C52.8072 12.85 52.8305 12.7433 52.8438 12.61C52.8572 12.4767 52.8638 12.3167 52.8638 12.13C52.8638 11.9367 52.8572 11.7767 52.8438 11.65C52.8305 11.5167 52.8072 11.41 52.7738 11.33C52.7472 11.2433 52.7038 11.1833 52.6438 11.15C52.5838 11.11 52.5072 11.09 52.4138 11.09C52.3205 11.09 52.2438 11.11 52.1838 11.15C52.1238 11.1833 52.0772 11.24 52.0438 11.32C52.0172 11.4 51.9972 11.5067 51.9838 11.64C51.9705 11.7733 51.9638 11.9367 51.9638 12.13C51.9638 12.3167 51.9705 12.4767 51.9838 12.61C51.9972 12.7367 52.0172 12.8433 52.0438 12.93C52.0772 13.01 52.1238 13.07 52.1838 13.11C52.2438 13.1433 52.3205 13.16 52.4138 13.16ZM55.4536 16V10.22H57.0836V16H55.4536ZM55.4436 9.24V8.11H57.0836V9.24H55.4436ZM58.8401 16L57.6801 10.22H59.2401L59.7201 13.91L60.1601 10.22H61.7201L60.5301 16H58.8401ZM64.1891 16.1C63.7691 16.1 63.4091 16.0267 63.1091 15.88C62.8091 15.7267 62.5791 15.5067 62.4191 15.22C62.2591 14.9267 62.1791 14.5767 62.1791 14.17V12.05C62.1791 11.6367 62.2591 11.2867 62.4191 11C62.5791 10.7133 62.8091 10.4967 63.1091 10.35C63.4157 10.1967 63.7757 10.12 64.1891 10.12C64.6157 10.12 64.9691 10.1933 65.2491 10.34C65.5357 10.4867 65.7491 10.7033 65.8891 10.99C66.0357 11.2767 66.1091 11.63 66.1091 12.05V13.21H63.7891V14.32C63.7891 14.4667 63.8057 14.5867 63.8391 14.68C63.8724 14.7733 63.9191 14.84 63.9791 14.88C64.0391 14.92 64.1091 14.94 64.1891 14.94C64.2691 14.94 64.3391 14.9233 64.3991 14.89C64.4657 14.85 64.5157 14.79 64.5491 14.71C64.5891 14.63 64.6091 14.52 64.6091 14.38V13.77H66.1091V14.33C66.1091 14.9167 65.9391 15.36 65.5991 15.66C65.2591 15.9533 64.7891 16.1 64.1891 16.1ZM63.7891 12.45H64.6091V11.87C64.6091 11.7167 64.5891 11.5967 64.5491 11.51C64.5157 11.4233 64.4657 11.3633 64.3991 11.33C64.3391 11.2967 64.2657 11.28 64.1791 11.28C64.0991 11.28 64.0291 11.3 63.9691 11.34C63.9157 11.38 63.8724 11.45 63.8391 11.55C63.8057 11.6433 63.7891 11.78 63.7891 11.96V12.45ZM66.9963 16V10.22H68.6263V10.8C68.8397 10.5867 69.0597 10.42 69.2863 10.3C69.5197 10.18 69.763 10.12 70.0163 10.12C70.2563 10.12 70.453 10.18 70.6063 10.3C70.7663 10.4133 70.8863 10.5733 70.9663 10.78C71.0463 10.98 71.0863 11.21 71.0863 11.47V16H69.4663V11.7C69.4663 11.56 69.443 11.4533 69.3963 11.38C69.3497 11.3067 69.263 11.27 69.1363 11.27C69.0697 11.27 68.9897 11.29 68.8963 11.33C68.8097 11.3633 68.7197 11.4133 68.6263 11.48V16H66.9963ZM76.4133 16.06C75.9799 16.06 75.6433 15.9967 75.4033 15.87C75.1699 15.7433 75.0099 15.56 74.9233 15.32C74.8366 15.0733 74.7933 14.7767 74.7933 14.43V11.29H74.2333V10.22H74.7933V8.46H76.4433V10.22H77.2633V11.29H76.4433V14.27C76.4433 14.4367 76.4899 14.5567 76.5833 14.63C76.6833 14.7033 76.8066 14.74 76.9533 14.74C77.0399 14.74 77.1199 14.7367 77.1933 14.73C77.2666 14.7167 77.3333 14.7067 77.3933 14.7V15.98C77.3066 15.9933 77.1699 16.01 76.9833 16.03C76.7966 16.05 76.6066 16.06 76.4133 16.06ZM80.0584 16.1C79.6451 16.1 79.2851 16.03 78.9784 15.89C78.6784 15.75 78.4451 15.54 78.2784 15.26C78.1184 14.98 78.0384 14.63 78.0384 14.21V12.01C78.0384 11.59 78.1184 11.24 78.2784 10.96C78.4451 10.68 78.6784 10.47 78.9784 10.33C79.2851 10.19 79.6451 10.12 80.0584 10.12C80.4718 10.12 80.8284 10.19 81.1284 10.33C81.4351 10.47 81.6718 10.68 81.8384 10.96C82.0051 11.24 82.0884 11.59 82.0884 12.01V14.21C82.0884 14.63 82.0051 14.98 81.8384 15.26C81.6718 15.54 81.4351 15.75 81.1284 15.89C80.8284 16.03 80.4718 16.1 80.0584 16.1ZM80.0684 15.02C80.1751 15.02 80.2584 14.9933 80.3184 14.94C80.3784 14.88 80.4184 14.8 80.4384 14.7C80.4651 14.5933 80.4784 14.4667 80.4784 14.32V11.9C80.4784 11.7533 80.4651 11.63 80.4384 11.53C80.4184 11.4233 80.3784 11.3433 80.3184 11.29C80.2584 11.23 80.1751 11.2 80.0684 11.2C79.9618 11.2 79.8784 11.23 79.8184 11.29C79.7584 11.3433 79.7151 11.4233 79.6884 11.53C79.6618 11.63 79.6484 11.7533 79.6484 11.9V14.32C79.6484 14.4667 79.6618 14.5933 79.6884 14.7C79.7151 14.8 79.7584 14.88 79.8184 14.94C79.8784 14.9933 79.9618 15.02 80.0684 15.02ZM87.341 16.06C86.9077 16.06 86.571 15.9967 86.331 15.87C86.0977 15.7433 85.9377 15.56 85.851 15.32C85.7643 15.0733 85.721 14.7767 85.721 14.43V11.29H85.161V10.22H85.721V8.46H87.371V10.22H88.191V11.29H87.371V14.27C87.371 14.4367 87.4177 14.5567 87.511 14.63C87.611 14.7033 87.7343 14.74 87.881 14.74C87.9677 14.74 88.0477 14.7367 88.121 14.73C88.1943 14.7167 88.261 14.7067 88.321 14.7V15.98C88.2343 15.9933 88.0977 16.01 87.911 16.03C87.7243 16.05 87.5343 16.06 87.341 16.06ZM89.0962 16V7.9H90.7162V10.73C90.9295 10.5167 91.1528 10.3633 91.3862 10.27C91.6195 10.17 91.8695 10.12 92.1362 10.12C92.3695 10.12 92.5628 10.18 92.7162 10.3C92.8762 10.4133 92.9962 10.5733 93.0762 10.78C93.1562 10.98 93.1962 11.21 93.1962 11.47V16H91.5762V11.7C91.5762 11.56 91.5528 11.4533 91.5062 11.38C91.4595 11.3067 91.3728 11.27 91.2462 11.27C91.1795 11.27 91.0995 11.29 91.0062 11.33C90.9128 11.3633 90.8162 11.4133 90.7162 11.48V16H89.0962ZM96.0641 16.1C95.6441 16.1 95.2841 16.0267 94.9841 15.88C94.6841 15.7267 94.4541 15.5067 94.2941 15.22C94.1341 14.9267 94.0541 14.5767 94.0541 14.17V12.05C94.0541 11.6367 94.1341 11.2867 94.2941 11C94.4541 10.7133 94.6841 10.4967 94.9841 10.35C95.2907 10.1967 95.6507 10.12 96.0641 10.12C96.4907 10.12 96.8441 10.1933 97.1241 10.34C97.4107 10.4867 97.6241 10.7033 97.7641 10.99C97.9107 11.2767 97.9841 11.63 97.9841 12.05V13.21H95.6641V14.32C95.6641 14.4667 95.6807 14.5867 95.7141 14.68C95.7474 14.7733 95.7941 14.84 95.8541 14.88C95.9141 14.92 95.9841 14.94 96.0641 14.94C96.1441 14.94 96.2141 14.9233 96.2741 14.89C96.3407 14.85 96.3907 14.79 96.4241 14.71C96.4641 14.63 96.4841 14.52 96.4841 14.38V13.77H97.9841V14.33C97.9841 14.9167 97.8141 15.36 97.4741 15.66C97.1341 15.9533 96.6641 16.1 96.0641 16.1ZM95.6641 12.45H96.4841V11.87C96.4841 11.7167 96.4641 11.5967 96.4241 11.51C96.3907 11.4233 96.3407 11.3633 96.2741 11.33C96.2141 11.2967 96.1407 11.28 96.0541 11.28C95.9741 11.28 95.9041 11.3 95.8441 11.34C95.7907 11.38 95.7474 11.45 95.7141 11.55C95.6807 11.6433 95.6641 11.78 95.6641 11.96V12.45ZM103.33 16.1C102.917 16.1 102.557 16.03 102.25 15.89C101.95 15.75 101.717 15.54 101.55 15.26C101.39 14.98 101.31 14.63 101.31 14.21V12.01C101.31 11.59 101.39 11.24 101.55 10.96C101.717 10.68 101.95 10.47 102.25 10.33C102.557 10.19 102.917 10.12 103.33 10.12C103.743 10.12 104.1 10.19 104.4 10.33C104.707 10.47 104.943 10.68 105.11 10.96C105.277 11.24 105.36 11.59 105.36 12.01V14.21C105.36 14.63 105.277 14.98 105.11 15.26C104.943 15.54 104.707 15.75 104.4 15.89C104.1 16.03 103.743 16.1 103.33 16.1ZM103.34 15.02C103.447 15.02 103.53 14.9933 103.59 14.94C103.65 14.88 103.69 14.8 103.71 14.7C103.737 14.5933 103.75 14.4667 103.75 14.32V11.9C103.75 11.7533 103.737 11.63 103.71 11.53C103.69 11.4233 103.65 11.3433 103.59 11.29C103.53 11.23 103.447 11.2 103.34 11.2C103.233 11.2 103.15 11.23 103.09 11.29C103.03 11.3433 102.987 11.4233 102.96 11.53C102.933 11.63 102.92 11.7533 102.92 11.9V14.32C102.92 14.4667 102.933 14.5933 102.96 14.7C102.987 14.8 103.03 14.88 103.09 14.94C103.15 14.9933 103.233 15.02 103.34 15.02ZM106.264 16V10.22H107.894V10.8C108.107 10.5867 108.327 10.42 108.554 10.3C108.787 10.18 109.031 10.12 109.284 10.12C109.524 10.12 109.721 10.18 109.874 10.3C110.034 10.4133 110.154 10.5733 110.234 10.78C110.314 10.98 110.354 11.21 110.354 11.47V16H108.734V11.7C108.734 11.56 108.711 11.4533 108.664 11.38C108.617 11.3067 108.531 11.27 108.404 11.27C108.337 11.27 108.257 11.29 108.164 11.33C108.077 11.3633 107.987 11.4133 107.894 11.48V16H106.264ZM113.222 16.1C112.802 16.1 112.442 16.0267 112.142 15.88C111.842 15.7267 111.612 15.5067 111.452 15.22C111.292 14.9267 111.212 14.5767 111.212 14.17V12.05C111.212 11.6367 111.292 11.2867 111.452 11C111.612 10.7133 111.842 10.4967 112.142 10.35C112.449 10.1967 112.809 10.12 113.222 10.12C113.649 10.12 114.002 10.1933 114.282 10.34C114.569 10.4867 114.782 10.7033 114.922 10.99C115.069 11.2767 115.142 11.63 115.142 12.05V13.21H112.822V14.32C112.822 14.4667 112.839 14.5867 112.872 14.68C112.906 14.7733 112.952 14.84 113.012 14.88C113.072 14.92 113.142 14.94 113.222 14.94C113.302 14.94 113.372 14.9233 113.432 14.89C113.499 14.85 113.549 14.79 113.582 14.71C113.622 14.63 113.642 14.52 113.642 14.38V13.77H115.142V14.33C115.142 14.9167 114.972 15.36 114.632 15.66C114.292 15.9533 113.822 16.1 113.222 16.1ZM112.822 12.45H113.642V11.87C113.642 11.7167 113.622 11.5967 113.582 11.51C113.549 11.4233 113.499 11.3633 113.432 11.33C113.372 11.2967 113.299 11.28 113.212 11.28C113.132 11.28 113.062 11.3 113.002 11.34C112.949 11.38 112.906 11.45 112.872 11.55C112.839 11.6433 112.822 11.78 112.822 11.96V12.45ZM36.101 31L35.251 25.22H36.611L37.031 28.5L37.481 25.22H38.661L39.051 28.58L39.541 25.22H40.801L39.941 31H38.541L38.041 27.75L37.481 31H36.101ZM41.5278 31V22.9H43.1478V25.73C43.3611 25.5167 43.5845 25.3633 43.8178 25.27C44.0511 25.17 44.3011 25.12 44.5678 25.12C44.8011 25.12 44.9945 25.18 45.1478 25.3C45.3078 25.4133 45.4278 25.5733 45.5078 25.78C45.5878 25.98 45.6278 26.21 45.6278 26.47V31H44.0078V26.7C44.0078 26.56 43.9845 26.4533 43.9378 26.38C43.8911 26.3067 43.8045 26.27 43.6778 26.27C43.6111 26.27 43.5311 26.29 43.4378 26.33C43.3445 26.3633 43.2478 26.4133 43.1478 26.48V31H41.5278ZM48.5057 31.1C48.0924 31.1 47.7324 31.03 47.4257 30.89C47.1257 30.75 46.8924 30.54 46.7257 30.26C46.5657 29.98 46.4857 29.63 46.4857 29.21V27.01C46.4857 26.59 46.5657 26.24 46.7257 25.96C46.8924 25.68 47.1257 25.47 47.4257 25.33C47.7324 25.19 48.0924 25.12 48.5057 25.12C48.919 25.12 49.2757 25.19 49.5757 25.33C49.8824 25.47 50.119 25.68 50.2857 25.96C50.4524 26.24 50.5357 26.59 50.5357 27.01V29.21C50.5357 29.63 50.4524 29.98 50.2857 30.26C50.119 30.54 49.8824 30.75 49.5757 30.89C49.2757 31.03 48.919 31.1 48.5057 31.1ZM48.5157 30.02C48.6224 30.02 48.7057 29.9933 48.7657 29.94C48.8257 29.88 48.8657 29.8 48.8857 29.7C48.9124 29.5933 48.9257 29.4667 48.9257 29.32V26.9C48.9257 26.7533 48.9124 26.63 48.8857 26.53C48.8657 26.4233 48.8257 26.3433 48.7657 26.29C48.7057 26.23 48.6224 26.2 48.5157 26.2C48.409 26.2 48.3257 26.23 48.2657 26.29C48.2057 26.3433 48.1624 26.4233 48.1357 26.53C48.109 26.63 48.0957 26.7533 48.0957 26.9V29.32C48.0957 29.4667 48.109 29.5933 48.1357 29.7C48.1624 29.8 48.2057 29.88 48.2657 29.94C48.3257 29.9933 48.409 30.02 48.5157 30.02ZM54.5483 31L53.6983 25.22H55.0583L55.4783 28.5L55.9283 25.22H57.1083L57.4983 28.58L57.9883 25.22H59.2483L58.3883 31H56.9883L56.4883 27.75L55.9283 31H54.5483ZM59.9751 31V25.22H61.6051V31H59.9751ZM59.9651 24.24V23.11H61.6051V24.24H59.9651ZM62.6816 31V22.9H64.3016V31H62.6816ZM65.4257 31V22.9H67.0457V31H65.4257ZM71.9084 31.1C71.4818 31.1 71.1518 30.95 70.9184 30.65C70.6851 30.35 70.5684 29.9067 70.5684 29.32V26.93C70.5684 26.57 70.6184 26.2567 70.7184 25.99C70.8184 25.7167 70.9684 25.5033 71.1684 25.35C71.3684 25.1967 71.6151 25.12 71.9084 25.12C72.1218 25.12 72.3251 25.1633 72.5184 25.25C72.7118 25.33 72.8884 25.44 73.0484 25.58V22.9H74.6784V31H73.0484V30.55C72.8684 30.7233 72.6818 30.86 72.4884 30.96C72.2951 31.0533 72.1018 31.1 71.9084 31.1ZM72.6184 30.06C72.6718 30.06 72.7351 30.0467 72.8084 30.02C72.8884 29.9933 72.9684 29.9567 73.0484 29.91V26.26C72.9818 26.2267 72.9118 26.1967 72.8384 26.17C72.7651 26.1433 72.6951 26.13 72.6284 26.13C72.4818 26.13 72.3751 26.1933 72.3084 26.32C72.2418 26.44 72.2084 26.5867 72.2084 26.76V29.42C72.2084 29.54 72.2218 29.65 72.2484 29.75C72.2751 29.8433 72.3184 29.92 72.3784 29.98C72.4384 30.0333 72.5184 30.06 72.6184 30.06ZM77.5777 31.1C77.1577 31.1 76.7977 31.0267 76.4977 30.88C76.1977 30.7267 75.9677 30.5067 75.8077 30.22C75.6477 29.9267 75.5677 29.5767 75.5677 29.17V27.05C75.5677 26.6367 75.6477 26.2867 75.8077 26C75.9677 25.7133 76.1977 25.4967 76.4977 25.35C76.8044 25.1967 77.1644 25.12 77.5777 25.12C78.0044 25.12 78.3577 25.1933 78.6377 25.34C78.9244 25.4867 79.1377 25.7033 79.2777 25.99C79.4244 26.2767 79.4977 26.63 79.4977 27.05V28.21H77.1777V29.32C77.1777 29.4667 77.1944 29.5867 77.2277 29.68C77.2611 29.7733 77.3077 29.84 77.3677 29.88C77.4277 29.92 77.4977 29.94 77.5777 29.94C77.6577 29.94 77.7277 29.9233 77.7877 29.89C77.8544 29.85 77.9044 29.79 77.9377 29.71C77.9777 29.63 77.9977 29.52 77.9977 29.38V28.77H79.4977V29.33C79.4977 29.9167 79.3277 30.36 78.9877 30.66C78.6477 30.9533 78.1777 31.1 77.5777 31.1ZM77.1777 27.45H77.9977V26.87C77.9977 26.7167 77.9777 26.5967 77.9377 26.51C77.9044 26.4233 77.8544 26.3633 77.7877 26.33C77.7277 26.2967 77.6544 26.28 77.5677 26.28C77.4877 26.28 77.4177 26.3 77.3577 26.34C77.3044 26.38 77.2611 26.45 77.2277 26.55C77.1944 26.6433 77.1777 26.78 77.1777 26.96V27.45ZM80.595 31V26.32H80.045V25.22H80.595V24.79C80.595 24.45 80.6283 24.1533 80.695 23.9C80.7683 23.6467 80.915 23.45 81.135 23.31C81.3617 23.17 81.7083 23.1 82.175 23.1C82.3017 23.1 82.425 23.1033 82.545 23.11C82.6717 23.1167 82.8083 23.13 82.955 23.15V24.36C82.9083 24.3467 82.8517 24.3367 82.785 24.33C82.725 24.3167 82.665 24.31 82.605 24.31C82.485 24.31 82.3917 24.3467 82.325 24.42C82.2583 24.4867 82.225 24.6 82.225 24.76V25.22H82.955V26.32H82.225V31H80.595ZM85.4781 31.1C85.0581 31.1 84.6981 31.0267 84.3981 30.88C84.0981 30.7267 83.8681 30.5067 83.7081 30.22C83.5481 29.9267 83.4681 29.5767 83.4681 29.17V27.05C83.4681 26.6367 83.5481 26.2867 83.7081 26C83.8681 25.7133 84.0981 25.4967 84.3981 25.35C84.7048 25.1967 85.0648 25.12 85.4781 25.12C85.9048 25.12 86.2581 25.1933 86.5381 25.34C86.8248 25.4867 87.0381 25.7033 87.1781 25.99C87.3248 26.2767 87.3981 26.63 87.3981 27.05V28.21H85.0781V29.32C85.0781 29.4667 85.0948 29.5867 85.1281 29.68C85.1615 29.7733 85.2081 29.84 85.2681 29.88C85.3281 29.92 85.3981 29.94 85.4781 29.94C85.5581 29.94 85.6281 29.9233 85.6881 29.89C85.7548 29.85 85.8048 29.79 85.8381 29.71C85.8781 29.63 85.8981 29.52 85.8981 29.38V28.77H87.3981V29.33C87.3981 29.9167 87.2281 30.36 86.8881 30.66C86.5481 30.9533 86.0781 31.1 85.4781 31.1ZM85.0781 27.45H85.8981V26.87C85.8981 26.7167 85.8781 26.5967 85.8381 26.51C85.8048 26.4233 85.7548 26.3633 85.6881 26.33C85.6281 26.2967 85.5548 26.28 85.4681 26.28C85.3881 26.28 85.3181 26.3 85.2581 26.34C85.2048 26.38 85.1615 26.45 85.1281 26.55C85.0948 26.6433 85.0781 26.78 85.0781 26.96V27.45ZM89.4754 31.1C89.1821 31.1 88.9354 31.03 88.7354 30.89C88.5354 30.75 88.3854 30.5733 88.2854 30.36C88.1854 30.14 88.1354 29.9167 88.1354 29.69C88.1354 29.33 88.2054 29.0267 88.3454 28.78C88.4921 28.5333 88.6821 28.3267 88.9154 28.16C89.1487 27.9933 89.4054 27.8533 89.6854 27.74C89.9654 27.62 90.2421 27.5133 90.5154 27.42V26.84C90.5154 26.74 90.5054 26.6533 90.4854 26.58C90.4654 26.5 90.4321 26.44 90.3854 26.4C90.3387 26.3533 90.2687 26.33 90.1754 26.33C90.0821 26.33 90.0087 26.35 89.9554 26.39C89.9087 26.43 89.8754 26.4867 89.8554 26.56C89.8354 26.6267 89.8221 26.7033 89.8154 26.79L89.7754 27.21L88.2554 27.15C88.2887 26.4567 88.4721 25.9467 88.8054 25.62C89.1454 25.2867 89.6521 25.12 90.3254 25.12C90.9121 25.12 91.3487 25.2833 91.6354 25.61C91.9287 25.93 92.0754 26.3467 92.0754 26.86V29.56C92.0754 29.8 92.0787 30.01 92.0854 30.19C92.0987 30.37 92.1121 30.5267 92.1254 30.66C92.1454 30.7933 92.1621 30.9067 92.1754 31H90.7154C90.6954 30.8467 90.6721 30.68 90.6454 30.5C90.6187 30.32 90.5987 30.2133 90.5854 30.18C90.5187 30.42 90.3921 30.6333 90.2054 30.82C90.0254 31.0067 89.7821 31.1 89.4754 31.1ZM90.0554 30C90.1221 30 90.1821 29.9867 90.2354 29.96C90.2954 29.9333 90.3487 29.8967 90.3954 29.85C90.4421 29.8033 90.4821 29.7567 90.5154 29.71V28.13C90.3821 28.21 90.2587 28.2933 90.1454 28.38C90.0321 28.46 89.9354 28.55 89.8554 28.65C89.7754 28.75 89.7121 28.86 89.6654 28.98C89.6254 29.0933 89.6054 29.2233 89.6054 29.37C89.6054 29.5633 89.6454 29.7167 89.7254 29.83C89.8054 29.9433 89.9154 30 90.0554 30ZM94.8117 31.06C94.3784 31.06 94.0417 30.9967 93.8017 30.87C93.5684 30.7433 93.4084 30.56 93.3217 30.32C93.2351 30.0733 93.1917 29.7767 93.1917 29.43V26.29H92.6317V25.22H93.1917V23.46H94.8417V25.22H95.6617V26.29H94.8417V29.27C94.8417 29.4367 94.8884 29.5567 94.9817 29.63C95.0817 29.7033 95.2051 29.74 95.3517 29.74C95.4384 29.74 95.5184 29.7367 95.5917 29.73C95.6651 29.7167 95.7317 29.7067 95.7917 29.7V30.98C95.7051 30.9933 95.5684 31.01 95.3817 31.03C95.1951 31.05 95.0051 31.06 94.8117 31.06ZM100.905 31.06C100.472 31.06 100.135 30.9967 99.8955 30.87C99.6621 30.7433 99.5021 30.56 99.4155 30.32C99.3288 30.0733 99.2855 29.7767 99.2855 29.43V26.29H98.7255V25.22H99.2855V23.46H100.935V25.22H101.755V26.29H100.935V29.27C100.935 29.4367 100.982 29.5567 101.075 29.63C101.175 29.7033 101.299 29.74 101.445 29.74C101.532 29.74 101.612 29.7367 101.685 29.73C101.759 29.7167 101.825 29.7067 101.885 29.7V30.98C101.799 30.9933 101.662 31.01 101.475 31.03C101.289 31.05 101.099 31.06 100.905 31.06ZM102.661 31V22.9H104.281V25.73C104.494 25.5167 104.717 25.3633 104.951 25.27C105.184 25.17 105.434 25.12 105.701 25.12C105.934 25.12 106.127 25.18 106.281 25.3C106.441 25.4133 106.561 25.5733 106.641 25.78C106.721 25.98 106.761 26.21 106.761 26.47V31H105.141V26.7C105.141 26.56 105.117 26.4533 105.071 26.38C105.024 26.3067 104.937 26.27 104.811 26.27C104.744 26.27 104.664 26.29 104.571 26.33C104.477 26.3633 104.381 26.4133 104.281 26.48V31H102.661ZM109.629 31.1C109.209 31.1 108.849 31.0267 108.549 30.88C108.249 30.7267 108.019 30.5067 107.859 30.22C107.699 29.9267 107.619 29.5767 107.619 29.17V27.05C107.619 26.6367 107.699 26.2867 107.859 26C108.019 25.7133 108.249 25.4967 108.549 25.35C108.855 25.1967 109.215 25.12 109.629 25.12C110.055 25.12 110.409 25.1933 110.689 25.34C110.975 25.4867 111.189 25.7033 111.329 25.99C111.475 26.2767 111.549 26.63 111.549 27.05V28.21H109.229V29.32C109.229 29.4667 109.245 29.5867 109.279 29.68C109.312 29.7733 109.359 29.84 109.419 29.88C109.479 29.92 109.549 29.94 109.629 29.94C109.709 29.94 109.779 29.9233 109.839 29.89C109.905 29.85 109.955 29.79 109.989 29.71C110.029 29.63 110.049 29.52 110.049 29.38V28.77H111.549V29.33C111.549 29.9167 111.379 30.36 111.039 30.66C110.699 30.9533 110.229 31.1 109.629 31.1ZM109.229 27.45H110.049V26.87C110.049 26.7167 110.029 26.5967 109.989 26.51C109.955 26.4233 109.905 26.3633 109.839 26.33C109.779 26.2967 109.705 26.28 109.619 26.28C109.539 26.28 109.469 26.3 109.409 26.34C109.355 26.38 109.312 26.45 109.279 26.55C109.245 26.6433 109.229 26.78 109.229 26.96V27.45ZM112.446 31V25.22H114.076V31H112.446ZM112.436 24.24V23.11H114.076V24.24H112.436ZM115.102 31V25.22H116.732V26.18C116.919 25.8467 117.106 25.5933 117.292 25.42C117.479 25.24 117.706 25.15 117.972 25.15C118.026 25.15 118.072 25.1533 118.112 25.16C118.152 25.16 118.189 25.1667 118.222 25.18V26.8C118.149 26.7667 118.066 26.74 117.972 26.72C117.886 26.6933 117.792 26.68 117.692 26.68C117.506 26.68 117.332 26.73 117.172 26.83C117.012 26.93 116.866 27.0667 116.732 27.24V31H115.102ZM40.0487 46.1C39.6353 46.1 39.2753 46.03 38.9687 45.89C38.6687 45.75 38.4353 45.54 38.2687 45.26C38.1087 44.98 38.0287 44.63 38.0287 44.21V42.01C38.0287 41.59 38.1087 41.24 38.2687 40.96C38.4353 40.68 38.6687 40.47 38.9687 40.33C39.2753 40.19 39.6353 40.12 40.0487 40.12C40.462 40.12 40.8187 40.19 41.1187 40.33C41.4253 40.47 41.662 40.68 41.8287 40.96C41.9953 41.24 42.0787 41.59 42.0787 42.01V44.21C42.0787 44.63 41.9953 44.98 41.8287 45.26C41.662 45.54 41.4253 45.75 41.1187 45.89C40.8187 46.03 40.462 46.1 40.0487 46.1ZM40.0587 45.02C40.1653 45.02 40.2487 44.9933 40.3087 44.94C40.3687 44.88 40.4087 44.8 40.4287 44.7C40.4553 44.5933 40.4687 44.4667 40.4687 44.32V41.9C40.4687 41.7533 40.4553 41.63 40.4287 41.53C40.4087 41.4233 40.3687 41.3433 40.3087 41.29C40.2487 41.23 40.1653 41.2 40.0587 41.2C39.952 41.2 39.8687 41.23 39.8087 41.29C39.7487 41.3433 39.7053 41.4233 39.6787 41.53C39.652 41.63 39.6387 41.7533 39.6387 41.9V44.32C39.6387 44.4667 39.652 44.5933 39.6787 44.7C39.7053 44.8 39.7487 44.88 39.8087 44.94C39.8687 44.9933 39.952 45.02 40.0587 45.02ZM42.9827 47.9V40.22H44.6127V40.64C44.806 40.4667 45.0127 40.3367 45.2327 40.25C45.4527 40.1633 45.6627 40.12 45.8627 40.12C46.0827 40.12 46.2693 40.1633 46.4227 40.25C46.5827 40.3367 46.7127 40.46 46.8127 40.62C46.9127 40.7733 46.986 40.9533 47.0327 41.16C47.0793 41.3667 47.1027 41.5867 47.1027 41.82V44.31C47.1027 44.67 47.0527 44.9833 46.9527 45.25C46.8593 45.5167 46.7193 45.7267 46.5327 45.88C46.346 46.0267 46.116 46.1 45.8427 46.1C45.636 46.1 45.426 46.0533 45.2127 45.96C45.006 45.86 44.806 45.7267 44.6127 45.56V47.9H42.9827ZM45.0427 45.05C45.1493 45.05 45.2327 45.02 45.2927 44.96C45.3527 44.9 45.396 44.8233 45.4227 44.73C45.456 44.63 45.4727 44.52 45.4727 44.4V41.7C45.4727 41.5867 45.4593 41.4867 45.4327 41.4C45.406 41.3067 45.3627 41.2333 45.3027 41.18C45.2427 41.1267 45.166 41.1 45.0727 41.1C44.986 41.1 44.9027 41.12 44.8227 41.16C44.7493 41.1933 44.6793 41.24 44.6127 41.3V44.9C44.686 44.9467 44.756 44.9833 44.8227 45.01C44.896 45.0367 44.9693 45.05 45.0427 45.05ZM48.0315 47.9V40.22H49.6615V40.64C49.8548 40.4667 50.0615 40.3367 50.2815 40.25C50.5015 40.1633 50.7115 40.12 50.9115 40.12C51.1315 40.12 51.3182 40.1633 51.4715 40.25C51.6315 40.3367 51.7615 40.46 51.8615 40.62C51.9615 40.7733 52.0348 40.9533 52.0815 41.16C52.1282 41.3667 52.1515 41.5867 52.1515 41.82V44.31C52.1515 44.67 52.1015 44.9833 52.0015 45.25C51.9082 45.5167 51.7682 45.7267 51.5815 45.88C51.3948 46.0267 51.1648 46.1 50.8915 46.1C50.6848 46.1 50.4748 46.0533 50.2615 45.96C50.0548 45.86 49.8548 45.7267 49.6615 45.56V47.9H48.0315ZM50.0915 45.05C50.1982 45.05 50.2815 45.02 50.3415 44.96C50.4015 44.9 50.4448 44.8233 50.4715 44.73C50.5048 44.63 50.5215 44.52 50.5215 44.4V41.7C50.5215 41.5867 50.5082 41.4867 50.4815 41.4C50.4548 41.3067 50.4115 41.2333 50.3515 41.18C50.2915 41.1267 50.2148 41.1 50.1215 41.1C50.0348 41.1 49.9515 41.12 49.8715 41.16C49.7982 41.1933 49.7282 41.24 49.6615 41.3V44.9C49.7348 44.9467 49.8048 44.9833 49.8715 45.01C49.9448 45.0367 50.0182 45.05 50.0915 45.05ZM54.9803 46.1C54.567 46.1 54.207 46.03 53.9003 45.89C53.6003 45.75 53.367 45.54 53.2003 45.26C53.0403 44.98 52.9603 44.63 52.9603 44.21V42.01C52.9603 41.59 53.0403 41.24 53.2003 40.96C53.367 40.68 53.6003 40.47 53.9003 40.33C54.207 40.19 54.567 40.12 54.9803 40.12C55.3936 40.12 55.7503 40.19 56.0503 40.33C56.357 40.47 56.5936 40.68 56.7603 40.96C56.927 41.24 57.0103 41.59 57.0103 42.01V44.21C57.0103 44.63 56.927 44.98 56.7603 45.26C56.5936 45.54 56.357 45.75 56.0503 45.89C55.7503 46.03 55.3936 46.1 54.9803 46.1ZM54.9903 45.02C55.097 45.02 55.1803 44.9933 55.2403 44.94C55.3003 44.88 55.3403 44.8 55.3603 44.7C55.387 44.5933 55.4003 44.4667 55.4003 44.32V41.9C55.4003 41.7533 55.387 41.63 55.3603 41.53C55.3403 41.4233 55.3003 41.3433 55.2403 41.29C55.1803 41.23 55.097 41.2 54.9903 41.2C54.8836 41.2 54.8003 41.23 54.7403 41.29C54.6803 41.3433 54.637 41.4233 54.6103 41.53C54.5836 41.63 54.5703 41.7533 54.5703 41.9V44.32C54.5703 44.4667 54.5836 44.5933 54.6103 44.7C54.637 44.8 54.6803 44.88 54.7403 44.94C54.8003 44.9933 54.8836 45.02 54.9903 45.02ZM57.9143 46V40.22H59.5443V40.8C59.7576 40.5867 59.9776 40.42 60.2043 40.3C60.4376 40.18 60.681 40.12 60.9343 40.12C61.1743 40.12 61.371 40.18 61.5243 40.3C61.6843 40.4133 61.8043 40.5733 61.8843 40.78C61.9643 40.98 62.0043 41.21 62.0043 41.47V46H60.3843V41.7C60.3843 41.56 60.361 41.4533 60.3143 41.38C60.2676 41.3067 60.181 41.27 60.0543 41.27C59.9876 41.27 59.9076 41.29 59.8143 41.33C59.7276 41.3633 59.6376 41.4133 59.5443 41.48V46H57.9143ZM64.8727 46.1C64.4527 46.1 64.0927 46.0267 63.7927 45.88C63.4927 45.7267 63.2627 45.5067 63.1027 45.22C62.9427 44.9267 62.8627 44.5767 62.8627 44.17V42.05C62.8627 41.6367 62.9427 41.2867 63.1027 41C63.2627 40.7133 63.4927 40.4967 63.7927 40.35C64.0993 40.1967 64.4593 40.12 64.8727 40.12C65.2993 40.12 65.6527 40.1933 65.9327 40.34C66.2193 40.4867 66.4327 40.7033 66.5727 40.99C66.7193 41.2767 66.7927 41.63 66.7927 42.05V43.21H64.4727V44.32C64.4727 44.4667 64.4893 44.5867 64.5227 44.68C64.556 44.7733 64.6027 44.84 64.6627 44.88C64.7227 44.92 64.7927 44.94 64.8727 44.94C64.9527 44.94 65.0227 44.9233 65.0827 44.89C65.1493 44.85 65.1993 44.79 65.2327 44.71C65.2727 44.63 65.2927 44.52 65.2927 44.38V43.77H66.7927V44.33C66.7927 44.9167 66.6227 45.36 66.2827 45.66C65.9427 45.9533 65.4727 46.1 64.8727 46.1ZM64.4727 42.45H65.2927V41.87C65.2927 41.7167 65.2727 41.5967 65.2327 41.51C65.1993 41.4233 65.1493 41.3633 65.0827 41.33C65.0227 41.2967 64.9493 41.28 64.8627 41.28C64.7827 41.28 64.7127 41.3 64.6527 41.34C64.5993 41.38 64.556 41.45 64.5227 41.55C64.4893 41.6433 64.4727 41.78 64.4727 41.96V42.45ZM67.6799 46V40.22H69.3099V40.8C69.5233 40.5867 69.7433 40.42 69.9699 40.3C70.2033 40.18 70.4466 40.12 70.6999 40.12C70.9399 40.12 71.1366 40.18 71.2899 40.3C71.4499 40.4133 71.5699 40.5733 71.6499 40.78C71.7299 40.98 71.7699 41.21 71.7699 41.47V46H70.1499V41.7C70.1499 41.56 70.1266 41.4533 70.0799 41.38C70.0333 41.3067 69.9466 41.27 69.8199 41.27C69.7533 41.27 69.6733 41.29 69.5799 41.33C69.4933 41.3633 69.4033 41.4133 69.3099 41.48V46H67.6799ZM74.5383 46.06C74.1049 46.06 73.7683 45.9967 73.5283 45.87C73.2949 45.7433 73.1349 45.56 73.0483 45.32C72.9616 45.0733 72.9183 44.7767 72.9183 44.43V41.29H72.3583V40.22H72.9183V38.46H74.5683V40.22H75.3883V41.29H74.5683V44.27C74.5683 44.4367 74.6149 44.5567 74.7083 44.63C74.8083 44.7033 74.9316 44.74 75.0783 44.74C75.1649 44.74 75.2449 44.7367 75.3183 44.73C75.3916 44.7167 75.4583 44.7067 75.5183 44.7V45.98C75.4316 45.9933 75.2949 46.01 75.1083 46.03C74.9216 46.05 74.7316 46.06 74.5383 46.06ZM78.0634 46.1C77.5568 46.1 77.1334 45.9867 76.7934 45.76C76.4601 45.5333 76.1868 45.1633 75.9734 44.65L77.0834 44.16C77.1901 44.42 77.3134 44.6267 77.4534 44.78C77.6001 44.9267 77.7601 45 77.9334 45C78.0601 45 78.1534 44.9733 78.2134 44.92C78.2801 44.8667 78.3134 44.7933 78.3134 44.7C78.3134 44.5467 78.2534 44.4067 78.1334 44.28C78.0201 44.1533 77.8134 43.9667 77.5134 43.72L77.0934 43.37C76.7868 43.11 76.5434 42.86 76.3634 42.62C76.1901 42.3733 76.1034 42.07 76.1034 41.71C76.1034 41.3967 76.1834 41.12 76.3434 40.88C76.5101 40.64 76.7301 40.4533 77.0034 40.32C77.2768 40.1867 77.5701 40.12 77.8834 40.12C78.3568 40.12 78.7534 40.25 79.0734 40.51C79.3934 40.77 79.6168 41.1367 79.7434 41.61L78.6934 42.09C78.6534 41.9633 78.5968 41.8367 78.5234 41.71C78.4501 41.5833 78.3601 41.4767 78.2534 41.39C78.1534 41.3033 78.0434 41.26 77.9234 41.26C77.8168 41.26 77.7301 41.29 77.6634 41.35C77.6034 41.41 77.5734 41.49 77.5734 41.59C77.5734 41.7167 77.6434 41.8533 77.7834 42C77.9301 42.1467 78.1301 42.3233 78.3834 42.53L78.7934 42.89C78.9601 43.03 79.1234 43.18 79.2834 43.34C79.4434 43.5 79.5734 43.6767 79.6734 43.87C79.7801 44.0633 79.8334 44.2833 79.8334 44.53C79.8334 44.8633 79.7501 45.15 79.5834 45.39C79.4168 45.6233 79.1968 45.8 78.9234 45.92C78.6568 46.04 78.3701 46.1 78.0634 46.1ZM85.1203 46.15C84.527 46.15 84.077 46.0467 83.7703 45.84C83.4703 45.6267 83.267 45.33 83.1603 44.95C83.0536 44.57 83.0003 44.13 83.0003 43.63H84.6103C84.6103 43.9367 84.627 44.1867 84.6603 44.38C84.6936 44.5733 84.7536 44.7133 84.8403 44.8C84.9336 44.88 85.0636 44.9167 85.2303 44.91C85.4036 44.9033 85.527 44.8333 85.6003 44.7C85.6736 44.5667 85.717 44.3767 85.7303 44.13C85.7503 43.8767 85.7603 43.5733 85.7603 43.22C85.7603 42.9533 85.7436 42.7167 85.7103 42.51C85.6836 42.3033 85.6236 42.14 85.5303 42.02C85.4436 41.8933 85.3103 41.83 85.1303 41.83C84.9636 41.83 84.827 41.89 84.7203 42.01C84.6136 42.13 84.537 42.3167 84.4903 42.57H83.0503L83.2003 37.9H86.9803V39.3H84.5403L84.4503 40.97C84.517 40.8767 84.6436 40.7967 84.8303 40.73C85.017 40.6567 85.217 40.61 85.4303 40.59C85.8436 40.5433 86.1903 40.62 86.4703 40.82C86.757 41.0133 86.9703 41.31 87.1103 41.71C87.257 42.11 87.3303 42.6 87.3303 43.18C87.3303 43.6133 87.3036 44.0133 87.2503 44.38C87.197 44.74 87.0936 45.0533 86.9403 45.32C86.787 45.58 86.5636 45.7833 86.2703 45.93C85.977 46.0767 85.5936 46.15 85.1203 46.15ZM90.4082 46.15C89.9215 46.15 89.5149 46.0533 89.1882 45.86C88.8615 45.66 88.6149 45.3867 88.4482 45.04C88.2815 44.6933 88.1982 44.29 88.1982 43.83V40.16C88.1982 39.6867 88.2749 39.2733 88.4282 38.92C88.5882 38.56 88.8315 38.28 89.1582 38.08C89.4849 37.88 89.9015 37.78 90.4082 37.78C90.9149 37.78 91.3282 37.88 91.6482 38.08C91.9749 38.28 92.2149 38.56 92.3682 38.92C92.5282 39.2733 92.6082 39.6867 92.6082 40.16V43.83C92.6082 44.2833 92.5249 44.6867 92.3582 45.04C92.1915 45.3867 91.9449 45.66 91.6182 45.86C91.2915 46.0533 90.8882 46.15 90.4082 46.15ZM90.4082 44.66C90.5682 44.66 90.6815 44.61 90.7482 44.51C90.8215 44.4033 90.8649 44.2833 90.8782 44.15C90.8982 44.01 90.9082 43.89 90.9082 43.79V40.2C90.9082 40.0867 90.9015 39.96 90.8882 39.82C90.8749 39.6733 90.8315 39.5467 90.7582 39.44C90.6915 39.3267 90.5749 39.27 90.4082 39.27C90.2415 39.27 90.1215 39.3267 90.0482 39.44C89.9815 39.5467 89.9415 39.6733 89.9282 39.82C89.9149 39.96 89.9082 40.0867 89.9082 40.2V43.79C89.9082 43.89 89.9182 44.01 89.9382 44.15C89.9582 44.2833 90.0015 44.4033 90.0682 44.51C90.1415 44.61 90.2549 44.66 90.4082 44.66ZM98.0148 46.06C97.5815 46.06 97.2448 45.9967 97.0048 45.87C96.7715 45.7433 96.6115 45.56 96.5248 45.32C96.4382 45.0733 96.3948 44.7767 96.3948 44.43V41.29H95.8348V40.22H96.3948V38.46H98.0448V40.22H98.8648V41.29H98.0448V44.27C98.0448 44.4367 98.0915 44.5567 98.1848 44.63C98.2848 44.7033 98.4082 44.74 98.5548 44.74C98.6415 44.74 98.7215 44.7367 98.7948 44.73C98.8682 44.7167 98.9348 44.7067 98.9948 44.7V45.98C98.9082 45.9933 98.7715 46.01 98.5848 46.03C98.3982 46.05 98.2082 46.06 98.0148 46.06ZM99.77 46V40.22H101.4V46H99.77ZM99.76 39.24V38.11H101.4V39.24H99.76ZM102.406 46V40.22H104.006V40.68C104.22 40.4733 104.44 40.3267 104.666 40.24C104.9 40.1533 105.136 40.11 105.376 40.11C105.61 40.11 105.81 40.17 105.976 40.29C106.15 40.4033 106.28 40.5733 106.366 40.8C106.593 40.5467 106.83 40.37 107.076 40.27C107.33 40.1633 107.583 40.11 107.836 40.11C108.063 40.11 108.26 40.1667 108.426 40.28C108.593 40.3867 108.723 40.5467 108.816 40.76C108.91 40.9667 108.956 41.2167 108.956 41.51V46H107.356V41.68C107.356 41.52 107.326 41.4067 107.266 41.34C107.213 41.2667 107.13 41.23 107.016 41.23C106.95 41.23 106.866 41.25 106.766 41.29C106.666 41.3233 106.57 41.3733 106.476 41.44C106.476 41.4533 106.476 41.4667 106.476 41.48C106.476 41.4867 106.476 41.4967 106.476 41.51V46H104.896V41.68C104.896 41.52 104.866 41.4067 104.806 41.34C104.746 41.2667 104.66 41.23 104.546 41.23C104.473 41.23 104.386 41.25 104.286 41.29C104.193 41.3233 104.1 41.3733 104.006 41.44V46H102.406ZM111.826 46.1C111.406 46.1 111.046 46.0267 110.746 45.88C110.446 45.7267 110.216 45.5067 110.056 45.22C109.896 44.9267 109.816 44.5767 109.816 44.17V42.05C109.816 41.6367 109.896 41.2867 110.056 41C110.216 40.7133 110.446 40.4967 110.746 40.35C111.052 40.1967 111.412 40.12 111.826 40.12C112.252 40.12 112.606 40.1933 112.886 40.34C113.172 40.4867 113.386 40.7033 113.526 40.99C113.672 41.2767 113.746 41.63 113.746 42.05V43.21H111.426V44.32C111.426 44.4667 111.442 44.5867 111.476 44.68C111.509 44.7733 111.556 44.84 111.616 44.88C111.676 44.92 111.746 44.94 111.826 44.94C111.906 44.94 111.976 44.9233 112.036 44.89C112.102 44.85 112.152 44.79 112.186 44.71C112.226 44.63 112.246 44.52 112.246 44.38V43.77H113.746V44.33C113.746 44.9167 113.576 45.36 113.236 45.66C112.896 45.9533 112.426 46.1 111.826 46.1ZM111.426 42.45H112.246V41.87C112.246 41.7167 112.226 41.5967 112.186 41.51C112.152 41.4233 112.102 41.3633 112.036 41.33C111.976 41.2967 111.902 41.28 111.816 41.28C111.736 41.28 111.666 41.3 111.606 41.34C111.552 41.38 111.509 41.45 111.476 41.55C111.442 41.6433 111.426 41.78 111.426 41.96V42.45ZM116.413 46.1C115.906 46.1 115.483 45.9867 115.143 45.76C114.81 45.5333 114.536 45.1633 114.323 44.65L115.433 44.16C115.54 44.42 115.663 44.6267 115.803 44.78C115.95 44.9267 116.11 45 116.283 45C116.41 45 116.503 44.9733 116.563 44.92C116.63 44.8667 116.663 44.7933 116.663 44.7C116.663 44.5467 116.603 44.4067 116.483 44.28C116.37 44.1533 116.163 43.9667 115.863 43.72L115.443 43.37C115.136 43.11 114.893 42.86 114.713 42.62C114.54 42.3733 114.453 42.07 114.453 41.71C114.453 41.3967 114.533 41.12 114.693 40.88C114.86 40.64 115.08 40.4533 115.353 40.32C115.626 40.1867 115.92 40.12 116.233 40.12C116.706 40.12 117.103 40.25 117.423 40.51C117.743 40.77 117.966 41.1367 118.093 41.61L117.043 42.09C117.003 41.9633 116.946 41.8367 116.873 41.71C116.8 41.5833 116.71 41.4767 116.603 41.39C116.503 41.3033 116.393 41.26 116.273 41.26C116.166 41.26 116.08 41.29 116.013 41.35C115.953 41.41 115.923 41.49 115.923 41.59C115.923 41.7167 115.993 41.8533 116.133 42C116.28 42.1467 116.48 42.3233 116.733 42.53L117.143 42.89C117.31 43.03 117.473 43.18 117.633 43.34C117.793 43.5 117.923 43.6767 118.023 43.87C118.13 44.0633 118.183 44.2833 118.183 44.53C118.183 44.8633 118.1 45.15 117.933 45.39C117.766 45.6233 117.546 45.8 117.273 45.92C117.006 46.04 116.72 46.1 116.413 46.1Z"></path>
</svg>
