<svg xmlns="http://www.w3.org/2000/svg" fill="none" viewBox="0 0 156 56" height="56" width="156">
<rect stroke="white" fill="#0D0E12" height="55" width="155" y="0.5" x="0.5"></rect>
<path fill="white" d="M43.7834 23V17.22H45.8334C46.4134 17.22 46.8501 17.2833 47.1434 17.41C47.4368 17.53 47.6334 17.6967 47.7334 17.91C47.8334 18.1233 47.8834 18.3733 47.8834 18.66C47.8834 19.04 47.8001 19.32 47.6334 19.5C47.4734 19.6733 47.2601 19.7967 46.9934 19.87C47.2734 19.9367 47.4868 20.0367 47.6334 20.17C47.7801 20.3033 47.8801 20.4667 47.9334 20.66C47.9934 20.8533 48.0234 21.0767 48.0234 21.33C48.0234 21.7033 47.9534 22.0167 47.8134 22.27C47.6734 22.5167 47.4368 22.7 47.1034 22.82C46.7701 22.94 46.3168 23 45.7434 23H43.7834ZM45.4034 22.1H45.6734C45.8201 22.1 45.9501 22.0867 46.0634 22.06C46.1768 22.0333 46.2668 21.9633 46.3334 21.85C46.4068 21.73 46.4434 21.54 46.4434 21.28C46.4434 20.9867 46.4101 20.7767 46.3434 20.65C46.2834 20.5233 46.1968 20.4467 46.0834 20.42C45.9701 20.3933 45.8368 20.38 45.6834 20.38H45.4034V22.1ZM45.4034 19.5H45.8134C46.0068 19.5 46.1401 19.44 46.2134 19.32C46.2868 19.1933 46.3234 19.02 46.3234 18.8C46.3234 18.5867 46.2834 18.41 46.2034 18.27C46.1301 18.13 45.9601 18.06 45.6934 18.06H45.4034V19.5ZM48.8323 24.9V17.22H50.4623V17.64C50.6556 17.4667 50.8623 17.3367 51.0823 17.25C51.3023 17.1633 51.5123 17.12 51.7123 17.12C51.9323 17.12 52.1189 17.1633 52.2723 17.25C52.4323 17.3367 52.5623 17.46 52.6623 17.62C52.7623 17.7733 52.8356 17.9533 52.8823 18.16C52.9289 18.3667 52.9523 18.5867 52.9523 18.82V21.31C52.9523 21.67 52.9023 21.9833 52.8023 22.25C52.7089 22.5167 52.5689 22.7267 52.3823 22.88C52.1956 23.0267 51.9656 23.1 51.6923 23.1C51.4856 23.1 51.2756 23.0533 51.0623 22.96C50.8556 22.86 50.6556 22.7267 50.4623 22.56V24.9H48.8323ZM50.8923 22.05C50.9989 22.05 51.0823 22.02 51.1423 21.96C51.2023 21.9 51.2456 21.8233 51.2723 21.73C51.3056 21.63 51.3223 21.52 51.3223 21.4V18.7C51.3223 18.5867 51.3089 18.4867 51.2823 18.4C51.2556 18.3067 51.2123 18.2333 51.1523 18.18C51.0923 18.1267 51.0156 18.1 50.9223 18.1C50.8356 18.1 50.7523 18.12 50.6723 18.16C50.5989 18.1933 50.5289 18.24 50.4623 18.3V21.9C50.5356 21.9467 50.6056 21.9833 50.6723 22.01C50.7456 22.0367 50.8189 22.05 50.8923 22.05ZM54.0411 24.68V23.55C54.2478 23.55 54.4178 23.5367 54.5511 23.51C54.6911 23.4833 54.7944 23.4333 54.8611 23.36C54.9344 23.2867 54.9711 23.1867 54.9711 23.06C54.9711 22.9467 54.9511 22.81 54.9111 22.65C54.8711 22.4833 54.8211 22.2967 54.7611 22.09L53.4011 17.22H54.9311L55.6611 20.56L56.2111 17.22H57.7511L56.4211 23.14C56.3344 23.54 56.1978 23.85 56.0111 24.07C55.8244 24.2967 55.5944 24.4533 55.3211 24.54C55.0544 24.6333 54.7511 24.68 54.4111 24.68H54.0411ZM60.6735 23V20.67C60.5868 20.6767 60.4968 20.6833 60.4035 20.69C60.3168 20.6967 60.2302 20.7 60.1435 20.7C59.6502 20.7 59.2635 20.6433 58.9835 20.53C58.7102 20.41 58.5168 20.2433 58.4035 20.03C58.2968 19.81 58.2435 19.55 58.2435 19.25V17.22H59.8635V19.15C59.8635 19.3567 59.9035 19.51 59.9835 19.61C60.0635 19.71 60.2268 19.7667 60.4735 19.78C60.5068 19.78 60.5368 19.78 60.5635 19.78C60.5968 19.7733 60.6335 19.77 60.6735 19.77V17.22H62.3035V23H60.6735ZM64.5145 23.1C64.2211 23.1 63.9745 23.03 63.7745 22.89C63.5745 22.75 63.4245 22.5733 63.3245 22.36C63.2245 22.14 63.1745 21.9167 63.1745 21.69C63.1745 21.33 63.2445 21.0267 63.3845 20.78C63.5311 20.5333 63.7211 20.3267 63.9545 20.16C64.1878 19.9933 64.4445 19.8533 64.7245 19.74C65.0045 19.62 65.2811 19.5133 65.5545 19.42V18.84C65.5545 18.74 65.5445 18.6533 65.5245 18.58C65.5045 18.5 65.4711 18.44 65.4245 18.4C65.3778 18.3533 65.3078 18.33 65.2145 18.33C65.1211 18.33 65.0478 18.35 64.9945 18.39C64.9478 18.43 64.9145 18.4867 64.8945 18.56C64.8745 18.6267 64.8611 18.7033 64.8545 18.79L64.8145 19.21L63.2945 19.15C63.3278 18.4567 63.5111 17.9467 63.8445 17.62C64.1845 17.2867 64.6911 17.12 65.3645 17.12C65.9511 17.12 66.3878 17.2833 66.6745 17.61C66.9678 17.93 67.1145 18.3467 67.1145 18.86V21.56C67.1145 21.8 67.1178 22.01 67.1245 22.19C67.1378 22.37 67.1511 22.5267 67.1645 22.66C67.1845 22.7933 67.2011 22.9067 67.2145 23H65.7545C65.7345 22.8467 65.7111 22.68 65.6845 22.5C65.6578 22.32 65.6378 22.2133 65.6245 22.18C65.5578 22.42 65.4311 22.6333 65.2445 22.82C65.0645 23.0067 64.8211 23.1 64.5145 23.1ZM65.0945 22C65.1611 22 65.2211 21.9867 65.2745 21.96C65.3345 21.9333 65.3878 21.8967 65.4345 21.85C65.4811 21.8033 65.5211 21.7567 65.5545 21.71V20.13C65.4211 20.21 65.2978 20.2933 65.1845 20.38C65.0711 20.46 64.9745 20.55 64.8945 20.65C64.8145 20.75 64.7511 20.86 64.7045 20.98C64.6645 21.0933 64.6445 21.2233 64.6445 21.37C64.6445 21.5633 64.6845 21.7167 64.7645 21.83C64.8445 21.9433 64.9545 22 65.0945 22ZM69.9703 23.1C69.5503 23.1 69.1903 23.0267 68.8903 22.88C68.5903 22.7267 68.3603 22.5067 68.2003 22.22C68.0403 21.9267 67.9603 21.5767 67.9603 21.17V19.05C67.9603 18.6367 68.0403 18.2867 68.2003 18C68.3603 17.7133 68.5903 17.4967 68.8903 17.35C69.197 17.1967 69.557 17.12 69.9703 17.12C70.397 17.12 70.7503 17.1933 71.0303 17.34C71.317 17.4867 71.5303 17.7033 71.6703 17.99C71.817 18.2767 71.8903 18.63 71.8903 19.05V20.21H69.5703V21.32C69.5703 21.4667 69.587 21.5867 69.6203 21.68C69.6536 21.7733 69.7003 21.84 69.7603 21.88C69.8203 21.92 69.8903 21.94 69.9703 21.94C70.0503 21.94 70.1203 21.9233 70.1803 21.89C70.247 21.85 70.297 21.79 70.3303 21.71C70.3703 21.63 70.3903 21.52 70.3903 21.38V20.77H71.8903V21.33C71.8903 21.9167 71.7203 22.36 71.3803 22.66C71.0403 22.9533 70.5703 23.1 69.9703 23.1ZM69.5703 19.45H70.3903V18.87C70.3903 18.7167 70.3703 18.5967 70.3303 18.51C70.297 18.4233 70.247 18.3633 70.1803 18.33C70.1203 18.2967 70.047 18.28 69.9603 18.28C69.8803 18.28 69.8103 18.3 69.7503 18.34C69.697 18.38 69.6536 18.45 69.6203 18.55C69.587 18.6433 69.5703 18.78 69.5703 18.96V19.45ZM73.4385 23V18.32H72.3885V17.22H76.1085V18.32H75.0585V23H73.4385ZM78.6713 23.1C78.2513 23.1 77.8913 23.0233 77.5913 22.87C77.2979 22.7167 77.0713 22.4967 76.9113 22.21C76.7513 21.9233 76.6713 21.5767 76.6713 21.17V19.05C76.6713 18.6367 76.7513 18.2867 76.9113 18C77.0713 17.7133 77.2979 17.4967 77.5913 17.35C77.8913 17.1967 78.2513 17.12 78.6713 17.12C79.0846 17.12 79.4346 17.1833 79.7213 17.31C80.0146 17.4367 80.2379 17.63 80.3913 17.89C80.5446 18.1433 80.6213 18.4667 80.6213 18.86V19.47H79.0513V18.81C79.0513 18.6567 79.0346 18.54 79.0013 18.46C78.9746 18.3733 78.9313 18.3133 78.8713 18.28C78.8179 18.2467 78.7513 18.23 78.6713 18.23C78.5913 18.23 78.5246 18.2533 78.4713 18.3C78.4179 18.34 78.3779 18.41 78.3513 18.51C78.3246 18.6033 78.3113 18.7367 78.3113 18.91V21.31C78.3113 21.57 78.3413 21.7467 78.4013 21.84C78.4679 21.9333 78.5613 21.98 78.6813 21.98C78.7679 21.98 78.8379 21.9633 78.8913 21.93C78.9446 21.89 78.9846 21.83 79.0113 21.75C79.0379 21.6633 79.0513 21.55 79.0513 21.41V20.64H80.6213V21.34C80.6213 21.7267 80.5413 22.0533 80.3813 22.32C80.2279 22.58 80.0046 22.7767 79.7113 22.91C79.4246 23.0367 79.0779 23.1 78.6713 23.1ZM81.129 23L82.029 20.6C81.8757 20.5133 81.7457 20.3933 81.639 20.24C81.5323 20.0867 81.4523 19.9067 81.399 19.7C81.3457 19.4933 81.319 19.27 81.319 19.03C81.319 18.7633 81.3557 18.52 81.429 18.3C81.509 18.08 81.6323 17.89 81.799 17.73C81.9723 17.57 82.1957 17.4467 82.469 17.36C82.7423 17.2667 83.0723 17.22 83.459 17.22H85.609V23H83.989V20.94C83.9623 20.94 83.889 20.94 83.769 20.94C83.649 20.9333 83.559 20.9267 83.499 20.92L82.849 23H81.129ZM83.919 19.98C83.9323 19.98 83.9457 19.98 83.959 19.98C83.9723 19.98 83.9823 19.98 83.989 19.98V18.14C83.9823 18.14 83.9723 18.14 83.959 18.14C83.9457 18.14 83.9323 18.14 83.919 18.14C83.6723 18.14 83.4657 18.1733 83.299 18.24C83.1323 18.3067 83.0057 18.4067 82.919 18.54C82.839 18.6667 82.799 18.8267 82.799 19.02C82.799 19.3467 82.8957 19.5867 83.089 19.74C83.289 19.8933 83.5657 19.9733 83.919 19.98ZM89.8838 23V18.32H88.8338V17.22H92.5538V18.32H91.5038V23H89.8838ZM95.0584 23.1C94.6451 23.1 94.2851 23.03 93.9784 22.89C93.6784 22.75 93.4451 22.54 93.2784 22.26C93.1184 21.98 93.0384 21.63 93.0384 21.21V19.01C93.0384 18.59 93.1184 18.24 93.2784 17.96C93.4451 17.68 93.6784 17.47 93.9784 17.33C94.2851 17.19 94.6451 17.12 95.0584 17.12C95.4718 17.12 95.8284 17.19 96.1284 17.33C96.4351 17.47 96.6718 17.68 96.8384 17.96C97.0051 18.24 97.0884 18.59 97.0884 19.01V21.21C97.0884 21.63 97.0051 21.98 96.8384 22.26C96.6718 22.54 96.4351 22.75 96.1284 22.89C95.8284 23.03 95.4718 23.1 95.0584 23.1ZM95.0684 22.02C95.1751 22.02 95.2584 21.9933 95.3184 21.94C95.3784 21.88 95.4184 21.8 95.4384 21.7C95.4651 21.5933 95.4784 21.4667 95.4784 21.32V18.9C95.4784 18.7533 95.4651 18.63 95.4384 18.53C95.4184 18.4233 95.3784 18.3433 95.3184 18.29C95.2584 18.23 95.1751 18.2 95.0684 18.2C94.9618 18.2 94.8784 18.23 94.8184 18.29C94.7584 18.3433 94.7151 18.4233 94.6884 18.53C94.6618 18.63 94.6484 18.7533 94.6484 18.9V21.32C94.6484 21.4667 94.6618 21.5933 94.6884 21.7C94.7151 21.8 94.7584 21.88 94.8184 21.94C94.8784 21.9933 94.9618 22.02 95.0684 22.02ZM97.9824 23L98.0024 17.22H99.2024L100.382 19.99L101.572 17.22H102.772L102.792 23H101.522V19.96L100.632 22.1H100.152L99.2524 19.95V23H97.9824ZM103.973 24.68V23.55C104.179 23.55 104.349 23.5367 104.483 23.51C104.623 23.4833 104.726 23.4333 104.793 23.36C104.866 23.2867 104.903 23.1867 104.903 23.06C104.903 22.9467 104.883 22.81 104.843 22.65C104.803 22.4833 104.753 22.2967 104.693 22.09L103.333 17.22H104.863L105.593 20.56L106.143 17.22H107.683L106.353 23.14C106.266 23.54 106.129 23.85 105.943 24.07C105.756 24.2967 105.526 24.4533 105.253 24.54C104.986 24.6333 104.683 24.68 104.343 24.68H103.973ZM108.465 24.4L108.365 23.87C108.538 23.8233 108.698 23.7367 108.845 23.61C108.998 23.49 109.075 23.2867 109.075 23H108.215V21.46H109.765V22.79C109.758 23.2833 109.648 23.6667 109.435 23.94C109.222 24.2133 108.898 24.3667 108.465 24.4ZM28.6467 38V32.22H30.2767V34.5H30.5167L31.3967 32.22H33.1467L32.0067 34.95L33.1767 38H31.4567L30.5167 35.44H30.2767V38H28.6467ZM34.4737 38V33.32H33.4237V32.22H37.1437V33.32H36.0937V38H34.4737ZM39.6483 38.1C39.2349 38.1 38.8749 38.03 38.5683 37.89C38.2683 37.75 38.0349 37.54 37.8683 37.26C37.7083 36.98 37.6283 36.63 37.6283 36.21V34.01C37.6283 33.59 37.7083 33.24 37.8683 32.96C38.0349 32.68 38.2683 32.47 38.5683 32.33C38.8749 32.19 39.2349 32.12 39.6483 32.12C40.0616 32.12 40.4183 32.19 40.7183 32.33C41.0249 32.47 41.2616 32.68 41.4283 32.96C41.5949 33.24 41.6783 33.59 41.6783 34.01V36.21C41.6783 36.63 41.5949 36.98 41.4283 37.26C41.2616 37.54 41.0249 37.75 40.7183 37.89C40.4183 38.03 40.0616 38.1 39.6483 38.1ZM39.6583 37.02C39.7649 37.02 39.8483 36.9933 39.9083 36.94C39.9683 36.88 40.0083 36.8 40.0283 36.7C40.0549 36.5933 40.0683 36.4667 40.0683 36.32V33.9C40.0683 33.7533 40.0549 33.63 40.0283 33.53C40.0083 33.4233 39.9683 33.3433 39.9083 33.29C39.8483 33.23 39.7649 33.2 39.6583 33.2C39.5516 33.2 39.4683 33.23 39.4083 33.29C39.3483 33.3433 39.3049 33.4233 39.2783 33.53C39.2516 33.63 39.2383 33.7533 39.2383 33.9V36.32C39.2383 36.4667 39.2516 36.5933 39.2783 36.7C39.3049 36.8 39.3483 36.88 39.4083 36.94C39.4683 36.9933 39.5516 37.02 39.6583 37.02ZM47.0209 38.1C46.6009 38.1 46.2409 38.0233 45.9409 37.87C45.6475 37.7167 45.4209 37.4967 45.2609 37.21C45.1009 36.9233 45.0209 36.5767 45.0209 36.17V34.05C45.0209 33.6367 45.1009 33.2867 45.2609 33C45.4209 32.7133 45.6475 32.4967 45.9409 32.35C46.2409 32.1967 46.6009 32.12 47.0209 32.12C47.4342 32.12 47.7842 32.1833 48.0709 32.31C48.3642 32.4367 48.5875 32.63 48.7409 32.89C48.8942 33.1433 48.9709 33.4667 48.9709 33.86V34.47H47.4009V33.81C47.4009 33.6567 47.3842 33.54 47.3509 33.46C47.3242 33.3733 47.2809 33.3133 47.2209 33.28C47.1675 33.2467 47.1009 33.23 47.0209 33.23C46.9409 33.23 46.8742 33.2533 46.8209 33.3C46.7675 33.34 46.7275 33.41 46.7009 33.51C46.6742 33.6033 46.6609 33.7367 46.6609 33.91V36.31C46.6609 36.57 46.6909 36.7467 46.7509 36.84C46.8175 36.9333 46.9109 36.98 47.0309 36.98C47.1175 36.98 47.1875 36.9633 47.2409 36.93C47.2942 36.89 47.3342 36.83 47.3609 36.75C47.3875 36.6633 47.4009 36.55 47.4009 36.41V35.64H48.9709V36.34C48.9709 36.7267 48.8909 37.0533 48.7309 37.32C48.5775 37.58 48.3542 37.7767 48.0609 37.91C47.7742 38.0367 47.4275 38.1 47.0209 38.1ZM49.8186 38V32.22H51.4486V34.54C51.4553 34.54 51.4586 34.54 51.4586 34.54C51.4653 34.54 51.4719 34.54 51.4786 34.54C51.4853 34.54 51.4919 34.54 51.4986 34.54C51.8986 34.54 52.2519 34.57 52.5586 34.63C52.8653 34.6833 53.1186 34.7767 53.3186 34.91C53.5253 35.0367 53.6819 35.21 53.7886 35.43C53.8953 35.65 53.9486 35.9267 53.9486 36.26C53.9486 36.5733 53.9019 36.84 53.8086 37.06C53.7219 37.28 53.5786 37.46 53.3786 37.6C53.1853 37.74 52.9319 37.8433 52.6186 37.91C52.3119 37.97 51.9419 38 51.5086 38H49.8186ZM51.4486 37.07H51.4786C51.7253 37.07 51.9186 37.0467 52.0586 37C52.2053 36.9467 52.3086 36.8633 52.3686 36.75C52.4353 36.63 52.4686 36.4733 52.4686 36.28C52.4686 36.0733 52.4353 35.9167 52.3686 35.81C52.3086 35.6967 52.2053 35.6167 52.0586 35.57C51.9186 35.5233 51.7319 35.5 51.4986 35.5C51.4919 35.5 51.4819 35.5 51.4686 35.5C51.4619 35.5 51.4553 35.5 51.4486 35.5V37.07ZM54.5686 38V32.22H56.1986V38H54.5686ZM57.2209 38V32.22H60.1009V33.32H58.8509V38H57.2209ZM60.7366 39.9V32.22H62.3666V32.64C62.5599 32.4667 62.7666 32.3367 62.9866 32.25C63.2066 32.1633 63.4166 32.12 63.6166 32.12C63.8366 32.12 64.0232 32.1633 64.1766 32.25C64.3366 32.3367 64.4666 32.46 64.5666 32.62C64.6666 32.7733 64.7399 32.9533 64.7866 33.16C64.8332 33.3667 64.8566 33.5867 64.8566 33.82V36.31C64.8566 36.67 64.8066 36.9833 64.7066 37.25C64.6132 37.5167 64.4732 37.7267 64.2866 37.88C64.0999 38.0267 63.8699 38.1 63.5966 38.1C63.3899 38.1 63.1799 38.0533 62.9666 37.96C62.7599 37.86 62.5599 37.7267 62.3666 37.56V39.9H60.7366ZM62.7966 37.05C62.9032 37.05 62.9866 37.02 63.0466 36.96C63.1066 36.9 63.1499 36.8233 63.1766 36.73C63.2099 36.63 63.2266 36.52 63.2266 36.4V33.7C63.2266 33.5867 63.2132 33.4867 63.1866 33.4C63.1599 33.3067 63.1166 33.2333 63.0566 33.18C62.9966 33.1267 62.9199 33.1 62.8266 33.1C62.7399 33.1 62.6566 33.12 62.5766 33.16C62.5032 33.1933 62.4332 33.24 62.3666 33.3V36.9C62.4399 36.9467 62.5099 36.9833 62.5766 37.01C62.6499 37.0367 62.7232 37.05 62.7966 37.05ZM66.9754 38.1C66.6821 38.1 66.4354 38.03 66.2354 37.89C66.0354 37.75 65.8854 37.5733 65.7854 37.36C65.6854 37.14 65.6354 36.9167 65.6354 36.69C65.6354 36.33 65.7054 36.0267 65.8454 35.78C65.9921 35.5333 66.1821 35.3267 66.4154 35.16C66.6487 34.9933 66.9054 34.8533 67.1854 34.74C67.4654 34.62 67.7421 34.5133 68.0154 34.42V33.84C68.0154 33.74 68.0054 33.6533 67.9854 33.58C67.9654 33.5 67.9321 33.44 67.8854 33.4C67.8387 33.3533 67.7687 33.33 67.6754 33.33C67.5821 33.33 67.5087 33.35 67.4554 33.39C67.4087 33.43 67.3754 33.4867 67.3554 33.56C67.3354 33.6267 67.3221 33.7033 67.3154 33.79L67.2754 34.21L65.7554 34.15C65.7887 33.4567 65.9721 32.9467 66.3054 32.62C66.6454 32.2867 67.1521 32.12 67.8254 32.12C68.4121 32.12 68.8487 32.2833 69.1354 32.61C69.4287 32.93 69.5754 33.3467 69.5754 33.86V36.56C69.5754 36.8 69.5787 37.01 69.5854 37.19C69.5987 37.37 69.6121 37.5267 69.6254 37.66C69.6454 37.7933 69.6621 37.9067 69.6754 38H68.2154C68.1954 37.8467 68.1721 37.68 68.1454 37.5C68.1187 37.32 68.0987 37.2133 68.0854 37.18C68.0187 37.42 67.8921 37.6333 67.7054 37.82C67.5254 38.0067 67.2821 38.1 66.9754 38.1ZM67.5554 37C67.6221 37 67.6821 36.9867 67.7354 36.96C67.7954 36.9333 67.8487 36.8967 67.8954 36.85C67.9421 36.8033 67.9821 36.7567 68.0154 36.71V35.13C67.8821 35.21 67.7587 35.2933 67.6454 35.38C67.5321 35.46 67.4354 35.55 67.3554 35.65C67.2754 35.75 67.2121 35.86 67.1654 35.98C67.1254 36.0933 67.1054 36.2233 67.1054 36.37C67.1054 36.5633 67.1454 36.7167 67.2254 36.83C67.3054 36.9433 67.4154 37 67.5554 37ZM72.4313 38.1C72.0113 38.1 71.6513 38.0267 71.3512 37.88C71.0513 37.7267 70.8213 37.5067 70.6613 37.22C70.5013 36.9267 70.4213 36.5767 70.4213 36.17V34.05C70.4213 33.6367 70.5013 33.2867 70.6613 33C70.8213 32.7133 71.0513 32.4967 71.3512 32.35C71.6579 32.1967 72.0179 32.12 72.4313 32.12C72.8579 32.12 73.2113 32.1933 73.4913 32.34C73.7779 32.4867 73.9913 32.7033 74.1313 32.99C74.2779 33.2767 74.3513 33.63 74.3513 34.05V35.21H72.0313V36.32C72.0313 36.4667 72.0479 36.5867 72.0813 36.68C72.1146 36.7733 72.1613 36.84 72.2213 36.88C72.2813 36.92 72.3513 36.94 72.4313 36.94C72.5113 36.94 72.5813 36.9233 72.6413 36.89C72.7079 36.85 72.7579 36.79 72.7913 36.71C72.8313 36.63 72.8513 36.52 72.8513 36.38V35.77H74.3513V36.33C74.3513 36.9167 74.1813 37.36 73.8413 37.66C73.5013 37.9533 73.0313 38.1 72.4313 38.1ZM72.0313 34.45H72.8513V33.87C72.8513 33.7167 72.8313 33.5967 72.7913 33.51C72.7579 33.4233 72.7079 33.3633 72.6413 33.33C72.5813 33.2967 72.5079 33.28 72.4213 33.28C72.3413 33.28 72.2713 33.3 72.2113 33.34C72.1579 33.38 72.1146 33.45 72.0813 33.55C72.0479 33.6433 72.0313 33.78 72.0313 33.96V34.45ZM75.8995 38V33.32H74.8495V32.22H78.5695V33.32H77.5195V38H75.8995ZM82.6308 38V31.55C82.5574 31.59 82.4741 31.63 82.3808 31.67C82.2874 31.71 82.1874 31.7533 82.0808 31.8C81.9808 31.84 81.8808 31.88 81.7808 31.92C81.6874 31.96 81.6008 32 81.5208 32.04V30.8C81.5941 30.76 81.6974 30.7067 81.8308 30.64C81.9641 30.5667 82.1074 30.4867 82.2608 30.4C82.4141 30.3133 82.5574 30.2267 82.6908 30.14C82.8241 30.0467 82.9241 29.9667 82.9908 29.9H84.3008V38H82.6308ZM87.9375 38.15C87.4508 38.15 87.0442 38.0533 86.7175 37.86C86.3908 37.66 86.1442 37.3867 85.9775 37.04C85.8108 36.6933 85.7275 36.29 85.7275 35.83V32.16C85.7275 31.6867 85.8042 31.2733 85.9575 30.92C86.1175 30.56 86.3608 30.28 86.6875 30.08C87.0142 29.88 87.4308 29.78 87.9375 29.78C88.4442 29.78 88.8575 29.88 89.1775 30.08C89.5042 30.28 89.7442 30.56 89.8975 30.92C90.0575 31.2733 90.1375 31.6867 90.1375 32.16V35.83C90.1375 36.2833 90.0542 36.6867 89.8875 37.04C89.7208 37.3867 89.4742 37.66 89.1475 37.86C88.8208 38.0533 88.4175 38.15 87.9375 38.15ZM87.9375 36.66C88.0975 36.66 88.2108 36.61 88.2775 36.51C88.3508 36.4033 88.3942 36.2833 88.4075 36.15C88.4275 36.01 88.4375 35.89 88.4375 35.79V32.2C88.4375 32.0867 88.4308 31.96 88.4175 31.82C88.4042 31.6733 88.3608 31.5467 88.2875 31.44C88.2208 31.3267 88.1042 31.27 87.9375 31.27C87.7708 31.27 87.6508 31.3267 87.5775 31.44C87.5108 31.5467 87.4708 31.6733 87.4575 31.82C87.4442 31.96 87.4375 32.0867 87.4375 32.2V35.79C87.4375 35.89 87.4475 36.01 87.4675 36.15C87.4875 36.2833 87.5308 36.4033 87.5975 36.51C87.6708 36.61 87.7842 36.66 87.9375 36.66ZM93.4355 38.15C92.9489 38.15 92.5422 38.0533 92.2155 37.86C91.8889 37.66 91.6422 37.3867 91.4755 37.04C91.3089 36.6933 91.2255 36.29 91.2255 35.83V32.16C91.2255 31.6867 91.3022 31.2733 91.4555 30.92C91.6155 30.56 91.8589 30.28 92.1855 30.08C92.5122 29.88 92.9289 29.78 93.4355 29.78C93.9422 29.78 94.3555 29.88 94.6755 30.08C95.0022 30.28 95.2422 30.56 95.3955 30.92C95.5555 31.2733 95.6355 31.6867 95.6355 32.16V35.83C95.6355 36.2833 95.5522 36.6867 95.3855 37.04C95.2189 37.3867 94.9722 37.66 94.6455 37.86C94.3189 38.0533 93.9155 38.15 93.4355 38.15ZM93.4355 36.66C93.5955 36.66 93.7089 36.61 93.7755 36.51C93.8489 36.4033 93.8922 36.2833 93.9055 36.15C93.9255 36.01 93.9355 35.89 93.9355 35.79V32.2C93.9355 32.0867 93.9289 31.96 93.9155 31.82C93.9022 31.6733 93.8589 31.5467 93.7855 31.44C93.7189 31.3267 93.6022 31.27 93.4355 31.27C93.2689 31.27 93.1489 31.3267 93.0755 31.44C93.0089 31.5467 92.9689 31.6733 92.9555 31.82C92.9422 31.96 92.9355 32.0867 92.9355 32.2V35.79C92.9355 35.89 92.9455 36.01 92.9655 36.15C92.9855 36.2833 93.0289 36.4033 93.0955 36.51C93.1689 36.61 93.2822 36.66 93.4355 36.66ZM99.2522 38V32.22H103.352V38H101.722V33.33H100.882V38H99.2522ZM105.55 38.1C105.256 38.1 105.01 38.03 104.81 37.89C104.61 37.75 104.46 37.5733 104.36 37.36C104.26 37.14 104.21 36.9167 104.21 36.69C104.21 36.33 104.28 36.0267 104.42 35.78C104.566 35.5333 104.756 35.3267 104.99 35.16C105.223 34.9933 105.48 34.8533 105.76 34.74C106.04 34.62 106.316 34.5133 106.59 34.42V33.84C106.59 33.74 106.58 33.6533 106.56 33.58C106.54 33.5 106.506 33.44 106.46 33.4C106.413 33.3533 106.343 33.33 106.25 33.33C106.156 33.33 106.083 33.35 106.03 33.39C105.983 33.43 105.95 33.4867 105.93 33.56C105.91 33.6267 105.896 33.7033 105.89 33.79L105.85 34.21L104.33 34.15C104.363 33.4567 104.546 32.9467 104.88 32.62C105.22 32.2867 105.726 32.12 106.4 32.12C106.986 32.12 107.423 32.2833 107.71 32.61C108.003 32.93 108.15 33.3467 108.15 33.86V36.56C108.15 36.8 108.153 37.01 108.16 37.19C108.173 37.37 108.186 37.5267 108.2 37.66C108.22 37.7933 108.236 37.9067 108.25 38H106.79C106.77 37.8467 106.746 37.68 106.72 37.5C106.693 37.32 106.673 37.2133 106.66 37.18C106.593 37.42 106.466 37.6333 106.28 37.82C106.1 38.0067 105.856 38.1 105.55 38.1ZM106.13 37C106.196 37 106.256 36.9867 106.31 36.96C106.37 36.9333 106.423 36.8967 106.47 36.85C106.516 36.8033 106.556 36.7567 106.59 36.71V35.13C106.456 35.21 106.333 35.2933 106.22 35.38C106.106 35.46 106.01 35.55 105.93 35.65C105.85 35.75 105.786 35.86 105.74 35.98C105.7 36.0933 105.68 36.2233 105.68 36.37C105.68 36.5633 105.72 36.7167 105.8 36.83C105.88 36.9433 105.99 37 106.13 37ZM109.115 39.9V32.22H110.745V32.64C110.939 32.4667 111.145 32.3367 111.365 32.25C111.585 32.1633 111.795 32.12 111.995 32.12C112.215 32.12 112.402 32.1633 112.555 32.25C112.715 32.3367 112.845 32.46 112.945 32.62C113.045 32.7733 113.119 32.9533 113.165 33.16C113.212 33.3667 113.235 33.5867 113.235 33.82V36.31C113.235 36.67 113.185 36.9833 113.085 37.25C112.992 37.5167 112.852 37.7267 112.665 37.88C112.479 38.0267 112.249 38.1 111.975 38.1C111.769 38.1 111.559 38.0533 111.345 37.96C111.139 37.86 110.939 37.7267 110.745 37.56V39.9H109.115ZM111.175 37.05C111.282 37.05 111.365 37.02 111.425 36.96C111.485 36.9 111.529 36.8233 111.555 36.73C111.589 36.63 111.605 36.52 111.605 36.4V33.7C111.605 33.5867 111.592 33.4867 111.565 33.4C111.539 33.3067 111.495 33.2333 111.435 33.18C111.375 33.1267 111.299 33.1 111.205 33.1C111.119 33.1 111.035 33.12 110.955 33.16C110.882 33.1933 110.812 33.24 110.745 33.3V36.9C110.819 36.9467 110.889 36.9833 110.955 37.01C111.029 37.0367 111.102 37.05 111.175 37.05ZM114.864 38V33.32H113.814V32.22H117.534V33.32H116.484V38H114.864ZM118.217 38V32.22H119.507V35.31L121.017 32.22H122.287V38H120.967V34.94L119.497 38H118.217ZM123.295 38V32.22H124.585V35.31L126.095 32.22H127.365V38H126.045V34.94L124.575 38H123.295ZM125.345 31.57C124.872 31.57 124.492 31.4367 124.205 31.17C123.918 30.9033 123.775 30.5167 123.775 30.01H124.695C124.695 30.2567 124.742 30.44 124.835 30.56C124.935 30.68 125.105 30.74 125.345 30.74C125.578 30.74 125.745 30.68 125.845 30.56C125.945 30.4333 125.995 30.25 125.995 30.01H126.915C126.915 30.5167 126.772 30.9033 126.485 31.17C126.198 31.4367 125.818 31.57 125.345 31.57Z"></path>
</svg>
