<svg xmlns="http://www.w3.org/2000/svg" fill="none" viewBox="0 0 42 38" height="38" width="42">
<rect fill-opacity="0.01" fill="white" height="38" width="38"></rect>
<path stroke="#0D0E12" fill="#FFFEE8" d="M27.4304 7.0296L26.0089 6.74531C25.4563 6.63479 25.0168 6.21574 24.8801 5.669C24.7178 5.0198 24.1345 4.56437 23.4653 4.56437L22.5761 4.56437C22.2656 4.56437 21.9594 4.49208 21.6816 4.35322L20.9984 4.01158C20.4353 3.73005 19.7726 3.73005 19.2095 4.01158L18.1734 4.52965C18.1272 4.55272 18.0787 4.57068 18.0286 4.58319C17.3836 4.74446 17.2974 5.626 17.899 5.90912L23.7521 8.66351C24.2916 8.91741 24.6897 9.3988 24.8378 9.9764L29.3658 27.6357C29.506 28.1822 29.9985 28.5643 30.5627 28.5643C31.4912 28.5643 32.0879 27.5785 31.6573 26.7558L31.4098 26.283C31.1556 25.7973 31.1753 25.2138 31.4616 24.7463L32.5042 23.0436C32.856 22.4692 32.7682 21.7286 32.2919 21.2523L32.1659 21.1263C31.6054 20.5658 31.6713 19.6388 32.3054 19.1633C32.7765 18.8099 32.952 18.1843 32.7332 17.6375L32.3122 16.5851C32.176 16.2445 31.9487 15.9479 31.6553 15.7278L30.904 15.1643C30.4003 14.7866 30.104 14.1938 30.104 13.5643L30.104 12.6755C30.104 12.6032 30.0814 12.5327 30.0393 12.4739L28.3543 10.1149C28.2781 10.0082 28.4241 9.88446 28.5168 9.97721C28.5628 10.0232 28.6389 10.0178 28.6779 9.96576L29.3076 9.12613C29.7092 8.59068 29.4931 7.82 28.8716 7.57142L27.7683 7.13006C27.659 7.08633 27.5458 7.0527 27.4304 7.0296Z"></path>
<path stroke="#0D0E12" fill="#FFFEE8" d="M29.0518 34.2785L29.0512 34.2796L29.0511 34.2798L29.0509 34.2802L29.0282 34.3255L29.0194 34.3608C29.0112 34.3711 28.9865 34.3982 28.9269 34.4391C28.8189 34.513 28.6457 34.5972 28.3954 34.6836C27.8971 34.8557 27.1839 35.0066 26.3055 35.1299C24.5552 35.3755 22.2364 35.5 19.875 35.5C17.5143 35.5 15.1309 35.3756 13.2525 35.1292C12.3117 35.0059 11.5122 34.8537 10.9108 34.6766C10.6099 34.588 10.371 34.4967 10.1936 34.4062C10.0333 34.3244 9.95101 34.2572 9.91387 34.2166C9.91238 34.2137 9.91072 34.2104 9.90892 34.2067C9.89436 34.177 9.86963 34.1215 9.84153 34.0372C9.78542 33.8689 9.71497 33.5829 9.68639 33.1542C9.62918 32.2961 9.7397 30.8621 10.4743 28.6581C10.8218 27.6157 11.6111 26.3662 12.6114 25.0758C13.6046 23.7945 14.7765 22.5097 15.8522 21.4C16.8879 20.3317 17.8283 19.4319 18.4277 18.8584C18.4504 18.8367 18.4726 18.8155 18.4943 18.7947C18.7797 18.5216 19.0041 18.3068 19.0927 18.2061C19.1056 18.1915 19.1243 18.1696 19.1426 18.1444C19.1515 18.1321 19.1665 18.1105 19.1817 18.0827L19.1821 18.082C19.1916 18.0646 19.2301 17.9943 19.2416 17.8958C19.248 17.8412 19.2505 17.7424 19.2018 17.6328C19.1471 17.5098 19.0499 17.4225 18.9425 17.376C18.7805 17.306 18.6371 17.3448 18.6143 17.351C18.6136 17.3512 18.613 17.3513 18.6125 17.3515C18.5421 17.3699 18.4875 17.4012 18.4745 17.4086L18.4731 17.4094C18.405 17.4482 18.3056 17.5208 18.2 17.6C17.446 18.1655 16.7885 18.8884 16.1795 19.5578C16.018 19.7354 15.8599 19.9092 15.7043 20.0754C14.9354 20.8964 14.2121 21.5524 13.3394 21.8483C12.3342 22.1892 11.9843 22.2941 11.7639 22.3443C11.6729 22.365 11.6044 22.3764 11.5053 22.393C11.4874 22.3959 11.4685 22.3991 11.4483 22.4025C11.3166 22.4246 11.1516 22.4541 10.8914 22.5119C10.5464 22.5887 10.2009 22.7861 9.89451 22.9903C9.63491 23.1634 9.36364 23.3694 9.10553 23.5655C9.05259 23.6057 9.00021 23.6455 8.9486 23.6845C8.63528 23.9212 8.34567 24.1325 8.07953 24.285C7.80351 24.4431 7.61607 24.5 7.5 24.5C7.06456 24.5 6.48921 24.3882 5.99627 24.2649C5.75545 24.2047 5.54435 24.1444 5.39367 24.0992C5.31846 24.0766 5.25861 24.0579 5.21801 24.045L5.1721 24.0303L5.16093 24.0266L5.15846 24.0258L5.15811 24.0257L5.15804 24.0256L5.15802 24.0256L5.158 24.0256L5.12357 24.0141L5.08972 24.0081L5.08907 24.008L5.08897 24.008L5.08849 24.0079L5.08813 24.0078L5.07963 24.0061C5.07004 24.0041 5.05393 24.0006 5.03226 23.9953C4.98879 23.9847 4.92366 23.9673 4.8442 23.941C4.68359 23.888 4.47362 23.8022 4.26763 23.6717C3.86336 23.4155 3.5 23.0105 3.5 22.3218C3.5 21.5672 3.86536 20.845 4.39813 19.9928C4.49106 19.8441 4.58928 19.6913 4.69014 19.5344C5.14309 18.8299 5.64936 18.0424 5.96927 17.1726C6.24465 16.4239 6.41951 15.8529 6.58703 15.3059C6.88735 14.3252 7.16404 13.4218 7.95401 11.7095C8.55281 10.4115 9.28177 9.31736 9.86265 8.5466C10.1526 8.16189 10.4043 7.85948 10.5825 7.6544C10.6715 7.55191 10.7421 7.47385 10.7897 7.4221C10.8135 7.39623 10.8316 7.37695 10.8433 7.3645L10.8562 7.35096L10.8589 7.34809L10.8592 7.34785L10.8593 7.34774L10.8593 7.34767L10.8594 7.34764L10.972 7.23132L10.995 7.07071L11.2706 5.1415C11.3226 4.77734 11.7368 4.59213 12.0429 4.79619L12.2226 4.91603L12.7354 5.25784L12.9642 4.6857L13.5065 3.32999C13.6245 3.03512 13.9839 2.9235 14.2481 3.09966L16.2226 4.41603L16.5637 4.6434L16.8005 4.40663C16.8448 4.39452 16.9446 4.375 17.125 4.375C17.5494 4.375 18.3668 4.48266 19.8419 4.97434C21.3001 5.46041 22.4901 6.05926 23.5549 6.94661C24.6216 7.83554 25.5862 9.03359 26.5659 10.7481C28.5198 14.1675 30 18.581 30 25.5C30 28.9771 29.7516 31.1963 29.5081 32.5356C29.3864 33.2048 29.2662 33.653 29.1795 33.9276C29.1361 34.0648 29.1012 34.1585 29.0787 34.2147C29.0675 34.2428 29.0594 34.2615 29.0549 34.2715L29.0518 34.2785Z"></path>
<path stroke-linecap="round" stroke="#0D0E12" d="M14.6481 11.4595C13.1481 11.4596 12.1481 11.4596 11.1481 12.6093"></path>
<path stroke-linecap="round" stroke="#0D0E12" d="M19.6 24C18.1 26 17.6 27 17.6 30"></path>
<path fill="#0D0E12" d="M14.1481 12.4595C14.1481 13.0118 13.2004 13.4595 12.6481 13.4595C12.0958 13.4595 11.6481 13.0118 11.6481 12.4595C11.6481 11.9072 12.5958 11.4595 13.1481 11.4595C13.7004 11.4595 14.1481 11.4595 14.1481 12.4595Z"></path>
</svg>
