<svg xmlns="http://www.w3.org/2000/svg" fill="none" viewBox="0 0 480 360" height="360" width="480">
<rect fill="white" height="360" width="480"></rect>
<path fill="white" d="M22.624 64V54.28H24.148L26.14 59.032V54.28H27.904V64H26.428L24.46 58.9V64H22.624ZM31.288 64.132C30.568 64.132 29.984 63.948 29.536 63.58C29.096 63.212 28.876 62.648 28.876 61.888V59.176C28.876 58.416 29.096 57.852 29.536 57.484C29.984 57.116 30.568 56.932 31.288 56.932C32 56.932 32.584 57.116 33.04 57.484C33.496 57.844 33.724 58.408 33.724 59.176V61.888C33.724 62.656 33.496 63.224 33.04 63.592C32.584 63.952 32 64.132 31.288 64.132ZM31.288 62.752C31.424 62.752 31.528 62.724 31.6 62.668C31.68 62.612 31.736 62.524 31.768 62.404C31.8 62.276 31.816 62.112 31.816 61.912V59.152C31.816 58.944 31.8 58.78 31.768 58.66C31.736 58.54 31.68 58.452 31.6 58.396C31.528 58.34 31.424 58.312 31.288 58.312C31.16 58.312 31.056 58.34 30.976 58.396C30.904 58.452 30.848 58.544 30.808 58.672C30.776 58.792 30.76 58.952 30.76 59.152V61.912C30.76 62.112 30.776 62.276 30.808 62.404C30.848 62.524 30.904 62.612 30.976 62.668C31.056 62.724 31.16 62.752 31.288 62.752Z"></path>
<rect fill="#0D0E12" height="30" width="480"></rect>
<path fill="white" d="M329.72 21V11.28H333.92V12.732H331.868V15.18H333.656V16.68H331.868V21H329.72ZM334.923 21V11.28H338.187C338.771 11.28 339.251 11.392 339.627 11.616C340.003 11.832 340.283 12.152 340.467 12.576C340.651 12.992 340.743 13.5 340.743 14.1C340.743 14.852 340.619 15.428 340.371 15.828C340.123 16.22 339.787 16.492 339.363 16.644C338.939 16.796 338.463 16.872 337.935 16.872H337.071V21H334.923ZM337.071 15.372H337.791C338.055 15.372 338.255 15.324 338.391 15.228C338.527 15.132 338.615 14.988 338.655 14.796C338.703 14.604 338.727 14.36 338.727 14.064C338.727 13.816 338.707 13.6 338.667 13.416C338.635 13.224 338.551 13.072 338.415 12.96C338.279 12.848 338.067 12.792 337.779 12.792H337.071V15.372ZM344.265 21.144C343.657 21.144 343.149 21.036 342.741 20.82C342.333 20.604 342.025 20.272 341.817 19.824C341.609 19.368 341.493 18.78 341.469 18.06L343.305 17.784C343.313 18.2 343.349 18.536 343.413 18.792C343.485 19.048 343.581 19.232 343.701 19.344C343.829 19.456 343.981 19.512 344.157 19.512C344.381 19.512 344.525 19.436 344.589 19.284C344.661 19.132 344.697 18.972 344.697 18.804C344.697 18.404 344.601 18.068 344.409 17.796C344.217 17.516 343.957 17.236 343.629 16.956L342.789 16.224C342.421 15.912 342.109 15.56 341.853 15.168C341.605 14.768 341.481 14.276 341.481 13.692C341.481 12.868 341.725 12.24 342.213 11.808C342.701 11.368 343.365 11.148 344.205 11.148C344.725 11.148 345.141 11.236 345.453 11.412C345.773 11.588 346.013 11.82 346.173 12.108C346.341 12.388 346.453 12.688 346.509 13.008C346.573 13.32 346.609 13.62 346.617 13.908L344.769 14.136C344.761 13.848 344.741 13.6 344.709 13.392C344.685 13.176 344.629 13.012 344.541 12.9C344.453 12.78 344.317 12.72 344.133 12.72C343.933 12.72 343.785 12.804 343.689 12.972C343.601 13.14 343.557 13.308 343.557 13.476C343.557 13.836 343.641 14.132 343.809 14.364C343.985 14.588 344.213 14.824 344.493 15.072L345.297 15.78C345.721 16.14 346.077 16.548 346.365 17.004C346.661 17.46 346.809 18.024 346.809 18.696C346.809 19.152 346.705 19.568 346.497 19.944C346.289 20.312 345.993 20.604 345.609 20.82C345.233 21.036 344.785 21.144 344.265 21.144ZM347.933 16.056V14.232H349.757V16.056H347.933ZM347.933 20.328V18.504H349.757V20.328H347.933Z"></path>
<path fill="#0D0E12" d="M100.008 83V70.04H102.872V75.176H103.16L105.064 70.04H107.912L105.544 76.12L107.992 83H105.048L103.16 77.352H102.872V83H100.008ZM108.364 83.096V81.256C108.706 81.256 108.983 81.2027 109.196 81.096C109.42 80.9893 109.596 80.808 109.724 80.552C109.863 80.2853 109.97 79.928 110.044 79.48C110.119 79.0213 110.183 78.44 110.236 77.736L110.54 73.752H116.412V83H113.804V75.512H112.748L112.524 78.248C112.45 79.208 112.343 80.0027 112.204 80.632C112.066 81.2613 111.863 81.7573 111.596 82.12C111.33 82.472 110.972 82.7227 110.524 82.872C110.076 83.0213 109.506 83.096 108.812 83.096H108.364ZM119.954 83.16C119.485 83.16 119.09 83.048 118.77 82.824C118.45 82.6 118.21 82.3173 118.05 81.976C117.89 81.624 117.81 81.2667 117.81 80.904C117.81 80.328 117.922 79.8427 118.146 79.448C118.381 79.0533 118.685 78.7227 119.058 78.456C119.432 78.1893 119.842 77.9653 120.29 77.784C120.738 77.592 121.181 77.4213 121.618 77.272V76.344C121.618 76.184 121.602 76.0453 121.57 75.928C121.538 75.8 121.485 75.704 121.41 75.64C121.336 75.5653 121.224 75.528 121.074 75.528C120.925 75.528 120.808 75.56 120.722 75.624C120.648 75.688 120.594 75.7787 120.562 75.896C120.53 76.0027 120.509 76.1253 120.498 76.264L120.434 76.936L118.002 76.84C118.056 75.7307 118.349 74.9147 118.882 74.392C119.426 73.8587 120.237 73.592 121.314 73.592C122.253 73.592 122.952 73.8533 123.41 74.376C123.88 74.888 124.114 75.5547 124.114 76.376V80.696C124.114 81.08 124.12 81.416 124.13 81.704C124.152 81.992 124.173 82.2427 124.194 82.456C124.226 82.6693 124.253 82.8507 124.274 83H121.938C121.906 82.7547 121.869 82.488 121.826 82.2C121.784 81.912 121.752 81.7413 121.73 81.688C121.624 82.072 121.421 82.4133 121.122 82.712C120.834 83.0107 120.445 83.16 119.954 83.16ZM120.882 81.4C120.989 81.4 121.085 81.3787 121.17 81.336C121.266 81.2933 121.352 81.2347 121.426 81.16C121.501 81.0853 121.565 81.0107 121.618 80.936V78.408C121.405 78.536 121.208 78.6693 121.026 78.808C120.845 78.936 120.69 79.08 120.562 79.24C120.434 79.4 120.333 79.576 120.258 79.768C120.194 79.9493 120.162 80.1573 120.162 80.392C120.162 80.7013 120.226 80.9467 120.354 81.128C120.482 81.3093 120.658 81.4 120.882 81.4ZM128.668 83.16C127.996 83.16 127.42 83.0373 126.94 82.792C126.47 82.5467 126.108 82.1947 125.852 81.736C125.596 81.2773 125.468 80.7227 125.468 80.072V76.68C125.468 76.0187 125.596 75.4587 125.852 75C126.108 74.5413 126.47 74.1947 126.94 73.96C127.42 73.7147 127.996 73.592 128.668 73.592C129.329 73.592 129.889 73.6933 130.348 73.896C130.817 74.0987 131.174 74.408 131.42 74.824C131.665 75.2293 131.788 75.7467 131.788 76.376V77.352H129.276V76.296C129.276 76.0507 129.249 75.864 129.196 75.736C129.153 75.5973 129.084 75.5013 128.988 75.448C128.902 75.3947 128.796 75.368 128.668 75.368C128.54 75.368 128.433 75.4053 128.348 75.48C128.262 75.544 128.198 75.656 128.156 75.816C128.113 75.9653 128.092 76.1787 128.092 76.456V80.296C128.092 80.712 128.14 80.9947 128.236 81.144C128.342 81.2933 128.492 81.368 128.684 81.368C128.822 81.368 128.934 81.3413 129.02 81.288C129.105 81.224 129.169 81.128 129.212 81C129.254 80.8613 129.276 80.68 129.276 80.456V79.224H131.788V80.344C131.788 80.9627 131.66 81.4853 131.404 81.912C131.158 82.328 130.801 82.6427 130.332 82.856C129.873 83.0587 129.318 83.16 128.668 83.16ZM136.152 83.16C135.48 83.16 134.904 83.0373 134.424 82.792C133.955 82.5467 133.592 82.1947 133.336 81.736C133.08 81.2773 132.952 80.7227 132.952 80.072V76.68C132.952 76.0187 133.08 75.4587 133.336 75C133.592 74.5413 133.955 74.1947 134.424 73.96C134.904 73.7147 135.48 73.592 136.152 73.592C136.813 73.592 137.373 73.6933 137.832 73.896C138.301 74.0987 138.659 74.408 138.904 74.824C139.149 75.2293 139.272 75.7467 139.272 76.376V77.352H136.76V76.296C136.76 76.0507 136.733 75.864 136.68 75.736C136.637 75.5973 136.568 75.5013 136.472 75.448C136.387 75.3947 136.28 75.368 136.152 75.368C136.024 75.368 135.917 75.4053 135.832 75.48C135.747 75.544 135.683 75.656 135.64 75.816C135.597 75.9653 135.576 76.1787 135.576 76.456V80.296C135.576 80.712 135.624 80.9947 135.72 81.144C135.827 81.2933 135.976 81.368 136.168 81.368C136.307 81.368 136.419 81.3413 136.504 81.288C136.589 81.224 136.653 81.128 136.696 81C136.739 80.8613 136.76 80.68 136.76 80.456V79.224H139.272V80.344C139.272 80.9627 139.144 81.4853 138.888 81.912C138.643 82.328 138.285 82.6427 137.816 82.856C137.357 83.0587 136.803 83.16 136.152 83.16ZM140.629 83V73.752H142.693V78.696L145.109 73.752H147.141V83H145.029V78.104L142.677 83H140.629ZM152.45 83V79.272C152.311 79.2827 152.167 79.2933 152.018 79.304C151.879 79.3147 151.74 79.32 151.602 79.32C150.812 79.32 150.194 79.2293 149.746 79.048C149.308 78.856 148.999 78.5893 148.818 78.248C148.647 77.896 148.562 77.48 148.562 77V73.752H151.154V76.84C151.154 77.1707 151.218 77.416 151.346 77.576C151.474 77.736 151.735 77.8267 152.13 77.848C152.183 77.848 152.231 77.848 152.274 77.848C152.327 77.8373 152.386 77.832 152.45 77.832V73.752H155.058V83H152.45ZM159.715 83.16C159.043 83.16 158.467 83.0427 157.987 82.808C157.507 82.5627 157.139 82.2107 156.883 81.752C156.627 81.2827 156.499 80.7227 156.499 80.072V76.68C156.499 76.0187 156.627 75.4587 156.883 75C157.139 74.5413 157.507 74.1947 157.987 73.96C158.478 73.7147 159.054 73.592 159.715 73.592C160.398 73.592 160.963 73.7093 161.411 73.944C161.87 74.1787 162.211 74.5253 162.435 74.984C162.67 75.4427 162.787 76.008 162.787 76.68V78.536H159.075V80.312C159.075 80.5467 159.102 80.7387 159.155 80.888C159.208 81.0373 159.283 81.144 159.379 81.208C159.475 81.272 159.587 81.304 159.715 81.304C159.843 81.304 159.955 81.2773 160.051 81.224C160.158 81.16 160.238 81.064 160.291 80.936C160.355 80.808 160.387 80.632 160.387 80.408V79.432H162.787V80.328C162.787 81.2667 162.515 81.976 161.971 82.456C161.427 82.9253 160.675 83.16 159.715 83.16ZM159.075 77.32H160.387V76.392C160.387 76.1467 160.355 75.9547 160.291 75.816C160.238 75.6773 160.158 75.5813 160.051 75.528C159.955 75.4747 159.838 75.448 159.699 75.448C159.571 75.448 159.459 75.48 159.363 75.544C159.278 75.608 159.208 75.72 159.155 75.88C159.102 76.0293 159.075 76.248 159.075 76.536V77.32ZM167.215 83.16C166.543 83.16 165.967 83.0373 165.487 82.792C165.017 82.5467 164.655 82.1947 164.399 81.736C164.143 81.2773 164.015 80.7227 164.015 80.072V76.68C164.015 76.0187 164.143 75.4587 164.399 75C164.655 74.5413 165.017 74.1947 165.487 73.96C165.967 73.7147 166.543 73.592 167.215 73.592C167.876 73.592 168.436 73.6933 168.895 73.896C169.364 74.0987 169.721 74.408 169.967 74.824C170.212 75.2293 170.335 75.7467 170.335 76.376V77.352H167.823V76.296C167.823 76.0507 167.796 75.864 167.743 75.736C167.7 75.5973 167.631 75.5013 167.535 75.448C167.449 75.3947 167.343 75.368 167.215 75.368C167.087 75.368 166.98 75.4053 166.895 75.48C166.809 75.544 166.745 75.656 166.703 75.816C166.66 75.9653 166.639 76.1787 166.639 76.456V80.296C166.639 80.712 166.687 80.9947 166.783 81.144C166.889 81.2933 167.039 81.368 167.231 81.368C167.369 81.368 167.481 81.3413 167.567 81.288C167.652 81.224 167.716 81.128 167.759 81C167.801 80.8613 167.823 80.68 167.823 80.456V79.224H170.335V80.344C170.335 80.9627 170.207 81.4853 169.951 81.912C169.705 82.328 169.348 82.6427 168.879 82.856C168.42 83.0587 167.865 83.16 167.215 83.16ZM171.691 83V73.752H174.299V77.4H174.683L176.091 73.752H178.891L177.067 78.12L178.939 83H176.187L174.683 78.904H174.299V83H171.691ZM179.894 83V73.752H181.958V78.696L184.374 73.752H186.406V83H184.294V78.104L181.942 83H179.894ZM191.043 83.16C190.371 83.16 189.795 83.0427 189.315 82.808C188.835 82.5627 188.467 82.2107 188.211 81.752C187.955 81.2827 187.827 80.7227 187.827 80.072V76.68C187.827 76.0187 187.955 75.4587 188.211 75C188.467 74.5413 188.835 74.1947 189.315 73.96C189.806 73.7147 190.382 73.592 191.043 73.592C191.726 73.592 192.291 73.7093 192.739 73.944C193.198 74.1787 193.539 74.5253 193.763 74.984C193.998 75.4427 194.115 76.008 194.115 76.68V78.536H190.403V80.312C190.403 80.5467 190.43 80.7387 190.483 80.888C190.536 81.0373 190.611 81.144 190.707 81.208C190.803 81.272 190.915 81.304 191.043 81.304C191.171 81.304 191.283 81.2773 191.379 81.224C191.486 81.16 191.566 81.064 191.619 80.936C191.683 80.808 191.715 80.632 191.715 80.408V79.432H194.115V80.328C194.115 81.2667 193.843 81.976 193.299 82.456C192.755 82.9253 192.003 83.16 191.043 83.16ZM190.403 77.32H191.715V76.392C191.715 76.1467 191.683 75.9547 191.619 75.816C191.566 75.6773 191.486 75.5813 191.379 75.528C191.283 75.4747 191.166 75.448 191.027 75.448C190.899 75.448 190.787 75.48 190.691 75.544C190.606 75.608 190.536 75.72 190.483 75.88C190.43 76.0293 190.403 76.248 190.403 76.536V77.32Z"></path>
<path fill="#0D0E12" d="M99.096 221L101.816 214.488L99.16 208.04H101.832L104.088 214.104H104.216V208.04H106.488V214.104H106.632L108.888 208.04H111.56L108.904 214.488L111.624 221H109.064L106.632 214.712H106.488V221H104.216V214.712H104.088L101.656 221H99.096ZM112.535 221V211.752H114.599V216.696L117.015 211.752H119.047V221H116.935V216.104L114.583 221H112.535ZM123.412 221.176C122.772 221.176 122.254 221.091 121.86 220.92C121.476 220.739 121.177 220.499 120.964 220.2C120.761 219.891 120.622 219.544 120.548 219.16C120.484 218.765 120.452 218.355 120.452 217.928H122.516C122.516 218.419 122.59 218.787 122.74 219.032C122.9 219.267 123.145 219.384 123.476 219.384C123.721 219.384 123.908 219.331 124.036 219.224C124.164 219.117 124.249 218.968 124.292 218.776C124.345 218.584 124.372 218.371 124.372 218.136C124.372 217.827 124.313 217.581 124.196 217.4C124.089 217.219 123.908 217.091 123.652 217.016C123.406 216.931 123.07 216.888 122.644 216.888V215.544C123.284 215.544 123.7 215.459 123.892 215.288C124.094 215.117 124.196 214.819 124.196 214.392C124.196 214.083 124.132 213.837 124.004 213.656C123.886 213.475 123.673 213.384 123.364 213.384C123.033 213.384 122.798 213.48 122.66 213.672C122.532 213.853 122.468 214.179 122.468 214.648H120.42C120.42 214.093 120.505 213.587 120.676 213.128C120.846 212.659 121.15 212.285 121.588 212.008C122.036 211.731 122.67 211.592 123.492 211.592C124.217 211.592 124.804 211.709 125.252 211.944C125.71 212.168 126.041 212.477 126.244 212.872C126.457 213.256 126.564 213.693 126.564 214.184C126.564 214.589 126.5 214.931 126.372 215.208C126.244 215.485 126.078 215.704 125.876 215.864C125.673 216.013 125.449 216.125 125.204 216.2C125.47 216.296 125.705 216.424 125.908 216.584C126.121 216.744 126.292 216.973 126.42 217.272C126.548 217.56 126.612 217.955 126.612 218.456C126.612 219.235 126.361 219.885 125.86 220.408C125.358 220.92 124.542 221.176 123.412 221.176ZM127.863 221V211.752H130.471V215.336H132.023V211.752H134.647V221H132.023V217.128H130.471V221H127.863ZM139.293 221.16C138.621 221.16 138.045 221.043 137.565 220.808C137.085 220.563 136.717 220.211 136.461 219.752C136.205 219.283 136.077 218.723 136.077 218.072V214.68C136.077 214.019 136.205 213.459 136.461 213C136.717 212.541 137.085 212.195 137.565 211.96C138.056 211.715 138.632 211.592 139.293 211.592C139.976 211.592 140.541 211.709 140.989 211.944C141.448 212.179 141.789 212.525 142.013 212.984C142.248 213.443 142.365 214.008 142.365 214.68V216.536H138.653V218.312C138.653 218.547 138.68 218.739 138.733 218.888C138.786 219.037 138.861 219.144 138.957 219.208C139.053 219.272 139.165 219.304 139.293 219.304C139.421 219.304 139.533 219.277 139.629 219.224C139.736 219.16 139.816 219.064 139.869 218.936C139.933 218.808 139.965 218.632 139.965 218.408V217.432H142.365V218.328C142.365 219.267 142.093 219.976 141.549 220.456C141.005 220.925 140.253 221.16 139.293 221.16ZM138.653 215.32H139.965V214.392C139.965 214.147 139.933 213.955 139.869 213.816C139.816 213.677 139.736 213.581 139.629 213.528C139.533 213.475 139.416 213.448 139.277 213.448C139.149 213.448 139.037 213.48 138.941 213.544C138.856 213.608 138.786 213.72 138.733 213.88C138.68 214.029 138.653 214.248 138.653 214.536V215.32ZM143.785 221V211.752H146.393V215.336H147.945V211.752H150.569V221H147.945V217.128H146.393V221H143.785ZM152.191 221V211.752H154.799V215.336H156.351V211.752H158.975V221H156.351V217.128H154.799V221H152.191ZM160.597 221V211.752H163.205V215.464C163.216 215.464 163.221 215.464 163.221 215.464C163.232 215.464 163.243 215.464 163.253 215.464C163.264 215.464 163.275 215.464 163.285 215.464C163.925 215.464 164.491 215.512 164.981 215.608C165.472 215.693 165.877 215.843 166.197 216.056C166.528 216.259 166.779 216.536 166.949 216.888C167.12 217.24 167.205 217.683 167.205 218.216C167.205 218.717 167.131 219.144 166.981 219.496C166.843 219.848 166.613 220.136 166.293 220.36C165.984 220.584 165.579 220.749 165.077 220.856C164.587 220.952 163.995 221 163.301 221H160.597ZM163.205 219.512H163.253C163.648 219.512 163.957 219.475 164.181 219.4C164.416 219.315 164.581 219.181 164.677 219C164.784 218.808 164.837 218.557 164.837 218.248C164.837 217.917 164.784 217.667 164.677 217.496C164.581 217.315 164.416 217.187 164.181 217.112C163.957 217.037 163.659 217 163.285 217C163.275 217 163.259 217 163.237 217C163.227 217 163.216 217 163.205 217V219.512ZM168.197 221V211.752H170.805V221H168.197ZM175.465 221.16C174.793 221.16 174.217 221.043 173.737 220.808C173.257 220.563 172.889 220.211 172.633 219.752C172.377 219.283 172.249 218.723 172.249 218.072V214.68C172.249 214.019 172.377 213.459 172.633 213C172.889 212.541 173.257 212.195 173.737 211.96C174.228 211.715 174.804 211.592 175.465 211.592C176.148 211.592 176.713 211.709 177.161 211.944C177.62 212.179 177.961 212.525 178.185 212.984C178.42 213.443 178.537 214.008 178.537 214.68V216.536H174.825V218.312C174.825 218.547 174.852 218.739 174.905 218.888C174.958 219.037 175.033 219.144 175.129 219.208C175.225 219.272 175.337 219.304 175.465 219.304C175.593 219.304 175.705 219.277 175.801 219.224C175.908 219.16 175.988 219.064 176.041 218.936C176.105 218.808 176.137 218.632 176.137 218.408V217.432H178.537V218.328C178.537 219.267 178.265 219.976 177.721 220.456C177.177 220.925 176.425 221.16 175.465 221.16ZM174.825 215.32H176.137V214.392C176.137 214.147 176.105 213.955 176.041 213.816C175.988 213.677 175.908 213.581 175.801 213.528C175.705 213.475 175.588 213.448 175.449 213.448C175.321 213.448 175.209 213.48 175.113 213.544C175.028 213.608 174.958 213.72 174.905 213.88C174.852 214.029 174.825 214.248 174.825 214.536V215.32ZM188.082 223.864C187.378 223.864 186.792 223.725 186.322 223.448C185.853 223.171 185.474 222.776 185.186 222.264C184.909 221.763 184.701 221.181 184.562 220.52C184.424 219.848 184.333 219.123 184.29 218.344C184.248 217.565 184.226 216.765 184.226 215.944C184.226 215.059 184.248 214.216 184.29 213.416C184.333 212.616 184.424 211.88 184.562 211.208C184.701 210.525 184.909 209.939 185.186 209.448C185.474 208.957 185.853 208.579 186.322 208.312C186.792 208.035 187.378 207.896 188.082 207.896V209.72C187.784 209.72 187.538 209.859 187.346 210.136C187.154 210.413 187.005 210.819 186.898 211.352C186.792 211.875 186.717 212.52 186.674 213.288C186.642 214.056 186.626 214.941 186.626 215.944C186.626 216.957 186.648 217.843 186.69 218.6C186.733 219.357 186.808 219.992 186.914 220.504C187.032 221.005 187.181 221.384 187.362 221.64C187.554 221.896 187.794 222.024 188.082 222.024V223.864ZM189.457 221V211.752H192.065V215.336H193.617V211.752H196.241V221H193.617V217.128H192.065V221H189.457ZM200.887 221.16C200.215 221.16 199.639 221.043 199.159 220.808C198.679 220.563 198.311 220.211 198.055 219.752C197.799 219.283 197.671 218.723 197.671 218.072V214.68C197.671 214.019 197.799 213.459 198.055 213C198.311 212.541 198.679 212.195 199.159 211.96C199.65 211.715 200.226 211.592 200.887 211.592C201.57 211.592 202.135 211.709 202.583 211.944C203.042 212.179 203.383 212.525 203.607 212.984C203.842 213.443 203.959 214.008 203.959 214.68V216.536H200.247V218.312C200.247 218.547 200.274 218.739 200.327 218.888C200.38 219.037 200.455 219.144 200.551 219.208C200.647 219.272 200.759 219.304 200.887 219.304C201.015 219.304 201.127 219.277 201.223 219.224C201.33 219.16 201.41 219.064 201.463 218.936C201.527 218.808 201.559 218.632 201.559 218.408V217.432H203.959V218.328C203.959 219.267 203.687 219.976 203.143 220.456C202.599 220.925 201.847 221.16 200.887 221.16ZM200.247 215.32H201.559V214.392C201.559 214.147 201.527 213.955 201.463 213.816C201.41 213.677 201.33 213.581 201.223 213.528C201.127 213.475 201.01 213.448 200.871 213.448C200.743 213.448 200.631 213.48 200.535 213.544C200.45 213.608 200.38 213.72 200.327 213.88C200.274 214.029 200.247 214.248 200.247 214.536V215.32ZM209.472 221V211.752H212.752C213.68 211.752 214.379 211.853 214.848 212.056C215.318 212.248 215.632 212.515 215.792 212.856C215.952 213.197 216.032 213.597 216.032 214.056C216.032 214.664 215.899 215.112 215.632 215.4C215.376 215.677 215.035 215.875 214.608 215.992C215.056 216.099 215.398 216.259 215.632 216.472C215.867 216.685 216.027 216.947 216.112 217.256C216.208 217.565 216.256 217.923 216.256 218.328C216.256 218.925 216.144 219.427 215.92 219.832C215.696 220.227 215.318 220.52 214.784 220.712C214.251 220.904 213.526 221 212.608 221H209.472ZM212.064 219.56H212.496C212.731 219.56 212.939 219.539 213.12 219.496C213.302 219.453 213.446 219.341 213.552 219.16C213.67 218.968 213.728 218.664 213.728 218.248C213.728 217.779 213.675 217.443 213.568 217.24C213.472 217.037 213.334 216.915 213.152 216.872C212.971 216.829 212.758 216.808 212.512 216.808H212.064V219.56ZM212.064 215.4H212.72C213.03 215.4 213.243 215.304 213.36 215.112C213.478 214.909 213.536 214.632 213.536 214.28C213.536 213.939 213.472 213.656 213.344 213.432C213.227 213.208 212.955 213.096 212.528 213.096H212.064V215.4ZM217.55 221V211.752H219.614V216.696L222.03 211.752H224.062V221H221.95V216.104L219.598 221H217.55ZM225.371 223.512V219.416C225.723 219.256 226.027 219.048 226.283 218.792C226.539 218.525 226.758 218.205 226.939 217.832C227.121 217.448 227.265 217.005 227.371 216.504C227.478 215.992 227.553 215.411 227.595 214.76L227.867 211.752H232.955V219.4H234.299V223.512H232.427L232.251 221H227.419L227.275 223.512H225.371ZM228.187 219.4H230.571V213.304H229.803L229.611 215.384C229.579 215.971 229.521 216.483 229.435 216.92C229.35 217.347 229.243 217.72 229.115 218.04C228.998 218.349 228.859 218.616 228.699 218.84C228.539 219.053 228.369 219.24 228.187 219.4ZM235.394 221V211.752H238.002V215.336H239.554V211.752H242.178V221H239.554V217.128H238.002V221H235.394ZM243.8 221V211.752H246.408V215.464C246.419 215.464 246.424 215.464 246.424 215.464C246.435 215.464 246.446 215.464 246.456 215.464C246.467 215.464 246.478 215.464 246.488 215.464C247.128 215.464 247.694 215.512 248.184 215.608C248.675 215.693 249.08 215.843 249.4 216.056C249.731 216.259 249.982 216.536 250.152 216.888C250.323 217.24 250.408 217.683 250.408 218.216C250.408 218.717 250.334 219.144 250.184 219.496C250.046 219.848 249.816 220.136 249.496 220.36C249.187 220.584 248.782 220.749 248.28 220.856C247.79 220.952 247.198 221 246.504 221H243.8ZM246.408 219.512H246.456C246.851 219.512 247.16 219.475 247.384 219.4C247.619 219.315 247.784 219.181 247.88 219C247.987 218.808 248.04 218.557 248.04 218.248C248.04 217.917 247.987 217.667 247.88 217.496C247.784 217.315 247.619 217.187 247.384 217.112C247.16 217.037 246.862 217 246.488 217C246.478 217 246.462 217 246.44 217C246.43 217 246.419 217 246.408 217V219.512ZM251.4 221V211.752H254.008V221H251.4ZM263.354 223.752V220.872H263.082C262.741 220.872 262.367 220.824 261.962 220.728C261.567 220.621 261.189 220.445 260.826 220.2C260.463 219.944 260.165 219.608 259.93 219.192C259.695 218.765 259.578 218.232 259.578 217.592V214.984C259.578 214.419 259.679 213.933 259.882 213.528C260.095 213.123 260.373 212.792 260.714 212.536C261.055 212.28 261.434 212.093 261.85 211.976C262.266 211.848 262.677 211.784 263.082 211.784H263.354V208.056H265.61V211.784H265.93C266.485 211.784 267.029 211.896 267.562 212.12C268.095 212.333 268.533 212.675 268.874 213.144C269.226 213.613 269.402 214.227 269.402 214.984V217.592C269.402 218.232 269.285 218.765 269.05 219.192C268.815 219.608 268.517 219.944 268.154 220.2C267.791 220.445 267.413 220.621 267.018 220.728C266.623 220.824 266.261 220.872 265.93 220.872H265.61V223.752H263.354ZM263.146 219.32H263.354V213.24H263.13C262.927 213.24 262.741 213.299 262.57 213.416C262.399 213.523 262.261 213.688 262.154 213.912C262.058 214.136 262.01 214.419 262.01 214.76V217.768C262.01 218.099 262.058 218.381 262.154 218.616C262.25 218.851 262.383 219.027 262.554 219.144C262.725 219.261 262.922 219.32 263.146 219.32ZM265.61 219.32H265.786C265.999 219.32 266.191 219.261 266.362 219.144C266.543 219.027 266.687 218.851 266.794 218.616C266.911 218.381 266.97 218.099 266.97 217.768V214.76C266.97 214.419 266.917 214.136 266.81 213.912C266.703 213.688 266.559 213.523 266.378 213.416C266.207 213.299 266.015 213.24 265.802 213.24H265.61V219.32ZM270.894 221V211.752H272.958V216.696L275.374 211.752H277.406V221H275.294V216.104L272.942 221H270.894ZM279.019 221V211.752H283.627V213.512H281.627V221H279.019ZM284.9 223.688V221.88C285.231 221.88 285.503 221.859 285.716 221.816C285.94 221.773 286.105 221.693 286.212 221.576C286.329 221.459 286.388 221.299 286.388 221.096C286.388 220.915 286.356 220.696 286.292 220.44C286.228 220.173 286.148 219.875 286.052 219.544L283.876 211.752H286.324L287.492 217.096L288.372 211.752H290.836L288.708 221.224C288.569 221.864 288.351 222.36 288.052 222.712C287.753 223.075 287.385 223.325 286.948 223.464C286.521 223.613 286.036 223.688 285.492 223.688H284.9ZM291.816 224.04V211.752H294.424V212.424C294.733 212.147 295.064 211.939 295.416 211.8C295.768 211.661 296.104 211.592 296.424 211.592C296.776 211.592 297.075 211.661 297.32 211.8C297.576 211.939 297.784 212.136 297.944 212.392C298.104 212.637 298.221 212.925 298.296 213.256C298.371 213.587 298.408 213.939 298.408 214.312V218.296C298.408 218.872 298.328 219.373 298.168 219.8C298.019 220.227 297.795 220.563 297.496 220.808C297.197 221.043 296.829 221.16 296.392 221.16C296.061 221.16 295.725 221.085 295.384 220.936C295.053 220.776 294.733 220.563 294.424 220.296V224.04H291.816ZM295.112 219.48C295.283 219.48 295.416 219.432 295.512 219.336C295.608 219.24 295.677 219.117 295.72 218.968C295.773 218.808 295.8 218.632 295.8 218.44V214.12C295.8 213.939 295.779 213.779 295.736 213.64C295.693 213.491 295.624 213.373 295.528 213.288C295.432 213.203 295.309 213.16 295.16 213.16C295.021 213.16 294.888 213.192 294.76 213.256C294.643 213.309 294.531 213.384 294.424 213.48V219.24C294.541 219.315 294.653 219.373 294.76 219.416C294.877 219.459 294.995 219.48 295.112 219.48ZM299.894 221V211.752H302.502V215.464C302.513 215.464 302.518 215.464 302.518 215.464C302.529 215.464 302.539 215.464 302.55 215.464C302.561 215.464 302.571 215.464 302.582 215.464C303.222 215.464 303.787 215.512 304.278 215.608C304.769 215.693 305.174 215.843 305.494 216.056C305.825 216.259 306.075 216.536 306.246 216.888C306.417 217.24 306.502 217.683 306.502 218.216C306.502 218.717 306.427 219.144 306.278 219.496C306.139 219.848 305.91 220.136 305.59 220.36C305.281 220.584 304.875 220.749 304.374 220.856C303.883 220.952 303.291 221 302.598 221H299.894ZM302.502 219.512H302.55C302.945 219.512 303.254 219.475 303.478 219.4C303.713 219.315 303.878 219.181 303.974 219C304.081 218.808 304.134 218.557 304.134 218.248C304.134 217.917 304.081 217.667 303.974 217.496C303.878 217.315 303.713 217.187 303.478 217.112C303.254 217.037 302.955 217 302.582 217C302.571 217 302.555 217 302.534 217C302.523 217 302.513 217 302.502 217V219.512ZM307.494 221V211.752H310.102V221H307.494ZM318.84 221.16C318.168 221.16 317.592 221.037 317.112 220.792C316.642 220.547 316.28 220.195 316.024 219.736C315.768 219.277 315.64 218.723 315.64 218.072V214.68C315.64 214.019 315.768 213.459 316.024 213C316.28 212.541 316.642 212.195 317.112 211.96C317.592 211.715 318.168 211.592 318.84 211.592C319.501 211.592 320.061 211.693 320.52 211.896C320.989 212.099 321.346 212.408 321.592 212.824C321.837 213.229 321.96 213.747 321.96 214.376V215.352H319.448V214.296C319.448 214.051 319.421 213.864 319.368 213.736C319.325 213.597 319.256 213.501 319.16 213.448C319.074 213.395 318.968 213.368 318.84 213.368C318.712 213.368 318.605 213.405 318.52 213.48C318.434 213.544 318.37 213.656 318.328 213.816C318.285 213.965 318.264 214.179 318.264 214.456V218.296C318.264 218.712 318.312 218.995 318.408 219.144C318.514 219.293 318.664 219.368 318.856 219.368C318.994 219.368 319.106 219.341 319.192 219.288C319.277 219.224 319.341 219.128 319.384 219C319.426 218.861 319.448 218.68 319.448 218.456V217.224H321.96V218.344C321.96 218.963 321.832 219.485 321.576 219.912C321.33 220.328 320.973 220.643 320.504 220.856C320.045 221.059 319.49 221.16 318.84 221.16ZM326.356 221.16C325.695 221.16 325.119 221.048 324.628 220.824C324.148 220.6 323.775 220.264 323.508 219.816C323.252 219.368 323.124 218.808 323.124 218.136V214.616C323.124 213.944 323.252 213.384 323.508 212.936C323.775 212.488 324.148 212.152 324.628 211.928C325.119 211.704 325.695 211.592 326.356 211.592C327.017 211.592 327.588 211.704 328.068 211.928C328.559 212.152 328.937 212.488 329.204 212.936C329.471 213.384 329.604 213.944 329.604 214.616V218.136C329.604 218.808 329.471 219.368 329.204 219.816C328.937 220.264 328.559 220.6 328.068 220.824C327.588 221.048 327.017 221.16 326.356 221.16ZM326.372 219.432C326.543 219.432 326.676 219.389 326.772 219.304C326.868 219.208 326.932 219.08 326.964 218.92C327.007 218.749 327.028 218.547 327.028 218.312V214.44C327.028 214.205 327.007 214.008 326.964 213.848C326.932 213.677 326.868 213.549 326.772 213.464C326.676 213.368 326.543 213.32 326.372 213.32C326.201 213.32 326.068 213.368 325.972 213.464C325.876 213.549 325.807 213.677 325.764 213.848C325.721 214.008 325.7 214.205 325.7 214.44V218.312C325.7 218.547 325.721 218.749 325.764 218.92C325.807 219.08 325.876 219.208 325.972 219.304C326.068 219.389 326.201 219.432 326.372 219.432ZM331.05 221V211.752H337.61V221H335.002V213.528H333.658V221H331.05ZM342.246 221.16C341.574 221.16 340.998 221.043 340.518 220.808C340.038 220.563 339.67 220.211 339.414 219.752C339.158 219.283 339.03 218.723 339.03 218.072V214.68C339.03 214.019 339.158 213.459 339.414 213C339.67 212.541 340.038 212.195 340.518 211.96C341.009 211.715 341.585 211.592 342.246 211.592C342.929 211.592 343.494 211.709 343.942 211.944C344.401 212.179 344.742 212.525 344.966 212.984C345.201 213.443 345.318 214.008 345.318 214.68V216.536H341.606V218.312C341.606 218.547 341.633 218.739 341.686 218.888C341.74 219.037 341.814 219.144 341.91 219.208C342.006 219.272 342.118 219.304 342.246 219.304C342.374 219.304 342.486 219.277 342.582 219.224C342.689 219.16 342.769 219.064 342.822 218.936C342.886 218.808 342.918 218.632 342.918 218.408V217.432H345.318V218.328C345.318 219.267 345.046 219.976 344.502 220.456C343.958 220.925 343.206 221.16 342.246 221.16ZM341.606 215.32H342.918V214.392C342.918 214.147 342.886 213.955 342.822 213.816C342.769 213.677 342.689 213.581 342.582 213.528C342.486 213.475 342.369 213.448 342.23 213.448C342.102 213.448 341.99 213.48 341.894 213.544C341.809 213.608 341.74 213.72 341.686 213.88C341.633 214.029 341.606 214.248 341.606 214.536V215.32ZM346.738 224.04V211.752H349.346V212.424C349.655 212.147 349.986 211.939 350.338 211.8C350.69 211.661 351.026 211.592 351.346 211.592C351.698 211.592 351.997 211.661 352.242 211.8C352.498 211.939 352.706 212.136 352.866 212.392C353.026 212.637 353.143 212.925 353.218 213.256C353.293 213.587 353.33 213.939 353.33 214.312V218.296C353.33 218.872 353.25 219.373 353.09 219.8C352.941 220.227 352.717 220.563 352.418 220.808C352.119 221.043 351.751 221.16 351.314 221.16C350.983 221.16 350.647 221.085 350.306 220.936C349.975 220.776 349.655 220.563 349.346 220.296V224.04H346.738ZM350.034 219.48C350.205 219.48 350.338 219.432 350.434 219.336C350.53 219.24 350.599 219.117 350.642 218.968C350.695 218.808 350.722 218.632 350.722 218.44V214.12C350.722 213.939 350.701 213.779 350.658 213.64C350.615 213.491 350.546 213.373 350.45 213.288C350.354 213.203 350.231 213.16 350.082 213.16C349.943 213.16 349.81 213.192 349.682 213.256C349.565 213.309 349.453 213.384 349.346 213.48V219.24C349.463 219.315 349.575 219.373 349.682 219.416C349.799 219.459 349.917 219.48 350.034 219.48ZM354.816 221V211.752H357.424V215.336H358.976V211.752H361.6V221H358.976V217.128H357.424V221H354.816ZM363.222 221V211.752H365.286V216.696L367.702 211.752H369.734V221H367.622V216.104L365.27 221H363.222ZM371.347 221V211.752H373.955V215.4H374.339L375.747 211.752H378.547L376.723 216.12L378.595 221H375.843L374.339 216.904H373.955V221H371.347ZM381.408 221.16C380.938 221.16 380.544 221.048 380.224 220.824C379.904 220.6 379.664 220.317 379.504 219.976C379.344 219.624 379.264 219.267 379.264 218.904C379.264 218.328 379.376 217.843 379.6 217.448C379.834 217.053 380.138 216.723 380.512 216.456C380.885 216.189 381.296 215.965 381.744 215.784C382.192 215.592 382.634 215.421 383.072 215.272V214.344C383.072 214.184 383.056 214.045 383.024 213.928C382.992 213.8 382.938 213.704 382.864 213.64C382.789 213.565 382.677 213.528 382.528 213.528C382.378 213.528 382.261 213.56 382.176 213.624C382.101 213.688 382.048 213.779 382.016 213.896C381.984 214.003 381.962 214.125 381.952 214.264L381.888 214.936L379.456 214.84C379.509 213.731 379.802 212.915 380.336 212.392C380.88 211.859 381.69 211.592 382.768 211.592C383.706 211.592 384.405 211.853 384.864 212.376C385.333 212.888 385.568 213.555 385.568 214.376V218.696C385.568 219.08 385.573 219.416 385.584 219.704C385.605 219.992 385.626 220.243 385.648 220.456C385.68 220.669 385.706 220.851 385.728 221H383.391C383.36 220.755 383.322 220.488 383.28 220.2C383.237 219.912 383.205 219.741 383.184 219.688C383.077 220.072 382.874 220.413 382.576 220.712C382.288 221.011 381.898 221.16 381.408 221.16ZM382.336 219.4C382.442 219.4 382.538 219.379 382.624 219.336C382.72 219.293 382.805 219.235 382.88 219.16C382.954 219.085 383.018 219.011 383.072 218.936V216.408C382.858 216.536 382.661 216.669 382.48 216.808C382.298 216.936 382.144 217.08 382.016 217.24C381.888 217.4 381.786 217.576 381.712 217.768C381.648 217.949 381.616 218.157 381.616 218.392C381.616 218.701 381.68 218.947 381.808 219.128C381.936 219.309 382.112 219.4 382.336 219.4ZM386.857 223.864V222.024C387.145 222.024 387.38 221.896 387.561 221.64C387.753 221.384 387.902 221 388.009 220.488C388.116 219.976 388.19 219.341 388.233 218.584C388.276 217.827 388.297 216.941 388.297 215.928C388.297 214.925 388.276 214.04 388.233 213.272C388.201 212.504 388.132 211.859 388.025 211.336C387.929 210.803 387.785 210.403 387.593 210.136C387.412 209.859 387.166 209.72 386.857 209.72V207.896C387.561 207.896 388.148 208.029 388.617 208.296C389.086 208.563 389.46 208.947 389.737 209.448C390.025 209.939 390.238 210.52 390.377 211.192C390.516 211.864 390.606 212.6 390.649 213.4C390.692 214.2 390.713 215.043 390.713 215.928C390.713 216.749 390.692 217.549 390.649 218.328C390.606 219.107 390.516 219.832 390.377 220.504C390.238 221.176 390.025 221.763 389.737 222.264C389.46 222.765 389.086 223.155 388.617 223.432C388.148 223.72 387.561 223.864 386.857 223.864Z"></path>
</svg>
