<svg xmlns="http://www.w3.org/2000/svg" fill="none" viewBox="0 0 8 19" height="19" width="8">
<path fill-opacity="0.01" fill="white" d="M0.5 -0.00012207L7.5 -2.83268e-05V19L0.5 18.9999V-0.00012207Z"></path>
<path fill="#45D2FF" d="M4.74775 13.9999V10.0039C4.34775 10.0599 3.95575 10.0879 3.57175 10.0879C3.10775 10.0879 2.66775 9.99988 2.25175 9.82388C1.84375 9.63988 1.51175 9.37588 1.25575 9.03188C0.99975 8.67988 0.87175 8.25188 0.87175 7.74788V4.27988H3.01975V7.73588C3.01975 7.93588 3.03975 8.11588 3.07975 8.27588C3.12775 8.42788 3.23175 8.54788 3.39175 8.63588C3.55975 8.72388 3.81975 8.76788 4.17175 8.76788C4.25975 8.76788 4.35175 8.76388 4.44775 8.75588C4.54375 8.74788 4.64375 8.73588 4.74775 8.71988V4.27988H6.89575V13.9999H4.74775Z"></path>
</svg>
