<svg xmlns="http://www.w3.org/2000/svg" fill="none" viewBox="0 0 214 84" height="84" width="214">
<mask fill="white" id="path-1-inside-1_1356_6">
<path d="M0 0H214V84H0V0Z"></path>
</mask>
<path fill="#0D0E12" d="M0 0H214V84H0V0Z"></path>
<path mask="url(#path-1-inside-1_1356_6)" fill="white" d="M0 0V-1H-1V0H0ZM0 84H-1V85H0V84ZM0 1H214V-1H0V1ZM214 83H0V85H214V83ZM1 84V0H-1V84H1Z"></path>
<path fill="white" d="M16.684 38L16.852 28.28H19.156L20.224 33.932L21.376 28.28H23.596L23.764 38H22.24L22.06 31.532L20.932 38H19.576L18.376 31.484L18.232 38H16.684ZM25.1692 38V28.28H29.5372V29.744H27.3172V32.156H29.0092V33.644H27.3172V36.548H29.5612V38H25.1692ZM33.1164 38.144C32.5084 38.144 32.0004 38.036 31.5924 37.82C31.1844 37.604 30.8764 37.272 30.6684 36.824C30.4604 36.368 30.3444 35.78 30.3204 35.06L32.1564 34.784C32.1644 35.2 32.2004 35.536 32.2644 35.792C32.3364 36.048 32.4324 36.232 32.5524 36.344C32.6804 36.456 32.8324 36.512 33.0084 36.512C33.2324 36.512 33.3764 36.436 33.4404 36.284C33.5124 36.132 33.5484 35.972 33.5484 35.804C33.5484 35.404 33.4524 35.068 33.2604 34.796C33.0684 34.516 32.8084 34.236 32.4804 33.956L31.6404 33.224C31.2724 32.912 30.9604 32.56 30.7044 32.168C30.4564 31.768 30.3324 31.276 30.3324 30.692C30.3324 29.868 30.5764 29.24 31.0644 28.808C31.5524 28.368 32.2164 28.148 33.0564 28.148C33.5764 28.148 33.9924 28.236 34.3044 28.412C34.6244 28.588 34.8644 28.82 35.0244 29.108C35.1924 29.388 35.3044 29.688 35.3604 30.008C35.4244 30.32 35.4604 30.62 35.4684 30.908L33.6204 31.136C33.6124 30.848 33.5924 30.6 33.5604 30.392C33.5364 30.176 33.4804 30.012 33.3924 29.9C33.3044 29.78 33.1684 29.72 32.9844 29.72C32.7844 29.72 32.6364 29.804 32.5404 29.972C32.4524 30.14 32.4084 30.308 32.4084 30.476C32.4084 30.836 32.4924 31.132 32.6604 31.364C32.8364 31.588 33.0644 31.824 33.3444 32.072L34.1484 32.78C34.5724 33.14 34.9284 33.548 35.2164 34.004C35.5124 34.46 35.6604 35.024 35.6604 35.696C35.6604 36.152 35.5564 36.568 35.3484 36.944C35.1404 37.312 34.8444 37.604 34.4604 37.82C34.0844 38.036 33.6364 38.144 33.1164 38.144ZM39.093 38.144C38.485 38.144 37.977 38.036 37.569 37.82C37.161 37.604 36.853 37.272 36.645 36.824C36.437 36.368 36.321 35.78 36.297 35.06L38.133 34.784C38.141 35.2 38.177 35.536 38.241 35.792C38.313 36.048 38.409 36.232 38.529 36.344C38.657 36.456 38.809 36.512 38.985 36.512C39.209 36.512 39.353 36.436 39.417 36.284C39.489 36.132 39.525 35.972 39.525 35.804C39.525 35.404 39.429 35.068 39.237 34.796C39.045 34.516 38.785 34.236 38.457 33.956L37.617 33.224C37.249 32.912 36.937 32.56 36.681 32.168C36.433 31.768 36.309 31.276 36.309 30.692C36.309 29.868 36.553 29.24 37.041 28.808C37.529 28.368 38.193 28.148 39.033 28.148C39.553 28.148 39.969 28.236 40.281 28.412C40.601 28.588 40.841 28.82 41.001 29.108C41.169 29.388 41.281 29.688 41.337 30.008C41.401 30.32 41.437 30.62 41.445 30.908L39.597 31.136C39.589 30.848 39.569 30.6 39.537 30.392C39.513 30.176 39.457 30.012 39.369 29.9C39.281 29.78 39.145 29.72 38.961 29.72C38.761 29.72 38.613 29.804 38.517 29.972C38.429 30.14 38.385 30.308 38.385 30.476C38.385 30.836 38.469 31.132 38.637 31.364C38.813 31.588 39.041 31.824 39.321 32.072L40.125 32.78C40.549 33.14 40.905 33.548 41.193 34.004C41.489 34.46 41.637 35.024 41.637 35.696C41.637 36.152 41.533 36.568 41.325 36.944C41.117 37.312 40.821 37.604 40.437 37.82C40.061 38.036 39.613 38.144 39.093 38.144ZM42.1153 38L43.9513 28.28H46.3993L48.2113 38H46.2313L45.9073 35.948H44.4793L44.1433 38H42.1153ZM44.6713 34.664H45.7033L45.1873 30.872L44.6713 34.664ZM51.5723 38.144C50.9003 38.144 50.3683 38.004 49.9763 37.724C49.5923 37.444 49.3163 37.052 49.1483 36.548C48.9883 36.036 48.9083 35.448 48.9083 34.784V31.52C48.9083 30.832 48.9963 30.236 49.1723 29.732C49.3483 29.228 49.6483 28.84 50.0723 28.568C50.5043 28.288 51.0883 28.148 51.8243 28.148C52.5443 28.148 53.1083 28.268 53.5163 28.508C53.9323 28.748 54.2283 29.08 54.4043 29.504C54.5803 29.928 54.6683 30.424 54.6683 30.992V31.616H52.5683V30.824C52.5683 30.616 52.5523 30.424 52.5203 30.248C52.4963 30.072 52.4323 29.932 52.3283 29.828C52.2323 29.716 52.0723 29.66 51.8483 29.66C51.6163 29.66 51.4483 29.724 51.3443 29.852C51.2403 29.972 51.1723 30.124 51.1403 30.308C51.1163 30.492 51.1043 30.684 51.1043 30.884V35.384C51.1043 35.6 51.1243 35.804 51.1643 35.996C51.2123 36.18 51.2923 36.332 51.4043 36.452C51.5243 36.564 51.6923 36.62 51.9083 36.62C52.1323 36.62 52.3043 36.56 52.4243 36.44C52.5443 36.32 52.6283 36.164 52.6763 35.972C52.7243 35.78 52.7483 35.576 52.7483 35.36V34.22H51.8723V32.96H54.6803V38H53.2643L53.1443 37.196C53.0163 37.468 52.8283 37.696 52.5803 37.88C52.3323 38.056 51.9963 38.144 51.5723 38.144ZM56.0247 38V28.28H60.3927V29.744H58.1727V32.156H59.8647V33.644H58.1727V36.548H60.4167V38H56.0247Z"></path>
<path fill="white" d="M16.19 56L17.91 47.9H19L20.73 56H19.66L19.29 53.96H17.64L17.25 56H16.19ZM17.79 53.15H19.14L18.46 49.5L17.79 53.15ZM21.4619 56V50.22H22.5319V50.79C22.7252 50.61 22.9385 50.4567 23.1719 50.33C23.4052 50.2033 23.6619 50.14 23.9419 50.14C24.1752 50.14 24.3519 50.2 24.4719 50.32C24.5985 50.44 24.6852 50.59 24.7319 50.77C24.7852 50.95 24.8119 51.1333 24.8119 51.32V56H23.7419V51.63C23.7419 51.4233 23.7119 51.2633 23.6519 51.15C23.5919 51.0367 23.4685 50.98 23.2819 50.98C23.1619 50.98 23.0352 51.0167 22.9019 51.09C22.7752 51.1567 22.6519 51.24 22.5319 51.34V56H21.4619ZM28.9716 56.08C28.7449 56.08 28.5682 56.02 28.4416 55.9C28.3149 55.78 28.2249 55.63 28.1716 55.45C28.1249 55.27 28.1016 55.0867 28.1016 54.9V50.22H29.1716V54.58C29.1716 54.7867 29.2016 54.95 29.2616 55.07C29.3216 55.1833 29.4449 55.24 29.6316 55.24C29.7516 55.24 29.8749 55.2067 30.0016 55.14C30.1349 55.0667 30.2616 54.98 30.3816 54.88V50.22H31.4516V56H30.3816V55.43C30.1949 55.61 29.9816 55.7633 29.7416 55.89C29.5082 56.0167 29.2516 56.08 28.9716 56.08ZM32.5459 56V50.22H33.6159V50.79C33.8092 50.61 34.0225 50.4567 34.2559 50.33C34.4892 50.2033 34.7459 50.14 35.0259 50.14C35.2592 50.14 35.4359 50.2 35.5559 50.32C35.6825 50.44 35.7692 50.59 35.8159 50.77C35.8692 50.95 35.8959 51.1333 35.8959 51.32V56H34.8259V51.63C34.8259 51.4233 34.7959 51.2633 34.7359 51.15C34.6759 51.0367 34.5525 50.98 34.3659 50.98C34.2459 50.98 34.1192 51.0167 33.9859 51.09C33.8592 51.1567 33.7359 51.24 33.6159 51.34V56H32.5459ZM38.5404 56.08C38.0871 56.08 37.7371 55.9933 37.4904 55.82C37.2437 55.64 37.0704 55.38 36.9704 55.04C36.8771 54.6933 36.8304 54.27 36.8304 53.77V52.45C36.8304 51.9367 36.8804 51.51 36.9804 51.17C37.0804 50.83 37.2537 50.5733 37.5004 50.4C37.7537 50.2267 38.1004 50.14 38.5404 50.14C39.0271 50.14 39.3837 50.24 39.6104 50.44C39.8437 50.64 39.9971 50.93 40.0704 51.31C40.1437 51.6833 40.1804 52.1333 40.1804 52.66V53.13H37.9004V54.29C37.9004 54.5233 37.9204 54.7133 37.9604 54.86C38.0071 55.0067 38.0771 55.1167 38.1704 55.19C38.2704 55.2567 38.3971 55.29 38.5504 55.29C38.7104 55.29 38.8304 55.2533 38.9104 55.18C38.9971 55.1 39.0537 54.99 39.0804 54.85C39.1137 54.7033 39.1304 54.5333 39.1304 54.34V53.99H40.1704V54.21C40.1704 54.79 40.0471 55.2467 39.8004 55.58C39.5537 55.9133 39.1337 56.08 38.5404 56.08ZM37.9004 52.55H39.1304V52.03C39.1304 51.79 39.1171 51.59 39.0904 51.43C39.0637 51.2633 39.0071 51.14 38.9204 51.06C38.8404 50.9733 38.7104 50.93 38.5304 50.93C38.3571 50.93 38.2237 50.97 38.1304 51.05C38.0437 51.13 37.9837 51.2667 37.9504 51.46C37.9171 51.6467 37.9004 51.9067 37.9004 52.24V52.55ZM40.6994 56L41.9994 52.96L40.7294 50.22H41.7494L42.5994 52.05L43.3494 50.22H44.3994L43.0794 53.09L44.4194 56H43.3994L42.4894 54.04L41.7094 56H40.6994ZM45.0361 57.9V50.22H46.1061V50.68C46.2328 50.5333 46.3861 50.4067 46.5661 50.3C46.7461 50.1933 46.9594 50.14 47.2061 50.14C47.5061 50.14 47.7428 50.22 47.9161 50.38C48.0961 50.5333 48.2294 50.73 48.3161 50.97C48.4028 51.2033 48.4594 51.4433 48.4861 51.69C48.5128 51.93 48.5261 52.1367 48.5261 52.31V53.71C48.5261 54.1167 48.4861 54.5033 48.4061 54.87C48.3261 55.23 48.1794 55.5233 47.9661 55.75C47.7594 55.97 47.4661 56.08 47.0861 56.08C46.8794 56.08 46.6961 56.03 46.5361 55.93C46.3761 55.8233 46.2328 55.7033 46.1061 55.57V57.9H45.0361ZM46.8761 55.24C47.0628 55.24 47.1961 55.1733 47.2761 55.04C47.3561 54.9 47.4061 54.7133 47.4261 54.48C47.4461 54.2467 47.4561 53.99 47.4561 53.71V52.31C47.4561 52.07 47.4428 51.85 47.4161 51.65C47.3894 51.4433 47.3328 51.28 47.2461 51.16C47.1594 51.04 47.0228 50.98 46.8361 50.98C46.6961 50.98 46.5628 51.01 46.4361 51.07C46.3094 51.13 46.1994 51.2 46.1061 51.28V54.98C46.2061 55.0533 46.3194 55.1167 46.4461 55.17C46.5728 55.2167 46.7161 55.24 46.8761 55.24ZM51.099 56.08C50.6457 56.08 50.2957 55.9933 50.049 55.82C49.8023 55.64 49.629 55.38 49.529 55.04C49.4357 54.6933 49.389 54.27 49.389 53.77V52.45C49.389 51.9367 49.439 51.51 49.539 51.17C49.639 50.83 49.8123 50.5733 50.059 50.4C50.3123 50.2267 50.659 50.14 51.099 50.14C51.5857 50.14 51.9423 50.24 52.169 50.44C52.4023 50.64 52.5557 50.93 52.629 51.31C52.7023 51.6833 52.739 52.1333 52.739 52.66V53.13H50.459V54.29C50.459 54.5233 50.479 54.7133 50.519 54.86C50.5657 55.0067 50.6357 55.1167 50.729 55.19C50.829 55.2567 50.9557 55.29 51.109 55.29C51.269 55.29 51.389 55.2533 51.469 55.18C51.5557 55.1 51.6123 54.99 51.639 54.85C51.6723 54.7033 51.689 54.5333 51.689 54.34V53.99H52.729V54.21C52.729 54.79 52.6057 55.2467 52.359 55.58C52.1123 55.9133 51.6923 56.08 51.099 56.08ZM50.459 52.55H51.689V52.03C51.689 51.79 51.6757 51.59 51.649 51.43C51.6223 51.2633 51.5657 51.14 51.479 51.06C51.399 50.9733 51.269 50.93 51.089 50.93C50.9157 50.93 50.7823 50.97 50.689 51.05C50.6023 51.13 50.5423 51.2667 50.509 51.46C50.4757 51.6467 50.459 51.9067 50.459 52.24V52.55ZM55.288 56.08C54.8146 56.08 54.4546 55.9867 54.208 55.8C53.968 55.6067 53.8046 55.3367 53.718 54.99C53.638 54.6433 53.598 54.24 53.598 53.78V52.45C53.598 51.9633 53.6413 51.55 53.728 51.21C53.8146 50.8633 53.978 50.6 54.218 50.42C54.4646 50.2333 54.8213 50.14 55.288 50.14C55.708 50.14 56.0313 50.21 56.258 50.35C56.4913 50.4833 56.6513 50.6867 56.738 50.96C56.8246 51.2267 56.868 51.56 56.868 51.96V52.3H55.898V51.95C55.898 51.6967 55.8813 51.4967 55.848 51.35C55.8146 51.2033 55.7546 51.0967 55.668 51.03C55.5813 50.9633 55.458 50.93 55.298 50.93C55.1246 50.93 54.9913 50.97 54.898 51.05C54.8046 51.13 54.7413 51.2667 54.708 51.46C54.6813 51.6467 54.668 51.9033 54.668 52.23V54.05C54.668 54.5433 54.7146 54.8733 54.808 55.04C54.9013 55.2067 55.068 55.29 55.308 55.29C55.488 55.29 55.618 55.25 55.698 55.17C55.7846 55.0833 55.838 54.9633 55.858 54.81C55.8846 54.6567 55.898 54.4833 55.898 54.29V53.82H56.868V54.22C56.868 54.6067 56.8213 54.94 56.728 55.22C56.6413 55.5 56.4813 55.7133 56.248 55.86C56.0213 56.0067 55.7013 56.08 55.288 56.08ZM59.3593 56.08C59.0593 56.08 58.816 56.0233 58.6293 55.91C58.4493 55.7967 58.316 55.6367 58.2293 55.43C58.1493 55.2233 58.1093 54.98 58.1093 54.7V50.93H57.4993V50.22H58.1093V48.53H59.1793V50.22H60.1093V50.93H59.1793V54.63C59.1793 54.8567 59.216 55.02 59.2893 55.12C59.3626 55.2133 59.5026 55.26 59.7093 55.26C59.7626 55.26 59.8226 55.2567 59.8893 55.25C59.9626 55.2433 60.0326 55.2367 60.0993 55.23V56.02C59.966 56.04 59.8426 56.0533 59.7293 56.06C59.616 56.0733 59.4926 56.08 59.3593 56.08ZM62.4955 56.08C62.0421 56.08 61.6921 55.9933 61.4455 55.82C61.1988 55.64 61.0255 55.38 60.9255 55.04C60.8321 54.6933 60.7855 54.27 60.7855 53.77V52.45C60.7855 51.9367 60.8355 51.51 60.9355 51.17C61.0355 50.83 61.2088 50.5733 61.4555 50.4C61.7088 50.2267 62.0555 50.14 62.4955 50.14C62.9821 50.14 63.3388 50.24 63.5655 50.44C63.7988 50.64 63.9521 50.93 64.0255 51.31C64.0988 51.6833 64.1355 52.1333 64.1355 52.66V53.13H61.8555V54.29C61.8555 54.5233 61.8755 54.7133 61.9155 54.86C61.9621 55.0067 62.0321 55.1167 62.1255 55.19C62.2255 55.2567 62.3521 55.29 62.5055 55.29C62.6655 55.29 62.7855 55.2533 62.8655 55.18C62.9521 55.1 63.0088 54.99 63.0355 54.85C63.0688 54.7033 63.0855 54.5333 63.0855 54.34V53.99H64.1255V54.21C64.1255 54.79 64.0021 55.2467 63.7555 55.58C63.5088 55.9133 63.0888 56.08 62.4955 56.08ZM61.8555 52.55H63.0855V52.03C63.0855 51.79 63.0721 51.59 63.0455 51.43C63.0188 51.2633 62.9621 51.14 62.8755 51.06C62.7955 50.9733 62.6655 50.93 62.4855 50.93C62.3121 50.93 62.1788 50.97 62.0855 51.05C61.9988 51.13 61.9388 51.2667 61.9055 51.46C61.8721 51.6467 61.8555 51.9067 61.8555 52.24V52.55ZM66.4445 56.08C65.9578 56.08 65.5945 55.9033 65.3545 55.55C65.1145 55.19 64.9945 54.5833 64.9945 53.73V52.61C64.9945 52.17 65.0311 51.7633 65.1045 51.39C65.1778 51.01 65.3145 50.7067 65.5145 50.48C65.7211 50.2533 66.0211 50.14 66.4145 50.14C66.6078 50.14 66.7845 50.1833 66.9445 50.27C67.1045 50.3567 67.2478 50.4633 67.3745 50.59V47.9H68.4445V56H67.3745V55.63C67.2478 55.7633 67.1078 55.8733 66.9545 55.96C66.8078 56.04 66.6378 56.08 66.4445 56.08ZM66.7145 55.24C66.8145 55.24 66.9211 55.2233 67.0345 55.19C67.1478 55.15 67.2611 55.0933 67.3745 55.02V51.23C67.2811 51.1633 67.1778 51.1067 67.0645 51.06C66.9511 51.0067 66.8278 50.98 66.6945 50.98C66.4478 50.98 66.2811 51.1 66.1945 51.34C66.1078 51.5733 66.0645 51.8567 66.0645 52.19V53.82C66.0645 54.0867 66.0778 54.33 66.1045 54.55C66.1378 54.7633 66.2011 54.9333 66.2945 55.06C66.3878 55.18 66.5278 55.24 66.7145 55.24ZM73.4134 56.08C72.9601 56.08 72.6101 55.9933 72.3634 55.82C72.1168 55.64 71.9434 55.38 71.8434 55.04C71.7501 54.6933 71.7034 54.27 71.7034 53.77V52.45C71.7034 51.9367 71.7534 51.51 71.8534 51.17C71.9534 50.83 72.1268 50.5733 72.3734 50.4C72.6268 50.2267 72.9734 50.14 73.4134 50.14C73.9001 50.14 74.2568 50.24 74.4834 50.44C74.7168 50.64 74.8701 50.93 74.9434 51.31C75.0168 51.6833 75.0534 52.1333 75.0534 52.66V53.13H72.7734V54.29C72.7734 54.5233 72.7934 54.7133 72.8334 54.86C72.8801 55.0067 72.9501 55.1167 73.0434 55.19C73.1434 55.2567 73.2701 55.29 73.4234 55.29C73.5834 55.29 73.7034 55.2533 73.7834 55.18C73.8701 55.1 73.9268 54.99 73.9534 54.85C73.9868 54.7033 74.0034 54.5333 74.0034 54.34V53.99H75.0434V54.21C75.0434 54.79 74.9201 55.2467 74.6734 55.58C74.4268 55.9133 74.0068 56.08 73.4134 56.08ZM72.7734 52.55H74.0034V52.03C74.0034 51.79 73.9901 51.59 73.9634 51.43C73.9368 51.2633 73.8801 51.14 73.7934 51.06C73.7134 50.9733 73.5834 50.93 73.4034 50.93C73.2301 50.93 73.0968 50.97 73.0034 51.05C72.9168 51.13 72.8568 51.2667 72.8234 51.46C72.7901 51.6467 72.7734 51.9067 72.7734 52.24V52.55ZM76.0524 56V50.22H77.1224V51.04C77.3358 50.6867 77.5491 50.45 77.7624 50.33C77.9758 50.21 78.1891 50.15 78.4024 50.15C78.4291 50.15 78.4524 50.15 78.4724 50.15C78.4991 50.15 78.5324 50.1533 78.5724 50.16V51.34C78.4924 51.3067 78.3991 51.28 78.2924 51.26C78.1924 51.2333 78.0891 51.22 77.9824 51.22C77.8158 51.22 77.6624 51.26 77.5224 51.34C77.3891 51.4133 77.2558 51.56 77.1224 51.78V56H76.0524ZM79.2653 56V50.22H80.3353V51.04C80.5486 50.6867 80.762 50.45 80.9753 50.33C81.1886 50.21 81.402 50.15 81.6153 50.15C81.642 50.15 81.6653 50.15 81.6853 50.15C81.712 50.15 81.7453 50.1533 81.7853 50.16V51.34C81.7053 51.3067 81.612 51.28 81.5053 51.26C81.4053 51.2333 81.302 51.22 81.1953 51.22C81.0286 51.22 80.8753 51.26 80.7353 51.34C80.602 51.4133 80.4686 51.56 80.3353 51.78V56H79.2653ZM84.0382 56.08C83.6115 56.08 83.2749 55.9933 83.0282 55.82C82.7815 55.6467 82.6049 55.4 82.4982 55.08C82.3982 54.76 82.3482 54.3833 82.3482 53.95V52.27C82.3482 51.8367 82.3982 51.46 82.4982 51.14C82.6049 50.82 82.7815 50.5733 83.0282 50.4C83.2749 50.2267 83.6115 50.14 84.0382 50.14C84.4649 50.14 84.7982 50.2267 85.0382 50.4C85.2849 50.5733 85.4582 50.82 85.5582 51.14C85.6649 51.46 85.7182 51.8367 85.7182 52.27V53.95C85.7182 54.3833 85.6649 54.76 85.5582 55.08C85.4582 55.4 85.2849 55.6467 85.0382 55.82C84.7982 55.9933 84.4649 56.08 84.0382 56.08ZM84.0382 55.29C84.2449 55.29 84.3882 55.23 84.4682 55.11C84.5549 54.99 84.6049 54.8333 84.6182 54.64C84.6382 54.44 84.6482 54.2333 84.6482 54.02V52.21C84.6482 51.99 84.6382 51.7833 84.6182 51.59C84.6049 51.3967 84.5549 51.24 84.4682 51.12C84.3882 50.9933 84.2449 50.93 84.0382 50.93C83.8315 50.93 83.6849 50.9933 83.5982 51.12C83.5115 51.24 83.4582 51.3967 83.4382 51.59C83.4249 51.7833 83.4182 51.99 83.4182 52.21V54.02C83.4182 54.2333 83.4249 54.44 83.4382 54.64C83.4582 54.8333 83.5115 54.99 83.5982 55.11C83.6849 55.23 83.8315 55.29 84.0382 55.29ZM86.7263 56V50.22H87.7963V51.04C88.0096 50.6867 88.2229 50.45 88.4363 50.33C88.6496 50.21 88.8629 50.15 89.0763 50.15C89.1029 50.15 89.1263 50.15 89.1463 50.15C89.1729 50.15 89.2063 50.1533 89.2463 50.16V51.34C89.1663 51.3067 89.0729 51.28 88.9663 51.26C88.8663 51.2333 88.7629 51.22 88.6562 51.22C88.4896 51.22 88.3363 51.26 88.1963 51.34C88.0629 51.4133 87.9296 51.56 87.7963 51.78V56H86.7263ZM93.7843 56.08C93.3576 56.08 93.021 55.9933 92.7743 55.82C92.5276 55.6467 92.351 55.4 92.2443 55.08C92.1443 54.76 92.0943 54.3833 92.0943 53.95V52.27C92.0943 51.8367 92.1443 51.46 92.2443 51.14C92.351 50.82 92.5276 50.5733 92.7743 50.4C93.021 50.2267 93.3576 50.14 93.7843 50.14C94.211 50.14 94.5443 50.2267 94.7843 50.4C95.031 50.5733 95.2043 50.82 95.3043 51.14C95.411 51.46 95.4643 51.8367 95.4643 52.27V53.95C95.4643 54.3833 95.411 54.76 95.3043 55.08C95.2043 55.4 95.031 55.6467 94.7843 55.82C94.5443 55.9933 94.211 56.08 93.7843 56.08ZM93.7843 55.29C93.991 55.29 94.1343 55.23 94.2143 55.11C94.301 54.99 94.351 54.8333 94.3643 54.64C94.3843 54.44 94.3943 54.2333 94.3943 54.02V52.21C94.3943 51.99 94.3843 51.7833 94.3643 51.59C94.351 51.3967 94.301 51.24 94.2143 51.12C94.1343 50.9933 93.991 50.93 93.7843 50.93C93.5776 50.93 93.431 50.9933 93.3443 51.12C93.2576 51.24 93.2043 51.3967 93.1843 51.59C93.171 51.7833 93.1643 51.99 93.1643 52.21V54.02C93.1643 54.2333 93.171 54.44 93.1843 54.64C93.2043 54.8333 93.2576 54.99 93.3443 55.11C93.431 55.23 93.5776 55.29 93.7843 55.29ZM98.0223 56.08C97.549 56.08 97.189 55.9867 96.9423 55.8C96.7023 55.6067 96.539 55.3367 96.4523 54.99C96.3723 54.6433 96.3323 54.24 96.3323 53.78V52.45C96.3323 51.9633 96.3757 51.55 96.4623 51.21C96.549 50.8633 96.7123 50.6 96.9523 50.42C97.199 50.2333 97.5557 50.14 98.0223 50.14C98.4423 50.14 98.7657 50.21 98.9923 50.35C99.2257 50.4833 99.3857 50.6867 99.4723 50.96C99.559 51.2267 99.6023 51.56 99.6023 51.96V52.3H98.6323V51.95C98.6323 51.6967 98.6157 51.4967 98.5823 51.35C98.549 51.2033 98.489 51.0967 98.4023 51.03C98.3157 50.9633 98.1923 50.93 98.0323 50.93C97.859 50.93 97.7257 50.97 97.6323 51.05C97.539 51.13 97.4757 51.2667 97.4423 51.46C97.4157 51.6467 97.4023 51.9033 97.4023 52.23V54.05C97.4023 54.5433 97.449 54.8733 97.5423 55.04C97.6357 55.2067 97.8023 55.29 98.0423 55.29C98.2223 55.29 98.3523 55.25 98.4323 55.17C98.519 55.0833 98.5723 54.9633 98.5923 54.81C98.619 54.6567 98.6323 54.4833 98.6323 54.29V53.82H99.6023V54.22C99.6023 54.6067 99.5557 54.94 99.4623 55.22C99.3757 55.5 99.2157 55.7133 98.9823 55.86C98.7557 56.0067 98.4357 56.08 98.0223 56.08ZM102.134 56.08C101.66 56.08 101.3 55.9867 101.054 55.8C100.814 55.6067 100.65 55.3367 100.564 54.99C100.484 54.6433 100.444 54.24 100.444 53.78V52.45C100.444 51.9633 100.487 51.55 100.574 51.21C100.66 50.8633 100.824 50.6 101.064 50.42C101.31 50.2333 101.667 50.14 102.134 50.14C102.554 50.14 102.877 50.21 103.104 50.35C103.337 50.4833 103.497 50.6867 103.584 50.96C103.67 51.2267 103.714 51.56 103.714 51.96V52.3H102.744V51.95C102.744 51.6967 102.727 51.4967 102.694 51.35C102.66 51.2033 102.6 51.0967 102.514 51.03C102.427 50.9633 102.304 50.93 102.144 50.93C101.97 50.93 101.837 50.97 101.744 51.05C101.65 51.13 101.587 51.2667 101.554 51.46C101.527 51.6467 101.514 51.9033 101.514 52.23V54.05C101.514 54.5433 101.56 54.8733 101.654 55.04C101.747 55.2067 101.914 55.29 102.154 55.29C102.334 55.29 102.464 55.25 102.544 55.17C102.63 55.0833 102.684 54.9633 102.704 54.81C102.73 54.6567 102.744 54.4833 102.744 54.29V53.82H103.714V54.22C103.714 54.6067 103.667 54.94 103.574 55.22C103.487 55.5 103.327 55.7133 103.094 55.86C102.867 56.0067 102.547 56.08 102.134 56.08ZM105.495 56.08C105.268 56.08 105.092 56.02 104.965 55.9C104.838 55.78 104.748 55.63 104.695 55.45C104.648 55.27 104.625 55.0867 104.625 54.9V50.22H105.695V54.58C105.695 54.7867 105.725 54.95 105.785 55.07C105.845 55.1833 105.968 55.24 106.155 55.24C106.275 55.24 106.398 55.2067 106.525 55.14C106.658 55.0667 106.785 54.98 106.905 54.88V50.22H107.975V56H106.905V55.43C106.718 55.61 106.505 55.7633 106.265 55.89C106.032 56.0167 105.775 56.08 105.495 56.08ZM109.099 56V50.22H110.169V51.04C110.383 50.6867 110.596 50.45 110.809 50.33C111.023 50.21 111.236 50.15 111.449 50.15C111.476 50.15 111.499 50.15 111.519 50.15C111.546 50.15 111.579 50.1533 111.619 50.16V51.34C111.539 51.3067 111.446 51.28 111.339 51.26C111.239 51.2333 111.136 51.22 111.029 51.22C110.863 51.22 110.709 51.26 110.569 51.34C110.436 51.4133 110.303 51.56 110.169 51.78V56H109.099ZM112.312 56V50.22H113.382V51.04C113.596 50.6867 113.809 50.45 114.022 50.33C114.236 50.21 114.449 50.15 114.662 50.15C114.689 50.15 114.712 50.15 114.732 50.15C114.759 50.15 114.792 50.1533 114.832 50.16V51.34C114.752 51.3067 114.659 51.28 114.552 51.26C114.452 51.2333 114.349 51.22 114.242 51.22C114.076 51.22 113.922 51.26 113.782 51.34C113.649 51.4133 113.516 51.56 113.382 51.78V56H112.312ZM117.095 56.08C116.642 56.08 116.292 55.9933 116.045 55.82C115.798 55.64 115.625 55.38 115.525 55.04C115.432 54.6933 115.385 54.27 115.385 53.77V52.45C115.385 51.9367 115.435 51.51 115.535 51.17C115.635 50.83 115.808 50.5733 116.055 50.4C116.308 50.2267 116.655 50.14 117.095 50.14C117.582 50.14 117.938 50.24 118.165 50.44C118.398 50.64 118.552 50.93 118.625 51.31C118.698 51.6833 118.735 52.1333 118.735 52.66V53.13H116.455V54.29C116.455 54.5233 116.475 54.7133 116.515 54.86C116.562 55.0067 116.632 55.1167 116.725 55.19C116.825 55.2567 116.952 55.29 117.105 55.29C117.265 55.29 117.385 55.2533 117.465 55.18C117.552 55.1 117.608 54.99 117.635 54.85C117.668 54.7033 117.685 54.5333 117.685 54.34V53.99H118.725V54.21C118.725 54.79 118.602 55.2467 118.355 55.58C118.108 55.9133 117.688 56.08 117.095 56.08ZM116.455 52.55H117.685V52.03C117.685 51.79 117.672 51.59 117.645 51.43C117.618 51.2633 117.562 51.14 117.475 51.06C117.395 50.9733 117.265 50.93 117.085 50.93C116.912 50.93 116.778 50.97 116.685 51.05C116.598 51.13 116.538 51.2667 116.505 51.46C116.472 51.6467 116.455 51.9067 116.455 52.24V52.55ZM121.044 56.08C120.557 56.08 120.194 55.9033 119.954 55.55C119.714 55.19 119.594 54.5833 119.594 53.73V52.61C119.594 52.17 119.631 51.7633 119.704 51.39C119.777 51.01 119.914 50.7067 120.114 50.48C120.321 50.2533 120.621 50.14 121.014 50.14C121.207 50.14 121.384 50.1833 121.544 50.27C121.704 50.3567 121.847 50.4633 121.974 50.59V47.9H123.044V56H121.974V55.63C121.847 55.7633 121.707 55.8733 121.554 55.96C121.407 56.04 121.237 56.08 121.044 56.08ZM121.314 55.24C121.414 55.24 121.521 55.2233 121.634 55.19C121.747 55.15 121.861 55.0933 121.974 55.02V51.23C121.881 51.1633 121.777 51.1067 121.664 51.06C121.551 51.0067 121.427 50.98 121.294 50.98C121.047 50.98 120.881 51.1 120.794 51.34C120.707 51.5733 120.664 51.8567 120.664 52.19V53.82C120.664 54.0867 120.677 54.33 120.704 54.55C120.737 54.7633 120.801 54.9333 120.894 55.06C120.987 55.18 121.127 55.24 121.314 55.24ZM124.078 56V54.81H125.148V56H124.078ZM125.963 56V54.81H127.033V56H125.963ZM127.847 56V54.81H128.917V56H127.847Z"></path>
</svg>
