<svg xmlns="http://www.w3.org/2000/svg" fill="none" viewBox="0 0 7 19" height="19" width="7">
<path fill-opacity="0.01" fill="white" d="M0.5 0H6.49996V19H0.5V0Z"></path>
<path fill="#45D2FF" d="M3.58348 14.144C2.95148 14.144 2.43548 14.008 2.03548 13.736C1.64348 13.456 1.35548 13.076 1.17148 12.596C0.987484 12.116 0.895484 11.568 0.895484 10.952V7.436C0.895484 6.804 0.967484 6.24 1.11148 5.744C1.26348 5.248 1.53148 4.86 1.91548 4.58C2.29948 4.292 2.85148 4.148 3.57148 4.148C4.19548 4.148 4.68748 4.244 5.04748 4.436C5.40748 4.628 5.66348 4.908 5.81548 5.276C5.96748 5.644 6.04348 6.1 6.04348 6.644C6.04348 6.676 6.04348 6.708 6.04348 6.74C6.05148 6.764 6.05548 6.788 6.05548 6.812H4.17148C4.17148 6.42 4.13948 6.132 4.07548 5.948C4.01948 5.756 3.85548 5.66 3.58348 5.66C3.39948 5.66 3.25948 5.716 3.16348 5.828C3.07548 5.94 3.01548 6.136 2.98348 6.416C2.95148 6.696 2.93548 7.088 2.93548 7.592V8.456C3.03148 8.288 3.18748 8.16 3.40348 8.072C3.61948 7.976 3.86348 7.924 4.13548 7.916C4.64748 7.9 5.05548 8.016 5.35948 8.264C5.67148 8.512 5.89548 8.852 6.03148 9.284C6.16748 9.708 6.23548 10.184 6.23548 10.712C6.23548 11.392 6.15548 11.992 5.99548 12.512C5.83548 13.024 5.56348 13.424 5.17948 13.712C4.79548 14 4.26348 14.144 3.58348 14.144ZM3.60748 12.668C3.79148 12.668 3.92348 12.608 4.00348 12.488C4.09148 12.36 4.14748 12.176 4.17148 11.936C4.20348 11.688 4.21948 11.384 4.21948 11.024C4.21948 10.704 4.20748 10.428 4.18348 10.196C4.16748 9.964 4.11548 9.784 4.02748 9.656C3.93948 9.52 3.79148 9.452 3.58348 9.452C3.48748 9.452 3.39548 9.472 3.30748 9.512C3.21948 9.552 3.14348 9.604 3.07948 9.668C3.01548 9.724 2.96748 9.78 2.93548 9.836V11.42C2.93548 11.636 2.95148 11.84 2.98348 12.032C3.02348 12.224 3.09148 12.38 3.18748 12.5C3.29148 12.612 3.43148 12.668 3.60748 12.668Z"></path>
</svg>
