<svg xmlns="http://www.w3.org/2000/svg" fill="none" viewBox="0 0 156 56" height="56" width="156">
<rect stroke="white" fill="#0D0E12" height="55" width="155" y="0.5" x="0.5"></rect>
<path fill="white" d="M41.0005 16V10.22H42.6305V16H41.0005ZM40.9905 9.24V8.11H42.6305V9.24H40.9905ZM45.417 16.1C44.9103 16.1 44.487 15.9867 44.147 15.76C43.8136 15.5333 43.5403 15.1633 43.327 14.65L44.437 14.16C44.5436 14.42 44.667 14.6267 44.807 14.78C44.9536 14.9267 45.1136 15 45.287 15C45.4136 15 45.507 14.9733 45.567 14.92C45.6336 14.8667 45.667 14.7933 45.667 14.7C45.667 14.5467 45.607 14.4067 45.487 14.28C45.3736 14.1533 45.167 13.9667 44.867 13.72L44.447 13.37C44.1403 13.11 43.897 12.86 43.717 12.62C43.5436 12.3733 43.457 12.07 43.457 11.71C43.457 11.3967 43.537 11.12 43.697 10.88C43.8636 10.64 44.0836 10.4533 44.357 10.32C44.6303 10.1867 44.9236 10.12 45.237 10.12C45.7103 10.12 46.107 10.25 46.427 10.51C46.747 10.77 46.9703 11.1367 47.097 11.61L46.047 12.09C46.007 11.9633 45.9503 11.8367 45.877 11.71C45.8036 11.5833 45.7136 11.4767 45.607 11.39C45.507 11.3033 45.397 11.26 45.277 11.26C45.1703 11.26 45.0836 11.29 45.017 11.35C44.957 11.41 44.927 11.49 44.927 11.59C44.927 11.7167 44.997 11.8533 45.137 12C45.2836 12.1467 45.4836 12.3233 45.737 12.53L46.147 12.89C46.3136 13.03 46.477 13.18 46.637 13.34C46.797 13.5 46.927 13.6767 47.027 13.87C47.1336 14.0633 47.187 14.2833 47.187 14.53C47.187 14.8633 47.1036 15.15 46.937 15.39C46.7703 15.6233 46.5503 15.8 46.277 15.92C46.0103 16.04 45.7236 16.1 45.417 16.1ZM52.3138 18C51.8805 18 51.5038 17.9567 51.1838 17.87C50.8638 17.7833 50.6138 17.6533 50.4338 17.48C50.2605 17.3067 50.1738 17.0867 50.1738 16.82C50.1738 16.64 50.2105 16.4767 50.2838 16.33C50.3638 16.19 50.4705 16.0667 50.6038 15.96C50.7438 15.8467 50.9005 15.75 51.0738 15.67C50.8205 15.5967 50.6238 15.4867 50.4838 15.34C50.3438 15.1933 50.2738 14.9967 50.2738 14.75C50.2738 14.5167 50.3305 14.3167 50.4438 14.15C50.5572 13.9767 50.7138 13.8033 50.9138 13.63C50.7272 13.4633 50.5838 13.26 50.4838 13.02C50.3905 12.7733 50.3438 12.4767 50.3438 12.13C50.3438 11.6967 50.4238 11.33 50.5838 11.03C50.7438 10.73 50.9772 10.5033 51.2838 10.35C51.5972 10.1967 51.9738 10.12 52.4138 10.12C52.7138 10.12 52.9772 10.1567 53.2038 10.23C53.4305 10.3033 53.6238 10.4167 53.7838 10.57C53.8572 10.4567 53.9538 10.3467 54.0738 10.24C54.1938 10.1333 54.3305 10.0433 54.4838 9.97L54.6938 9.87L55.0738 10.65C55.0138 10.67 54.9305 10.7033 54.8238 10.75C54.7172 10.7967 54.6038 10.8467 54.4838 10.9C54.3705 10.9533 54.2672 11.0067 54.1738 11.06C54.2472 11.2067 54.3038 11.3733 54.3438 11.56C54.3838 11.7467 54.4038 11.94 54.4038 12.14C54.4038 12.5533 54.3272 12.91 54.1738 13.21C54.0272 13.51 53.8072 13.74 53.5138 13.9C53.2205 14.0533 52.8538 14.13 52.4138 14.13C52.2272 14.13 52.0505 14.1167 51.8838 14.09C51.7172 14.0567 51.5638 14.0167 51.4238 13.97C51.3838 14.0233 51.3472 14.08 51.3138 14.14C51.2872 14.1933 51.2738 14.2533 51.2738 14.32C51.2738 14.4 51.3138 14.4633 51.3938 14.51C51.4738 14.5567 51.6172 14.5933 51.8238 14.62L53.3438 14.79C53.8372 14.8433 54.2005 15.0033 54.4338 15.27C54.6672 15.53 54.7838 15.8733 54.7838 16.3C54.7838 16.6667 54.7005 16.9767 54.5338 17.23C54.3738 17.4833 54.1105 17.6733 53.7438 17.8C53.3838 17.9333 52.9072 18 52.3138 18ZM52.5238 16.82C52.8905 16.82 53.1705 16.79 53.3638 16.73C53.5638 16.67 53.6638 16.5467 53.6638 16.36C53.6638 16.2667 53.6372 16.19 53.5838 16.13C53.5305 16.0767 53.4405 16.0333 53.3138 16C53.1938 15.96 53.0205 15.93 52.7938 15.91L51.7238 15.8C51.6572 15.8467 51.5972 15.9 51.5438 15.96C51.4972 16.0133 51.4572 16.07 51.4238 16.13C51.3972 16.1967 51.3838 16.2667 51.3838 16.34C51.3838 16.5 51.4705 16.62 51.6438 16.7C51.8172 16.78 52.1105 16.82 52.5238 16.82ZM52.4138 13.16C52.5072 13.16 52.5838 13.1433 52.6438 13.11C52.7038 13.07 52.7472 13.01 52.7738 12.93C52.8072 12.85 52.8305 12.7433 52.8438 12.61C52.8572 12.4767 52.8638 12.3167 52.8638 12.13C52.8638 11.9367 52.8572 11.7767 52.8438 11.65C52.8305 11.5167 52.8072 11.41 52.7738 11.33C52.7472 11.2433 52.7038 11.1833 52.6438 11.15C52.5838 11.11 52.5072 11.09 52.4138 11.09C52.3205 11.09 52.2438 11.11 52.1838 11.15C52.1238 11.1833 52.0772 11.24 52.0438 11.32C52.0172 11.4 51.9972 11.5067 51.9838 11.64C51.9705 11.7733 51.9638 11.9367 51.9638 12.13C51.9638 12.3167 51.9705 12.4767 51.9838 12.61C51.9972 12.7367 52.0172 12.8433 52.0438 12.93C52.0772 13.01 52.1238 13.07 52.1838 13.11C52.2438 13.1433 52.3205 13.16 52.4138 13.16ZM55.4536 16V10.22H57.0836V16H55.4536ZM55.4436 9.24V8.11H57.0836V9.24H55.4436ZM58.8401 16L57.6801 10.22H59.2401L59.7201 13.91L60.1601 10.22H61.7201L60.5301 16H58.8401ZM64.1891 16.1C63.7691 16.1 63.4091 16.0267 63.1091 15.88C62.8091 15.7267 62.5791 15.5067 62.4191 15.22C62.2591 14.9267 62.1791 14.5767 62.1791 14.17V12.05C62.1791 11.6367 62.2591 11.2867 62.4191 11C62.5791 10.7133 62.8091 10.4967 63.1091 10.35C63.4157 10.1967 63.7757 10.12 64.1891 10.12C64.6157 10.12 64.9691 10.1933 65.2491 10.34C65.5357 10.4867 65.7491 10.7033 65.8891 10.99C66.0357 11.2767 66.1091 11.63 66.1091 12.05V13.21H63.7891V14.32C63.7891 14.4667 63.8057 14.5867 63.8391 14.68C63.8724 14.7733 63.9191 14.84 63.9791 14.88C64.0391 14.92 64.1091 14.94 64.1891 14.94C64.2691 14.94 64.3391 14.9233 64.3991 14.89C64.4657 14.85 64.5157 14.79 64.5491 14.71C64.5891 14.63 64.6091 14.52 64.6091 14.38V13.77H66.1091V14.33C66.1091 14.9167 65.9391 15.36 65.5991 15.66C65.2591 15.9533 64.7891 16.1 64.1891 16.1ZM63.7891 12.45H64.6091V11.87C64.6091 11.7167 64.5891 11.5967 64.5491 11.51C64.5157 11.4233 64.4657 11.3633 64.3991 11.33C64.3391 11.2967 64.2657 11.28 64.1791 11.28C64.0991 11.28 64.0291 11.3 63.9691 11.34C63.9157 11.38 63.8724 11.45 63.8391 11.55C63.8057 11.6433 63.7891 11.78 63.7891 11.96V12.45ZM66.9963 16V10.22H68.6263V10.8C68.8397 10.5867 69.0597 10.42 69.2863 10.3C69.5197 10.18 69.763 10.12 70.0163 10.12C70.2563 10.12 70.453 10.18 70.6063 10.3C70.7663 10.4133 70.8863 10.5733 70.9663 10.78C71.0463 10.98 71.0863 11.21 71.0863 11.47V16H69.4663V11.7C69.4663 11.56 69.443 11.4533 69.3963 11.38C69.3497 11.3067 69.263 11.27 69.1363 11.27C69.0697 11.27 68.9897 11.29 68.8963 11.33C68.8097 11.3633 68.7197 11.4133 68.6263 11.48V16H66.9963ZM76.4133 16.06C75.9799 16.06 75.6433 15.9967 75.4033 15.87C75.1699 15.7433 75.0099 15.56 74.9233 15.32C74.8366 15.0733 74.7933 14.7767 74.7933 14.43V11.29H74.2333V10.22H74.7933V8.46H76.4433V10.22H77.2633V11.29H76.4433V14.27C76.4433 14.4367 76.4899 14.5567 76.5833 14.63C76.6833 14.7033 76.8066 14.74 76.9533 14.74C77.0399 14.74 77.1199 14.7367 77.1933 14.73C77.2666 14.7167 77.3333 14.7067 77.3933 14.7V15.98C77.3066 15.9933 77.1699 16.01 76.9833 16.03C76.7966 16.05 76.6066 16.06 76.4133 16.06ZM80.0584 16.1C79.6451 16.1 79.2851 16.03 78.9784 15.89C78.6784 15.75 78.4451 15.54 78.2784 15.26C78.1184 14.98 78.0384 14.63 78.0384 14.21V12.01C78.0384 11.59 78.1184 11.24 78.2784 10.96C78.4451 10.68 78.6784 10.47 78.9784 10.33C79.2851 10.19 79.6451 10.12 80.0584 10.12C80.4718 10.12 80.8284 10.19 81.1284 10.33C81.4351 10.47 81.6718 10.68 81.8384 10.96C82.0051 11.24 82.0884 11.59 82.0884 12.01V14.21C82.0884 14.63 82.0051 14.98 81.8384 15.26C81.6718 15.54 81.4351 15.75 81.1284 15.89C80.8284 16.03 80.4718 16.1 80.0584 16.1ZM80.0684 15.02C80.1751 15.02 80.2584 14.9933 80.3184 14.94C80.3784 14.88 80.4184 14.8 80.4384 14.7C80.4651 14.5933 80.4784 14.4667 80.4784 14.32V11.9C80.4784 11.7533 80.4651 11.63 80.4384 11.53C80.4184 11.4233 80.3784 11.3433 80.3184 11.29C80.2584 11.23 80.1751 11.2 80.0684 11.2C79.9618 11.2 79.8784 11.23 79.8184 11.29C79.7584 11.3433 79.7151 11.4233 79.6884 11.53C79.6618 11.63 79.6484 11.7533 79.6484 11.9V14.32C79.6484 14.4667 79.6618 14.5933 79.6884 14.7C79.7151 14.8 79.7584 14.88 79.8184 14.94C79.8784 14.9933 79.9618 15.02 80.0684 15.02ZM87.341 16.06C86.9077 16.06 86.571 15.9967 86.331 15.87C86.0977 15.7433 85.9377 15.56 85.851 15.32C85.7643 15.0733 85.721 14.7767 85.721 14.43V11.29H85.161V10.22H85.721V8.46H87.371V10.22H88.191V11.29H87.371V14.27C87.371 14.4367 87.4177 14.5567 87.511 14.63C87.611 14.7033 87.7343 14.74 87.881 14.74C87.9677 14.74 88.0477 14.7367 88.121 14.73C88.1943 14.7167 88.261 14.7067 88.321 14.7V15.98C88.2343 15.9933 88.0977 16.01 87.911 16.03C87.7243 16.05 87.5343 16.06 87.341 16.06ZM89.0962 16V7.9H90.7162V10.73C90.9295 10.5167 91.1528 10.3633 91.3862 10.27C91.6195 10.17 91.8695 10.12 92.1362 10.12C92.3695 10.12 92.5628 10.18 92.7162 10.3C92.8762 10.4133 92.9962 10.5733 93.0762 10.78C93.1562 10.98 93.1962 11.21 93.1962 11.47V16H91.5762V11.7C91.5762 11.56 91.5528 11.4533 91.5062 11.38C91.4595 11.3067 91.3728 11.27 91.2462 11.27C91.1795 11.27 91.0995 11.29 91.0062 11.33C90.9128 11.3633 90.8162 11.4133 90.7162 11.48V16H89.0962ZM96.0641 16.1C95.6441 16.1 95.2841 16.0267 94.9841 15.88C94.6841 15.7267 94.4541 15.5067 94.2941 15.22C94.1341 14.9267 94.0541 14.5767 94.0541 14.17V12.05C94.0541 11.6367 94.1341 11.2867 94.2941 11C94.4541 10.7133 94.6841 10.4967 94.9841 10.35C95.2907 10.1967 95.6507 10.12 96.0641 10.12C96.4907 10.12 96.8441 10.1933 97.1241 10.34C97.4107 10.4867 97.6241 10.7033 97.7641 10.99C97.9107 11.2767 97.9841 11.63 97.9841 12.05V13.21H95.6641V14.32C95.6641 14.4667 95.6807 14.5867 95.7141 14.68C95.7474 14.7733 95.7941 14.84 95.8541 14.88C95.9141 14.92 95.9841 14.94 96.0641 14.94C96.1441 14.94 96.2141 14.9233 96.2741 14.89C96.3407 14.85 96.3907 14.79 96.4241 14.71C96.4641 14.63 96.4841 14.52 96.4841 14.38V13.77H97.9841V14.33C97.9841 14.9167 97.8141 15.36 97.4741 15.66C97.1341 15.9533 96.6641 16.1 96.0641 16.1ZM95.6641 12.45H96.4841V11.87C96.4841 11.7167 96.4641 11.5967 96.4241 11.51C96.3907 11.4233 96.3407 11.3633 96.2741 11.33C96.2141 11.2967 96.1407 11.28 96.0541 11.28C95.9741 11.28 95.9041 11.3 95.8441 11.34C95.7907 11.38 95.7474 11.45 95.7141 11.55C95.6807 11.6433 95.6641 11.78 95.6641 11.96V12.45ZM103.33 16.1C102.917 16.1 102.557 16.03 102.25 15.89C101.95 15.75 101.717 15.54 101.55 15.26C101.39 14.98 101.31 14.63 101.31 14.21V12.01C101.31 11.59 101.39 11.24 101.55 10.96C101.717 10.68 101.95 10.47 102.25 10.33C102.557 10.19 102.917 10.12 103.33 10.12C103.743 10.12 104.1 10.19 104.4 10.33C104.707 10.47 104.943 10.68 105.11 10.96C105.277 11.24 105.36 11.59 105.36 12.01V14.21C105.36 14.63 105.277 14.98 105.11 15.26C104.943 15.54 104.707 15.75 104.4 15.89C104.1 16.03 103.743 16.1 103.33 16.1ZM103.34 15.02C103.447 15.02 103.53 14.9933 103.59 14.94C103.65 14.88 103.69 14.8 103.71 14.7C103.737 14.5933 103.75 14.4667 103.75 14.32V11.9C103.75 11.7533 103.737 11.63 103.71 11.53C103.69 11.4233 103.65 11.3433 103.59 11.29C103.53 11.23 103.447 11.2 103.34 11.2C103.233 11.2 103.15 11.23 103.09 11.29C103.03 11.3433 102.987 11.4233 102.96 11.53C102.933 11.63 102.92 11.7533 102.92 11.9V14.32C102.92 14.4667 102.933 14.5933 102.96 14.7C102.987 14.8 103.03 14.88 103.09 14.94C103.15 14.9933 103.233 15.02 103.34 15.02ZM106.264 16V10.22H107.894V10.8C108.107 10.5867 108.327 10.42 108.554 10.3C108.787 10.18 109.031 10.12 109.284 10.12C109.524 10.12 109.721 10.18 109.874 10.3C110.034 10.4133 110.154 10.5733 110.234 10.78C110.314 10.98 110.354 11.21 110.354 11.47V16H108.734V11.7C108.734 11.56 108.711 11.4533 108.664 11.38C108.617 11.3067 108.531 11.27 108.404 11.27C108.337 11.27 108.257 11.29 108.164 11.33C108.077 11.3633 107.987 11.4133 107.894 11.48V16H106.264ZM113.222 16.1C112.802 16.1 112.442 16.0267 112.142 15.88C111.842 15.7267 111.612 15.5067 111.452 15.22C111.292 14.9267 111.212 14.5767 111.212 14.17V12.05C111.212 11.6367 111.292 11.2867 111.452 11C111.612 10.7133 111.842 10.4967 112.142 10.35C112.449 10.1967 112.809 10.12 113.222 10.12C113.649 10.12 114.002 10.1933 114.282 10.34C114.569 10.4867 114.782 10.7033 114.922 10.99C115.069 11.2767 115.142 11.63 115.142 12.05V13.21H112.822V14.32C112.822 14.4667 112.839 14.5867 112.872 14.68C112.906 14.7733 112.952 14.84 113.012 14.88C113.072 14.92 113.142 14.94 113.222 14.94C113.302 14.94 113.372 14.9233 113.432 14.89C113.499 14.85 113.549 14.79 113.582 14.71C113.622 14.63 113.642 14.52 113.642 14.38V13.77H115.142V14.33C115.142 14.9167 114.972 15.36 114.632 15.66C114.292 15.9533 113.822 16.1 113.222 16.1ZM112.822 12.45H113.642V11.87C113.642 11.7167 113.622 11.5967 113.582 11.51C113.549 11.4233 113.499 11.3633 113.432 11.33C113.372 11.2967 113.299 11.28 113.212 11.28C113.132 11.28 113.062 11.3 113.002 11.34C112.949 11.38 112.906 11.45 112.872 11.55C112.839 11.6433 112.822 11.78 112.822 11.96V12.45ZM38.6157 31L37.7657 25.22H39.1257L39.5457 28.5L39.9957 25.22H41.1757L41.5657 28.58L42.0557 25.22H43.3157L42.4557 31H41.0557L40.5557 27.75L39.9957 31H38.6157ZM44.0425 31V22.9H45.6625V25.73C45.8758 25.5167 46.0991 25.3633 46.3325 25.27C46.5658 25.17 46.8158 25.12 47.0825 25.12C47.3158 25.12 47.5091 25.18 47.6625 25.3C47.8225 25.4133 47.9425 25.5733 48.0225 25.78C48.1025 25.98 48.1425 26.21 48.1425 26.47V31H46.5225V26.7C46.5225 26.56 46.4991 26.4533 46.4525 26.38C46.4058 26.3067 46.3191 26.27 46.1925 26.27C46.1258 26.27 46.0458 26.29 45.9525 26.33C45.8591 26.3633 45.7625 26.4133 45.6625 26.48V31H44.0425ZM51.0204 31.1C50.607 31.1 50.247 31.03 49.9404 30.89C49.6404 30.75 49.407 30.54 49.2404 30.26C49.0804 29.98 49.0004 29.63 49.0004 29.21V27.01C49.0004 26.59 49.0804 26.24 49.2404 25.96C49.407 25.68 49.6404 25.47 49.9404 25.33C50.247 25.19 50.607 25.12 51.0204 25.12C51.4337 25.12 51.7904 25.19 52.0904 25.33C52.397 25.47 52.6337 25.68 52.8004 25.96C52.967 26.24 53.0504 26.59 53.0504 27.01V29.21C53.0504 29.63 52.967 29.98 52.8004 30.26C52.6337 30.54 52.397 30.75 52.0904 30.89C51.7904 31.03 51.4337 31.1 51.0204 31.1ZM51.0304 30.02C51.137 30.02 51.2204 29.9933 51.2804 29.94C51.3404 29.88 51.3804 29.8 51.4004 29.7C51.427 29.5933 51.4404 29.4667 51.4404 29.32V26.9C51.4404 26.7533 51.427 26.63 51.4004 26.53C51.3804 26.4233 51.3404 26.3433 51.2804 26.29C51.2204 26.23 51.137 26.2 51.0304 26.2C50.9237 26.2 50.8404 26.23 50.7804 26.29C50.7204 26.3433 50.677 26.4233 50.6504 26.53C50.6237 26.63 50.6104 26.7533 50.6104 26.9V29.32C50.6104 29.4667 50.6237 29.5933 50.6504 29.7C50.677 29.8 50.7204 29.88 50.7804 29.94C50.8404 29.9933 50.9237 30.02 51.0304 30.02ZM55.7343 31.1C55.2277 31.1 54.8043 30.9867 54.4643 30.76C54.131 30.5333 53.8577 30.1633 53.6443 29.65L54.7543 29.16C54.861 29.42 54.9843 29.6267 55.1243 29.78C55.271 29.9267 55.431 30 55.6043 30C55.731 30 55.8243 29.9733 55.8843 29.92C55.951 29.8667 55.9843 29.7933 55.9843 29.7C55.9843 29.5467 55.9243 29.4067 55.8043 29.28C55.691 29.1533 55.4843 28.9667 55.1843 28.72L54.7643 28.37C54.4577 28.11 54.2143 27.86 54.0343 27.62C53.861 27.3733 53.7743 27.07 53.7743 26.71C53.7743 26.3967 53.8543 26.12 54.0143 25.88C54.181 25.64 54.401 25.4533 54.6743 25.32C54.9477 25.1867 55.241 25.12 55.5543 25.12C56.0277 25.12 56.4243 25.25 56.7443 25.51C57.0643 25.77 57.2877 26.1367 57.4143 26.61L56.3643 27.09C56.3243 26.9633 56.2677 26.8367 56.1943 26.71C56.121 26.5833 56.031 26.4767 55.9243 26.39C55.8243 26.3033 55.7143 26.26 55.5943 26.26C55.4877 26.26 55.401 26.29 55.3343 26.35C55.2743 26.41 55.2443 26.49 55.2443 26.59C55.2443 26.7167 55.3143 26.8533 55.4543 27C55.601 27.1467 55.801 27.3233 56.0543 27.53L56.4643 27.89C56.631 28.03 56.7943 28.18 56.9543 28.34C57.1143 28.5 57.2443 28.6767 57.3443 28.87C57.451 29.0633 57.5043 29.2833 57.5043 29.53C57.5043 29.8633 57.421 30.15 57.2543 30.39C57.0877 30.6233 56.8677 30.8 56.5943 30.92C56.3277 31.04 56.041 31.1 55.7343 31.1ZM60.0826 31.1C59.6626 31.1 59.3026 31.0267 59.0026 30.88C58.7026 30.7267 58.4726 30.5067 58.3126 30.22C58.1526 29.9267 58.0726 29.5767 58.0726 29.17V27.05C58.0726 26.6367 58.1526 26.2867 58.3126 26C58.4726 25.7133 58.7026 25.4967 59.0026 25.35C59.3093 25.1967 59.6693 25.12 60.0826 25.12C60.5093 25.12 60.8626 25.1933 61.1426 25.34C61.4293 25.4867 61.6426 25.7033 61.7826 25.99C61.9293 26.2767 62.0026 26.63 62.0026 27.05V28.21H59.6826V29.32C59.6826 29.4667 59.6993 29.5867 59.7326 29.68C59.766 29.7733 59.8126 29.84 59.8726 29.88C59.9326 29.92 60.0026 29.94 60.0826 29.94C60.1626 29.94 60.2326 29.9233 60.2926 29.89C60.3593 29.85 60.4093 29.79 60.4426 29.71C60.4826 29.63 60.5026 29.52 60.5026 29.38V28.77H62.0026V29.33C62.0026 29.9167 61.8326 30.36 61.4926 30.66C61.1526 30.9533 60.6826 31.1 60.0826 31.1ZM59.6826 27.45H60.5026V26.87C60.5026 26.7167 60.4826 26.5967 60.4426 26.51C60.4093 26.4233 60.3593 26.3633 60.2926 26.33C60.2326 26.2967 60.1593 26.28 60.0726 26.28C59.9926 26.28 59.9226 26.3 59.8626 26.34C59.8093 26.38 59.766 26.45 59.7326 26.55C59.6993 26.6433 59.6826 26.78 59.6826 26.96V27.45ZM67.3385 31.1C66.9185 31.1 66.5585 31.0267 66.2585 30.88C65.9585 30.7267 65.7285 30.5067 65.5685 30.22C65.4085 29.9267 65.3285 29.5767 65.3285 29.17V27.05C65.3285 26.6367 65.4085 26.2867 65.5685 26C65.7285 25.7133 65.9585 25.4967 66.2585 25.35C66.5651 25.1967 66.9251 25.12 67.3385 25.12C67.7651 25.12 68.1185 25.1933 68.3985 25.34C68.6851 25.4867 68.8985 25.7033 69.0385 25.99C69.1851 26.2767 69.2585 26.63 69.2585 27.05V28.21H66.9385V29.32C66.9385 29.4667 66.9551 29.5867 66.9885 29.68C67.0218 29.7733 67.0685 29.84 67.1285 29.88C67.1885 29.92 67.2585 29.94 67.3385 29.94C67.4185 29.94 67.4885 29.9233 67.5485 29.89C67.6151 29.85 67.6651 29.79 67.6985 29.71C67.7385 29.63 67.7585 29.52 67.7585 29.38V28.77H69.2585V29.33C69.2585 29.9167 69.0885 30.36 68.7485 30.66C68.4085 30.9533 67.9385 31.1 67.3385 31.1ZM66.9385 27.45H67.7585V26.87C67.7585 26.7167 67.7385 26.5967 67.6985 26.51C67.6651 26.4233 67.6151 26.3633 67.5485 26.33C67.4885 26.2967 67.4151 26.28 67.3285 26.28C67.2485 26.28 67.1785 26.3 67.1185 26.34C67.0651 26.38 67.0218 26.45 66.9885 26.55C66.9551 26.6433 66.9385 26.78 66.9385 26.96V27.45ZM70.3557 31V26.32H69.8057V25.22H70.3557V24.79C70.3557 24.45 70.3891 24.1533 70.4557 23.9C70.5291 23.6467 70.6757 23.45 70.8957 23.31C71.1224 23.17 71.4691 23.1 71.9357 23.1C72.0624 23.1 72.1857 23.1033 72.3057 23.11C72.4324 23.1167 72.5691 23.13 72.7157 23.15V24.36C72.6691 24.3467 72.6124 24.3367 72.5457 24.33C72.4857 24.3167 72.4257 24.31 72.3657 24.31C72.2457 24.31 72.1524 24.3467 72.0857 24.42C72.0191 24.4867 71.9857 24.6 71.9857 24.76V25.22H72.7157V26.32H71.9857V31H70.3557ZM73.2457 31V26.32H72.6957V25.22H73.2457V24.79C73.2457 24.45 73.2791 24.1533 73.3457 23.9C73.4191 23.6467 73.5657 23.45 73.7857 23.31C74.0124 23.17 74.3591 23.1 74.8257 23.1C74.9524 23.1 75.0757 23.1033 75.1957 23.11C75.3224 23.1167 75.4591 23.13 75.6057 23.15V24.36C75.5591 24.3467 75.5024 24.3367 75.4357 24.33C75.3757 24.3167 75.3157 24.31 75.2557 24.31C75.1357 24.31 75.0424 24.3467 74.9757 24.42C74.9091 24.4867 74.8757 24.6 74.8757 24.76V25.22H75.6057V26.32H74.8757V31H73.2457ZM78.1393 31.1C77.7193 31.1 77.3593 31.0267 77.0593 30.88C76.7593 30.7267 76.5293 30.5067 76.3693 30.22C76.2093 29.9267 76.1293 29.5767 76.1293 29.17V27.05C76.1293 26.6367 76.2093 26.2867 76.3693 26C76.5293 25.7133 76.7593 25.4967 77.0593 25.35C77.3659 25.1967 77.7259 25.12 78.1393 25.12C78.5659 25.12 78.9193 25.1933 79.1993 25.34C79.4859 25.4867 79.6993 25.7033 79.8393 25.99C79.9859 26.2767 80.0593 26.63 80.0593 27.05V28.21H77.7393V29.32C77.7393 29.4667 77.7559 29.5867 77.7893 29.68C77.8226 29.7733 77.8693 29.84 77.9293 29.88C77.9893 29.92 78.0593 29.94 78.1393 29.94C78.2193 29.94 78.2893 29.9233 78.3493 29.89C78.4159 29.85 78.4659 29.79 78.4993 29.71C78.5393 29.63 78.5593 29.52 78.5593 29.38V28.77H80.0593V29.33C80.0593 29.9167 79.8893 30.36 79.5493 30.66C79.2093 30.9533 78.7393 31.1 78.1393 31.1ZM77.7393 27.45H78.5593V26.87C78.5593 26.7167 78.5393 26.5967 78.4993 26.51C78.4659 26.4233 78.4159 26.3633 78.3493 26.33C78.2893 26.2967 78.2159 26.28 78.1293 26.28C78.0493 26.28 77.9793 26.3 77.9193 26.34C77.8659 26.38 77.8226 26.45 77.7893 26.55C77.7559 26.6433 77.7393 26.78 77.7393 26.96V27.45ZM82.8265 31.1C82.4065 31.1 82.0465 31.0233 81.7465 30.87C81.4532 30.7167 81.2265 30.4967 81.0665 30.21C80.9065 29.9233 80.8265 29.5767 80.8265 29.17V27.05C80.8265 26.6367 80.9065 26.2867 81.0665 26C81.2265 25.7133 81.4532 25.4967 81.7465 25.35C82.0465 25.1967 82.4065 25.12 82.8265 25.12C83.2399 25.12 83.5899 25.1833 83.8765 25.31C84.1699 25.4367 84.3932 25.63 84.5465 25.89C84.6999 26.1433 84.7765 26.4667 84.7765 26.86V27.47H83.2065V26.81C83.2065 26.6567 83.1899 26.54 83.1565 26.46C83.1299 26.3733 83.0865 26.3133 83.0265 26.28C82.9732 26.2467 82.9065 26.23 82.8265 26.23C82.7465 26.23 82.6799 26.2533 82.6265 26.3C82.5732 26.34 82.5332 26.41 82.5065 26.51C82.4799 26.6033 82.4665 26.7367 82.4665 26.91V29.31C82.4665 29.57 82.4965 29.7467 82.5565 29.84C82.6232 29.9333 82.7165 29.98 82.8365 29.98C82.9232 29.98 82.9932 29.9633 83.0465 29.93C83.0999 29.89 83.1399 29.83 83.1665 29.75C83.1932 29.6633 83.2065 29.55 83.2065 29.41V28.64H84.7765V29.34C84.7765 29.7267 84.6965 30.0533 84.5365 30.32C84.3832 30.58 84.1599 30.7767 83.8665 30.91C83.5799 31.0367 83.2332 31.1 82.8265 31.1ZM87.4143 31.06C86.9809 31.06 86.6443 30.9967 86.4043 30.87C86.1709 30.7433 86.0109 30.56 85.9243 30.32C85.8376 30.0733 85.7943 29.7767 85.7943 29.43V26.29H85.2343V25.22H85.7943V23.46H87.4443V25.22H88.2643V26.29H87.4443V29.27C87.4443 29.4367 87.4909 29.5567 87.5843 29.63C87.6843 29.7033 87.8076 29.74 87.9543 29.74C88.0409 29.74 88.1209 29.7367 88.1943 29.73C88.2676 29.7167 88.3343 29.7067 88.3943 29.7V30.98C88.3076 30.9933 88.1709 31.01 87.9843 31.03C87.7976 31.05 87.6076 31.06 87.4143 31.06ZM89.1694 31V25.22H90.7994V31H89.1694ZM89.1594 24.24V23.11H90.7994V24.24H89.1594ZM92.5559 31L91.3959 25.22H92.9559L93.4359 28.91L93.8759 25.22H95.4359L94.2459 31H92.5559ZM97.9049 31.1C97.4849 31.1 97.1249 31.0267 96.8249 30.88C96.5249 30.7267 96.2949 30.5067 96.1349 30.22C95.9749 29.9267 95.8949 29.5767 95.8949 29.17V27.05C95.8949 26.6367 95.9749 26.2867 96.1349 26C96.2949 25.7133 96.5249 25.4967 96.8249 25.35C97.1315 25.1967 97.4915 25.12 97.9049 25.12C98.3315 25.12 98.6849 25.1933 98.9649 25.34C99.2515 25.4867 99.4649 25.7033 99.6049 25.99C99.7515 26.2767 99.8249 26.63 99.8249 27.05V28.21H97.5049V29.32C97.5049 29.4667 97.5215 29.5867 97.5549 29.68C97.5882 29.7733 97.6349 29.84 97.6949 29.88C97.7549 29.92 97.8249 29.94 97.9049 29.94C97.9849 29.94 98.0549 29.9233 98.1149 29.89C98.1815 29.85 98.2315 29.79 98.2649 29.71C98.3049 29.63 98.3249 29.52 98.3249 29.38V28.77H99.8249V29.33C99.8249 29.9167 99.6549 30.36 99.3149 30.66C98.9749 30.9533 98.5049 31.1 97.9049 31.1ZM97.5049 27.45H98.3249V26.87C98.3249 26.7167 98.3049 26.5967 98.2649 26.51C98.2315 26.4233 98.1815 26.3633 98.1149 26.33C98.0549 26.2967 97.9815 26.28 97.8949 26.28C97.8149 26.28 97.7449 26.3 97.6849 26.34C97.6315 26.38 97.5882 26.45 97.5549 26.55C97.5215 26.6433 97.5049 26.78 97.5049 26.96V27.45ZM100.712 31V25.22H102.342V25.8C102.555 25.5867 102.775 25.42 103.002 25.3C103.235 25.18 103.479 25.12 103.732 25.12C103.972 25.12 104.169 25.18 104.322 25.3C104.482 25.4133 104.602 25.5733 104.682 25.78C104.762 25.98 104.802 26.21 104.802 26.47V31H103.182V26.7C103.182 26.56 103.159 26.4533 103.112 26.38C103.065 26.3067 102.979 26.27 102.852 26.27C102.785 26.27 102.705 26.29 102.612 26.33C102.525 26.3633 102.435 26.4133 102.342 26.48V31H100.712ZM107.671 31.1C107.251 31.1 106.891 31.0267 106.591 30.88C106.291 30.7267 106.061 30.5067 105.901 30.22C105.741 29.9267 105.661 29.5767 105.661 29.17V27.05C105.661 26.6367 105.741 26.2867 105.901 26C106.061 25.7133 106.291 25.4967 106.591 25.35C106.897 25.1967 107.257 25.12 107.671 25.12C108.097 25.12 108.451 25.1933 108.731 25.34C109.017 25.4867 109.231 25.7033 109.371 25.99C109.517 26.2767 109.591 26.63 109.591 27.05V28.21H107.271V29.32C107.271 29.4667 107.287 29.5867 107.321 29.68C107.354 29.7733 107.401 29.84 107.461 29.88C107.521 29.92 107.591 29.94 107.671 29.94C107.751 29.94 107.821 29.9233 107.881 29.89C107.947 29.85 107.997 29.79 108.031 29.71C108.071 29.63 108.091 29.52 108.091 29.38V28.77H109.591V29.33C109.591 29.9167 109.421 30.36 109.081 30.66C108.741 30.9533 108.271 31.1 107.671 31.1ZM107.271 27.45H108.091V26.87C108.091 26.7167 108.071 26.5967 108.031 26.51C107.997 26.4233 107.947 26.3633 107.881 26.33C107.821 26.2967 107.747 26.28 107.661 26.28C107.581 26.28 107.511 26.3 107.451 26.34C107.397 26.38 107.354 26.45 107.321 26.55C107.287 26.6433 107.271 26.78 107.271 26.96V27.45ZM112.258 31.1C111.751 31.1 111.328 30.9867 110.988 30.76C110.654 30.5333 110.381 30.1633 110.168 29.65L111.278 29.16C111.384 29.42 111.508 29.6267 111.648 29.78C111.794 29.9267 111.954 30 112.128 30C112.254 30 112.348 29.9733 112.408 29.92C112.474 29.8667 112.508 29.7933 112.508 29.7C112.508 29.5467 112.448 29.4067 112.328 29.28C112.214 29.1533 112.008 28.9667 111.708 28.72L111.288 28.37C110.981 28.11 110.738 27.86 110.558 27.62C110.384 27.3733 110.298 27.07 110.298 26.71C110.298 26.3967 110.378 26.12 110.538 25.88C110.704 25.64 110.924 25.4533 111.198 25.32C111.471 25.1867 111.764 25.12 112.078 25.12C112.551 25.12 112.948 25.25 113.268 25.51C113.588 25.77 113.811 26.1367 113.938 26.61L112.888 27.09C112.848 26.9633 112.791 26.8367 112.718 26.71C112.644 26.5833 112.554 26.4767 112.448 26.39C112.348 26.3033 112.238 26.26 112.118 26.26C112.011 26.26 111.924 26.29 111.858 26.35C111.798 26.41 111.768 26.49 111.768 26.59C111.768 26.7167 111.838 26.8533 111.978 27C112.124 27.1467 112.324 27.3233 112.578 27.53L112.988 27.89C113.154 28.03 113.318 28.18 113.478 28.34C113.638 28.5 113.768 28.6767 113.868 28.87C113.974 29.0633 114.028 29.2833 114.028 29.53C114.028 29.8633 113.944 30.15 113.778 30.39C113.611 30.6233 113.391 30.8 113.118 30.92C112.851 31.04 112.564 31.1 112.258 31.1ZM116.496 31.1C115.989 31.1 115.566 30.9867 115.226 30.76C114.893 30.5333 114.619 30.1633 114.406 29.65L115.516 29.16C115.623 29.42 115.746 29.6267 115.886 29.78C116.033 29.9267 116.193 30 116.366 30C116.493 30 116.586 29.9733 116.646 29.92C116.713 29.8667 116.746 29.7933 116.746 29.7C116.746 29.5467 116.686 29.4067 116.566 29.28C116.453 29.1533 116.246 28.9667 115.946 28.72L115.526 28.37C115.219 28.11 114.976 27.86 114.796 27.62C114.623 27.3733 114.536 27.07 114.536 26.71C114.536 26.3967 114.616 26.12 114.776 25.88C114.943 25.64 115.163 25.4533 115.436 25.32C115.709 25.1867 116.003 25.12 116.316 25.12C116.789 25.12 117.186 25.25 117.506 25.51C117.826 25.77 118.049 26.1367 118.176 26.61L117.126 27.09C117.086 26.9633 117.029 26.8367 116.956 26.71C116.883 26.5833 116.793 26.4767 116.686 26.39C116.586 26.3033 116.476 26.26 116.356 26.26C116.249 26.26 116.163 26.29 116.096 26.35C116.036 26.41 116.006 26.49 116.006 26.59C116.006 26.7167 116.076 26.8533 116.216 27C116.363 27.1467 116.563 27.3233 116.816 27.53L117.226 27.89C117.393 28.03 117.556 28.18 117.716 28.34C117.876 28.5 118.006 28.6767 118.106 28.87C118.213 29.0633 118.266 29.2833 118.266 29.53C118.266 29.8633 118.183 30.15 118.016 30.39C117.849 30.6233 117.629 30.8 117.356 30.92C117.089 31.04 116.803 31.1 116.496 31.1ZM45.8977 46V40.22H47.4977V40.68C47.711 40.4733 47.931 40.3267 48.1577 40.24C48.391 40.1533 48.6277 40.11 48.8677 40.11C49.101 40.11 49.301 40.17 49.4677 40.29C49.641 40.4033 49.771 40.5733 49.8577 40.8C50.0844 40.5467 50.321 40.37 50.5677 40.27C50.821 40.1633 51.0744 40.11 51.3277 40.11C51.5544 40.11 51.751 40.1667 51.9177 40.28C52.0844 40.3867 52.2144 40.5467 52.3077 40.76C52.401 40.9667 52.4477 41.2167 52.4477 41.51V46H50.8477V41.68C50.8477 41.52 50.8177 41.4067 50.7577 41.34C50.7044 41.2667 50.621 41.23 50.5077 41.23C50.441 41.23 50.3577 41.25 50.2577 41.29C50.1577 41.3233 50.061 41.3733 49.9677 41.44C49.9677 41.4533 49.9677 41.4667 49.9677 41.48C49.9677 41.4867 49.9677 41.4967 49.9677 41.51V46H48.3877V41.68C48.3877 41.52 48.3577 41.4067 48.2977 41.34C48.2377 41.2667 48.151 41.23 48.0377 41.23C47.9644 41.23 47.8777 41.25 47.7777 41.29C47.6844 41.3233 47.591 41.3733 47.4977 41.44V46H45.8977ZM55.327 46.1C54.9137 46.1 54.5537 46.03 54.247 45.89C53.947 45.75 53.7137 45.54 53.547 45.26C53.387 44.98 53.307 44.63 53.307 44.21V42.01C53.307 41.59 53.387 41.24 53.547 40.96C53.7137 40.68 53.947 40.47 54.247 40.33C54.5537 40.19 54.9137 40.12 55.327 40.12C55.7403 40.12 56.097 40.19 56.397 40.33C56.7037 40.47 56.9403 40.68 57.107 40.96C57.2737 41.24 57.357 41.59 57.357 42.01V44.21C57.357 44.63 57.2737 44.98 57.107 45.26C56.9403 45.54 56.7037 45.75 56.397 45.89C56.097 46.03 55.7403 46.1 55.327 46.1ZM55.337 45.02C55.4437 45.02 55.527 44.9933 55.587 44.94C55.647 44.88 55.687 44.8 55.707 44.7C55.7337 44.5933 55.747 44.4667 55.747 44.32V41.9C55.747 41.7533 55.7337 41.63 55.707 41.53C55.687 41.4233 55.647 41.3433 55.587 41.29C55.527 41.23 55.4437 41.2 55.337 41.2C55.2303 41.2 55.147 41.23 55.087 41.29C55.027 41.3433 54.9837 41.4233 54.957 41.53C54.9303 41.63 54.917 41.7533 54.917 41.9V44.32C54.917 44.4667 54.9303 44.5933 54.957 44.7C54.9837 44.8 55.027 44.88 55.087 44.94C55.147 44.9933 55.2303 45.02 55.337 45.02ZM58.281 46V40.22H59.911V41.18C60.0976 40.8467 60.2843 40.5933 60.471 40.42C60.6576 40.24 60.8843 40.15 61.151 40.15C61.2043 40.15 61.251 40.1533 61.291 40.16C61.331 40.16 61.3676 40.1667 61.401 40.18V41.8C61.3276 41.7667 61.2443 41.74 61.151 41.72C61.0643 41.6933 60.971 41.68 60.871 41.68C60.6843 41.68 60.511 41.73 60.351 41.83C60.191 41.93 60.0443 42.0667 59.911 42.24V46H58.281ZM63.9791 46.1C63.5591 46.1 63.1991 46.0267 62.8991 45.88C62.5991 45.7267 62.3691 45.5067 62.2091 45.22C62.0491 44.9267 61.9691 44.5767 61.9691 44.17V42.05C61.9691 41.6367 62.0491 41.2867 62.2091 41C62.3691 40.7133 62.5991 40.4967 62.8991 40.35C63.2058 40.1967 63.5658 40.12 63.9791 40.12C64.4058 40.12 64.7591 40.1933 65.0391 40.34C65.3258 40.4867 65.5391 40.7033 65.6791 40.99C65.8258 41.2767 65.8991 41.63 65.8991 42.05V43.21H63.5791V44.32C63.5791 44.4667 63.5958 44.5867 63.6291 44.68C63.6624 44.7733 63.7091 44.84 63.7691 44.88C63.8291 44.92 63.8991 44.94 63.9791 44.94C64.0591 44.94 64.1291 44.9233 64.1891 44.89C64.2558 44.85 64.3058 44.79 64.3391 44.71C64.3791 44.63 64.3991 44.52 64.3991 44.38V43.77H65.8991V44.33C65.8991 44.9167 65.7291 45.36 65.3891 45.66C65.0491 45.9533 64.5791 46.1 63.9791 46.1ZM63.5791 42.45H64.3991V41.87C64.3991 41.7167 64.3791 41.5967 64.3391 41.51C64.3058 41.4233 64.2558 41.3633 64.1891 41.33C64.1291 41.2967 64.0558 41.28 63.9691 41.28C63.8891 41.28 63.8191 41.3 63.7591 41.34C63.7058 41.38 63.6624 41.45 63.6291 41.55C63.5958 41.6433 63.5791 41.78 63.5791 41.96V42.45ZM71.135 46.06C70.7016 46.06 70.365 45.9967 70.125 45.87C69.8916 45.7433 69.7316 45.56 69.645 45.32C69.5583 45.0733 69.515 44.7767 69.515 44.43V41.29H68.955V40.22H69.515V38.46H71.165V40.22H71.985V41.29H71.165V44.27C71.165 44.4367 71.2116 44.5567 71.305 44.63C71.405 44.7033 71.5283 44.74 71.675 44.74C71.7616 44.74 71.8416 44.7367 71.915 44.73C71.9883 44.7167 72.055 44.7067 72.115 44.7V45.98C72.0283 45.9933 71.8916 46.01 71.705 46.03C71.5183 46.05 71.3283 46.06 71.135 46.06ZM72.8901 46V37.9H74.5101V40.73C74.7235 40.5167 74.9468 40.3633 75.1801 40.27C75.4135 40.17 75.6635 40.12 75.9301 40.12C76.1635 40.12 76.3568 40.18 76.5101 40.3C76.6701 40.4133 76.7901 40.5733 76.8701 40.78C76.9501 40.98 76.9901 41.21 76.9901 41.47V46H75.3701V41.7C75.3701 41.56 75.3468 41.4533 75.3001 41.38C75.2535 41.3067 75.1668 41.27 75.0401 41.27C74.9735 41.27 74.8935 41.29 74.8001 41.33C74.7068 41.3633 74.6101 41.4133 74.5101 41.48V46H72.8901ZM79.158 46.1C78.8647 46.1 78.618 46.03 78.418 45.89C78.218 45.75 78.068 45.5733 77.968 45.36C77.868 45.14 77.818 44.9167 77.818 44.69C77.818 44.33 77.888 44.0267 78.028 43.78C78.1747 43.5333 78.3647 43.3267 78.598 43.16C78.8313 42.9933 79.088 42.8533 79.368 42.74C79.648 42.62 79.9247 42.5133 80.198 42.42V41.84C80.198 41.74 80.188 41.6533 80.168 41.58C80.148 41.5 80.1147 41.44 80.068 41.4C80.0213 41.3533 79.9513 41.33 79.858 41.33C79.7647 41.33 79.6913 41.35 79.638 41.39C79.5913 41.43 79.558 41.4867 79.538 41.56C79.518 41.6267 79.5047 41.7033 79.498 41.79L79.458 42.21L77.938 42.15C77.9713 41.4567 78.1547 40.9467 78.488 40.62C78.828 40.2867 79.3347 40.12 80.008 40.12C80.5947 40.12 81.0313 40.2833 81.318 40.61C81.6113 40.93 81.758 41.3467 81.758 41.86V44.56C81.758 44.8 81.7613 45.01 81.768 45.19C81.7813 45.37 81.7947 45.5267 81.808 45.66C81.828 45.7933 81.8447 45.9067 81.858 46H80.398C80.378 45.8467 80.3547 45.68 80.328 45.5C80.3013 45.32 80.2813 45.2133 80.268 45.18C80.2013 45.42 80.0747 45.6333 79.888 45.82C79.708 46.0067 79.4647 46.1 79.158 46.1ZM79.738 45C79.8047 45 79.8647 44.9867 79.918 44.96C79.978 44.9333 80.0313 44.8967 80.078 44.85C80.1247 44.8033 80.1647 44.7567 80.198 44.71V43.13C80.0647 43.21 79.9413 43.2933 79.828 43.38C79.7147 43.46 79.618 43.55 79.538 43.65C79.458 43.75 79.3947 43.86 79.348 43.98C79.308 44.0933 79.288 44.2233 79.288 44.37C79.288 44.5633 79.328 44.7167 79.408 44.83C79.488 44.9433 79.598 45 79.738 45ZM82.7239 46V40.22H84.3539V40.8C84.5672 40.5867 84.7872 40.42 85.0139 40.3C85.2472 40.18 85.4905 40.12 85.7439 40.12C85.9839 40.12 86.1805 40.18 86.3339 40.3C86.4939 40.4133 86.6139 40.5733 86.6939 40.78C86.7739 40.98 86.8139 41.21 86.8139 41.47V46H85.1939V41.7C85.1939 41.56 85.1705 41.4533 85.1239 41.38C85.0772 41.3067 84.9905 41.27 84.8639 41.27C84.7972 41.27 84.7172 41.29 84.6239 41.33C84.5372 41.3633 84.4472 41.4133 84.3539 41.48V46H82.7239ZM92.4408 46.13C91.8942 46.13 91.4575 46.0233 91.1308 45.81C90.8042 45.59 90.5708 45.29 90.4308 44.91C90.2908 44.5233 90.2208 44.0833 90.2208 43.59C90.2275 43.39 90.2475 43.1967 90.2808 43.01C90.3208 42.8167 90.3775 42.64 90.4508 42.48C90.5308 42.3133 90.6275 42.17 90.7408 42.05C90.8608 41.9233 91.0008 41.82 91.1608 41.74C90.9542 41.5867 90.7708 41.3667 90.6108 41.08C90.4508 40.7867 90.3642 40.4167 90.3508 39.97C90.3442 39.5167 90.4175 39.1267 90.5708 38.8C90.7308 38.4733 90.9675 38.2233 91.2808 38.05C91.5942 37.8767 91.9808 37.79 92.4408 37.79C92.9075 37.79 93.2942 37.88 93.6008 38.06C93.9142 38.2333 94.1475 38.4833 94.3008 38.81C94.4542 39.13 94.5242 39.5167 94.5108 39.97C94.5042 40.4233 94.4242 40.7967 94.2708 41.09C94.1175 41.3767 93.9342 41.5933 93.7208 41.74C93.8808 41.82 94.0175 41.9233 94.1308 42.05C94.2508 42.17 94.3475 42.3133 94.4208 42.48C94.5008 42.64 94.5608 42.8167 94.6008 43.01C94.6408 43.1967 94.6608 43.39 94.6608 43.59C94.6742 44.0833 94.6075 44.5233 94.4608 44.91C94.3208 45.29 94.0875 45.59 93.7608 45.81C93.4342 46.0233 92.9942 46.13 92.4408 46.13ZM92.4408 44.9C92.6208 44.9 92.7508 44.8333 92.8308 44.7C92.9108 44.5667 92.9608 44.41 92.9808 44.23C93.0008 44.0433 93.0108 43.8733 93.0108 43.72C93.0175 43.5133 93.0075 43.3133 92.9808 43.12C92.9608 42.9267 92.9108 42.77 92.8308 42.65C92.7508 42.5233 92.6208 42.46 92.4408 42.46C92.2675 42.46 92.1408 42.5233 92.0608 42.65C91.9808 42.77 91.9275 42.9267 91.9008 43.12C91.8808 43.3067 91.8708 43.5067 91.8708 43.72C91.8708 43.8733 91.8808 44.0433 91.9008 44.23C91.9208 44.4167 91.9708 44.5767 92.0508 44.71C92.1375 44.8367 92.2675 44.9 92.4408 44.9ZM92.4408 41.14C92.5542 41.14 92.6475 41.0967 92.7208 41.01C92.7942 40.9167 92.8475 40.78 92.8808 40.6C92.9208 40.42 92.9408 40.1967 92.9408 39.93C92.9408 39.6567 92.8975 39.44 92.8108 39.28C92.7308 39.12 92.6075 39.04 92.4408 39.04C92.2742 39.04 92.1442 39.12 92.0508 39.28C91.9642 39.44 91.9208 39.6533 91.9208 39.92C91.9208 40.1867 91.9375 40.4133 91.9708 40.6C92.0108 40.78 92.0708 40.9167 92.1508 41.01C92.2308 41.0967 92.3275 41.14 92.4408 41.14ZM97.8057 46.15C97.319 46.15 96.9123 46.0533 96.5857 45.86C96.259 45.66 96.0123 45.3867 95.8457 45.04C95.679 44.6933 95.5957 44.29 95.5957 43.83V40.16C95.5957 39.6867 95.6723 39.2733 95.8257 38.92C95.9857 38.56 96.229 38.28 96.5557 38.08C96.8823 37.88 97.299 37.78 97.8057 37.78C98.3123 37.78 98.7257 37.88 99.0457 38.08C99.3723 38.28 99.6123 38.56 99.7657 38.92C99.9257 39.2733 100.006 39.6867 100.006 40.16V43.83C100.006 44.2833 99.9223 44.6867 99.7557 45.04C99.589 45.3867 99.3423 45.66 99.0157 45.86C98.689 46.0533 98.2857 46.15 97.8057 46.15ZM97.8057 44.66C97.9657 44.66 98.079 44.61 98.1457 44.51C98.219 44.4033 98.2623 44.2833 98.2757 44.15C98.2957 44.01 98.3057 43.89 98.3057 43.79V40.2C98.3057 40.0867 98.299 39.96 98.2857 39.82C98.2723 39.6733 98.229 39.5467 98.1557 39.44C98.089 39.3267 97.9723 39.27 97.8057 39.27C97.639 39.27 97.519 39.3267 97.4457 39.44C97.379 39.5467 97.339 39.6733 97.3257 39.82C97.3123 39.96 97.3057 40.0867 97.3057 40.2V43.79C97.3057 43.89 97.3157 44.01 97.3357 44.15C97.3557 44.2833 97.399 44.4033 97.4657 44.51C97.539 44.61 97.6523 44.66 97.8057 44.66ZM103.874 46L106.364 37.9H107.264L104.784 46H103.874ZM102.894 42.5C102.207 42.5 101.72 42.3233 101.434 41.97C101.147 41.61 101.004 41.07 101.004 40.35V39.99C101.004 39.2567 101.144 38.7233 101.424 38.39C101.704 38.0567 102.194 37.89 102.894 37.89C103.594 37.89 104.084 38.0533 104.364 38.38C104.65 38.7067 104.794 39.2367 104.794 39.97V40.37C104.794 41.0833 104.65 41.6167 104.364 41.97C104.077 42.3233 103.587 42.5 102.894 42.5ZM102.894 41.46C103.067 41.46 103.19 41.4167 103.264 41.33C103.344 41.2367 103.394 41.1033 103.414 40.93C103.434 40.75 103.444 40.5367 103.444 40.29V40.04C103.444 39.66 103.42 39.3833 103.374 39.21C103.327 39.03 103.167 38.94 102.894 38.94C102.627 38.94 102.467 39.0267 102.414 39.2C102.367 39.3733 102.344 39.65 102.344 40.03V40.3C102.344 40.5467 102.354 40.7567 102.374 40.93C102.394 41.1033 102.444 41.2367 102.524 41.33C102.604 41.4167 102.727 41.46 102.894 41.46ZM108.254 46.01C107.567 46.01 107.08 45.8333 106.794 45.48C106.514 45.12 106.374 44.58 106.374 43.86V43.5C106.374 42.7667 106.51 42.2333 106.784 41.9C107.064 41.5667 107.554 41.4 108.254 41.4C108.954 41.4 109.444 41.5633 109.724 41.89C110.01 42.2167 110.154 42.7467 110.154 43.48V43.87C110.154 44.59 110.01 45.1267 109.724 45.48C109.437 45.8333 108.947 46.01 108.254 46.01ZM108.254 44.97C108.427 44.97 108.55 44.9267 108.624 44.84C108.704 44.7467 108.754 44.6133 108.774 44.44C108.794 44.2667 108.804 44.0567 108.804 43.81V43.54C108.804 43.16 108.78 42.8833 108.734 42.71C108.687 42.5367 108.527 42.45 108.254 42.45C107.987 42.45 107.827 42.5367 107.774 42.71C107.727 42.8833 107.704 43.16 107.704 43.54V43.81C107.704 44.0567 107.714 44.2667 107.734 44.44C107.754 44.6133 107.804 44.7467 107.884 44.84C107.964 44.9267 108.087 44.97 108.254 44.97Z"></path>
</svg>
