<svg xmlns="http://www.w3.org/2000/svg" fill="none" viewBox="0 0 214 84" height="84" width="214">
<mask fill="white" id="path-1-inside-1_1448_21">
<path d="M0 0H214V84H0V0Z"></path>
</mask>
<path fill="#0D0E12" d="M0 0H214V84H0V0Z"></path>
<path mask="url(#path-1-inside-1_1448_21)" fill="white" d="M0 0V-1H-1V0H0ZM0 84H-1V85H0V84ZM0 1H214V-1H0V1ZM214 83H0V85H214V83ZM1 84V0H-1V84H1Z"></path>
<path fill="#FFF500" d="M16.756 38V28.28H18.904V32.216H20.404V28.28H22.564V38H20.404V33.752H18.904V38H16.756ZM24.0802 38V28.28H25.7722V33.848L28.2562 28.28H29.6482V38H27.9202V32.336L25.3882 38H24.0802ZM34.8063 38V34.004C34.4063 34.06 34.0143 34.088 33.6303 34.088C33.1663 34.088 32.7263 34 32.3103 33.824C31.9023 33.64 31.5703 33.376 31.3143 33.032C31.0583 32.68 30.9303 32.252 30.9303 31.748V28.28H33.0783V31.736C33.0783 31.936 33.0983 32.116 33.1383 32.276C33.1863 32.428 33.2903 32.548 33.4503 32.636C33.6183 32.724 33.8783 32.768 34.2303 32.768C34.3183 32.768 34.4103 32.764 34.5063 32.756C34.6023 32.748 34.7023 32.736 34.8063 32.72V28.28H36.9543V38H34.8063ZM38.4708 38V28.28H40.6188V32.384H41.0988C41.7068 32.384 42.2228 32.484 42.6468 32.684C43.0708 32.884 43.3948 33.192 43.6188 33.608C43.8428 34.016 43.9548 34.544 43.9548 35.192C43.9548 35.784 43.8748 36.264 43.7148 36.632C43.5628 37 43.3468 37.284 43.0668 37.484C42.7868 37.684 42.4588 37.82 42.0828 37.892C41.7148 37.964 41.3188 38 40.8948 38H38.4708ZM40.6188 36.596H40.9068C41.1788 36.596 41.3908 36.544 41.5428 36.44C41.7028 36.336 41.8148 36.176 41.8788 35.96C41.9508 35.744 41.9828 35.472 41.9748 35.144C41.9668 34.784 41.8908 34.484 41.7468 34.244C41.6108 33.996 41.3228 33.872 40.8828 33.872H40.6188V36.596ZM44.5028 38L46.3508 33.68C45.9828 33.456 45.6788 33.128 45.4388 32.696C45.2068 32.264 45.0908 31.76 45.0908 31.184C45.0908 30.432 45.2228 29.848 45.4868 29.432C45.7508 29.008 46.1268 28.712 46.6148 28.544C47.1108 28.368 47.7028 28.28 48.3908 28.28H50.8868V38H48.7508V34.16H48.3668C48.3588 34.16 48.3388 34.16 48.3068 34.16C48.2748 34.16 48.2508 34.16 48.2348 34.16L46.8188 38H44.5028ZM48.4388 32.648H48.7508V29.756H48.4148C47.9748 29.756 47.6428 29.88 47.4188 30.128C47.2028 30.368 47.0948 30.724 47.0948 31.196C47.0948 31.612 47.1908 31.96 47.3828 32.24C47.5748 32.512 47.9268 32.648 48.4388 32.648Z"></path>
<path fill="white" d="M16.63 56V47.9H17.76V51.4H19.84V47.9H20.97V56H19.84V52.21H17.76V56H16.63ZM22.1455 56V50.22H23.0455V54.11L24.7855 50.22H25.6255V56H24.7455V52.08L23.0155 56H22.1455ZM28.8858 56V53.71C28.7591 53.7233 28.6324 53.7367 28.5058 53.75C28.3791 53.7633 28.2491 53.77 28.1158 53.77C27.8291 53.77 27.5658 53.73 27.3258 53.65C27.0858 53.57 26.8958 53.4267 26.7558 53.22C26.6158 53.0067 26.5458 52.71 26.5458 52.33V50.22H27.6158V52.34C27.6158 52.5467 27.6624 52.71 27.7558 52.83C27.8558 52.95 28.0591 53.01 28.3658 53.01C28.4458 53.01 28.5291 53.0067 28.6158 53C28.7024 52.9867 28.7924 52.9733 28.8858 52.96V50.22H29.9558V56H28.8858ZM31.042 56V50.22H32.112V52.61C32.1253 52.61 32.142 52.61 32.162 52.61C32.1886 52.61 32.212 52.61 32.232 52.61C32.252 52.61 32.2686 52.61 32.282 52.61C32.6753 52.6167 33.0086 52.6467 33.282 52.7C33.562 52.7467 33.7886 52.8333 33.962 52.96C34.1353 53.08 34.262 53.25 34.342 53.47C34.422 53.6833 34.462 53.96 34.462 54.3C34.462 54.6133 34.422 54.88 34.342 55.1C34.262 55.3133 34.132 55.4867 33.952 55.62C33.772 55.7533 33.5353 55.85 33.242 55.91C32.9486 55.97 32.592 56 32.172 56H31.042ZM32.112 55.37H32.172C32.512 55.37 32.7786 55.34 32.972 55.28C33.1653 55.22 33.302 55.1133 33.382 54.96C33.462 54.8 33.502 54.5767 33.502 54.29C33.502 54.03 33.4653 53.8267 33.392 53.68C33.3253 53.5267 33.1986 53.4167 33.012 53.35C32.832 53.2767 32.5686 53.24 32.222 53.24C32.2153 53.24 32.1986 53.24 32.172 53.24C32.1453 53.24 32.1253 53.24 32.112 53.24V55.37ZM34.7523 56L35.8423 53.55C35.6557 53.4767 35.5023 53.3667 35.3823 53.22C35.269 53.0733 35.1857 52.8933 35.1323 52.68C35.079 52.4667 35.0523 52.2267 35.0523 51.96C35.0523 51.6533 35.0923 51.39 35.1723 51.17C35.2523 50.95 35.379 50.77 35.5523 50.63C35.7257 50.49 35.9557 50.3867 36.2423 50.32C36.529 50.2533 36.8823 50.22 37.3023 50.22H38.4223V56H37.3623V53.72C37.2557 53.72 37.1657 53.72 37.0923 53.72C37.019 53.7133 36.939 53.7067 36.8523 53.7L35.9023 56H34.7523ZM37.2423 53.1C37.2557 53.1 37.2757 53.1 37.3023 53.1C37.3357 53.1 37.3557 53.1 37.3623 53.1V50.83C37.3557 50.83 37.3357 50.83 37.3023 50.83C37.2757 50.83 37.259 50.83 37.2523 50.83C36.939 50.83 36.689 50.87 36.5023 50.95C36.3223 51.0233 36.1957 51.1433 36.1223 51.31C36.049 51.47 36.0123 51.6867 36.0123 51.96C36.0123 52.34 36.0957 52.6233 36.2623 52.81C36.4357 52.9967 36.7623 53.0933 37.2423 53.1ZM39.5388 57.31L39.3688 56.85C39.5488 56.79 39.6888 56.6833 39.7888 56.53C39.8954 56.3833 39.9488 56.2067 39.9488 56H39.3788V54.85H40.4788V55.98C40.4788 56.3333 40.4021 56.6133 40.2488 56.82C40.0954 57.0333 39.8588 57.1967 39.5388 57.31ZM43.6591 56V50.22H44.7291V52.65H46.0991V50.22H47.1691V56H46.0991V53.43H44.7291V56H43.6591ZM49.849 56.08C49.3957 56.08 49.0457 55.9933 48.799 55.82C48.5523 55.64 48.379 55.38 48.279 55.04C48.1857 54.6933 48.139 54.27 48.139 53.77V52.45C48.139 51.9367 48.189 51.51 48.289 51.17C48.389 50.83 48.5623 50.5733 48.809 50.4C49.0623 50.2267 49.409 50.14 49.849 50.14C50.3357 50.14 50.6923 50.24 50.919 50.44C51.1523 50.64 51.3057 50.93 51.379 51.31C51.4523 51.6833 51.489 52.1333 51.489 52.66V53.13H49.209V54.29C49.209 54.5233 49.229 54.7133 49.269 54.86C49.3157 55.0067 49.3857 55.1167 49.479 55.19C49.579 55.2567 49.7057 55.29 49.859 55.29C50.019 55.29 50.139 55.2533 50.219 55.18C50.3057 55.1 50.3623 54.99 50.389 54.85C50.4223 54.7033 50.439 54.5333 50.439 54.34V53.99H51.479V54.21C51.479 54.79 51.3557 55.2467 51.109 55.58C50.8623 55.9133 50.4423 56.08 49.849 56.08ZM49.209 52.55H50.439V52.03C50.439 51.79 50.4257 51.59 50.399 51.43C50.3723 51.2633 50.3157 51.14 50.229 51.06C50.149 50.9733 50.019 50.93 49.839 50.93C49.6657 50.93 49.5323 50.97 49.439 51.05C49.3523 51.13 49.2923 51.2667 49.259 51.46C49.2257 51.6467 49.209 51.9067 49.209 52.24V52.55ZM51.938 57.47V55.29C52.138 55.1367 52.3213 54.9533 52.488 54.74C52.6546 54.5267 52.8013 54.2567 52.928 53.93C53.0546 53.6033 53.1546 53.2 53.228 52.72C53.3013 52.24 53.3413 51.66 53.348 50.98L53.368 50.22H55.978V55.24H56.678V57.47H55.898L55.808 56H52.808L52.718 57.47H51.938ZM52.978 55.24H54.948V50.99H54.198L54.178 51.2C54.1713 51.9067 54.1346 52.4967 54.068 52.97C54.008 53.4367 53.9213 53.82 53.808 54.12C53.7013 54.4133 53.5746 54.6467 53.428 54.82C53.288 54.9933 53.138 55.1333 52.978 55.24ZM58.8722 56.08C58.4455 56.08 58.1089 55.9933 57.8622 55.82C57.6155 55.6467 57.4389 55.4 57.3322 55.08C57.2322 54.76 57.1822 54.3833 57.1822 53.95V52.27C57.1822 51.8367 57.2322 51.46 57.3322 51.14C57.4389 50.82 57.6155 50.5733 57.8622 50.4C58.1089 50.2267 58.4455 50.14 58.8722 50.14C59.2989 50.14 59.6322 50.2267 59.8722 50.4C60.1189 50.5733 60.2922 50.82 60.3922 51.14C60.4989 51.46 60.5522 51.8367 60.5522 52.27V53.95C60.5522 54.3833 60.4989 54.76 60.3922 55.08C60.2922 55.4 60.1189 55.6467 59.8722 55.82C59.6322 55.9933 59.2989 56.08 58.8722 56.08ZM58.8722 55.29C59.0789 55.29 59.2222 55.23 59.3022 55.11C59.3889 54.99 59.4389 54.8333 59.4522 54.64C59.4722 54.44 59.4822 54.2333 59.4822 54.02V52.21C59.4822 51.99 59.4722 51.7833 59.4522 51.59C59.4389 51.3967 59.3889 51.24 59.3022 51.12C59.2222 50.9933 59.0789 50.93 58.8722 50.93C58.6655 50.93 58.5189 50.9933 58.4322 51.12C58.3455 51.24 58.2922 51.3967 58.2722 51.59C58.2589 51.7833 58.2522 51.99 58.2522 52.21V54.02C58.2522 54.2333 58.2589 54.44 58.2722 54.64C58.2922 54.8333 58.3455 54.99 58.4322 55.11C58.5189 55.23 58.6655 55.29 58.8722 55.29ZM63.1102 56.08C62.6369 56.08 62.2769 55.9867 62.0302 55.8C61.7902 55.6067 61.6269 55.3367 61.5402 54.99C61.4602 54.6433 61.4202 54.24 61.4202 53.78V52.45C61.4202 51.9633 61.4636 51.55 61.5502 51.21C61.6369 50.8633 61.8002 50.6 62.0402 50.42C62.2869 50.2333 62.6436 50.14 63.1102 50.14C63.5302 50.14 63.8536 50.21 64.0802 50.35C64.3136 50.4833 64.4736 50.6867 64.5602 50.96C64.6469 51.2267 64.6902 51.56 64.6902 51.96V52.3H63.7202V51.95C63.7202 51.6967 63.7036 51.4967 63.6702 51.35C63.6369 51.2033 63.5769 51.0967 63.4902 51.03C63.4036 50.9633 63.2802 50.93 63.1202 50.93C62.9469 50.93 62.8136 50.97 62.7202 51.05C62.6269 51.13 62.5636 51.2667 62.5302 51.46C62.5036 51.6467 62.4902 51.9033 62.4902 52.23V54.05C62.4902 54.5433 62.5369 54.8733 62.6302 55.04C62.7236 55.2067 62.8902 55.29 63.1302 55.29C63.3102 55.29 63.4402 55.25 63.5202 55.17C63.6069 55.0833 63.6602 54.9633 63.6802 54.81C63.7069 54.6567 63.7202 54.4833 63.7202 54.29V53.82H64.6902V54.22C64.6902 54.6067 64.6436 54.94 64.5502 55.22C64.4636 55.5 64.3036 55.7133 64.0702 55.86C63.8436 56.0067 63.5236 56.08 63.1102 56.08ZM66.2916 56V51.02H65.2116V50.22H68.4516V51.02H67.3616V56H66.2916ZM70.1386 56.08C69.9119 56.08 69.7119 56.0167 69.5386 55.89C69.3653 55.7567 69.2286 55.59 69.1286 55.39C69.0286 55.1833 68.9786 54.9667 68.9786 54.74C68.9786 54.38 69.0386 54.0767 69.1586 53.83C69.2786 53.5833 69.4419 53.3767 69.6486 53.21C69.8619 53.0367 70.1053 52.8867 70.3786 52.76C70.6586 52.6333 70.9519 52.51 71.2586 52.39V51.98C71.2586 51.7467 71.2453 51.5533 71.2186 51.4C71.1919 51.2467 71.1353 51.1333 71.0486 51.06C70.9686 50.98 70.8453 50.94 70.6786 50.94C70.5319 50.94 70.4119 50.9733 70.3186 51.04C70.2319 51.1067 70.1686 51.2033 70.1286 51.33C70.0886 51.45 70.0686 51.5933 70.0686 51.76V52.05L69.0086 52.01C69.0219 51.37 69.1686 50.9 69.4486 50.6C69.7286 50.2933 70.1619 50.14 70.7486 50.14C71.3219 50.14 71.7286 50.2967 71.9686 50.61C72.2086 50.9233 72.3286 51.3767 72.3286 51.97V54.61C72.3286 54.79 72.3319 54.9633 72.3386 55.13C72.3519 55.2967 72.3653 55.4533 72.3786 55.6C72.3986 55.74 72.4153 55.8733 72.4286 56H71.4486C71.4286 55.8933 71.4019 55.76 71.3686 55.6C71.3419 55.4333 71.3219 55.2833 71.3086 55.15C71.2419 55.3767 71.1119 55.59 70.9186 55.79C70.7319 55.9833 70.4719 56.08 70.1386 56.08ZM70.5586 55.16C70.6653 55.16 70.7653 55.13 70.8586 55.07C70.9519 55.01 71.0353 54.9433 71.1086 54.87C71.1819 54.79 71.2319 54.7267 71.2586 54.68V53.04C71.0919 53.1333 70.9353 53.2267 70.7886 53.32C70.6419 53.4133 70.5119 53.5133 70.3986 53.62C70.2919 53.72 70.2053 53.8367 70.1386 53.97C70.0786 54.0967 70.0486 54.2433 70.0486 54.41C70.0486 54.6433 70.0919 54.8267 70.1786 54.96C70.2653 55.0933 70.3919 55.16 70.5586 55.16ZM74.0064 56V51.02H72.9264V50.22H76.1664V51.02H75.0764V56H74.0064ZM78.3448 56.08C77.9182 56.08 77.5815 55.9933 77.3348 55.82C77.0882 55.6467 76.9115 55.4 76.8048 55.08C76.7048 54.76 76.6548 54.3833 76.6548 53.95V52.27C76.6548 51.8367 76.7048 51.46 76.8048 51.14C76.9115 50.82 77.0882 50.5733 77.3348 50.4C77.5815 50.2267 77.9182 50.14 78.3448 50.14C78.7715 50.14 79.1048 50.2267 79.3448 50.4C79.5915 50.5733 79.7648 50.82 79.8648 51.14C79.9715 51.46 80.0248 51.8367 80.0248 52.27V53.95C80.0248 54.3833 79.9715 54.76 79.8648 55.08C79.7648 55.4 79.5915 55.6467 79.3448 55.82C79.1048 55.9933 78.7715 56.08 78.3448 56.08ZM78.3448 55.29C78.5515 55.29 78.6948 55.23 78.7748 55.11C78.8615 54.99 78.9115 54.8333 78.9248 54.64C78.9448 54.44 78.9548 54.2333 78.9548 54.02V52.21C78.9548 51.99 78.9448 51.7833 78.9248 51.59C78.9115 51.3967 78.8615 51.24 78.7748 51.12C78.6948 50.9933 78.5515 50.93 78.3448 50.93C78.1382 50.93 77.9915 50.9933 77.9048 51.12C77.8182 51.24 77.7648 51.3967 77.7448 51.59C77.7315 51.7833 77.7248 51.99 77.7248 52.21V54.02C77.7248 54.2333 77.7315 54.44 77.7448 54.64C77.7648 54.8333 77.8182 54.99 77.9048 55.11C77.9915 55.23 78.1382 55.29 78.3448 55.29ZM83.1729 56V53.71C83.0462 53.7233 82.9196 53.7367 82.7929 53.75C82.6662 53.7633 82.5362 53.77 82.4029 53.77C82.1162 53.77 81.8529 53.73 81.6129 53.65C81.3729 53.57 81.1829 53.4267 81.0429 53.22C80.9029 53.0067 80.8329 52.71 80.8329 52.33V50.22H81.9029V52.34C81.9029 52.5467 81.9496 52.71 82.0429 52.83C82.1429 52.95 82.3462 53.01 82.6529 53.01C82.7329 53.01 82.8162 53.0067 82.9029 53C82.9896 52.9867 83.0796 52.9733 83.1729 52.96V50.22H84.2429V56H83.1729ZM85.3291 56V50.22H86.3991V52.65H87.7691V50.22H88.8391V56H87.7691V53.43H86.3991V56H85.3291ZM91.5089 56.08C91.0822 56.08 90.7456 55.9933 90.4989 55.82C90.2522 55.6467 90.0756 55.4 89.9689 55.08C89.8689 54.76 89.8189 54.3833 89.8189 53.95V52.27C89.8189 51.8367 89.8689 51.46 89.9689 51.14C90.0756 50.82 90.2522 50.5733 90.4989 50.4C90.7456 50.2267 91.0822 50.14 91.5089 50.14C91.9356 50.14 92.2689 50.2267 92.5089 50.4C92.7556 50.5733 92.9289 50.82 93.0289 51.14C93.1356 51.46 93.1889 51.8367 93.1889 52.27V53.95C93.1889 54.3833 93.1356 54.76 93.0289 55.08C92.9289 55.4 92.7556 55.6467 92.5089 55.82C92.2689 55.9933 91.9356 56.08 91.5089 56.08ZM91.5089 55.29C91.7156 55.29 91.8589 55.23 91.9389 55.11C92.0256 54.99 92.0756 54.8333 92.0889 54.64C92.1089 54.44 92.1189 54.2333 92.1189 54.02V52.21C92.1189 51.99 92.1089 51.7833 92.0889 51.59C92.0756 51.3967 92.0256 51.24 91.9389 51.12C91.8589 50.9933 91.7156 50.93 91.5089 50.93C91.3022 50.93 91.1556 50.9933 91.0689 51.12C90.9822 51.24 90.9289 51.3967 90.9089 51.59C90.8956 51.7833 90.8889 51.99 90.8889 52.21V54.02C90.8889 54.2333 90.8956 54.44 90.9089 54.64C90.9289 54.8333 90.9822 54.99 91.0689 55.11C91.1556 55.23 91.3022 55.29 91.5089 55.29ZM98.4421 57.9V55.68H98.3421C98.1221 55.68 97.8954 55.6533 97.6621 55.6C97.4288 55.54 97.2121 55.4333 97.0121 55.28C96.8121 55.1267 96.6488 54.9033 96.5221 54.61C96.4021 54.3167 96.3421 53.9367 96.3421 53.47V52.43C96.3421 52.0567 96.3921 51.7367 96.4921 51.47C96.5988 51.2033 96.7421 50.9867 96.9221 50.82C97.1088 50.6467 97.3188 50.52 97.5521 50.44C97.7921 50.36 98.0454 50.32 98.3121 50.32H98.4421V47.9H99.4321V50.32H99.6021C99.9554 50.32 100.279 50.3933 100.572 50.54C100.865 50.68 101.099 50.9067 101.272 51.22C101.452 51.5267 101.542 51.93 101.542 52.43V53.47C101.542 53.9367 101.482 54.3167 101.362 54.61C101.242 54.9033 101.082 55.1267 100.882 55.28C100.689 55.4333 100.475 55.54 100.242 55.6C100.015 55.6533 99.7921 55.68 99.5721 55.68H99.4321V57.9H98.4421ZM98.3721 54.92H98.4421V51.02H98.3421C98.1354 51.02 97.9554 51.0533 97.8021 51.12C97.6488 51.1867 97.5288 51.31 97.4421 51.49C97.3554 51.67 97.3121 51.93 97.3121 52.27V53.46C97.3121 53.8467 97.3521 54.1467 97.4321 54.36C97.5121 54.5667 97.6321 54.7133 97.7921 54.8C97.9521 54.88 98.1454 54.92 98.3721 54.92ZM99.4321 54.92H99.4921C99.7254 54.92 99.9221 54.88 100.082 54.8C100.242 54.7133 100.362 54.5667 100.442 54.36C100.529 54.1467 100.572 53.8467 100.572 53.46V52.27C100.572 51.93 100.529 51.67 100.442 51.49C100.355 51.31 100.232 51.1867 100.072 51.12C99.9188 51.0533 99.7354 51.02 99.5221 51.02H99.4321V54.92ZM102.517 56V50.22H103.417V54.11L105.157 50.22H105.997V56H105.117V52.08L103.387 56H102.517ZM107.087 56V50.22H109.417V50.99H108.157V56H107.087ZM109.897 57.45V56.63C110.157 56.63 110.364 56.6167 110.517 56.59C110.671 56.57 110.781 56.5267 110.847 56.46C110.914 56.4 110.947 56.3133 110.947 56.2C110.947 56.14 110.924 56.0067 110.877 55.8C110.831 55.5933 110.781 55.3733 110.727 55.14L109.567 50.22H110.647L111.427 54.54L112.177 50.22H113.257L111.877 56.32C111.817 56.6 111.707 56.82 111.547 56.98C111.387 57.1467 111.181 57.2667 110.927 57.34C110.681 57.4133 110.381 57.45 110.027 57.45H109.897ZM113.903 57.9V50.22H114.973V50.68C115.1 50.5333 115.253 50.4067 115.433 50.3C115.613 50.1933 115.827 50.14 116.073 50.14C116.373 50.14 116.61 50.22 116.783 50.38C116.963 50.5333 117.097 50.73 117.183 50.97C117.27 51.2033 117.327 51.4433 117.353 51.69C117.38 51.93 117.393 52.1367 117.393 52.31V53.71C117.393 54.1167 117.353 54.5033 117.273 54.87C117.193 55.23 117.047 55.5233 116.833 55.75C116.627 55.97 116.333 56.08 115.953 56.08C115.747 56.08 115.563 56.03 115.403 55.93C115.243 55.8233 115.1 55.7033 114.973 55.57V57.9H113.903ZM115.743 55.24C115.93 55.24 116.063 55.1733 116.143 55.04C116.223 54.9 116.273 54.7133 116.293 54.48C116.313 54.2467 116.323 53.99 116.323 53.71V52.31C116.323 52.07 116.31 51.85 116.283 51.65C116.257 51.4433 116.2 51.28 116.113 51.16C116.027 51.04 115.89 50.98 115.703 50.98C115.563 50.98 115.43 51.01 115.303 51.07C115.177 51.13 115.067 51.2 114.973 51.28V54.98C115.073 55.0533 115.187 55.1167 115.313 55.17C115.44 55.2167 115.583 55.24 115.743 55.24Z"></path>
</svg>
