<svg xmlns="http://www.w3.org/2000/svg" fill="none" viewBox="0 0 108 22" height="22" width="108">
<rect stroke="#0D0E12" fill="#0D0E12" height="21" width="107" y="0.5" x="0.5"></rect>
<path fill="white" d="M38.75 16.12C38.2433 16.12 37.82 16.03 37.48 15.85C37.14 15.67 36.8833 15.3933 36.71 15.02C36.5367 14.64 36.44 14.15 36.42 13.55L37.95 13.32C37.9567 13.6667 37.9867 13.9467 38.04 14.16C38.1 14.3733 38.18 14.5267 38.28 14.62C38.3867 14.7133 38.5133 14.76 38.66 14.76C38.8467 14.76 38.9667 14.6967 39.02 14.57C39.08 14.4433 39.11 14.31 39.11 14.17C39.11 13.8367 39.03 13.5567 38.87 13.33C38.71 13.0967 38.4933 12.8633 38.22 12.63L37.52 12.02C37.2133 11.76 36.9533 11.4667 36.74 11.14C36.5333 10.8067 36.43 10.3967 36.43 9.91C36.43 9.22333 36.6333 8.7 37.04 8.34C37.4467 7.97333 38 7.79 38.7 7.79C39.1333 7.79 39.48 7.86333 39.74 8.01C40.0067 8.15667 40.2067 8.35 40.34 8.59C40.48 8.82333 40.5733 9.07333 40.62 9.34C40.6733 9.6 40.7033 9.85 40.71 10.09L39.17 10.28C39.1633 10.04 39.1467 9.83333 39.12 9.66C39.1 9.48 39.0533 9.34333 38.98 9.25C38.9067 9.15 38.7933 9.1 38.64 9.1C38.4733 9.1 38.35 9.17 38.27 9.31C38.1967 9.45 38.16 9.59 38.16 9.73C38.16 10.03 38.23 10.2767 38.37 10.47C38.5167 10.6567 38.7067 10.8533 38.94 11.06L39.61 11.65C39.9633 11.95 40.26 12.29 40.5 12.67C40.7467 13.05 40.87 13.52 40.87 14.08C40.87 14.46 40.7833 14.8067 40.61 15.12C40.4367 15.4267 40.19 15.67 39.87 15.85C39.5567 16.03 39.1833 16.12 38.75 16.12ZM41.7667 16V7.9H43.5567V11.18H44.8067V7.9H46.6067V16H44.8067V12.46H43.5567V16H41.7667ZM50.1602 16.12C49.5536 16.12 49.0736 16.0133 48.7202 15.8C48.3669 15.5867 48.1136 15.28 47.9602 14.88C47.8069 14.48 47.7302 14.0033 47.7302 13.45V10.44C47.7302 9.88 47.8069 9.40333 47.9602 9.01C48.1136 8.61667 48.3669 8.31667 48.7202 8.11C49.0736 7.89667 49.5536 7.79 50.1602 7.79C50.7736 7.79 51.2569 7.89667 51.6102 8.11C51.9702 8.31667 52.2269 8.61667 52.3802 9.01C52.5336 9.40333 52.6102 9.88 52.6102 10.44V13.45C52.6102 14.0033 52.5336 14.48 52.3802 14.88C52.2269 15.28 51.9702 15.5867 51.6102 15.8C51.2569 16.0133 50.7736 16.12 50.1602 16.12ZM50.1602 14.85C50.3469 14.85 50.4836 14.8033 50.5702 14.71C50.6569 14.6167 50.7136 14.4967 50.7402 14.35C50.7669 14.2033 50.7802 14.0533 50.7802 13.9V10C50.7802 9.84 50.7669 9.69 50.7402 9.55C50.7136 9.40333 50.6569 9.28333 50.5702 9.19C50.4836 9.09667 50.3469 9.05 50.1602 9.05C49.9869 9.05 49.8569 9.09667 49.7702 9.19C49.6836 9.28333 49.6269 9.40333 49.6002 9.55C49.5736 9.69 49.5602 9.84 49.5602 10V13.9C49.5602 14.0533 49.5702 14.2033 49.5902 14.35C49.6169 14.4967 49.6702 14.6167 49.7502 14.71C49.8369 14.8033 49.9736 14.85 50.1602 14.85ZM54.3496 16L53.3696 7.9H54.8896L55.3696 12.62L55.9796 7.91H57.1696L57.8096 12.59L58.2996 7.9H59.7996L58.8296 16H57.2696L56.5796 11.11L55.9296 16H54.3496ZM65.3409 16.12C64.7809 16.12 64.3375 16.0033 64.0109 15.77C63.6909 15.5367 63.4609 15.21 63.3209 14.79C63.1875 14.3633 63.1209 13.8733 63.1209 13.32V10.6C63.1209 10.0267 63.1942 9.53 63.3409 9.11C63.4875 8.69 63.7375 8.36667 64.0909 8.14C64.4509 7.90667 64.9375 7.79 65.5509 7.79C66.1509 7.79 66.6209 7.89 66.9609 8.09C67.3075 8.29 67.5542 8.56667 67.7009 8.92C67.8475 9.27333 67.9209 9.68667 67.9209 10.16V10.68H66.1709V10.02C66.1709 9.84667 66.1575 9.68667 66.1309 9.54C66.1109 9.39333 66.0575 9.27667 65.9709 9.19C65.8909 9.09667 65.7575 9.05 65.5709 9.05C65.3775 9.05 65.2375 9.10333 65.1509 9.21C65.0642 9.31 65.0075 9.43667 64.9809 9.59C64.9609 9.74333 64.9509 9.90333 64.9509 10.07V13.82C64.9509 14 64.9675 14.17 65.0009 14.33C65.0409 14.4833 65.1075 14.61 65.2009 14.71C65.3009 14.8033 65.4409 14.85 65.6209 14.85C65.8075 14.85 65.9509 14.8 66.0509 14.7C66.1509 14.6 66.2209 14.47 66.2609 14.31C66.3009 14.15 66.3209 13.98 66.3209 13.8V12.85H65.5909V11.8H67.9309V16H66.7509L66.6509 15.33C66.5442 15.5567 66.3875 15.7467 66.1809 15.9C65.9742 16.0467 65.6942 16.12 65.3409 16.12ZM69.0512 16V7.9H71.2812C71.8278 7.9 72.3012 7.96 72.7012 8.08C73.1012 8.2 73.4112 8.41667 73.6312 8.73C73.8578 9.03667 73.9712 9.47333 73.9712 10.04C73.9712 10.3733 73.9445 10.67 73.8912 10.93C73.8378 11.19 73.7378 11.4167 73.5912 11.61C73.4512 11.7967 73.2478 11.9533 72.9812 12.08L74.0912 16H72.2412L71.3512 12.37H70.8412V16H69.0512ZM70.8412 11.34H71.3412C71.5945 11.34 71.7912 11.2967 71.9312 11.21C72.0712 11.1167 72.1678 10.9867 72.2212 10.82C72.2812 10.6467 72.3112 10.44 72.3112 10.2C72.3112 9.85333 72.2478 9.58333 72.1212 9.39C71.9945 9.19667 71.7612 9.1 71.4212 9.1H70.8412V11.34ZM75.0573 16V7.9H76.8473V16H75.0573ZM78.0551 16V7.9H80.1051C80.8117 7.9 81.3617 7.99 81.7551 8.17C82.1484 8.34333 82.4251 8.62 82.5851 9C82.7451 9.37333 82.8251 9.86 82.8251 10.46V13.4C82.8251 14.0067 82.7451 14.5033 82.5851 14.89C82.4251 15.27 82.1484 15.55 81.7551 15.73C81.3684 15.91 80.8251 16 80.1251 16H78.0551ZM79.8451 14.76H80.1251C80.3984 14.76 80.5951 14.72 80.7151 14.64C80.8351 14.56 80.9084 14.44 80.9351 14.28C80.9684 14.12 80.9851 13.92 80.9851 13.68V10.15C80.9851 9.91 80.9651 9.71667 80.9251 9.57C80.8917 9.42333 80.8151 9.31667 80.6951 9.25C80.5751 9.18333 80.3817 9.15 80.1151 9.15H79.8451V14.76Z"></path>
<rect fill="white" height="9" width="1" y="7" x="29"></rect>
<rect fill="white" height="9" width="1" y="7" x="25"></rect>
<rect fill="white" transform="rotate(-90 23 10)" height="9" width="1" y="10" x="23"></rect>
<rect fill="white" transform="rotate(-90 23 14)" height="9" width="1" y="14" x="23"></rect>
</svg>
