<svg xmlns="http://www.w3.org/2000/svg" fill="none" viewBox="0 0 13 18" height="18" width="13">
<rect fill-opacity="0.01" fill="#0D0E12" height="18" width="13"></rect>
<path fill="white" d="M0.492 14V12.584L2.82 9.008C2.996 8.744 3.16 8.488 3.312 8.24C3.472 7.992 3.6 7.74 3.696 7.484C3.8 7.228 3.852 6.96 3.852 6.68C3.852 6.4 3.796 6.192 3.684 6.056C3.572 5.92 3.42 5.852 3.228 5.852C3.012 5.852 2.844 5.912 2.724 6.032C2.604 6.152 2.52 6.312 2.472 6.512C2.432 6.712 2.412 6.936 2.412 7.184V7.664H0.468V7.148C0.468 6.572 0.56 6.06 0.744 5.612C0.928 5.156 1.22 4.8 1.62 4.544C2.02 4.28 2.544 4.148 3.192 4.148C4.064 4.148 4.72 4.376 5.16 4.832C5.608 5.28 5.832 5.908 5.832 6.716C5.832 7.108 5.768 7.472 5.64 7.808C5.52 8.144 5.356 8.472 5.148 8.792C4.948 9.104 4.732 9.432 4.5 9.776L2.724 12.428H5.568V14H0.492ZM9.28406 14.156C8.62806 14.156 8.10406 14.028 7.71206 13.772C7.32006 13.508 7.04006 13.148 6.87206 12.692C6.70406 12.228 6.62006 11.7 6.62006 11.108C6.62806 10.868 6.65206 10.636 6.69206 10.412C6.74006 10.18 6.80806 9.968 6.89606 9.776C6.99206 9.576 7.10806 9.404 7.24406 9.26C7.38806 9.108 7.55606 8.984 7.74806 8.888C7.50006 8.704 7.28006 8.44 7.08806 8.096C6.89606 7.744 6.79206 7.3 6.77606 6.764C6.76806 6.22 6.85606 5.752 7.04006 5.36C7.23206 4.968 7.51606 4.668 7.89206 4.46C8.26806 4.252 8.73206 4.148 9.28406 4.148C9.84406 4.148 10.3081 4.256 10.6761 4.472C11.0521 4.68 11.3321 4.98 11.5161 5.372C11.7001 5.756 11.7841 6.22 11.7681 6.764C11.7601 7.308 11.6641 7.756 11.4801 8.108C11.2961 8.452 11.0761 8.712 10.8201 8.888C11.0121 8.984 11.1761 9.108 11.3121 9.26C11.4561 9.404 11.5721 9.576 11.6601 9.776C11.7561 9.968 11.8281 10.18 11.8761 10.412C11.9241 10.636 11.9481 10.868 11.9481 11.108C11.9641 11.7 11.8841 12.228 11.7081 12.692C11.5401 13.148 11.2601 13.508 10.8681 13.772C10.4761 14.028 9.94806 14.156 9.28406 14.156ZM9.28406 12.68C9.50006 12.68 9.65606 12.6 9.75206 12.44C9.84806 12.28 9.90806 12.092 9.93206 11.876C9.95606 11.652 9.96806 11.448 9.96806 11.264C9.97606 11.016 9.96406 10.776 9.93206 10.544C9.90806 10.312 9.84806 10.124 9.75206 9.98C9.65606 9.828 9.50006 9.752 9.28406 9.752C9.07606 9.752 8.92406 9.828 8.82806 9.98C8.73206 10.124 8.66806 10.312 8.63606 10.544C8.61206 10.768 8.60006 11.008 8.60006 11.264C8.60006 11.448 8.61206 11.652 8.63606 11.876C8.66006 12.1 8.72006 12.292 8.81606 12.452C8.92006 12.604 9.07606 12.68 9.28406 12.68ZM9.28406 8.168C9.42006 8.168 9.53206 8.116 9.62006 8.012C9.70806 7.9 9.77206 7.736 9.81206 7.52C9.86006 7.304 9.88406 7.036 9.88406 6.716C9.88406 6.388 9.83206 6.128 9.72806 5.936C9.63206 5.744 9.48406 5.648 9.28406 5.648C9.08406 5.648 8.92806 5.744 8.81606 5.936C8.71206 6.128 8.66006 6.384 8.66006 6.704C8.66006 7.024 8.68006 7.296 8.72006 7.52C8.76806 7.736 8.84006 7.9 8.93606 8.012C9.03206 8.116 9.14806 8.168 9.28406 8.168Z"></path>
</svg>
