<svg xmlns="http://www.w3.org/2000/svg" fill="none" viewBox="0 0 108 22" height="22" width="108">
<rect stroke="#0D0E12" fill="#0D0E12" height="21" width="107" y="0.5" x="0.5"></rect>
<path fill="white" d="M24.6 16V7.9H29.45V16H27.69V9.18H26.36V16H24.6ZM32.9747 16.12C32.368 16.12 31.888 16.0133 31.5347 15.8C31.1814 15.5867 30.928 15.28 30.7747 14.88C30.6214 14.48 30.5447 14.0033 30.5447 13.45V10.44C30.5447 9.88 30.6214 9.40333 30.7747 9.01C30.928 8.61667 31.1814 8.31667 31.5347 8.11C31.888 7.89667 32.368 7.79 32.9747 7.79C33.588 7.79 34.0714 7.89667 34.4247 8.11C34.7847 8.31667 35.0414 8.61667 35.1947 9.01C35.348 9.40333 35.4247 9.88 35.4247 10.44V13.45C35.4247 14.0033 35.348 14.48 35.1947 14.88C35.0414 15.28 34.7847 15.5867 34.4247 15.8C34.0714 16.0133 33.588 16.12 32.9747 16.12ZM32.9747 14.85C33.1614 14.85 33.298 14.8033 33.3847 14.71C33.4714 14.6167 33.528 14.4967 33.5547 14.35C33.5814 14.2033 33.5947 14.0533 33.5947 13.9V10C33.5947 9.84 33.5814 9.69 33.5547 9.55C33.528 9.40333 33.4714 9.28333 33.3847 9.19C33.298 9.09667 33.1614 9.05 32.9747 9.05C32.8014 9.05 32.6714 9.09667 32.5847 9.19C32.498 9.28333 32.4414 9.40333 32.4147 9.55C32.388 9.69 32.3747 9.84 32.3747 10V13.9C32.3747 14.0533 32.3847 14.2033 32.4047 14.35C32.4314 14.4967 32.4847 14.6167 32.5647 14.71C32.6514 14.8033 32.788 14.85 32.9747 14.85ZM36.5441 16V7.9H38.3341V11.11H38.5141L39.7041 7.9H41.4841L40.0041 11.7L41.5341 16H39.6941L38.5141 12.47H38.3341V16H36.5441ZM41.8467 16L43.3767 7.9H45.4167L46.9267 16H45.2767L45.0067 14.29H43.8167L43.5367 16H41.8467ZM43.9767 13.22H44.8367L44.4067 10.06L43.9767 13.22ZM49.8045 16.15C49.2379 16.15 48.7912 16.0433 48.4645 15.83C48.1445 15.6167 47.9145 15.32 47.7745 14.94C47.6412 14.5533 47.5745 14.11 47.5745 13.61V13.32H49.2545C49.2545 13.3333 49.2545 13.3733 49.2545 13.44C49.2545 13.5067 49.2545 13.57 49.2545 13.63C49.2545 14.03 49.2945 14.3167 49.3745 14.49C49.4545 14.6567 49.6079 14.74 49.8345 14.74C49.9879 14.74 50.1012 14.7 50.1745 14.62C50.2545 14.54 50.3079 14.4233 50.3345 14.27C50.3679 14.11 50.3845 13.91 50.3845 13.67C50.3845 13.2633 50.3245 12.9567 50.2045 12.75C50.0845 12.5367 49.8345 12.4267 49.4545 12.42C49.4479 12.4133 49.4179 12.41 49.3645 12.41C49.3179 12.41 49.2612 12.41 49.1945 12.41C49.1279 12.41 49.0645 12.41 49.0045 12.41V11.32C49.0512 11.32 49.0979 11.32 49.1445 11.32C49.1912 11.32 49.2379 11.32 49.2845 11.32C49.3312 11.32 49.3745 11.32 49.4145 11.32C49.8079 11.3133 50.0679 11.2067 50.1945 11C50.3212 10.7933 50.3845 10.4867 50.3845 10.08C50.3845 9.76667 50.3345 9.52667 50.2345 9.36C50.1412 9.19333 49.9812 9.11 49.7545 9.11C49.5345 9.11 49.3812 9.2 49.2945 9.38C49.2145 9.55333 49.1712 9.78667 49.1645 10.08C49.1645 10.0933 49.1645 10.15 49.1645 10.25C49.1645 10.3433 49.1645 10.4367 49.1645 10.53H47.4845V10.04C47.4845 9.55333 47.5779 9.14333 47.7645 8.81C47.9579 8.47 48.2245 8.21333 48.5645 8.04C48.9045 7.86667 49.3045 7.78 49.7645 7.78C50.2379 7.78 50.6412 7.86333 50.9745 8.03C51.3145 8.19667 51.5745 8.44333 51.7545 8.77C51.9345 9.09 52.0245 9.49 52.0245 9.97C52.0245 10.4433 51.9279 10.8433 51.7345 11.17C51.5412 11.49 51.3079 11.6867 51.0345 11.76C51.2212 11.8333 51.3879 11.9433 51.5345 12.09C51.6879 12.23 51.8079 12.4233 51.8945 12.67C51.9812 12.9167 52.0245 13.2333 52.0245 13.62C52.0245 14.1133 51.9512 14.5533 51.8045 14.94C51.6645 15.32 51.4312 15.6167 51.1045 15.83C50.7779 16.0433 50.3445 16.15 49.8045 16.15ZM52.6182 16L54.1482 7.9H56.1882L57.6982 16H56.0482L55.7782 14.29H54.5882L54.3082 16H52.6182ZM54.7482 13.22H55.6082L55.1782 10.06L54.7482 13.22ZM59.1191 16V9.23H57.8991V7.9H62.1291V9.23H60.9191V16H59.1191ZM62.8722 16V7.9H64.6622V11.32H65.0622C65.5689 11.32 65.9989 11.4033 66.3522 11.57C66.7055 11.7367 66.9755 11.9933 67.1622 12.34C67.3489 12.68 67.4422 13.12 67.4422 13.66C67.4422 14.1533 67.3755 14.5533 67.2422 14.86C67.1155 15.1667 66.9355 15.4033 66.7022 15.57C66.4689 15.7367 66.1955 15.85 65.8822 15.91C65.5755 15.97 65.2455 16 64.8922 16H62.8722ZM64.6622 14.83H64.9022C65.1289 14.83 65.3055 14.7867 65.4322 14.7C65.5655 14.6133 65.6589 14.48 65.7122 14.3C65.7722 14.12 65.7989 13.8933 65.7922 13.62C65.7855 13.32 65.7222 13.07 65.6022 12.87C65.4889 12.6633 65.2489 12.56 64.8822 12.56H64.6622V14.83ZM73.2774 16.12C72.6641 16.12 72.1774 16.01 71.8174 15.79C71.4641 15.5633 71.2141 15.25 71.0674 14.85C70.9208 14.4433 70.8474 13.9667 70.8474 13.42V10.5C70.8474 9.94 70.9208 9.46 71.0674 9.06C71.2141 8.65333 71.4641 8.34 71.8174 8.12C72.1774 7.9 72.6641 7.79 73.2774 7.79C73.8774 7.79 74.3441 7.89 74.6774 8.09C75.0174 8.28333 75.2574 8.55667 75.3974 8.91C75.5374 9.26333 75.6074 9.67 75.6074 10.13V10.83H73.8574V10.02C73.8574 9.86 73.8474 9.70667 73.8274 9.56C73.8141 9.41333 73.7674 9.29333 73.6874 9.2C73.6074 9.1 73.4708 9.05 73.2774 9.05C73.0908 9.05 72.9508 9.1 72.8574 9.2C72.7708 9.3 72.7141 9.42667 72.6874 9.58C72.6674 9.72667 72.6574 9.88333 72.6574 10.05V13.86C72.6574 14.04 72.6708 14.2067 72.6974 14.36C72.7308 14.5067 72.7908 14.6267 72.8774 14.72C72.9708 14.8067 73.1041 14.85 73.2774 14.85C73.4641 14.85 73.5974 14.8033 73.6774 14.71C73.7574 14.61 73.8074 14.4833 73.8274 14.33C73.8474 14.1767 73.8574 14.02 73.8574 13.86V13.01H75.6074V13.71C75.6074 14.17 75.5374 14.5833 75.3974 14.95C75.2641 15.31 75.0274 15.5967 74.6874 15.81C74.3541 16.0167 73.8841 16.12 73.2774 16.12ZM76.5922 16V7.9H80.2322V9.12H78.3822V11.13H79.7922V12.37H78.3822V14.79H80.2522V16H76.5922ZM81.7948 16V9.23H80.5748V7.9H84.8048V9.23H83.5948V16H81.7948ZM85.548 16V7.9H87.338V11.11H87.518L88.708 7.9H90.488L89.008 11.7L90.538 16H88.698L87.518 12.47H87.338V16H85.548ZM91.1706 17.59V16.41C91.4573 16.4167 91.7073 16.4033 91.9206 16.37C92.134 16.3367 92.3073 16.2733 92.4406 16.18C92.574 16.0867 92.6606 15.96 92.7006 15.8C92.7473 15.6333 92.7406 15.4267 92.6806 15.18L90.8606 7.9H92.5206L93.2206 11.23L93.5506 13.4L93.7906 11.22L94.3806 7.9H96.0606L94.3806 15.45C94.3006 15.8167 94.2073 16.1267 94.1006 16.38C93.994 16.6333 93.8606 16.84 93.7006 17C93.5473 17.1667 93.3573 17.2933 93.1306 17.38C92.904 17.4667 92.6273 17.5233 92.3006 17.55C91.9806 17.5833 91.604 17.5967 91.1706 17.59Z"></path>
<rect fill="white" height="9" width="1" y="7" x="17"></rect>
<rect fill="white" height="9" width="1" y="7" x="13"></rect>
<rect fill="white" transform="rotate(-90 11 10)" height="9" width="1" y="10" x="11"></rect>
<rect fill="white" transform="rotate(-90 11 14)" height="9" width="1" y="14" x="11"></rect>
</svg>
