<svg xmlns="http://www.w3.org/2000/svg" fill="none" viewBox="0 0 156 56" height="56" width="156">
<rect stroke="white" fill="#0D0E12" height="55" width="155" y="0.5" x="0.5"></rect>
<path fill="white" d="M41.0005 23V17.22H42.6305V23H41.0005ZM40.9905 16.24V15.11H42.6305V16.24H40.9905ZM45.417 23.1C44.9103 23.1 44.487 22.9867 44.147 22.76C43.8136 22.5333 43.5403 22.1633 43.327 21.65L44.437 21.16C44.5436 21.42 44.667 21.6267 44.807 21.78C44.9536 21.9267 45.1136 22 45.287 22C45.4136 22 45.507 21.9733 45.567 21.92C45.6336 21.8667 45.667 21.7933 45.667 21.7C45.667 21.5467 45.607 21.4067 45.487 21.28C45.3736 21.1533 45.167 20.9667 44.867 20.72L44.447 20.37C44.1403 20.11 43.897 19.86 43.717 19.62C43.5436 19.3733 43.457 19.07 43.457 18.71C43.457 18.3967 43.537 18.12 43.697 17.88C43.8636 17.64 44.0836 17.4533 44.357 17.32C44.6303 17.1867 44.9236 17.12 45.237 17.12C45.7103 17.12 46.107 17.25 46.427 17.51C46.747 17.77 46.9703 18.1367 47.097 18.61L46.047 19.09C46.007 18.9633 45.9503 18.8367 45.877 18.71C45.8036 18.5833 45.7136 18.4767 45.607 18.39C45.507 18.3033 45.397 18.26 45.277 18.26C45.1703 18.26 45.0836 18.29 45.017 18.35C44.957 18.41 44.927 18.49 44.927 18.59C44.927 18.7167 44.997 18.8533 45.137 19C45.2836 19.1467 45.4836 19.3233 45.737 19.53L46.147 19.89C46.3136 20.03 46.477 20.18 46.637 20.34C46.797 20.5 46.927 20.6767 47.027 20.87C47.1336 21.0633 47.187 21.2833 47.187 21.53C47.187 21.8633 47.1036 22.15 46.937 22.39C46.7703 22.6233 46.5503 22.8 46.277 22.92C46.0103 23.04 45.7236 23.1 45.417 23.1ZM52.3138 25C51.8805 25 51.5038 24.9567 51.1838 24.87C50.8638 24.7833 50.6138 24.6533 50.4338 24.48C50.2605 24.3067 50.1738 24.0867 50.1738 23.82C50.1738 23.64 50.2105 23.4767 50.2838 23.33C50.3638 23.19 50.4705 23.0667 50.6038 22.96C50.7438 22.8467 50.9005 22.75 51.0738 22.67C50.8205 22.5967 50.6238 22.4867 50.4838 22.34C50.3438 22.1933 50.2738 21.9967 50.2738 21.75C50.2738 21.5167 50.3305 21.3167 50.4438 21.15C50.5572 20.9767 50.7138 20.8033 50.9138 20.63C50.7272 20.4633 50.5838 20.26 50.4838 20.02C50.3905 19.7733 50.3438 19.4767 50.3438 19.13C50.3438 18.6967 50.4238 18.33 50.5838 18.03C50.7438 17.73 50.9772 17.5033 51.2838 17.35C51.5972 17.1967 51.9738 17.12 52.4138 17.12C52.7138 17.12 52.9772 17.1567 53.2038 17.23C53.4305 17.3033 53.6238 17.4167 53.7838 17.57C53.8572 17.4567 53.9538 17.3467 54.0738 17.24C54.1938 17.1333 54.3305 17.0433 54.4838 16.97L54.6938 16.87L55.0738 17.65C55.0138 17.67 54.9305 17.7033 54.8238 17.75C54.7172 17.7967 54.6038 17.8467 54.4838 17.9C54.3705 17.9533 54.2672 18.0067 54.1738 18.06C54.2472 18.2067 54.3038 18.3733 54.3438 18.56C54.3838 18.7467 54.4038 18.94 54.4038 19.14C54.4038 19.5533 54.3272 19.91 54.1738 20.21C54.0272 20.51 53.8072 20.74 53.5138 20.9C53.2205 21.0533 52.8538 21.13 52.4138 21.13C52.2272 21.13 52.0505 21.1167 51.8838 21.09C51.7172 21.0567 51.5638 21.0167 51.4238 20.97C51.3838 21.0233 51.3472 21.08 51.3138 21.14C51.2872 21.1933 51.2738 21.2533 51.2738 21.32C51.2738 21.4 51.3138 21.4633 51.3938 21.51C51.4738 21.5567 51.6172 21.5933 51.8238 21.62L53.3438 21.79C53.8372 21.8433 54.2005 22.0033 54.4338 22.27C54.6672 22.53 54.7838 22.8733 54.7838 23.3C54.7838 23.6667 54.7005 23.9767 54.5338 24.23C54.3738 24.4833 54.1105 24.6733 53.7438 24.8C53.3838 24.9333 52.9072 25 52.3138 25ZM52.5238 23.82C52.8905 23.82 53.1705 23.79 53.3638 23.73C53.5638 23.67 53.6638 23.5467 53.6638 23.36C53.6638 23.2667 53.6372 23.19 53.5838 23.13C53.5305 23.0767 53.4405 23.0333 53.3138 23C53.1938 22.96 53.0205 22.93 52.7938 22.91L51.7238 22.8C51.6572 22.8467 51.5972 22.9 51.5438 22.96C51.4972 23.0133 51.4572 23.07 51.4238 23.13C51.3972 23.1967 51.3838 23.2667 51.3838 23.34C51.3838 23.5 51.4705 23.62 51.6438 23.7C51.8172 23.78 52.1105 23.82 52.5238 23.82ZM52.4138 20.16C52.5072 20.16 52.5838 20.1433 52.6438 20.11C52.7038 20.07 52.7472 20.01 52.7738 19.93C52.8072 19.85 52.8305 19.7433 52.8438 19.61C52.8572 19.4767 52.8638 19.3167 52.8638 19.13C52.8638 18.9367 52.8572 18.7767 52.8438 18.65C52.8305 18.5167 52.8072 18.41 52.7738 18.33C52.7472 18.2433 52.7038 18.1833 52.6438 18.15C52.5838 18.11 52.5072 18.09 52.4138 18.09C52.3205 18.09 52.2438 18.11 52.1838 18.15C52.1238 18.1833 52.0772 18.24 52.0438 18.32C52.0172 18.4 51.9972 18.5067 51.9838 18.64C51.9705 18.7733 51.9638 18.9367 51.9638 19.13C51.9638 19.3167 51.9705 19.4767 51.9838 19.61C51.9972 19.7367 52.0172 19.8433 52.0438 19.93C52.0772 20.01 52.1238 20.07 52.1838 20.11C52.2438 20.1433 52.3205 20.16 52.4138 20.16ZM55.4536 23V17.22H57.0836V23H55.4536ZM55.4436 16.24V15.11H57.0836V16.24H55.4436ZM58.8401 23L57.6801 17.22H59.2401L59.7201 20.91L60.1601 17.22H61.7201L60.5301 23H58.8401ZM64.1891 23.1C63.7691 23.1 63.4091 23.0267 63.1091 22.88C62.8091 22.7267 62.5791 22.5067 62.4191 22.22C62.2591 21.9267 62.1791 21.5767 62.1791 21.17V19.05C62.1791 18.6367 62.2591 18.2867 62.4191 18C62.5791 17.7133 62.8091 17.4967 63.1091 17.35C63.4157 17.1967 63.7757 17.12 64.1891 17.12C64.6157 17.12 64.9691 17.1933 65.2491 17.34C65.5357 17.4867 65.7491 17.7033 65.8891 17.99C66.0357 18.2767 66.1091 18.63 66.1091 19.05V20.21H63.7891V21.32C63.7891 21.4667 63.8057 21.5867 63.8391 21.68C63.8724 21.7733 63.9191 21.84 63.9791 21.88C64.0391 21.92 64.1091 21.94 64.1891 21.94C64.2691 21.94 64.3391 21.9233 64.3991 21.89C64.4657 21.85 64.5157 21.79 64.5491 21.71C64.5891 21.63 64.6091 21.52 64.6091 21.38V20.77H66.1091V21.33C66.1091 21.9167 65.9391 22.36 65.5991 22.66C65.2591 22.9533 64.7891 23.1 64.1891 23.1ZM63.7891 19.45H64.6091V18.87C64.6091 18.7167 64.5891 18.5967 64.5491 18.51C64.5157 18.4233 64.4657 18.3633 64.3991 18.33C64.3391 18.2967 64.2657 18.28 64.1791 18.28C64.0991 18.28 64.0291 18.3 63.9691 18.34C63.9157 18.38 63.8724 18.45 63.8391 18.55C63.8057 18.6433 63.7891 18.78 63.7891 18.96V19.45ZM66.9963 23V17.22H68.6263V17.8C68.8397 17.5867 69.0597 17.42 69.2863 17.3C69.5197 17.18 69.763 17.12 70.0163 17.12C70.2563 17.12 70.453 17.18 70.6063 17.3C70.7663 17.4133 70.8863 17.5733 70.9663 17.78C71.0463 17.98 71.0863 18.21 71.0863 18.47V23H69.4663V18.7C69.4663 18.56 69.443 18.4533 69.3963 18.38C69.3497 18.3067 69.263 18.27 69.1363 18.27C69.0697 18.27 68.9897 18.29 68.8963 18.33C68.8097 18.3633 68.7197 18.4133 68.6263 18.48V23H66.9963ZM76.4133 23.06C75.9799 23.06 75.6433 22.9967 75.4033 22.87C75.1699 22.7433 75.0099 22.56 74.9233 22.32C74.8366 22.0733 74.7933 21.7767 74.7933 21.43V18.29H74.2333V17.22H74.7933V15.46H76.4433V17.22H77.2633V18.29H76.4433V21.27C76.4433 21.4367 76.4899 21.5567 76.5833 21.63C76.6833 21.7033 76.8066 21.74 76.9533 21.74C77.0399 21.74 77.1199 21.7367 77.1933 21.73C77.2666 21.7167 77.3333 21.7067 77.3933 21.7V22.98C77.3066 22.9933 77.1699 23.01 76.9833 23.03C76.7966 23.05 76.6066 23.06 76.4133 23.06ZM80.0584 23.1C79.6451 23.1 79.2851 23.03 78.9784 22.89C78.6784 22.75 78.4451 22.54 78.2784 22.26C78.1184 21.98 78.0384 21.63 78.0384 21.21V19.01C78.0384 18.59 78.1184 18.24 78.2784 17.96C78.4451 17.68 78.6784 17.47 78.9784 17.33C79.2851 17.19 79.6451 17.12 80.0584 17.12C80.4718 17.12 80.8284 17.19 81.1284 17.33C81.4351 17.47 81.6718 17.68 81.8384 17.96C82.0051 18.24 82.0884 18.59 82.0884 19.01V21.21C82.0884 21.63 82.0051 21.98 81.8384 22.26C81.6718 22.54 81.4351 22.75 81.1284 22.89C80.8284 23.03 80.4718 23.1 80.0584 23.1ZM80.0684 22.02C80.1751 22.02 80.2584 21.9933 80.3184 21.94C80.3784 21.88 80.4184 21.8 80.4384 21.7C80.4651 21.5933 80.4784 21.4667 80.4784 21.32V18.9C80.4784 18.7533 80.4651 18.63 80.4384 18.53C80.4184 18.4233 80.3784 18.3433 80.3184 18.29C80.2584 18.23 80.1751 18.2 80.0684 18.2C79.9618 18.2 79.8784 18.23 79.8184 18.29C79.7584 18.3433 79.7151 18.4233 79.6884 18.53C79.6618 18.63 79.6484 18.7533 79.6484 18.9V21.32C79.6484 21.4667 79.6618 21.5933 79.6884 21.7C79.7151 21.8 79.7584 21.88 79.8184 21.94C79.8784 21.9933 79.9618 22.02 80.0684 22.02ZM87.341 23.06C86.9077 23.06 86.571 22.9967 86.331 22.87C86.0977 22.7433 85.9377 22.56 85.851 22.32C85.7643 22.0733 85.721 21.7767 85.721 21.43V18.29H85.161V17.22H85.721V15.46H87.371V17.22H88.191V18.29H87.371V21.27C87.371 21.4367 87.4177 21.5567 87.511 21.63C87.611 21.7033 87.7343 21.74 87.881 21.74C87.9677 21.74 88.0477 21.7367 88.121 21.73C88.1943 21.7167 88.261 21.7067 88.321 21.7V22.98C88.2343 22.9933 88.0977 23.01 87.911 23.03C87.7243 23.05 87.5343 23.06 87.341 23.06ZM89.0962 23V14.9H90.7162V17.73C90.9295 17.5167 91.1528 17.3633 91.3862 17.27C91.6195 17.17 91.8695 17.12 92.1362 17.12C92.3695 17.12 92.5628 17.18 92.7162 17.3C92.8762 17.4133 92.9962 17.5733 93.0762 17.78C93.1562 17.98 93.1962 18.21 93.1962 18.47V23H91.5762V18.7C91.5762 18.56 91.5528 18.4533 91.5062 18.38C91.4595 18.3067 91.3728 18.27 91.2462 18.27C91.1795 18.27 91.0995 18.29 91.0062 18.33C90.9128 18.3633 90.8162 18.4133 90.7162 18.48V23H89.0962ZM96.0641 23.1C95.6441 23.1 95.2841 23.0267 94.9841 22.88C94.6841 22.7267 94.4541 22.5067 94.2941 22.22C94.1341 21.9267 94.0541 21.5767 94.0541 21.17V19.05C94.0541 18.6367 94.1341 18.2867 94.2941 18C94.4541 17.7133 94.6841 17.4967 94.9841 17.35C95.2907 17.1967 95.6507 17.12 96.0641 17.12C96.4907 17.12 96.8441 17.1933 97.1241 17.34C97.4107 17.4867 97.6241 17.7033 97.7641 17.99C97.9107 18.2767 97.9841 18.63 97.9841 19.05V20.21H95.6641V21.32C95.6641 21.4667 95.6807 21.5867 95.7141 21.68C95.7474 21.7733 95.7941 21.84 95.8541 21.88C95.9141 21.92 95.9841 21.94 96.0641 21.94C96.1441 21.94 96.2141 21.9233 96.2741 21.89C96.3407 21.85 96.3907 21.79 96.4241 21.71C96.4641 21.63 96.4841 21.52 96.4841 21.38V20.77H97.9841V21.33C97.9841 21.9167 97.8141 22.36 97.4741 22.66C97.1341 22.9533 96.6641 23.1 96.0641 23.1ZM95.6641 19.45H96.4841V18.87C96.4841 18.7167 96.4641 18.5967 96.4241 18.51C96.3907 18.4233 96.3407 18.3633 96.2741 18.33C96.2141 18.2967 96.1407 18.28 96.0541 18.28C95.9741 18.28 95.9041 18.3 95.8441 18.34C95.7907 18.38 95.7474 18.45 95.7141 18.55C95.6807 18.6433 95.6641 18.78 95.6641 18.96V19.45ZM103.33 23.1C102.917 23.1 102.557 23.03 102.25 22.89C101.95 22.75 101.717 22.54 101.55 22.26C101.39 21.98 101.31 21.63 101.31 21.21V19.01C101.31 18.59 101.39 18.24 101.55 17.96C101.717 17.68 101.95 17.47 102.25 17.33C102.557 17.19 102.917 17.12 103.33 17.12C103.743 17.12 104.1 17.19 104.4 17.33C104.707 17.47 104.943 17.68 105.11 17.96C105.277 18.24 105.36 18.59 105.36 19.01V21.21C105.36 21.63 105.277 21.98 105.11 22.26C104.943 22.54 104.707 22.75 104.4 22.89C104.1 23.03 103.743 23.1 103.33 23.1ZM103.34 22.02C103.447 22.02 103.53 21.9933 103.59 21.94C103.65 21.88 103.69 21.8 103.71 21.7C103.737 21.5933 103.75 21.4667 103.75 21.32V18.9C103.75 18.7533 103.737 18.63 103.71 18.53C103.69 18.4233 103.65 18.3433 103.59 18.29C103.53 18.23 103.447 18.2 103.34 18.2C103.233 18.2 103.15 18.23 103.09 18.29C103.03 18.3433 102.987 18.4233 102.96 18.53C102.933 18.63 102.92 18.7533 102.92 18.9V21.32C102.92 21.4667 102.933 21.5933 102.96 21.7C102.987 21.8 103.03 21.88 103.09 21.94C103.15 21.9933 103.233 22.02 103.34 22.02ZM106.264 23V17.22H107.894V17.8C108.107 17.5867 108.327 17.42 108.554 17.3C108.787 17.18 109.031 17.12 109.284 17.12C109.524 17.12 109.721 17.18 109.874 17.3C110.034 17.4133 110.154 17.5733 110.234 17.78C110.314 17.98 110.354 18.21 110.354 18.47V23H108.734V18.7C108.734 18.56 108.711 18.4533 108.664 18.38C108.617 18.3067 108.531 18.27 108.404 18.27C108.337 18.27 108.257 18.29 108.164 18.33C108.077 18.3633 107.987 18.4133 107.894 18.48V23H106.264ZM113.222 23.1C112.802 23.1 112.442 23.0267 112.142 22.88C111.842 22.7267 111.612 22.5067 111.452 22.22C111.292 21.9267 111.212 21.5767 111.212 21.17V19.05C111.212 18.6367 111.292 18.2867 111.452 18C111.612 17.7133 111.842 17.4967 112.142 17.35C112.449 17.1967 112.809 17.12 113.222 17.12C113.649 17.12 114.002 17.1933 114.282 17.34C114.569 17.4867 114.782 17.7033 114.922 17.99C115.069 18.2767 115.142 18.63 115.142 19.05V20.21H112.822V21.32C112.822 21.4667 112.839 21.5867 112.872 21.68C112.906 21.7733 112.952 21.84 113.012 21.88C113.072 21.92 113.142 21.94 113.222 21.94C113.302 21.94 113.372 21.9233 113.432 21.89C113.499 21.85 113.549 21.79 113.582 21.71C113.622 21.63 113.642 21.52 113.642 21.38V20.77H115.142V21.33C115.142 21.9167 114.972 22.36 114.632 22.66C114.292 22.9533 113.822 23.1 113.222 23.1ZM112.822 19.45H113.642V18.87C113.642 18.7167 113.622 18.5967 113.582 18.51C113.549 18.4233 113.499 18.3633 113.432 18.33C113.372 18.2967 113.299 18.28 113.212 18.28C113.132 18.28 113.062 18.3 113.002 18.34C112.949 18.38 112.906 18.45 112.872 18.55C112.839 18.6433 112.822 18.78 112.822 18.96V19.45ZM32.0434 38L31.1934 32.22H32.5534L32.9734 35.5L33.4234 32.22H34.6034L34.9934 35.58L35.4834 32.22H36.7434L35.8834 38H34.4834L33.9834 34.75L33.4234 38H32.0434ZM37.4702 38V29.9H39.0902V32.73C39.3035 32.5167 39.5269 32.3633 39.7602 32.27C39.9935 32.17 40.2435 32.12 40.5102 32.12C40.7435 32.12 40.9369 32.18 41.0902 32.3C41.2502 32.4133 41.3702 32.5733 41.4502 32.78C41.5302 32.98 41.5702 33.21 41.5702 33.47V38H39.9502V33.7C39.9502 33.56 39.9269 33.4533 39.8802 33.38C39.8335 33.3067 39.7469 33.27 39.6202 33.27C39.5535 33.27 39.4735 33.29 39.3802 33.33C39.2869 33.3633 39.1902 33.4133 39.0902 33.48V38H37.4702ZM44.4481 38.1C44.0348 38.1 43.6748 38.03 43.3681 37.89C43.0681 37.75 42.8348 37.54 42.6681 37.26C42.5081 36.98 42.4281 36.63 42.4281 36.21V34.01C42.4281 33.59 42.5081 33.24 42.6681 32.96C42.8348 32.68 43.0681 32.47 43.3681 32.33C43.6748 32.19 44.0348 32.12 44.4481 32.12C44.8614 32.12 45.2181 32.19 45.5181 32.33C45.8248 32.47 46.0614 32.68 46.2281 32.96C46.3948 33.24 46.4781 33.59 46.4781 34.01V36.21C46.4781 36.63 46.3948 36.98 46.2281 37.26C46.0614 37.54 45.8248 37.75 45.5181 37.89C45.2181 38.03 44.8614 38.1 44.4481 38.1ZM44.4581 37.02C44.5648 37.02 44.6481 36.9933 44.7081 36.94C44.7681 36.88 44.8081 36.8 44.8281 36.7C44.8548 36.5933 44.8681 36.4667 44.8681 36.32V33.9C44.8681 33.7533 44.8548 33.63 44.8281 33.53C44.8081 33.4233 44.7681 33.3433 44.7081 33.29C44.6481 33.23 44.5648 33.2 44.4581 33.2C44.3514 33.2 44.2681 33.23 44.2081 33.29C44.1481 33.3433 44.1048 33.4233 44.0781 33.53C44.0514 33.63 44.0381 33.7533 44.0381 33.9V36.32C44.0381 36.4667 44.0514 36.5933 44.0781 36.7C44.1048 36.8 44.1481 36.88 44.2081 36.94C44.2681 36.9933 44.3514 37.02 44.4581 37.02ZM50.4907 38L49.6407 32.22H51.0007L51.4207 35.5L51.8707 32.22H53.0507L53.4407 35.58L53.9307 32.22H55.1907L54.3307 38H52.9307L52.4307 34.75L51.8707 38H50.4907ZM55.9175 38V32.22H57.5475V38H55.9175ZM55.9075 31.24V30.11H57.5475V31.24H55.9075ZM58.6239 38V29.9H60.2439V38H58.6239ZM61.3681 38V29.9H62.9881V38H61.3681ZM67.8508 38.1C67.4242 38.1 67.0942 37.95 66.8608 37.65C66.6275 37.35 66.5108 36.9067 66.5108 36.32V33.93C66.5108 33.57 66.5608 33.2567 66.6608 32.99C66.7608 32.7167 66.9108 32.5033 67.1108 32.35C67.3108 32.1967 67.5575 32.12 67.8508 32.12C68.0642 32.12 68.2675 32.1633 68.4608 32.25C68.6542 32.33 68.8308 32.44 68.9908 32.58V29.9H70.6208V38H68.9908V37.55C68.8108 37.7233 68.6242 37.86 68.4308 37.96C68.2375 38.0533 68.0442 38.1 67.8508 38.1ZM68.5608 37.06C68.6142 37.06 68.6775 37.0467 68.7508 37.02C68.8308 36.9933 68.9108 36.9567 68.9908 36.91V33.26C68.9242 33.2267 68.8542 33.1967 68.7808 33.17C68.7075 33.1433 68.6375 33.13 68.5708 33.13C68.4242 33.13 68.3175 33.1933 68.2508 33.32C68.1842 33.44 68.1508 33.5867 68.1508 33.76V36.42C68.1508 36.54 68.1642 36.65 68.1908 36.75C68.2175 36.8433 68.2608 36.92 68.3208 36.98C68.3808 37.0333 68.4608 37.06 68.5608 37.06ZM73.5201 38.1C73.1001 38.1 72.7401 38.0267 72.4401 37.88C72.1401 37.7267 71.9101 37.5067 71.7501 37.22C71.5901 36.9267 71.5101 36.5767 71.5101 36.17V34.05C71.5101 33.6367 71.5901 33.2867 71.7501 33C71.9101 32.7133 72.1401 32.4967 72.4401 32.35C72.7468 32.1967 73.1068 32.12 73.5201 32.12C73.9468 32.12 74.3001 32.1933 74.5801 32.34C74.8668 32.4867 75.0801 32.7033 75.2201 32.99C75.3668 33.2767 75.4401 33.63 75.4401 34.05V35.21H73.1201V36.32C73.1201 36.4667 73.1368 36.5867 73.1701 36.68C73.2035 36.7733 73.2501 36.84 73.3101 36.88C73.3701 36.92 73.4401 36.94 73.5201 36.94C73.6001 36.94 73.6701 36.9233 73.7301 36.89C73.7968 36.85 73.8468 36.79 73.8801 36.71C73.9201 36.63 73.9401 36.52 73.9401 36.38V35.77H75.4401V36.33C75.4401 36.9167 75.2701 37.36 74.9301 37.66C74.5901 37.9533 74.1201 38.1 73.5201 38.1ZM73.1201 34.45H73.9401V33.87C73.9401 33.7167 73.9201 33.5967 73.8801 33.51C73.8468 33.4233 73.7968 33.3633 73.7301 33.33C73.6701 33.2967 73.5968 33.28 73.5101 33.28C73.4301 33.28 73.3601 33.3 73.3001 33.34C73.2468 33.38 73.2035 33.45 73.1701 33.55C73.1368 33.6433 73.1201 33.78 73.1201 33.96V34.45ZM76.5374 38V33.32H75.9874V32.22H76.5374V31.79C76.5374 31.45 76.5707 31.1533 76.6374 30.9C76.7107 30.6467 76.8574 30.45 77.0774 30.31C77.304 30.17 77.6507 30.1 78.1174 30.1C78.244 30.1 78.3674 30.1033 78.4874 30.11C78.614 30.1167 78.7507 30.13 78.8974 30.15V31.36C78.8507 31.3467 78.794 31.3367 78.7274 31.33C78.6674 31.3167 78.6074 31.31 78.5474 31.31C78.4274 31.31 78.334 31.3467 78.2674 31.42C78.2007 31.4867 78.1674 31.6 78.1674 31.76V32.22H78.8974V33.32H78.1674V38H76.5374ZM81.4205 38.1C81.0005 38.1 80.6405 38.0267 80.3405 37.88C80.0405 37.7267 79.8105 37.5067 79.6505 37.22C79.4905 36.9267 79.4105 36.5767 79.4105 36.17V34.05C79.4105 33.6367 79.4905 33.2867 79.6505 33C79.8105 32.7133 80.0405 32.4967 80.3405 32.35C80.6472 32.1967 81.0072 32.12 81.4205 32.12C81.8472 32.12 82.2005 32.1933 82.4805 32.34C82.7672 32.4867 82.9805 32.7033 83.1205 32.99C83.2672 33.2767 83.3405 33.63 83.3405 34.05V35.21H81.0205V36.32C81.0205 36.4667 81.0372 36.5867 81.0705 36.68C81.1038 36.7733 81.1505 36.84 81.2105 36.88C81.2705 36.92 81.3405 36.94 81.4205 36.94C81.5005 36.94 81.5705 36.9233 81.6305 36.89C81.6972 36.85 81.7472 36.79 81.7805 36.71C81.8205 36.63 81.8405 36.52 81.8405 36.38V35.77H83.3405V36.33C83.3405 36.9167 83.1705 37.36 82.8305 37.66C82.4905 37.9533 82.0205 38.1 81.4205 38.1ZM81.0205 34.45H81.8405V33.87C81.8405 33.7167 81.8205 33.5967 81.7805 33.51C81.7472 33.4233 81.6972 33.3633 81.6305 33.33C81.5705 33.2967 81.4972 33.28 81.4105 33.28C81.3305 33.28 81.2605 33.3 81.2005 33.34C81.1472 33.38 81.1038 33.45 81.0705 33.55C81.0372 33.6433 81.0205 33.78 81.0205 33.96V34.45ZM85.4178 38.1C85.1244 38.1 84.8778 38.03 84.6778 37.89C84.4778 37.75 84.3278 37.5733 84.2278 37.36C84.1278 37.14 84.0778 36.9167 84.0778 36.69C84.0778 36.33 84.1478 36.0267 84.2878 35.78C84.4344 35.5333 84.6244 35.3267 84.8578 35.16C85.0911 34.9933 85.3478 34.8533 85.6278 34.74C85.9078 34.62 86.1844 34.5133 86.4578 34.42V33.84C86.4578 33.74 86.4478 33.6533 86.4278 33.58C86.4078 33.5 86.3744 33.44 86.3278 33.4C86.2811 33.3533 86.2111 33.33 86.1178 33.33C86.0244 33.33 85.9511 33.35 85.8978 33.39C85.8511 33.43 85.8178 33.4867 85.7978 33.56C85.7778 33.6267 85.7644 33.7033 85.7578 33.79L85.7178 34.21L84.1978 34.15C84.2311 33.4567 84.4144 32.9467 84.7478 32.62C85.0878 32.2867 85.5944 32.12 86.2678 32.12C86.8544 32.12 87.2911 32.2833 87.5778 32.61C87.8711 32.93 88.0178 33.3467 88.0178 33.86V36.56C88.0178 36.8 88.0211 37.01 88.0278 37.19C88.0411 37.37 88.0544 37.5267 88.0678 37.66C88.0878 37.7933 88.1044 37.9067 88.1178 38H86.6578C86.6378 37.8467 86.6144 37.68 86.5878 37.5C86.5611 37.32 86.5411 37.2133 86.5278 37.18C86.4611 37.42 86.3344 37.6333 86.1478 37.82C85.9678 38.0067 85.7244 38.1 85.4178 38.1ZM85.9978 37C86.0644 37 86.1244 36.9867 86.1778 36.96C86.2378 36.9333 86.2911 36.8967 86.3378 36.85C86.3844 36.8033 86.4244 36.7567 86.4578 36.71V35.13C86.3244 35.21 86.2011 35.2933 86.0878 35.38C85.9744 35.46 85.8778 35.55 85.7978 35.65C85.7178 35.75 85.6544 35.86 85.6078 35.98C85.5678 36.0933 85.5478 36.2233 85.5478 36.37C85.5478 36.5633 85.5878 36.7167 85.6678 36.83C85.7478 36.9433 85.8578 37 85.9978 37ZM90.7541 38.06C90.3208 38.06 89.9841 37.9967 89.7441 37.87C89.5108 37.7433 89.3508 37.56 89.2641 37.32C89.1774 37.0733 89.1341 36.7767 89.1341 36.43V33.29H88.5741V32.22H89.1341V30.46H90.7841V32.22H91.6041V33.29H90.7841V36.27C90.7841 36.4367 90.8308 36.5567 90.9241 36.63C91.0241 36.7033 91.1474 36.74 91.2941 36.74C91.3808 36.74 91.4608 36.7367 91.5341 36.73C91.6074 36.7167 91.6741 36.7067 91.7341 36.7V37.98C91.6474 37.9933 91.5108 38.01 91.3241 38.03C91.1374 38.05 90.9474 38.06 90.7541 38.06ZM96.2479 38.1C95.9545 38.1 95.7079 38.03 95.5079 37.89C95.3079 37.75 95.1579 37.5733 95.0579 37.36C94.9579 37.14 94.9079 36.9167 94.9079 36.69C94.9079 36.33 94.9779 36.0267 95.1179 35.78C95.2645 35.5333 95.4545 35.3267 95.6879 35.16C95.9212 34.9933 96.1779 34.8533 96.4579 34.74C96.7379 34.62 97.0145 34.5133 97.2879 34.42V33.84C97.2879 33.74 97.2779 33.6533 97.2579 33.58C97.2379 33.5 97.2045 33.44 97.1579 33.4C97.1112 33.3533 97.0412 33.33 96.9479 33.33C96.8545 33.33 96.7812 33.35 96.7279 33.39C96.6812 33.43 96.6479 33.4867 96.6279 33.56C96.6079 33.6267 96.5945 33.7033 96.5879 33.79L96.5479 34.21L95.0279 34.15C95.0612 33.4567 95.2445 32.9467 95.5779 32.62C95.9179 32.2867 96.4245 32.12 97.0979 32.12C97.6845 32.12 98.1212 32.2833 98.4079 32.61C98.7012 32.93 98.8479 33.3467 98.8479 33.86V36.56C98.8479 36.8 98.8512 37.01 98.8579 37.19C98.8712 37.37 98.8845 37.5267 98.8979 37.66C98.9179 37.7933 98.9345 37.9067 98.9479 38H97.4879C97.4679 37.8467 97.4445 37.68 97.4179 37.5C97.3912 37.32 97.3712 37.2133 97.3579 37.18C97.2912 37.42 97.1645 37.6333 96.9779 37.82C96.7979 38.0067 96.5545 38.1 96.2479 38.1ZM96.8279 37C96.8945 37 96.9545 36.9867 97.0079 36.96C97.0679 36.9333 97.1212 36.8967 97.1679 36.85C97.2145 36.8033 97.2545 36.7567 97.2879 36.71V35.13C97.1545 35.21 97.0312 35.2933 96.9179 35.38C96.8045 35.46 96.7079 35.55 96.6279 35.65C96.5479 35.75 96.4845 35.86 96.4379 35.98C96.3979 36.0933 96.3779 36.2233 96.3779 36.37C96.3779 36.5633 96.4179 36.7167 96.4979 36.83C96.5779 36.9433 96.6879 37 96.8279 37ZM99.8837 38V29.9H101.504V38H99.8837ZM102.628 38V29.9H104.248V38H102.628ZM110.731 38.1C110.517 38.1 110.304 38.0533 110.091 37.96C109.884 37.86 109.684 37.7267 109.491 37.56V38H107.861V29.9H109.491V32.64C109.691 32.4667 109.897 32.3367 110.111 32.25C110.331 32.1633 110.544 32.12 110.751 32.12C110.971 32.12 111.157 32.1633 111.311 32.25C111.471 32.3367 111.601 32.46 111.701 32.62C111.801 32.7733 111.874 32.9533 111.921 33.16C111.967 33.3667 111.991 33.5867 111.991 33.82V36.31C111.991 36.67 111.941 36.9833 111.841 37.25C111.747 37.5167 111.607 37.7267 111.421 37.88C111.234 38.0267 111.004 38.1 110.731 38.1ZM109.941 37.05C110.047 37.05 110.131 37.02 110.191 36.96C110.251 36.9 110.294 36.8233 110.321 36.73C110.347 36.63 110.361 36.52 110.361 36.4V33.7C110.361 33.5867 110.347 33.4867 110.321 33.4C110.294 33.3067 110.251 33.2333 110.191 33.18C110.137 33.1267 110.061 33.1 109.961 33.1C109.874 33.1 109.791 33.12 109.711 33.16C109.637 33.1933 109.564 33.2367 109.491 33.29V36.89C109.564 36.9367 109.637 36.9767 109.711 37.01C109.791 37.0367 109.867 37.05 109.941 37.05ZM114.819 38.1C114.406 38.1 114.046 38.03 113.739 37.89C113.439 37.75 113.206 37.54 113.039 37.26C112.879 36.98 112.799 36.63 112.799 36.21V34.01C112.799 33.59 112.879 33.24 113.039 32.96C113.206 32.68 113.439 32.47 113.739 32.33C114.046 32.19 114.406 32.12 114.819 32.12C115.233 32.12 115.589 32.19 115.889 32.33C116.196 32.47 116.433 32.68 116.599 32.96C116.766 33.24 116.849 33.59 116.849 34.01V36.21C116.849 36.63 116.766 36.98 116.599 37.26C116.433 37.54 116.196 37.75 115.889 37.89C115.589 38.03 115.233 38.1 114.819 38.1ZM114.829 37.02C114.936 37.02 115.019 36.9933 115.079 36.94C115.139 36.88 115.179 36.8 115.199 36.7C115.226 36.5933 115.239 36.4667 115.239 36.32V33.9C115.239 33.7533 115.226 33.63 115.199 33.53C115.179 33.4233 115.139 33.3433 115.079 33.29C115.019 33.23 114.936 33.2 114.829 33.2C114.723 33.2 114.639 33.23 114.579 33.29C114.519 33.3433 114.476 33.4233 114.449 33.53C114.423 33.63 114.409 33.7533 114.409 33.9V36.32C114.409 36.4667 114.423 36.5933 114.449 36.7C114.476 36.8 114.519 36.88 114.579 36.94C114.639 36.9933 114.723 37.02 114.829 37.02ZM119.543 38.06C119.11 38.06 118.773 37.9967 118.533 37.87C118.3 37.7433 118.14 37.56 118.053 37.32C117.966 37.0733 117.923 36.7767 117.923 36.43V33.29H117.363V32.22H117.923V30.46H119.573V32.22H120.393V33.29H119.573V36.27C119.573 36.4367 119.62 36.5567 119.713 36.63C119.813 36.7033 119.936 36.74 120.083 36.74C120.17 36.74 120.25 36.7367 120.323 36.73C120.396 36.7167 120.463 36.7067 120.523 36.7V37.98C120.436 37.9933 120.3 38.01 120.113 38.03C119.926 38.05 119.736 38.06 119.543 38.06ZM123.068 38.1C122.562 38.1 122.138 37.9867 121.798 37.76C121.465 37.5333 121.192 37.1633 120.978 36.65L122.088 36.16C122.195 36.42 122.318 36.6267 122.458 36.78C122.605 36.9267 122.765 37 122.938 37C123.065 37 123.158 36.9733 123.218 36.92C123.285 36.8667 123.318 36.7933 123.318 36.7C123.318 36.5467 123.258 36.4067 123.138 36.28C123.025 36.1533 122.818 35.9667 122.518 35.72L122.098 35.37C121.792 35.11 121.548 34.86 121.368 34.62C121.195 34.3733 121.108 34.07 121.108 33.71C121.108 33.3967 121.188 33.12 121.348 32.88C121.515 32.64 121.735 32.4533 122.008 32.32C122.282 32.1867 122.575 32.12 122.888 32.12C123.362 32.12 123.758 32.25 124.078 32.51C124.398 32.77 124.622 33.1367 124.748 33.61L123.698 34.09C123.658 33.9633 123.602 33.8367 123.528 33.71C123.455 33.5833 123.365 33.4767 123.258 33.39C123.158 33.3033 123.048 33.26 122.928 33.26C122.822 33.26 122.735 33.29 122.668 33.35C122.608 33.41 122.578 33.49 122.578 33.59C122.578 33.7167 122.648 33.8533 122.788 34C122.935 34.1467 123.135 34.3233 123.388 34.53L123.798 34.89C123.965 35.03 124.128 35.18 124.288 35.34C124.448 35.5 124.578 35.6767 124.678 35.87C124.785 36.0633 124.838 36.2833 124.838 36.53C124.838 36.8633 124.755 37.15 124.588 37.39C124.422 37.6233 124.202 37.8 123.928 37.92C123.662 38.04 123.375 38.1 123.068 38.1Z"></path>
</svg>
