<svg xmlns="http://www.w3.org/2000/svg" fill="none" viewBox="0 0 480 330" height="330" width="480">
<rect fill="#0D0E12" height="330" width="480"></rect>
<path fill="white" d="M161.574 194.144C160.846 194.144 160.27 194.016 159.846 193.76C159.422 193.504 159.118 193.136 158.934 192.656C158.75 192.176 158.658 191.604 158.658 190.94V187.328C158.658 186.656 158.75 186.084 158.934 185.612C159.118 185.14 159.422 184.78 159.846 184.532C160.27 184.276 160.846 184.148 161.574 184.148C162.31 184.148 162.89 184.276 163.314 184.532C163.746 184.78 164.054 185.14 164.238 185.612C164.422 186.084 164.514 186.656 164.514 187.328V190.94C164.514 191.604 164.422 192.176 164.238 192.656C164.054 193.136 163.746 193.504 163.314 193.76C162.89 194.016 162.31 194.144 161.574 194.144ZM161.574 192.62C161.798 192.62 161.962 192.564 162.066 192.452C162.17 192.34 162.238 192.196 162.27 192.02C162.302 191.844 162.318 191.664 162.318 191.48V186.8C162.318 186.608 162.302 186.428 162.27 186.26C162.238 186.084 162.17 185.94 162.066 185.828C161.962 185.716 161.798 185.66 161.574 185.66C161.366 185.66 161.21 185.716 161.106 185.828C161.002 185.94 160.934 186.084 160.902 186.26C160.87 186.428 160.854 186.608 160.854 186.8V191.48C160.854 191.664 160.866 191.844 160.89 192.02C160.922 192.196 160.986 192.34 161.082 192.452C161.186 192.564 161.35 192.62 161.574 192.62ZM165.822 194V184.28H169.086C169.67 184.28 170.15 184.392 170.526 184.616C170.902 184.832 171.182 185.152 171.366 185.576C171.55 185.992 171.642 186.5 171.642 187.1C171.642 187.852 171.518 188.428 171.27 188.828C171.022 189.22 170.686 189.492 170.262 189.644C169.838 189.796 169.362 189.872 168.834 189.872H167.97V194H165.822ZM167.97 188.372H168.69C168.954 188.372 169.154 188.324 169.29 188.228C169.426 188.132 169.514 187.988 169.554 187.796C169.602 187.604 169.626 187.36 169.626 187.064C169.626 186.816 169.606 186.6 169.566 186.416C169.534 186.224 169.45 186.072 169.314 185.96C169.178 185.848 168.966 185.792 168.678 185.792H167.97V188.372ZM172.677 194V184.28H175.941C176.525 184.28 177.005 184.392 177.381 184.616C177.757 184.832 178.037 185.152 178.221 185.576C178.405 185.992 178.497 186.5 178.497 187.1C178.497 187.852 178.373 188.428 178.125 188.828C177.877 189.22 177.541 189.492 177.117 189.644C176.693 189.796 176.217 189.872 175.689 189.872H174.825V194H172.677ZM174.825 188.372H175.545C175.809 188.372 176.009 188.324 176.145 188.228C176.281 188.132 176.369 187.988 176.409 187.796C176.457 187.604 176.481 187.36 176.481 187.064C176.481 186.816 176.461 186.6 176.421 186.416C176.389 186.224 176.305 186.072 176.169 185.96C176.033 185.848 175.821 185.792 175.533 185.792H174.825V188.372ZM182.317 194.144C181.589 194.144 181.013 194.016 180.589 193.76C180.165 193.504 179.861 193.136 179.677 192.656C179.493 192.176 179.401 191.604 179.401 190.94V187.328C179.401 186.656 179.493 186.084 179.677 185.612C179.861 185.14 180.165 184.78 180.589 184.532C181.013 184.276 181.589 184.148 182.317 184.148C183.053 184.148 183.633 184.276 184.057 184.532C184.489 184.78 184.797 185.14 184.98 185.612C185.164 186.084 185.257 186.656 185.257 187.328V190.94C185.257 191.604 185.164 192.176 184.98 192.656C184.797 193.136 184.489 193.504 184.057 193.76C183.633 194.016 183.053 194.144 182.317 194.144ZM182.317 192.62C182.541 192.62 182.705 192.564 182.809 192.452C182.913 192.34 182.981 192.196 183.013 192.02C183.045 191.844 183.061 191.664 183.061 191.48V186.8C183.061 186.608 183.045 186.428 183.013 186.26C182.981 186.084 182.913 185.94 182.809 185.828C182.705 185.716 182.541 185.66 182.317 185.66C182.109 185.66 181.953 185.716 181.849 185.828C181.745 185.94 181.677 186.084 181.645 186.26C181.613 186.428 181.597 186.608 181.597 186.8V191.48C181.597 191.664 181.609 191.844 181.633 192.02C181.665 192.196 181.729 192.34 181.825 192.452C181.929 192.564 182.093 192.62 182.317 192.62ZM186.564 194V184.28H188.076L190.068 188.96V184.28H191.844V194H190.392L188.4 188.96V194H186.564ZM193.29 194V184.28H197.658V185.744H195.438V188.156H197.13V189.644H195.438V192.548H197.682V194H193.29ZM198.658 194V184.28H200.17L202.162 188.96V184.28H203.938V194H202.486L200.494 188.96V194H198.658ZM206.26 194V185.876H204.796V184.28H209.872V185.876H208.42V194H206.26ZM213.798 194V184.28H217.998V185.732H215.946V188.18H217.734V189.68H215.946V194H213.798ZM221.785 194.144C221.057 194.144 220.481 194.016 220.057 193.76C219.633 193.504 219.329 193.136 219.145 192.656C218.961 192.176 218.869 191.604 218.869 190.94V187.328C218.869 186.656 218.961 186.084 219.145 185.612C219.329 185.14 219.633 184.78 220.057 184.532C220.481 184.276 221.057 184.148 221.785 184.148C222.521 184.148 223.101 184.276 223.525 184.532C223.957 184.78 224.265 185.14 224.449 185.612C224.633 186.084 224.725 186.656 224.725 187.328V190.94C224.725 191.604 224.633 192.176 224.449 192.656C224.265 193.136 223.957 193.504 223.525 193.76C223.101 194.016 222.521 194.144 221.785 194.144ZM221.785 192.62C222.009 192.62 222.173 192.564 222.277 192.452C222.381 192.34 222.449 192.196 222.481 192.02C222.513 191.844 222.529 191.664 222.529 191.48V186.8C222.529 186.608 222.513 186.428 222.481 186.26C222.449 186.084 222.381 185.94 222.277 185.828C222.173 185.716 222.009 185.66 221.785 185.66C221.577 185.66 221.421 185.716 221.317 185.828C221.213 185.94 221.145 186.084 221.113 186.26C221.081 186.428 221.065 186.608 221.065 186.8V191.48C221.065 191.664 221.077 191.844 221.101 192.02C221.133 192.196 221.197 192.34 221.293 192.452C221.397 192.564 221.561 192.62 221.785 192.62ZM228.84 194.144C228.097 194.144 227.513 194.024 227.089 193.784C226.673 193.536 226.381 193.18 226.213 192.716C226.045 192.244 225.961 191.668 225.961 190.988V184.28H228.085V191.312C228.085 191.512 228.101 191.712 228.133 191.912C228.165 192.112 228.233 192.276 228.337 192.404C228.449 192.532 228.617 192.596 228.84 192.596C229.073 192.596 229.241 192.532 229.345 192.404C229.449 192.276 229.513 192.112 229.537 191.912C229.569 191.712 229.585 191.512 229.585 191.312V184.28H231.721V190.988C231.721 191.668 231.633 192.244 231.457 192.716C231.289 193.18 230.997 193.536 230.581 193.784C230.165 194.024 229.585 194.144 228.84 194.144ZM233.087 194V184.28H234.599L236.591 188.96V184.28H238.367V194H236.915L234.923 188.96V194H233.087ZM239.814 194V184.28H242.274C243.122 184.28 243.782 184.388 244.254 184.604C244.726 184.812 245.058 185.144 245.25 185.6C245.442 186.048 245.538 186.632 245.538 187.352V190.88C245.538 191.608 245.442 192.204 245.25 192.668C245.058 193.124 244.726 193.46 244.254 193.676C243.79 193.892 243.138 194 242.298 194H239.814ZM241.962 192.512H242.298C242.626 192.512 242.862 192.464 243.006 192.368C243.15 192.272 243.238 192.128 243.27 191.936C243.31 191.744 243.33 191.504 243.33 191.216V186.98C243.33 186.692 243.306 186.46 243.258 186.284C243.218 186.108 243.126 185.98 242.982 185.9C242.838 185.82 242.606 185.78 242.286 185.78H241.962V192.512ZM246.941 195.68L246.821 195.044C247.029 194.988 247.221 194.884 247.397 194.732C247.581 194.588 247.673 194.344 247.673 194H246.641V192.152H248.501V193.748C248.493 194.34 248.361 194.8 248.105 195.128C247.849 195.456 247.461 195.64 246.941 195.68ZM255.559 194.144C254.823 194.144 254.239 194.012 253.807 193.748C253.383 193.476 253.083 193.1 252.907 192.62C252.731 192.132 252.643 191.56 252.643 190.904V187.4C252.643 186.728 252.731 186.152 252.907 185.672C253.083 185.184 253.383 184.808 253.807 184.544C254.239 184.28 254.823 184.148 255.559 184.148C256.279 184.148 256.839 184.268 257.239 184.508C257.647 184.74 257.935 185.068 258.103 185.492C258.271 185.916 258.355 186.404 258.355 186.956V187.796H256.255V186.824C256.255 186.632 256.243 186.448 256.219 186.272C256.203 186.096 256.147 185.952 256.051 185.84C255.955 185.72 255.791 185.66 255.559 185.66C255.335 185.66 255.167 185.72 255.055 185.84C254.951 185.96 254.883 186.112 254.851 186.296C254.827 186.472 254.815 186.66 254.815 186.86V191.432C254.815 191.648 254.831 191.848 254.863 192.032C254.903 192.208 254.975 192.352 255.079 192.464C255.191 192.568 255.351 192.62 255.559 192.62C255.783 192.62 255.943 192.564 256.039 192.452C256.135 192.332 256.195 192.18 256.219 191.996C256.243 191.812 256.255 191.624 256.255 191.432V190.412H258.355V191.252C258.355 191.804 258.271 192.3 258.103 192.74C257.943 193.172 257.659 193.516 257.251 193.772C256.851 194.02 256.287 194.144 255.559 194.144ZM262.32 194.144C261.592 194.144 261.016 194.016 260.592 193.76C260.168 193.504 259.864 193.136 259.68 192.656C259.496 192.176 259.404 191.604 259.404 190.94V187.328C259.404 186.656 259.496 186.084 259.68 185.612C259.864 185.14 260.168 184.78 260.592 184.532C261.016 184.276 261.592 184.148 262.32 184.148C263.056 184.148 263.636 184.276 264.06 184.532C264.492 184.78 264.8 185.14 264.984 185.612C265.168 186.084 265.26 186.656 265.26 187.328V190.94C265.26 191.604 265.168 192.176 264.984 192.656C264.8 193.136 264.492 193.504 264.06 193.76C263.636 194.016 263.056 194.144 262.32 194.144ZM262.32 192.62C262.544 192.62 262.708 192.564 262.812 192.452C262.916 192.34 262.984 192.196 263.016 192.02C263.048 191.844 263.064 191.664 263.064 191.48V186.8C263.064 186.608 263.048 186.428 263.016 186.26C262.984 186.084 262.916 185.94 262.812 185.828C262.708 185.716 262.544 185.66 262.32 185.66C262.112 185.66 261.956 185.716 261.852 185.828C261.748 185.94 261.68 186.084 261.648 186.26C261.616 186.428 261.6 186.608 261.6 186.8V191.48C261.6 191.664 261.612 191.844 261.636 192.02C261.668 192.196 261.732 192.34 261.828 192.452C261.932 192.564 262.096 192.62 262.32 192.62ZM266.568 194V184.28H268.08L270.072 188.96V184.28H271.848V194H270.396L268.404 188.96V194H266.568ZM273.294 194V184.28H274.806L276.798 188.96V184.28H278.574V194H277.122L275.13 188.96V194H273.294ZM280.021 194V184.28H284.389V185.744H282.169V188.156H283.861V189.644H282.169V192.548H284.413V194H280.021ZM288.172 194.144C287.436 194.144 286.852 194.012 286.42 193.748C285.996 193.476 285.696 193.1 285.52 192.62C285.344 192.132 285.256 191.56 285.256 190.904V187.4C285.256 186.728 285.344 186.152 285.52 185.672C285.696 185.184 285.996 184.808 286.42 184.544C286.852 184.28 287.436 184.148 288.172 184.148C288.892 184.148 289.452 184.268 289.852 184.508C290.26 184.74 290.548 185.068 290.716 185.492C290.884 185.916 290.968 186.404 290.968 186.956V187.796H288.868V186.824C288.868 186.632 288.856 186.448 288.832 186.272C288.816 186.096 288.76 185.952 288.664 185.84C288.568 185.72 288.404 185.66 288.172 185.66C287.948 185.66 287.78 185.72 287.668 185.84C287.564 185.96 287.496 186.112 287.464 186.296C287.44 186.472 287.428 186.66 287.428 186.86V191.432C287.428 191.648 287.444 191.848 287.476 192.032C287.516 192.208 287.588 192.352 287.692 192.464C287.804 192.568 287.964 192.62 288.172 192.62C288.396 192.62 288.556 192.564 288.652 192.452C288.748 192.332 288.808 192.18 288.832 191.996C288.856 191.812 288.868 191.624 288.868 191.432V190.412H290.968V191.252C290.968 191.804 290.884 192.3 290.716 192.74C290.556 193.172 290.272 193.516 289.864 193.772C289.464 194.02 288.9 194.144 288.172 194.144ZM293.026 194V185.876H291.562V184.28H296.638V185.876H295.186V194H293.026ZM297.505 194V184.28H299.653V194H297.505ZM303.887 194.144C303.159 194.144 302.583 194.016 302.159 193.76C301.735 193.504 301.431 193.136 301.247 192.656C301.063 192.176 300.971 191.604 300.971 190.94V187.328C300.971 186.656 301.063 186.084 301.247 185.612C301.431 185.14 301.735 184.78 302.159 184.532C302.583 184.276 303.159 184.148 303.887 184.148C304.623 184.148 305.203 184.276 305.627 184.532C306.059 184.78 306.367 185.14 306.551 185.612C306.735 186.084 306.827 186.656 306.827 187.328V190.94C306.827 191.604 306.735 192.176 306.551 192.656C306.367 193.136 306.059 193.504 305.627 193.76C305.203 194.016 304.623 194.144 303.887 194.144ZM303.887 192.62C304.111 192.62 304.275 192.564 304.379 192.452C304.483 192.34 304.551 192.196 304.583 192.02C304.615 191.844 304.631 191.664 304.631 191.48V186.8C304.631 186.608 304.615 186.428 304.583 186.26C304.551 186.084 304.483 185.94 304.379 185.828C304.275 185.716 304.111 185.66 303.887 185.66C303.679 185.66 303.523 185.716 303.419 185.828C303.315 185.94 303.247 186.084 303.215 186.26C303.183 186.428 303.167 186.608 303.167 186.8V191.48C303.167 191.664 303.179 191.844 303.203 192.02C303.235 192.196 303.299 192.34 303.395 192.452C303.499 192.564 303.663 192.62 303.887 192.62ZM308.134 194V184.28H309.646L311.638 188.96V184.28H313.414V194H311.962L309.97 188.96V194H308.134ZM314.693 194V192.152H316.541V194H314.693ZM317.622 194V192.152H319.47V194H317.622ZM320.552 194V192.152H322.4V194H320.552Z"></path>
<path fill="white" d="M197.72 35V25.28H200.984C201.568 25.28 202.048 25.392 202.424 25.616C202.8 25.832 203.08 26.152 203.264 26.576C203.448 26.992 203.54 27.5 203.54 28.1C203.54 28.852 203.416 29.428 203.168 29.828C202.92 30.22 202.584 30.492 202.16 30.644C201.736 30.796 201.26 30.872 200.732 30.872H199.868V35H197.72ZM199.868 29.372H200.588C200.852 29.372 201.052 29.324 201.188 29.228C201.324 29.132 201.412 28.988 201.452 28.796C201.5 28.604 201.524 28.36 201.524 28.064C201.524 27.816 201.504 27.6 201.464 27.416C201.432 27.224 201.348 27.072 201.212 26.96C201.076 26.848 200.864 26.792 200.576 26.792H199.868V29.372ZM204.575 35V25.28H206.723V33.548H208.955V35H204.575ZM209.428 35L211.264 25.28H213.712L215.524 35H213.544L213.22 32.948H211.792L211.456 35H209.428ZM211.984 31.664H213.016L212.5 27.872L211.984 31.664ZM217.249 35V31.028L215.401 25.28H217.429L218.353 28.352L219.181 25.28H221.125L219.313 31.028V35H217.249ZM221.943 35V25.28H226.311V26.744H224.091V29.156H225.783V30.644H224.091V33.548H226.335V35H221.943ZM227.31 35V25.28H229.986C230.642 25.28 231.21 25.352 231.69 25.496C232.17 25.64 232.542 25.9 232.806 26.276C233.078 26.644 233.214 27.168 233.214 27.848C233.214 28.248 233.182 28.604 233.118 28.916C233.054 29.228 232.934 29.5 232.758 29.732C232.59 29.956 232.346 30.144 232.026 30.296L233.358 35H231.138L230.07 30.644H229.458V35H227.31ZM229.458 29.408H230.058C230.362 29.408 230.598 29.356 230.766 29.252C230.934 29.14 231.05 28.984 231.114 28.784C231.186 28.576 231.222 28.328 231.222 28.04C231.222 27.624 231.146 27.3 230.994 27.068C230.842 26.836 230.562 26.72 230.154 26.72H229.458V29.408ZM237.038 35.144C236.43 35.144 235.922 35.036 235.514 34.82C235.106 34.604 234.798 34.272 234.59 33.824C234.382 33.368 234.266 32.78 234.242 32.06L236.078 31.784C236.086 32.2 236.122 32.536 236.186 32.792C236.258 33.048 236.354 33.232 236.474 33.344C236.602 33.456 236.754 33.512 236.93 33.512C237.154 33.512 237.298 33.436 237.362 33.284C237.434 33.132 237.47 32.972 237.47 32.804C237.47 32.404 237.374 32.068 237.182 31.796C236.99 31.516 236.73 31.236 236.402 30.956L235.562 30.224C235.194 29.912 234.882 29.56 234.626 29.168C234.378 28.768 234.254 28.276 234.254 27.692C234.254 26.868 234.498 26.24 234.986 25.808C235.474 25.368 236.138 25.148 236.978 25.148C237.498 25.148 237.914 25.236 238.226 25.412C238.546 25.588 238.786 25.82 238.946 26.108C239.114 26.388 239.226 26.688 239.282 27.008C239.346 27.32 239.382 27.62 239.39 27.908L237.542 28.136C237.534 27.848 237.514 27.6 237.482 27.392C237.458 27.176 237.402 27.012 237.314 26.9C237.226 26.78 237.09 26.72 236.906 26.72C236.706 26.72 236.558 26.804 236.462 26.972C236.374 27.14 236.33 27.308 236.33 27.476C236.33 27.836 236.414 28.132 236.582 28.364C236.758 28.588 236.986 28.824 237.266 29.072L238.07 29.78C238.494 30.14 238.85 30.548 239.138 31.004C239.434 31.46 239.582 32.024 239.582 32.696C239.582 33.152 239.478 33.568 239.27 33.944C239.062 34.312 238.766 34.604 238.382 34.82C238.006 35.036 237.558 35.144 237.038 35.144ZM246.477 35.144C245.749 35.144 245.173 35.016 244.749 34.76C244.325 34.504 244.021 34.136 243.837 33.656C243.653 33.176 243.561 32.604 243.561 31.94V28.328C243.561 27.656 243.653 27.084 243.837 26.612C244.021 26.14 244.325 25.78 244.749 25.532C245.173 25.276 245.749 25.148 246.477 25.148C247.213 25.148 247.793 25.276 248.217 25.532C248.649 25.78 248.957 26.14 249.141 26.612C249.325 27.084 249.417 27.656 249.417 28.328V31.94C249.417 32.604 249.325 33.176 249.141 33.656C248.957 34.136 248.649 34.504 248.217 34.76C247.793 35.016 247.213 35.144 246.477 35.144ZM246.477 33.62C246.701 33.62 246.865 33.564 246.969 33.452C247.073 33.34 247.141 33.196 247.173 33.02C247.205 32.844 247.221 32.664 247.221 32.48V27.8C247.221 27.608 247.205 27.428 247.173 27.26C247.141 27.084 247.073 26.94 246.969 26.828C246.865 26.716 246.701 26.66 246.477 26.66C246.269 26.66 246.113 26.716 246.009 26.828C245.905 26.94 245.837 27.084 245.805 27.26C245.773 27.428 245.757 27.608 245.757 27.8V32.48C245.757 32.664 245.769 32.844 245.793 33.02C245.825 33.196 245.889 33.34 245.985 33.452C246.089 33.564 246.253 33.62 246.477 33.62ZM250.724 35V25.28H252.236L254.228 29.96V25.28H256.004V35H254.552L252.56 29.96V35H250.724ZM257.45 35V25.28H259.598V33.548H261.83V35H257.45ZM262.783 35V25.28H264.931V35H262.783ZM266.38 35V25.28H267.892L269.884 29.96V25.28H271.66V35H270.208L268.216 29.96V35H266.38ZM273.107 35V25.28H277.475V26.744H275.255V29.156H276.947V30.644H275.255V33.548H277.499V35H273.107ZM278.558 30.056V28.232H280.382V30.056H278.558ZM278.558 34.328V32.504H280.382V34.328H278.558Z"></path>
</svg>
