<svg xmlns="http://www.w3.org/2000/svg" fill="none" viewBox="0 0 214 84" height="84" width="214">
<mask fill="white" id="path-1-inside-1_1356_2">
<path d="M0 0H214V84H0V0Z"></path>
</mask>
<path fill="#0D0E12" d="M0 0H214V84H0V0Z"></path>
<path mask="url(#path-1-inside-1_1356_2)" fill="white" d="M0 0V-1H-1V0H0ZM0 84H-1V85H0V84ZM0 1H214V-1H0V1ZM214 83H0V85H214V83ZM1 84V0H-1V84H1Z"></path>
<path fill="white" d="M19.504 38.144C18.768 38.144 18.184 38.012 17.752 37.748C17.328 37.476 17.028 37.1 16.852 36.62C16.676 36.132 16.588 35.56 16.588 34.904V31.4C16.588 30.728 16.676 30.152 16.852 29.672C17.028 29.184 17.328 28.808 17.752 28.544C18.184 28.28 18.768 28.148 19.504 28.148C20.224 28.148 20.784 28.268 21.184 28.508C21.592 28.74 21.88 29.068 22.048 29.492C22.216 29.916 22.3 30.404 22.3 30.956V31.796H20.2V30.824C20.2 30.632 20.188 30.448 20.164 30.272C20.148 30.096 20.092 29.952 19.996 29.84C19.9 29.72 19.736 29.66 19.504 29.66C19.28 29.66 19.112 29.72 19 29.84C18.896 29.96 18.828 30.112 18.796 30.296C18.772 30.472 18.76 30.66 18.76 30.86V35.432C18.76 35.648 18.776 35.848 18.808 36.032C18.848 36.208 18.92 36.352 19.024 36.464C19.136 36.568 19.296 36.62 19.504 36.62C19.728 36.62 19.888 36.564 19.984 36.452C20.08 36.332 20.14 36.18 20.164 35.996C20.188 35.812 20.2 35.624 20.2 35.432V34.412H22.3V35.252C22.3 35.804 22.216 36.3 22.048 36.74C21.888 37.172 21.604 37.516 21.196 37.772C20.796 38.02 20.232 38.144 19.504 38.144ZM26.2657 38.144C25.5377 38.144 24.9617 38.016 24.5377 37.76C24.1137 37.504 23.8097 37.136 23.6257 36.656C23.4417 36.176 23.3497 35.604 23.3497 34.94V31.328C23.3497 30.656 23.4417 30.084 23.6257 29.612C23.8097 29.14 24.1137 28.78 24.5377 28.532C24.9617 28.276 25.5377 28.148 26.2657 28.148C27.0017 28.148 27.5817 28.276 28.0057 28.532C28.4377 28.78 28.7457 29.14 28.9297 29.612C29.1137 30.084 29.2057 30.656 29.2057 31.328V34.94C29.2057 35.604 29.1137 36.176 28.9297 36.656C28.7457 37.136 28.4377 37.504 28.0057 37.76C27.5817 38.016 27.0017 38.144 26.2657 38.144ZM26.2657 36.62C26.4897 36.62 26.6537 36.564 26.7577 36.452C26.8617 36.34 26.9297 36.196 26.9617 36.02C26.9937 35.844 27.0097 35.664 27.0097 35.48V30.8C27.0097 30.608 26.9937 30.428 26.9617 30.26C26.9297 30.084 26.8617 29.94 26.7577 29.828C26.6537 29.716 26.4897 29.66 26.2657 29.66C26.0577 29.66 25.9017 29.716 25.7977 29.828C25.6937 29.94 25.6257 30.084 25.5937 30.26C25.5617 30.428 25.5457 30.608 25.5457 30.8V35.48C25.5457 35.664 25.5577 35.844 25.5817 36.02C25.6137 36.196 25.6777 36.34 25.7737 36.452C25.8777 36.564 26.0417 36.62 26.2657 36.62ZM33.297 38.144C32.569 38.144 31.993 38.016 31.569 37.76C31.145 37.504 30.841 37.136 30.657 36.656C30.473 36.176 30.381 35.604 30.381 34.94V31.328C30.381 30.656 30.473 30.084 30.657 29.612C30.841 29.14 31.145 28.78 31.569 28.532C31.993 28.276 32.569 28.148 33.297 28.148C34.033 28.148 34.613 28.276 35.037 28.532C35.469 28.78 35.777 29.14 35.961 29.612C36.145 30.084 36.237 30.656 36.237 31.328V34.94C36.237 35.604 36.145 36.176 35.961 36.656C35.777 37.136 35.469 37.504 35.037 37.76C34.613 38.016 34.033 38.144 33.297 38.144ZM33.297 36.62C33.521 36.62 33.685 36.564 33.789 36.452C33.893 36.34 33.961 36.196 33.993 36.02C34.025 35.844 34.041 35.664 34.041 35.48V30.8C34.041 30.608 34.025 30.428 33.993 30.26C33.961 30.084 33.893 29.94 33.789 29.828C33.685 29.716 33.521 29.66 33.297 29.66C33.089 29.66 32.933 29.716 32.829 29.828C32.725 29.94 32.657 30.084 32.625 30.26C32.593 30.428 32.577 30.608 32.577 30.8V35.48C32.577 35.664 32.589 35.844 32.613 36.02C32.645 36.196 32.709 36.34 32.805 36.452C32.909 36.564 33.073 36.62 33.297 36.62ZM37.5802 38V28.28H42.4042V29.912H39.7282V32.384H40.1842C40.8002 32.384 41.3202 32.484 41.7442 32.684C42.1762 32.884 42.5042 33.192 42.7282 33.608C42.9522 34.016 43.0642 34.544 43.0642 35.192C43.0642 35.784 42.9842 36.264 42.8242 36.632C42.6722 37 42.4562 37.284 42.1762 37.484C41.8962 37.684 41.5682 37.82 41.1922 37.892C40.8242 37.964 40.4242 38 39.9922 38H37.5802ZM39.7282 36.596H40.0042C40.2762 36.596 40.4922 36.544 40.6522 36.44C40.8122 36.336 40.9242 36.176 40.9882 35.96C41.0522 35.744 41.0802 35.472 41.0722 35.144C41.0642 34.784 40.9882 34.484 40.8442 34.244C40.7002 33.996 40.4122 33.872 39.9802 33.872H39.7282V36.596ZM52.3728 40.1L52.1208 38H44.2248V28.28H46.2528V36.548H47.4408V28.28H49.4568V36.548H50.5968V28.28H52.6248V36.548H53.9448V40.1H52.3728ZM55.1809 38V28.28H59.5489V29.744H57.3289V32.156H59.0209V33.644H57.3289V36.548H59.5729V38H55.1809ZM60.5841 38V28.28H62.7321V32.216H64.2321V28.28H66.3921V38H64.2321V33.752H62.7321V38H60.5841ZM67.9083 38V28.28H69.6003V33.848L72.0843 28.28H73.4763V38H71.7483V32.336L69.2163 38H67.9083ZM74.9505 38V28.28H79.3185V29.744H77.0985V32.156H78.7905V33.644H77.0985V36.548H79.3425V38H74.9505Z"></path>
<path fill="white" d="M16.63 56V47.9H21.09V56H19.96V48.71H17.76V56H16.63ZM22.2627 57.9V50.22H23.3327V50.68C23.4593 50.5333 23.6127 50.4067 23.7927 50.3C23.9727 50.1933 24.186 50.14 24.4327 50.14C24.7327 50.14 24.9693 50.22 25.1427 50.38C25.3227 50.5333 25.456 50.73 25.5427 50.97C25.6293 51.2033 25.686 51.4433 25.7127 51.69C25.7393 51.93 25.7527 52.1367 25.7527 52.31V53.71C25.7527 54.1167 25.7127 54.5033 25.6327 54.87C25.5527 55.23 25.406 55.5233 25.1927 55.75C24.986 55.97 24.6927 56.08 24.3127 56.08C24.106 56.08 23.9227 56.03 23.7627 55.93C23.6027 55.8233 23.4593 55.7033 23.3327 55.57V57.9H22.2627ZM24.1027 55.24C24.2893 55.24 24.4227 55.1733 24.5027 55.04C24.5827 54.9 24.6327 54.7133 24.6527 54.48C24.6727 54.2467 24.6827 53.99 24.6827 53.71V52.31C24.6827 52.07 24.6693 51.85 24.6427 51.65C24.616 51.4433 24.5593 51.28 24.4727 51.16C24.386 51.04 24.2493 50.98 24.0627 50.98C23.9227 50.98 23.7893 51.01 23.6627 51.07C23.536 51.13 23.426 51.2 23.3327 51.28V54.98C23.4327 55.0533 23.546 55.1167 23.6727 55.17C23.7993 55.2167 23.9427 55.24 24.1027 55.24ZM28.3155 56.08C27.8889 56.08 27.5522 55.9933 27.3055 55.82C27.0589 55.6467 26.8822 55.4 26.7755 55.08C26.6755 54.76 26.6255 54.3833 26.6255 53.95V52.27C26.6255 51.8367 26.6755 51.46 26.7755 51.14C26.8822 50.82 27.0589 50.5733 27.3055 50.4C27.5522 50.2267 27.8889 50.14 28.3155 50.14C28.7422 50.14 29.0755 50.2267 29.3155 50.4C29.5622 50.5733 29.7355 50.82 29.8355 51.14C29.9422 51.46 29.9955 51.8367 29.9955 52.27V53.95C29.9955 54.3833 29.9422 54.76 29.8355 55.08C29.7355 55.4 29.5622 55.6467 29.3155 55.82C29.0755 55.9933 28.7422 56.08 28.3155 56.08ZM28.3155 55.29C28.5222 55.29 28.6655 55.23 28.7455 55.11C28.8322 54.99 28.8822 54.8333 28.8955 54.64C28.9155 54.44 28.9255 54.2333 28.9255 54.02V52.21C28.9255 51.99 28.9155 51.7833 28.8955 51.59C28.8822 51.3967 28.8322 51.24 28.7455 51.12C28.6655 50.9933 28.5222 50.93 28.3155 50.93C28.1089 50.93 27.9622 50.9933 27.8755 51.12C27.7889 51.24 27.7355 51.3967 27.7155 51.59C27.7022 51.7833 27.6955 51.99 27.6955 52.21V54.02C27.6955 54.2333 27.7022 54.44 27.7155 54.64C27.7355 54.8333 27.7889 54.99 27.8755 55.11C27.9622 55.23 28.1089 55.29 28.3155 55.29ZM30.9736 56V50.22H31.8736V54.11L33.6136 50.22H34.4536V56H33.5736V52.08L31.8436 56H30.9736ZM36.9039 56.1C36.6372 56.1 36.4072 56.0633 36.2139 55.99C36.0206 55.9167 35.8606 55.8033 35.7339 55.65C35.6072 55.49 35.5139 55.2933 35.4539 55.06C35.3939 54.8267 35.3639 54.55 35.3639 54.23H36.2739C36.2739 54.6233 36.3306 54.9067 36.4439 55.08C36.5572 55.2533 36.7172 55.34 36.9239 55.34C37.1039 55.34 37.2339 55.2933 37.3139 55.2C37.3939 55.1067 37.4439 54.98 37.4639 54.82C37.4839 54.6533 37.4939 54.47 37.4939 54.27C37.4939 54.0167 37.4572 53.83 37.3839 53.71C37.3172 53.5833 37.1972 53.5 37.0239 53.46C36.8572 53.42 36.6239 53.4 36.3239 53.4V52.64C36.7906 52.64 37.1006 52.57 37.2539 52.43C37.4139 52.29 37.4939 52.06 37.4939 51.74C37.4939 51.4533 37.4339 51.2467 37.3139 51.12C37.1939 50.9933 37.0439 50.93 36.8639 50.93C36.6639 50.93 36.5039 50.9933 36.3839 51.12C36.2639 51.2467 36.2039 51.5 36.2039 51.88H35.2939C35.2939 51.4467 35.3572 51.1033 35.4839 50.85C35.6172 50.5967 35.8039 50.4167 36.0439 50.31C36.2906 50.1967 36.5772 50.14 36.9039 50.14C37.2639 50.14 37.5539 50.2133 37.7739 50.36C38.0006 50.5067 38.1639 50.7 38.2639 50.94C38.3706 51.1733 38.4239 51.42 38.4239 51.68C38.4239 52.0133 38.3706 52.2733 38.2639 52.46C38.1639 52.6467 38.0372 52.78 37.8839 52.86C37.7372 52.94 37.5939 52.9867 37.4539 53C37.6006 53.0267 37.7472 53.0767 37.8939 53.15C38.0472 53.2167 38.1739 53.3467 38.2739 53.54C38.3806 53.7267 38.4339 54.02 38.4339 54.42C38.4339 54.9667 38.3072 55.3833 38.0539 55.67C37.8006 55.9567 37.4172 56.1 36.9039 56.1ZM40.8839 56.08C40.4572 56.08 40.1206 55.9933 39.8739 55.82C39.6272 55.6467 39.4506 55.4 39.3439 55.08C39.2439 54.76 39.1939 54.3833 39.1939 53.95V52.27C39.1939 51.8367 39.2439 51.46 39.3439 51.14C39.4506 50.82 39.6272 50.5733 39.8739 50.4C40.1206 50.2267 40.4572 50.14 40.8839 50.14C41.3106 50.14 41.6439 50.2267 41.8839 50.4C42.1306 50.5733 42.3039 50.82 42.4039 51.14C42.5106 51.46 42.5639 51.8367 42.5639 52.27V53.95C42.5639 54.3833 42.5106 54.76 42.4039 55.08C42.3039 55.4 42.1306 55.6467 41.8839 55.82C41.6439 55.9933 41.3106 56.08 40.8839 56.08ZM40.8839 55.29C41.0906 55.29 41.2339 55.23 41.3139 55.11C41.4006 54.99 41.4506 54.8333 41.4639 54.64C41.4839 54.44 41.4939 54.2333 41.4939 54.02V52.21C41.4939 51.99 41.4839 51.7833 41.4639 51.59C41.4506 51.3967 41.4006 51.24 41.3139 51.12C41.2339 50.9933 41.0906 50.93 40.8839 50.93C40.6772 50.93 40.5306 50.9933 40.4439 51.12C40.3572 51.24 40.3039 51.3967 40.2839 51.59C40.2706 51.7833 40.2639 51.99 40.2639 52.21V54.02C40.2639 54.2333 40.2706 54.44 40.2839 54.64C40.3039 54.8333 40.3572 54.99 40.4439 55.11C40.5306 55.23 40.6772 55.29 40.8839 55.29ZM43.542 56V50.22H44.572V55.24H45.592V50.22H46.622V55.24H47.642V50.22H48.672V56H43.542ZM49.422 56.05V55.24C49.622 55.24 49.7786 55.2 49.892 55.12C50.012 55.04 50.102 54.9067 50.162 54.72C50.2286 54.5267 50.2786 54.27 50.312 53.95C50.3453 53.6233 50.3753 53.2167 50.402 52.73L50.532 50.22H53.562V56H52.492V51.03H51.472L51.382 52.73C51.3486 53.39 51.2986 53.9367 51.232 54.37C51.172 54.8033 51.0753 55.1433 50.942 55.39C50.8086 55.63 50.6286 55.8 50.402 55.9C50.182 56 49.8953 56.05 49.542 56.05H49.422ZM55.6855 56.08C55.4588 56.08 55.2588 56.0167 55.0855 55.89C54.9121 55.7567 54.7755 55.59 54.6755 55.39C54.5755 55.1833 54.5255 54.9667 54.5255 54.74C54.5255 54.38 54.5855 54.0767 54.7055 53.83C54.8255 53.5833 54.9888 53.3767 55.1955 53.21C55.4088 53.0367 55.6521 52.8867 55.9255 52.76C56.2055 52.6333 56.4988 52.51 56.8055 52.39V51.98C56.8055 51.7467 56.7921 51.5533 56.7655 51.4C56.7388 51.2467 56.6821 51.1333 56.5955 51.06C56.5155 50.98 56.3921 50.94 56.2255 50.94C56.0788 50.94 55.9588 50.9733 55.8655 51.04C55.7788 51.1067 55.7155 51.2033 55.6755 51.33C55.6355 51.45 55.6155 51.5933 55.6155 51.76V52.05L54.5555 52.01C54.5688 51.37 54.7155 50.9 54.9955 50.6C55.2755 50.2933 55.7088 50.14 56.2955 50.14C56.8688 50.14 57.2755 50.2967 57.5155 50.61C57.7555 50.9233 57.8755 51.3767 57.8755 51.97V54.61C57.8755 54.79 57.8788 54.9633 57.8855 55.13C57.8988 55.2967 57.9121 55.4533 57.9255 55.6C57.9455 55.74 57.9621 55.8733 57.9755 56H56.9955C56.9755 55.8933 56.9488 55.76 56.9155 55.6C56.8888 55.4333 56.8688 55.2833 56.8555 55.15C56.7888 55.3767 56.6588 55.59 56.4655 55.79C56.2788 55.9833 56.0188 56.08 55.6855 56.08ZM56.1055 55.16C56.2121 55.16 56.3121 55.13 56.4055 55.07C56.4988 55.01 56.5821 54.9433 56.6555 54.87C56.7288 54.79 56.7788 54.7267 56.8055 54.68V53.04C56.6388 53.1333 56.4821 53.2267 56.3355 53.32C56.1888 53.4133 56.0588 53.5133 55.9455 53.62C55.8388 53.72 55.7521 53.8367 55.6855 53.97C55.6255 54.0967 55.5955 54.2433 55.5955 54.41C55.5955 54.6433 55.6388 54.8267 55.7255 54.96C55.8121 55.0933 55.9388 55.16 56.1055 55.16ZM61.1884 56V50.22H62.2584V52.65H63.6284V50.22H64.6984V56H63.6284V53.43H62.2584V56H61.1884ZM67.3783 56.08C66.9249 56.08 66.5749 55.9933 66.3283 55.82C66.0816 55.64 65.9083 55.38 65.8083 55.04C65.7149 54.6933 65.6683 54.27 65.6683 53.77V52.45C65.6683 51.9367 65.7183 51.51 65.8183 51.17C65.9183 50.83 66.0916 50.5733 66.3383 50.4C66.5916 50.2267 66.9383 50.14 67.3783 50.14C67.8649 50.14 68.2216 50.24 68.4483 50.44C68.6816 50.64 68.8349 50.93 68.9083 51.31C68.9816 51.6833 69.0183 52.1333 69.0183 52.66V53.13H66.7383V54.29C66.7383 54.5233 66.7583 54.7133 66.7983 54.86C66.8449 55.0067 66.9149 55.1167 67.0083 55.19C67.1083 55.2567 67.2349 55.29 67.3883 55.29C67.5483 55.29 67.6683 55.2533 67.7483 55.18C67.8349 55.1 67.8916 54.99 67.9183 54.85C67.9516 54.7033 67.9683 54.5333 67.9683 54.34V53.99H69.0083V54.21C69.0083 54.79 68.8849 55.2467 68.6383 55.58C68.3916 55.9133 67.9716 56.08 67.3783 56.08ZM66.7383 52.55H67.9683V52.03C67.9683 51.79 67.9549 51.59 67.9283 51.43C67.9016 51.2633 67.8449 51.14 67.7583 51.06C67.6783 50.9733 67.5483 50.93 67.3683 50.93C67.1949 50.93 67.0616 50.97 66.9683 51.05C66.8816 51.13 66.8216 51.2667 66.7883 51.46C66.7549 51.6467 66.7383 51.9067 66.7383 52.24V52.55ZM69.9873 56V50.22H73.3473V56H72.2773V51.03H71.0573V56H69.9873ZM74.4306 57.9V50.22H75.5006V50.68C75.6273 50.5333 75.7806 50.4067 75.9606 50.3C76.1406 50.1933 76.354 50.14 76.6006 50.14C76.9006 50.14 77.1373 50.22 77.3106 50.38C77.4906 50.5333 77.624 50.73 77.7106 50.97C77.7973 51.2033 77.854 51.4433 77.8806 51.69C77.9073 51.93 77.9206 52.1367 77.9206 52.31V53.71C77.9206 54.1167 77.8806 54.5033 77.8006 54.87C77.7206 55.23 77.574 55.5233 77.3606 55.75C77.154 55.97 76.8606 56.08 76.4806 56.08C76.274 56.08 76.0906 56.03 75.9306 55.93C75.7706 55.8233 75.6273 55.7033 75.5006 55.57V57.9H74.4306ZM76.2706 55.24C76.4573 55.24 76.5906 55.1733 76.6706 55.04C76.7506 54.9 76.8006 54.7133 76.8206 54.48C76.8406 54.2467 76.8506 53.99 76.8506 53.71V52.31C76.8506 52.07 76.8373 51.85 76.8106 51.65C76.784 51.4433 76.7273 51.28 76.6406 51.16C76.554 51.04 76.4173 50.98 76.2306 50.98C76.0906 50.98 75.9573 51.01 75.8306 51.07C75.704 51.13 75.594 51.2 75.5006 51.28V54.98C75.6006 55.0533 75.714 55.1167 75.8406 55.17C75.9673 55.2167 76.1106 55.24 76.2706 55.24ZM80.4935 56.08C80.0402 56.08 79.6902 55.9933 79.4435 55.82C79.1968 55.64 79.0235 55.38 78.9235 55.04C78.8302 54.6933 78.7835 54.27 78.7835 53.77V52.45C78.7835 51.9367 78.8335 51.51 78.9335 51.17C79.0335 50.83 79.2068 50.5733 79.4535 50.4C79.7068 50.2267 80.0535 50.14 80.4935 50.14C80.9802 50.14 81.3368 50.24 81.5635 50.44C81.7968 50.64 81.9502 50.93 82.0235 51.31C82.0968 51.6833 82.1335 52.1333 82.1335 52.66V53.13H79.8535V54.29C79.8535 54.5233 79.8735 54.7133 79.9135 54.86C79.9602 55.0067 80.0302 55.1167 80.1235 55.19C80.2235 55.2567 80.3502 55.29 80.5035 55.29C80.6635 55.29 80.7835 55.2533 80.8635 55.18C80.9502 55.1 81.0068 54.99 81.0335 54.85C81.0668 54.7033 81.0835 54.5333 81.0835 54.34V53.99H82.1235V54.21C82.1235 54.79 82.0002 55.2467 81.7535 55.58C81.5068 55.9133 81.0868 56.08 80.4935 56.08ZM79.8535 52.55H81.0835V52.03C81.0835 51.79 81.0702 51.59 81.0435 51.43C81.0168 51.2633 80.9602 51.14 80.8735 51.06C80.7935 50.9733 80.6635 50.93 80.4835 50.93C80.3102 50.93 80.1768 50.97 80.0835 51.05C79.9968 51.13 79.9368 51.2667 79.9035 51.46C79.8702 51.6467 79.8535 51.9067 79.8535 52.24V52.55ZM82.5825 57.47V55.29C82.7825 55.1367 82.9658 54.9533 83.1325 54.74C83.2992 54.5267 83.4458 54.2567 83.5725 53.93C83.6992 53.6033 83.7992 53.2 83.8725 52.72C83.9458 52.24 83.9858 51.66 83.9925 50.98L84.0125 50.22H86.6225V55.24H87.3225V57.47H86.5425L86.4525 56H83.4525L83.3625 57.47H82.5825ZM83.6225 55.24H85.5925V50.99H84.8425L84.8225 51.2C84.8158 51.9067 84.7792 52.4967 84.7125 52.97C84.6525 53.4367 84.5658 53.82 84.4525 54.12C84.3458 54.4133 84.2192 54.6467 84.0725 54.82C83.9325 54.9933 83.7825 55.1333 83.6225 55.24ZM88.0634 56V50.22H89.6834C90.0768 50.22 90.3834 50.2867 90.6034 50.42C90.8301 50.5467 90.9901 50.7167 91.0834 50.93C91.1834 51.1367 91.2368 51.36 91.2434 51.6C91.2501 51.8867 91.2034 52.1433 91.1034 52.37C91.0034 52.5967 90.7968 52.7567 90.4834 52.85C90.7234 52.8967 90.9068 52.9967 91.0334 53.15C91.1668 53.2967 91.2568 53.4733 91.3034 53.68C91.3568 53.8867 91.3834 54.1 91.3834 54.32C91.3834 54.6533 91.3334 54.9467 91.2334 55.2C91.1401 55.4533 90.9734 55.65 90.7334 55.79C90.5001 55.93 90.1668 56 89.7334 56H88.0634ZM89.1134 55.19H89.4934C89.6468 55.19 89.7868 55.17 89.9134 55.13C90.0401 55.0833 90.1401 54.9933 90.2134 54.86C90.2934 54.7267 90.3334 54.5333 90.3334 54.28C90.3334 53.98 90.2968 53.7633 90.2234 53.63C90.1568 53.49 90.0634 53.4033 89.9434 53.37C89.8301 53.3367 89.6968 53.32 89.5434 53.32H89.1134V55.19ZM89.1134 52.55H89.6334C89.8401 52.55 90.0034 52.49 90.1234 52.37C90.2434 52.25 90.3034 52.0367 90.3034 51.73C90.3034 51.4567 90.2334 51.2667 90.0934 51.16C89.9534 51.0533 89.7634 51 89.5234 51H89.1134V52.55ZM92.2138 56V50.22H93.1138V54.11L94.8538 50.22H95.6938V56H94.8138V52.08L93.0838 56H92.2138ZM96.2641 57.47V55.29C96.4641 55.1367 96.6475 54.9533 96.8141 54.74C96.9808 54.5267 97.1275 54.2567 97.2541 53.93C97.3808 53.6033 97.4808 53.2 97.5541 52.72C97.6275 52.24 97.6675 51.66 97.6741 50.98L97.6941 50.22H100.304V55.24H101.004V57.47H100.224L100.134 56H97.1341L97.0441 57.47H96.2641ZM97.3041 55.24H99.2741V50.99H98.5241L98.5041 51.2C98.4975 51.9067 98.4608 52.4967 98.3941 52.97C98.3341 53.4367 98.2475 53.82 98.1341 54.12C98.0275 54.4133 97.9008 54.6467 97.7541 54.82C97.6141 54.9933 97.4641 55.1333 97.3041 55.24ZM103.345 56.08C102.892 56.08 102.542 55.9933 102.295 55.82C102.048 55.64 101.875 55.38 101.775 55.04C101.682 54.6933 101.635 54.27 101.635 53.77V52.45C101.635 51.9367 101.685 51.51 101.785 51.17C101.885 50.83 102.058 50.5733 102.305 50.4C102.558 50.2267 102.905 50.14 103.345 50.14C103.832 50.14 104.188 50.24 104.415 50.44C104.648 50.64 104.802 50.93 104.875 51.31C104.948 51.6833 104.985 52.1333 104.985 52.66V53.13H102.705V54.29C102.705 54.5233 102.725 54.7133 102.765 54.86C102.812 55.0067 102.882 55.1167 102.975 55.19C103.075 55.2567 103.202 55.29 103.355 55.29C103.515 55.29 103.635 55.2533 103.715 55.18C103.802 55.1 103.858 54.99 103.885 54.85C103.918 54.7033 103.935 54.5333 103.935 54.34V53.99H104.975V54.21C104.975 54.79 104.852 55.2467 104.605 55.58C104.358 55.9133 103.938 56.08 103.345 56.08ZM102.705 52.55H103.935V52.03C103.935 51.79 103.922 51.59 103.895 51.43C103.868 51.2633 103.812 51.14 103.725 51.06C103.645 50.9733 103.515 50.93 103.335 50.93C103.162 50.93 103.028 50.97 102.935 51.05C102.848 51.13 102.788 51.2667 102.755 51.46C102.722 51.6467 102.705 51.9067 102.705 52.24V52.55ZM105.954 56V50.22H107.024V52.65H108.394V50.22H109.464V56H108.394V53.43H107.024V56H105.954ZM110.544 56V50.22H111.614V52.65H112.984V50.22H114.054V56H112.984V53.43H111.614V56H110.544ZM116.174 56.08C115.947 56.08 115.747 56.0167 115.574 55.89C115.4 55.7567 115.264 55.59 115.164 55.39C115.064 55.1833 115.014 54.9667 115.014 54.74C115.014 54.38 115.074 54.0767 115.194 53.83C115.314 53.5833 115.477 53.3767 115.684 53.21C115.897 53.0367 116.14 52.8867 116.414 52.76C116.694 52.6333 116.987 52.51 117.294 52.39V51.98C117.294 51.7467 117.28 51.5533 117.254 51.4C117.227 51.2467 117.17 51.1333 117.084 51.06C117.004 50.98 116.88 50.94 116.714 50.94C116.567 50.94 116.447 50.9733 116.354 51.04C116.267 51.1067 116.204 51.2033 116.164 51.33C116.124 51.45 116.104 51.5933 116.104 51.76V52.05L115.044 52.01C115.057 51.37 115.204 50.9 115.484 50.6C115.764 50.2933 116.197 50.14 116.784 50.14C117.357 50.14 117.764 50.2967 118.004 50.61C118.244 50.9233 118.364 51.3767 118.364 51.97V54.61C118.364 54.79 118.367 54.9633 118.374 55.13C118.387 55.2967 118.4 55.4533 118.414 55.6C118.434 55.74 118.45 55.8733 118.464 56H117.484C117.464 55.8933 117.437 55.76 117.404 55.6C117.377 55.4333 117.357 55.2833 117.344 55.15C117.277 55.3767 117.147 55.59 116.954 55.79C116.767 55.9833 116.507 56.08 116.174 56.08ZM116.594 55.16C116.7 55.16 116.8 55.13 116.894 55.07C116.987 55.01 117.07 54.9433 117.144 54.87C117.217 54.79 117.267 54.7267 117.294 54.68V53.04C117.127 53.1333 116.97 53.2267 116.824 53.32C116.677 53.4133 116.547 53.5133 116.434 53.62C116.327 53.72 116.24 53.8367 116.174 53.97C116.114 54.0967 116.084 54.2433 116.084 54.41C116.084 54.6433 116.127 54.8267 116.214 54.96C116.3 55.0933 116.427 55.16 116.594 55.16ZM118.952 56L120.042 53.55C119.855 53.4767 119.702 53.3667 119.582 53.22C119.468 53.0733 119.385 52.8933 119.332 52.68C119.278 52.4667 119.252 52.2267 119.252 51.96C119.252 51.6533 119.292 51.39 119.372 51.17C119.452 50.95 119.578 50.77 119.752 50.63C119.925 50.49 120.155 50.3867 120.442 50.32C120.728 50.2533 121.082 50.22 121.502 50.22H122.622V56H121.562V53.72C121.455 53.72 121.365 53.72 121.292 53.72C121.218 53.7133 121.138 53.7067 121.052 53.7L120.102 56H118.952ZM121.442 53.1C121.455 53.1 121.475 53.1 121.502 53.1C121.535 53.1 121.555 53.1 121.562 53.1V50.83C121.555 50.83 121.535 50.83 121.502 50.83C121.475 50.83 121.458 50.83 121.452 50.83C121.138 50.83 120.888 50.87 120.702 50.95C120.522 51.0233 120.395 51.1433 120.322 51.31C120.248 51.47 120.212 51.6867 120.212 51.96C120.212 52.34 120.295 52.6233 120.462 52.81C120.635 52.9967 120.962 53.0933 121.442 53.1ZM127.583 56.08C127.156 56.08 126.82 55.9933 126.573 55.82C126.326 55.6467 126.15 55.4 126.043 55.08C125.943 54.76 125.893 54.3833 125.893 53.95V52.27C125.893 51.8367 125.943 51.46 126.043 51.14C126.15 50.82 126.326 50.5733 126.573 50.4C126.82 50.2267 127.156 50.14 127.583 50.14C128.01 50.14 128.343 50.2267 128.583 50.4C128.83 50.5733 129.003 50.82 129.103 51.14C129.21 51.46 129.263 51.8367 129.263 52.27V53.95C129.263 54.3833 129.21 54.76 129.103 55.08C129.003 55.4 128.83 55.6467 128.583 55.82C128.343 55.9933 128.01 56.08 127.583 56.08ZM127.583 55.29C127.79 55.29 127.933 55.23 128.013 55.11C128.1 54.99 128.15 54.8333 128.163 54.64C128.183 54.44 128.193 54.2333 128.193 54.02V52.21C128.193 51.99 128.183 51.7833 128.163 51.59C128.15 51.3967 128.1 51.24 128.013 51.12C127.933 50.9933 127.79 50.93 127.583 50.93C127.376 50.93 127.23 50.9933 127.143 51.12C127.056 51.24 127.003 51.3967 126.983 51.59C126.97 51.7833 126.963 51.99 126.963 52.21V54.02C126.963 54.2333 126.97 54.44 126.983 54.64C127.003 54.8333 127.056 54.99 127.143 55.11C127.23 55.23 127.376 55.29 127.583 55.29ZM130.241 56V50.22H131.271V55.24H132.291V50.22H133.321V55.24H134.341V50.22H135.371V56H130.241ZM136.491 56V50.22H137.391V54.11L139.131 50.22H139.971V56H139.091V52.08L137.361 56H136.491ZM142.671 56.08C142.338 56.08 142.048 56.0067 141.801 55.86C141.555 55.7067 141.365 55.4833 141.231 55.19C141.105 54.89 141.041 54.52 141.041 54.08V50.68C141.041 50.1733 141.078 49.76 141.151 49.44C141.231 49.12 141.355 48.8667 141.521 48.68C141.688 48.4933 141.905 48.3467 142.171 48.24C142.451 48.1267 142.701 48.0467 142.921 48C143.141 47.9533 143.351 47.9033 143.551 47.85C143.758 47.79 143.968 47.6967 144.181 47.57L144.401 48.46C144.215 48.58 144.008 48.67 143.781 48.73C143.561 48.7833 143.341 48.8333 143.121 48.88C142.901 48.92 142.695 48.9867 142.501 49.08C142.308 49.1733 142.158 49.3167 142.051 49.51C141.945 49.6967 141.891 49.9567 141.891 50.29V51.22C141.978 51.1333 142.091 51.0533 142.231 50.98C142.371 50.9 142.521 50.8333 142.681 50.78C142.848 50.7267 143.005 50.7 143.151 50.7C143.391 50.7 143.611 50.7633 143.811 50.89C144.011 51.0167 144.171 51.2333 144.291 51.54C144.411 51.84 144.471 52.25 144.471 52.77V53.87C144.471 54.4767 144.395 54.94 144.241 55.26C144.088 55.5733 143.875 55.79 143.601 55.91C143.335 56.0233 143.025 56.08 142.671 56.08ZM142.771 55.29C142.918 55.29 143.035 55.2567 143.121 55.19C143.215 55.1167 143.281 55 143.321 54.84C143.368 54.68 143.391 54.4667 143.391 54.2V52.45C143.391 52.2033 143.375 52.0067 143.341 51.86C143.308 51.7133 143.255 51.6067 143.181 51.54C143.108 51.4667 143.008 51.43 142.881 51.43C142.815 51.43 142.738 51.4433 142.651 51.47C142.571 51.49 142.485 51.5233 142.391 51.57C142.305 51.61 142.211 51.6633 142.111 51.73V54.11C142.111 54.39 142.131 54.6167 142.171 54.79C142.218 54.9633 142.288 55.09 142.381 55.17C142.481 55.25 142.611 55.29 142.771 55.29ZM145.446 56V50.22H146.516V52.66H146.816L147.906 50.22H149.006L147.796 53.02L149.026 56H147.906L146.816 53.3H146.516V56H145.446ZM150.637 56.08C150.41 56.08 150.21 56.0167 150.037 55.89C149.863 55.7567 149.727 55.59 149.627 55.39C149.527 55.1833 149.477 54.9667 149.477 54.74C149.477 54.38 149.537 54.0767 149.657 53.83C149.777 53.5833 149.94 53.3767 150.147 53.21C150.36 53.0367 150.603 52.8867 150.877 52.76C151.157 52.6333 151.45 52.51 151.757 52.39V51.98C151.757 51.7467 151.743 51.5533 151.717 51.4C151.69 51.2467 151.633 51.1333 151.547 51.06C151.467 50.98 151.343 50.94 151.177 50.94C151.03 50.94 150.91 50.9733 150.817 51.04C150.73 51.1067 150.667 51.2033 150.627 51.33C150.587 51.45 150.567 51.5933 150.567 51.76V52.05L149.507 52.01C149.52 51.37 149.667 50.9 149.947 50.6C150.227 50.2933 150.66 50.14 151.247 50.14C151.82 50.14 152.227 50.2967 152.467 50.61C152.707 50.9233 152.827 51.3767 152.827 51.97V54.61C152.827 54.79 152.83 54.9633 152.837 55.13C152.85 55.2967 152.863 55.4533 152.877 55.6C152.897 55.74 152.913 55.8733 152.927 56H151.947C151.927 55.8933 151.9 55.76 151.867 55.6C151.84 55.4333 151.82 55.2833 151.807 55.15C151.74 55.3767 151.61 55.59 151.417 55.79C151.23 55.9833 150.97 56.08 150.637 56.08ZM151.057 55.16C151.163 55.16 151.263 55.13 151.357 55.07C151.45 55.01 151.533 54.9433 151.607 54.87C151.68 54.79 151.73 54.7267 151.757 54.68V53.04C151.59 53.1333 151.433 53.2267 151.287 53.32C151.14 53.4133 151.01 53.5133 150.897 53.62C150.79 53.72 150.703 53.8367 150.637 53.97C150.577 54.0967 150.547 54.2433 150.547 54.41C150.547 54.6433 150.59 54.8267 150.677 54.96C150.763 55.0933 150.89 55.16 151.057 55.16ZM153.804 56V54.81H154.874V56H153.804ZM155.689 56V54.81H156.759V56H155.689ZM157.574 56V54.81H158.644V56H157.574Z"></path>
</svg>
