<svg xmlns="http://www.w3.org/2000/svg" fill="none" viewBox="0 0 214 84" height="84" width="214">
<mask fill="white" id="path-1-inside-1_1276_40">
<path d="M0 0H214V84H0V0Z"></path>
</mask>
<path fill="#0D0E12" d="M0 0H214V84H0V0Z"></path>
<path mask="url(#path-1-inside-1_1276_40)" fill="white" d="M0 0V-1H-1V0H0ZM0 84H-1V85H0V84ZM0 1H214V-1H0V1ZM214 83H0V85H214V83ZM1 84V0H-1V84H1Z"></path>
<path fill="#FFF500" d="M16.72 38V28.28H19.18C20.028 28.28 20.688 28.388 21.16 28.604C21.632 28.812 21.964 29.144 22.156 29.6C22.348 30.048 22.444 30.632 22.444 31.352V34.88C22.444 35.608 22.348 36.204 22.156 36.668C21.964 37.124 21.632 37.46 21.16 37.676C20.696 37.892 20.044 38 19.204 38H16.72ZM18.868 36.512H19.204C19.532 36.512 19.768 36.464 19.912 36.368C20.056 36.272 20.144 36.128 20.176 35.936C20.216 35.744 20.236 35.504 20.236 35.216V30.98C20.236 30.692 20.212 30.46 20.164 30.284C20.124 30.108 20.032 29.98 19.888 29.9C19.744 29.82 19.512 29.78 19.192 29.78H18.868V36.512ZM23.7513 38V28.28H26.4273C27.0833 28.28 27.6513 28.352 28.1313 28.496C28.6113 28.64 28.9833 28.9 29.2473 29.276C29.5193 29.644 29.6553 30.168 29.6553 30.848C29.6553 31.248 29.6233 31.604 29.5593 31.916C29.4953 32.228 29.3753 32.5 29.1992 32.732C29.0313 32.956 28.7873 33.144 28.4673 33.296L29.7993 38H27.5793L26.5113 33.644H25.8993V38H23.7513ZM25.8993 32.408H26.4993C26.8033 32.408 27.0393 32.356 27.2073 32.252C27.3753 32.14 27.4913 31.984 27.5553 31.784C27.6273 31.576 27.6633 31.328 27.6633 31.04C27.6633 30.624 27.5873 30.3 27.4353 30.068C27.2833 29.836 27.0033 29.72 26.5953 29.72H25.8993V32.408ZM30.4786 38L32.3146 28.28H34.7626L36.5746 38H34.5946L34.2706 35.948H32.8426L32.5066 38H30.4786ZM33.0346 34.664H34.0666L33.5506 30.872L33.0346 34.664ZM38.125 38L36.949 28.28H38.773L39.349 33.944L40.081 28.292H41.509L42.277 33.908L42.865 28.28H44.665L43.501 38H41.629L40.801 32.132L40.021 38H38.125Z"></path>
<path fill="white" d="M16.63 56V47.9H18.39C18.99 47.9 19.4633 47.9933 19.81 48.18C20.1633 48.36 20.4133 48.6333 20.56 49C20.7133 49.3667 20.79 49.8233 20.79 50.37V53.35C20.79 53.9233 20.7133 54.4067 20.56 54.8C20.4133 55.1933 20.17 55.4933 19.83 55.7C19.4967 55.9 19.0467 56 18.48 56H16.63ZM17.76 55.19H18.4C18.8133 55.19 19.1067 55.11 19.28 54.95C19.4533 54.79 19.5567 54.5567 19.59 54.25C19.63 53.9433 19.65 53.5733 19.65 53.14V50.51C19.65 50.09 19.6233 49.75 19.57 49.49C19.5167 49.23 19.4 49.04 19.22 48.92C19.04 48.8 18.7567 48.74 18.37 48.74H17.76V55.19ZM21.8434 56V50.22H22.9134V51.04C23.1268 50.6867 23.3401 50.45 23.5534 50.33C23.7668 50.21 23.9801 50.15 24.1934 50.15C24.2201 50.15 24.2434 50.15 24.2634 50.15C24.2901 50.15 24.3234 50.1533 24.3634 50.16V51.34C24.2834 51.3067 24.1901 51.28 24.0834 51.26C23.9834 51.2333 23.8801 51.22 23.7734 51.22C23.6068 51.22 23.4534 51.26 23.3134 51.34C23.1801 51.4133 23.0468 51.56 22.9134 51.78V56H21.8434ZM26.0663 56.08C25.8397 56.08 25.6397 56.0167 25.4663 55.89C25.293 55.7567 25.1563 55.59 25.0563 55.39C24.9563 55.1833 24.9063 54.9667 24.9063 54.74C24.9063 54.38 24.9663 54.0767 25.0863 53.83C25.2063 53.5833 25.3697 53.3767 25.5763 53.21C25.7897 53.0367 26.033 52.8867 26.3063 52.76C26.5863 52.6333 26.8797 52.51 27.1863 52.39V51.98C27.1863 51.7467 27.173 51.5533 27.1463 51.4C27.1197 51.2467 27.063 51.1333 26.9763 51.06C26.8963 50.98 26.773 50.94 26.6063 50.94C26.4597 50.94 26.3397 50.9733 26.2463 51.04C26.1597 51.1067 26.0963 51.2033 26.0563 51.33C26.0163 51.45 25.9963 51.5933 25.9963 51.76V52.05L24.9363 52.01C24.9497 51.37 25.0963 50.9 25.3763 50.6C25.6563 50.2933 26.0897 50.14 26.6763 50.14C27.2497 50.14 27.6563 50.2967 27.8963 50.61C28.1363 50.9233 28.2563 51.3767 28.2563 51.97V54.61C28.2563 54.79 28.2597 54.9633 28.2663 55.13C28.2797 55.2967 28.293 55.4533 28.3063 55.6C28.3263 55.74 28.343 55.8733 28.3563 56H27.3763C27.3563 55.8933 27.3297 55.76 27.2963 55.6C27.2697 55.4333 27.2497 55.2833 27.2363 55.15C27.1697 55.3767 27.0397 55.59 26.8463 55.79C26.6597 55.9833 26.3997 56.08 26.0663 56.08ZM26.4863 55.16C26.593 55.16 26.693 55.13 26.7863 55.07C26.8797 55.01 26.963 54.9433 27.0363 54.87C27.1097 54.79 27.1597 54.7267 27.1863 54.68V53.04C27.0197 53.1333 26.863 53.2267 26.7163 53.32C26.5697 53.4133 26.4397 53.5133 26.3263 53.62C26.2197 53.72 26.133 53.8367 26.0663 53.97C26.0063 54.0967 25.9763 54.2433 25.9763 54.41C25.9763 54.6433 26.0197 54.8267 26.1063 54.96C26.193 55.0933 26.3197 55.16 26.4863 55.16ZM29.9541 56L29.0241 50.22H29.9041L30.5041 54.48L31.2741 50.22H32.0941L32.8641 54.46L33.4641 50.22H34.3441L33.3841 56H32.4841L31.6941 51.92L30.9141 56H29.9541ZM39.5182 56.08C39.3115 56.08 39.1249 56.03 38.9582 55.93C38.7982 55.8233 38.6582 55.7067 38.5382 55.58V56H37.4682V47.9H38.5382V50.68C38.6649 50.5333 38.8149 50.4067 38.9882 50.3C39.1682 50.1933 39.3815 50.14 39.6282 50.14C39.9282 50.14 40.1649 50.22 40.3382 50.38C40.5182 50.5333 40.6515 50.73 40.7382 50.97C40.8249 51.2033 40.8815 51.4433 40.9082 51.69C40.9349 51.93 40.9482 52.1367 40.9482 52.31V53.71C40.9482 54.1167 40.9082 54.5033 40.8282 54.87C40.7482 55.23 40.6049 55.5233 40.3982 55.75C40.1915 55.97 39.8982 56.08 39.5182 56.08ZM39.2982 55.24C39.4849 55.24 39.6182 55.1733 39.6982 55.04C39.7782 54.9 39.8282 54.7133 39.8482 54.48C39.8682 54.2467 39.8782 53.99 39.8782 53.71V52.31C39.8782 52.07 39.8649 51.85 39.8382 51.65C39.8115 51.4433 39.7549 51.28 39.6682 51.16C39.5815 51.04 39.4449 50.98 39.2582 50.98C39.1182 50.98 38.9849 51.01 38.8582 51.07C38.7382 51.13 38.6315 51.1967 38.5382 51.27V54.98C38.6315 55.0533 38.7415 55.1167 38.8682 55.17C39.0015 55.2167 39.1449 55.24 39.2982 55.24ZM41.8309 57.45V56.63C42.0909 56.63 42.2975 56.6167 42.4509 56.59C42.6042 56.57 42.7142 56.5267 42.7809 56.46C42.8475 56.4 42.8809 56.3133 42.8809 56.2C42.8809 56.14 42.8575 56.0067 42.8109 55.8C42.7642 55.5933 42.7142 55.3733 42.6609 55.14L41.5009 50.22H42.5809L43.3609 54.54L44.1109 50.22H45.1909L43.8109 56.32C43.7509 56.6 43.6409 56.82 43.4809 56.98C43.3209 57.1467 43.1142 57.2667 42.8609 57.34C42.6142 57.4133 42.3142 57.45 41.9609 57.45H41.8309ZM48.122 56V50.22H49.112V50.77C49.3054 50.55 49.5187 50.3867 49.752 50.28C49.9854 50.1733 50.2254 50.12 50.472 50.12C50.6854 50.12 50.8754 50.1733 51.042 50.28C51.2154 50.3867 51.3387 50.5767 51.412 50.85C51.6187 50.5967 51.842 50.4133 52.082 50.3C52.3287 50.18 52.5854 50.12 52.852 50.12C53.0387 50.12 53.2087 50.1667 53.362 50.26C53.5154 50.3467 53.6387 50.49 53.732 50.69C53.8254 50.8833 53.872 51.14 53.872 51.46V56H52.892V51.53C52.892 51.25 52.8454 51.0633 52.752 50.97C52.6654 50.87 52.5454 50.82 52.392 50.82C52.2454 50.82 52.092 50.8633 51.932 50.95C51.772 51.03 51.6254 51.1433 51.492 51.29C51.492 51.3167 51.492 51.3433 51.492 51.37C51.492 51.3967 51.492 51.4267 51.492 51.46V56H50.512V51.53C50.512 51.25 50.4654 51.0633 50.372 50.97C50.2854 50.87 50.1654 50.82 50.012 50.82C49.8654 50.82 49.712 50.8633 49.552 50.95C49.3987 51.03 49.252 51.1433 49.112 51.29V56H48.122ZM55.7489 56.08C55.5222 56.08 55.3456 56.02 55.2189 55.9C55.0922 55.78 55.0022 55.63 54.9489 55.45C54.9022 55.27 54.8789 55.0867 54.8789 54.9V50.22H55.9489V54.58C55.9489 54.7867 55.9789 54.95 56.0389 55.07C56.0989 55.1833 56.2222 55.24 56.4089 55.24C56.5289 55.24 56.6522 55.2067 56.7789 55.14C56.9122 55.0667 57.0389 54.98 57.1589 54.88V50.22H58.2289V56H57.1589V55.43C56.9722 55.61 56.7589 55.7633 56.5189 55.89C56.2856 56.0167 56.0289 56.08 55.7489 56.08ZM60.8632 56.08C60.5632 56.08 60.3199 56.0233 60.1332 55.91C59.9532 55.7967 59.8199 55.6367 59.7332 55.43C59.6532 55.2233 59.6132 54.98 59.6132 54.7V50.93H59.0032V50.22H59.6132V48.53H60.6832V50.22H61.6132V50.93H60.6832V54.63C60.6832 54.8567 60.7199 55.02 60.7932 55.12C60.8665 55.2133 61.0065 55.26 61.2132 55.26C61.2665 55.26 61.3265 55.2567 61.3932 55.25C61.4665 55.2433 61.5365 55.2367 61.6032 55.23V56.02C61.4699 56.04 61.3465 56.0533 61.2332 56.06C61.1199 56.0733 60.9965 56.08 60.8632 56.08ZM63.2294 56.08C63.0027 56.08 62.826 56.02 62.6994 55.9C62.5727 55.78 62.4827 55.63 62.4294 55.45C62.3827 55.27 62.3594 55.0867 62.3594 54.9V50.22H63.4294V54.58C63.4294 54.7867 63.4594 54.95 63.5194 55.07C63.5794 55.1833 63.7027 55.24 63.8894 55.24C64.0094 55.24 64.1327 55.2067 64.2594 55.14C64.3927 55.0667 64.5194 54.98 64.6394 54.88V50.22H65.7094V56H64.6394V55.43C64.4527 55.61 64.2394 55.7633 63.9994 55.89C63.766 56.0167 63.5094 56.08 63.2294 56.08ZM67.8437 56.08C67.617 56.08 67.417 56.0167 67.2437 55.89C67.0703 55.7567 66.9337 55.59 66.8337 55.39C66.7337 55.1833 66.6837 54.9667 66.6837 54.74C66.6837 54.38 66.7437 54.0767 66.8637 53.83C66.9837 53.5833 67.147 53.3767 67.3537 53.21C67.567 53.0367 67.8103 52.8867 68.0837 52.76C68.3637 52.6333 68.657 52.51 68.9637 52.39V51.98C68.9637 51.7467 68.9503 51.5533 68.9237 51.4C68.897 51.2467 68.8403 51.1333 68.7537 51.06C68.6737 50.98 68.5503 50.94 68.3837 50.94C68.237 50.94 68.117 50.9733 68.0237 51.04C67.937 51.1067 67.8737 51.2033 67.8337 51.33C67.7937 51.45 67.7737 51.5933 67.7737 51.76V52.05L66.7137 52.01C66.727 51.37 66.8737 50.9 67.1537 50.6C67.4337 50.2933 67.867 50.14 68.4537 50.14C69.027 50.14 69.4337 50.2967 69.6737 50.61C69.9137 50.9233 70.0337 51.3767 70.0337 51.97V54.61C70.0337 54.79 70.037 54.9633 70.0437 55.13C70.057 55.2967 70.0703 55.4533 70.0837 55.6C70.1037 55.74 70.1203 55.8733 70.1337 56H69.1537C69.1337 55.8933 69.107 55.76 69.0737 55.6C69.047 55.4333 69.027 55.2833 69.0137 55.15C68.947 55.3767 68.817 55.59 68.6237 55.79C68.437 55.9833 68.177 56.08 67.8437 56.08ZM68.2637 55.16C68.3703 55.16 68.4703 55.13 68.5637 55.07C68.657 55.01 68.7403 54.9433 68.8137 54.87C68.887 54.79 68.937 54.7267 68.9637 54.68V53.04C68.797 53.1333 68.6403 53.2267 68.4937 53.32C68.347 53.4133 68.217 53.5133 68.1037 53.62C67.997 53.72 67.9103 53.8367 67.8437 53.97C67.7837 54.0967 67.7537 54.2433 67.7537 54.41C67.7537 54.6433 67.797 54.8267 67.8837 54.96C67.9703 55.0933 68.097 55.16 68.2637 55.16ZM71.1615 56V47.9H72.2315V56H71.1615ZM77.2118 56.08C76.7385 56.08 76.3785 55.9867 76.1318 55.8C75.8918 55.6067 75.7285 55.3367 75.6418 54.99C75.5618 54.6433 75.5218 54.24 75.5218 53.78V52.45C75.5218 51.9633 75.5651 51.55 75.6518 51.21C75.7385 50.8633 75.9018 50.6 76.1418 50.42C76.3885 50.2333 76.7451 50.14 77.2118 50.14C77.6318 50.14 77.9551 50.21 78.1818 50.35C78.4151 50.4833 78.5751 50.6867 78.6618 50.96C78.7485 51.2267 78.7918 51.56 78.7918 51.96V52.3H77.8218V51.95C77.8218 51.6967 77.8051 51.4967 77.7718 51.35C77.7385 51.2033 77.6785 51.0967 77.5918 51.03C77.5051 50.9633 77.3818 50.93 77.2218 50.93C77.0485 50.93 76.9151 50.97 76.8218 51.05C76.7285 51.13 76.6651 51.2667 76.6318 51.46C76.6051 51.6467 76.5918 51.9033 76.5918 52.23V54.05C76.5918 54.5433 76.6385 54.8733 76.7318 55.04C76.8251 55.2067 76.9918 55.29 77.2318 55.29C77.4118 55.29 77.5418 55.25 77.6218 55.17C77.7085 55.0833 77.7618 54.9633 77.7818 54.81C77.8085 54.6567 77.8218 54.4833 77.8218 54.29V53.82H78.7918V54.22C78.7918 54.6067 78.7451 54.94 78.6518 55.22C78.5651 55.5 78.4051 55.7133 78.1718 55.86C77.9451 56.0067 77.6251 56.08 77.2118 56.08ZM81.3331 56.08C80.9065 56.08 80.5698 55.9933 80.3231 55.82C80.0765 55.6467 79.8998 55.4 79.7931 55.08C79.6931 54.76 79.6431 54.3833 79.6431 53.95V52.27C79.6431 51.8367 79.6931 51.46 79.7931 51.14C79.8998 50.82 80.0765 50.5733 80.3231 50.4C80.5698 50.2267 80.9065 50.14 81.3331 50.14C81.7598 50.14 82.0931 50.2267 82.3331 50.4C82.5798 50.5733 82.7531 50.82 82.8531 51.14C82.9598 51.46 83.0131 51.8367 83.0131 52.27V53.95C83.0131 54.3833 82.9598 54.76 82.8531 55.08C82.7531 55.4 82.5798 55.6467 82.3331 55.82C82.0931 55.9933 81.7598 56.08 81.3331 56.08ZM81.3331 55.29C81.5398 55.29 81.6831 55.23 81.7631 55.11C81.8498 54.99 81.8998 54.8333 81.9131 54.64C81.9331 54.44 81.9431 54.2333 81.9431 54.02V52.21C81.9431 51.99 81.9331 51.7833 81.9131 51.59C81.8998 51.3967 81.8498 51.24 81.7631 51.12C81.6831 50.9933 81.5398 50.93 81.3331 50.93C81.1265 50.93 80.9798 50.9933 80.8931 51.12C80.8065 51.24 80.7531 51.3967 80.7331 51.59C80.7198 51.7833 80.7131 51.99 80.7131 52.21V54.02C80.7131 54.2333 80.7198 54.44 80.7331 54.64C80.7531 54.8333 80.8065 54.99 80.8931 55.11C80.9798 55.23 81.1265 55.29 81.3331 55.29ZM83.9912 56V50.22H85.0612V50.79C85.2545 50.61 85.4678 50.4567 85.7012 50.33C85.9345 50.2033 86.1912 50.14 86.4712 50.14C86.7045 50.14 86.8812 50.2 87.0012 50.32C87.1278 50.44 87.2145 50.59 87.2612 50.77C87.3145 50.95 87.3412 51.1333 87.3412 51.32V56H86.2712V51.63C86.2712 51.4233 86.2412 51.2633 86.1812 51.15C86.1212 51.0367 85.9978 50.98 85.8112 50.98C85.6912 50.98 85.5645 51.0167 85.4312 51.09C85.3045 51.1567 85.1812 51.24 85.0612 51.34V56H83.9912ZM89.7257 56.08C89.2524 56.08 88.8724 55.9333 88.5857 55.64C88.299 55.34 88.1357 54.9467 88.0957 54.46L88.9857 54.19C89.039 54.5567 89.129 54.8333 89.2557 55.02C89.3824 55.2 89.569 55.29 89.8157 55.29C90.009 55.29 90.1557 55.2367 90.2557 55.13C90.3557 55.0167 90.4057 54.8667 90.4057 54.68C90.4057 54.5133 90.369 54.3633 90.2957 54.23C90.2224 54.0967 90.1024 53.96 89.9357 53.82L88.9457 52.97C88.7457 52.7967 88.5757 52.6033 88.4357 52.39C88.3024 52.1767 88.2357 51.9 88.2357 51.56C88.2357 51.2533 88.2957 50.9967 88.4157 50.79C88.5424 50.5767 88.7157 50.4167 88.9357 50.31C89.1624 50.1967 89.4257 50.14 89.7257 50.14C90.1857 50.14 90.5357 50.29 90.7757 50.59C91.0224 50.8833 91.1624 51.24 91.1957 51.66L90.4757 51.93C90.449 51.73 90.409 51.5567 90.3557 51.41C90.3024 51.2567 90.229 51.14 90.1357 51.06C90.0424 50.9733 89.919 50.93 89.7657 50.93C89.5924 50.93 89.4524 50.99 89.3457 51.11C89.2457 51.2233 89.1957 51.36 89.1957 51.52C89.1957 51.62 89.2157 51.72 89.2557 51.82C89.3024 51.9133 89.379 52.0067 89.4857 52.1L90.5057 53.04C90.6457 53.1667 90.7757 53.3033 90.8957 53.45C91.0224 53.5967 91.1257 53.7633 91.2057 53.95C91.2857 54.1367 91.3257 54.3533 91.3257 54.6C91.3257 54.9267 91.259 55.2 91.1257 55.42C90.9924 55.64 90.8057 55.8067 90.5657 55.92C90.3257 56.0267 90.0457 56.08 89.7257 56.08ZM93.7259 56.08C93.2726 56.08 92.9226 55.9933 92.6759 55.82C92.4293 55.64 92.2559 55.38 92.1559 55.04C92.0626 54.6933 92.0159 54.27 92.0159 53.77V52.45C92.0159 51.9367 92.0659 51.51 92.1659 51.17C92.2659 50.83 92.4393 50.5733 92.6859 50.4C92.9393 50.2267 93.2859 50.14 93.7259 50.14C94.2126 50.14 94.5693 50.24 94.7959 50.44C95.0293 50.64 95.1826 50.93 95.2559 51.31C95.3293 51.6833 95.3659 52.1333 95.3659 52.66V53.13H93.0859V54.29C93.0859 54.5233 93.1059 54.7133 93.1459 54.86C93.1926 55.0067 93.2626 55.1167 93.3559 55.19C93.4559 55.2567 93.5826 55.29 93.7359 55.29C93.8959 55.29 94.0159 55.2533 94.0959 55.18C94.1826 55.1 94.2393 54.99 94.2659 54.85C94.2993 54.7033 94.3159 54.5333 94.3159 54.34V53.99H95.3559V54.21C95.3559 54.79 95.2326 55.2467 94.9859 55.58C94.7393 55.9133 94.3193 56.08 93.7259 56.08ZM93.0859 52.55H94.3159V52.03C94.3159 51.79 94.3026 51.59 94.2759 51.43C94.2493 51.2633 94.1926 51.14 94.1059 51.06C94.0259 50.9733 93.8959 50.93 93.7159 50.93C93.5426 50.93 93.4093 50.97 93.3159 51.05C93.2293 51.13 93.1693 51.2667 93.1359 51.46C93.1026 51.6467 93.0859 51.9067 93.0859 52.24V52.55ZM96.3349 56V50.22H97.4049V50.79C97.5983 50.61 97.8116 50.4567 98.0449 50.33C98.2783 50.2033 98.5349 50.14 98.8149 50.14C99.0483 50.14 99.2249 50.2 99.3449 50.32C99.4716 50.44 99.5583 50.59 99.6049 50.77C99.6583 50.95 99.6849 51.1333 99.6849 51.32V56H98.6149V51.63C98.6149 51.4233 98.5849 51.2633 98.5249 51.15C98.4649 51.0367 98.3416 50.98 98.1549 50.98C98.0349 50.98 97.9083 51.0167 97.7749 51.09C97.6483 51.1567 97.5249 51.24 97.4049 51.34V56H96.3349ZM102.269 56.08C101.969 56.08 101.726 56.0233 101.539 55.91C101.359 55.7967 101.226 55.6367 101.139 55.43C101.059 55.2233 101.019 54.98 101.019 54.7V50.93H100.409V50.22H101.019V48.53H102.089V50.22H103.019V50.93H102.089V54.63C102.089 54.8567 102.126 55.02 102.199 55.12C102.273 55.2133 102.413 55.26 102.619 55.26C102.673 55.26 102.733 55.2567 102.799 55.25C102.873 55.2433 102.943 55.2367 103.009 55.23V56.02C102.876 56.04 102.753 56.0533 102.639 56.06C102.526 56.0733 102.403 56.08 102.269 56.08Z"></path>
</svg>
