<svg xmlns="http://www.w3.org/2000/svg" fill="none" viewBox="0 0 480 360" height="360" width="480">
<rect fill-opacity="0.01" fill="white" height="360" width="480"></rect>
<rect fill-opacity="0.8" fill="#0D0E12" height="304" width="304" y="40" x="18"></rect>
<path fill="white" d="M116.765 174V164.28H119.297C119.713 164.28 120.105 164.312 120.473 164.376C120.849 164.44 121.181 164.564 121.469 164.748C121.757 164.924 121.981 165.18 122.141 165.516C122.309 165.844 122.393 166.28 122.393 166.824C122.393 167.216 122.333 167.548 122.213 167.82C122.101 168.084 121.937 168.296 121.721 168.456C121.513 168.616 121.261 168.724 120.965 168.78C121.341 168.828 121.657 168.952 121.913 169.152C122.169 169.344 122.361 169.604 122.489 169.932C122.625 170.26 122.693 170.656 122.693 171.12C122.693 171.624 122.625 172.06 122.489 172.428C122.361 172.788 122.173 173.084 121.925 173.316C121.677 173.548 121.369 173.72 121.001 173.832C120.641 173.944 120.225 174 119.753 174H116.765ZM118.913 172.5H119.369C119.841 172.5 120.165 172.38 120.341 172.14C120.525 171.9 120.617 171.548 120.617 171.084C120.617 170.716 120.577 170.424 120.497 170.208C120.417 169.992 120.285 169.836 120.101 169.74C119.917 169.636 119.669 169.584 119.357 169.584H118.913V172.5ZM118.913 168.168H119.333C119.661 168.168 119.909 168.12 120.077 168.024C120.245 167.92 120.357 167.772 120.413 167.58C120.477 167.388 120.509 167.156 120.509 166.884C120.509 166.628 120.461 166.416 120.365 166.248C120.277 166.072 120.141 165.94 119.957 165.852C119.781 165.764 119.557 165.72 119.285 165.72H118.913V168.168ZM123.856 174V164.28H126.004V168.384H126.484C127.1 168.384 127.62 168.484 128.044 168.684C128.476 168.884 128.8 169.192 129.016 169.608C129.24 170.016 129.352 170.544 129.352 171.192C129.352 171.784 129.272 172.264 129.112 172.632C128.96 173 128.744 173.284 128.464 173.484C128.184 173.684 127.86 173.82 127.492 173.892C127.124 173.964 126.724 174 126.292 174H123.856ZM126.004 172.596H126.304C126.576 172.596 126.788 172.544 126.94 172.44C127.1 172.336 127.212 172.176 127.276 171.96C127.348 171.744 127.38 171.472 127.372 171.144C127.364 170.784 127.288 170.484 127.144 170.244C127 169.996 126.712 169.872 126.28 169.872H126.004V172.596ZM130.168 174V164.28H132.316V174H130.168ZM136.227 174L138.111 168.768L136.311 164.28H138.339L139.407 166.908L140.271 164.28H142.059L140.355 169.332L142.251 174H140.235L139.047 171.096L138.003 174H136.227ZM145.822 174.144C145.094 174.144 144.518 174.016 144.094 173.76C143.67 173.504 143.366 173.136 143.182 172.656C142.998 172.176 142.906 171.604 142.906 170.94V167.328C142.906 166.656 142.998 166.084 143.182 165.612C143.366 165.14 143.67 164.78 144.094 164.532C144.518 164.276 145.094 164.148 145.822 164.148C146.558 164.148 147.138 164.276 147.562 164.532C147.994 164.78 148.302 165.14 148.486 165.612C148.67 166.084 148.762 166.656 148.762 167.328V170.94C148.762 171.604 148.67 172.176 148.486 172.656C148.302 173.136 147.994 173.504 147.562 173.76C147.138 174.016 146.558 174.144 145.822 174.144ZM145.822 172.62C146.046 172.62 146.21 172.564 146.314 172.452C146.418 172.34 146.486 172.196 146.518 172.02C146.55 171.844 146.566 171.664 146.566 171.48V166.8C146.566 166.608 146.55 166.428 146.518 166.26C146.486 166.084 146.418 165.94 146.314 165.828C146.21 165.716 146.046 165.66 145.822 165.66C145.614 165.66 145.458 165.716 145.354 165.828C145.25 165.94 145.182 166.084 145.15 166.26C145.118 166.428 145.102 166.608 145.102 166.8V171.48C145.102 171.664 145.114 171.844 145.138 172.02C145.17 172.196 145.234 172.34 145.33 172.452C145.434 172.564 145.598 172.62 145.822 172.62ZM150.946 174V165.876H149.482V164.28H154.558V165.876H153.106V174H150.946ZM155.449 174V164.28H157.141V169.848L159.625 164.28H161.017V174H159.289V168.336L156.757 174H155.449ZM163.367 174V165.876H161.903V164.28H166.979V165.876H165.527V174H163.367ZM167.835 174V164.28H172.203V165.744H169.983V168.156H171.675V169.644H169.983V172.548H172.227V174H167.835ZM179.057 174.144C178.321 174.144 177.737 174.012 177.305 173.748C176.881 173.476 176.581 173.1 176.405 172.62C176.229 172.132 176.141 171.56 176.141 170.904V167.4C176.141 166.728 176.229 166.152 176.405 165.672C176.581 165.184 176.881 164.808 177.305 164.544C177.737 164.28 178.321 164.148 179.057 164.148C179.777 164.148 180.337 164.268 180.737 164.508C181.145 164.74 181.433 165.068 181.601 165.492C181.769 165.916 181.853 166.404 181.853 166.956V167.796H179.753V166.824C179.753 166.632 179.741 166.448 179.717 166.272C179.701 166.096 179.645 165.952 179.549 165.84C179.453 165.72 179.289 165.66 179.057 165.66C178.833 165.66 178.665 165.72 178.553 165.84C178.449 165.96 178.381 166.112 178.349 166.296C178.325 166.472 178.313 166.66 178.313 166.86V171.432C178.313 171.648 178.329 171.848 178.361 172.032C178.401 172.208 178.473 172.352 178.577 172.464C178.689 172.568 178.849 172.62 179.057 172.62C179.281 172.62 179.441 172.564 179.537 172.452C179.633 172.332 179.693 172.18 179.717 171.996C179.741 171.812 179.753 171.624 179.753 171.432V170.412H181.853V171.252C181.853 171.804 181.769 172.3 181.601 172.74C181.441 173.172 181.157 173.516 180.749 173.772C180.349 174.02 179.785 174.144 179.057 174.144ZM182.53 176.1V172.464H182.806C182.99 172.408 183.158 172.312 183.31 172.176C183.47 172.032 183.614 171.84 183.742 171.6C183.87 171.36 183.986 171.06 184.09 170.7C184.194 170.34 184.282 169.912 184.354 169.416C184.426 168.912 184.486 168.332 184.534 167.676L184.798 164.28H189.322V172.464H190.414V176.1H188.998L188.89 174H184.126L184.006 176.1H182.53ZM184.834 172.464H187.318V165.804H186.418L186.31 167.892C186.27 168.58 186.21 169.164 186.13 169.644C186.058 170.124 185.97 170.524 185.866 170.844C185.77 171.156 185.666 171.412 185.554 171.612C185.442 171.812 185.322 171.976 185.194 172.104C185.074 172.232 184.954 172.352 184.834 172.464ZM190.887 174L192.723 164.28H195.171L196.983 174H195.003L194.679 171.948H193.251L192.915 174H190.887ZM193.443 170.664H194.475L193.959 166.872L193.443 170.664ZM198.688 174V165.876H197.224V164.28H202.3V165.876H200.848V174H198.688ZM203.192 174V164.28H205.34V168.384H205.82C206.428 168.384 206.944 168.484 207.368 168.684C207.792 168.884 208.116 169.192 208.34 169.608C208.564 170.016 208.676 170.544 208.676 171.192C208.676 171.784 208.596 172.264 208.436 172.632C208.284 173 208.068 173.284 207.788 173.484C207.508 173.684 207.18 173.82 206.804 173.892C206.436 173.964 206.04 174 205.616 174H203.192ZM205.34 172.596H205.628C205.9 172.596 206.112 172.544 206.264 172.44C206.424 172.336 206.536 172.176 206.6 171.96C206.672 171.744 206.704 171.472 206.696 171.144C206.688 170.784 206.612 170.484 206.468 170.244C206.332 169.996 206.044 169.872 205.604 169.872H205.34V172.596ZM212.608 174.144C211.872 174.144 211.288 174.012 210.856 173.748C210.432 173.476 210.132 173.1 209.956 172.62C209.78 172.132 209.692 171.56 209.692 170.904V167.4C209.692 166.728 209.78 166.152 209.956 165.672C210.132 165.184 210.432 164.808 210.856 164.544C211.288 164.28 211.872 164.148 212.608 164.148C213.328 164.148 213.888 164.268 214.288 164.508C214.696 164.74 214.984 165.068 215.152 165.492C215.32 165.916 215.404 166.404 215.404 166.956V167.796H213.304V166.824C213.304 166.632 213.292 166.448 213.268 166.272C213.252 166.096 213.196 165.952 213.1 165.84C213.004 165.72 212.84 165.66 212.608 165.66C212.384 165.66 212.216 165.72 212.104 165.84C212 165.96 211.932 166.112 211.9 166.296C211.876 166.472 211.864 166.66 211.864 166.86V171.432C211.864 171.648 211.88 171.848 211.912 172.032C211.952 172.208 212.024 172.352 212.128 172.464C212.24 172.568 212.4 172.62 212.608 172.62C212.832 172.62 212.992 172.564 213.088 172.452C213.184 172.332 213.244 172.18 213.268 171.996C213.292 171.812 213.304 171.624 213.304 171.432V170.412H215.404V171.252C215.404 171.804 215.32 172.3 215.152 172.74C214.992 173.172 214.708 173.516 214.3 173.772C213.9 174.02 213.336 174.144 212.608 174.144ZM215.985 174L217.833 169.68C217.465 169.456 217.161 169.128 216.921 168.696C216.689 168.264 216.573 167.76 216.573 167.184C216.573 166.432 216.705 165.848 216.969 165.432C217.233 165.008 217.609 164.712 218.097 164.544C218.593 164.368 219.185 164.28 219.873 164.28H222.369V174H220.233V170.16H219.849C219.841 170.16 219.821 170.16 219.789 170.16C219.757 170.16 219.733 170.16 219.717 170.16L218.301 174H215.985ZM219.921 168.648H220.233V165.756H219.897C219.457 165.756 219.125 165.88 218.901 166.128C218.685 166.368 218.577 166.724 218.577 167.196C218.577 167.612 218.673 167.96 218.865 168.24C219.057 168.512 219.409 168.648 219.921 168.648ZM224.691 171.444V169.896C225.051 169.616 225.375 169.304 225.663 168.96C225.951 168.616 226.179 168.252 226.347 167.868C226.515 167.476 226.599 167.072 226.599 166.656C226.599 166.36 226.543 166.148 226.431 166.02C226.327 165.884 226.171 165.816 225.963 165.816C225.771 165.816 225.619 165.872 225.507 165.984C225.403 166.096 225.351 166.252 225.351 166.452C225.351 166.58 225.363 166.696 225.387 166.8C225.419 166.896 225.455 167 225.495 167.112L223.731 167.52C223.667 167.328 223.615 167.144 223.575 166.968C223.543 166.784 223.527 166.592 223.527 166.392C223.527 165.688 223.739 165.14 224.163 164.748C224.595 164.348 225.211 164.148 226.011 164.148C226.819 164.148 227.439 164.36 227.871 164.784C228.311 165.208 228.531 165.812 228.531 166.596C228.531 167.076 228.451 167.532 228.291 167.964C228.131 168.396 227.895 168.804 227.583 169.188C227.279 169.572 226.907 169.932 226.467 170.268V171.444H224.691ZM224.631 174V172.14H226.539V174H224.631Z"></path>
</svg>
