<svg xmlns="http://www.w3.org/2000/svg" fill="none" viewBox="0 0 156 56" height="56" width="156">
<rect stroke="white" fill="#0D0E12" height="55" width="155" y="0.5" x="0.5"></rect>
<path fill="white" d="M43.7834 23V17.22H45.8334C46.4134 17.22 46.8501 17.2833 47.1434 17.41C47.4368 17.53 47.6334 17.6967 47.7334 17.91C47.8334 18.1233 47.8834 18.3733 47.8834 18.66C47.8834 19.04 47.8001 19.32 47.6334 19.5C47.4734 19.6733 47.2601 19.7967 46.9934 19.87C47.2734 19.9367 47.4868 20.0367 47.6334 20.17C47.7801 20.3033 47.8801 20.4667 47.9334 20.66C47.9934 20.8533 48.0234 21.0767 48.0234 21.33C48.0234 21.7033 47.9534 22.0167 47.8134 22.27C47.6734 22.5167 47.4368 22.7 47.1034 22.82C46.7701 22.94 46.3168 23 45.7434 23H43.7834ZM45.4034 22.1H45.6734C45.8201 22.1 45.9501 22.0867 46.0634 22.06C46.1768 22.0333 46.2668 21.9633 46.3334 21.85C46.4068 21.73 46.4434 21.54 46.4434 21.28C46.4434 20.9867 46.4101 20.7767 46.3434 20.65C46.2834 20.5233 46.1968 20.4467 46.0834 20.42C45.9701 20.3933 45.8368 20.38 45.6834 20.38H45.4034V22.1ZM45.4034 19.5H45.8134C46.0068 19.5 46.1401 19.44 46.2134 19.32C46.2868 19.1933 46.3234 19.02 46.3234 18.8C46.3234 18.5867 46.2834 18.41 46.2034 18.27C46.1301 18.13 45.9601 18.06 45.6934 18.06H45.4034V19.5ZM48.8323 24.9V17.22H50.4623V17.64C50.6556 17.4667 50.8623 17.3367 51.0823 17.25C51.3023 17.1633 51.5123 17.12 51.7123 17.12C51.9323 17.12 52.1189 17.1633 52.2723 17.25C52.4323 17.3367 52.5623 17.46 52.6623 17.62C52.7623 17.7733 52.8356 17.9533 52.8823 18.16C52.9289 18.3667 52.9523 18.5867 52.9523 18.82V21.31C52.9523 21.67 52.9023 21.9833 52.8023 22.25C52.7089 22.5167 52.5689 22.7267 52.3823 22.88C52.1956 23.0267 51.9656 23.1 51.6923 23.1C51.4856 23.1 51.2756 23.0533 51.0623 22.96C50.8556 22.86 50.6556 22.7267 50.4623 22.56V24.9H48.8323ZM50.8923 22.05C50.9989 22.05 51.0823 22.02 51.1423 21.96C51.2023 21.9 51.2456 21.8233 51.2723 21.73C51.3056 21.63 51.3223 21.52 51.3223 21.4V18.7C51.3223 18.5867 51.3089 18.4867 51.2823 18.4C51.2556 18.3067 51.2123 18.2333 51.1523 18.18C51.0923 18.1267 51.0156 18.1 50.9223 18.1C50.8356 18.1 50.7523 18.12 50.6723 18.16C50.5989 18.1933 50.5289 18.24 50.4623 18.3V21.9C50.5356 21.9467 50.6056 21.9833 50.6723 22.01C50.7456 22.0367 50.8189 22.05 50.8923 22.05ZM54.0411 24.68V23.55C54.2478 23.55 54.4178 23.5367 54.5511 23.51C54.6911 23.4833 54.7944 23.4333 54.8611 23.36C54.9344 23.2867 54.9711 23.1867 54.9711 23.06C54.9711 22.9467 54.9511 22.81 54.9111 22.65C54.8711 22.4833 54.8211 22.2967 54.7611 22.09L53.4011 17.22H54.9311L55.6611 20.56L56.2111 17.22H57.7511L56.4211 23.14C56.3344 23.54 56.1978 23.85 56.0111 24.07C55.8244 24.2967 55.5944 24.4533 55.3211 24.54C55.0544 24.6333 54.7511 24.68 54.4111 24.68H54.0411ZM60.6735 23V20.67C60.5868 20.6767 60.4968 20.6833 60.4035 20.69C60.3168 20.6967 60.2302 20.7 60.1435 20.7C59.6502 20.7 59.2635 20.6433 58.9835 20.53C58.7102 20.41 58.5168 20.2433 58.4035 20.03C58.2968 19.81 58.2435 19.55 58.2435 19.25V17.22H59.8635V19.15C59.8635 19.3567 59.9035 19.51 59.9835 19.61C60.0635 19.71 60.2268 19.7667 60.4735 19.78C60.5068 19.78 60.5368 19.78 60.5635 19.78C60.5968 19.7733 60.6335 19.77 60.6735 19.77V17.22H62.3035V23H60.6735ZM64.5145 23.1C64.2211 23.1 63.9745 23.03 63.7745 22.89C63.5745 22.75 63.4245 22.5733 63.3245 22.36C63.2245 22.14 63.1745 21.9167 63.1745 21.69C63.1745 21.33 63.2445 21.0267 63.3845 20.78C63.5311 20.5333 63.7211 20.3267 63.9545 20.16C64.1878 19.9933 64.4445 19.8533 64.7245 19.74C65.0045 19.62 65.2811 19.5133 65.5545 19.42V18.84C65.5545 18.74 65.5445 18.6533 65.5245 18.58C65.5045 18.5 65.4711 18.44 65.4245 18.4C65.3778 18.3533 65.3078 18.33 65.2145 18.33C65.1211 18.33 65.0478 18.35 64.9945 18.39C64.9478 18.43 64.9145 18.4867 64.8945 18.56C64.8745 18.6267 64.8611 18.7033 64.8545 18.79L64.8145 19.21L63.2945 19.15C63.3278 18.4567 63.5111 17.9467 63.8445 17.62C64.1845 17.2867 64.6911 17.12 65.3645 17.12C65.9511 17.12 66.3878 17.2833 66.6745 17.61C66.9678 17.93 67.1145 18.3467 67.1145 18.86V21.56C67.1145 21.8 67.1178 22.01 67.1245 22.19C67.1378 22.37 67.1511 22.5267 67.1645 22.66C67.1845 22.7933 67.2011 22.9067 67.2145 23H65.7545C65.7345 22.8467 65.7111 22.68 65.6845 22.5C65.6578 22.32 65.6378 22.2133 65.6245 22.18C65.5578 22.42 65.4311 22.6333 65.2445 22.82C65.0645 23.0067 64.8211 23.1 64.5145 23.1ZM65.0945 22C65.1611 22 65.2211 21.9867 65.2745 21.96C65.3345 21.9333 65.3878 21.8967 65.4345 21.85C65.4811 21.8033 65.5211 21.7567 65.5545 21.71V20.13C65.4211 20.21 65.2978 20.2933 65.1845 20.38C65.0711 20.46 64.9745 20.55 64.8945 20.65C64.8145 20.75 64.7511 20.86 64.7045 20.98C64.6645 21.0933 64.6445 21.2233 64.6445 21.37C64.6445 21.5633 64.6845 21.7167 64.7645 21.83C64.8445 21.9433 64.9545 22 65.0945 22ZM69.9703 23.1C69.5503 23.1 69.1903 23.0267 68.8903 22.88C68.5903 22.7267 68.3603 22.5067 68.2003 22.22C68.0403 21.9267 67.9603 21.5767 67.9603 21.17V19.05C67.9603 18.6367 68.0403 18.2867 68.2003 18C68.3603 17.7133 68.5903 17.4967 68.8903 17.35C69.197 17.1967 69.557 17.12 69.9703 17.12C70.397 17.12 70.7503 17.1933 71.0303 17.34C71.317 17.4867 71.5303 17.7033 71.6703 17.99C71.817 18.2767 71.8903 18.63 71.8903 19.05V20.21H69.5703V21.32C69.5703 21.4667 69.587 21.5867 69.6203 21.68C69.6536 21.7733 69.7003 21.84 69.7603 21.88C69.8203 21.92 69.8903 21.94 69.9703 21.94C70.0503 21.94 70.1203 21.9233 70.1803 21.89C70.247 21.85 70.297 21.79 70.3303 21.71C70.3703 21.63 70.3903 21.52 70.3903 21.38V20.77H71.8903V21.33C71.8903 21.9167 71.7203 22.36 71.3803 22.66C71.0403 22.9533 70.5703 23.1 69.9703 23.1ZM69.5703 19.45H70.3903V18.87C70.3903 18.7167 70.3703 18.5967 70.3303 18.51C70.297 18.4233 70.247 18.3633 70.1803 18.33C70.1203 18.2967 70.047 18.28 69.9603 18.28C69.8803 18.28 69.8103 18.3 69.7503 18.34C69.697 18.38 69.6536 18.45 69.6203 18.55C69.587 18.6433 69.5703 18.78 69.5703 18.96V19.45ZM73.4385 23V18.32H72.3885V17.22H76.1085V18.32H75.0585V23H73.4385ZM78.6713 23.1C78.2513 23.1 77.8913 23.0233 77.5913 22.87C77.2979 22.7167 77.0713 22.4967 76.9113 22.21C76.7513 21.9233 76.6713 21.5767 76.6713 21.17V19.05C76.6713 18.6367 76.7513 18.2867 76.9113 18C77.0713 17.7133 77.2979 17.4967 77.5913 17.35C77.8913 17.1967 78.2513 17.12 78.6713 17.12C79.0846 17.12 79.4346 17.1833 79.7213 17.31C80.0146 17.4367 80.2379 17.63 80.3913 17.89C80.5446 18.1433 80.6213 18.4667 80.6213 18.86V19.47H79.0513V18.81C79.0513 18.6567 79.0346 18.54 79.0013 18.46C78.9746 18.3733 78.9313 18.3133 78.8713 18.28C78.8179 18.2467 78.7513 18.23 78.6713 18.23C78.5913 18.23 78.5246 18.2533 78.4713 18.3C78.4179 18.34 78.3779 18.41 78.3513 18.51C78.3246 18.6033 78.3113 18.7367 78.3113 18.91V21.31C78.3113 21.57 78.3413 21.7467 78.4013 21.84C78.4679 21.9333 78.5613 21.98 78.6813 21.98C78.7679 21.98 78.8379 21.9633 78.8913 21.93C78.9446 21.89 78.9846 21.83 79.0113 21.75C79.0379 21.6633 79.0513 21.55 79.0513 21.41V20.64H80.6213V21.34C80.6213 21.7267 80.5413 22.0533 80.3813 22.32C80.2279 22.58 80.0046 22.7767 79.7113 22.91C79.4246 23.0367 79.0779 23.1 78.6713 23.1ZM81.129 23L82.029 20.6C81.8757 20.5133 81.7457 20.3933 81.639 20.24C81.5323 20.0867 81.4523 19.9067 81.399 19.7C81.3457 19.4933 81.319 19.27 81.319 19.03C81.319 18.7633 81.3557 18.52 81.429 18.3C81.509 18.08 81.6323 17.89 81.799 17.73C81.9723 17.57 82.1957 17.4467 82.469 17.36C82.7423 17.2667 83.0723 17.22 83.459 17.22H85.609V23H83.989V20.94C83.9623 20.94 83.889 20.94 83.769 20.94C83.649 20.9333 83.559 20.9267 83.499 20.92L82.849 23H81.129ZM83.919 19.98C83.9323 19.98 83.9457 19.98 83.959 19.98C83.9723 19.98 83.9823 19.98 83.989 19.98V18.14C83.9823 18.14 83.9723 18.14 83.959 18.14C83.9457 18.14 83.9323 18.14 83.919 18.14C83.6723 18.14 83.4657 18.1733 83.299 18.24C83.1323 18.3067 83.0057 18.4067 82.919 18.54C82.839 18.6667 82.799 18.8267 82.799 19.02C82.799 19.3467 82.8957 19.5867 83.089 19.74C83.289 19.8933 83.5657 19.9733 83.919 19.98ZM89.8838 23V18.32H88.8338V17.22H92.5538V18.32H91.5038V23H89.8838ZM95.0584 23.1C94.6451 23.1 94.2851 23.03 93.9784 22.89C93.6784 22.75 93.4451 22.54 93.2784 22.26C93.1184 21.98 93.0384 21.63 93.0384 21.21V19.01C93.0384 18.59 93.1184 18.24 93.2784 17.96C93.4451 17.68 93.6784 17.47 93.9784 17.33C94.2851 17.19 94.6451 17.12 95.0584 17.12C95.4718 17.12 95.8284 17.19 96.1284 17.33C96.4351 17.47 96.6718 17.68 96.8384 17.96C97.0051 18.24 97.0884 18.59 97.0884 19.01V21.21C97.0884 21.63 97.0051 21.98 96.8384 22.26C96.6718 22.54 96.4351 22.75 96.1284 22.89C95.8284 23.03 95.4718 23.1 95.0584 23.1ZM95.0684 22.02C95.1751 22.02 95.2584 21.9933 95.3184 21.94C95.3784 21.88 95.4184 21.8 95.4384 21.7C95.4651 21.5933 95.4784 21.4667 95.4784 21.32V18.9C95.4784 18.7533 95.4651 18.63 95.4384 18.53C95.4184 18.4233 95.3784 18.3433 95.3184 18.29C95.2584 18.23 95.1751 18.2 95.0684 18.2C94.9618 18.2 94.8784 18.23 94.8184 18.29C94.7584 18.3433 94.7151 18.4233 94.6884 18.53C94.6618 18.63 94.6484 18.7533 94.6484 18.9V21.32C94.6484 21.4667 94.6618 21.5933 94.6884 21.7C94.7151 21.8 94.7584 21.88 94.8184 21.94C94.8784 21.9933 94.9618 22.02 95.0684 22.02ZM97.9824 23L98.0024 17.22H99.2024L100.382 19.99L101.572 17.22H102.772L102.792 23H101.522V19.96L100.632 22.1H100.152L99.2524 19.95V23H97.9824ZM103.973 24.68V23.55C104.179 23.55 104.349 23.5367 104.483 23.51C104.623 23.4833 104.726 23.4333 104.793 23.36C104.866 23.2867 104.903 23.1867 104.903 23.06C104.903 22.9467 104.883 22.81 104.843 22.65C104.803 22.4833 104.753 22.2967 104.693 22.09L103.333 17.22H104.863L105.593 20.56L106.143 17.22H107.683L106.353 23.14C106.266 23.54 106.129 23.85 105.943 24.07C105.756 24.2967 105.526 24.4533 105.253 24.54C104.986 24.6333 104.683 24.68 104.343 24.68H103.973ZM108.465 24.4L108.365 23.87C108.538 23.8233 108.698 23.7367 108.845 23.61C108.998 23.49 109.075 23.2867 109.075 23H108.215V21.46H109.765V22.79C109.758 23.2833 109.648 23.6667 109.435 23.94C109.222 24.2133 108.898 24.3667 108.465 24.4ZM24.6184 38V32.22H26.2484V34.5H26.4884L27.3684 32.22H29.1184L27.9784 34.95L29.1484 38H27.4284L26.4884 35.44H26.2484V38H24.6184ZM30.4454 38V33.32H29.3954V32.22H33.1154V33.32H32.0654V38H30.4454ZM35.62 38.1C35.2066 38.1 34.8466 38.03 34.54 37.89C34.24 37.75 34.0066 37.54 33.84 37.26C33.68 36.98 33.6 36.63 33.6 36.21V34.01C33.6 33.59 33.68 33.24 33.84 32.96C34.0066 32.68 34.24 32.47 34.54 32.33C34.8466 32.19 35.2066 32.12 35.62 32.12C36.0333 32.12 36.39 32.19 36.69 32.33C36.9966 32.47 37.2333 32.68 37.4 32.96C37.5666 33.24 37.65 33.59 37.65 34.01V36.21C37.65 36.63 37.5666 36.98 37.4 37.26C37.2333 37.54 36.9966 37.75 36.69 37.89C36.39 38.03 36.0333 38.1 35.62 38.1ZM35.63 37.02C35.7366 37.02 35.82 36.9933 35.88 36.94C35.94 36.88 35.98 36.8 36 36.7C36.0266 36.5933 36.04 36.4667 36.04 36.32V33.9C36.04 33.7533 36.0266 33.63 36 33.53C35.98 33.4233 35.94 33.3433 35.88 33.29C35.82 33.23 35.7366 33.2 35.63 33.2C35.5233 33.2 35.44 33.23 35.38 33.29C35.32 33.3433 35.2766 33.4233 35.25 33.53C35.2233 33.63 35.21 33.7533 35.21 33.9V36.32C35.21 36.4667 35.2233 36.5933 35.25 36.7C35.2766 36.8 35.32 36.88 35.38 36.94C35.44 36.9933 35.5233 37.02 35.63 37.02ZM42.9925 38.1C42.5725 38.1 42.2125 38.0233 41.9125 37.87C41.6192 37.7167 41.3925 37.4967 41.2325 37.21C41.0725 36.9233 40.9925 36.5767 40.9925 36.17V34.05C40.9925 33.6367 41.0725 33.2867 41.2325 33C41.3925 32.7133 41.6192 32.4967 41.9125 32.35C42.2125 32.1967 42.5725 32.12 42.9925 32.12C43.4059 32.12 43.7559 32.1833 44.0425 32.31C44.3359 32.4367 44.5592 32.63 44.7125 32.89C44.8659 33.1433 44.9425 33.4667 44.9425 33.86V34.47H43.3725V33.81C43.3725 33.6567 43.3559 33.54 43.3225 33.46C43.2959 33.3733 43.2525 33.3133 43.1925 33.28C43.1392 33.2467 43.0725 33.23 42.9925 33.23C42.9125 33.23 42.8459 33.2533 42.7925 33.3C42.7392 33.34 42.6992 33.41 42.6725 33.51C42.6459 33.6033 42.6325 33.7367 42.6325 33.91V36.31C42.6325 36.57 42.6625 36.7467 42.7225 36.84C42.7892 36.9333 42.8825 36.98 43.0025 36.98C43.0892 36.98 43.1592 36.9633 43.2125 36.93C43.2659 36.89 43.3059 36.83 43.3325 36.75C43.3592 36.6633 43.3725 36.55 43.3725 36.41V35.64H44.9425V36.34C44.9425 36.7267 44.8625 37.0533 44.7025 37.32C44.5492 37.58 44.3259 37.7767 44.0325 37.91C43.7459 38.0367 43.3992 38.1 42.9925 38.1ZM45.7903 38V32.22H47.4203V34.54C47.4269 34.54 47.4303 34.54 47.4303 34.54C47.4369 34.54 47.4436 34.54 47.4503 34.54C47.4569 34.54 47.4636 34.54 47.4703 34.54C47.8703 34.54 48.2236 34.57 48.5303 34.63C48.8369 34.6833 49.0903 34.7767 49.2903 34.91C49.4969 35.0367 49.6536 35.21 49.7603 35.43C49.8669 35.65 49.9203 35.9267 49.9203 36.26C49.9203 36.5733 49.8736 36.84 49.7803 37.06C49.6936 37.28 49.5503 37.46 49.3503 37.6C49.1569 37.74 48.9036 37.8433 48.5903 37.91C48.2836 37.97 47.9136 38 47.4803 38H45.7903ZM47.4203 37.07H47.4503C47.6969 37.07 47.8903 37.0467 48.0303 37C48.1769 36.9467 48.2803 36.8633 48.3403 36.75C48.4069 36.63 48.4403 36.4733 48.4403 36.28C48.4403 36.0733 48.4069 35.9167 48.3403 35.81C48.2803 35.6967 48.1769 35.6167 48.0303 35.57C47.8903 35.5233 47.7036 35.5 47.4703 35.5C47.4636 35.5 47.4536 35.5 47.4403 35.5C47.4336 35.5 47.4269 35.5 47.4203 35.5V37.07ZM50.5403 38V32.22H52.1703V38H50.5403ZM53.1926 38V32.22H56.0726V33.32H54.8226V38H53.1926ZM56.7082 39.9V32.22H58.3382V32.64C58.5316 32.4667 58.7382 32.3367 58.9582 32.25C59.1782 32.1633 59.3882 32.12 59.5882 32.12C59.8082 32.12 59.9949 32.1633 60.1482 32.25C60.3082 32.3367 60.4382 32.46 60.5382 32.62C60.6382 32.7733 60.7116 32.9533 60.7582 33.16C60.8049 33.3667 60.8282 33.5867 60.8282 33.82V36.31C60.8282 36.67 60.7782 36.9833 60.6782 37.25C60.5849 37.5167 60.4449 37.7267 60.2582 37.88C60.0716 38.0267 59.8416 38.1 59.5682 38.1C59.3616 38.1 59.1516 38.0533 58.9382 37.96C58.7316 37.86 58.5316 37.7267 58.3382 37.56V39.9H56.7082ZM58.7682 37.05C58.8749 37.05 58.9582 37.02 59.0182 36.96C59.0782 36.9 59.1216 36.8233 59.1482 36.73C59.1816 36.63 59.1982 36.52 59.1982 36.4V33.7C59.1982 33.5867 59.1849 33.4867 59.1582 33.4C59.1316 33.3067 59.0882 33.2333 59.0282 33.18C58.9682 33.1267 58.8916 33.1 58.7982 33.1C58.7116 33.1 58.6282 33.12 58.5482 33.16C58.4749 33.1933 58.4049 33.24 58.3382 33.3V36.9C58.4116 36.9467 58.4816 36.9833 58.5482 37.01C58.6216 37.0367 58.6949 37.05 58.7682 37.05ZM62.9471 38.1C62.6537 38.1 62.4071 38.03 62.2071 37.89C62.0071 37.75 61.8571 37.5733 61.7571 37.36C61.6571 37.14 61.6071 36.9167 61.6071 36.69C61.6071 36.33 61.6771 36.0267 61.8171 35.78C61.9637 35.5333 62.1537 35.3267 62.3871 35.16C62.6204 34.9933 62.8771 34.8533 63.1571 34.74C63.4371 34.62 63.7137 34.5133 63.9871 34.42V33.84C63.9871 33.74 63.9771 33.6533 63.9571 33.58C63.9371 33.5 63.9037 33.44 63.8571 33.4C63.8104 33.3533 63.7404 33.33 63.6471 33.33C63.5537 33.33 63.4804 33.35 63.4271 33.39C63.3804 33.43 63.3471 33.4867 63.3271 33.56C63.3071 33.6267 63.2937 33.7033 63.2871 33.79L63.2471 34.21L61.7271 34.15C61.7604 33.4567 61.9437 32.9467 62.2771 32.62C62.6171 32.2867 63.1237 32.12 63.7971 32.12C64.3837 32.12 64.8204 32.2833 65.1071 32.61C65.4004 32.93 65.5471 33.3467 65.5471 33.86V36.56C65.5471 36.8 65.5504 37.01 65.5571 37.19C65.5704 37.37 65.5837 37.5267 65.5971 37.66C65.6171 37.7933 65.6337 37.9067 65.6471 38H64.1871C64.1671 37.8467 64.1437 37.68 64.1171 37.5C64.0904 37.32 64.0704 37.2133 64.0571 37.18C63.9904 37.42 63.8637 37.6333 63.6771 37.82C63.4971 38.0067 63.2537 38.1 62.9471 38.1ZM63.5271 37C63.5937 37 63.6537 36.9867 63.7071 36.96C63.7671 36.9333 63.8204 36.8967 63.8671 36.85C63.9137 36.8033 63.9537 36.7567 63.9871 36.71V35.13C63.8537 35.21 63.7304 35.2933 63.6171 35.38C63.5037 35.46 63.4071 35.55 63.3271 35.65C63.2471 35.75 63.1837 35.86 63.1371 35.98C63.0971 36.0933 63.0771 36.2233 63.0771 36.37C63.0771 36.5633 63.1171 36.7167 63.1971 36.83C63.2771 36.9433 63.3871 37 63.5271 37ZM68.4029 38.1C67.9829 38.1 67.6229 38.0267 67.3229 37.88C67.0229 37.7267 66.7929 37.5067 66.6329 37.22C66.4729 36.9267 66.3929 36.5767 66.3929 36.17V34.05C66.3929 33.6367 66.4729 33.2867 66.6329 33C66.7929 32.7133 67.0229 32.4967 67.3229 32.35C67.6296 32.1967 67.9896 32.12 68.4029 32.12C68.8296 32.12 69.1829 32.1933 69.4629 32.34C69.7496 32.4867 69.9629 32.7033 70.1029 32.99C70.2496 33.2767 70.3229 33.63 70.3229 34.05V35.21H68.0029V36.32C68.0029 36.4667 68.0196 36.5867 68.0529 36.68C68.0863 36.7733 68.1329 36.84 68.1929 36.88C68.2529 36.92 68.3229 36.94 68.4029 36.94C68.4829 36.94 68.5529 36.9233 68.6129 36.89C68.6796 36.85 68.7296 36.79 68.7629 36.71C68.8029 36.63 68.8229 36.52 68.8229 36.38V35.77H70.3229V36.33C70.3229 36.9167 70.1529 37.36 69.8129 37.66C69.4729 37.9533 69.0029 38.1 68.4029 38.1ZM68.0029 34.45H68.8229V33.87C68.8229 33.7167 68.8029 33.5967 68.7629 33.51C68.7296 33.4233 68.6796 33.3633 68.6129 33.33C68.5529 33.2967 68.4796 33.28 68.3929 33.28C68.3129 33.28 68.2429 33.3 68.1829 33.34C68.1296 33.38 68.0863 33.45 68.0529 33.55C68.0196 33.6433 68.0029 33.78 68.0029 33.96V34.45ZM71.8711 38V33.32H70.8211V32.22H74.5411V33.32H73.4911V38H71.8711ZM78.6025 38V31.55C78.5291 31.59 78.4458 31.63 78.3525 31.67C78.2591 31.71 78.1591 31.7533 78.0525 31.8C77.9525 31.84 77.8525 31.88 77.7525 31.92C77.6591 31.96 77.5725 32 77.4925 32.04V30.8C77.5658 30.76 77.6691 30.7067 77.8025 30.64C77.9358 30.5667 78.0791 30.4867 78.2325 30.4C78.3858 30.3133 78.5291 30.2267 78.6625 30.14C78.7958 30.0467 78.8958 29.9667 78.9625 29.9H80.2725V38H78.6025ZM86.4678 38.15C85.9811 38.15 85.5744 38.0533 85.2478 37.86C84.9211 37.66 84.6744 37.3867 84.5078 37.04C84.3411 36.6933 84.2578 36.29 84.2578 35.83V32.16C84.2578 31.6867 84.3344 31.2733 84.4878 30.92C84.6478 30.56 84.8911 30.28 85.2178 30.08C85.5444 29.88 85.9611 29.78 86.4678 29.78C86.9744 29.78 87.3878 29.88 87.7078 30.08C88.0344 30.28 88.2744 30.56 88.4278 30.92C88.5878 31.2733 88.6678 31.6867 88.6678 32.16V35.83C88.6678 36.2833 88.5844 36.6867 88.4178 37.04C88.2511 37.3867 88.0044 37.66 87.6778 37.86C87.3511 38.0533 86.9478 38.15 86.4678 38.15ZM86.4678 36.66C86.6278 36.66 86.7411 36.61 86.8078 36.51C86.8811 36.4033 86.9244 36.2833 86.9378 36.15C86.9578 36.01 86.9678 35.89 86.9678 35.79V32.2C86.9678 32.0867 86.9611 31.96 86.9478 31.82C86.9344 31.6733 86.8911 31.5467 86.8178 31.44C86.7511 31.3267 86.6344 31.27 86.4678 31.27C86.3011 31.27 86.1811 31.3267 86.1078 31.44C86.0411 31.5467 86.0011 31.6733 85.9878 31.82C85.9744 31.96 85.9678 32.0867 85.9678 32.2V35.79C85.9678 35.89 85.9778 36.01 85.9978 36.15C86.0178 36.2833 86.0611 36.4033 86.1278 36.51C86.2011 36.61 86.3144 36.66 86.4678 36.66ZM91.9658 38.15C91.4792 38.15 91.0725 38.0533 90.7458 37.86C90.4192 37.66 90.1725 37.3867 90.0058 37.04C89.8392 36.6933 89.7558 36.29 89.7558 35.83V32.16C89.7558 31.6867 89.8325 31.2733 89.9858 30.92C90.1458 30.56 90.3892 30.28 90.7158 30.08C91.0425 29.88 91.4592 29.78 91.9658 29.78C92.4725 29.78 92.8858 29.88 93.2058 30.08C93.5325 30.28 93.7725 30.56 93.9258 30.92C94.0858 31.2733 94.1658 31.6867 94.1658 32.16V35.83C94.1658 36.2833 94.0825 36.6867 93.9158 37.04C93.7492 37.3867 93.5025 37.66 93.1758 37.86C92.8492 38.0533 92.4458 38.15 91.9658 38.15ZM91.9658 36.66C92.1258 36.66 92.2392 36.61 92.3058 36.51C92.3792 36.4033 92.4225 36.2833 92.4358 36.15C92.4558 36.01 92.4658 35.89 92.4658 35.79V32.2C92.4658 32.0867 92.4592 31.96 92.4458 31.82C92.4325 31.6733 92.3892 31.5467 92.3158 31.44C92.2492 31.3267 92.1325 31.27 91.9658 31.27C91.7992 31.27 91.6792 31.3267 91.6058 31.44C91.5392 31.5467 91.4992 31.6733 91.4858 31.82C91.4725 31.96 91.4658 32.0867 91.4658 32.2V35.79C91.4658 35.89 91.4758 36.01 91.4958 36.15C91.5158 36.2833 91.5592 36.4033 91.6258 36.51C91.6992 36.61 91.8125 36.66 91.9658 36.66ZM97.4639 38.15C96.9772 38.15 96.5705 38.0533 96.2439 37.86C95.9172 37.66 95.6705 37.3867 95.5039 37.04C95.3372 36.6933 95.2539 36.29 95.2539 35.83V32.16C95.2539 31.6867 95.3305 31.2733 95.4839 30.92C95.6439 30.56 95.8872 30.28 96.2139 30.08C96.5405 29.88 96.9572 29.78 97.4639 29.78C97.9705 29.78 98.3839 29.88 98.7039 30.08C99.0305 30.28 99.2705 30.56 99.4239 30.92C99.5839 31.2733 99.6639 31.6867 99.6639 32.16V35.83C99.6639 36.2833 99.5805 36.6867 99.4139 37.04C99.2472 37.3867 99.0005 37.66 98.6739 37.86C98.3472 38.0533 97.9439 38.15 97.4639 38.15ZM97.4639 36.66C97.6239 36.66 97.7372 36.61 97.8039 36.51C97.8772 36.4033 97.9205 36.2833 97.9339 36.15C97.9539 36.01 97.9639 35.89 97.9639 35.79V32.2C97.9639 32.0867 97.9572 31.96 97.9439 31.82C97.9305 31.6733 97.8872 31.5467 97.8139 31.44C97.7472 31.3267 97.6305 31.27 97.4639 31.27C97.2972 31.27 97.1772 31.3267 97.1039 31.44C97.0372 31.5467 96.9972 31.6733 96.9839 31.82C96.9705 31.96 96.9639 32.0867 96.9639 32.2V35.79C96.9639 35.89 96.9739 36.01 96.9939 36.15C97.0139 36.2833 97.0572 36.4033 97.1239 36.51C97.1972 36.61 97.3105 36.66 97.4639 36.66ZM103.281 38V32.22H107.381V38H105.751V33.33H104.911V38H103.281ZM109.578 38.1C109.285 38.1 109.038 38.03 108.838 37.89C108.638 37.75 108.488 37.5733 108.388 37.36C108.288 37.14 108.238 36.9167 108.238 36.69C108.238 36.33 108.308 36.0267 108.448 35.78C108.595 35.5333 108.785 35.3267 109.018 35.16C109.251 34.9933 109.508 34.8533 109.788 34.74C110.068 34.62 110.345 34.5133 110.618 34.42V33.84C110.618 33.74 110.608 33.6533 110.588 33.58C110.568 33.5 110.535 33.44 110.488 33.4C110.441 33.3533 110.371 33.33 110.278 33.33C110.185 33.33 110.111 33.35 110.058 33.39C110.011 33.43 109.978 33.4867 109.958 33.56C109.938 33.6267 109.925 33.7033 109.918 33.79L109.878 34.21L108.358 34.15C108.391 33.4567 108.575 32.9467 108.908 32.62C109.248 32.2867 109.755 32.12 110.428 32.12C111.015 32.12 111.451 32.2833 111.738 32.61C112.031 32.93 112.178 33.3467 112.178 33.86V36.56C112.178 36.8 112.181 37.01 112.188 37.19C112.201 37.37 112.215 37.5267 112.228 37.66C112.248 37.7933 112.265 37.9067 112.278 38H110.818C110.798 37.8467 110.775 37.68 110.748 37.5C110.721 37.32 110.701 37.2133 110.688 37.18C110.621 37.42 110.495 37.6333 110.308 37.82C110.128 38.0067 109.885 38.1 109.578 38.1ZM110.158 37C110.225 37 110.285 36.9867 110.338 36.96C110.398 36.9333 110.451 36.8967 110.498 36.85C110.545 36.8033 110.585 36.7567 110.618 36.71V35.13C110.485 35.21 110.361 35.2933 110.248 35.38C110.135 35.46 110.038 35.55 109.958 35.65C109.878 35.75 109.815 35.86 109.768 35.98C109.728 36.0933 109.708 36.2233 109.708 36.37C109.708 36.5633 109.748 36.7167 109.828 36.83C109.908 36.9433 110.018 37 110.158 37ZM113.144 39.9V32.22H114.774V32.64C114.967 32.4667 115.174 32.3367 115.394 32.25C115.614 32.1633 115.824 32.12 116.024 32.12C116.244 32.12 116.43 32.1633 116.584 32.25C116.744 32.3367 116.874 32.46 116.974 32.62C117.074 32.7733 117.147 32.9533 117.194 33.16C117.24 33.3667 117.264 33.5867 117.264 33.82V36.31C117.264 36.67 117.214 36.9833 117.114 37.25C117.02 37.5167 116.88 37.7267 116.694 37.88C116.507 38.0267 116.277 38.1 116.004 38.1C115.797 38.1 115.587 38.0533 115.374 37.96C115.167 37.86 114.967 37.7267 114.774 37.56V39.9H113.144ZM115.204 37.05C115.31 37.05 115.394 37.02 115.454 36.96C115.514 36.9 115.557 36.8233 115.584 36.73C115.617 36.63 115.634 36.52 115.634 36.4V33.7C115.634 33.5867 115.62 33.4867 115.594 33.4C115.567 33.3067 115.524 33.2333 115.464 33.18C115.404 33.1267 115.327 33.1 115.234 33.1C115.147 33.1 115.064 33.12 114.984 33.16C114.91 33.1933 114.84 33.24 114.774 33.3V36.9C114.847 36.9467 114.917 36.9833 114.984 37.01C115.057 37.0367 115.13 37.05 115.204 37.05ZM118.893 38V33.32H117.843V32.22H121.563V33.32H120.513V38H118.893ZM122.245 38V32.22H123.535V35.31L125.045 32.22H126.315V38H124.995V34.94L123.525 38H122.245ZM127.323 38V32.22H128.613V35.31L130.123 32.22H131.393V38H130.073V34.94L128.603 38H127.323ZM129.373 31.57C128.9 31.57 128.52 31.4367 128.233 31.17C127.947 30.9033 127.803 30.5167 127.803 30.01H128.723C128.723 30.2567 128.77 30.44 128.863 30.56C128.963 30.68 129.133 30.74 129.373 30.74C129.607 30.74 129.773 30.68 129.873 30.56C129.973 30.4333 130.023 30.25 130.023 30.01H130.943C130.943 30.5167 130.8 30.9033 130.513 31.17C130.227 31.4367 129.847 31.57 129.373 31.57Z"></path>
</svg>
