<svg xmlns="http://www.w3.org/2000/svg" fill="none" viewBox="0 0 29 39" height="39" width="29">
<rect fill="white" height="39" width="29"></rect>
<path stroke="#0D0E12" fill="#0D0E12" d="M22.3954 34.5L22.5 34.5458V38.5H6.5V34.5458L6.60459 34.5H22.3954Z"></path>
<path stroke="#0D0E12" fill="#0386B0" d="M7.59375 24.125H21.4062L18.2188 31.5625L21.4062 33.6875H7.59375L10.7812 31.5625L7.59375 24.125Z"></path>
<mask height="10" width="15" y="24" x="7" maskUnits="userSpaceOnUse" style="mask-type:alpha" id="mask0_1477_422">
<path fill-opacity="0.6" fill="black" d="M7.59375 24.125H21.4062L18.2188 31.5625L21.4062 33.6875H7.59375L10.7812 31.5625L7.59375 24.125Z"></path>
</mask>
<g mask="url(#mask0_1477_422)">
<path fill-opacity="0.6" fill="black" d="M17.6875 26.25L19.2812 22L30.4375 34.2188L18.2188 42.7188L0.6875 36.875L3.34375 31.5625C4.40625 31.7396 7.4875 31.775 11.3125 30.5C15.1375 29.225 17.1562 27.1354 17.6875 26.25Z"></path>
</g>
<rect fill="white" height="3.1875" width="9.5625" y="34.75" x="9.71875"></rect>
<rect fill="black" height="1" width="2" y="36" x="11"></rect>
<rect fill="black" height="1" width="4" y="36" x="14"></rect>
<rect stroke-width="1.47368" stroke="#0D0E12" fill="#00C2FF" rx="0.736842" height="13.2632" width="4.42105" y="9.89456" x="1.73684"></rect>
<path stroke-width="1.47368" stroke="#0D0E12" fill="#00C2FF" d="M9.10525 9.89456H27.0193C27.5129 9.89456 27.8669 10.3704 27.7251 10.8431L24.1882 22.6326C24.0947 22.9443 23.8079 23.1577 23.4825 23.1577H9.84209C9.43515 23.1577 9.10525 22.8278 9.10525 22.4209V9.89456Z"></path>
<path stroke-width="1.47368" stroke="#0D0E12" fill="#00C2FF" d="M16.6952 1.05252H17.2822C17.7406 1.05252 18.0878 1.46666 18.0077 1.91805L16.5929 9.89462H9.10525V9.43238L16.1381 1.30713C16.278 1.14543 16.4813 1.05252 16.6952 1.05252Z"></path>
<path fill="#00C2FF" d="M9.84204 9.89459C9.84204 9.89459 10.5789 8.42091 12.0526 7.68407C13.5263 6.94723 15.9805 9.15775 15.9805 9.15775V11.5108L9.84204 13.5789V9.89459Z"></path>
<path fill="#0D0E12" d="M11.3749 19V18.056L12.9269 15.672C13.0442 15.496 13.1535 15.3253 13.2549 15.16C13.3615 14.9947 13.4469 14.8267 13.5109 14.656C13.5802 14.4853 13.6149 14.3067 13.6149 14.12C13.6149 13.9333 13.5775 13.7947 13.5029 13.704C13.4282 13.6133 13.3269 13.568 13.1989 13.568C13.0549 13.568 12.9429 13.608 12.8629 13.688C12.7829 13.768 12.7269 13.8747 12.6949 14.008C12.6682 14.1413 12.6549 14.2907 12.6549 14.456V14.776H11.3589L11.3589 14.432C11.3589 14.048 11.4202 13.7067 11.5429 13.408C11.6655 13.104 11.8602 12.8667 12.1269 12.696C12.3935 12.52 12.7429 12.432 13.1749 12.432C13.7562 12.432 14.1935 12.584 14.4869 12.888C14.7855 13.1867 14.9349 13.6053 14.9349 14.144C14.9349 14.4053 14.8922 14.648 14.8069 14.872C14.7269 15.096 14.6175 15.3147 14.4789 15.528C14.3455 15.736 14.2015 15.9547 14.0469 16.184L12.8629 17.952H14.7589V19H11.3749ZM17.3563 19.12C16.9669 19.12 16.6416 19.0427 16.3803 18.888C16.1189 18.728 15.9216 18.5093 15.7883 18.232C15.6549 17.9547 15.5883 17.632 15.5883 17.264V14.328C15.5883 13.9493 15.6496 13.6187 15.7723 13.336C15.9003 13.048 16.0949 12.824 16.3563 12.664C16.6176 12.504 16.9509 12.424 17.3563 12.424C17.7616 12.424 18.0923 12.504 18.3483 12.664C18.6096 12.824 18.8016 13.048 18.9243 13.336C19.0523 13.6187 19.1163 13.9493 19.1163 14.328V17.264C19.1163 17.6267 19.0496 17.9493 18.9163 18.232C18.7829 18.5093 18.5856 18.728 18.3243 18.888C18.0629 19.0427 17.7403 19.12 17.3563 19.12ZM17.3563 17.928C17.4843 17.928 17.5749 17.888 17.6283 17.808C17.6869 17.7227 17.7216 17.6267 17.7323 17.52C17.7483 17.408 17.7563 17.312 17.7563 17.232V14.36C17.7563 14.2693 17.7509 14.168 17.7403 14.056C17.7296 13.9387 17.6949 13.8373 17.6363 13.752C17.5829 13.6613 17.4896 13.616 17.3563 13.616C17.2229 13.616 17.1269 13.6613 17.0683 13.752C17.0149 13.8373 16.9829 13.9387 16.9723 14.056C16.9616 14.168 16.9563 14.2693 16.9563 14.36V17.232C16.9563 17.312 16.9643 17.408 16.9803 17.52C16.9963 17.6267 17.0309 17.7227 17.0843 17.808C17.1429 17.888 17.2336 17.928 17.3563 17.928ZM21.7547 19.12C21.3654 19.12 21.04 19.0427 20.7787 18.888C20.5174 18.728 20.32 18.5093 20.1867 18.232C20.0534 17.9547 19.9867 17.632 19.9867 17.264V14.328C19.9867 13.9493 20.048 13.6187 20.1707 13.336C20.2987 13.048 20.4934 12.824 20.7547 12.664C21.016 12.504 21.3494 12.424 21.7547 12.424C22.16 12.424 22.4907 12.504 22.7467 12.664C23.008 12.824 23.2 13.048 23.3227 13.336C23.4507 13.6187 23.5147 13.9493 23.5147 14.328V17.264C23.5147 17.6267 23.448 17.9493 23.3147 18.232C23.1814 18.5093 22.984 18.728 22.7227 18.888C22.4614 19.0427 22.1387 19.12 21.7547 19.12ZM21.7547 17.928C21.8827 17.928 21.9734 17.888 22.0267 17.808C22.0854 17.7227 22.12 17.6267 22.1307 17.52C22.1467 17.408 22.1547 17.312 22.1547 17.232V14.36C22.1547 14.2693 22.1494 14.168 22.1387 14.056C22.128 13.9387 22.0934 13.8373 22.0347 13.752C21.9814 13.6613 21.888 13.616 21.7547 13.616C21.6214 13.616 21.5254 13.6613 21.4667 13.752C21.4134 13.8373 21.3814 13.9387 21.3707 14.056C21.36 14.168 21.3547 14.2693 21.3547 14.36V17.232C21.3547 17.312 21.3627 17.408 21.3787 17.52C21.3947 17.6267 21.4294 17.7227 21.4827 17.808C21.5414 17.888 21.632 17.928 21.7547 17.928Z"></path>
<rect fill="#0D0E12" height="13" width="3" y="10" x="6"></rect>
<path fill="#0D0E12" d="M7 11H9V24H7V11Z"></path>
</svg>
