<svg xmlns="http://www.w3.org/2000/svg" fill="none" viewBox="0 0 214 84" height="84" width="214">
<mask fill="white" id="path-1-inside-1_1461_26">
<path d="M0 0H214V84H0V0Z"></path>
</mask>
<path fill="#0D0E12" d="M0 0H214V84H0V0Z"></path>
<path mask="url(#path-1-inside-1_1461_26)" fill="white" d="M0 0V-1H-1V0H0ZM0 84H-1V85H0V84ZM0 1H214V-1H0V1ZM214 83H0V85H214V83ZM1 84V0H-1V84H1Z"></path>
<path fill="#05FF00" d="M18.016 38L16.264 28.28H18.1L19.144 34.88L20.116 28.28H22.06L20.284 38H18.016ZM23.0484 38V28.28H25.1964V38H23.0484ZM29.4298 38.144C28.6938 38.144 28.1098 38.012 27.6778 37.748C27.2538 37.476 26.9538 37.1 26.7778 36.62C26.6018 36.132 26.5138 35.56 26.5138 34.904V31.4C26.5138 30.728 26.6018 30.152 26.7778 29.672C26.9538 29.184 27.2538 28.808 27.6778 28.544C28.1098 28.28 28.6938 28.148 29.4298 28.148C30.1498 28.148 30.7098 28.268 31.1098 28.508C31.5178 28.74 31.8058 29.068 31.9738 29.492C32.1418 29.916 32.2258 30.404 32.2258 30.956V31.796H30.1258V30.824C30.1258 30.632 30.1138 30.448 30.0898 30.272C30.0738 30.096 30.0178 29.952 29.9218 29.84C29.8258 29.72 29.6618 29.66 29.4298 29.66C29.2058 29.66 29.0378 29.72 28.9258 29.84C28.8218 29.96 28.7538 30.112 28.7218 30.296C28.6978 30.472 28.6858 30.66 28.6858 30.86V35.432C28.6858 35.648 28.7018 35.848 28.7338 36.032C28.7738 36.208 28.8458 36.352 28.9498 36.464C29.0618 36.568 29.2218 36.62 29.4298 36.62C29.6538 36.62 29.8138 36.564 29.9098 36.452C30.0058 36.332 30.0658 36.18 30.0898 35.996C30.1138 35.812 30.1258 35.624 30.1258 35.432V34.412H32.2258V35.252C32.2258 35.804 32.1418 36.3 31.9738 36.74C31.8138 37.172 31.5298 37.516 31.1218 37.772C30.7218 38.02 30.1578 38.144 29.4298 38.144ZM34.2835 38V29.876H32.8195V28.28H37.8955V29.876H36.4435V38H34.2835ZM41.4415 38.144C40.7135 38.144 40.1375 38.016 39.7135 37.76C39.2895 37.504 38.9855 37.136 38.8015 36.656C38.6175 36.176 38.5255 35.604 38.5255 34.94V31.328C38.5255 30.656 38.6175 30.084 38.8015 29.612C38.9855 29.14 39.2895 28.78 39.7135 28.532C40.1375 28.276 40.7135 28.148 41.4415 28.148C42.1775 28.148 42.7575 28.276 43.1815 28.532C43.6135 28.78 43.9215 29.14 44.1055 29.612C44.2895 30.084 44.3815 30.656 44.3815 31.328V34.94C44.3815 35.604 44.2895 36.176 44.1055 36.656C43.9215 37.136 43.6135 37.504 43.1815 37.76C42.7575 38.016 42.1775 38.144 41.4415 38.144ZM41.4415 36.62C41.6655 36.62 41.8295 36.564 41.9335 36.452C42.0375 36.34 42.1055 36.196 42.1375 36.02C42.1695 35.844 42.1855 35.664 42.1855 35.48V30.8C42.1855 30.608 42.1695 30.428 42.1375 30.26C42.1055 30.084 42.0375 29.94 41.9335 29.828C41.8295 29.716 41.6655 29.66 41.4415 29.66C41.2335 29.66 41.0775 29.716 40.9735 29.828C40.8695 29.94 40.8015 30.084 40.7695 30.26C40.7375 30.428 40.7215 30.608 40.7215 30.8V35.48C40.7215 35.664 40.7335 35.844 40.7575 36.02C40.7895 36.196 40.8535 36.34 40.9495 36.452C41.0535 36.564 41.2175 36.62 41.4415 36.62ZM45.6888 38V28.28H48.3648C49.0208 28.28 49.5888 28.352 50.0688 28.496C50.5488 28.64 50.9208 28.9 51.1848 29.276C51.4568 29.644 51.5928 30.168 51.5928 30.848C51.5928 31.248 51.5608 31.604 51.4968 31.916C51.4328 32.228 51.3128 32.5 51.1367 32.732C50.9688 32.956 50.7248 33.144 50.4048 33.296L51.7368 38H49.5168L48.4488 33.644H47.8368V38H45.6888ZM47.8368 32.408H48.4368C48.7408 32.408 48.9768 32.356 49.1448 32.252C49.3128 32.14 49.4288 31.984 49.4928 31.784C49.5648 31.576 49.6008 31.328 49.6008 31.04C49.6008 30.624 49.5248 30.3 49.3728 30.068C49.2208 29.836 48.9408 29.72 48.5328 29.72H47.8368V32.408ZM53.8854 38V34.028L52.0374 28.28H54.0654L54.9894 31.352L55.8174 28.28H57.7614L55.9494 34.028V38H53.8854Z"></path>
<path fill="white" d="M17.52 56V48.74H16.15V47.9H19.98V48.74H18.65V56H17.52ZM20.7009 56V47.9H21.7709V50.82C21.9642 50.6333 22.1809 50.4733 22.4209 50.34C22.6609 50.2067 22.9275 50.14 23.2209 50.14C23.4475 50.14 23.6209 50.2 23.7409 50.32C23.8675 50.44 23.9542 50.59 24.0009 50.77C24.0542 50.95 24.0809 51.1333 24.0809 51.32V56H23.0109V51.63C23.0109 51.4233 22.9809 51.2633 22.9209 51.15C22.8609 51.0367 22.7375 50.98 22.5509 50.98C22.4242 50.98 22.2909 51.0167 22.1509 51.09C22.0175 51.1633 21.8909 51.2533 21.7709 51.36V56H20.7009ZM26.724 56.08C26.2707 56.08 25.9207 55.9933 25.674 55.82C25.4273 55.64 25.254 55.38 25.154 55.04C25.0607 54.6933 25.014 54.27 25.014 53.77V52.45C25.014 51.9367 25.064 51.51 25.164 51.17C25.264 50.83 25.4373 50.5733 25.684 50.4C25.9373 50.2267 26.284 50.14 26.724 50.14C27.2107 50.14 27.5673 50.24 27.794 50.44C28.0273 50.64 28.1807 50.93 28.254 51.31C28.3273 51.6833 28.364 52.1333 28.364 52.66V53.13H26.084V54.29C26.084 54.5233 26.104 54.7133 26.144 54.86C26.1907 55.0067 26.2607 55.1167 26.354 55.19C26.454 55.2567 26.5807 55.29 26.734 55.29C26.894 55.29 27.014 55.2533 27.094 55.18C27.1807 55.1 27.2373 54.99 27.264 54.85C27.2973 54.7033 27.314 54.5333 27.314 54.34V53.99H28.354V54.21C28.354 54.79 28.2307 55.2467 27.984 55.58C27.7373 55.9133 27.3173 56.08 26.724 56.08ZM26.084 52.55H27.314V52.03C27.314 51.79 27.3007 51.59 27.274 51.43C27.2473 51.2633 27.1907 51.14 27.104 51.06C27.024 50.9733 26.894 50.93 26.714 50.93C26.5407 50.93 26.4073 50.97 26.314 51.05C26.2273 51.13 26.1673 51.2667 26.134 51.46C26.1007 51.6467 26.084 51.9067 26.084 52.24V52.55ZM33.2081 56.08C32.7815 56.08 32.4448 55.9933 32.1981 55.82C31.9515 55.6467 31.7748 55.4 31.6681 55.08C31.5681 54.76 31.5181 54.3833 31.5181 53.95V52.27C31.5181 51.8367 31.5681 51.46 31.6681 51.14C31.7748 50.82 31.9515 50.5733 32.1981 50.4C32.4448 50.2267 32.7815 50.14 33.2081 50.14C33.6348 50.14 33.9681 50.2267 34.2081 50.4C34.4548 50.5733 34.6281 50.82 34.7281 51.14C34.8348 51.46 34.8881 51.8367 34.8881 52.27V53.95C34.8881 54.3833 34.8348 54.76 34.7281 55.08C34.6281 55.4 34.4548 55.6467 34.2081 55.82C33.9681 55.9933 33.6348 56.08 33.2081 56.08ZM33.2081 55.29C33.4148 55.29 33.5581 55.23 33.6381 55.11C33.7248 54.99 33.7748 54.8333 33.7881 54.64C33.8081 54.44 33.8181 54.2333 33.8181 54.02V52.21C33.8181 51.99 33.8081 51.7833 33.7881 51.59C33.7748 51.3967 33.7248 51.24 33.6381 51.12C33.5581 50.9933 33.4148 50.93 33.2081 50.93C33.0015 50.93 32.8548 50.9933 32.7681 51.12C32.6815 51.24 32.6281 51.3967 32.6081 51.59C32.5948 51.7833 32.5881 51.99 32.5881 52.21V54.02C32.5881 54.2333 32.5948 54.44 32.6081 54.64C32.6281 54.8333 32.6815 54.99 32.7681 55.11C32.8548 55.23 33.0015 55.29 33.2081 55.29ZM35.8662 57.9V50.22H36.9362V50.68C37.0628 50.5333 37.2162 50.4067 37.3962 50.3C37.5762 50.1933 37.7895 50.14 38.0362 50.14C38.3362 50.14 38.5728 50.22 38.7462 50.38C38.9262 50.5333 39.0595 50.73 39.1462 50.97C39.2328 51.2033 39.2895 51.4433 39.3162 51.69C39.3428 51.93 39.3562 52.1367 39.3562 52.31V53.71C39.3562 54.1167 39.3162 54.5033 39.2362 54.87C39.1562 55.23 39.0095 55.5233 38.7962 55.75C38.5895 55.97 38.2962 56.08 37.9162 56.08C37.7095 56.08 37.5262 56.03 37.3662 55.93C37.2062 55.8233 37.0628 55.7033 36.9362 55.57V57.9H35.8662ZM37.7062 55.24C37.8928 55.24 38.0262 55.1733 38.1062 55.04C38.1862 54.9 38.2362 54.7133 38.2562 54.48C38.2762 54.2467 38.2862 53.99 38.2862 53.71V52.31C38.2862 52.07 38.2728 51.85 38.2462 51.65C38.2195 51.4433 38.1628 51.28 38.0762 51.16C37.9895 51.04 37.8528 50.98 37.6662 50.98C37.5262 50.98 37.3928 51.01 37.2662 51.07C37.1395 51.13 37.0295 51.2 36.9362 51.28V54.98C37.0362 55.0533 37.1495 55.1167 37.2762 55.17C37.4028 55.2167 37.5462 55.24 37.7062 55.24ZM40.3291 57.9V50.22H41.3991V50.68C41.5257 50.5333 41.6791 50.4067 41.8591 50.3C42.0391 50.1933 42.2524 50.14 42.4991 50.14C42.7991 50.14 43.0357 50.22 43.2091 50.38C43.3891 50.5333 43.5224 50.73 43.6091 50.97C43.6957 51.2033 43.7524 51.4433 43.7791 51.69C43.8057 51.93 43.8191 52.1367 43.8191 52.31V53.71C43.8191 54.1167 43.7791 54.5033 43.6991 54.87C43.6191 55.23 43.4724 55.5233 43.2591 55.75C43.0524 55.97 42.7591 56.08 42.3791 56.08C42.1724 56.08 41.9891 56.03 41.8291 55.93C41.6691 55.8233 41.5257 55.7033 41.3991 55.57V57.9H40.3291ZM42.1691 55.24C42.3557 55.24 42.4891 55.1733 42.5691 55.04C42.6491 54.9 42.6991 54.7133 42.7191 54.48C42.7391 54.2467 42.7491 53.99 42.7491 53.71V52.31C42.7491 52.07 42.7357 51.85 42.7091 51.65C42.6824 51.4433 42.6257 51.28 42.5391 51.16C42.4524 51.04 42.3157 50.98 42.1291 50.98C41.9891 50.98 41.8557 51.01 41.7291 51.07C41.6024 51.13 41.4924 51.2 41.3991 51.28V54.98C41.4991 55.0533 41.6124 55.1167 41.7391 55.17C41.8657 55.2167 42.0091 55.24 42.1691 55.24ZM46.382 56.08C45.9553 56.08 45.6186 55.9933 45.372 55.82C45.1253 55.6467 44.9486 55.4 44.842 55.08C44.742 54.76 44.692 54.3833 44.692 53.95V52.27C44.692 51.8367 44.742 51.46 44.842 51.14C44.9486 50.82 45.1253 50.5733 45.372 50.4C45.6186 50.2267 45.9553 50.14 46.382 50.14C46.8086 50.14 47.142 50.2267 47.382 50.4C47.6286 50.5733 47.802 50.82 47.902 51.14C48.0086 51.46 48.062 51.8367 48.062 52.27V53.95C48.062 54.3833 48.0086 54.76 47.902 55.08C47.802 55.4 47.6286 55.6467 47.382 55.82C47.142 55.9933 46.8086 56.08 46.382 56.08ZM46.382 55.29C46.5886 55.29 46.732 55.23 46.812 55.11C46.8986 54.99 46.9486 54.8333 46.962 54.64C46.982 54.44 46.992 54.2333 46.992 54.02V52.21C46.992 51.99 46.982 51.7833 46.962 51.59C46.9486 51.3967 46.8986 51.24 46.812 51.12C46.732 50.9933 46.5886 50.93 46.382 50.93C46.1753 50.93 46.0286 50.9933 45.942 51.12C45.8553 51.24 45.802 51.3967 45.782 51.59C45.7686 51.7833 45.762 51.99 45.762 52.21V54.02C45.762 54.2333 45.7686 54.44 45.782 54.64C45.802 54.8333 45.8553 54.99 45.942 55.11C46.0286 55.23 46.1753 55.29 46.382 55.29ZM49.04 56V50.22H50.11V50.79C50.3033 50.61 50.5167 50.4567 50.75 50.33C50.9833 50.2033 51.24 50.14 51.52 50.14C51.7533 50.14 51.93 50.2 52.05 50.32C52.1767 50.44 52.2633 50.59 52.31 50.77C52.3633 50.95 52.39 51.1333 52.39 51.32V56H51.32V51.63C51.32 51.4233 51.29 51.2633 51.23 51.15C51.17 51.0367 51.0467 50.98 50.86 50.98C50.74 50.98 50.6133 51.0167 50.48 51.09C50.3533 51.1567 50.23 51.24 50.11 51.34V56H49.04ZM55.0345 56.08C54.5812 56.08 54.2312 55.9933 53.9845 55.82C53.7379 55.64 53.5645 55.38 53.4645 55.04C53.3712 54.6933 53.3245 54.27 53.3245 53.77V52.45C53.3245 51.9367 53.3745 51.51 53.4745 51.17C53.5745 50.83 53.7479 50.5733 53.9945 50.4C54.2479 50.2267 54.5945 50.14 55.0345 50.14C55.5212 50.14 55.8779 50.24 56.1045 50.44C56.3379 50.64 56.4912 50.93 56.5645 51.31C56.6379 51.6833 56.6745 52.1333 56.6745 52.66V53.13H54.3945V54.29C54.3945 54.5233 54.4145 54.7133 54.4545 54.86C54.5012 55.0067 54.5712 55.1167 54.6645 55.19C54.7645 55.2567 54.8912 55.29 55.0445 55.29C55.2045 55.29 55.3245 55.2533 55.4045 55.18C55.4912 55.1 55.5479 54.99 55.5745 54.85C55.6079 54.7033 55.6245 54.5333 55.6245 54.34V53.99H56.6645V54.21C56.6645 54.79 56.5412 55.2467 56.2945 55.58C56.0479 55.9133 55.6279 56.08 55.0345 56.08ZM54.3945 52.55H55.6245V52.03C55.6245 51.79 55.6112 51.59 55.5845 51.43C55.5579 51.2633 55.5012 51.14 55.4145 51.06C55.3345 50.9733 55.2045 50.93 55.0245 50.93C54.8512 50.93 54.7179 50.97 54.6245 51.05C54.5379 51.13 54.4779 51.2667 54.4445 51.46C54.4112 51.6467 54.3945 51.9067 54.3945 52.24V52.55ZM57.6435 56V50.22H58.7135V50.79C58.9068 50.61 59.1202 50.4567 59.3535 50.33C59.5868 50.2033 59.8435 50.14 60.1235 50.14C60.3568 50.14 60.5335 50.2 60.6535 50.32C60.7802 50.44 60.8668 50.59 60.9135 50.77C60.9668 50.95 60.9935 51.1333 60.9935 51.32V56H59.9235V51.63C59.9235 51.4233 59.8935 51.2633 59.8335 51.15C59.7735 51.0367 59.6502 50.98 59.4635 50.98C59.3435 50.98 59.2168 51.0167 59.0835 51.09C58.9568 51.1567 58.8335 51.24 58.7135 51.34V56H57.6435ZM63.578 56.08C63.278 56.08 63.0347 56.0233 62.848 55.91C62.668 55.7967 62.5347 55.6367 62.448 55.43C62.368 55.2233 62.328 54.98 62.328 54.7V50.93H61.718V50.22H62.328V48.53H63.398V50.22H64.328V50.93H63.398V54.63C63.398 54.8567 63.4347 55.02 63.508 55.12C63.5814 55.2133 63.7214 55.26 63.928 55.26C63.9814 55.26 64.0414 55.2567 64.108 55.25C64.1814 55.2433 64.2514 55.2367 64.318 55.23V56.02C64.1847 56.04 64.0614 56.0533 63.948 56.06C63.8347 56.0733 63.7114 56.08 63.578 56.08ZM67.4694 56V50.22H68.5394V56H67.4694ZM67.4694 49.36V48.24H68.5394V49.36H67.4694ZM71.0245 56.08C70.5512 56.08 70.1712 55.9333 69.8845 55.64C69.5979 55.34 69.4345 54.9467 69.3945 54.46L70.2845 54.19C70.3379 54.5567 70.4279 54.8333 70.5545 55.02C70.6812 55.2 70.8679 55.29 71.1145 55.29C71.3079 55.29 71.4545 55.2367 71.5545 55.13C71.6545 55.0167 71.7045 54.8667 71.7045 54.68C71.7045 54.5133 71.6679 54.3633 71.5945 54.23C71.5212 54.0967 71.4012 53.96 71.2345 53.82L70.2445 52.97C70.0445 52.7967 69.8745 52.6033 69.7345 52.39C69.6012 52.1767 69.5345 51.9 69.5345 51.56C69.5345 51.2533 69.5945 50.9967 69.7145 50.79C69.8412 50.5767 70.0145 50.4167 70.2345 50.31C70.4612 50.1967 70.7245 50.14 71.0245 50.14C71.4845 50.14 71.8345 50.29 72.0745 50.59C72.3212 50.8833 72.4612 51.24 72.4945 51.66L71.7745 51.93C71.7479 51.73 71.7079 51.5567 71.6545 51.41C71.6012 51.2567 71.5279 51.14 71.4345 51.06C71.3412 50.9733 71.2179 50.93 71.0645 50.93C70.8912 50.93 70.7512 50.99 70.6445 51.11C70.5445 51.2233 70.4945 51.36 70.4945 51.52C70.4945 51.62 70.5145 51.72 70.5545 51.82C70.6012 51.9133 70.6779 52.0067 70.7845 52.1L71.8045 53.04C71.9445 53.1667 72.0745 53.3033 72.1945 53.45C72.3212 53.5967 72.4245 53.7633 72.5045 53.95C72.5845 54.1367 72.6245 54.3533 72.6245 54.6C72.6245 54.9267 72.5579 55.2 72.4245 55.42C72.2912 55.64 72.1045 55.8067 71.8645 55.92C71.6245 56.0267 71.3445 56.08 71.0245 56.08ZM75.7099 56V50.22H76.7799V50.79C76.9733 50.61 77.1866 50.4567 77.4199 50.33C77.6533 50.2033 77.9099 50.14 78.1899 50.14C78.4233 50.14 78.5999 50.2 78.7199 50.32C78.8466 50.44 78.9333 50.59 78.9799 50.77C79.0333 50.95 79.0599 51.1333 79.0599 51.32V56H77.9899V51.63C77.9899 51.4233 77.9599 51.2633 77.8999 51.15C77.8399 51.0367 77.7166 50.98 77.5299 50.98C77.4099 50.98 77.2833 51.0167 77.1499 51.09C77.0233 51.1567 76.8999 51.24 76.7799 51.34V56H75.7099ZM81.6945 56.08C81.2678 56.08 80.9311 55.9933 80.6845 55.82C80.4378 55.6467 80.2611 55.4 80.1545 55.08C80.0545 54.76 80.0045 54.3833 80.0045 53.95V52.27C80.0045 51.8367 80.0545 51.46 80.1545 51.14C80.2611 50.82 80.4378 50.5733 80.6845 50.4C80.9311 50.2267 81.2678 50.14 81.6945 50.14C82.1211 50.14 82.4545 50.2267 82.6945 50.4C82.9411 50.5733 83.1145 50.82 83.2145 51.14C83.3211 51.46 83.3745 51.8367 83.3745 52.27V53.95C83.3745 54.3833 83.3211 54.76 83.2145 55.08C83.1145 55.4 82.9411 55.6467 82.6945 55.82C82.4545 55.9933 82.1211 56.08 81.6945 56.08ZM81.6945 55.29C81.9011 55.29 82.0445 55.23 82.1245 55.11C82.2111 54.99 82.2611 54.8333 82.2745 54.64C82.2945 54.44 82.3045 54.2333 82.3045 54.02V52.21C82.3045 51.99 82.2945 51.7833 82.2745 51.59C82.2611 51.3967 82.2111 51.24 82.1245 51.12C82.0445 50.9933 81.9011 50.93 81.6945 50.93C81.4878 50.93 81.3411 50.9933 81.2545 51.12C81.1678 51.24 81.1145 51.3967 81.0945 51.59C81.0811 51.7833 81.0745 51.99 81.0745 52.21V54.02C81.0745 54.2333 81.0811 54.44 81.0945 54.64C81.1145 54.8333 81.1678 54.99 81.2545 55.11C81.3411 55.23 81.4878 55.29 81.6945 55.29ZM85.8925 56.08C85.5925 56.08 85.3492 56.0233 85.1625 55.91C84.9825 55.7967 84.8492 55.6367 84.7625 55.43C84.6825 55.2233 84.6425 54.98 84.6425 54.7V50.93H84.0325V50.22H84.6425V48.53H85.7125V50.22H86.6425V50.93H85.7125V54.63C85.7125 54.8567 85.7492 55.02 85.8225 55.12C85.8958 55.2133 86.0358 55.26 86.2425 55.26C86.2958 55.26 86.3558 55.2567 86.4225 55.25C86.4958 55.2433 86.5658 55.2367 86.6325 55.23V56.02C86.4992 56.04 86.3758 56.0533 86.2625 56.06C86.1492 56.0733 86.0258 56.08 85.8925 56.08ZM91.2938 56.08C90.8205 56.08 90.4605 55.9867 90.2138 55.8C89.9738 55.6067 89.8105 55.3367 89.7238 54.99C89.6438 54.6433 89.6038 54.24 89.6038 53.78V52.45C89.6038 51.9633 89.6472 51.55 89.7338 51.21C89.8205 50.8633 89.9838 50.6 90.2238 50.42C90.4705 50.2333 90.8272 50.14 91.2938 50.14C91.7138 50.14 92.0372 50.21 92.2638 50.35C92.4972 50.4833 92.6572 50.6867 92.7438 50.96C92.8305 51.2267 92.8738 51.56 92.8738 51.96V52.3H91.9038V51.95C91.9038 51.6967 91.8872 51.4967 91.8538 51.35C91.8205 51.2033 91.7605 51.0967 91.6738 51.03C91.5872 50.9633 91.4638 50.93 91.3038 50.93C91.1305 50.93 90.9972 50.97 90.9038 51.05C90.8105 51.13 90.7472 51.2667 90.7138 51.46C90.6872 51.6467 90.6738 51.9033 90.6738 52.23V54.05C90.6738 54.5433 90.7205 54.8733 90.8138 55.04C90.9072 55.2067 91.0738 55.29 91.3138 55.29C91.4938 55.29 91.6238 55.25 91.7038 55.17C91.7905 55.0833 91.8438 54.9633 91.8638 54.81C91.8905 54.6567 91.9038 54.4833 91.9038 54.29V53.82H92.8738V54.22C92.8738 54.6067 92.8272 54.94 92.7338 55.22C92.6472 55.5 92.4872 55.7133 92.2538 55.86C92.0272 56.0067 91.7072 56.08 91.2938 56.08ZM95.4152 56.08C94.9885 56.08 94.6518 55.9933 94.4052 55.82C94.1585 55.6467 93.9818 55.4 93.8752 55.08C93.7752 54.76 93.7252 54.3833 93.7252 53.95V52.27C93.7252 51.8367 93.7752 51.46 93.8752 51.14C93.9818 50.82 94.1585 50.5733 94.4052 50.4C94.6518 50.2267 94.9885 50.14 95.4152 50.14C95.8418 50.14 96.1752 50.2267 96.4152 50.4C96.6618 50.5733 96.8352 50.82 96.9352 51.14C97.0418 51.46 97.0952 51.8367 97.0952 52.27V53.95C97.0952 54.3833 97.0418 54.76 96.9352 55.08C96.8352 55.4 96.6618 55.6467 96.4152 55.82C96.1752 55.9933 95.8418 56.08 95.4152 56.08ZM95.4152 55.29C95.6218 55.29 95.7652 55.23 95.8452 55.11C95.9318 54.99 95.9818 54.8333 95.9952 54.64C96.0152 54.44 96.0252 54.2333 96.0252 54.02V52.21C96.0252 51.99 96.0152 51.7833 95.9952 51.59C95.9818 51.3967 95.9318 51.24 95.8452 51.12C95.7652 50.9933 95.6218 50.93 95.4152 50.93C95.2085 50.93 95.0618 50.9933 94.9752 51.12C94.8885 51.24 94.8352 51.3967 94.8152 51.59C94.8018 51.7833 94.7952 51.99 94.7952 52.21V54.02C94.7952 54.2333 94.8018 54.44 94.8152 54.64C94.8352 54.8333 94.8885 54.99 94.9752 55.11C95.0618 55.23 95.2085 55.29 95.4152 55.29ZM98.0732 56V50.22H99.0632V50.77C99.2565 50.55 99.4699 50.3867 99.7032 50.28C99.9365 50.1733 100.177 50.12 100.423 50.12C100.637 50.12 100.827 50.1733 100.993 50.28C101.167 50.3867 101.29 50.5767 101.363 50.85C101.57 50.5967 101.793 50.4133 102.033 50.3C102.28 50.18 102.537 50.12 102.803 50.12C102.99 50.12 103.16 50.1667 103.313 50.26C103.467 50.3467 103.59 50.49 103.683 50.69C103.777 50.8833 103.823 51.14 103.823 51.46V56H102.843V51.53C102.843 51.25 102.797 51.0633 102.703 50.97C102.617 50.87 102.497 50.82 102.343 50.82C102.197 50.82 102.043 50.8633 101.883 50.95C101.723 51.03 101.577 51.1433 101.443 51.29C101.443 51.3167 101.443 51.3433 101.443 51.37C101.443 51.3967 101.443 51.4267 101.443 51.46V56H100.463V51.53C100.463 51.25 100.417 51.0633 100.323 50.97C100.237 50.87 100.117 50.82 99.9632 50.82C99.8165 50.82 99.6632 50.8633 99.5032 50.95C99.3499 51.03 99.2032 51.1433 99.0632 51.29V56H98.0732ZM104.87 56V50.22H105.86V50.77C106.053 50.55 106.267 50.3867 106.5 50.28C106.733 50.1733 106.973 50.12 107.22 50.12C107.433 50.12 107.623 50.1733 107.79 50.28C107.963 50.3867 108.087 50.5767 108.16 50.85C108.367 50.5967 108.59 50.4133 108.83 50.3C109.077 50.18 109.333 50.12 109.6 50.12C109.787 50.12 109.957 50.1667 110.11 50.26C110.263 50.3467 110.387 50.49 110.48 50.69C110.573 50.8833 110.62 51.14 110.62 51.46V56H109.64V51.53C109.64 51.25 109.593 51.0633 109.5 50.97C109.413 50.87 109.293 50.82 109.14 50.82C108.993 50.82 108.84 50.8633 108.68 50.95C108.52 51.03 108.373 51.1433 108.24 51.29C108.24 51.3167 108.24 51.3433 108.24 51.37C108.24 51.3967 108.24 51.4267 108.24 51.46V56H107.26V51.53C107.26 51.25 107.213 51.0633 107.12 50.97C107.033 50.87 106.913 50.82 106.76 50.82C106.613 50.82 106.46 50.8633 106.3 50.95C106.147 51.03 106 51.1433 105.86 51.29V56H104.87ZM112.497 56.08C112.27 56.08 112.094 56.02 111.967 55.9C111.84 55.78 111.75 55.63 111.697 55.45C111.65 55.27 111.627 55.0867 111.627 54.9V50.22H112.697V54.58C112.697 54.7867 112.727 54.95 112.787 55.07C112.847 55.1833 112.97 55.24 113.157 55.24C113.277 55.24 113.4 55.2067 113.527 55.14C113.66 55.0667 113.787 54.98 113.907 54.88V50.22H114.977V56H113.907V55.43C113.72 55.61 113.507 55.7633 113.267 55.89C113.034 56.0167 112.777 56.08 112.497 56.08ZM116.071 56V50.22H117.141V50.79C117.335 50.61 117.548 50.4567 117.781 50.33C118.015 50.2033 118.271 50.14 118.551 50.14C118.785 50.14 118.961 50.2 119.081 50.32C119.208 50.44 119.295 50.59 119.341 50.77C119.395 50.95 119.421 51.1333 119.421 51.32V56H118.351V51.63C118.351 51.4233 118.321 51.2633 118.261 51.15C118.201 51.0367 118.078 50.98 117.891 50.98C117.771 50.98 117.645 51.0167 117.511 51.09C117.385 51.1567 117.261 51.24 117.141 51.34V56H116.071ZM120.536 56V50.22H121.606V56H120.536ZM120.536 49.36V48.24H121.606V49.36H120.536ZM124.331 56.08C123.858 56.08 123.498 55.9867 123.251 55.8C123.011 55.6067 122.848 55.3367 122.761 54.99C122.681 54.6433 122.641 54.24 122.641 53.78V52.45C122.641 51.9633 122.684 51.55 122.771 51.21C122.858 50.8633 123.021 50.6 123.261 50.42C123.508 50.2333 123.864 50.14 124.331 50.14C124.751 50.14 125.074 50.21 125.301 50.35C125.534 50.4833 125.694 50.6867 125.781 50.96C125.868 51.2267 125.911 51.56 125.911 51.96V52.3H124.941V51.95C124.941 51.6967 124.924 51.4967 124.891 51.35C124.858 51.2033 124.798 51.0967 124.711 51.03C124.624 50.9633 124.501 50.93 124.341 50.93C124.168 50.93 124.034 50.97 123.941 51.05C123.848 51.13 123.784 51.2667 123.751 51.46C123.724 51.6467 123.711 51.9033 123.711 52.23V54.05C123.711 54.5433 123.758 54.8733 123.851 55.04C123.944 55.2067 124.111 55.29 124.351 55.29C124.531 55.29 124.661 55.25 124.741 55.17C124.828 55.0833 124.881 54.9633 124.901 54.81C124.928 54.6567 124.941 54.4833 124.941 54.29V53.82H125.911V54.22C125.911 54.6067 125.864 54.94 125.771 55.22C125.684 55.5 125.524 55.7133 125.291 55.86C125.064 56.0067 124.744 56.08 124.331 56.08ZM127.902 56.08C127.676 56.08 127.476 56.0167 127.302 55.89C127.129 55.7567 126.992 55.59 126.892 55.39C126.792 55.1833 126.742 54.9667 126.742 54.74C126.742 54.38 126.802 54.0767 126.922 53.83C127.042 53.5833 127.206 53.3767 127.412 53.21C127.626 53.0367 127.869 52.8867 128.142 52.76C128.422 52.6333 128.716 52.51 129.022 52.39V51.98C129.022 51.7467 129.009 51.5533 128.982 51.4C128.956 51.2467 128.899 51.1333 128.812 51.06C128.732 50.98 128.609 50.94 128.442 50.94C128.296 50.94 128.176 50.9733 128.082 51.04C127.996 51.1067 127.932 51.2033 127.892 51.33C127.852 51.45 127.832 51.5933 127.832 51.76V52.05L126.772 52.01C126.786 51.37 126.932 50.9 127.212 50.6C127.492 50.2933 127.926 50.14 128.512 50.14C129.086 50.14 129.492 50.2967 129.732 50.61C129.972 50.9233 130.092 51.3767 130.092 51.97V54.61C130.092 54.79 130.096 54.9633 130.102 55.13C130.116 55.2967 130.129 55.4533 130.142 55.6C130.162 55.74 130.179 55.8733 130.192 56H129.212C129.192 55.8933 129.166 55.76 129.132 55.6C129.106 55.4333 129.086 55.2833 129.072 55.15C129.006 55.3767 128.876 55.59 128.682 55.79C128.496 55.9833 128.236 56.08 127.902 56.08ZM128.322 55.16C128.429 55.16 128.529 55.13 128.622 55.07C128.716 55.01 128.799 54.9433 128.872 54.87C128.946 54.79 128.996 54.7267 129.022 54.68V53.04C128.856 53.1333 128.699 53.2267 128.552 53.32C128.406 53.4133 128.276 53.5133 128.162 53.62C128.056 53.72 127.969 53.8367 127.902 53.97C127.842 54.0967 127.812 54.2433 127.812 54.41C127.812 54.6433 127.856 54.8267 127.942 54.96C128.029 55.0933 128.156 55.16 128.322 55.16ZM132.582 56.08C132.282 56.08 132.039 56.0233 131.852 55.91C131.672 55.7967 131.539 55.6367 131.452 55.43C131.372 55.2233 131.332 54.98 131.332 54.7V50.93H130.722V50.22H131.332V48.53H132.402V50.22H133.332V50.93H132.402V54.63C132.402 54.8567 132.439 55.02 132.512 55.12C132.585 55.2133 132.725 55.26 132.932 55.26C132.985 55.26 133.045 55.2567 133.112 55.25C133.185 55.2433 133.255 55.2367 133.322 55.23V56.02C133.189 56.04 133.065 56.0533 132.952 56.06C132.839 56.0733 132.715 56.08 132.582 56.08ZM134.188 56V50.22H135.258V56H134.188ZM134.188 49.36V48.24H135.258V49.36H134.188ZM136.403 56V50.22H137.473V50.79C137.667 50.61 137.88 50.4567 138.113 50.33C138.347 50.2033 138.603 50.14 138.883 50.14C139.117 50.14 139.293 50.2 139.413 50.32C139.54 50.44 139.627 50.59 139.673 50.77C139.727 50.95 139.753 51.1333 139.753 51.32V56H138.683V51.63C138.683 51.4233 138.653 51.2633 138.593 51.15C138.533 51.0367 138.41 50.98 138.223 50.98C138.103 50.98 137.977 51.0167 137.843 51.09C137.717 51.1567 137.593 51.24 137.473 51.34V56H136.403ZM142.298 57.79C141.951 57.79 141.638 57.7533 141.358 57.68C141.078 57.6067 140.858 57.49 140.698 57.33C140.538 57.17 140.458 56.96 140.458 56.7C140.458 56.5133 140.498 56.35 140.578 56.21C140.658 56.07 140.761 55.95 140.888 55.85C141.014 55.7433 141.148 55.6567 141.288 55.59C141.101 55.5367 140.961 55.4533 140.868 55.34C140.774 55.22 140.728 55.0967 140.728 54.97C140.728 54.7567 140.784 54.5733 140.898 54.42C141.011 54.2667 141.168 54.1 141.368 53.92C141.148 53.7533 140.981 53.54 140.868 53.28C140.754 53.02 140.698 52.66 140.698 52.2C140.698 51.7467 140.758 51.37 140.878 51.07C141.004 50.7633 141.188 50.5333 141.428 50.38C141.674 50.22 141.974 50.14 142.328 50.14C142.641 50.14 142.891 50.1933 143.078 50.3C143.271 50.4067 143.418 50.5667 143.518 50.78C143.551 50.7267 143.641 50.6367 143.788 50.51C143.934 50.3767 144.104 50.2667 144.298 50.18L144.458 50.11L144.728 50.8C144.641 50.8133 144.524 50.8467 144.378 50.9C144.238 50.9467 144.104 50.9967 143.978 51.05C143.858 51.0967 143.781 51.1367 143.748 51.17C143.794 51.2833 143.834 51.4467 143.868 51.66C143.908 51.8733 143.928 52.0633 143.928 52.23C143.928 52.6233 143.878 52.97 143.778 53.27C143.678 53.57 143.511 53.8067 143.278 53.98C143.051 54.1467 142.734 54.23 142.328 54.23C142.241 54.23 142.148 54.2233 142.048 54.21C141.948 54.1967 141.858 54.18 141.778 54.16C141.738 54.22 141.694 54.29 141.648 54.37C141.608 54.45 141.588 54.5267 141.588 54.6C141.588 54.6733 141.624 54.7333 141.698 54.78C141.778 54.82 141.901 54.8467 142.068 54.86L142.968 54.94C143.421 54.98 143.758 55.1167 143.978 55.35C144.198 55.5833 144.308 55.9167 144.308 56.35C144.308 56.6633 144.234 56.9267 144.088 57.14C143.941 57.36 143.718 57.5233 143.418 57.63C143.124 57.7367 142.751 57.79 142.298 57.79ZM142.378 56.95C142.758 56.95 143.038 56.9033 143.218 56.81C143.398 56.7233 143.488 56.58 143.488 56.38C143.488 56.26 143.464 56.16 143.418 56.08C143.378 56 143.301 55.9367 143.188 55.89C143.074 55.8433 142.911 55.81 142.698 55.79L141.788 55.71C141.714 55.7833 141.644 55.8567 141.578 55.93C141.511 56.0033 141.458 56.08 141.418 56.16C141.378 56.2467 141.358 56.3367 141.358 56.43C141.358 56.6033 141.431 56.7333 141.578 56.82C141.724 56.9067 141.991 56.95 142.378 56.95ZM142.328 53.48C142.481 53.48 142.601 53.4533 142.688 53.4C142.781 53.34 142.851 53.2567 142.898 53.15C142.944 53.0367 142.974 52.9 142.988 52.74C143.008 52.58 143.018 52.4 143.018 52.2C143.018 52 143.008 51.82 142.988 51.66C142.974 51.4933 142.944 51.3533 142.898 51.24C142.858 51.12 142.791 51.03 142.698 50.97C142.611 50.91 142.491 50.88 142.338 50.88C142.191 50.88 142.068 50.91 141.968 50.97C141.874 51.03 141.804 51.1167 141.758 51.23C141.711 51.3367 141.678 51.4733 141.658 51.64C141.638 51.8 141.628 51.9867 141.628 52.2C141.628 52.38 141.634 52.55 141.648 52.71C141.668 52.8633 141.701 52.9967 141.748 53.11C141.801 53.2233 141.874 53.3133 141.968 53.38C142.061 53.4467 142.181 53.48 142.328 53.48Z"></path>
</svg>
