<svg xmlns="http://www.w3.org/2000/svg" fill="none" viewBox="0 0 140 22" height="22" width="140">
<rect fill="#0D0E12" height="22" width="140"></rect>
<path fill="white" d="M46.9334 5.93324C46.9334 5.63868 47.1721 5.3999 47.4667 5.3999H48.5334C48.8279 5.3999 49.0667 5.63868 49.0667 5.93324V6.59277C49.5302 6.70457 49.966 6.8876 50.3618 7.12963L50.8285 6.66298C51.0367 6.4547 51.3744 6.4547 51.5827 6.66298L52.3369 7.41723C52.5452 7.62551 52.5452 7.9632 52.3369 8.17148L51.8703 8.63812C52.1123 9.0339 52.2954 9.46968 52.4072 9.93324H53.0667C53.3612 9.93324 53.6 10.172 53.6 10.4666V11.5332C53.6 11.8278 53.3612 12.0666 53.0667 12.0666H52.4072C52.2954 12.5301 52.1123 12.9659 51.8703 13.3617L52.3369 13.8283C52.5452 14.0366 52.5452 14.3743 52.3369 14.5826L51.5827 15.3368C51.3744 15.5451 51.0367 15.5451 50.8285 15.3368L50.3618 14.8702C49.966 15.1122 49.5302 15.2952 49.0667 15.407V16.0666C49.0667 16.3611 48.8279 16.5999 48.5334 16.5999H47.4667C47.1721 16.5999 46.9334 16.3611 46.9334 16.0666V15.407C46.4698 15.2952 46.034 15.1122 45.6382 14.8702L45.1716 15.3368C44.9633 15.5451 44.6256 15.5451 44.4174 15.3368L43.6631 14.5826C43.4548 14.3743 43.4548 14.0366 43.6631 13.8283L44.1298 13.3617C43.8877 12.9659 43.7047 12.5301 43.5929 12.0666H42.9334C42.6388 12.0666 42.4 11.8278 42.4 11.5332V10.4666C42.4 10.172 42.6388 9.93323 42.9334 9.93323H43.5929C43.7047 9.46968 43.8877 9.0339 44.1298 8.63812L43.6631 8.17147C43.4548 7.9632 43.4548 7.62551 43.6631 7.41723L44.4174 6.66298C44.6256 6.4547 44.9633 6.4547 45.1716 6.66298L45.6382 7.12963C46.034 6.8876 46.4698 6.70457 46.9334 6.59277V5.93324ZM48 13.9333C49.62 13.9333 50.9333 12.62 50.9333 10.9999C50.9333 9.3799 49.62 8.0666 48 8.0666C46.3799 8.0666 45.0667 9.3799 45.0667 10.9999C45.0667 12.62 46.3799 13.9333 48 13.9333Z" clip-rule="evenodd" fill-rule="evenodd"></path>
<rect fill-opacity="0.01" fill="black" height="16" width="16" y="3" x="40"></rect>
<path fill="white" d="M62.75 15.12C62.2433 15.12 61.82 15.03 61.48 14.85C61.14 14.67 60.8833 14.3933 60.71 14.02C60.5367 13.64 60.44 13.15 60.42 12.55L61.95 12.32C61.9567 12.6667 61.9867 12.9467 62.04 13.16C62.1 13.3733 62.18 13.5267 62.28 13.62C62.3867 13.7133 62.5133 13.76 62.66 13.76C62.8467 13.76 62.9667 13.6967 63.02 13.57C63.08 13.4433 63.11 13.31 63.11 13.17C63.11 12.8367 63.03 12.5567 62.87 12.33C62.71 12.0967 62.4933 11.8633 62.22 11.63L61.52 11.02C61.2133 10.76 60.9533 10.4667 60.74 10.14C60.5333 9.80667 60.43 9.39667 60.43 8.91C60.43 8.22333 60.6333 7.7 61.04 7.34C61.4467 6.97333 62 6.79 62.7 6.79C63.1333 6.79 63.48 6.86333 63.74 7.01C64.0067 7.15667 64.2067 7.35 64.34 7.59C64.48 7.82333 64.5733 8.07333 64.62 8.34C64.6733 8.6 64.7033 8.85 64.71 9.09L63.17 9.28C63.1633 9.04 63.1467 8.83333 63.12 8.66C63.1 8.48 63.0533 8.34333 62.98 8.25C62.9067 8.15 62.7933 8.1 62.64 8.1C62.4733 8.1 62.35 8.17 62.27 8.31C62.1967 8.45 62.16 8.59 62.16 8.73C62.16 9.03 62.23 9.27667 62.37 9.47C62.5167 9.65667 62.7067 9.85333 62.94 10.06L63.61 10.65C63.9633 10.95 64.26 11.29 64.5 11.67C64.7467 12.05 64.87 12.52 64.87 13.08C64.87 13.46 64.7833 13.8067 64.61 14.12C64.4367 14.4267 64.19 14.67 63.87 14.85C63.5567 15.03 63.1833 15.12 62.75 15.12ZM65.7367 15V6.9H69.3767V8.12H67.5267V10.13H68.9367V11.37H67.5267V13.79H69.3967V15H65.7367ZM70.9394 15V8.23H69.7194V6.9H73.9494V8.23H72.7394V15H70.9394ZM75.3925 15V8.23H74.1725V6.9H78.4025V8.23H77.1925V15H75.3925ZM79.1256 15V6.9H80.9156V15H79.1256ZM82.1234 15V6.9H83.3834L85.0434 10.8V6.9H86.5234V15H85.3134L83.6534 10.8V15H82.1234ZM89.8389 15.12C89.2789 15.12 88.8356 15.0033 88.5089 14.77C88.1889 14.5367 87.9589 14.21 87.8189 13.79C87.6856 13.3633 87.6189 12.8733 87.6189 12.32V9.6C87.6189 9.02667 87.6922 8.53 87.8389 8.11C87.9856 7.69 88.2356 7.36667 88.5889 7.14C88.9489 6.90667 89.4356 6.79 90.0489 6.79C90.6489 6.79 91.1189 6.89 91.4589 7.09C91.8056 7.29 92.0522 7.56667 92.1989 7.92C92.3456 8.27333 92.4189 8.68667 92.4189 9.16V9.68H90.6689V9.02C90.6689 8.84667 90.6556 8.68667 90.6289 8.54C90.6089 8.39333 90.5556 8.27667 90.4689 8.19C90.3889 8.09667 90.2556 8.05 90.0689 8.05C89.8756 8.05 89.7356 8.10333 89.6489 8.21C89.5622 8.31 89.5056 8.43667 89.4789 8.59C89.4589 8.74333 89.4489 8.90333 89.4489 9.07V12.82C89.4489 13 89.4656 13.17 89.4989 13.33C89.5389 13.4833 89.6056 13.61 89.6989 13.71C89.7989 13.8033 89.9389 13.85 90.1189 13.85C90.3056 13.85 90.4489 13.8 90.5489 13.7C90.6489 13.6 90.7189 13.47 90.7589 13.31C90.7989 13.15 90.8189 12.98 90.8189 12.8V11.85H90.0889V10.8H92.4289V15H91.2489L91.1489 14.33C91.0422 14.5567 90.8856 14.7467 90.6789 14.9C90.4722 15.0467 90.1922 15.12 89.8389 15.12ZM95.6992 15.12C95.1926 15.12 94.7692 15.03 94.4292 14.85C94.0892 14.67 93.8326 14.3933 93.6592 14.02C93.4859 13.64 93.3892 13.15 93.3692 12.55L94.8992 12.32C94.9059 12.6667 94.9359 12.9467 94.9892 13.16C95.0492 13.3733 95.1292 13.5267 95.2292 13.62C95.3359 13.7133 95.4626 13.76 95.6092 13.76C95.7959 13.76 95.9159 13.6967 95.9692 13.57C96.0292 13.4433 96.0592 13.31 96.0592 13.17C96.0592 12.8367 95.9792 12.5567 95.8192 12.33C95.6592 12.0967 95.4426 11.8633 95.1692 11.63L94.4692 11.02C94.1626 10.76 93.9026 10.4667 93.6892 10.14C93.4826 9.80667 93.3792 9.39667 93.3792 8.91C93.3792 8.22333 93.5826 7.7 93.9892 7.34C94.3959 6.97333 94.9492 6.79 95.6492 6.79C96.0826 6.79 96.4292 6.86333 96.6892 7.01C96.9559 7.15667 97.1559 7.35 97.2892 7.59C97.4292 7.82333 97.5226 8.07333 97.5692 8.34C97.6226 8.6 97.6526 8.85 97.6592 9.09L96.1192 9.28C96.1126 9.04 96.0959 8.83333 96.0692 8.66C96.0492 8.48 96.0026 8.34333 95.9292 8.25C95.8559 8.15 95.7426 8.1 95.5892 8.1C95.4226 8.1 95.2992 8.17 95.2192 8.31C95.1459 8.45 95.1092 8.59 95.1092 8.73C95.1092 9.03 95.1792 9.27667 95.3192 9.47C95.4659 9.65667 95.6559 9.85333 95.8892 10.06L96.5592 10.65C96.9126 10.95 97.2092 11.29 97.4492 11.67C97.6959 12.05 97.8192 12.52 97.8192 13.08C97.8192 13.46 97.7326 13.8067 97.5592 14.12C97.3859 14.4267 97.1392 14.67 96.8192 14.85C96.5059 15.03 96.1326 15.12 95.6992 15.12Z"></path>
</svg>
