<svg version="1.1" xmlns="http://www.w3.org/2000/svg" xmlns:xlink="http://www.w3.org/1999/xlink" width="38" height="38" viewBox="0,0,38,38"><g transform="translate(-221,-161)"><g data-paper-data="{&quot;isPaintingLayer&quot;:true}" fill-rule="nonzero" stroke-width="1" stroke-linejoin="miter" stroke-miterlimit="10" stroke-dasharray="" stroke-dashoffset="0" style="mix-blend-mode: normal"><path d="M221,199v-38h38v38z" fill-opacity="0.01" fill="#ffffff" stroke="none" stroke-linecap="butt"/><path d="M248.7683,168.13006l1.1033,0.44136c0.6215,0.24858 0.8376,1.01926 0.436,1.55471l-0.6297,0.83963c-0.039,0.05204 -0.1151,0.05744 -0.1611,0.01145c-0.0927,-0.09275 -0.2387,0.03099 -0.1625,0.13769l1.685,2.359c0.0421,0.0588 0.0647,0.1293 0.0647,0.2016v0.8888c0,0.6295 0.2963,1.2223 0.8,1.6l0.7513,0.5635c0.2934,0.2201 0.5207,0.5167 0.6569,0.8573l0.421,1.0524c0.2188,0.5468 0.0433,1.1724 -0.4278,1.5258c-0.6341,0.4755 -0.7,1.4025 -0.1395,1.963l0.126,0.126c0.4763,0.4763 0.5641,1.2169 0.2123,1.7913l-1.0426,1.7027c-0.2863,0.4675 -0.306,1.051 -0.0518,1.5367l0.2475,0.4728c0.4306,0.8227 -0.1661,1.8085 -1.0946,1.8085c-0.5642,0 -1.0567,-0.3821 -1.1969,-0.9286l-4.528,-17.6593c-0.1481,-0.5776 -0.5462,-1.05899 -1.0857,-1.31289l-5.8531,-2.75439c-0.6016,-0.28312 -0.5154,-1.16466 0.1296,-1.32593c0.0501,-0.01251 0.0986,-0.03047 0.1448,-0.05354l1.0361,-0.51807c0.5631,-0.28153 1.2258,-0.28153 1.7889,0l0.6832,0.34164c0.2778,0.13886 0.584,0.21115 0.8945,0.21115h0.8892c0.6692,0 1.2525,0.45543 1.4148,1.10463c0.1367,0.54674 0.5762,0.96579 1.1288,1.07631l1.4215,0.28429c0.1154,0.0231 0.2286,0.05673 0.3379,0.10046z" fill="#fffee8" stroke="#0d0e12" stroke-linecap="butt"/><path d="M250.0518,195.2785l-0.0006,0.0011l-0.0001,0.0002l-0.0002,0.0004l-0.0227,0.0453l-0.0088,0.0353c-0.0082,0.0103 -0.0329,0.0374 -0.0925,0.0783c-0.108,0.0739 -0.2812,0.1581 -0.5315,0.2445c-0.4983,0.1721 -1.2115,0.323 -2.0899,0.4463c-1.7503,0.2456 -4.0691,0.3701 -6.4305,0.3701c-2.3607,0 -4.7441,-0.1244 -6.6225,-0.3708c-0.9408,-0.1233 -1.7403,-0.2755 -2.3417,-0.4526c-0.3009,-0.0886 -0.5398,-0.1799 -0.7172,-0.2704c-0.1603,-0.0818 -0.24259,-0.149 -0.27973,-0.1896c-0.00149,-0.0029 -0.00315,-0.0062 -0.00495,-0.0099c-0.01456,-0.0297 -0.03929,-0.0852 -0.06739,-0.1695c-0.05611,-0.1683 -0.12656,-0.4543 -0.15514,-0.883c-0.05721,-0.8581 0.05331,-2.2921 0.78791,-4.4961c0.3475,-1.0424 1.1368,-2.2919 2.1371,-3.5823c0.9932,-1.2813 2.1651,-2.5661 3.2408,-3.6758c1.0357,-1.0683 1.9761,-1.9681 2.5755,-2.5416c0.0227,-0.0217 0.0449,-0.0429 0.0666,-0.0637c0.2854,-0.2731 0.5098,-0.4879 0.5984,-0.5886c0.0129,-0.0146 0.0316,-0.0365 0.0499,-0.0617c0.0089,-0.0123 0.0239,-0.0339 0.0391,-0.0617l0.0004,-0.0007c0.0095,-0.0174 0.048,-0.0877 0.0595,-0.1862c0.0064,-0.0546 0.0089,-0.1534 -0.0398,-0.263c-0.0547,-0.123 -0.1519,-0.2103 -0.2593,-0.2568c-0.162,-0.07 -0.3054,-0.0312 -0.3282,-0.025c-0.0007,0.0002 -0.0013,0.0003 -0.0018,0.0005c-0.0704,0.0184 -0.125,0.0497 -0.138,0.0571l-0.0014,0.0008c-0.0681,0.0388 -0.1675,0.1114 -0.2731,0.1906c-0.754,0.5655 -1.4115,1.2884 -2.0205,1.9578c-0.1615,0.1776 -0.3196,0.3514 -0.4752,0.5176c-0.7689,0.821 -1.4922,1.477 -2.3649,1.7729c-1.0052,0.3409 -1.3551,0.4458 -1.5755,0.496c-0.091,0.0207 -0.1595,0.0321 -0.2586,0.0487c-0.0179,0.0029 -0.0368,0.0061 -0.057,0.0095c-0.1317,0.0221 -0.2967,0.0516 -0.5569,0.1094c-0.345,0.0768 -0.6905,0.2742 -0.99689,0.4784c-0.2596,0.1731 -0.53087,0.3791 -0.78898,0.5752c-0.05294,0.0402 -0.10532,0.08 -0.15693,0.119c-0.31332,0.2367 -0.60293,0.448 -0.86907,0.6005c-0.27602,0.1581 -0.46346,0.215 -0.57953,0.215c-0.43544,0 -1.01079,-0.1118 -1.50373,-0.2351c-0.24082,-0.0602 -0.45192,-0.1205 -0.6026,-0.1657c-0.07521,-0.0226 -0.13506,-0.0413 -0.17566,-0.0542l-0.04591,-0.0147l-0.01117,-0.0037l-0.00247,-0.0008l-0.00035,-0.0001l-0.00007,-0.0001h-0.00002h-0.00002l-0.03443,-0.0115l-0.03385,-0.006l-0.00065,-0.0001h-0.0001l-0.00048,-0.0001l-0.00036,-0.0001l-0.0085,-0.0017c-0.00959,-0.002 -0.0257,-0.0055 -0.04737,-0.0108c-0.04347,-0.0106 -0.1086,-0.028 -0.18806,-0.0543c-0.16061,-0.053 -0.37058,-0.1388 -0.57657,-0.2693c-0.40427,-0.2562 -0.76763,-0.6612 -0.76763,-1.3499c0,-0.7546 0.36536,-1.4768 0.89813,-2.329c0.09293,-0.1487 0.19115,-0.3015 0.29201,-0.4584c0.45295,-0.7045 0.95922,-1.492 1.27913,-2.3618c0.27538,-0.7487 0.45024,-1.3197 0.61776,-1.8667c0.30032,-0.9807 0.57701,-1.8841 1.36698,-3.5964c0.5988,-1.298 1.32776,-2.39214 1.90864,-3.1629c0.28995,-0.38471 0.54165,-0.68712 0.71985,-0.8922c0.089,-0.10249 0.1596,-0.18055 0.2072,-0.2323c0.0238,-0.02587 0.0419,-0.04515 0.0536,-0.0576l0.0129,-0.01354l0.0027,-0.00287l0.0003,-0.00024l0.0001,-0.00011v-0.00007l0.0001,-0.00003l0.1126,-0.11632l0.023,-0.16061l0.2756,-1.92921c0.052,-0.36416 0.4662,-0.54937 0.7723,-0.34531l0.1797,0.11984l0.5128,0.34181l0.2288,-0.57214l0.5423,-1.35571c0.118,-0.29487 0.4774,-0.40649 0.7416,-0.23033l1.9745,1.31637l0.3411,0.22737l0.2368,-0.23677c0.0443,-0.01211 0.1441,-0.03163 0.3245,-0.03163c0.4244,0 1.2418,0.10766 2.7169,0.59934c1.4582,0.48607 2.6482,1.08492 3.713,1.97227c1.0667,0.88893 2.0313,2.08698 3.011,3.80149c1.9539,3.4194 3.4341,7.8329 3.4341,14.7519c0,3.4771 -0.2484,5.6963 -0.4919,7.0356c-0.1217,0.6692 -0.2419,1.1174 -0.3286,1.392c-0.0434,0.1372 -0.0783,0.2309 -0.1008,0.2871c-0.0112,0.0281 -0.0193,0.0468 -0.0238,0.0568z" fill="#fffee8" stroke="#0d0e12" stroke-linecap="butt"/><path d="M232.1481,173.6093c1,-1.1497 2,-1.1497 3.5,-1.1498" fill="none" stroke="#0d0e12" stroke-linecap="round"/><path d="M238.6,191c0,-3 0.5,-4 2,-6" fill="none" stroke="#0d0e12" stroke-linecap="round"/><path d="M235.1481,173.4595c0,0.5523 -0.9477,1 -1.5,1c-0.5523,0 -1,-0.4477 -1,-1c0,-0.5523 0.9477,-1 1.5,-1c0.5523,0 1,0 1,1z" fill="#0d0e12" stroke="none" stroke-linecap="butt"/></g></g></svg>