<svg xmlns="http://www.w3.org/2000/svg" fill="none" viewBox="0 0 162 22" height="22" width="162">
<rect fill="#0D0E12" height="22" width="162"></rect>
<path fill="white" d="M46.25 15L45.27 6.9H46.79L47.27 11.62L47.88 6.91H49.07L49.71 11.59L50.2 6.9H51.7L50.73 15H49.17L48.48 10.11L47.83 15H46.25ZM51.9678 15L53.4978 6.9H55.5378L57.0478 15H55.3978L55.1278 13.29H53.9378L53.6578 15H51.9678ZM54.0978 12.22H54.9578L54.5278 9.06L54.0978 12.22ZM58.1659 15V8.23H56.9459V6.9H61.1759V8.23H59.9659V15H58.1659ZM64.1309 15.12C63.5176 15.12 63.0309 15.01 62.6709 14.79C62.3176 14.5633 62.0676 14.25 61.9209 13.85C61.7743 13.4433 61.7009 12.9667 61.7009 12.42V9.5C61.7009 8.94 61.7743 8.46 61.9209 8.06C62.0676 7.65333 62.3176 7.34 62.6709 7.12C63.0309 6.9 63.5176 6.79 64.1309 6.79C64.7309 6.79 65.1976 6.89 65.5309 7.09C65.8709 7.28333 66.1109 7.55667 66.2509 7.91C66.3909 8.26333 66.4609 8.67 66.4609 9.13V9.83H64.7109V9.02C64.7109 8.86 64.7009 8.70667 64.6809 8.56C64.6676 8.41333 64.6209 8.29333 64.5409 8.2C64.4609 8.1 64.3243 8.05 64.1309 8.05C63.9443 8.05 63.8043 8.1 63.7109 8.2C63.6243 8.3 63.5676 8.42667 63.5409 8.58C63.5209 8.72667 63.5109 8.88333 63.5109 9.05V12.86C63.5109 13.04 63.5243 13.2067 63.5509 13.36C63.5843 13.5067 63.6443 13.6267 63.7309 13.72C63.8243 13.8067 63.9576 13.85 64.1309 13.85C64.3176 13.85 64.4509 13.8033 64.5309 13.71C64.6109 13.61 64.6609 13.4833 64.6809 13.33C64.7009 13.1767 64.7109 13.02 64.7109 12.86V12.01H66.4609V12.71C66.4609 13.17 66.3909 13.5833 66.2509 13.95C66.1176 14.31 65.8809 14.5967 65.5409 14.81C65.2076 15.0167 64.7376 15.12 64.1309 15.12ZM67.4757 15V6.9H69.2657V10.18H70.5157V6.9H72.3157V15H70.5157V11.46H69.2657V15H67.4757ZM76.8378 15V8.23H75.6178V6.9H79.8478V8.23H78.6378V15H76.8378ZM80.5909 15V6.9H82.3809V10.18H83.6309V6.9H85.4309V15H83.6309V11.46H82.3809V15H80.5909ZM86.6645 15V6.9H90.3045V8.12H88.4545V10.13H89.8645V11.37H88.4545V13.79H90.3245V15H86.6645ZM95.8057 15.12C95.2457 15.12 94.8024 15.0033 94.4757 14.77C94.1557 14.5367 93.9257 14.21 93.7857 13.79C93.6524 13.3633 93.5857 12.8733 93.5857 12.32V9.6C93.5857 9.02667 93.659 8.53 93.8057 8.11C93.9524 7.69 94.2024 7.36667 94.5557 7.14C94.9157 6.90667 95.4024 6.79 96.0157 6.79C96.6157 6.79 97.0857 6.89 97.4257 7.09C97.7724 7.29 98.019 7.56667 98.1657 7.92C98.3124 8.27333 98.3857 8.68667 98.3857 9.16V9.68H96.6357V9.02C96.6357 8.84667 96.6224 8.68667 96.5957 8.54C96.5757 8.39333 96.5224 8.27667 96.4357 8.19C96.3557 8.09667 96.2224 8.05 96.0357 8.05C95.8424 8.05 95.7024 8.10333 95.6157 8.21C95.529 8.31 95.4724 8.43667 95.4457 8.59C95.4257 8.74333 95.4157 8.90333 95.4157 9.07V12.82C95.4157 13 95.4324 13.17 95.4657 13.33C95.5057 13.4833 95.5724 13.61 95.6657 13.71C95.7657 13.8033 95.9057 13.85 96.0857 13.85C96.2724 13.85 96.4157 13.8 96.5157 13.7C96.6157 13.6 96.6857 13.47 96.7257 13.31C96.7657 13.15 96.7857 12.98 96.7857 12.8V11.85H96.0557V10.8H98.3957V15H97.2157L97.1157 14.33C97.009 14.5567 96.8524 14.7467 96.6457 14.9C96.439 15.0467 96.159 15.12 95.8057 15.12ZM99.126 15L100.656 6.9H102.696L104.206 15H102.556L102.286 13.29H101.096L100.816 15H99.126ZM101.256 12.22H102.116L101.686 9.06L101.256 12.22ZM104.994 15L105.134 6.9H107.054L107.944 11.61L108.904 6.9H110.754L110.894 15H109.624L109.474 9.61L108.534 15H107.404L106.404 9.57L106.284 15H104.994ZM112.065 15V6.9H115.705V8.12H113.855V10.13H115.265V11.37H113.855V13.79H115.725V15H112.065Z"></path>
</svg>
