<svg xmlns="http://www.w3.org/2000/svg" fill="none" viewBox="0 0 13 18" height="18" width="13">
<rect fill-opacity="0.01" fill="#0D0E12" height="18" width="13"></rect>
<path fill="white" d="M3.288 14V11.816H0.3V10.34L2.832 4.28H5.16V10.328H6.06V11.816H5.16V14H3.288ZM1.824 10.328H3.288V6.284L1.824 10.328ZM6.78497 14V12.584L9.11297 9.008C9.28897 8.744 9.45297 8.488 9.60497 8.24C9.76497 7.992 9.89297 7.74 9.98897 7.484C10.093 7.228 10.145 6.96 10.145 6.68C10.145 6.4 10.089 6.192 9.97697 6.056C9.86497 5.92 9.71297 5.852 9.52097 5.852C9.30497 5.852 9.13697 5.912 9.01697 6.032C8.89697 6.152 8.81297 6.312 8.76497 6.512C8.72497 6.712 8.70497 6.936 8.70497 7.184V7.664H6.76097V7.148C6.76097 6.572 6.85297 6.06 7.03697 5.612C7.22097 5.156 7.51297 4.8 7.91297 4.544C8.31297 4.28 8.83697 4.148 9.48497 4.148C10.357 4.148 11.013 4.376 11.453 4.832C11.901 5.28 12.125 5.908 12.125 6.716C12.125 7.108 12.061 7.472 11.933 7.808C11.813 8.144 11.649 8.472 11.441 8.792C11.241 9.104 11.025 9.432 10.793 9.776L9.01697 12.428H11.861V14H6.78497Z"></path>
</svg>
