<svg xmlns="http://www.w3.org/2000/svg" fill="none" viewBox="0 0 13 18" height="18" width="13">
<rect fill-opacity="0.01" fill="#0D0E12" height="18" width="13"></rect>
<path fill="white" d="M3.288 14V11.816H0.3V10.34L2.832 4.28H5.16V10.328H6.06V11.816H5.16V14H3.288ZM1.824 10.328H3.288V6.284L1.824 10.328ZM9.42497 14.144C8.80097 14.144 8.30897 14.048 7.94897 13.856C7.58897 13.664 7.33297 13.384 7.18097 13.016C7.02897 12.64 6.95297 12.18 6.95297 11.636C6.95297 11.612 6.95297 11.588 6.95297 11.564C6.95297 11.532 6.95297 11.504 6.95297 11.48H8.82497C8.82497 11.872 8.85697 12.164 8.92097 12.356C8.99297 12.54 9.16497 12.632 9.43697 12.632C9.62097 12.632 9.75697 12.576 9.84497 12.464C9.93297 12.352 9.98897 12.156 10.013 11.876C10.045 11.588 10.061 11.196 10.061 10.7V9.836C9.95697 10.004 9.79697 10.132 9.58097 10.22C9.37297 10.308 9.13697 10.36 8.87297 10.376C8.36097 10.384 7.94897 10.256 7.63697 9.992C7.32497 9.728 7.10097 9.372 6.96497 8.924C6.82897 8.476 6.76097 7.988 6.76097 7.46C6.76097 6.78 6.84497 6.196 7.01297 5.708C7.18897 5.212 7.47297 4.828 7.86497 4.556C8.25697 4.284 8.77697 4.148 9.42497 4.148C10.065 4.148 10.581 4.276 10.973 4.532C11.365 4.788 11.649 5.148 11.825 5.612C12.009 6.068 12.101 6.608 12.101 7.232V10.856C12.101 11.488 12.025 12.052 11.873 12.548C11.729 13.044 11.465 13.436 11.081 13.724C10.697 14.004 10.145 14.144 9.42497 14.144ZM9.44897 8.84C9.60897 8.84 9.73697 8.796 9.83297 8.708C9.92897 8.62 10.005 8.536 10.061 8.456V6.872C10.061 6.648 10.045 6.444 10.013 6.26C9.98097 6.068 9.92097 5.916 9.83297 5.804C9.74497 5.684 9.60897 5.624 9.42497 5.624C9.24897 5.624 9.11697 5.688 9.02897 5.816C8.94097 5.936 8.88097 6.12 8.84897 6.368C8.82497 6.608 8.81297 6.908 8.81297 7.268C8.81297 7.58 8.82097 7.856 8.83697 8.096C8.86097 8.328 8.91697 8.512 9.00497 8.648C9.09297 8.776 9.24097 8.84 9.44897 8.84Z"></path>
</svg>
