<svg xmlns="http://www.w3.org/2000/svg" fill="none" viewBox="0 0 214 84" height="84" width="214">
<mask fill="white" id="path-1-inside-1_1434_49">
<path d="M0 0H214V84H0V0Z"></path>
</mask>
<path fill="#0D0E12" d="M0 0H214V84H0V0Z"></path>
<path mask="url(#path-1-inside-1_1434_49)" fill="white" d="M0 0V-1H-1V0H0ZM0 84H-1V85H0V84ZM0 1H214V-1H0V1ZM214 83H0V85H214V83ZM1 84V0H-1V84H1Z"></path>
<path fill="#FF0000" d="M16.72 38V28.28H18.868V36.548H21.1V38H16.72ZM24.672 38.144C23.944 38.144 23.368 38.016 22.944 37.76C22.52 37.504 22.216 37.136 22.032 36.656C21.848 36.176 21.756 35.604 21.756 34.94V31.328C21.756 30.656 21.848 30.084 22.032 29.612C22.216 29.14 22.52 28.78 22.944 28.532C23.368 28.276 23.944 28.148 24.672 28.148C25.408 28.148 25.988 28.276 26.412 28.532C26.844 28.78 27.152 29.14 27.336 29.612C27.52 30.084 27.612 30.656 27.612 31.328V34.94C27.612 35.604 27.52 36.176 27.336 36.656C27.152 37.136 26.844 37.504 26.412 37.76C25.988 38.016 25.408 38.144 24.672 38.144ZM24.672 36.62C24.896 36.62 25.06 36.564 25.164 36.452C25.268 36.34 25.336 36.196 25.368 36.02C25.4 35.844 25.416 35.664 25.416 35.48V30.8C25.416 30.608 25.4 30.428 25.368 30.26C25.336 30.084 25.268 29.94 25.164 29.828C25.06 29.716 24.896 29.66 24.672 29.66C24.464 29.66 24.308 29.716 24.204 29.828C24.1 29.94 24.032 30.084 24 30.26C23.968 30.428 23.952 30.608 23.952 30.8V35.48C23.952 35.664 23.964 35.844 23.988 36.02C24.02 36.196 24.084 36.34 24.18 36.452C24.284 36.564 24.448 36.62 24.672 36.62ZM31.4992 38.144C30.8912 38.144 30.3832 38.036 29.9752 37.82C29.5672 37.604 29.2592 37.272 29.0512 36.824C28.8432 36.368 28.7272 35.78 28.7032 35.06L30.5392 34.784C30.5472 35.2 30.5832 35.536 30.6472 35.792C30.7192 36.048 30.8152 36.232 30.9352 36.344C31.0632 36.456 31.2152 36.512 31.3912 36.512C31.6152 36.512 31.7592 36.436 31.8232 36.284C31.8952 36.132 31.9312 35.972 31.9312 35.804C31.9312 35.404 31.8352 35.068 31.6432 34.796C31.4512 34.516 31.1912 34.236 30.8632 33.956L30.0232 33.224C29.6552 32.912 29.3432 32.56 29.0872 32.168C28.8392 31.768 28.7152 31.276 28.7152 30.692C28.7152 29.868 28.9592 29.24 29.4472 28.808C29.9352 28.368 30.5992 28.148 31.4392 28.148C31.9592 28.148 32.3752 28.236 32.6872 28.412C33.0072 28.588 33.2472 28.82 33.4072 29.108C33.5752 29.388 33.6872 29.688 33.7432 30.008C33.8072 30.32 33.8432 30.62 33.8512 30.908L32.0032 31.136C31.9952 30.848 31.9752 30.6 31.9432 30.392C31.9192 30.176 31.8632 30.012 31.7752 29.9C31.6872 29.78 31.5512 29.72 31.3672 29.72C31.1672 29.72 31.0192 29.804 30.9232 29.972C30.8352 30.14 30.7912 30.308 30.7912 30.476C30.7912 30.836 30.8752 31.132 31.0432 31.364C31.2192 31.588 31.4472 31.824 31.7272 32.072L32.5312 32.78C32.9552 33.14 33.3112 33.548 33.5992 34.004C33.8952 34.46 34.0432 35.024 34.0432 35.696C34.0432 36.152 33.9392 36.568 33.7312 36.944C33.5232 37.312 33.2272 37.604 32.8432 37.82C32.4672 38.036 32.0192 38.144 31.4992 38.144ZM37.4758 38.144C36.8678 38.144 36.3598 38.036 35.9518 37.82C35.5438 37.604 35.2358 37.272 35.0278 36.824C34.8198 36.368 34.7038 35.78 34.6798 35.06L36.5158 34.784C36.5238 35.2 36.5598 35.536 36.6238 35.792C36.6958 36.048 36.7918 36.232 36.9118 36.344C37.0398 36.456 37.1918 36.512 37.3678 36.512C37.5918 36.512 37.7358 36.436 37.7998 36.284C37.8718 36.132 37.9078 35.972 37.9078 35.804C37.9078 35.404 37.8118 35.068 37.6198 34.796C37.4278 34.516 37.1678 34.236 36.8398 33.956L35.9998 33.224C35.6318 32.912 35.3198 32.56 35.0638 32.168C34.8158 31.768 34.6918 31.276 34.6918 30.692C34.6918 29.868 34.9358 29.24 35.4238 28.808C35.9118 28.368 36.5758 28.148 37.4158 28.148C37.9358 28.148 38.3518 28.236 38.6638 28.412C38.9838 28.588 39.2238 28.82 39.3838 29.108C39.5518 29.388 39.6638 29.688 39.7198 30.008C39.7838 30.32 39.8198 30.62 39.8278 30.908L37.9798 31.136C37.9718 30.848 37.9518 30.6 37.9198 30.392C37.8958 30.176 37.8398 30.012 37.7518 29.9C37.6638 29.78 37.5278 29.72 37.3438 29.72C37.1438 29.72 36.9958 29.804 36.8998 29.972C36.8118 30.14 36.7678 30.308 36.7678 30.476C36.7678 30.836 36.8518 31.132 37.0198 31.364C37.1958 31.588 37.4238 31.824 37.7038 32.072L38.5078 32.78C38.9318 33.14 39.2878 33.548 39.5758 34.004C39.8718 34.46 40.0198 35.024 40.0198 35.696C40.0198 36.152 39.9158 36.568 39.7078 36.944C39.4998 37.312 39.2038 37.604 38.8198 37.82C38.4438 38.036 37.9958 38.144 37.4758 38.144Z"></path>
<path fill="white" d="M17.87 56V53.14L16.12 47.9H17.17L18.41 51.81L19.63 47.9H20.69L18.95 53.14V56H17.87ZM22.7491 56.08C22.3225 56.08 21.9858 55.9933 21.7391 55.82C21.4925 55.6467 21.3158 55.4 21.2091 55.08C21.1091 54.76 21.0591 54.3833 21.0591 53.95V52.27C21.0591 51.8367 21.1091 51.46 21.2091 51.14C21.3158 50.82 21.4925 50.5733 21.7391 50.4C21.9858 50.2267 22.3225 50.14 22.7491 50.14C23.1758 50.14 23.5091 50.2267 23.7491 50.4C23.9958 50.5733 24.1691 50.82 24.2691 51.14C24.3758 51.46 24.4291 51.8367 24.4291 52.27V53.95C24.4291 54.3833 24.3758 54.76 24.2691 55.08C24.1691 55.4 23.9958 55.6467 23.7491 55.82C23.5091 55.9933 23.1758 56.08 22.7491 56.08ZM22.7491 55.29C22.9558 55.29 23.0991 55.23 23.1791 55.11C23.2658 54.99 23.3158 54.8333 23.3291 54.64C23.3491 54.44 23.3591 54.2333 23.3591 54.02V52.21C23.3591 51.99 23.3491 51.7833 23.3291 51.59C23.3158 51.3967 23.2658 51.24 23.1791 51.12C23.0991 50.9933 22.9558 50.93 22.7491 50.93C22.5425 50.93 22.3958 50.9933 22.3091 51.12C22.2225 51.24 22.1691 51.3967 22.1491 51.59C22.1358 51.7833 22.1291 51.99 22.1291 52.21V54.02C22.1291 54.2333 22.1358 54.44 22.1491 54.64C22.1691 54.8333 22.2225 54.99 22.3091 55.11C22.3958 55.23 22.5425 55.29 22.7491 55.29ZM26.2372 56.08C26.0105 56.08 25.8339 56.02 25.7072 55.9C25.5805 55.78 25.4905 55.63 25.4372 55.45C25.3905 55.27 25.3672 55.0867 25.3672 54.9V50.22H26.4372V54.58C26.4372 54.7867 26.4672 54.95 26.5272 55.07C26.5872 55.1833 26.7105 55.24 26.8972 55.24C27.0172 55.24 27.1405 55.2067 27.2672 55.14C27.4005 55.0667 27.5272 54.98 27.6472 54.88V50.22H28.7172V56H27.6472V55.43C27.4605 55.61 27.2472 55.7633 27.0072 55.89C26.7739 56.0167 26.5172 56.08 26.2372 56.08ZM29.4715 50.38V47.9H30.4415L30.0515 50.38H29.4715ZM31.831 56L30.691 50.22H31.771L32.481 54.87L33.201 50.22H34.241L33.141 56H31.831ZM36.5287 56.08C36.0753 56.08 35.7253 55.9933 35.4787 55.82C35.232 55.64 35.0587 55.38 34.9587 55.04C34.8653 54.6933 34.8187 54.27 34.8187 53.77V52.45C34.8187 51.9367 34.8687 51.51 34.9687 51.17C35.0687 50.83 35.242 50.5733 35.4887 50.4C35.742 50.2267 36.0887 50.14 36.5287 50.14C37.0153 50.14 37.372 50.24 37.5987 50.44C37.832 50.64 37.9853 50.93 38.0587 51.31C38.132 51.6833 38.1687 52.1333 38.1687 52.66V53.13H35.8887V54.29C35.8887 54.5233 35.9087 54.7133 35.9487 54.86C35.9953 55.0067 36.0653 55.1167 36.1587 55.19C36.2587 55.2567 36.3853 55.29 36.5387 55.29C36.6987 55.29 36.8187 55.2533 36.8987 55.18C36.9853 55.1 37.042 54.99 37.0687 54.85C37.102 54.7033 37.1187 54.5333 37.1187 54.34V53.99H38.1587V54.21C38.1587 54.79 38.0353 55.2467 37.7887 55.58C37.542 55.9133 37.122 56.08 36.5287 56.08ZM35.8887 52.55H37.1187V52.03C37.1187 51.79 37.1053 51.59 37.0787 51.43C37.052 51.2633 36.9953 51.14 36.9087 51.06C36.8287 50.9733 36.6987 50.93 36.5187 50.93C36.3453 50.93 36.212 50.97 36.1187 51.05C36.032 51.13 35.972 51.2667 35.9387 51.46C35.9053 51.6467 35.8887 51.9067 35.8887 52.24V52.55ZM43.4928 56.08C43.2861 56.08 43.0995 56.03 42.9328 55.93C42.7728 55.8233 42.6328 55.7067 42.5128 55.58V56H41.4428V47.9H42.5128V50.68C42.6395 50.5333 42.7895 50.4067 42.9628 50.3C43.1428 50.1933 43.3561 50.14 43.6028 50.14C43.9028 50.14 44.1395 50.22 44.3128 50.38C44.4928 50.5333 44.6261 50.73 44.7128 50.97C44.7995 51.2033 44.8561 51.4433 44.8828 51.69C44.9095 51.93 44.9228 52.1367 44.9228 52.31V53.71C44.9228 54.1167 44.8828 54.5033 44.8028 54.87C44.7228 55.23 44.5795 55.5233 44.3728 55.75C44.1661 55.97 43.8728 56.08 43.4928 56.08ZM43.2728 55.24C43.4595 55.24 43.5928 55.1733 43.6728 55.04C43.7528 54.9 43.8028 54.7133 43.8228 54.48C43.8428 54.2467 43.8528 53.99 43.8528 53.71V52.31C43.8528 52.07 43.8395 51.85 43.8128 51.65C43.7861 51.4433 43.7295 51.28 43.6428 51.16C43.5561 51.04 43.4195 50.98 43.2328 50.98C43.0928 50.98 42.9595 51.01 42.8328 51.07C42.7128 51.13 42.6061 51.1967 42.5128 51.27V54.98C42.6061 55.0533 42.7161 55.1167 42.8428 55.17C42.9761 55.2167 43.1195 55.24 43.2728 55.24ZM47.4955 56.08C47.0421 56.08 46.6921 55.9933 46.4455 55.82C46.1988 55.64 46.0255 55.38 45.9255 55.04C45.8321 54.6933 45.7855 54.27 45.7855 53.77V52.45C45.7855 51.9367 45.8355 51.51 45.9355 51.17C46.0355 50.83 46.2088 50.5733 46.4555 50.4C46.7088 50.2267 47.0555 50.14 47.4955 50.14C47.9821 50.14 48.3388 50.24 48.5655 50.44C48.7988 50.64 48.9521 50.93 49.0255 51.31C49.0988 51.6833 49.1355 52.1333 49.1355 52.66V53.13H46.8555V54.29C46.8555 54.5233 46.8755 54.7133 46.9155 54.86C46.9621 55.0067 47.0321 55.1167 47.1255 55.19C47.2255 55.2567 47.3521 55.29 47.5055 55.29C47.6655 55.29 47.7855 55.2533 47.8655 55.18C47.9521 55.1 48.0088 54.99 48.0355 54.85C48.0688 54.7033 48.0855 54.5333 48.0855 54.34V53.99H49.1255V54.21C49.1255 54.79 49.0021 55.2467 48.7555 55.58C48.5088 55.9133 48.0888 56.08 47.4955 56.08ZM46.8555 52.55H48.0855V52.03C48.0855 51.79 48.0721 51.59 48.0455 51.43C48.0188 51.2633 47.9621 51.14 47.8755 51.06C47.7955 50.9733 47.6655 50.93 47.4855 50.93C47.3121 50.93 47.1788 50.97 47.0855 51.05C46.9988 51.13 46.9388 51.2667 46.9055 51.46C46.8721 51.6467 46.8555 51.9067 46.8555 52.24V52.55ZM51.7045 56.08C51.2511 56.08 50.9011 55.9933 50.6545 55.82C50.4078 55.64 50.2345 55.38 50.1345 55.04C50.0411 54.6933 49.9945 54.27 49.9945 53.77V52.45C49.9945 51.9367 50.0445 51.51 50.1445 51.17C50.2445 50.83 50.4178 50.5733 50.6645 50.4C50.9178 50.2267 51.2645 50.14 51.7045 50.14C52.1911 50.14 52.5478 50.24 52.7745 50.44C53.0078 50.64 53.1611 50.93 53.2345 51.31C53.3078 51.6833 53.3445 52.1333 53.3445 52.66V53.13H51.0645V54.29C51.0645 54.5233 51.0845 54.7133 51.1245 54.86C51.1711 55.0067 51.2411 55.1167 51.3345 55.19C51.4345 55.2567 51.5611 55.29 51.7145 55.29C51.8745 55.29 51.9945 55.2533 52.0745 55.18C52.1611 55.1 52.2178 54.99 52.2445 54.85C52.2778 54.7033 52.2945 54.5333 52.2945 54.34V53.99H53.3345V54.21C53.3345 54.79 53.2111 55.2467 52.9645 55.58C52.7178 55.9133 52.2978 56.08 51.7045 56.08ZM51.0645 52.55H52.2945V52.03C52.2945 51.79 52.2811 51.59 52.2545 51.43C52.2278 51.2633 52.1711 51.14 52.0845 51.06C52.0045 50.9733 51.8745 50.93 51.6945 50.93C51.5211 50.93 51.3878 50.97 51.2945 51.05C51.2078 51.13 51.1478 51.2667 51.1145 51.46C51.0811 51.6467 51.0645 51.9067 51.0645 52.24V52.55ZM54.3134 56V50.22H55.3834V50.79C55.5768 50.61 55.7901 50.4567 56.0234 50.33C56.2568 50.2033 56.5134 50.14 56.7934 50.14C57.0268 50.14 57.2034 50.2 57.3234 50.32C57.4501 50.44 57.5368 50.59 57.5834 50.77C57.6368 50.95 57.6634 51.1333 57.6634 51.32V56H56.5934V51.63C56.5934 51.4233 56.5634 51.2633 56.5034 51.15C56.4434 51.0367 56.3201 50.98 56.1334 50.98C56.0134 50.98 55.8868 51.0167 55.7534 51.09C55.6268 51.1567 55.5034 51.24 55.3834 51.34V56H54.3134ZM62.5731 56.08C62.0998 56.08 61.7398 55.9867 61.4931 55.8C61.2531 55.6067 61.0898 55.3367 61.0031 54.99C60.9231 54.6433 60.8831 54.24 60.8831 53.78V52.45C60.8831 51.9633 60.9265 51.55 61.0131 51.21C61.0998 50.8633 61.2631 50.6 61.5031 50.42C61.7498 50.2333 62.1065 50.14 62.5731 50.14C62.9931 50.14 63.3165 50.21 63.5431 50.35C63.7765 50.4833 63.9365 50.6867 64.0231 50.96C64.1098 51.2267 64.1531 51.56 64.1531 51.96V52.3H63.1831V51.95C63.1831 51.6967 63.1665 51.4967 63.1331 51.35C63.0998 51.2033 63.0398 51.0967 62.9531 51.03C62.8665 50.9633 62.7431 50.93 62.5831 50.93C62.4098 50.93 62.2765 50.97 62.1831 51.05C62.0898 51.13 62.0265 51.2667 61.9931 51.46C61.9665 51.6467 61.9531 51.9033 61.9531 52.23V54.05C61.9531 54.5433 61.9998 54.8733 62.0931 55.04C62.1865 55.2067 62.3531 55.29 62.5931 55.29C62.7731 55.29 62.9031 55.25 62.9831 55.17C63.0698 55.0833 63.1231 54.9633 63.1431 54.81C63.1698 54.6567 63.1831 54.4833 63.1831 54.29V53.82H64.1531V54.22C64.1531 54.6067 64.1065 54.94 64.0131 55.22C63.9265 55.5 63.7665 55.7133 63.5331 55.86C63.3065 56.0067 62.9865 56.08 62.5731 56.08ZM65.1345 56V47.9H66.2045V50.82C66.3978 50.6333 66.6145 50.4733 66.8545 50.34C67.0945 50.2067 67.3611 50.14 67.6545 50.14C67.8811 50.14 68.0545 50.2 68.1745 50.32C68.3011 50.44 68.3878 50.59 68.4345 50.77C68.4878 50.95 68.5145 51.1333 68.5145 51.32V56H67.4445V51.63C67.4445 51.4233 67.4145 51.2633 67.3545 51.15C67.2945 51.0367 67.1711 50.98 66.9845 50.98C66.8578 50.98 66.7245 51.0167 66.5845 51.09C66.4511 51.1633 66.3245 51.2533 66.2045 51.36V56H65.1345ZM71.1576 56.08C70.7042 56.08 70.3542 55.9933 70.1076 55.82C69.8609 55.64 69.6876 55.38 69.5876 55.04C69.4942 54.6933 69.4476 54.27 69.4476 53.77V52.45C69.4476 51.9367 69.4976 51.51 69.5976 51.17C69.6976 50.83 69.8709 50.5733 70.1176 50.4C70.3709 50.2267 70.7176 50.14 71.1576 50.14C71.6442 50.14 72.0009 50.24 72.2276 50.44C72.4609 50.64 72.6142 50.93 72.6876 51.31C72.7609 51.6833 72.7976 52.1333 72.7976 52.66V53.13H70.5176V54.29C70.5176 54.5233 70.5376 54.7133 70.5776 54.86C70.6242 55.0067 70.6942 55.1167 70.7876 55.19C70.8876 55.2567 71.0142 55.29 71.1676 55.29C71.3276 55.29 71.4476 55.2533 71.5276 55.18C71.6142 55.1 71.6709 54.99 71.6976 54.85C71.7309 54.7033 71.7476 54.5333 71.7476 54.34V53.99H72.7876V54.21C72.7876 54.79 72.6642 55.2467 72.4176 55.58C72.1709 55.9133 71.7509 56.08 71.1576 56.08ZM70.5176 52.55H71.7476V52.03C71.7476 51.79 71.7342 51.59 71.7076 51.43C71.6809 51.2633 71.6242 51.14 71.5376 51.06C71.4576 50.9733 71.3276 50.93 71.1476 50.93C70.9742 50.93 70.8409 50.97 70.7476 51.05C70.6609 51.13 70.6009 51.2667 70.5676 51.46C70.5342 51.6467 70.5176 51.9067 70.5176 52.24V52.55ZM75.3466 56.08C74.8732 56.08 74.5132 55.9867 74.2666 55.8C74.0266 55.6067 73.8632 55.3367 73.7766 54.99C73.6966 54.6433 73.6566 54.24 73.6566 53.78V52.45C73.6566 51.9633 73.6999 51.55 73.7866 51.21C73.8732 50.8633 74.0366 50.6 74.2766 50.42C74.5232 50.2333 74.8799 50.14 75.3466 50.14C75.7666 50.14 76.0899 50.21 76.3166 50.35C76.5499 50.4833 76.7099 50.6867 76.7966 50.96C76.8832 51.2267 76.9266 51.56 76.9266 51.96V52.3H75.9566V51.95C75.9566 51.6967 75.9399 51.4967 75.9066 51.35C75.8732 51.2033 75.8132 51.0967 75.7266 51.03C75.6399 50.9633 75.5166 50.93 75.3566 50.93C75.1832 50.93 75.0499 50.97 74.9566 51.05C74.8632 51.13 74.7999 51.2667 74.7666 51.46C74.7399 51.6467 74.7266 51.9033 74.7266 52.23V54.05C74.7266 54.5433 74.7732 54.8733 74.8666 55.04C74.9599 55.2067 75.1266 55.29 75.3666 55.29C75.5466 55.29 75.6766 55.25 75.7566 55.17C75.8432 55.0833 75.8966 54.9633 75.9166 54.81C75.9432 54.6567 75.9566 54.4833 75.9566 54.29V53.82H76.9266V54.22C76.9266 54.6067 76.8799 54.94 76.7866 55.22C76.6999 55.5 76.5399 55.7133 76.3066 55.86C76.0799 56.0067 75.7599 56.08 75.3466 56.08ZM77.8979 55.99V47.89H78.9679V52.72L80.5279 50.22H81.6479L80.2879 52.48L81.6079 56H80.5379L79.4579 53.04L78.9679 53.78V55.99H77.8979ZM82.165 56V50.22H83.155V50.77C83.3483 50.55 83.5617 50.3867 83.795 50.28C84.0283 50.1733 84.2683 50.12 84.515 50.12C84.7283 50.12 84.9183 50.1733 85.085 50.28C85.2583 50.3867 85.3817 50.5767 85.455 50.85C85.6617 50.5967 85.885 50.4133 86.125 50.3C86.3717 50.18 86.6283 50.12 86.895 50.12C87.0817 50.12 87.2517 50.1667 87.405 50.26C87.5583 50.3467 87.6817 50.49 87.775 50.69C87.8683 50.8833 87.915 51.14 87.915 51.46V56H86.935V51.53C86.935 51.25 86.8883 51.0633 86.795 50.97C86.7083 50.87 86.5883 50.82 86.435 50.82C86.2883 50.82 86.135 50.8633 85.975 50.95C85.815 51.03 85.6683 51.1433 85.535 51.29C85.535 51.3167 85.535 51.3433 85.535 51.37C85.535 51.3967 85.535 51.4267 85.535 51.46V56H84.555V51.53C84.555 51.25 84.5083 51.0633 84.415 50.97C84.3283 50.87 84.2083 50.82 84.055 50.82C83.9083 50.82 83.755 50.8633 83.595 50.95C83.4417 51.03 83.295 51.1433 83.155 51.29V56H82.165ZM90.0019 56.08C89.7752 56.08 89.5752 56.0167 89.4019 55.89C89.2285 55.7567 89.0919 55.59 88.9919 55.39C88.8919 55.1833 88.8419 54.9667 88.8419 54.74C88.8419 54.38 88.9019 54.0767 89.0219 53.83C89.1419 53.5833 89.3052 53.3767 89.5119 53.21C89.7252 53.0367 89.9685 52.8867 90.2419 52.76C90.5219 52.6333 90.8152 52.51 91.1219 52.39V51.98C91.1219 51.7467 91.1085 51.5533 91.0819 51.4C91.0552 51.2467 90.9985 51.1333 90.9119 51.06C90.8319 50.98 90.7085 50.94 90.5419 50.94C90.3952 50.94 90.2752 50.9733 90.1819 51.04C90.0952 51.1067 90.0319 51.2033 89.9919 51.33C89.9519 51.45 89.9319 51.5933 89.9319 51.76V52.05L88.8719 52.01C88.8852 51.37 89.0319 50.9 89.3119 50.6C89.5919 50.2933 90.0252 50.14 90.6119 50.14C91.1852 50.14 91.5919 50.2967 91.8319 50.61C92.0719 50.9233 92.1919 51.3767 92.1919 51.97V54.61C92.1919 54.79 92.1952 54.9633 92.2019 55.13C92.2152 55.2967 92.2285 55.4533 92.2419 55.6C92.2619 55.74 92.2785 55.8733 92.2919 56H91.3119C91.2919 55.8933 91.2652 55.76 91.2319 55.6C91.2052 55.4333 91.1852 55.2833 91.1719 55.15C91.1052 55.3767 90.9752 55.59 90.7819 55.79C90.5952 55.9833 90.3352 56.08 90.0019 56.08ZM90.4219 55.16C90.5285 55.16 90.6285 55.13 90.7219 55.07C90.8152 55.01 90.8985 54.9433 90.9719 54.87C91.0452 54.79 91.0952 54.7267 91.1219 54.68V53.04C90.9552 53.1333 90.7985 53.2267 90.6519 53.32C90.5052 53.4133 90.3752 53.5133 90.2619 53.62C90.1552 53.72 90.0685 53.8367 90.0019 53.97C89.9419 54.0967 89.9119 54.2433 89.9119 54.41C89.9119 54.6433 89.9552 54.8267 90.0419 54.96C90.1285 55.0933 90.2552 55.16 90.4219 55.16ZM94.6816 56.08C94.3816 56.08 94.1382 56.0233 93.9516 55.91C93.7716 55.7967 93.6382 55.6367 93.5516 55.43C93.4716 55.2233 93.4316 54.98 93.4316 54.7V50.93H92.8216V50.22H93.4316V48.53H94.5016V50.22H95.4316V50.93H94.5016V54.63C94.5016 54.8567 94.5382 55.02 94.6116 55.12C94.6849 55.2133 94.8249 55.26 95.0316 55.26C95.0849 55.26 95.1449 55.2567 95.2116 55.25C95.2849 55.2433 95.3549 55.2367 95.4216 55.23V56.02C95.2882 56.04 95.1649 56.0533 95.0516 56.06C94.9382 56.0733 94.8149 56.08 94.6816 56.08ZM97.8177 56.08C97.3644 56.08 97.0144 55.9933 96.7677 55.82C96.5211 55.64 96.3477 55.38 96.2477 55.04C96.1544 54.6933 96.1077 54.27 96.1077 53.77V52.45C96.1077 51.9367 96.1577 51.51 96.2577 51.17C96.3577 50.83 96.5311 50.5733 96.7777 50.4C97.0311 50.2267 97.3777 50.14 97.8177 50.14C98.3044 50.14 98.6611 50.24 98.8877 50.44C99.1211 50.64 99.2744 50.93 99.3477 51.31C99.4211 51.6833 99.4577 52.1333 99.4577 52.66V53.13H97.1777V54.29C97.1777 54.5233 97.1977 54.7133 97.2377 54.86C97.2844 55.0067 97.3544 55.1167 97.4477 55.19C97.5477 55.2567 97.6744 55.29 97.8277 55.29C97.9877 55.29 98.1077 55.2533 98.1877 55.18C98.2744 55.1 98.3311 54.99 98.3577 54.85C98.3911 54.7033 98.4077 54.5333 98.4077 54.34V53.99H99.4477V54.21C99.4477 54.79 99.3244 55.2467 99.0777 55.58C98.8311 55.9133 98.4111 56.08 97.8177 56.08ZM97.1777 52.55H98.4077V52.03C98.4077 51.79 98.3944 51.59 98.3677 51.43C98.3411 51.2633 98.2844 51.14 98.1977 51.06C98.1177 50.9733 97.9877 50.93 97.8077 50.93C97.6344 50.93 97.5011 50.97 97.4077 51.05C97.3211 51.13 97.2611 51.2667 97.2277 51.46C97.1944 51.6467 97.1777 51.9067 97.1777 52.24V52.55ZM101.767 56.08C101.28 56.08 100.917 55.9033 100.677 55.55C100.437 55.19 100.317 54.5833 100.317 53.73V52.61C100.317 52.17 100.353 51.7633 100.427 51.39C100.5 51.01 100.637 50.7067 100.837 50.48C101.043 50.2533 101.343 50.14 101.737 50.14C101.93 50.14 102.107 50.1833 102.267 50.27C102.427 50.3567 102.57 50.4633 102.697 50.59V47.9H103.767V56H102.697V55.63C102.57 55.7633 102.43 55.8733 102.277 55.96C102.13 56.04 101.96 56.08 101.767 56.08ZM102.037 55.24C102.137 55.24 102.243 55.2233 102.357 55.19C102.47 55.15 102.583 55.0933 102.697 55.02V51.23C102.603 51.1633 102.5 51.1067 102.387 51.06C102.273 51.0067 102.15 50.98 102.017 50.98C101.77 50.98 101.603 51.1 101.517 51.34C101.43 51.5733 101.387 51.8567 101.387 52.19V53.82C101.387 54.0867 101.4 54.33 101.427 54.55C101.46 54.7633 101.523 54.9333 101.617 55.06C101.71 55.18 101.85 55.24 102.037 55.24Z"></path>
</svg>
