<svg xmlns="http://www.w3.org/2000/svg" fill="none" viewBox="0 0 214 84" height="84" width="214">
<mask fill="white" id="path-1-inside-1_1507_16">
<path d="M0 0H214V84H0V0Z"></path>
</mask>
<path fill="#0D0E12" d="M0 0H214V84H0V0Z"></path>
<path mask="url(#path-1-inside-1_1507_16)" fill="white" d="M0 0V-1H-1V0H0ZM0 84H-1V85H0V84ZM0 1H214V-1H0V1ZM214 83H0V85H214V83ZM1 84V0H-1V84H1Z"></path>
<path fill="white" d="M16.252 31L18.088 21.28H20.536L22.348 31H20.368L20.044 28.948H18.616L18.28 31H16.252ZM18.808 27.664H19.84L19.324 23.872L18.808 27.664ZM23.3294 31V21.28H26.0054C26.6614 21.28 27.2294 21.352 27.7094 21.496C28.1894 21.64 28.5614 21.9 28.8254 22.276C29.0974 22.644 29.2334 23.168 29.2334 23.848C29.2334 24.248 29.2014 24.604 29.1374 24.916C29.0734 25.228 28.9534 25.5 28.7774 25.732C28.6094 25.956 28.3654 26.144 28.0454 26.296L29.3774 31H27.1574L26.0894 26.644H25.4774V31H23.3294ZM25.4774 25.408H26.0774C26.3814 25.408 26.6174 25.356 26.7854 25.252C26.9534 25.14 27.0694 24.984 27.1334 24.784C27.2054 24.576 27.2414 24.328 27.2414 24.04C27.2414 23.624 27.1654 23.3 27.0134 23.068C26.8614 22.836 26.5814 22.72 26.1734 22.72H25.4774V25.408ZM30.5247 31V21.28H34.8927V22.744H32.6727V25.156H34.3647V26.644H32.6727V29.548H34.9167V31H30.5247ZM40.1862 31V27.028L38.3382 21.28H40.3662L41.2902 24.352L42.1182 21.28H44.0622L42.2502 27.028V31H40.1862ZM47.4767 31.144C46.7487 31.144 46.1727 31.016 45.7487 30.76C45.3247 30.504 45.0207 30.136 44.8367 29.656C44.6527 29.176 44.5607 28.604 44.5607 27.94V24.328C44.5607 23.656 44.6527 23.084 44.8367 22.612C45.0207 22.14 45.3247 21.78 45.7487 21.532C46.1727 21.276 46.7487 21.148 47.4767 21.148C48.2127 21.148 48.7927 21.276 49.2167 21.532C49.6487 21.78 49.9567 22.14 50.1407 22.612C50.3247 23.084 50.4167 23.656 50.4167 24.328V27.94C50.4167 28.604 50.3247 29.176 50.1407 29.656C49.9567 30.136 49.6487 30.504 49.2167 30.76C48.7927 31.016 48.2127 31.144 47.4767 31.144ZM47.4767 29.62C47.7007 29.62 47.8647 29.564 47.9687 29.452C48.0727 29.34 48.1407 29.196 48.1727 29.02C48.2047 28.844 48.2207 28.664 48.2207 28.48V23.8C48.2207 23.608 48.2047 23.428 48.1727 23.26C48.1407 23.084 48.0727 22.94 47.9687 22.828C47.8647 22.716 47.7007 22.66 47.4767 22.66C47.2687 22.66 47.1127 22.716 47.0087 22.828C46.9047 22.94 46.8367 23.084 46.8047 23.26C46.7727 23.428 46.7567 23.608 46.7567 23.8V28.48C46.7567 28.664 46.7687 28.844 46.7927 29.02C46.8247 29.196 46.8887 29.34 46.9847 29.452C47.0887 29.564 47.2527 29.62 47.4767 29.62ZM54.5319 31.144C53.7879 31.144 53.2039 31.024 52.7799 30.784C52.3639 30.536 52.0719 30.18 51.9039 29.716C51.7359 29.244 51.6519 28.668 51.6519 27.988V21.28H53.7759V28.312C53.7759 28.512 53.7919 28.712 53.8239 28.912C53.8559 29.112 53.9239 29.276 54.0279 29.404C54.1399 29.532 54.3079 29.596 54.5319 29.596C54.7639 29.596 54.9319 29.532 55.0359 29.404C55.1399 29.276 55.2039 29.112 55.2279 28.912C55.2599 28.712 55.2759 28.512 55.2759 28.312V21.28H57.4119V27.988C57.4119 28.668 57.3239 29.244 57.1479 29.716C56.9799 30.18 56.6879 30.536 56.2719 30.784C55.8559 31.024 55.2759 31.144 54.5319 31.144ZM61.8489 31V21.28H63.9969V29.548H66.2289V31H61.8489ZM67.1692 31V21.28H71.5372V22.744H69.3172V25.156H71.0092V26.644H69.3172V29.548H71.5612V31H67.1692ZM72.0684 31L73.9044 21.28H76.3524L78.1644 31H76.1844L75.8604 28.948H74.4324L74.0964 31H72.0684ZM74.6244 27.664H75.6564L75.1404 23.872L74.6244 27.664ZM80.0668 31L78.3148 21.28H80.1508L81.1948 27.88L82.1668 21.28H84.1108L82.3348 31H80.0668ZM85.0992 31V21.28H87.2472V31H85.0992ZM88.6966 31V21.28H90.2086L92.2006 25.96V21.28H93.9766V31H92.5246L90.5326 25.96V31H88.6966ZM97.9551 31.144C97.2831 31.144 96.7511 31.004 96.3591 30.724C95.9751 30.444 95.6991 30.052 95.5311 29.548C95.3711 29.036 95.2911 28.448 95.2911 27.784V24.52C95.2911 23.832 95.3791 23.236 95.5551 22.732C95.7311 22.228 96.0311 21.84 96.4551 21.568C96.8871 21.288 97.4711 21.148 98.2071 21.148C98.9271 21.148 99.4911 21.268 99.8991 21.508C100.315 21.748 100.611 22.08 100.787 22.504C100.963 22.928 101.051 23.424 101.051 23.992V24.616H98.9511V23.824C98.9511 23.616 98.9351 23.424 98.9031 23.248C98.8791 23.072 98.8151 22.932 98.7111 22.828C98.6151 22.716 98.4551 22.66 98.2311 22.66C97.9991 22.66 97.8311 22.724 97.7271 22.852C97.6231 22.972 97.5551 23.124 97.5231 23.308C97.4991 23.492 97.4871 23.684 97.4871 23.884V28.384C97.4871 28.6 97.5071 28.804 97.5471 28.996C97.5951 29.18 97.6751 29.332 97.7871 29.452C97.9071 29.564 98.0751 29.62 98.2911 29.62C98.5151 29.62 98.6871 29.56 98.8071 29.44C98.9271 29.32 99.0111 29.164 99.0591 28.972C99.1071 28.78 99.1311 28.576 99.1311 28.36V27.22H98.2551V25.96H101.063V31H99.6471L99.5271 30.196C99.3991 30.468 99.2111 30.696 98.9631 30.88C98.7151 31.056 98.3791 31.144 97.9551 31.144ZM103.236 28.444V26.896C103.596 26.616 103.92 26.304 104.208 25.96C104.496 25.616 104.724 25.252 104.892 24.868C105.06 24.476 105.144 24.072 105.144 23.656C105.144 23.36 105.088 23.148 104.976 23.02C104.872 22.884 104.716 22.816 104.508 22.816C104.316 22.816 104.164 22.872 104.052 22.984C103.948 23.096 103.896 23.252 103.896 23.452C103.896 23.58 103.908 23.696 103.932 23.8C103.964 23.896 104 24 104.04 24.112L102.276 24.52C102.212 24.328 102.16 24.144 102.12 23.968C102.088 23.784 102.072 23.592 102.072 23.392C102.072 22.688 102.284 22.14 102.708 21.748C103.14 21.348 103.756 21.148 104.556 21.148C105.364 21.148 105.984 21.36 106.416 21.784C106.856 22.208 107.076 22.812 107.076 23.596C107.076 24.076 106.996 24.532 106.836 24.964C106.676 25.396 106.44 25.804 106.128 26.188C105.824 26.572 105.452 26.932 105.012 27.268V28.444H103.236ZM103.176 31V29.14H105.084V31H103.176Z"></path>
<path fill="white" d="M16.63 49V40.9H18.39C18.99 40.9 19.4633 40.9933 19.81 41.18C20.1633 41.36 20.4133 41.6333 20.56 42C20.7133 42.3667 20.79 42.8233 20.79 43.37V46.35C20.79 46.9233 20.7133 47.4067 20.56 47.8C20.4133 48.1933 20.17 48.4933 19.83 48.7C19.4967 48.9 19.0467 49 18.48 49H16.63ZM17.76 48.19H18.4C18.8133 48.19 19.1067 48.11 19.28 47.95C19.4533 47.79 19.5567 47.5567 19.59 47.25C19.63 46.9433 19.65 46.5733 19.65 46.14V43.51C19.65 43.09 19.6233 42.75 19.57 42.49C19.5167 42.23 19.4 42.04 19.22 41.92C19.04 41.8 18.7567 41.74 18.37 41.74H17.76V48.19ZM23.4034 49.08C22.9768 49.08 22.6401 48.9933 22.3934 48.82C22.1468 48.6467 21.9701 48.4 21.8634 48.08C21.7634 47.76 21.7134 47.3833 21.7134 46.95V45.27C21.7134 44.8367 21.7634 44.46 21.8634 44.14C21.9701 43.82 22.1468 43.5733 22.3934 43.4C22.6401 43.2267 22.9768 43.14 23.4034 43.14C23.8301 43.14 24.1634 43.2267 24.4034 43.4C24.6501 43.5733 24.8234 43.82 24.9234 44.14C25.0301 44.46 25.0834 44.8367 25.0834 45.27V46.95C25.0834 47.3833 25.0301 47.76 24.9234 48.08C24.8234 48.4 24.6501 48.6467 24.4034 48.82C24.1634 48.9933 23.8301 49.08 23.4034 49.08ZM23.4034 48.29C23.6101 48.29 23.7534 48.23 23.8334 48.11C23.9201 47.99 23.9701 47.8333 23.9834 47.64C24.0034 47.44 24.0134 47.2333 24.0134 47.02V45.21C24.0134 44.99 24.0034 44.7833 23.9834 44.59C23.9701 44.3967 23.9201 44.24 23.8334 44.12C23.7534 43.9933 23.6101 43.93 23.4034 43.93C23.1968 43.93 23.0501 43.9933 22.9634 44.12C22.8768 44.24 22.8234 44.3967 22.8034 44.59C22.7901 44.7833 22.7834 44.99 22.7834 45.21V47.02C22.7834 47.2333 22.7901 47.44 22.8034 47.64C22.8234 47.8333 22.8768 47.99 22.9634 48.11C23.0501 48.23 23.1968 48.29 23.4034 48.29ZM26.0615 49V43.22H27.1315V43.79C27.3248 43.61 27.5382 43.4567 27.7715 43.33C28.0048 43.2033 28.2615 43.14 28.5415 43.14C28.7748 43.14 28.9515 43.2 29.0715 43.32C29.1982 43.44 29.2848 43.59 29.3315 43.77C29.3848 43.95 29.4115 44.1333 29.4115 44.32V49H28.3415V44.63C28.3415 44.4233 28.3115 44.2633 28.2515 44.15C28.1915 44.0367 28.0682 43.98 27.8815 43.98C27.7615 43.98 27.6348 44.0167 27.5015 44.09C27.3748 44.1567 27.2515 44.24 27.1315 44.34V49H26.0615ZM30.116 43.38V40.9H31.086L30.696 43.38H30.116ZM33.2655 49.08C32.9655 49.08 32.7222 49.0233 32.5355 48.91C32.3555 48.7967 32.2222 48.6367 32.1355 48.43C32.0555 48.2233 32.0155 47.98 32.0155 47.7V43.93H31.4055V43.22H32.0155V41.53H33.0855V43.22H34.0155V43.93H33.0855V47.63C33.0855 47.8567 33.1222 48.02 33.1955 48.12C33.2689 48.2133 33.4089 48.26 33.6155 48.26C33.6689 48.26 33.7289 48.2567 33.7955 48.25C33.8689 48.2433 33.9389 48.2367 34.0055 48.23V49.02C33.8722 49.04 33.7489 49.0533 33.6355 49.06C33.5222 49.0733 33.3989 49.08 33.2655 49.08ZM37.4269 49V44.01H36.7369V43.22H37.4269V42.92C37.4269 42.56 37.4535 42.2533 37.5069 42C37.5669 41.74 37.6869 41.54 37.8669 41.4C38.0469 41.26 38.3169 41.19 38.6769 41.19C38.8102 41.19 38.9269 41.1967 39.0269 41.21C39.1335 41.2167 39.2502 41.2333 39.3769 41.26V42.04C39.3169 42.0267 39.2502 42.0167 39.1769 42.01C39.1035 41.9967 39.0369 41.99 38.9769 41.99C38.7702 41.99 38.6369 42.06 38.5769 42.2C38.5235 42.3333 38.4969 42.5133 38.4969 42.74V43.22H39.3769V44.01H38.4969V49H37.4269ZM41.548 49.08C41.1213 49.08 40.7846 48.9933 40.538 48.82C40.2913 48.6467 40.1146 48.4 40.008 48.08C39.908 47.76 39.858 47.3833 39.858 46.95V45.27C39.858 44.8367 39.908 44.46 40.008 44.14C40.1146 43.82 40.2913 43.5733 40.538 43.4C40.7846 43.2267 41.1213 43.14 41.548 43.14C41.9746 43.14 42.308 43.2267 42.548 43.4C42.7946 43.5733 42.968 43.82 43.068 44.14C43.1746 44.46 43.228 44.8367 43.228 45.27V46.95C43.228 47.3833 43.1746 47.76 43.068 48.08C42.968 48.4 42.7946 48.6467 42.548 48.82C42.308 48.9933 41.9746 49.08 41.548 49.08ZM41.548 48.29C41.7546 48.29 41.898 48.23 41.978 48.11C42.0646 47.99 42.1146 47.8333 42.128 47.64C42.148 47.44 42.158 47.2333 42.158 47.02V45.21C42.158 44.99 42.148 44.7833 42.128 44.59C42.1146 44.3967 42.0646 44.24 41.978 44.12C41.898 43.9933 41.7546 43.93 41.548 43.93C41.3413 43.93 41.1946 43.9933 41.108 44.12C41.0213 44.24 40.968 44.3967 40.948 44.59C40.9346 44.7833 40.928 44.99 40.928 45.21V47.02C40.928 47.2333 40.9346 47.44 40.948 47.64C40.968 47.8333 41.0213 47.99 41.108 48.11C41.1946 48.23 41.3413 48.29 41.548 48.29ZM44.236 49V43.22H45.306V44.04C45.5193 43.6867 45.7327 43.45 45.946 43.33C46.1593 43.21 46.3727 43.15 46.586 43.15C46.6127 43.15 46.636 43.15 46.656 43.15C46.6827 43.15 46.716 43.1533 46.756 43.16V44.34C46.676 44.3067 46.5827 44.28 46.476 44.26C46.376 44.2333 46.2727 44.22 46.166 44.22C45.9993 44.22 45.846 44.26 45.706 44.34C45.5727 44.4133 45.4393 44.56 45.306 44.78V49H44.236ZM48.9189 50.79C48.5722 50.79 48.2589 50.7533 47.9789 50.68C47.6989 50.6067 47.4789 50.49 47.3189 50.33C47.1589 50.17 47.0789 49.96 47.0789 49.7C47.0789 49.5133 47.1189 49.35 47.1989 49.21C47.2789 49.07 47.3822 48.95 47.5089 48.85C47.6356 48.7433 47.7689 48.6567 47.9089 48.59C47.7222 48.5367 47.5822 48.4533 47.4889 48.34C47.3956 48.22 47.3489 48.0967 47.3489 47.97C47.3489 47.7567 47.4056 47.5733 47.5189 47.42C47.6322 47.2667 47.7889 47.1 47.9889 46.92C47.7689 46.7533 47.6022 46.54 47.4889 46.28C47.3756 46.02 47.3189 45.66 47.3189 45.2C47.3189 44.7467 47.3789 44.37 47.4989 44.07C47.6256 43.7633 47.8089 43.5333 48.0489 43.38C48.2956 43.22 48.5956 43.14 48.9489 43.14C49.2622 43.14 49.5122 43.1933 49.6989 43.3C49.8922 43.4067 50.0389 43.5667 50.1389 43.78C50.1722 43.7267 50.2622 43.6367 50.4089 43.51C50.5556 43.3767 50.7256 43.2667 50.9189 43.18L51.0789 43.11L51.3489 43.8C51.2622 43.8133 51.1456 43.8467 50.9989 43.9C50.8589 43.9467 50.7256 43.9967 50.5989 44.05C50.4789 44.0967 50.4022 44.1367 50.3689 44.17C50.4156 44.2833 50.4556 44.4467 50.4889 44.66C50.5289 44.8733 50.5489 45.0633 50.5489 45.23C50.5489 45.6233 50.4989 45.97 50.3989 46.27C50.2989 46.57 50.1322 46.8067 49.8989 46.98C49.6722 47.1467 49.3556 47.23 48.9489 47.23C48.8622 47.23 48.7689 47.2233 48.6689 47.21C48.5689 47.1967 48.4789 47.18 48.3989 47.16C48.3589 47.22 48.3156 47.29 48.2689 47.37C48.2289 47.45 48.2089 47.5267 48.2089 47.6C48.2089 47.6733 48.2456 47.7333 48.3189 47.78C48.3989 47.82 48.5222 47.8467 48.6889 47.86L49.5889 47.94C50.0422 47.98 50.3789 48.1167 50.5989 48.35C50.8189 48.5833 50.9289 48.9167 50.9289 49.35C50.9289 49.6633 50.8556 49.9267 50.7089 50.14C50.5622 50.36 50.3389 50.5233 50.0389 50.63C49.7456 50.7367 49.3722 50.79 48.9189 50.79ZM48.9989 49.95C49.3789 49.95 49.6589 49.9033 49.8389 49.81C50.0189 49.7233 50.1089 49.58 50.1089 49.38C50.1089 49.26 50.0856 49.16 50.0389 49.08C49.9989 49 49.9222 48.9367 49.8089 48.89C49.6956 48.8433 49.5322 48.81 49.3189 48.79L48.4089 48.71C48.3356 48.7833 48.2656 48.8567 48.1989 48.93C48.1322 49.0033 48.0789 49.08 48.0389 49.16C47.9989 49.2467 47.9789 49.3367 47.9789 49.43C47.9789 49.6033 48.0522 49.7333 48.1989 49.82C48.3456 49.9067 48.6122 49.95 48.9989 49.95ZM48.9489 46.48C49.1022 46.48 49.2222 46.4533 49.3089 46.4C49.4022 46.34 49.4722 46.2567 49.5189 46.15C49.5656 46.0367 49.5956 45.9 49.6089 45.74C49.6289 45.58 49.6389 45.4 49.6389 45.2C49.6389 45 49.6289 44.82 49.6089 44.66C49.5956 44.4933 49.5656 44.3533 49.5189 44.24C49.4789 44.12 49.4122 44.03 49.3189 43.97C49.2322 43.91 49.1122 43.88 48.9589 43.88C48.8122 43.88 48.6889 43.91 48.5889 43.97C48.4956 44.03 48.4256 44.1167 48.3789 44.23C48.3322 44.3367 48.2989 44.4733 48.2789 44.64C48.2589 44.8 48.2489 44.9867 48.2489 45.2C48.2489 45.38 48.2556 45.55 48.2689 45.71C48.2889 45.8633 48.3222 45.9967 48.3689 46.11C48.4222 46.2233 48.4956 46.3133 48.5889 46.38C48.6822 46.4467 48.8022 46.48 48.9489 46.48ZM53.3255 49.08C52.8722 49.08 52.5222 48.9933 52.2755 48.82C52.0289 48.64 51.8555 48.38 51.7555 48.04C51.6622 47.6933 51.6155 47.27 51.6155 46.77V45.45C51.6155 44.9367 51.6655 44.51 51.7655 44.17C51.8655 43.83 52.0389 43.5733 52.2855 43.4C52.5389 43.2267 52.8855 43.14 53.3255 43.14C53.8122 43.14 54.1689 43.24 54.3955 43.44C54.6289 43.64 54.7822 43.93 54.8555 44.31C54.9289 44.6833 54.9655 45.1333 54.9655 45.66V46.13H52.6855V47.29C52.6855 47.5233 52.7055 47.7133 52.7455 47.86C52.7922 48.0067 52.8622 48.1167 52.9555 48.19C53.0555 48.2567 53.1822 48.29 53.3355 48.29C53.4955 48.29 53.6155 48.2533 53.6955 48.18C53.7822 48.1 53.8389 47.99 53.8655 47.85C53.8989 47.7033 53.9155 47.5333 53.9155 47.34V46.99H54.9555V47.21C54.9555 47.79 54.8322 48.2467 54.5855 48.58C54.3389 48.9133 53.9189 49.08 53.3255 49.08ZM52.6855 45.55H53.9155V45.03C53.9155 44.79 53.9022 44.59 53.8755 44.43C53.8489 44.2633 53.7922 44.14 53.7055 44.06C53.6255 43.9733 53.4955 43.93 53.3155 43.93C53.1422 43.93 53.0089 43.97 52.9155 44.05C52.8289 44.13 52.7689 44.2667 52.7355 44.46C52.7022 44.6467 52.6855 44.9067 52.6855 45.24V45.55ZM57.4745 49.08C57.1745 49.08 56.9312 49.0233 56.7445 48.91C56.5645 48.7967 56.4312 48.6367 56.3445 48.43C56.2645 48.2233 56.2245 47.98 56.2245 47.7V43.93H55.6145V43.22H56.2245V41.53H57.2945V43.22H58.2245V43.93H57.2945V47.63C57.2945 47.8567 57.3312 48.02 57.4045 48.12C57.4779 48.2133 57.6179 48.26 57.8245 48.26C57.8779 48.26 57.9379 48.2567 58.0045 48.25C58.0779 48.2433 58.1479 48.2367 58.2145 48.23V49.02C58.0812 49.04 57.9579 49.0533 57.8445 49.06C57.7312 49.0733 57.6079 49.08 57.4745 49.08ZM62.8359 49.08C62.5359 49.08 62.2925 49.0233 62.1059 48.91C61.9259 48.7967 61.7925 48.6367 61.7059 48.43C61.6259 48.2233 61.5859 47.98 61.5859 47.7V43.93H60.9759V43.22H61.5859V41.53H62.6559V43.22H63.5859V43.93H62.6559V47.63C62.6559 47.8567 62.6925 48.02 62.7659 48.12C62.8392 48.2133 62.9792 48.26 63.1859 48.26C63.2392 48.26 63.2992 48.2567 63.3659 48.25C63.4392 48.2433 63.5092 48.2367 63.5759 48.23V49.02C63.4425 49.04 63.3192 49.0533 63.2059 49.06C63.0925 49.0733 62.9692 49.08 62.8359 49.08ZM65.962 49.08C65.5354 49.08 65.1987 48.9933 64.952 48.82C64.7054 48.6467 64.5287 48.4 64.422 48.08C64.322 47.76 64.272 47.3833 64.272 46.95V45.27C64.272 44.8367 64.322 44.46 64.422 44.14C64.5287 43.82 64.7054 43.5733 64.952 43.4C65.1987 43.2267 65.5354 43.14 65.962 43.14C66.3887 43.14 66.722 43.2267 66.962 43.4C67.2087 43.5733 67.382 43.82 67.482 44.14C67.5887 44.46 67.642 44.8367 67.642 45.27V46.95C67.642 47.3833 67.5887 47.76 67.482 48.08C67.382 48.4 67.2087 48.6467 66.962 48.82C66.722 48.9933 66.3887 49.08 65.962 49.08ZM65.962 48.29C66.1687 48.29 66.312 48.23 66.392 48.11C66.4787 47.99 66.5287 47.8333 66.542 47.64C66.562 47.44 66.572 47.2333 66.572 47.02V45.21C66.572 44.99 66.562 44.7833 66.542 44.59C66.5287 44.3967 66.4787 44.24 66.392 44.12C66.312 43.9933 66.1687 43.93 65.962 43.93C65.7554 43.93 65.6087 43.9933 65.522 44.12C65.4354 44.24 65.382 44.3967 65.362 44.59C65.3487 44.7833 65.342 44.99 65.342 45.21V47.02C65.342 47.2333 65.3487 47.44 65.362 47.64C65.382 47.8333 65.4354 47.99 65.522 48.11C65.6087 48.23 65.7554 48.29 65.962 48.29ZM72.2452 49.08C71.7719 49.08 71.3919 48.9333 71.1052 48.64C70.8186 48.34 70.6552 47.9467 70.6152 47.46L71.5052 47.19C71.5586 47.5567 71.6486 47.8333 71.7752 48.02C71.9019 48.2 72.0886 48.29 72.3352 48.29C72.5286 48.29 72.6752 48.2367 72.7752 48.13C72.8752 48.0167 72.9252 47.8667 72.9252 47.68C72.9252 47.5133 72.8886 47.3633 72.8152 47.23C72.7419 47.0967 72.6219 46.96 72.4552 46.82L71.4652 45.97C71.2652 45.7967 71.0952 45.6033 70.9552 45.39C70.8219 45.1767 70.7552 44.9 70.7552 44.56C70.7552 44.2533 70.8152 43.9967 70.9352 43.79C71.0619 43.5767 71.2352 43.4167 71.4552 43.31C71.6819 43.1967 71.9452 43.14 72.2452 43.14C72.7052 43.14 73.0552 43.29 73.2952 43.59C73.5419 43.8833 73.6819 44.24 73.7152 44.66L72.9952 44.93C72.9686 44.73 72.9286 44.5567 72.8752 44.41C72.8219 44.2567 72.7486 44.14 72.6552 44.06C72.5619 43.9733 72.4386 43.93 72.2852 43.93C72.1119 43.93 71.9719 43.99 71.8652 44.11C71.7652 44.2233 71.7152 44.36 71.7152 44.52C71.7152 44.62 71.7352 44.72 71.7752 44.82C71.8219 44.9133 71.8986 45.0067 72.0052 45.1L73.0252 46.04C73.1652 46.1667 73.2952 46.3033 73.4152 46.45C73.5419 46.5967 73.6452 46.7633 73.7252 46.95C73.8052 47.1367 73.8452 47.3533 73.8452 47.6C73.8452 47.9267 73.7786 48.2 73.6452 48.42C73.5119 48.64 73.3252 48.8067 73.0852 48.92C72.8452 49.0267 72.5652 49.08 72.2452 49.08ZM75.6855 49.08C75.4588 49.08 75.2588 49.0167 75.0855 48.89C74.9121 48.7567 74.7755 48.59 74.6755 48.39C74.5755 48.1833 74.5255 47.9667 74.5255 47.74C74.5255 47.38 74.5855 47.0767 74.7055 46.83C74.8255 46.5833 74.9888 46.3767 75.1955 46.21C75.4088 46.0367 75.6521 45.8867 75.9255 45.76C76.2055 45.6333 76.4988 45.51 76.8055 45.39V44.98C76.8055 44.7467 76.7921 44.5533 76.7655 44.4C76.7388 44.2467 76.6821 44.1333 76.5955 44.06C76.5155 43.98 76.3921 43.94 76.2255 43.94C76.0788 43.94 75.9588 43.9733 75.8655 44.04C75.7788 44.1067 75.7155 44.2033 75.6755 44.33C75.6355 44.45 75.6155 44.5933 75.6155 44.76V45.05L74.5555 45.01C74.5688 44.37 74.7155 43.9 74.9955 43.6C75.2755 43.2933 75.7088 43.14 76.2955 43.14C76.8688 43.14 77.2755 43.2967 77.5155 43.61C77.7555 43.9233 77.8755 44.3767 77.8755 44.97V47.61C77.8755 47.79 77.8788 47.9633 77.8855 48.13C77.8988 48.2967 77.9121 48.4533 77.9255 48.6C77.9455 48.74 77.9621 48.8733 77.9755 49H76.9955C76.9755 48.8933 76.9488 48.76 76.9155 48.6C76.8888 48.4333 76.8688 48.2833 76.8555 48.15C76.7888 48.3767 76.6588 48.59 76.4655 48.79C76.2788 48.9833 76.0188 49.08 75.6855 49.08ZM76.1055 48.16C76.2121 48.16 76.3121 48.13 76.4055 48.07C76.4988 48.01 76.5821 47.9433 76.6555 47.87C76.7288 47.79 76.7788 47.7267 76.8055 47.68V46.04C76.6388 46.1333 76.4821 46.2267 76.3355 46.32C76.1888 46.4133 76.0588 46.5133 75.9455 46.62C75.8388 46.72 75.7521 46.8367 75.6855 46.97C75.6255 47.0967 75.5955 47.2433 75.5955 47.41C75.5955 47.6433 75.6388 47.8267 75.7255 47.96C75.8121 48.0933 75.9388 48.16 76.1055 48.16ZM79.6533 49L78.5133 43.22H79.5933L80.3033 47.87L81.0233 43.22H82.0633L80.9633 49H79.6533ZM84.3509 49.08C83.8976 49.08 83.5476 48.9933 83.3009 48.82C83.0543 48.64 82.8809 48.38 82.7809 48.04C82.6876 47.6933 82.6409 47.27 82.6409 46.77V45.45C82.6409 44.9367 82.6909 44.51 82.7909 44.17C82.8909 43.83 83.0643 43.5733 83.3109 43.4C83.5643 43.2267 83.9109 43.14 84.3509 43.14C84.8376 43.14 85.1943 43.24 85.4209 43.44C85.6543 43.64 85.8076 43.93 85.8809 44.31C85.9543 44.6833 85.9909 45.1333 85.9909 45.66V46.13H83.7109V47.29C83.7109 47.5233 83.7309 47.7133 83.7709 47.86C83.8176 48.0067 83.8876 48.1167 83.9809 48.19C84.0809 48.2567 84.2076 48.29 84.3609 48.29C84.5209 48.29 84.6409 48.2533 84.7209 48.18C84.8076 48.1 84.8643 47.99 84.8909 47.85C84.9243 47.7033 84.9409 47.5333 84.9409 47.34V46.99H85.9809V47.21C85.9809 47.79 85.8576 48.2467 85.6109 48.58C85.3643 48.9133 84.9443 49.08 84.3509 49.08ZM83.7109 45.55H84.9409V45.03C84.9409 44.79 84.9276 44.59 84.9009 44.43C84.8743 44.2633 84.8176 44.14 84.7309 44.06C84.6509 43.9733 84.5209 43.93 84.3409 43.93C84.1676 43.93 84.0343 43.97 83.9409 44.05C83.8543 44.13 83.7943 44.2667 83.7609 44.46C83.7276 44.6467 83.7109 44.9067 83.7109 45.24V45.55ZM89.1551 50.45V49.63C89.4151 49.63 89.6217 49.6167 89.7751 49.59C89.9284 49.57 90.0384 49.5267 90.1051 49.46C90.1717 49.4 90.2051 49.3133 90.2051 49.2C90.2051 49.14 90.1817 49.0067 90.1351 48.8C90.0884 48.5933 90.0384 48.3733 89.9851 48.14L88.8251 43.22H89.9051L90.6851 47.54L91.4351 43.22H92.5151L91.1351 49.32C91.0751 49.6 90.9651 49.82 90.8051 49.98C90.6451 50.1467 90.4384 50.2667 90.1851 50.34C89.9384 50.4133 89.6384 50.45 89.2851 50.45H89.1551ZM94.7511 49.08C94.3244 49.08 93.9878 48.9933 93.7411 48.82C93.4944 48.6467 93.3178 48.4 93.2111 48.08C93.1111 47.76 93.0611 47.3833 93.0611 46.95V45.27C93.0611 44.8367 93.1111 44.46 93.2111 44.14C93.3178 43.82 93.4944 43.5733 93.7411 43.4C93.9878 43.2267 94.3244 43.14 94.7511 43.14C95.1778 43.14 95.5111 43.2267 95.7511 43.4C95.9978 43.5733 96.1711 43.82 96.2711 44.14C96.3778 44.46 96.4311 44.8367 96.4311 45.27V46.95C96.4311 47.3833 96.3778 47.76 96.2711 48.08C96.1711 48.4 95.9978 48.6467 95.7511 48.82C95.5111 48.9933 95.1778 49.08 94.7511 49.08ZM94.7511 48.29C94.9578 48.29 95.1011 48.23 95.1811 48.11C95.2678 47.99 95.3178 47.8333 95.3311 47.64C95.3511 47.44 95.3611 47.2333 95.3611 47.02V45.21C95.3611 44.99 95.3511 44.7833 95.3311 44.59C95.3178 44.3967 95.2678 44.24 95.1811 44.12C95.1011 43.9933 94.9578 43.93 94.7511 43.93C94.5444 43.93 94.3978 43.9933 94.3111 44.12C94.2244 44.24 94.1711 44.3967 94.1511 44.59C94.1378 44.7833 94.1311 44.99 94.1311 45.21V47.02C94.1311 47.2333 94.1378 47.44 94.1511 47.64C94.1711 47.8333 94.2244 47.99 94.3111 48.11C94.3978 48.23 94.5444 48.29 94.7511 48.29ZM98.2391 49.08C98.0125 49.08 97.8358 49.02 97.7091 48.9C97.5825 48.78 97.4925 48.63 97.4391 48.45C97.3925 48.27 97.3691 48.0867 97.3691 47.9V43.22H98.4391V47.58C98.4391 47.7867 98.4691 47.95 98.5291 48.07C98.5891 48.1833 98.7125 48.24 98.8991 48.24C99.0191 48.24 99.1425 48.2067 99.2691 48.14C99.4025 48.0667 99.5291 47.98 99.6491 47.88V43.22H100.719V49H99.6491V48.43C99.4625 48.61 99.2491 48.7633 99.0091 48.89C98.7758 49.0167 98.5191 49.08 98.2391 49.08ZM101.843 49V43.22H102.913V44.04C103.127 43.6867 103.34 43.45 103.553 43.33C103.767 43.21 103.98 43.15 104.193 43.15C104.22 43.15 104.243 43.15 104.263 43.15C104.29 43.15 104.323 43.1533 104.363 43.16V44.34C104.283 44.3067 104.19 44.28 104.083 44.26C103.983 44.2333 103.88 44.22 103.773 44.22C103.607 44.22 103.453 44.26 103.313 44.34C103.18 44.4133 103.047 44.56 102.913 44.78V49H101.843ZM107.311 50.9V43.22H108.381V43.68C108.508 43.5333 108.661 43.4067 108.841 43.3C109.021 43.1933 109.235 43.14 109.481 43.14C109.781 43.14 110.018 43.22 110.191 43.38C110.371 43.5333 110.505 43.73 110.591 43.97C110.678 44.2033 110.735 44.4433 110.761 44.69C110.788 44.93 110.801 45.1367 110.801 45.31V46.71C110.801 47.1167 110.761 47.5033 110.681 47.87C110.601 48.23 110.455 48.5233 110.241 48.75C110.035 48.97 109.741 49.08 109.361 49.08C109.155 49.08 108.971 49.03 108.811 48.93C108.651 48.8233 108.508 48.7033 108.381 48.57V50.9H107.311ZM109.151 48.24C109.338 48.24 109.471 48.1733 109.551 48.04C109.631 47.9 109.681 47.7133 109.701 47.48C109.721 47.2467 109.731 46.99 109.731 46.71V45.31C109.731 45.07 109.718 44.85 109.691 44.65C109.665 44.4433 109.608 44.28 109.521 44.16C109.435 44.04 109.298 43.98 109.111 43.98C108.971 43.98 108.838 44.01 108.711 44.07C108.585 44.13 108.475 44.2 108.381 44.28V47.98C108.481 48.0533 108.595 48.1167 108.721 48.17C108.848 48.2167 108.991 48.24 109.151 48.24ZM111.804 49V43.22H112.874V44.04C113.088 43.6867 113.301 43.45 113.514 43.33C113.728 43.21 113.941 43.15 114.154 43.15C114.181 43.15 114.204 43.15 114.224 43.15C114.251 43.15 114.284 43.1533 114.324 43.16V44.34C114.244 44.3067 114.151 44.28 114.044 44.26C113.944 44.2333 113.841 44.22 113.734 44.22C113.568 44.22 113.414 44.26 113.274 44.34C113.141 44.4133 113.008 44.56 112.874 44.78V49H111.804ZM116.577 49.08C116.151 49.08 115.814 48.9933 115.567 48.82C115.321 48.6467 115.144 48.4 115.037 48.08C114.937 47.76 114.887 47.3833 114.887 46.95V45.27C114.887 44.8367 114.937 44.46 115.037 44.14C115.144 43.82 115.321 43.5733 115.567 43.4C115.814 43.2267 116.151 43.14 116.577 43.14C117.004 43.14 117.337 43.2267 117.577 43.4C117.824 43.5733 117.997 43.82 118.097 44.14C118.204 44.46 118.257 44.8367 118.257 45.27V46.95C118.257 47.3833 118.204 47.76 118.097 48.08C117.997 48.4 117.824 48.6467 117.577 48.82C117.337 48.9933 117.004 49.08 116.577 49.08ZM116.577 48.29C116.784 48.29 116.927 48.23 117.007 48.11C117.094 47.99 117.144 47.8333 117.157 47.64C117.177 47.44 117.187 47.2333 117.187 47.02V45.21C117.187 44.99 117.177 44.7833 117.157 44.59C117.144 44.3967 117.094 44.24 117.007 44.12C116.927 43.9933 116.784 43.93 116.577 43.93C116.371 43.93 116.224 43.9933 116.137 44.12C116.051 44.24 115.997 44.3967 115.977 44.59C115.964 44.7833 115.957 44.99 115.957 45.21V47.02C115.957 47.2333 115.964 47.44 115.977 47.64C115.997 47.8333 116.051 47.99 116.137 48.11C116.224 48.23 116.371 48.29 116.577 48.29ZM119.575 49V44.01H118.885V43.22H119.575V42.92C119.575 42.5333 119.615 42.2133 119.695 41.96C119.782 41.7067 119.925 41.5167 120.125 41.39C120.325 41.2633 120.599 41.2 120.945 41.2C121.032 41.2 121.122 41.2033 121.215 41.21C121.315 41.2167 121.419 41.2267 121.525 41.24V42.04C121.459 42.0267 121.392 42.0167 121.325 42.01C121.265 42.0033 121.209 42 121.155 42C120.949 42 120.812 42.0567 120.745 42.17C120.679 42.2833 120.645 42.4733 120.645 42.74V43.22H123.005V49H121.935V44.01H120.645V49H119.575ZM122.035 42.36V41.24H123.015V42.36H122.035ZM124.247 49V40.9H125.317V49H124.247ZM128.033 49.08C127.579 49.08 127.229 48.9933 126.983 48.82C126.736 48.64 126.563 48.38 126.463 48.04C126.369 47.6933 126.323 47.27 126.323 46.77V45.45C126.323 44.9367 126.373 44.51 126.473 44.17C126.573 43.83 126.746 43.5733 126.993 43.4C127.246 43.2267 127.593 43.14 128.033 43.14C128.519 43.14 128.876 43.24 129.103 43.44C129.336 43.64 129.489 43.93 129.563 44.31C129.636 44.6833 129.673 45.1333 129.673 45.66V46.13H127.393V47.29C127.393 47.5233 127.413 47.7133 127.453 47.86C127.499 48.0067 127.569 48.1167 127.663 48.19C127.763 48.2567 127.889 48.29 128.043 48.29C128.203 48.29 128.323 48.2533 128.403 48.18C128.489 48.1 128.546 47.99 128.573 47.85C128.606 47.7033 128.623 47.5333 128.623 47.34V46.99H129.663V47.21C129.663 47.79 129.539 48.2467 129.293 48.58C129.046 48.9133 128.626 49.08 128.033 49.08ZM127.393 45.55H128.623V45.03C128.623 44.79 128.609 44.59 128.583 44.43C128.556 44.2633 128.499 44.14 128.413 44.06C128.333 43.9733 128.203 43.93 128.023 43.93C127.849 43.93 127.716 43.97 127.623 44.05C127.536 44.13 127.476 44.2667 127.443 44.46C127.409 44.6467 127.393 44.9067 127.393 45.24V45.55ZM130.672 50.31L130.502 49.85C130.682 49.79 130.822 49.6833 130.922 49.53C131.028 49.3833 131.082 49.2067 131.082 49H130.512V47.85H131.612V48.98C131.612 49.3333 131.535 49.6133 131.382 49.82C131.228 50.0333 130.992 50.1967 130.672 50.31ZM16.54 64V58.22H17.53V58.77C17.7233 58.55 17.9367 58.3867 18.17 58.28C18.4033 58.1733 18.6433 58.12 18.89 58.12C19.1033 58.12 19.2933 58.1733 19.46 58.28C19.6333 58.3867 19.7567 58.5767 19.83 58.85C20.0367 58.5967 20.26 58.4133 20.5 58.3C20.7467 58.18 21.0033 58.12 21.27 58.12C21.4567 58.12 21.6267 58.1667 21.78 58.26C21.9333 58.3467 22.0567 58.49 22.15 58.69C22.2433 58.8833 22.29 59.14 22.29 59.46V64H21.31V59.53C21.31 59.25 21.2633 59.0633 21.17 58.97C21.0833 58.87 20.9633 58.82 20.81 58.82C20.6633 58.82 20.51 58.8633 20.35 58.95C20.19 59.03 20.0433 59.1433 19.91 59.29C19.91 59.3167 19.91 59.3433 19.91 59.37C19.91 59.3967 19.91 59.4267 19.91 59.46V64H18.93V59.53C18.93 59.25 18.8833 59.0633 18.79 58.97C18.7033 58.87 18.5833 58.82 18.43 58.82C18.2833 58.82 18.13 58.8633 17.97 58.95C17.8167 59.03 17.67 59.1433 17.53 59.29V64H16.54ZM24.9269 64.08C24.5002 64.08 24.1635 63.9933 23.9169 63.82C23.6702 63.6467 23.4935 63.4 23.3869 63.08C23.2869 62.76 23.2369 62.3833 23.2369 61.95V60.27C23.2369 59.8367 23.2869 59.46 23.3869 59.14C23.4935 58.82 23.6702 58.5733 23.9169 58.4C24.1635 58.2267 24.5002 58.14 24.9269 58.14C25.3535 58.14 25.6869 58.2267 25.9269 58.4C26.1735 58.5733 26.3469 58.82 26.4469 59.14C26.5535 59.46 26.6069 59.8367 26.6069 60.27V61.95C26.6069 62.3833 26.5535 62.76 26.4469 63.08C26.3469 63.4 26.1735 63.6467 25.9269 63.82C25.6869 63.9933 25.3535 64.08 24.9269 64.08ZM24.9269 63.29C25.1335 63.29 25.2769 63.23 25.3569 63.11C25.4435 62.99 25.4935 62.8333 25.5069 62.64C25.5269 62.44 25.5369 62.2333 25.5369 62.02V60.21C25.5369 59.99 25.5269 59.7833 25.5069 59.59C25.4935 59.3967 25.4435 59.24 25.3569 59.12C25.2769 58.9933 25.1335 58.93 24.9269 58.93C24.7202 58.93 24.5735 58.9933 24.4869 59.12C24.4002 59.24 24.3469 59.3967 24.3269 59.59C24.3135 59.7833 24.3069 59.99 24.3069 60.21V62.02C24.3069 62.2333 24.3135 62.44 24.3269 62.64C24.3469 62.8333 24.4002 62.99 24.4869 63.11C24.5735 63.23 24.7202 63.29 24.9269 63.29ZM27.6149 64V58.22H28.6849V59.04C28.8983 58.6867 29.1116 58.45 29.3249 58.33C29.5383 58.21 29.7516 58.15 29.9649 58.15C29.9916 58.15 30.0149 58.15 30.0349 58.15C30.0616 58.15 30.0949 58.1533 30.1349 58.16V59.34C30.0549 59.3067 29.9616 59.28 29.8549 59.26C29.7549 59.2333 29.6516 59.22 29.5449 59.22C29.3783 59.22 29.2249 59.26 29.0849 59.34C28.9516 59.4133 28.8183 59.56 28.6849 59.78V64H27.6149ZM32.3978 64.08C31.9445 64.08 31.5945 63.9933 31.3478 63.82C31.1011 63.64 30.9278 63.38 30.8278 63.04C30.7345 62.6933 30.6878 62.27 30.6878 61.77V60.45C30.6878 59.9367 30.7378 59.51 30.8378 59.17C30.9378 58.83 31.1111 58.5733 31.3578 58.4C31.6111 58.2267 31.9578 58.14 32.3978 58.14C32.8845 58.14 33.2411 58.24 33.4678 58.44C33.7011 58.64 33.8545 58.93 33.9278 59.31C34.0011 59.6833 34.0378 60.1333 34.0378 60.66V61.13H31.7578V62.29C31.7578 62.5233 31.7778 62.7133 31.8178 62.86C31.8645 63.0067 31.9345 63.1167 32.0278 63.19C32.1278 63.2567 32.2545 63.29 32.4078 63.29C32.5678 63.29 32.6878 63.2533 32.7678 63.18C32.8545 63.1 32.9111 62.99 32.9378 62.85C32.9711 62.7033 32.9878 62.5333 32.9878 62.34V61.99H34.0278V62.21C34.0278 62.79 33.9045 63.2467 33.6578 63.58C33.4111 63.9133 32.9911 64.08 32.3978 64.08ZM31.7578 60.55H32.9878V60.03C32.9878 59.79 32.9745 59.59 32.9478 59.43C32.9211 59.2633 32.8645 59.14 32.7778 59.06C32.6978 58.9733 32.5678 58.93 32.3878 58.93C32.2145 58.93 32.0811 58.97 31.9878 59.05C31.9011 59.13 31.8411 59.2667 31.8078 59.46C31.7745 59.6467 31.7578 59.9067 31.7578 60.24V60.55ZM38.632 64.08C38.1453 64.08 37.782 63.9033 37.542 63.55C37.302 63.19 37.182 62.5833 37.182 61.73V60.61C37.182 60.17 37.2186 59.7633 37.292 59.39C37.3653 59.01 37.502 58.7067 37.702 58.48C37.9086 58.2533 38.2086 58.14 38.602 58.14C38.7953 58.14 38.972 58.1833 39.132 58.27C39.292 58.3567 39.4353 58.4633 39.562 58.59V55.9H40.632V64H39.562V63.63C39.4353 63.7633 39.2953 63.8733 39.142 63.96C38.9953 64.04 38.8253 64.08 38.632 64.08ZM38.902 63.24C39.002 63.24 39.1086 63.2233 39.222 63.19C39.3353 63.15 39.4486 63.0933 39.562 63.02V59.23C39.4686 59.1633 39.3653 59.1067 39.252 59.06C39.1386 59.0067 39.0153 58.98 38.882 58.98C38.6353 58.98 38.4686 59.1 38.382 59.34C38.2953 59.5733 38.252 59.8567 38.252 60.19V61.82C38.252 62.0867 38.2653 62.33 38.292 62.55C38.3253 62.7633 38.3886 62.9333 38.482 63.06C38.5753 63.18 38.7153 63.24 38.902 63.24ZM43.3158 64.08C42.8624 64.08 42.5124 63.9933 42.2658 63.82C42.0191 63.64 41.8458 63.38 41.7458 63.04C41.6524 62.6933 41.6058 62.27 41.6058 61.77V60.45C41.6058 59.9367 41.6558 59.51 41.7558 59.17C41.8558 58.83 42.0291 58.5733 42.2758 58.4C42.5291 58.2267 42.8758 58.14 43.3158 58.14C43.8024 58.14 44.1591 58.24 44.3858 58.44C44.6191 58.64 44.7724 58.93 44.8458 59.31C44.9191 59.6833 44.9558 60.1333 44.9558 60.66V61.13H42.6758V62.29C42.6758 62.5233 42.6958 62.7133 42.7358 62.86C42.7824 63.0067 42.8524 63.1167 42.9458 63.19C43.0458 63.2567 43.1724 63.29 43.3258 63.29C43.4858 63.29 43.6058 63.2533 43.6858 63.18C43.7724 63.1 43.8291 62.99 43.8558 62.85C43.8891 62.7033 43.9058 62.5333 43.9058 62.34V61.99H44.9458V62.21C44.9458 62.79 44.8224 63.2467 44.5758 63.58C44.3291 63.9133 43.9091 64.08 43.3158 64.08ZM42.6758 60.55H43.9058V60.03C43.9058 59.79 43.8924 59.59 43.8658 59.43C43.8391 59.2633 43.7824 59.14 43.6958 59.06C43.6158 58.9733 43.4858 58.93 43.3058 58.93C43.1324 58.93 42.9991 58.97 42.9058 59.05C42.8191 59.13 42.7591 59.2667 42.7258 59.46C42.6924 59.6467 42.6758 59.9067 42.6758 60.24V60.55ZM47.4648 64.08C47.1648 64.08 46.9214 64.0233 46.7348 63.91C46.5548 63.7967 46.4214 63.6367 46.3348 63.43C46.2548 63.2233 46.2148 62.98 46.2148 62.7V58.93H45.6048V58.22H46.2148V56.53H47.2848V58.22H48.2148V58.93H47.2848V62.63C47.2848 62.8567 47.3214 63.02 47.3948 63.12C47.4681 63.2133 47.6081 63.26 47.8148 63.26C47.8681 63.26 47.9281 63.2567 47.9948 63.25C48.0681 63.2433 48.1381 63.2367 48.2048 63.23V64.02C48.0714 64.04 47.9481 64.0533 47.8348 64.06C47.7214 64.0733 47.5981 64.08 47.4648 64.08ZM50.0409 64.08C49.8143 64.08 49.6143 64.0167 49.4409 63.89C49.2676 63.7567 49.1309 63.59 49.0309 63.39C48.9309 63.1833 48.8809 62.9667 48.8809 62.74C48.8809 62.38 48.9409 62.0767 49.0609 61.83C49.1809 61.5833 49.3443 61.3767 49.5509 61.21C49.7643 61.0367 50.0076 60.8867 50.2809 60.76C50.5609 60.6333 50.8543 60.51 51.1609 60.39V59.98C51.1609 59.7467 51.1476 59.5533 51.1209 59.4C51.0943 59.2467 51.0376 59.1333 50.9509 59.06C50.8709 58.98 50.7476 58.94 50.5809 58.94C50.4343 58.94 50.3143 58.9733 50.2209 59.04C50.1343 59.1067 50.0709 59.2033 50.0309 59.33C49.9909 59.45 49.9709 59.5933 49.9709 59.76V60.05L48.9109 60.01C48.9243 59.37 49.0709 58.9 49.3509 58.6C49.6309 58.2933 50.0643 58.14 50.6509 58.14C51.2243 58.14 51.6309 58.2967 51.8709 58.61C52.1109 58.9233 52.2309 59.3767 52.2309 59.97V62.61C52.2309 62.79 52.2343 62.9633 52.2409 63.13C52.2543 63.2967 52.2676 63.4533 52.2809 63.6C52.3009 63.74 52.3176 63.8733 52.3309 64H51.3509C51.3309 63.8933 51.3043 63.76 51.2709 63.6C51.2443 63.4333 51.2243 63.2833 51.2109 63.15C51.1443 63.3767 51.0143 63.59 50.8209 63.79C50.6343 63.9833 50.3743 64.08 50.0409 64.08ZM50.4609 63.16C50.5676 63.16 50.6676 63.13 50.7609 63.07C50.8543 63.01 50.9376 62.9433 51.0109 62.87C51.0843 62.79 51.1343 62.7267 51.1609 62.68V61.04C50.9943 61.1333 50.8376 61.2267 50.6909 61.32C50.5443 61.4133 50.4143 61.5133 50.3009 61.62C50.1943 61.72 50.1076 61.8367 50.0409 61.97C49.9809 62.0967 49.9509 62.2433 49.9509 62.41C49.9509 62.6433 49.9943 62.8267 50.0809 62.96C50.1676 63.0933 50.2943 63.16 50.4609 63.16ZM53.3288 64V58.22H54.3988V64H53.3288ZM53.3288 57.36V56.24H54.3988V57.36H53.3288ZM55.6439 64V55.9H56.7139V64H55.6439ZM59.1691 64.08C58.6957 64.08 58.3157 63.9333 58.0291 63.64C57.7424 63.34 57.5791 62.9467 57.5391 62.46L58.4291 62.19C58.4824 62.5567 58.5724 62.8333 58.6991 63.02C58.8257 63.2 59.0124 63.29 59.2591 63.29C59.4524 63.29 59.5991 63.2367 59.6991 63.13C59.7991 63.0167 59.8491 62.8667 59.8491 62.68C59.8491 62.5133 59.8124 62.3633 59.7391 62.23C59.6657 62.0967 59.5457 61.96 59.3791 61.82L58.3891 60.97C58.1891 60.7967 58.0191 60.6033 57.8791 60.39C57.7457 60.1767 57.6791 59.9 57.6791 59.56C57.6791 59.2533 57.7391 58.9967 57.8591 58.79C57.9857 58.5767 58.1591 58.4167 58.3791 58.31C58.6057 58.1967 58.8691 58.14 59.1691 58.14C59.6291 58.14 59.9791 58.29 60.2191 58.59C60.4657 58.8833 60.6057 59.24 60.6391 59.66L59.9191 59.93C59.8924 59.73 59.8524 59.5567 59.7991 59.41C59.7457 59.2567 59.6724 59.14 59.5791 59.06C59.4857 58.9733 59.3624 58.93 59.2091 58.93C59.0357 58.93 58.8957 58.99 58.7891 59.11C58.6891 59.2233 58.6391 59.36 58.6391 59.52C58.6391 59.62 58.6591 59.72 58.6991 59.82C58.7457 59.9133 58.8224 60.0067 58.9291 60.1L59.9491 61.04C60.0891 61.1667 60.2191 61.3033 60.3391 61.45C60.4657 61.5967 60.5691 61.7633 60.6491 61.95C60.7291 62.1367 60.7691 62.3533 60.7691 62.6C60.7691 62.9267 60.7024 63.2 60.5691 63.42C60.4357 63.64 60.2491 63.8067 60.0091 63.92C59.7691 64.0267 59.4891 64.08 59.1691 64.08ZM63.9245 64V58.22H64.9945V64H63.9245ZM63.9245 57.36V56.24H64.9945V57.36H63.9245ZM66.1396 64V58.22H67.2096V58.79C67.4029 58.61 67.6163 58.4567 67.8496 58.33C68.0829 58.2033 68.3396 58.14 68.6196 58.14C68.8529 58.14 69.0296 58.2 69.1496 58.32C69.2763 58.44 69.3629 58.59 69.4096 58.77C69.4629 58.95 69.4896 59.1333 69.4896 59.32V64H68.4196V59.63C68.4196 59.4233 68.3896 59.2633 68.3296 59.15C68.2696 59.0367 68.1463 58.98 67.9596 58.98C67.8396 58.98 67.7129 59.0167 67.5796 59.09C67.4529 59.1567 67.3296 59.24 67.2096 59.34V64H66.1396ZM74.3593 64.08C74.0593 64.08 73.816 64.0233 73.6293 63.91C73.4493 63.7967 73.316 63.6367 73.2293 63.43C73.1493 63.2233 73.1093 62.98 73.1093 62.7V58.93H72.4993V58.22H73.1093V56.53H74.1793V58.22H75.1093V58.93H74.1793V62.63C74.1793 62.8567 74.216 63.02 74.2893 63.12C74.3626 63.2133 74.5026 63.26 74.7093 63.26C74.7626 63.26 74.8226 63.2567 74.8893 63.25C74.9626 63.2433 75.0326 63.2367 75.0993 63.23V64.02C74.966 64.04 74.8426 64.0533 74.7293 64.06C74.616 64.0733 74.4926 64.08 74.3593 64.08ZM75.9255 64V55.9H76.9955V58.82C77.1888 58.6333 77.4055 58.4733 77.6455 58.34C77.8855 58.2067 78.1521 58.14 78.4455 58.14C78.6721 58.14 78.8455 58.2 78.9655 58.32C79.0921 58.44 79.1788 58.59 79.2255 58.77C79.2788 58.95 79.3055 59.1333 79.3055 59.32V64H78.2355V59.63C78.2355 59.4233 78.2055 59.2633 78.1455 59.15C78.0855 59.0367 77.9621 58.98 77.7755 58.98C77.6488 58.98 77.5155 59.0167 77.3755 59.09C77.2421 59.1633 77.1155 59.2533 76.9955 59.36V64H75.9255ZM81.9486 64.08C81.4953 64.08 81.1453 63.9933 80.8986 63.82C80.6519 63.64 80.4786 63.38 80.3786 63.04C80.2853 62.6933 80.2386 62.27 80.2386 61.77V60.45C80.2386 59.9367 80.2886 59.51 80.3886 59.17C80.4886 58.83 80.6619 58.5733 80.9086 58.4C81.1619 58.2267 81.5086 58.14 81.9486 58.14C82.4353 58.14 82.7919 58.24 83.0186 58.44C83.2519 58.64 83.4053 58.93 83.4786 59.31C83.5519 59.6833 83.5886 60.1333 83.5886 60.66V61.13H81.3086V62.29C81.3086 62.5233 81.3286 62.7133 81.3686 62.86C81.4153 63.0067 81.4853 63.1167 81.5786 63.19C81.6786 63.2567 81.8053 63.29 81.9586 63.29C82.1186 63.29 82.2386 63.2533 82.3186 63.18C82.4053 63.1 82.4619 62.99 82.4886 62.85C82.5219 62.7033 82.5386 62.5333 82.5386 62.34V61.99H83.5786V62.21C83.5786 62.79 83.4553 63.2467 83.2086 63.58C82.9619 63.9133 82.5419 64.08 81.9486 64.08ZM81.3086 60.55H82.5386V60.03C82.5386 59.79 82.5253 59.59 82.4986 59.43C82.4719 59.2633 82.4153 59.14 82.3286 59.06C82.2486 58.9733 82.1186 58.93 81.9386 58.93C81.7653 58.93 81.6319 58.97 81.5386 59.05C81.4519 59.13 81.3919 59.2667 81.3586 59.46C81.3253 59.6467 81.3086 59.9067 81.3086 60.24V60.55ZM86.8727 64V55.9H87.9427V58.82C88.1361 58.6333 88.3527 58.4733 88.5927 58.34C88.8327 58.2067 89.0994 58.14 89.3927 58.14C89.6194 58.14 89.7927 58.2 89.9127 58.32C90.0394 58.44 90.1261 58.59 90.1727 58.77C90.2261 58.95 90.2527 59.1333 90.2527 59.32V64H89.1827V59.63C89.1827 59.4233 89.1527 59.2633 89.0927 59.15C89.0327 59.0367 88.9094 58.98 88.7227 58.98C88.5961 58.98 88.4627 59.0167 88.3227 59.09C88.1894 59.1633 88.0627 59.2533 87.9427 59.36V64H86.8727ZM92.8959 64.08C92.4425 64.08 92.0925 63.9933 91.8459 63.82C91.5992 63.64 91.4259 63.38 91.3259 63.04C91.2325 62.6933 91.1859 62.27 91.1859 61.77V60.45C91.1859 59.9367 91.2359 59.51 91.3359 59.17C91.4359 58.83 91.6092 58.5733 91.8559 58.4C92.1092 58.2267 92.4559 58.14 92.8959 58.14C93.3825 58.14 93.7392 58.24 93.9659 58.44C94.1992 58.64 94.3525 58.93 94.4259 59.31C94.4992 59.6833 94.5359 60.1333 94.5359 60.66V61.13H92.2559V62.29C92.2559 62.5233 92.2759 62.7133 92.3159 62.86C92.3625 63.0067 92.4325 63.1167 92.5259 63.19C92.6259 63.2567 92.7525 63.29 92.9059 63.29C93.0659 63.29 93.1859 63.2533 93.2659 63.18C93.3525 63.1 93.4092 62.99 93.4359 62.85C93.4692 62.7033 93.4859 62.5333 93.4859 62.34V61.99H94.5259V62.21C94.5259 62.79 94.4025 63.2467 94.1559 63.58C93.9092 63.9133 93.4892 64.08 92.8959 64.08ZM92.2559 60.55H93.4859V60.03C93.4859 59.79 93.4725 59.59 93.4459 59.43C93.4192 59.2633 93.3625 59.14 93.2759 59.06C93.1959 58.9733 93.0659 58.93 92.8859 58.93C92.7125 58.93 92.5792 58.97 92.4859 59.05C92.3992 59.13 92.3392 59.2667 92.3059 59.46C92.2725 59.6467 92.2559 59.9067 92.2559 60.24V60.55ZM95.6048 64V55.9H96.6748V64H95.6048ZM97.79 65.9V58.22H98.86V58.68C98.9867 58.5333 99.14 58.4067 99.32 58.3C99.5 58.1933 99.7133 58.14 99.96 58.14C100.26 58.14 100.497 58.22 100.67 58.38C100.85 58.5333 100.983 58.73 101.07 58.97C101.157 59.2033 101.213 59.4433 101.24 59.69C101.267 59.93 101.28 60.1367 101.28 60.31V61.71C101.28 62.1167 101.24 62.5033 101.16 62.87C101.08 63.23 100.933 63.5233 100.72 63.75C100.513 63.97 100.22 64.08 99.84 64.08C99.6333 64.08 99.45 64.03 99.29 63.93C99.13 63.8233 98.9867 63.7033 98.86 63.57V65.9H97.79ZM99.63 63.24C99.8167 63.24 99.95 63.1733 100.03 63.04C100.11 62.9 100.16 62.7133 100.18 62.48C100.2 62.2467 100.21 61.99 100.21 61.71V60.31C100.21 60.07 100.197 59.85 100.17 59.65C100.143 59.4433 100.087 59.28 100 59.16C99.9133 59.04 99.7767 58.98 99.59 58.98C99.45 58.98 99.3167 59.01 99.19 59.07C99.0633 59.13 98.9533 59.2 98.86 59.28V62.98C98.96 63.0533 99.0733 63.1167 99.2 63.17C99.3267 63.2167 99.47 63.24 99.63 63.24Z"></path>
</svg>
