<svg xmlns="http://www.w3.org/2000/svg" fill="none" viewBox="0 0 214 84" height="84" width="214">
<mask fill="white" id="path-1-inside-1_1434_53">
<path d="M0 0H214V84H0V0Z"></path>
</mask>
<path fill="#0D0E12" d="M0 0H214V84H0V0Z"></path>
<path mask="url(#path-1-inside-1_1434_53)" fill="white" d="M0 0V-1H-1V0H0ZM0 84H-1V85H0V84ZM0 1H214V-1H0V1ZM214 83H0V85H214V83ZM1 84V0H-1V84H1Z"></path>
<path fill="#FF0000" d="M16.72 38V28.28H22.54V38H20.428V29.816H18.832V38H16.72ZM23.9856 38V28.28H27.2496C27.8336 28.28 28.3136 28.392 28.6896 28.616C29.0656 28.832 29.3456 29.152 29.5296 29.576C29.7136 29.992 29.8056 30.5 29.8056 31.1C29.8056 31.852 29.6816 32.428 29.4336 32.828C29.1856 33.22 28.8496 33.492 28.4256 33.644C28.0016 33.796 27.5256 33.872 26.9976 33.872H26.1336V38H23.9856ZM26.1336 32.372H26.8536C27.1176 32.372 27.3176 32.324 27.4536 32.228C27.5896 32.132 27.6776 31.988 27.7176 31.796C27.7656 31.604 27.7896 31.36 27.7896 31.064C27.7896 30.816 27.7696 30.6 27.7296 30.416C27.6976 30.224 27.6136 30.072 27.4776 29.96C27.3416 29.848 27.1296 29.792 26.8416 29.792H26.1336V32.372ZM33.6251 38.144C32.8971 38.144 32.3211 38.016 31.8971 37.76C31.4731 37.504 31.1691 37.136 30.9851 36.656C30.8011 36.176 30.7091 35.604 30.7091 34.94V31.328C30.7091 30.656 30.8011 30.084 30.9851 29.612C31.1691 29.14 31.4731 28.78 31.8971 28.532C32.3211 28.276 32.8971 28.148 33.6251 28.148C34.3611 28.148 34.9411 28.276 35.3651 28.532C35.7971 28.78 36.1051 29.14 36.2891 29.612C36.4731 30.084 36.5651 30.656 36.5651 31.328V34.94C36.5651 35.604 36.4731 36.176 36.2891 36.656C36.1051 37.136 35.7971 37.504 35.3651 37.76C34.9411 38.016 34.3611 38.144 33.6251 38.144ZM33.6251 36.62C33.8491 36.62 34.0131 36.564 34.1171 36.452C34.2211 36.34 34.2891 36.196 34.3211 36.02C34.3531 35.844 34.3691 35.664 34.3691 35.48V30.8C34.3691 30.608 34.3531 30.428 34.3211 30.26C34.2891 30.084 34.2211 29.94 34.1171 29.828C34.0131 29.716 33.8491 29.66 33.6251 29.66C33.4171 29.66 33.2611 29.716 33.1571 29.828C33.0531 29.94 32.9851 30.084 32.9531 30.26C32.9211 30.428 32.9051 30.608 32.9051 30.8V35.48C32.9051 35.664 32.9171 35.844 32.9411 36.02C32.9731 36.196 33.0371 36.34 33.1331 36.452C33.2371 36.564 33.4011 36.62 33.6251 36.62ZM37.9083 38V28.28H39.6003V33.848L42.0843 28.28H43.4763V38H41.7483V32.336L39.2163 38H37.9083ZM44.9865 38V28.28H49.4865V29.876H47.1345V38H44.9865ZM50.5052 38V28.28H53.7692C54.3532 28.28 54.8332 28.392 55.2092 28.616C55.5852 28.832 55.8652 29.152 56.0492 29.576C56.2332 29.992 56.3252 30.5 56.3252 31.1C56.3252 31.852 56.2012 32.428 55.9532 32.828C55.7052 33.22 55.3692 33.492 54.9452 33.644C54.5212 33.796 54.0452 33.872 53.5172 33.872H52.6532V38H50.5052ZM52.6532 32.372H53.3732C53.6372 32.372 53.8372 32.324 53.9732 32.228C54.1092 32.132 54.1972 31.988 54.2372 31.796C54.2852 31.604 54.3092 31.36 54.3092 31.064C54.3092 30.816 54.2892 30.6 54.2492 30.416C54.2172 30.224 54.1332 30.072 53.9972 29.96C53.8612 29.848 53.6492 29.792 53.3612 29.792H52.6532V32.372ZM57.3966 38V28.28H59.5446V32.384H60.0246C60.6406 32.384 61.1606 32.484 61.5846 32.684C62.0166 32.884 62.3406 33.192 62.5566 33.608C62.7806 34.016 62.8926 34.544 62.8926 35.192C62.8926 35.784 62.8126 36.264 62.6526 36.632C62.5006 37 62.2846 37.284 62.0046 37.484C61.7246 37.684 61.4006 37.82 61.0326 37.892C60.6646 37.964 60.2646 38 59.8326 38H57.3966ZM59.5446 36.596H59.8446C60.1166 36.596 60.3286 36.544 60.4806 36.44C60.6406 36.336 60.7526 36.176 60.8166 35.96C60.8886 35.744 60.9206 35.472 60.9126 35.144C60.9046 34.784 60.8286 34.484 60.6846 34.244C60.5406 33.996 60.2526 33.872 59.8206 33.872H59.5446V36.596ZM63.7086 38V28.28H65.8566V38H63.7086ZM67.3693 38V28.28H69.3973V36.464H70.5853V28.28H72.6013V36.464H73.7413V28.28H75.7573V38H67.3693Z"></path>
<path fill="white" d="M16.63 56V47.9H18.49C18.8567 47.9 19.1733 47.94 19.44 48.02C19.7133 48.1 19.94 48.2233 20.12 48.39C20.3 48.5567 20.4333 48.77 20.52 49.03C20.6067 49.2833 20.65 49.5833 20.65 49.93C20.65 50.2633 20.6067 50.5533 20.52 50.8C20.44 51.04 20.3133 51.23 20.14 51.37C19.9733 51.51 19.7567 51.6 19.49 51.64C19.8167 51.7133 20.08 51.84 20.28 52.02C20.48 52.1933 20.6267 52.42 20.72 52.7C20.82 52.9733 20.87 53.3033 20.87 53.69C20.87 54.0367 20.83 54.3533 20.75 54.64C20.67 54.9267 20.5433 55.17 20.37 55.37C20.2033 55.57 19.9867 55.7267 19.72 55.84C19.46 55.9467 19.15 56 18.79 56H16.63ZM17.76 55.19H18.52C19.0267 55.19 19.3633 55.0733 19.53 54.84C19.7033 54.6 19.79 54.2167 19.79 53.69C19.79 53.35 19.7433 53.0667 19.65 52.84C19.5633 52.6067 19.42 52.4333 19.22 52.32C19.0267 52.2 18.7633 52.14 18.43 52.14H17.76V55.19ZM17.76 51.28H18.43C18.75 51.28 19 51.2367 19.18 51.15C19.36 51.0567 19.4867 50.91 19.56 50.71C19.6333 50.51 19.67 50.25 19.67 49.93C19.67 49.5567 19.6133 49.2867 19.5 49.12C19.3867 48.9533 19.21 48.85 18.97 48.81C18.73 48.7633 18.4167 48.74 18.03 48.74H17.76V51.28ZM22.8241 56.08C22.5975 56.08 22.3975 56.0167 22.2241 55.89C22.0508 55.7567 21.9141 55.59 21.8141 55.39C21.7141 55.1833 21.6641 54.9667 21.6641 54.74C21.6641 54.38 21.7241 54.0767 21.8441 53.83C21.9641 53.5833 22.1275 53.3767 22.3341 53.21C22.5475 53.0367 22.7908 52.8867 23.0641 52.76C23.3441 52.6333 23.6375 52.51 23.9441 52.39V51.98C23.9441 51.7467 23.9308 51.5533 23.9041 51.4C23.8775 51.2467 23.8208 51.1333 23.7341 51.06C23.6541 50.98 23.5308 50.94 23.3641 50.94C23.2175 50.94 23.0975 50.9733 23.0041 51.04C22.9175 51.1067 22.8541 51.2033 22.8141 51.33C22.7741 51.45 22.7541 51.5933 22.7541 51.76V52.05L21.6941 52.01C21.7075 51.37 21.8541 50.9 22.1341 50.6C22.4141 50.2933 22.8475 50.14 23.4341 50.14C24.0075 50.14 24.4141 50.2967 24.6541 50.61C24.8941 50.9233 25.0141 51.3767 25.0141 51.97V54.61C25.0141 54.79 25.0175 54.9633 25.0241 55.13C25.0375 55.2967 25.0508 55.4533 25.0641 55.6C25.0841 55.74 25.1008 55.8733 25.1141 56H24.1341C24.1141 55.8933 24.0875 55.76 24.0541 55.6C24.0275 55.4333 24.0075 55.2833 23.9941 55.15C23.9275 55.3767 23.7975 55.59 23.6041 55.79C23.4175 55.9833 23.1575 56.08 22.8241 56.08ZM23.2441 55.16C23.3508 55.16 23.4508 55.13 23.5441 55.07C23.6375 55.01 23.7208 54.9433 23.7941 54.87C23.8675 54.79 23.9175 54.7267 23.9441 54.68V53.04C23.7775 53.1333 23.6208 53.2267 23.4741 53.32C23.3275 53.4133 23.1975 53.5133 23.0841 53.62C22.9775 53.72 22.8908 53.8367 22.8241 53.97C22.7641 54.0967 22.7341 54.2433 22.7341 54.41C22.7341 54.6433 22.7775 54.8267 22.8641 54.96C22.9508 55.0933 23.0775 55.16 23.2441 55.16ZM26.012 56L26.072 50.22H26.862L28.142 53.77L29.432 50.22H30.222L30.282 56H29.382V52.55L28.312 55.43H27.982L26.912 52.57V56H26.012ZM33.6201 56V50.22H36.9801V56H35.9101V51.03H34.6901V56H33.6201ZM39.6534 56.08C39.2268 56.08 38.8901 55.9933 38.6434 55.82C38.3968 55.6467 38.2201 55.4 38.1134 55.08C38.0134 54.76 37.9634 54.3833 37.9634 53.95V52.27C37.9634 51.8367 38.0134 51.46 38.1134 51.14C38.2201 50.82 38.3968 50.5733 38.6434 50.4C38.8901 50.2267 39.2268 50.14 39.6534 50.14C40.0801 50.14 40.4134 50.2267 40.6534 50.4C40.9001 50.5733 41.0734 50.82 41.1734 51.14C41.2801 51.46 41.3334 51.8367 41.3334 52.27V53.95C41.3334 54.3833 41.2801 54.76 41.1734 55.08C41.0734 55.4 40.9001 55.6467 40.6534 55.82C40.4134 55.9933 40.0801 56.08 39.6534 56.08ZM39.6534 55.29C39.8601 55.29 40.0034 55.23 40.0834 55.11C40.1701 54.99 40.2201 54.8333 40.2334 54.64C40.2534 54.44 40.2634 54.2333 40.2634 54.02V52.21C40.2634 51.99 40.2534 51.7833 40.2334 51.59C40.2201 51.3967 40.1701 51.24 40.0834 51.12C40.0034 50.9933 39.8601 50.93 39.6534 50.93C39.4468 50.93 39.3001 50.9933 39.2134 51.12C39.1268 51.24 39.0734 51.3967 39.0534 51.59C39.0401 51.7833 39.0334 51.99 39.0334 52.21V54.02C39.0334 54.2333 39.0401 54.44 39.0534 54.64C39.0734 54.8333 39.1268 54.99 39.2134 55.11C39.3001 55.23 39.4468 55.29 39.6534 55.29ZM43.8915 56.08C43.4182 56.08 43.0582 55.9867 42.8115 55.8C42.5715 55.6067 42.4082 55.3367 42.3215 54.99C42.2415 54.6433 42.2015 54.24 42.2015 53.78V52.45C42.2015 51.9633 42.2448 51.55 42.3315 51.21C42.4182 50.8633 42.5815 50.6 42.8215 50.42C43.0682 50.2333 43.4248 50.14 43.8915 50.14C44.3115 50.14 44.6348 50.21 44.8615 50.35C45.0948 50.4833 45.2548 50.6867 45.3415 50.96C45.4282 51.2267 45.4715 51.56 45.4715 51.96V52.3H44.5015V51.95C44.5015 51.6967 44.4848 51.4967 44.4515 51.35C44.4182 51.2033 44.3582 51.0967 44.2715 51.03C44.1848 50.9633 44.0615 50.93 43.9015 50.93C43.7282 50.93 43.5948 50.97 43.5015 51.05C43.4082 51.13 43.3448 51.2667 43.3115 51.46C43.2848 51.6467 43.2715 51.9033 43.2715 52.23V54.05C43.2715 54.5433 43.3182 54.8733 43.4115 55.04C43.5048 55.2067 43.6715 55.29 43.9115 55.29C44.0915 55.29 44.2215 55.25 44.3015 55.17C44.3882 55.0833 44.4415 54.9633 44.4615 54.81C44.4882 54.6567 44.5015 54.4833 44.5015 54.29V53.82H45.4715V54.22C45.4715 54.6067 45.4248 54.94 45.3315 55.22C45.2448 55.5 45.0848 55.7133 44.8515 55.86C44.6248 56.0067 44.3048 56.08 43.8915 56.08ZM47.0728 56V51.02H45.9928V50.22H49.2328V51.02H48.1428V56H47.0728ZM50.9198 56.08C50.6932 56.08 50.4932 56.0167 50.3198 55.89C50.1465 55.7567 50.0098 55.59 49.9098 55.39C49.8098 55.1833 49.7598 54.9667 49.7598 54.74C49.7598 54.38 49.8198 54.0767 49.9398 53.83C50.0598 53.5833 50.2232 53.3767 50.4298 53.21C50.6432 53.0367 50.8865 52.8867 51.1598 52.76C51.4398 52.6333 51.7332 52.51 52.0398 52.39V51.98C52.0398 51.7467 52.0265 51.5533 51.9998 51.4C51.9732 51.2467 51.9165 51.1333 51.8298 51.06C51.7498 50.98 51.6265 50.94 51.4598 50.94C51.3132 50.94 51.1932 50.9733 51.0998 51.04C51.0132 51.1067 50.9498 51.2033 50.9098 51.33C50.8698 51.45 50.8498 51.5933 50.8498 51.76V52.05L49.7898 52.01C49.8032 51.37 49.9498 50.9 50.2298 50.6C50.5098 50.2933 50.9432 50.14 51.5298 50.14C52.1032 50.14 52.5098 50.2967 52.7498 50.61C52.9898 50.9233 53.1098 51.3767 53.1098 51.97V54.61C53.1098 54.79 53.1132 54.9633 53.1198 55.13C53.1332 55.2967 53.1465 55.4533 53.1598 55.6C53.1798 55.74 53.1965 55.8733 53.2098 56H52.2298C52.2098 55.8933 52.1832 55.76 52.1498 55.6C52.1232 55.4333 52.1032 55.2833 52.0898 55.15C52.0232 55.3767 51.8932 55.59 51.6998 55.79C51.5132 55.9833 51.2532 56.08 50.9198 56.08ZM51.3398 55.16C51.4465 55.16 51.5465 55.13 51.6398 55.07C51.7332 55.01 51.8165 54.9433 51.8898 54.87C51.9632 54.79 52.0132 54.7267 52.0398 54.68V53.04C51.8732 53.1333 51.7165 53.2267 51.5698 53.32C51.4232 53.4133 51.2932 53.5133 51.1798 53.62C51.0732 53.72 50.9865 53.8367 50.9198 53.97C50.8598 54.0967 50.8298 54.2433 50.8298 54.41C50.8298 54.6433 50.8732 54.8267 50.9598 54.96C51.0465 55.0933 51.1732 55.16 51.3398 55.16ZM54.1377 56V50.22H55.7577C56.151 50.22 56.4577 50.2867 56.6777 50.42C56.9043 50.5467 57.0643 50.7167 57.1577 50.93C57.2577 51.1367 57.311 51.36 57.3177 51.6C57.3243 51.8867 57.2777 52.1433 57.1777 52.37C57.0777 52.5967 56.871 52.7567 56.5577 52.85C56.7977 52.8967 56.981 52.9967 57.1077 53.15C57.241 53.2967 57.331 53.4733 57.3777 53.68C57.431 53.8867 57.4577 54.1 57.4577 54.32C57.4577 54.6533 57.4077 54.9467 57.3077 55.2C57.2143 55.4533 57.0477 55.65 56.8077 55.79C56.5743 55.93 56.241 56 55.8077 56H54.1377ZM55.1877 55.19H55.5677C55.721 55.19 55.861 55.17 55.9877 55.13C56.1143 55.0833 56.2143 54.9933 56.2877 54.86C56.3677 54.7267 56.4077 54.5333 56.4077 54.28C56.4077 53.98 56.371 53.7633 56.2977 53.63C56.231 53.49 56.1377 53.4033 56.0177 53.37C55.9043 53.3367 55.771 53.32 55.6177 53.32H55.1877V55.19ZM55.1877 52.55H55.7077C55.9143 52.55 56.0777 52.49 56.1977 52.37C56.3177 52.25 56.3777 52.0367 56.3777 51.73C56.3777 51.4567 56.3077 51.2667 56.1677 51.16C56.0277 51.0533 55.8377 51 55.5977 51H55.1877V52.55ZM58.288 56V50.22H59.188V54.11L60.928 50.22H61.768V56H60.888V52.08L59.158 56H58.288ZM62.4884 56.05V55.24C62.6884 55.24 62.845 55.2 62.9584 55.12C63.0784 55.04 63.1684 54.9067 63.2284 54.72C63.295 54.5267 63.345 54.27 63.3784 53.95C63.4117 53.6233 63.4417 53.2167 63.4684 52.73L63.5984 50.22H66.6284V56H65.5584V51.03H64.5384L64.4484 52.73C64.415 53.39 64.365 53.9367 64.2984 54.37C64.2384 54.8033 64.1417 55.1433 64.0084 55.39C63.875 55.63 63.695 55.8 63.4684 55.9C63.2484 56 62.9617 56.05 62.6084 56.05H62.4884ZM67.7119 56V50.22H68.6119V54.11L70.3519 50.22H71.1919V56H70.3119V52.08L68.5819 56H67.7119ZM74.5373 56L74.5973 50.22H75.3873L76.6673 53.77L77.9573 50.22H78.7473L78.8073 56H77.9073V52.55L76.8373 55.43H76.5073L75.4373 52.57V56H74.5373ZM80.9003 56.08C80.6736 56.08 80.4736 56.0167 80.3003 55.89C80.127 55.7567 79.9903 55.59 79.8903 55.39C79.7903 55.1833 79.7403 54.9667 79.7403 54.74C79.7403 54.38 79.8003 54.0767 79.9203 53.83C80.0403 53.5833 80.2036 53.3767 80.4103 53.21C80.6236 53.0367 80.867 52.8867 81.1403 52.76C81.4203 52.6333 81.7136 52.51 82.0203 52.39V51.98C82.0203 51.7467 82.007 51.5533 81.9803 51.4C81.9536 51.2467 81.897 51.1333 81.8103 51.06C81.7303 50.98 81.607 50.94 81.4403 50.94C81.2936 50.94 81.1736 50.9733 81.0803 51.04C80.9936 51.1067 80.9303 51.2033 80.8903 51.33C80.8503 51.45 80.8303 51.5933 80.8303 51.76V52.05L79.7703 52.01C79.7836 51.37 79.9303 50.9 80.2103 50.6C80.4903 50.2933 80.9236 50.14 81.5103 50.14C82.0836 50.14 82.4903 50.2967 82.7303 50.61C82.9703 50.9233 83.0903 51.3767 83.0903 51.97V54.61C83.0903 54.79 83.0936 54.9633 83.1003 55.13C83.1136 55.2967 83.127 55.4533 83.1403 55.6C83.1603 55.74 83.177 55.8733 83.1903 56H82.2103C82.1903 55.8933 82.1636 55.76 82.1303 55.6C82.1036 55.4333 82.0836 55.2833 82.0703 55.15C82.0036 55.3767 81.8736 55.59 81.6803 55.79C81.4936 55.9833 81.2336 56.08 80.9003 56.08ZM81.3203 55.16C81.427 55.16 81.527 55.13 81.6203 55.07C81.7136 55.01 81.797 54.9433 81.8703 54.87C81.9436 54.79 81.9936 54.7267 82.0203 54.68V53.04C81.8536 53.1333 81.697 53.2267 81.5503 53.32C81.4036 53.4133 81.2736 53.5133 81.1603 53.62C81.0536 53.72 80.967 53.8367 80.9003 53.97C80.8403 54.0967 80.8103 54.2433 80.8103 54.41C80.8103 54.6433 80.8536 54.8267 80.9403 54.96C81.027 55.0933 81.1536 55.16 81.3203 55.16ZM84.7681 56V51.02H83.6881V50.22H86.9281V51.02H85.8381V56H84.7681Z"></path>
</svg>
