<svg xmlns="http://www.w3.org/2000/svg" fill="none" viewBox="0 0 214 84" height="84" width="214">
<mask fill="white" id="path-1-inside-1_1612_14">
<path d="M0 0H214V84H0V0Z"></path>
</mask>
<path fill="#0D0E12" d="M0 0H214V84H0V0Z"></path>
<path mask="url(#path-1-inside-1_1612_14)" fill="white" d="M0 0V-1H-1V0H0ZM0 84H-1V85H0V84ZM0 1H214V-1H0V1ZM214 83H0V85H214V83ZM1 84V0H-1V84H1Z"></path>
<path fill="white" d="M16.684 38L16.852 28.28H19.156L20.224 33.932L21.376 28.28H23.596L23.764 38H22.24L22.06 31.532L20.932 38H19.576L18.376 31.484L18.232 38H16.684ZM25.1692 38V28.28H29.5372V29.744H27.3172V32.156H29.0092V33.644H27.3172V36.548H29.5612V38H25.1692ZM33.1164 38.144C32.5084 38.144 32.0004 38.036 31.5924 37.82C31.1844 37.604 30.8764 37.272 30.6684 36.824C30.4604 36.368 30.3444 35.78 30.3204 35.06L32.1564 34.784C32.1644 35.2 32.2004 35.536 32.2644 35.792C32.3364 36.048 32.4324 36.232 32.5524 36.344C32.6804 36.456 32.8324 36.512 33.0084 36.512C33.2324 36.512 33.3764 36.436 33.4404 36.284C33.5124 36.132 33.5484 35.972 33.5484 35.804C33.5484 35.404 33.4524 35.068 33.2604 34.796C33.0684 34.516 32.8084 34.236 32.4804 33.956L31.6404 33.224C31.2724 32.912 30.9604 32.56 30.7044 32.168C30.4564 31.768 30.3324 31.276 30.3324 30.692C30.3324 29.868 30.5764 29.24 31.0644 28.808C31.5524 28.368 32.2164 28.148 33.0564 28.148C33.5764 28.148 33.9924 28.236 34.3044 28.412C34.6244 28.588 34.8644 28.82 35.0244 29.108C35.1924 29.388 35.3044 29.688 35.3604 30.008C35.4244 30.32 35.4604 30.62 35.4684 30.908L33.6204 31.136C33.6124 30.848 33.5924 30.6 33.5604 30.392C33.5364 30.176 33.4804 30.012 33.3924 29.9C33.3044 29.78 33.1684 29.72 32.9844 29.72C32.7844 29.72 32.6364 29.804 32.5404 29.972C32.4524 30.14 32.4084 30.308 32.4084 30.476C32.4084 30.836 32.4924 31.132 32.6604 31.364C32.8364 31.588 33.0644 31.824 33.3444 32.072L34.1484 32.78C34.5724 33.14 34.9284 33.548 35.2164 34.004C35.5124 34.46 35.6604 35.024 35.6604 35.696C35.6604 36.152 35.5564 36.568 35.3484 36.944C35.1404 37.312 34.8444 37.604 34.4604 37.82C34.0844 38.036 33.6364 38.144 33.1164 38.144ZM39.093 38.144C38.485 38.144 37.977 38.036 37.569 37.82C37.161 37.604 36.853 37.272 36.645 36.824C36.437 36.368 36.321 35.78 36.297 35.06L38.133 34.784C38.141 35.2 38.177 35.536 38.241 35.792C38.313 36.048 38.409 36.232 38.529 36.344C38.657 36.456 38.809 36.512 38.985 36.512C39.209 36.512 39.353 36.436 39.417 36.284C39.489 36.132 39.525 35.972 39.525 35.804C39.525 35.404 39.429 35.068 39.237 34.796C39.045 34.516 38.785 34.236 38.457 33.956L37.617 33.224C37.249 32.912 36.937 32.56 36.681 32.168C36.433 31.768 36.309 31.276 36.309 30.692C36.309 29.868 36.553 29.24 37.041 28.808C37.529 28.368 38.193 28.148 39.033 28.148C39.553 28.148 39.969 28.236 40.281 28.412C40.601 28.588 40.841 28.82 41.001 29.108C41.169 29.388 41.281 29.688 41.337 30.008C41.401 30.32 41.437 30.62 41.445 30.908L39.597 31.136C39.589 30.848 39.569 30.6 39.537 30.392C39.513 30.176 39.457 30.012 39.369 29.9C39.281 29.78 39.145 29.72 38.961 29.72C38.761 29.72 38.613 29.804 38.517 29.972C38.429 30.14 38.385 30.308 38.385 30.476C38.385 30.836 38.469 31.132 38.637 31.364C38.813 31.588 39.041 31.824 39.321 32.072L40.125 32.78C40.549 33.14 40.905 33.548 41.193 34.004C41.489 34.46 41.637 35.024 41.637 35.696C41.637 36.152 41.533 36.568 41.325 36.944C41.117 37.312 40.821 37.604 40.437 37.82C40.061 38.036 39.613 38.144 39.093 38.144ZM42.1153 38L43.9513 28.28H46.3993L48.2113 38H46.2313L45.9073 35.948H44.4793L44.1433 38H42.1153ZM44.6713 34.664H45.7033L45.1873 30.872L44.6713 34.664ZM51.5723 38.144C50.9003 38.144 50.3683 38.004 49.9763 37.724C49.5923 37.444 49.3163 37.052 49.1483 36.548C48.9883 36.036 48.9083 35.448 48.9083 34.784V31.52C48.9083 30.832 48.9963 30.236 49.1723 29.732C49.3483 29.228 49.6483 28.84 50.0723 28.568C50.5043 28.288 51.0883 28.148 51.8243 28.148C52.5443 28.148 53.1083 28.268 53.5163 28.508C53.9323 28.748 54.2283 29.08 54.4043 29.504C54.5803 29.928 54.6683 30.424 54.6683 30.992V31.616H52.5683V30.824C52.5683 30.616 52.5523 30.424 52.5203 30.248C52.4963 30.072 52.4323 29.932 52.3283 29.828C52.2323 29.716 52.0723 29.66 51.8483 29.66C51.6163 29.66 51.4483 29.724 51.3443 29.852C51.2403 29.972 51.1723 30.124 51.1403 30.308C51.1163 30.492 51.1043 30.684 51.1043 30.884V35.384C51.1043 35.6 51.1243 35.804 51.1643 35.996C51.2123 36.18 51.2923 36.332 51.4043 36.452C51.5243 36.564 51.6923 36.62 51.9083 36.62C52.1323 36.62 52.3043 36.56 52.4243 36.44C52.5443 36.32 52.6283 36.164 52.6763 35.972C52.7243 35.78 52.7483 35.576 52.7483 35.36V34.22H51.8723V32.96H54.6803V38H53.2643L53.1443 37.196C53.0163 37.468 52.8283 37.696 52.5803 37.88C52.3323 38.056 51.9963 38.144 51.5723 38.144ZM56.0247 38V28.28H60.3927V29.744H58.1727V32.156H59.8647V33.644H58.1727V36.548H60.4167V38H56.0247Z"></path>
<path fill="white" d="M16.63 56V47.9H18.64C19.1267 47.9 19.5133 47.99 19.8 48.17C20.0933 48.3433 20.3067 48.5967 20.44 48.93C20.5733 49.2633 20.64 49.6667 20.64 50.14C20.64 50.5667 20.5633 50.9367 20.41 51.25C20.2633 51.5633 20.0433 51.8067 19.75 51.98C19.4567 52.1467 19.09 52.23 18.65 52.23H17.76V56H16.63ZM17.76 51.42H18.28C18.6067 51.42 18.8633 51.3833 19.05 51.31C19.2367 51.2367 19.37 51.11 19.45 50.93C19.53 50.7433 19.57 50.4833 19.57 50.15C19.57 49.7633 19.54 49.4667 19.48 49.26C19.4267 49.0533 19.31 48.91 19.13 48.83C18.95 48.75 18.67 48.71 18.29 48.71H17.76V51.42ZM22.8861 56.08C22.4328 56.08 22.0828 55.9933 21.8361 55.82C21.5894 55.64 21.4161 55.38 21.3161 55.04C21.2228 54.6933 21.1761 54.27 21.1761 53.77V52.45C21.1761 51.9367 21.2261 51.51 21.3261 51.17C21.4261 50.83 21.5994 50.5733 21.8461 50.4C22.0994 50.2267 22.4461 50.14 22.8861 50.14C23.3728 50.14 23.7294 50.24 23.9561 50.44C24.1894 50.64 24.3428 50.93 24.4161 51.31C24.4894 51.6833 24.5261 52.1333 24.5261 52.66V53.13H22.2461V54.29C22.2461 54.5233 22.2661 54.7133 22.3061 54.86C22.3528 55.0067 22.4228 55.1167 22.5161 55.19C22.6161 55.2567 22.7428 55.29 22.8961 55.29C23.0561 55.29 23.1761 55.2533 23.2561 55.18C23.3428 55.1 23.3994 54.99 23.4261 54.85C23.4594 54.7033 23.4761 54.5333 23.4761 54.34V53.99H24.5161V54.21C24.5161 54.79 24.3928 55.2467 24.1461 55.58C23.8994 55.9133 23.4794 56.08 22.8861 56.08ZM22.2461 52.55H23.4761V52.03C23.4761 51.79 23.4628 51.59 23.4361 51.43C23.4094 51.2633 23.3528 51.14 23.2661 51.06C23.1861 50.9733 23.0561 50.93 22.8761 50.93C22.7028 50.93 22.5694 50.97 22.4761 51.05C22.3894 51.13 22.3294 51.2667 22.2961 51.46C22.2628 51.6467 22.2461 51.9067 22.2461 52.24V52.55ZM25.5251 56V50.22H26.5951V51.04C26.8084 50.6867 27.0217 50.45 27.2351 50.33C27.4484 50.21 27.6617 50.15 27.8751 50.15C27.9017 50.15 27.9251 50.15 27.9451 50.15C27.9717 50.15 28.0051 50.1533 28.0451 50.16V51.34C27.9651 51.3067 27.8717 51.28 27.7651 51.26C27.6651 51.2333 27.5617 51.22 27.4551 51.22C27.2884 51.22 27.1351 51.26 26.9951 51.34C26.8617 51.4133 26.7284 51.56 26.5951 51.78V56H25.5251ZM28.738 56V47.9H29.808V50.82C30.0013 50.6333 30.218 50.4733 30.458 50.34C30.698 50.2067 30.9646 50.14 31.258 50.14C31.4846 50.14 31.658 50.2 31.778 50.32C31.9046 50.44 31.9913 50.59 32.038 50.77C32.0913 50.95 32.118 51.1333 32.118 51.32V56H31.048V51.63C31.048 51.4233 31.018 51.2633 30.958 51.15C30.898 51.0367 30.7746 50.98 30.588 50.98C30.4613 50.98 30.328 51.0167 30.188 51.09C30.0546 51.1633 29.928 51.2533 29.808 51.36V56H28.738ZM34.2011 56.08C33.9744 56.08 33.7744 56.0167 33.6011 55.89C33.4278 55.7567 33.2911 55.59 33.1911 55.39C33.0911 55.1833 33.0411 54.9667 33.0411 54.74C33.0411 54.38 33.1011 54.0767 33.2211 53.83C33.3411 53.5833 33.5044 53.3767 33.7111 53.21C33.9244 53.0367 34.1678 52.8867 34.4411 52.76C34.7211 52.6333 35.0144 52.51 35.3211 52.39V51.98C35.3211 51.7467 35.3078 51.5533 35.2811 51.4C35.2544 51.2467 35.1978 51.1333 35.1111 51.06C35.0311 50.98 34.9078 50.94 34.7411 50.94C34.5944 50.94 34.4744 50.9733 34.3811 51.04C34.2944 51.1067 34.2311 51.2033 34.1911 51.33C34.1511 51.45 34.1311 51.5933 34.1311 51.76V52.05L33.0711 52.01C33.0844 51.37 33.2311 50.9 33.5111 50.6C33.7911 50.2933 34.2244 50.14 34.8111 50.14C35.3844 50.14 35.7911 50.2967 36.0311 50.61C36.2711 50.9233 36.3911 51.3767 36.3911 51.97V54.61C36.3911 54.79 36.3944 54.9633 36.4011 55.13C36.4144 55.2967 36.4278 55.4533 36.4411 55.6C36.4611 55.74 36.4778 55.8733 36.4911 56H35.5111C35.4911 55.8933 35.4644 55.76 35.4311 55.6C35.4044 55.4333 35.3844 55.2833 35.3711 55.15C35.3044 55.3767 35.1744 55.59 34.9811 55.79C34.7944 55.9833 34.5344 56.08 34.2011 56.08ZM34.6211 55.16C34.7278 55.16 34.8278 55.13 34.9211 55.07C35.0144 55.01 35.0978 54.9433 35.1711 54.87C35.2444 54.79 35.2944 54.7267 35.3211 54.68V53.04C35.1544 53.1333 34.9978 53.2267 34.8511 53.32C34.7044 53.4133 34.5744 53.5133 34.4611 53.62C34.3544 53.72 34.2678 53.8367 34.2011 53.97C34.1411 54.0967 34.1111 54.2433 34.1111 54.41C34.1111 54.6433 34.1544 54.8267 34.2411 54.96C34.3278 55.0933 34.4544 55.16 34.6211 55.16ZM37.4189 57.9V50.22H38.4889V50.68C38.6156 50.5333 38.7689 50.4067 38.9489 50.3C39.1289 50.1933 39.3422 50.14 39.5889 50.14C39.8889 50.14 40.1256 50.22 40.2989 50.38C40.4789 50.5333 40.6122 50.73 40.6989 50.97C40.7856 51.2033 40.8422 51.4433 40.8689 51.69C40.8956 51.93 40.9089 52.1367 40.9089 52.31V53.71C40.9089 54.1167 40.8689 54.5033 40.7889 54.87C40.7089 55.23 40.5622 55.5233 40.3489 55.75C40.1422 55.97 39.8489 56.08 39.4689 56.08C39.2622 56.08 39.0789 56.03 38.9189 55.93C38.7589 55.8233 38.6156 55.7033 38.4889 55.57V57.9H37.4189ZM39.2589 55.24C39.4456 55.24 39.5789 55.1733 39.6589 55.04C39.7389 54.9 39.7889 54.7133 39.8089 54.48C39.8289 54.2467 39.8389 53.99 39.8389 53.71V52.31C39.8389 52.07 39.8256 51.85 39.7989 51.65C39.7722 51.4433 39.7156 51.28 39.6289 51.16C39.5422 51.04 39.4056 50.98 39.2189 50.98C39.0789 50.98 38.9456 51.01 38.8189 51.07C38.6922 51.13 38.5822 51.2 38.4889 51.28V54.98C38.5889 55.0533 38.7022 55.1167 38.8289 55.17C38.9556 55.2167 39.0989 55.24 39.2589 55.24ZM43.2218 56.08C42.7485 56.08 42.3685 55.9333 42.0818 55.64C41.7951 55.34 41.6318 54.9467 41.5918 54.46L42.4818 54.19C42.5351 54.5567 42.6251 54.8333 42.7518 55.02C42.8785 55.2 43.0651 55.29 43.3118 55.29C43.5051 55.29 43.6518 55.2367 43.7518 55.13C43.8518 55.0167 43.9018 54.8667 43.9018 54.68C43.9018 54.5133 43.8651 54.3633 43.7918 54.23C43.7185 54.0967 43.5985 53.96 43.4318 53.82L42.4418 52.97C42.2418 52.7967 42.0718 52.6033 41.9318 52.39C41.7985 52.1767 41.7318 51.9 41.7318 51.56C41.7318 51.2533 41.7918 50.9967 41.9118 50.79C42.0385 50.5767 42.2118 50.4167 42.4318 50.31C42.6585 50.1967 42.9218 50.14 43.2218 50.14C43.6818 50.14 44.0318 50.29 44.2718 50.59C44.5185 50.8833 44.6585 51.24 44.6918 51.66L43.9718 51.93C43.9451 51.73 43.9051 51.5567 43.8518 51.41C43.7985 51.2567 43.7251 51.14 43.6318 51.06C43.5385 50.9733 43.4151 50.93 43.2618 50.93C43.0885 50.93 42.9485 50.99 42.8418 51.11C42.7418 51.2233 42.6918 51.36 42.6918 51.52C42.6918 51.62 42.7118 51.72 42.7518 51.82C42.7985 51.9133 42.8751 52.0067 42.9818 52.1L44.0018 53.04C44.1418 53.1667 44.2718 53.3033 44.3918 53.45C44.5185 53.5967 44.6218 53.7633 44.7018 53.95C44.7818 54.1367 44.8218 54.3533 44.8218 54.6C44.8218 54.9267 44.7551 55.2 44.6218 55.42C44.4885 55.64 44.3018 55.8067 44.0618 55.92C43.8218 56.0267 43.5418 56.08 43.2218 56.08ZM49.4472 56.08C49.1472 56.08 48.9039 56.0233 48.7172 55.91C48.5372 55.7967 48.4039 55.6367 48.3172 55.43C48.2372 55.2233 48.1972 54.98 48.1972 54.7V50.93H47.5872V50.22H48.1972V48.53H49.2672V50.22H50.1972V50.93H49.2672V54.63C49.2672 54.8567 49.3039 55.02 49.3772 55.12C49.4505 55.2133 49.5905 55.26 49.7972 55.26C49.8505 55.26 49.9105 55.2567 49.9772 55.25C50.0505 55.2433 50.1205 55.2367 50.1872 55.23V56.02C50.0539 56.04 49.9305 56.0533 49.8172 56.06C49.7039 56.0733 49.5805 56.08 49.4472 56.08ZM51.0134 56V47.9H52.0834V50.82C52.2767 50.6333 52.4934 50.4733 52.7334 50.34C52.9734 50.2067 53.24 50.14 53.5334 50.14C53.76 50.14 53.9334 50.2 54.0534 50.32C54.18 50.44 54.2667 50.59 54.3134 50.77C54.3667 50.95 54.3934 51.1333 54.3934 51.32V56H53.3234V51.63C53.3234 51.4233 53.2934 51.2633 53.2334 51.15C53.1734 51.0367 53.05 50.98 52.8634 50.98C52.7367 50.98 52.6034 51.0167 52.4634 51.09C52.33 51.1633 52.2034 51.2533 52.0834 51.36V56H51.0134ZM55.5065 56V50.22H56.5765V56H55.5065ZM55.5065 49.36V48.24H56.5765V49.36H55.5065ZM59.0616 56.08C58.5883 56.08 58.2083 55.9333 57.9216 55.64C57.635 55.34 57.4716 54.9467 57.4316 54.46L58.3216 54.19C58.375 54.5567 58.465 54.8333 58.5916 55.02C58.7183 55.2 58.905 55.29 59.1516 55.29C59.345 55.29 59.4916 55.2367 59.5916 55.13C59.6916 55.0167 59.7416 54.8667 59.7416 54.68C59.7416 54.5133 59.705 54.3633 59.6316 54.23C59.5583 54.0967 59.4383 53.96 59.2716 53.82L58.2816 52.97C58.0816 52.7967 57.9116 52.6033 57.7716 52.39C57.6383 52.1767 57.5716 51.9 57.5716 51.56C57.5716 51.2533 57.6316 50.9967 57.7516 50.79C57.8783 50.5767 58.0516 50.4167 58.2716 50.31C58.4983 50.1967 58.7616 50.14 59.0616 50.14C59.5216 50.14 59.8716 50.29 60.1116 50.59C60.3583 50.8833 60.4983 51.24 60.5316 51.66L59.8116 51.93C59.785 51.73 59.745 51.5567 59.6916 51.41C59.6383 51.2567 59.565 51.14 59.4716 51.06C59.3783 50.9733 59.255 50.93 59.1016 50.93C58.9283 50.93 58.7883 50.99 58.6816 51.11C58.5816 51.2233 58.5316 51.36 58.5316 51.52C58.5316 51.62 58.5516 51.72 58.5916 51.82C58.6383 51.9133 58.715 52.0067 58.8216 52.1L59.8416 53.04C59.9816 53.1667 60.1116 53.3033 60.2316 53.45C60.3583 53.5967 60.4616 53.7633 60.5416 53.95C60.6216 54.1367 60.6616 54.3533 60.6616 54.6C60.6616 54.9267 60.595 55.2 60.4616 55.42C60.3283 55.64 60.1416 55.8067 59.9016 55.92C59.6616 56.0267 59.3816 56.08 59.0616 56.08ZM63.817 56V50.22H64.887V56H63.817ZM63.817 49.36V48.24H64.887V49.36H63.817ZM67.3722 56.08C66.8989 56.08 66.5189 55.9333 66.2322 55.64C65.9455 55.34 65.7822 54.9467 65.7422 54.46L66.6322 54.19C66.6855 54.5567 66.7755 54.8333 66.9022 55.02C67.0289 55.2 67.2155 55.29 67.4622 55.29C67.6555 55.29 67.8022 55.2367 67.9022 55.13C68.0022 55.0167 68.0522 54.8667 68.0522 54.68C68.0522 54.5133 68.0155 54.3633 67.9422 54.23C67.8689 54.0967 67.7489 53.96 67.5822 53.82L66.5922 52.97C66.3922 52.7967 66.2222 52.6033 66.0822 52.39C65.9489 52.1767 65.8822 51.9 65.8822 51.56C65.8822 51.2533 65.9422 50.9967 66.0622 50.79C66.1889 50.5767 66.3622 50.4167 66.5822 50.31C66.8089 50.1967 67.0722 50.14 67.3722 50.14C67.8322 50.14 68.1822 50.29 68.4222 50.59C68.6689 50.8833 68.8089 51.24 68.8422 51.66L68.1222 51.93C68.0955 51.73 68.0555 51.5567 68.0022 51.41C67.9489 51.2567 67.8755 51.14 67.7822 51.06C67.6889 50.9733 67.5655 50.93 67.4122 50.93C67.2389 50.93 67.0989 50.99 66.9922 51.11C66.8922 51.2233 66.8422 51.36 66.8422 51.52C66.8422 51.62 66.8622 51.72 66.9022 51.82C66.9489 51.9133 67.0255 52.0067 67.1322 52.1L68.1522 53.04C68.2922 53.1667 68.4222 53.3033 68.5422 53.45C68.6689 53.5967 68.7722 53.7633 68.8522 53.95C68.9322 54.1367 68.9722 54.3533 68.9722 54.6C68.9722 54.9267 68.9055 55.2 68.7722 55.42C68.6389 55.64 68.4522 55.8067 68.2122 55.92C67.9722 56.0267 67.6922 56.08 67.3722 56.08ZM73.5976 56.08C73.2976 56.08 73.0542 56.0233 72.8676 55.91C72.6876 55.7967 72.5542 55.6367 72.4676 55.43C72.3876 55.2233 72.3476 54.98 72.3476 54.7V50.93H71.7376V50.22H72.3476V48.53H73.4176V50.22H74.3476V50.93H73.4176V54.63C73.4176 54.8567 73.4542 55.02 73.5276 55.12C73.6009 55.2133 73.7409 55.26 73.9476 55.26C74.0009 55.26 74.0609 55.2567 74.1276 55.25C74.2009 55.2433 74.2709 55.2367 74.3376 55.23V56.02C74.2042 56.04 74.0809 56.0533 73.9676 56.06C73.8542 56.0733 73.7309 56.08 73.5976 56.08ZM75.1638 56V47.9H76.2338V50.82C76.4271 50.6333 76.6438 50.4733 76.8838 50.34C77.1238 50.2067 77.3904 50.14 77.6838 50.14C77.9104 50.14 78.0838 50.2 78.2038 50.32C78.3304 50.44 78.4171 50.59 78.4638 50.77C78.5171 50.95 78.5438 51.1333 78.5438 51.32V56H77.4738V51.63C77.4738 51.4233 77.4438 51.2633 77.3838 51.15C77.3238 51.0367 77.2004 50.98 77.0138 50.98C76.8871 50.98 76.7538 51.0167 76.6138 51.09C76.4804 51.1633 76.3538 51.2533 76.2338 51.36V56H75.1638ZM81.1869 56.08C80.7335 56.08 80.3835 55.9933 80.1369 55.82C79.8902 55.64 79.7169 55.38 79.6169 55.04C79.5235 54.6933 79.4769 54.27 79.4769 53.77V52.45C79.4769 51.9367 79.5269 51.51 79.6269 51.17C79.7269 50.83 79.9002 50.5733 80.1469 50.4C80.4002 50.2267 80.7469 50.14 81.1869 50.14C81.6735 50.14 82.0302 50.24 82.2569 50.44C82.4902 50.64 82.6435 50.93 82.7169 51.31C82.7902 51.6833 82.8269 52.1333 82.8269 52.66V53.13H80.5469V54.29C80.5469 54.5233 80.5669 54.7133 80.6069 54.86C80.6535 55.0067 80.7235 55.1167 80.8169 55.19C80.9169 55.2567 81.0435 55.29 81.1969 55.29C81.3569 55.29 81.4769 55.2533 81.5569 55.18C81.6435 55.1 81.7002 54.99 81.7269 54.85C81.7602 54.7033 81.7769 54.5333 81.7769 54.34V53.99H82.8169V54.21C82.8169 54.79 82.6935 55.2467 82.4469 55.58C82.2002 55.9133 81.7802 56.08 81.1869 56.08ZM80.5469 52.55H81.7769V52.03C81.7769 51.79 81.7635 51.59 81.7369 51.43C81.7102 51.2633 81.6535 51.14 81.5669 51.06C81.4869 50.9733 81.3569 50.93 81.1769 50.93C81.0035 50.93 80.8702 50.97 80.7769 51.05C80.6902 51.13 80.6302 51.2667 80.5969 51.46C80.5635 51.6467 80.5469 51.9067 80.5469 52.24V52.55ZM87.661 56.08C87.1877 56.08 86.8277 55.9867 86.581 55.8C86.341 55.6067 86.1777 55.3367 86.091 54.99C86.011 54.6433 85.971 54.24 85.971 53.78V52.45C85.971 51.9633 86.0143 51.55 86.101 51.21C86.1877 50.8633 86.351 50.6 86.591 50.42C86.8377 50.2333 87.1943 50.14 87.661 50.14C88.081 50.14 88.4043 50.21 88.631 50.35C88.8643 50.4833 89.0243 50.6867 89.111 50.96C89.1977 51.2267 89.241 51.56 89.241 51.96V52.3H88.271V51.95C88.271 51.6967 88.2543 51.4967 88.221 51.35C88.1877 51.2033 88.1277 51.0967 88.041 51.03C87.9543 50.9633 87.831 50.93 87.671 50.93C87.4977 50.93 87.3643 50.97 87.271 51.05C87.1777 51.13 87.1143 51.2667 87.081 51.46C87.0543 51.6467 87.041 51.9033 87.041 52.23V54.05C87.041 54.5433 87.0877 54.8733 87.181 55.04C87.2743 55.2067 87.441 55.29 87.681 55.29C87.861 55.29 87.991 55.25 88.071 55.17C88.1577 55.0833 88.211 54.9633 88.231 54.81C88.2577 54.6567 88.271 54.4833 88.271 54.29V53.82H89.241V54.22C89.241 54.6067 89.1943 54.94 89.101 55.22C89.0143 55.5 88.8543 55.7133 88.621 55.86C88.3943 56.0067 88.0743 56.08 87.661 56.08ZM91.7823 56.08C91.3557 56.08 91.019 55.9933 90.7723 55.82C90.5257 55.6467 90.349 55.4 90.2423 55.08C90.1423 54.76 90.0923 54.3833 90.0923 53.95V52.27C90.0923 51.8367 90.1423 51.46 90.2423 51.14C90.349 50.82 90.5257 50.5733 90.7723 50.4C91.019 50.2267 91.3557 50.14 91.7823 50.14C92.209 50.14 92.5423 50.2267 92.7823 50.4C93.029 50.5733 93.2023 50.82 93.3023 51.14C93.409 51.46 93.4623 51.8367 93.4623 52.27V53.95C93.4623 54.3833 93.409 54.76 93.3023 55.08C93.2023 55.4 93.029 55.6467 92.7823 55.82C92.5423 55.9933 92.209 56.08 91.7823 56.08ZM91.7823 55.29C91.989 55.29 92.1323 55.23 92.2123 55.11C92.299 54.99 92.349 54.8333 92.3623 54.64C92.3823 54.44 92.3923 54.2333 92.3923 54.02V52.21C92.3923 51.99 92.3823 51.7833 92.3623 51.59C92.349 51.3967 92.299 51.24 92.2123 51.12C92.1323 50.9933 91.989 50.93 91.7823 50.93C91.5757 50.93 91.429 50.9933 91.3423 51.12C91.2557 51.24 91.2023 51.3967 91.1823 51.59C91.169 51.7833 91.1623 51.99 91.1623 52.21V54.02C91.1623 54.2333 91.169 54.44 91.1823 54.64C91.2023 54.8333 91.2557 54.99 91.3423 55.11C91.429 55.23 91.5757 55.29 91.7823 55.29ZM95.7804 56.08C95.2937 56.08 94.9304 55.9033 94.6904 55.55C94.4504 55.19 94.3304 54.5833 94.3304 53.73V52.61C94.3304 52.17 94.3671 51.7633 94.4404 51.39C94.5137 51.01 94.6504 50.7067 94.8504 50.48C95.0571 50.2533 95.3571 50.14 95.7504 50.14C95.9437 50.14 96.1204 50.1833 96.2804 50.27C96.4404 50.3567 96.5837 50.4633 96.7104 50.59V47.9H97.7804V56H96.7104V55.63C96.5837 55.7633 96.4437 55.8733 96.2904 55.96C96.1437 56.04 95.9737 56.08 95.7804 56.08ZM96.0504 55.24C96.1504 55.24 96.2571 55.2233 96.3704 55.19C96.4837 55.15 96.5971 55.0933 96.7104 55.02V51.23C96.6171 51.1633 96.5137 51.1067 96.4004 51.06C96.2871 51.0067 96.1637 50.98 96.0304 50.98C95.7837 50.98 95.6171 51.1 95.5304 51.34C95.4437 51.5733 95.4004 51.8567 95.4004 52.19V53.82C95.4004 54.0867 95.4137 54.33 95.4404 54.55C95.4737 54.7633 95.5371 54.9333 95.6304 55.06C95.7237 55.18 95.8637 55.24 96.0504 55.24ZM100.464 56.08C100.011 56.08 99.6609 55.9933 99.4142 55.82C99.1676 55.64 98.9942 55.38 98.8942 55.04C98.8009 54.6933 98.7542 54.27 98.7542 53.77V52.45C98.7542 51.9367 98.8042 51.51 98.9042 51.17C99.0042 50.83 99.1776 50.5733 99.4242 50.4C99.6776 50.2267 100.024 50.14 100.464 50.14C100.951 50.14 101.308 50.24 101.534 50.44C101.768 50.64 101.921 50.93 101.994 51.31C102.068 51.6833 102.104 52.1333 102.104 52.66V53.13H99.8242V54.29C99.8242 54.5233 99.8442 54.7133 99.8842 54.86C99.9309 55.0067 100.001 55.1167 100.094 55.19C100.194 55.2567 100.321 55.29 100.474 55.29C100.634 55.29 100.754 55.2533 100.834 55.18C100.921 55.1 100.978 54.99 101.004 54.85C101.038 54.7033 101.054 54.5333 101.054 54.34V53.99H102.094V54.21C102.094 54.79 101.971 55.2467 101.724 55.58C101.478 55.9133 101.058 56.08 100.464 56.08ZM99.8242 52.55H101.054V52.03C101.054 51.79 101.041 51.59 101.014 51.43C100.988 51.2633 100.931 51.14 100.844 51.06C100.764 50.9733 100.634 50.93 100.454 50.93C100.281 50.93 100.148 50.97 100.054 51.05C99.9676 51.13 99.9076 51.2667 99.8742 51.46C99.8409 51.6467 99.8242 51.9067 99.8242 52.24V52.55ZM105.698 56V51.01H105.008V50.22H105.698V49.92C105.698 49.56 105.725 49.2533 105.778 49C105.838 48.74 105.958 48.54 106.138 48.4C106.318 48.26 106.588 48.19 106.948 48.19C107.082 48.19 107.198 48.1967 107.298 48.21C107.405 48.2167 107.522 48.2333 107.648 48.26V49.04C107.588 49.0267 107.522 49.0167 107.448 49.01C107.375 48.9967 107.308 48.99 107.248 48.99C107.042 48.99 106.908 49.06 106.848 49.2C106.795 49.3333 106.768 49.5133 106.768 49.74V50.22H107.648V51.01H106.768V56H105.698ZM109.819 56.08C109.393 56.08 109.056 55.9933 108.809 55.82C108.563 55.6467 108.386 55.4 108.279 55.08C108.179 54.76 108.129 54.3833 108.129 53.95V52.27C108.129 51.8367 108.179 51.46 108.279 51.14C108.386 50.82 108.563 50.5733 108.809 50.4C109.056 50.2267 109.393 50.14 109.819 50.14C110.246 50.14 110.579 50.2267 110.819 50.4C111.066 50.5733 111.239 50.82 111.339 51.14C111.446 51.46 111.499 51.8367 111.499 52.27V53.95C111.499 54.3833 111.446 54.76 111.339 55.08C111.239 55.4 111.066 55.6467 110.819 55.82C110.579 55.9933 110.246 56.08 109.819 56.08ZM109.819 55.29C110.026 55.29 110.169 55.23 110.249 55.11C110.336 54.99 110.386 54.8333 110.399 54.64C110.419 54.44 110.429 54.2333 110.429 54.02V52.21C110.429 51.99 110.419 51.7833 110.399 51.59C110.386 51.3967 110.336 51.24 110.249 51.12C110.169 50.9933 110.026 50.93 109.819 50.93C109.613 50.93 109.466 50.9933 109.379 51.12C109.293 51.24 109.239 51.3967 109.219 51.59C109.206 51.7833 109.199 51.99 109.199 52.21V54.02C109.199 54.2333 109.206 54.44 109.219 54.64C109.239 54.8333 109.293 54.99 109.379 55.11C109.466 55.23 109.613 55.29 109.819 55.29ZM112.508 56V50.22H113.578V51.04C113.791 50.6867 114.004 50.45 114.218 50.33C114.431 50.21 114.644 50.15 114.858 50.15C114.884 50.15 114.908 50.15 114.928 50.15C114.954 50.15 114.988 50.1533 115.028 50.16V51.34C114.948 51.3067 114.854 51.28 114.748 51.26C114.648 51.2333 114.544 51.22 114.438 51.22C114.271 51.22 114.118 51.26 113.978 51.34C113.844 51.4133 113.711 51.56 113.578 51.78V56H112.508ZM119.016 56.08C118.789 56.08 118.589 56.0167 118.416 55.89C118.242 55.7567 118.106 55.59 118.006 55.39C117.906 55.1833 117.856 54.9667 117.856 54.74C117.856 54.38 117.916 54.0767 118.036 53.83C118.156 53.5833 118.319 53.3767 118.526 53.21C118.739 53.0367 118.982 52.8867 119.256 52.76C119.536 52.6333 119.829 52.51 120.136 52.39V51.98C120.136 51.7467 120.122 51.5533 120.096 51.4C120.069 51.2467 120.012 51.1333 119.926 51.06C119.846 50.98 119.722 50.94 119.556 50.94C119.409 50.94 119.289 50.9733 119.196 51.04C119.109 51.1067 119.046 51.2033 119.006 51.33C118.966 51.45 118.946 51.5933 118.946 51.76V52.05L117.886 52.01C117.899 51.37 118.046 50.9 118.326 50.6C118.606 50.2933 119.039 50.14 119.626 50.14C120.199 50.14 120.606 50.2967 120.846 50.61C121.086 50.9233 121.206 51.3767 121.206 51.97V54.61C121.206 54.79 121.209 54.9633 121.216 55.13C121.229 55.2967 121.242 55.4533 121.256 55.6C121.276 55.74 121.292 55.8733 121.306 56H120.326C120.306 55.8933 120.279 55.76 120.246 55.6C120.219 55.4333 120.199 55.2833 120.186 55.15C120.119 55.3767 119.989 55.59 119.796 55.79C119.609 55.9833 119.349 56.08 119.016 56.08ZM119.436 55.16C119.542 55.16 119.642 55.13 119.736 55.07C119.829 55.01 119.912 54.9433 119.986 54.87C120.059 54.79 120.109 54.7267 120.136 54.68V53.04C119.969 53.1333 119.812 53.2267 119.666 53.32C119.519 53.4133 119.389 53.5133 119.276 53.62C119.169 53.72 119.082 53.8367 119.016 53.97C118.956 54.0967 118.926 54.2433 118.926 54.41C118.926 54.6433 118.969 54.8267 119.056 54.96C119.142 55.0933 119.269 55.16 119.436 55.16ZM126.099 56.08C125.625 56.08 125.265 55.9867 125.019 55.8C124.779 55.6067 124.615 55.3367 124.529 54.99C124.449 54.6433 124.409 54.24 124.409 53.78V52.45C124.409 51.9633 124.452 51.55 124.539 51.21C124.625 50.8633 124.789 50.6 125.029 50.42C125.275 50.2333 125.632 50.14 126.099 50.14C126.519 50.14 126.842 50.21 127.069 50.35C127.302 50.4833 127.462 50.6867 127.549 50.96C127.635 51.2267 127.679 51.56 127.679 51.96V52.3H126.709V51.95C126.709 51.6967 126.692 51.4967 126.659 51.35C126.625 51.2033 126.565 51.0967 126.479 51.03C126.392 50.9633 126.269 50.93 126.109 50.93C125.935 50.93 125.802 50.97 125.709 51.05C125.615 51.13 125.552 51.2667 125.519 51.46C125.492 51.6467 125.479 51.9033 125.479 52.23V54.05C125.479 54.5433 125.525 54.8733 125.619 55.04C125.712 55.2067 125.879 55.29 126.119 55.29C126.299 55.29 126.429 55.25 126.509 55.17C126.595 55.0833 126.649 54.9633 126.669 54.81C126.695 54.6567 126.709 54.4833 126.709 54.29V53.82H127.679V54.22C127.679 54.6067 127.632 54.94 127.539 55.22C127.452 55.5 127.292 55.7133 127.059 55.86C126.832 56.0067 126.512 56.08 126.099 56.08ZM128.66 56V47.9H129.73V50.82C129.923 50.6333 130.14 50.4733 130.38 50.34C130.62 50.2067 130.887 50.14 131.18 50.14C131.407 50.14 131.58 50.2 131.7 50.32C131.827 50.44 131.913 50.59 131.96 50.77C132.013 50.95 132.04 51.1333 132.04 51.32V56H130.97V51.63C130.97 51.4233 130.94 51.2633 130.88 51.15C130.82 51.0367 130.697 50.98 130.51 50.98C130.383 50.98 130.25 51.0167 130.11 51.09C129.977 51.1633 129.85 51.2533 129.73 51.36V56H128.66ZM134.683 56.08C134.23 56.08 133.88 55.9933 133.633 55.82C133.386 55.64 133.213 55.38 133.113 55.04C133.02 54.6933 132.973 54.27 132.973 53.77V52.45C132.973 51.9367 133.023 51.51 133.123 51.17C133.223 50.83 133.396 50.5733 133.643 50.4C133.896 50.2267 134.243 50.14 134.683 50.14C135.17 50.14 135.526 50.24 135.753 50.44C135.986 50.64 136.14 50.93 136.213 51.31C136.286 51.6833 136.323 52.1333 136.323 52.66V53.13H134.043V54.29C134.043 54.5233 134.063 54.7133 134.103 54.86C134.15 55.0067 134.22 55.1167 134.313 55.19C134.413 55.2567 134.54 55.29 134.693 55.29C134.853 55.29 134.973 55.2533 135.053 55.18C135.14 55.1 135.196 54.99 135.223 54.85C135.256 54.7033 135.273 54.5333 135.273 54.34V53.99H136.313V54.21C136.313 54.79 136.19 55.2467 135.943 55.58C135.696 55.9133 135.276 56.08 134.683 56.08ZM134.043 52.55H135.273V52.03C135.273 51.79 135.26 51.59 135.233 51.43C135.206 51.2633 135.15 51.14 135.063 51.06C134.983 50.9733 134.853 50.93 134.673 50.93C134.5 50.93 134.366 50.97 134.273 51.05C134.186 51.13 134.126 51.2667 134.093 51.46C134.06 51.6467 134.043 51.9067 134.043 52.24V52.55ZM138.632 56.08C138.159 56.08 137.779 55.9333 137.492 55.64C137.205 55.34 137.042 54.9467 137.002 54.46L137.892 54.19C137.945 54.5567 138.035 54.8333 138.162 55.02C138.289 55.2 138.475 55.29 138.722 55.29C138.915 55.29 139.062 55.2367 139.162 55.13C139.262 55.0167 139.312 54.8667 139.312 54.68C139.312 54.5133 139.275 54.3633 139.202 54.23C139.129 54.0967 139.009 53.96 138.842 53.82L137.852 52.97C137.652 52.7967 137.482 52.6033 137.342 52.39C137.209 52.1767 137.142 51.9 137.142 51.56C137.142 51.2533 137.202 50.9967 137.322 50.79C137.449 50.5767 137.622 50.4167 137.842 50.31C138.069 50.1967 138.332 50.14 138.632 50.14C139.092 50.14 139.442 50.29 139.682 50.59C139.929 50.8833 140.069 51.24 140.102 51.66L139.382 51.93C139.355 51.73 139.315 51.5567 139.262 51.41C139.209 51.2567 139.135 51.14 139.042 51.06C138.949 50.9733 138.825 50.93 138.672 50.93C138.499 50.93 138.359 50.99 138.252 51.11C138.152 51.2233 138.102 51.36 138.102 51.52C138.102 51.62 138.122 51.72 138.162 51.82C138.209 51.9133 138.285 52.0067 138.392 52.1L139.412 53.04C139.552 53.1667 139.682 53.3033 139.802 53.45C139.929 53.5967 140.032 53.7633 140.112 53.95C140.192 54.1367 140.232 54.3533 140.232 54.6C140.232 54.9267 140.165 55.2 140.032 55.42C139.899 55.64 139.712 55.8067 139.472 55.92C139.232 56.0267 138.952 56.08 138.632 56.08ZM142.372 56.08C141.899 56.08 141.519 55.9333 141.232 55.64C140.946 55.34 140.782 54.9467 140.742 54.46L141.632 54.19C141.686 54.5567 141.776 54.8333 141.902 55.02C142.029 55.2 142.216 55.29 142.462 55.29C142.656 55.29 142.802 55.2367 142.902 55.13C143.002 55.0167 143.052 54.8667 143.052 54.68C143.052 54.5133 143.016 54.3633 142.942 54.23C142.869 54.0967 142.749 53.96 142.582 53.82L141.592 52.97C141.392 52.7967 141.222 52.6033 141.082 52.39C140.949 52.1767 140.882 51.9 140.882 51.56C140.882 51.2533 140.942 50.9967 141.062 50.79C141.189 50.5767 141.362 50.4167 141.582 50.31C141.809 50.1967 142.072 50.14 142.372 50.14C142.832 50.14 143.182 50.29 143.422 50.59C143.669 50.8833 143.809 51.24 143.842 51.66L143.122 51.93C143.096 51.73 143.056 51.5567 143.002 51.41C142.949 51.2567 142.876 51.14 142.782 51.06C142.689 50.9733 142.566 50.93 142.412 50.93C142.239 50.93 142.099 50.99 141.992 51.11C141.892 51.2233 141.842 51.36 141.842 51.52C141.842 51.62 141.862 51.72 141.902 51.82C141.949 51.9133 142.026 52.0067 142.132 52.1L143.152 53.04C143.292 53.1667 143.422 53.3033 143.542 53.45C143.669 53.5967 143.772 53.7633 143.852 53.95C143.932 54.1367 143.972 54.3533 143.972 54.6C143.972 54.9267 143.906 55.2 143.772 55.42C143.639 55.64 143.452 55.8067 143.212 55.92C142.972 56.0267 142.692 56.08 142.372 56.08ZM148.558 57.79C148.211 57.79 147.898 57.7533 147.618 57.68C147.338 57.6067 147.118 57.49 146.958 57.33C146.798 57.17 146.718 56.96 146.718 56.7C146.718 56.5133 146.758 56.35 146.838 56.21C146.918 56.07 147.021 55.95 147.148 55.85C147.274 55.7433 147.408 55.6567 147.548 55.59C147.361 55.5367 147.221 55.4533 147.128 55.34C147.034 55.22 146.988 55.0967 146.988 54.97C146.988 54.7567 147.044 54.5733 147.158 54.42C147.271 54.2667 147.428 54.1 147.628 53.92C147.408 53.7533 147.241 53.54 147.128 53.28C147.014 53.02 146.958 52.66 146.958 52.2C146.958 51.7467 147.018 51.37 147.138 51.07C147.264 50.7633 147.448 50.5333 147.688 50.38C147.934 50.22 148.234 50.14 148.588 50.14C148.901 50.14 149.151 50.1933 149.338 50.3C149.531 50.4067 149.678 50.5667 149.778 50.78C149.811 50.7267 149.901 50.6367 150.048 50.51C150.194 50.3767 150.364 50.2667 150.558 50.18L150.718 50.11L150.988 50.8C150.901 50.8133 150.784 50.8467 150.638 50.9C150.498 50.9467 150.364 50.9967 150.238 51.05C150.118 51.0967 150.041 51.1367 150.008 51.17C150.054 51.2833 150.094 51.4467 150.128 51.66C150.168 51.8733 150.188 52.0633 150.188 52.23C150.188 52.6233 150.138 52.97 150.038 53.27C149.938 53.57 149.771 53.8067 149.538 53.98C149.311 54.1467 148.994 54.23 148.588 54.23C148.501 54.23 148.408 54.2233 148.308 54.21C148.208 54.1967 148.118 54.18 148.038 54.16C147.998 54.22 147.954 54.29 147.908 54.37C147.868 54.45 147.848 54.5267 147.848 54.6C147.848 54.6733 147.884 54.7333 147.958 54.78C148.038 54.82 148.161 54.8467 148.328 54.86L149.228 54.94C149.681 54.98 150.018 55.1167 150.238 55.35C150.458 55.5833 150.568 55.9167 150.568 56.35C150.568 56.6633 150.494 56.9267 150.348 57.14C150.201 57.36 149.978 57.5233 149.678 57.63C149.384 57.7367 149.011 57.79 148.558 57.79ZM148.638 56.95C149.018 56.95 149.298 56.9033 149.478 56.81C149.658 56.7233 149.748 56.58 149.748 56.38C149.748 56.26 149.724 56.16 149.678 56.08C149.638 56 149.561 55.9367 149.448 55.89C149.334 55.8433 149.171 55.81 148.958 55.79L148.048 55.71C147.974 55.7833 147.904 55.8567 147.838 55.93C147.771 56.0033 147.718 56.08 147.678 56.16C147.638 56.2467 147.618 56.3367 147.618 56.43C147.618 56.6033 147.691 56.7333 147.838 56.82C147.984 56.9067 148.251 56.95 148.638 56.95ZM148.588 53.48C148.741 53.48 148.861 53.4533 148.948 53.4C149.041 53.34 149.111 53.2567 149.158 53.15C149.204 53.0367 149.234 52.9 149.248 52.74C149.268 52.58 149.278 52.4 149.278 52.2C149.278 52 149.268 51.82 149.248 51.66C149.234 51.4933 149.204 51.3533 149.158 51.24C149.118 51.12 149.051 51.03 148.958 50.97C148.871 50.91 148.751 50.88 148.598 50.88C148.451 50.88 148.328 50.91 148.228 50.97C148.134 51.03 148.064 51.1167 148.018 51.23C147.971 51.3367 147.938 51.4733 147.918 51.64C147.898 51.8 147.888 51.9867 147.888 52.2C147.888 52.38 147.894 52.55 147.908 52.71C147.928 52.8633 147.961 52.9967 148.008 53.11C148.061 53.2233 148.134 53.3133 148.228 53.38C148.321 53.4467 148.441 53.48 148.588 53.48ZM152.443 56.08C152.217 56.08 152.017 56.0167 151.843 55.89C151.67 55.7567 151.533 55.59 151.433 55.39C151.333 55.1833 151.283 54.9667 151.283 54.74C151.283 54.38 151.343 54.0767 151.463 53.83C151.583 53.5833 151.747 53.3767 151.953 53.21C152.167 53.0367 152.41 52.8867 152.683 52.76C152.963 52.6333 153.257 52.51 153.563 52.39V51.98C153.563 51.7467 153.55 51.5533 153.523 51.4C153.497 51.2467 153.44 51.1333 153.353 51.06C153.273 50.98 153.15 50.94 152.983 50.94C152.837 50.94 152.717 50.9733 152.623 51.04C152.537 51.1067 152.473 51.2033 152.433 51.33C152.393 51.45 152.373 51.5933 152.373 51.76V52.05L151.313 52.01C151.327 51.37 151.473 50.9 151.753 50.6C152.033 50.2933 152.467 50.14 153.053 50.14C153.627 50.14 154.033 50.2967 154.273 50.61C154.513 50.9233 154.633 51.3767 154.633 51.97V54.61C154.633 54.79 154.637 54.9633 154.643 55.13C154.657 55.2967 154.67 55.4533 154.683 55.6C154.703 55.74 154.72 55.8733 154.733 56H153.753C153.733 55.8933 153.707 55.76 153.673 55.6C153.647 55.4333 153.627 55.2833 153.613 55.15C153.547 55.3767 153.417 55.59 153.223 55.79C153.037 55.9833 152.777 56.08 152.443 56.08ZM152.863 55.16C152.97 55.16 153.07 55.13 153.163 55.07C153.257 55.01 153.34 54.9433 153.413 54.87C153.487 54.79 153.537 54.7267 153.563 54.68V53.04C153.397 53.1333 153.24 53.2267 153.093 53.32C152.947 53.4133 152.817 53.5133 152.703 53.62C152.597 53.72 152.51 53.8367 152.443 53.97C152.383 54.0967 152.353 54.2433 152.353 54.41C152.353 54.6433 152.397 54.8267 152.483 54.96C152.57 55.0933 152.697 55.16 152.863 55.16ZM155.661 56V50.22H156.651V50.77C156.844 50.55 157.058 50.3867 157.291 50.28C157.524 50.1733 157.764 50.12 158.011 50.12C158.224 50.12 158.414 50.1733 158.581 50.28C158.754 50.3867 158.878 50.5767 158.951 50.85C159.158 50.5967 159.381 50.4133 159.621 50.3C159.868 50.18 160.124 50.12 160.391 50.12C160.578 50.12 160.748 50.1667 160.901 50.26C161.054 50.3467 161.178 50.49 161.271 50.69C161.364 50.8833 161.411 51.14 161.411 51.46V56H160.431V51.53C160.431 51.25 160.384 51.0633 160.291 50.97C160.204 50.87 160.084 50.82 159.931 50.82C159.784 50.82 159.631 50.8633 159.471 50.95C159.311 51.03 159.164 51.1433 159.031 51.29C159.031 51.3167 159.031 51.3433 159.031 51.37C159.031 51.3967 159.031 51.4267 159.031 51.46V56H158.051V51.53C158.051 51.25 158.004 51.0633 157.911 50.97C157.824 50.87 157.704 50.82 157.551 50.82C157.404 50.82 157.251 50.8633 157.091 50.95C156.938 51.03 156.791 51.1433 156.651 51.29V56H155.661ZM164.058 56.08C163.605 56.08 163.255 55.9933 163.008 55.82C162.761 55.64 162.588 55.38 162.488 55.04C162.395 54.6933 162.348 54.27 162.348 53.77V52.45C162.348 51.9367 162.398 51.51 162.498 51.17C162.598 50.83 162.771 50.5733 163.018 50.4C163.271 50.2267 163.618 50.14 164.058 50.14C164.545 50.14 164.901 50.24 165.128 50.44C165.361 50.64 165.515 50.93 165.588 51.31C165.661 51.6833 165.698 52.1333 165.698 52.66V53.13H163.418V54.29C163.418 54.5233 163.438 54.7133 163.478 54.86C163.525 55.0067 163.595 55.1167 163.688 55.19C163.788 55.2567 163.915 55.29 164.068 55.29C164.228 55.29 164.348 55.2533 164.428 55.18C164.515 55.1 164.571 54.99 164.598 54.85C164.631 54.7033 164.648 54.5333 164.648 54.34V53.99H165.688V54.21C165.688 54.79 165.565 55.2467 165.318 55.58C165.071 55.9133 164.651 56.08 164.058 56.08ZM163.418 52.55H164.648V52.03C164.648 51.79 164.635 51.59 164.608 51.43C164.581 51.2633 164.525 51.14 164.438 51.06C164.358 50.9733 164.228 50.93 164.048 50.93C163.875 50.93 163.741 50.97 163.648 51.05C163.561 51.13 163.501 51.2667 163.468 51.46C163.435 51.6467 163.418 51.9067 163.418 52.24V52.55Z"></path>
</svg>
