<svg xmlns="http://www.w3.org/2000/svg" fill="none" viewBox="0 0 31 41" height="41" width="31">
<rect fill="white" height="39" width="29" y="2" x="1"></rect>
<path stroke="#0D0E12" fill="#0D0E12" d="M23.3954 36.5L23.5 36.5458V40.5H7.5V36.5458L7.60459 36.5H23.3954Z"></path>
<path stroke="#0D0E12" fill="#0386B0" d="M8.59375 26.125H22.4062L19.2188 33.5625L22.4062 35.6875H8.59375L11.7812 33.5625L8.59375 26.125Z"></path>
<mask height="10" width="15" y="26" x="8" maskUnits="userSpaceOnUse" style="mask-type:alpha" id="mask0_1477_419">
<path fill-opacity="0.6" fill="black" d="M8.59375 26.125H22.4062L19.2188 33.5625L22.4062 35.6875H8.59375L11.7812 33.5625L8.59375 26.125Z"></path>
</mask>
<g mask="url(#mask0_1477_419)">
<path fill-opacity="0.6" fill="black" d="M18.6875 28.25L20.2812 24L31.4375 36.2188L19.2188 44.7188L1.6875 38.875L4.34375 33.5625C5.40625 33.7396 8.4875 33.775 12.3125 32.5C16.1375 31.225 18.1562 29.1354 18.6875 28.25Z"></path>
</g>
<rect fill="white" height="3.1875" width="9.5625" y="36.75" x="10.7188"></rect>
<rect fill-opacity="0.01" fill="white" height="31" width="31"></rect>
<path stroke-width="0.816337" stroke="#0D0E12" fill="#00C2FF" d="M22.3033 5.19409V8.90887H9.54489V5.19409C10.7317 4.82851 12.2454 4.63367 13.5175 4.53174C14.1988 4.47715 14.8019 4.44983 15.2344 4.43618C15.4505 4.42936 15.6238 4.42595 15.7427 4.42426C15.8021 4.42341 15.8479 4.42299 15.8786 4.42278L15.9132 4.4226L15.9217 4.42258L15.9237 4.42257L15.9241 4.42257L15.9241 4.42257H15.9241L15.9241 4.42257L15.9245 4.42257L15.9265 4.42258L15.935 4.4226L15.9696 4.42278C16.0003 4.42299 16.0461 4.42341 16.1055 4.42426C16.2244 4.42595 16.3977 4.42936 16.6138 4.43618C17.0463 4.44983 17.6494 4.47715 18.3307 4.53174C19.6028 4.63367 21.1164 4.82851 22.3033 5.19409Z"></path>
<path stroke-width="0.816337" stroke="#0D0E12" fill="#00C2FF" d="M12.9387 2.9126C14.7477 2.56849 16.2523 2.56849 18.0613 2.9126V6.5885H12.9387V2.9126Z"></path>
<path stroke-width="0.816337" stroke="#0D0E12" fill="#00C2FF" d="M5.34434 4.34774C5.5019 4.10386 6.14311 3.38041 8.3979 3.09883C9.24957 2.99247 10.0013 3.70922 10.0013 4.64431V5.69698C10.0013 6.33445 9.63598 6.9155 9.06146 7.19171L7.68007 7.85584C6.57902 8.38519 5.30294 7.5828 5.30294 6.36111V4.58971C5.30294 4.44713 5.32225 4.38193 5.34434 4.34774Z"></path>
<path stroke-width="0.816337" stroke="#0D0E12" fill="#00C2FF" d="M25.6971 4.36784V4.36425C25.6971 4.35961 25.697 4.35819 25.697 4.35819C25.697 4.35819 25.697 4.35837 25.6971 4.35866C25.6971 4.3595 25.6972 4.36144 25.6973 4.36425C25.6975 4.36694 25.6978 4.37044 25.6983 4.37454C25.6986 4.37701 25.6988 4.37694 25.6984 4.37453C25.6981 4.37311 25.6977 4.37086 25.6971 4.36784ZM25.6971 4.36784V6.36111C25.6971 7.5828 24.421 8.38519 23.3199 7.85584L21.9385 7.19171C21.364 6.9155 20.9987 6.33445 20.9987 5.69698V4.64431C20.9987 3.71248 21.7513 2.99053 22.6121 3.08503C24.1626 3.25523 24.939 3.61221 25.3203 3.89975C25.6288 4.13236 25.6878 4.3257 25.6971 4.36784Z"></path>
<path stroke-width="0.816337" stroke="#0D0E12" fill="#00C2FF" d="M5.7433 25.4416C6.25236 21.2319 9.5612 24.6723 9.5612 17.6021V14.5974C9.5612 13.2059 8.72456 11.9509 7.44015 11.4157L6.96846 11.2192C5.96968 10.803 5.31909 9.8271 5.31909 8.74508C5.31909 8.183 5.52138 7.63387 6.05002 7.44287C9.32689 6.25893 21.6734 6.25897 24.9503 7.44288C25.4789 7.63388 25.6812 8.18301 25.6812 8.7451C25.6812 9.82711 25.0306 10.803 24.0319 11.2192L23.5602 11.4157C22.2757 11.9509 21.4391 13.2059 21.4391 14.5974V17.6021C21.4391 24.6723 24.7479 21.3463 25.257 25.556C25.257 26.7213 24.8389 27.8093 23.7043 28.0747C20.0254 28.9352 10.9382 28.8696 7.27745 27.9595C6.15528 27.6805 5.7433 26.598 5.7433 25.4416Z"></path>
<path stroke-linecap="round" stroke-width="0.816337" stroke="#0D0E12" d="M8.71265 24.6724C9.98528 25.998 21.0148 25.998 22.2874 24.6724"></path>
<path stroke-linecap="round" stroke-width="0.816337" stroke="#0D0E12" d="M21.439 10.9736C19.7421 10.5317 11.2579 10.5317 9.56106 10.9736"></path>
<path fill="#0D0E12" d="M11.88 14.1064C11.88 13.6317 11.9627 13.2717 12.128 13.0264C12.2987 12.7864 12.536 12.6237 12.84 12.5384C13.144 12.4531 13.496 12.4104 13.896 12.4104L13.896 13.6984C13.6507 13.6984 13.4507 13.7117 13.296 13.7384C13.1413 13.7651 13.0293 13.8131 12.96 13.8824C12.896 13.9571 12.8667 14.0611 12.872 14.1944C12.8773 14.3331 12.9333 14.4317 13.04 14.4904C13.1467 14.5491 13.2987 14.5837 13.496 14.5944C13.6987 14.6104 13.9413 14.6184 14.224 14.6184C14.4373 14.6184 14.6267 14.6051 14.792 14.5784C14.9573 14.5571 15.088 14.5091 15.184 14.4344C15.2853 14.3651 15.336 14.2584 15.336 14.1144C15.336 13.9811 15.288 13.8717 15.192 13.7864C15.096 13.7011 14.9467 13.6397 14.744 13.6024L14.744 12.4504L18.48 12.5704L18.48 15.5944L17.36 15.5944L17.36 13.6424L16.024 13.5704C16.0987 13.6237 16.1627 13.7251 16.216 13.8744C16.2747 14.0237 16.312 14.1837 16.328 14.3544C16.3653 14.6851 16.304 14.9624 16.144 15.1864C15.9893 15.4157 15.752 15.5864 15.432 15.6984C15.112 15.8157 14.72 15.8744 14.256 15.8744C13.9093 15.8744 13.5893 15.8531 13.296 15.8104C13.008 15.7677 12.7573 15.6851 12.544 15.5624C12.336 15.4397 12.1733 15.2611 12.056 15.0264C11.9387 14.7917 11.88 14.4851 11.88 14.1064ZM11.88 18.3367C11.88 17.9474 11.9573 17.6221 12.112 17.3607C12.272 17.0994 12.4907 16.9021 12.768 16.7687C13.0453 16.6354 13.368 16.5687 13.736 16.5687L16.672 16.5687C17.0507 16.5687 17.3813 16.6301 17.664 16.7527C17.952 16.8807 18.176 17.0754 18.336 17.3367C18.496 17.5981 18.576 17.9314 18.576 18.3367C18.576 18.7421 18.496 19.0727 18.336 19.3287C18.176 19.5901 17.952 19.7821 17.664 19.9047C17.3813 20.0327 17.0507 20.0967 16.672 20.0967L13.736 20.0967C13.3733 20.0967 13.0507 20.0301 12.768 19.8967C12.4907 19.7634 12.272 19.5661 12.112 19.3047C11.9573 19.0434 11.88 18.7207 11.88 18.3367ZM13.072 18.3367C13.072 18.4647 13.112 18.5554 13.192 18.6087C13.2773 18.6674 13.3733 18.7021 13.48 18.7127C13.592 18.7287 13.688 18.7367 13.768 18.7367L16.64 18.7367C16.7307 18.7367 16.832 18.7314 16.944 18.7207C17.0613 18.7101 17.1627 18.6754 17.248 18.6167C17.3387 18.5634 17.384 18.4701 17.384 18.3367C17.384 18.2034 17.3387 18.1074 17.248 18.0487C17.1627 17.9954 17.0613 17.9634 16.944 17.9527C16.832 17.9421 16.7307 17.9367 16.64 17.9367L13.768 17.9367C13.688 17.9367 13.592 17.9447 13.48 17.9607C13.3733 17.9767 13.2773 18.0114 13.192 18.0647C13.112 18.1234 13.072 18.2141 13.072 18.3367ZM11.88 22.7352C11.88 22.3458 11.9573 22.0205 12.112 21.7592C12.272 21.4978 12.4907 21.3005 12.768 21.1672C13.0453 21.0338 13.368 20.9672 13.736 20.9672L16.672 20.9672C17.0507 20.9672 17.3813 21.0285 17.664 21.1512C17.952 21.2792 18.176 21.4738 18.336 21.7352C18.496 21.9965 18.576 22.3298 18.576 22.7352C18.576 23.1405 18.496 23.4712 18.336 23.7272C18.176 23.9885 17.952 24.1805 17.664 24.3032C17.3813 24.4312 17.0507 24.4952 16.672 24.4952L13.736 24.4952C13.3733 24.4952 13.0507 24.4285 12.768 24.2952C12.4907 24.1618 12.272 23.9645 12.112 23.7032C11.9573 23.4418 11.88 23.1192 11.88 22.7352ZM13.072 22.7352C13.072 22.8632 13.112 22.9538 13.192 23.0072C13.2773 23.0658 13.3733 23.1005 13.48 23.1112C13.592 23.1272 13.688 23.1352 13.768 23.1352L16.64 23.1352C16.7307 23.1352 16.832 23.1298 16.944 23.1192C17.0613 23.1085 17.1627 23.0738 17.248 23.0152C17.3387 22.9618 17.384 22.8685 17.384 22.7352C17.384 22.6018 17.3387 22.5058 17.248 22.4472C17.1627 22.3938 17.0613 22.3618 16.944 22.3512C16.832 22.3405 16.7307 22.3352 16.64 22.3352L13.768 22.3352C13.688 22.3352 13.592 22.3432 13.48 22.3592C13.3733 22.3752 13.2773 22.4098 13.192 22.4632C13.112 22.5218 13.072 22.6125 13.072 22.7352Z"></path>
<rect fill="black" height="1" width="6" y="38" x="12"></rect>
</svg>
