<svg xmlns="http://www.w3.org/2000/svg" fill="none" viewBox="0 0 214 84" height="84" width="214">
<mask fill="white" id="path-1-inside-1_1613_18">
<path d="M0 0H214V84H0V0Z"></path>
</mask>
<path fill="#0D0E12" d="M0 0H214V84H0V0Z"></path>
<path mask="url(#path-1-inside-1_1613_18)" fill="white" d="M0 0V-1H-1V0H0ZM0 84H-1V85H0V84ZM0 1H214V-1H0V1ZM214 83H0V85H214V83ZM1 84V0H-1V84H1Z"></path>
<path fill="white" d="M19.504 38.144C18.768 38.144 18.184 38.012 17.752 37.748C17.328 37.476 17.028 37.1 16.852 36.62C16.676 36.132 16.588 35.56 16.588 34.904V31.4C16.588 30.728 16.676 30.152 16.852 29.672C17.028 29.184 17.328 28.808 17.752 28.544C18.184 28.28 18.768 28.148 19.504 28.148C20.224 28.148 20.784 28.268 21.184 28.508C21.592 28.74 21.88 29.068 22.048 29.492C22.216 29.916 22.3 30.404 22.3 30.956V31.796H20.2V30.824C20.2 30.632 20.188 30.448 20.164 30.272C20.148 30.096 20.092 29.952 19.996 29.84C19.9 29.72 19.736 29.66 19.504 29.66C19.28 29.66 19.112 29.72 19 29.84C18.896 29.96 18.828 30.112 18.796 30.296C18.772 30.472 18.76 30.66 18.76 30.86V35.432C18.76 35.648 18.776 35.848 18.808 36.032C18.848 36.208 18.92 36.352 19.024 36.464C19.136 36.568 19.296 36.62 19.504 36.62C19.728 36.62 19.888 36.564 19.984 36.452C20.08 36.332 20.14 36.18 20.164 35.996C20.188 35.812 20.2 35.624 20.2 35.432V34.412H22.3V35.252C22.3 35.804 22.216 36.3 22.048 36.74C21.888 37.172 21.604 37.516 21.196 37.772C20.796 38.02 20.232 38.144 19.504 38.144ZM26.2657 38.144C25.5377 38.144 24.9617 38.016 24.5377 37.76C24.1137 37.504 23.8097 37.136 23.6257 36.656C23.4417 36.176 23.3497 35.604 23.3497 34.94V31.328C23.3497 30.656 23.4417 30.084 23.6257 29.612C23.8097 29.14 24.1137 28.78 24.5377 28.532C24.9617 28.276 25.5377 28.148 26.2657 28.148C27.0017 28.148 27.5817 28.276 28.0057 28.532C28.4377 28.78 28.7457 29.14 28.9297 29.612C29.1137 30.084 29.2057 30.656 29.2057 31.328V34.94C29.2057 35.604 29.1137 36.176 28.9297 36.656C28.7457 37.136 28.4377 37.504 28.0057 37.76C27.5817 38.016 27.0017 38.144 26.2657 38.144ZM26.2657 36.62C26.4897 36.62 26.6537 36.564 26.7577 36.452C26.8617 36.34 26.9297 36.196 26.9617 36.02C26.9937 35.844 27.0097 35.664 27.0097 35.48V30.8C27.0097 30.608 26.9937 30.428 26.9617 30.26C26.9297 30.084 26.8617 29.94 26.7577 29.828C26.6537 29.716 26.4897 29.66 26.2657 29.66C26.0577 29.66 25.9017 29.716 25.7977 29.828C25.6937 29.94 25.6257 30.084 25.5937 30.26C25.5617 30.428 25.5457 30.608 25.5457 30.8V35.48C25.5457 35.664 25.5577 35.844 25.5817 36.02C25.6137 36.196 25.6777 36.34 25.7737 36.452C25.8777 36.564 26.0417 36.62 26.2657 36.62ZM33.297 38.144C32.569 38.144 31.993 38.016 31.569 37.76C31.145 37.504 30.841 37.136 30.657 36.656C30.473 36.176 30.381 35.604 30.381 34.94V31.328C30.381 30.656 30.473 30.084 30.657 29.612C30.841 29.14 31.145 28.78 31.569 28.532C31.993 28.276 32.569 28.148 33.297 28.148C34.033 28.148 34.613 28.276 35.037 28.532C35.469 28.78 35.777 29.14 35.961 29.612C36.145 30.084 36.237 30.656 36.237 31.328V34.94C36.237 35.604 36.145 36.176 35.961 36.656C35.777 37.136 35.469 37.504 35.037 37.76C34.613 38.016 34.033 38.144 33.297 38.144ZM33.297 36.62C33.521 36.62 33.685 36.564 33.789 36.452C33.893 36.34 33.961 36.196 33.993 36.02C34.025 35.844 34.041 35.664 34.041 35.48V30.8C34.041 30.608 34.025 30.428 33.993 30.26C33.961 30.084 33.893 29.94 33.789 29.828C33.685 29.716 33.521 29.66 33.297 29.66C33.089 29.66 32.933 29.716 32.829 29.828C32.725 29.94 32.657 30.084 32.625 30.26C32.593 30.428 32.577 30.608 32.577 30.8V35.48C32.577 35.664 32.589 35.844 32.613 36.02C32.645 36.196 32.709 36.34 32.805 36.452C32.909 36.564 33.073 36.62 33.297 36.62ZM37.5802 38V28.28H42.4042V29.912H39.7282V32.384H40.1842C40.8002 32.384 41.3202 32.484 41.7442 32.684C42.1762 32.884 42.5042 33.192 42.7282 33.608C42.9522 34.016 43.0642 34.544 43.0642 35.192C43.0642 35.784 42.9842 36.264 42.8242 36.632C42.6722 37 42.4562 37.284 42.1762 37.484C41.8962 37.684 41.5682 37.82 41.1922 37.892C40.8242 37.964 40.4242 38 39.9922 38H37.5802ZM39.7282 36.596H40.0042C40.2762 36.596 40.4922 36.544 40.6522 36.44C40.8122 36.336 40.9242 36.176 40.9882 35.96C41.0522 35.744 41.0802 35.472 41.0722 35.144C41.0642 34.784 40.9882 34.484 40.8442 34.244C40.7002 33.996 40.4122 33.872 39.9802 33.872H39.7282V36.596ZM52.3728 40.1L52.1208 38H44.2248V28.28H46.2528V36.548H47.4408V28.28H49.4568V36.548H50.5968V28.28H52.6248V36.548H53.9448V40.1H52.3728ZM55.1809 38V28.28H59.5489V29.744H57.3289V32.156H59.0209V33.644H57.3289V36.548H59.5729V38H55.1809ZM60.5841 38V28.28H62.7321V32.216H64.2321V28.28H66.3921V38H64.2321V33.752H62.7321V38H60.5841ZM67.9083 38V28.28H69.6003V33.848L72.0843 28.28H73.4763V38H71.7483V32.336L69.2163 38H67.9083ZM74.9505 38V28.28H79.3185V29.744H77.0985V32.156H78.7905V33.644H77.0985V36.548H79.3425V38H74.9505Z"></path>
<path fill="white" d="M16.63 56V47.9H18.49C18.8567 47.9 19.1733 47.94 19.44 48.02C19.7133 48.1 19.94 48.2233 20.12 48.39C20.3 48.5567 20.4333 48.77 20.52 49.03C20.6067 49.2833 20.65 49.5833 20.65 49.93C20.65 50.2633 20.6067 50.5533 20.52 50.8C20.44 51.04 20.3133 51.23 20.14 51.37C19.9733 51.51 19.7567 51.6 19.49 51.64C19.8167 51.7133 20.08 51.84 20.28 52.02C20.48 52.1933 20.6267 52.42 20.72 52.7C20.82 52.9733 20.87 53.3033 20.87 53.69C20.87 54.0367 20.83 54.3533 20.75 54.64C20.67 54.9267 20.5433 55.17 20.37 55.37C20.2033 55.57 19.9867 55.7267 19.72 55.84C19.46 55.9467 19.15 56 18.79 56H16.63ZM17.76 55.19H18.52C19.0267 55.19 19.3633 55.0733 19.53 54.84C19.7033 54.6 19.79 54.2167 19.79 53.69C19.79 53.35 19.7433 53.0667 19.65 52.84C19.5633 52.6067 19.42 52.4333 19.22 52.32C19.0267 52.2 18.7633 52.14 18.43 52.14H17.76V55.19ZM17.76 51.28H18.43C18.75 51.28 19 51.2367 19.18 51.15C19.36 51.0567 19.4867 50.91 19.56 50.71C19.6333 50.51 19.67 50.25 19.67 49.93C19.67 49.5567 19.6133 49.2867 19.5 49.12C19.3867 48.9533 19.21 48.85 18.97 48.81C18.73 48.7633 18.4167 48.74 18.03 48.74H17.76V51.28ZM23.3741 56.08C22.9475 56.08 22.6108 55.9933 22.3641 55.82C22.1175 55.6467 21.9408 55.4 21.8341 55.08C21.7341 54.76 21.6841 54.3833 21.6841 53.95V52.27C21.6841 51.8367 21.7341 51.46 21.8341 51.14C21.9408 50.82 22.1175 50.5733 22.3641 50.4C22.6108 50.2267 22.9475 50.14 23.3741 50.14C23.8008 50.14 24.1341 50.2267 24.3741 50.4C24.6208 50.5733 24.7941 50.82 24.8941 51.14C25.0008 51.46 25.0541 51.8367 25.0541 52.27V53.95C25.0541 54.3833 25.0008 54.76 24.8941 55.08C24.7941 55.4 24.6208 55.6467 24.3741 55.82C24.1341 55.9933 23.8008 56.08 23.3741 56.08ZM23.3741 55.29C23.5808 55.29 23.7241 55.23 23.8041 55.11C23.8908 54.99 23.9408 54.8333 23.9541 54.64C23.9741 54.44 23.9841 54.2333 23.9841 54.02V52.21C23.9841 51.99 23.9741 51.7833 23.9541 51.59C23.9408 51.3967 23.8908 51.24 23.8041 51.12C23.7241 50.9933 23.5808 50.93 23.3741 50.93C23.1675 50.93 23.0208 50.9933 22.9341 51.12C22.8475 51.24 22.7941 51.3967 22.7741 51.59C22.7608 51.7833 22.7541 51.99 22.7541 52.21V54.02C22.7541 54.2333 22.7608 54.44 22.7741 54.64C22.7941 54.8333 22.8475 54.99 22.9341 55.11C23.0208 55.23 23.1675 55.29 23.3741 55.29ZM27.3922 56.1C27.1255 56.1 26.8955 56.0633 26.7022 55.99C26.5089 55.9167 26.3489 55.8033 26.2222 55.65C26.0955 55.49 26.0022 55.2933 25.9422 55.06C25.8822 54.8267 25.8522 54.55 25.8522 54.23H26.7622C26.7622 54.6233 26.8189 54.9067 26.9322 55.08C27.0455 55.2533 27.2055 55.34 27.4122 55.34C27.5922 55.34 27.7222 55.2933 27.8022 55.2C27.8822 55.1067 27.9322 54.98 27.9522 54.82C27.9722 54.6533 27.9822 54.47 27.9822 54.27C27.9822 54.0167 27.9455 53.83 27.8722 53.71C27.8055 53.5833 27.6855 53.5 27.5122 53.46C27.3455 53.42 27.1122 53.4 26.8122 53.4V52.64C27.2789 52.64 27.5889 52.57 27.7422 52.43C27.9022 52.29 27.9822 52.06 27.9822 51.74C27.9822 51.4533 27.9222 51.2467 27.8022 51.12C27.6822 50.9933 27.5322 50.93 27.3522 50.93C27.1522 50.93 26.9922 50.9933 26.8722 51.12C26.7522 51.2467 26.6922 51.5 26.6922 51.88H25.7822C25.7822 51.4467 25.8455 51.1033 25.9722 50.85C26.1055 50.5967 26.2922 50.4167 26.5322 50.31C26.7789 50.1967 27.0655 50.14 27.3922 50.14C27.7522 50.14 28.0422 50.2133 28.2622 50.36C28.4889 50.5067 28.6522 50.7 28.7522 50.94C28.8589 51.1733 28.9122 51.42 28.9122 51.68C28.9122 52.0133 28.8589 52.2733 28.7522 52.46C28.6522 52.6467 28.5255 52.78 28.3722 52.86C28.2255 52.94 28.0822 52.9867 27.9422 53C28.0889 53.0267 28.2355 53.0767 28.3822 53.15C28.5355 53.2167 28.6622 53.3467 28.7622 53.54C28.8689 53.7267 28.9222 54.02 28.9222 54.42C28.9222 54.9667 28.7955 55.3833 28.5422 55.67C28.2889 55.9567 27.9055 56.1 27.3922 56.1ZM29.7522 56L29.8122 50.22H30.6022L31.8822 53.77L33.1722 50.22H33.9622L34.0222 56H33.1222V52.55L32.0522 55.43H31.7222L30.6522 52.57V56H29.7522ZM36.6652 56.08C36.2385 56.08 35.9018 55.9933 35.6552 55.82C35.4085 55.6467 35.2318 55.4 35.1252 55.08C35.0252 54.76 34.9752 54.3833 34.9752 53.95V52.27C34.9752 51.8367 35.0252 51.46 35.1252 51.14C35.2318 50.82 35.4085 50.5733 35.6552 50.4C35.9018 50.2267 36.2385 50.14 36.6652 50.14C37.0918 50.14 37.4252 50.2267 37.6652 50.4C37.9118 50.5733 38.0852 50.82 38.1852 51.14C38.2918 51.46 38.3452 51.8367 38.3452 52.27V53.95C38.3452 54.3833 38.2918 54.76 38.1852 55.08C38.0852 55.4 37.9118 55.6467 37.6652 55.82C37.4252 55.9933 37.0918 56.08 36.6652 56.08ZM36.6652 55.29C36.8718 55.29 37.0152 55.23 37.0952 55.11C37.1818 54.99 37.2318 54.8333 37.2452 54.64C37.2652 54.44 37.2752 54.2333 37.2752 54.02V52.21C37.2752 51.99 37.2652 51.7833 37.2452 51.59C37.2318 51.3967 37.1818 51.24 37.0952 51.12C37.0152 50.9933 36.8718 50.93 36.6652 50.93C36.4585 50.93 36.3118 50.9933 36.2252 51.12C36.1385 51.24 36.0852 51.3967 36.0652 51.59C36.0518 51.7833 36.0452 51.99 36.0452 52.21V54.02C36.0452 54.2333 36.0518 54.44 36.0652 54.64C36.0852 54.8333 36.1385 54.99 36.2252 55.11C36.3118 55.23 36.4585 55.29 36.6652 55.29ZM38.7841 56L40.2341 53.05L38.8741 50.22H39.8941L41.1241 53H41.2041V50.22H42.0841V53H42.1641L43.3841 50.22H44.4041L43.0441 53.05L44.4941 56H43.5041L42.1641 53.16H42.0841V56H41.2041V53.16H41.1141L39.7741 56H38.7841ZM45.0752 56V50.22H46.1452V52.65H47.5152V50.22H48.5852V56H47.5152V53.43H46.1452V56H45.0752ZM51.255 56.08C50.8283 56.08 50.4917 55.9933 50.245 55.82C49.9983 55.6467 49.8217 55.4 49.715 55.08C49.615 54.76 49.565 54.3833 49.565 53.95V52.27C49.565 51.8367 49.615 51.46 49.715 51.14C49.8217 50.82 49.9983 50.5733 50.245 50.4C50.4917 50.2267 50.8283 50.14 51.255 50.14C51.6817 50.14 52.015 50.2267 52.255 50.4C52.5017 50.5733 52.675 50.82 52.775 51.14C52.8817 51.46 52.935 51.8367 52.935 52.27V53.95C52.935 54.3833 52.8817 54.76 52.775 55.08C52.675 55.4 52.5017 55.6467 52.255 55.82C52.015 55.9933 51.6817 56.08 51.255 56.08ZM51.255 55.29C51.4617 55.29 51.605 55.23 51.685 55.11C51.7717 54.99 51.8217 54.8333 51.835 54.64C51.855 54.44 51.865 54.2333 51.865 54.02V52.21C51.865 51.99 51.855 51.7833 51.835 51.59C51.8217 51.3967 51.7717 51.24 51.685 51.12C51.605 50.9933 51.4617 50.93 51.255 50.93C51.0483 50.93 50.9017 50.9933 50.815 51.12C50.7283 51.24 50.675 51.3967 50.655 51.59C50.6417 51.7833 50.635 51.99 50.635 52.21V54.02C50.635 54.2333 50.6417 54.44 50.655 54.64C50.675 54.8333 50.7283 54.99 50.815 55.11C50.9017 55.23 51.0483 55.29 51.255 55.29ZM53.943 57.31L53.773 56.85C53.953 56.79 54.093 56.6833 54.193 56.53C54.2997 56.3833 54.353 56.2067 54.353 56H53.783V54.85H54.883V55.98C54.883 56.3333 54.8064 56.6133 54.653 56.82C54.4997 57.0333 54.263 57.1967 53.943 57.31ZM59.5234 56.08C59.1034 56.08 58.7801 56.0133 58.5534 55.88C58.3268 55.7467 58.1668 55.5467 58.0734 55.28C57.9868 55.0133 57.9434 54.6833 57.9434 54.29V54.12H58.9134V54.29C58.9134 54.6567 58.9568 54.9167 59.0434 55.07C59.1301 55.2233 59.2868 55.3 59.5134 55.3C59.6934 55.3 59.8268 55.26 59.9134 55.18C60.0068 55.0933 60.0668 54.9567 60.0934 54.77C60.1268 54.5767 60.1434 54.32 60.1434 54V53.41H58.7634V52.81H60.1434V52.18C60.1434 51.8467 60.1234 51.5933 60.0834 51.42C60.0501 51.24 59.9868 51.1167 59.8934 51.05C59.8001 50.9767 59.6734 50.94 59.5134 50.94C59.2468 50.94 59.0801 51.0333 59.0134 51.22C58.9468 51.4 58.9134 51.6333 58.9134 51.92V52.2H57.9434V51.99C57.9434 51.6033 57.9901 51.2733 58.0834 51C58.1768 50.7267 58.3368 50.5167 58.5634 50.37C58.7968 50.2233 59.1201 50.15 59.5334 50.15C60.0068 50.15 60.3634 50.2467 60.6034 50.44C60.8434 50.6267 61.0034 50.8933 61.0834 51.24C61.1701 51.58 61.2134 51.9833 61.2134 52.45V53.78C61.2134 54.26 61.1701 54.6733 61.0834 55.02C60.9968 55.36 60.8301 55.6233 60.5834 55.81C60.3434 55.99 59.9901 56.08 59.5234 56.08ZM62.8345 56V51.02H61.7545V50.22H64.9945V51.02H63.9045V56H62.8345ZM67.173 56.08C66.7463 56.08 66.4096 55.9933 66.163 55.82C65.9163 55.6467 65.7396 55.4 65.633 55.08C65.533 54.76 65.483 54.3833 65.483 53.95V52.27C65.483 51.8367 65.533 51.46 65.633 51.14C65.7396 50.82 65.9163 50.5733 66.163 50.4C66.4096 50.2267 66.7463 50.14 67.173 50.14C67.5996 50.14 67.933 50.2267 68.173 50.4C68.4196 50.5733 68.593 50.82 68.693 51.14C68.7996 51.46 68.853 51.8367 68.853 52.27V53.95C68.853 54.3833 68.7996 54.76 68.693 55.08C68.593 55.4 68.4196 55.6467 68.173 55.82C67.933 55.9933 67.5996 56.08 67.173 56.08ZM67.173 55.29C67.3796 55.29 67.523 55.23 67.603 55.11C67.6896 54.99 67.7396 54.8333 67.753 54.64C67.773 54.44 67.783 54.2333 67.783 54.02V52.21C67.783 51.99 67.773 51.7833 67.753 51.59C67.7396 51.3967 67.6896 51.24 67.603 51.12C67.523 50.9933 67.3796 50.93 67.173 50.93C66.9663 50.93 66.8196 50.9933 66.733 51.12C66.6463 51.24 66.593 51.3967 66.573 51.59C66.5596 51.7833 66.553 51.99 66.553 52.21V54.02C66.553 54.2333 66.5596 54.44 66.573 54.64C66.593 54.8333 66.6463 54.99 66.733 55.11C66.8196 55.23 66.9663 55.29 67.173 55.29ZM72.1162 56V50.22H73.1862V52.66H73.4862L74.5762 50.22H75.6762L74.4662 53.02L75.6962 56H74.5762L73.4862 53.3H73.1862V56H72.1162ZM77.8566 56.08C77.4299 56.08 77.0932 55.9933 76.8466 55.82C76.5999 55.6467 76.4232 55.4 76.3166 55.08C76.2166 54.76 76.1666 54.3833 76.1666 53.95V52.27C76.1666 51.8367 76.2166 51.46 76.3166 51.14C76.4232 50.82 76.5999 50.5733 76.8466 50.4C77.0932 50.2267 77.4299 50.14 77.8566 50.14C78.2832 50.14 78.6166 50.2267 78.8566 50.4C79.1032 50.5733 79.2766 50.82 79.3766 51.14C79.4832 51.46 79.5366 51.8367 79.5366 52.27V53.95C79.5366 54.3833 79.4832 54.76 79.3766 55.08C79.2766 55.4 79.1032 55.6467 78.8566 55.82C78.6166 55.9933 78.2832 56.08 77.8566 56.08ZM77.8566 55.29C78.0632 55.29 78.2066 55.23 78.2866 55.11C78.3732 54.99 78.4232 54.8333 78.4366 54.64C78.4566 54.44 78.4666 54.2333 78.4666 54.02V52.21C78.4666 51.99 78.4566 51.7833 78.4366 51.59C78.4232 51.3967 78.3732 51.24 78.2866 51.12C78.2066 50.9933 78.0632 50.93 77.8566 50.93C77.6499 50.93 77.5032 50.9933 77.4166 51.12C77.3299 51.24 77.2766 51.3967 77.2566 51.59C77.2432 51.7833 77.2366 51.99 77.2366 52.21V54.02C77.2366 54.2333 77.2432 54.44 77.2566 54.64C77.2766 54.8333 77.3299 54.99 77.4166 55.11C77.5032 55.23 77.6499 55.29 77.8566 55.29ZM79.9946 57.47V55.29C80.1946 55.1367 80.3779 54.9533 80.5446 54.74C80.7113 54.5267 80.8579 54.2567 80.9846 53.93C81.1113 53.6033 81.2113 53.2 81.2846 52.72C81.3579 52.24 81.3979 51.66 81.4046 50.98L81.4246 50.22H84.0346V55.24H84.7346V57.47H83.9546L83.8646 56H80.8646L80.7746 57.47H79.9946ZM81.0346 55.24H83.0046V50.99H82.2546L82.2346 51.2C82.2279 51.9067 82.1913 52.4967 82.1246 52.97C82.0646 53.4367 81.9779 53.82 81.8646 54.12C81.7579 54.4133 81.6313 54.6467 81.4846 54.82C81.3446 54.9933 81.1946 55.1333 81.0346 55.24ZM87.7607 56V50.22H91.1207V56H90.0507V51.03H88.8307V56H87.7607ZM92.2041 57.9V50.22H93.2741V50.68C93.4007 50.5333 93.5541 50.4067 93.7341 50.3C93.9141 50.1933 94.1274 50.14 94.3741 50.14C94.6741 50.14 94.9107 50.22 95.0841 50.38C95.2641 50.5333 95.3974 50.73 95.4841 50.97C95.5707 51.2033 95.6274 51.4433 95.6541 51.69C95.6807 51.93 95.6941 52.1367 95.6941 52.31V53.71C95.6941 54.1167 95.6541 54.5033 95.5741 54.87C95.4941 55.23 95.3474 55.5233 95.1341 55.75C94.9274 55.97 94.6341 56.08 94.2541 56.08C94.0474 56.08 93.8641 56.03 93.7041 55.93C93.5441 55.8233 93.4007 55.7033 93.2741 55.57V57.9H92.2041ZM94.0441 55.24C94.2307 55.24 94.3641 55.1733 94.4441 55.04C94.5241 54.9 94.5741 54.7133 94.5941 54.48C94.6141 54.2467 94.6241 53.99 94.6241 53.71V52.31C94.6241 52.07 94.6107 51.85 94.5841 51.65C94.5574 51.4433 94.5007 51.28 94.4141 51.16C94.3274 51.04 94.1907 50.98 94.0041 50.98C93.8641 50.98 93.7307 51.01 93.6041 51.07C93.4774 51.13 93.3674 51.2 93.2741 51.28V54.98C93.3741 55.0533 93.4874 55.1167 93.6141 55.17C93.7407 55.2167 93.8841 55.24 94.0441 55.24ZM98.257 56.08C97.8303 56.08 97.4936 55.9933 97.247 55.82C97.0003 55.6467 96.8236 55.4 96.717 55.08C96.617 54.76 96.567 54.3833 96.567 53.95V52.27C96.567 51.8367 96.617 51.46 96.717 51.14C96.8236 50.82 97.0003 50.5733 97.247 50.4C97.4936 50.2267 97.8303 50.14 98.257 50.14C98.6836 50.14 99.017 50.2267 99.257 50.4C99.5036 50.5733 99.677 50.82 99.777 51.14C99.8836 51.46 99.937 51.8367 99.937 52.27V53.95C99.937 54.3833 99.8836 54.76 99.777 55.08C99.677 55.4 99.5036 55.6467 99.257 55.82C99.017 55.9933 98.6836 56.08 98.257 56.08ZM98.257 55.29C98.4636 55.29 98.607 55.23 98.687 55.11C98.7736 54.99 98.8236 54.8333 98.837 54.64C98.857 54.44 98.867 54.2333 98.867 54.02V52.21C98.867 51.99 98.857 51.7833 98.837 51.59C98.8236 51.3967 98.7736 51.24 98.687 51.12C98.607 50.9933 98.4636 50.93 98.257 50.93C98.0503 50.93 97.9036 50.9933 97.817 51.12C97.7303 51.24 97.677 51.3967 97.657 51.59C97.6436 51.7833 97.637 51.99 97.637 52.21V54.02C97.637 54.2333 97.6436 54.44 97.657 54.64C97.677 54.8333 97.7303 54.99 97.817 55.11C97.9036 55.23 98.0503 55.29 98.257 55.29ZM102.905 57.9V55.68H102.805C102.585 55.68 102.358 55.6533 102.125 55.6C101.892 55.54 101.675 55.4333 101.475 55.28C101.275 55.1267 101.112 54.9033 100.985 54.61C100.865 54.3167 100.805 53.9367 100.805 53.47V52.43C100.805 52.0567 100.855 51.7367 100.955 51.47C101.062 51.2033 101.205 50.9867 101.385 50.82C101.572 50.6467 101.782 50.52 102.015 50.44C102.255 50.36 102.508 50.32 102.775 50.32H102.905V47.9H103.895V50.32H104.065C104.418 50.32 104.742 50.3933 105.035 50.54C105.328 50.68 105.562 50.9067 105.735 51.22C105.915 51.5267 106.005 51.93 106.005 52.43V53.47C106.005 53.9367 105.945 54.3167 105.825 54.61C105.705 54.9033 105.545 55.1267 105.345 55.28C105.152 55.4333 104.938 55.54 104.705 55.6C104.478 55.6533 104.255 55.68 104.035 55.68H103.895V57.9H102.905ZM102.835 54.92H102.905V51.02H102.805C102.598 51.02 102.418 51.0533 102.265 51.12C102.112 51.1867 101.992 51.31 101.905 51.49C101.818 51.67 101.775 51.93 101.775 52.27V53.46C101.775 53.8467 101.815 54.1467 101.895 54.36C101.975 54.5667 102.095 54.7133 102.255 54.8C102.415 54.88 102.608 54.92 102.835 54.92ZM103.895 54.92H103.955C104.188 54.92 104.385 54.88 104.545 54.8C104.705 54.7133 104.825 54.5667 104.905 54.36C104.992 54.1467 105.035 53.8467 105.035 53.46V52.27C105.035 51.93 104.992 51.67 104.905 51.49C104.818 51.31 104.695 51.1867 104.535 51.12C104.382 51.0533 104.198 51.02 103.985 51.02H103.895V54.92ZM106.979 56V50.22H107.879V54.11L109.619 50.22H110.459V56H109.579V52.08L107.849 56H106.979ZM111.18 56.05V55.24C111.38 55.24 111.536 55.2 111.65 55.12C111.77 55.04 111.86 54.9067 111.92 54.72C111.986 54.5267 112.036 54.27 112.07 53.95C112.103 53.6233 112.133 53.2167 112.16 52.73L112.29 50.22H115.32V56H114.25V51.03H113.23L113.14 52.73C113.106 53.39 113.056 53.9367 112.99 54.37C112.93 54.8033 112.833 55.1433 112.7 55.39C112.566 55.63 112.386 55.8 112.16 55.9C111.94 56 111.653 56.05 111.3 56.05H111.18ZM115.963 56L117.053 53.55C116.867 53.4767 116.713 53.3667 116.593 53.22C116.48 53.0733 116.397 52.8933 116.343 52.68C116.29 52.4667 116.263 52.2267 116.263 51.96C116.263 51.6533 116.303 51.39 116.383 51.17C116.463 50.95 116.59 50.77 116.763 50.63C116.937 50.49 117.167 50.3867 117.453 50.32C117.74 50.2533 118.093 50.22 118.513 50.22H119.633V56H118.573V53.72C118.467 53.72 118.377 53.72 118.303 53.72C118.23 53.7133 118.15 53.7067 118.063 53.7L117.113 56H115.963ZM118.453 53.1C118.467 53.1 118.487 53.1 118.513 53.1C118.547 53.1 118.567 53.1 118.573 53.1V50.83C118.567 50.83 118.547 50.83 118.513 50.83C118.487 50.83 118.47 50.83 118.463 50.83C118.15 50.83 117.9 50.87 117.713 50.95C117.533 51.0233 117.407 51.1433 117.333 51.31C117.26 51.47 117.223 51.6867 117.223 51.96C117.223 52.34 117.307 52.6233 117.473 52.81C117.647 52.9967 117.973 53.0933 118.453 53.1Z"></path>
</svg>
