<svg xmlns="http://www.w3.org/2000/svg" fill="none" viewBox="0 0 156 56" height="56" width="156">
<rect stroke="white" fill="#0D0E12" height="55" width="155" y="0.5" x="0.5"></rect>
<path fill="white" d="M39.7212 16V10.22H41.3512V16H39.7212ZM39.7112 9.24V8.11H41.3512V9.24H39.7112ZM44.1377 16.1C43.631 16.1 43.2077 15.9867 42.8677 15.76C42.5343 15.5333 42.261 15.1633 42.0477 14.65L43.1577 14.16C43.2643 14.42 43.3877 14.6267 43.5277 14.78C43.6743 14.9267 43.8343 15 44.0077 15C44.1343 15 44.2277 14.9733 44.2877 14.92C44.3543 14.8667 44.3877 14.7933 44.3877 14.7C44.3877 14.5467 44.3277 14.4067 44.2077 14.28C44.0943 14.1533 43.8877 13.9667 43.5877 13.72L43.1677 13.37C42.861 13.11 42.6177 12.86 42.4377 12.62C42.2643 12.3733 42.1777 12.07 42.1777 11.71C42.1777 11.3967 42.2577 11.12 42.4177 10.88C42.5843 10.64 42.8043 10.4533 43.0777 10.32C43.351 10.1867 43.6443 10.12 43.9577 10.12C44.431 10.12 44.8277 10.25 45.1477 10.51C45.4677 10.77 45.691 11.1367 45.8177 11.61L44.7677 12.09C44.7277 11.9633 44.671 11.8367 44.5977 11.71C44.5243 11.5833 44.4343 11.4767 44.3277 11.39C44.2277 11.3033 44.1177 11.26 43.9977 11.26C43.891 11.26 43.8043 11.29 43.7377 11.35C43.6777 11.41 43.6477 11.49 43.6477 11.59C43.6477 11.7167 43.7177 11.8533 43.8577 12C44.0043 12.1467 44.2043 12.3233 44.4577 12.53L44.8677 12.89C45.0343 13.03 45.1977 13.18 45.3577 13.34C45.5177 13.5 45.6477 13.6767 45.7477 13.87C45.8543 14.0633 45.9077 14.2833 45.9077 14.53C45.9077 14.8633 45.8243 15.15 45.6577 15.39C45.491 15.6233 45.271 15.8 44.9977 15.92C44.731 16.04 44.4443 16.1 44.1377 16.1ZM51.0345 18C50.6012 18 50.2245 17.9567 49.9045 17.87C49.5845 17.7833 49.3345 17.6533 49.1545 17.48C48.9812 17.3067 48.8945 17.0867 48.8945 16.82C48.8945 16.64 48.9312 16.4767 49.0045 16.33C49.0845 16.19 49.1912 16.0667 49.3245 15.96C49.4645 15.8467 49.6212 15.75 49.7945 15.67C49.5412 15.5967 49.3445 15.4867 49.2045 15.34C49.0645 15.1933 48.9945 14.9967 48.9945 14.75C48.9945 14.5167 49.0512 14.3167 49.1645 14.15C49.2779 13.9767 49.4345 13.8033 49.6345 13.63C49.4479 13.4633 49.3045 13.26 49.2045 13.02C49.1112 12.7733 49.0645 12.4767 49.0645 12.13C49.0645 11.6967 49.1445 11.33 49.3045 11.03C49.4645 10.73 49.6979 10.5033 50.0045 10.35C50.3179 10.1967 50.6945 10.12 51.1345 10.12C51.4345 10.12 51.6979 10.1567 51.9245 10.23C52.1512 10.3033 52.3445 10.4167 52.5045 10.57C52.5779 10.4567 52.6745 10.3467 52.7945 10.24C52.9145 10.1333 53.0512 10.0433 53.2045 9.97L53.4145 9.87L53.7945 10.65C53.7345 10.67 53.6512 10.7033 53.5445 10.75C53.4379 10.7967 53.3245 10.8467 53.2045 10.9C53.0912 10.9533 52.9879 11.0067 52.8945 11.06C52.9679 11.2067 53.0245 11.3733 53.0645 11.56C53.1045 11.7467 53.1245 11.94 53.1245 12.14C53.1245 12.5533 53.0479 12.91 52.8945 13.21C52.7479 13.51 52.5279 13.74 52.2345 13.9C51.9412 14.0533 51.5745 14.13 51.1345 14.13C50.9479 14.13 50.7712 14.1167 50.6045 14.09C50.4379 14.0567 50.2845 14.0167 50.1445 13.97C50.1045 14.0233 50.0679 14.08 50.0345 14.14C50.0079 14.1933 49.9945 14.2533 49.9945 14.32C49.9945 14.4 50.0345 14.4633 50.1145 14.51C50.1945 14.5567 50.3379 14.5933 50.5445 14.62L52.0645 14.79C52.5579 14.8433 52.9212 15.0033 53.1545 15.27C53.3879 15.53 53.5045 15.8733 53.5045 16.3C53.5045 16.6667 53.4212 16.9767 53.2545 17.23C53.0945 17.4833 52.8312 17.6733 52.4645 17.8C52.1045 17.9333 51.6279 18 51.0345 18ZM51.2445 16.82C51.6112 16.82 51.8912 16.79 52.0845 16.73C52.2845 16.67 52.3845 16.5467 52.3845 16.36C52.3845 16.2667 52.3579 16.19 52.3045 16.13C52.2512 16.0767 52.1612 16.0333 52.0345 16C51.9145 15.96 51.7412 15.93 51.5145 15.91L50.4445 15.8C50.3779 15.8467 50.3179 15.9 50.2645 15.96C50.2179 16.0133 50.1779 16.07 50.1445 16.13C50.1179 16.1967 50.1045 16.2667 50.1045 16.34C50.1045 16.5 50.1912 16.62 50.3645 16.7C50.5379 16.78 50.8312 16.82 51.2445 16.82ZM51.1345 13.16C51.2279 13.16 51.3045 13.1433 51.3645 13.11C51.4245 13.07 51.4679 13.01 51.4945 12.93C51.5279 12.85 51.5512 12.7433 51.5645 12.61C51.5779 12.4767 51.5845 12.3167 51.5845 12.13C51.5845 11.9367 51.5779 11.7767 51.5645 11.65C51.5512 11.5167 51.5279 11.41 51.4945 11.33C51.4679 11.2433 51.4245 11.1833 51.3645 11.15C51.3045 11.11 51.2279 11.09 51.1345 11.09C51.0412 11.09 50.9645 11.11 50.9045 11.15C50.8445 11.1833 50.7979 11.24 50.7645 11.32C50.7379 11.4 50.7179 11.5067 50.7045 11.64C50.6912 11.7733 50.6845 11.9367 50.6845 12.13C50.6845 12.3167 50.6912 12.4767 50.7045 12.61C50.7179 12.7367 50.7379 12.8433 50.7645 12.93C50.7979 13.01 50.8445 13.07 50.9045 13.11C50.9645 13.1433 51.0412 13.16 51.1345 13.16ZM54.1743 16V10.22H55.8043V16H54.1743ZM54.1643 9.24V8.11H55.8043V9.24H54.1643ZM57.5608 16L56.4008 10.22H57.9608L58.4408 13.91L58.8808 10.22H60.4408L59.2508 16H57.5608ZM62.9098 16.1C62.4898 16.1 62.1298 16.0267 61.8298 15.88C61.5298 15.7267 61.2998 15.5067 61.1398 15.22C60.9798 14.9267 60.8998 14.5767 60.8998 14.17V12.05C60.8998 11.6367 60.9798 11.2867 61.1398 11C61.2998 10.7133 61.5298 10.4967 61.8298 10.35C62.1364 10.1967 62.4964 10.12 62.9098 10.12C63.3364 10.12 63.6898 10.1933 63.9698 10.34C64.2564 10.4867 64.4698 10.7033 64.6098 10.99C64.7564 11.2767 64.8298 11.63 64.8298 12.05V13.21H62.5098V14.32C62.5098 14.4667 62.5264 14.5867 62.5598 14.68C62.5931 14.7733 62.6398 14.84 62.6998 14.88C62.7598 14.92 62.8298 14.94 62.9098 14.94C62.9898 14.94 63.0598 14.9233 63.1198 14.89C63.1864 14.85 63.2364 14.79 63.2698 14.71C63.3098 14.63 63.3298 14.52 63.3298 14.38V13.77H64.8298V14.33C64.8298 14.9167 64.6598 15.36 64.3198 15.66C63.9798 15.9533 63.5098 16.1 62.9098 16.1ZM62.5098 12.45H63.3298V11.87C63.3298 11.7167 63.3098 11.5967 63.2698 11.51C63.2364 11.4233 63.1864 11.3633 63.1198 11.33C63.0598 11.2967 62.9864 11.28 62.8998 11.28C62.8198 11.28 62.7498 11.3 62.6898 11.34C62.6364 11.38 62.5931 11.45 62.5598 11.55C62.5264 11.6433 62.5098 11.78 62.5098 11.96V12.45ZM65.717 16V10.22H67.347V10.8C67.5604 10.5867 67.7804 10.42 68.007 10.3C68.2404 10.18 68.4837 10.12 68.737 10.12C68.977 10.12 69.1737 10.18 69.327 10.3C69.487 10.4133 69.607 10.5733 69.687 10.78C69.767 10.98 69.807 11.21 69.807 11.47V16H68.187V11.7C68.187 11.56 68.1637 11.4533 68.117 11.38C68.0704 11.3067 67.9837 11.27 67.857 11.27C67.7904 11.27 67.7104 11.29 67.617 11.33C67.5304 11.3633 67.4404 11.4133 67.347 11.48V16H65.717ZM75.134 16.06C74.7007 16.06 74.364 15.9967 74.124 15.87C73.8907 15.7433 73.7307 15.56 73.644 15.32C73.5573 15.0733 73.514 14.7767 73.514 14.43V11.29H72.954V10.22H73.514V8.46H75.164V10.22H75.984V11.29H75.164V14.27C75.164 14.4367 75.2107 14.5567 75.304 14.63C75.404 14.7033 75.5273 14.74 75.674 14.74C75.7607 14.74 75.8407 14.7367 75.914 14.73C75.9873 14.7167 76.054 14.7067 76.114 14.7V15.98C76.0273 15.9933 75.8907 16.01 75.704 16.03C75.5173 16.05 75.3273 16.06 75.134 16.06ZM78.7791 16.1C78.3658 16.1 78.0058 16.03 77.6991 15.89C77.3991 15.75 77.1658 15.54 76.9991 15.26C76.8391 14.98 76.7591 14.63 76.7591 14.21V12.01C76.7591 11.59 76.8391 11.24 76.9991 10.96C77.1658 10.68 77.3991 10.47 77.6991 10.33C78.0058 10.19 78.3658 10.12 78.7791 10.12C79.1925 10.12 79.5491 10.19 79.8491 10.33C80.1558 10.47 80.3925 10.68 80.5591 10.96C80.7258 11.24 80.8091 11.59 80.8091 12.01V14.21C80.8091 14.63 80.7258 14.98 80.5591 15.26C80.3925 15.54 80.1558 15.75 79.8491 15.89C79.5491 16.03 79.1925 16.1 78.7791 16.1ZM78.7891 15.02C78.8958 15.02 78.9791 14.9933 79.0391 14.94C79.0991 14.88 79.1391 14.8 79.1591 14.7C79.1858 14.5933 79.1991 14.4667 79.1991 14.32V11.9C79.1991 11.7533 79.1858 11.63 79.1591 11.53C79.1391 11.4233 79.0991 11.3433 79.0391 11.29C78.9791 11.23 78.8958 11.2 78.7891 11.2C78.6825 11.2 78.5991 11.23 78.5391 11.29C78.4791 11.3433 78.4358 11.4233 78.4091 11.53C78.3825 11.63 78.3691 11.7533 78.3691 11.9V14.32C78.3691 14.4667 78.3825 14.5933 78.4091 14.7C78.4358 14.8 78.4791 14.88 78.5391 14.94C78.5991 14.9933 78.6825 15.02 78.7891 15.02ZM86.0617 16.06C85.6284 16.06 85.2917 15.9967 85.0517 15.87C84.8184 15.7433 84.6584 15.56 84.5717 15.32C84.4851 15.0733 84.4417 14.7767 84.4417 14.43V11.29H83.8817V10.22H84.4417V8.46H86.0917V10.22H86.9117V11.29H86.0917V14.27C86.0917 14.4367 86.1384 14.5567 86.2317 14.63C86.3317 14.7033 86.4551 14.74 86.6017 14.74C86.6884 14.74 86.7684 14.7367 86.8417 14.73C86.9151 14.7167 86.9817 14.7067 87.0417 14.7V15.98C86.9551 15.9933 86.8184 16.01 86.6317 16.03C86.4451 16.05 86.2551 16.06 86.0617 16.06ZM87.8169 16V7.9H89.4369V10.73C89.6502 10.5167 89.8735 10.3633 90.1069 10.27C90.3402 10.17 90.5902 10.12 90.8569 10.12C91.0902 10.12 91.2835 10.18 91.4369 10.3C91.5969 10.4133 91.7169 10.5733 91.7969 10.78C91.8769 10.98 91.9169 11.21 91.9169 11.47V16H90.2969V11.7C90.2969 11.56 90.2735 11.4533 90.2269 11.38C90.1802 11.3067 90.0935 11.27 89.9669 11.27C89.9002 11.27 89.8202 11.29 89.7269 11.33C89.6335 11.3633 89.5369 11.4133 89.4369 11.48V16H87.8169ZM94.7848 16.1C94.3648 16.1 94.0048 16.0267 93.7048 15.88C93.4048 15.7267 93.1748 15.5067 93.0148 15.22C92.8548 14.9267 92.7748 14.5767 92.7748 14.17V12.05C92.7748 11.6367 92.8548 11.2867 93.0148 11C93.1748 10.7133 93.4048 10.4967 93.7048 10.35C94.0114 10.1967 94.3714 10.12 94.7848 10.12C95.2114 10.12 95.5648 10.1933 95.8448 10.34C96.1314 10.4867 96.3448 10.7033 96.4848 10.99C96.6314 11.2767 96.7048 11.63 96.7048 12.05V13.21H94.3848V14.32C94.3848 14.4667 94.4014 14.5867 94.4348 14.68C94.4681 14.7733 94.5148 14.84 94.5748 14.88C94.6348 14.92 94.7048 14.94 94.7848 14.94C94.8648 14.94 94.9348 14.9233 94.9948 14.89C95.0614 14.85 95.1114 14.79 95.1448 14.71C95.1848 14.63 95.2048 14.52 95.2048 14.38V13.77H96.7048V14.33C96.7048 14.9167 96.5348 15.36 96.1948 15.66C95.8548 15.9533 95.3848 16.1 94.7848 16.1ZM94.3848 12.45H95.2048V11.87C95.2048 11.7167 95.1848 11.5967 95.1448 11.51C95.1114 11.4233 95.0614 11.3633 94.9948 11.33C94.9348 11.2967 94.8614 11.28 94.7748 11.28C94.6948 11.28 94.6248 11.3 94.5648 11.34C94.5114 11.38 94.4681 11.45 94.4348 11.55C94.4014 11.6433 94.3848 11.78 94.3848 11.96V12.45ZM102.051 16.1C101.637 16.1 101.277 16.03 100.971 15.89C100.671 15.75 100.437 15.54 100.271 15.26C100.111 14.98 100.031 14.63 100.031 14.21V12.01C100.031 11.59 100.111 11.24 100.271 10.96C100.437 10.68 100.671 10.47 100.971 10.33C101.277 10.19 101.637 10.12 102.051 10.12C102.464 10.12 102.821 10.19 103.121 10.33C103.427 10.47 103.664 10.68 103.831 10.96C103.997 11.24 104.081 11.59 104.081 12.01V14.21C104.081 14.63 103.997 14.98 103.831 15.26C103.664 15.54 103.427 15.75 103.121 15.89C102.821 16.03 102.464 16.1 102.051 16.1ZM102.061 15.02C102.167 15.02 102.251 14.9933 102.311 14.94C102.371 14.88 102.411 14.8 102.431 14.7C102.457 14.5933 102.471 14.4667 102.471 14.32V11.9C102.471 11.7533 102.457 11.63 102.431 11.53C102.411 11.4233 102.371 11.3433 102.311 11.29C102.251 11.23 102.167 11.2 102.061 11.2C101.954 11.2 101.871 11.23 101.811 11.29C101.751 11.3433 101.707 11.4233 101.681 11.53C101.654 11.63 101.641 11.7533 101.641 11.9V14.32C101.641 14.4667 101.654 14.5933 101.681 14.7C101.707 14.8 101.751 14.88 101.811 14.94C101.871 14.9933 101.954 15.02 102.061 15.02ZM104.985 16V10.22H106.615V10.8C106.828 10.5867 107.048 10.42 107.275 10.3C107.508 10.18 107.751 10.12 108.005 10.12C108.245 10.12 108.441 10.18 108.595 10.3C108.755 10.4133 108.875 10.5733 108.955 10.78C109.035 10.98 109.075 11.21 109.075 11.47V16H107.455V11.7C107.455 11.56 107.431 11.4533 107.385 11.38C107.338 11.3067 107.251 11.27 107.125 11.27C107.058 11.27 106.978 11.29 106.885 11.33C106.798 11.3633 106.708 11.4133 106.615 11.48V16H104.985ZM111.943 16.1C111.523 16.1 111.163 16.0267 110.863 15.88C110.563 15.7267 110.333 15.5067 110.173 15.22C110.013 14.9267 109.933 14.5767 109.933 14.17V12.05C109.933 11.6367 110.013 11.2867 110.173 11C110.333 10.7133 110.563 10.4967 110.863 10.35C111.17 10.1967 111.53 10.12 111.943 10.12C112.37 10.12 112.723 10.1933 113.003 10.34C113.29 10.4867 113.503 10.7033 113.643 10.99C113.79 11.2767 113.863 11.63 113.863 12.05V13.21H111.543V14.32C111.543 14.4667 111.56 14.5867 111.593 14.68C111.626 14.7733 111.673 14.84 111.733 14.88C111.793 14.92 111.863 14.94 111.943 14.94C112.023 14.94 112.093 14.9233 112.153 14.89C112.22 14.85 112.27 14.79 112.303 14.71C112.343 14.63 112.363 14.52 112.363 14.38V13.77H113.863V14.33C113.863 14.9167 113.693 15.36 113.353 15.66C113.013 15.9533 112.543 16.1 111.943 16.1ZM111.543 12.45H112.363V11.87C112.363 11.7167 112.343 11.5967 112.303 11.51C112.27 11.4233 112.22 11.3633 112.153 11.33C112.093 11.2967 112.02 11.28 111.933 11.28C111.853 11.28 111.783 11.3 111.723 11.34C111.67 11.38 111.626 11.45 111.593 11.55C111.56 11.6433 111.543 11.78 111.543 11.96V12.45ZM26.687 31L25.837 25.22H27.197L27.617 28.5L28.067 25.22H29.247L29.637 28.58L30.127 25.22H31.387L30.527 31H29.127L28.627 27.75L28.067 31H26.687ZM32.1138 31V22.9H33.7338V25.73C33.9471 25.5167 34.1704 25.3633 34.4038 25.27C34.6371 25.17 34.8871 25.12 35.1538 25.12C35.3871 25.12 35.5804 25.18 35.7338 25.3C35.8938 25.4133 36.0138 25.5733 36.0938 25.78C36.1738 25.98 36.2138 26.21 36.2138 26.47V31H34.5938V26.7C34.5938 26.56 34.5704 26.4533 34.5238 26.38C34.4771 26.3067 34.3904 26.27 34.2638 26.27C34.1971 26.27 34.1171 26.29 34.0238 26.33C33.9304 26.3633 33.8338 26.4133 33.7338 26.48V31H32.1138ZM39.0916 31.1C38.6783 31.1 38.3183 31.03 38.0116 30.89C37.7116 30.75 37.4783 30.54 37.3116 30.26C37.1516 29.98 37.0716 29.63 37.0716 29.21V27.01C37.0716 26.59 37.1516 26.24 37.3116 25.96C37.4783 25.68 37.7116 25.47 38.0116 25.33C38.3183 25.19 38.6783 25.12 39.0916 25.12C39.505 25.12 39.8616 25.19 40.1616 25.33C40.4683 25.47 40.705 25.68 40.8716 25.96C41.0383 26.24 41.1216 26.59 41.1216 27.01V29.21C41.1216 29.63 41.0383 29.98 40.8716 30.26C40.705 30.54 40.4683 30.75 40.1616 30.89C39.8616 31.03 39.505 31.1 39.0916 31.1ZM39.1016 30.02C39.2083 30.02 39.2916 29.9933 39.3516 29.94C39.4116 29.88 39.4516 29.8 39.4716 29.7C39.4983 29.5933 39.5116 29.4667 39.5116 29.32V26.9C39.5116 26.7533 39.4983 26.63 39.4716 26.53C39.4516 26.4233 39.4116 26.3433 39.3516 26.29C39.2916 26.23 39.2083 26.2 39.1016 26.2C38.995 26.2 38.9116 26.23 38.8516 26.29C38.7916 26.3433 38.7483 26.4233 38.7216 26.53C38.695 26.63 38.6816 26.7533 38.6816 26.9V29.32C38.6816 29.4667 38.695 29.5933 38.7216 29.7C38.7483 29.8 38.7916 29.88 38.8516 29.94C38.9116 29.9933 38.995 30.02 39.1016 30.02ZM45.1342 31L44.2842 25.22H45.6442L46.0642 28.5L46.5142 25.22H47.6942L48.0842 28.58L48.5742 25.22H49.8342L48.9742 31H47.5742L47.0742 27.75L46.5142 31H45.1342ZM50.561 31V25.22H52.191V31H50.561ZM50.551 24.24V23.11H52.191V24.24H50.551ZM53.2675 31V22.9H54.8875V31H53.2675ZM56.0116 31V22.9H57.6316V31H56.0116ZM61.7944 31L60.9444 25.22H62.3044L62.7244 28.5L63.1744 25.22H64.3544L64.7444 28.58L65.2344 25.22H66.4944L65.6344 31H64.2344L63.7344 27.75L63.1744 31H61.7944ZM67.2212 31V25.22H68.8512V31H67.2212ZM67.2112 24.24V23.11H68.8512V24.24H67.2112ZM69.8577 31V25.22H71.4877V25.8C71.701 25.5867 71.921 25.42 72.1477 25.3C72.381 25.18 72.6243 25.12 72.8777 25.12C73.1177 25.12 73.3143 25.18 73.4677 25.3C73.6277 25.4133 73.7477 25.5733 73.8277 25.78C73.9077 25.98 73.9477 26.21 73.9477 26.47V31H72.3277V26.7C72.3277 26.56 72.3043 26.4533 72.2577 26.38C72.211 26.3067 72.1243 26.27 71.9977 26.27C71.931 26.27 71.851 26.29 71.7577 26.33C71.671 26.3633 71.581 26.4133 71.4877 26.48V31H69.8577ZM78.6746 31.1C78.3813 31.1 78.1346 31.03 77.9346 30.89C77.7346 30.75 77.5846 30.5733 77.4846 30.36C77.3846 30.14 77.3346 29.9167 77.3346 29.69C77.3346 29.33 77.4046 29.0267 77.5446 28.78C77.6913 28.5333 77.8813 28.3267 78.1146 28.16C78.3479 27.9933 78.6046 27.8533 78.8846 27.74C79.1646 27.62 79.4413 27.5133 79.7146 27.42V26.84C79.7146 26.74 79.7046 26.6533 79.6846 26.58C79.6646 26.5 79.6313 26.44 79.5846 26.4C79.5379 26.3533 79.4679 26.33 79.3746 26.33C79.2813 26.33 79.2079 26.35 79.1546 26.39C79.1079 26.43 79.0746 26.4867 79.0546 26.56C79.0346 26.6267 79.0213 26.7033 79.0146 26.79L78.9746 27.21L77.4546 27.15C77.4879 26.4567 77.6713 25.9467 78.0046 25.62C78.3446 25.2867 78.8513 25.12 79.5246 25.12C80.1113 25.12 80.5479 25.2833 80.8346 25.61C81.1279 25.93 81.2746 26.3467 81.2746 26.86V29.56C81.2746 29.8 81.2779 30.01 81.2846 30.19C81.2979 30.37 81.3113 30.5267 81.3246 30.66C81.3446 30.7933 81.3613 30.9067 81.3746 31H79.9146C79.8946 30.8467 79.8713 30.68 79.8446 30.5C79.8179 30.32 79.7979 30.2133 79.7846 30.18C79.7179 30.42 79.5913 30.6333 79.4046 30.82C79.2246 31.0067 78.9813 31.1 78.6746 31.1ZM79.2546 30C79.3213 30 79.3813 29.9867 79.4346 29.96C79.4946 29.9333 79.5479 29.8967 79.5946 29.85C79.6413 29.8033 79.6813 29.7567 79.7146 29.71V28.13C79.5813 28.21 79.4579 28.2933 79.3446 28.38C79.2313 28.46 79.1346 28.55 79.0546 28.65C78.9746 28.75 78.9113 28.86 78.8646 28.98C78.8246 29.0933 78.8046 29.2233 78.8046 29.37C78.8046 29.5633 78.8446 29.7167 78.9246 29.83C79.0046 29.9433 79.1146 30 79.2546 30ZM84.0109 31.06C83.5776 31.06 83.2409 30.9967 83.0009 30.87C82.7676 30.7433 82.6076 30.56 82.5209 30.32C82.4343 30.0733 82.3909 29.7767 82.3909 29.43V26.29H81.8309V25.22H82.3909V23.46H84.0409V25.22H84.8609V26.29H84.0409V29.27C84.0409 29.4367 84.0876 29.5567 84.1809 29.63C84.2809 29.7033 84.4043 29.74 84.5509 29.74C84.6376 29.74 84.7176 29.7367 84.7909 29.73C84.8643 29.7167 84.9309 29.7067 84.9909 29.7V30.98C84.9043 30.9933 84.7676 31.01 84.5809 31.03C84.3943 31.05 84.2043 31.06 84.0109 31.06ZM88.3747 31L88.5147 22.9H90.4347L91.3247 27.61L92.2847 22.9H94.1347L94.2747 31H93.0047L92.8547 25.61L91.9147 31H90.7847L89.7847 25.57L89.6647 31H88.3747ZM97.2557 31.1C96.8424 31.1 96.4824 31.03 96.1757 30.89C95.8757 30.75 95.6424 30.54 95.4757 30.26C95.3157 29.98 95.2357 29.63 95.2357 29.21V27.01C95.2357 26.59 95.3157 26.24 95.4757 25.96C95.6424 25.68 95.8757 25.47 96.1757 25.33C96.4824 25.19 96.8424 25.12 97.2557 25.12C97.669 25.12 98.0257 25.19 98.3257 25.33C98.6324 25.47 98.869 25.68 99.0357 25.96C99.2024 26.24 99.2857 26.59 99.2857 27.01V29.21C99.2857 29.63 99.2024 29.98 99.0357 30.26C98.869 30.54 98.6324 30.75 98.3257 30.89C98.0257 31.03 97.669 31.1 97.2557 31.1ZM97.2657 30.02C97.3724 30.02 97.4557 29.9933 97.5157 29.94C97.5757 29.88 97.6157 29.8 97.6357 29.7C97.6624 29.5933 97.6757 29.4667 97.6757 29.32V26.9C97.6757 26.7533 97.6624 26.63 97.6357 26.53C97.6157 26.4233 97.5757 26.3433 97.5157 26.29C97.4557 26.23 97.3724 26.2 97.2657 26.2C97.159 26.2 97.0757 26.23 97.0157 26.29C96.9557 26.3433 96.9124 26.4233 96.8857 26.53C96.859 26.63 96.8457 26.7533 96.8457 26.9V29.32C96.8457 29.4667 96.859 29.5933 96.8857 29.7C96.9124 29.8 96.9557 29.88 97.0157 29.94C97.0757 29.9933 97.159 30.02 97.2657 30.02ZM101.97 31.1C101.463 31.1 101.04 30.9867 100.7 30.76C100.366 30.5333 100.093 30.1633 99.8797 29.65L100.99 29.16C101.096 29.42 101.22 29.6267 101.36 29.78C101.506 29.9267 101.666 30 101.84 30C101.966 30 102.06 29.9733 102.12 29.92C102.186 29.8667 102.22 29.7933 102.22 29.7C102.22 29.5467 102.16 29.4067 102.04 29.28C101.926 29.1533 101.72 28.9667 101.42 28.72L101 28.37C100.693 28.11 100.45 27.86 100.27 27.62C100.096 27.3733 100.01 27.07 100.01 26.71C100.01 26.3967 100.09 26.12 100.25 25.88C100.416 25.64 100.636 25.4533 100.91 25.32C101.183 25.1867 101.476 25.12 101.79 25.12C102.263 25.12 102.66 25.25 102.98 25.51C103.3 25.77 103.523 26.1367 103.65 26.61L102.6 27.09C102.56 26.9633 102.503 26.8367 102.43 26.71C102.356 26.5833 102.266 26.4767 102.16 26.39C102.06 26.3033 101.95 26.26 101.83 26.26C101.723 26.26 101.636 26.29 101.57 26.35C101.51 26.41 101.48 26.49 101.48 26.59C101.48 26.7167 101.55 26.8533 101.69 27C101.836 27.1467 102.036 27.3233 102.29 27.53L102.7 27.89C102.866 28.03 103.03 28.18 103.19 28.34C103.35 28.5 103.48 28.6767 103.58 28.87C103.686 29.0633 103.74 29.2833 103.74 29.53C103.74 29.8633 103.656 30.15 103.49 30.39C103.323 30.6233 103.103 30.8 102.83 30.92C102.563 31.04 102.276 31.1 101.97 31.1ZM106.838 31.12C106.225 31.12 105.738 31.01 105.378 30.79C105.025 30.5633 104.775 30.25 104.628 29.85C104.481 29.4433 104.408 28.9667 104.408 28.42V25.5C104.408 24.94 104.481 24.46 104.628 24.06C104.775 23.6533 105.025 23.34 105.378 23.12C105.738 22.9 106.225 22.79 106.838 22.79C107.438 22.79 107.905 22.89 108.238 23.09C108.578 23.2833 108.818 23.5567 108.958 23.91C109.098 24.2633 109.168 24.67 109.168 25.13V25.83H107.418V25.02C107.418 24.86 107.408 24.7067 107.388 24.56C107.375 24.4133 107.328 24.2933 107.248 24.2C107.168 24.1 107.031 24.05 106.838 24.05C106.651 24.05 106.511 24.1 106.418 24.2C106.331 24.3 106.275 24.4267 106.248 24.58C106.228 24.7267 106.218 24.8833 106.218 25.05V28.86C106.218 29.04 106.231 29.2067 106.258 29.36C106.291 29.5067 106.351 29.6267 106.438 29.72C106.531 29.8067 106.665 29.85 106.838 29.85C107.025 29.85 107.158 29.8033 107.238 29.71C107.318 29.61 107.368 29.4833 107.388 29.33C107.408 29.1767 107.418 29.02 107.418 28.86V28.01H109.168V28.71C109.168 29.17 109.098 29.5833 108.958 29.95C108.825 30.31 108.588 30.5967 108.248 30.81C107.915 31.0167 107.445 31.12 106.838 31.12ZM110.073 31V22.9H111.693V25.73C111.906 25.5167 112.129 25.3633 112.363 25.27C112.596 25.17 112.846 25.12 113.113 25.12C113.346 25.12 113.539 25.18 113.693 25.3C113.853 25.4133 113.973 25.5733 114.053 25.78C114.133 25.98 114.173 26.21 114.173 26.47V31H112.553V26.7C112.553 26.56 112.529 26.4533 112.483 26.38C112.436 26.3067 112.349 26.27 112.223 26.27C112.156 26.27 112.076 26.29 111.983 26.33C111.889 26.3633 111.793 26.4133 111.693 26.48V31H110.073ZM117.041 31.1C116.621 31.1 116.261 31.0267 115.961 30.88C115.661 30.7267 115.431 30.5067 115.271 30.22C115.111 29.9267 115.031 29.5767 115.031 29.17V27.05C115.031 26.6367 115.111 26.2867 115.271 26C115.431 25.7133 115.661 25.4967 115.961 25.35C116.267 25.1967 116.627 25.12 117.041 25.12C117.467 25.12 117.821 25.1933 118.101 25.34C118.387 25.4867 118.601 25.7033 118.741 25.99C118.887 26.2767 118.961 26.63 118.961 27.05V28.21H116.641V29.32C116.641 29.4667 116.657 29.5867 116.691 29.68C116.724 29.7733 116.771 29.84 116.831 29.88C116.891 29.92 116.961 29.94 117.041 29.94C117.121 29.94 117.191 29.9233 117.251 29.89C117.317 29.85 117.367 29.79 117.401 29.71C117.441 29.63 117.461 29.52 117.461 29.38V28.77H118.961V29.33C118.961 29.9167 118.791 30.36 118.451 30.66C118.111 30.9533 117.641 31.1 117.041 31.1ZM116.641 27.45H117.461V26.87C117.461 26.7167 117.441 26.5967 117.401 26.51C117.367 26.4233 117.317 26.3633 117.251 26.33C117.191 26.2967 117.117 26.28 117.031 26.28C116.951 26.28 116.881 26.3 116.821 26.34C116.767 26.38 116.724 26.45 116.691 26.55C116.657 26.6433 116.641 26.78 116.641 26.96V27.45ZM121.628 31.1C121.121 31.1 120.698 30.9867 120.358 30.76C120.025 30.5333 119.751 30.1633 119.538 29.65L120.648 29.16C120.755 29.42 120.878 29.6267 121.018 29.78C121.165 29.9267 121.325 30 121.498 30C121.625 30 121.718 29.9733 121.778 29.92C121.845 29.8667 121.878 29.7933 121.878 29.7C121.878 29.5467 121.818 29.4067 121.698 29.28C121.585 29.1533 121.378 28.9667 121.078 28.72L120.658 28.37C120.351 28.11 120.108 27.86 119.928 27.62C119.755 27.3733 119.668 27.07 119.668 26.71C119.668 26.3967 119.748 26.12 119.908 25.88C120.075 25.64 120.295 25.4533 120.568 25.32C120.841 25.1867 121.135 25.12 121.448 25.12C121.921 25.12 122.318 25.25 122.638 25.51C122.958 25.77 123.181 26.1367 123.308 26.61L122.258 27.09C122.218 26.9633 122.161 26.8367 122.088 26.71C122.015 26.5833 121.925 26.4767 121.818 26.39C121.718 26.3033 121.608 26.26 121.488 26.26C121.381 26.26 121.295 26.29 121.228 26.35C121.168 26.41 121.138 26.49 121.138 26.59C121.138 26.7167 121.208 26.8533 121.348 27C121.495 27.1467 121.695 27.3233 121.948 27.53L122.358 27.89C122.525 28.03 122.688 28.18 122.848 28.34C123.008 28.5 123.138 28.6767 123.238 28.87C123.345 29.0633 123.398 29.2833 123.398 29.53C123.398 29.8633 123.315 30.15 123.148 30.39C122.981 30.6233 122.761 30.8 122.488 30.92C122.221 31.04 121.935 31.1 121.628 31.1ZM125.866 31.1C125.36 31.1 124.936 30.9867 124.596 30.76C124.263 30.5333 123.99 30.1633 123.776 29.65L124.886 29.16C124.993 29.42 125.116 29.6267 125.256 29.78C125.403 29.9267 125.563 30 125.736 30C125.863 30 125.956 29.9733 126.016 29.92C126.083 29.8667 126.116 29.7933 126.116 29.7C126.116 29.5467 126.056 29.4067 125.936 29.28C125.823 29.1533 125.616 28.9667 125.316 28.72L124.896 28.37C124.59 28.11 124.346 27.86 124.166 27.62C123.993 27.3733 123.906 27.07 123.906 26.71C123.906 26.3967 123.986 26.12 124.146 25.88C124.313 25.64 124.533 25.4533 124.806 25.32C125.08 25.1867 125.373 25.12 125.686 25.12C126.16 25.12 126.556 25.25 126.876 25.51C127.196 25.77 127.42 26.1367 127.546 26.61L126.496 27.09C126.456 26.9633 126.4 26.8367 126.326 26.71C126.253 26.5833 126.163 26.4767 126.056 26.39C125.956 26.3033 125.846 26.26 125.726 26.26C125.62 26.26 125.533 26.29 125.466 26.35C125.406 26.41 125.376 26.49 125.376 26.59C125.376 26.7167 125.446 26.8533 125.586 27C125.733 27.1467 125.933 27.3233 126.186 27.53L126.596 27.89C126.763 28.03 126.926 28.18 127.086 28.34C127.246 28.5 127.376 28.6767 127.476 28.87C127.583 29.0633 127.636 29.2833 127.636 29.53C127.636 29.8633 127.553 30.15 127.386 30.39C127.22 30.6233 127 30.8 126.726 30.92C126.46 31.04 126.173 31.1 125.866 31.1ZM63.1174 46.06C62.684 46.06 62.3474 45.9967 62.1074 45.87C61.874 45.7433 61.714 45.56 61.6274 45.32C61.5407 45.0733 61.4974 44.7767 61.4974 44.43V41.29H60.9374V40.22H61.4974V38.46H63.1474V40.22H63.9674V41.29H63.1474V44.27C63.1474 44.4367 63.194 44.5567 63.2874 44.63C63.3874 44.7033 63.5107 44.74 63.6574 44.74C63.744 44.74 63.824 44.7367 63.8974 44.73C63.9707 44.7167 64.0374 44.7067 64.0974 44.7V45.98C64.0107 45.9933 63.874 46.01 63.6874 46.03C63.5007 46.05 63.3107 46.06 63.1174 46.06ZM66.7525 46.1C66.3325 46.1 65.9725 46.0267 65.6725 45.88C65.3725 45.7267 65.1425 45.5067 64.9825 45.22C64.8225 44.9267 64.7425 44.5767 64.7425 44.17V42.05C64.7425 41.6367 64.8225 41.2867 64.9825 41C65.1425 40.7133 65.3725 40.4967 65.6725 40.35C65.9792 40.1967 66.3392 40.12 66.7525 40.12C67.1792 40.12 67.5325 40.1933 67.8125 40.34C68.0992 40.4867 68.3125 40.7033 68.4525 40.99C68.5992 41.2767 68.6725 41.63 68.6725 42.05V43.21H66.3525V44.32C66.3525 44.4667 66.3692 44.5867 66.4025 44.68C66.4359 44.7733 66.4825 44.84 66.5425 44.88C66.6025 44.92 66.6725 44.94 66.7525 44.94C66.8325 44.94 66.9025 44.9233 66.9625 44.89C67.0292 44.85 67.0792 44.79 67.1125 44.71C67.1525 44.63 67.1725 44.52 67.1725 44.38V43.77H68.6725V44.33C68.6725 44.9167 68.5025 45.36 68.1625 45.66C67.8225 45.9533 67.3525 46.1 66.7525 46.1ZM66.3525 42.45H67.1725V41.87C67.1725 41.7167 67.1525 41.5967 67.1125 41.51C67.0792 41.4233 67.0292 41.3633 66.9625 41.33C66.9025 41.2967 66.8292 41.28 66.7425 41.28C66.6625 41.28 66.5925 41.3 66.5325 41.34C66.4792 41.38 66.4359 41.45 66.4025 41.55C66.3692 41.6433 66.3525 41.78 66.3525 41.96V42.45ZM69.5598 46V40.22H71.1898V40.8C71.4031 40.5867 71.6231 40.42 71.8498 40.3C72.0831 40.18 72.3265 40.12 72.5798 40.12C72.8198 40.12 73.0165 40.18 73.1698 40.3C73.3298 40.4133 73.4498 40.5733 73.5298 40.78C73.6098 40.98 73.6498 41.21 73.6498 41.47V46H72.0298V41.7C72.0298 41.56 72.0065 41.4533 71.9598 41.38C71.9131 41.3067 71.8265 41.27 71.6998 41.27C71.6331 41.27 71.5531 41.29 71.4598 41.33C71.3731 41.3633 71.2831 41.4133 71.1898 41.48V46H69.5598ZM78.4368 46.1C78.0101 46.1 77.6801 45.95 77.4468 45.65C77.2134 45.35 77.0968 44.9067 77.0968 44.32V41.93C77.0968 41.57 77.1468 41.2567 77.2468 40.99C77.3468 40.7167 77.4968 40.5033 77.6968 40.35C77.8968 40.1967 78.1434 40.12 78.4368 40.12C78.6501 40.12 78.8534 40.1633 79.0468 40.25C79.2401 40.33 79.4168 40.44 79.5768 40.58V37.9H81.2068V46H79.5768V45.55C79.3968 45.7233 79.2101 45.86 79.0168 45.96C78.8234 46.0533 78.6301 46.1 78.4368 46.1ZM79.1468 45.06C79.2001 45.06 79.2634 45.0467 79.3368 45.02C79.4168 44.9933 79.4968 44.9567 79.5768 44.91V41.26C79.5101 41.2267 79.4401 41.1967 79.3668 41.17C79.2934 41.1433 79.2234 41.13 79.1568 41.13C79.0101 41.13 78.9034 41.1933 78.8368 41.32C78.7701 41.44 78.7368 41.5867 78.7368 41.76V44.42C78.7368 44.54 78.7501 44.65 78.7768 44.75C78.8034 44.8433 78.8468 44.92 78.9068 44.98C78.9668 45.0333 79.0468 45.06 79.1468 45.06ZM83.4061 46.1C83.1127 46.1 82.8661 46.03 82.6661 45.89C82.4661 45.75 82.3161 45.5733 82.2161 45.36C82.1161 45.14 82.0661 44.9167 82.0661 44.69C82.0661 44.33 82.1361 44.0267 82.2761 43.78C82.4227 43.5333 82.6127 43.3267 82.8461 43.16C83.0794 42.9933 83.3361 42.8533 83.6161 42.74C83.8961 42.62 84.1727 42.5133 84.4461 42.42V41.84C84.4461 41.74 84.4361 41.6533 84.4161 41.58C84.3961 41.5 84.3627 41.44 84.3161 41.4C84.2694 41.3533 84.1994 41.33 84.1061 41.33C84.0127 41.33 83.9394 41.35 83.8861 41.39C83.8394 41.43 83.8061 41.4867 83.7861 41.56C83.7661 41.6267 83.7527 41.7033 83.7461 41.79L83.7061 42.21L82.1861 42.15C82.2194 41.4567 82.4027 40.9467 82.7361 40.62C83.0761 40.2867 83.5827 40.12 84.2561 40.12C84.8427 40.12 85.2794 40.2833 85.5661 40.61C85.8594 40.93 86.0061 41.3467 86.0061 41.86V44.56C86.0061 44.8 86.0094 45.01 86.0161 45.19C86.0294 45.37 86.0427 45.5267 86.0561 45.66C86.0761 45.7933 86.0927 45.9067 86.1061 46H84.6461C84.6261 45.8467 84.6027 45.68 84.5761 45.5C84.5494 45.32 84.5294 45.2133 84.5161 45.18C84.4494 45.42 84.3227 45.6333 84.1361 45.82C83.9561 46.0067 83.7127 46.1 83.4061 46.1ZM83.9861 45C84.0527 45 84.1127 44.9867 84.1661 44.96C84.2261 44.9333 84.2794 44.8967 84.3261 44.85C84.3727 44.8033 84.4127 44.7567 84.4461 44.71V43.13C84.3127 43.21 84.1894 43.2933 84.0761 43.38C83.9627 43.46 83.8661 43.55 83.7861 43.65C83.7061 43.75 83.6427 43.86 83.5961 43.98C83.5561 44.0933 83.5361 44.2233 83.5361 44.37C83.5361 44.5633 83.5761 44.7167 83.6561 44.83C83.7361 44.9433 83.8461 45 83.9861 45ZM87.1319 47.68V46.55C87.3386 46.55 87.5086 46.5367 87.6419 46.51C87.7819 46.4833 87.8852 46.4333 87.9519 46.36C88.0252 46.2867 88.0619 46.1867 88.0619 46.06C88.0619 45.9467 88.0419 45.81 88.0019 45.65C87.9619 45.4833 87.9119 45.2967 87.8519 45.09L86.4919 40.22H88.0219L88.7519 43.56L89.3019 40.22H90.8419L89.5119 46.14C89.4252 46.54 89.2886 46.85 89.1019 47.07C88.9152 47.2967 88.6852 47.4533 88.4119 47.54C88.1452 47.6333 87.8419 47.68 87.5019 47.68H87.1319ZM93.2343 46.1C92.7277 46.1 92.3043 45.9867 91.9643 45.76C91.631 45.5333 91.3577 45.1633 91.1443 44.65L92.2543 44.16C92.361 44.42 92.4843 44.6267 92.6243 44.78C92.771 44.9267 92.931 45 93.1043 45C93.231 45 93.3243 44.9733 93.3843 44.92C93.451 44.8667 93.4843 44.7933 93.4843 44.7C93.4843 44.5467 93.4243 44.4067 93.3043 44.28C93.191 44.1533 92.9843 43.9667 92.6843 43.72L92.2643 43.37C91.9577 43.11 91.7143 42.86 91.5343 42.62C91.361 42.3733 91.2743 42.07 91.2743 41.71C91.2743 41.3967 91.3543 41.12 91.5143 40.88C91.681 40.64 91.901 40.4533 92.1743 40.32C92.4477 40.1867 92.741 40.12 93.0543 40.12C93.5277 40.12 93.9243 40.25 94.2443 40.51C94.5643 40.77 94.7877 41.1367 94.9143 41.61L93.8643 42.09C93.8243 41.9633 93.7677 41.8367 93.6943 41.71C93.621 41.5833 93.531 41.4767 93.4243 41.39C93.3243 41.3033 93.2143 41.26 93.0943 41.26C92.9877 41.26 92.901 41.29 92.8343 41.35C92.7743 41.41 92.7443 41.49 92.7443 41.59C92.7443 41.7167 92.8143 41.8533 92.9543 42C93.101 42.1467 93.301 42.3233 93.5543 42.53L93.9643 42.89C94.131 43.03 94.2943 43.18 94.4543 43.34C94.6143 43.5 94.7443 43.6767 94.8443 43.87C94.951 44.0633 95.0043 44.2833 95.0043 44.53C95.0043 44.8633 94.921 45.15 94.7543 45.39C94.5877 45.6233 94.3677 45.8 94.0943 45.92C93.8277 46.04 93.541 46.1 93.2343 46.1Z"></path>
</svg>
