<svg version="1.1" xmlns="http://www.w3.org/2000/svg" xmlns:xlink="http://www.w3.org/1999/xlink" width="90.12388" height="90.12388" viewBox="0,0,90.12388,90.12388"><g transform="translate(-194.93806,-134.93806)"><g stroke="none" stroke-miterlimit="10"><path d="M258.25767,161.84486c4.2965,4.2965 6.76698,9.39858 7.41146,15.30627c0.10742,0.85929 0.48336,1.55749 1.12783,2.09454c0.53706,0.53706 1.23525,0.80559 2.09454,0.80559h6.44474l1.7723,-0.48336l1.12783,-1.28895l0.32224,-1.61119c-0.75189,-9.23746 -4.45762,-17.23969 -11.11718,-24.00667c-7.51887,-7.51887 -16.64892,-11.2783 -27.39016,-11.2783c-10.41901,0 -19.33423,3.59831 -26.74569,10.79495l-0.64447,0.48336l-0.48336,0.64447c-7.19664,7.41146 -10.79495,16.32668 -10.79495,26.74569c0,10.52641 3.75943,19.60277 11.2783,27.22904l0.48336,0.80559c6.65956,6.33733 14.50067,9.82823 23.52331,10.47271l1.61119,-0.32224l1.28895,-1.12783l0.48336,-1.7723v-6.44474l-0.80559,-2.09454c-0.53706,-0.64447 -1.23525,-1.02041 -2.09454,-1.12783c-5.58545,-0.64447 -10.47271,-2.95384 -14.66179,-6.9281l-0.64447,-0.32224l-0.16112,-0.16112c-4.94098,-5.1558 -7.41146,-11.2246 -7.41146,-18.2064c0,-7.08922 2.47048,-13.15802 7.41146,-18.2064l0.16112,-0.16112c5.04838,-4.94098 11.11718,-7.41146 18.2064,-7.41146c7.08922,0 13.15802,2.5242 18.2064,7.57257M253.74635,166.5173c-3.86685,-3.86685 -8.43187,-5.80027 -13.69508,-5.80027c-5.37061,0 -9.93565,1.87972 -13.69508,5.63915h0.16112l-0.16112,0.16112v-0.16112c-3.75943,3.75943 -5.63915,8.32447 -5.63915,13.69508c0,4.94098 1.66489,9.29118 4.99468,13.05061l1.28895,0.96671c3.11495,3.00755 6.76698,4.77986 10.95606,5.31691c2.5779,0.21482 4.67244,1.34265 6.28363,3.38349l-0.32224,-0.48336c1.7186,1.61119 2.5779,3.81315 2.5779,6.60586v6.44474c0,1.82601 -0.42965,3.54461 -1.28895,5.1558l-0.48336,0.48336l-3.06125,2.90013c-1.82601,0.96671 -3.65203,1.34265 -5.47803,1.12783c-10.52641,-0.75189 -19.65647,-4.83356 -27.39016,-12.24501l-0.96671,-1.12783l-0.32224,-0.48336c-8.37817,-8.80782 -12.56725,-19.17311 -12.56725,-31.09589c0,-11.81536 3.97426,-21.96583 11.92278,-30.45141l1.28895,-1.45007l1.45007,-1.28895c8.48558,-7.94851 18.63606,-11.92278 30.45141,-11.92278c12.56725,0 23.25478,4.4039 32.0626,13.21172c7.73369,7.94851 12.03019,17.29339 12.88949,28.03464c0.21482,1.82601 -0.16112,3.65203 -1.12783,5.47803l-2.90013,3.06125l-0.48336,0.48336l-5.1558,1.28895h-6.44474c-2.79272,0 -4.99468,-0.85929 -6.60586,-2.5779l0.48336,0.32224c-1.93342,-1.61119 -3.06125,-3.70573 -3.38349,-6.28363h-0.16112c-0.53706,-4.51132 -2.36308,-8.32447 -5.47803,-11.43942M226.19507,193.74635l0.16112,0.16112v-0.16112h-0.16112" fill="#000000"/><path d="M258.25767,161.84486c-5.04838,-5.04838 -11.11718,-7.57257 -18.2064,-7.57257c-7.08922,0 -13.15802,2.47048 -18.2064,7.41146l-0.16112,0.16112c-4.94098,5.04838 -7.41146,11.11718 -7.41146,18.2064c0,6.9818 2.47048,13.05061 7.41146,18.2064l0.16112,0.16112l0.64447,0.32224c4.18908,3.97426 9.07634,6.28363 14.66179,6.9281c0.85929,0.10742 1.55749,0.48336 2.09454,1.12783l0.80559,2.09454v6.44474l-0.48336,1.7723l-1.28895,1.12783l-1.61119,0.32224c-9.02264,-0.64447 -16.86375,-4.13538 -23.52331,-10.47271l-0.48336,-0.80559c-7.51887,-7.62627 -11.2783,-16.70263 -11.2783,-27.22904c0,-10.41901 3.59831,-19.33423 10.79495,-26.74569l0.48336,-0.64447l0.64447,-0.48336c7.41146,-7.19664 16.32668,-10.79495 26.74569,-10.79495c10.74124,0 19.87129,3.75943 27.39016,11.2783c6.65956,6.76698 10.36529,14.76921 11.11718,24.00667l-0.32224,1.61119l-1.12783,1.28895l-1.7723,0.48336h-6.44474c-0.85929,0 -1.55749,-0.26854 -2.09454,-0.80559c-0.64447,-0.53706 -1.02041,-1.23525 -1.12783,-2.09454c-0.64447,-5.90769 -3.11495,-11.00977 -7.41146,-15.30627" fill="#ffffff"/></g></g></svg>