<svg version="1.1" xmlns="http://www.w3.org/2000/svg" xmlns:xlink="http://www.w3.org/1999/xlink" width="623.93651" height="503.36508" viewBox="0,0,623.93651,503.36508"><g transform="translate(71.96826,71.68254)"><g data-paper-data="{&quot;isPaintingLayer&quot;:true}" fill="#ff3333" fill-rule="nonzero" stroke="none" stroke-width="0" stroke-linecap="butt" stroke-linejoin="miter" stroke-miterlimit="10" stroke-dasharray="" stroke-dashoffset="0" style="mix-blend-mode: normal"><g><path d="M228.03175,244.16667v-8.33333h23.93651v8.33333z"/><path d="M244.16667,251.68254h-8.33333v-23.36508h8.33333z"/></g><g><path d="M168.03175,244.16667v-8.33333h23.93651v8.33333z"/><path d="M184.16667,251.68254h-8.33333v-23.36508h8.33333z"/></g><g><path d="M228.03175,304.16666v-8.33333h23.93651v8.33333z"/><path d="M244.16667,311.68254h-8.33333v-23.36508h8.33333z"/></g><g><path d="M168.03175,304.16666v-8.33333h23.93651v8.33333z"/><path d="M184.16667,311.68254h-8.33333v-23.36508h8.33333z"/></g><g><path d="M348.03175,244.16667v-8.33333h23.93651v8.33333z"/><path d="M364.16667,251.68254h-8.33333v-23.36508h8.33333z"/></g><g><path d="M288.03175,244.16667v-8.33333h23.93651v8.33333z"/><path d="M304.16667,251.68254h-8.33333v-23.36508h8.33333z"/></g><g><path d="M348.03175,304.16666v-8.33333h23.93651v8.33333z"/><path d="M364.16667,311.68254h-8.33333v-23.36508h8.33333z"/></g><g><path d="M288.03175,304.16666v-8.33333h23.93651v8.33333z"/><path d="M304.16667,311.68254h-8.33333v-23.36508h8.33333z"/></g><g><path d="M228.03175,124.16667v-8.33333h23.93651v8.33333z"/><path d="M244.16667,131.68254h-8.33333v-23.36508h8.33333z"/></g><g><path d="M168.03175,124.16667v-8.33333h23.93651v8.33333z"/><path d="M184.16667,131.68254h-8.33333v-23.36508h8.33333z"/></g><g><path d="M228.03175,184.16667v-8.33333h23.93651v8.33333z"/><path d="M244.16667,191.68254h-8.33333v-23.36508h8.33333z"/></g><g><path d="M168.03175,184.16667v-8.33333h23.93651v8.33333z"/><path d="M184.16667,191.68254h-8.33333v-23.36508h8.33333z"/></g><g><path d="M348.03175,124.16667v-8.33333h23.93651v8.33333z"/><path d="M364.16667,131.68254h-8.33333v-23.36508h8.33333z"/></g><g><path d="M288.03175,124.16667v-8.33333h23.93651v8.33333z"/><path d="M304.16667,131.68254h-8.33333v-23.36508h8.33333z"/></g><g><path d="M348.03175,184.16667v-8.33333h23.93651v8.33333z"/><path d="M364.16667,191.68254h-8.33333v-23.36508h8.33333z"/></g><g><path d="M288.03175,184.16667v-8.33333h23.93651v8.33333z"/><path d="M304.16667,191.68254h-8.33333v-23.36508h8.33333z"/></g><g><path d="M348.03175,364.16667v-8.33333h23.93651v8.33333z"/><path d="M364.16667,371.68254h-8.33333v-23.36508h8.33333z"/></g><g><path d="M288.03175,364.16667v-8.33333h23.93651v8.33333z"/><path d="M304.16667,371.68254h-8.33333v-23.36508h8.33333z"/></g><g><path d="M348.03175,424.16667v-8.33333h23.93651v8.33333z"/><path d="M364.16667,431.68254h-8.33333v-23.36508h8.33333z"/></g><g><path d="M288.03175,424.16667v-8.33333h23.93651v8.33333z"/><path d="M304.16667,431.68254h-8.33333v-23.36508h8.33333z"/></g><g><path d="M228.03175,64.16666v-8.33333h23.93651v8.33333z"/><path d="M244.16667,71.68254h-8.33333v-23.36508h8.33333z"/></g><g><path d="M168.03175,64.16666v-8.33333h23.93651v8.33333z"/><path d="M184.16667,71.68254h-8.33333v-23.36508h8.33333z"/></g><g><path d="M348.03175,64.16666v-8.33333h23.93651v8.33333z"/><path d="M364.16667,71.68254h-8.33333v-23.36508h8.33333z"/></g><g><path d="M288.03175,64.16666v-8.33333h23.93651v8.33333z"/><path d="M304.16667,71.68254h-8.33333v-23.36508h8.33333z"/></g><g><path d="M228.03175,364.16667v-8.33333h23.93651v8.33333z"/><path d="M244.16667,371.68254h-8.33333v-23.36508h8.33333z"/></g><g><path d="M168.03175,364.16667v-8.33333h23.93651v8.33333z"/><path d="M184.16667,371.68254h-8.33333v-23.36508h8.33333z"/></g><g><path d="M228.03175,424.16667v-8.33333h23.93651v8.33333z"/><path d="M244.16667,431.68254h-8.33333v-23.36508h8.33333z"/></g><g><path d="M168.03175,424.16667v-8.33333h23.93651v8.33333z"/><path d="M184.16667,431.68254h-8.33333v-23.36508h8.33333z"/></g><g><path d="M108.03175,244.16667v-8.33333h23.93651v8.33333z"/><path d="M124.16667,251.68254h-8.33333v-23.36508h8.33333z"/></g><g><path d="M48.03175,244.16667v-8.33333h23.93651v8.33333z"/><path d="M64.16666,251.68254h-8.33333v-23.36508h8.33333z"/></g><g><path d="M108.03175,304.16666v-8.33333h23.93651v8.33333z"/><path d="M124.16667,311.68254h-8.33333v-23.36508h8.33333z"/></g><g><path d="M48.03175,304.16666v-8.33333h23.93651v8.33333z"/><path d="M64.16666,311.68254h-8.33333v-23.36508h8.33333z"/></g><g><path d="M108.03175,124.16667v-8.33333h23.93651v8.33333z"/><path d="M124.16667,131.68254h-8.33333v-23.36508h8.33333z"/></g><g><path d="M48.03175,124.16667v-8.33333h23.93651v8.33333z"/><path d="M64.16666,131.68254h-8.33333v-23.36508h8.33333z"/></g><g><path d="M108.03175,184.16667v-8.33333h23.93651v8.33333z"/><path d="M124.16667,191.68254h-8.33333v-23.36508h8.33333z"/></g><g><path d="M48.03175,184.16667v-8.33333h23.93651v8.33333z"/><path d="M64.16666,191.68254h-8.33333v-23.36508h8.33333z"/></g><g><path d="M108.03175,364.16667v-8.33333h23.93651v8.33333z"/><path d="M124.16667,371.68254h-8.33333v-23.36508h8.33333z"/></g><g><path d="M48.03175,364.16667v-8.33333h23.93651v8.33333z"/><path d="M64.16666,371.68254h-8.33333v-23.36508h8.33333z"/></g><g><path d="M108.03175,424.16667v-8.33333h23.93651v8.33333z"/><path d="M124.16667,431.68254h-8.33333v-23.36508h8.33333z"/></g><g><path d="M48.03175,424.16667v-8.33333h23.93651v8.33333z"/><path d="M64.16666,431.68254h-8.33333v-23.36508h8.33333z"/></g><g><path d="M108.03175,64.16666v-8.33333h23.93651v8.33333z"/><path d="M124.16667,71.68254h-8.33333v-23.36508h8.33333z"/></g><g><path d="M48.03175,64.16666v-8.33333h23.93651v8.33333z"/><path d="M64.16666,71.68254h-8.33333v-23.36508h8.33333z"/></g><g><path d="M408.03175,244.16667v-8.33333h23.93651v8.33333z"/><path d="M424.16667,251.68254h-8.33333v-23.36508h8.33333z"/></g><g><path d="M408.03175,304.16666v-8.33333h23.93651v8.33333z"/><path d="M424.16667,311.68254h-8.33333v-23.36508h8.33333z"/></g><g><path d="M528.03175,244.16667v-8.33333h23.93651v8.33333z"/><path d="M544.16667,251.68254h-8.33333v-23.36508h8.33333z"/></g><g><path d="M468.03175,244.16667v-8.33333h23.93651v8.33333z"/><path d="M484.16667,251.68254h-8.33333v-23.36508h8.33333z"/></g><g><path d="M528.03175,304.16666v-8.33333h23.93651v8.33333z"/><path d="M544.16667,311.68254h-8.33333v-23.36508h8.33333z"/></g><g><path d="M468.03175,304.16666v-8.33333h23.93651v8.33333z"/><path d="M484.16667,311.68254h-8.33333v-23.36508h8.33333z"/></g><g><path d="M408.03175,124.16667v-8.33333h23.93651v8.33333z"/><path d="M424.16667,131.68254h-8.33333v-23.36508h8.33333z"/></g><g><path d="M408.03175,184.16667v-8.33333h23.93651v8.33333z"/><path d="M424.16667,191.68254h-8.33333v-23.36508h8.33333z"/></g><g><path d="M528.03175,124.16667v-8.33333h23.93651v8.33333z"/><path d="M544.16667,131.68254h-8.33333v-23.36508h8.33333z"/></g><g><path d="M468.03175,124.16667v-8.33333h23.93651v8.33333z"/><path d="M484.16667,131.68254h-8.33333v-23.36508h8.33333z"/></g><g><path d="M528.03175,184.16667v-8.33333h23.93651v8.33333z"/><path d="M544.16667,191.68254h-8.33333v-23.36508h8.33333z"/></g><g><path d="M468.03175,184.16667v-8.33333h23.93651v8.33333z"/><path d="M484.16667,191.68254h-8.33333v-23.36508h8.33333z"/></g><g><path d="M528.03175,364.16667v-8.33333h23.93651v8.33333z"/><path d="M544.16667,371.68254h-8.33333v-23.36508h8.33333z"/></g><g><path d="M468.03175,364.16667v-8.33333h23.93651v8.33333z"/><path d="M484.16667,371.68254h-8.33333v-23.36508h8.33333z"/></g><g><path d="M528.03175,424.16667v-8.33333h23.93651v8.33333z"/><path d="M544.16667,431.68254h-8.33333v-23.36508h8.33333z"/></g><g><path d="M468.03175,424.16667v-8.33333h23.93651v8.33333z"/><path d="M484.16667,431.68254h-8.33333v-23.36508h8.33333z"/></g><g><path d="M408.03175,64.16666v-8.33333h23.93651v8.33333z"/><path d="M424.16667,71.68254h-8.33333v-23.36508h8.33333z"/></g><g><path d="M528.03175,64.16666v-8.33333h23.93651v8.33333z"/><path d="M544.16667,71.68254h-8.33333v-23.36508h8.33333z"/></g><g><path d="M468.03175,64.16666v-8.33333h23.93651v8.33333z"/><path d="M484.16667,71.68254h-8.33333v-23.36508h8.33333z"/></g><g><path d="M408.03175,364.16667v-8.33333h23.93651v8.33333z"/><path d="M424.16667,371.68254h-8.33333v-23.36508h8.33333z"/></g><g><path d="M408.03175,424.16667v-8.33333h23.93651v8.33333z"/><path d="M424.16667,431.68254h-8.33333v-23.36508h8.33333z"/></g><g><path d="M-11.96825,244.16667v-8.33333h23.93651v8.33333z"/><path d="M4.16667,251.68254h-8.33333v-23.36508h8.33333z"/></g><g><path d="M-71.96825,244.16667v-8.33333h23.93651v8.33333z"/><path d="M-55.83333,251.68254h-8.33333v-23.36508h8.33333z"/></g><g><path d="M-11.96825,304.16666v-8.33333h23.93651v8.33333z"/><path d="M4.16667,311.68254h-8.33333v-23.36508h8.33333z"/></g><g><path d="M-71.96825,304.16666v-8.33333h23.93651v8.33333z"/><path d="M-55.83333,311.68254h-8.33333v-23.36508h8.33333z"/></g><g><path d="M-11.96825,124.16667v-8.33333h23.93651v8.33333z"/><path d="M4.16667,131.68254h-8.33333v-23.36508h8.33333z"/></g><g><path d="M-71.96825,124.16667v-8.33333h23.93651v8.33333z"/><path d="M-55.83333,131.68254h-8.33333v-23.36508h8.33333z"/></g><g><path d="M-11.96825,184.16667v-8.33333h23.93651v8.33333z"/><path d="M4.16667,191.68254h-8.33333v-23.36508h8.33333z"/></g><g><path d="M-71.96825,184.16667v-8.33333h23.93651v8.33333z"/><path d="M-55.83333,191.68254h-8.33333v-23.36508h8.33333z"/></g><g><path d="M-11.96825,364.16667v-8.33333h23.93651v8.33333z"/><path d="M4.16667,371.68254h-8.33333v-23.36508h8.33333z"/></g><g><path d="M-71.96825,364.16667v-8.33333h23.93651v8.33333z"/><path d="M-55.83333,371.68254h-8.33333v-23.36508h8.33333z"/></g><g><path d="M-11.96825,424.16667v-8.33333h23.93651v8.33333z"/><path d="M4.16667,431.68254h-8.33333v-23.36508h8.33333z"/></g><g><path d="M-71.96825,424.16667v-8.33333h23.93651v8.33333z"/><path d="M-55.83333,431.68254h-8.33333v-23.36508h8.33333z"/></g><g><path d="M-11.96825,64.16666v-8.33333h23.93651v8.33333z"/><path d="M4.16667,71.68254h-8.33333v-23.36508h8.33333z"/></g><g><path d="M-71.96825,64.16666v-8.33333h23.93651v8.33333z"/><path d="M-55.83333,71.68254h-8.33333v-23.36508h8.33333z"/></g><g><path d="M228.03175,4.16666v-8.33333h23.93651v8.33333z"/><path d="M244.16667,11.68254h-8.33333v-23.36508h8.33333z"/></g><g><path d="M168.03175,4.16666v-8.33333h23.93651v8.33333z"/><path d="M184.16667,11.68254h-8.33333v-23.36508h8.33333z"/></g><g><path d="M348.03175,4.16666v-8.33333h23.93651v8.33333z"/><path d="M364.16667,11.68254h-8.33333v-23.36508h8.33333z"/></g><g><path d="M288.03175,4.16666v-8.33333h23.93651v8.33333z"/><path d="M304.16667,11.68254h-8.33333v-23.36508h8.33333z"/></g><g><path d="M228.03175,-55.83334v-8.33333h23.93651v8.33333z"/><path d="M244.16667,-48.31746h-8.33333v-23.36508h8.33333z"/></g><g><path d="M168.03175,-55.83334v-8.33333h23.93651v8.33333z"/><path d="M184.16667,-48.31746h-8.33333v-23.36508h8.33333z"/></g><g><path d="M348.03175,-55.83334v-8.33333h23.93651v8.33333z"/><path d="M364.16667,-48.31746h-8.33333v-23.36508h8.33333z"/></g><g><path d="M288.03175,-55.83334v-8.33333h23.93651v8.33333z"/><path d="M304.16667,-48.31746h-8.33333v-23.36508h8.33333z"/></g><g><path d="M108.03175,4.16666v-8.33333h23.93651v8.33333z"/><path d="M124.16667,11.68254h-8.33333v-23.36508h8.33333z"/></g><g><path d="M48.03175,4.16666v-8.33333h23.93651v8.33333z"/><path d="M64.16666,11.68254h-8.33333v-23.36508h8.33333z"/></g><g><path d="M108.03175,-55.83334v-8.33333h23.93651v8.33333z"/><path d="M124.16667,-48.31746h-8.33333v-23.36508h8.33333z"/></g><g><path d="M48.03175,-55.83334v-8.33333h23.93651v8.33333z"/><path d="M64.16666,-48.31746h-8.33333v-23.36508h8.33333z"/></g><g><path d="M408.03175,4.16666v-8.33333h23.93651v8.33333z"/><path d="M424.16667,11.68254h-8.33333v-23.36508h8.33333z"/></g><g><path d="M528.03175,4.16666v-8.33333h23.93651v8.33333z"/><path d="M544.16667,11.68254h-8.33333v-23.36508h8.33333z"/></g><g><path d="M468.03175,4.16666v-8.33333h23.93651v8.33333z"/><path d="M484.16667,11.68254h-8.33333v-23.36508h8.33333z"/></g><g><path d="M408.03175,-55.83334v-8.33333h23.93651v8.33333z"/><path d="M424.16667,-48.31746h-8.33333v-23.36508h8.33333z"/></g><g><path d="M528.03175,-55.83334v-8.33333h23.93651v8.33333z"/><path d="M544.16667,-48.31746h-8.33333v-23.36508h8.33333z"/></g><g><path d="M468.03175,-55.83334v-8.33333h23.93651v8.33333z"/><path d="M484.16667,-48.31746h-8.33333v-23.36508h8.33333z"/></g><g><path d="M-11.96825,4.16666v-8.33333h23.93651v8.33333z"/><path d="M4.16667,11.68254h-8.33333v-23.36508h8.33333z"/></g><g><path d="M-71.96825,4.16666v-8.33333h23.93651v8.33333z"/><path d="M-55.83334,11.68254h-8.33333v-23.36508h8.33333z"/></g><g><path d="M-11.96825,-55.83334v-8.33333h23.93651v8.33333z"/><path d="M4.16667,-48.31746h-8.33333v-23.36508h8.33333z"/></g><g><path d="M-71.96825,-55.83334v-8.33333h23.93651v8.33333z"/><path d="M-55.83334,-48.31746h-8.33333v-23.36508h8.33333z"/></g></g></g></svg>